<!DOCTYPE svg PUBLIC "-//W3C//DTD SVG 1.1//EN" "http://www.w3.org/Graphics/SVG/1.1/DTD/svg11.dtd">
<svg width="1280.0px" height="480.0px" viewBox="0.0 0.0 1280.0 480.0" xmlns="http://www.w3.org/2000/svg" xmlns:xlink="http://www.w3.org/1999/xlink" version="1.1">
  <path d="M 0 0 L 0 480 L 1280 480 L 1280 0 z" fill="#FFFFFF" fill-opacity="1.0" stroke="none"/>
  <text x="50" y="468.7" font-family="Helvetica" font-size="10" font-weight="normal" font-style="normal" fill="#000000" fill-opacity="1">Average per-element processing time over input size (bands: min, mean, mean + 2stddev)</text>
  <a xlink:href="https://github.com/apple/swift-collections-benchmark"><text x="1107" y="468.7" font-family="Helvetica" font-size="10" font-weight="normal" font-style="normal" fill="#000000" fill-opacity="1">swift-collections-benchmark</text></a>
  <path d="M 50 9 L 50 441" fill="none" stroke-width="0.75" stroke="#000000" stroke-opacity="0.49804" stroke-linecap="butt" stroke-linejoin="round"/>
  <text x="47" y="453.7" font-family="Helvetica" font-size="10" font-weight="normal" font-style="normal" fill="#000000" fill-opacity="1">1</text>
  <path d="M 109 9 L 109 441" fill="none" stroke-width="0.75" stroke="#000000" stroke-opacity="0.49804" stroke-linecap="butt" stroke-linejoin="round"/>
  <text x="106" y="453.7" font-family="Helvetica" font-size="10" font-weight="normal" font-style="normal" fill="#000000" fill-opacity="1">2</text>
  <path d="M 168 9 L 168 441" fill="none" stroke-width="0.75" stroke="#000000" stroke-opacity="0.49804" stroke-linecap="butt" stroke-linejoin="round"/>
  <text x="165" y="453.7" font-family="Helvetica" font-size="10" font-weight="normal" font-style="normal" fill="#000000" fill-opacity="1">4</text>
  <path d="M 227 9 L 227 441" fill="none" stroke-width="0.75" stroke="#000000" stroke-opacity="0.49804" stroke-linecap="butt" stroke-linejoin="round"/>
  <text x="224" y="453.7" font-family="Helvetica" font-size="10" font-weight="normal" font-style="normal" fill="#000000" fill-opacity="1">8</text>
  <path d="M 286 9 L 286 441" fill="none" stroke-width="0.75" stroke="#000000" stroke-opacity="0.49804" stroke-linecap="butt" stroke-linejoin="round"/>
  <text x="280" y="453.7" font-family="Helvetica" font-size="10" font-weight="normal" font-style="normal" fill="#000000" fill-opacity="1">16</text>
  <path d="M 345 9 L 345 441" fill="none" stroke-width="0.75" stroke="#000000" stroke-opacity="0.49804" stroke-linecap="butt" stroke-linejoin="round"/>
  <text x="339" y="453.7" font-family="Helvetica" font-size="10" font-weight="normal" font-style="normal" fill="#000000" fill-opacity="1">32</text>
  <path d="M 404 9 L 404 441" fill="none" stroke-width="0.75" stroke="#000000" stroke-opacity="0.49804" stroke-linecap="butt" stroke-linejoin="round"/>
  <text x="398" y="453.7" font-family="Helvetica" font-size="10" font-weight="normal" font-style="normal" fill="#000000" fill-opacity="1">64</text>
  <path d="M 463 9 L 463 441" fill="none" stroke-width="0.75" stroke="#000000" stroke-opacity="0.49804" stroke-linecap="butt" stroke-linejoin="round"/>
  <text x="454.5" y="453.7" font-family="Helvetica" font-size="10" font-weight="normal" font-style="normal" fill="#000000" fill-opacity="1">128</text>
  <path d="M 522 9 L 522 441" fill="none" stroke-width="0.75" stroke="#000000" stroke-opacity="0.49804" stroke-linecap="butt" stroke-linejoin="round"/>
  <text x="513.5" y="453.7" font-family="Helvetica" font-size="10" font-weight="normal" font-style="normal" fill="#000000" fill-opacity="1">256</text>
  <path d="M 581 9 L 581 441" fill="none" stroke-width="0.75" stroke="#000000" stroke-opacity="0.49804" stroke-linecap="butt" stroke-linejoin="round"/>
  <text x="572.5" y="453.7" font-family="Helvetica" font-size="10" font-weight="normal" font-style="normal" fill="#000000" fill-opacity="1">512</text>
  <path d="M 640 9 L 640 441" fill="none" stroke-width="0.75" stroke="#000000" stroke-opacity="0.49804" stroke-linecap="butt" stroke-linejoin="round"/>
  <text x="634.5" y="453.7" font-family="Helvetica" font-size="10" font-weight="normal" font-style="normal" fill="#000000" fill-opacity="1">1k</text>
  <path d="M 699 9 L 699 441" fill="none" stroke-width="0.75" stroke="#000000" stroke-opacity="0.49804" stroke-linecap="butt" stroke-linejoin="round"/>
  <text x="693.5" y="453.7" font-family="Helvetica" font-size="10" font-weight="normal" font-style="normal" fill="#000000" fill-opacity="1">2k</text>
  <path d="M 758 9 L 758 441" fill="none" stroke-width="0.75" stroke="#000000" stroke-opacity="0.49804" stroke-linecap="butt" stroke-linejoin="round"/>
  <text x="752.5" y="453.7" font-family="Helvetica" font-size="10" font-weight="normal" font-style="normal" fill="#000000" fill-opacity="1">4k</text>
  <path d="M 817 9 L 817 441" fill="none" stroke-width="0.75" stroke="#000000" stroke-opacity="0.49804" stroke-linecap="butt" stroke-linejoin="round"/>
  <text x="811.5" y="453.7" font-family="Helvetica" font-size="10" font-weight="normal" font-style="normal" fill="#000000" fill-opacity="1">8k</text>
  <path d="M 876 9 L 876 441" fill="none" stroke-width="0.75" stroke="#000000" stroke-opacity="0.49804" stroke-linecap="butt" stroke-linejoin="round"/>
  <text x="867.5" y="453.7" font-family="Helvetica" font-size="10" font-weight="normal" font-style="normal" fill="#000000" fill-opacity="1">16k</text>
  <path d="M 935 9 L 935 441" fill="none" stroke-width="0.75" stroke="#000000" stroke-opacity="0.49804" stroke-linecap="butt" stroke-linejoin="round"/>
  <text x="926.5" y="453.7" font-family="Helvetica" font-size="10" font-weight="normal" font-style="normal" fill="#000000" fill-opacity="1">32k</text>
  <path d="M 994 9 L 994 441" fill="none" stroke-width="0.75" stroke="#000000" stroke-opacity="0.49804" stroke-linecap="butt" stroke-linejoin="round"/>
  <text x="985.5" y="453.7" font-family="Helvetica" font-size="10" font-weight="normal" font-style="normal" fill="#000000" fill-opacity="1">64k</text>
  <path d="M 1053 9 L 1053 441" fill="none" stroke-width="0.75" stroke="#000000" stroke-opacity="0.49804" stroke-linecap="butt" stroke-linejoin="round"/>
  <text x="1042" y="453.7" font-family="Helvetica" font-size="10" font-weight="normal" font-style="normal" fill="#000000" fill-opacity="1">128k</text>
  <path d="M 1112 9 L 1112 441" fill="none" stroke-width="0.75" stroke="#000000" stroke-opacity="0.49804" stroke-linecap="butt" stroke-linejoin="round"/>
  <text x="1101" y="453.7" font-family="Helvetica" font-size="10" font-weight="normal" font-style="normal" fill="#000000" fill-opacity="1">256k</text>
  <path d="M 1171 9 L 1171 441" fill="none" stroke-width="0.75" stroke="#000000" stroke-opacity="0.49804" stroke-linecap="butt" stroke-linejoin="round"/>
  <text x="1160" y="453.7" font-family="Helvetica" font-size="10" font-weight="normal" font-style="normal" fill="#000000" fill-opacity="1">512k</text>
  <path d="M 1230 9 L 1230 441" fill="none" stroke-width="0.75" stroke="#000000" stroke-opacity="0.49804" stroke-linecap="butt" stroke-linejoin="round"/>
  <text x="1223" y="453.7" font-family="Helvetica" font-size="10" font-weight="normal" font-style="normal" fill="#000000" fill-opacity="1">1M</text>
  <path d="M 50 441 L 1230 441" fill="none" stroke-width="0.75" stroke="#000000" stroke-opacity="0.49804" stroke-linecap="butt" stroke-linejoin="round"/>
  <text x="16" y="442.7" font-family="Helvetica" font-size="10" font-weight="normal" font-style="normal" fill="#000000" fill-opacity="1">100 ps</text>
  <text x="1236" y="442.7" font-family="Helvetica" font-size="10" font-weight="normal" font-style="normal" fill="#000000" fill-opacity="1">100 ps</text>
  <path d="M 50 333 L 1230 333" fill="none" stroke-width="0.75" stroke="#000000" stroke-opacity="0.49804" stroke-linecap="butt" stroke-linejoin="round"/>
  <text x="27" y="334.7" font-family="Helvetica" font-size="10" font-weight="normal" font-style="normal" fill="#000000" fill-opacity="1">1 ns</text>
  <text x="1236" y="334.7" font-family="Helvetica" font-size="10" font-weight="normal" font-style="normal" fill="#000000" fill-opacity="1">1 ns</text>
  <path d="M 50 225 L 1230 225" fill="none" stroke-width="0.75" stroke="#000000" stroke-opacity="0.49804" stroke-linecap="butt" stroke-linejoin="round"/>
  <text x="21" y="226.7" font-family="Helvetica" font-size="10" font-weight="normal" font-style="normal" fill="#000000" fill-opacity="1">10 ns</text>
  <text x="1236" y="226.7" font-family="Helvetica" font-size="10" font-weight="normal" font-style="normal" fill="#000000" fill-opacity="1">10 ns</text>
  <path d="M 50 117 L 1230 117" fill="none" stroke-width="0.75" stroke="#000000" stroke-opacity="0.49804" stroke-linecap="butt" stroke-linejoin="round"/>
  <text x="16" y="118.7" font-family="Helvetica" font-size="10" font-weight="normal" font-style="normal" fill="#000000" fill-opacity="1">100 ns</text>
  <text x="1236" y="118.7" font-family="Helvetica" font-size="10" font-weight="normal" font-style="normal" fill="#000000" fill-opacity="1">100 ns</text>
  <path d="M 50 9 L 1230 9" fill="none" stroke-width="0.75" stroke="#000000" stroke-opacity="0.49804" stroke-linecap="butt" stroke-linejoin="round"/>
  <text x="26" y="10.7" font-family="Helvetica" font-size="10" font-weight="normal" font-style="normal" fill="#000000" fill-opacity="1">1 µs</text>
  <text x="1236" y="10.7" font-family="Helvetica" font-size="10" font-weight="normal" font-style="normal" fill="#000000" fill-opacity="1">1 µs</text>
  <path d="M 50 408.49 L 1230 408.49" fill="none" stroke-width="0.5" stroke="#000000" stroke-opacity="0.25882" stroke-linecap="butt" stroke-linejoin="round" stroke-dasharray="6 3" stroke-dashoffset="0"/>
  <path d="M 50 375.98 L 1230 375.98" fill="none" stroke-width="0.5" stroke="#000000" stroke-opacity="0.25882" stroke-linecap="butt" stroke-linejoin="round" stroke-dasharray="6 3" stroke-dashoffset="0"/>
  <path d="M 50 343.47 L 1230 343.47" fill="none" stroke-width="0.5" stroke="#000000" stroke-opacity="0.25882" stroke-linecap="butt" stroke-linejoin="round" stroke-dasharray="6 3" stroke-dashoffset="0"/>
  <path d="M 50 310.96 L 1230 310.96" fill="none" stroke-width="0.5" stroke="#000000" stroke-opacity="0.25882" stroke-linecap="butt" stroke-linejoin="round" stroke-dasharray="6 3" stroke-dashoffset="0"/>
  <path d="M 50 278.44 L 1230 278.44" fill="none" stroke-width="0.5" stroke="#000000" stroke-opacity="0.25882" stroke-linecap="butt" stroke-linejoin="round" stroke-dasharray="6 3" stroke-dashoffset="0"/>
  <path d="M 50 245.93 L 1230 245.93" fill="none" stroke-width="0.5" stroke="#000000" stroke-opacity="0.25882" stroke-linecap="butt" stroke-linejoin="round" stroke-dasharray="6 3" stroke-dashoffset="0"/>
  <path d="M 50 213.42 L 1230 213.42" fill="none" stroke-width="0.5" stroke="#000000" stroke-opacity="0.25882" stroke-linecap="butt" stroke-linejoin="round" stroke-dasharray="6 3" stroke-dashoffset="0"/>
  <path d="M 50 180.91 L 1230 180.91" fill="none" stroke-width="0.5" stroke="#000000" stroke-opacity="0.25882" stroke-linecap="butt" stroke-linejoin="round" stroke-dasharray="6 3" stroke-dashoffset="0"/>
  <path d="M 50 148.4 L 1230 148.4" fill="none" stroke-width="0.5" stroke="#000000" stroke-opacity="0.25882" stroke-linecap="butt" stroke-linejoin="round" stroke-dasharray="6 3" stroke-dashoffset="0"/>
  <path d="M 50 115.89 L 1230 115.89" fill="none" stroke-width="0.5" stroke="#000000" stroke-opacity="0.25882" stroke-linecap="butt" stroke-linejoin="round" stroke-dasharray="6 3" stroke-dashoffset="0"/>
  <path d="M 50 83.376 L 1230 83.376" fill="none" stroke-width="0.5" stroke="#000000" stroke-opacity="0.25882" stroke-linecap="butt" stroke-linejoin="round" stroke-dasharray="6 3" stroke-dashoffset="0"/>
  <path d="M 50 50.865 L 1230 50.865" fill="none" stroke-width="0.5" stroke="#000000" stroke-opacity="0.25882" stroke-linecap="butt" stroke-linejoin="round" stroke-dasharray="6 3" stroke-dashoffset="0"/>
  <path d="M 50 18.354 L 1230 18.354" fill="none" stroke-width="0.5" stroke="#000000" stroke-opacity="0.25882" stroke-linecap="butt" stroke-linejoin="round" stroke-dasharray="6 3" stroke-dashoffset="0"/>
  <path d="M 74 33 L 74 88 L 348 88 L 348 33 z" fill="#FFFFFF" fill-opacity="1.0" stroke="none"/>
  <clipPath id="clip-0">
    <path d="M 50 9 L 50 441 L 1230 441 L 1230 9 z"/>
  </clipPath>
  <g clip-path="url(#clip-0)">
    <path d="M 50 70.775L 109 109.94L 143.51 117.52L 168 121.83L 186.99 125.6L 202.51 125.4L 215.63 115.38L 227 118.56L 245.99 120.05L 261.51 120.75L 274.63 121.28L 286 124.11L 304.99 121.99L 320.51 121.3L 333.63 121.54L 345 120.72L 363.99 119.98L 379.51 119.41L 392.63 118.6L 404 118.53L 422.99 116.8L 438.51 117.59L 451.63 114.84L 463 115.36L 481.99 113.31L 497.51 112.9L 510.63 111.3L 522 111.19L 540.99 107.7L 556.51 109.21L 569.63 106.51L 581 105.39L 599.99 105.33L 615.51 103.86L 628.63 102.41L 640 102.27L 658.99 101.73L 674.51 103.01L 687.63 102.15L 699 99.486L 717.99 97.456L 733.51 99.041L 746.63 96.994L 758 98.994L 776.99 94.083L 792.51 94.368L 805.63 93.168L 817 92.902L 835.99 91.442L 851.51 91.375L 864.63 91.374L 876 89.776L 894.99 88.242L 910.51 86.996L 923.63 89.826L 935 89.156L 953.99 90.453L 969.51 88.46L 969.51 88.46L 953.99 90.453L 935 89.156L 923.63 89.826L 910.51 86.996L 894.99 88.242L 876 89.776L 864.63 91.374L 851.51 91.375L 835.99 91.442L 817 92.902L 805.63 93.168L 792.51 94.368L 776.99 94.083L 758 98.994L 746.63 96.994L 733.51 99.041L 717.99 97.456L 699 99.486L 687.63 102.15L 674.51 103.01L 658.99 101.73L 640 102.27L 628.63 102.41L 615.51 103.86L 599.99 105.33L 581 105.39L 569.63 106.51L 556.51 109.21L 540.99 107.7L 522 111.19L 510.63 111.3L 497.51 112.9L 481.99 113.31L 463 115.36L 451.63 114.84L 438.51 117.59L 422.99 116.8L 404 118.53L 392.63 118.6L 379.51 119.41L 363.99 119.98L 345 120.72L 333.63 121.54L 320.51 121.3L 304.99 121.99L 286 124.11L 274.63 121.28L 261.51 120.75L 245.99 120.05L 227 118.56L 215.63 115.38L 202.51 125.4L 186.99 125.6L 168 121.83L 143.51 117.52L 109 109.94L 50 70.775" fill="#007AFF" fill-opacity="0.30196078431372547" stroke="none"/>
    <path d="M 50 160.97L 109 192.04L 143.51 209.63L 168 222.65L 186.99 233.59L 202.51 244.02L 215.63 250.77L 227 256.55L 245.99 267.5L 261.51 275.09L 274.63 282.8L 286 287.22L 304.99 298.11L 320.51 306.2L 333.63 312.59L 345 288.54L 363.99 299.97L 379.51 301.68L 392.63 314.43L 404 314.73L 422.99 324.14L 438.51 334.44L 451.63 341.97L 463 368.57L 481.99 375.86L 497.51 380.89L 510.63 384.85L 522 388.05L 540.99 392.72L 556.51 395.17L 569.63 396.1L 581 398.21L 599.99 398.42L 615.51 402.12L 628.63 401.96L 640 406.86L 658.99 408.1L 674.51 410.26L 687.63 410.1L 699 410.45L 717.99 410.23L 733.51 413.1L 746.63 413.21L 758 414.16L 776.99 407.49L 792.51 410.43L 805.63 404.52L 817 412.6L 835.99 415.85L 851.51 411.03L 864.63 414.46L 876 415.11L 894.99 413.72L 910.51 413.45L 923.63 415.39L 935 414.28L 953.99 415.7L 969.51 412.52L 982.63 415.68L 994 415.98L 1013 416.8L 1028.5 415.12L 1041.6 413.38L 1053 416.96L 1072 415.48L 1087.5 343.84L 1100.6 326.11L 1112 336.41L 1131 341.32L 1146.5 350.18L 1159.6 358.09L 1171 350.61L 1190 351.6L 1205.5 349.9L 1218.6 353.9L 1230 329.9L 1230 417.17L 1218.6 356.36L 1205.5 357.54L 1190 354.17L 1171 359.31L 1159.6 358.81L 1146.5 351.91L 1131 345.4L 1112 350.96L 1100.6 369.71L 1087.5 347.2L 1072 416.92L 1053 417.07L 1041.6 416.98L 1028.5 416.91L 1013 416.84L 994 416.77L 982.63 415.73L 969.51 416.71L 953.99 416.54L 935 416.83L 923.63 416.91L 910.51 415.96L 894.99 415.86L 876 415.56L 864.63 416.37L 851.51 414.5L 835.99 415.88L 817 414.56L 805.63 415.47L 792.51 415.2L 776.99 414.83L 758 414.16L 746.63 413.88L 733.51 413.58L 717.99 412.88L 699 411.8L 687.63 411.19L 674.51 410.26L 658.99 408.98L 640 407.03L 628.63 405.74L 615.51 404.08L 599.99 401.84L 581 398.21L 569.63 396.11L 556.51 395.92L 540.99 392.72L 522 388.05L 510.63 384.85L 497.51 380.89L 481.99 375.86L 463 369.2L 451.63 341.97L 438.51 339.26L 422.99 329.47L 404 320.62L 392.63 316.27L 379.51 308.56L 363.99 302.64L 345 293.31L 333.63 314.36L 320.51 306.2L 304.99 298.11L 286 288.12L 274.63 282.8L 261.51 275.09L 245.99 267.5L 227 256.55L 215.63 250.77L 202.51 244.02L 186.99 234.5L 168 223.56L 143.51 210.54L 109 192.98L 50 160.97" fill="#FF3B30" fill-opacity="0.30196078431372547" stroke="none"/>
    <path d="M 50 70.775L 109 109.94L 143.51 117.52L 168 121.83L 186.99 125.6L 202.51 125.4L 215.63 115.38L 227 118.56L 245.99 120.05L 261.51 120.75L 274.63 121.28L 286 124.11L 304.99 121.99L 320.51 121.3L 333.63 121.54L 345 120.72L 363.99 119.98L 379.51 119.41L 392.63 118.6L 404 118.53L 422.99 116.8L 438.51 117.59L 451.63 114.84L 463 115.36L 481.99 113.31L 497.51 112.9L 510.63 111.3L 522 111.19L 540.99 107.7L 556.51 109.21L 569.63 106.51L 581 105.39L 599.99 105.33L 615.51 103.86L 628.63 102.41L 640 102.27L 658.99 101.73L 674.51 103.01L 687.63 102.15L 699 99.486L 717.99 97.456L 733.51 99.041L 746.63 96.994L 758 98.994L 776.99 94.083L 792.51 94.368L 805.63 93.168L 817 92.902L 835.99 91.442L 851.51 91.375L 864.63 91.374L 876 89.776L 894.99 88.242L 910.51 86.996L 923.63 89.826L 935 89.156L 953.99 90.453L 969.51 88.46" fill="none" stroke-width="4" stroke="#007AFF" stroke-opacity="1" stroke-linecap="round" stroke-linejoin="round"/>
    <path d="M 50 160.97L 109 192.74L 143.51 210.3L 168 223.32L 186.99 234.26L 202.51 244.02L 215.63 250.77L 227 256.55L 245.99 267.5L 261.51 275.09L 274.63 282.8L 286 287.88L 304.99 298.11L 320.51 306.2L 333.63 313.89L 345 292.02L 363.99 301.93L 379.51 306.66L 392.63 315.78L 404 319.01L 422.99 328.02L 438.51 337.96L 451.63 341.97L 463 369.03L 481.99 375.86L 497.51 380.89L 510.63 384.85L 522 388.05L 540.99 392.72L 556.51 395.72L 569.63 396.11L 581 398.21L 599.99 400.92L 615.51 403.56L 628.63 404.73L 640 406.99L 658.99 408.75L 674.51 410.26L 687.63 410.9L 699 411.45L 717.99 412.17L 733.51 413.45L 746.63 413.7L 758 414.16L 776.99 412.8L 792.51 413.91L 805.63 412.35L 817 414.04L 835.99 415.87L 851.51 413.57L 864.63 415.86L 876 415.44L 894.99 415.3L 910.51 415.29L 923.63 416.51L 935 416.15L 953.99 416.32L 969.51 415.58L 982.63 415.72L 994 416.57L 1013 416.83L 1028.5 416.43L 1041.6 416.01L 1053 417.04L 1072 416.54L 1087.5 346.3L 1100.6 353.91L 1112 346.7L 1131 344.3L 1146.5 351.45L 1159.6 358.62L 1171 356.88L 1190 353.49L 1205.5 355.43L 1218.6 355.71L 1230 375.76" fill="none" stroke-width="4" stroke="#FF3B30" stroke-opacity="1" stroke-linecap="round" stroke-linejoin="round"/>
    <path d="M 50 70.775L 109 109.94L 143.51 117.52L 168 121.83L 186.99 125.6L 202.51 125.4L 215.63 115.38L 227 118.56L 245.99 120.05L 261.51 120.75L 274.63 121.28L 286 124.11L 304.99 121.99L 320.51 121.3L 333.63 121.54L 345 120.72L 363.99 119.98L 379.51 119.41L 392.63 118.6L 404 118.53L 422.99 116.8L 438.51 117.59L 451.63 114.84L 463 115.36L 481.99 113.31L 497.51 112.9L 510.63 111.3L 522 111.19L 540.99 107.7L 556.51 109.21L 569.63 106.51L 581 105.39L 599.99 105.33L 615.51 103.86L 628.63 102.41L 640 102.27L 658.99 101.73L 674.51 103.01L 687.63 102.15L 699 99.486L 717.99 97.456L 733.51 99.041L 746.63 96.994L 758 98.994L 776.99 94.083L 792.51 94.368L 805.63 93.168L 817 92.902L 835.99 91.442L 851.51 91.375L 864.63 91.374L 876 89.776L 894.99 88.242L 910.51 86.996L 923.63 89.826L 935 89.156L 953.99 90.453L 969.51 88.46" fill="none" stroke-width="0.5" stroke="#000000" stroke-opacity="0.30196" stroke-linecap="round" stroke-linejoin="round"/>
    <path d="M 50 160.97L 109 192.74L 143.51 210.3L 168 223.32L 186.99 234.26L 202.51 244.02L 215.63 250.77L 227 256.55L 245.99 267.5L 261.51 275.09L 274.63 282.8L 286 287.88L 304.99 298.11L 320.51 306.2L 333.63 313.89L 345 292.02L 363.99 301.93L 379.51 306.66L 392.63 315.78L 404 319.01L 422.99 328.02L 438.51 337.96L 451.63 341.97L 463 369.03L 481.99 375.86L 497.51 380.89L 510.63 384.85L 522 388.05L 540.99 392.72L 556.51 395.72L 569.63 396.11L 581 398.21L 599.99 400.92L 615.51 403.56L 628.63 404.73L 640 406.99L 658.99 408.75L 674.51 410.26L 687.63 410.9L 699 411.45L 717.99 412.17L 733.51 413.45L 746.63 413.7L 758 414.16L 776.99 412.8L 792.51 413.91L 805.63 412.35L 817 414.04L 835.99 415.87L 851.51 413.57L 864.63 415.86L 876 415.44L 894.99 415.3L 910.51 415.29L 923.63 416.51L 935 416.15L 953.99 416.32L 969.51 415.58L 982.63 415.72L 994 416.57L 1013 416.83L 1028.5 416.43L 1041.6 416.01L 1053 417.04L 1072 416.54L 1087.5 346.3L 1100.6 353.91L 1112 346.7L 1131 344.3L 1146.5 351.45L 1159.6 358.62L 1171 356.88L 1190 353.49L 1205.5 355.43L 1218.6 355.71L 1230 375.76" fill="none" stroke-width="0.5" stroke="#000000" stroke-opacity="0.30196" stroke-linecap="round" stroke-linejoin="round"/>
  </g>
  <path d="M 74 33 L 74 88 L 348 88 L 348 33 z" fill="#FFFFFF" fill-opacity="0.7019607843137254" stroke-width="0.5" stroke="#000000" stroke-opacity="1" stroke-linecap="round" stroke-linejoin="round"/>
  <path d="M 88 52 L 108 52" fill="none" stroke-width="4" stroke="#FF3B30" stroke-opacity="1" stroke-linecap="round" stroke-linejoin="round"/>
  <path d="M 88 52 L 108 52" fill="none" stroke-width="0.5" stroke="#000000" stroke-opacity="0.30196" stroke-linecap="round" stroke-linejoin="round"/>
  <text x="119" y="56.17" font-family="Menlo" font-size="12" font-weight="normal" font-style="normal" fill="#000000" fill-opacity="1">Array&lt;Int&gt; init from range</text>
  <path d="M 88 69 L 108 69" fill="none" stroke-width="4" stroke="#007AFF" stroke-opacity="1" stroke-linecap="round" stroke-linejoin="round"/>
  <path d="M 88 69 L 108 69" fill="none" stroke-width="0.5" stroke="#000000" stroke-opacity="0.30196" stroke-linecap="round" stroke-linejoin="round"/>
  <text x="119" y="73.17" font-family="Menlo" font-size="12" font-weight="normal" font-style="normal" fill="#000000" fill-opacity="1">TreeArray&lt;Int&gt; init from range</text>
  <path d="M 50 9 L 50 441 L 1230 441 L 1230 9 z" fill="none" stroke-width="0.5" stroke="#000000" stroke-opacity="1" stroke-linecap="round" stroke-linejoin="round"/>
</svg>
