<!DOCTYPE svg PUBLIC "-//W3C//DTD SVG 1.1//EN" "http://www.w3.org/Graphics/SVG/1.1/DTD/svg11.dtd">
<svg width="1280.0px" height="480.0px" viewBox="0.0 0.0 1280.0 480.0" xmlns="http://www.w3.org/2000/svg" xmlns:xlink="http://www.w3.org/1999/xlink" version="1.1">
  <path d="M 0 0 L 0 480 L 1280 480 L 1280 0 z" fill="#FFFFFF" fill-opacity="1.0" stroke="none"/>
  <text x="50" y="468.7" font-family="Helvetica" font-size="10" font-weight="normal" font-style="normal" fill="#000000" fill-opacity="1">Average per-element processing time over input size (bands: min, mean, mean + 2stddev)</text>
  <a xlink:href="https://github.com/apple/swift-collections-benchmark"><text x="1107" y="468.7" font-family="Helvetica" font-size="10" font-weight="normal" font-style="normal" fill="#000000" fill-opacity="1">swift-collections-benchmark</text></a>
  <path d="M 50 9 L 50 441" fill="none" stroke-width="0.75" stroke="#000000" stroke-opacity="0.49804" stroke-linecap="butt" stroke-linejoin="round"/>
  <text x="47" y="453.7" font-family="Helvetica" font-size="10" font-weight="normal" font-style="normal" fill="#000000" fill-opacity="1">1</text>
  <path d="M 109 9 L 109 441" fill="none" stroke-width="0.75" stroke="#000000" stroke-opacity="0.49804" stroke-linecap="butt" stroke-linejoin="round"/>
  <text x="106" y="453.7" font-family="Helvetica" font-size="10" font-weight="normal" font-style="normal" fill="#000000" fill-opacity="1">2</text>
  <path d="M 168 9 L 168 441" fill="none" stroke-width="0.75" stroke="#000000" stroke-opacity="0.49804" stroke-linecap="butt" stroke-linejoin="round"/>
  <text x="165" y="453.7" font-family="Helvetica" font-size="10" font-weight="normal" font-style="normal" fill="#000000" fill-opacity="1">4</text>
  <path d="M 227 9 L 227 441" fill="none" stroke-width="0.75" stroke="#000000" stroke-opacity="0.49804" stroke-linecap="butt" stroke-linejoin="round"/>
  <text x="224" y="453.7" font-family="Helvetica" font-size="10" font-weight="normal" font-style="normal" fill="#000000" fill-opacity="1">8</text>
  <path d="M 286 9 L 286 441" fill="none" stroke-width="0.75" stroke="#000000" stroke-opacity="0.49804" stroke-linecap="butt" stroke-linejoin="round"/>
  <text x="280" y="453.7" font-family="Helvetica" font-size="10" font-weight="normal" font-style="normal" fill="#000000" fill-opacity="1">16</text>
  <path d="M 345 9 L 345 441" fill="none" stroke-width="0.75" stroke="#000000" stroke-opacity="0.49804" stroke-linecap="butt" stroke-linejoin="round"/>
  <text x="339" y="453.7" font-family="Helvetica" font-size="10" font-weight="normal" font-style="normal" fill="#000000" fill-opacity="1">32</text>
  <path d="M 404 9 L 404 441" fill="none" stroke-width="0.75" stroke="#000000" stroke-opacity="0.49804" stroke-linecap="butt" stroke-linejoin="round"/>
  <text x="398" y="453.7" font-family="Helvetica" font-size="10" font-weight="normal" font-style="normal" fill="#000000" fill-opacity="1">64</text>
  <path d="M 463 9 L 463 441" fill="none" stroke-width="0.75" stroke="#000000" stroke-opacity="0.49804" stroke-linecap="butt" stroke-linejoin="round"/>
  <text x="454.5" y="453.7" font-family="Helvetica" font-size="10" font-weight="normal" font-style="normal" fill="#000000" fill-opacity="1">128</text>
  <path d="M 522 9 L 522 441" fill="none" stroke-width="0.75" stroke="#000000" stroke-opacity="0.49804" stroke-linecap="butt" stroke-linejoin="round"/>
  <text x="513.5" y="453.7" font-family="Helvetica" font-size="10" font-weight="normal" font-style="normal" fill="#000000" fill-opacity="1">256</text>
  <path d="M 581 9 L 581 441" fill="none" stroke-width="0.75" stroke="#000000" stroke-opacity="0.49804" stroke-linecap="butt" stroke-linejoin="round"/>
  <text x="572.5" y="453.7" font-family="Helvetica" font-size="10" font-weight="normal" font-style="normal" fill="#000000" fill-opacity="1">512</text>
  <path d="M 640 9 L 640 441" fill="none" stroke-width="0.75" stroke="#000000" stroke-opacity="0.49804" stroke-linecap="butt" stroke-linejoin="round"/>
  <text x="634.5" y="453.7" font-family="Helvetica" font-size="10" font-weight="normal" font-style="normal" fill="#000000" fill-opacity="1">1k</text>
  <path d="M 699 9 L 699 441" fill="none" stroke-width="0.75" stroke="#000000" stroke-opacity="0.49804" stroke-linecap="butt" stroke-linejoin="round"/>
  <text x="693.5" y="453.7" font-family="Helvetica" font-size="10" font-weight="normal" font-style="normal" fill="#000000" fill-opacity="1">2k</text>
  <path d="M 758 9 L 758 441" fill="none" stroke-width="0.75" stroke="#000000" stroke-opacity="0.49804" stroke-linecap="butt" stroke-linejoin="round"/>
  <text x="752.5" y="453.7" font-family="Helvetica" font-size="10" font-weight="normal" font-style="normal" fill="#000000" fill-opacity="1">4k</text>
  <path d="M 817 9 L 817 441" fill="none" stroke-width="0.75" stroke="#000000" stroke-opacity="0.49804" stroke-linecap="butt" stroke-linejoin="round"/>
  <text x="811.5" y="453.7" font-family="Helvetica" font-size="10" font-weight="normal" font-style="normal" fill="#000000" fill-opacity="1">8k</text>
  <path d="M 876 9 L 876 441" fill="none" stroke-width="0.75" stroke="#000000" stroke-opacity="0.49804" stroke-linecap="butt" stroke-linejoin="round"/>
  <text x="867.5" y="453.7" font-family="Helvetica" font-size="10" font-weight="normal" font-style="normal" fill="#000000" fill-opacity="1">16k</text>
  <path d="M 935 9 L 935 441" fill="none" stroke-width="0.75" stroke="#000000" stroke-opacity="0.49804" stroke-linecap="butt" stroke-linejoin="round"/>
  <text x="926.5" y="453.7" font-family="Helvetica" font-size="10" font-weight="normal" font-style="normal" fill="#000000" fill-opacity="1">32k</text>
  <path d="M 994 9 L 994 441" fill="none" stroke-width="0.75" stroke="#000000" stroke-opacity="0.49804" stroke-linecap="butt" stroke-linejoin="round"/>
  <text x="985.5" y="453.7" font-family="Helvetica" font-size="10" font-weight="normal" font-style="normal" fill="#000000" fill-opacity="1">64k</text>
  <path d="M 1053 9 L 1053 441" fill="none" stroke-width="0.75" stroke="#000000" stroke-opacity="0.49804" stroke-linecap="butt" stroke-linejoin="round"/>
  <text x="1042" y="453.7" font-family="Helvetica" font-size="10" font-weight="normal" font-style="normal" fill="#000000" fill-opacity="1">128k</text>
  <path d="M 1112 9 L 1112 441" fill="none" stroke-width="0.75" stroke="#000000" stroke-opacity="0.49804" stroke-linecap="butt" stroke-linejoin="round"/>
  <text x="1101" y="453.7" font-family="Helvetica" font-size="10" font-weight="normal" font-style="normal" fill="#000000" fill-opacity="1">256k</text>
  <path d="M 1171 9 L 1171 441" fill="none" stroke-width="0.75" stroke="#000000" stroke-opacity="0.49804" stroke-linecap="butt" stroke-linejoin="round"/>
  <text x="1160" y="453.7" font-family="Helvetica" font-size="10" font-weight="normal" font-style="normal" fill="#000000" fill-opacity="1">512k</text>
  <path d="M 1230 9 L 1230 441" fill="none" stroke-width="0.75" stroke="#000000" stroke-opacity="0.49804" stroke-linecap="butt" stroke-linejoin="round"/>
  <text x="1223" y="453.7" font-family="Helvetica" font-size="10" font-weight="normal" font-style="normal" fill="#000000" fill-opacity="1">1M</text>
  <path d="M 50 441 L 1230 441" fill="none" stroke-width="0.75" stroke="#000000" stroke-opacity="0.49804" stroke-linecap="butt" stroke-linejoin="round"/>
  <text x="16" y="442.7" font-family="Helvetica" font-size="10" font-weight="normal" font-style="normal" fill="#000000" fill-opacity="1">100 ps</text>
  <text x="1236" y="442.7" font-family="Helvetica" font-size="10" font-weight="normal" font-style="normal" fill="#000000" fill-opacity="1">100 ps</text>
  <path d="M 50 333 L 1230 333" fill="none" stroke-width="0.75" stroke="#000000" stroke-opacity="0.49804" stroke-linecap="butt" stroke-linejoin="round"/>
  <text x="27" y="334.7" font-family="Helvetica" font-size="10" font-weight="normal" font-style="normal" fill="#000000" fill-opacity="1">1 ns</text>
  <text x="1236" y="334.7" font-family="Helvetica" font-size="10" font-weight="normal" font-style="normal" fill="#000000" fill-opacity="1">1 ns</text>
  <path d="M 50 225 L 1230 225" fill="none" stroke-width="0.75" stroke="#000000" stroke-opacity="0.49804" stroke-linecap="butt" stroke-linejoin="round"/>
  <text x="21" y="226.7" font-family="Helvetica" font-size="10" font-weight="normal" font-style="normal" fill="#000000" fill-opacity="1">10 ns</text>
  <text x="1236" y="226.7" font-family="Helvetica" font-size="10" font-weight="normal" font-style="normal" fill="#000000" fill-opacity="1">10 ns</text>
  <path d="M 50 117 L 1230 117" fill="none" stroke-width="0.75" stroke="#000000" stroke-opacity="0.49804" stroke-linecap="butt" stroke-linejoin="round"/>
  <text x="16" y="118.7" font-family="Helvetica" font-size="10" font-weight="normal" font-style="normal" fill="#000000" fill-opacity="1">100 ns</text>
  <text x="1236" y="118.7" font-family="Helvetica" font-size="10" font-weight="normal" font-style="normal" fill="#000000" fill-opacity="1">100 ns</text>
  <path d="M 50 9 L 1230 9" fill="none" stroke-width="0.75" stroke="#000000" stroke-opacity="0.49804" stroke-linecap="butt" stroke-linejoin="round"/>
  <text x="26" y="10.7" font-family="Helvetica" font-size="10" font-weight="normal" font-style="normal" fill="#000000" fill-opacity="1">1 µs</text>
  <text x="1236" y="10.7" font-family="Helvetica" font-size="10" font-weight="normal" font-style="normal" fill="#000000" fill-opacity="1">1 µs</text>
  <path d="M 50 408.49 L 1230 408.49" fill="none" stroke-width="0.5" stroke="#000000" stroke-opacity="0.25882" stroke-linecap="butt" stroke-linejoin="round" stroke-dasharray="6 3" stroke-dashoffset="0"/>
  <path d="M 50 375.98 L 1230 375.98" fill="none" stroke-width="0.5" stroke="#000000" stroke-opacity="0.25882" stroke-linecap="butt" stroke-linejoin="round" stroke-dasharray="6 3" stroke-dashoffset="0"/>
  <path d="M 50 343.47 L 1230 343.47" fill="none" stroke-width="0.5" stroke="#000000" stroke-opacity="0.25882" stroke-linecap="butt" stroke-linejoin="round" stroke-dasharray="6 3" stroke-dashoffset="0"/>
  <path d="M 50 310.96 L 1230 310.96" fill="none" stroke-width="0.5" stroke="#000000" stroke-opacity="0.25882" stroke-linecap="butt" stroke-linejoin="round" stroke-dasharray="6 3" stroke-dashoffset="0"/>
  <path d="M 50 278.44 L 1230 278.44" fill="none" stroke-width="0.5" stroke="#000000" stroke-opacity="0.25882" stroke-linecap="butt" stroke-linejoin="round" stroke-dasharray="6 3" stroke-dashoffset="0"/>
  <path d="M 50 245.93 L 1230 245.93" fill="none" stroke-width="0.5" stroke="#000000" stroke-opacity="0.25882" stroke-linecap="butt" stroke-linejoin="round" stroke-dasharray="6 3" stroke-dashoffset="0"/>
  <path d="M 50 213.42 L 1230 213.42" fill="none" stroke-width="0.5" stroke="#000000" stroke-opacity="0.25882" stroke-linecap="butt" stroke-linejoin="round" stroke-dasharray="6 3" stroke-dashoffset="0"/>
  <path d="M 50 180.91 L 1230 180.91" fill="none" stroke-width="0.5" stroke="#000000" stroke-opacity="0.25882" stroke-linecap="butt" stroke-linejoin="round" stroke-dasharray="6 3" stroke-dashoffset="0"/>
  <path d="M 50 148.4 L 1230 148.4" fill="none" stroke-width="0.5" stroke="#000000" stroke-opacity="0.25882" stroke-linecap="butt" stroke-linejoin="round" stroke-dasharray="6 3" stroke-dashoffset="0"/>
  <path d="M 50 115.89 L 1230 115.89" fill="none" stroke-width="0.5" stroke="#000000" stroke-opacity="0.25882" stroke-linecap="butt" stroke-linejoin="round" stroke-dasharray="6 3" stroke-dashoffset="0"/>
  <path d="M 50 83.376 L 1230 83.376" fill="none" stroke-width="0.5" stroke="#000000" stroke-opacity="0.25882" stroke-linecap="butt" stroke-linejoin="round" stroke-dasharray="6 3" stroke-dashoffset="0"/>
  <path d="M 50 50.865 L 1230 50.865" fill="none" stroke-width="0.5" stroke="#000000" stroke-opacity="0.25882" stroke-linecap="butt" stroke-linejoin="round" stroke-dasharray="6 3" stroke-dashoffset="0"/>
  <path d="M 50 18.354 L 1230 18.354" fill="none" stroke-width="0.5" stroke="#000000" stroke-opacity="0.25882" stroke-linecap="butt" stroke-linejoin="round" stroke-dasharray="6 3" stroke-dashoffset="0"/>
  <path d="M 74 33 L 74 88 L 348 88 L 348 33 z" fill="#FFFFFF" fill-opacity="1.0" stroke="none"/>
  <clipPath id="clip-0">
    <path d="M 50 9 L 50 441 L 1230 441 L 1230 9 z"/>
  </clipPath>
  <g clip-path="url(#clip-0)">
    <path d="M 50 78.384L 109 106.25L 143.51 116.44L 168 120.05L 186.99 123.28L 202.51 123.57L 215.63 114.74L 227 117.66L 245.99 117.55L 261.51 120.69L 274.63 120.82L 286 120.99L 304.99 120.89L 320.51 121.13L 333.63 118.95L 345 120.3L 363.99 119.39L 379.51 118.23L 392.63 116.18L 404 117.06L 422.99 116.18L 438.51 113.91L 451.63 114.47L 463 110.71L 481.99 110.79L 497.51 108.95L 510.63 109.23L 522 108.87L 540.99 108.18L 556.51 108.13L 569.63 106.7L 581 105.8L 599.99 105.13L 615.51 99.218L 628.63 102.62L 640 101.59L 658.99 102.13L 674.51 100.55L 687.63 99.09L 699 100.76L 717.99 99.392L 733.51 97.465L 746.63 93.147L 758 94.005L 776.99 95.47L 792.51 92.381L 805.63 93.808L 817 92.226L 835.99 91.912L 851.51 89.244L 864.63 90.52L 876 89.619L 894.99 84.561L 910.51 86.136L 923.63 86.971L 935 89.297L 953.99 84.255L 969.51 86.524L 982.63 86.025L 994 84.247L 1013 78.184L 1028.5 83.628L 1041.6 82.258L 1053 82.416L 1072 82.721L 1087.5 80.501L 1100.6 81.121L 1112 77.072L 1131 80.458L 1146.5 78.943L 1159.6 74.004L 1171 78.433L 1190 77.843L 1205.5 75.62L 1218.6 77.403L 1230 75.322L 1230 77.899L 1218.6 79.77L 1205.5 79.86L 1190 79.697L 1171 78.583L 1159.6 81.196L 1146.5 79.281L 1131 80.708L 1112 79.568L 1100.6 83.468L 1087.5 81.782L 1072 83.982L 1053 83.768L 1041.6 86.046L 1028.5 85.316L 1013 83.174L 994 86.658L 982.63 87.442L 969.51 89.097L 953.99 87.62L 935 91.036L 923.63 92.174L 910.51 89.848L 894.99 89.062L 876 91.769L 864.63 92.629L 851.51 92.329L 835.99 92.811L 817 93.675L 805.63 94.153L 792.51 94.612L 776.99 95.926L 758 99.658L 746.63 98.191L 733.51 97.896L 717.99 99.602L 699 100.83L 687.63 101.35L 674.51 102.16L 658.99 103.59L 640 104.17L 628.63 104.23L 615.51 105.49L 599.99 105.2L 581 106.96L 569.63 106.74L 556.51 108.27L 540.99 108.87L 522 113.29L 510.63 110.7L 497.51 115.18L 481.99 113.6L 463 116.27L 451.63 115.93L 438.51 117.49L 422.99 116.65L 404 117.49L 392.63 120.03L 379.51 119.12L 363.99 119.72L 345 120.78L 333.63 122.7L 320.51 121.27L 304.99 121.29L 286 121.12L 274.63 121.11L 261.51 120.73L 245.99 123.26L 227 118.72L 215.63 114.9L 202.51 126.21L 186.99 123.71L 168 123.04L 143.51 118.32L 109 110.44L 50 87.413" fill="#007AFF" fill-opacity="0.30196078431372547" stroke="none"/>
    <path d="M 50 145.92L 109 192.05L 143.51 210.54L 168 223.09L 186.99 233.59L 202.51 244.02L 215.63 248.07L 227 256.55L 245.99 267.5L 261.51 275.09L 274.63 282.36L 286 287.64L 304.99 298.11L 320.51 305.34L 333.63 312.98L 345 283.79L 363.99 296.4L 379.51 304.66L 392.63 310.8L 404 313.6L 422.99 325.6L 438.51 331.11L 451.63 336.81L 463 369.19L 481.99 375.59L 497.51 381.17L 510.63 385.11L 522 387.82L 540.99 389.89L 556.51 395.55L 569.63 396.28L 581 397.37L 599.99 401.97L 615.51 403.1L 628.63 405.85L 640 407.13L 658.99 407.67L 674.51 409.76L 687.63 411.25L 699 405.72L 717.99 411.59L 733.51 413.68L 746.63 397.16L 758 414.19L 776.99 407.64L 792.51 412.89L 805.63 406.57L 817 414.09L 835.99 412.67L 851.51 414.15L 864.63 391.34L 876 415.69L 894.99 415.57L 910.51 414.78L 923.63 416.45L 935 415.69L 953.99 415.21L 969.51 415.86L 982.63 415.93L 994 416.68L 1013 416.85L 1028.5 407.43L 1041.6 416.93L 1053 416.62L 1072 416.98L 1087.5 347.13L 1100.6 334.47L 1112 336.91L 1131 336.05L 1146.5 332.44L 1159.6 338.7L 1171 354.53L 1190 350.6L 1205.5 345.8L 1218.6 349.29L 1230 328.12L 1230 416.92L 1218.6 349.54L 1205.5 356.52L 1190 360.14L 1171 355.4L 1159.6 356.54L 1146.5 363.28L 1131 352.05L 1112 353.95L 1100.6 360.62L 1087.5 347.57L 1072 417.07L 1053 417.13L 1041.6 416.97L 1028.5 416.95L 1013 416.87L 994 416.74L 982.63 416.78L 969.51 416.96L 953.99 416.44L 935 416.83L 923.63 416.76L 910.51 415.91L 894.99 415.86L 876 416.37L 864.63 415.23L 851.51 414.79L 835.99 415.92L 817 415.53L 805.63 413.61L 792.51 415.18L 776.99 407.69L 758 414.25L 746.63 413.99L 733.51 413.68L 717.99 412.38L 699 411.19L 687.63 411.25L 674.51 410.95L 658.99 408.98L 640 407.13L 628.63 405.85L 615.51 404.19L 599.99 401.97L 581 399.13L 569.63 396.28L 556.51 395.91L 540.99 396.01L 522 388.29L 510.63 385.11L 497.51 381.17L 481.99 376.16L 463 369.19L 451.63 342.19L 438.51 336.25L 422.99 326.4L 404 322.05L 392.63 312.07L 379.51 305.51L 363.99 299.05L 345 292.79L 333.63 312.98L 320.51 306.2L 304.99 298.11L 286 287.64L 274.63 283.28L 261.51 275.09L 245.99 267.5L 227 256.55L 215.63 250.77L 202.51 244.02L 186.99 234.5L 168 223.09L 143.51 210.54L 109 192.97L 50 159.5" fill="#FF3B30" fill-opacity="0.30196078431372547" stroke="none"/>
    <path d="M 50 84.882L 109 109.31L 143.51 117.82L 168 122.24L 186.99 123.6L 202.51 125.51L 215.63 114.86L 227 118.44L 245.99 121.7L 261.51 120.72L 274.63 121.04L 286 121.09L 304.99 121.19L 320.51 121.23L 333.63 121.69L 345 120.66L 363.99 119.64L 379.51 118.88L 392.63 118.99L 404 117.37L 422.99 116.52L 438.51 116.53L 451.63 115.54L 463 114.75L 481.99 112.85L 497.51 113.47L 510.63 110.31L 522 112.09L 540.99 108.69L 556.51 108.23L 569.63 106.73L 581 106.66L 599.99 105.18L 615.51 103.77L 628.63 103.8L 640 103.48L 658.99 103.2L 674.51 101.74L 687.63 100.75L 699 100.81L 717.99 99.547L 733.51 97.783L 746.63 96.82L 758 98.115L 776.99 95.806L 792.51 94.019L 805.63 94.062L 817 93.292L 835.99 92.574L 851.51 91.504L 864.63 92.069L 876 91.198L 894.99 87.844L 910.51 88.85L 923.63 90.759L 935 90.576L 953.99 86.717L 969.51 88.411L 982.63 87.068L 994 86.016L 1013 81.819L 1028.5 84.869L 1041.6 85.027L 1053 83.411L 1072 83.65L 1087.5 81.444L 1100.6 82.843L 1112 78.903L 1131 80.643L 1146.5 79.193L 1159.6 79.208L 1171 78.543L 1190 79.206L 1205.5 78.715L 1218.6 79.14L 1230 77.212" fill="none" stroke-width="4" stroke="#007AFF" stroke-opacity="1" stroke-linecap="round" stroke-linejoin="round"/>
    <path d="M 50 155.56L 109 192.73L 143.51 210.54L 168 223.09L 186.99 234.26L 202.51 244.02L 215.63 250.05L 227 256.55L 245.99 267.5L 261.51 275.09L 274.63 283.04L 286 287.64L 304.99 298.11L 320.51 305.97L 333.63 312.98L 345 290.27L 363.99 298.34L 379.51 305.29L 392.63 311.73L 404 319.69L 422.99 326.19L 438.51 334.85L 451.63 340.72L 463 369.19L 481.99 376.01L 497.51 381.17L 510.63 385.11L 522 388.17L 540.99 394.34L 556.51 395.82L 569.63 396.28L 581 398.67L 599.99 401.97L 615.51 403.9L 628.63 405.85L 640 407.13L 658.99 408.63L 674.51 410.63L 687.63 411.25L 699 409.7L 717.99 412.17L 733.51 413.68L 746.63 408.98L 758 414.23L 776.99 407.68L 792.51 414.57L 805.63 411.66L 817 415.15L 835.99 415.05L 851.51 414.62L 864.63 407.73L 876 416.19L 894.99 415.79L 910.51 415.61L 923.63 416.68L 935 416.53L 953.99 416.11L 969.51 416.67L 982.63 416.56L 994 416.73L 1013 416.87L 1028.5 414.27L 1041.6 416.96L 1053 417L 1072 417.05L 1087.5 347.45L 1100.6 352.27L 1112 348.87L 1131 347.32L 1146.5 353.08L 1159.6 351.18L 1171 355.17L 1190 357.45L 1205.5 353.47L 1218.6 349.48L 1230 374.45" fill="none" stroke-width="4" stroke="#FF3B30" stroke-opacity="1" stroke-linecap="round" stroke-linejoin="round"/>
    <path d="M 50 84.882L 109 109.31L 143.51 117.82L 168 122.24L 186.99 123.6L 202.51 125.51L 215.63 114.86L 227 118.44L 245.99 121.7L 261.51 120.72L 274.63 121.04L 286 121.09L 304.99 121.19L 320.51 121.23L 333.63 121.69L 345 120.66L 363.99 119.64L 379.51 118.88L 392.63 118.99L 404 117.37L 422.99 116.52L 438.51 116.53L 451.63 115.54L 463 114.75L 481.99 112.85L 497.51 113.47L 510.63 110.31L 522 112.09L 540.99 108.69L 556.51 108.23L 569.63 106.73L 581 106.66L 599.99 105.18L 615.51 103.77L 628.63 103.8L 640 103.48L 658.99 103.2L 674.51 101.74L 687.63 100.75L 699 100.81L 717.99 99.547L 733.51 97.783L 746.63 96.82L 758 98.115L 776.99 95.806L 792.51 94.019L 805.63 94.062L 817 93.292L 835.99 92.574L 851.51 91.504L 864.63 92.069L 876 91.198L 894.99 87.844L 910.51 88.85L 923.63 90.759L 935 90.576L 953.99 86.717L 969.51 88.411L 982.63 87.068L 994 86.016L 1013 81.819L 1028.5 84.869L 1041.6 85.027L 1053 83.411L 1072 83.65L 1087.5 81.444L 1100.6 82.843L 1112 78.903L 1131 80.643L 1146.5 79.193L 1159.6 79.208L 1171 78.543L 1190 79.206L 1205.5 78.715L 1218.6 79.14L 1230 77.212" fill="none" stroke-width="0.5" stroke="#000000" stroke-opacity="0.30196" stroke-linecap="round" stroke-linejoin="round"/>
    <path d="M 50 155.56L 109 192.73L 143.51 210.54L 168 223.09L 186.99 234.26L 202.51 244.02L 215.63 250.05L 227 256.55L 245.99 267.5L 261.51 275.09L 274.63 283.04L 286 287.64L 304.99 298.11L 320.51 305.97L 333.63 312.98L 345 290.27L 363.99 298.34L 379.51 305.29L 392.63 311.73L 404 319.69L 422.99 326.19L 438.51 334.85L 451.63 340.72L 463 369.19L 481.99 376.01L 497.51 381.17L 510.63 385.11L 522 388.17L 540.99 394.34L 556.51 395.82L 569.63 396.28L 581 398.67L 599.99 401.97L 615.51 403.9L 628.63 405.85L 640 407.13L 658.99 408.63L 674.51 410.63L 687.63 411.25L 699 409.7L 717.99 412.17L 733.51 413.68L 746.63 408.98L 758 414.23L 776.99 407.68L 792.51 414.57L 805.63 411.66L 817 415.15L 835.99 415.05L 851.51 414.62L 864.63 407.73L 876 416.19L 894.99 415.79L 910.51 415.61L 923.63 416.68L 935 416.53L 953.99 416.11L 969.51 416.67L 982.63 416.56L 994 416.73L 1013 416.87L 1028.5 414.27L 1041.6 416.96L 1053 417L 1072 417.05L 1087.5 347.45L 1100.6 352.27L 1112 348.87L 1131 347.32L 1146.5 353.08L 1159.6 351.18L 1171 355.17L 1190 357.45L 1205.5 353.47L 1218.6 349.48L 1230 374.45" fill="none" stroke-width="0.5" stroke="#000000" stroke-opacity="0.30196" stroke-linecap="round" stroke-linejoin="round"/>
  </g>
  <path d="M 74 33 L 74 88 L 348 88 L 348 33 z" fill="#FFFFFF" fill-opacity="0.7019607843137254" stroke-width="0.5" stroke="#000000" stroke-opacity="1" stroke-linecap="round" stroke-linejoin="round"/>
  <path d="M 88 52 L 108 52" fill="none" stroke-width="4" stroke="#FF3B30" stroke-opacity="1" stroke-linecap="round" stroke-linejoin="round"/>
  <path d="M 88 52 L 108 52" fill="none" stroke-width="0.5" stroke="#000000" stroke-opacity="0.30196" stroke-linecap="round" stroke-linejoin="round"/>
  <text x="119" y="56.17" font-family="Menlo" font-size="12" font-weight="normal" font-style="normal" fill="#000000" fill-opacity="1">Array&lt;Int&gt; init from range</text>
  <path d="M 88 69 L 108 69" fill="none" stroke-width="4" stroke="#007AFF" stroke-opacity="1" stroke-linecap="round" stroke-linejoin="round"/>
  <path d="M 88 69 L 108 69" fill="none" stroke-width="0.5" stroke="#000000" stroke-opacity="0.30196" stroke-linecap="round" stroke-linejoin="round"/>
  <text x="119" y="73.17" font-family="Menlo" font-size="12" font-weight="normal" font-style="normal" fill="#000000" fill-opacity="1">TreeArray&lt;Int&gt; init from range</text>
  <path d="M 50 9 L 50 441 L 1230 441 L 1230 9 z" fill="none" stroke-width="0.5" stroke="#000000" stroke-opacity="1" stroke-linecap="round" stroke-linejoin="round"/>
</svg>
