<!DOCTYPE svg PUBLIC "-//W3C//DTD SVG 1.1//EN" "http://www.w3.org/Graphics/SVG/1.1/DTD/svg11.dtd">
<svg width="1280.0px" height="480.0px" viewBox="0.0 0.0 1280.0 480.0" xmlns="http://www.w3.org/2000/svg" xmlns:xlink="http://www.w3.org/1999/xlink" version="1.1">
  <path d="M 0 0 L 0 480 L 1280 480 L 1280 0 z" fill="#FFFFFF" fill-opacity="1.0" stroke="none"/>
  <text x="50" y="468.7" font-family="Helvetica" font-size="10" font-weight="normal" font-style="normal" fill="#000000" fill-opacity="1">Average per-element processing time over input size (bands: min, mean, mean + 2stddev)</text>
  <a xlink:href="https://github.com/apple/swift-collections-benchmark"><text x="1107" y="468.7" font-family="Helvetica" font-size="10" font-weight="normal" font-style="normal" fill="#000000" fill-opacity="1">swift-collections-benchmark</text></a>
  <path d="M 50 9 L 50 441" fill="none" stroke-width="0.75" stroke="#000000" stroke-opacity="0.49804" stroke-linecap="butt" stroke-linejoin="round"/>
  <text x="47" y="453.7" font-family="Helvetica" font-size="10" font-weight="normal" font-style="normal" fill="#000000" fill-opacity="1">1</text>
  <path d="M 109 9 L 109 441" fill="none" stroke-width="0.75" stroke="#000000" stroke-opacity="0.49804" stroke-linecap="butt" stroke-linejoin="round"/>
  <text x="106" y="453.7" font-family="Helvetica" font-size="10" font-weight="normal" font-style="normal" fill="#000000" fill-opacity="1">2</text>
  <path d="M 168 9 L 168 441" fill="none" stroke-width="0.75" stroke="#000000" stroke-opacity="0.49804" stroke-linecap="butt" stroke-linejoin="round"/>
  <text x="165" y="453.7" font-family="Helvetica" font-size="10" font-weight="normal" font-style="normal" fill="#000000" fill-opacity="1">4</text>
  <path d="M 227 9 L 227 441" fill="none" stroke-width="0.75" stroke="#000000" stroke-opacity="0.49804" stroke-linecap="butt" stroke-linejoin="round"/>
  <text x="224" y="453.7" font-family="Helvetica" font-size="10" font-weight="normal" font-style="normal" fill="#000000" fill-opacity="1">8</text>
  <path d="M 286 9 L 286 441" fill="none" stroke-width="0.75" stroke="#000000" stroke-opacity="0.49804" stroke-linecap="butt" stroke-linejoin="round"/>
  <text x="280" y="453.7" font-family="Helvetica" font-size="10" font-weight="normal" font-style="normal" fill="#000000" fill-opacity="1">16</text>
  <path d="M 345 9 L 345 441" fill="none" stroke-width="0.75" stroke="#000000" stroke-opacity="0.49804" stroke-linecap="butt" stroke-linejoin="round"/>
  <text x="339" y="453.7" font-family="Helvetica" font-size="10" font-weight="normal" font-style="normal" fill="#000000" fill-opacity="1">32</text>
  <path d="M 404 9 L 404 441" fill="none" stroke-width="0.75" stroke="#000000" stroke-opacity="0.49804" stroke-linecap="butt" stroke-linejoin="round"/>
  <text x="398" y="453.7" font-family="Helvetica" font-size="10" font-weight="normal" font-style="normal" fill="#000000" fill-opacity="1">64</text>
  <path d="M 463 9 L 463 441" fill="none" stroke-width="0.75" stroke="#000000" stroke-opacity="0.49804" stroke-linecap="butt" stroke-linejoin="round"/>
  <text x="454.5" y="453.7" font-family="Helvetica" font-size="10" font-weight="normal" font-style="normal" fill="#000000" fill-opacity="1">128</text>
  <path d="M 522 9 L 522 441" fill="none" stroke-width="0.75" stroke="#000000" stroke-opacity="0.49804" stroke-linecap="butt" stroke-linejoin="round"/>
  <text x="513.5" y="453.7" font-family="Helvetica" font-size="10" font-weight="normal" font-style="normal" fill="#000000" fill-opacity="1">256</text>
  <path d="M 581 9 L 581 441" fill="none" stroke-width="0.75" stroke="#000000" stroke-opacity="0.49804" stroke-linecap="butt" stroke-linejoin="round"/>
  <text x="572.5" y="453.7" font-family="Helvetica" font-size="10" font-weight="normal" font-style="normal" fill="#000000" fill-opacity="1">512</text>
  <path d="M 640 9 L 640 441" fill="none" stroke-width="0.75" stroke="#000000" stroke-opacity="0.49804" stroke-linecap="butt" stroke-linejoin="round"/>
  <text x="634.5" y="453.7" font-family="Helvetica" font-size="10" font-weight="normal" font-style="normal" fill="#000000" fill-opacity="1">1k</text>
  <path d="M 699 9 L 699 441" fill="none" stroke-width="0.75" stroke="#000000" stroke-opacity="0.49804" stroke-linecap="butt" stroke-linejoin="round"/>
  <text x="693.5" y="453.7" font-family="Helvetica" font-size="10" font-weight="normal" font-style="normal" fill="#000000" fill-opacity="1">2k</text>
  <path d="M 758 9 L 758 441" fill="none" stroke-width="0.75" stroke="#000000" stroke-opacity="0.49804" stroke-linecap="butt" stroke-linejoin="round"/>
  <text x="752.5" y="453.7" font-family="Helvetica" font-size="10" font-weight="normal" font-style="normal" fill="#000000" fill-opacity="1">4k</text>
  <path d="M 817 9 L 817 441" fill="none" stroke-width="0.75" stroke="#000000" stroke-opacity="0.49804" stroke-linecap="butt" stroke-linejoin="round"/>
  <text x="811.5" y="453.7" font-family="Helvetica" font-size="10" font-weight="normal" font-style="normal" fill="#000000" fill-opacity="1">8k</text>
  <path d="M 876 9 L 876 441" fill="none" stroke-width="0.75" stroke="#000000" stroke-opacity="0.49804" stroke-linecap="butt" stroke-linejoin="round"/>
  <text x="867.5" y="453.7" font-family="Helvetica" font-size="10" font-weight="normal" font-style="normal" fill="#000000" fill-opacity="1">16k</text>
  <path d="M 935 9 L 935 441" fill="none" stroke-width="0.75" stroke="#000000" stroke-opacity="0.49804" stroke-linecap="butt" stroke-linejoin="round"/>
  <text x="926.5" y="453.7" font-family="Helvetica" font-size="10" font-weight="normal" font-style="normal" fill="#000000" fill-opacity="1">32k</text>
  <path d="M 994 9 L 994 441" fill="none" stroke-width="0.75" stroke="#000000" stroke-opacity="0.49804" stroke-linecap="butt" stroke-linejoin="round"/>
  <text x="985.5" y="453.7" font-family="Helvetica" font-size="10" font-weight="normal" font-style="normal" fill="#000000" fill-opacity="1">64k</text>
  <path d="M 1053 9 L 1053 441" fill="none" stroke-width="0.75" stroke="#000000" stroke-opacity="0.49804" stroke-linecap="butt" stroke-linejoin="round"/>
  <text x="1042" y="453.7" font-family="Helvetica" font-size="10" font-weight="normal" font-style="normal" fill="#000000" fill-opacity="1">128k</text>
  <path d="M 1112 9 L 1112 441" fill="none" stroke-width="0.75" stroke="#000000" stroke-opacity="0.49804" stroke-linecap="butt" stroke-linejoin="round"/>
  <text x="1101" y="453.7" font-family="Helvetica" font-size="10" font-weight="normal" font-style="normal" fill="#000000" fill-opacity="1">256k</text>
  <path d="M 1171 9 L 1171 441" fill="none" stroke-width="0.75" stroke="#000000" stroke-opacity="0.49804" stroke-linecap="butt" stroke-linejoin="round"/>
  <text x="1160" y="453.7" font-family="Helvetica" font-size="10" font-weight="normal" font-style="normal" fill="#000000" fill-opacity="1">512k</text>
  <path d="M 1230 9 L 1230 441" fill="none" stroke-width="0.75" stroke="#000000" stroke-opacity="0.49804" stroke-linecap="butt" stroke-linejoin="round"/>
  <text x="1223" y="453.7" font-family="Helvetica" font-size="10" font-weight="normal" font-style="normal" fill="#000000" fill-opacity="1">1M</text>
  <path d="M 50 441 L 1230 441" fill="none" stroke-width="0.75" stroke="#000000" stroke-opacity="0.49804" stroke-linecap="butt" stroke-linejoin="round"/>
  <text x="16" y="442.7" font-family="Helvetica" font-size="10" font-weight="normal" font-style="normal" fill="#000000" fill-opacity="1">100 ps</text>
  <text x="1236" y="442.7" font-family="Helvetica" font-size="10" font-weight="normal" font-style="normal" fill="#000000" fill-opacity="1">100 ps</text>
  <path d="M 50 333 L 1230 333" fill="none" stroke-width="0.75" stroke="#000000" stroke-opacity="0.49804" stroke-linecap="butt" stroke-linejoin="round"/>
  <text x="27" y="334.7" font-family="Helvetica" font-size="10" font-weight="normal" font-style="normal" fill="#000000" fill-opacity="1">1 ns</text>
  <text x="1236" y="334.7" font-family="Helvetica" font-size="10" font-weight="normal" font-style="normal" fill="#000000" fill-opacity="1">1 ns</text>
  <path d="M 50 225 L 1230 225" fill="none" stroke-width="0.75" stroke="#000000" stroke-opacity="0.49804" stroke-linecap="butt" stroke-linejoin="round"/>
  <text x="21" y="226.7" font-family="Helvetica" font-size="10" font-weight="normal" font-style="normal" fill="#000000" fill-opacity="1">10 ns</text>
  <text x="1236" y="226.7" font-family="Helvetica" font-size="10" font-weight="normal" font-style="normal" fill="#000000" fill-opacity="1">10 ns</text>
  <path d="M 50 117 L 1230 117" fill="none" stroke-width="0.75" stroke="#000000" stroke-opacity="0.49804" stroke-linecap="butt" stroke-linejoin="round"/>
  <text x="16" y="118.7" font-family="Helvetica" font-size="10" font-weight="normal" font-style="normal" fill="#000000" fill-opacity="1">100 ns</text>
  <text x="1236" y="118.7" font-family="Helvetica" font-size="10" font-weight="normal" font-style="normal" fill="#000000" fill-opacity="1">100 ns</text>
  <path d="M 50 9 L 1230 9" fill="none" stroke-width="0.75" stroke="#000000" stroke-opacity="0.49804" stroke-linecap="butt" stroke-linejoin="round"/>
  <text x="26" y="10.7" font-family="Helvetica" font-size="10" font-weight="normal" font-style="normal" fill="#000000" fill-opacity="1">1 µs</text>
  <text x="1236" y="10.7" font-family="Helvetica" font-size="10" font-weight="normal" font-style="normal" fill="#000000" fill-opacity="1">1 µs</text>
  <path d="M 50 408.49 L 1230 408.49" fill="none" stroke-width="0.5" stroke="#000000" stroke-opacity="0.25882" stroke-linecap="butt" stroke-linejoin="round" stroke-dasharray="6 3" stroke-dashoffset="0"/>
  <path d="M 50 375.98 L 1230 375.98" fill="none" stroke-width="0.5" stroke="#000000" stroke-opacity="0.25882" stroke-linecap="butt" stroke-linejoin="round" stroke-dasharray="6 3" stroke-dashoffset="0"/>
  <path d="M 50 343.47 L 1230 343.47" fill="none" stroke-width="0.5" stroke="#000000" stroke-opacity="0.25882" stroke-linecap="butt" stroke-linejoin="round" stroke-dasharray="6 3" stroke-dashoffset="0"/>
  <path d="M 50 310.96 L 1230 310.96" fill="none" stroke-width="0.5" stroke="#000000" stroke-opacity="0.25882" stroke-linecap="butt" stroke-linejoin="round" stroke-dasharray="6 3" stroke-dashoffset="0"/>
  <path d="M 50 278.44 L 1230 278.44" fill="none" stroke-width="0.5" stroke="#000000" stroke-opacity="0.25882" stroke-linecap="butt" stroke-linejoin="round" stroke-dasharray="6 3" stroke-dashoffset="0"/>
  <path d="M 50 245.93 L 1230 245.93" fill="none" stroke-width="0.5" stroke="#000000" stroke-opacity="0.25882" stroke-linecap="butt" stroke-linejoin="round" stroke-dasharray="6 3" stroke-dashoffset="0"/>
  <path d="M 50 213.42 L 1230 213.42" fill="none" stroke-width="0.5" stroke="#000000" stroke-opacity="0.25882" stroke-linecap="butt" stroke-linejoin="round" stroke-dasharray="6 3" stroke-dashoffset="0"/>
  <path d="M 50 180.91 L 1230 180.91" fill="none" stroke-width="0.5" stroke="#000000" stroke-opacity="0.25882" stroke-linecap="butt" stroke-linejoin="round" stroke-dasharray="6 3" stroke-dashoffset="0"/>
  <path d="M 50 148.4 L 1230 148.4" fill="none" stroke-width="0.5" stroke="#000000" stroke-opacity="0.25882" stroke-linecap="butt" stroke-linejoin="round" stroke-dasharray="6 3" stroke-dashoffset="0"/>
  <path d="M 50 115.89 L 1230 115.89" fill="none" stroke-width="0.5" stroke="#000000" stroke-opacity="0.25882" stroke-linecap="butt" stroke-linejoin="round" stroke-dasharray="6 3" stroke-dashoffset="0"/>
  <path d="M 50 83.376 L 1230 83.376" fill="none" stroke-width="0.5" stroke="#000000" stroke-opacity="0.25882" stroke-linecap="butt" stroke-linejoin="round" stroke-dasharray="6 3" stroke-dashoffset="0"/>
  <path d="M 50 50.865 L 1230 50.865" fill="none" stroke-width="0.5" stroke="#000000" stroke-opacity="0.25882" stroke-linecap="butt" stroke-linejoin="round" stroke-dasharray="6 3" stroke-dashoffset="0"/>
  <path d="M 50 18.354 L 1230 18.354" fill="none" stroke-width="0.5" stroke="#000000" stroke-opacity="0.25882" stroke-linecap="butt" stroke-linejoin="round" stroke-dasharray="6 3" stroke-dashoffset="0"/>
  <path d="M 74 33 L 74 88 L 348 88 L 348 33 z" fill="#FFFFFF" fill-opacity="1.0" stroke="none"/>
  <clipPath id="clip-0">
    <path d="M 50 9 L 50 441 L 1230 441 L 1230 9 z"/>
  </clipPath>
  <g clip-path="url(#clip-0)">
    <path d="M 50 84.792L 109 110.2L 143.51 116.48L 168 116.53L 186.99 118.74L 202.51 121.31L 215.63 118.6L 227 112.52L 245.99 114.08L 261.51 114.83L 274.63 117.95L 286 114.95L 304.99 115.86L 320.51 117.28L 333.63 116.32L 345 116.22L 363.99 115.2L 379.51 110.59L 392.63 114.44L 404 110.6L 422.99 110.73L 438.51 110.37L 451.63 108.71L 463 108.62L 481.99 107.01L 497.51 103.76L 510.63 105.4L 522 106.02L 540.99 106.66L 556.51 104.22L 569.63 102.25L 581 104.02L 599.99 99.94L 615.51 98.666L 628.63 99.959L 640 98.805L 658.99 96.71L 674.51 97.804L 687.63 97.004L 699 96.11L 717.99 95.352L 733.51 96.842L 746.63 95.208L 758 90.612L 776.99 93.559L 792.51 92.416L 805.63 92.514L 817 89.452L 835.99 91.597L 851.51 88.896L 864.63 89.365L 876 89.413L 894.99 87.56L 910.51 87.011L 923.63 86.337L 935 87.913L 953.99 86.372L 969.51 86.35L 982.63 84.324L 994 81.512L 1013 84.089L 1028.5 82.877L 1041.6 81.141L 1053 81.079L 1072 82.925L 1087.5 81.063L 1100.6 81.56L 1112 78.483L 1131 77.032L 1146.5 78.235L 1159.6 76.858L 1171 77.411L 1190 77.686L 1205.5 74.841L 1218.6 75.323L 1230 76.308L 1230 76.351L 1218.6 78.116L 1205.5 78.37L 1190 78.39L 1171 78.802L 1159.6 80.289L 1146.5 78.906L 1131 80.537L 1112 82.71L 1100.6 82.745L 1087.5 83.9L 1072 83.548L 1053 82.018L 1041.6 84.311L 1028.5 85.234L 1013 86.691L 994 86.767L 982.63 87.459L 969.51 87.747L 953.99 86.528L 935 89.816L 923.63 90.483L 910.51 89.744L 894.99 89.276L 876 89.448L 864.63 90.477L 851.51 92.097L 835.99 92.027L 817 91.702L 805.63 93.199L 792.51 94.739L 776.99 95.275L 758 97.136L 746.63 97.373L 733.51 96.936L 717.99 96.93L 699 98.071L 687.63 98.429L 674.51 99.54L 658.99 102.67L 640 100.7L 628.63 102.11L 615.51 101.6L 599.99 103.92L 581 104.35L 569.63 104.7L 556.51 108.16L 540.99 106.7L 522 107.71L 510.63 109.49L 497.51 112.7L 481.99 110.21L 463 111.03L 451.63 111.65L 438.51 113.93L 422.99 113.47L 404 117.65L 392.63 116.1L 379.51 119.92L 363.99 117.12L 345 119.06L 333.63 119.66L 320.51 120.69L 304.99 118.99L 286 118.1L 274.63 119.26L 261.51 117.7L 245.99 117.02L 227 113.77L 215.63 122.28L 202.51 123.03L 186.99 121.12L 168 119.1L 143.51 116.48L 109 110.36L 50 92.112" fill="#007AFF" fill-opacity="0.30196078431372547" stroke="none"/>
    <path d="M 50 145.92L 109 192.05L 143.51 210.54L 168 223.09L 186.99 233.59L 202.51 244.02L 215.63 248.07L 227 256.55L 245.99 267.5L 261.51 275.09L 274.63 282.36L 286 287.64L 304.99 298.11L 320.51 305.34L 333.63 312.98L 345 283.79L 363.99 296.4L 379.51 304.66L 392.63 310.8L 404 313.6L 422.99 325.6L 438.51 331.11L 451.63 336.81L 463 369.19L 481.99 375.59L 497.51 381.17L 510.63 385.11L 522 387.82L 540.99 389.89L 556.51 395.55L 569.63 396.28L 581 397.37L 599.99 401.97L 615.51 403.1L 628.63 405.85L 640 407.13L 658.99 407.67L 674.51 409.76L 687.63 411.25L 699 405.72L 717.99 411.59L 733.51 413.68L 746.63 397.16L 758 414.19L 776.99 407.64L 792.51 412.89L 805.63 406.57L 817 414.09L 835.99 412.67L 851.51 414.15L 864.63 391.34L 876 415.69L 894.99 415.57L 910.51 414.78L 923.63 416.45L 935 415.69L 953.99 415.21L 969.51 415.86L 982.63 415.93L 994 416.68L 1013 416.85L 1028.5 407.43L 1041.6 416.93L 1053 416.62L 1072 416.98L 1087.5 347.13L 1100.6 334.47L 1112 336.91L 1131 336.05L 1146.5 332.44L 1159.6 338.7L 1171 354.53L 1190 350.6L 1205.5 345.8L 1218.6 349.29L 1230 328.12L 1230 416.92L 1218.6 349.54L 1205.5 356.52L 1190 360.14L 1171 355.4L 1159.6 356.54L 1146.5 363.28L 1131 352.05L 1112 353.95L 1100.6 360.62L 1087.5 347.57L 1072 417.07L 1053 417.13L 1041.6 416.97L 1028.5 416.95L 1013 416.87L 994 416.74L 982.63 416.78L 969.51 416.96L 953.99 416.44L 935 416.83L 923.63 416.76L 910.51 415.91L 894.99 415.86L 876 416.37L 864.63 415.23L 851.51 414.79L 835.99 415.92L 817 415.53L 805.63 413.61L 792.51 415.18L 776.99 407.69L 758 414.25L 746.63 413.99L 733.51 413.68L 717.99 412.38L 699 411.19L 687.63 411.25L 674.51 410.95L 658.99 408.98L 640 407.13L 628.63 405.85L 615.51 404.19L 599.99 401.97L 581 399.13L 569.63 396.28L 556.51 395.91L 540.99 396.01L 522 388.29L 510.63 385.11L 497.51 381.17L 481.99 376.16L 463 369.19L 451.63 342.19L 438.51 336.25L 422.99 326.4L 404 322.05L 392.63 312.07L 379.51 305.51L 363.99 299.05L 345 292.79L 333.63 312.98L 320.51 306.2L 304.99 298.11L 286 287.64L 274.63 283.28L 261.51 275.09L 245.99 267.5L 227 256.55L 215.63 250.77L 202.51 244.02L 186.99 234.5L 168 223.09L 143.51 210.54L 109 192.97L 50 159.5" fill="#FF3B30" fill-opacity="0.30196078431372547" stroke="none"/>
    <path d="M 50 90.087L 109 110.32L 143.51 116.48L 168 118.41L 186.99 120.49L 202.51 122.57L 215.63 121.29L 227 113.44L 245.99 116.23L 261.51 116.93L 274.63 118.92L 286 117.26L 304.99 118.15L 320.51 119.78L 333.63 118.77L 345 118.3L 363.99 116.61L 379.51 117.3L 392.63 115.66L 404 115.7L 422.99 112.74L 438.51 112.97L 451.63 110.86L 463 110.39L 481.99 109.36L 497.51 110.2L 510.63 108.38L 522 107.26L 540.99 106.69L 556.51 107.1L 569.63 104.05L 581 104.27L 599.99 102.85L 615.51 100.81L 628.63 101.54L 640 100.2L 658.99 101.04L 674.51 99.08L 687.63 98.053L 699 97.551L 717.99 96.513L 733.51 96.911L 746.63 96.798L 758 95.342L 776.99 94.821L 792.51 94.121L 805.63 93.019L 817 91.104L 835.99 91.914L 851.51 91.24L 864.63 90.184L 876 89.439L 894.99 88.822L 910.51 89.014L 923.63 89.364L 935 89.312L 953.99 86.487L 969.51 87.378L 982.63 86.62L 994 85.336L 1013 85.998L 1028.5 84.607L 1041.6 83.462L 1053 81.771L 1072 83.384L 1087.5 83.142L 1100.6 82.433L 1112 81.569L 1131 79.596L 1146.5 78.73L 1159.6 79.368L 1171 78.435L 1190 78.205L 1205.5 77.422L 1218.6 77.37L 1230 76.34" fill="none" stroke-width="4" stroke="#007AFF" stroke-opacity="1" stroke-linecap="round" stroke-linejoin="round"/>
    <path d="M 50 155.56L 109 192.73L 143.51 210.54L 168 223.09L 186.99 234.26L 202.51 244.02L 215.63 250.05L 227 256.55L 245.99 267.5L 261.51 275.09L 274.63 283.04L 286 287.64L 304.99 298.11L 320.51 305.97L 333.63 312.98L 345 290.27L 363.99 298.34L 379.51 305.29L 392.63 311.73L 404 319.69L 422.99 326.19L 438.51 334.85L 451.63 340.72L 463 369.19L 481.99 376.01L 497.51 381.17L 510.63 385.11L 522 388.17L 540.99 394.34L 556.51 395.82L 569.63 396.28L 581 398.67L 599.99 401.97L 615.51 403.9L 628.63 405.85L 640 407.13L 658.99 408.63L 674.51 410.63L 687.63 411.25L 699 409.7L 717.99 412.17L 733.51 413.68L 746.63 408.98L 758 414.23L 776.99 407.68L 792.51 414.57L 805.63 411.66L 817 415.15L 835.99 415.05L 851.51 414.62L 864.63 407.73L 876 416.19L 894.99 415.79L 910.51 415.61L 923.63 416.68L 935 416.53L 953.99 416.11L 969.51 416.67L 982.63 416.56L 994 416.73L 1013 416.87L 1028.5 414.27L 1041.6 416.96L 1053 417L 1072 417.05L 1087.5 347.45L 1100.6 352.27L 1112 348.87L 1131 347.32L 1146.5 353.08L 1159.6 351.18L 1171 355.17L 1190 357.45L 1205.5 353.47L 1218.6 349.48L 1230 374.45" fill="none" stroke-width="4" stroke="#FF3B30" stroke-opacity="1" stroke-linecap="round" stroke-linejoin="round"/>
    <path d="M 50 90.087L 109 110.32L 143.51 116.48L 168 118.41L 186.99 120.49L 202.51 122.57L 215.63 121.29L 227 113.44L 245.99 116.23L 261.51 116.93L 274.63 118.92L 286 117.26L 304.99 118.15L 320.51 119.78L 333.63 118.77L 345 118.3L 363.99 116.61L 379.51 117.3L 392.63 115.66L 404 115.7L 422.99 112.74L 438.51 112.97L 451.63 110.86L 463 110.39L 481.99 109.36L 497.51 110.2L 510.63 108.38L 522 107.26L 540.99 106.69L 556.51 107.1L 569.63 104.05L 581 104.27L 599.99 102.85L 615.51 100.81L 628.63 101.54L 640 100.2L 658.99 101.04L 674.51 99.08L 687.63 98.053L 699 97.551L 717.99 96.513L 733.51 96.911L 746.63 96.798L 758 95.342L 776.99 94.821L 792.51 94.121L 805.63 93.019L 817 91.104L 835.99 91.914L 851.51 91.24L 864.63 90.184L 876 89.439L 894.99 88.822L 910.51 89.014L 923.63 89.364L 935 89.312L 953.99 86.487L 969.51 87.378L 982.63 86.62L 994 85.336L 1013 85.998L 1028.5 84.607L 1041.6 83.462L 1053 81.771L 1072 83.384L 1087.5 83.142L 1100.6 82.433L 1112 81.569L 1131 79.596L 1146.5 78.73L 1159.6 79.368L 1171 78.435L 1190 78.205L 1205.5 77.422L 1218.6 77.37L 1230 76.34" fill="none" stroke-width="0.5" stroke="#000000" stroke-opacity="0.30196" stroke-linecap="round" stroke-linejoin="round"/>
    <path d="M 50 155.56L 109 192.73L 143.51 210.54L 168 223.09L 186.99 234.26L 202.51 244.02L 215.63 250.05L 227 256.55L 245.99 267.5L 261.51 275.09L 274.63 283.04L 286 287.64L 304.99 298.11L 320.51 305.97L 333.63 312.98L 345 290.27L 363.99 298.34L 379.51 305.29L 392.63 311.73L 404 319.69L 422.99 326.19L 438.51 334.85L 451.63 340.72L 463 369.19L 481.99 376.01L 497.51 381.17L 510.63 385.11L 522 388.17L 540.99 394.34L 556.51 395.82L 569.63 396.28L 581 398.67L 599.99 401.97L 615.51 403.9L 628.63 405.85L 640 407.13L 658.99 408.63L 674.51 410.63L 687.63 411.25L 699 409.7L 717.99 412.17L 733.51 413.68L 746.63 408.98L 758 414.23L 776.99 407.68L 792.51 414.57L 805.63 411.66L 817 415.15L 835.99 415.05L 851.51 414.62L 864.63 407.73L 876 416.19L 894.99 415.79L 910.51 415.61L 923.63 416.68L 935 416.53L 953.99 416.11L 969.51 416.67L 982.63 416.56L 994 416.73L 1013 416.87L 1028.5 414.27L 1041.6 416.96L 1053 417L 1072 417.05L 1087.5 347.45L 1100.6 352.27L 1112 348.87L 1131 347.32L 1146.5 353.08L 1159.6 351.18L 1171 355.17L 1190 357.45L 1205.5 353.47L 1218.6 349.48L 1230 374.45" fill="none" stroke-width="0.5" stroke="#000000" stroke-opacity="0.30196" stroke-linecap="round" stroke-linejoin="round"/>
  </g>
  <path d="M 74 33 L 74 88 L 348 88 L 348 33 z" fill="#FFFFFF" fill-opacity="0.7019607843137254" stroke-width="0.5" stroke="#000000" stroke-opacity="1" stroke-linecap="round" stroke-linejoin="round"/>
  <path d="M 88 52 L 108 52" fill="none" stroke-width="4" stroke="#FF3B30" stroke-opacity="1" stroke-linecap="round" stroke-linejoin="round"/>
  <path d="M 88 52 L 108 52" fill="none" stroke-width="0.5" stroke="#000000" stroke-opacity="0.30196" stroke-linecap="round" stroke-linejoin="round"/>
  <text x="119" y="56.17" font-family="Menlo" font-size="12" font-weight="normal" font-style="normal" fill="#000000" fill-opacity="1">Array&lt;Int&gt; init from range</text>
  <path d="M 88 69 L 108 69" fill="none" stroke-width="4" stroke="#007AFF" stroke-opacity="1" stroke-linecap="round" stroke-linejoin="round"/>
  <path d="M 88 69 L 108 69" fill="none" stroke-width="0.5" stroke="#000000" stroke-opacity="0.30196" stroke-linecap="round" stroke-linejoin="round"/>
  <text x="119" y="73.17" font-family="Menlo" font-size="12" font-weight="normal" font-style="normal" fill="#000000" fill-opacity="1">TreeArray&lt;Int&gt; init from range</text>
  <path d="M 50 9 L 50 441 L 1230 441 L 1230 9 z" fill="none" stroke-width="0.5" stroke="#000000" stroke-opacity="1" stroke-linecap="round" stroke-linejoin="round"/>
</svg>
