<!DOCTYPE svg PUBLIC "-//W3C//DTD SVG 1.1//EN" "http://www.w3.org/Graphics/SVG/1.1/DTD/svg11.dtd">
<svg width="1280.0px" height="480.0px" viewBox="0.0 0.0 1280.0 480.0" xmlns="http://www.w3.org/2000/svg" xmlns:xlink="http://www.w3.org/1999/xlink" version="1.1">
  <path d="M 0 0 L 0 480 L 1280 480 L 1280 0 z" fill="#FFFFFF" fill-opacity="1.0" stroke="none"/>
  <text x="50" y="468.7" font-family="Helvetica" font-size="10" font-weight="normal" font-style="normal" fill="#000000" fill-opacity="1">Average per-element processing time over input size (bands: min, mean, mean + 2stddev)</text>
  <a xlink:href="https://github.com/apple/swift-collections-benchmark"><text x="1107" y="468.7" font-family="Helvetica" font-size="10" font-weight="normal" font-style="normal" fill="#000000" fill-opacity="1">swift-collections-benchmark</text></a>
  <path d="M 50 9 L 50 441" fill="none" stroke-width="0.75" stroke="#000000" stroke-opacity="0.49804" stroke-linecap="butt" stroke-linejoin="round"/>
  <text x="47" y="453.7" font-family="Helvetica" font-size="10" font-weight="normal" font-style="normal" fill="#000000" fill-opacity="1">1</text>
  <path d="M 109 9 L 109 441" fill="none" stroke-width="0.75" stroke="#000000" stroke-opacity="0.49804" stroke-linecap="butt" stroke-linejoin="round"/>
  <text x="106" y="453.7" font-family="Helvetica" font-size="10" font-weight="normal" font-style="normal" fill="#000000" fill-opacity="1">2</text>
  <path d="M 168 9 L 168 441" fill="none" stroke-width="0.75" stroke="#000000" stroke-opacity="0.49804" stroke-linecap="butt" stroke-linejoin="round"/>
  <text x="165" y="453.7" font-family="Helvetica" font-size="10" font-weight="normal" font-style="normal" fill="#000000" fill-opacity="1">4</text>
  <path d="M 227 9 L 227 441" fill="none" stroke-width="0.75" stroke="#000000" stroke-opacity="0.49804" stroke-linecap="butt" stroke-linejoin="round"/>
  <text x="224" y="453.7" font-family="Helvetica" font-size="10" font-weight="normal" font-style="normal" fill="#000000" fill-opacity="1">8</text>
  <path d="M 286 9 L 286 441" fill="none" stroke-width="0.75" stroke="#000000" stroke-opacity="0.49804" stroke-linecap="butt" stroke-linejoin="round"/>
  <text x="280" y="453.7" font-family="Helvetica" font-size="10" font-weight="normal" font-style="normal" fill="#000000" fill-opacity="1">16</text>
  <path d="M 345 9 L 345 441" fill="none" stroke-width="0.75" stroke="#000000" stroke-opacity="0.49804" stroke-linecap="butt" stroke-linejoin="round"/>
  <text x="339" y="453.7" font-family="Helvetica" font-size="10" font-weight="normal" font-style="normal" fill="#000000" fill-opacity="1">32</text>
  <path d="M 404 9 L 404 441" fill="none" stroke-width="0.75" stroke="#000000" stroke-opacity="0.49804" stroke-linecap="butt" stroke-linejoin="round"/>
  <text x="398" y="453.7" font-family="Helvetica" font-size="10" font-weight="normal" font-style="normal" fill="#000000" fill-opacity="1">64</text>
  <path d="M 463 9 L 463 441" fill="none" stroke-width="0.75" stroke="#000000" stroke-opacity="0.49804" stroke-linecap="butt" stroke-linejoin="round"/>
  <text x="454.5" y="453.7" font-family="Helvetica" font-size="10" font-weight="normal" font-style="normal" fill="#000000" fill-opacity="1">128</text>
  <path d="M 522 9 L 522 441" fill="none" stroke-width="0.75" stroke="#000000" stroke-opacity="0.49804" stroke-linecap="butt" stroke-linejoin="round"/>
  <text x="513.5" y="453.7" font-family="Helvetica" font-size="10" font-weight="normal" font-style="normal" fill="#000000" fill-opacity="1">256</text>
  <path d="M 581 9 L 581 441" fill="none" stroke-width="0.75" stroke="#000000" stroke-opacity="0.49804" stroke-linecap="butt" stroke-linejoin="round"/>
  <text x="572.5" y="453.7" font-family="Helvetica" font-size="10" font-weight="normal" font-style="normal" fill="#000000" fill-opacity="1">512</text>
  <path d="M 640 9 L 640 441" fill="none" stroke-width="0.75" stroke="#000000" stroke-opacity="0.49804" stroke-linecap="butt" stroke-linejoin="round"/>
  <text x="634.5" y="453.7" font-family="Helvetica" font-size="10" font-weight="normal" font-style="normal" fill="#000000" fill-opacity="1">1k</text>
  <path d="M 699 9 L 699 441" fill="none" stroke-width="0.75" stroke="#000000" stroke-opacity="0.49804" stroke-linecap="butt" stroke-linejoin="round"/>
  <text x="693.5" y="453.7" font-family="Helvetica" font-size="10" font-weight="normal" font-style="normal" fill="#000000" fill-opacity="1">2k</text>
  <path d="M 758 9 L 758 441" fill="none" stroke-width="0.75" stroke="#000000" stroke-opacity="0.49804" stroke-linecap="butt" stroke-linejoin="round"/>
  <text x="752.5" y="453.7" font-family="Helvetica" font-size="10" font-weight="normal" font-style="normal" fill="#000000" fill-opacity="1">4k</text>
  <path d="M 817 9 L 817 441" fill="none" stroke-width="0.75" stroke="#000000" stroke-opacity="0.49804" stroke-linecap="butt" stroke-linejoin="round"/>
  <text x="811.5" y="453.7" font-family="Helvetica" font-size="10" font-weight="normal" font-style="normal" fill="#000000" fill-opacity="1">8k</text>
  <path d="M 876 9 L 876 441" fill="none" stroke-width="0.75" stroke="#000000" stroke-opacity="0.49804" stroke-linecap="butt" stroke-linejoin="round"/>
  <text x="867.5" y="453.7" font-family="Helvetica" font-size="10" font-weight="normal" font-style="normal" fill="#000000" fill-opacity="1">16k</text>
  <path d="M 935 9 L 935 441" fill="none" stroke-width="0.75" stroke="#000000" stroke-opacity="0.49804" stroke-linecap="butt" stroke-linejoin="round"/>
  <text x="926.5" y="453.7" font-family="Helvetica" font-size="10" font-weight="normal" font-style="normal" fill="#000000" fill-opacity="1">32k</text>
  <path d="M 994 9 L 994 441" fill="none" stroke-width="0.75" stroke="#000000" stroke-opacity="0.49804" stroke-linecap="butt" stroke-linejoin="round"/>
  <text x="985.5" y="453.7" font-family="Helvetica" font-size="10" font-weight="normal" font-style="normal" fill="#000000" fill-opacity="1">64k</text>
  <path d="M 1053 9 L 1053 441" fill="none" stroke-width="0.75" stroke="#000000" stroke-opacity="0.49804" stroke-linecap="butt" stroke-linejoin="round"/>
  <text x="1042" y="453.7" font-family="Helvetica" font-size="10" font-weight="normal" font-style="normal" fill="#000000" fill-opacity="1">128k</text>
  <path d="M 1112 9 L 1112 441" fill="none" stroke-width="0.75" stroke="#000000" stroke-opacity="0.49804" stroke-linecap="butt" stroke-linejoin="round"/>
  <text x="1101" y="453.7" font-family="Helvetica" font-size="10" font-weight="normal" font-style="normal" fill="#000000" fill-opacity="1">256k</text>
  <path d="M 1171 9 L 1171 441" fill="none" stroke-width="0.75" stroke="#000000" stroke-opacity="0.49804" stroke-linecap="butt" stroke-linejoin="round"/>
  <text x="1160" y="453.7" font-family="Helvetica" font-size="10" font-weight="normal" font-style="normal" fill="#000000" fill-opacity="1">512k</text>
  <path d="M 1230 9 L 1230 441" fill="none" stroke-width="0.75" stroke="#000000" stroke-opacity="0.49804" stroke-linecap="butt" stroke-linejoin="round"/>
  <text x="1223" y="453.7" font-family="Helvetica" font-size="10" font-weight="normal" font-style="normal" fill="#000000" fill-opacity="1">1M</text>
  <path d="M 50 441 L 1230 441" fill="none" stroke-width="0.75" stroke="#000000" stroke-opacity="0.49804" stroke-linecap="butt" stroke-linejoin="round"/>
  <text x="16" y="442.7" font-family="Helvetica" font-size="10" font-weight="normal" font-style="normal" fill="#000000" fill-opacity="1">100 ps</text>
  <text x="1236" y="442.7" font-family="Helvetica" font-size="10" font-weight="normal" font-style="normal" fill="#000000" fill-opacity="1">100 ps</text>
  <path d="M 50 333 L 1230 333" fill="none" stroke-width="0.75" stroke="#000000" stroke-opacity="0.49804" stroke-linecap="butt" stroke-linejoin="round"/>
  <text x="27" y="334.7" font-family="Helvetica" font-size="10" font-weight="normal" font-style="normal" fill="#000000" fill-opacity="1">1 ns</text>
  <text x="1236" y="334.7" font-family="Helvetica" font-size="10" font-weight="normal" font-style="normal" fill="#000000" fill-opacity="1">1 ns</text>
  <path d="M 50 225 L 1230 225" fill="none" stroke-width="0.75" stroke="#000000" stroke-opacity="0.49804" stroke-linecap="butt" stroke-linejoin="round"/>
  <text x="21" y="226.7" font-family="Helvetica" font-size="10" font-weight="normal" font-style="normal" fill="#000000" fill-opacity="1">10 ns</text>
  <text x="1236" y="226.7" font-family="Helvetica" font-size="10" font-weight="normal" font-style="normal" fill="#000000" fill-opacity="1">10 ns</text>
  <path d="M 50 117 L 1230 117" fill="none" stroke-width="0.75" stroke="#000000" stroke-opacity="0.49804" stroke-linecap="butt" stroke-linejoin="round"/>
  <text x="16" y="118.7" font-family="Helvetica" font-size="10" font-weight="normal" font-style="normal" fill="#000000" fill-opacity="1">100 ns</text>
  <text x="1236" y="118.7" font-family="Helvetica" font-size="10" font-weight="normal" font-style="normal" fill="#000000" fill-opacity="1">100 ns</text>
  <path d="M 50 9 L 1230 9" fill="none" stroke-width="0.75" stroke="#000000" stroke-opacity="0.49804" stroke-linecap="butt" stroke-linejoin="round"/>
  <text x="26" y="10.7" font-family="Helvetica" font-size="10" font-weight="normal" font-style="normal" fill="#000000" fill-opacity="1">1 µs</text>
  <text x="1236" y="10.7" font-family="Helvetica" font-size="10" font-weight="normal" font-style="normal" fill="#000000" fill-opacity="1">1 µs</text>
  <path d="M 50 408.49 L 1230 408.49" fill="none" stroke-width="0.5" stroke="#000000" stroke-opacity="0.25882" stroke-linecap="butt" stroke-linejoin="round" stroke-dasharray="6 3" stroke-dashoffset="0"/>
  <path d="M 50 375.98 L 1230 375.98" fill="none" stroke-width="0.5" stroke="#000000" stroke-opacity="0.25882" stroke-linecap="butt" stroke-linejoin="round" stroke-dasharray="6 3" stroke-dashoffset="0"/>
  <path d="M 50 343.47 L 1230 343.47" fill="none" stroke-width="0.5" stroke="#000000" stroke-opacity="0.25882" stroke-linecap="butt" stroke-linejoin="round" stroke-dasharray="6 3" stroke-dashoffset="0"/>
  <path d="M 50 310.96 L 1230 310.96" fill="none" stroke-width="0.5" stroke="#000000" stroke-opacity="0.25882" stroke-linecap="butt" stroke-linejoin="round" stroke-dasharray="6 3" stroke-dashoffset="0"/>
  <path d="M 50 278.44 L 1230 278.44" fill="none" stroke-width="0.5" stroke="#000000" stroke-opacity="0.25882" stroke-linecap="butt" stroke-linejoin="round" stroke-dasharray="6 3" stroke-dashoffset="0"/>
  <path d="M 50 245.93 L 1230 245.93" fill="none" stroke-width="0.5" stroke="#000000" stroke-opacity="0.25882" stroke-linecap="butt" stroke-linejoin="round" stroke-dasharray="6 3" stroke-dashoffset="0"/>
  <path d="M 50 213.42 L 1230 213.42" fill="none" stroke-width="0.5" stroke="#000000" stroke-opacity="0.25882" stroke-linecap="butt" stroke-linejoin="round" stroke-dasharray="6 3" stroke-dashoffset="0"/>
  <path d="M 50 180.91 L 1230 180.91" fill="none" stroke-width="0.5" stroke="#000000" stroke-opacity="0.25882" stroke-linecap="butt" stroke-linejoin="round" stroke-dasharray="6 3" stroke-dashoffset="0"/>
  <path d="M 50 148.4 L 1230 148.4" fill="none" stroke-width="0.5" stroke="#000000" stroke-opacity="0.25882" stroke-linecap="butt" stroke-linejoin="round" stroke-dasharray="6 3" stroke-dashoffset="0"/>
  <path d="M 50 115.89 L 1230 115.89" fill="none" stroke-width="0.5" stroke="#000000" stroke-opacity="0.25882" stroke-linecap="butt" stroke-linejoin="round" stroke-dasharray="6 3" stroke-dashoffset="0"/>
  <path d="M 50 83.376 L 1230 83.376" fill="none" stroke-width="0.5" stroke="#000000" stroke-opacity="0.25882" stroke-linecap="butt" stroke-linejoin="round" stroke-dasharray="6 3" stroke-dashoffset="0"/>
  <path d="M 50 50.865 L 1230 50.865" fill="none" stroke-width="0.5" stroke="#000000" stroke-opacity="0.25882" stroke-linecap="butt" stroke-linejoin="round" stroke-dasharray="6 3" stroke-dashoffset="0"/>
  <path d="M 50 18.354 L 1230 18.354" fill="none" stroke-width="0.5" stroke="#000000" stroke-opacity="0.25882" stroke-linecap="butt" stroke-linejoin="round" stroke-dasharray="6 3" stroke-dashoffset="0"/>
  <path d="M 74 33 L 74 105 L 348 105 L 348 33 z" fill="#FFFFFF" fill-opacity="1.0" stroke="none"/>
  <clipPath id="clip-0">
    <path d="M 50 9 L 50 441 L 1230 441 L 1230 9 z"/>
  </clipPath>
  <g clip-path="url(#clip-0)">
    <path d="M 50 149.91L 109 181.64L 143.51 199.88L 168 214.15L 186.99 224.23L 202.51 232.04L 215.63 240.05L 227 246.27L 245.99 255.25L 261.51 264.6L 274.63 271.38L 286 276.93L 304.99 284.98L 320.51 295.92L 333.63 274.42L 345 283.68L 363.99 293.3L 379.51 301.41L 392.63 308.42L 404 316.8L 422.99 323.12L 438.51 328.51L 451.63 333.72L 463 362.72L 481.99 369.85L 497.51 374.83L 510.63 379.38L 522 382.49L 540.99 387.95L 556.51 391.66L 569.63 391.64L 581 394.24L 599.99 397.59L 615.51 400.95L 628.63 402.24L 640 401.04L 658.99 405.16L 674.51 408.65L 687.63 395.16L 699 400.81L 717.99 411.63L 733.51 410.36L 746.63 410.49L 758 408.11L 776.99 396.25L 792.51 406.02L 805.63 413.15L 817 412.85L 835.99 413.93L 851.51 414.85L 864.63 416.07L 876 414.73L 894.99 416.2L 910.51 405.33L 923.63 373.29L 935 417.8L 953.99 414.62L 969.51 415.24L 982.63 419.86L 994 417.5L 1013 417.68L 1028.5 415.16L 1041.6 417.55L 1053 414.92L 1072 401.61L 1087.5 340.08L 1100.6 338.82L 1112 341.03L 1131 345.89L 1146.5 346.6L 1159.6 354.39L 1171 343.01L 1190 341.25L 1205.5 331.8L 1218.6 354.49L 1230 332.79L 1230 417.59L 1218.6 360.35L 1205.5 358.83L 1190 355.29L 1171 346.92L 1159.6 356.11L 1146.5 350.59L 1131 351.75L 1112 353.93L 1100.6 353.9L 1087.5 351.73L 1072 417.89L 1053 417.72L 1041.6 417.86L 1028.5 417.63L 1013 417.7L 994 417.78L 982.63 419.86L 969.51 419.9L 953.99 419.94L 935 418.16L 923.63 417.74L 910.51 417.91L 894.99 416.5L 876 417.42L 864.63 416.1L 851.51 418.15L 835.99 419.34L 817 416.09L 805.63 415.21L 792.51 415.49L 776.99 414.24L 758 415.33L 746.63 411.48L 733.51 411.97L 717.99 412.25L 699 410.89L 687.63 410.45L 674.51 408.89L 658.99 407.08L 640 404.6L 628.63 403.53L 615.51 401.16L 599.99 398.76L 581 394.24L 569.63 391.64L 556.51 391.99L 540.99 387.95L 522 382.91L 510.63 379.38L 497.51 375.3L 481.99 369.86L 463 362.72L 451.63 339.11L 438.51 332.35L 422.99 323.12L 404 316.8L 392.63 308.42L 379.51 301.81L 363.99 294.1L 345 284.5L 333.63 282.8L 320.51 295.92L 304.99 287.73L 286 277.64L 274.63 271.38L 261.51 266.06L 245.99 255.98L 227 246.27L 215.63 240.78L 202.51 232.78L 186.99 224.23L 168 214.15L 143.51 199.88L 109 181.64L 50 149.91" fill="#28CD41" fill-opacity="0.30196078431372547" stroke="none"/>
    <path d="M 50 63.794L 109 109.38L 143.51 117L 168 119.96L 186.99 119.82L 202.51 121.35L 215.63 122.58L 227 113.49L 245.99 115.35L 261.51 116.84L 274.63 117.81L 286 118.31L 304.99 115.63L 320.51 120.3L 333.63 116.92L 345 118.53L 363.99 117.24L 379.51 115.32L 392.63 114.8L 404 114L 422.99 113.32L 438.51 109.65L 451.63 111.64L 463 110.41L 481.99 109.01L 497.51 108.36L 510.63 108.41L 522 107.54L 540.99 105.75L 556.51 105.65L 569.63 104.35L 581 104.19L 599.99 102.9L 615.51 101.7L 628.63 100.9L 640 98.428L 658.99 99.059L 674.51 98.336L 687.63 97.607L 699 97.037L 717.99 97.436L 733.51 97.305L 746.63 94.776L 758 92.611L 776.99 91.655L 792.51 89.541L 805.63 93.794L 817 92.372L 835.99 91.9L 851.51 85.161L 864.63 86.362L 876 89.856L 894.99 88.874L 910.51 87.199L 923.63 88.692L 935 87.701L 953.99 86.013L 969.51 86.374L 982.63 85.97L 994 86.907L 1013 83.943L 1028.5 81.578L 1041.6 83.522L 1053 85.258L 1072 82.099L 1087.5 76.705L 1100.6 79.435L 1112 80.105L 1131 78.206L 1146.5 78.395L 1159.6 77.627L 1171 79.037L 1190 76.675L 1205.5 76.381L 1218.6 78.039L 1230 75.868L 1230 77.588L 1218.6 78.442L 1205.5 77.298L 1190 78.899L 1171 79.099L 1159.6 81.059L 1146.5 79.847L 1131 79.813L 1112 82.099L 1100.6 82.534L 1087.5 83.215L 1072 84.142L 1053 85.755L 1041.6 85.043L 1028.5 84.515L 1013 86.894L 994 87.411L 982.63 87.58L 969.51 88.135L 953.99 89.112L 935 89.791L 923.63 90.969L 910.51 89.75L 894.99 90.391L 876 90.771L 864.63 91.475L 851.51 92.869L 835.99 92.34L 817 94.022L 805.63 94.3L 792.51 95.483L 776.99 93.617L 758 95.63L 746.63 96.998L 733.51 97.78L 717.99 99.152L 699 98.135L 687.63 100.61L 674.51 99.74L 658.99 100.21L 640 101.6L 628.63 101.77L 615.51 101.95L 599.99 104.13L 581 104.67L 569.63 104.91L 556.51 105.9L 540.99 107.62L 522 108.03L 510.63 108.54L 497.51 109.01L 481.99 110.47L 463 110.97L 451.63 111.78L 438.51 116.88L 422.99 113.62L 404 114.83L 392.63 115.81L 379.51 117.91L 363.99 117.33L 345 119.11L 333.63 123.09L 320.51 120.97L 304.99 121.09L 286 118.6L 274.63 118.58L 261.51 118.46L 245.99 119L 227 114.46L 215.63 122.76L 202.51 122.52L 186.99 121.77L 168 120.76L 143.51 118.39L 109 109.85L 50 91.088" fill="#007AFF" fill-opacity="0.30196078431372547" stroke="none"/>
    <path d="M 50 145.92L 109 192.05L 143.51 210.54L 168 223.09L 186.99 233.59L 202.51 244.02L 215.63 248.07L 227 256.55L 245.99 267.5L 261.51 275.09L 274.63 282.36L 286 287.64L 304.99 298.11L 320.51 305.34L 333.63 312.98L 345 283.79L 363.99 296.4L 379.51 304.66L 392.63 310.8L 404 313.6L 422.99 325.6L 438.51 331.11L 451.63 336.81L 463 369.19L 481.99 375.59L 497.51 381.17L 510.63 385.11L 522 387.82L 540.99 389.89L 556.51 395.55L 569.63 396.28L 581 397.37L 599.99 401.97L 615.51 403.1L 628.63 405.85L 640 407.13L 658.99 407.67L 674.51 409.76L 687.63 411.25L 699 405.72L 717.99 411.59L 733.51 413.68L 746.63 397.16L 758 414.19L 776.99 407.64L 792.51 412.89L 805.63 406.57L 817 414.09L 835.99 412.67L 851.51 414.15L 864.63 391.34L 876 415.69L 894.99 415.57L 910.51 414.78L 923.63 416.45L 935 415.69L 953.99 415.21L 969.51 415.86L 982.63 415.93L 994 416.68L 1013 416.85L 1028.5 407.43L 1041.6 416.93L 1053 416.62L 1072 416.98L 1087.5 347.13L 1100.6 334.47L 1112 336.91L 1131 336.05L 1146.5 332.44L 1159.6 338.7L 1171 354.53L 1190 350.6L 1205.5 345.8L 1218.6 349.29L 1230 328.12L 1230 416.92L 1218.6 349.54L 1205.5 356.52L 1190 360.14L 1171 355.4L 1159.6 356.54L 1146.5 363.28L 1131 352.05L 1112 353.95L 1100.6 360.62L 1087.5 347.57L 1072 417.07L 1053 417.13L 1041.6 416.97L 1028.5 416.95L 1013 416.87L 994 416.74L 982.63 416.78L 969.51 416.96L 953.99 416.44L 935 416.83L 923.63 416.76L 910.51 415.91L 894.99 415.86L 876 416.37L 864.63 415.23L 851.51 414.79L 835.99 415.92L 817 415.53L 805.63 413.61L 792.51 415.18L 776.99 407.69L 758 414.25L 746.63 413.99L 733.51 413.68L 717.99 412.38L 699 411.19L 687.63 411.25L 674.51 410.95L 658.99 408.98L 640 407.13L 628.63 405.85L 615.51 404.19L 599.99 401.97L 581 399.13L 569.63 396.28L 556.51 395.91L 540.99 396.01L 522 388.29L 510.63 385.11L 497.51 381.17L 481.99 376.16L 463 369.19L 451.63 342.19L 438.51 336.25L 422.99 326.4L 404 322.05L 392.63 312.07L 379.51 305.51L 363.99 299.05L 345 292.79L 333.63 312.98L 320.51 306.2L 304.99 298.11L 286 287.64L 274.63 283.28L 261.51 275.09L 245.99 267.5L 227 256.55L 215.63 250.77L 202.51 244.02L 186.99 234.5L 168 223.09L 143.51 210.54L 109 192.97L 50 159.5" fill="#FF3B30" fill-opacity="0.30196078431372547" stroke="none"/>
    <path d="M 50 149.91L 109 181.64L 143.51 199.88L 168 214.15L 186.99 224.23L 202.51 232.59L 215.63 240.59L 227 246.27L 245.99 255.79L 261.51 265.68L 274.63 271.38L 286 277.46L 304.99 287L 320.51 295.92L 333.63 280.46L 345 284.28L 363.99 293.89L 379.51 301.71L 392.63 308.42L 404 316.8L 422.99 323.12L 438.51 331.32L 451.63 337.64L 463 362.72L 481.99 369.86L 497.51 375.18L 510.63 379.38L 522 382.8L 540.99 387.95L 556.51 391.9L 569.63 391.64L 581 394.24L 599.99 398.45L 615.51 401.1L 628.63 403.19L 640 403.65L 658.99 406.57L 674.51 408.83L 687.63 405.95L 699 408.04L 717.99 412.09L 733.51 411.55L 746.63 411.22L 758 413.33L 776.99 408.84L 792.51 412.83L 805.63 414.67L 817 415.22L 835.99 417.87L 851.51 417.27L 864.63 416.1L 876 416.71L 894.99 416.42L 910.51 414.28L 923.63 401.53L 935 418.06L 953.99 418.49L 969.51 418.63L 982.63 419.86L 994 417.71L 1013 417.69L 1028.5 416.97L 1041.6 417.78L 1053 416.97L 1072 413.06L 1087.5 348.4L 1100.6 349.47L 1112 350.2L 1131 350.15L 1146.5 349.52L 1159.6 355.65L 1171 345.87L 1190 351.2L 1205.5 350.14L 1218.6 358.75L 1230 377.88" fill="none" stroke-width="4" stroke="#28CD41" stroke-opacity="1" stroke-linecap="round" stroke-linejoin="round"/>
    <path d="M 50 82.294L 109 109.73L 143.51 118.02L 168 120.55L 186.99 121.25L 202.51 122.21L 215.63 122.71L 227 114.2L 245.99 118.02L 261.51 118.03L 274.63 118.37L 286 118.53L 304.99 119.6L 320.51 120.8L 333.63 121.4L 345 118.96L 363.99 117.31L 379.51 117.22L 392.63 115.54L 404 114.61L 422.99 113.54L 438.51 114.88L 451.63 111.75L 463 110.82L 481.99 110.08L 497.51 108.84L 510.63 108.5L 522 107.9L 540.99 107.12L 556.51 105.83L 569.63 104.76L 581 104.54L 599.99 103.8L 615.51 101.88L 628.63 101.54L 640 100.75L 658.99 99.908L 674.51 99.369L 687.63 99.805L 699 97.846L 717.99 98.698L 733.51 97.655L 746.63 96.407L 758 94.822L 776.99 93.096L 792.51 93.857L 805.63 94.168L 817 93.586L 835.99 92.225L 851.51 90.73L 864.63 90.084L 876 90.53L 894.99 89.99L 910.51 89.07L 923.63 90.363L 935 89.236L 953.99 88.282L 969.51 87.669L 982.63 87.154L 994 87.279L 1013 86.105L 1028.5 83.73L 1041.6 84.64L 1053 85.625L 1072 83.599L 1087.5 81.426L 1100.6 81.705L 1112 81.57L 1131 79.388L 1146.5 79.464L 1159.6 80.138L 1171 79.082L 1190 78.308L 1205.5 77.057L 1218.6 78.336L 1230 77.132" fill="none" stroke-width="4" stroke="#007AFF" stroke-opacity="1" stroke-linecap="round" stroke-linejoin="round"/>
    <path d="M 50 155.56L 109 192.73L 143.51 210.54L 168 223.09L 186.99 234.26L 202.51 244.02L 215.63 250.05L 227 256.55L 245.99 267.5L 261.51 275.09L 274.63 283.04L 286 287.64L 304.99 298.11L 320.51 305.97L 333.63 312.98L 345 290.27L 363.99 298.34L 379.51 305.29L 392.63 311.73L 404 319.69L 422.99 326.19L 438.51 334.85L 451.63 340.72L 463 369.19L 481.99 376.01L 497.51 381.17L 510.63 385.11L 522 388.17L 540.99 394.34L 556.51 395.82L 569.63 396.28L 581 398.67L 599.99 401.97L 615.51 403.9L 628.63 405.85L 640 407.13L 658.99 408.63L 674.51 410.63L 687.63 411.25L 699 409.7L 717.99 412.17L 733.51 413.68L 746.63 408.98L 758 414.23L 776.99 407.68L 792.51 414.57L 805.63 411.66L 817 415.15L 835.99 415.05L 851.51 414.62L 864.63 407.73L 876 416.19L 894.99 415.79L 910.51 415.61L 923.63 416.68L 935 416.53L 953.99 416.11L 969.51 416.67L 982.63 416.56L 994 416.73L 1013 416.87L 1028.5 414.27L 1041.6 416.96L 1053 417L 1072 417.05L 1087.5 347.45L 1100.6 352.27L 1112 348.87L 1131 347.32L 1146.5 353.08L 1159.6 351.18L 1171 355.17L 1190 357.45L 1205.5 353.47L 1218.6 349.48L 1230 374.45" fill="none" stroke-width="4" stroke="#FF3B30" stroke-opacity="1" stroke-linecap="round" stroke-linejoin="round"/>
    <path d="M 50 149.91L 109 181.64L 143.51 199.88L 168 214.15L 186.99 224.23L 202.51 232.59L 215.63 240.59L 227 246.27L 245.99 255.79L 261.51 265.68L 274.63 271.38L 286 277.46L 304.99 287L 320.51 295.92L 333.63 280.46L 345 284.28L 363.99 293.89L 379.51 301.71L 392.63 308.42L 404 316.8L 422.99 323.12L 438.51 331.32L 451.63 337.64L 463 362.72L 481.99 369.86L 497.51 375.18L 510.63 379.38L 522 382.8L 540.99 387.95L 556.51 391.9L 569.63 391.64L 581 394.24L 599.99 398.45L 615.51 401.1L 628.63 403.19L 640 403.65L 658.99 406.57L 674.51 408.83L 687.63 405.95L 699 408.04L 717.99 412.09L 733.51 411.55L 746.63 411.22L 758 413.33L 776.99 408.84L 792.51 412.83L 805.63 414.67L 817 415.22L 835.99 417.87L 851.51 417.27L 864.63 416.1L 876 416.71L 894.99 416.42L 910.51 414.28L 923.63 401.53L 935 418.06L 953.99 418.49L 969.51 418.63L 982.63 419.86L 994 417.71L 1013 417.69L 1028.5 416.97L 1041.6 417.78L 1053 416.97L 1072 413.06L 1087.5 348.4L 1100.6 349.47L 1112 350.2L 1131 350.15L 1146.5 349.52L 1159.6 355.65L 1171 345.87L 1190 351.2L 1205.5 350.14L 1218.6 358.75L 1230 377.88" fill="none" stroke-width="0.5" stroke="#000000" stroke-opacity="0.30196" stroke-linecap="round" stroke-linejoin="round"/>
    <path d="M 50 82.294L 109 109.73L 143.51 118.02L 168 120.55L 186.99 121.25L 202.51 122.21L 215.63 122.71L 227 114.2L 245.99 118.02L 261.51 118.03L 274.63 118.37L 286 118.53L 304.99 119.6L 320.51 120.8L 333.63 121.4L 345 118.96L 363.99 117.31L 379.51 117.22L 392.63 115.54L 404 114.61L 422.99 113.54L 438.51 114.88L 451.63 111.75L 463 110.82L 481.99 110.08L 497.51 108.84L 510.63 108.5L 522 107.9L 540.99 107.12L 556.51 105.83L 569.63 104.76L 581 104.54L 599.99 103.8L 615.51 101.88L 628.63 101.54L 640 100.75L 658.99 99.908L 674.51 99.369L 687.63 99.805L 699 97.846L 717.99 98.698L 733.51 97.655L 746.63 96.407L 758 94.822L 776.99 93.096L 792.51 93.857L 805.63 94.168L 817 93.586L 835.99 92.225L 851.51 90.73L 864.63 90.084L 876 90.53L 894.99 89.99L 910.51 89.07L 923.63 90.363L 935 89.236L 953.99 88.282L 969.51 87.669L 982.63 87.154L 994 87.279L 1013 86.105L 1028.5 83.73L 1041.6 84.64L 1053 85.625L 1072 83.599L 1087.5 81.426L 1100.6 81.705L 1112 81.57L 1131 79.388L 1146.5 79.464L 1159.6 80.138L 1171 79.082L 1190 78.308L 1205.5 77.057L 1218.6 78.336L 1230 77.132" fill="none" stroke-width="0.5" stroke="#000000" stroke-opacity="0.30196" stroke-linecap="round" stroke-linejoin="round"/>
    <path d="M 50 155.56L 109 192.73L 143.51 210.54L 168 223.09L 186.99 234.26L 202.51 244.02L 215.63 250.05L 227 256.55L 245.99 267.5L 261.51 275.09L 274.63 283.04L 286 287.64L 304.99 298.11L 320.51 305.97L 333.63 312.98L 345 290.27L 363.99 298.34L 379.51 305.29L 392.63 311.73L 404 319.69L 422.99 326.19L 438.51 334.85L 451.63 340.72L 463 369.19L 481.99 376.01L 497.51 381.17L 510.63 385.11L 522 388.17L 540.99 394.34L 556.51 395.82L 569.63 396.28L 581 398.67L 599.99 401.97L 615.51 403.9L 628.63 405.85L 640 407.13L 658.99 408.63L 674.51 410.63L 687.63 411.25L 699 409.7L 717.99 412.17L 733.51 413.68L 746.63 408.98L 758 414.23L 776.99 407.68L 792.51 414.57L 805.63 411.66L 817 415.15L 835.99 415.05L 851.51 414.62L 864.63 407.73L 876 416.19L 894.99 415.79L 910.51 415.61L 923.63 416.68L 935 416.53L 953.99 416.11L 969.51 416.67L 982.63 416.56L 994 416.73L 1013 416.87L 1028.5 414.27L 1041.6 416.96L 1053 417L 1072 417.05L 1087.5 347.45L 1100.6 352.27L 1112 348.87L 1131 347.32L 1146.5 353.08L 1159.6 351.18L 1171 355.17L 1190 357.45L 1205.5 353.47L 1218.6 349.48L 1230 374.45" fill="none" stroke-width="0.5" stroke="#000000" stroke-opacity="0.30196" stroke-linecap="round" stroke-linejoin="round"/>
  </g>
  <path d="M 74 33 L 74 105 L 348 105 L 348 33 z" fill="#FFFFFF" fill-opacity="0.7019607843137254" stroke-width="0.5" stroke="#000000" stroke-opacity="1" stroke-linecap="round" stroke-linejoin="round"/>
  <path d="M 88 52 L 108 52" fill="none" stroke-width="4" stroke="#FF3B30" stroke-opacity="1" stroke-linecap="round" stroke-linejoin="round"/>
  <path d="M 88 52 L 108 52" fill="none" stroke-width="0.5" stroke="#000000" stroke-opacity="0.30196" stroke-linecap="round" stroke-linejoin="round"/>
  <text x="119" y="56.17" font-family="Menlo" font-size="12" font-weight="normal" font-style="normal" fill="#000000" fill-opacity="1">Array&lt;Int&gt; init from range</text>
  <path d="M 88 69 L 108 69" fill="none" stroke-width="4" stroke="#007AFF" stroke-opacity="1" stroke-linecap="round" stroke-linejoin="round"/>
  <path d="M 88 69 L 108 69" fill="none" stroke-width="0.5" stroke="#000000" stroke-opacity="0.30196" stroke-linecap="round" stroke-linejoin="round"/>
  <text x="119" y="73.17" font-family="Menlo" font-size="12" font-weight="normal" font-style="normal" fill="#000000" fill-opacity="1">TreeArray&lt;Int&gt; init from range</text>
  <path d="M 88 86 L 108 86" fill="none" stroke-width="4" stroke="#28CD41" stroke-opacity="1" stroke-linecap="round" stroke-linejoin="round"/>
  <path d="M 88 86 L 108 86" fill="none" stroke-width="0.5" stroke="#000000" stroke-opacity="0.30196" stroke-linecap="round" stroke-linejoin="round"/>
  <text x="119" y="90.17" font-family="Menlo" font-size="12" font-weight="normal" font-style="normal" fill="#000000" fill-opacity="1">Deque&lt;Int&gt; init from range</text>
  <path d="M 50 9 L 50 441 L 1230 441 L 1230 9 z" fill="none" stroke-width="0.5" stroke="#000000" stroke-opacity="1" stroke-linecap="round" stroke-linejoin="round"/>
</svg>
