<!DOCTYPE svg PUBLIC "-//W3C//DTD SVG 1.1//EN" "http://www.w3.org/Graphics/SVG/1.1/DTD/svg11.dtd">
<svg width="1280.0px" height="480.0px" viewBox="0.0 0.0 1280.0 480.0" xmlns="http://www.w3.org/2000/svg" xmlns:xlink="http://www.w3.org/1999/xlink" version="1.1">
  <path d="M 0 0 L 0 480 L 1280 480 L 1280 0 z" fill="#FFFFFF" fill-opacity="1.0" stroke="none"/>
  <text x="50" y="468.7" font-family="Helvetica" font-size="10" font-weight="normal" font-style="normal" fill="#000000" fill-opacity="1">Average per-element processing time over input size (bands: min, mean, mean + 2stddev)</text>
  <a xlink:href="https://github.com/apple/swift-collections-benchmark"><text x="1107" y="468.7" font-family="Helvetica" font-size="10" font-weight="normal" font-style="normal" fill="#000000" fill-opacity="1">swift-collections-benchmark</text></a>
  <path d="M 50 9 L 50 441" fill="none" stroke-width="0.75" stroke="#000000" stroke-opacity="0.49804" stroke-linecap="butt" stroke-linejoin="round"/>
  <text x="47" y="453.7" font-family="Helvetica" font-size="10" font-weight="normal" font-style="normal" fill="#000000" fill-opacity="1">1</text>
  <path d="M 109 9 L 109 441" fill="none" stroke-width="0.75" stroke="#000000" stroke-opacity="0.49804" stroke-linecap="butt" stroke-linejoin="round"/>
  <text x="106" y="453.7" font-family="Helvetica" font-size="10" font-weight="normal" font-style="normal" fill="#000000" fill-opacity="1">2</text>
  <path d="M 168 9 L 168 441" fill="none" stroke-width="0.75" stroke="#000000" stroke-opacity="0.49804" stroke-linecap="butt" stroke-linejoin="round"/>
  <text x="165" y="453.7" font-family="Helvetica" font-size="10" font-weight="normal" font-style="normal" fill="#000000" fill-opacity="1">4</text>
  <path d="M 227 9 L 227 441" fill="none" stroke-width="0.75" stroke="#000000" stroke-opacity="0.49804" stroke-linecap="butt" stroke-linejoin="round"/>
  <text x="224" y="453.7" font-family="Helvetica" font-size="10" font-weight="normal" font-style="normal" fill="#000000" fill-opacity="1">8</text>
  <path d="M 286 9 L 286 441" fill="none" stroke-width="0.75" stroke="#000000" stroke-opacity="0.49804" stroke-linecap="butt" stroke-linejoin="round"/>
  <text x="280" y="453.7" font-family="Helvetica" font-size="10" font-weight="normal" font-style="normal" fill="#000000" fill-opacity="1">16</text>
  <path d="M 345 9 L 345 441" fill="none" stroke-width="0.75" stroke="#000000" stroke-opacity="0.49804" stroke-linecap="butt" stroke-linejoin="round"/>
  <text x="339" y="453.7" font-family="Helvetica" font-size="10" font-weight="normal" font-style="normal" fill="#000000" fill-opacity="1">32</text>
  <path d="M 404 9 L 404 441" fill="none" stroke-width="0.75" stroke="#000000" stroke-opacity="0.49804" stroke-linecap="butt" stroke-linejoin="round"/>
  <text x="398" y="453.7" font-family="Helvetica" font-size="10" font-weight="normal" font-style="normal" fill="#000000" fill-opacity="1">64</text>
  <path d="M 463 9 L 463 441" fill="none" stroke-width="0.75" stroke="#000000" stroke-opacity="0.49804" stroke-linecap="butt" stroke-linejoin="round"/>
  <text x="454.5" y="453.7" font-family="Helvetica" font-size="10" font-weight="normal" font-style="normal" fill="#000000" fill-opacity="1">128</text>
  <path d="M 522 9 L 522 441" fill="none" stroke-width="0.75" stroke="#000000" stroke-opacity="0.49804" stroke-linecap="butt" stroke-linejoin="round"/>
  <text x="513.5" y="453.7" font-family="Helvetica" font-size="10" font-weight="normal" font-style="normal" fill="#000000" fill-opacity="1">256</text>
  <path d="M 581 9 L 581 441" fill="none" stroke-width="0.75" stroke="#000000" stroke-opacity="0.49804" stroke-linecap="butt" stroke-linejoin="round"/>
  <text x="572.5" y="453.7" font-family="Helvetica" font-size="10" font-weight="normal" font-style="normal" fill="#000000" fill-opacity="1">512</text>
  <path d="M 640 9 L 640 441" fill="none" stroke-width="0.75" stroke="#000000" stroke-opacity="0.49804" stroke-linecap="butt" stroke-linejoin="round"/>
  <text x="634.5" y="453.7" font-family="Helvetica" font-size="10" font-weight="normal" font-style="normal" fill="#000000" fill-opacity="1">1k</text>
  <path d="M 699 9 L 699 441" fill="none" stroke-width="0.75" stroke="#000000" stroke-opacity="0.49804" stroke-linecap="butt" stroke-linejoin="round"/>
  <text x="693.5" y="453.7" font-family="Helvetica" font-size="10" font-weight="normal" font-style="normal" fill="#000000" fill-opacity="1">2k</text>
  <path d="M 758 9 L 758 441" fill="none" stroke-width="0.75" stroke="#000000" stroke-opacity="0.49804" stroke-linecap="butt" stroke-linejoin="round"/>
  <text x="752.5" y="453.7" font-family="Helvetica" font-size="10" font-weight="normal" font-style="normal" fill="#000000" fill-opacity="1">4k</text>
  <path d="M 817 9 L 817 441" fill="none" stroke-width="0.75" stroke="#000000" stroke-opacity="0.49804" stroke-linecap="butt" stroke-linejoin="round"/>
  <text x="811.5" y="453.7" font-family="Helvetica" font-size="10" font-weight="normal" font-style="normal" fill="#000000" fill-opacity="1">8k</text>
  <path d="M 876 9 L 876 441" fill="none" stroke-width="0.75" stroke="#000000" stroke-opacity="0.49804" stroke-linecap="butt" stroke-linejoin="round"/>
  <text x="867.5" y="453.7" font-family="Helvetica" font-size="10" font-weight="normal" font-style="normal" fill="#000000" fill-opacity="1">16k</text>
  <path d="M 935 9 L 935 441" fill="none" stroke-width="0.75" stroke="#000000" stroke-opacity="0.49804" stroke-linecap="butt" stroke-linejoin="round"/>
  <text x="926.5" y="453.7" font-family="Helvetica" font-size="10" font-weight="normal" font-style="normal" fill="#000000" fill-opacity="1">32k</text>
  <path d="M 994 9 L 994 441" fill="none" stroke-width="0.75" stroke="#000000" stroke-opacity="0.49804" stroke-linecap="butt" stroke-linejoin="round"/>
  <text x="985.5" y="453.7" font-family="Helvetica" font-size="10" font-weight="normal" font-style="normal" fill="#000000" fill-opacity="1">64k</text>
  <path d="M 1053 9 L 1053 441" fill="none" stroke-width="0.75" stroke="#000000" stroke-opacity="0.49804" stroke-linecap="butt" stroke-linejoin="round"/>
  <text x="1042" y="453.7" font-family="Helvetica" font-size="10" font-weight="normal" font-style="normal" fill="#000000" fill-opacity="1">128k</text>
  <path d="M 1112 9 L 1112 441" fill="none" stroke-width="0.75" stroke="#000000" stroke-opacity="0.49804" stroke-linecap="butt" stroke-linejoin="round"/>
  <text x="1101" y="453.7" font-family="Helvetica" font-size="10" font-weight="normal" font-style="normal" fill="#000000" fill-opacity="1">256k</text>
  <path d="M 1171 9 L 1171 441" fill="none" stroke-width="0.75" stroke="#000000" stroke-opacity="0.49804" stroke-linecap="butt" stroke-linejoin="round"/>
  <text x="1160" y="453.7" font-family="Helvetica" font-size="10" font-weight="normal" font-style="normal" fill="#000000" fill-opacity="1">512k</text>
  <path d="M 1230 9 L 1230 441" fill="none" stroke-width="0.75" stroke="#000000" stroke-opacity="0.49804" stroke-linecap="butt" stroke-linejoin="round"/>
  <text x="1223" y="453.7" font-family="Helvetica" font-size="10" font-weight="normal" font-style="normal" fill="#000000" fill-opacity="1">1M</text>
  <path d="M 50 441 L 1230 441" fill="none" stroke-width="0.75" stroke="#000000" stroke-opacity="0.49804" stroke-linecap="butt" stroke-linejoin="round"/>
  <text x="21" y="442.7" font-family="Helvetica" font-size="10" font-weight="normal" font-style="normal" fill="#000000" fill-opacity="1">10 ps</text>
  <text x="1236" y="442.7" font-family="Helvetica" font-size="10" font-weight="normal" font-style="normal" fill="#000000" fill-opacity="1">10 ps</text>
  <path d="M 50 354.6 L 1230 354.6" fill="none" stroke-width="0.75" stroke="#000000" stroke-opacity="0.49804" stroke-linecap="butt" stroke-linejoin="round"/>
  <text x="16" y="356.3" font-family="Helvetica" font-size="10" font-weight="normal" font-style="normal" fill="#000000" fill-opacity="1">100 ps</text>
  <text x="1236" y="356.3" font-family="Helvetica" font-size="10" font-weight="normal" font-style="normal" fill="#000000" fill-opacity="1">100 ps</text>
  <path d="M 50 268.2 L 1230 268.2" fill="none" stroke-width="0.75" stroke="#000000" stroke-opacity="0.49804" stroke-linecap="butt" stroke-linejoin="round"/>
  <text x="27" y="269.9" font-family="Helvetica" font-size="10" font-weight="normal" font-style="normal" fill="#000000" fill-opacity="1">1 ns</text>
  <text x="1236" y="269.9" font-family="Helvetica" font-size="10" font-weight="normal" font-style="normal" fill="#000000" fill-opacity="1">1 ns</text>
  <path d="M 50 181.8 L 1230 181.8" fill="none" stroke-width="0.75" stroke="#000000" stroke-opacity="0.49804" stroke-linecap="butt" stroke-linejoin="round"/>
  <text x="21" y="183.5" font-family="Helvetica" font-size="10" font-weight="normal" font-style="normal" fill="#000000" fill-opacity="1">10 ns</text>
  <text x="1236" y="183.5" font-family="Helvetica" font-size="10" font-weight="normal" font-style="normal" fill="#000000" fill-opacity="1">10 ns</text>
  <path d="M 50 95.4 L 1230 95.4" fill="none" stroke-width="0.75" stroke="#000000" stroke-opacity="0.49804" stroke-linecap="butt" stroke-linejoin="round"/>
  <text x="16" y="97.1" font-family="Helvetica" font-size="10" font-weight="normal" font-style="normal" fill="#000000" fill-opacity="1">100 ns</text>
  <text x="1236" y="97.1" font-family="Helvetica" font-size="10" font-weight="normal" font-style="normal" fill="#000000" fill-opacity="1">100 ns</text>
  <path d="M 50 9 L 1230 9" fill="none" stroke-width="0.75" stroke="#000000" stroke-opacity="0.49804" stroke-linecap="butt" stroke-linejoin="round"/>
  <text x="26" y="10.7" font-family="Helvetica" font-size="10" font-weight="normal" font-style="normal" fill="#000000" fill-opacity="1">1 µs</text>
  <text x="1236" y="10.7" font-family="Helvetica" font-size="10" font-weight="normal" font-style="normal" fill="#000000" fill-opacity="1">1 µs</text>
  <path d="M 50 414.99 L 1230 414.99" fill="none" stroke-width="0.5" stroke="#000000" stroke-opacity="0.25882" stroke-linecap="butt" stroke-linejoin="round" stroke-dasharray="6 3" stroke-dashoffset="0"/>
  <path d="M 50 388.98 L 1230 388.98" fill="none" stroke-width="0.5" stroke="#000000" stroke-opacity="0.25882" stroke-linecap="butt" stroke-linejoin="round" stroke-dasharray="6 3" stroke-dashoffset="0"/>
  <path d="M 50 362.97 L 1230 362.97" fill="none" stroke-width="0.5" stroke="#000000" stroke-opacity="0.25882" stroke-linecap="butt" stroke-linejoin="round" stroke-dasharray="6 3" stroke-dashoffset="0"/>
  <path d="M 50 336.96 L 1230 336.96" fill="none" stroke-width="0.5" stroke="#000000" stroke-opacity="0.25882" stroke-linecap="butt" stroke-linejoin="round" stroke-dasharray="6 3" stroke-dashoffset="0"/>
  <path d="M 50 310.96 L 1230 310.96" fill="none" stroke-width="0.5" stroke="#000000" stroke-opacity="0.25882" stroke-linecap="butt" stroke-linejoin="round" stroke-dasharray="6 3" stroke-dashoffset="0"/>
  <path d="M 50 284.95 L 1230 284.95" fill="none" stroke-width="0.5" stroke="#000000" stroke-opacity="0.25882" stroke-linecap="butt" stroke-linejoin="round" stroke-dasharray="6 3" stroke-dashoffset="0"/>
  <path d="M 50 258.94 L 1230 258.94" fill="none" stroke-width="0.5" stroke="#000000" stroke-opacity="0.25882" stroke-linecap="butt" stroke-linejoin="round" stroke-dasharray="6 3" stroke-dashoffset="0"/>
  <path d="M 50 232.93 L 1230 232.93" fill="none" stroke-width="0.5" stroke="#000000" stroke-opacity="0.25882" stroke-linecap="butt" stroke-linejoin="round" stroke-dasharray="6 3" stroke-dashoffset="0"/>
  <path d="M 50 206.92 L 1230 206.92" fill="none" stroke-width="0.5" stroke="#000000" stroke-opacity="0.25882" stroke-linecap="butt" stroke-linejoin="round" stroke-dasharray="6 3" stroke-dashoffset="0"/>
  <path d="M 50 180.91 L 1230 180.91" fill="none" stroke-width="0.5" stroke="#000000" stroke-opacity="0.25882" stroke-linecap="butt" stroke-linejoin="round" stroke-dasharray="6 3" stroke-dashoffset="0"/>
  <path d="M 50 154.9 L 1230 154.9" fill="none" stroke-width="0.5" stroke="#000000" stroke-opacity="0.25882" stroke-linecap="butt" stroke-linejoin="round" stroke-dasharray="6 3" stroke-dashoffset="0"/>
  <path d="M 50 128.89 L 1230 128.89" fill="none" stroke-width="0.5" stroke="#000000" stroke-opacity="0.25882" stroke-linecap="butt" stroke-linejoin="round" stroke-dasharray="6 3" stroke-dashoffset="0"/>
  <path d="M 50 102.88 L 1230 102.88" fill="none" stroke-width="0.5" stroke="#000000" stroke-opacity="0.25882" stroke-linecap="butt" stroke-linejoin="round" stroke-dasharray="6 3" stroke-dashoffset="0"/>
  <path d="M 50 76.874 L 1230 76.874" fill="none" stroke-width="0.5" stroke="#000000" stroke-opacity="0.25882" stroke-linecap="butt" stroke-linejoin="round" stroke-dasharray="6 3" stroke-dashoffset="0"/>
  <path d="M 50 50.865 L 1230 50.865" fill="none" stroke-width="0.5" stroke="#000000" stroke-opacity="0.25882" stroke-linecap="butt" stroke-linejoin="round" stroke-dasharray="6 3" stroke-dashoffset="0"/>
  <path d="M 50 24.856 L 1230 24.856" fill="none" stroke-width="0.5" stroke="#000000" stroke-opacity="0.25882" stroke-linecap="butt" stroke-linejoin="round" stroke-dasharray="6 3" stroke-dashoffset="0"/>
  <path d="M 74 33 L 74 88 L 406 88 L 406 33 z" fill="#FFFFFF" fill-opacity="1.0" stroke="none"/>
  <clipPath id="clip-0">
    <path d="M 50 9 L 50 441 L 1230 441 L 1230 9 z"/>
  </clipPath>
  <g clip-path="url(#clip-0)">
    <path d="M 50 52.918L 109 89.028L 143.51 99.005L 168 103.91L 186.99 107.09L 202.51 110.89L 215.63 113.61L 227 104.85L 245.99 107.5L 261.51 110.91L 274.63 114.08L 286 114.85L 304.99 117.09L 320.51 123.17L 333.63 124.16L 345 125.09L 363.99 123.97L 379.51 125.03L 392.63 125.55L 404 126.21L 422.99 124.71L 438.51 125.74L 451.63 125.94L 463 126.43L 481.99 124.83L 497.51 125.95L 510.63 125.98L 522 127.02L 540.99 124.96L 556.51 125.89L 569.63 126.21L 581 127.08L 599.99 124.18L 615.51 125.82L 628.63 125.73L 640 126.43L 658.99 123.6L 674.51 125.74L 687.63 125.99L 699 126.17L 717.99 124.44L 733.51 124.78L 746.63 125.18L 758 126.15L 776.99 123.82L 792.51 123.93L 805.63 123.96L 817 125.8L 835.99 123.91L 851.51 124.78L 864.63 125.09L 876 125.31L 894.99 121.9L 910.51 124.96L 923.63 123.92L 935 121.22L 953.99 121.87L 969.51 122.95L 982.63 122.23L 994 123.83L 1013 121.41L 1028.5 122.22L 1041.6 123.31L 1053 123.59L 1072 121.98L 1087.5 120.47L 1100.6 122.37L 1112 123.81L 1131 118.25L 1146.5 121.69L 1159.6 121.96L 1171 122.88L 1190 117.52L 1205.5 121.52L 1218.6 119.71L 1230 120.39L 1230 122.62L 1218.6 122.61L 1205.5 121.86L 1190 121.41L 1171 123.57L 1159.6 122.57L 1146.5 122.25L 1131 121.49L 1112 124.17L 1100.6 122.82L 1087.5 125.07L 1072 122.29L 1053 124.95L 1041.6 123.42L 1028.5 123.34L 1013 121.86L 994 124.1L 982.63 122.88L 969.51 123.49L 953.99 122.2L 935 124.25L 923.63 125.52L 910.51 125.04L 894.99 124.12L 876 126.47L 864.63 125.43L 851.51 125.33L 835.99 124.48L 817 126.67L 805.63 125.85L 792.51 125.16L 776.99 124.37L 758 126.6L 746.63 125.8L 733.51 125.59L 717.99 124.7L 699 126.82L 687.63 126.21L 674.51 125.94L 658.99 125.2L 640 126.69L 628.63 126.27L 615.51 125.83L 599.99 125.15L 581 127.36L 569.63 126.49L 556.51 126.15L 540.99 125.24L 522 127.26L 510.63 126.69L 497.51 126.01L 481.99 125.32L 463 126.69L 451.63 126.08L 438.51 125.76L 422.99 124.77L 404 126.38L 392.63 125.78L 379.51 125.11L 363.99 124.1L 345 125.14L 333.63 124.23L 320.51 123.63L 304.99 117.7L 286 115.42L 274.63 114.29L 261.51 111.36L 245.99 109.28L 227 105.73L 215.63 114.31L 202.51 111.73L 186.99 108.25L 168 104.86L 143.51 100.23L 109 89.283L 50 70.422" fill="#007AFF" fill-opacity="0.30196078431372547" stroke="none"/>
    <path d="M 50 124.49L 109 155.06L 143.51 169.79L 168 180.27L 186.99 187.63L 202.51 196.23L 215.63 199.53L 227 209L 245.99 217.78L 261.51 223.85L 274.63 229.6L 286 234.61L 304.99 242.22L 320.51 247.91L 333.63 254.05L 345 230.3L 363.99 239.22L 379.51 243.31L 392.63 251.12L 404 253.74L 422.99 265.56L 438.51 266.54L 451.63 272.91L 463 298.26L 481.99 305L 497.51 309.82L 510.63 313.68L 522 316.86L 540.99 321.22L 556.51 324.99L 569.63 325.76L 581 328.55L 599.99 332.48L 615.51 334.23L 628.63 337.32L 640 339.1L 658.99 319.34L 674.51 331.48L 687.63 344.03L 699 327.89L 717.99 291.2L 733.51 347.15L 746.63 350.2L 758 292.69L 776.99 348.41L 792.51 347.78L 805.63 351.21L 817 340.93L 835.99 355.78L 851.51 330.43L 864.63 308.58L 876 335.7L 894.99 330.52L 910.51 341.39L 923.63 352.18L 935 326.63L 953.99 351.96L 969.51 340.51L 982.63 350.85L 994 335.52L 1013 346.49L 1028.5 324.01L 1041.6 331.53L 1053 326.13L 1072 329.71L 1087.5 270.04L 1100.6 280.97L 1112 279.51L 1131 276.02L 1146.5 285.16L 1159.6 281.58L 1171 283.12L 1190 284.61L 1205.5 283.55L 1218.6 279.72L 1230 268.69L 1230 340.55L 1218.6 285.24L 1205.5 286.5L 1190 288.9L 1171 288.34L 1159.6 289.17L 1146.5 289.04L 1131 283.39L 1112 284.49L 1100.6 288.42L 1087.5 281.61L 1072 348.28L 1053 346.44L 1041.6 344.97L 1028.5 350.26L 1013 351.87L 994 347.32L 982.63 351.48L 969.51 349.54L 953.99 352.63L 935 352.41L 923.63 352.19L 910.51 346.96L 894.99 343.63L 876 354.43L 864.63 355.12L 851.51 342.72L 835.99 357.7L 817 355.91L 805.63 354.85L 792.51 352.18L 776.99 351.35L 758 331.05L 746.63 355.53L 733.51 354.06L 717.99 328.77L 699 349.37L 687.63 345.44L 674.51 333.09L 658.99 341.81L 640 340.28L 628.63 337.74L 615.51 336.32L 599.99 332.48L 581 328.55L 569.63 326.07L 556.51 325.34L 540.99 321.61L 522 316.86L 510.63 313.68L 497.51 309.82L 481.99 305L 463 298.77L 451.63 279.44L 438.51 270.97L 422.99 265.56L 404 258.49L 392.63 251.45L 379.51 248.84L 363.99 239.92L 345 235.01L 333.63 254.05L 320.51 248.65L 304.99 242.99L 286 234.61L 274.63 229.6L 261.51 224.61L 245.99 217.78L 227 209L 215.63 201.64L 202.51 196.24L 186.99 189.79L 168 180.27L 143.51 169.92L 109 155.79L 50 127.88" fill="#FF3B30" fill-opacity="0.30196078431372547" stroke="none"/>
    <path d="M 50 65.006L 109 89.216L 143.51 99.908L 168 104.61L 186.99 107.94L 202.51 111.5L 215.63 114.12L 227 105.5L 245.99 108.81L 261.51 111.24L 274.63 114.23L 286 115.27L 304.99 117.54L 320.51 123.51L 333.63 124.21L 345 125.12L 363.99 124.06L 379.51 125.09L 392.63 125.72L 404 126.34L 422.99 124.76L 438.51 125.75L 451.63 126.05L 463 126.62L 481.99 125.19L 497.51 125.99L 510.63 126.5L 522 127.2L 540.99 125.17L 556.51 126.09L 569.63 126.41L 581 127.29L 599.99 124.89L 615.51 125.83L 628.63 126.13L 640 126.62L 658.99 124.77L 674.51 125.89L 687.63 126.15L 699 126.65L 717.99 124.63L 733.51 125.37L 746.63 125.64L 758 126.48L 776.99 124.23L 792.51 124.84L 805.63 125.35L 817 126.44L 835.99 124.33L 851.51 125.18L 864.63 125.34L 876 126.17L 894.99 123.53L 910.51 125.02L 923.63 125.1L 935 123.43L 953.99 122.12L 969.51 123.34L 982.63 122.71L 994 124.03L 1013 121.74L 1028.5 123.04L 1041.6 123.39L 1053 124.59L 1072 122.21L 1087.5 123.82L 1100.6 122.7L 1112 124.07L 1131 120.62L 1146.5 122.1L 1159.6 122.41L 1171 123.39L 1190 120.35L 1205.5 121.77L 1218.6 121.83L 1230 122.02" fill="none" stroke-width="4" stroke="#007AFF" stroke-opacity="1" stroke-linecap="round" stroke-linejoin="round"/>
    <path d="M 50 126.96L 109 155.6L 143.51 169.88L 168 180.27L 186.99 189.21L 202.51 196.24L 215.63 201.08L 227 209L 245.99 217.78L 261.51 224.41L 274.63 229.6L 286 234.61L 304.99 242.79L 320.51 248.46L 333.63 254.05L 345 233.72L 363.99 239.73L 379.51 247.32L 392.63 251.37L 404 257.19L 422.99 265.56L 438.51 269.76L 451.63 277.62L 463 298.64L 481.99 305L 497.51 309.82L 510.63 313.68L 522 316.86L 540.99 321.51L 556.51 325.25L 569.63 325.99L 581 328.55L 599.99 332.48L 615.51 335.76L 628.63 337.63L 640 339.96L 658.99 334.53L 674.51 332.66L 687.63 345.07L 699 342.48L 717.99 314.83L 733.51 352.13L 746.63 354.07L 758 316.73L 776.99 350.56L 792.51 350.98L 805.63 353.86L 817 351.39L 835.99 357.18L 851.51 339.1L 864.63 336.52L 876 348.57L 894.99 339.74L 910.51 345.42L 923.63 352.19L 935 343.8L 953.99 352.46L 969.51 346.96L 982.63 351.32L 994 343.86L 1013 350.39L 1028.5 341.45L 1041.6 340.97L 1053 339.99L 1072 342.48L 1087.5 278.22L 1100.6 286.33L 1112 283.13L 1131 281.32L 1146.5 287.99L 1159.6 287.03L 1171 286.91L 1190 287.73L 1205.5 285.7L 1218.6 283.72L 1230 305.99" fill="none" stroke-width="4" stroke="#FF3B30" stroke-opacity="1" stroke-linecap="round" stroke-linejoin="round"/>
    <path d="M 50 65.006L 109 89.216L 143.51 99.908L 168 104.61L 186.99 107.94L 202.51 111.5L 215.63 114.12L 227 105.5L 245.99 108.81L 261.51 111.24L 274.63 114.23L 286 115.27L 304.99 117.54L 320.51 123.51L 333.63 124.21L 345 125.12L 363.99 124.06L 379.51 125.09L 392.63 125.72L 404 126.34L 422.99 124.76L 438.51 125.75L 451.63 126.05L 463 126.62L 481.99 125.19L 497.51 125.99L 510.63 126.5L 522 127.2L 540.99 125.17L 556.51 126.09L 569.63 126.41L 581 127.29L 599.99 124.89L 615.51 125.83L 628.63 126.13L 640 126.62L 658.99 124.77L 674.51 125.89L 687.63 126.15L 699 126.65L 717.99 124.63L 733.51 125.37L 746.63 125.64L 758 126.48L 776.99 124.23L 792.51 124.84L 805.63 125.35L 817 126.44L 835.99 124.33L 851.51 125.18L 864.63 125.34L 876 126.17L 894.99 123.53L 910.51 125.02L 923.63 125.1L 935 123.43L 953.99 122.12L 969.51 123.34L 982.63 122.71L 994 124.03L 1013 121.74L 1028.5 123.04L 1041.6 123.39L 1053 124.59L 1072 122.21L 1087.5 123.82L 1100.6 122.7L 1112 124.07L 1131 120.62L 1146.5 122.1L 1159.6 122.41L 1171 123.39L 1190 120.35L 1205.5 121.77L 1218.6 121.83L 1230 122.02" fill="none" stroke-width="0.5" stroke="#000000" stroke-opacity="0.30196" stroke-linecap="round" stroke-linejoin="round"/>
    <path d="M 50 126.96L 109 155.6L 143.51 169.88L 168 180.27L 186.99 189.21L 202.51 196.24L 215.63 201.08L 227 209L 245.99 217.78L 261.51 224.41L 274.63 229.6L 286 234.61L 304.99 242.79L 320.51 248.46L 333.63 254.05L 345 233.72L 363.99 239.73L 379.51 247.32L 392.63 251.37L 404 257.19L 422.99 265.56L 438.51 269.76L 451.63 277.62L 463 298.64L 481.99 305L 497.51 309.82L 510.63 313.68L 522 316.86L 540.99 321.51L 556.51 325.25L 569.63 325.99L 581 328.55L 599.99 332.48L 615.51 335.76L 628.63 337.63L 640 339.96L 658.99 334.53L 674.51 332.66L 687.63 345.07L 699 342.48L 717.99 314.83L 733.51 352.13L 746.63 354.07L 758 316.73L 776.99 350.56L 792.51 350.98L 805.63 353.86L 817 351.39L 835.99 357.18L 851.51 339.1L 864.63 336.52L 876 348.57L 894.99 339.74L 910.51 345.42L 923.63 352.19L 935 343.8L 953.99 352.46L 969.51 346.96L 982.63 351.32L 994 343.86L 1013 350.39L 1028.5 341.45L 1041.6 340.97L 1053 339.99L 1072 342.48L 1087.5 278.22L 1100.6 286.33L 1112 283.13L 1131 281.32L 1146.5 287.99L 1159.6 287.03L 1171 286.91L 1190 287.73L 1205.5 285.7L 1218.6 283.72L 1230 305.99" fill="none" stroke-width="0.5" stroke="#000000" stroke-opacity="0.30196" stroke-linecap="round" stroke-linejoin="round"/>
  </g>
  <path d="M 74 33 L 74 88 L 406 88 L 406 33 z" fill="#FFFFFF" fill-opacity="0.7019607843137254" stroke-width="0.5" stroke="#000000" stroke-opacity="1" stroke-linecap="round" stroke-linejoin="round"/>
  <path d="M 88 52 L 108 52" fill="none" stroke-width="4" stroke="#FF3B30" stroke-opacity="1" stroke-linecap="round" stroke-linejoin="round"/>
  <path d="M 88 52 L 108 52" fill="none" stroke-width="0.5" stroke="#000000" stroke-opacity="0.30196" stroke-linecap="round" stroke-linejoin="round"/>
  <text x="119" y="56.17" font-family="Menlo" font-size="12" font-weight="normal" font-style="normal" fill="#000000" fill-opacity="1">Array&lt;Int&gt; init from unsafe buffer</text>
  <path d="M 88 69 L 108 69" fill="none" stroke-width="4" stroke="#007AFF" stroke-opacity="1" stroke-linecap="round" stroke-linejoin="round"/>
  <path d="M 88 69 L 108 69" fill="none" stroke-width="0.5" stroke="#000000" stroke-opacity="0.30196" stroke-linecap="round" stroke-linejoin="round"/>
  <text x="119" y="73.17" font-family="Menlo" font-size="12" font-weight="normal" font-style="normal" fill="#000000" fill-opacity="1">TreeArray&lt;Int&gt; init from unsafe buffer</text>
  <path d="M 50 9 L 50 441 L 1230 441 L 1230 9 z" fill="none" stroke-width="0.5" stroke="#000000" stroke-opacity="1" stroke-linecap="round" stroke-linejoin="round"/>
</svg>
