<!DOCTYPE svg PUBLIC "-//W3C//DTD SVG 1.1//EN" "http://www.w3.org/Graphics/SVG/1.1/DTD/svg11.dtd">
<svg width="1280.0px" height="480.0px" viewBox="0.0 0.0 1280.0 480.0" xmlns="http://www.w3.org/2000/svg" xmlns:xlink="http://www.w3.org/1999/xlink" version="1.1">
  <path d="M 0 0 L 0 480 L 1280 480 L 1280 0 z" fill="#FFFFFF" fill-opacity="1.0" stroke="none"/>
  <text x="50" y="468.7" font-family="Helvetica" font-size="10" font-weight="normal" font-style="normal" fill="#000000" fill-opacity="1">Average per-element processing time over input size (bands: min, mean, mean + 2stddev)</text>
  <a xlink:href="https://github.com/apple/swift-collections-benchmark"><text x="1107" y="468.7" font-family="Helvetica" font-size="10" font-weight="normal" font-style="normal" fill="#000000" fill-opacity="1">swift-collections-benchmark</text></a>
  <path d="M 50 9 L 50 441" fill="none" stroke-width="0.75" stroke="#000000" stroke-opacity="0.49804" stroke-linecap="butt" stroke-linejoin="round"/>
  <text x="47" y="453.7" font-family="Helvetica" font-size="10" font-weight="normal" font-style="normal" fill="#000000" fill-opacity="1">1</text>
  <path d="M 109 9 L 109 441" fill="none" stroke-width="0.75" stroke="#000000" stroke-opacity="0.49804" stroke-linecap="butt" stroke-linejoin="round"/>
  <text x="106" y="453.7" font-family="Helvetica" font-size="10" font-weight="normal" font-style="normal" fill="#000000" fill-opacity="1">2</text>
  <path d="M 168 9 L 168 441" fill="none" stroke-width="0.75" stroke="#000000" stroke-opacity="0.49804" stroke-linecap="butt" stroke-linejoin="round"/>
  <text x="165" y="453.7" font-family="Helvetica" font-size="10" font-weight="normal" font-style="normal" fill="#000000" fill-opacity="1">4</text>
  <path d="M 227 9 L 227 441" fill="none" stroke-width="0.75" stroke="#000000" stroke-opacity="0.49804" stroke-linecap="butt" stroke-linejoin="round"/>
  <text x="224" y="453.7" font-family="Helvetica" font-size="10" font-weight="normal" font-style="normal" fill="#000000" fill-opacity="1">8</text>
  <path d="M 286 9 L 286 441" fill="none" stroke-width="0.75" stroke="#000000" stroke-opacity="0.49804" stroke-linecap="butt" stroke-linejoin="round"/>
  <text x="280" y="453.7" font-family="Helvetica" font-size="10" font-weight="normal" font-style="normal" fill="#000000" fill-opacity="1">16</text>
  <path d="M 345 9 L 345 441" fill="none" stroke-width="0.75" stroke="#000000" stroke-opacity="0.49804" stroke-linecap="butt" stroke-linejoin="round"/>
  <text x="339" y="453.7" font-family="Helvetica" font-size="10" font-weight="normal" font-style="normal" fill="#000000" fill-opacity="1">32</text>
  <path d="M 404 9 L 404 441" fill="none" stroke-width="0.75" stroke="#000000" stroke-opacity="0.49804" stroke-linecap="butt" stroke-linejoin="round"/>
  <text x="398" y="453.7" font-family="Helvetica" font-size="10" font-weight="normal" font-style="normal" fill="#000000" fill-opacity="1">64</text>
  <path d="M 463 9 L 463 441" fill="none" stroke-width="0.75" stroke="#000000" stroke-opacity="0.49804" stroke-linecap="butt" stroke-linejoin="round"/>
  <text x="454.5" y="453.7" font-family="Helvetica" font-size="10" font-weight="normal" font-style="normal" fill="#000000" fill-opacity="1">128</text>
  <path d="M 522 9 L 522 441" fill="none" stroke-width="0.75" stroke="#000000" stroke-opacity="0.49804" stroke-linecap="butt" stroke-linejoin="round"/>
  <text x="513.5" y="453.7" font-family="Helvetica" font-size="10" font-weight="normal" font-style="normal" fill="#000000" fill-opacity="1">256</text>
  <path d="M 581 9 L 581 441" fill="none" stroke-width="0.75" stroke="#000000" stroke-opacity="0.49804" stroke-linecap="butt" stroke-linejoin="round"/>
  <text x="572.5" y="453.7" font-family="Helvetica" font-size="10" font-weight="normal" font-style="normal" fill="#000000" fill-opacity="1">512</text>
  <path d="M 640 9 L 640 441" fill="none" stroke-width="0.75" stroke="#000000" stroke-opacity="0.49804" stroke-linecap="butt" stroke-linejoin="round"/>
  <text x="634.5" y="453.7" font-family="Helvetica" font-size="10" font-weight="normal" font-style="normal" fill="#000000" fill-opacity="1">1k</text>
  <path d="M 699 9 L 699 441" fill="none" stroke-width="0.75" stroke="#000000" stroke-opacity="0.49804" stroke-linecap="butt" stroke-linejoin="round"/>
  <text x="693.5" y="453.7" font-family="Helvetica" font-size="10" font-weight="normal" font-style="normal" fill="#000000" fill-opacity="1">2k</text>
  <path d="M 758 9 L 758 441" fill="none" stroke-width="0.75" stroke="#000000" stroke-opacity="0.49804" stroke-linecap="butt" stroke-linejoin="round"/>
  <text x="752.5" y="453.7" font-family="Helvetica" font-size="10" font-weight="normal" font-style="normal" fill="#000000" fill-opacity="1">4k</text>
  <path d="M 817 9 L 817 441" fill="none" stroke-width="0.75" stroke="#000000" stroke-opacity="0.49804" stroke-linecap="butt" stroke-linejoin="round"/>
  <text x="811.5" y="453.7" font-family="Helvetica" font-size="10" font-weight="normal" font-style="normal" fill="#000000" fill-opacity="1">8k</text>
  <path d="M 876 9 L 876 441" fill="none" stroke-width="0.75" stroke="#000000" stroke-opacity="0.49804" stroke-linecap="butt" stroke-linejoin="round"/>
  <text x="867.5" y="453.7" font-family="Helvetica" font-size="10" font-weight="normal" font-style="normal" fill="#000000" fill-opacity="1">16k</text>
  <path d="M 935 9 L 935 441" fill="none" stroke-width="0.75" stroke="#000000" stroke-opacity="0.49804" stroke-linecap="butt" stroke-linejoin="round"/>
  <text x="926.5" y="453.7" font-family="Helvetica" font-size="10" font-weight="normal" font-style="normal" fill="#000000" fill-opacity="1">32k</text>
  <path d="M 994 9 L 994 441" fill="none" stroke-width="0.75" stroke="#000000" stroke-opacity="0.49804" stroke-linecap="butt" stroke-linejoin="round"/>
  <text x="985.5" y="453.7" font-family="Helvetica" font-size="10" font-weight="normal" font-style="normal" fill="#000000" fill-opacity="1">64k</text>
  <path d="M 1053 9 L 1053 441" fill="none" stroke-width="0.75" stroke="#000000" stroke-opacity="0.49804" stroke-linecap="butt" stroke-linejoin="round"/>
  <text x="1042" y="453.7" font-family="Helvetica" font-size="10" font-weight="normal" font-style="normal" fill="#000000" fill-opacity="1">128k</text>
  <path d="M 1112 9 L 1112 441" fill="none" stroke-width="0.75" stroke="#000000" stroke-opacity="0.49804" stroke-linecap="butt" stroke-linejoin="round"/>
  <text x="1101" y="453.7" font-family="Helvetica" font-size="10" font-weight="normal" font-style="normal" fill="#000000" fill-opacity="1">256k</text>
  <path d="M 1171 9 L 1171 441" fill="none" stroke-width="0.75" stroke="#000000" stroke-opacity="0.49804" stroke-linecap="butt" stroke-linejoin="round"/>
  <text x="1160" y="453.7" font-family="Helvetica" font-size="10" font-weight="normal" font-style="normal" fill="#000000" fill-opacity="1">512k</text>
  <path d="M 1230 9 L 1230 441" fill="none" stroke-width="0.75" stroke="#000000" stroke-opacity="0.49804" stroke-linecap="butt" stroke-linejoin="round"/>
  <text x="1223" y="453.7" font-family="Helvetica" font-size="10" font-weight="normal" font-style="normal" fill="#000000" fill-opacity="1">1M</text>
  <path d="M 50 441 L 1230 441" fill="none" stroke-width="0.75" stroke="#000000" stroke-opacity="0.49804" stroke-linecap="butt" stroke-linejoin="round"/>
  <text x="21" y="442.7" font-family="Helvetica" font-size="10" font-weight="normal" font-style="normal" fill="#000000" fill-opacity="1">10 ps</text>
  <text x="1236" y="442.7" font-family="Helvetica" font-size="10" font-weight="normal" font-style="normal" fill="#000000" fill-opacity="1">10 ps</text>
  <path d="M 50 354.6 L 1230 354.6" fill="none" stroke-width="0.75" stroke="#000000" stroke-opacity="0.49804" stroke-linecap="butt" stroke-linejoin="round"/>
  <text x="16" y="356.3" font-family="Helvetica" font-size="10" font-weight="normal" font-style="normal" fill="#000000" fill-opacity="1">100 ps</text>
  <text x="1236" y="356.3" font-family="Helvetica" font-size="10" font-weight="normal" font-style="normal" fill="#000000" fill-opacity="1">100 ps</text>
  <path d="M 50 268.2 L 1230 268.2" fill="none" stroke-width="0.75" stroke="#000000" stroke-opacity="0.49804" stroke-linecap="butt" stroke-linejoin="round"/>
  <text x="27" y="269.9" font-family="Helvetica" font-size="10" font-weight="normal" font-style="normal" fill="#000000" fill-opacity="1">1 ns</text>
  <text x="1236" y="269.9" font-family="Helvetica" font-size="10" font-weight="normal" font-style="normal" fill="#000000" fill-opacity="1">1 ns</text>
  <path d="M 50 181.8 L 1230 181.8" fill="none" stroke-width="0.75" stroke="#000000" stroke-opacity="0.49804" stroke-linecap="butt" stroke-linejoin="round"/>
  <text x="21" y="183.5" font-family="Helvetica" font-size="10" font-weight="normal" font-style="normal" fill="#000000" fill-opacity="1">10 ns</text>
  <text x="1236" y="183.5" font-family="Helvetica" font-size="10" font-weight="normal" font-style="normal" fill="#000000" fill-opacity="1">10 ns</text>
  <path d="M 50 95.4 L 1230 95.4" fill="none" stroke-width="0.75" stroke="#000000" stroke-opacity="0.49804" stroke-linecap="butt" stroke-linejoin="round"/>
  <text x="16" y="97.1" font-family="Helvetica" font-size="10" font-weight="normal" font-style="normal" fill="#000000" fill-opacity="1">100 ns</text>
  <text x="1236" y="97.1" font-family="Helvetica" font-size="10" font-weight="normal" font-style="normal" fill="#000000" fill-opacity="1">100 ns</text>
  <path d="M 50 9 L 1230 9" fill="none" stroke-width="0.75" stroke="#000000" stroke-opacity="0.49804" stroke-linecap="butt" stroke-linejoin="round"/>
  <text x="26" y="10.7" font-family="Helvetica" font-size="10" font-weight="normal" font-style="normal" fill="#000000" fill-opacity="1">1 µs</text>
  <text x="1236" y="10.7" font-family="Helvetica" font-size="10" font-weight="normal" font-style="normal" fill="#000000" fill-opacity="1">1 µs</text>
  <path d="M 50 414.99 L 1230 414.99" fill="none" stroke-width="0.5" stroke="#000000" stroke-opacity="0.25882" stroke-linecap="butt" stroke-linejoin="round" stroke-dasharray="6 3" stroke-dashoffset="0"/>
  <path d="M 50 388.98 L 1230 388.98" fill="none" stroke-width="0.5" stroke="#000000" stroke-opacity="0.25882" stroke-linecap="butt" stroke-linejoin="round" stroke-dasharray="6 3" stroke-dashoffset="0"/>
  <path d="M 50 362.97 L 1230 362.97" fill="none" stroke-width="0.5" stroke="#000000" stroke-opacity="0.25882" stroke-linecap="butt" stroke-linejoin="round" stroke-dasharray="6 3" stroke-dashoffset="0"/>
  <path d="M 50 336.96 L 1230 336.96" fill="none" stroke-width="0.5" stroke="#000000" stroke-opacity="0.25882" stroke-linecap="butt" stroke-linejoin="round" stroke-dasharray="6 3" stroke-dashoffset="0"/>
  <path d="M 50 310.96 L 1230 310.96" fill="none" stroke-width="0.5" stroke="#000000" stroke-opacity="0.25882" stroke-linecap="butt" stroke-linejoin="round" stroke-dasharray="6 3" stroke-dashoffset="0"/>
  <path d="M 50 284.95 L 1230 284.95" fill="none" stroke-width="0.5" stroke="#000000" stroke-opacity="0.25882" stroke-linecap="butt" stroke-linejoin="round" stroke-dasharray="6 3" stroke-dashoffset="0"/>
  <path d="M 50 258.94 L 1230 258.94" fill="none" stroke-width="0.5" stroke="#000000" stroke-opacity="0.25882" stroke-linecap="butt" stroke-linejoin="round" stroke-dasharray="6 3" stroke-dashoffset="0"/>
  <path d="M 50 232.93 L 1230 232.93" fill="none" stroke-width="0.5" stroke="#000000" stroke-opacity="0.25882" stroke-linecap="butt" stroke-linejoin="round" stroke-dasharray="6 3" stroke-dashoffset="0"/>
  <path d="M 50 206.92 L 1230 206.92" fill="none" stroke-width="0.5" stroke="#000000" stroke-opacity="0.25882" stroke-linecap="butt" stroke-linejoin="round" stroke-dasharray="6 3" stroke-dashoffset="0"/>
  <path d="M 50 180.91 L 1230 180.91" fill="none" stroke-width="0.5" stroke="#000000" stroke-opacity="0.25882" stroke-linecap="butt" stroke-linejoin="round" stroke-dasharray="6 3" stroke-dashoffset="0"/>
  <path d="M 50 154.9 L 1230 154.9" fill="none" stroke-width="0.5" stroke="#000000" stroke-opacity="0.25882" stroke-linecap="butt" stroke-linejoin="round" stroke-dasharray="6 3" stroke-dashoffset="0"/>
  <path d="M 50 128.89 L 1230 128.89" fill="none" stroke-width="0.5" stroke="#000000" stroke-opacity="0.25882" stroke-linecap="butt" stroke-linejoin="round" stroke-dasharray="6 3" stroke-dashoffset="0"/>
  <path d="M 50 102.88 L 1230 102.88" fill="none" stroke-width="0.5" stroke="#000000" stroke-opacity="0.25882" stroke-linecap="butt" stroke-linejoin="round" stroke-dasharray="6 3" stroke-dashoffset="0"/>
  <path d="M 50 76.874 L 1230 76.874" fill="none" stroke-width="0.5" stroke="#000000" stroke-opacity="0.25882" stroke-linecap="butt" stroke-linejoin="round" stroke-dasharray="6 3" stroke-dashoffset="0"/>
  <path d="M 50 50.865 L 1230 50.865" fill="none" stroke-width="0.5" stroke="#000000" stroke-opacity="0.25882" stroke-linecap="butt" stroke-linejoin="round" stroke-dasharray="6 3" stroke-dashoffset="0"/>
  <path d="M 50 24.856 L 1230 24.856" fill="none" stroke-width="0.5" stroke="#000000" stroke-opacity="0.25882" stroke-linecap="butt" stroke-linejoin="round" stroke-dasharray="6 3" stroke-dashoffset="0"/>
  <path d="M 74 33 L 74 105 L 406 105 L 406 33 z" fill="#FFFFFF" fill-opacity="1.0" stroke="none"/>
  <clipPath id="clip-0">
    <path d="M 50 9 L 50 441 L 1230 441 L 1230 9 z"/>
  </clipPath>
  <g clip-path="url(#clip-0)">
    <path d="M 50 119.88L 109 144.44L 143.51 159.63L 168 171.9L 186.99 179.97L 202.51 186.52L 215.63 191.74L 227 198.85L 245.99 201.66L 261.51 214.07L 274.63 219.53L 286 214.98L 304.99 230.02L 320.51 237.97L 333.63 221.19L 345 227.05L 363.99 233.55L 379.51 242.76L 392.63 249.3L 404 250.86L 422.99 257.74L 438.51 265.91L 451.63 268.91L 463 291.98L 481.99 298.8L 497.51 304.53L 510.63 309.04L 522 312.84L 540.99 318.52L 556.51 315.42L 569.63 322.81L 581 325.07L 599.99 330.24L 615.51 327.51L 628.63 315.67L 640 332.77L 658.99 339.43L 674.51 343.3L 687.63 339.09L 699 331.82L 717.99 338.13L 733.51 336.47L 746.63 347.51L 758 293.98L 776.99 328.96L 792.51 305.42L 805.63 329.08L 817 355.68L 835.99 295.68L 851.51 350.64L 864.63 335.44L 876 348.15L 894.99 336.26L 910.51 315.61L 923.63 342.8L 935 345.17L 953.99 305.98L 969.51 349.1L 982.63 333.18L 994 342.74L 1013 345.78L 1028.5 333.87L 1041.6 347.03L 1053 332.34L 1072 324.64L 1087.5 271.31L 1100.6 271.01L 1112 279.21L 1131 274.07L 1146.5 288.98L 1159.6 274.13L 1171 275.15L 1190 274.74L 1205.5 288.39L 1218.6 286.82L 1230 268.34L 1230 339.39L 1218.6 288.65L 1205.5 289.09L 1190 288.68L 1171 283.23L 1159.6 286.51L 1146.5 289.39L 1131 290.94L 1112 289.98L 1100.6 289.82L 1087.5 308.99L 1072 348.21L 1053 344.98L 1041.6 350.18L 1028.5 349.99L 1013 348.83L 994 350.01L 982.63 344.56L 969.51 349.51L 953.99 347.16L 935 349.36L 923.63 346.41L 910.51 343.77L 894.99 345.26L 876 351.49L 864.63 354.68L 851.51 354.13L 835.99 351.45L 817 355.87L 805.63 340.32L 792.51 331.76L 776.99 338.07L 758 331.53L 746.63 352.53L 733.51 351.68L 717.99 350.41L 699 338.89L 687.63 345.71L 674.51 344.62L 658.99 340.69L 640 337.47L 628.63 335.27L 615.51 333.67L 599.99 330.24L 581 325.34L 569.63 323.09L 556.51 322.99L 540.99 318.87L 522 312.84L 510.63 309.05L 497.51 304.53L 481.99 299.22L 463 291.98L 451.63 272.92L 438.51 266.2L 422.99 262.25L 404 254.89L 392.63 251.63L 379.51 243.08L 363.99 240.58L 345 231L 333.63 228.23L 320.51 238.54L 304.99 231.7L 286 231.99L 274.63 220.13L 261.51 214.65L 245.99 214.35L 227 199.44L 215.63 192.3L 202.51 186.52L 186.99 179.97L 168 171.9L 143.51 159.63L 109 145L 50 119.88" fill="#28CD41" fill-opacity="0.30196078431372547" stroke="none"/>
    <path d="M 50 68.432L 109 89.076L 143.51 98.162L 168 103.4L 186.99 108.15L 202.51 111.65L 215.63 114.58L 227 107.36L 245.99 109.17L 261.51 111.6L 274.63 115.09L 286 116.21L 304.99 118.38L 320.51 124.32L 333.63 125.08L 345 125.74L 363.99 124.89L 379.51 125.9L 392.63 126.35L 404 127.16L 422.99 125.53L 438.51 126.56L 451.63 125.6L 463 127.62L 481.99 125.81L 497.51 126.45L 510.63 126.89L 522 127.87L 540.99 125.95L 556.51 126.84L 569.63 127.15L 581 127.99L 599.99 125.56L 615.51 126.57L 628.63 127.21L 640 127.88L 658.99 125.57L 674.51 126.88L 687.63 126.61L 699 127.65L 717.99 125.25L 733.51 126.17L 746.63 125.96L 758 127.45L 776.99 124.85L 792.51 125.9L 805.63 125.78L 817 127.14L 835.99 125.08L 851.51 125.71L 864.63 125.54L 876 126.79L 894.99 125.03L 910.51 125.97L 923.63 125.34L 935 123.88L 953.99 122.17L 969.51 123.89L 982.63 124.01L 994 125.06L 1013 122.22L 1028.5 123.94L 1041.6 123.69L 1053 124.8L 1072 122.14L 1087.5 122L 1100.6 123.63L 1112 124.52L 1131 122.44L 1146.5 123.11L 1159.6 123.31L 1171 124.36L 1190 122.3L 1205.5 122.48L 1218.6 122.83L 1230 123.85L 1230 124.22L 1218.6 123.21L 1205.5 122.74L 1190 122.32L 1171 124.51L 1159.6 123.57L 1146.5 123.33L 1131 122.6L 1112 124.82L 1100.6 123.7L 1087.5 125.98L 1072 123.82L 1053 125.73L 1041.6 123.8L 1028.5 123.96L 1013 123.16L 994 125.08L 982.63 124.06L 969.51 123.96L 953.99 122.98L 935 124.31L 923.63 125.41L 910.51 126L 894.99 125.09L 876 127.13L 864.63 126.27L 851.51 126.1L 835.99 125.17L 817 127.15L 805.63 126.16L 792.51 126.24L 776.99 125.36L 758 127.53L 746.63 126.44L 733.51 126.17L 717.99 125.49L 699 127.71L 687.63 126.97L 674.51 126.95L 658.99 126.04L 640 128.43L 628.63 127.38L 615.51 126.92L 599.99 126.15L 581 128.12L 569.63 127.3L 556.51 127L 540.99 126.02L 522 128.05L 510.63 127.09L 497.51 127.1L 481.99 125.97L 463 127.75L 451.63 128.25L 438.51 126.64L 422.99 125.67L 404 127.31L 392.63 126.46L 379.51 125.98L 363.99 124.92L 345 126.03L 333.63 125.08L 320.51 124.32L 304.99 118.43L 286 116.37L 274.63 115.82L 261.51 112.42L 245.99 110.22L 227 107.41L 215.63 115.74L 202.51 111.81L 186.99 110.65L 168 105.88L 143.51 102.24L 109 91.967L 50 73.085" fill="#007AFF" fill-opacity="0.30196078431372547" stroke="none"/>
    <path d="M 50 124.49L 109 155.06L 143.51 169.79L 168 180.27L 186.99 187.63L 202.51 196.23L 215.63 199.53L 227 209L 245.99 217.78L 261.51 223.85L 274.63 229.6L 286 234.61L 304.99 242.22L 320.51 247.91L 333.63 254.05L 345 230.3L 363.99 239.22L 379.51 243.31L 392.63 251.12L 404 253.74L 422.99 265.56L 438.51 266.54L 451.63 272.91L 463 298.26L 481.99 305L 497.51 309.82L 510.63 313.68L 522 316.86L 540.99 321.22L 556.51 324.99L 569.63 325.76L 581 328.55L 599.99 332.48L 615.51 334.23L 628.63 337.32L 640 339.1L 658.99 319.34L 674.51 331.48L 687.63 344.03L 699 327.89L 717.99 291.2L 733.51 347.15L 746.63 350.2L 758 292.69L 776.99 348.41L 792.51 347.78L 805.63 351.21L 817 340.93L 835.99 355.78L 851.51 330.43L 864.63 308.58L 876 335.7L 894.99 330.52L 910.51 341.39L 923.63 352.18L 935 326.63L 953.99 351.96L 969.51 340.51L 982.63 350.85L 994 335.52L 1013 346.49L 1028.5 324.01L 1041.6 331.53L 1053 326.13L 1072 329.71L 1087.5 270.04L 1100.6 280.97L 1112 279.51L 1131 276.02L 1146.5 285.16L 1159.6 281.58L 1171 283.12L 1190 284.61L 1205.5 283.55L 1218.6 279.72L 1230 268.69L 1230 340.55L 1218.6 285.24L 1205.5 286.5L 1190 288.9L 1171 288.34L 1159.6 289.17L 1146.5 289.04L 1131 283.39L 1112 284.49L 1100.6 288.42L 1087.5 281.61L 1072 348.28L 1053 346.44L 1041.6 344.97L 1028.5 350.26L 1013 351.87L 994 347.32L 982.63 351.48L 969.51 349.54L 953.99 352.63L 935 352.41L 923.63 352.19L 910.51 346.96L 894.99 343.63L 876 354.43L 864.63 355.12L 851.51 342.72L 835.99 357.7L 817 355.91L 805.63 354.85L 792.51 352.18L 776.99 351.35L 758 331.05L 746.63 355.53L 733.51 354.06L 717.99 328.77L 699 349.37L 687.63 345.44L 674.51 333.09L 658.99 341.81L 640 340.28L 628.63 337.74L 615.51 336.32L 599.99 332.48L 581 328.55L 569.63 326.07L 556.51 325.34L 540.99 321.61L 522 316.86L 510.63 313.68L 497.51 309.82L 481.99 305L 463 298.77L 451.63 279.44L 438.51 270.97L 422.99 265.56L 404 258.49L 392.63 251.45L 379.51 248.84L 363.99 239.92L 345 235.01L 333.63 254.05L 320.51 248.65L 304.99 242.99L 286 234.61L 274.63 229.6L 261.51 224.61L 245.99 217.78L 227 209L 215.63 201.64L 202.51 196.24L 186.99 189.79L 168 180.27L 143.51 169.92L 109 155.79L 50 127.88" fill="#FF3B30" fill-opacity="0.30196078431372547" stroke="none"/>
    <path d="M 50 119.88L 109 144.85L 143.51 159.63L 168 171.9L 186.99 179.97L 202.51 186.52L 215.63 192.15L 227 199.28L 245.99 210.6L 261.51 214.5L 274.63 219.97L 286 226.75L 304.99 231.25L 320.51 238.39L 333.63 226.26L 345 229.92L 363.99 238.61L 379.51 243L 392.63 251.01L 404 253.79L 422.99 261.02L 438.51 266.12L 451.63 271.83L 463 291.98L 481.99 299.11L 497.51 304.53L 510.63 309.05L 522 312.84L 540.99 318.78L 556.51 320.86L 569.63 323.01L 581 325.27L 599.99 330.24L 615.51 331.96L 628.63 329.08L 640 336.18L 658.99 340.36L 674.51 344.27L 687.63 343.87L 699 336.91L 717.99 346.79L 733.51 347.08L 746.63 351.15L 758 317.6L 776.99 335.47L 792.51 322.92L 805.63 337.05L 817 355.82L 835.99 327.49L 851.51 353.19L 864.63 348.63L 876 350.59L 894.99 342.69L 910.51 334.16L 923.63 345.43L 935 348.22L 953.99 331.41L 969.51 349.4L 982.63 341.24L 994 347.97L 1013 348.01L 1028.5 345.07L 1041.6 349.34L 1053 341.25L 1072 340.49L 1087.5 295.01L 1100.6 283.93L 1112 286.85L 1131 285.75L 1146.5 289.28L 1159.6 282.86L 1171 280.95L 1190 284.51L 1205.5 288.9L 1218.6 288.16L 1230 305.4" fill="none" stroke-width="4" stroke="#28CD41" stroke-opacity="1" stroke-linecap="round" stroke-linejoin="round"/>
    <path d="M 50 71.813L 109 91.19L 143.51 101.13L 168 105.22L 186.99 109.98L 202.51 111.77L 215.63 115.43L 227 107.4L 245.99 109.94L 261.51 112.2L 274.63 115.62L 286 116.33L 304.99 118.42L 320.51 124.32L 333.63 125.08L 345 125.95L 363.99 124.91L 379.51 125.96L 392.63 126.44L 404 127.27L 422.99 125.63L 438.51 126.62L 451.63 127.54L 463 127.71L 481.99 125.93L 497.51 126.93L 510.63 127.04L 522 128L 540.99 126.01L 556.51 126.96L 569.63 127.26L 581 128.08L 599.99 126L 615.51 126.83L 628.63 127.34L 640 128.29L 658.99 125.92L 674.51 126.93L 687.63 126.88L 699 127.7L 717.99 125.43L 733.51 126.17L 746.63 126.32L 758 127.51L 776.99 125.22L 792.51 126.15L 805.63 126.06L 817 127.15L 835.99 125.15L 851.51 126L 864.63 126.08L 876 127.04L 894.99 125.08L 910.51 126L 923.63 125.39L 935 124.2L 953.99 122.77L 969.51 123.94L 982.63 124.05L 994 125.08L 1013 122.91L 1028.5 123.95L 1041.6 123.77L 1053 125.48L 1072 123.38L 1087.5 124.9L 1100.6 123.68L 1112 124.74L 1131 122.56L 1146.5 123.27L 1159.6 123.5L 1171 124.47L 1190 122.32L 1205.5 122.67L 1218.6 123.11L 1230 124.12" fill="none" stroke-width="4" stroke="#007AFF" stroke-opacity="1" stroke-linecap="round" stroke-linejoin="round"/>
    <path d="M 50 126.96L 109 155.6L 143.51 169.88L 168 180.27L 186.99 189.21L 202.51 196.24L 215.63 201.08L 227 209L 245.99 217.78L 261.51 224.41L 274.63 229.6L 286 234.61L 304.99 242.79L 320.51 248.46L 333.63 254.05L 345 233.72L 363.99 239.73L 379.51 247.32L 392.63 251.37L 404 257.19L 422.99 265.56L 438.51 269.76L 451.63 277.62L 463 298.64L 481.99 305L 497.51 309.82L 510.63 313.68L 522 316.86L 540.99 321.51L 556.51 325.25L 569.63 325.99L 581 328.55L 599.99 332.48L 615.51 335.76L 628.63 337.63L 640 339.96L 658.99 334.53L 674.51 332.66L 687.63 345.07L 699 342.48L 717.99 314.83L 733.51 352.13L 746.63 354.07L 758 316.73L 776.99 350.56L 792.51 350.98L 805.63 353.86L 817 351.39L 835.99 357.18L 851.51 339.1L 864.63 336.52L 876 348.57L 894.99 339.74L 910.51 345.42L 923.63 352.19L 935 343.8L 953.99 352.46L 969.51 346.96L 982.63 351.32L 994 343.86L 1013 350.39L 1028.5 341.45L 1041.6 340.97L 1053 339.99L 1072 342.48L 1087.5 278.22L 1100.6 286.33L 1112 283.13L 1131 281.32L 1146.5 287.99L 1159.6 287.03L 1171 286.91L 1190 287.73L 1205.5 285.7L 1218.6 283.72L 1230 305.99" fill="none" stroke-width="4" stroke="#FF3B30" stroke-opacity="1" stroke-linecap="round" stroke-linejoin="round"/>
    <path d="M 50 119.88L 109 144.85L 143.51 159.63L 168 171.9L 186.99 179.97L 202.51 186.52L 215.63 192.15L 227 199.28L 245.99 210.6L 261.51 214.5L 274.63 219.97L 286 226.75L 304.99 231.25L 320.51 238.39L 333.63 226.26L 345 229.92L 363.99 238.61L 379.51 243L 392.63 251.01L 404 253.79L 422.99 261.02L 438.51 266.12L 451.63 271.83L 463 291.98L 481.99 299.11L 497.51 304.53L 510.63 309.05L 522 312.84L 540.99 318.78L 556.51 320.86L 569.63 323.01L 581 325.27L 599.99 330.24L 615.51 331.96L 628.63 329.08L 640 336.18L 658.99 340.36L 674.51 344.27L 687.63 343.87L 699 336.91L 717.99 346.79L 733.51 347.08L 746.63 351.15L 758 317.6L 776.99 335.47L 792.51 322.92L 805.63 337.05L 817 355.82L 835.99 327.49L 851.51 353.19L 864.63 348.63L 876 350.59L 894.99 342.69L 910.51 334.16L 923.63 345.43L 935 348.22L 953.99 331.41L 969.51 349.4L 982.63 341.24L 994 347.97L 1013 348.01L 1028.5 345.07L 1041.6 349.34L 1053 341.25L 1072 340.49L 1087.5 295.01L 1100.6 283.93L 1112 286.85L 1131 285.75L 1146.5 289.28L 1159.6 282.86L 1171 280.95L 1190 284.51L 1205.5 288.9L 1218.6 288.16L 1230 305.4" fill="none" stroke-width="0.5" stroke="#000000" stroke-opacity="0.30196" stroke-linecap="round" stroke-linejoin="round"/>
    <path d="M 50 71.813L 109 91.19L 143.51 101.13L 168 105.22L 186.99 109.98L 202.51 111.77L 215.63 115.43L 227 107.4L 245.99 109.94L 261.51 112.2L 274.63 115.62L 286 116.33L 304.99 118.42L 320.51 124.32L 333.63 125.08L 345 125.95L 363.99 124.91L 379.51 125.96L 392.63 126.44L 404 127.27L 422.99 125.63L 438.51 126.62L 451.63 127.54L 463 127.71L 481.99 125.93L 497.51 126.93L 510.63 127.04L 522 128L 540.99 126.01L 556.51 126.96L 569.63 127.26L 581 128.08L 599.99 126L 615.51 126.83L 628.63 127.34L 640 128.29L 658.99 125.92L 674.51 126.93L 687.63 126.88L 699 127.7L 717.99 125.43L 733.51 126.17L 746.63 126.32L 758 127.51L 776.99 125.22L 792.51 126.15L 805.63 126.06L 817 127.15L 835.99 125.15L 851.51 126L 864.63 126.08L 876 127.04L 894.99 125.08L 910.51 126L 923.63 125.39L 935 124.2L 953.99 122.77L 969.51 123.94L 982.63 124.05L 994 125.08L 1013 122.91L 1028.5 123.95L 1041.6 123.77L 1053 125.48L 1072 123.38L 1087.5 124.9L 1100.6 123.68L 1112 124.74L 1131 122.56L 1146.5 123.27L 1159.6 123.5L 1171 124.47L 1190 122.32L 1205.5 122.67L 1218.6 123.11L 1230 124.12" fill="none" stroke-width="0.5" stroke="#000000" stroke-opacity="0.30196" stroke-linecap="round" stroke-linejoin="round"/>
    <path d="M 50 126.96L 109 155.6L 143.51 169.88L 168 180.27L 186.99 189.21L 202.51 196.24L 215.63 201.08L 227 209L 245.99 217.78L 261.51 224.41L 274.63 229.6L 286 234.61L 304.99 242.79L 320.51 248.46L 333.63 254.05L 345 233.72L 363.99 239.73L 379.51 247.32L 392.63 251.37L 404 257.19L 422.99 265.56L 438.51 269.76L 451.63 277.62L 463 298.64L 481.99 305L 497.51 309.82L 510.63 313.68L 522 316.86L 540.99 321.51L 556.51 325.25L 569.63 325.99L 581 328.55L 599.99 332.48L 615.51 335.76L 628.63 337.63L 640 339.96L 658.99 334.53L 674.51 332.66L 687.63 345.07L 699 342.48L 717.99 314.83L 733.51 352.13L 746.63 354.07L 758 316.73L 776.99 350.56L 792.51 350.98L 805.63 353.86L 817 351.39L 835.99 357.18L 851.51 339.1L 864.63 336.52L 876 348.57L 894.99 339.74L 910.51 345.42L 923.63 352.19L 935 343.8L 953.99 352.46L 969.51 346.96L 982.63 351.32L 994 343.86L 1013 350.39L 1028.5 341.45L 1041.6 340.97L 1053 339.99L 1072 342.48L 1087.5 278.22L 1100.6 286.33L 1112 283.13L 1131 281.32L 1146.5 287.99L 1159.6 287.03L 1171 286.91L 1190 287.73L 1205.5 285.7L 1218.6 283.72L 1230 305.99" fill="none" stroke-width="0.5" stroke="#000000" stroke-opacity="0.30196" stroke-linecap="round" stroke-linejoin="round"/>
  </g>
  <path d="M 74 33 L 74 105 L 406 105 L 406 33 z" fill="#FFFFFF" fill-opacity="0.7019607843137254" stroke-width="0.5" stroke="#000000" stroke-opacity="1" stroke-linecap="round" stroke-linejoin="round"/>
  <path d="M 88 52 L 108 52" fill="none" stroke-width="4" stroke="#FF3B30" stroke-opacity="1" stroke-linecap="round" stroke-linejoin="round"/>
  <path d="M 88 52 L 108 52" fill="none" stroke-width="0.5" stroke="#000000" stroke-opacity="0.30196" stroke-linecap="round" stroke-linejoin="round"/>
  <text x="119" y="56.17" font-family="Menlo" font-size="12" font-weight="normal" font-style="normal" fill="#000000" fill-opacity="1">Array&lt;Int&gt; init from unsafe buffer</text>
  <path d="M 88 69 L 108 69" fill="none" stroke-width="4" stroke="#007AFF" stroke-opacity="1" stroke-linecap="round" stroke-linejoin="round"/>
  <path d="M 88 69 L 108 69" fill="none" stroke-width="0.5" stroke="#000000" stroke-opacity="0.30196" stroke-linecap="round" stroke-linejoin="round"/>
  <text x="119" y="73.17" font-family="Menlo" font-size="12" font-weight="normal" font-style="normal" fill="#000000" fill-opacity="1">TreeArray&lt;Int&gt; init from unsafe buffer</text>
  <path d="M 88 86 L 108 86" fill="none" stroke-width="4" stroke="#28CD41" stroke-opacity="1" stroke-linecap="round" stroke-linejoin="round"/>
  <path d="M 88 86 L 108 86" fill="none" stroke-width="0.5" stroke="#000000" stroke-opacity="0.30196" stroke-linecap="round" stroke-linejoin="round"/>
  <text x="119" y="90.17" font-family="Menlo" font-size="12" font-weight="normal" font-style="normal" fill="#000000" fill-opacity="1">Deque&lt;Int&gt; init from unsafe buffer</text>
  <path d="M 50 9 L 50 441 L 1230 441 L 1230 9 z" fill="none" stroke-width="0.5" stroke="#000000" stroke-opacity="1" stroke-linecap="round" stroke-linejoin="round"/>
</svg>
