<!DOCTYPE svg PUBLIC "-//W3C//DTD SVG 1.1//EN" "http://www.w3.org/Graphics/SVG/1.1/DTD/svg11.dtd">
<svg width="1280.0px" height="480.0px" viewBox="0.0 0.0 1280.0 480.0" xmlns="http://www.w3.org/2000/svg" xmlns:xlink="http://www.w3.org/1999/xlink" version="1.1">
  <path d="M 0 0 L 0 480 L 1280 480 L 1280 0 z" fill="#FFFFFF" fill-opacity="1.0" stroke="none"/>
  <text x="50" y="468.7" font-family="Helvetica" font-size="10" font-weight="normal" font-style="normal" fill="#000000" fill-opacity="1">Average per-element processing time over input size (bands: min, mean, mean + 2stddev)</text>
  <a xlink:href="https://github.com/apple/swift-collections-benchmark"><text x="1107" y="468.7" font-family="Helvetica" font-size="10" font-weight="normal" font-style="normal" fill="#000000" fill-opacity="1">swift-collections-benchmark</text></a>
  <path d="M 50 9 L 50 441" fill="none" stroke-width="0.75" stroke="#000000" stroke-opacity="0.49804" stroke-linecap="butt" stroke-linejoin="round"/>
  <text x="47" y="453.7" font-family="Helvetica" font-size="10" font-weight="normal" font-style="normal" fill="#000000" fill-opacity="1">1</text>
  <path d="M 109 9 L 109 441" fill="none" stroke-width="0.75" stroke="#000000" stroke-opacity="0.49804" stroke-linecap="butt" stroke-linejoin="round"/>
  <text x="106" y="453.7" font-family="Helvetica" font-size="10" font-weight="normal" font-style="normal" fill="#000000" fill-opacity="1">2</text>
  <path d="M 168 9 L 168 441" fill="none" stroke-width="0.75" stroke="#000000" stroke-opacity="0.49804" stroke-linecap="butt" stroke-linejoin="round"/>
  <text x="165" y="453.7" font-family="Helvetica" font-size="10" font-weight="normal" font-style="normal" fill="#000000" fill-opacity="1">4</text>
  <path d="M 227 9 L 227 441" fill="none" stroke-width="0.75" stroke="#000000" stroke-opacity="0.49804" stroke-linecap="butt" stroke-linejoin="round"/>
  <text x="224" y="453.7" font-family="Helvetica" font-size="10" font-weight="normal" font-style="normal" fill="#000000" fill-opacity="1">8</text>
  <path d="M 286 9 L 286 441" fill="none" stroke-width="0.75" stroke="#000000" stroke-opacity="0.49804" stroke-linecap="butt" stroke-linejoin="round"/>
  <text x="280" y="453.7" font-family="Helvetica" font-size="10" font-weight="normal" font-style="normal" fill="#000000" fill-opacity="1">16</text>
  <path d="M 345 9 L 345 441" fill="none" stroke-width="0.75" stroke="#000000" stroke-opacity="0.49804" stroke-linecap="butt" stroke-linejoin="round"/>
  <text x="339" y="453.7" font-family="Helvetica" font-size="10" font-weight="normal" font-style="normal" fill="#000000" fill-opacity="1">32</text>
  <path d="M 404 9 L 404 441" fill="none" stroke-width="0.75" stroke="#000000" stroke-opacity="0.49804" stroke-linecap="butt" stroke-linejoin="round"/>
  <text x="398" y="453.7" font-family="Helvetica" font-size="10" font-weight="normal" font-style="normal" fill="#000000" fill-opacity="1">64</text>
  <path d="M 463 9 L 463 441" fill="none" stroke-width="0.75" stroke="#000000" stroke-opacity="0.49804" stroke-linecap="butt" stroke-linejoin="round"/>
  <text x="454.5" y="453.7" font-family="Helvetica" font-size="10" font-weight="normal" font-style="normal" fill="#000000" fill-opacity="1">128</text>
  <path d="M 522 9 L 522 441" fill="none" stroke-width="0.75" stroke="#000000" stroke-opacity="0.49804" stroke-linecap="butt" stroke-linejoin="round"/>
  <text x="513.5" y="453.7" font-family="Helvetica" font-size="10" font-weight="normal" font-style="normal" fill="#000000" fill-opacity="1">256</text>
  <path d="M 581 9 L 581 441" fill="none" stroke-width="0.75" stroke="#000000" stroke-opacity="0.49804" stroke-linecap="butt" stroke-linejoin="round"/>
  <text x="572.5" y="453.7" font-family="Helvetica" font-size="10" font-weight="normal" font-style="normal" fill="#000000" fill-opacity="1">512</text>
  <path d="M 640 9 L 640 441" fill="none" stroke-width="0.75" stroke="#000000" stroke-opacity="0.49804" stroke-linecap="butt" stroke-linejoin="round"/>
  <text x="634.5" y="453.7" font-family="Helvetica" font-size="10" font-weight="normal" font-style="normal" fill="#000000" fill-opacity="1">1k</text>
  <path d="M 699 9 L 699 441" fill="none" stroke-width="0.75" stroke="#000000" stroke-opacity="0.49804" stroke-linecap="butt" stroke-linejoin="round"/>
  <text x="693.5" y="453.7" font-family="Helvetica" font-size="10" font-weight="normal" font-style="normal" fill="#000000" fill-opacity="1">2k</text>
  <path d="M 758 9 L 758 441" fill="none" stroke-width="0.75" stroke="#000000" stroke-opacity="0.49804" stroke-linecap="butt" stroke-linejoin="round"/>
  <text x="752.5" y="453.7" font-family="Helvetica" font-size="10" font-weight="normal" font-style="normal" fill="#000000" fill-opacity="1">4k</text>
  <path d="M 817 9 L 817 441" fill="none" stroke-width="0.75" stroke="#000000" stroke-opacity="0.49804" stroke-linecap="butt" stroke-linejoin="round"/>
  <text x="811.5" y="453.7" font-family="Helvetica" font-size="10" font-weight="normal" font-style="normal" fill="#000000" fill-opacity="1">8k</text>
  <path d="M 876 9 L 876 441" fill="none" stroke-width="0.75" stroke="#000000" stroke-opacity="0.49804" stroke-linecap="butt" stroke-linejoin="round"/>
  <text x="867.5" y="453.7" font-family="Helvetica" font-size="10" font-weight="normal" font-style="normal" fill="#000000" fill-opacity="1">16k</text>
  <path d="M 935 9 L 935 441" fill="none" stroke-width="0.75" stroke="#000000" stroke-opacity="0.49804" stroke-linecap="butt" stroke-linejoin="round"/>
  <text x="926.5" y="453.7" font-family="Helvetica" font-size="10" font-weight="normal" font-style="normal" fill="#000000" fill-opacity="1">32k</text>
  <path d="M 994 9 L 994 441" fill="none" stroke-width="0.75" stroke="#000000" stroke-opacity="0.49804" stroke-linecap="butt" stroke-linejoin="round"/>
  <text x="985.5" y="453.7" font-family="Helvetica" font-size="10" font-weight="normal" font-style="normal" fill="#000000" fill-opacity="1">64k</text>
  <path d="M 1053 9 L 1053 441" fill="none" stroke-width="0.75" stroke="#000000" stroke-opacity="0.49804" stroke-linecap="butt" stroke-linejoin="round"/>
  <text x="1042" y="453.7" font-family="Helvetica" font-size="10" font-weight="normal" font-style="normal" fill="#000000" fill-opacity="1">128k</text>
  <path d="M 1112 9 L 1112 441" fill="none" stroke-width="0.75" stroke="#000000" stroke-opacity="0.49804" stroke-linecap="butt" stroke-linejoin="round"/>
  <text x="1101" y="453.7" font-family="Helvetica" font-size="10" font-weight="normal" font-style="normal" fill="#000000" fill-opacity="1">256k</text>
  <path d="M 1171 9 L 1171 441" fill="none" stroke-width="0.75" stroke="#000000" stroke-opacity="0.49804" stroke-linecap="butt" stroke-linejoin="round"/>
  <text x="1160" y="453.7" font-family="Helvetica" font-size="10" font-weight="normal" font-style="normal" fill="#000000" fill-opacity="1">512k</text>
  <path d="M 1230 9 L 1230 441" fill="none" stroke-width="0.75" stroke="#000000" stroke-opacity="0.49804" stroke-linecap="butt" stroke-linejoin="round"/>
  <text x="1223" y="453.7" font-family="Helvetica" font-size="10" font-weight="normal" font-style="normal" fill="#000000" fill-opacity="1">1M</text>
  <path d="M 50 441 L 1230 441" fill="none" stroke-width="0.75" stroke="#000000" stroke-opacity="0.49804" stroke-linecap="butt" stroke-linejoin="round"/>
  <text x="21" y="442.7" font-family="Helvetica" font-size="10" font-weight="normal" font-style="normal" fill="#000000" fill-opacity="1">10 ps</text>
  <text x="1236" y="442.7" font-family="Helvetica" font-size="10" font-weight="normal" font-style="normal" fill="#000000" fill-opacity="1">10 ps</text>
  <path d="M 50 354.6 L 1230 354.6" fill="none" stroke-width="0.75" stroke="#000000" stroke-opacity="0.49804" stroke-linecap="butt" stroke-linejoin="round"/>
  <text x="16" y="356.3" font-family="Helvetica" font-size="10" font-weight="normal" font-style="normal" fill="#000000" fill-opacity="1">100 ps</text>
  <text x="1236" y="356.3" font-family="Helvetica" font-size="10" font-weight="normal" font-style="normal" fill="#000000" fill-opacity="1">100 ps</text>
  <path d="M 50 268.2 L 1230 268.2" fill="none" stroke-width="0.75" stroke="#000000" stroke-opacity="0.49804" stroke-linecap="butt" stroke-linejoin="round"/>
  <text x="27" y="269.9" font-family="Helvetica" font-size="10" font-weight="normal" font-style="normal" fill="#000000" fill-opacity="1">1 ns</text>
  <text x="1236" y="269.9" font-family="Helvetica" font-size="10" font-weight="normal" font-style="normal" fill="#000000" fill-opacity="1">1 ns</text>
  <path d="M 50 181.8 L 1230 181.8" fill="none" stroke-width="0.75" stroke="#000000" stroke-opacity="0.49804" stroke-linecap="butt" stroke-linejoin="round"/>
  <text x="21" y="183.5" font-family="Helvetica" font-size="10" font-weight="normal" font-style="normal" fill="#000000" fill-opacity="1">10 ns</text>
  <text x="1236" y="183.5" font-family="Helvetica" font-size="10" font-weight="normal" font-style="normal" fill="#000000" fill-opacity="1">10 ns</text>
  <path d="M 50 95.4 L 1230 95.4" fill="none" stroke-width="0.75" stroke="#000000" stroke-opacity="0.49804" stroke-linecap="butt" stroke-linejoin="round"/>
  <text x="16" y="97.1" font-family="Helvetica" font-size="10" font-weight="normal" font-style="normal" fill="#000000" fill-opacity="1">100 ns</text>
  <text x="1236" y="97.1" font-family="Helvetica" font-size="10" font-weight="normal" font-style="normal" fill="#000000" fill-opacity="1">100 ns</text>
  <path d="M 50 9 L 1230 9" fill="none" stroke-width="0.75" stroke="#000000" stroke-opacity="0.49804" stroke-linecap="butt" stroke-linejoin="round"/>
  <text x="26" y="10.7" font-family="Helvetica" font-size="10" font-weight="normal" font-style="normal" fill="#000000" fill-opacity="1">1 µs</text>
  <text x="1236" y="10.7" font-family="Helvetica" font-size="10" font-weight="normal" font-style="normal" fill="#000000" fill-opacity="1">1 µs</text>
  <path d="M 50 414.99 L 1230 414.99" fill="none" stroke-width="0.5" stroke="#000000" stroke-opacity="0.25882" stroke-linecap="butt" stroke-linejoin="round" stroke-dasharray="6 3" stroke-dashoffset="0"/>
  <path d="M 50 388.98 L 1230 388.98" fill="none" stroke-width="0.5" stroke="#000000" stroke-opacity="0.25882" stroke-linecap="butt" stroke-linejoin="round" stroke-dasharray="6 3" stroke-dashoffset="0"/>
  <path d="M 50 362.97 L 1230 362.97" fill="none" stroke-width="0.5" stroke="#000000" stroke-opacity="0.25882" stroke-linecap="butt" stroke-linejoin="round" stroke-dasharray="6 3" stroke-dashoffset="0"/>
  <path d="M 50 336.96 L 1230 336.96" fill="none" stroke-width="0.5" stroke="#000000" stroke-opacity="0.25882" stroke-linecap="butt" stroke-linejoin="round" stroke-dasharray="6 3" stroke-dashoffset="0"/>
  <path d="M 50 310.96 L 1230 310.96" fill="none" stroke-width="0.5" stroke="#000000" stroke-opacity="0.25882" stroke-linecap="butt" stroke-linejoin="round" stroke-dasharray="6 3" stroke-dashoffset="0"/>
  <path d="M 50 284.95 L 1230 284.95" fill="none" stroke-width="0.5" stroke="#000000" stroke-opacity="0.25882" stroke-linecap="butt" stroke-linejoin="round" stroke-dasharray="6 3" stroke-dashoffset="0"/>
  <path d="M 50 258.94 L 1230 258.94" fill="none" stroke-width="0.5" stroke="#000000" stroke-opacity="0.25882" stroke-linecap="butt" stroke-linejoin="round" stroke-dasharray="6 3" stroke-dashoffset="0"/>
  <path d="M 50 232.93 L 1230 232.93" fill="none" stroke-width="0.5" stroke="#000000" stroke-opacity="0.25882" stroke-linecap="butt" stroke-linejoin="round" stroke-dasharray="6 3" stroke-dashoffset="0"/>
  <path d="M 50 206.92 L 1230 206.92" fill="none" stroke-width="0.5" stroke="#000000" stroke-opacity="0.25882" stroke-linecap="butt" stroke-linejoin="round" stroke-dasharray="6 3" stroke-dashoffset="0"/>
  <path d="M 50 180.91 L 1230 180.91" fill="none" stroke-width="0.5" stroke="#000000" stroke-opacity="0.25882" stroke-linecap="butt" stroke-linejoin="round" stroke-dasharray="6 3" stroke-dashoffset="0"/>
  <path d="M 50 154.9 L 1230 154.9" fill="none" stroke-width="0.5" stroke="#000000" stroke-opacity="0.25882" stroke-linecap="butt" stroke-linejoin="round" stroke-dasharray="6 3" stroke-dashoffset="0"/>
  <path d="M 50 128.89 L 1230 128.89" fill="none" stroke-width="0.5" stroke="#000000" stroke-opacity="0.25882" stroke-linecap="butt" stroke-linejoin="round" stroke-dasharray="6 3" stroke-dashoffset="0"/>
  <path d="M 50 102.88 L 1230 102.88" fill="none" stroke-width="0.5" stroke="#000000" stroke-opacity="0.25882" stroke-linecap="butt" stroke-linejoin="round" stroke-dasharray="6 3" stroke-dashoffset="0"/>
  <path d="M 50 76.874 L 1230 76.874" fill="none" stroke-width="0.5" stroke="#000000" stroke-opacity="0.25882" stroke-linecap="butt" stroke-linejoin="round" stroke-dasharray="6 3" stroke-dashoffset="0"/>
  <path d="M 50 50.865 L 1230 50.865" fill="none" stroke-width="0.5" stroke="#000000" stroke-opacity="0.25882" stroke-linecap="butt" stroke-linejoin="round" stroke-dasharray="6 3" stroke-dashoffset="0"/>
  <path d="M 50 24.856 L 1230 24.856" fill="none" stroke-width="0.5" stroke="#000000" stroke-opacity="0.25882" stroke-linecap="butt" stroke-linejoin="round" stroke-dasharray="6 3" stroke-dashoffset="0"/>
  <path d="M 74 33 L 74 88 L 406 88 L 406 33 z" fill="#FFFFFF" fill-opacity="1.0" stroke="none"/>
  <clipPath id="clip-0">
    <path d="M 50 9 L 50 441 L 1230 441 L 1230 9 z"/>
  </clipPath>
  <g clip-path="url(#clip-0)">
    <path d="M 50 65.803L 109 87.605L 143.51 95.588L 168 102.66L 186.99 105.11L 202.51 108.74L 215.63 113.06L 227 103.7L 245.99 105.26L 261.51 107.92L 274.63 112.75L 286 114.51L 304.99 117.63L 320.51 121.36L 333.63 122L 345 122.66L 363.99 121.99L 379.51 122.75L 392.63 123.44L 404 124.27L 422.99 122.63L 438.51 123.62L 451.63 124.61L 463 126.75L 481.99 125.02L 497.51 125.89L 510.63 126.22L 522 126.94L 540.99 124.94L 556.51 125.95L 569.63 126.23L 581 126.81L 599.99 124.83L 615.51 125.97L 628.63 125.43L 640 126.94L 658.99 124.14L 674.51 125.9L 687.63 126.04L 699 126.56L 717.99 124.11L 733.51 125.06L 746.63 125.1L 758 125.95L 776.99 124.21L 792.51 124.94L 805.63 125.14L 817 125.86L 835.99 123.67L 851.51 125.06L 864.63 124.92L 876 125.74L 894.99 122.59L 910.51 125.16L 923.63 124.89L 935 122.37L 953.99 122L 969.51 123L 982.63 122.83L 994 123.82L 1013 121.57L 1028.5 123.09L 1041.6 122.75L 1053 124.22L 1072 123L 1087.5 122.04L 1100.6 122.86L 1112 123.79L 1131 121.59L 1146.5 122.3L 1159.6 121.06L 1171 121.14L 1190 120.19L 1205.5 121.58L 1218.6 119.21L 1230 122.16L 1230 123.45L 1218.6 122.43L 1205.5 122.31L 1190 121.54L 1171 123.59L 1159.6 122.52L 1146.5 122.49L 1131 121.81L 1112 124.09L 1100.6 123.21L 1087.5 125.08L 1072 123.02L 1053 124.39L 1041.6 124.15L 1028.5 123.16L 1013 122.3L 994 124.23L 982.63 123.35L 969.51 123.06L 953.99 122.08L 935 123L 923.63 125.5L 910.51 125.21L 894.99 124.1L 876 126.21L 864.63 125.32L 851.51 125.1L 835.99 124.1L 817 126.34L 805.63 125.51L 792.51 125.18L 776.99 124.42L 758 126.49L 746.63 125.73L 733.51 125.24L 717.99 125.06L 699 126.9L 687.63 126.17L 674.51 126.03L 658.99 124.59L 640 126.98L 628.63 126.29L 615.51 126.01L 599.99 125.04L 581 127.31L 569.63 126.61L 556.51 126.17L 540.99 125.26L 522 127.13L 510.63 126.37L 497.51 126.16L 481.99 125.05L 463 126.8L 451.63 126.07L 438.51 125.79L 422.99 124.76L 404 126.37L 392.63 125.62L 379.51 125.25L 363.99 124.08L 345 125.43L 333.63 124.3L 320.51 123.46L 304.99 117.75L 286 115.42L 274.63 113.92L 261.51 111.46L 245.99 109.46L 227 105.86L 215.63 113.61L 202.51 113.04L 186.99 108.61L 168 104.71L 143.51 100.05L 109 89.349L 50 70.582" fill="#007AFF" fill-opacity="0.30196078431372547" stroke="none"/>
    <path d="M 50 124.49L 109 155.06L 143.51 169.79L 168 180.27L 186.99 187.63L 202.51 196.23L 215.63 199.53L 227 209L 245.99 217.78L 261.51 223.85L 274.63 229.6L 286 234.61L 304.99 242.22L 320.51 247.91L 333.63 254.05L 345 230.3L 363.99 239.22L 379.51 243.31L 392.63 251.12L 404 253.74L 422.99 265.56L 438.51 266.54L 451.63 272.91L 463 298.26L 481.99 305L 497.51 309.82L 510.63 313.68L 522 316.86L 540.99 321.22L 556.51 324.99L 569.63 325.76L 581 328.55L 599.99 332.48L 615.51 334.23L 628.63 337.32L 640 339.1L 658.99 319.34L 674.51 331.48L 687.63 344.03L 699 327.89L 717.99 291.2L 733.51 347.15L 746.63 350.2L 758 292.69L 776.99 348.41L 792.51 347.78L 805.63 351.21L 817 340.93L 835.99 355.78L 851.51 330.43L 864.63 308.58L 876 335.7L 894.99 330.52L 910.51 341.39L 923.63 352.18L 935 326.63L 953.99 351.96L 969.51 340.51L 982.63 350.85L 994 335.52L 1013 346.49L 1028.5 324.01L 1041.6 331.53L 1053 326.13L 1072 329.71L 1087.5 270.04L 1100.6 280.97L 1112 279.51L 1131 276.02L 1146.5 285.16L 1159.6 281.58L 1171 283.12L 1190 284.61L 1205.5 283.55L 1218.6 279.72L 1230 268.69L 1230 340.55L 1218.6 285.24L 1205.5 286.5L 1190 288.9L 1171 288.34L 1159.6 289.17L 1146.5 289.04L 1131 283.39L 1112 284.49L 1100.6 288.42L 1087.5 281.61L 1072 348.28L 1053 346.44L 1041.6 344.97L 1028.5 350.26L 1013 351.87L 994 347.32L 982.63 351.48L 969.51 349.54L 953.99 352.63L 935 352.41L 923.63 352.19L 910.51 346.96L 894.99 343.63L 876 354.43L 864.63 355.12L 851.51 342.72L 835.99 357.7L 817 355.91L 805.63 354.85L 792.51 352.18L 776.99 351.35L 758 331.05L 746.63 355.53L 733.51 354.06L 717.99 328.77L 699 349.37L 687.63 345.44L 674.51 333.09L 658.99 341.81L 640 340.28L 628.63 337.74L 615.51 336.32L 599.99 332.48L 581 328.55L 569.63 326.07L 556.51 325.34L 540.99 321.61L 522 316.86L 510.63 313.68L 497.51 309.82L 481.99 305L 463 298.77L 451.63 279.44L 438.51 270.97L 422.99 265.56L 404 258.49L 392.63 251.45L 379.51 248.84L 363.99 239.92L 345 235.01L 333.63 254.05L 320.51 248.65L 304.99 242.99L 286 234.61L 274.63 229.6L 261.51 224.61L 245.99 217.78L 227 209L 215.63 201.64L 202.51 196.24L 186.99 189.79L 168 180.27L 143.51 169.92L 109 155.79L 50 127.88" fill="#FF3B30" fill-opacity="0.30196078431372547" stroke="none"/>
    <path d="M 50 69.274L 109 88.885L 143.51 98.836L 168 104.17L 186.99 107.66L 202.51 111.87L 215.63 113.47L 227 105.28L 245.99 108.32L 261.51 110.51L 274.63 113.61L 286 115.18L 304.99 117.72L 320.51 122.9L 333.63 123.68L 345 124.68L 363.99 123.52L 379.51 124.58L 392.63 125.04L 404 125.81L 422.99 124.19L 438.51 125.21L 451.63 125.68L 463 126.79L 481.99 125.05L 497.51 126.09L 510.63 126.33L 522 127.08L 540.99 125.18L 556.51 126.11L 569.63 126.51L 581 127.18L 599.99 124.99L 615.51 126L 628.63 126.06L 640 126.97L 658.99 124.47L 674.51 126L 687.63 126.14L 699 126.81L 717.99 124.81L 733.51 125.19L 746.63 125.56L 758 126.35L 776.99 124.37L 792.51 125.12L 805.63 125.41L 817 126.21L 835.99 123.98L 851.51 125.08L 864.63 125.21L 876 126.09L 894.99 123.7L 910.51 125.2L 923.63 125.34L 935 122.83L 953.99 122.06L 969.51 123.05L 982.63 123.21L 994 124.12L 1013 122.11L 1028.5 123.14L 1041.6 123.78L 1053 124.35L 1072 123.01L 1087.5 124.26L 1100.6 123.12L 1112 124.01L 1131 121.75L 1146.5 122.44L 1159.6 122.13L 1171 122.93L 1190 121.18L 1205.5 122.12L 1218.6 121.56L 1230 123.11" fill="none" stroke-width="4" stroke="#007AFF" stroke-opacity="1" stroke-linecap="round" stroke-linejoin="round"/>
    <path d="M 50 126.96L 109 155.6L 143.51 169.88L 168 180.27L 186.99 189.21L 202.51 196.24L 215.63 201.08L 227 209L 245.99 217.78L 261.51 224.41L 274.63 229.6L 286 234.61L 304.99 242.79L 320.51 248.46L 333.63 254.05L 345 233.72L 363.99 239.73L 379.51 247.32L 392.63 251.37L 404 257.19L 422.99 265.56L 438.51 269.76L 451.63 277.62L 463 298.64L 481.99 305L 497.51 309.82L 510.63 313.68L 522 316.86L 540.99 321.51L 556.51 325.25L 569.63 325.99L 581 328.55L 599.99 332.48L 615.51 335.76L 628.63 337.63L 640 339.96L 658.99 334.53L 674.51 332.66L 687.63 345.07L 699 342.48L 717.99 314.83L 733.51 352.13L 746.63 354.07L 758 316.73L 776.99 350.56L 792.51 350.98L 805.63 353.86L 817 351.39L 835.99 357.18L 851.51 339.1L 864.63 336.52L 876 348.57L 894.99 339.74L 910.51 345.42L 923.63 352.19L 935 343.8L 953.99 352.46L 969.51 346.96L 982.63 351.32L 994 343.86L 1013 350.39L 1028.5 341.45L 1041.6 340.97L 1053 339.99L 1072 342.48L 1087.5 278.22L 1100.6 286.33L 1112 283.13L 1131 281.32L 1146.5 287.99L 1159.6 287.03L 1171 286.91L 1190 287.73L 1205.5 285.7L 1218.6 283.72L 1230 305.99" fill="none" stroke-width="4" stroke="#FF3B30" stroke-opacity="1" stroke-linecap="round" stroke-linejoin="round"/>
    <path d="M 50 69.274L 109 88.885L 143.51 98.836L 168 104.17L 186.99 107.66L 202.51 111.87L 215.63 113.47L 227 105.28L 245.99 108.32L 261.51 110.51L 274.63 113.61L 286 115.18L 304.99 117.72L 320.51 122.9L 333.63 123.68L 345 124.68L 363.99 123.52L 379.51 124.58L 392.63 125.04L 404 125.81L 422.99 124.19L 438.51 125.21L 451.63 125.68L 463 126.79L 481.99 125.05L 497.51 126.09L 510.63 126.33L 522 127.08L 540.99 125.18L 556.51 126.11L 569.63 126.51L 581 127.18L 599.99 124.99L 615.51 126L 628.63 126.06L 640 126.97L 658.99 124.47L 674.51 126L 687.63 126.14L 699 126.81L 717.99 124.81L 733.51 125.19L 746.63 125.56L 758 126.35L 776.99 124.37L 792.51 125.12L 805.63 125.41L 817 126.21L 835.99 123.98L 851.51 125.08L 864.63 125.21L 876 126.09L 894.99 123.7L 910.51 125.2L 923.63 125.34L 935 122.83L 953.99 122.06L 969.51 123.05L 982.63 123.21L 994 124.12L 1013 122.11L 1028.5 123.14L 1041.6 123.78L 1053 124.35L 1072 123.01L 1087.5 124.26L 1100.6 123.12L 1112 124.01L 1131 121.75L 1146.5 122.44L 1159.6 122.13L 1171 122.93L 1190 121.18L 1205.5 122.12L 1218.6 121.56L 1230 123.11" fill="none" stroke-width="0.5" stroke="#000000" stroke-opacity="0.30196" stroke-linecap="round" stroke-linejoin="round"/>
    <path d="M 50 126.96L 109 155.6L 143.51 169.88L 168 180.27L 186.99 189.21L 202.51 196.24L 215.63 201.08L 227 209L 245.99 217.78L 261.51 224.41L 274.63 229.6L 286 234.61L 304.99 242.79L 320.51 248.46L 333.63 254.05L 345 233.72L 363.99 239.73L 379.51 247.32L 392.63 251.37L 404 257.19L 422.99 265.56L 438.51 269.76L 451.63 277.62L 463 298.64L 481.99 305L 497.51 309.82L 510.63 313.68L 522 316.86L 540.99 321.51L 556.51 325.25L 569.63 325.99L 581 328.55L 599.99 332.48L 615.51 335.76L 628.63 337.63L 640 339.96L 658.99 334.53L 674.51 332.66L 687.63 345.07L 699 342.48L 717.99 314.83L 733.51 352.13L 746.63 354.07L 758 316.73L 776.99 350.56L 792.51 350.98L 805.63 353.86L 817 351.39L 835.99 357.18L 851.51 339.1L 864.63 336.52L 876 348.57L 894.99 339.74L 910.51 345.42L 923.63 352.19L 935 343.8L 953.99 352.46L 969.51 346.96L 982.63 351.32L 994 343.86L 1013 350.39L 1028.5 341.45L 1041.6 340.97L 1053 339.99L 1072 342.48L 1087.5 278.22L 1100.6 286.33L 1112 283.13L 1131 281.32L 1146.5 287.99L 1159.6 287.03L 1171 286.91L 1190 287.73L 1205.5 285.7L 1218.6 283.72L 1230 305.99" fill="none" stroke-width="0.5" stroke="#000000" stroke-opacity="0.30196" stroke-linecap="round" stroke-linejoin="round"/>
  </g>
  <path d="M 74 33 L 74 88 L 406 88 L 406 33 z" fill="#FFFFFF" fill-opacity="0.7019607843137254" stroke-width="0.5" stroke="#000000" stroke-opacity="1" stroke-linecap="round" stroke-linejoin="round"/>
  <path d="M 88 52 L 108 52" fill="none" stroke-width="4" stroke="#FF3B30" stroke-opacity="1" stroke-linecap="round" stroke-linejoin="round"/>
  <path d="M 88 52 L 108 52" fill="none" stroke-width="0.5" stroke="#000000" stroke-opacity="0.30196" stroke-linecap="round" stroke-linejoin="round"/>
  <text x="119" y="56.17" font-family="Menlo" font-size="12" font-weight="normal" font-style="normal" fill="#000000" fill-opacity="1">Array&lt;Int&gt; init from unsafe buffer</text>
  <path d="M 88 69 L 108 69" fill="none" stroke-width="4" stroke="#007AFF" stroke-opacity="1" stroke-linecap="round" stroke-linejoin="round"/>
  <path d="M 88 69 L 108 69" fill="none" stroke-width="0.5" stroke="#000000" stroke-opacity="0.30196" stroke-linecap="round" stroke-linejoin="round"/>
  <text x="119" y="73.17" font-family="Menlo" font-size="12" font-weight="normal" font-style="normal" fill="#000000" fill-opacity="1">TreeArray&lt;Int&gt; init from unsafe buffer</text>
  <path d="M 50 9 L 50 441 L 1230 441 L 1230 9 z" fill="none" stroke-width="0.5" stroke="#000000" stroke-opacity="1" stroke-linecap="round" stroke-linejoin="round"/>
</svg>
