<!DOCTYPE svg PUBLIC "-//W3C//DTD SVG 1.1//EN" "http://www.w3.org/Graphics/SVG/1.1/DTD/svg11.dtd">
<svg width="1280.0px" height="480.0px" viewBox="0.0 0.0 1280.0 480.0" xmlns="http://www.w3.org/2000/svg" xmlns:xlink="http://www.w3.org/1999/xlink" version="1.1">
  <path d="M 0 0 L 0 480 L 1280 480 L 1280 0 z" fill="#FFFFFF" fill-opacity="1.0" stroke="none"/>
  <text x="50" y="468.7" font-family="Helvetica" font-size="10" font-weight="normal" font-style="normal" fill="#000000" fill-opacity="1">Average per-element processing time over input size (bands: min, mean, mean + 2stddev)</text>
  <a xlink:href="https://github.com/apple/swift-collections-benchmark"><text x="1107" y="468.7" font-family="Helvetica" font-size="10" font-weight="normal" font-style="normal" fill="#000000" fill-opacity="1">swift-collections-benchmark</text></a>
  <path d="M 50 9 L 50 441" fill="none" stroke-width="0.75" stroke="#000000" stroke-opacity="0.49804" stroke-linecap="butt" stroke-linejoin="round"/>
  <text x="47" y="453.7" font-family="Helvetica" font-size="10" font-weight="normal" font-style="normal" fill="#000000" fill-opacity="1">1</text>
  <path d="M 109 9 L 109 441" fill="none" stroke-width="0.75" stroke="#000000" stroke-opacity="0.49804" stroke-linecap="butt" stroke-linejoin="round"/>
  <text x="106" y="453.7" font-family="Helvetica" font-size="10" font-weight="normal" font-style="normal" fill="#000000" fill-opacity="1">2</text>
  <path d="M 168 9 L 168 441" fill="none" stroke-width="0.75" stroke="#000000" stroke-opacity="0.49804" stroke-linecap="butt" stroke-linejoin="round"/>
  <text x="165" y="453.7" font-family="Helvetica" font-size="10" font-weight="normal" font-style="normal" fill="#000000" fill-opacity="1">4</text>
  <path d="M 227 9 L 227 441" fill="none" stroke-width="0.75" stroke="#000000" stroke-opacity="0.49804" stroke-linecap="butt" stroke-linejoin="round"/>
  <text x="224" y="453.7" font-family="Helvetica" font-size="10" font-weight="normal" font-style="normal" fill="#000000" fill-opacity="1">8</text>
  <path d="M 286 9 L 286 441" fill="none" stroke-width="0.75" stroke="#000000" stroke-opacity="0.49804" stroke-linecap="butt" stroke-linejoin="round"/>
  <text x="280" y="453.7" font-family="Helvetica" font-size="10" font-weight="normal" font-style="normal" fill="#000000" fill-opacity="1">16</text>
  <path d="M 345 9 L 345 441" fill="none" stroke-width="0.75" stroke="#000000" stroke-opacity="0.49804" stroke-linecap="butt" stroke-linejoin="round"/>
  <text x="339" y="453.7" font-family="Helvetica" font-size="10" font-weight="normal" font-style="normal" fill="#000000" fill-opacity="1">32</text>
  <path d="M 404 9 L 404 441" fill="none" stroke-width="0.75" stroke="#000000" stroke-opacity="0.49804" stroke-linecap="butt" stroke-linejoin="round"/>
  <text x="398" y="453.7" font-family="Helvetica" font-size="10" font-weight="normal" font-style="normal" fill="#000000" fill-opacity="1">64</text>
  <path d="M 463 9 L 463 441" fill="none" stroke-width="0.75" stroke="#000000" stroke-opacity="0.49804" stroke-linecap="butt" stroke-linejoin="round"/>
  <text x="454.5" y="453.7" font-family="Helvetica" font-size="10" font-weight="normal" font-style="normal" fill="#000000" fill-opacity="1">128</text>
  <path d="M 522 9 L 522 441" fill="none" stroke-width="0.75" stroke="#000000" stroke-opacity="0.49804" stroke-linecap="butt" stroke-linejoin="round"/>
  <text x="513.5" y="453.7" font-family="Helvetica" font-size="10" font-weight="normal" font-style="normal" fill="#000000" fill-opacity="1">256</text>
  <path d="M 581 9 L 581 441" fill="none" stroke-width="0.75" stroke="#000000" stroke-opacity="0.49804" stroke-linecap="butt" stroke-linejoin="round"/>
  <text x="572.5" y="453.7" font-family="Helvetica" font-size="10" font-weight="normal" font-style="normal" fill="#000000" fill-opacity="1">512</text>
  <path d="M 640 9 L 640 441" fill="none" stroke-width="0.75" stroke="#000000" stroke-opacity="0.49804" stroke-linecap="butt" stroke-linejoin="round"/>
  <text x="634.5" y="453.7" font-family="Helvetica" font-size="10" font-weight="normal" font-style="normal" fill="#000000" fill-opacity="1">1k</text>
  <path d="M 699 9 L 699 441" fill="none" stroke-width="0.75" stroke="#000000" stroke-opacity="0.49804" stroke-linecap="butt" stroke-linejoin="round"/>
  <text x="693.5" y="453.7" font-family="Helvetica" font-size="10" font-weight="normal" font-style="normal" fill="#000000" fill-opacity="1">2k</text>
  <path d="M 758 9 L 758 441" fill="none" stroke-width="0.75" stroke="#000000" stroke-opacity="0.49804" stroke-linecap="butt" stroke-linejoin="round"/>
  <text x="752.5" y="453.7" font-family="Helvetica" font-size="10" font-weight="normal" font-style="normal" fill="#000000" fill-opacity="1">4k</text>
  <path d="M 817 9 L 817 441" fill="none" stroke-width="0.75" stroke="#000000" stroke-opacity="0.49804" stroke-linecap="butt" stroke-linejoin="round"/>
  <text x="811.5" y="453.7" font-family="Helvetica" font-size="10" font-weight="normal" font-style="normal" fill="#000000" fill-opacity="1">8k</text>
  <path d="M 876 9 L 876 441" fill="none" stroke-width="0.75" stroke="#000000" stroke-opacity="0.49804" stroke-linecap="butt" stroke-linejoin="round"/>
  <text x="867.5" y="453.7" font-family="Helvetica" font-size="10" font-weight="normal" font-style="normal" fill="#000000" fill-opacity="1">16k</text>
  <path d="M 935 9 L 935 441" fill="none" stroke-width="0.75" stroke="#000000" stroke-opacity="0.49804" stroke-linecap="butt" stroke-linejoin="round"/>
  <text x="926.5" y="453.7" font-family="Helvetica" font-size="10" font-weight="normal" font-style="normal" fill="#000000" fill-opacity="1">32k</text>
  <path d="M 994 9 L 994 441" fill="none" stroke-width="0.75" stroke="#000000" stroke-opacity="0.49804" stroke-linecap="butt" stroke-linejoin="round"/>
  <text x="985.5" y="453.7" font-family="Helvetica" font-size="10" font-weight="normal" font-style="normal" fill="#000000" fill-opacity="1">64k</text>
  <path d="M 1053 9 L 1053 441" fill="none" stroke-width="0.75" stroke="#000000" stroke-opacity="0.49804" stroke-linecap="butt" stroke-linejoin="round"/>
  <text x="1042" y="453.7" font-family="Helvetica" font-size="10" font-weight="normal" font-style="normal" fill="#000000" fill-opacity="1">128k</text>
  <path d="M 1112 9 L 1112 441" fill="none" stroke-width="0.75" stroke="#000000" stroke-opacity="0.49804" stroke-linecap="butt" stroke-linejoin="round"/>
  <text x="1101" y="453.7" font-family="Helvetica" font-size="10" font-weight="normal" font-style="normal" fill="#000000" fill-opacity="1">256k</text>
  <path d="M 1171 9 L 1171 441" fill="none" stroke-width="0.75" stroke="#000000" stroke-opacity="0.49804" stroke-linecap="butt" stroke-linejoin="round"/>
  <text x="1160" y="453.7" font-family="Helvetica" font-size="10" font-weight="normal" font-style="normal" fill="#000000" fill-opacity="1">512k</text>
  <path d="M 1230 9 L 1230 441" fill="none" stroke-width="0.75" stroke="#000000" stroke-opacity="0.49804" stroke-linecap="butt" stroke-linejoin="round"/>
  <text x="1223" y="453.7" font-family="Helvetica" font-size="10" font-weight="normal" font-style="normal" fill="#000000" fill-opacity="1">1M</text>
  <path d="M 50 441 L 1230 441" fill="none" stroke-width="0.75" stroke="#000000" stroke-opacity="0.49804" stroke-linecap="butt" stroke-linejoin="round"/>
  <text x="21" y="442.7" font-family="Helvetica" font-size="10" font-weight="normal" font-style="normal" fill="#000000" fill-opacity="1">10 ps</text>
  <text x="1236" y="442.7" font-family="Helvetica" font-size="10" font-weight="normal" font-style="normal" fill="#000000" fill-opacity="1">10 ps</text>
  <path d="M 50 354.6 L 1230 354.6" fill="none" stroke-width="0.75" stroke="#000000" stroke-opacity="0.49804" stroke-linecap="butt" stroke-linejoin="round"/>
  <text x="16" y="356.3" font-family="Helvetica" font-size="10" font-weight="normal" font-style="normal" fill="#000000" fill-opacity="1">100 ps</text>
  <text x="1236" y="356.3" font-family="Helvetica" font-size="10" font-weight="normal" font-style="normal" fill="#000000" fill-opacity="1">100 ps</text>
  <path d="M 50 268.2 L 1230 268.2" fill="none" stroke-width="0.75" stroke="#000000" stroke-opacity="0.49804" stroke-linecap="butt" stroke-linejoin="round"/>
  <text x="27" y="269.9" font-family="Helvetica" font-size="10" font-weight="normal" font-style="normal" fill="#000000" fill-opacity="1">1 ns</text>
  <text x="1236" y="269.9" font-family="Helvetica" font-size="10" font-weight="normal" font-style="normal" fill="#000000" fill-opacity="1">1 ns</text>
  <path d="M 50 181.8 L 1230 181.8" fill="none" stroke-width="0.75" stroke="#000000" stroke-opacity="0.49804" stroke-linecap="butt" stroke-linejoin="round"/>
  <text x="21" y="183.5" font-family="Helvetica" font-size="10" font-weight="normal" font-style="normal" fill="#000000" fill-opacity="1">10 ns</text>
  <text x="1236" y="183.5" font-family="Helvetica" font-size="10" font-weight="normal" font-style="normal" fill="#000000" fill-opacity="1">10 ns</text>
  <path d="M 50 95.4 L 1230 95.4" fill="none" stroke-width="0.75" stroke="#000000" stroke-opacity="0.49804" stroke-linecap="butt" stroke-linejoin="round"/>
  <text x="16" y="97.1" font-family="Helvetica" font-size="10" font-weight="normal" font-style="normal" fill="#000000" fill-opacity="1">100 ns</text>
  <text x="1236" y="97.1" font-family="Helvetica" font-size="10" font-weight="normal" font-style="normal" fill="#000000" fill-opacity="1">100 ns</text>
  <path d="M 50 9 L 1230 9" fill="none" stroke-width="0.75" stroke="#000000" stroke-opacity="0.49804" stroke-linecap="butt" stroke-linejoin="round"/>
  <text x="26" y="10.7" font-family="Helvetica" font-size="10" font-weight="normal" font-style="normal" fill="#000000" fill-opacity="1">1 µs</text>
  <text x="1236" y="10.7" font-family="Helvetica" font-size="10" font-weight="normal" font-style="normal" fill="#000000" fill-opacity="1">1 µs</text>
  <path d="M 50 414.99 L 1230 414.99" fill="none" stroke-width="0.5" stroke="#000000" stroke-opacity="0.25882" stroke-linecap="butt" stroke-linejoin="round" stroke-dasharray="6 3" stroke-dashoffset="0"/>
  <path d="M 50 388.98 L 1230 388.98" fill="none" stroke-width="0.5" stroke="#000000" stroke-opacity="0.25882" stroke-linecap="butt" stroke-linejoin="round" stroke-dasharray="6 3" stroke-dashoffset="0"/>
  <path d="M 50 362.97 L 1230 362.97" fill="none" stroke-width="0.5" stroke="#000000" stroke-opacity="0.25882" stroke-linecap="butt" stroke-linejoin="round" stroke-dasharray="6 3" stroke-dashoffset="0"/>
  <path d="M 50 336.96 L 1230 336.96" fill="none" stroke-width="0.5" stroke="#000000" stroke-opacity="0.25882" stroke-linecap="butt" stroke-linejoin="round" stroke-dasharray="6 3" stroke-dashoffset="0"/>
  <path d="M 50 310.96 L 1230 310.96" fill="none" stroke-width="0.5" stroke="#000000" stroke-opacity="0.25882" stroke-linecap="butt" stroke-linejoin="round" stroke-dasharray="6 3" stroke-dashoffset="0"/>
  <path d="M 50 284.95 L 1230 284.95" fill="none" stroke-width="0.5" stroke="#000000" stroke-opacity="0.25882" stroke-linecap="butt" stroke-linejoin="round" stroke-dasharray="6 3" stroke-dashoffset="0"/>
  <path d="M 50 258.94 L 1230 258.94" fill="none" stroke-width="0.5" stroke="#000000" stroke-opacity="0.25882" stroke-linecap="butt" stroke-linejoin="round" stroke-dasharray="6 3" stroke-dashoffset="0"/>
  <path d="M 50 232.93 L 1230 232.93" fill="none" stroke-width="0.5" stroke="#000000" stroke-opacity="0.25882" stroke-linecap="butt" stroke-linejoin="round" stroke-dasharray="6 3" stroke-dashoffset="0"/>
  <path d="M 50 206.92 L 1230 206.92" fill="none" stroke-width="0.5" stroke="#000000" stroke-opacity="0.25882" stroke-linecap="butt" stroke-linejoin="round" stroke-dasharray="6 3" stroke-dashoffset="0"/>
  <path d="M 50 180.91 L 1230 180.91" fill="none" stroke-width="0.5" stroke="#000000" stroke-opacity="0.25882" stroke-linecap="butt" stroke-linejoin="round" stroke-dasharray="6 3" stroke-dashoffset="0"/>
  <path d="M 50 154.9 L 1230 154.9" fill="none" stroke-width="0.5" stroke="#000000" stroke-opacity="0.25882" stroke-linecap="butt" stroke-linejoin="round" stroke-dasharray="6 3" stroke-dashoffset="0"/>
  <path d="M 50 128.89 L 1230 128.89" fill="none" stroke-width="0.5" stroke="#000000" stroke-opacity="0.25882" stroke-linecap="butt" stroke-linejoin="round" stroke-dasharray="6 3" stroke-dashoffset="0"/>
  <path d="M 50 102.88 L 1230 102.88" fill="none" stroke-width="0.5" stroke="#000000" stroke-opacity="0.25882" stroke-linecap="butt" stroke-linejoin="round" stroke-dasharray="6 3" stroke-dashoffset="0"/>
  <path d="M 50 76.874 L 1230 76.874" fill="none" stroke-width="0.5" stroke="#000000" stroke-opacity="0.25882" stroke-linecap="butt" stroke-linejoin="round" stroke-dasharray="6 3" stroke-dashoffset="0"/>
  <path d="M 50 50.865 L 1230 50.865" fill="none" stroke-width="0.5" stroke="#000000" stroke-opacity="0.25882" stroke-linecap="butt" stroke-linejoin="round" stroke-dasharray="6 3" stroke-dashoffset="0"/>
  <path d="M 50 24.856 L 1230 24.856" fill="none" stroke-width="0.5" stroke="#000000" stroke-opacity="0.25882" stroke-linecap="butt" stroke-linejoin="round" stroke-dasharray="6 3" stroke-dashoffset="0"/>
  <path d="M 74 33 L 74 88 L 406 88 L 406 33 z" fill="#FFFFFF" fill-opacity="1.0" stroke="none"/>
  <clipPath id="clip-0">
    <path d="M 50 9 L 50 441 L 1230 441 L 1230 9 z"/>
  </clipPath>
  <g clip-path="url(#clip-0)">
    <path d="M 50 63.274L 109 95.323L 143.51 104.96L 168 113.04L 186.99 117.61L 202.51 105.37L 215.63 112.93L 227 114.99L 245.99 118.42L 261.51 122.17L 274.63 125.09L 286 127.35L 304.99 128.42L 320.51 131.14L 333.63 134.03L 345 135.68L 363.99 134.47L 379.51 136.42L 392.63 137.99L 404 139.95L 422.99 137.75L 438.51 139.3L 451.63 140.3L 463 142.54L 481.99 139.57L 497.51 140.87L 510.63 141.87L 522 144.02L 540.99 140.43L 556.51 141.58L 569.63 142.25L 581 144.62L 599.99 140.86L 615.51 141.86L 628.63 142.34L 640 144.79L 658.99 140.9L 674.51 142.11L 687.63 142.5L 699 144.91L 717.99 140.52L 733.51 141.36L 746.63 142.26L 758 144.68L 776.99 140.51L 792.51 141.65L 805.63 141.68L 817 144.41L 835.99 140.28L 851.51 141.62L 864.63 138.75L 876 140.87L 894.99 137.01L 910.51 137.69L 923.63 138.37L 935 139.73L 953.99 137.65L 969.51 138.3L 969.51 138.3L 953.99 137.65L 935 139.73L 923.63 138.37L 910.51 137.69L 894.99 137.01L 876 140.87L 864.63 138.75L 851.51 141.62L 835.99 140.28L 817 144.41L 805.63 141.68L 792.51 141.65L 776.99 140.51L 758 144.68L 746.63 142.26L 733.51 141.36L 717.99 140.52L 699 144.91L 687.63 142.5L 674.51 142.11L 658.99 140.9L 640 144.79L 628.63 142.34L 615.51 141.86L 599.99 140.86L 581 144.62L 569.63 142.25L 556.51 141.58L 540.99 140.43L 522 144.02L 510.63 141.87L 497.51 140.87L 481.99 139.57L 463 142.54L 451.63 140.3L 438.51 139.3L 422.99 137.75L 404 139.95L 392.63 137.99L 379.51 136.42L 363.99 134.47L 345 135.68L 333.63 134.03L 320.51 131.14L 304.99 128.42L 286 127.35L 274.63 125.09L 261.51 122.17L 245.99 118.42L 227 114.99L 215.63 112.93L 202.51 105.37L 186.99 117.61L 168 113.04L 143.51 104.96L 109 95.323L 50 63.274" fill="#007AFF" fill-opacity="0.30196078431372547" stroke="none"/>
    <path d="M 50 130.18L 109 155.41L 143.51 169.14L 168 180.26L 186.99 188.33L 202.51 196.24L 215.63 201.3L 227 209.39L 245.99 217.37L 261.51 224.21L 274.63 229.6L 286 233.83L 304.99 242.98L 320.51 248.26L 333.63 253.31L 345 230.97L 363.99 241.85L 379.51 243.48L 392.63 253.02L 404 253.11L 422.99 261.6L 438.51 269.63L 451.63 276.06L 463 298.5L 481.99 304.76L 497.51 309.6L 510.63 313.67L 522 316.44L 540.99 321.47L 556.51 325.17L 569.63 325.9L 581 328.4L 599.99 328.28L 615.51 333.4L 628.63 332.9L 640 338.4L 658.99 340.33L 674.51 333.78L 687.63 341.9L 699 321.47L 717.99 336.42L 733.51 347.64L 746.63 343.42L 758 326.08L 776.99 336.69L 792.51 336.51L 805.63 347.6L 817 340.06L 835.99 349.1L 851.51 342.24L 864.63 335.47L 876 335.45L 894.99 339.4L 910.51 332.13L 923.63 337.73L 935 342.65L 953.99 338.95L 969.51 309.09L 982.63 335.3L 994 327.96L 1013 334.33L 1028.5 335.55L 1041.6 340.09L 1053 337.07L 1072 327.67L 1087.5 294.13L 1100.6 280.77L 1112 287.08L 1131 283.41L 1146.5 272.52L 1159.6 273.43L 1171 284.48L 1190 287.8L 1205.5 281.87L 1218.6 284.28L 1230 259.78L 1230 342.72L 1218.6 287.8L 1205.5 286.47L 1190 288.05L 1171 288.24L 1159.6 290L 1146.5 289.24L 1131 288.13L 1112 288.96L 1100.6 285.07L 1087.5 310.56L 1072 345.1L 1053 342.87L 1041.6 344.54L 1028.5 337.32L 1013 340.68L 994 350.22L 982.63 345.26L 969.51 344.51L 953.99 351.56L 935 349.84L 923.63 344.15L 910.51 343.94L 894.99 348.91L 876 353.82L 864.63 353.97L 851.51 344.18L 835.99 355.35L 817 356.62L 805.63 352.28L 792.51 351.77L 776.99 351.91L 758 338.57L 746.63 345.43L 733.51 348.13L 717.99 352.43L 699 348.78L 687.63 345.78L 674.51 343.04L 658.99 341.63L 640 339.55L 628.63 336.65L 615.51 335.21L 599.99 331.94L 581 328.4L 569.63 325.9L 556.51 325.53L 540.99 321.81L 522 316.86L 510.63 313.68L 497.51 310.06L 481.99 305.27L 463 298.5L 451.63 276.06L 438.51 273.66L 422.99 265.93L 404 258.49L 392.63 255.61L 379.51 249.03L 363.99 242.98L 345 234.61L 333.63 254.05L 320.51 248.26L 304.99 242.98L 286 234.61L 274.63 229.6L 261.51 224.21L 245.99 217.37L 227 209.41L 215.63 202.02L 202.51 196.24L 186.99 189.79L 168 180.27L 143.51 169.85L 109 155.41L 50 130.18" fill="#FF3B30" fill-opacity="0.30196078431372547" stroke="none"/>
    <path d="M 50 63.274L 109 95.323L 143.51 104.96L 168 113.04L 186.99 117.61L 202.51 105.37L 215.63 112.93L 227 114.99L 245.99 118.42L 261.51 122.17L 274.63 125.09L 286 127.35L 304.99 128.42L 320.51 131.14L 333.63 134.03L 345 135.68L 363.99 134.47L 379.51 136.42L 392.63 137.99L 404 139.95L 422.99 137.75L 438.51 139.3L 451.63 140.3L 463 142.54L 481.99 139.57L 497.51 140.87L 510.63 141.87L 522 144.02L 540.99 140.43L 556.51 141.58L 569.63 142.25L 581 144.62L 599.99 140.86L 615.51 141.86L 628.63 142.34L 640 144.79L 658.99 140.9L 674.51 142.11L 687.63 142.5L 699 144.91L 717.99 140.52L 733.51 141.36L 746.63 142.26L 758 144.68L 776.99 140.51L 792.51 141.65L 805.63 141.68L 817 144.41L 835.99 140.28L 851.51 141.62L 864.63 138.75L 876 140.87L 894.99 137.01L 910.51 137.69L 923.63 138.37L 935 139.73L 953.99 137.65L 969.51 138.3" fill="none" stroke-width="4" stroke="#007AFF" stroke-opacity="1" stroke-linecap="round" stroke-linejoin="round"/>
    <path d="M 50 130.18L 109 155.41L 143.51 169.66L 168 180.27L 186.99 189.4L 202.51 196.24L 215.63 201.83L 227 209.4L 245.99 217.37L 261.51 224.21L 274.63 229.6L 286 234.41L 304.99 242.98L 320.51 248.26L 333.63 253.85L 345 233.62L 363.99 242.68L 379.51 247.5L 392.63 254.92L 404 257.01L 422.99 264.75L 438.51 272.56L 451.63 276.06L 463 298.5L 481.99 305.14L 497.51 309.94L 510.63 313.68L 522 316.75L 540.99 321.72L 556.51 325.43L 569.63 325.9L 581 328.4L 599.99 330.95L 615.51 334.73L 628.63 335.63L 640 339.25L 658.99 341.29L 674.51 340.39L 687.63 344.73L 699 339.53L 717.99 347.54L 733.51 348L 746.63 344.89L 758 334.88L 776.99 347.3L 792.51 347.15L 805.63 351L 817 351.54L 835.99 353.61L 851.51 343.66L 864.63 348.19L 876 348.09L 894.99 346.18L 910.51 340.48L 923.63 342.36L 935 347.83L 953.99 347.83L 969.51 331.61L 982.63 342.4L 994 343.02L 1013 338.92L 1028.5 336.85L 1041.6 343.33L 1053 341.27L 1072 339.71L 1087.5 305.53L 1100.6 283.9L 1112 288.46L 1131 286.84L 1146.5 284.1L 1159.6 284.92L 1171 287.22L 1190 287.99L 1205.5 285.21L 1218.6 286.85L 1230 300.02" fill="none" stroke-width="4" stroke="#FF3B30" stroke-opacity="1" stroke-linecap="round" stroke-linejoin="round"/>
    <path d="M 50 63.274L 109 95.323L 143.51 104.96L 168 113.04L 186.99 117.61L 202.51 105.37L 215.63 112.93L 227 114.99L 245.99 118.42L 261.51 122.17L 274.63 125.09L 286 127.35L 304.99 128.42L 320.51 131.14L 333.63 134.03L 345 135.68L 363.99 134.47L 379.51 136.42L 392.63 137.99L 404 139.95L 422.99 137.75L 438.51 139.3L 451.63 140.3L 463 142.54L 481.99 139.57L 497.51 140.87L 510.63 141.87L 522 144.02L 540.99 140.43L 556.51 141.58L 569.63 142.25L 581 144.62L 599.99 140.86L 615.51 141.86L 628.63 142.34L 640 144.79L 658.99 140.9L 674.51 142.11L 687.63 142.5L 699 144.91L 717.99 140.52L 733.51 141.36L 746.63 142.26L 758 144.68L 776.99 140.51L 792.51 141.65L 805.63 141.68L 817 144.41L 835.99 140.28L 851.51 141.62L 864.63 138.75L 876 140.87L 894.99 137.01L 910.51 137.69L 923.63 138.37L 935 139.73L 953.99 137.65L 969.51 138.3" fill="none" stroke-width="0.5" stroke="#000000" stroke-opacity="0.30196" stroke-linecap="round" stroke-linejoin="round"/>
    <path d="M 50 130.18L 109 155.41L 143.51 169.66L 168 180.27L 186.99 189.4L 202.51 196.24L 215.63 201.83L 227 209.4L 245.99 217.37L 261.51 224.21L 274.63 229.6L 286 234.41L 304.99 242.98L 320.51 248.26L 333.63 253.85L 345 233.62L 363.99 242.68L 379.51 247.5L 392.63 254.92L 404 257.01L 422.99 264.75L 438.51 272.56L 451.63 276.06L 463 298.5L 481.99 305.14L 497.51 309.94L 510.63 313.68L 522 316.75L 540.99 321.72L 556.51 325.43L 569.63 325.9L 581 328.4L 599.99 330.95L 615.51 334.73L 628.63 335.63L 640 339.25L 658.99 341.29L 674.51 340.39L 687.63 344.73L 699 339.53L 717.99 347.54L 733.51 348L 746.63 344.89L 758 334.88L 776.99 347.3L 792.51 347.15L 805.63 351L 817 351.54L 835.99 353.61L 851.51 343.66L 864.63 348.19L 876 348.09L 894.99 346.18L 910.51 340.48L 923.63 342.36L 935 347.83L 953.99 347.83L 969.51 331.61L 982.63 342.4L 994 343.02L 1013 338.92L 1028.5 336.85L 1041.6 343.33L 1053 341.27L 1072 339.71L 1087.5 305.53L 1100.6 283.9L 1112 288.46L 1131 286.84L 1146.5 284.1L 1159.6 284.92L 1171 287.22L 1190 287.99L 1205.5 285.21L 1218.6 286.85L 1230 300.02" fill="none" stroke-width="0.5" stroke="#000000" stroke-opacity="0.30196" stroke-linecap="round" stroke-linejoin="round"/>
  </g>
  <path d="M 74 33 L 74 88 L 406 88 L 406 33 z" fill="#FFFFFF" fill-opacity="0.7019607843137254" stroke-width="0.5" stroke="#000000" stroke-opacity="1" stroke-linecap="round" stroke-linejoin="round"/>
  <path d="M 88 52 L 108 52" fill="none" stroke-width="4" stroke="#FF3B30" stroke-opacity="1" stroke-linecap="round" stroke-linejoin="round"/>
  <path d="M 88 52 L 108 52" fill="none" stroke-width="0.5" stroke="#000000" stroke-opacity="0.30196" stroke-linecap="round" stroke-linejoin="round"/>
  <text x="119" y="56.17" font-family="Menlo" font-size="12" font-weight="normal" font-style="normal" fill="#000000" fill-opacity="1">Array&lt;Int&gt; init from unsafe buffer</text>
  <path d="M 88 69 L 108 69" fill="none" stroke-width="4" stroke="#007AFF" stroke-opacity="1" stroke-linecap="round" stroke-linejoin="round"/>
  <path d="M 88 69 L 108 69" fill="none" stroke-width="0.5" stroke="#000000" stroke-opacity="0.30196" stroke-linecap="round" stroke-linejoin="round"/>
  <text x="119" y="73.17" font-family="Menlo" font-size="12" font-weight="normal" font-style="normal" fill="#000000" fill-opacity="1">TreeArray&lt;Int&gt; init from unsafe buffer</text>
  <path d="M 50 9 L 50 441 L 1230 441 L 1230 9 z" fill="none" stroke-width="0.5" stroke="#000000" stroke-opacity="1" stroke-linecap="round" stroke-linejoin="round"/>
</svg>
