<!DOCTYPE svg PUBLIC "-//W3C//DTD SVG 1.1//EN" "http://www.w3.org/Graphics/SVG/1.1/DTD/svg11.dtd">
<svg width="1280.0px" height="480.0px" viewBox="0.0 0.0 1280.0 480.0" xmlns="http://www.w3.org/2000/svg" xmlns:xlink="http://www.w3.org/1999/xlink" version="1.1">
  <path d="M 0 0 L 0 480 L 1280 480 L 1280 0 z" fill="#FFFFFF" fill-opacity="1.0" stroke="none"/>
  <text x="50" y="468.7" font-family="Helvetica" font-size="10" font-weight="normal" font-style="normal" fill="#000000" fill-opacity="1">Average per-element processing time over input size (bands: min, mean, mean + 2stddev)</text>
  <a xlink:href="https://github.com/apple/swift-collections-benchmark"><text x="1107" y="468.7" font-family="Helvetica" font-size="10" font-weight="normal" font-style="normal" fill="#000000" fill-opacity="1">swift-collections-benchmark</text></a>
  <path d="M 50 9 L 50 441" fill="none" stroke-width="0.75" stroke="#000000" stroke-opacity="0.49804" stroke-linecap="butt" stroke-linejoin="round"/>
  <text x="47" y="453.7" font-family="Helvetica" font-size="10" font-weight="normal" font-style="normal" fill="#000000" fill-opacity="1">1</text>
  <path d="M 109 9 L 109 441" fill="none" stroke-width="0.75" stroke="#000000" stroke-opacity="0.49804" stroke-linecap="butt" stroke-linejoin="round"/>
  <text x="106" y="453.7" font-family="Helvetica" font-size="10" font-weight="normal" font-style="normal" fill="#000000" fill-opacity="1">2</text>
  <path d="M 168 9 L 168 441" fill="none" stroke-width="0.75" stroke="#000000" stroke-opacity="0.49804" stroke-linecap="butt" stroke-linejoin="round"/>
  <text x="165" y="453.7" font-family="Helvetica" font-size="10" font-weight="normal" font-style="normal" fill="#000000" fill-opacity="1">4</text>
  <path d="M 227 9 L 227 441" fill="none" stroke-width="0.75" stroke="#000000" stroke-opacity="0.49804" stroke-linecap="butt" stroke-linejoin="round"/>
  <text x="224" y="453.7" font-family="Helvetica" font-size="10" font-weight="normal" font-style="normal" fill="#000000" fill-opacity="1">8</text>
  <path d="M 286 9 L 286 441" fill="none" stroke-width="0.75" stroke="#000000" stroke-opacity="0.49804" stroke-linecap="butt" stroke-linejoin="round"/>
  <text x="280" y="453.7" font-family="Helvetica" font-size="10" font-weight="normal" font-style="normal" fill="#000000" fill-opacity="1">16</text>
  <path d="M 345 9 L 345 441" fill="none" stroke-width="0.75" stroke="#000000" stroke-opacity="0.49804" stroke-linecap="butt" stroke-linejoin="round"/>
  <text x="339" y="453.7" font-family="Helvetica" font-size="10" font-weight="normal" font-style="normal" fill="#000000" fill-opacity="1">32</text>
  <path d="M 404 9 L 404 441" fill="none" stroke-width="0.75" stroke="#000000" stroke-opacity="0.49804" stroke-linecap="butt" stroke-linejoin="round"/>
  <text x="398" y="453.7" font-family="Helvetica" font-size="10" font-weight="normal" font-style="normal" fill="#000000" fill-opacity="1">64</text>
  <path d="M 463 9 L 463 441" fill="none" stroke-width="0.75" stroke="#000000" stroke-opacity="0.49804" stroke-linecap="butt" stroke-linejoin="round"/>
  <text x="454.5" y="453.7" font-family="Helvetica" font-size="10" font-weight="normal" font-style="normal" fill="#000000" fill-opacity="1">128</text>
  <path d="M 522 9 L 522 441" fill="none" stroke-width="0.75" stroke="#000000" stroke-opacity="0.49804" stroke-linecap="butt" stroke-linejoin="round"/>
  <text x="513.5" y="453.7" font-family="Helvetica" font-size="10" font-weight="normal" font-style="normal" fill="#000000" fill-opacity="1">256</text>
  <path d="M 581 9 L 581 441" fill="none" stroke-width="0.75" stroke="#000000" stroke-opacity="0.49804" stroke-linecap="butt" stroke-linejoin="round"/>
  <text x="572.5" y="453.7" font-family="Helvetica" font-size="10" font-weight="normal" font-style="normal" fill="#000000" fill-opacity="1">512</text>
  <path d="M 640 9 L 640 441" fill="none" stroke-width="0.75" stroke="#000000" stroke-opacity="0.49804" stroke-linecap="butt" stroke-linejoin="round"/>
  <text x="634.5" y="453.7" font-family="Helvetica" font-size="10" font-weight="normal" font-style="normal" fill="#000000" fill-opacity="1">1k</text>
  <path d="M 699 9 L 699 441" fill="none" stroke-width="0.75" stroke="#000000" stroke-opacity="0.49804" stroke-linecap="butt" stroke-linejoin="round"/>
  <text x="693.5" y="453.7" font-family="Helvetica" font-size="10" font-weight="normal" font-style="normal" fill="#000000" fill-opacity="1">2k</text>
  <path d="M 758 9 L 758 441" fill="none" stroke-width="0.75" stroke="#000000" stroke-opacity="0.49804" stroke-linecap="butt" stroke-linejoin="round"/>
  <text x="752.5" y="453.7" font-family="Helvetica" font-size="10" font-weight="normal" font-style="normal" fill="#000000" fill-opacity="1">4k</text>
  <path d="M 817 9 L 817 441" fill="none" stroke-width="0.75" stroke="#000000" stroke-opacity="0.49804" stroke-linecap="butt" stroke-linejoin="round"/>
  <text x="811.5" y="453.7" font-family="Helvetica" font-size="10" font-weight="normal" font-style="normal" fill="#000000" fill-opacity="1">8k</text>
  <path d="M 876 9 L 876 441" fill="none" stroke-width="0.75" stroke="#000000" stroke-opacity="0.49804" stroke-linecap="butt" stroke-linejoin="round"/>
  <text x="867.5" y="453.7" font-family="Helvetica" font-size="10" font-weight="normal" font-style="normal" fill="#000000" fill-opacity="1">16k</text>
  <path d="M 935 9 L 935 441" fill="none" stroke-width="0.75" stroke="#000000" stroke-opacity="0.49804" stroke-linecap="butt" stroke-linejoin="round"/>
  <text x="926.5" y="453.7" font-family="Helvetica" font-size="10" font-weight="normal" font-style="normal" fill="#000000" fill-opacity="1">32k</text>
  <path d="M 994 9 L 994 441" fill="none" stroke-width="0.75" stroke="#000000" stroke-opacity="0.49804" stroke-linecap="butt" stroke-linejoin="round"/>
  <text x="985.5" y="453.7" font-family="Helvetica" font-size="10" font-weight="normal" font-style="normal" fill="#000000" fill-opacity="1">64k</text>
  <path d="M 1053 9 L 1053 441" fill="none" stroke-width="0.75" stroke="#000000" stroke-opacity="0.49804" stroke-linecap="butt" stroke-linejoin="round"/>
  <text x="1042" y="453.7" font-family="Helvetica" font-size="10" font-weight="normal" font-style="normal" fill="#000000" fill-opacity="1">128k</text>
  <path d="M 1112 9 L 1112 441" fill="none" stroke-width="0.75" stroke="#000000" stroke-opacity="0.49804" stroke-linecap="butt" stroke-linejoin="round"/>
  <text x="1101" y="453.7" font-family="Helvetica" font-size="10" font-weight="normal" font-style="normal" fill="#000000" fill-opacity="1">256k</text>
  <path d="M 1171 9 L 1171 441" fill="none" stroke-width="0.75" stroke="#000000" stroke-opacity="0.49804" stroke-linecap="butt" stroke-linejoin="round"/>
  <text x="1160" y="453.7" font-family="Helvetica" font-size="10" font-weight="normal" font-style="normal" fill="#000000" fill-opacity="1">512k</text>
  <path d="M 1230 9 L 1230 441" fill="none" stroke-width="0.75" stroke="#000000" stroke-opacity="0.49804" stroke-linecap="butt" stroke-linejoin="round"/>
  <text x="1223" y="453.7" font-family="Helvetica" font-size="10" font-weight="normal" font-style="normal" fill="#000000" fill-opacity="1">1M</text>
  <path d="M 50 441 L 1230 441" fill="none" stroke-width="0.75" stroke="#000000" stroke-opacity="0.49804" stroke-linecap="butt" stroke-linejoin="round"/>
  <text x="16" y="442.7" font-family="Helvetica" font-size="10" font-weight="normal" font-style="normal" fill="#000000" fill-opacity="1">100 ps</text>
  <text x="1236" y="442.7" font-family="Helvetica" font-size="10" font-weight="normal" font-style="normal" fill="#000000" fill-opacity="1">100 ps</text>
  <path d="M 50 297 L 1230 297" fill="none" stroke-width="0.75" stroke="#000000" stroke-opacity="0.49804" stroke-linecap="butt" stroke-linejoin="round"/>
  <text x="27" y="298.7" font-family="Helvetica" font-size="10" font-weight="normal" font-style="normal" fill="#000000" fill-opacity="1">1 ns</text>
  <text x="1236" y="298.7" font-family="Helvetica" font-size="10" font-weight="normal" font-style="normal" fill="#000000" fill-opacity="1">1 ns</text>
  <path d="M 50 153 L 1230 153" fill="none" stroke-width="0.75" stroke="#000000" stroke-opacity="0.49804" stroke-linecap="butt" stroke-linejoin="round"/>
  <text x="21" y="154.7" font-family="Helvetica" font-size="10" font-weight="normal" font-style="normal" fill="#000000" fill-opacity="1">10 ns</text>
  <text x="1236" y="154.7" font-family="Helvetica" font-size="10" font-weight="normal" font-style="normal" fill="#000000" fill-opacity="1">10 ns</text>
  <path d="M 50 9 L 1230 9" fill="none" stroke-width="0.75" stroke="#000000" stroke-opacity="0.49804" stroke-linecap="butt" stroke-linejoin="round"/>
  <text x="16" y="10.7" font-family="Helvetica" font-size="10" font-weight="normal" font-style="normal" fill="#000000" fill-opacity="1">100 ns</text>
  <text x="1236" y="10.7" font-family="Helvetica" font-size="10" font-weight="normal" font-style="normal" fill="#000000" fill-opacity="1">100 ns</text>
  <path d="M 50 397.65 L 1230 397.65" fill="none" stroke-width="0.5" stroke="#000000" stroke-opacity="0.25882" stroke-linecap="butt" stroke-linejoin="round" stroke-dasharray="6 3" stroke-dashoffset="0"/>
  <path d="M 50 354.3 L 1230 354.3" fill="none" stroke-width="0.5" stroke="#000000" stroke-opacity="0.25882" stroke-linecap="butt" stroke-linejoin="round" stroke-dasharray="6 3" stroke-dashoffset="0"/>
  <path d="M 50 310.96 L 1230 310.96" fill="none" stroke-width="0.5" stroke="#000000" stroke-opacity="0.25882" stroke-linecap="butt" stroke-linejoin="round" stroke-dasharray="6 3" stroke-dashoffset="0"/>
  <path d="M 50 267.61 L 1230 267.61" fill="none" stroke-width="0.5" stroke="#000000" stroke-opacity="0.25882" stroke-linecap="butt" stroke-linejoin="round" stroke-dasharray="6 3" stroke-dashoffset="0"/>
  <path d="M 50 224.26 L 1230 224.26" fill="none" stroke-width="0.5" stroke="#000000" stroke-opacity="0.25882" stroke-linecap="butt" stroke-linejoin="round" stroke-dasharray="6 3" stroke-dashoffset="0"/>
  <path d="M 50 180.91 L 1230 180.91" fill="none" stroke-width="0.5" stroke="#000000" stroke-opacity="0.25882" stroke-linecap="butt" stroke-linejoin="round" stroke-dasharray="6 3" stroke-dashoffset="0"/>
  <path d="M 50 137.56 L 1230 137.56" fill="none" stroke-width="0.5" stroke="#000000" stroke-opacity="0.25882" stroke-linecap="butt" stroke-linejoin="round" stroke-dasharray="6 3" stroke-dashoffset="0"/>
  <path d="M 50 94.213 L 1230 94.213" fill="none" stroke-width="0.5" stroke="#000000" stroke-opacity="0.25882" stroke-linecap="butt" stroke-linejoin="round" stroke-dasharray="6 3" stroke-dashoffset="0"/>
  <path d="M 50 50.865 L 1230 50.865" fill="none" stroke-width="0.5" stroke="#000000" stroke-opacity="0.25882" stroke-linecap="butt" stroke-linejoin="round" stroke-dasharray="6 3" stroke-dashoffset="0"/>
  <path d="M 74 33 L 74 156 L 543 156 L 543 33 z" fill="#FFFFFF" fill-opacity="1.0" stroke="none"/>
  <clipPath id="clip-0">
    <path d="M 50 9 L 50 441 L 1230 441 L 1230 9 z"/>
  </clipPath>
  <g clip-path="url(#clip-0)">
    <path d="M 50 230.2L 109 245.18L 143.51 255.94L 168 261.69L 186.99 271.64L 202.51 273.66L 215.63 280.18L 227 278.32L 245.99 283.23L 261.51 288.49L 274.63 289.32L 286 285.96L 304.99 292.12L 320.51 293.49L 333.63 294.52L 345 296.03L 363.99 293.95L 379.51 284.2L 392.63 280.89L 404 291.81L 422.99 294.7L 438.51 295.23L 451.63 297.66L 463 298.48L 481.99 297.51L 497.51 298.48L 510.63 301.63L 522 298.81L 540.99 296.96L 556.51 300.17L 569.63 301.35L 581 300.5L 599.99 300.69L 615.51 300.79L 628.63 301.42L 640 300.92L 658.99 301.07L 674.51 300.4L 687.63 301.01L 699 301.28L 717.99 301.36L 733.51 301.37L 746.63 301.34L 758 301.34L 776.99 301.47L 792.51 301.48L 805.63 301.1L 817 301.22L 835.99 301.38L 851.51 301.17L 864.63 301.52L 876 301.43L 894.99 301.55L 910.51 301.5L 923.63 301.54L 935 301.44L 953.99 301.49L 969.51 301.45L 982.63 301.49L 994 301.49L 1013 301.51L 1028.5 298.03L 1041.6 301.49L 1053 301.47L 1072 300.57L 1087.5 301.54L 1100.6 301.57L 1112 301.34L 1131 301.56L 1146.5 301.5L 1159.6 293.26L 1171 299.53L 1190 294.15L 1205.5 300.44L 1218.6 300.17L 1230 301.33L 1230 301.36L 1218.6 301.41L 1205.5 301.55L 1190 301.57L 1171 301.58L 1159.6 301.58L 1146.5 301.58L 1131 301.58L 1112 301.58L 1100.6 301.57L 1087.5 301.57L 1072 301.54L 1053 301.57L 1041.6 301.58L 1028.5 301.56L 1013 301.59L 994 301.57L 982.63 301.58L 969.51 301.53L 953.99 301.62L 935 301.57L 923.63 301.54L 910.51 301.6L 894.99 301.56L 876 301.54L 864.63 301.54L 851.51 301.6L 835.99 301.69L 817 301.82L 805.63 301.93L 792.51 301.49L 776.99 301.47L 758 301.49L 746.63 301.52L 733.51 301.39L 717.99 301.36L 699 301.31L 687.63 301.52L 674.51 302.09L 658.99 301.18L 640 301.17L 628.63 301.56L 615.51 300.86L 599.99 300.69L 581 300.5L 569.63 301.63L 556.51 300.17L 540.99 302.94L 522 300.11L 510.63 301.63L 497.51 298.48L 481.99 297.82L 463 298.48L 451.63 297.66L 438.51 295.23L 422.99 294.7L 404 292.52L 392.63 314.99L 379.51 305.35L 363.99 293.95L 345 296.03L 333.63 296.27L 320.51 295.51L 304.99 294.43L 286 291.4L 274.63 289.32L 261.51 288.49L 245.99 287.4L 227 283.04L 215.63 280.18L 202.51 279.72L 186.99 271.64L 168 269.09L 143.51 265.05L 109 245.18L 50 230.2" fill="#FF9500" fill-opacity="0.30196078431372547" stroke="none"/>
    <path d="M 50 230.2L 109 245.8L 143.51 260.13L 168 265.45L 186.99 275.25L 202.51 279.72L 215.63 277.67L 227 285.6L 245.99 285.96L 261.51 288.49L 274.63 291L 286 291.4L 304.99 292.12L 320.51 294.45L 333.63 296.27L 345 296.84L 363.99 290.27L 379.51 290.99L 392.63 279.52L 404 293.71L 422.99 295.11L 438.51 295.53L 451.63 296.95L 463 298.07L 481.99 298.33L 497.51 293.5L 510.63 297.73L 522 299.1L 540.99 300.09L 556.51 300.31L 569.63 299.58L 581 300.15L 599.99 300.82L 615.51 299.95L 628.63 300.63L 640 301.02L 658.99 301.06L 674.51 301.25L 687.63 301.52L 699 301.32L 717.99 301.09L 733.51 301.41L 746.63 301.35L 758 301.13L 776.99 301.69L 792.51 301.59L 805.63 301.48L 817 301.51L 835.99 301.52L 851.51 301.5L 864.63 301.54L 876 301.54L 894.99 301.54L 910.51 301.5L 923.63 301.48L 935 301.5L 953.99 301.51L 969.51 301.28L 982.63 301.25L 994 301.47L 1013 301.45L 1028.5 297.97L 1041.6 301.46L 1053 301.57L 1072 301.54L 1087.5 301.45L 1100.6 301.55L 1112 301.57L 1131 301.5L 1146.5 301.56L 1159.6 298.79L 1171 299.74L 1190 297.83L 1205.5 301.33L 1218.6 301.15L 1230 301.3L 1230 301.51L 1218.6 301.48L 1205.5 301.42L 1190 301.02L 1171 301.58L 1159.6 300.49L 1146.5 301.57L 1131 301.55L 1112 301.57L 1100.6 301.57L 1087.5 301.59L 1072 301.57L 1053 301.57L 1041.6 301.56L 1028.5 301.56L 1013 301.51L 994 301.61L 982.63 301.53L 969.51 301.56L 953.99 301.52L 935 301.5L 923.63 301.48L 910.51 301.6L 894.99 301.55L 876 301.54L 864.63 301.54L 851.51 301.55L 835.99 301.54L 817 301.51L 805.63 301.53L 792.51 301.59L 776.99 301.69L 758 301.82L 746.63 301.54L 733.51 301.41L 717.99 301.69L 699 301.35L 687.63 301.52L 674.51 301.25L 658.99 301.33L 640 301.17L 628.63 301.48L 615.51 302.09L 599.99 300.82L 581 301.1L 569.63 301.48L 556.51 300.32L 540.99 300.09L 522 300.24L 510.63 301.63L 497.51 305.72L 481.99 298.65L 463 298.07L 451.63 296.95L 438.51 296.03L 422.99 295.71L 404 294.44L 392.63 314.99L 379.51 292.9L 363.99 293.95L 345 296.84L 333.63 296.27L 320.51 294.45L 304.99 294.43L 286 291.4L 274.63 291L 261.51 288.49L 245.99 289.01L 227 285.73L 215.63 283.04L 202.51 279.72L 186.99 275.25L 168 273.33L 143.51 260.13L 109 257.69L 50 230.2" fill="#5856D6" fill-opacity="0.30196078431372547" stroke="none"/>
    <path d="M 50 158.49L 109 189.4L 143.51 212.1L 168 206.22L 186.99 217.21L 202.51 225.74L 215.63 230.16L 227 236.07L 245.99 242.19L 261.51 243.32L 274.63 257.69L 286 261.27L 304.99 265.19L 320.51 271.27L 333.63 275.99L 345 278.58L 363.99 281.79L 379.51 281.34L 392.63 283.09L 404 284.41L 422.99 287.08L 438.51 282.48L 451.63 289.24L 463 283.01L 481.99 289.66L 497.51 292.14L 510.63 292.81L 522 293.87L 540.99 294.39L 556.51 295.58L 569.63 296.44L 581 296.91L 599.99 298.4L 615.51 298.91L 628.63 298.96L 640 299.42L 658.99 299.98L 674.51 299.98L 687.63 300.24L 699 300.37L 717.99 300.51L 733.51 300.8L 746.63 300.96L 758 301L 776.99 301.17L 792.51 301.2L 805.63 301.25L 817 300.91L 835.99 301.4L 851.51 301.39L 864.63 301.39L 876 301.21L 894.99 301.46L 910.51 301.48L 923.63 301.53L 935 301.35L 953.99 301.41L 969.51 301.29L 982.63 301.27L 994 301.46L 1013 301.44L 1028.5 297.89L 1041.6 301.51L 1053 301.33L 1072 301.53L 1087.5 301.49L 1100.6 301.47L 1112 301.17L 1131 300.92L 1146.5 301.51L 1159.6 295.05L 1171 300.94L 1190 294.36L 1205.5 301.35L 1218.6 301.33L 1230 301.43L 1230 301.53L 1218.6 301.5L 1205.5 301.5L 1190 301.55L 1171 301.04L 1159.6 300.65L 1146.5 301.56L 1131 301.52L 1112 301.35L 1100.6 301.56L 1087.5 301.53L 1072 301.54L 1053 301.57L 1041.6 301.56L 1028.5 301.55L 1013 301.54L 994 301.53L 982.63 301.52L 969.51 301.46L 953.99 301.55L 935 301.41L 923.63 301.53L 910.51 301.49L 894.99 301.49L 876 301.47L 864.63 301.46L 851.51 301.44L 835.99 301.41L 817 301.4L 805.63 301.33L 792.51 301.3L 776.99 301.18L 758 301.15L 746.63 301.01L 733.51 301.03L 717.99 301.07L 699 300.81L 687.63 300.65L 674.51 300.5L 658.99 299.98L 640 299.96L 628.63 299.72L 615.51 298.97L 599.99 298.48L 581 298.48L 569.63 297.89L 556.51 297.38L 540.99 296.51L 522 294.06L 510.63 293.01L 497.51 292.14L 481.99 294.32L 463 298.48L 451.63 292.47L 438.51 289.44L 422.99 287.08L 404 285.71L 392.63 283.79L 379.51 281.34L 363.99 283.36L 345 279.99L 333.63 276.02L 320.51 272.68L 304.99 268.25L 286 261.27L 274.63 257.69L 261.51 263.51L 245.99 251.1L 227 238.4L 215.63 232.67L 202.51 225.74L 186.99 217.21L 168 206.22L 143.51 212.1L 109 193.78L 50 158.49" fill="#FFCC00" fill-opacity="0.30196078431372547" stroke="none"/>
    <path d="M 50 158.36L 109 193.84L 143.51 212.1L 168 225.42L 186.99 232.01L 202.51 241.67L 215.63 246.15L 227 251.22L 245.99 259.26L 261.51 265.05L 274.63 269.71L 286 270.26L 304.99 272.75L 320.51 281.34L 333.63 283.8L 345 285.71L 363.99 282.58L 379.51 284.81L 392.63 285.71L 404 278.8L 422.99 286.39L 438.51 291.9L 451.63 292.93L 463 294.25L 481.99 295.4L 497.51 294.87L 510.63 297.08L 522 298.48L 540.99 297.95L 556.51 299.04L 569.63 299.38L 581 299.64L 599.99 300.05L 615.51 300.28L 628.63 300.03L 640 300.43L 658.99 300.8L 674.51 300.93L 687.63 300.8L 699 301.04L 717.99 301.17L 733.51 301.24L 746.63 301.09L 758 300.88L 776.99 301.38L 792.51 301.4L 805.63 301.43L 817 301.44L 835.99 301.32L 851.51 301.47L 864.63 301.28L 876 301.51L 894.99 301.37L 910.51 301.51L 923.63 301.12L 935 301.2L 953.99 300.26L 969.51 301.34L 982.63 300.01L 994 300.96L 1013 301.16L 1028.5 294.3L 1041.6 301.29L 1053 301.45L 1072 301.51L 1087.5 301.49L 1100.6 301.54L 1112 301.43L 1131 301.43L 1146.5 301.53L 1159.6 289.99L 1171 301.44L 1190 294.5L 1205.5 301.52L 1218.6 301.18L 1230 301.21L 1230 301.54L 1218.6 301.55L 1205.5 301.56L 1190 301.22L 1171 301.55L 1159.6 301.5L 1146.5 301.57L 1131 301.55L 1112 301.51L 1100.6 301.55L 1087.5 301.54L 1072 301.57L 1053 301.52L 1041.6 301.44L 1028.5 301.57L 1013 301.49L 994 301.53L 982.63 301.49L 969.51 301.4L 953.99 301.55L 935 301.4L 923.63 301.54L 910.51 301.54L 894.99 301.53L 876 301.52L 864.63 301.5L 851.51 301.49L 835.99 301.69L 817 301.45L 805.63 301.45L 792.51 301.44L 776.99 301.38L 758 301.84L 746.63 301.53L 733.51 301.25L 717.99 301.19L 699 301.15L 687.63 301.52L 674.51 300.93L 658.99 300.8L 640 300.79L 628.63 301.56L 615.51 300.28L 599.99 300.05L 581 299.64L 569.63 299.38L 556.51 299.04L 540.99 299.07L 522 298.48L 510.63 297.3L 497.51 298.48L 481.99 295.71L 463 294.25L 451.63 293.34L 438.51 291.9L 422.99 294.7L 404 298.48L 392.63 285.71L 379.51 284.81L 363.99 283.56L 345 285.71L 333.63 283.8L 320.51 281.34L 304.99 278.05L 286 272.3L 274.63 269.71L 261.51 265.05L 245.99 262L 227 254.32L 215.63 249.34L 202.51 245.14L 186.99 235.68L 168 227.88L 143.51 212.1L 109 193.84L 50 158.49" fill="#28CD41" fill-opacity="0.30196078431372547" stroke="none"/>
    <path d="M 50 22.774L 109 73.547L 143.51 96.048L 168 110.76L 186.99 122.35L 202.51 129.89L 215.63 139.65L 227 144.77L 245.99 154.58L 261.51 161.85L 274.63 166.91L 286 168.44L 304.99 175.51L 320.51 171.32L 333.63 179.8L 345 178.73L 363.99 189.68L 379.51 181.21L 392.63 189.56L 404 186.43L 422.99 196.68L 438.51 186.85L 451.63 194.34L 463 190.19L 481.99 199.9L 497.51 187.9L 510.63 195.66L 522 191.16L 540.99 200.72L 556.51 188.48L 569.63 196.96L 581 192.39L 599.99 201.81L 615.51 188.89L 628.63 197.77L 640 192.96L 658.99 202.04L 674.51 189.73L 687.63 197.94L 699 192.98L 717.99 201.56L 733.51 184.59L 746.63 193.38L 758 189.73L 776.99 198.45L 792.51 183.57L 805.63 193.74L 817 187.64L 835.99 197.52L 851.51 182.21L 864.63 192.27L 876 188.75L 894.99 196.11L 910.51 184.67L 923.63 193.61L 935 188.53L 953.99 196.7L 969.51 184.78L 982.63 193.08L 994 188.05L 1013 198.5L 1028.5 184.43L 1041.6 193.62L 1053 187.64L 1072 197.07L 1087.5 183.27L 1100.6 190.51L 1112 183.83L 1131 193.02L 1146.5 178.77L 1159.6 184.23L 1171 184.57L 1190 187.17L 1205.5 177.71L 1218.6 189.31L 1230 169.69L 1230 182.77L 1218.6 191.05L 1205.5 182.05L 1190 194.6L 1171 185.28L 1159.6 190.64L 1146.5 181.33L 1131 193.98L 1112 184L 1100.6 190.67L 1087.5 183.29L 1072 197.66L 1053 189.3L 1041.6 193.84L 1028.5 184.58L 1013 198.62L 994 189.13L 982.63 193.91L 969.51 185.3L 953.99 198.64L 935 189.43L 923.63 193.77L 910.51 184.86L 894.99 198.6L 876 189.19L 864.63 193.82L 851.51 185.47L 835.99 198.64L 817 189.41L 805.63 193.94L 792.51 186.29L 776.99 198.74L 758 190.01L 746.63 194.05L 733.51 185.51L 717.99 201.57L 699 193.31L 687.63 198.32L 674.51 190.78L 658.99 202.37L 640 192.99L 628.63 198.08L 615.51 190.79L 599.99 201.86L 581 192.42L 569.63 197.25L 556.51 189.77L 540.99 200.82L 522 191.17L 510.63 195.79L 497.51 188.26L 481.99 200.04L 463 190.19L 451.63 194.51L 438.51 186.94L 422.99 196.68L 404 186.43L 392.63 189.56L 379.51 181.7L 363.99 189.68L 345 178.73L 333.63 180.34L 320.51 172.16L 304.99 175.87L 286 168.44L 274.63 166.91L 261.51 161.85L 245.99 154.58L 227 144.77L 215.63 139.65L 202.51 132.71L 186.99 122.95L 168 111.21L 143.51 96.048L 109 73.547L 50 34.363" fill="#007AFF" fill-opacity="0.30196078431372547" stroke="none"/>
    <path d="M 50 175L 109 208.12L 143.51 230.06L 168 242.38L 186.99 244.43L 202.51 255.45L 215.63 258.85L 227 265.07L 245.99 268.45L 261.51 273.53L 274.63 278.73L 286 280.5L 304.99 276.29L 320.51 286.63L 333.63 288.49L 345 289.28L 363.99 285.72L 379.51 288.02L 392.63 271.33L 404 287.65L 422.99 291.73L 438.51 292.27L 451.63 293.25L 463 293.14L 481.99 295.65L 497.51 290.58L 510.63 297.9L 522 298.48L 540.99 295.73L 556.51 299.02L 569.63 301.35L 581 297.12L 599.99 298.17L 615.51 300.53L 628.63 300.38L 640 300.51L 658.99 300.81L 674.51 300.95L 687.63 301.01L 699 301.14L 717.99 301.18L 733.51 301.26L 746.63 301.17L 758 301.33L 776.99 301.38L 792.51 301.29L 805.63 301.46L 817 301.47L 835.99 301.48L 851.51 301.25L 864.63 301.49L 876 301.48L 894.99 301.32L 910.51 301.5L 923.63 301.44L 935 301.28L 953.99 301.38L 969.51 301.54L 982.63 301.54L 994 301.54L 1013 301.22L 1028.5 301.33L 1041.6 300.99L 1053 297.05L 1072 301.44L 1087.5 301.17L 1100.6 300.44L 1112 301.16L 1131 297.1L 1146.5 301.09L 1159.6 301.18L 1171 301L 1190 300.88L 1205.5 301.42L 1218.6 294.42L 1230 301.32L 1230 301.36L 1218.6 301.36L 1205.5 301.55L 1190 301.56L 1171 301.52L 1159.6 301.53L 1146.5 301.55L 1131 300.88L 1112 301.22L 1100.6 301.37L 1087.5 301.54L 1072 301.54L 1053 301.56L 1041.6 301.41L 1028.5 301.6L 1013 301.56L 994 301.57L 982.63 301.55L 969.51 301.55L 953.99 301.62L 935 301.53L 923.63 301.63L 910.51 301.51L 894.99 301.5L 876 301.52L 864.63 301.54L 851.51 301.51L 835.99 301.5L 817 301.49L 805.63 301.46L 792.51 301.6L 776.99 301.45L 758 301.43L 746.63 301.54L 733.51 301.36L 717.99 301.33L 699 301.24L 687.63 301.22L 674.51 301.16L 658.99 301.1L 640 301.1L 628.63 300.98L 615.51 300.53L 599.99 302.73L 581 300.01L 569.63 301.63L 556.51 299.96L 540.99 302.94L 522 298.48L 510.63 298.13L 497.51 306.1L 481.99 297.82L 463 298.48L 451.63 296.26L 438.51 295.23L 422.99 292.3L 404 292.52L 392.63 314.99L 379.51 288.02L 363.99 285.72L 345 290.65L 333.63 288.49L 320.51 286.63L 304.99 293.95L 286 280.5L 274.63 278.73L 261.51 276.48L 245.99 271.64L 227 265.07L 215.63 262.88L 202.51 255.45L 186.99 253.65L 168 242.38L 143.51 230.06L 109 214.34L 50 182.39" fill="#FF3B30" fill-opacity="0.30196078431372547" stroke="none"/>
    <path d="M 50 230.2L 109 245.18L 143.51 262.54L 168 267.07L 186.99 271.64L 202.51 278.08L 215.63 280.18L 227 281.78L 245.99 286.28L 261.51 288.49L 274.63 289.32L 286 289.93L 304.99 293.81L 320.51 294.97L 333.63 295.81L 345 296.03L 363.99 293.95L 379.51 299.1L 392.63 304.14L 404 292.34L 422.99 294.7L 438.51 295.23L 451.63 297.66L 463 298.48L 481.99 297.74L 497.51 298.48L 510.63 301.63L 522 299.77L 540.99 301.32L 556.51 300.17L 569.63 301.56L 581 300.5L 599.99 300.69L 615.51 300.84L 628.63 301.52L 640 301.1L 658.99 301.15L 674.51 301.64L 687.63 301.39L 699 301.3L 717.99 301.36L 733.51 301.39L 746.63 301.47L 758 301.45L 776.99 301.47L 792.51 301.48L 805.63 301.71L 817 301.67L 835.99 301.61L 851.51 301.49L 864.63 301.53L 876 301.52L 894.99 301.56L 910.51 301.58L 923.63 301.54L 935 301.54L 953.99 301.59L 969.51 301.51L 982.63 301.56L 994 301.55L 1013 301.57L 1028.5 300.62L 1041.6 301.56L 1053 301.54L 1072 301.29L 1087.5 301.56L 1100.6 301.57L 1112 301.52L 1131 301.58L 1146.5 301.56L 1159.6 299.3L 1171 301.04L 1190 299.55L 1205.5 301.25L 1218.6 301.08L 1230 301.35" fill="none" stroke-width="4" stroke="#FF9500" stroke-opacity="1" stroke-linecap="round" stroke-linejoin="round"/>
    <path d="M 50 230.2L 109 254.36L 143.51 260.13L 168 271.18L 186.99 275.25L 202.51 279.72L 215.63 281.6L 227 285.7L 245.99 288.2L 261.51 288.49L 274.63 291L 286 291.4L 304.99 293.81L 320.51 294.45L 333.63 296.27L 345 296.84L 363.99 292.97L 379.51 292.4L 392.63 303.62L 404 294.25L 422.99 295.55L 438.51 295.9L 451.63 296.95L 463 298.07L 481.99 298.57L 497.51 302.29L 510.63 300.59L 522 299.94L 540.99 300.09L 556.51 300.32L 569.63 300.98L 581 300.85L 599.99 300.82L 615.51 301.52L 628.63 301.26L 640 301.13L 658.99 301.26L 674.51 301.25L 687.63 301.52L 699 301.34L 717.99 301.53L 733.51 301.41L 746.63 301.49L 758 301.64L 776.99 301.69L 792.51 301.59L 805.63 301.52L 817 301.51L 835.99 301.53L 851.51 301.54L 864.63 301.54L 876 301.54L 894.99 301.55L 910.51 301.57L 923.63 301.48L 935 301.5L 953.99 301.52L 969.51 301.49L 982.63 301.46L 994 301.58L 1013 301.5L 1028.5 300.61L 1041.6 301.53L 1053 301.57L 1072 301.56L 1087.5 301.55L 1100.6 301.56L 1112 301.57L 1131 301.54L 1146.5 301.57L 1159.6 300.04L 1171 301.09L 1190 300.17L 1205.5 301.4L 1218.6 301.39L 1230 301.46" fill="none" stroke-width="4" stroke="#5856D6" stroke-opacity="1" stroke-linecap="round" stroke-linejoin="round"/>
    <path d="M 50 158.49L 109 192.6L 143.51 212.1L 168 206.22L 186.99 217.21L 202.51 225.74L 215.63 232.01L 227 237.78L 245.99 248.65L 261.51 257.58L 274.63 257.69L 286 261.27L 304.99 267.44L 320.51 272.31L 333.63 276.01L 345 279.62L 363.99 282.94L 379.51 281.34L 392.63 283.61L 404 285.37L 422.99 287.08L 438.51 287.55L 451.63 291.61L 463 294.06L 481.99 293.07L 497.51 292.14L 510.63 292.96L 522 294.01L 540.99 295.95L 556.51 296.91L 569.63 297.51L 581 298.07L 599.99 298.46L 615.51 298.95L 628.63 299.52L 640 299.82L 658.99 299.98L 674.51 300.36L 687.63 300.54L 699 300.69L 717.99 300.92L 733.51 300.97L 746.63 300.99L 758 301.11L 776.99 301.17L 792.51 301.27L 805.63 301.31L 817 301.27L 835.99 301.41L 851.51 301.42L 864.63 301.44L 876 301.4L 894.99 301.48L 910.51 301.48L 923.63 301.53L 935 301.39L 953.99 301.52L 969.51 301.42L 982.63 301.45L 994 301.51L 1013 301.51L 1028.5 300.58L 1041.6 301.55L 1053 301.51L 1072 301.54L 1087.5 301.52L 1100.6 301.53L 1112 301.3L 1131 301.36L 1146.5 301.55L 1159.6 299.14L 1171 301.02L 1190 299.59L 1205.5 301.46L 1218.6 301.46L 1230 301.5" fill="none" stroke-width="4" stroke="#FFCC00" stroke-opacity="1" stroke-linecap="round" stroke-linejoin="round"/>
    <path d="M 50 158.45L 109 193.84L 143.51 212.1L 168 227.23L 186.99 234.7L 202.51 244.21L 215.63 248.49L 227 253.5L 245.99 261.27L 261.51 265.05L 274.63 269.71L 286 271.76L 304.99 276.62L 320.51 281.34L 333.63 283.8L 345 285.71L 363.99 283.3L 379.51 284.81L 392.63 285.71L 404 292.71L 422.99 292.42L 438.51 291.9L 451.63 293.23L 463 294.25L 481.99 295.63L 497.51 297.52L 510.63 297.24L 522 298.48L 540.99 298.78L 556.51 299.04L 569.63 299.38L 581 299.64L 599.99 300.05L 615.51 300.28L 628.63 301.16L 640 300.7L 658.99 300.8L 674.51 300.93L 687.63 301.33L 699 301.12L 717.99 301.18L 733.51 301.25L 746.63 301.42L 758 301.59L 776.99 301.38L 792.51 301.43L 805.63 301.44L 817 301.45L 835.99 301.59L 851.51 301.49L 864.63 301.44L 876 301.52L 894.99 301.49L 910.51 301.53L 923.63 301.43L 935 301.35L 953.99 301.21L 969.51 301.39L 982.63 301.1L 994 301.38L 1013 301.4L 1028.5 299.59L 1041.6 301.4L 1053 301.5L 1072 301.55L 1087.5 301.53L 1100.6 301.55L 1112 301.49L 1131 301.52L 1146.5 301.56L 1159.6 298.29L 1171 301.52L 1190 299.39L 1205.5 301.55L 1218.6 301.45L 1230 301.45" fill="none" stroke-width="4" stroke="#28CD41" stroke-opacity="1" stroke-linecap="round" stroke-linejoin="round"/>
    <path d="M 50 31.123L 109 73.547L 143.51 96.048L 168 111.09L 186.99 122.8L 202.51 131.96L 215.63 139.65L 227 144.77L 245.99 154.58L 261.51 161.85L 274.63 166.91L 286 168.44L 304.99 175.77L 320.51 171.94L 333.63 180.2L 345 178.73L 363.99 189.68L 379.51 181.57L 392.63 189.56L 404 186.43L 422.99 196.68L 438.51 186.92L 451.63 194.47L 463 190.19L 481.99 200L 497.51 188.17L 510.63 195.76L 522 191.17L 540.99 200.79L 556.51 189.43L 569.63 197.17L 581 192.41L 599.99 201.85L 615.51 190.29L 628.63 198L 640 192.98L 658.99 202.28L 674.51 190.5L 687.63 198.22L 699 193.22L 717.99 201.57L 733.51 185.27L 746.63 193.88L 758 189.93L 776.99 198.66L 792.51 185.56L 805.63 193.88L 817 188.95L 835.99 198.35L 851.51 184.6L 864.63 193.41L 876 189.08L 894.99 197.94L 910.51 184.81L 923.63 193.73L 935 189.19L 953.99 198.13L 969.51 185.16L 982.63 193.69L 994 188.85L 1013 198.59L 1028.5 184.54L 1041.6 193.78L 1053 188.86L 1072 197.5L 1087.5 183.28L 1100.6 190.63L 1112 183.96L 1131 193.73L 1146.5 180.65L 1159.6 188.9L 1171 185.1L 1190 192.57L 1205.5 180.89L 1218.6 190.59L 1230 179.08" fill="none" stroke-width="4" stroke="#007AFF" stroke-opacity="1" stroke-linecap="round" stroke-linejoin="round"/>
    <path d="M 50 180.37L 109 212.65L 143.51 230.06L 168 242.38L 186.99 251.11L 202.51 255.45L 215.63 261.8L 227 265.07L 245.99 270.79L 261.51 275.7L 274.63 278.73L 286 280.5L 304.99 288.83L 320.51 286.63L 333.63 288.49L 345 290.29L 363.99 285.72L 379.51 288.02L 392.63 300.35L 404 291.21L 422.99 292.15L 438.51 294.45L 451.63 295.46L 463 297.04L 481.99 297.25L 497.51 301.66L 510.63 298.07L 522 298.48L 540.99 300.98L 556.51 299.71L 569.63 301.56L 581 299.24L 599.99 301.5L 615.51 300.53L 628.63 300.82L 640 300.95L 658.99 301.03L 674.51 301.11L 687.63 301.17L 699 301.21L 717.99 301.29L 733.51 301.34L 746.63 301.44L 758 301.4L 776.99 301.43L 792.51 301.52L 805.63 301.46L 817 301.48L 835.99 301.49L 851.51 301.45L 864.63 301.52L 876 301.51L 894.99 301.45L 910.51 301.51L 923.63 301.58L 935 301.47L 953.99 301.56L 969.51 301.55L 982.63 301.55L 994 301.56L 1013 301.47L 1028.5 301.53L 1041.6 301.3L 1053 300.35L 1072 301.51L 1087.5 301.44L 1100.6 301.12L 1112 301.2L 1131 299.87L 1146.5 301.43L 1159.6 301.44L 1171 301.39L 1190 301.39L 1205.5 301.51L 1218.6 299.47L 1230 301.35" fill="none" stroke-width="4" stroke="#FF3B30" stroke-opacity="1" stroke-linecap="round" stroke-linejoin="round"/>
    <path d="M 50 230.2L 109 245.18L 143.51 262.54L 168 267.07L 186.99 271.64L 202.51 278.08L 215.63 280.18L 227 281.78L 245.99 286.28L 261.51 288.49L 274.63 289.32L 286 289.93L 304.99 293.81L 320.51 294.97L 333.63 295.81L 345 296.03L 363.99 293.95L 379.51 299.1L 392.63 304.14L 404 292.34L 422.99 294.7L 438.51 295.23L 451.63 297.66L 463 298.48L 481.99 297.74L 497.51 298.48L 510.63 301.63L 522 299.77L 540.99 301.32L 556.51 300.17L 569.63 301.56L 581 300.5L 599.99 300.69L 615.51 300.84L 628.63 301.52L 640 301.1L 658.99 301.15L 674.51 301.64L 687.63 301.39L 699 301.3L 717.99 301.36L 733.51 301.39L 746.63 301.47L 758 301.45L 776.99 301.47L 792.51 301.48L 805.63 301.71L 817 301.67L 835.99 301.61L 851.51 301.49L 864.63 301.53L 876 301.52L 894.99 301.56L 910.51 301.58L 923.63 301.54L 935 301.54L 953.99 301.59L 969.51 301.51L 982.63 301.56L 994 301.55L 1013 301.57L 1028.5 300.62L 1041.6 301.56L 1053 301.54L 1072 301.29L 1087.5 301.56L 1100.6 301.57L 1112 301.52L 1131 301.58L 1146.5 301.56L 1159.6 299.3L 1171 301.04L 1190 299.55L 1205.5 301.25L 1218.6 301.08L 1230 301.35" fill="none" stroke-width="0.5" stroke="#000000" stroke-opacity="0.30196" stroke-linecap="round" stroke-linejoin="round"/>
    <path d="M 50 230.2L 109 254.36L 143.51 260.13L 168 271.18L 186.99 275.25L 202.51 279.72L 215.63 281.6L 227 285.7L 245.99 288.2L 261.51 288.49L 274.63 291L 286 291.4L 304.99 293.81L 320.51 294.45L 333.63 296.27L 345 296.84L 363.99 292.97L 379.51 292.4L 392.63 303.62L 404 294.25L 422.99 295.55L 438.51 295.9L 451.63 296.95L 463 298.07L 481.99 298.57L 497.51 302.29L 510.63 300.59L 522 299.94L 540.99 300.09L 556.51 300.32L 569.63 300.98L 581 300.85L 599.99 300.82L 615.51 301.52L 628.63 301.26L 640 301.13L 658.99 301.26L 674.51 301.25L 687.63 301.52L 699 301.34L 717.99 301.53L 733.51 301.41L 746.63 301.49L 758 301.64L 776.99 301.69L 792.51 301.59L 805.63 301.52L 817 301.51L 835.99 301.53L 851.51 301.54L 864.63 301.54L 876 301.54L 894.99 301.55L 910.51 301.57L 923.63 301.48L 935 301.5L 953.99 301.52L 969.51 301.49L 982.63 301.46L 994 301.58L 1013 301.5L 1028.5 300.61L 1041.6 301.53L 1053 301.57L 1072 301.56L 1087.5 301.55L 1100.6 301.56L 1112 301.57L 1131 301.54L 1146.5 301.57L 1159.6 300.04L 1171 301.09L 1190 300.17L 1205.5 301.4L 1218.6 301.39L 1230 301.46" fill="none" stroke-width="0.5" stroke="#000000" stroke-opacity="0.30196" stroke-linecap="round" stroke-linejoin="round"/>
    <path d="M 50 158.49L 109 192.6L 143.51 212.1L 168 206.22L 186.99 217.21L 202.51 225.74L 215.63 232.01L 227 237.78L 245.99 248.65L 261.51 257.58L 274.63 257.69L 286 261.27L 304.99 267.44L 320.51 272.31L 333.63 276.01L 345 279.62L 363.99 282.94L 379.51 281.34L 392.63 283.61L 404 285.37L 422.99 287.08L 438.51 287.55L 451.63 291.61L 463 294.06L 481.99 293.07L 497.51 292.14L 510.63 292.96L 522 294.01L 540.99 295.95L 556.51 296.91L 569.63 297.51L 581 298.07L 599.99 298.46L 615.51 298.95L 628.63 299.52L 640 299.82L 658.99 299.98L 674.51 300.36L 687.63 300.54L 699 300.69L 717.99 300.92L 733.51 300.97L 746.63 300.99L 758 301.11L 776.99 301.17L 792.51 301.27L 805.63 301.31L 817 301.27L 835.99 301.41L 851.51 301.42L 864.63 301.44L 876 301.4L 894.99 301.48L 910.51 301.48L 923.63 301.53L 935 301.39L 953.99 301.52L 969.51 301.42L 982.63 301.45L 994 301.51L 1013 301.51L 1028.5 300.58L 1041.6 301.55L 1053 301.51L 1072 301.54L 1087.5 301.52L 1100.6 301.53L 1112 301.3L 1131 301.36L 1146.5 301.55L 1159.6 299.14L 1171 301.02L 1190 299.59L 1205.5 301.46L 1218.6 301.46L 1230 301.5" fill="none" stroke-width="0.5" stroke="#000000" stroke-opacity="0.30196" stroke-linecap="round" stroke-linejoin="round"/>
    <path d="M 50 158.45L 109 193.84L 143.51 212.1L 168 227.23L 186.99 234.7L 202.51 244.21L 215.63 248.49L 227 253.5L 245.99 261.27L 261.51 265.05L 274.63 269.71L 286 271.76L 304.99 276.62L 320.51 281.34L 333.63 283.8L 345 285.71L 363.99 283.3L 379.51 284.81L 392.63 285.71L 404 292.71L 422.99 292.42L 438.51 291.9L 451.63 293.23L 463 294.25L 481.99 295.63L 497.51 297.52L 510.63 297.24L 522 298.48L 540.99 298.78L 556.51 299.04L 569.63 299.38L 581 299.64L 599.99 300.05L 615.51 300.28L 628.63 301.16L 640 300.7L 658.99 300.8L 674.51 300.93L 687.63 301.33L 699 301.12L 717.99 301.18L 733.51 301.25L 746.63 301.42L 758 301.59L 776.99 301.38L 792.51 301.43L 805.63 301.44L 817 301.45L 835.99 301.59L 851.51 301.49L 864.63 301.44L 876 301.52L 894.99 301.49L 910.51 301.53L 923.63 301.43L 935 301.35L 953.99 301.21L 969.51 301.39L 982.63 301.1L 994 301.38L 1013 301.4L 1028.5 299.59L 1041.6 301.4L 1053 301.5L 1072 301.55L 1087.5 301.53L 1100.6 301.55L 1112 301.49L 1131 301.52L 1146.5 301.56L 1159.6 298.29L 1171 301.52L 1190 299.39L 1205.5 301.55L 1218.6 301.45L 1230 301.45" fill="none" stroke-width="0.5" stroke="#000000" stroke-opacity="0.30196" stroke-linecap="round" stroke-linejoin="round"/>
    <path d="M 50 31.123L 109 73.547L 143.51 96.048L 168 111.09L 186.99 122.8L 202.51 131.96L 215.63 139.65L 227 144.77L 245.99 154.58L 261.51 161.85L 274.63 166.91L 286 168.44L 304.99 175.77L 320.51 171.94L 333.63 180.2L 345 178.73L 363.99 189.68L 379.51 181.57L 392.63 189.56L 404 186.43L 422.99 196.68L 438.51 186.92L 451.63 194.47L 463 190.19L 481.99 200L 497.51 188.17L 510.63 195.76L 522 191.17L 540.99 200.79L 556.51 189.43L 569.63 197.17L 581 192.41L 599.99 201.85L 615.51 190.29L 628.63 198L 640 192.98L 658.99 202.28L 674.51 190.5L 687.63 198.22L 699 193.22L 717.99 201.57L 733.51 185.27L 746.63 193.88L 758 189.93L 776.99 198.66L 792.51 185.56L 805.63 193.88L 817 188.95L 835.99 198.35L 851.51 184.6L 864.63 193.41L 876 189.08L 894.99 197.94L 910.51 184.81L 923.63 193.73L 935 189.19L 953.99 198.13L 969.51 185.16L 982.63 193.69L 994 188.85L 1013 198.59L 1028.5 184.54L 1041.6 193.78L 1053 188.86L 1072 197.5L 1087.5 183.28L 1100.6 190.63L 1112 183.96L 1131 193.73L 1146.5 180.65L 1159.6 188.9L 1171 185.1L 1190 192.57L 1205.5 180.89L 1218.6 190.59L 1230 179.08" fill="none" stroke-width="0.5" stroke="#000000" stroke-opacity="0.30196" stroke-linecap="round" stroke-linejoin="round"/>
    <path d="M 50 180.37L 109 212.65L 143.51 230.06L 168 242.38L 186.99 251.11L 202.51 255.45L 215.63 261.8L 227 265.07L 245.99 270.79L 261.51 275.7L 274.63 278.73L 286 280.5L 304.99 288.83L 320.51 286.63L 333.63 288.49L 345 290.29L 363.99 285.72L 379.51 288.02L 392.63 300.35L 404 291.21L 422.99 292.15L 438.51 294.45L 451.63 295.46L 463 297.04L 481.99 297.25L 497.51 301.66L 510.63 298.07L 522 298.48L 540.99 300.98L 556.51 299.71L 569.63 301.56L 581 299.24L 599.99 301.5L 615.51 300.53L 628.63 300.82L 640 300.95L 658.99 301.03L 674.51 301.11L 687.63 301.17L 699 301.21L 717.99 301.29L 733.51 301.34L 746.63 301.44L 758 301.4L 776.99 301.43L 792.51 301.52L 805.63 301.46L 817 301.48L 835.99 301.49L 851.51 301.45L 864.63 301.52L 876 301.51L 894.99 301.45L 910.51 301.51L 923.63 301.58L 935 301.47L 953.99 301.56L 969.51 301.55L 982.63 301.55L 994 301.56L 1013 301.47L 1028.5 301.53L 1041.6 301.3L 1053 300.35L 1072 301.51L 1087.5 301.44L 1100.6 301.12L 1112 301.2L 1131 299.87L 1146.5 301.43L 1159.6 301.44L 1171 301.39L 1190 301.39L 1205.5 301.51L 1218.6 299.47L 1230 301.35" fill="none" stroke-width="0.5" stroke="#000000" stroke-opacity="0.30196" stroke-linecap="round" stroke-linejoin="round"/>
  </g>
  <path d="M 74 33 L 74 156 L 543 156 L 543 33 z" fill="#FFFFFF" fill-opacity="0.7019607843137254" stroke-width="0.5" stroke="#000000" stroke-opacity="1" stroke-linecap="round" stroke-linejoin="round"/>
  <path d="M 88 52 L 108 52" fill="none" stroke-width="4" stroke="#FF3B30" stroke-opacity="1" stroke-linecap="round" stroke-linejoin="round"/>
  <path d="M 88 52 L 108 52" fill="none" stroke-width="0.5" stroke="#000000" stroke-opacity="0.30196" stroke-linecap="round" stroke-linejoin="round"/>
  <text x="119" y="56.17" font-family="Menlo" font-size="12" font-weight="normal" font-style="normal" fill="#000000" fill-opacity="1">Array&lt;Int&gt; sequential iteration</text>
  <path d="M 88 69 L 108 69" fill="none" stroke-width="4" stroke="#007AFF" stroke-opacity="1" stroke-linecap="round" stroke-linejoin="round"/>
  <path d="M 88 69 L 108 69" fill="none" stroke-width="0.5" stroke="#000000" stroke-opacity="0.30196" stroke-linecap="round" stroke-linejoin="round"/>
  <text x="119" y="73.17" font-family="Menlo" font-size="12" font-weight="normal" font-style="normal" fill="#000000" fill-opacity="1">TreeArray&lt;Int&gt; sequential iteration</text>
  <path d="M 88 86 L 108 86" fill="none" stroke-width="4" stroke="#28CD41" stroke-opacity="1" stroke-linecap="round" stroke-linejoin="round"/>
  <path d="M 88 86 L 108 86" fill="none" stroke-width="0.5" stroke="#000000" stroke-opacity="0.30196" stroke-linecap="round" stroke-linejoin="round"/>
  <text x="119" y="90.17" font-family="Menlo" font-size="12" font-weight="normal" font-style="normal" fill="#000000" fill-opacity="1">Deque&lt;Int&gt; sequential iteration (contiguous, iterator)</text>
  <path d="M 88 103 L 108 103" fill="none" stroke-width="4" stroke="#FFCC00" stroke-opacity="1" stroke-linecap="round" stroke-linejoin="round"/>
  <path d="M 88 103 L 108 103" fill="none" stroke-width="0.5" stroke="#000000" stroke-opacity="0.30196" stroke-linecap="round" stroke-linejoin="round"/>
  <text x="119" y="107.17" font-family="Menlo" font-size="12" font-weight="normal" font-style="normal" fill="#000000" fill-opacity="1">Deque&lt;Int&gt; sequential iteration (discontiguous, iterator)</text>
  <path d="M 88 120 L 108 120" fill="none" stroke-width="4" stroke="#5856D6" stroke-opacity="1" stroke-linecap="round" stroke-linejoin="round"/>
  <path d="M 88 120 L 108 120" fill="none" stroke-width="0.5" stroke="#000000" stroke-opacity="0.30196" stroke-linecap="round" stroke-linejoin="round"/>
  <text x="119" y="124.17" font-family="Menlo" font-size="12" font-weight="normal" font-style="normal" fill="#000000" fill-opacity="1">Deque&lt;Int&gt; sequential iteration (contiguous, indices)</text>
  <path d="M 88 137 L 108 137" fill="none" stroke-width="4" stroke="#FF9500" stroke-opacity="1" stroke-linecap="round" stroke-linejoin="round"/>
  <path d="M 88 137 L 108 137" fill="none" stroke-width="0.5" stroke="#000000" stroke-opacity="0.30196" stroke-linecap="round" stroke-linejoin="round"/>
  <text x="119" y="141.17" font-family="Menlo" font-size="12" font-weight="normal" font-style="normal" fill="#000000" fill-opacity="1">Deque&lt;Int&gt; sequential iteration (discontiguous, indices)</text>
  <path d="M 50 9 L 50 441 L 1230 441 L 1230 9 z" fill="none" stroke-width="0.5" stroke="#000000" stroke-opacity="1" stroke-linecap="round" stroke-linejoin="round"/>
</svg>
