<!DOCTYPE svg PUBLIC "-//W3C//DTD SVG 1.1//EN" "http://www.w3.org/Graphics/SVG/1.1/DTD/svg11.dtd">
<svg width="1280.0px" height="480.0px" viewBox="0.0 0.0 1280.0 480.0" xmlns="http://www.w3.org/2000/svg" xmlns:xlink="http://www.w3.org/1999/xlink" version="1.1">
  <path d="M 0 0 L 0 480 L 1280 480 L 1280 0 z" fill="#FFFFFF" fill-opacity="1.0" stroke="none"/>
  <text x="50" y="468.7" font-family="Helvetica" font-size="10" font-weight="normal" font-style="normal" fill="#000000" fill-opacity="1">Average per-element processing time over input size (bands: min, mean, mean + 2stddev)</text>
  <a xlink:href="https://github.com/apple/swift-collections-benchmark"><text x="1107" y="468.7" font-family="Helvetica" font-size="10" font-weight="normal" font-style="normal" fill="#000000" fill-opacity="1">swift-collections-benchmark</text></a>
  <path d="M 50 9 L 50 441" fill="none" stroke-width="0.75" stroke="#000000" stroke-opacity="0.49804" stroke-linecap="butt" stroke-linejoin="round"/>
  <text x="47" y="453.7" font-family="Helvetica" font-size="10" font-weight="normal" font-style="normal" fill="#000000" fill-opacity="1">1</text>
  <path d="M 109 9 L 109 441" fill="none" stroke-width="0.75" stroke="#000000" stroke-opacity="0.49804" stroke-linecap="butt" stroke-linejoin="round"/>
  <text x="106" y="453.7" font-family="Helvetica" font-size="10" font-weight="normal" font-style="normal" fill="#000000" fill-opacity="1">2</text>
  <path d="M 168 9 L 168 441" fill="none" stroke-width="0.75" stroke="#000000" stroke-opacity="0.49804" stroke-linecap="butt" stroke-linejoin="round"/>
  <text x="165" y="453.7" font-family="Helvetica" font-size="10" font-weight="normal" font-style="normal" fill="#000000" fill-opacity="1">4</text>
  <path d="M 227 9 L 227 441" fill="none" stroke-width="0.75" stroke="#000000" stroke-opacity="0.49804" stroke-linecap="butt" stroke-linejoin="round"/>
  <text x="224" y="453.7" font-family="Helvetica" font-size="10" font-weight="normal" font-style="normal" fill="#000000" fill-opacity="1">8</text>
  <path d="M 286 9 L 286 441" fill="none" stroke-width="0.75" stroke="#000000" stroke-opacity="0.49804" stroke-linecap="butt" stroke-linejoin="round"/>
  <text x="280" y="453.7" font-family="Helvetica" font-size="10" font-weight="normal" font-style="normal" fill="#000000" fill-opacity="1">16</text>
  <path d="M 345 9 L 345 441" fill="none" stroke-width="0.75" stroke="#000000" stroke-opacity="0.49804" stroke-linecap="butt" stroke-linejoin="round"/>
  <text x="339" y="453.7" font-family="Helvetica" font-size="10" font-weight="normal" font-style="normal" fill="#000000" fill-opacity="1">32</text>
  <path d="M 404 9 L 404 441" fill="none" stroke-width="0.75" stroke="#000000" stroke-opacity="0.49804" stroke-linecap="butt" stroke-linejoin="round"/>
  <text x="398" y="453.7" font-family="Helvetica" font-size="10" font-weight="normal" font-style="normal" fill="#000000" fill-opacity="1">64</text>
  <path d="M 463 9 L 463 441" fill="none" stroke-width="0.75" stroke="#000000" stroke-opacity="0.49804" stroke-linecap="butt" stroke-linejoin="round"/>
  <text x="454.5" y="453.7" font-family="Helvetica" font-size="10" font-weight="normal" font-style="normal" fill="#000000" fill-opacity="1">128</text>
  <path d="M 522 9 L 522 441" fill="none" stroke-width="0.75" stroke="#000000" stroke-opacity="0.49804" stroke-linecap="butt" stroke-linejoin="round"/>
  <text x="513.5" y="453.7" font-family="Helvetica" font-size="10" font-weight="normal" font-style="normal" fill="#000000" fill-opacity="1">256</text>
  <path d="M 581 9 L 581 441" fill="none" stroke-width="0.75" stroke="#000000" stroke-opacity="0.49804" stroke-linecap="butt" stroke-linejoin="round"/>
  <text x="572.5" y="453.7" font-family="Helvetica" font-size="10" font-weight="normal" font-style="normal" fill="#000000" fill-opacity="1">512</text>
  <path d="M 640 9 L 640 441" fill="none" stroke-width="0.75" stroke="#000000" stroke-opacity="0.49804" stroke-linecap="butt" stroke-linejoin="round"/>
  <text x="634.5" y="453.7" font-family="Helvetica" font-size="10" font-weight="normal" font-style="normal" fill="#000000" fill-opacity="1">1k</text>
  <path d="M 699 9 L 699 441" fill="none" stroke-width="0.75" stroke="#000000" stroke-opacity="0.49804" stroke-linecap="butt" stroke-linejoin="round"/>
  <text x="693.5" y="453.7" font-family="Helvetica" font-size="10" font-weight="normal" font-style="normal" fill="#000000" fill-opacity="1">2k</text>
  <path d="M 758 9 L 758 441" fill="none" stroke-width="0.75" stroke="#000000" stroke-opacity="0.49804" stroke-linecap="butt" stroke-linejoin="round"/>
  <text x="752.5" y="453.7" font-family="Helvetica" font-size="10" font-weight="normal" font-style="normal" fill="#000000" fill-opacity="1">4k</text>
  <path d="M 817 9 L 817 441" fill="none" stroke-width="0.75" stroke="#000000" stroke-opacity="0.49804" stroke-linecap="butt" stroke-linejoin="round"/>
  <text x="811.5" y="453.7" font-family="Helvetica" font-size="10" font-weight="normal" font-style="normal" fill="#000000" fill-opacity="1">8k</text>
  <path d="M 876 9 L 876 441" fill="none" stroke-width="0.75" stroke="#000000" stroke-opacity="0.49804" stroke-linecap="butt" stroke-linejoin="round"/>
  <text x="867.5" y="453.7" font-family="Helvetica" font-size="10" font-weight="normal" font-style="normal" fill="#000000" fill-opacity="1">16k</text>
  <path d="M 935 9 L 935 441" fill="none" stroke-width="0.75" stroke="#000000" stroke-opacity="0.49804" stroke-linecap="butt" stroke-linejoin="round"/>
  <text x="926.5" y="453.7" font-family="Helvetica" font-size="10" font-weight="normal" font-style="normal" fill="#000000" fill-opacity="1">32k</text>
  <path d="M 994 9 L 994 441" fill="none" stroke-width="0.75" stroke="#000000" stroke-opacity="0.49804" stroke-linecap="butt" stroke-linejoin="round"/>
  <text x="985.5" y="453.7" font-family="Helvetica" font-size="10" font-weight="normal" font-style="normal" fill="#000000" fill-opacity="1">64k</text>
  <path d="M 1053 9 L 1053 441" fill="none" stroke-width="0.75" stroke="#000000" stroke-opacity="0.49804" stroke-linecap="butt" stroke-linejoin="round"/>
  <text x="1042" y="453.7" font-family="Helvetica" font-size="10" font-weight="normal" font-style="normal" fill="#000000" fill-opacity="1">128k</text>
  <path d="M 1112 9 L 1112 441" fill="none" stroke-width="0.75" stroke="#000000" stroke-opacity="0.49804" stroke-linecap="butt" stroke-linejoin="round"/>
  <text x="1101" y="453.7" font-family="Helvetica" font-size="10" font-weight="normal" font-style="normal" fill="#000000" fill-opacity="1">256k</text>
  <path d="M 1171 9 L 1171 441" fill="none" stroke-width="0.75" stroke="#000000" stroke-opacity="0.49804" stroke-linecap="butt" stroke-linejoin="round"/>
  <text x="1160" y="453.7" font-family="Helvetica" font-size="10" font-weight="normal" font-style="normal" fill="#000000" fill-opacity="1">512k</text>
  <path d="M 1230 9 L 1230 441" fill="none" stroke-width="0.75" stroke="#000000" stroke-opacity="0.49804" stroke-linecap="butt" stroke-linejoin="round"/>
  <text x="1223" y="453.7" font-family="Helvetica" font-size="10" font-weight="normal" font-style="normal" fill="#000000" fill-opacity="1">1M</text>
  <path d="M 50 441 L 1230 441" fill="none" stroke-width="0.75" stroke="#000000" stroke-opacity="0.49804" stroke-linecap="butt" stroke-linejoin="round"/>
  <text x="16" y="442.7" font-family="Helvetica" font-size="10" font-weight="normal" font-style="normal" fill="#000000" fill-opacity="1">100 ps</text>
  <text x="1236" y="442.7" font-family="Helvetica" font-size="10" font-weight="normal" font-style="normal" fill="#000000" fill-opacity="1">100 ps</text>
  <path d="M 50 333 L 1230 333" fill="none" stroke-width="0.75" stroke="#000000" stroke-opacity="0.49804" stroke-linecap="butt" stroke-linejoin="round"/>
  <text x="27" y="334.7" font-family="Helvetica" font-size="10" font-weight="normal" font-style="normal" fill="#000000" fill-opacity="1">1 ns</text>
  <text x="1236" y="334.7" font-family="Helvetica" font-size="10" font-weight="normal" font-style="normal" fill="#000000" fill-opacity="1">1 ns</text>
  <path d="M 50 225 L 1230 225" fill="none" stroke-width="0.75" stroke="#000000" stroke-opacity="0.49804" stroke-linecap="butt" stroke-linejoin="round"/>
  <text x="21" y="226.7" font-family="Helvetica" font-size="10" font-weight="normal" font-style="normal" fill="#000000" fill-opacity="1">10 ns</text>
  <text x="1236" y="226.7" font-family="Helvetica" font-size="10" font-weight="normal" font-style="normal" fill="#000000" fill-opacity="1">10 ns</text>
  <path d="M 50 117 L 1230 117" fill="none" stroke-width="0.75" stroke="#000000" stroke-opacity="0.49804" stroke-linecap="butt" stroke-linejoin="round"/>
  <text x="16" y="118.7" font-family="Helvetica" font-size="10" font-weight="normal" font-style="normal" fill="#000000" fill-opacity="1">100 ns</text>
  <text x="1236" y="118.7" font-family="Helvetica" font-size="10" font-weight="normal" font-style="normal" fill="#000000" fill-opacity="1">100 ns</text>
  <path d="M 50 9 L 1230 9" fill="none" stroke-width="0.75" stroke="#000000" stroke-opacity="0.49804" stroke-linecap="butt" stroke-linejoin="round"/>
  <text x="26" y="10.7" font-family="Helvetica" font-size="10" font-weight="normal" font-style="normal" fill="#000000" fill-opacity="1">1 µs</text>
  <text x="1236" y="10.7" font-family="Helvetica" font-size="10" font-weight="normal" font-style="normal" fill="#000000" fill-opacity="1">1 µs</text>
  <path d="M 50 408.49 L 1230 408.49" fill="none" stroke-width="0.5" stroke="#000000" stroke-opacity="0.25882" stroke-linecap="butt" stroke-linejoin="round" stroke-dasharray="6 3" stroke-dashoffset="0"/>
  <path d="M 50 375.98 L 1230 375.98" fill="none" stroke-width="0.5" stroke="#000000" stroke-opacity="0.25882" stroke-linecap="butt" stroke-linejoin="round" stroke-dasharray="6 3" stroke-dashoffset="0"/>
  <path d="M 50 343.47 L 1230 343.47" fill="none" stroke-width="0.5" stroke="#000000" stroke-opacity="0.25882" stroke-linecap="butt" stroke-linejoin="round" stroke-dasharray="6 3" stroke-dashoffset="0"/>
  <path d="M 50 310.96 L 1230 310.96" fill="none" stroke-width="0.5" stroke="#000000" stroke-opacity="0.25882" stroke-linecap="butt" stroke-linejoin="round" stroke-dasharray="6 3" stroke-dashoffset="0"/>
  <path d="M 50 278.44 L 1230 278.44" fill="none" stroke-width="0.5" stroke="#000000" stroke-opacity="0.25882" stroke-linecap="butt" stroke-linejoin="round" stroke-dasharray="6 3" stroke-dashoffset="0"/>
  <path d="M 50 245.93 L 1230 245.93" fill="none" stroke-width="0.5" stroke="#000000" stroke-opacity="0.25882" stroke-linecap="butt" stroke-linejoin="round" stroke-dasharray="6 3" stroke-dashoffset="0"/>
  <path d="M 50 213.42 L 1230 213.42" fill="none" stroke-width="0.5" stroke="#000000" stroke-opacity="0.25882" stroke-linecap="butt" stroke-linejoin="round" stroke-dasharray="6 3" stroke-dashoffset="0"/>
  <path d="M 50 180.91 L 1230 180.91" fill="none" stroke-width="0.5" stroke="#000000" stroke-opacity="0.25882" stroke-linecap="butt" stroke-linejoin="round" stroke-dasharray="6 3" stroke-dashoffset="0"/>
  <path d="M 50 148.4 L 1230 148.4" fill="none" stroke-width="0.5" stroke="#000000" stroke-opacity="0.25882" stroke-linecap="butt" stroke-linejoin="round" stroke-dasharray="6 3" stroke-dashoffset="0"/>
  <path d="M 50 115.89 L 1230 115.89" fill="none" stroke-width="0.5" stroke="#000000" stroke-opacity="0.25882" stroke-linecap="butt" stroke-linejoin="round" stroke-dasharray="6 3" stroke-dashoffset="0"/>
  <path d="M 50 83.376 L 1230 83.376" fill="none" stroke-width="0.5" stroke="#000000" stroke-opacity="0.25882" stroke-linecap="butt" stroke-linejoin="round" stroke-dasharray="6 3" stroke-dashoffset="0"/>
  <path d="M 50 50.865 L 1230 50.865" fill="none" stroke-width="0.5" stroke="#000000" stroke-opacity="0.25882" stroke-linecap="butt" stroke-linejoin="round" stroke-dasharray="6 3" stroke-dashoffset="0"/>
  <path d="M 50 18.354 L 1230 18.354" fill="none" stroke-width="0.5" stroke="#000000" stroke-opacity="0.25882" stroke-linecap="butt" stroke-linejoin="round" stroke-dasharray="6 3" stroke-dashoffset="0"/>
  <path d="M 74 33 L 74 88 L 384 88 L 384 33 z" fill="#FFFFFF" fill-opacity="1.0" stroke="none"/>
  <clipPath id="clip-0">
    <path d="M 50 9 L 50 441 L 1230 441 L 1230 9 z"/>
  </clipPath>
  <g clip-path="url(#clip-0)">
    <path d="M 50 113.8L 109 152.96L 143.51 170.12L 168 180.69L 186.99 188.45L 202.51 195.24L 215.63 201.79L 227 207.8L 245.99 215.64L 261.51 221.55L 274.63 225.58L 286 229.35L 304.99 235.11L 320.51 239.59L 333.63 243.09L 345 244.39L 363.99 249.38L 379.51 250.51L 392.63 252.55L 404 252.33L 422.99 255.58L 438.51 257.19L 451.63 258.08L 463 259.1L 481.99 261.33L 497.51 260.37L 510.63 260.39L 522 261.23L 540.99 262.94L 556.51 261.6L 569.63 259.03L 581 262.65L 599.99 264.11L 615.51 262.58L 628.63 259.32L 640 263.33L 658.99 264.61L 674.51 262.95L 687.63 261.09L 699 263.23L 717.99 262.37L 733.51 259.04L 746.63 253.43L 758 260.31L 776.99 261.6L 792.51 259.85L 805.63 253.92L 817 258.75L 835.99 259.34L 851.51 255.69L 864.63 258.14L 876 260.13L 894.99 259.93L 910.51 253.85L 923.63 251.43L 935 259.91L 953.99 261.48L 969.51 258.86L 982.63 254.86L 994 259.06L 1013 261.57L 1028.5 258.55L 1041.6 249.33L 1053 256.3L 1072 255.79L 1087.5 254.32L 1100.6 250.77L 1112 255.04L 1131 257.53L 1146.5 255.13L 1159.6 250.78L 1171 251.6L 1190 252.63L 1205.5 251.62L 1218.6 248.44L 1230 256.59L 1230 256.66L 1218.6 253.61L 1205.5 257.23L 1190 257.19L 1171 256.31L 1159.6 256.08L 1146.5 257.13L 1131 259.29L 1112 257.98L 1100.6 255.43L 1087.5 256.55L 1072 260.13L 1053 260.41L 1041.6 259.81L 1028.5 259.2L 1013 261.75L 994 260.31L 982.63 257.86L 969.51 259.11L 953.99 261.62L 935 260.46L 923.63 259.43L 910.51 258.29L 894.99 261.29L 876 260.52L 864.63 258.46L 851.51 260.35L 835.99 262.12L 817 260.27L 805.63 259.95L 792.51 260.39L 776.99 261.99L 758 260.49L 746.63 258.08L 733.51 260.35L 717.99 262.71L 699 263.55L 687.63 261.17L 674.51 262.97L 658.99 264.83L 640 263.35L 628.63 262.88L 615.51 262.58L 599.99 264.12L 581 262.68L 569.63 262.15L 556.51 261.73L 540.99 263.07L 522 261.26L 510.63 260.43L 497.51 260.45L 481.99 261.38L 463 259.1L 451.63 258.14L 438.51 257.19L 422.99 257.32L 404 254.04L 392.63 252.55L 379.51 250.91L 363.99 249.53L 345 244.57L 333.63 243.29L 320.51 239.59L 304.99 235.34L 286 229.35L 274.63 225.85L 261.51 221.55L 245.99 215.64L 227 207.81L 215.63 203.45L 202.51 196.93L 186.99 190.2L 168 181.06L 143.51 170.12L 109 152.96L 50 123.04" fill="#007AFF" fill-opacity="0.30196078431372547" stroke="none"/>
    <path d="M 50 247.04L 109 268.51L 143.51 280.78L 168 292.04L 186.99 295.11L 202.51 301.84L 215.63 304.39L 227 309.05L 245.99 311.59L 261.51 308.57L 274.63 318.4L 286 320.46L 304.99 322.62L 320.51 325.22L 333.63 325.46L 345 312.65L 363.99 323.44L 379.51 326.27L 392.63 326.62L 404 325.99L 422.99 329.05L 438.51 339.82L 451.63 327.15L 463 329.91L 481.99 332.76L 497.51 332.73L 510.63 331.66L 522 334.11L 540.99 332.18L 556.51 334.51L 569.63 334.77L 581 335.01L 599.99 335.27L 615.51 334.33L 628.63 335.6L 640 335.73L 658.99 335.86L 674.51 335.53L 687.63 336.39L 699 336.1L 717.99 335.89L 733.51 336.2L 746.63 336.38L 758 336.29L 776.99 336.3L 792.51 336.22L 805.63 336.3L 817 336.33L 835.99 336.37L 851.51 336.36L 864.63 336.38L 876 334.59L 894.99 336.35L 910.51 336.34L 923.63 336.33L 935 335.34L 953.99 336.27L 969.51 336.25L 982.63 336.12L 994 336.24L 1013 335.92L 1028.5 334.8L 1041.6 336.2L 1053 336.35L 1072 334.86L 1087.5 336.17L 1100.6 336.14L 1112 334.57L 1131 335.83L 1146.5 330.81L 1159.6 336.19L 1171 335.85L 1190 335.83L 1205.5 336.31L 1218.6 336.36L 1230 336.35L 1230 336.38L 1218.6 336.38L 1205.5 336.41L 1190 335.97L 1171 336.4L 1159.6 336.4L 1146.5 336.18L 1131 336.27L 1112 336.26L 1100.6 336.19L 1087.5 336.28L 1072 336.43L 1053 336.41L 1041.6 336.39L 1028.5 336.36L 1013 336.42L 994 336.36L 982.63 336.28L 969.51 336.45L 953.99 336.36L 935 336.4L 923.63 336.4L 910.51 336.39L 894.99 336.38L 876 336.38L 864.63 336.39L 851.51 336.4L 835.99 336.37L 817 336.36L 805.63 336.4L 792.51 336.45L 776.99 336.32L 758 336.29L 746.63 336.41L 733.51 336.28L 717.99 336.52L 699 336.14L 687.63 336.39L 674.51 336.78L 658.99 336.08L 640 335.97L 628.63 335.91L 615.51 335.65L 599.99 335.7L 581 335.54L 569.63 335.38L 556.51 335.22L 540.99 337.29L 522 334.11L 510.63 336.36L 497.51 334.11L 481.99 332.76L 463 334.11L 451.63 332.45L 438.51 339.82L 422.99 329.47L 404 329.64L 392.63 326.62L 379.51 326.27L 363.99 325.77L 345 352.76L 333.63 326.62L 320.51 325.22L 304.99 324.12L 286 320.81L 274.63 319.3L 261.51 326.9L 245.99 313.98L 227 309.05L 215.63 307.41L 202.51 301.84L 186.99 298.6L 168 292.04L 143.51 285.1L 109 268.51L 50 247.04" fill="#FF3B30" fill-opacity="0.30196078431372547" stroke="none"/>
    <path d="M 50 120.45L 109 152.96L 143.51 170.12L 168 180.96L 186.99 189.74L 202.51 196.48L 215.63 203.01L 227 207.81L 245.99 215.64L 261.51 221.55L 274.63 225.78L 286 229.35L 304.99 235.28L 320.51 239.59L 333.63 243.24L 345 244.52L 363.99 249.49L 379.51 250.81L 392.63 252.55L 404 253.59L 422.99 256.86L 438.51 257.19L 451.63 258.13L 463 259.1L 481.99 261.37L 497.51 260.43L 510.63 260.42L 522 261.25L 540.99 263.03L 556.51 261.69L 569.63 261.31L 581 262.67L 599.99 264.12L 615.51 262.58L 628.63 261.92L 640 263.34L 658.99 264.77L 674.51 262.96L 687.63 261.15L 699 263.46L 717.99 262.62L 733.51 260L 746.63 256.82L 758 260.45L 776.99 261.89L 792.51 260.25L 805.63 258.3L 817 259.87L 835.99 261.38L 851.51 259.08L 864.63 258.37L 876 260.42L 894.99 260.93L 910.51 257.09L 923.63 257.2L 935 260.32L 953.99 261.58L 969.51 259.04L 982.63 257.06L 994 259.98L 1013 261.7L 1028.5 259.03L 1041.6 256.84L 1053 259.3L 1072 258.96L 1087.5 255.95L 1100.6 254.17L 1112 257.2L 1131 258.83L 1146.5 256.6L 1159.6 254.63L 1171 255.03L 1190 255.95L 1205.5 255.69L 1218.6 252.21L 1230 256.64" fill="none" stroke-width="4" stroke="#007AFF" stroke-opacity="1" stroke-linecap="round" stroke-linejoin="round"/>
    <path d="M 50 247.04L 109 268.51L 143.51 283.93L 168 292.04L 186.99 297.67L 202.51 301.84L 215.63 306.6L 227 309.05L 245.99 313.35L 261.51 321.38L 274.63 319.06L 286 320.72L 304.99 323.72L 320.51 325.22L 333.63 326.31L 345 338.57L 363.99 325.15L 379.51 326.27L 392.63 326.62L 404 328.66L 422.99 329.36L 438.51 339.82L 451.63 331L 463 332.98L 481.99 332.76L 497.51 333.75L 510.63 335.09L 522 334.11L 540.99 335.9L 556.51 335.03L 569.63 335.22L 581 335.4L 599.99 335.59L 615.51 335.3L 628.63 335.83L 640 335.91L 658.99 336.02L 674.51 336.45L 687.63 336.39L 699 336.13L 717.99 336.35L 733.51 336.26L 746.63 336.4L 758 336.29L 776.99 336.31L 792.51 336.39L 805.63 336.37L 817 336.35L 835.99 336.37L 851.51 336.39L 864.63 336.39L 876 335.91L 894.99 336.37L 910.51 336.38L 923.63 336.38L 935 336.12L 953.99 336.34L 969.51 336.4L 982.63 336.24L 994 336.33L 1013 336.29L 1028.5 335.95L 1041.6 336.34L 1053 336.4L 1072 336.01L 1087.5 336.25L 1100.6 336.18L 1112 335.81L 1131 336.16L 1146.5 334.71L 1159.6 336.34L 1171 336.25L 1190 335.93L 1205.5 336.38L 1218.6 336.37L 1230 336.37" fill="none" stroke-width="4" stroke="#FF3B30" stroke-opacity="1" stroke-linecap="round" stroke-linejoin="round"/>
    <path d="M 50 120.45L 109 152.96L 143.51 170.12L 168 180.96L 186.99 189.74L 202.51 196.48L 215.63 203.01L 227 207.81L 245.99 215.64L 261.51 221.55L 274.63 225.78L 286 229.35L 304.99 235.28L 320.51 239.59L 333.63 243.24L 345 244.52L 363.99 249.49L 379.51 250.81L 392.63 252.55L 404 253.59L 422.99 256.86L 438.51 257.19L 451.63 258.13L 463 259.1L 481.99 261.37L 497.51 260.43L 510.63 260.42L 522 261.25L 540.99 263.03L 556.51 261.69L 569.63 261.31L 581 262.67L 599.99 264.12L 615.51 262.58L 628.63 261.92L 640 263.34L 658.99 264.77L 674.51 262.96L 687.63 261.15L 699 263.46L 717.99 262.62L 733.51 260L 746.63 256.82L 758 260.45L 776.99 261.89L 792.51 260.25L 805.63 258.3L 817 259.87L 835.99 261.38L 851.51 259.08L 864.63 258.37L 876 260.42L 894.99 260.93L 910.51 257.09L 923.63 257.2L 935 260.32L 953.99 261.58L 969.51 259.04L 982.63 257.06L 994 259.98L 1013 261.7L 1028.5 259.03L 1041.6 256.84L 1053 259.3L 1072 258.96L 1087.5 255.95L 1100.6 254.17L 1112 257.2L 1131 258.83L 1146.5 256.6L 1159.6 254.63L 1171 255.03L 1190 255.95L 1205.5 255.69L 1218.6 252.21L 1230 256.64" fill="none" stroke-width="0.5" stroke="#000000" stroke-opacity="0.30196" stroke-linecap="round" stroke-linejoin="round"/>
    <path d="M 50 247.04L 109 268.51L 143.51 283.93L 168 292.04L 186.99 297.67L 202.51 301.84L 215.63 306.6L 227 309.05L 245.99 313.35L 261.51 321.38L 274.63 319.06L 286 320.72L 304.99 323.72L 320.51 325.22L 333.63 326.31L 345 338.57L 363.99 325.15L 379.51 326.27L 392.63 326.62L 404 328.66L 422.99 329.36L 438.51 339.82L 451.63 331L 463 332.98L 481.99 332.76L 497.51 333.75L 510.63 335.09L 522 334.11L 540.99 335.9L 556.51 335.03L 569.63 335.22L 581 335.4L 599.99 335.59L 615.51 335.3L 628.63 335.83L 640 335.91L 658.99 336.02L 674.51 336.45L 687.63 336.39L 699 336.13L 717.99 336.35L 733.51 336.26L 746.63 336.4L 758 336.29L 776.99 336.31L 792.51 336.39L 805.63 336.37L 817 336.35L 835.99 336.37L 851.51 336.39L 864.63 336.39L 876 335.91L 894.99 336.37L 910.51 336.38L 923.63 336.38L 935 336.12L 953.99 336.34L 969.51 336.4L 982.63 336.24L 994 336.33L 1013 336.29L 1028.5 335.95L 1041.6 336.34L 1053 336.4L 1072 336.01L 1087.5 336.25L 1100.6 336.18L 1112 335.81L 1131 336.16L 1146.5 334.71L 1159.6 336.34L 1171 336.25L 1190 335.93L 1205.5 336.38L 1218.6 336.37L 1230 336.37" fill="none" stroke-width="0.5" stroke="#000000" stroke-opacity="0.30196" stroke-linecap="round" stroke-linejoin="round"/>
  </g>
  <path d="M 74 33 L 74 88 L 384 88 L 384 33 z" fill="#FFFFFF" fill-opacity="0.7019607843137254" stroke-width="0.5" stroke="#000000" stroke-opacity="1" stroke-linecap="round" stroke-linejoin="round"/>
  <path d="M 88 52 L 108 52" fill="none" stroke-width="4" stroke="#FF3B30" stroke-opacity="1" stroke-linecap="round" stroke-linejoin="round"/>
  <path d="M 88 52 L 108 52" fill="none" stroke-width="0.5" stroke="#000000" stroke-opacity="0.30196" stroke-linecap="round" stroke-linejoin="round"/>
  <text x="119" y="56.17" font-family="Menlo" font-size="12" font-weight="normal" font-style="normal" fill="#000000" fill-opacity="1">Array&lt;Int&gt; sequential iteration</text>
  <path d="M 88 69 L 108 69" fill="none" stroke-width="4" stroke="#007AFF" stroke-opacity="1" stroke-linecap="round" stroke-linejoin="round"/>
  <path d="M 88 69 L 108 69" fill="none" stroke-width="0.5" stroke="#000000" stroke-opacity="0.30196" stroke-linecap="round" stroke-linejoin="round"/>
  <text x="119" y="73.17" font-family="Menlo" font-size="12" font-weight="normal" font-style="normal" fill="#000000" fill-opacity="1">TreeArray&lt;Int&gt; sequential iteration</text>
  <path d="M 50 9 L 50 441 L 1230 441 L 1230 9 z" fill="none" stroke-width="0.5" stroke="#000000" stroke-opacity="1" stroke-linecap="round" stroke-linejoin="round"/>
</svg>
