<!DOCTYPE svg PUBLIC "-//W3C//DTD SVG 1.1//EN" "http://www.w3.org/Graphics/SVG/1.1/DTD/svg11.dtd">
<svg width="1280.0px" height="480.0px" viewBox="0.0 0.0 1280.0 480.0" xmlns="http://www.w3.org/2000/svg" xmlns:xlink="http://www.w3.org/1999/xlink" version="1.1">
  <path d="M 0 0 L 0 480 L 1280 480 L 1280 0 z" fill="#FFFFFF" fill-opacity="1.0" stroke="none"/>
  <text x="50" y="468.7" font-family="Helvetica" font-size="10" font-weight="normal" font-style="normal" fill="#000000" fill-opacity="1">Average per-element processing time over input size (bands: min, mean, mean + 2stddev)</text>
  <a xlink:href="https://github.com/apple/swift-collections-benchmark"><text x="1107" y="468.7" font-family="Helvetica" font-size="10" font-weight="normal" font-style="normal" fill="#000000" fill-opacity="1">swift-collections-benchmark</text></a>
  <path d="M 50 9 L 50 441" fill="none" stroke-width="0.75" stroke="#000000" stroke-opacity="0.49804" stroke-linecap="butt" stroke-linejoin="round"/>
  <text x="47" y="453.7" font-family="Helvetica" font-size="10" font-weight="normal" font-style="normal" fill="#000000" fill-opacity="1">1</text>
  <path d="M 109 9 L 109 441" fill="none" stroke-width="0.75" stroke="#000000" stroke-opacity="0.49804" stroke-linecap="butt" stroke-linejoin="round"/>
  <text x="106" y="453.7" font-family="Helvetica" font-size="10" font-weight="normal" font-style="normal" fill="#000000" fill-opacity="1">2</text>
  <path d="M 168 9 L 168 441" fill="none" stroke-width="0.75" stroke="#000000" stroke-opacity="0.49804" stroke-linecap="butt" stroke-linejoin="round"/>
  <text x="165" y="453.7" font-family="Helvetica" font-size="10" font-weight="normal" font-style="normal" fill="#000000" fill-opacity="1">4</text>
  <path d="M 227 9 L 227 441" fill="none" stroke-width="0.75" stroke="#000000" stroke-opacity="0.49804" stroke-linecap="butt" stroke-linejoin="round"/>
  <text x="224" y="453.7" font-family="Helvetica" font-size="10" font-weight="normal" font-style="normal" fill="#000000" fill-opacity="1">8</text>
  <path d="M 286 9 L 286 441" fill="none" stroke-width="0.75" stroke="#000000" stroke-opacity="0.49804" stroke-linecap="butt" stroke-linejoin="round"/>
  <text x="280" y="453.7" font-family="Helvetica" font-size="10" font-weight="normal" font-style="normal" fill="#000000" fill-opacity="1">16</text>
  <path d="M 345 9 L 345 441" fill="none" stroke-width="0.75" stroke="#000000" stroke-opacity="0.49804" stroke-linecap="butt" stroke-linejoin="round"/>
  <text x="339" y="453.7" font-family="Helvetica" font-size="10" font-weight="normal" font-style="normal" fill="#000000" fill-opacity="1">32</text>
  <path d="M 404 9 L 404 441" fill="none" stroke-width="0.75" stroke="#000000" stroke-opacity="0.49804" stroke-linecap="butt" stroke-linejoin="round"/>
  <text x="398" y="453.7" font-family="Helvetica" font-size="10" font-weight="normal" font-style="normal" fill="#000000" fill-opacity="1">64</text>
  <path d="M 463 9 L 463 441" fill="none" stroke-width="0.75" stroke="#000000" stroke-opacity="0.49804" stroke-linecap="butt" stroke-linejoin="round"/>
  <text x="454.5" y="453.7" font-family="Helvetica" font-size="10" font-weight="normal" font-style="normal" fill="#000000" fill-opacity="1">128</text>
  <path d="M 522 9 L 522 441" fill="none" stroke-width="0.75" stroke="#000000" stroke-opacity="0.49804" stroke-linecap="butt" stroke-linejoin="round"/>
  <text x="513.5" y="453.7" font-family="Helvetica" font-size="10" font-weight="normal" font-style="normal" fill="#000000" fill-opacity="1">256</text>
  <path d="M 581 9 L 581 441" fill="none" stroke-width="0.75" stroke="#000000" stroke-opacity="0.49804" stroke-linecap="butt" stroke-linejoin="round"/>
  <text x="572.5" y="453.7" font-family="Helvetica" font-size="10" font-weight="normal" font-style="normal" fill="#000000" fill-opacity="1">512</text>
  <path d="M 640 9 L 640 441" fill="none" stroke-width="0.75" stroke="#000000" stroke-opacity="0.49804" stroke-linecap="butt" stroke-linejoin="round"/>
  <text x="634.5" y="453.7" font-family="Helvetica" font-size="10" font-weight="normal" font-style="normal" fill="#000000" fill-opacity="1">1k</text>
  <path d="M 699 9 L 699 441" fill="none" stroke-width="0.75" stroke="#000000" stroke-opacity="0.49804" stroke-linecap="butt" stroke-linejoin="round"/>
  <text x="693.5" y="453.7" font-family="Helvetica" font-size="10" font-weight="normal" font-style="normal" fill="#000000" fill-opacity="1">2k</text>
  <path d="M 758 9 L 758 441" fill="none" stroke-width="0.75" stroke="#000000" stroke-opacity="0.49804" stroke-linecap="butt" stroke-linejoin="round"/>
  <text x="752.5" y="453.7" font-family="Helvetica" font-size="10" font-weight="normal" font-style="normal" fill="#000000" fill-opacity="1">4k</text>
  <path d="M 817 9 L 817 441" fill="none" stroke-width="0.75" stroke="#000000" stroke-opacity="0.49804" stroke-linecap="butt" stroke-linejoin="round"/>
  <text x="811.5" y="453.7" font-family="Helvetica" font-size="10" font-weight="normal" font-style="normal" fill="#000000" fill-opacity="1">8k</text>
  <path d="M 876 9 L 876 441" fill="none" stroke-width="0.75" stroke="#000000" stroke-opacity="0.49804" stroke-linecap="butt" stroke-linejoin="round"/>
  <text x="867.5" y="453.7" font-family="Helvetica" font-size="10" font-weight="normal" font-style="normal" fill="#000000" fill-opacity="1">16k</text>
  <path d="M 935 9 L 935 441" fill="none" stroke-width="0.75" stroke="#000000" stroke-opacity="0.49804" stroke-linecap="butt" stroke-linejoin="round"/>
  <text x="926.5" y="453.7" font-family="Helvetica" font-size="10" font-weight="normal" font-style="normal" fill="#000000" fill-opacity="1">32k</text>
  <path d="M 994 9 L 994 441" fill="none" stroke-width="0.75" stroke="#000000" stroke-opacity="0.49804" stroke-linecap="butt" stroke-linejoin="round"/>
  <text x="985.5" y="453.7" font-family="Helvetica" font-size="10" font-weight="normal" font-style="normal" fill="#000000" fill-opacity="1">64k</text>
  <path d="M 1053 9 L 1053 441" fill="none" stroke-width="0.75" stroke="#000000" stroke-opacity="0.49804" stroke-linecap="butt" stroke-linejoin="round"/>
  <text x="1042" y="453.7" font-family="Helvetica" font-size="10" font-weight="normal" font-style="normal" fill="#000000" fill-opacity="1">128k</text>
  <path d="M 1112 9 L 1112 441" fill="none" stroke-width="0.75" stroke="#000000" stroke-opacity="0.49804" stroke-linecap="butt" stroke-linejoin="round"/>
  <text x="1101" y="453.7" font-family="Helvetica" font-size="10" font-weight="normal" font-style="normal" fill="#000000" fill-opacity="1">256k</text>
  <path d="M 1171 9 L 1171 441" fill="none" stroke-width="0.75" stroke="#000000" stroke-opacity="0.49804" stroke-linecap="butt" stroke-linejoin="round"/>
  <text x="1160" y="453.7" font-family="Helvetica" font-size="10" font-weight="normal" font-style="normal" fill="#000000" fill-opacity="1">512k</text>
  <path d="M 1230 9 L 1230 441" fill="none" stroke-width="0.75" stroke="#000000" stroke-opacity="0.49804" stroke-linecap="butt" stroke-linejoin="round"/>
  <text x="1223" y="453.7" font-family="Helvetica" font-size="10" font-weight="normal" font-style="normal" fill="#000000" fill-opacity="1">1M</text>
  <path d="M 50 441 L 1230 441" fill="none" stroke-width="0.75" stroke="#000000" stroke-opacity="0.49804" stroke-linecap="butt" stroke-linejoin="round"/>
  <text x="16" y="442.7" font-family="Helvetica" font-size="10" font-weight="normal" font-style="normal" fill="#000000" fill-opacity="1">100 ps</text>
  <text x="1236" y="442.7" font-family="Helvetica" font-size="10" font-weight="normal" font-style="normal" fill="#000000" fill-opacity="1">100 ps</text>
  <path d="M 50 297 L 1230 297" fill="none" stroke-width="0.75" stroke="#000000" stroke-opacity="0.49804" stroke-linecap="butt" stroke-linejoin="round"/>
  <text x="27" y="298.7" font-family="Helvetica" font-size="10" font-weight="normal" font-style="normal" fill="#000000" fill-opacity="1">1 ns</text>
  <text x="1236" y="298.7" font-family="Helvetica" font-size="10" font-weight="normal" font-style="normal" fill="#000000" fill-opacity="1">1 ns</text>
  <path d="M 50 153 L 1230 153" fill="none" stroke-width="0.75" stroke="#000000" stroke-opacity="0.49804" stroke-linecap="butt" stroke-linejoin="round"/>
  <text x="21" y="154.7" font-family="Helvetica" font-size="10" font-weight="normal" font-style="normal" fill="#000000" fill-opacity="1">10 ns</text>
  <text x="1236" y="154.7" font-family="Helvetica" font-size="10" font-weight="normal" font-style="normal" fill="#000000" fill-opacity="1">10 ns</text>
  <path d="M 50 9 L 1230 9" fill="none" stroke-width="0.75" stroke="#000000" stroke-opacity="0.49804" stroke-linecap="butt" stroke-linejoin="round"/>
  <text x="16" y="10.7" font-family="Helvetica" font-size="10" font-weight="normal" font-style="normal" fill="#000000" fill-opacity="1">100 ns</text>
  <text x="1236" y="10.7" font-family="Helvetica" font-size="10" font-weight="normal" font-style="normal" fill="#000000" fill-opacity="1">100 ns</text>
  <path d="M 50 397.65 L 1230 397.65" fill="none" stroke-width="0.5" stroke="#000000" stroke-opacity="0.25882" stroke-linecap="butt" stroke-linejoin="round" stroke-dasharray="6 3" stroke-dashoffset="0"/>
  <path d="M 50 354.3 L 1230 354.3" fill="none" stroke-width="0.5" stroke="#000000" stroke-opacity="0.25882" stroke-linecap="butt" stroke-linejoin="round" stroke-dasharray="6 3" stroke-dashoffset="0"/>
  <path d="M 50 310.96 L 1230 310.96" fill="none" stroke-width="0.5" stroke="#000000" stroke-opacity="0.25882" stroke-linecap="butt" stroke-linejoin="round" stroke-dasharray="6 3" stroke-dashoffset="0"/>
  <path d="M 50 267.61 L 1230 267.61" fill="none" stroke-width="0.5" stroke="#000000" stroke-opacity="0.25882" stroke-linecap="butt" stroke-linejoin="round" stroke-dasharray="6 3" stroke-dashoffset="0"/>
  <path d="M 50 224.26 L 1230 224.26" fill="none" stroke-width="0.5" stroke="#000000" stroke-opacity="0.25882" stroke-linecap="butt" stroke-linejoin="round" stroke-dasharray="6 3" stroke-dashoffset="0"/>
  <path d="M 50 180.91 L 1230 180.91" fill="none" stroke-width="0.5" stroke="#000000" stroke-opacity="0.25882" stroke-linecap="butt" stroke-linejoin="round" stroke-dasharray="6 3" stroke-dashoffset="0"/>
  <path d="M 50 137.56 L 1230 137.56" fill="none" stroke-width="0.5" stroke="#000000" stroke-opacity="0.25882" stroke-linecap="butt" stroke-linejoin="round" stroke-dasharray="6 3" stroke-dashoffset="0"/>
  <path d="M 50 94.213 L 1230 94.213" fill="none" stroke-width="0.5" stroke="#000000" stroke-opacity="0.25882" stroke-linecap="butt" stroke-linejoin="round" stroke-dasharray="6 3" stroke-dashoffset="0"/>
  <path d="M 50 50.865 L 1230 50.865" fill="none" stroke-width="0.5" stroke="#000000" stroke-opacity="0.25882" stroke-linecap="butt" stroke-linejoin="round" stroke-dasharray="6 3" stroke-dashoffset="0"/>
  <path d="M 74 33 L 74 88 L 384 88 L 384 33 z" fill="#FFFFFF" fill-opacity="1.0" stroke="none"/>
  <clipPath id="clip-0">
    <path d="M 50 9 L 50 441 L 1230 441 L 1230 9 z"/>
  </clipPath>
  <g clip-path="url(#clip-0)">
    <path d="M 50 30.388L 109 69.482L 143.51 92.158L 168 107.86L 186.99 119.35L 202.51 127.23L 215.63 135.74L 227 141.07L 245.99 150.36L 261.51 157.92L 274.63 163.03L 286 164.4L 304.99 171.53L 320.51 170.9L 333.63 176.6L 345 174.95L 363.99 185.77L 379.51 175.13L 392.63 185.77L 404 182.36L 422.99 193.08L 438.51 183L 451.63 190.74L 463 186.16L 481.99 196.53L 497.51 185.42L 510.63 192.25L 522 190.39L 540.99 197.24L 556.51 185.55L 569.63 193.74L 581 188.15L 599.99 201.91L 615.51 189.69L 628.63 192L 640 188.61L 658.99 198.67L 674.51 188.12L 687.63 194.44L 699 192.33L 717.99 197.72L 733.51 183.58L 746.63 190.44L 758 185.5L 776.99 198.05L 792.51 184.65L 805.63 193.16L 817 187.52L 835.99 198.58L 851.51 184.91L 864.63 193.84L 876 184.46L 894.99 186.9L 910.51 178.47L 923.63 192.44L 935 185.28L 953.99 198.29L 969.51 183.1L 982.63 186.41L 994 185.5L 1013 197.55L 1028.5 182.47L 1041.6 191.28L 1053 186.2L 1072 197.27L 1087.5 178.55L 1100.6 189.28L 1112 173.08L 1131 184.27L 1146.5 174.66L 1159.6 188.23L 1171 171.25L 1190 188.83L 1205.5 180.49L 1218.6 177.48L 1230 179.86L 1230 180.08L 1218.6 185.49L 1205.5 182.32L 1190 193.75L 1171 183.94L 1159.6 191.49L 1146.5 181.94L 1131 194.67L 1112 183.49L 1100.6 190.87L 1087.5 183.72L 1072 197.65L 1053 188.48L 1041.6 193.88L 1028.5 184.64L 1013 198.28L 994 188.54L 982.63 193.91L 969.51 184.68L 953.99 198.42L 935 188.46L 923.63 193.4L 910.51 184.89L 894.99 197.85L 876 188.6L 864.63 193.96L 851.51 185.24L 835.99 198.88L 817 188.65L 805.63 193.94L 792.51 184.94L 776.99 198.27L 758 189.31L 746.63 193.86L 733.51 186.14L 717.99 201.65L 699 192.37L 687.63 198.13L 674.51 190.22L 658.99 202.37L 640 192.17L 628.63 198.09L 615.51 189.7L 599.99 201.92L 581 191.59L 569.63 197.23L 556.51 189.1L 540.99 200.86L 522 190.47L 510.63 195.72L 497.51 187.55L 481.99 200L 463 189.56L 451.63 194.42L 438.51 186.99L 422.99 196.61L 404 185.94L 392.63 189.65L 379.51 184.3L 363.99 189.68L 345 178.36L 333.63 180.34L 320.51 172.01L 304.99 176.06L 286 168.64L 274.63 166.91L 261.51 162.1L 245.99 154.32L 227 144.77L 215.63 139.65L 202.51 131.22L 186.99 122.96L 168 110.97L 143.51 96.048L 109 73.547L 50 34.749" fill="#007AFF" fill-opacity="0.30196078431372547" stroke="none"/>
    <path d="M 50 175L 109 208.12L 143.51 230.06L 168 242.38L 186.99 244.43L 202.51 255.45L 215.63 258.85L 227 265.07L 245.99 268.45L 261.51 273.53L 274.63 278.73L 286 280.5L 304.99 276.29L 320.51 286.63L 333.63 288.49L 345 289.28L 363.99 285.72L 379.51 288.02L 392.63 271.33L 404 287.65L 422.99 291.73L 438.51 292.27L 451.63 293.25L 463 293.14L 481.99 295.65L 497.51 290.58L 510.63 297.9L 522 298.48L 540.99 295.73L 556.51 299.02L 569.63 301.35L 581 297.12L 599.99 298.17L 615.51 300.53L 628.63 300.38L 640 300.51L 658.99 300.81L 674.51 300.95L 687.63 301.01L 699 301.14L 717.99 301.18L 733.51 301.26L 746.63 301.17L 758 301.33L 776.99 301.38L 792.51 301.29L 805.63 301.46L 817 301.47L 835.99 301.48L 851.51 301.25L 864.63 301.49L 876 301.48L 894.99 301.32L 910.51 301.5L 923.63 301.44L 935 301.28L 953.99 301.38L 969.51 301.54L 982.63 301.54L 994 301.54L 1013 301.22L 1028.5 301.33L 1041.6 300.99L 1053 297.05L 1072 301.44L 1087.5 301.17L 1100.6 300.44L 1112 301.16L 1131 297.1L 1146.5 301.09L 1159.6 301.18L 1171 301L 1190 300.88L 1205.5 301.42L 1218.6 294.42L 1230 301.32L 1230 301.36L 1218.6 301.36L 1205.5 301.55L 1190 301.56L 1171 301.52L 1159.6 301.53L 1146.5 301.55L 1131 300.88L 1112 301.22L 1100.6 301.37L 1087.5 301.54L 1072 301.54L 1053 301.56L 1041.6 301.41L 1028.5 301.6L 1013 301.56L 994 301.57L 982.63 301.55L 969.51 301.55L 953.99 301.62L 935 301.53L 923.63 301.63L 910.51 301.51L 894.99 301.5L 876 301.52L 864.63 301.54L 851.51 301.51L 835.99 301.5L 817 301.49L 805.63 301.46L 792.51 301.6L 776.99 301.45L 758 301.43L 746.63 301.54L 733.51 301.36L 717.99 301.33L 699 301.24L 687.63 301.22L 674.51 301.16L 658.99 301.1L 640 301.1L 628.63 300.98L 615.51 300.53L 599.99 302.73L 581 300.01L 569.63 301.63L 556.51 299.96L 540.99 302.94L 522 298.48L 510.63 298.13L 497.51 306.1L 481.99 297.82L 463 298.48L 451.63 296.26L 438.51 295.23L 422.99 292.3L 404 292.52L 392.63 314.99L 379.51 288.02L 363.99 285.72L 345 290.65L 333.63 288.49L 320.51 286.63L 304.99 293.95L 286 280.5L 274.63 278.73L 261.51 276.48L 245.99 271.64L 227 265.07L 215.63 262.88L 202.51 255.45L 186.99 253.65L 168 242.38L 143.51 230.06L 109 214.34L 50 182.39" fill="#FF3B30" fill-opacity="0.30196078431372547" stroke="none"/>
    <path d="M 50 33.58L 109 72.46L 143.51 95.008L 168 110.14L 186.99 122L 202.51 130.15L 215.63 138.6L 227 143.78L 245.99 153.26L 261.51 160.98L 274.63 165.87L 286 167.51L 304.99 174.84L 320.51 171.72L 333.63 179.34L 345 177.45L 363.99 188.64L 379.51 181.77L 392.63 188.61L 404 184.99L 422.99 195.67L 438.51 185.92L 451.63 193.44L 463 188.66L 481.99 199.08L 497.51 186.99L 510.63 194.8L 522 190.45L 540.99 199.89L 556.51 188.16L 569.63 196.3L 581 190.67L 599.99 201.92L 615.51 189.7L 628.63 196.44L 640 191.22L 658.99 201.38L 674.51 189.66L 687.63 197.14L 699 192.36L 717.99 200.6L 733.51 185.46L 746.63 192.95L 758 188.29L 776.99 198.22L 792.51 184.86L 805.63 193.73L 817 188.35L 835.99 198.8L 851.51 185.16L 864.63 193.93L 876 187.49L 894.99 194.8L 910.51 183.15L 923.63 193.14L 935 187.61L 953.99 198.39L 969.51 184.27L 982.63 191.86L 994 187.73L 1013 198.09L 1028.5 184.06L 1041.6 193.19L 1053 187.88L 1072 197.55L 1087.5 182.33L 1100.6 190.45L 1112 180.6L 1131 191.78L 1146.5 179.95L 1159.6 190.62L 1171 180.37L 1190 192.43L 1205.5 181.83L 1218.6 183.3L 1230 180.02" fill="none" stroke-width="4" stroke="#007AFF" stroke-opacity="1" stroke-linecap="round" stroke-linejoin="round"/>
    <path d="M 50 180.37L 109 212.65L 143.51 230.06L 168 242.38L 186.99 251.11L 202.51 255.45L 215.63 261.8L 227 265.07L 245.99 270.79L 261.51 275.7L 274.63 278.73L 286 280.5L 304.99 288.83L 320.51 286.63L 333.63 288.49L 345 290.29L 363.99 285.72L 379.51 288.02L 392.63 300.35L 404 291.21L 422.99 292.15L 438.51 294.45L 451.63 295.46L 463 297.04L 481.99 297.25L 497.51 301.66L 510.63 298.07L 522 298.48L 540.99 300.98L 556.51 299.71L 569.63 301.56L 581 299.24L 599.99 301.5L 615.51 300.53L 628.63 300.82L 640 300.95L 658.99 301.03L 674.51 301.11L 687.63 301.17L 699 301.21L 717.99 301.29L 733.51 301.34L 746.63 301.44L 758 301.4L 776.99 301.43L 792.51 301.52L 805.63 301.46L 817 301.48L 835.99 301.49L 851.51 301.45L 864.63 301.52L 876 301.51L 894.99 301.45L 910.51 301.51L 923.63 301.58L 935 301.47L 953.99 301.56L 969.51 301.55L 982.63 301.55L 994 301.56L 1013 301.47L 1028.5 301.53L 1041.6 301.3L 1053 300.35L 1072 301.51L 1087.5 301.44L 1100.6 301.12L 1112 301.2L 1131 299.87L 1146.5 301.43L 1159.6 301.44L 1171 301.39L 1190 301.39L 1205.5 301.51L 1218.6 299.47L 1230 301.35" fill="none" stroke-width="4" stroke="#FF3B30" stroke-opacity="1" stroke-linecap="round" stroke-linejoin="round"/>
    <path d="M 50 33.58L 109 72.46L 143.51 95.008L 168 110.14L 186.99 122L 202.51 130.15L 215.63 138.6L 227 143.78L 245.99 153.26L 261.51 160.98L 274.63 165.87L 286 167.51L 304.99 174.84L 320.51 171.72L 333.63 179.34L 345 177.45L 363.99 188.64L 379.51 181.77L 392.63 188.61L 404 184.99L 422.99 195.67L 438.51 185.92L 451.63 193.44L 463 188.66L 481.99 199.08L 497.51 186.99L 510.63 194.8L 522 190.45L 540.99 199.89L 556.51 188.16L 569.63 196.3L 581 190.67L 599.99 201.92L 615.51 189.7L 628.63 196.44L 640 191.22L 658.99 201.38L 674.51 189.66L 687.63 197.14L 699 192.36L 717.99 200.6L 733.51 185.46L 746.63 192.95L 758 188.29L 776.99 198.22L 792.51 184.86L 805.63 193.73L 817 188.35L 835.99 198.8L 851.51 185.16L 864.63 193.93L 876 187.49L 894.99 194.8L 910.51 183.15L 923.63 193.14L 935 187.61L 953.99 198.39L 969.51 184.27L 982.63 191.86L 994 187.73L 1013 198.09L 1028.5 184.06L 1041.6 193.19L 1053 187.88L 1072 197.55L 1087.5 182.33L 1100.6 190.45L 1112 180.6L 1131 191.78L 1146.5 179.95L 1159.6 190.62L 1171 180.37L 1190 192.43L 1205.5 181.83L 1218.6 183.3L 1230 180.02" fill="none" stroke-width="0.5" stroke="#000000" stroke-opacity="0.30196" stroke-linecap="round" stroke-linejoin="round"/>
    <path d="M 50 180.37L 109 212.65L 143.51 230.06L 168 242.38L 186.99 251.11L 202.51 255.45L 215.63 261.8L 227 265.07L 245.99 270.79L 261.51 275.7L 274.63 278.73L 286 280.5L 304.99 288.83L 320.51 286.63L 333.63 288.49L 345 290.29L 363.99 285.72L 379.51 288.02L 392.63 300.35L 404 291.21L 422.99 292.15L 438.51 294.45L 451.63 295.46L 463 297.04L 481.99 297.25L 497.51 301.66L 510.63 298.07L 522 298.48L 540.99 300.98L 556.51 299.71L 569.63 301.56L 581 299.24L 599.99 301.5L 615.51 300.53L 628.63 300.82L 640 300.95L 658.99 301.03L 674.51 301.11L 687.63 301.17L 699 301.21L 717.99 301.29L 733.51 301.34L 746.63 301.44L 758 301.4L 776.99 301.43L 792.51 301.52L 805.63 301.46L 817 301.48L 835.99 301.49L 851.51 301.45L 864.63 301.52L 876 301.51L 894.99 301.45L 910.51 301.51L 923.63 301.58L 935 301.47L 953.99 301.56L 969.51 301.55L 982.63 301.55L 994 301.56L 1013 301.47L 1028.5 301.53L 1041.6 301.3L 1053 300.35L 1072 301.51L 1087.5 301.44L 1100.6 301.12L 1112 301.2L 1131 299.87L 1146.5 301.43L 1159.6 301.44L 1171 301.39L 1190 301.39L 1205.5 301.51L 1218.6 299.47L 1230 301.35" fill="none" stroke-width="0.5" stroke="#000000" stroke-opacity="0.30196" stroke-linecap="round" stroke-linejoin="round"/>
  </g>
  <path d="M 74 33 L 74 88 L 384 88 L 384 33 z" fill="#FFFFFF" fill-opacity="0.7019607843137254" stroke-width="0.5" stroke="#000000" stroke-opacity="1" stroke-linecap="round" stroke-linejoin="round"/>
  <path d="M 88 52 L 108 52" fill="none" stroke-width="4" stroke="#FF3B30" stroke-opacity="1" stroke-linecap="round" stroke-linejoin="round"/>
  <path d="M 88 52 L 108 52" fill="none" stroke-width="0.5" stroke="#000000" stroke-opacity="0.30196" stroke-linecap="round" stroke-linejoin="round"/>
  <text x="119" y="56.17" font-family="Menlo" font-size="12" font-weight="normal" font-style="normal" fill="#000000" fill-opacity="1">Array&lt;Int&gt; sequential iteration</text>
  <path d="M 88 69 L 108 69" fill="none" stroke-width="4" stroke="#007AFF" stroke-opacity="1" stroke-linecap="round" stroke-linejoin="round"/>
  <path d="M 88 69 L 108 69" fill="none" stroke-width="0.5" stroke="#000000" stroke-opacity="0.30196" stroke-linecap="round" stroke-linejoin="round"/>
  <text x="119" y="73.17" font-family="Menlo" font-size="12" font-weight="normal" font-style="normal" fill="#000000" fill-opacity="1">TreeArray&lt;Int&gt; sequential iteration</text>
  <path d="M 50 9 L 50 441 L 1230 441 L 1230 9 z" fill="none" stroke-width="0.5" stroke="#000000" stroke-opacity="1" stroke-linecap="round" stroke-linejoin="round"/>
</svg>
