<!DOCTYPE svg PUBLIC "-//W3C//DTD SVG 1.1//EN" "http://www.w3.org/Graphics/SVG/1.1/DTD/svg11.dtd">
<svg width="1280.0px" height="480.0px" viewBox="0.0 0.0 1280.0 480.0" xmlns="http://www.w3.org/2000/svg" xmlns:xlink="http://www.w3.org/1999/xlink" version="1.1">
  <path d="M 0 0 L 0 480 L 1280 480 L 1280 0 z" fill="#FFFFFF" fill-opacity="1.0" stroke="none"/>
  <text x="50" y="468.7" font-family="Helvetica" font-size="10" font-weight="normal" font-style="normal" fill="#000000" fill-opacity="1">Average per-element processing time over input size (bands: min, mean, mean + 2stddev)</text>
  <a xlink:href="https://github.com/apple/swift-collections-benchmark"><text x="1107" y="468.7" font-family="Helvetica" font-size="10" font-weight="normal" font-style="normal" fill="#000000" fill-opacity="1">swift-collections-benchmark</text></a>
  <path d="M 50 9 L 50 441" fill="none" stroke-width="0.75" stroke="#000000" stroke-opacity="0.49804" stroke-linecap="butt" stroke-linejoin="round"/>
  <text x="47" y="453.7" font-family="Helvetica" font-size="10" font-weight="normal" font-style="normal" fill="#000000" fill-opacity="1">1</text>
  <path d="M 109 9 L 109 441" fill="none" stroke-width="0.75" stroke="#000000" stroke-opacity="0.49804" stroke-linecap="butt" stroke-linejoin="round"/>
  <text x="106" y="453.7" font-family="Helvetica" font-size="10" font-weight="normal" font-style="normal" fill="#000000" fill-opacity="1">2</text>
  <path d="M 168 9 L 168 441" fill="none" stroke-width="0.75" stroke="#000000" stroke-opacity="0.49804" stroke-linecap="butt" stroke-linejoin="round"/>
  <text x="165" y="453.7" font-family="Helvetica" font-size="10" font-weight="normal" font-style="normal" fill="#000000" fill-opacity="1">4</text>
  <path d="M 227 9 L 227 441" fill="none" stroke-width="0.75" stroke="#000000" stroke-opacity="0.49804" stroke-linecap="butt" stroke-linejoin="round"/>
  <text x="224" y="453.7" font-family="Helvetica" font-size="10" font-weight="normal" font-style="normal" fill="#000000" fill-opacity="1">8</text>
  <path d="M 286 9 L 286 441" fill="none" stroke-width="0.75" stroke="#000000" stroke-opacity="0.49804" stroke-linecap="butt" stroke-linejoin="round"/>
  <text x="280" y="453.7" font-family="Helvetica" font-size="10" font-weight="normal" font-style="normal" fill="#000000" fill-opacity="1">16</text>
  <path d="M 345 9 L 345 441" fill="none" stroke-width="0.75" stroke="#000000" stroke-opacity="0.49804" stroke-linecap="butt" stroke-linejoin="round"/>
  <text x="339" y="453.7" font-family="Helvetica" font-size="10" font-weight="normal" font-style="normal" fill="#000000" fill-opacity="1">32</text>
  <path d="M 404 9 L 404 441" fill="none" stroke-width="0.75" stroke="#000000" stroke-opacity="0.49804" stroke-linecap="butt" stroke-linejoin="round"/>
  <text x="398" y="453.7" font-family="Helvetica" font-size="10" font-weight="normal" font-style="normal" fill="#000000" fill-opacity="1">64</text>
  <path d="M 463 9 L 463 441" fill="none" stroke-width="0.75" stroke="#000000" stroke-opacity="0.49804" stroke-linecap="butt" stroke-linejoin="round"/>
  <text x="454.5" y="453.7" font-family="Helvetica" font-size="10" font-weight="normal" font-style="normal" fill="#000000" fill-opacity="1">128</text>
  <path d="M 522 9 L 522 441" fill="none" stroke-width="0.75" stroke="#000000" stroke-opacity="0.49804" stroke-linecap="butt" stroke-linejoin="round"/>
  <text x="513.5" y="453.7" font-family="Helvetica" font-size="10" font-weight="normal" font-style="normal" fill="#000000" fill-opacity="1">256</text>
  <path d="M 581 9 L 581 441" fill="none" stroke-width="0.75" stroke="#000000" stroke-opacity="0.49804" stroke-linecap="butt" stroke-linejoin="round"/>
  <text x="572.5" y="453.7" font-family="Helvetica" font-size="10" font-weight="normal" font-style="normal" fill="#000000" fill-opacity="1">512</text>
  <path d="M 640 9 L 640 441" fill="none" stroke-width="0.75" stroke="#000000" stroke-opacity="0.49804" stroke-linecap="butt" stroke-linejoin="round"/>
  <text x="634.5" y="453.7" font-family="Helvetica" font-size="10" font-weight="normal" font-style="normal" fill="#000000" fill-opacity="1">1k</text>
  <path d="M 699 9 L 699 441" fill="none" stroke-width="0.75" stroke="#000000" stroke-opacity="0.49804" stroke-linecap="butt" stroke-linejoin="round"/>
  <text x="693.5" y="453.7" font-family="Helvetica" font-size="10" font-weight="normal" font-style="normal" fill="#000000" fill-opacity="1">2k</text>
  <path d="M 758 9 L 758 441" fill="none" stroke-width="0.75" stroke="#000000" stroke-opacity="0.49804" stroke-linecap="butt" stroke-linejoin="round"/>
  <text x="752.5" y="453.7" font-family="Helvetica" font-size="10" font-weight="normal" font-style="normal" fill="#000000" fill-opacity="1">4k</text>
  <path d="M 817 9 L 817 441" fill="none" stroke-width="0.75" stroke="#000000" stroke-opacity="0.49804" stroke-linecap="butt" stroke-linejoin="round"/>
  <text x="811.5" y="453.7" font-family="Helvetica" font-size="10" font-weight="normal" font-style="normal" fill="#000000" fill-opacity="1">8k</text>
  <path d="M 876 9 L 876 441" fill="none" stroke-width="0.75" stroke="#000000" stroke-opacity="0.49804" stroke-linecap="butt" stroke-linejoin="round"/>
  <text x="867.5" y="453.7" font-family="Helvetica" font-size="10" font-weight="normal" font-style="normal" fill="#000000" fill-opacity="1">16k</text>
  <path d="M 935 9 L 935 441" fill="none" stroke-width="0.75" stroke="#000000" stroke-opacity="0.49804" stroke-linecap="butt" stroke-linejoin="round"/>
  <text x="926.5" y="453.7" font-family="Helvetica" font-size="10" font-weight="normal" font-style="normal" fill="#000000" fill-opacity="1">32k</text>
  <path d="M 994 9 L 994 441" fill="none" stroke-width="0.75" stroke="#000000" stroke-opacity="0.49804" stroke-linecap="butt" stroke-linejoin="round"/>
  <text x="985.5" y="453.7" font-family="Helvetica" font-size="10" font-weight="normal" font-style="normal" fill="#000000" fill-opacity="1">64k</text>
  <path d="M 1053 9 L 1053 441" fill="none" stroke-width="0.75" stroke="#000000" stroke-opacity="0.49804" stroke-linecap="butt" stroke-linejoin="round"/>
  <text x="1042" y="453.7" font-family="Helvetica" font-size="10" font-weight="normal" font-style="normal" fill="#000000" fill-opacity="1">128k</text>
  <path d="M 1112 9 L 1112 441" fill="none" stroke-width="0.75" stroke="#000000" stroke-opacity="0.49804" stroke-linecap="butt" stroke-linejoin="round"/>
  <text x="1101" y="453.7" font-family="Helvetica" font-size="10" font-weight="normal" font-style="normal" fill="#000000" fill-opacity="1">256k</text>
  <path d="M 1171 9 L 1171 441" fill="none" stroke-width="0.75" stroke="#000000" stroke-opacity="0.49804" stroke-linecap="butt" stroke-linejoin="round"/>
  <text x="1160" y="453.7" font-family="Helvetica" font-size="10" font-weight="normal" font-style="normal" fill="#000000" fill-opacity="1">512k</text>
  <path d="M 1230 9 L 1230 441" fill="none" stroke-width="0.75" stroke="#000000" stroke-opacity="0.49804" stroke-linecap="butt" stroke-linejoin="round"/>
  <text x="1223" y="453.7" font-family="Helvetica" font-size="10" font-weight="normal" font-style="normal" fill="#000000" fill-opacity="1">1M</text>
  <path d="M 50 441 L 1230 441" fill="none" stroke-width="0.75" stroke="#000000" stroke-opacity="0.49804" stroke-linecap="butt" stroke-linejoin="round"/>
  <text x="16" y="442.7" font-family="Helvetica" font-size="10" font-weight="normal" font-style="normal" fill="#000000" fill-opacity="1">100 ps</text>
  <text x="1236" y="442.7" font-family="Helvetica" font-size="10" font-weight="normal" font-style="normal" fill="#000000" fill-opacity="1">100 ps</text>
  <path d="M 50 333 L 1230 333" fill="none" stroke-width="0.75" stroke="#000000" stroke-opacity="0.49804" stroke-linecap="butt" stroke-linejoin="round"/>
  <text x="27" y="334.7" font-family="Helvetica" font-size="10" font-weight="normal" font-style="normal" fill="#000000" fill-opacity="1">1 ns</text>
  <text x="1236" y="334.7" font-family="Helvetica" font-size="10" font-weight="normal" font-style="normal" fill="#000000" fill-opacity="1">1 ns</text>
  <path d="M 50 225 L 1230 225" fill="none" stroke-width="0.75" stroke="#000000" stroke-opacity="0.49804" stroke-linecap="butt" stroke-linejoin="round"/>
  <text x="21" y="226.7" font-family="Helvetica" font-size="10" font-weight="normal" font-style="normal" fill="#000000" fill-opacity="1">10 ns</text>
  <text x="1236" y="226.7" font-family="Helvetica" font-size="10" font-weight="normal" font-style="normal" fill="#000000" fill-opacity="1">10 ns</text>
  <path d="M 50 117 L 1230 117" fill="none" stroke-width="0.75" stroke="#000000" stroke-opacity="0.49804" stroke-linecap="butt" stroke-linejoin="round"/>
  <text x="16" y="118.7" font-family="Helvetica" font-size="10" font-weight="normal" font-style="normal" fill="#000000" fill-opacity="1">100 ns</text>
  <text x="1236" y="118.7" font-family="Helvetica" font-size="10" font-weight="normal" font-style="normal" fill="#000000" fill-opacity="1">100 ns</text>
  <path d="M 50 9 L 1230 9" fill="none" stroke-width="0.75" stroke="#000000" stroke-opacity="0.49804" stroke-linecap="butt" stroke-linejoin="round"/>
  <text x="26" y="10.7" font-family="Helvetica" font-size="10" font-weight="normal" font-style="normal" fill="#000000" fill-opacity="1">1 µs</text>
  <text x="1236" y="10.7" font-family="Helvetica" font-size="10" font-weight="normal" font-style="normal" fill="#000000" fill-opacity="1">1 µs</text>
  <path d="M 50 408.49 L 1230 408.49" fill="none" stroke-width="0.5" stroke="#000000" stroke-opacity="0.25882" stroke-linecap="butt" stroke-linejoin="round" stroke-dasharray="6 3" stroke-dashoffset="0"/>
  <path d="M 50 375.98 L 1230 375.98" fill="none" stroke-width="0.5" stroke="#000000" stroke-opacity="0.25882" stroke-linecap="butt" stroke-linejoin="round" stroke-dasharray="6 3" stroke-dashoffset="0"/>
  <path d="M 50 343.47 L 1230 343.47" fill="none" stroke-width="0.5" stroke="#000000" stroke-opacity="0.25882" stroke-linecap="butt" stroke-linejoin="round" stroke-dasharray="6 3" stroke-dashoffset="0"/>
  <path d="M 50 310.96 L 1230 310.96" fill="none" stroke-width="0.5" stroke="#000000" stroke-opacity="0.25882" stroke-linecap="butt" stroke-linejoin="round" stroke-dasharray="6 3" stroke-dashoffset="0"/>
  <path d="M 50 278.44 L 1230 278.44" fill="none" stroke-width="0.5" stroke="#000000" stroke-opacity="0.25882" stroke-linecap="butt" stroke-linejoin="round" stroke-dasharray="6 3" stroke-dashoffset="0"/>
  <path d="M 50 245.93 L 1230 245.93" fill="none" stroke-width="0.5" stroke="#000000" stroke-opacity="0.25882" stroke-linecap="butt" stroke-linejoin="round" stroke-dasharray="6 3" stroke-dashoffset="0"/>
  <path d="M 50 213.42 L 1230 213.42" fill="none" stroke-width="0.5" stroke="#000000" stroke-opacity="0.25882" stroke-linecap="butt" stroke-linejoin="round" stroke-dasharray="6 3" stroke-dashoffset="0"/>
  <path d="M 50 180.91 L 1230 180.91" fill="none" stroke-width="0.5" stroke="#000000" stroke-opacity="0.25882" stroke-linecap="butt" stroke-linejoin="round" stroke-dasharray="6 3" stroke-dashoffset="0"/>
  <path d="M 50 148.4 L 1230 148.4" fill="none" stroke-width="0.5" stroke="#000000" stroke-opacity="0.25882" stroke-linecap="butt" stroke-linejoin="round" stroke-dasharray="6 3" stroke-dashoffset="0"/>
  <path d="M 50 115.89 L 1230 115.89" fill="none" stroke-width="0.5" stroke="#000000" stroke-opacity="0.25882" stroke-linecap="butt" stroke-linejoin="round" stroke-dasharray="6 3" stroke-dashoffset="0"/>
  <path d="M 50 83.376 L 1230 83.376" fill="none" stroke-width="0.5" stroke="#000000" stroke-opacity="0.25882" stroke-linecap="butt" stroke-linejoin="round" stroke-dasharray="6 3" stroke-dashoffset="0"/>
  <path d="M 50 50.865 L 1230 50.865" fill="none" stroke-width="0.5" stroke="#000000" stroke-opacity="0.25882" stroke-linecap="butt" stroke-linejoin="round" stroke-dasharray="6 3" stroke-dashoffset="0"/>
  <path d="M 50 18.354 L 1230 18.354" fill="none" stroke-width="0.5" stroke="#000000" stroke-opacity="0.25882" stroke-linecap="butt" stroke-linejoin="round" stroke-dasharray="6 3" stroke-dashoffset="0"/>
  <path d="M 74 33 L 74 173 L 543 173 L 543 33 z" fill="#FFFFFF" fill-opacity="1.0" stroke="none"/>
  <clipPath id="clip-0">
    <path d="M 50 9 L 50 441 L 1230 441 L 1230 9 z"/>
  </clipPath>
  <g clip-path="url(#clip-0)">
    <path d="M 50 282.9L 109 294.14L 143.51 302.2L 168 306.52L 186.99 313.98L 202.51 315.5L 215.63 320.39L 227 318.99L 245.99 322.67L 261.51 326.61L 274.63 327.24L 286 324.72L 304.99 329.34L 320.51 330.37L 333.63 331.14L 345 332.27L 363.99 330.71L 379.51 323.4L 392.63 320.92L 404 329.11L 422.99 331.27L 438.51 331.68L 451.63 333.49L 463 334.11L 481.99 333.38L 497.51 334.11L 510.63 336.48L 522 334.36L 540.99 332.97L 556.51 335.38L 569.63 336.26L 581 335.62L 599.99 335.77L 615.51 335.84L 628.63 336.31L 640 335.94L 658.99 336.05L 674.51 335.55L 687.63 336.01L 699 336.21L 717.99 336.27L 733.51 336.28L 746.63 336.25L 758 336.26L 776.99 336.35L 792.51 336.36L 805.63 336.08L 817 336.17L 835.99 336.28L 851.51 336.13L 864.63 336.39L 876 336.32L 894.99 336.41L 910.51 336.38L 923.63 336.4L 935 336.33L 953.99 336.37L 969.51 336.34L 982.63 336.37L 994 336.37L 1013 336.38L 1028.5 333.77L 1041.6 336.37L 1053 336.35L 1072 335.68L 1087.5 336.41L 1100.6 336.43L 1112 336.25L 1131 336.42L 1146.5 336.37L 1159.6 330.2L 1171 334.9L 1190 330.86L 1205.5 335.58L 1218.6 335.38L 1230 336.24L 1230 336.27L 1218.6 336.31L 1205.5 336.41L 1190 336.43L 1171 336.43L 1159.6 336.43L 1146.5 336.43L 1131 336.43L 1112 336.44L 1100.6 336.43L 1087.5 336.43L 1072 336.41L 1053 336.43L 1041.6 336.44L 1028.5 336.42L 1013 336.44L 994 336.43L 982.63 336.44L 969.51 336.4L 953.99 336.47L 935 336.43L 923.63 336.4L 910.51 336.45L 894.99 336.42L 876 336.41L 864.63 336.4L 851.51 336.45L 835.99 336.52L 817 336.62L 805.63 336.69L 792.51 336.36L 776.99 336.35L 758 336.36L 746.63 336.39L 733.51 336.29L 717.99 336.27L 699 336.23L 687.63 336.39L 674.51 336.82L 658.99 336.14L 640 336.12L 628.63 336.42L 615.51 335.89L 599.99 335.77L 581 335.62L 569.63 336.48L 556.51 335.38L 540.99 337.46L 522 335.33L 510.63 336.48L 497.51 334.11L 481.99 333.61L 463 334.11L 451.63 333.49L 438.51 331.68L 422.99 331.27L 404 329.64L 392.63 346.49L 379.51 339.26L 363.99 330.71L 345 332.27L 333.63 332.45L 320.51 331.88L 304.99 331.07L 286 328.8L 274.63 327.24L 261.51 326.61L 245.99 325.8L 227 322.53L 215.63 320.39L 202.51 320.04L 186.99 313.98L 168 312.07L 143.51 309.04L 109 294.14L 50 282.9" fill="#A2845E" fill-opacity="0.30196078431372547" stroke="none"/>
    <path d="M 50 282.9L 109 294.6L 143.51 305.34L 168 309.34L 186.99 316.69L 202.51 320.04L 215.63 318.5L 227 324.45L 245.99 324.72L 261.51 326.61L 274.63 328.5L 286 328.8L 304.99 329.34L 320.51 331.09L 333.63 332.45L 345 332.88L 363.99 327.95L 379.51 328.5L 392.63 319.89L 404 330.53L 422.99 331.58L 438.51 331.9L 451.63 332.96L 463 333.8L 481.99 334L 497.51 330.38L 510.63 333.55L 522 334.57L 540.99 335.32L 556.51 335.49L 569.63 334.93L 581 335.36L 599.99 335.86L 615.51 335.22L 628.63 335.72L 640 336.02L 658.99 336.04L 674.51 336.19L 687.63 336.39L 699 336.24L 717.99 336.06L 733.51 336.31L 746.63 336.26L 758 336.1L 776.99 336.52L 792.51 336.44L 805.63 336.36L 817 336.38L 835.99 336.39L 851.51 336.38L 864.63 336.4L 876 336.4L 894.99 336.41L 910.51 336.38L 923.63 336.36L 935 336.37L 953.99 336.38L 969.51 336.21L 982.63 336.19L 994 336.36L 1013 336.34L 1028.5 333.73L 1041.6 336.34L 1053 336.43L 1072 336.4L 1087.5 336.34L 1100.6 336.41L 1112 336.43L 1131 336.38L 1146.5 336.42L 1159.6 334.34L 1171 335.06L 1190 333.62L 1205.5 336.25L 1218.6 336.11L 1230 336.23L 1230 336.38L 1218.6 336.36L 1205.5 336.32L 1190 336.01L 1171 336.43L 1159.6 335.62L 1146.5 336.43L 1131 336.42L 1112 336.43L 1100.6 336.43L 1087.5 336.44L 1072 336.43L 1053 336.43L 1041.6 336.42L 1028.5 336.42L 1013 336.38L 994 336.46L 982.63 336.4L 969.51 336.42L 953.99 336.39L 935 336.37L 923.63 336.36L 910.51 336.45L 894.99 336.41L 876 336.41L 864.63 336.4L 851.51 336.41L 835.99 336.4L 817 336.38L 805.63 336.4L 792.51 336.44L 776.99 336.52L 758 336.62L 746.63 336.41L 733.51 336.31L 717.99 336.52L 699 336.26L 687.63 336.39L 674.51 336.19L 658.99 336.25L 640 336.12L 628.63 336.36L 615.51 336.82L 599.99 335.86L 581 336.08L 569.63 336.36L 556.51 335.49L 540.99 335.32L 522 335.43L 510.63 336.48L 497.51 339.54L 481.99 334.24L 463 333.8L 451.63 332.96L 438.51 332.27L 422.99 332.03L 404 331.08L 392.63 346.49L 379.51 329.93L 363.99 330.71L 345 332.88L 333.63 332.45L 320.51 331.09L 304.99 331.07L 286 328.8L 274.63 328.5L 261.51 326.61L 245.99 327L 227 324.55L 215.63 322.53L 202.51 320.04L 186.99 316.69L 168 315.25L 143.51 305.34L 109 303.52L 50 282.9" fill="#FF9500" fill-opacity="0.30196078431372547" stroke="none"/>
    <path d="M 50 229.12L 109 252.3L 143.51 269.33L 168 264.91L 186.99 273.15L 202.51 279.56L 215.63 282.87L 227 287.3L 245.99 291.89L 261.51 292.74L 274.63 303.52L 286 306.2L 304.99 309.15L 320.51 313.7L 333.63 317.24L 345 319.19L 363.99 321.59L 379.51 321.25L 392.63 322.56L 404 323.56L 422.99 325.56L 438.51 322.11L 451.63 327.18L 463 322.51L 481.99 327.5L 497.51 329.36L 510.63 329.85L 522 330.65L 540.99 331.04L 556.51 331.93L 569.63 332.58L 581 332.93L 599.99 334.05L 615.51 334.43L 628.63 334.47L 640 334.82L 658.99 335.24L 674.51 335.24L 687.63 335.43L 699 335.52L 717.99 335.63L 733.51 335.85L 746.63 335.97L 758 336L 776.99 336.13L 792.51 336.15L 805.63 336.19L 817 335.93L 835.99 336.3L 851.51 336.29L 864.63 336.3L 876 336.16L 894.99 336.34L 910.51 336.36L 923.63 336.4L 935 336.26L 953.99 336.31L 969.51 336.22L 982.63 336.2L 994 336.35L 1013 336.33L 1028.5 333.67L 1041.6 336.38L 1053 336.24L 1072 336.4L 1087.5 336.37L 1100.6 336.35L 1112 336.13L 1131 335.94L 1146.5 336.38L 1159.6 331.54L 1171 335.96L 1190 331.02L 1205.5 336.26L 1218.6 336.25L 1230 336.32L 1230 336.4L 1218.6 336.38L 1205.5 336.38L 1190 336.42L 1171 336.03L 1159.6 335.74L 1146.5 336.42L 1131 336.39L 1112 336.26L 1100.6 336.42L 1087.5 336.4L 1072 336.41L 1053 336.43L 1041.6 336.42L 1028.5 336.41L 1013 336.41L 994 336.4L 982.63 336.39L 969.51 336.35L 953.99 336.41L 935 336.31L 923.63 336.4L 910.51 336.37L 894.99 336.37L 876 336.35L 864.63 336.35L 851.51 336.33L 835.99 336.31L 817 336.3L 805.63 336.25L 792.51 336.22L 776.99 336.13L 758 336.11L 746.63 336L 733.51 336.02L 717.99 336.05L 699 335.86L 687.63 335.74L 674.51 335.62L 658.99 335.24L 640 335.22L 628.63 335.04L 615.51 334.48L 599.99 334.11L 581 334.11L 569.63 333.67L 556.51 333.29L 540.99 332.63L 522 330.79L 510.63 330.01L 497.51 329.36L 481.99 330.99L 463 334.11L 451.63 329.6L 438.51 327.33L 422.99 325.56L 404 324.53L 392.63 323.09L 379.51 321.25L 363.99 322.77L 345 320.25L 333.63 317.27L 320.51 314.76L 304.99 311.44L 286 306.2L 274.63 303.52L 261.51 307.88L 245.99 298.57L 227 289.05L 215.63 284.75L 202.51 279.56L 186.99 273.15L 168 264.91L 143.51 269.33L 109 255.58L 50 229.12" fill="#5856D6" fill-opacity="0.30196078431372547" stroke="none"/>
    <path d="M 50 229.02L 109 255.63L 143.51 269.33L 168 279.31L 186.99 284.26L 202.51 291.5L 215.63 294.86L 227 298.67L 245.99 304.69L 261.51 309.04L 274.63 312.53L 286 312.95L 304.99 314.81L 320.51 321.25L 333.63 323.1L 345 324.53L 363.99 322.18L 379.51 323.86L 392.63 324.53L 404 319.35L 422.99 325.04L 438.51 329.17L 451.63 329.95L 463 330.94L 481.99 331.8L 497.51 331.4L 510.63 333.06L 522 334.11L 540.99 333.71L 556.51 334.53L 569.63 334.79L 581 334.98L 599.99 335.28L 615.51 335.46L 628.63 335.28L 640 335.57L 658.99 335.85L 674.51 335.95L 687.63 335.85L 699 336.03L 717.99 336.13L 733.51 336.18L 746.63 336.07L 758 335.91L 776.99 336.29L 792.51 336.3L 805.63 336.32L 817 336.33L 835.99 336.24L 851.51 336.36L 864.63 336.21L 876 336.38L 894.99 336.28L 910.51 336.38L 923.63 336.09L 935 336.15L 953.99 335.44L 969.51 336.26L 982.63 335.26L 994 335.97L 1013 336.12L 1028.5 330.97L 1041.6 336.22L 1053 336.34L 1072 336.38L 1087.5 336.37L 1100.6 336.41L 1112 336.32L 1131 336.32L 1146.5 336.4L 1159.6 327.74L 1171 336.33L 1190 331.12L 1205.5 336.39L 1218.6 336.14L 1230 336.16L 1230 336.4L 1218.6 336.41L 1205.5 336.42L 1190 336.16L 1171 336.41L 1159.6 336.38L 1146.5 336.43L 1131 336.41L 1112 336.38L 1100.6 336.41L 1087.5 336.41L 1072 336.43L 1053 336.39L 1041.6 336.33L 1028.5 336.43L 1013 336.36L 994 336.4L 982.63 336.36L 969.51 336.3L 953.99 336.41L 935 336.3L 923.63 336.4L 910.51 336.4L 894.99 336.4L 876 336.39L 864.63 336.38L 851.51 336.37L 835.99 336.52L 817 336.34L 805.63 336.34L 792.51 336.33L 776.99 336.29L 758 336.63L 746.63 336.4L 733.51 336.19L 717.99 336.14L 699 336.11L 687.63 336.39L 674.51 335.95L 658.99 335.85L 640 335.84L 628.63 336.42L 615.51 335.46L 599.99 335.28L 581 334.98L 569.63 334.79L 556.51 334.53L 540.99 334.55L 522 334.11L 510.63 333.23L 497.51 334.11L 481.99 332.03L 463 330.94L 451.63 330.26L 438.51 329.17L 422.99 331.27L 404 334.11L 392.63 324.53L 379.51 323.86L 363.99 322.92L 345 324.53L 333.63 323.1L 320.51 321.25L 304.99 318.79L 286 314.47L 274.63 312.53L 261.51 309.04L 245.99 306.75L 227 300.99L 215.63 297.25L 202.51 294.1L 186.99 287.01L 168 281.16L 143.51 269.33L 109 255.63L 50 229.12" fill="#FFCC00" fill-opacity="0.30196078431372547" stroke="none"/>
    <path d="M 50 276.58L 109 259.75L 143.51 261.75L 168 259.52L 186.99 258.31L 202.51 254.99L 215.63 255.92L 227 254.67L 245.99 249.95L 261.51 246.8L 274.63 247.96L 286 246.1L 304.99 240.3L 320.51 239.66L 333.63 239.18L 345 239.34L 363.99 234.43L 379.51 234L 392.63 232.69L 404 232.8L 422.99 228.37L 438.51 226.7L 451.63 225.65L 463 225.35L 481.99 221.91L 497.51 220.56L 510.63 219.24L 522 219.1L 540.99 213.13L 556.51 208.98L 569.63 205.7L 581 191.84L 599.99 175.28L 615.51 170.75L 628.63 167.99L 640 163.98L 658.99 154.94L 674.51 149.49L 687.63 152.07L 699 148.59L 717.99 150.22L 733.51 149.17L 746.63 148.41L 758 147.61L 776.99 146.77L 792.51 144.99L 805.63 143.67L 817 142.59L 835.99 137.97L 851.51 139.95L 864.63 141.35L 876 137.7L 894.99 140.66L 910.51 137.49L 923.63 139.38L 935 137.85L 953.99 137.79L 969.51 137.15L 982.63 134.78L 994 126.75L 1013 135.25L 1028.5 131.27L 1041.6 131.94L 1053 118.34L 1072 132.87L 1087.5 128.6L 1100.6 131.7L 1112 115.65L 1131 128.37L 1146.5 118.28L 1159.6 127.12L 1171 111.89L 1190 119.52L 1205.5 115.13L 1218.6 119.59L 1230 108.53L 1230 108.56L 1218.6 119.96L 1205.5 115.43L 1190 120.77L 1171 111.98L 1159.6 127.13L 1146.5 118.3L 1131 128.38L 1112 115.76L 1100.6 131.84L 1087.5 129.29L 1072 133.03L 1053 120.06L 1041.6 134.53L 1028.5 134.61L 1013 135.75L 994 131.32L 982.63 136.65L 969.51 137.26L 953.99 138.22L 935 137.91L 923.63 139.58L 910.51 139.96L 894.99 140.86L 876 140.53L 864.63 141.77L 851.51 142.68L 835.99 143.5L 817 144.17L 805.63 144.55L 792.51 145.55L 776.99 147.4L 758 147.85L 746.63 149.27L 733.51 149.34L 717.99 150.34L 699 151.1L 687.63 152.38L 674.51 152.4L 658.99 156.41L 640 164.48L 628.63 169.34L 615.51 172.34L 599.99 179.7L 581 194.09L 569.63 206.5L 556.51 209.5L 540.99 215.06L 522 219.12L 510.63 219.85L 497.51 220.63L 481.99 222.02L 463 225.38L 451.63 225.69L 438.51 227.15L 422.99 228.37L 404 232.8L 392.63 233.01L 379.51 234.09L 363.99 235.59L 345 240.69L 333.63 239.91L 320.51 241.17L 304.99 242.15L 286 246.46L 274.63 248.4L 261.51 250.73L 245.99 249.95L 227 254.67L 215.63 256.95L 202.51 254.99L 186.99 258.31L 168 259.52L 143.51 264.51L 109 263.77L 50 276.58" fill="#28CD41" fill-opacity="0.30196078431372547" stroke="none"/>
    <path d="M 50 135.44L 109 164.59L 143.51 181.49L 168 192.52L 186.99 201.29L 202.51 207.76L 215.63 212.45L 227 218L 245.99 225.59L 261.51 230.72L 274.63 234.58L 286 235.69L 304.99 241.73L 320.51 238.21L 333.63 244.98L 345 244.02L 363.99 252.08L 379.51 246.28L 392.63 251.77L 404 249.82L 422.99 257.52L 438.51 250.31L 451.63 256.03L 463 252.81L 481.99 259.9L 497.51 250.52L 510.63 256.88L 522 253.63L 540.99 260.76L 556.51 251.76L 569.63 258.15L 581 254.56L 599.99 261.39L 615.51 252.55L 628.63 258.64L 640 254.88L 658.99 261.94L 674.51 252.78L 687.63 258.62L 699 255L 717.99 261.41L 733.51 248.05L 746.63 255.17L 758 252.33L 776.99 258.71L 792.51 247.71L 805.63 255.49L 817 251.76L 835.99 256.86L 851.51 247.68L 864.63 255.67L 876 248.63L 894.99 258.45L 910.51 246.54L 923.63 254.6L 935 251.44L 953.99 259.01L 969.51 248.48L 982.63 253.62L 994 248.41L 1013 259.07L 1028.5 247.75L 1041.6 255.39L 1053 248.41L 1072 258.2L 1087.5 246.66L 1100.6 253.14L 1112 248.61L 1131 255.81L 1146.5 242.92L 1159.6 252.46L 1171 249.17L 1190 254.01L 1205.5 242.62L 1218.6 253.22L 1230 247.65L 1230 248.4L 1218.6 253.62L 1205.5 248.05L 1190 257.47L 1171 249.23L 1159.6 254.1L 1146.5 247.05L 1131 256.32L 1112 248.91L 1100.6 253.29L 1087.5 249.41L 1072 258.35L 1053 252.12L 1041.6 255.64L 1028.5 249.07L 1013 259.14L 994 252.05L 982.63 255.53L 969.51 248.96L 953.99 259.38L 935 252.16L 923.63 255.17L 910.51 249.49L 894.99 258.96L 876 252.19L 864.63 255.68L 851.51 248.85L 835.99 258.71L 817 252.06L 805.63 255.5L 792.51 249.67L 776.99 259.21L 758 252.68L 746.63 255.74L 733.51 249.98L 717.99 261.53L 699 255.12L 687.63 259.07L 674.51 252.79L 658.99 262.04L 640 254.9L 628.63 258.71L 615.51 252.75L 599.99 261.87L 581 254.57L 569.63 258.17L 556.51 252.66L 540.99 260.87L 522 253.66L 510.63 257.08L 497.51 251.54L 481.99 260.54L 463 252.86L 451.63 256.03L 438.51 250.32L 422.99 257.61L 404 249.92L 392.63 252.49L 379.51 246.4L 363.99 252.25L 345 244.02L 333.63 245.18L 320.51 239.04L 304.99 241.73L 286 236.58L 274.63 234.91L 261.51 231.08L 245.99 225.59L 227 218.4L 215.63 216.45L 202.51 207.76L 186.99 201.75L 168 192.98L 143.51 181.51L 109 164.59L 50 135.44" fill="#007AFF" fill-opacity="0.30196078431372547" stroke="none"/>
    <path d="M 50 241.5L 109 266.34L 143.51 282.79L 168 292.04L 186.99 293.57L 202.51 301.84L 215.63 304.39L 227 309.05L 245.99 311.59L 261.51 315.4L 274.63 319.3L 286 320.63L 304.99 317.47L 320.51 325.22L 333.63 326.62L 345 327.21L 363.99 324.54L 379.51 326.27L 392.63 313.75L 404 325.99L 422.99 329.05L 438.51 329.46L 451.63 330.19L 463 330.1L 481.99 331.99L 497.51 328.19L 510.63 333.68L 522 334.11L 540.99 332.05L 556.51 334.51L 569.63 336.26L 581 333.09L 599.99 333.87L 615.51 335.65L 628.63 335.53L 640 335.63L 658.99 335.86L 674.51 335.97L 687.63 336.01L 699 336.1L 717.99 336.14L 733.51 336.19L 746.63 336.13L 758 336.25L 776.99 336.28L 792.51 336.22L 805.63 336.35L 817 336.35L 835.99 336.36L 851.51 336.19L 864.63 336.37L 876 336.36L 894.99 336.24L 910.51 336.38L 923.63 336.33L 935 336.21L 953.99 336.29L 969.51 336.4L 982.63 336.41L 994 336.41L 1013 336.17L 1028.5 336.25L 1041.6 336L 1053 333.04L 1072 336.33L 1087.5 336.13L 1100.6 335.58L 1112 336.12L 1131 333.07L 1146.5 336.07L 1159.6 336.13L 1171 336L 1190 335.91L 1205.5 336.32L 1218.6 331.06L 1230 336.24L 1230 336.27L 1218.6 336.27L 1205.5 336.41L 1190 336.42L 1171 336.39L 1159.6 336.4L 1146.5 336.41L 1131 335.91L 1112 336.16L 1100.6 336.28L 1087.5 336.4L 1072 336.4L 1053 336.42L 1041.6 336.31L 1028.5 336.45L 1013 336.42L 994 336.43L 982.63 336.41L 969.51 336.41L 953.99 336.47L 935 336.4L 923.63 336.47L 910.51 336.38L 894.99 336.37L 876 336.39L 864.63 336.4L 851.51 336.39L 835.99 336.37L 817 336.36L 805.63 336.35L 792.51 336.45L 776.99 336.34L 758 336.32L 746.63 336.41L 733.51 336.27L 717.99 336.25L 699 336.18L 687.63 336.17L 674.51 336.12L 658.99 336.08L 640 336.08L 628.63 335.99L 615.51 335.65L 599.99 337.29L 581 335.26L 569.63 336.48L 556.51 335.22L 540.99 337.46L 522 334.11L 510.63 333.85L 497.51 339.82L 481.99 333.62L 463 334.11L 451.63 332.45L 438.51 331.68L 422.99 329.47L 404 329.64L 392.63 346.49L 379.51 326.27L 363.99 324.54L 345 328.24L 333.63 326.62L 320.51 325.22L 304.99 330.71L 286 320.63L 274.63 319.3L 261.51 317.61L 245.99 313.98L 227 309.05L 215.63 307.41L 202.51 301.84L 186.99 300.49L 168 292.04L 143.51 282.79L 109 271L 50 247.04" fill="#FF3B30" fill-opacity="0.30196078431372547" stroke="none"/>
    <path d="M 50 282.9L 109 294.14L 143.51 307.16L 168 310.55L 186.99 313.98L 202.51 318.81L 215.63 320.39L 227 321.58L 245.99 324.96L 261.51 326.61L 274.63 327.24L 286 327.7L 304.99 330.61L 320.51 331.48L 333.63 332.1L 345 332.27L 363.99 330.71L 379.51 334.57L 392.63 338.36L 404 329.5L 422.99 331.27L 438.51 331.68L 451.63 333.49L 463 334.11L 481.99 333.55L 497.51 334.11L 510.63 336.48L 522 335.08L 540.99 336.24L 556.51 335.38L 569.63 336.42L 581 335.62L 599.99 335.77L 615.51 335.88L 628.63 336.39L 640 336.08L 658.99 336.11L 674.51 336.48L 687.63 336.29L 699 336.23L 717.99 336.27L 733.51 336.29L 746.63 336.36L 758 336.34L 776.99 336.35L 792.51 336.36L 805.63 336.53L 817 336.5L 835.99 336.46L 851.51 336.36L 864.63 336.4L 876 336.39L 894.99 336.42L 910.51 336.43L 923.63 336.4L 935 336.4L 953.99 336.44L 969.51 336.38L 982.63 336.42L 994 336.41L 1013 336.43L 1028.5 335.71L 1041.6 336.42L 1053 336.41L 1072 336.22L 1087.5 336.42L 1100.6 336.43L 1112 336.39L 1131 336.43L 1146.5 336.42L 1159.6 334.72L 1171 336.03L 1190 334.91L 1205.5 336.19L 1218.6 336.06L 1230 336.26" fill="none" stroke-width="4" stroke="#A2845E" stroke-opacity="1" stroke-linecap="round" stroke-linejoin="round"/>
    <path d="M 50 282.9L 109 301.02L 143.51 305.34L 168 313.63L 186.99 316.69L 202.51 320.04L 215.63 321.45L 227 324.52L 245.99 326.4L 261.51 326.61L 274.63 328.5L 286 328.8L 304.99 330.61L 320.51 331.09L 333.63 332.45L 345 332.88L 363.99 329.97L 379.51 329.55L 392.63 337.97L 404 330.94L 422.99 331.91L 438.51 332.17L 451.63 332.96L 463 333.8L 481.99 334.17L 497.51 336.97L 510.63 335.69L 522 335.21L 540.99 335.32L 556.51 335.49L 569.63 335.99L 581 335.89L 599.99 335.86L 615.51 336.39L 628.63 336.19L 640 336.1L 658.99 336.2L 674.51 336.19L 687.63 336.39L 699 336.26L 717.99 336.4L 733.51 336.31L 746.63 336.37L 758 336.48L 776.99 336.52L 792.51 336.44L 805.63 336.39L 817 336.38L 835.99 336.4L 851.51 336.4L 864.63 336.4L 876 336.41L 894.99 336.41L 910.51 336.43L 923.63 336.36L 935 336.37L 953.99 336.39L 969.51 336.37L 982.63 336.35L 994 336.43L 1013 336.37L 1028.5 335.7L 1041.6 336.4L 1053 336.43L 1072 336.42L 1087.5 336.41L 1100.6 336.42L 1112 336.43L 1131 336.41L 1146.5 336.43L 1159.6 335.28L 1171 336.07L 1190 335.38L 1205.5 336.3L 1218.6 336.29L 1230 336.34" fill="none" stroke-width="4" stroke="#FF9500" stroke-opacity="1" stroke-linecap="round" stroke-linejoin="round"/>
    <path d="M 50 229.12L 109 254.7L 143.51 269.33L 168 264.91L 186.99 273.15L 202.51 279.56L 215.63 284.25L 227 288.58L 245.99 296.73L 261.51 303.43L 274.63 303.52L 286 306.2L 304.99 310.83L 320.51 314.48L 333.63 317.26L 345 319.97L 363.99 322.46L 379.51 321.25L 392.63 322.95L 404 324.28L 422.99 325.56L 438.51 325.91L 451.63 328.96L 463 330.79L 481.99 330.05L 497.51 329.36L 510.63 329.97L 522 330.76L 540.99 332.21L 556.51 332.93L 569.63 333.38L 581 333.8L 599.99 334.1L 615.51 334.47L 628.63 334.89L 640 335.11L 658.99 335.24L 674.51 335.52L 687.63 335.66L 699 335.77L 717.99 335.94L 733.51 335.98L 746.63 336L 758 336.08L 776.99 336.13L 792.51 336.2L 805.63 336.23L 817 336.2L 835.99 336.31L 851.51 336.32L 864.63 336.33L 876 336.3L 894.99 336.36L 910.51 336.36L 923.63 336.4L 935 336.29L 953.99 336.39L 969.51 336.31L 982.63 336.34L 994 336.38L 1013 336.38L 1028.5 335.68L 1041.6 336.41L 1053 336.38L 1072 336.4L 1087.5 336.39L 1100.6 336.4L 1112 336.23L 1131 336.27L 1146.5 336.41L 1159.6 334.61L 1171 336.01L 1190 334.94L 1205.5 336.35L 1218.6 336.34L 1230 336.38" fill="none" stroke-width="4" stroke="#5856D6" stroke-opacity="1" stroke-linecap="round" stroke-linejoin="round"/>
    <path d="M 50 229.09L 109 255.63L 143.51 269.33L 168 280.67L 186.99 286.27L 202.51 293.41L 215.63 296.62L 227 300.37L 245.99 306.21L 261.51 309.04L 274.63 312.53L 286 314.07L 304.99 317.71L 320.51 321.25L 333.63 323.1L 345 324.53L 363.99 322.73L 379.51 323.86L 392.63 324.53L 404 329.79L 422.99 329.56L 438.51 329.17L 451.63 330.17L 463 330.94L 481.99 331.97L 497.51 333.39L 510.63 333.18L 522 334.11L 540.99 334.33L 556.51 334.53L 569.63 334.79L 581 334.98L 599.99 335.28L 615.51 335.46L 628.63 336.12L 640 335.77L 658.99 335.85L 674.51 335.95L 687.63 336.25L 699 336.09L 717.99 336.14L 733.51 336.19L 746.63 336.31L 758 336.44L 776.99 336.29L 792.51 336.32L 805.63 336.33L 817 336.34L 835.99 336.45L 851.51 336.37L 864.63 336.33L 876 336.39L 894.99 336.37L 910.51 336.4L 923.63 336.32L 935 336.26L 953.99 336.16L 969.51 336.29L 982.63 336.07L 994 336.28L 1013 336.3L 1028.5 334.94L 1041.6 336.3L 1053 336.38L 1072 336.42L 1087.5 336.4L 1100.6 336.41L 1112 336.36L 1131 336.39L 1146.5 336.42L 1159.6 333.96L 1171 336.39L 1190 334.79L 1205.5 336.41L 1218.6 336.34L 1230 336.34" fill="none" stroke-width="4" stroke="#FFCC00" stroke-opacity="1" stroke-linecap="round" stroke-linejoin="round"/>
    <path d="M 50 276.58L 109 262.69L 143.51 263.77L 168 259.52L 186.99 258.31L 202.51 254.99L 215.63 256.68L 227 254.67L 245.99 249.95L 261.51 249.67L 274.63 248.29L 286 246.37L 304.99 241.66L 320.51 240.77L 333.63 239.72L 345 240.34L 363.99 235.28L 379.51 234.07L 392.63 232.93L 404 232.8L 422.99 228.37L 438.51 227.03L 451.63 225.68L 463 225.38L 481.99 221.99L 497.51 220.61L 510.63 219.69L 522 219.11L 540.99 214.55L 556.51 209.36L 569.63 206.29L 581 193.49L 599.99 178.5L 615.51 171.92L 628.63 168.99L 640 164.35L 658.99 156.02L 674.51 151.62L 687.63 152.29L 699 150.43L 717.99 150.31L 733.51 149.29L 746.63 149.04L 758 147.79L 776.99 147.24L 792.51 145.4L 805.63 144.32L 817 143.75L 835.99 142L 851.51 141.95L 864.63 141.66L 876 139.77L 894.99 140.81L 910.51 139.3L 923.63 139.53L 935 137.9L 953.99 138.11L 969.51 137.23L 982.63 136.16L 994 130.09L 1013 135.62L 1028.5 133.72L 1041.6 133.84L 1053 119.61L 1072 132.99L 1087.5 129.11L 1100.6 131.8L 1112 115.73L 1131 128.38L 1146.5 118.3L 1159.6 127.13L 1171 111.96L 1190 120.44L 1205.5 115.35L 1218.6 119.87L 1230 108.55" fill="none" stroke-width="4" stroke="#28CD41" stroke-opacity="1" stroke-linecap="round" stroke-linejoin="round"/>
    <path d="M 50 135.44L 109 164.59L 143.51 181.5L 168 192.86L 186.99 201.63L 202.51 207.76L 215.63 215.37L 227 218.29L 245.99 225.59L 261.51 230.99L 274.63 234.83L 286 236.34L 304.99 241.73L 320.51 238.82L 333.63 245.13L 345 244.02L 363.99 252.21L 379.51 246.37L 392.63 252.3L 404 249.89L 422.99 257.58L 438.51 250.32L 451.63 256.03L 463 252.85L 481.99 260.37L 497.51 251.27L 510.63 257.03L 522 253.65L 540.99 260.84L 556.51 252.42L 569.63 258.17L 581 254.57L 599.99 261.74L 615.51 252.7L 628.63 258.69L 640 254.89L 658.99 262.02L 674.51 252.79L 687.63 258.95L 699 255.09L 717.99 261.5L 733.51 249.47L 746.63 255.59L 758 252.59L 776.99 259.08L 792.51 249.15L 805.63 255.49L 817 251.98L 835.99 258.22L 851.51 248.54L 864.63 255.68L 876 251.23L 894.99 258.82L 910.51 248.7L 923.63 255.02L 935 251.97L 953.99 259.28L 969.51 248.83L 982.63 255.02L 994 251.07L 1013 259.12L 1028.5 248.72L 1041.6 255.58L 1053 251.12L 1072 258.31L 1087.5 248.67L 1100.6 253.25L 1112 248.83L 1131 256.19L 1146.5 245.94L 1159.6 253.67L 1171 249.21L 1190 256.54L 1205.5 246.57L 1218.6 253.51L 1230 248.2" fill="none" stroke-width="4" stroke="#007AFF" stroke-opacity="1" stroke-linecap="round" stroke-linejoin="round"/>
    <path d="M 50 245.53L 109 269.74L 143.51 282.79L 168 292.04L 186.99 298.58L 202.51 301.84L 215.63 306.6L 227 309.05L 245.99 313.35L 261.51 317.02L 274.63 319.3L 286 320.63L 304.99 326.87L 320.51 325.22L 333.63 326.62L 345 327.97L 363.99 324.54L 379.51 326.27L 392.63 335.51L 404 328.66L 422.99 329.36L 438.51 331.09L 451.63 331.85L 463 333.03L 481.99 333.19L 497.51 336.5L 510.63 333.8L 522 334.11L 540.99 335.98L 556.51 335.03L 569.63 336.42L 581 334.68L 599.99 336.38L 615.51 335.65L 628.63 335.87L 640 335.96L 658.99 336.02L 674.51 336.08L 687.63 336.13L 699 336.16L 717.99 336.22L 733.51 336.25L 746.63 336.33L 758 336.3L 776.99 336.32L 792.51 336.39L 805.63 336.35L 817 336.36L 835.99 336.37L 851.51 336.33L 864.63 336.39L 876 336.38L 894.99 336.34L 910.51 336.38L 923.63 336.44L 935 336.35L 953.99 336.42L 969.51 336.41L 982.63 336.41L 994 336.42L 1013 336.35L 1028.5 336.4L 1041.6 336.23L 1053 335.51L 1072 336.38L 1087.5 336.33L 1100.6 336.09L 1112 336.15L 1131 335.15L 1146.5 336.32L 1159.6 336.33L 1171 336.29L 1190 336.29L 1205.5 336.39L 1218.6 334.86L 1230 336.26" fill="none" stroke-width="4" stroke="#FF3B30" stroke-opacity="1" stroke-linecap="round" stroke-linejoin="round"/>
    <path d="M 50 282.9L 109 294.14L 143.51 307.16L 168 310.55L 186.99 313.98L 202.51 318.81L 215.63 320.39L 227 321.58L 245.99 324.96L 261.51 326.61L 274.63 327.24L 286 327.7L 304.99 330.61L 320.51 331.48L 333.63 332.1L 345 332.27L 363.99 330.71L 379.51 334.57L 392.63 338.36L 404 329.5L 422.99 331.27L 438.51 331.68L 451.63 333.49L 463 334.11L 481.99 333.55L 497.51 334.11L 510.63 336.48L 522 335.08L 540.99 336.24L 556.51 335.38L 569.63 336.42L 581 335.62L 599.99 335.77L 615.51 335.88L 628.63 336.39L 640 336.08L 658.99 336.11L 674.51 336.48L 687.63 336.29L 699 336.23L 717.99 336.27L 733.51 336.29L 746.63 336.36L 758 336.34L 776.99 336.35L 792.51 336.36L 805.63 336.53L 817 336.5L 835.99 336.46L 851.51 336.36L 864.63 336.4L 876 336.39L 894.99 336.42L 910.51 336.43L 923.63 336.4L 935 336.4L 953.99 336.44L 969.51 336.38L 982.63 336.42L 994 336.41L 1013 336.43L 1028.5 335.71L 1041.6 336.42L 1053 336.41L 1072 336.22L 1087.5 336.42L 1100.6 336.43L 1112 336.39L 1131 336.43L 1146.5 336.42L 1159.6 334.72L 1171 336.03L 1190 334.91L 1205.5 336.19L 1218.6 336.06L 1230 336.26" fill="none" stroke-width="0.5" stroke="#000000" stroke-opacity="0.30196" stroke-linecap="round" stroke-linejoin="round"/>
    <path d="M 50 282.9L 109 301.02L 143.51 305.34L 168 313.63L 186.99 316.69L 202.51 320.04L 215.63 321.45L 227 324.52L 245.99 326.4L 261.51 326.61L 274.63 328.5L 286 328.8L 304.99 330.61L 320.51 331.09L 333.63 332.45L 345 332.88L 363.99 329.97L 379.51 329.55L 392.63 337.97L 404 330.94L 422.99 331.91L 438.51 332.17L 451.63 332.96L 463 333.8L 481.99 334.17L 497.51 336.97L 510.63 335.69L 522 335.21L 540.99 335.32L 556.51 335.49L 569.63 335.99L 581 335.89L 599.99 335.86L 615.51 336.39L 628.63 336.19L 640 336.1L 658.99 336.2L 674.51 336.19L 687.63 336.39L 699 336.26L 717.99 336.4L 733.51 336.31L 746.63 336.37L 758 336.48L 776.99 336.52L 792.51 336.44L 805.63 336.39L 817 336.38L 835.99 336.4L 851.51 336.4L 864.63 336.4L 876 336.41L 894.99 336.41L 910.51 336.43L 923.63 336.36L 935 336.37L 953.99 336.39L 969.51 336.37L 982.63 336.35L 994 336.43L 1013 336.37L 1028.5 335.7L 1041.6 336.4L 1053 336.43L 1072 336.42L 1087.5 336.41L 1100.6 336.42L 1112 336.43L 1131 336.41L 1146.5 336.43L 1159.6 335.28L 1171 336.07L 1190 335.38L 1205.5 336.3L 1218.6 336.29L 1230 336.34" fill="none" stroke-width="0.5" stroke="#000000" stroke-opacity="0.30196" stroke-linecap="round" stroke-linejoin="round"/>
    <path d="M 50 229.12L 109 254.7L 143.51 269.33L 168 264.91L 186.99 273.15L 202.51 279.56L 215.63 284.25L 227 288.58L 245.99 296.73L 261.51 303.43L 274.63 303.52L 286 306.2L 304.99 310.83L 320.51 314.48L 333.63 317.26L 345 319.97L 363.99 322.46L 379.51 321.25L 392.63 322.95L 404 324.28L 422.99 325.56L 438.51 325.91L 451.63 328.96L 463 330.79L 481.99 330.05L 497.51 329.36L 510.63 329.97L 522 330.76L 540.99 332.21L 556.51 332.93L 569.63 333.38L 581 333.8L 599.99 334.1L 615.51 334.47L 628.63 334.89L 640 335.11L 658.99 335.24L 674.51 335.52L 687.63 335.66L 699 335.77L 717.99 335.94L 733.51 335.98L 746.63 336L 758 336.08L 776.99 336.13L 792.51 336.2L 805.63 336.23L 817 336.2L 835.99 336.31L 851.51 336.32L 864.63 336.33L 876 336.3L 894.99 336.36L 910.51 336.36L 923.63 336.4L 935 336.29L 953.99 336.39L 969.51 336.31L 982.63 336.34L 994 336.38L 1013 336.38L 1028.5 335.68L 1041.6 336.41L 1053 336.38L 1072 336.4L 1087.5 336.39L 1100.6 336.4L 1112 336.23L 1131 336.27L 1146.5 336.41L 1159.6 334.61L 1171 336.01L 1190 334.94L 1205.5 336.35L 1218.6 336.34L 1230 336.38" fill="none" stroke-width="0.5" stroke="#000000" stroke-opacity="0.30196" stroke-linecap="round" stroke-linejoin="round"/>
    <path d="M 50 229.09L 109 255.63L 143.51 269.33L 168 280.67L 186.99 286.27L 202.51 293.41L 215.63 296.62L 227 300.37L 245.99 306.21L 261.51 309.04L 274.63 312.53L 286 314.07L 304.99 317.71L 320.51 321.25L 333.63 323.1L 345 324.53L 363.99 322.73L 379.51 323.86L 392.63 324.53L 404 329.79L 422.99 329.56L 438.51 329.17L 451.63 330.17L 463 330.94L 481.99 331.97L 497.51 333.39L 510.63 333.18L 522 334.11L 540.99 334.33L 556.51 334.53L 569.63 334.79L 581 334.98L 599.99 335.28L 615.51 335.46L 628.63 336.12L 640 335.77L 658.99 335.85L 674.51 335.95L 687.63 336.25L 699 336.09L 717.99 336.14L 733.51 336.19L 746.63 336.31L 758 336.44L 776.99 336.29L 792.51 336.32L 805.63 336.33L 817 336.34L 835.99 336.45L 851.51 336.37L 864.63 336.33L 876 336.39L 894.99 336.37L 910.51 336.4L 923.63 336.32L 935 336.26L 953.99 336.16L 969.51 336.29L 982.63 336.07L 994 336.28L 1013 336.3L 1028.5 334.94L 1041.6 336.3L 1053 336.38L 1072 336.42L 1087.5 336.4L 1100.6 336.41L 1112 336.36L 1131 336.39L 1146.5 336.42L 1159.6 333.96L 1171 336.39L 1190 334.79L 1205.5 336.41L 1218.6 336.34L 1230 336.34" fill="none" stroke-width="0.5" stroke="#000000" stroke-opacity="0.30196" stroke-linecap="round" stroke-linejoin="round"/>
    <path d="M 50 276.58L 109 262.69L 143.51 263.77L 168 259.52L 186.99 258.31L 202.51 254.99L 215.63 256.68L 227 254.67L 245.99 249.95L 261.51 249.67L 274.63 248.29L 286 246.37L 304.99 241.66L 320.51 240.77L 333.63 239.72L 345 240.34L 363.99 235.28L 379.51 234.07L 392.63 232.93L 404 232.8L 422.99 228.37L 438.51 227.03L 451.63 225.68L 463 225.38L 481.99 221.99L 497.51 220.61L 510.63 219.69L 522 219.11L 540.99 214.55L 556.51 209.36L 569.63 206.29L 581 193.49L 599.99 178.5L 615.51 171.92L 628.63 168.99L 640 164.35L 658.99 156.02L 674.51 151.62L 687.63 152.29L 699 150.43L 717.99 150.31L 733.51 149.29L 746.63 149.04L 758 147.79L 776.99 147.24L 792.51 145.4L 805.63 144.32L 817 143.75L 835.99 142L 851.51 141.95L 864.63 141.66L 876 139.77L 894.99 140.81L 910.51 139.3L 923.63 139.53L 935 137.9L 953.99 138.11L 969.51 137.23L 982.63 136.16L 994 130.09L 1013 135.62L 1028.5 133.72L 1041.6 133.84L 1053 119.61L 1072 132.99L 1087.5 129.11L 1100.6 131.8L 1112 115.73L 1131 128.38L 1146.5 118.3L 1159.6 127.13L 1171 111.96L 1190 120.44L 1205.5 115.35L 1218.6 119.87L 1230 108.55" fill="none" stroke-width="0.5" stroke="#000000" stroke-opacity="0.30196" stroke-linecap="round" stroke-linejoin="round"/>
    <path d="M 50 135.44L 109 164.59L 143.51 181.5L 168 192.86L 186.99 201.63L 202.51 207.76L 215.63 215.37L 227 218.29L 245.99 225.59L 261.51 230.99L 274.63 234.83L 286 236.34L 304.99 241.73L 320.51 238.82L 333.63 245.13L 345 244.02L 363.99 252.21L 379.51 246.37L 392.63 252.3L 404 249.89L 422.99 257.58L 438.51 250.32L 451.63 256.03L 463 252.85L 481.99 260.37L 497.51 251.27L 510.63 257.03L 522 253.65L 540.99 260.84L 556.51 252.42L 569.63 258.17L 581 254.57L 599.99 261.74L 615.51 252.7L 628.63 258.69L 640 254.89L 658.99 262.02L 674.51 252.79L 687.63 258.95L 699 255.09L 717.99 261.5L 733.51 249.47L 746.63 255.59L 758 252.59L 776.99 259.08L 792.51 249.15L 805.63 255.49L 817 251.98L 835.99 258.22L 851.51 248.54L 864.63 255.68L 876 251.23L 894.99 258.82L 910.51 248.7L 923.63 255.02L 935 251.97L 953.99 259.28L 969.51 248.83L 982.63 255.02L 994 251.07L 1013 259.12L 1028.5 248.72L 1041.6 255.58L 1053 251.12L 1072 258.31L 1087.5 248.67L 1100.6 253.25L 1112 248.83L 1131 256.19L 1146.5 245.94L 1159.6 253.67L 1171 249.21L 1190 256.54L 1205.5 246.57L 1218.6 253.51L 1230 248.2" fill="none" stroke-width="0.5" stroke="#000000" stroke-opacity="0.30196" stroke-linecap="round" stroke-linejoin="round"/>
    <path d="M 50 245.53L 109 269.74L 143.51 282.79L 168 292.04L 186.99 298.58L 202.51 301.84L 215.63 306.6L 227 309.05L 245.99 313.35L 261.51 317.02L 274.63 319.3L 286 320.63L 304.99 326.87L 320.51 325.22L 333.63 326.62L 345 327.97L 363.99 324.54L 379.51 326.27L 392.63 335.51L 404 328.66L 422.99 329.36L 438.51 331.09L 451.63 331.85L 463 333.03L 481.99 333.19L 497.51 336.5L 510.63 333.8L 522 334.11L 540.99 335.98L 556.51 335.03L 569.63 336.42L 581 334.68L 599.99 336.38L 615.51 335.65L 628.63 335.87L 640 335.96L 658.99 336.02L 674.51 336.08L 687.63 336.13L 699 336.16L 717.99 336.22L 733.51 336.25L 746.63 336.33L 758 336.3L 776.99 336.32L 792.51 336.39L 805.63 336.35L 817 336.36L 835.99 336.37L 851.51 336.33L 864.63 336.39L 876 336.38L 894.99 336.34L 910.51 336.38L 923.63 336.44L 935 336.35L 953.99 336.42L 969.51 336.41L 982.63 336.41L 994 336.42L 1013 336.35L 1028.5 336.4L 1041.6 336.23L 1053 335.51L 1072 336.38L 1087.5 336.33L 1100.6 336.09L 1112 336.15L 1131 335.15L 1146.5 336.32L 1159.6 336.33L 1171 336.29L 1190 336.29L 1205.5 336.39L 1218.6 334.86L 1230 336.26" fill="none" stroke-width="0.5" stroke="#000000" stroke-opacity="0.30196" stroke-linecap="round" stroke-linejoin="round"/>
  </g>
  <path d="M 74 33 L 74 173 L 543 173 L 543 33 z" fill="#FFFFFF" fill-opacity="0.7019607843137254" stroke-width="0.5" stroke="#000000" stroke-opacity="1" stroke-linecap="round" stroke-linejoin="round"/>
  <path d="M 88 52 L 108 52" fill="none" stroke-width="4" stroke="#FF3B30" stroke-opacity="1" stroke-linecap="round" stroke-linejoin="round"/>
  <path d="M 88 52 L 108 52" fill="none" stroke-width="0.5" stroke="#000000" stroke-opacity="0.30196" stroke-linecap="round" stroke-linejoin="round"/>
  <text x="119" y="56.17" font-family="Menlo" font-size="12" font-weight="normal" font-style="normal" fill="#000000" fill-opacity="1">Array&lt;Int&gt; sequential iteration</text>
  <path d="M 88 69 L 108 69" fill="none" stroke-width="4" stroke="#007AFF" stroke-opacity="1" stroke-linecap="round" stroke-linejoin="round"/>
  <path d="M 88 69 L 108 69" fill="none" stroke-width="0.5" stroke="#000000" stroke-opacity="0.30196" stroke-linecap="round" stroke-linejoin="round"/>
  <text x="119" y="73.17" font-family="Menlo" font-size="12" font-weight="normal" font-style="normal" fill="#000000" fill-opacity="1">TreeArray&lt;Int&gt; sequential iteration (iterator)</text>
  <path d="M 88 86 L 108 86" fill="none" stroke-width="4" stroke="#28CD41" stroke-opacity="1" stroke-linecap="round" stroke-linejoin="round"/>
  <path d="M 88 86 L 108 86" fill="none" stroke-width="0.5" stroke="#000000" stroke-opacity="0.30196" stroke-linecap="round" stroke-linejoin="round"/>
  <text x="119" y="90.17" font-family="Menlo" font-size="12" font-weight="normal" font-style="normal" fill="#000000" fill-opacity="1">TreeArray&lt;Int&gt; sequential iteration (indices)</text>
  <path d="M 88 103 L 108 103" fill="none" stroke-width="4" stroke="#FFCC00" stroke-opacity="1" stroke-linecap="round" stroke-linejoin="round"/>
  <path d="M 88 103 L 108 103" fill="none" stroke-width="0.5" stroke="#000000" stroke-opacity="0.30196" stroke-linecap="round" stroke-linejoin="round"/>
  <text x="119" y="107.17" font-family="Menlo" font-size="12" font-weight="normal" font-style="normal" fill="#000000" fill-opacity="1">Deque&lt;Int&gt; sequential iteration (contiguous, iterator)</text>
  <path d="M 88 120 L 108 120" fill="none" stroke-width="4" stroke="#5856D6" stroke-opacity="1" stroke-linecap="round" stroke-linejoin="round"/>
  <path d="M 88 120 L 108 120" fill="none" stroke-width="0.5" stroke="#000000" stroke-opacity="0.30196" stroke-linecap="round" stroke-linejoin="round"/>
  <text x="119" y="124.17" font-family="Menlo" font-size="12" font-weight="normal" font-style="normal" fill="#000000" fill-opacity="1">Deque&lt;Int&gt; sequential iteration (discontiguous, iterator)</text>
  <path d="M 88 137 L 108 137" fill="none" stroke-width="4" stroke="#FF9500" stroke-opacity="1" stroke-linecap="round" stroke-linejoin="round"/>
  <path d="M 88 137 L 108 137" fill="none" stroke-width="0.5" stroke="#000000" stroke-opacity="0.30196" stroke-linecap="round" stroke-linejoin="round"/>
  <text x="119" y="141.17" font-family="Menlo" font-size="12" font-weight="normal" font-style="normal" fill="#000000" fill-opacity="1">Deque&lt;Int&gt; sequential iteration (contiguous, indices)</text>
  <path d="M 88 154 L 108 154" fill="none" stroke-width="4" stroke="#A2845E" stroke-opacity="1" stroke-linecap="round" stroke-linejoin="round"/>
  <path d="M 88 154 L 108 154" fill="none" stroke-width="0.5" stroke="#000000" stroke-opacity="0.30196" stroke-linecap="round" stroke-linejoin="round"/>
  <text x="119" y="158.17" font-family="Menlo" font-size="12" font-weight="normal" font-style="normal" fill="#000000" fill-opacity="1">Deque&lt;Int&gt; sequential iteration (discontiguous, indices)</text>
  <path d="M 50 9 L 50 441 L 1230 441 L 1230 9 z" fill="none" stroke-width="0.5" stroke="#000000" stroke-opacity="1" stroke-linecap="round" stroke-linejoin="round"/>
</svg>
