<!DOCTYPE svg PUBLIC "-//W3C//DTD SVG 1.1//EN" "http://www.w3.org/Graphics/SVG/1.1/DTD/svg11.dtd">
<svg width="1280.0px" height="480.0px" viewBox="0.0 0.0 1280.0 480.0" xmlns="http://www.w3.org/2000/svg" xmlns:xlink="http://www.w3.org/1999/xlink" version="1.1">
  <path d="M 0 0 L 0 480 L 1280 480 L 1280 0 z" fill="#FFFFFF" fill-opacity="1.0" stroke="none"/>
  <text x="50" y="468.7" font-family="Helvetica" font-size="10" font-weight="normal" font-style="normal" fill="#000000" fill-opacity="1">Average per-element processing time over input size (bands: min, mean, mean + 2stddev)</text>
  <a xlink:href="https://github.com/apple/swift-collections-benchmark"><text x="1107" y="468.7" font-family="Helvetica" font-size="10" font-weight="normal" font-style="normal" fill="#000000" fill-opacity="1">swift-collections-benchmark</text></a>
  <path d="M 50 9 L 50 441" fill="none" stroke-width="0.75" stroke="#000000" stroke-opacity="0.49804" stroke-linecap="butt" stroke-linejoin="round"/>
  <text x="47" y="453.7" font-family="Helvetica" font-size="10" font-weight="normal" font-style="normal" fill="#000000" fill-opacity="1">1</text>
  <path d="M 109 9 L 109 441" fill="none" stroke-width="0.75" stroke="#000000" stroke-opacity="0.49804" stroke-linecap="butt" stroke-linejoin="round"/>
  <text x="106" y="453.7" font-family="Helvetica" font-size="10" font-weight="normal" font-style="normal" fill="#000000" fill-opacity="1">2</text>
  <path d="M 168 9 L 168 441" fill="none" stroke-width="0.75" stroke="#000000" stroke-opacity="0.49804" stroke-linecap="butt" stroke-linejoin="round"/>
  <text x="165" y="453.7" font-family="Helvetica" font-size="10" font-weight="normal" font-style="normal" fill="#000000" fill-opacity="1">4</text>
  <path d="M 227 9 L 227 441" fill="none" stroke-width="0.75" stroke="#000000" stroke-opacity="0.49804" stroke-linecap="butt" stroke-linejoin="round"/>
  <text x="224" y="453.7" font-family="Helvetica" font-size="10" font-weight="normal" font-style="normal" fill="#000000" fill-opacity="1">8</text>
  <path d="M 286 9 L 286 441" fill="none" stroke-width="0.75" stroke="#000000" stroke-opacity="0.49804" stroke-linecap="butt" stroke-linejoin="round"/>
  <text x="280" y="453.7" font-family="Helvetica" font-size="10" font-weight="normal" font-style="normal" fill="#000000" fill-opacity="1">16</text>
  <path d="M 345 9 L 345 441" fill="none" stroke-width="0.75" stroke="#000000" stroke-opacity="0.49804" stroke-linecap="butt" stroke-linejoin="round"/>
  <text x="339" y="453.7" font-family="Helvetica" font-size="10" font-weight="normal" font-style="normal" fill="#000000" fill-opacity="1">32</text>
  <path d="M 404 9 L 404 441" fill="none" stroke-width="0.75" stroke="#000000" stroke-opacity="0.49804" stroke-linecap="butt" stroke-linejoin="round"/>
  <text x="398" y="453.7" font-family="Helvetica" font-size="10" font-weight="normal" font-style="normal" fill="#000000" fill-opacity="1">64</text>
  <path d="M 463 9 L 463 441" fill="none" stroke-width="0.75" stroke="#000000" stroke-opacity="0.49804" stroke-linecap="butt" stroke-linejoin="round"/>
  <text x="454.5" y="453.7" font-family="Helvetica" font-size="10" font-weight="normal" font-style="normal" fill="#000000" fill-opacity="1">128</text>
  <path d="M 522 9 L 522 441" fill="none" stroke-width="0.75" stroke="#000000" stroke-opacity="0.49804" stroke-linecap="butt" stroke-linejoin="round"/>
  <text x="513.5" y="453.7" font-family="Helvetica" font-size="10" font-weight="normal" font-style="normal" fill="#000000" fill-opacity="1">256</text>
  <path d="M 581 9 L 581 441" fill="none" stroke-width="0.75" stroke="#000000" stroke-opacity="0.49804" stroke-linecap="butt" stroke-linejoin="round"/>
  <text x="572.5" y="453.7" font-family="Helvetica" font-size="10" font-weight="normal" font-style="normal" fill="#000000" fill-opacity="1">512</text>
  <path d="M 640 9 L 640 441" fill="none" stroke-width="0.75" stroke="#000000" stroke-opacity="0.49804" stroke-linecap="butt" stroke-linejoin="round"/>
  <text x="634.5" y="453.7" font-family="Helvetica" font-size="10" font-weight="normal" font-style="normal" fill="#000000" fill-opacity="1">1k</text>
  <path d="M 699 9 L 699 441" fill="none" stroke-width="0.75" stroke="#000000" stroke-opacity="0.49804" stroke-linecap="butt" stroke-linejoin="round"/>
  <text x="693.5" y="453.7" font-family="Helvetica" font-size="10" font-weight="normal" font-style="normal" fill="#000000" fill-opacity="1">2k</text>
  <path d="M 758 9 L 758 441" fill="none" stroke-width="0.75" stroke="#000000" stroke-opacity="0.49804" stroke-linecap="butt" stroke-linejoin="round"/>
  <text x="752.5" y="453.7" font-family="Helvetica" font-size="10" font-weight="normal" font-style="normal" fill="#000000" fill-opacity="1">4k</text>
  <path d="M 817 9 L 817 441" fill="none" stroke-width="0.75" stroke="#000000" stroke-opacity="0.49804" stroke-linecap="butt" stroke-linejoin="round"/>
  <text x="811.5" y="453.7" font-family="Helvetica" font-size="10" font-weight="normal" font-style="normal" fill="#000000" fill-opacity="1">8k</text>
  <path d="M 876 9 L 876 441" fill="none" stroke-width="0.75" stroke="#000000" stroke-opacity="0.49804" stroke-linecap="butt" stroke-linejoin="round"/>
  <text x="867.5" y="453.7" font-family="Helvetica" font-size="10" font-weight="normal" font-style="normal" fill="#000000" fill-opacity="1">16k</text>
  <path d="M 935 9 L 935 441" fill="none" stroke-width="0.75" stroke="#000000" stroke-opacity="0.49804" stroke-linecap="butt" stroke-linejoin="round"/>
  <text x="926.5" y="453.7" font-family="Helvetica" font-size="10" font-weight="normal" font-style="normal" fill="#000000" fill-opacity="1">32k</text>
  <path d="M 994 9 L 994 441" fill="none" stroke-width="0.75" stroke="#000000" stroke-opacity="0.49804" stroke-linecap="butt" stroke-linejoin="round"/>
  <text x="985.5" y="453.7" font-family="Helvetica" font-size="10" font-weight="normal" font-style="normal" fill="#000000" fill-opacity="1">64k</text>
  <path d="M 1053 9 L 1053 441" fill="none" stroke-width="0.75" stroke="#000000" stroke-opacity="0.49804" stroke-linecap="butt" stroke-linejoin="round"/>
  <text x="1042" y="453.7" font-family="Helvetica" font-size="10" font-weight="normal" font-style="normal" fill="#000000" fill-opacity="1">128k</text>
  <path d="M 1112 9 L 1112 441" fill="none" stroke-width="0.75" stroke="#000000" stroke-opacity="0.49804" stroke-linecap="butt" stroke-linejoin="round"/>
  <text x="1101" y="453.7" font-family="Helvetica" font-size="10" font-weight="normal" font-style="normal" fill="#000000" fill-opacity="1">256k</text>
  <path d="M 1171 9 L 1171 441" fill="none" stroke-width="0.75" stroke="#000000" stroke-opacity="0.49804" stroke-linecap="butt" stroke-linejoin="round"/>
  <text x="1160" y="453.7" font-family="Helvetica" font-size="10" font-weight="normal" font-style="normal" fill="#000000" fill-opacity="1">512k</text>
  <path d="M 1230 9 L 1230 441" fill="none" stroke-width="0.75" stroke="#000000" stroke-opacity="0.49804" stroke-linecap="butt" stroke-linejoin="round"/>
  <text x="1223" y="453.7" font-family="Helvetica" font-size="10" font-weight="normal" font-style="normal" fill="#000000" fill-opacity="1">1M</text>
  <path d="M 50 441 L 1230 441" fill="none" stroke-width="0.75" stroke="#000000" stroke-opacity="0.49804" stroke-linecap="butt" stroke-linejoin="round"/>
  <text x="16" y="442.7" font-family="Helvetica" font-size="10" font-weight="normal" font-style="normal" fill="#000000" fill-opacity="1">100 ps</text>
  <text x="1236" y="442.7" font-family="Helvetica" font-size="10" font-weight="normal" font-style="normal" fill="#000000" fill-opacity="1">100 ps</text>
  <path d="M 50 297 L 1230 297" fill="none" stroke-width="0.75" stroke="#000000" stroke-opacity="0.49804" stroke-linecap="butt" stroke-linejoin="round"/>
  <text x="27" y="298.7" font-family="Helvetica" font-size="10" font-weight="normal" font-style="normal" fill="#000000" fill-opacity="1">1 ns</text>
  <text x="1236" y="298.7" font-family="Helvetica" font-size="10" font-weight="normal" font-style="normal" fill="#000000" fill-opacity="1">1 ns</text>
  <path d="M 50 153 L 1230 153" fill="none" stroke-width="0.75" stroke="#000000" stroke-opacity="0.49804" stroke-linecap="butt" stroke-linejoin="round"/>
  <text x="21" y="154.7" font-family="Helvetica" font-size="10" font-weight="normal" font-style="normal" fill="#000000" fill-opacity="1">10 ns</text>
  <text x="1236" y="154.7" font-family="Helvetica" font-size="10" font-weight="normal" font-style="normal" fill="#000000" fill-opacity="1">10 ns</text>
  <path d="M 50 9 L 1230 9" fill="none" stroke-width="0.75" stroke="#000000" stroke-opacity="0.49804" stroke-linecap="butt" stroke-linejoin="round"/>
  <text x="16" y="10.7" font-family="Helvetica" font-size="10" font-weight="normal" font-style="normal" fill="#000000" fill-opacity="1">100 ns</text>
  <text x="1236" y="10.7" font-family="Helvetica" font-size="10" font-weight="normal" font-style="normal" fill="#000000" fill-opacity="1">100 ns</text>
  <path d="M 50 397.65 L 1230 397.65" fill="none" stroke-width="0.5" stroke="#000000" stroke-opacity="0.25882" stroke-linecap="butt" stroke-linejoin="round" stroke-dasharray="6 3" stroke-dashoffset="0"/>
  <path d="M 50 354.3 L 1230 354.3" fill="none" stroke-width="0.5" stroke="#000000" stroke-opacity="0.25882" stroke-linecap="butt" stroke-linejoin="round" stroke-dasharray="6 3" stroke-dashoffset="0"/>
  <path d="M 50 310.96 L 1230 310.96" fill="none" stroke-width="0.5" stroke="#000000" stroke-opacity="0.25882" stroke-linecap="butt" stroke-linejoin="round" stroke-dasharray="6 3" stroke-dashoffset="0"/>
  <path d="M 50 267.61 L 1230 267.61" fill="none" stroke-width="0.5" stroke="#000000" stroke-opacity="0.25882" stroke-linecap="butt" stroke-linejoin="round" stroke-dasharray="6 3" stroke-dashoffset="0"/>
  <path d="M 50 224.26 L 1230 224.26" fill="none" stroke-width="0.5" stroke="#000000" stroke-opacity="0.25882" stroke-linecap="butt" stroke-linejoin="round" stroke-dasharray="6 3" stroke-dashoffset="0"/>
  <path d="M 50 180.91 L 1230 180.91" fill="none" stroke-width="0.5" stroke="#000000" stroke-opacity="0.25882" stroke-linecap="butt" stroke-linejoin="round" stroke-dasharray="6 3" stroke-dashoffset="0"/>
  <path d="M 50 137.56 L 1230 137.56" fill="none" stroke-width="0.5" stroke="#000000" stroke-opacity="0.25882" stroke-linecap="butt" stroke-linejoin="round" stroke-dasharray="6 3" stroke-dashoffset="0"/>
  <path d="M 50 94.213 L 1230 94.213" fill="none" stroke-width="0.5" stroke="#000000" stroke-opacity="0.25882" stroke-linecap="butt" stroke-linejoin="round" stroke-dasharray="6 3" stroke-dashoffset="0"/>
  <path d="M 50 50.865 L 1230 50.865" fill="none" stroke-width="0.5" stroke="#000000" stroke-opacity="0.25882" stroke-linecap="butt" stroke-linejoin="round" stroke-dasharray="6 3" stroke-dashoffset="0"/>
  <path d="M 74 33 L 74 88 L 384 88 L 384 33 z" fill="#FFFFFF" fill-opacity="1.0" stroke="none"/>
  <clipPath id="clip-0">
    <path d="M 50 9 L 50 441 L 1230 441 L 1230 9 z"/>
  </clipPath>
  <g clip-path="url(#clip-0)">
    <path d="M 50 10.857L 109 52.609L 143.51 75.366L 168 89.762L 186.99 102.45L 202.51 112.69L 215.63 120.31L 227 127.6L 245.99 137.99L 261.51 143.42L 274.63 152.34L 286 157.59L 304.99 165.55L 320.51 144.36L 333.63 175.57L 345 177.64L 363.99 166.47L 379.51 170.87L 392.63 189.21L 404 189.83L 422.99 194.67L 438.51 189.51L 451.63 188.66L 463 201.09L 481.99 190.04L 497.51 195.27L 510.63 189.79L 522 193.63L 540.99 200.78L 556.51 196.09L 569.63 196.01L 581 182.05L 599.99 190.64L 615.51 186.41L 628.63 185.26L 640 180.99L 658.99 177.3L 674.51 177.46L 687.63 172.39L 699 165.6L 717.99 160.44L 733.51 155.65L 746.63 156.33L 758 154.9L 776.99 148.74L 792.51 146.82L 805.63 150.01L 817 148.59L 835.99 147.95L 851.51 145.18L 864.63 147.13L 876 145.46L 894.99 144.83L 910.51 144.7L 923.63 144.99L 935 145.34L 953.99 144.79L 969.51 142.89L 982.63 144.43L 994 142.99L 1013 143.79L 1028.5 144.6L 1041.6 143.34L 1053 141.94L 1072 142.92L 1087.5 141.57L 1100.6 137.92L 1112 141.72L 1131 141.28L 1146.5 140.21L 1159.6 141.61L 1171 141.31L 1190 141.34L 1205.5 141L 1218.6 140.92L 1230 139.51L 1230 142.55L 1218.6 141.76L 1205.5 142.1L 1190 142.77L 1171 142.79L 1159.6 142.68L 1146.5 142.91L 1131 142.49L 1112 143.19L 1100.6 142.32L 1087.5 143.19L 1072 143.78L 1053 144.21L 1041.6 144.13L 1028.5 145.22L 1013 145.07L 994 144.54L 982.63 144.51L 969.51 144.54L 953.99 145.49L 935 146.18L 923.63 145.63L 910.51 146.56L 894.99 148.3L 876 147.98L 864.63 148.04L 851.51 147.21L 835.99 148.99L 817 148.91L 805.63 150.13L 792.51 152.35L 776.99 152.48L 758 155.26L 746.63 157.97L 733.51 160.16L 717.99 162.15L 699 172.96L 687.63 174.3L 674.51 177.9L 658.99 180.36L 640 186.79L 628.63 186.7L 615.51 194.08L 599.99 196.24L 581 197.46L 569.63 196.78L 556.51 198.49L 540.99 202.24L 522 203.82L 510.63 195.98L 497.51 206.24L 481.99 205.94L 463 203.23L 451.63 203.44L 438.51 198.84L 422.99 200.38L 404 196.02L 392.63 192.47L 379.51 190.15L 363.99 185.27L 345 180.72L 333.63 177.11L 320.51 172.46L 304.99 166.47L 286 158.27L 274.63 154.13L 261.51 149.01L 245.99 142.03L 227 131.45L 215.63 123.8L 202.51 116.29L 186.99 106.11L 168 95.96L 143.51 80.369L 109 57.509L 50 19.904" fill="#007AFF" fill-opacity="0.30196078431372547" stroke="none"/>
    <path d="M 50 182.39L 109 211.01L 143.51 227.37L 168 242.38L 186.99 246.49L 202.51 255.45L 215.63 258.85L 227 265.07L 245.99 268.45L 261.51 264.43L 274.63 277.53L 286 280.28L 304.99 283.16L 320.51 286.63L 333.63 286.95L 345 269.86L 363.99 284.25L 379.51 288.02L 392.63 288.49L 404 287.65L 422.99 291.73L 438.51 306.1L 451.63 289.2L 463 292.88L 481.99 296.68L 497.51 296.65L 510.63 295.21L 522 298.48L 540.99 295.91L 556.51 299.02L 569.63 299.36L 581 299.67L 599.99 300.03L 615.51 298.77L 628.63 300.47L 640 300.64L 658.99 300.81L 674.51 300.37L 687.63 301.52L 699 301.13L 717.99 300.86L 733.51 301.27L 746.63 301.5L 758 301.38L 776.99 301.4L 792.51 301.29L 805.63 301.4L 817 301.43L 835.99 301.49L 851.51 301.48L 864.63 301.51L 876 299.12L 894.99 301.47L 910.51 301.45L 923.63 301.44L 935 300.12L 953.99 301.35L 969.51 301.33L 982.63 301.16L 994 301.32L 1013 300.89L 1028.5 299.39L 1041.6 301.27L 1053 301.47L 1072 299.48L 1087.5 301.22L 1100.6 301.18L 1112 299.09L 1131 300.78L 1146.5 294.07L 1159.6 301.25L 1171 300.8L 1190 300.78L 1205.5 301.42L 1218.6 301.48L 1230 301.46L 1230 301.51L 1218.6 301.51L 1205.5 301.54L 1190 300.96L 1171 301.53L 1159.6 301.53L 1146.5 301.24L 1131 301.36L 1112 301.34L 1100.6 301.26L 1087.5 301.37L 1072 301.57L 1053 301.55L 1041.6 301.52L 1028.5 301.49L 1013 301.55L 994 301.49L 982.63 301.38L 969.51 301.6L 953.99 301.49L 935 301.53L 923.63 301.53L 910.51 301.52L 894.99 301.51L 876 301.51L 864.63 301.52L 851.51 301.53L 835.99 301.49L 817 301.49L 805.63 301.53L 792.51 301.6L 776.99 301.42L 758 301.38L 746.63 301.54L 733.51 301.37L 717.99 301.69L 699 301.19L 687.63 301.52L 674.51 302.04L 658.99 301.1L 640 300.95L 628.63 300.88L 615.51 300.53L 599.99 300.6L 581 300.39L 569.63 300.17L 556.51 299.96L 540.99 302.73L 522 298.48L 510.63 301.48L 497.51 298.48L 481.99 296.68L 463 298.48L 451.63 296.26L 438.51 306.1L 422.99 292.3L 404 292.52L 392.63 288.49L 379.51 288.02L 363.99 287.36L 345 323.34L 333.63 288.49L 320.51 286.63L 304.99 285.16L 286 280.74L 274.63 278.73L 261.51 288.87L 245.99 271.64L 227 265.07L 215.63 262.88L 202.51 255.45L 186.99 251.14L 168 242.38L 143.51 233.13L 109 211.01L 50 182.39" fill="#FF3B30" fill-opacity="0.30196078431372547" stroke="none"/>
    <path d="M 50 17.412L 109 56.191L 143.51 79.023L 168 94.281L 186.99 105.13L 202.51 115.33L 215.63 122.87L 227 130.42L 245.99 140.95L 261.51 147.5L 274.63 153.66L 286 158.09L 304.99 166.23L 320.51 163.82L 333.63 176.7L 345 179.9L 363.99 179.79L 379.51 184.51L 392.63 191.6L 404 194.35L 422.99 198.84L 438.51 196.27L 451.63 199.23L 463 202.66L 481.99 201.38L 497.51 203.18L 510.63 194.3L 522 201L 540.99 201.85L 556.51 197.85L 569.63 196.58L 581 193.05L 599.99 194.73L 615.51 191.98L 628.63 186.32L 640 185.23L 658.99 179.55L 674.51 177.79L 687.63 173.8L 699 170.95L 717.99 161.7L 733.51 158.95L 746.63 157.53L 758 155.17L 776.99 151.48L 792.51 150.86L 805.63 150.09L 817 148.83L 835.99 148.72L 851.51 146.67L 864.63 147.8L 876 147.31L 894.99 147.37L 910.51 146.07L 923.63 145.47L 935 145.96L 953.99 145.31L 969.51 144.11L 982.63 144.49L 994 144.13L 1013 144.73L 1028.5 145.06L 1041.6 143.92L 1053 143.61L 1072 143.56L 1087.5 142.77L 1100.6 141.14L 1112 142.8L 1131 142.17L 1146.5 142.2L 1159.6 142.4L 1171 142.4L 1190 142.39L 1205.5 141.81L 1218.6 141.54L 1230 141.74" fill="none" stroke-width="4" stroke="#007AFF" stroke-opacity="1" stroke-linecap="round" stroke-linejoin="round"/>
    <path d="M 50 182.39L 109 211.01L 143.51 231.58L 168 242.38L 186.99 249.89L 202.51 255.45L 215.63 261.8L 227 265.07L 245.99 270.79L 261.51 281.51L 274.63 278.42L 286 280.62L 304.99 284.63L 320.51 286.63L 333.63 288.08L 345 304.43L 363.99 286.53L 379.51 288.02L 392.63 288.49L 404 291.21L 422.99 292.15L 438.51 306.1L 451.63 294.34L 463 296.97L 481.99 296.68L 497.51 298L 510.63 299.78L 522 298.48L 540.99 300.87L 556.51 299.71L 569.63 299.96L 581 300.2L 599.99 300.45L 615.51 300.07L 628.63 300.77L 640 300.87L 658.99 301.03L 674.51 301.6L 687.63 301.52L 699 301.17L 717.99 301.47L 733.51 301.34L 746.63 301.53L 758 301.38L 776.99 301.42L 792.51 301.52L 805.63 301.5L 817 301.47L 835.99 301.49L 851.51 301.52L 864.63 301.52L 876 300.87L 894.99 301.5L 910.51 301.5L 923.63 301.51L 935 301.16L 953.99 301.45L 969.51 301.53L 982.63 301.32L 994 301.44L 1013 301.38L 1028.5 300.93L 1041.6 301.45L 1053 301.53L 1072 301.02L 1087.5 301.33L 1100.6 301.24L 1112 300.75L 1131 301.21L 1146.5 299.29L 1159.6 301.46L 1171 301.34L 1190 300.91L 1205.5 301.51L 1218.6 301.5L 1230 301.49" fill="none" stroke-width="4" stroke="#FF3B30" stroke-opacity="1" stroke-linecap="round" stroke-linejoin="round"/>
    <path d="M 50 17.412L 109 56.191L 143.51 79.023L 168 94.281L 186.99 105.13L 202.51 115.33L 215.63 122.87L 227 130.42L 245.99 140.95L 261.51 147.5L 274.63 153.66L 286 158.09L 304.99 166.23L 320.51 163.82L 333.63 176.7L 345 179.9L 363.99 179.79L 379.51 184.51L 392.63 191.6L 404 194.35L 422.99 198.84L 438.51 196.27L 451.63 199.23L 463 202.66L 481.99 201.38L 497.51 203.18L 510.63 194.3L 522 201L 540.99 201.85L 556.51 197.85L 569.63 196.58L 581 193.05L 599.99 194.73L 615.51 191.98L 628.63 186.32L 640 185.23L 658.99 179.55L 674.51 177.79L 687.63 173.8L 699 170.95L 717.99 161.7L 733.51 158.95L 746.63 157.53L 758 155.17L 776.99 151.48L 792.51 150.86L 805.63 150.09L 817 148.83L 835.99 148.72L 851.51 146.67L 864.63 147.8L 876 147.31L 894.99 147.37L 910.51 146.07L 923.63 145.47L 935 145.96L 953.99 145.31L 969.51 144.11L 982.63 144.49L 994 144.13L 1013 144.73L 1028.5 145.06L 1041.6 143.92L 1053 143.61L 1072 143.56L 1087.5 142.77L 1100.6 141.14L 1112 142.8L 1131 142.17L 1146.5 142.2L 1159.6 142.4L 1171 142.4L 1190 142.39L 1205.5 141.81L 1218.6 141.54L 1230 141.74" fill="none" stroke-width="0.5" stroke="#000000" stroke-opacity="0.30196" stroke-linecap="round" stroke-linejoin="round"/>
    <path d="M 50 182.39L 109 211.01L 143.51 231.58L 168 242.38L 186.99 249.89L 202.51 255.45L 215.63 261.8L 227 265.07L 245.99 270.79L 261.51 281.51L 274.63 278.42L 286 280.62L 304.99 284.63L 320.51 286.63L 333.63 288.08L 345 304.43L 363.99 286.53L 379.51 288.02L 392.63 288.49L 404 291.21L 422.99 292.15L 438.51 306.1L 451.63 294.34L 463 296.97L 481.99 296.68L 497.51 298L 510.63 299.78L 522 298.48L 540.99 300.87L 556.51 299.71L 569.63 299.96L 581 300.2L 599.99 300.45L 615.51 300.07L 628.63 300.77L 640 300.87L 658.99 301.03L 674.51 301.6L 687.63 301.52L 699 301.17L 717.99 301.47L 733.51 301.34L 746.63 301.53L 758 301.38L 776.99 301.42L 792.51 301.52L 805.63 301.5L 817 301.47L 835.99 301.49L 851.51 301.52L 864.63 301.52L 876 300.87L 894.99 301.5L 910.51 301.5L 923.63 301.51L 935 301.16L 953.99 301.45L 969.51 301.53L 982.63 301.32L 994 301.44L 1013 301.38L 1028.5 300.93L 1041.6 301.45L 1053 301.53L 1072 301.02L 1087.5 301.33L 1100.6 301.24L 1112 300.75L 1131 301.21L 1146.5 299.29L 1159.6 301.46L 1171 301.34L 1190 300.91L 1205.5 301.51L 1218.6 301.5L 1230 301.49" fill="none" stroke-width="0.5" stroke="#000000" stroke-opacity="0.30196" stroke-linecap="round" stroke-linejoin="round"/>
  </g>
  <path d="M 74 33 L 74 88 L 384 88 L 384 33 z" fill="#FFFFFF" fill-opacity="0.7019607843137254" stroke-width="0.5" stroke="#000000" stroke-opacity="1" stroke-linecap="round" stroke-linejoin="round"/>
  <path d="M 88 52 L 108 52" fill="none" stroke-width="4" stroke="#FF3B30" stroke-opacity="1" stroke-linecap="round" stroke-linejoin="round"/>
  <path d="M 88 52 L 108 52" fill="none" stroke-width="0.5" stroke="#000000" stroke-opacity="0.30196" stroke-linecap="round" stroke-linejoin="round"/>
  <text x="119" y="56.17" font-family="Menlo" font-size="12" font-weight="normal" font-style="normal" fill="#000000" fill-opacity="1">Array&lt;Int&gt; sequential iteration</text>
  <path d="M 88 69 L 108 69" fill="none" stroke-width="4" stroke="#007AFF" stroke-opacity="1" stroke-linecap="round" stroke-linejoin="round"/>
  <path d="M 88 69 L 108 69" fill="none" stroke-width="0.5" stroke="#000000" stroke-opacity="0.30196" stroke-linecap="round" stroke-linejoin="round"/>
  <text x="119" y="73.17" font-family="Menlo" font-size="12" font-weight="normal" font-style="normal" fill="#000000" fill-opacity="1">TreeArray&lt;Int&gt; sequential iteration</text>
  <path d="M 50 9 L 50 441 L 1230 441 L 1230 9 z" fill="none" stroke-width="0.5" stroke="#000000" stroke-opacity="1" stroke-linecap="round" stroke-linejoin="round"/>
</svg>
