<!DOCTYPE svg PUBLIC "-//W3C//DTD SVG 1.1//EN" "http://www.w3.org/Graphics/SVG/1.1/DTD/svg11.dtd">
<svg width="1280.0px" height="480.0px" viewBox="0.0 0.0 1280.0 480.0" xmlns="http://www.w3.org/2000/svg" xmlns:xlink="http://www.w3.org/1999/xlink" version="1.1">
  <path d="M 0 0 L 0 480 L 1280 480 L 1280 0 z" fill="#FFFFFF" fill-opacity="1.0" stroke="none"/>
  <text x="50" y="468.7" font-family="Helvetica" font-size="10" font-weight="normal" font-style="normal" fill="#000000" fill-opacity="1">Average per-element processing time over input size (bands: min, mean, mean + 2stddev)</text>
  <a xlink:href="https://github.com/apple/swift-collections-benchmark"><text x="1107" y="468.7" font-family="Helvetica" font-size="10" font-weight="normal" font-style="normal" fill="#000000" fill-opacity="1">swift-collections-benchmark</text></a>
  <path d="M 50 9 L 50 441" fill="none" stroke-width="0.75" stroke="#000000" stroke-opacity="0.49804" stroke-linecap="butt" stroke-linejoin="round"/>
  <text x="47" y="453.7" font-family="Helvetica" font-size="10" font-weight="normal" font-style="normal" fill="#000000" fill-opacity="1">1</text>
  <path d="M 109 9 L 109 441" fill="none" stroke-width="0.75" stroke="#000000" stroke-opacity="0.49804" stroke-linecap="butt" stroke-linejoin="round"/>
  <text x="106" y="453.7" font-family="Helvetica" font-size="10" font-weight="normal" font-style="normal" fill="#000000" fill-opacity="1">2</text>
  <path d="M 168 9 L 168 441" fill="none" stroke-width="0.75" stroke="#000000" stroke-opacity="0.49804" stroke-linecap="butt" stroke-linejoin="round"/>
  <text x="165" y="453.7" font-family="Helvetica" font-size="10" font-weight="normal" font-style="normal" fill="#000000" fill-opacity="1">4</text>
  <path d="M 227 9 L 227 441" fill="none" stroke-width="0.75" stroke="#000000" stroke-opacity="0.49804" stroke-linecap="butt" stroke-linejoin="round"/>
  <text x="224" y="453.7" font-family="Helvetica" font-size="10" font-weight="normal" font-style="normal" fill="#000000" fill-opacity="1">8</text>
  <path d="M 286 9 L 286 441" fill="none" stroke-width="0.75" stroke="#000000" stroke-opacity="0.49804" stroke-linecap="butt" stroke-linejoin="round"/>
  <text x="280" y="453.7" font-family="Helvetica" font-size="10" font-weight="normal" font-style="normal" fill="#000000" fill-opacity="1">16</text>
  <path d="M 345 9 L 345 441" fill="none" stroke-width="0.75" stroke="#000000" stroke-opacity="0.49804" stroke-linecap="butt" stroke-linejoin="round"/>
  <text x="339" y="453.7" font-family="Helvetica" font-size="10" font-weight="normal" font-style="normal" fill="#000000" fill-opacity="1">32</text>
  <path d="M 404 9 L 404 441" fill="none" stroke-width="0.75" stroke="#000000" stroke-opacity="0.49804" stroke-linecap="butt" stroke-linejoin="round"/>
  <text x="398" y="453.7" font-family="Helvetica" font-size="10" font-weight="normal" font-style="normal" fill="#000000" fill-opacity="1">64</text>
  <path d="M 463 9 L 463 441" fill="none" stroke-width="0.75" stroke="#000000" stroke-opacity="0.49804" stroke-linecap="butt" stroke-linejoin="round"/>
  <text x="454.5" y="453.7" font-family="Helvetica" font-size="10" font-weight="normal" font-style="normal" fill="#000000" fill-opacity="1">128</text>
  <path d="M 522 9 L 522 441" fill="none" stroke-width="0.75" stroke="#000000" stroke-opacity="0.49804" stroke-linecap="butt" stroke-linejoin="round"/>
  <text x="513.5" y="453.7" font-family="Helvetica" font-size="10" font-weight="normal" font-style="normal" fill="#000000" fill-opacity="1">256</text>
  <path d="M 581 9 L 581 441" fill="none" stroke-width="0.75" stroke="#000000" stroke-opacity="0.49804" stroke-linecap="butt" stroke-linejoin="round"/>
  <text x="572.5" y="453.7" font-family="Helvetica" font-size="10" font-weight="normal" font-style="normal" fill="#000000" fill-opacity="1">512</text>
  <path d="M 640 9 L 640 441" fill="none" stroke-width="0.75" stroke="#000000" stroke-opacity="0.49804" stroke-linecap="butt" stroke-linejoin="round"/>
  <text x="634.5" y="453.7" font-family="Helvetica" font-size="10" font-weight="normal" font-style="normal" fill="#000000" fill-opacity="1">1k</text>
  <path d="M 699 9 L 699 441" fill="none" stroke-width="0.75" stroke="#000000" stroke-opacity="0.49804" stroke-linecap="butt" stroke-linejoin="round"/>
  <text x="693.5" y="453.7" font-family="Helvetica" font-size="10" font-weight="normal" font-style="normal" fill="#000000" fill-opacity="1">2k</text>
  <path d="M 758 9 L 758 441" fill="none" stroke-width="0.75" stroke="#000000" stroke-opacity="0.49804" stroke-linecap="butt" stroke-linejoin="round"/>
  <text x="752.5" y="453.7" font-family="Helvetica" font-size="10" font-weight="normal" font-style="normal" fill="#000000" fill-opacity="1">4k</text>
  <path d="M 817 9 L 817 441" fill="none" stroke-width="0.75" stroke="#000000" stroke-opacity="0.49804" stroke-linecap="butt" stroke-linejoin="round"/>
  <text x="811.5" y="453.7" font-family="Helvetica" font-size="10" font-weight="normal" font-style="normal" fill="#000000" fill-opacity="1">8k</text>
  <path d="M 876 9 L 876 441" fill="none" stroke-width="0.75" stroke="#000000" stroke-opacity="0.49804" stroke-linecap="butt" stroke-linejoin="round"/>
  <text x="867.5" y="453.7" font-family="Helvetica" font-size="10" font-weight="normal" font-style="normal" fill="#000000" fill-opacity="1">16k</text>
  <path d="M 935 9 L 935 441" fill="none" stroke-width="0.75" stroke="#000000" stroke-opacity="0.49804" stroke-linecap="butt" stroke-linejoin="round"/>
  <text x="926.5" y="453.7" font-family="Helvetica" font-size="10" font-weight="normal" font-style="normal" fill="#000000" fill-opacity="1">32k</text>
  <path d="M 994 9 L 994 441" fill="none" stroke-width="0.75" stroke="#000000" stroke-opacity="0.49804" stroke-linecap="butt" stroke-linejoin="round"/>
  <text x="985.5" y="453.7" font-family="Helvetica" font-size="10" font-weight="normal" font-style="normal" fill="#000000" fill-opacity="1">64k</text>
  <path d="M 1053 9 L 1053 441" fill="none" stroke-width="0.75" stroke="#000000" stroke-opacity="0.49804" stroke-linecap="butt" stroke-linejoin="round"/>
  <text x="1042" y="453.7" font-family="Helvetica" font-size="10" font-weight="normal" font-style="normal" fill="#000000" fill-opacity="1">128k</text>
  <path d="M 1112 9 L 1112 441" fill="none" stroke-width="0.75" stroke="#000000" stroke-opacity="0.49804" stroke-linecap="butt" stroke-linejoin="round"/>
  <text x="1101" y="453.7" font-family="Helvetica" font-size="10" font-weight="normal" font-style="normal" fill="#000000" fill-opacity="1">256k</text>
  <path d="M 1171 9 L 1171 441" fill="none" stroke-width="0.75" stroke="#000000" stroke-opacity="0.49804" stroke-linecap="butt" stroke-linejoin="round"/>
  <text x="1160" y="453.7" font-family="Helvetica" font-size="10" font-weight="normal" font-style="normal" fill="#000000" fill-opacity="1">512k</text>
  <path d="M 1230 9 L 1230 441" fill="none" stroke-width="0.75" stroke="#000000" stroke-opacity="0.49804" stroke-linecap="butt" stroke-linejoin="round"/>
  <text x="1223" y="453.7" font-family="Helvetica" font-size="10" font-weight="normal" font-style="normal" fill="#000000" fill-opacity="1">1M</text>
  <path d="M 50 441 L 1230 441" fill="none" stroke-width="0.75" stroke="#000000" stroke-opacity="0.49804" stroke-linecap="butt" stroke-linejoin="round"/>
  <text x="16" y="442.7" font-family="Helvetica" font-size="10" font-weight="normal" font-style="normal" fill="#000000" fill-opacity="1">100 ps</text>
  <text x="1236" y="442.7" font-family="Helvetica" font-size="10" font-weight="normal" font-style="normal" fill="#000000" fill-opacity="1">100 ps</text>
  <path d="M 50 333 L 1230 333" fill="none" stroke-width="0.75" stroke="#000000" stroke-opacity="0.49804" stroke-linecap="butt" stroke-linejoin="round"/>
  <text x="27" y="334.7" font-family="Helvetica" font-size="10" font-weight="normal" font-style="normal" fill="#000000" fill-opacity="1">1 ns</text>
  <text x="1236" y="334.7" font-family="Helvetica" font-size="10" font-weight="normal" font-style="normal" fill="#000000" fill-opacity="1">1 ns</text>
  <path d="M 50 225 L 1230 225" fill="none" stroke-width="0.75" stroke="#000000" stroke-opacity="0.49804" stroke-linecap="butt" stroke-linejoin="round"/>
  <text x="21" y="226.7" font-family="Helvetica" font-size="10" font-weight="normal" font-style="normal" fill="#000000" fill-opacity="1">10 ns</text>
  <text x="1236" y="226.7" font-family="Helvetica" font-size="10" font-weight="normal" font-style="normal" fill="#000000" fill-opacity="1">10 ns</text>
  <path d="M 50 117 L 1230 117" fill="none" stroke-width="0.75" stroke="#000000" stroke-opacity="0.49804" stroke-linecap="butt" stroke-linejoin="round"/>
  <text x="16" y="118.7" font-family="Helvetica" font-size="10" font-weight="normal" font-style="normal" fill="#000000" fill-opacity="1">100 ns</text>
  <text x="1236" y="118.7" font-family="Helvetica" font-size="10" font-weight="normal" font-style="normal" fill="#000000" fill-opacity="1">100 ns</text>
  <path d="M 50 9 L 1230 9" fill="none" stroke-width="0.75" stroke="#000000" stroke-opacity="0.49804" stroke-linecap="butt" stroke-linejoin="round"/>
  <text x="26" y="10.7" font-family="Helvetica" font-size="10" font-weight="normal" font-style="normal" fill="#000000" fill-opacity="1">1 µs</text>
  <text x="1236" y="10.7" font-family="Helvetica" font-size="10" font-weight="normal" font-style="normal" fill="#000000" fill-opacity="1">1 µs</text>
  <path d="M 50 408.49 L 1230 408.49" fill="none" stroke-width="0.5" stroke="#000000" stroke-opacity="0.25882" stroke-linecap="butt" stroke-linejoin="round" stroke-dasharray="6 3" stroke-dashoffset="0"/>
  <path d="M 50 375.98 L 1230 375.98" fill="none" stroke-width="0.5" stroke="#000000" stroke-opacity="0.25882" stroke-linecap="butt" stroke-linejoin="round" stroke-dasharray="6 3" stroke-dashoffset="0"/>
  <path d="M 50 343.47 L 1230 343.47" fill="none" stroke-width="0.5" stroke="#000000" stroke-opacity="0.25882" stroke-linecap="butt" stroke-linejoin="round" stroke-dasharray="6 3" stroke-dashoffset="0"/>
  <path d="M 50 310.96 L 1230 310.96" fill="none" stroke-width="0.5" stroke="#000000" stroke-opacity="0.25882" stroke-linecap="butt" stroke-linejoin="round" stroke-dasharray="6 3" stroke-dashoffset="0"/>
  <path d="M 50 278.44 L 1230 278.44" fill="none" stroke-width="0.5" stroke="#000000" stroke-opacity="0.25882" stroke-linecap="butt" stroke-linejoin="round" stroke-dasharray="6 3" stroke-dashoffset="0"/>
  <path d="M 50 245.93 L 1230 245.93" fill="none" stroke-width="0.5" stroke="#000000" stroke-opacity="0.25882" stroke-linecap="butt" stroke-linejoin="round" stroke-dasharray="6 3" stroke-dashoffset="0"/>
  <path d="M 50 213.42 L 1230 213.42" fill="none" stroke-width="0.5" stroke="#000000" stroke-opacity="0.25882" stroke-linecap="butt" stroke-linejoin="round" stroke-dasharray="6 3" stroke-dashoffset="0"/>
  <path d="M 50 180.91 L 1230 180.91" fill="none" stroke-width="0.5" stroke="#000000" stroke-opacity="0.25882" stroke-linecap="butt" stroke-linejoin="round" stroke-dasharray="6 3" stroke-dashoffset="0"/>
  <path d="M 50 148.4 L 1230 148.4" fill="none" stroke-width="0.5" stroke="#000000" stroke-opacity="0.25882" stroke-linecap="butt" stroke-linejoin="round" stroke-dasharray="6 3" stroke-dashoffset="0"/>
  <path d="M 50 115.89 L 1230 115.89" fill="none" stroke-width="0.5" stroke="#000000" stroke-opacity="0.25882" stroke-linecap="butt" stroke-linejoin="round" stroke-dasharray="6 3" stroke-dashoffset="0"/>
  <path d="M 50 83.376 L 1230 83.376" fill="none" stroke-width="0.5" stroke="#000000" stroke-opacity="0.25882" stroke-linecap="butt" stroke-linejoin="round" stroke-dasharray="6 3" stroke-dashoffset="0"/>
  <path d="M 50 50.865 L 1230 50.865" fill="none" stroke-width="0.5" stroke="#000000" stroke-opacity="0.25882" stroke-linecap="butt" stroke-linejoin="round" stroke-dasharray="6 3" stroke-dashoffset="0"/>
  <path d="M 50 18.354 L 1230 18.354" fill="none" stroke-width="0.5" stroke="#000000" stroke-opacity="0.25882" stroke-linecap="butt" stroke-linejoin="round" stroke-dasharray="6 3" stroke-dashoffset="0"/>
  <path d="M 74 33 L 74 88 L 449 88 L 449 33 z" fill="#FFFFFF" fill-opacity="1.0" stroke="none"/>
  <clipPath id="clip-0">
    <path d="M 50 9 L 50 441 L 1230 441 L 1230 9 z"/>
  </clipPath>
  <g clip-path="url(#clip-0)">
    <path d="M 50 233.83L 109 242.7L 143.51 247.25L 168 250.36L 186.99 250.33L 202.51 250.33L 215.63 248.94L 227 242.94L 245.99 245.18L 261.51 242.25L 274.63 242.09L 286 242.49L 304.99 239.22L 320.51 239.64L 333.63 238.09L 345 234.79L 363.99 233.83L 379.51 229.56L 392.63 229.69L 404 228.75L 422.99 225.13L 438.51 223.55L 451.63 225.25L 463 224.85L 481.99 221.68L 497.51 219.65L 510.63 219.55L 522 219.05L 540.99 215.93L 556.51 213.09L 569.63 168.41L 581 188.79L 599.99 172.98L 615.51 161.79L 628.63 153.83L 640 149L 658.99 143.23L 674.51 138.75L 687.63 135.6L 699 132.74L 717.99 130.43L 733.51 127.71L 746.63 125.3L 758 122.31L 776.99 119.75L 792.51 117.03L 805.63 114.95L 817 113.18L 835.99 112.07L 851.51 110.43L 864.63 109.58L 876 99.258L 894.99 106.29L 910.51 102.58L 923.63 102.17L 935 89.081L 953.99 99.322L 969.51 90.705L 982.63 96.737L 994 86.937L 1013 84.146L 1028.5 82L 1041.6 88.407L 1053 81.877L 1072 81.313L 1087.5 73.908L 1100.6 73.66L 1112 71.491L 1131 69.297L 1146.5 64.327L 1159.6 54.233L 1171 43.219L 1190 46.044L 1205.5 35.77L 1218.6 34.991L 1230 17.128L 1230 26.191L 1218.6 46.376L 1205.5 50.127L 1190 56.62L 1171 53.82L 1159.6 60.963L 1146.5 64.497L 1131 69.375L 1112 71.765L 1100.6 79.277L 1087.5 79.244L 1072 82.63L 1053 81.9L 1041.6 88.435L 1028.5 86.357L 1013 90.522L 994 87.114L 982.63 97.472L 969.51 94.129L 953.99 99.866L 935 93.421L 923.63 103.25L 910.51 103.57L 894.99 106.36L 876 101.68L 864.63 109.86L 851.51 110.63L 835.99 112.44L 817 113.27L 805.63 116.14L 792.51 117.35L 776.99 120.26L 758 123.56L 746.63 125.75L 733.51 127.77L 717.99 131.07L 699 133.31L 687.63 135.85L 674.51 138.93L 658.99 143.74L 640 150.02L 628.63 156.37L 615.51 162.11L 599.99 173.76L 581 195.77L 569.63 207.26L 556.51 214.9L 540.99 216.17L 522 219.27L 510.63 219.56L 497.51 220.28L 481.99 221.98L 463 225.49L 451.63 225.46L 438.51 226.68L 422.99 228.18L 404 231.75L 392.63 232.11L 379.51 233.41L 363.99 234.86L 345 237.77L 333.63 239.53L 320.51 240.72L 304.99 240.76L 286 244.57L 274.63 245.94L 261.51 245.51L 245.99 245.88L 227 255.78L 215.63 250.77L 202.51 251.42L 186.99 251.65L 168 251.14L 143.51 251.42L 109 245.53L 50 238.49" fill="#007AFF" fill-opacity="0.30196078431372547" stroke="none"/>
    <path d="M 50 241.5L 109 266.34L 143.51 282.79L 168 290.02L 186.99 292.19L 202.51 298.71L 215.63 301.07L 227 306.34L 245.99 311.59L 261.51 315.3L 274.63 318.28L 286 318.86L 304.99 322.53L 320.51 324.47L 333.63 325.52L 345 326.42L 363.99 319.41L 379.51 324.28L 392.63 325.41L 404 325.63L 422.99 326.24L 438.51 339.26L 451.63 330.59L 463 328.74L 481.99 331.83L 497.51 332.88L 510.63 328.13L 522 333.72L 540.99 331.95L 556.51 334.44L 569.63 333.73L 581 334.95L 599.99 333.63L 615.51 335.46L 628.63 335.63L 640 335.36L 658.99 335.86L 674.51 335.22L 687.63 335.76L 699 336.08L 717.99 336.15L 733.51 336.18L 746.63 336.39L 758 336.25L 776.99 336.27L 792.51 336.31L 805.63 336.25L 817 336.23L 835.99 336.31L 851.51 336.22L 864.63 336.32L 876 336.36L 894.99 336.26L 910.51 336.29L 923.63 336.31L 935 336.32L 953.99 336.37L 969.51 336.35L 982.63 336.38L 994 336.36L 1013 336.05L 1028.5 336.1L 1041.6 336.29L 1053 336.25L 1072 336.18L 1087.5 336.19L 1100.6 336.08L 1112 333.94L 1131 331.54L 1146.5 334.67L 1159.6 336.1L 1171 335.78L 1190 327.78L 1205.5 283.32L 1218.6 316.41L 1230 316.14L 1230 316.58L 1218.6 321.44L 1205.5 330.25L 1190 334.79L 1171 336.1L 1159.6 336.34L 1146.5 336.37L 1131 336.4L 1112 335.46L 1100.6 336.36L 1087.5 336.4L 1072 336.38L 1053 336.4L 1041.6 336.36L 1028.5 336.39L 1013 336.42L 994 336.42L 982.63 336.4L 969.51 336.38L 953.99 336.37L 935 336.35L 923.63 336.39L 910.51 336.38L 894.99 336.38L 876 336.37L 864.63 336.4L 851.51 336.34L 835.99 336.33L 817 336.36L 805.63 336.4L 792.51 336.31L 776.99 336.3L 758 336.27L 746.63 336.39L 733.51 336.21L 717.99 336.17L 699 336.1L 687.63 336.39L 674.51 336.78L 658.99 335.86L 640 336.08L 628.63 335.63L 615.51 335.51L 599.99 337.38L 581 335.18L 569.63 336.36L 556.51 334.74L 540.99 337.29L 522 333.72L 510.63 336.48L 497.51 332.88L 481.99 332.52L 463 334.11L 451.63 330.59L 438.51 339.26L 422.99 331.27L 404 327.15L 392.63 325.41L 379.51 326.27L 363.99 331.84L 345 329.13L 333.63 327.85L 320.51 326.05L 304.99 322.53L 286 320.62L 274.63 318.28L 261.51 315.3L 245.99 313.98L 227 309.02L 215.63 308.09L 202.51 301.84L 186.99 298.2L 168 290.02L 143.51 282.79L 109 271L 50 247.04" fill="#FF3B30" fill-opacity="0.30196078431372547" stroke="none"/>
    <path d="M 50 237.23L 109 244.77L 143.51 250.29L 168 250.93L 186.99 251.3L 202.51 251.13L 215.63 250.28L 227 252.08L 245.99 245.69L 261.51 244.63L 274.63 244.91L 286 244.02L 304.99 240.36L 320.51 240.43L 333.63 239.15L 345 236.97L 363.99 234.59L 379.51 232.37L 392.63 231.46L 404 230.95L 422.99 227.37L 438.51 225.84L 451.63 225.4L 463 225.32L 481.99 221.9L 497.51 220.11L 510.63 219.56L 522 219.21L 540.99 216.11L 556.51 214.42L 569.63 193.65L 581 193.85L 599.99 173.55L 615.51 162.03L 628.63 155.69L 640 149.75L 658.99 143.61L 674.51 138.89L 687.63 135.79L 699 133.16L 717.99 130.91L 733.51 127.75L 746.63 125.63L 758 123.23L 776.99 120.12L 792.51 117.27L 805.63 115.83L 817 113.25L 835.99 112.34L 851.51 110.58L 864.63 109.79L 876 101.04L 894.99 106.34L 910.51 103.31L 923.63 102.97L 935 92.248L 953.99 99.723L 969.51 93.21L 982.63 97.279L 994 87.067L 1013 88.771L 1028.5 85.179L 1041.6 88.428L 1053 81.894L 1072 82.283L 1087.5 77.791L 1100.6 77.744L 1112 71.693L 1131 69.355L 1146.5 64.452L 1159.6 59.11L 1171 50.812L 1190 53.619L 1205.5 45.933L 1218.6 43.126L 1230 23.649" fill="none" stroke-width="4" stroke="#007AFF" stroke-opacity="1" stroke-linecap="round" stroke-linejoin="round"/>
    <path d="M 50 245.53L 109 269.74L 143.51 282.79L 168 290.02L 186.99 296.55L 202.51 301L 215.63 306.15L 227 308.3L 245.99 313.35L 261.51 315.3L 274.63 318.28L 286 320.15L 304.99 322.53L 320.51 325.63L 333.63 327.23L 345 328.41L 363.99 328.26L 379.51 325.74L 392.63 325.41L 404 326.75L 422.99 329.91L 438.51 339.26L 451.63 330.59L 463 332.65L 481.99 332.33L 497.51 332.88L 510.63 334.15L 522 333.72L 540.99 335.84L 556.51 334.66L 569.63 335.66L 581 335.12L 599.99 336.37L 615.51 335.5L 628.63 335.63L 640 335.89L 658.99 335.86L 674.51 336.37L 687.63 336.23L 699 336.09L 717.99 336.16L 733.51 336.2L 746.63 336.39L 758 336.26L 776.99 336.29L 792.51 336.31L 805.63 336.36L 817 336.33L 835.99 336.32L 851.51 336.31L 864.63 336.38L 876 336.37L 894.99 336.34L 910.51 336.36L 923.63 336.37L 935 336.34L 953.99 336.37L 969.51 336.37L 982.63 336.4L 994 336.4L 1013 336.32L 1028.5 336.31L 1041.6 336.35L 1053 336.36L 1072 336.33L 1087.5 336.34L 1100.6 336.29L 1112 335.06L 1131 335.08L 1146.5 335.92L 1159.6 336.28L 1171 336.01L 1190 332.86L 1205.5 312.85L 1218.6 320.08L 1230 316.47" fill="none" stroke-width="4" stroke="#FF3B30" stroke-opacity="1" stroke-linecap="round" stroke-linejoin="round"/>
    <path d="M 50 237.23L 109 244.77L 143.51 250.29L 168 250.93L 186.99 251.3L 202.51 251.13L 215.63 250.28L 227 252.08L 245.99 245.69L 261.51 244.63L 274.63 244.91L 286 244.02L 304.99 240.36L 320.51 240.43L 333.63 239.15L 345 236.97L 363.99 234.59L 379.51 232.37L 392.63 231.46L 404 230.95L 422.99 227.37L 438.51 225.84L 451.63 225.4L 463 225.32L 481.99 221.9L 497.51 220.11L 510.63 219.56L 522 219.21L 540.99 216.11L 556.51 214.42L 569.63 193.65L 581 193.85L 599.99 173.55L 615.51 162.03L 628.63 155.69L 640 149.75L 658.99 143.61L 674.51 138.89L 687.63 135.79L 699 133.16L 717.99 130.91L 733.51 127.75L 746.63 125.63L 758 123.23L 776.99 120.12L 792.51 117.27L 805.63 115.83L 817 113.25L 835.99 112.34L 851.51 110.58L 864.63 109.79L 876 101.04L 894.99 106.34L 910.51 103.31L 923.63 102.97L 935 92.248L 953.99 99.723L 969.51 93.21L 982.63 97.279L 994 87.067L 1013 88.771L 1028.5 85.179L 1041.6 88.428L 1053 81.894L 1072 82.283L 1087.5 77.791L 1100.6 77.744L 1112 71.693L 1131 69.355L 1146.5 64.452L 1159.6 59.11L 1171 50.812L 1190 53.619L 1205.5 45.933L 1218.6 43.126L 1230 23.649" fill="none" stroke-width="0.5" stroke="#000000" stroke-opacity="0.30196" stroke-linecap="round" stroke-linejoin="round"/>
    <path d="M 50 245.53L 109 269.74L 143.51 282.79L 168 290.02L 186.99 296.55L 202.51 301L 215.63 306.15L 227 308.3L 245.99 313.35L 261.51 315.3L 274.63 318.28L 286 320.15L 304.99 322.53L 320.51 325.63L 333.63 327.23L 345 328.41L 363.99 328.26L 379.51 325.74L 392.63 325.41L 404 326.75L 422.99 329.91L 438.51 339.26L 451.63 330.59L 463 332.65L 481.99 332.33L 497.51 332.88L 510.63 334.15L 522 333.72L 540.99 335.84L 556.51 334.66L 569.63 335.66L 581 335.12L 599.99 336.37L 615.51 335.5L 628.63 335.63L 640 335.89L 658.99 335.86L 674.51 336.37L 687.63 336.23L 699 336.09L 717.99 336.16L 733.51 336.2L 746.63 336.39L 758 336.26L 776.99 336.29L 792.51 336.31L 805.63 336.36L 817 336.33L 835.99 336.32L 851.51 336.31L 864.63 336.38L 876 336.37L 894.99 336.34L 910.51 336.36L 923.63 336.37L 935 336.34L 953.99 336.37L 969.51 336.37L 982.63 336.4L 994 336.4L 1013 336.32L 1028.5 336.31L 1041.6 336.35L 1053 336.36L 1072 336.33L 1087.5 336.34L 1100.6 336.29L 1112 335.06L 1131 335.08L 1146.5 335.92L 1159.6 336.28L 1171 336.01L 1190 332.86L 1205.5 312.85L 1218.6 320.08L 1230 316.47" fill="none" stroke-width="0.5" stroke="#000000" stroke-opacity="0.30196" stroke-linecap="round" stroke-linejoin="round"/>
  </g>
  <path d="M 74 33 L 74 88 L 449 88 L 449 33 z" fill="#FFFFFF" fill-opacity="0.7019607843137254" stroke-width="0.5" stroke="#000000" stroke-opacity="1" stroke-linecap="round" stroke-linejoin="round"/>
  <path d="M 88 52 L 108 52" fill="none" stroke-width="4" stroke="#FF3B30" stroke-opacity="1" stroke-linecap="round" stroke-linejoin="round"/>
  <path d="M 88 52 L 108 52" fill="none" stroke-width="0.5" stroke="#000000" stroke-opacity="0.30196" stroke-linecap="round" stroke-linejoin="round"/>
  <text x="119" y="56.17" font-family="Menlo" font-size="12" font-weight="normal" font-style="normal" fill="#000000" fill-opacity="1">Array&lt;Int&gt; subscript get, random offsets</text>
  <path d="M 88 69 L 108 69" fill="none" stroke-width="4" stroke="#007AFF" stroke-opacity="1" stroke-linecap="round" stroke-linejoin="round"/>
  <path d="M 88 69 L 108 69" fill="none" stroke-width="0.5" stroke="#000000" stroke-opacity="0.30196" stroke-linecap="round" stroke-linejoin="round"/>
  <text x="119" y="73.17" font-family="Menlo" font-size="12" font-weight="normal" font-style="normal" fill="#000000" fill-opacity="1">TreeArray&lt;Int&gt; subscript get, random offsets</text>
  <path d="M 50 9 L 50 441 L 1230 441 L 1230 9 z" fill="none" stroke-width="0.5" stroke="#000000" stroke-opacity="1" stroke-linecap="round" stroke-linejoin="round"/>
</svg>
