<!DOCTYPE svg PUBLIC "-//W3C//DTD SVG 1.1//EN" "http://www.w3.org/Graphics/SVG/1.1/DTD/svg11.dtd">
<svg width="1280.0px" height="480.0px" viewBox="0.0 0.0 1280.0 480.0" xmlns="http://www.w3.org/2000/svg" xmlns:xlink="http://www.w3.org/1999/xlink" version="1.1">
  <path d="M 0 0 L 0 480 L 1280 480 L 1280 0 z" fill="#FFFFFF" fill-opacity="1.0" stroke="none"/>
  <text x="50" y="468.7" font-family="Helvetica" font-size="10" font-weight="normal" font-style="normal" fill="#000000" fill-opacity="1">Average per-element processing time over input size (bands: min, mean, mean + 2stddev)</text>
  <a xlink:href="https://github.com/apple/swift-collections-benchmark"><text x="1107" y="468.7" font-family="Helvetica" font-size="10" font-weight="normal" font-style="normal" fill="#000000" fill-opacity="1">swift-collections-benchmark</text></a>
  <path d="M 50 9 L 50 441" fill="none" stroke-width="0.75" stroke="#000000" stroke-opacity="0.49804" stroke-linecap="butt" stroke-linejoin="round"/>
  <text x="47" y="453.7" font-family="Helvetica" font-size="10" font-weight="normal" font-style="normal" fill="#000000" fill-opacity="1">1</text>
  <path d="M 109 9 L 109 441" fill="none" stroke-width="0.75" stroke="#000000" stroke-opacity="0.49804" stroke-linecap="butt" stroke-linejoin="round"/>
  <text x="106" y="453.7" font-family="Helvetica" font-size="10" font-weight="normal" font-style="normal" fill="#000000" fill-opacity="1">2</text>
  <path d="M 168 9 L 168 441" fill="none" stroke-width="0.75" stroke="#000000" stroke-opacity="0.49804" stroke-linecap="butt" stroke-linejoin="round"/>
  <text x="165" y="453.7" font-family="Helvetica" font-size="10" font-weight="normal" font-style="normal" fill="#000000" fill-opacity="1">4</text>
  <path d="M 227 9 L 227 441" fill="none" stroke-width="0.75" stroke="#000000" stroke-opacity="0.49804" stroke-linecap="butt" stroke-linejoin="round"/>
  <text x="224" y="453.7" font-family="Helvetica" font-size="10" font-weight="normal" font-style="normal" fill="#000000" fill-opacity="1">8</text>
  <path d="M 286 9 L 286 441" fill="none" stroke-width="0.75" stroke="#000000" stroke-opacity="0.49804" stroke-linecap="butt" stroke-linejoin="round"/>
  <text x="280" y="453.7" font-family="Helvetica" font-size="10" font-weight="normal" font-style="normal" fill="#000000" fill-opacity="1">16</text>
  <path d="M 345 9 L 345 441" fill="none" stroke-width="0.75" stroke="#000000" stroke-opacity="0.49804" stroke-linecap="butt" stroke-linejoin="round"/>
  <text x="339" y="453.7" font-family="Helvetica" font-size="10" font-weight="normal" font-style="normal" fill="#000000" fill-opacity="1">32</text>
  <path d="M 404 9 L 404 441" fill="none" stroke-width="0.75" stroke="#000000" stroke-opacity="0.49804" stroke-linecap="butt" stroke-linejoin="round"/>
  <text x="398" y="453.7" font-family="Helvetica" font-size="10" font-weight="normal" font-style="normal" fill="#000000" fill-opacity="1">64</text>
  <path d="M 463 9 L 463 441" fill="none" stroke-width="0.75" stroke="#000000" stroke-opacity="0.49804" stroke-linecap="butt" stroke-linejoin="round"/>
  <text x="454.5" y="453.7" font-family="Helvetica" font-size="10" font-weight="normal" font-style="normal" fill="#000000" fill-opacity="1">128</text>
  <path d="M 522 9 L 522 441" fill="none" stroke-width="0.75" stroke="#000000" stroke-opacity="0.49804" stroke-linecap="butt" stroke-linejoin="round"/>
  <text x="513.5" y="453.7" font-family="Helvetica" font-size="10" font-weight="normal" font-style="normal" fill="#000000" fill-opacity="1">256</text>
  <path d="M 581 9 L 581 441" fill="none" stroke-width="0.75" stroke="#000000" stroke-opacity="0.49804" stroke-linecap="butt" stroke-linejoin="round"/>
  <text x="572.5" y="453.7" font-family="Helvetica" font-size="10" font-weight="normal" font-style="normal" fill="#000000" fill-opacity="1">512</text>
  <path d="M 640 9 L 640 441" fill="none" stroke-width="0.75" stroke="#000000" stroke-opacity="0.49804" stroke-linecap="butt" stroke-linejoin="round"/>
  <text x="634.5" y="453.7" font-family="Helvetica" font-size="10" font-weight="normal" font-style="normal" fill="#000000" fill-opacity="1">1k</text>
  <path d="M 699 9 L 699 441" fill="none" stroke-width="0.75" stroke="#000000" stroke-opacity="0.49804" stroke-linecap="butt" stroke-linejoin="round"/>
  <text x="693.5" y="453.7" font-family="Helvetica" font-size="10" font-weight="normal" font-style="normal" fill="#000000" fill-opacity="1">2k</text>
  <path d="M 758 9 L 758 441" fill="none" stroke-width="0.75" stroke="#000000" stroke-opacity="0.49804" stroke-linecap="butt" stroke-linejoin="round"/>
  <text x="752.5" y="453.7" font-family="Helvetica" font-size="10" font-weight="normal" font-style="normal" fill="#000000" fill-opacity="1">4k</text>
  <path d="M 817 9 L 817 441" fill="none" stroke-width="0.75" stroke="#000000" stroke-opacity="0.49804" stroke-linecap="butt" stroke-linejoin="round"/>
  <text x="811.5" y="453.7" font-family="Helvetica" font-size="10" font-weight="normal" font-style="normal" fill="#000000" fill-opacity="1">8k</text>
  <path d="M 876 9 L 876 441" fill="none" stroke-width="0.75" stroke="#000000" stroke-opacity="0.49804" stroke-linecap="butt" stroke-linejoin="round"/>
  <text x="867.5" y="453.7" font-family="Helvetica" font-size="10" font-weight="normal" font-style="normal" fill="#000000" fill-opacity="1">16k</text>
  <path d="M 935 9 L 935 441" fill="none" stroke-width="0.75" stroke="#000000" stroke-opacity="0.49804" stroke-linecap="butt" stroke-linejoin="round"/>
  <text x="926.5" y="453.7" font-family="Helvetica" font-size="10" font-weight="normal" font-style="normal" fill="#000000" fill-opacity="1">32k</text>
  <path d="M 994 9 L 994 441" fill="none" stroke-width="0.75" stroke="#000000" stroke-opacity="0.49804" stroke-linecap="butt" stroke-linejoin="round"/>
  <text x="985.5" y="453.7" font-family="Helvetica" font-size="10" font-weight="normal" font-style="normal" fill="#000000" fill-opacity="1">64k</text>
  <path d="M 1053 9 L 1053 441" fill="none" stroke-width="0.75" stroke="#000000" stroke-opacity="0.49804" stroke-linecap="butt" stroke-linejoin="round"/>
  <text x="1042" y="453.7" font-family="Helvetica" font-size="10" font-weight="normal" font-style="normal" fill="#000000" fill-opacity="1">128k</text>
  <path d="M 1112 9 L 1112 441" fill="none" stroke-width="0.75" stroke="#000000" stroke-opacity="0.49804" stroke-linecap="butt" stroke-linejoin="round"/>
  <text x="1101" y="453.7" font-family="Helvetica" font-size="10" font-weight="normal" font-style="normal" fill="#000000" fill-opacity="1">256k</text>
  <path d="M 1171 9 L 1171 441" fill="none" stroke-width="0.75" stroke="#000000" stroke-opacity="0.49804" stroke-linecap="butt" stroke-linejoin="round"/>
  <text x="1160" y="453.7" font-family="Helvetica" font-size="10" font-weight="normal" font-style="normal" fill="#000000" fill-opacity="1">512k</text>
  <path d="M 1230 9 L 1230 441" fill="none" stroke-width="0.75" stroke="#000000" stroke-opacity="0.49804" stroke-linecap="butt" stroke-linejoin="round"/>
  <text x="1223" y="453.7" font-family="Helvetica" font-size="10" font-weight="normal" font-style="normal" fill="#000000" fill-opacity="1">1M</text>
  <path d="M 50 441 L 1230 441" fill="none" stroke-width="0.75" stroke="#000000" stroke-opacity="0.49804" stroke-linecap="butt" stroke-linejoin="round"/>
  <text x="16" y="442.7" font-family="Helvetica" font-size="10" font-weight="normal" font-style="normal" fill="#000000" fill-opacity="1">100 ps</text>
  <text x="1236" y="442.7" font-family="Helvetica" font-size="10" font-weight="normal" font-style="normal" fill="#000000" fill-opacity="1">100 ps</text>
  <path d="M 50 333 L 1230 333" fill="none" stroke-width="0.75" stroke="#000000" stroke-opacity="0.49804" stroke-linecap="butt" stroke-linejoin="round"/>
  <text x="27" y="334.7" font-family="Helvetica" font-size="10" font-weight="normal" font-style="normal" fill="#000000" fill-opacity="1">1 ns</text>
  <text x="1236" y="334.7" font-family="Helvetica" font-size="10" font-weight="normal" font-style="normal" fill="#000000" fill-opacity="1">1 ns</text>
  <path d="M 50 225 L 1230 225" fill="none" stroke-width="0.75" stroke="#000000" stroke-opacity="0.49804" stroke-linecap="butt" stroke-linejoin="round"/>
  <text x="21" y="226.7" font-family="Helvetica" font-size="10" font-weight="normal" font-style="normal" fill="#000000" fill-opacity="1">10 ns</text>
  <text x="1236" y="226.7" font-family="Helvetica" font-size="10" font-weight="normal" font-style="normal" fill="#000000" fill-opacity="1">10 ns</text>
  <path d="M 50 117 L 1230 117" fill="none" stroke-width="0.75" stroke="#000000" stroke-opacity="0.49804" stroke-linecap="butt" stroke-linejoin="round"/>
  <text x="16" y="118.7" font-family="Helvetica" font-size="10" font-weight="normal" font-style="normal" fill="#000000" fill-opacity="1">100 ns</text>
  <text x="1236" y="118.7" font-family="Helvetica" font-size="10" font-weight="normal" font-style="normal" fill="#000000" fill-opacity="1">100 ns</text>
  <path d="M 50 9 L 1230 9" fill="none" stroke-width="0.75" stroke="#000000" stroke-opacity="0.49804" stroke-linecap="butt" stroke-linejoin="round"/>
  <text x="26" y="10.7" font-family="Helvetica" font-size="10" font-weight="normal" font-style="normal" fill="#000000" fill-opacity="1">1 µs</text>
  <text x="1236" y="10.7" font-family="Helvetica" font-size="10" font-weight="normal" font-style="normal" fill="#000000" fill-opacity="1">1 µs</text>
  <path d="M 50 408.49 L 1230 408.49" fill="none" stroke-width="0.5" stroke="#000000" stroke-opacity="0.25882" stroke-linecap="butt" stroke-linejoin="round" stroke-dasharray="6 3" stroke-dashoffset="0"/>
  <path d="M 50 375.98 L 1230 375.98" fill="none" stroke-width="0.5" stroke="#000000" stroke-opacity="0.25882" stroke-linecap="butt" stroke-linejoin="round" stroke-dasharray="6 3" stroke-dashoffset="0"/>
  <path d="M 50 343.47 L 1230 343.47" fill="none" stroke-width="0.5" stroke="#000000" stroke-opacity="0.25882" stroke-linecap="butt" stroke-linejoin="round" stroke-dasharray="6 3" stroke-dashoffset="0"/>
  <path d="M 50 310.96 L 1230 310.96" fill="none" stroke-width="0.5" stroke="#000000" stroke-opacity="0.25882" stroke-linecap="butt" stroke-linejoin="round" stroke-dasharray="6 3" stroke-dashoffset="0"/>
  <path d="M 50 278.44 L 1230 278.44" fill="none" stroke-width="0.5" stroke="#000000" stroke-opacity="0.25882" stroke-linecap="butt" stroke-linejoin="round" stroke-dasharray="6 3" stroke-dashoffset="0"/>
  <path d="M 50 245.93 L 1230 245.93" fill="none" stroke-width="0.5" stroke="#000000" stroke-opacity="0.25882" stroke-linecap="butt" stroke-linejoin="round" stroke-dasharray="6 3" stroke-dashoffset="0"/>
  <path d="M 50 213.42 L 1230 213.42" fill="none" stroke-width="0.5" stroke="#000000" stroke-opacity="0.25882" stroke-linecap="butt" stroke-linejoin="round" stroke-dasharray="6 3" stroke-dashoffset="0"/>
  <path d="M 50 180.91 L 1230 180.91" fill="none" stroke-width="0.5" stroke="#000000" stroke-opacity="0.25882" stroke-linecap="butt" stroke-linejoin="round" stroke-dasharray="6 3" stroke-dashoffset="0"/>
  <path d="M 50 148.4 L 1230 148.4" fill="none" stroke-width="0.5" stroke="#000000" stroke-opacity="0.25882" stroke-linecap="butt" stroke-linejoin="round" stroke-dasharray="6 3" stroke-dashoffset="0"/>
  <path d="M 50 115.89 L 1230 115.89" fill="none" stroke-width="0.5" stroke="#000000" stroke-opacity="0.25882" stroke-linecap="butt" stroke-linejoin="round" stroke-dasharray="6 3" stroke-dashoffset="0"/>
  <path d="M 50 83.376 L 1230 83.376" fill="none" stroke-width="0.5" stroke="#000000" stroke-opacity="0.25882" stroke-linecap="butt" stroke-linejoin="round" stroke-dasharray="6 3" stroke-dashoffset="0"/>
  <path d="M 50 50.865 L 1230 50.865" fill="none" stroke-width="0.5" stroke="#000000" stroke-opacity="0.25882" stroke-linecap="butt" stroke-linejoin="round" stroke-dasharray="6 3" stroke-dashoffset="0"/>
  <path d="M 50 18.354 L 1230 18.354" fill="none" stroke-width="0.5" stroke="#000000" stroke-opacity="0.25882" stroke-linecap="butt" stroke-linejoin="round" stroke-dasharray="6 3" stroke-dashoffset="0"/>
  <path d="M 74 33 L 74 88 L 449 88 L 449 33 z" fill="#FFFFFF" fill-opacity="1.0" stroke="none"/>
  <clipPath id="clip-0">
    <path d="M 50 9 L 50 441 L 1230 441 L 1230 9 z"/>
  </clipPath>
  <g clip-path="url(#clip-0)">
    <path d="M 50 229.12L 109 238.49L 143.51 244.02L 168 247.04L 186.99 244.02L 202.51 244.51L 215.63 241.97L 227 241.87L 245.99 241.46L 261.51 241.63L 274.63 240.59L 286 237.53L 304.99 236.08L 320.51 235.14L 333.63 233.3L 345 231.97L 363.99 229.68L 379.51 228.2L 392.63 225.53L 404 224.21L 422.99 221.68L 438.51 220.3L 451.63 218.65L 463 217.72L 481.99 215.91L 497.51 214.73L 510.63 213.25L 522 212.11L 540.99 209.8L 556.51 208.02L 569.63 193.34L 581 196.77L 599.99 177.51L 615.51 161.9L 628.63 153.84L 640 146.46L 658.99 142.42L 674.51 137.67L 687.63 134.95L 699 133.22L 717.99 129.24L 733.51 126.84L 746.63 124.7L 758 122.35L 776.99 118.67L 792.51 117.26L 805.63 115.42L 817 115.09L 835.99 111.9L 851.51 110.46L 864.63 108.66L 876 107.2L 894.99 106.3L 910.51 104.67L 923.63 103.51L 935 95.545L 953.99 101.14L 969.51 98.162L 969.51 98.162L 953.99 101.14L 935 95.545L 923.63 103.51L 910.51 104.67L 894.99 106.3L 876 107.2L 864.63 108.66L 851.51 110.46L 835.99 111.9L 817 115.09L 805.63 115.42L 792.51 117.26L 776.99 118.67L 758 122.35L 746.63 124.7L 733.51 126.84L 717.99 129.24L 699 133.22L 687.63 134.95L 674.51 137.67L 658.99 142.42L 640 146.46L 628.63 153.84L 615.51 161.9L 599.99 177.51L 581 196.77L 569.63 193.34L 556.51 208.02L 540.99 209.8L 522 212.11L 510.63 213.25L 497.51 214.73L 481.99 215.91L 463 217.72L 451.63 218.65L 438.51 220.3L 422.99 221.68L 404 224.21L 392.63 225.53L 379.51 228.2L 363.99 229.68L 345 231.97L 333.63 233.3L 320.51 235.14L 304.99 236.08L 286 237.53L 274.63 240.59L 261.51 241.63L 245.99 241.46L 227 241.87L 215.63 241.97L 202.51 244.51L 186.99 244.02L 168 247.04L 143.51 244.02L 109 238.49L 50 229.12" fill="#007AFF" fill-opacity="0.30196078431372547" stroke="none"/>
    <path d="M 50 243.05L 109 263.55L 143.51 278.76L 168 290.02L 186.99 296.75L 202.51 297.75L 215.63 302.95L 227 307.6L 245.99 312.72L 261.51 314.31L 274.63 318.28L 286 318.85L 304.99 321.82L 320.51 323.91L 333.63 323.25L 345 324.67L 363.99 321.66L 379.51 316.55L 392.63 325.41L 404 326.35L 422.99 328.38L 438.51 329.36L 451.63 330.29L 463 331.51L 481.99 332.28L 497.51 332.89L 510.63 330.85L 522 333.82L 540.99 337.29L 556.51 334.74L 569.63 334.88L 581 334.99L 599.99 335.35L 615.51 335.39L 628.63 334.97L 640 335.78L 658.99 335.9L 674.51 335.95L 687.63 336.37L 699 336.04L 717.99 336.14L 733.51 336.22L 746.63 336.23L 758 336.24L 776.99 336.1L 792.51 336.28L 805.63 336.13L 817 336.31L 835.99 336.32L 851.51 336.33L 864.63 336.18L 876 335.4L 894.99 336.36L 910.51 335.52L 923.63 336.26L 935 336.4L 953.99 336.4L 969.51 336.33L 982.63 336.4L 994 335.66L 1013 336.41L 1028.5 334.4L 1041.6 336.29L 1053 336.09L 1072 336.37L 1087.5 336.32L 1100.6 334.29L 1112 333.75L 1131 334.4L 1146.5 333.84L 1159.6 334.54L 1171 334.32L 1190 332.42L 1205.5 327.2L 1218.6 317.77L 1230 312.5L 1230 315.39L 1218.6 319.24L 1205.5 328.73L 1190 334.87L 1171 336.21L 1159.6 335.95L 1146.5 336.37L 1131 336.3L 1112 336.22L 1100.6 336.37L 1087.5 336.39L 1072 336.42L 1053 336.42L 1041.6 336.33L 1028.5 336.42L 1013 336.42L 994 336.4L 982.63 336.4L 969.51 336.41L 953.99 336.41L 935 336.4L 923.63 336.4L 910.51 336.45L 894.99 336.38L 876 336.36L 864.63 336.55L 851.51 336.35L 835.99 336.33L 817 336.36L 805.63 336.69L 792.51 336.31L 776.99 336.52L 758 336.26L 746.63 336.24L 733.51 336.22L 717.99 336.15L 699 336.1L 687.63 336.42L 674.51 336.02L 658.99 335.93L 640 335.78L 628.63 336.42L 615.51 335.59L 599.99 335.41L 581 335.14L 569.63 334.88L 556.51 334.74L 540.99 337.29L 522 334.11L 510.63 336.36L 497.51 333.08L 481.99 332.52L 463 331.67L 451.63 330.92L 438.51 329.36L 422.99 328.8L 404 326.35L 392.63 325.41L 379.51 339.26L 363.99 330.71L 345 327.7L 333.63 326.62L 320.51 325.22L 304.99 323.33L 286 320.63L 274.63 318.28L 261.51 316.42L 245.99 312.72L 227 307.6L 215.63 305.8L 202.51 306.75L 186.99 296.75L 168 290.02L 143.51 282.79L 109 274.61L 50 245.21" fill="#FF3B30" fill-opacity="0.30196078431372547" stroke="none"/>
    <path d="M 50 229.12L 109 238.49L 143.51 244.02L 168 247.04L 186.99 244.02L 202.51 244.51L 215.63 241.97L 227 241.87L 245.99 241.46L 261.51 241.63L 274.63 240.59L 286 237.53L 304.99 236.08L 320.51 235.14L 333.63 233.3L 345 231.97L 363.99 229.68L 379.51 228.2L 392.63 225.53L 404 224.21L 422.99 221.68L 438.51 220.3L 451.63 218.65L 463 217.72L 481.99 215.91L 497.51 214.73L 510.63 213.25L 522 212.11L 540.99 209.8L 556.51 208.02L 569.63 193.34L 581 196.77L 599.99 177.51L 615.51 161.9L 628.63 153.84L 640 146.46L 658.99 142.42L 674.51 137.67L 687.63 134.95L 699 133.22L 717.99 129.24L 733.51 126.84L 746.63 124.7L 758 122.35L 776.99 118.67L 792.51 117.26L 805.63 115.42L 817 115.09L 835.99 111.9L 851.51 110.46L 864.63 108.66L 876 107.2L 894.99 106.3L 910.51 104.67L 923.63 103.51L 935 95.545L 953.99 101.14L 969.51 98.162" fill="none" stroke-width="4" stroke="#007AFF" stroke-opacity="1" stroke-linecap="round" stroke-linejoin="round"/>
    <path d="M 50 244.63L 109 271.46L 143.51 281.71L 168 290.02L 186.99 296.75L 202.51 304.23L 215.63 305.04L 227 307.6L 245.99 312.72L 261.51 315.86L 274.63 318.28L 286 320.16L 304.99 322.93L 320.51 324.87L 333.63 325.71L 345 326.89L 363.99 328.17L 379.51 332.19L 392.63 325.41L 404 326.35L 422.99 328.69L 438.51 329.36L 451.63 330.75L 463 331.63L 481.99 332.45L 497.51 333.03L 510.63 334.86L 522 334.03L 540.99 337.29L 556.51 334.74L 569.63 334.88L 581 335.1L 599.99 335.4L 615.51 335.54L 628.63 336.04L 640 335.78L 658.99 335.92L 674.51 336L 687.63 336.41L 699 336.08L 717.99 336.14L 733.51 336.22L 746.63 336.23L 758 336.25L 776.99 336.41L 792.51 336.3L 805.63 336.55L 817 336.35L 835.99 336.33L 851.51 336.34L 864.63 336.45L 876 336.11L 894.99 336.37L 910.51 336.2L 923.63 336.37L 935 336.4L 953.99 336.4L 969.51 336.39L 982.63 336.4L 994 336.2L 1013 336.42L 1028.5 335.88L 1041.6 336.32L 1053 336.33L 1072 336.4L 1087.5 336.37L 1100.6 335.82L 1112 335.56L 1131 335.8L 1146.5 335.69L 1159.6 335.58L 1171 335.71L 1190 334.21L 1205.5 328.32L 1218.6 318.85L 1230 314.62" fill="none" stroke-width="4" stroke="#FF3B30" stroke-opacity="1" stroke-linecap="round" stroke-linejoin="round"/>
    <path d="M 50 229.12L 109 238.49L 143.51 244.02L 168 247.04L 186.99 244.02L 202.51 244.51L 215.63 241.97L 227 241.87L 245.99 241.46L 261.51 241.63L 274.63 240.59L 286 237.53L 304.99 236.08L 320.51 235.14L 333.63 233.3L 345 231.97L 363.99 229.68L 379.51 228.2L 392.63 225.53L 404 224.21L 422.99 221.68L 438.51 220.3L 451.63 218.65L 463 217.72L 481.99 215.91L 497.51 214.73L 510.63 213.25L 522 212.11L 540.99 209.8L 556.51 208.02L 569.63 193.34L 581 196.77L 599.99 177.51L 615.51 161.9L 628.63 153.84L 640 146.46L 658.99 142.42L 674.51 137.67L 687.63 134.95L 699 133.22L 717.99 129.24L 733.51 126.84L 746.63 124.7L 758 122.35L 776.99 118.67L 792.51 117.26L 805.63 115.42L 817 115.09L 835.99 111.9L 851.51 110.46L 864.63 108.66L 876 107.2L 894.99 106.3L 910.51 104.67L 923.63 103.51L 935 95.545L 953.99 101.14L 969.51 98.162" fill="none" stroke-width="0.5" stroke="#000000" stroke-opacity="0.30196" stroke-linecap="round" stroke-linejoin="round"/>
    <path d="M 50 244.63L 109 271.46L 143.51 281.71L 168 290.02L 186.99 296.75L 202.51 304.23L 215.63 305.04L 227 307.6L 245.99 312.72L 261.51 315.86L 274.63 318.28L 286 320.16L 304.99 322.93L 320.51 324.87L 333.63 325.71L 345 326.89L 363.99 328.17L 379.51 332.19L 392.63 325.41L 404 326.35L 422.99 328.69L 438.51 329.36L 451.63 330.75L 463 331.63L 481.99 332.45L 497.51 333.03L 510.63 334.86L 522 334.03L 540.99 337.29L 556.51 334.74L 569.63 334.88L 581 335.1L 599.99 335.4L 615.51 335.54L 628.63 336.04L 640 335.78L 658.99 335.92L 674.51 336L 687.63 336.41L 699 336.08L 717.99 336.14L 733.51 336.22L 746.63 336.23L 758 336.25L 776.99 336.41L 792.51 336.3L 805.63 336.55L 817 336.35L 835.99 336.33L 851.51 336.34L 864.63 336.45L 876 336.11L 894.99 336.37L 910.51 336.2L 923.63 336.37L 935 336.4L 953.99 336.4L 969.51 336.39L 982.63 336.4L 994 336.2L 1013 336.42L 1028.5 335.88L 1041.6 336.32L 1053 336.33L 1072 336.4L 1087.5 336.37L 1100.6 335.82L 1112 335.56L 1131 335.8L 1146.5 335.69L 1159.6 335.58L 1171 335.71L 1190 334.21L 1205.5 328.32L 1218.6 318.85L 1230 314.62" fill="none" stroke-width="0.5" stroke="#000000" stroke-opacity="0.30196" stroke-linecap="round" stroke-linejoin="round"/>
  </g>
  <path d="M 74 33 L 74 88 L 449 88 L 449 33 z" fill="#FFFFFF" fill-opacity="0.7019607843137254" stroke-width="0.5" stroke="#000000" stroke-opacity="1" stroke-linecap="round" stroke-linejoin="round"/>
  <path d="M 88 52 L 108 52" fill="none" stroke-width="4" stroke="#FF3B30" stroke-opacity="1" stroke-linecap="round" stroke-linejoin="round"/>
  <path d="M 88 52 L 108 52" fill="none" stroke-width="0.5" stroke="#000000" stroke-opacity="0.30196" stroke-linecap="round" stroke-linejoin="round"/>
  <text x="119" y="56.17" font-family="Menlo" font-size="12" font-weight="normal" font-style="normal" fill="#000000" fill-opacity="1">Array&lt;Int&gt; subscript get, random offsets</text>
  <path d="M 88 69 L 108 69" fill="none" stroke-width="4" stroke="#007AFF" stroke-opacity="1" stroke-linecap="round" stroke-linejoin="round"/>
  <path d="M 88 69 L 108 69" fill="none" stroke-width="0.5" stroke="#000000" stroke-opacity="0.30196" stroke-linecap="round" stroke-linejoin="round"/>
  <text x="119" y="73.17" font-family="Menlo" font-size="12" font-weight="normal" font-style="normal" fill="#000000" fill-opacity="1">TreeArray&lt;Int&gt; subscript get, random offsets</text>
  <path d="M 50 9 L 50 441 L 1230 441 L 1230 9 z" fill="none" stroke-width="0.5" stroke="#000000" stroke-opacity="1" stroke-linecap="round" stroke-linejoin="round"/>
</svg>
