<!DOCTYPE svg PUBLIC "-//W3C//DTD SVG 1.1//EN" "http://www.w3.org/Graphics/SVG/1.1/DTD/svg11.dtd">
<svg width="1280.0px" height="480.0px" viewBox="0.0 0.0 1280.0 480.0" xmlns="http://www.w3.org/2000/svg" xmlns:xlink="http://www.w3.org/1999/xlink" version="1.1">
  <path d="M 0 0 L 0 480 L 1280 480 L 1280 0 z" fill="#FFFFFF" fill-opacity="1.0" stroke="none"/>
  <text x="50" y="468.7" font-family="Helvetica" font-size="10" font-weight="normal" font-style="normal" fill="#000000" fill-opacity="1">Average per-element processing time over input size (bands: min, mean, mean + 2stddev)</text>
  <a xlink:href="https://github.com/apple/swift-collections-benchmark"><text x="1107" y="468.7" font-family="Helvetica" font-size="10" font-weight="normal" font-style="normal" fill="#000000" fill-opacity="1">swift-collections-benchmark</text></a>
  <path d="M 50 9 L 50 441" fill="none" stroke-width="0.75" stroke="#000000" stroke-opacity="0.49804" stroke-linecap="butt" stroke-linejoin="round"/>
  <text x="47" y="453.7" font-family="Helvetica" font-size="10" font-weight="normal" font-style="normal" fill="#000000" fill-opacity="1">1</text>
  <path d="M 109 9 L 109 441" fill="none" stroke-width="0.75" stroke="#000000" stroke-opacity="0.49804" stroke-linecap="butt" stroke-linejoin="round"/>
  <text x="106" y="453.7" font-family="Helvetica" font-size="10" font-weight="normal" font-style="normal" fill="#000000" fill-opacity="1">2</text>
  <path d="M 168 9 L 168 441" fill="none" stroke-width="0.75" stroke="#000000" stroke-opacity="0.49804" stroke-linecap="butt" stroke-linejoin="round"/>
  <text x="165" y="453.7" font-family="Helvetica" font-size="10" font-weight="normal" font-style="normal" fill="#000000" fill-opacity="1">4</text>
  <path d="M 227 9 L 227 441" fill="none" stroke-width="0.75" stroke="#000000" stroke-opacity="0.49804" stroke-linecap="butt" stroke-linejoin="round"/>
  <text x="224" y="453.7" font-family="Helvetica" font-size="10" font-weight="normal" font-style="normal" fill="#000000" fill-opacity="1">8</text>
  <path d="M 286 9 L 286 441" fill="none" stroke-width="0.75" stroke="#000000" stroke-opacity="0.49804" stroke-linecap="butt" stroke-linejoin="round"/>
  <text x="280" y="453.7" font-family="Helvetica" font-size="10" font-weight="normal" font-style="normal" fill="#000000" fill-opacity="1">16</text>
  <path d="M 345 9 L 345 441" fill="none" stroke-width="0.75" stroke="#000000" stroke-opacity="0.49804" stroke-linecap="butt" stroke-linejoin="round"/>
  <text x="339" y="453.7" font-family="Helvetica" font-size="10" font-weight="normal" font-style="normal" fill="#000000" fill-opacity="1">32</text>
  <path d="M 404 9 L 404 441" fill="none" stroke-width="0.75" stroke="#000000" stroke-opacity="0.49804" stroke-linecap="butt" stroke-linejoin="round"/>
  <text x="398" y="453.7" font-family="Helvetica" font-size="10" font-weight="normal" font-style="normal" fill="#000000" fill-opacity="1">64</text>
  <path d="M 463 9 L 463 441" fill="none" stroke-width="0.75" stroke="#000000" stroke-opacity="0.49804" stroke-linecap="butt" stroke-linejoin="round"/>
  <text x="454.5" y="453.7" font-family="Helvetica" font-size="10" font-weight="normal" font-style="normal" fill="#000000" fill-opacity="1">128</text>
  <path d="M 522 9 L 522 441" fill="none" stroke-width="0.75" stroke="#000000" stroke-opacity="0.49804" stroke-linecap="butt" stroke-linejoin="round"/>
  <text x="513.5" y="453.7" font-family="Helvetica" font-size="10" font-weight="normal" font-style="normal" fill="#000000" fill-opacity="1">256</text>
  <path d="M 581 9 L 581 441" fill="none" stroke-width="0.75" stroke="#000000" stroke-opacity="0.49804" stroke-linecap="butt" stroke-linejoin="round"/>
  <text x="572.5" y="453.7" font-family="Helvetica" font-size="10" font-weight="normal" font-style="normal" fill="#000000" fill-opacity="1">512</text>
  <path d="M 640 9 L 640 441" fill="none" stroke-width="0.75" stroke="#000000" stroke-opacity="0.49804" stroke-linecap="butt" stroke-linejoin="round"/>
  <text x="634.5" y="453.7" font-family="Helvetica" font-size="10" font-weight="normal" font-style="normal" fill="#000000" fill-opacity="1">1k</text>
  <path d="M 699 9 L 699 441" fill="none" stroke-width="0.75" stroke="#000000" stroke-opacity="0.49804" stroke-linecap="butt" stroke-linejoin="round"/>
  <text x="693.5" y="453.7" font-family="Helvetica" font-size="10" font-weight="normal" font-style="normal" fill="#000000" fill-opacity="1">2k</text>
  <path d="M 758 9 L 758 441" fill="none" stroke-width="0.75" stroke="#000000" stroke-opacity="0.49804" stroke-linecap="butt" stroke-linejoin="round"/>
  <text x="752.5" y="453.7" font-family="Helvetica" font-size="10" font-weight="normal" font-style="normal" fill="#000000" fill-opacity="1">4k</text>
  <path d="M 817 9 L 817 441" fill="none" stroke-width="0.75" stroke="#000000" stroke-opacity="0.49804" stroke-linecap="butt" stroke-linejoin="round"/>
  <text x="811.5" y="453.7" font-family="Helvetica" font-size="10" font-weight="normal" font-style="normal" fill="#000000" fill-opacity="1">8k</text>
  <path d="M 876 9 L 876 441" fill="none" stroke-width="0.75" stroke="#000000" stroke-opacity="0.49804" stroke-linecap="butt" stroke-linejoin="round"/>
  <text x="867.5" y="453.7" font-family="Helvetica" font-size="10" font-weight="normal" font-style="normal" fill="#000000" fill-opacity="1">16k</text>
  <path d="M 935 9 L 935 441" fill="none" stroke-width="0.75" stroke="#000000" stroke-opacity="0.49804" stroke-linecap="butt" stroke-linejoin="round"/>
  <text x="926.5" y="453.7" font-family="Helvetica" font-size="10" font-weight="normal" font-style="normal" fill="#000000" fill-opacity="1">32k</text>
  <path d="M 994 9 L 994 441" fill="none" stroke-width="0.75" stroke="#000000" stroke-opacity="0.49804" stroke-linecap="butt" stroke-linejoin="round"/>
  <text x="985.5" y="453.7" font-family="Helvetica" font-size="10" font-weight="normal" font-style="normal" fill="#000000" fill-opacity="1">64k</text>
  <path d="M 1053 9 L 1053 441" fill="none" stroke-width="0.75" stroke="#000000" stroke-opacity="0.49804" stroke-linecap="butt" stroke-linejoin="round"/>
  <text x="1042" y="453.7" font-family="Helvetica" font-size="10" font-weight="normal" font-style="normal" fill="#000000" fill-opacity="1">128k</text>
  <path d="M 1112 9 L 1112 441" fill="none" stroke-width="0.75" stroke="#000000" stroke-opacity="0.49804" stroke-linecap="butt" stroke-linejoin="round"/>
  <text x="1101" y="453.7" font-family="Helvetica" font-size="10" font-weight="normal" font-style="normal" fill="#000000" fill-opacity="1">256k</text>
  <path d="M 1171 9 L 1171 441" fill="none" stroke-width="0.75" stroke="#000000" stroke-opacity="0.49804" stroke-linecap="butt" stroke-linejoin="round"/>
  <text x="1160" y="453.7" font-family="Helvetica" font-size="10" font-weight="normal" font-style="normal" fill="#000000" fill-opacity="1">512k</text>
  <path d="M 1230 9 L 1230 441" fill="none" stroke-width="0.75" stroke="#000000" stroke-opacity="0.49804" stroke-linecap="butt" stroke-linejoin="round"/>
  <text x="1223" y="453.7" font-family="Helvetica" font-size="10" font-weight="normal" font-style="normal" fill="#000000" fill-opacity="1">1M</text>
  <path d="M 50 441 L 1230 441" fill="none" stroke-width="0.75" stroke="#000000" stroke-opacity="0.49804" stroke-linecap="butt" stroke-linejoin="round"/>
  <text x="16" y="442.7" font-family="Helvetica" font-size="10" font-weight="normal" font-style="normal" fill="#000000" fill-opacity="1">100 ps</text>
  <text x="1236" y="442.7" font-family="Helvetica" font-size="10" font-weight="normal" font-style="normal" fill="#000000" fill-opacity="1">100 ps</text>
  <path d="M 50 333 L 1230 333" fill="none" stroke-width="0.75" stroke="#000000" stroke-opacity="0.49804" stroke-linecap="butt" stroke-linejoin="round"/>
  <text x="27" y="334.7" font-family="Helvetica" font-size="10" font-weight="normal" font-style="normal" fill="#000000" fill-opacity="1">1 ns</text>
  <text x="1236" y="334.7" font-family="Helvetica" font-size="10" font-weight="normal" font-style="normal" fill="#000000" fill-opacity="1">1 ns</text>
  <path d="M 50 225 L 1230 225" fill="none" stroke-width="0.75" stroke="#000000" stroke-opacity="0.49804" stroke-linecap="butt" stroke-linejoin="round"/>
  <text x="21" y="226.7" font-family="Helvetica" font-size="10" font-weight="normal" font-style="normal" fill="#000000" fill-opacity="1">10 ns</text>
  <text x="1236" y="226.7" font-family="Helvetica" font-size="10" font-weight="normal" font-style="normal" fill="#000000" fill-opacity="1">10 ns</text>
  <path d="M 50 117 L 1230 117" fill="none" stroke-width="0.75" stroke="#000000" stroke-opacity="0.49804" stroke-linecap="butt" stroke-linejoin="round"/>
  <text x="16" y="118.7" font-family="Helvetica" font-size="10" font-weight="normal" font-style="normal" fill="#000000" fill-opacity="1">100 ns</text>
  <text x="1236" y="118.7" font-family="Helvetica" font-size="10" font-weight="normal" font-style="normal" fill="#000000" fill-opacity="1">100 ns</text>
  <path d="M 50 9 L 1230 9" fill="none" stroke-width="0.75" stroke="#000000" stroke-opacity="0.49804" stroke-linecap="butt" stroke-linejoin="round"/>
  <text x="26" y="10.7" font-family="Helvetica" font-size="10" font-weight="normal" font-style="normal" fill="#000000" fill-opacity="1">1 µs</text>
  <text x="1236" y="10.7" font-family="Helvetica" font-size="10" font-weight="normal" font-style="normal" fill="#000000" fill-opacity="1">1 µs</text>
  <path d="M 50 408.49 L 1230 408.49" fill="none" stroke-width="0.5" stroke="#000000" stroke-opacity="0.25882" stroke-linecap="butt" stroke-linejoin="round" stroke-dasharray="6 3" stroke-dashoffset="0"/>
  <path d="M 50 375.98 L 1230 375.98" fill="none" stroke-width="0.5" stroke="#000000" stroke-opacity="0.25882" stroke-linecap="butt" stroke-linejoin="round" stroke-dasharray="6 3" stroke-dashoffset="0"/>
  <path d="M 50 343.47 L 1230 343.47" fill="none" stroke-width="0.5" stroke="#000000" stroke-opacity="0.25882" stroke-linecap="butt" stroke-linejoin="round" stroke-dasharray="6 3" stroke-dashoffset="0"/>
  <path d="M 50 310.96 L 1230 310.96" fill="none" stroke-width="0.5" stroke="#000000" stroke-opacity="0.25882" stroke-linecap="butt" stroke-linejoin="round" stroke-dasharray="6 3" stroke-dashoffset="0"/>
  <path d="M 50 278.44 L 1230 278.44" fill="none" stroke-width="0.5" stroke="#000000" stroke-opacity="0.25882" stroke-linecap="butt" stroke-linejoin="round" stroke-dasharray="6 3" stroke-dashoffset="0"/>
  <path d="M 50 245.93 L 1230 245.93" fill="none" stroke-width="0.5" stroke="#000000" stroke-opacity="0.25882" stroke-linecap="butt" stroke-linejoin="round" stroke-dasharray="6 3" stroke-dashoffset="0"/>
  <path d="M 50 213.42 L 1230 213.42" fill="none" stroke-width="0.5" stroke="#000000" stroke-opacity="0.25882" stroke-linecap="butt" stroke-linejoin="round" stroke-dasharray="6 3" stroke-dashoffset="0"/>
  <path d="M 50 180.91 L 1230 180.91" fill="none" stroke-width="0.5" stroke="#000000" stroke-opacity="0.25882" stroke-linecap="butt" stroke-linejoin="round" stroke-dasharray="6 3" stroke-dashoffset="0"/>
  <path d="M 50 148.4 L 1230 148.4" fill="none" stroke-width="0.5" stroke="#000000" stroke-opacity="0.25882" stroke-linecap="butt" stroke-linejoin="round" stroke-dasharray="6 3" stroke-dashoffset="0"/>
  <path d="M 50 115.89 L 1230 115.89" fill="none" stroke-width="0.5" stroke="#000000" stroke-opacity="0.25882" stroke-linecap="butt" stroke-linejoin="round" stroke-dasharray="6 3" stroke-dashoffset="0"/>
  <path d="M 50 83.376 L 1230 83.376" fill="none" stroke-width="0.5" stroke="#000000" stroke-opacity="0.25882" stroke-linecap="butt" stroke-linejoin="round" stroke-dasharray="6 3" stroke-dashoffset="0"/>
  <path d="M 50 50.865 L 1230 50.865" fill="none" stroke-width="0.5" stroke="#000000" stroke-opacity="0.25882" stroke-linecap="butt" stroke-linejoin="round" stroke-dasharray="6 3" stroke-dashoffset="0"/>
  <path d="M 50 18.354 L 1230 18.354" fill="none" stroke-width="0.5" stroke="#000000" stroke-opacity="0.25882" stroke-linecap="butt" stroke-linejoin="round" stroke-dasharray="6 3" stroke-dashoffset="0"/>
  <path d="M 74 33 L 74 88 L 449 88 L 449 33 z" fill="#FFFFFF" fill-opacity="1.0" stroke="none"/>
  <clipPath id="clip-0">
    <path d="M 50 9 L 50 441 L 1230 441 L 1230 9 z"/>
  </clipPath>
  <g clip-path="url(#clip-0)">
    <path d="M 50 227.23L 109 233.95L 143.51 241.41L 168 238.13L 186.99 226.35L 202.51 225.35L 215.63 240.47L 227 238.34L 245.99 233.99L 261.51 231.53L 274.63 231.17L 286 223.63L 304.99 216.06L 320.51 212.56L 333.63 207.49L 345 220.77L 363.99 219.21L 379.51 212.8L 392.63 216.5L 404 190.72L 422.99 212.56L 438.51 207.3L 451.63 198.34L 463 188.71L 481.99 198.89L 497.51 195.62L 510.63 187.43L 522 194.02L 540.99 186.33L 556.51 179.35L 569.63 167.33L 581 152.46L 599.99 147.54L 615.51 158.22L 628.63 142.68L 640 145.4L 658.99 137.91L 674.51 136.8L 687.63 134.18L 699 132.79L 717.99 131.4L 733.51 127.77L 746.63 121.5L 758 121.55L 776.99 119.21L 792.51 115.99L 805.63 113.81L 817 110.83L 835.99 108.67L 851.51 107.84L 864.63 106.41L 876 102.26L 894.99 101.52L 910.51 99.646L 923.63 96.376L 935 96.833L 953.99 96.2L 969.51 93.558L 982.63 91.804L 994 89.488L 1013 88.53L 1028.5 86.532L 1041.6 85.965L 1053 83.831L 1072 80.265L 1087.5 77.584L 1100.6 64.629L 1112 64.514L 1131 64.466L 1146.5 60.8L 1159.6 57.483L 1171 54.987L 1190 50.872L 1205.5 44.862L 1218.6 42.603L 1230 38.604L 1230 40.363L 1218.6 43.082L 1205.5 47.017L 1190 51.392L 1171 56.511L 1159.6 59.383L 1146.5 62.955L 1131 67.542L 1112 72.232L 1100.6 73.888L 1087.5 79.005L 1072 82.687L 1053 84.3L 1041.6 86.226L 1028.5 87.97L 1013 89.598L 994 90.935L 982.63 92.405L 969.51 94.994L 953.99 96.437L 935 98.199L 923.63 99.957L 910.51 101.23L 894.99 103.71L 876 105.43L 864.63 106.66L 851.51 108.34L 835.99 111.72L 817 113.51L 805.63 115.1L 792.51 118.24L 776.99 119.9L 758 125.15L 746.63 126.3L 733.51 128.17L 717.99 132.06L 699 134.33L 687.63 136.47L 674.51 138.28L 658.99 141.71L 640 147.91L 628.63 152.49L 615.51 161.91L 599.99 171.71L 581 181.45L 569.63 190.61L 556.51 190.08L 540.99 194.62L 522 197.86L 510.63 196.84L 497.51 198.2L 481.99 206.23L 463 205.75L 451.63 204.61L 438.51 208.43L 422.99 212.65L 404 216.28L 392.63 216.87L 379.51 220.24L 363.99 220.04L 345 221.3L 333.63 225.56L 320.51 227.17L 304.99 231.26L 286 230.99L 274.63 232.72L 261.51 233.35L 245.99 238.76L 227 242.23L 215.63 241.97L 202.51 243.54L 186.99 265.69L 168 244.76L 143.51 247.04L 109 244.03L 50 231.26" fill="#007AFF" fill-opacity="0.30196078431372547" stroke="none"/>
    <path d="M 50 243.05L 109 263.55L 143.51 278.76L 168 290.02L 186.99 296.75L 202.51 297.75L 215.63 302.95L 227 307.6L 245.99 312.72L 261.51 314.31L 274.63 318.28L 286 318.85L 304.99 321.82L 320.51 323.91L 333.63 323.25L 345 324.67L 363.99 321.66L 379.51 316.55L 392.63 325.41L 404 326.35L 422.99 328.38L 438.51 329.36L 451.63 330.29L 463 331.51L 481.99 332.28L 497.51 332.89L 510.63 330.85L 522 333.82L 540.99 337.29L 556.51 334.74L 569.63 334.88L 581 334.99L 599.99 335.35L 615.51 335.39L 628.63 334.97L 640 335.78L 658.99 335.9L 674.51 335.95L 687.63 336.37L 699 336.04L 717.99 336.14L 733.51 336.22L 746.63 336.23L 758 336.24L 776.99 336.1L 792.51 336.28L 805.63 336.13L 817 336.31L 835.99 336.32L 851.51 336.33L 864.63 336.18L 876 335.4L 894.99 336.36L 910.51 335.52L 923.63 336.26L 935 336.4L 953.99 336.4L 969.51 336.33L 982.63 336.4L 994 335.66L 1013 336.41L 1028.5 334.4L 1041.6 336.29L 1053 336.09L 1072 336.37L 1087.5 336.32L 1100.6 334.29L 1112 333.75L 1131 334.4L 1146.5 333.84L 1159.6 334.54L 1171 334.32L 1190 332.42L 1205.5 327.2L 1218.6 317.77L 1230 312.5L 1230 315.39L 1218.6 319.24L 1205.5 328.73L 1190 334.87L 1171 336.21L 1159.6 335.95L 1146.5 336.37L 1131 336.3L 1112 336.22L 1100.6 336.37L 1087.5 336.39L 1072 336.42L 1053 336.42L 1041.6 336.33L 1028.5 336.42L 1013 336.42L 994 336.4L 982.63 336.4L 969.51 336.41L 953.99 336.41L 935 336.4L 923.63 336.4L 910.51 336.45L 894.99 336.38L 876 336.36L 864.63 336.55L 851.51 336.35L 835.99 336.33L 817 336.36L 805.63 336.69L 792.51 336.31L 776.99 336.52L 758 336.26L 746.63 336.24L 733.51 336.22L 717.99 336.15L 699 336.1L 687.63 336.42L 674.51 336.02L 658.99 335.93L 640 335.78L 628.63 336.42L 615.51 335.59L 599.99 335.41L 581 335.14L 569.63 334.88L 556.51 334.74L 540.99 337.29L 522 334.11L 510.63 336.36L 497.51 333.08L 481.99 332.52L 463 331.67L 451.63 330.92L 438.51 329.36L 422.99 328.8L 404 326.35L 392.63 325.41L 379.51 339.26L 363.99 330.71L 345 327.7L 333.63 326.62L 320.51 325.22L 304.99 323.33L 286 320.63L 274.63 318.28L 261.51 316.42L 245.99 312.72L 227 307.6L 215.63 305.8L 202.51 306.75L 186.99 296.75L 168 290.02L 143.51 282.79L 109 274.61L 50 245.21" fill="#FF3B30" fill-opacity="0.30196078431372547" stroke="none"/>
    <path d="M 50 230.18L 109 241.18L 143.51 245.51L 168 242.93L 186.99 251.85L 202.51 238.07L 215.63 241.57L 227 241.18L 245.99 237.46L 261.51 232.87L 274.63 232.31L 286 228.95L 304.99 226.79L 320.51 222.89L 333.63 220.13L 345 221.16L 363.99 219.82L 379.51 218.18L 392.63 216.77L 404 208.15L 422.99 212.63L 438.51 208.13L 451.63 202.89L 463 200.67L 481.99 204.2L 497.51 197.51L 510.63 194.19L 522 196.82L 540.99 192.31L 556.51 187.04L 569.63 183.33L 581 171.99L 599.99 164.1L 615.51 160.92L 628.63 149.72L 640 147.24L 658.99 140.69L 674.51 137.89L 687.63 135.86L 699 133.92L 717.99 131.88L 733.51 128.07L 746.63 125L 758 124.18L 776.99 119.72L 792.51 117.64L 805.63 114.76L 817 112.79L 835.99 110.9L 851.51 108.21L 864.63 106.59L 876 104.58L 894.99 103.13L 910.51 100.81L 923.63 98.995L 935 97.839L 953.99 96.375L 969.51 94.615L 982.63 92.247L 994 90.552L 1013 89.317L 1028.5 87.59L 1041.6 86.158L 1053 84.177L 1072 82.042L 1087.5 78.63L 1100.6 71.287L 1112 70.09L 1131 66.719L 1146.5 62.383L 1159.6 58.879L 1171 56.108L 1190 51.256L 1205.5 46.444L 1218.6 42.956L 1230 39.897" fill="none" stroke-width="4" stroke="#007AFF" stroke-opacity="1" stroke-linecap="round" stroke-linejoin="round"/>
    <path d="M 50 244.63L 109 271.46L 143.51 281.71L 168 290.02L 186.99 296.75L 202.51 304.23L 215.63 305.04L 227 307.6L 245.99 312.72L 261.51 315.86L 274.63 318.28L 286 320.16L 304.99 322.93L 320.51 324.87L 333.63 325.71L 345 326.89L 363.99 328.17L 379.51 332.19L 392.63 325.41L 404 326.35L 422.99 328.69L 438.51 329.36L 451.63 330.75L 463 331.63L 481.99 332.45L 497.51 333.03L 510.63 334.86L 522 334.03L 540.99 337.29L 556.51 334.74L 569.63 334.88L 581 335.1L 599.99 335.4L 615.51 335.54L 628.63 336.04L 640 335.78L 658.99 335.92L 674.51 336L 687.63 336.41L 699 336.08L 717.99 336.14L 733.51 336.22L 746.63 336.23L 758 336.25L 776.99 336.41L 792.51 336.3L 805.63 336.55L 817 336.35L 835.99 336.33L 851.51 336.34L 864.63 336.45L 876 336.11L 894.99 336.37L 910.51 336.2L 923.63 336.37L 935 336.4L 953.99 336.4L 969.51 336.39L 982.63 336.4L 994 336.2L 1013 336.42L 1028.5 335.88L 1041.6 336.32L 1053 336.33L 1072 336.4L 1087.5 336.37L 1100.6 335.82L 1112 335.56L 1131 335.8L 1146.5 335.69L 1159.6 335.58L 1171 335.71L 1190 334.21L 1205.5 328.32L 1218.6 318.85L 1230 314.62" fill="none" stroke-width="4" stroke="#FF3B30" stroke-opacity="1" stroke-linecap="round" stroke-linejoin="round"/>
    <path d="M 50 230.18L 109 241.18L 143.51 245.51L 168 242.93L 186.99 251.85L 202.51 238.07L 215.63 241.57L 227 241.18L 245.99 237.46L 261.51 232.87L 274.63 232.31L 286 228.95L 304.99 226.79L 320.51 222.89L 333.63 220.13L 345 221.16L 363.99 219.82L 379.51 218.18L 392.63 216.77L 404 208.15L 422.99 212.63L 438.51 208.13L 451.63 202.89L 463 200.67L 481.99 204.2L 497.51 197.51L 510.63 194.19L 522 196.82L 540.99 192.31L 556.51 187.04L 569.63 183.33L 581 171.99L 599.99 164.1L 615.51 160.92L 628.63 149.72L 640 147.24L 658.99 140.69L 674.51 137.89L 687.63 135.86L 699 133.92L 717.99 131.88L 733.51 128.07L 746.63 125L 758 124.18L 776.99 119.72L 792.51 117.64L 805.63 114.76L 817 112.79L 835.99 110.9L 851.51 108.21L 864.63 106.59L 876 104.58L 894.99 103.13L 910.51 100.81L 923.63 98.995L 935 97.839L 953.99 96.375L 969.51 94.615L 982.63 92.247L 994 90.552L 1013 89.317L 1028.5 87.59L 1041.6 86.158L 1053 84.177L 1072 82.042L 1087.5 78.63L 1100.6 71.287L 1112 70.09L 1131 66.719L 1146.5 62.383L 1159.6 58.879L 1171 56.108L 1190 51.256L 1205.5 46.444L 1218.6 42.956L 1230 39.897" fill="none" stroke-width="0.5" stroke="#000000" stroke-opacity="0.30196" stroke-linecap="round" stroke-linejoin="round"/>
    <path d="M 50 244.63L 109 271.46L 143.51 281.71L 168 290.02L 186.99 296.75L 202.51 304.23L 215.63 305.04L 227 307.6L 245.99 312.72L 261.51 315.86L 274.63 318.28L 286 320.16L 304.99 322.93L 320.51 324.87L 333.63 325.71L 345 326.89L 363.99 328.17L 379.51 332.19L 392.63 325.41L 404 326.35L 422.99 328.69L 438.51 329.36L 451.63 330.75L 463 331.63L 481.99 332.45L 497.51 333.03L 510.63 334.86L 522 334.03L 540.99 337.29L 556.51 334.74L 569.63 334.88L 581 335.1L 599.99 335.4L 615.51 335.54L 628.63 336.04L 640 335.78L 658.99 335.92L 674.51 336L 687.63 336.41L 699 336.08L 717.99 336.14L 733.51 336.22L 746.63 336.23L 758 336.25L 776.99 336.41L 792.51 336.3L 805.63 336.55L 817 336.35L 835.99 336.33L 851.51 336.34L 864.63 336.45L 876 336.11L 894.99 336.37L 910.51 336.2L 923.63 336.37L 935 336.4L 953.99 336.4L 969.51 336.39L 982.63 336.4L 994 336.2L 1013 336.42L 1028.5 335.88L 1041.6 336.32L 1053 336.33L 1072 336.4L 1087.5 336.37L 1100.6 335.82L 1112 335.56L 1131 335.8L 1146.5 335.69L 1159.6 335.58L 1171 335.71L 1190 334.21L 1205.5 328.32L 1218.6 318.85L 1230 314.62" fill="none" stroke-width="0.5" stroke="#000000" stroke-opacity="0.30196" stroke-linecap="round" stroke-linejoin="round"/>
  </g>
  <path d="M 74 33 L 74 88 L 449 88 L 449 33 z" fill="#FFFFFF" fill-opacity="0.7019607843137254" stroke-width="0.5" stroke="#000000" stroke-opacity="1" stroke-linecap="round" stroke-linejoin="round"/>
  <path d="M 88 52 L 108 52" fill="none" stroke-width="4" stroke="#FF3B30" stroke-opacity="1" stroke-linecap="round" stroke-linejoin="round"/>
  <path d="M 88 52 L 108 52" fill="none" stroke-width="0.5" stroke="#000000" stroke-opacity="0.30196" stroke-linecap="round" stroke-linejoin="round"/>
  <text x="119" y="56.17" font-family="Menlo" font-size="12" font-weight="normal" font-style="normal" fill="#000000" fill-opacity="1">Array&lt;Int&gt; subscript get, random offsets</text>
  <path d="M 88 69 L 108 69" fill="none" stroke-width="4" stroke="#007AFF" stroke-opacity="1" stroke-linecap="round" stroke-linejoin="round"/>
  <path d="M 88 69 L 108 69" fill="none" stroke-width="0.5" stroke="#000000" stroke-opacity="0.30196" stroke-linecap="round" stroke-linejoin="round"/>
  <text x="119" y="73.17" font-family="Menlo" font-size="12" font-weight="normal" font-style="normal" fill="#000000" fill-opacity="1">TreeArray&lt;Int&gt; subscript get, random offsets</text>
  <path d="M 50 9 L 50 441 L 1230 441 L 1230 9 z" fill="none" stroke-width="0.5" stroke="#000000" stroke-opacity="1" stroke-linecap="round" stroke-linejoin="round"/>
</svg>
