<!DOCTYPE svg PUBLIC "-//W3C//DTD SVG 1.1//EN" "http://www.w3.org/Graphics/SVG/1.1/DTD/svg11.dtd">
<svg width="1280.0px" height="480.0px" viewBox="0.0 0.0 1280.0 480.0" xmlns="http://www.w3.org/2000/svg" xmlns:xlink="http://www.w3.org/1999/xlink" version="1.1">
  <path d="M 0 0 L 0 480 L 1280 480 L 1280 0 z" fill="#FFFFFF" fill-opacity="1.0" stroke="none"/>
  <text x="50" y="468.7" font-family="Helvetica" font-size="10" font-weight="normal" font-style="normal" fill="#000000" fill-opacity="1">Average per-element processing time over input size (bands: min, mean, mean + 2stddev)</text>
  <a xlink:href="https://github.com/apple/swift-collections-benchmark"><text x="1107" y="468.7" font-family="Helvetica" font-size="10" font-weight="normal" font-style="normal" fill="#000000" fill-opacity="1">swift-collections-benchmark</text></a>
  <path d="M 50 9 L 50 441" fill="none" stroke-width="0.75" stroke="#000000" stroke-opacity="0.49804" stroke-linecap="butt" stroke-linejoin="round"/>
  <text x="47" y="453.7" font-family="Helvetica" font-size="10" font-weight="normal" font-style="normal" fill="#000000" fill-opacity="1">1</text>
  <path d="M 109 9 L 109 441" fill="none" stroke-width="0.75" stroke="#000000" stroke-opacity="0.49804" stroke-linecap="butt" stroke-linejoin="round"/>
  <text x="106" y="453.7" font-family="Helvetica" font-size="10" font-weight="normal" font-style="normal" fill="#000000" fill-opacity="1">2</text>
  <path d="M 168 9 L 168 441" fill="none" stroke-width="0.75" stroke="#000000" stroke-opacity="0.49804" stroke-linecap="butt" stroke-linejoin="round"/>
  <text x="165" y="453.7" font-family="Helvetica" font-size="10" font-weight="normal" font-style="normal" fill="#000000" fill-opacity="1">4</text>
  <path d="M 227 9 L 227 441" fill="none" stroke-width="0.75" stroke="#000000" stroke-opacity="0.49804" stroke-linecap="butt" stroke-linejoin="round"/>
  <text x="224" y="453.7" font-family="Helvetica" font-size="10" font-weight="normal" font-style="normal" fill="#000000" fill-opacity="1">8</text>
  <path d="M 286 9 L 286 441" fill="none" stroke-width="0.75" stroke="#000000" stroke-opacity="0.49804" stroke-linecap="butt" stroke-linejoin="round"/>
  <text x="280" y="453.7" font-family="Helvetica" font-size="10" font-weight="normal" font-style="normal" fill="#000000" fill-opacity="1">16</text>
  <path d="M 345 9 L 345 441" fill="none" stroke-width="0.75" stroke="#000000" stroke-opacity="0.49804" stroke-linecap="butt" stroke-linejoin="round"/>
  <text x="339" y="453.7" font-family="Helvetica" font-size="10" font-weight="normal" font-style="normal" fill="#000000" fill-opacity="1">32</text>
  <path d="M 404 9 L 404 441" fill="none" stroke-width="0.75" stroke="#000000" stroke-opacity="0.49804" stroke-linecap="butt" stroke-linejoin="round"/>
  <text x="398" y="453.7" font-family="Helvetica" font-size="10" font-weight="normal" font-style="normal" fill="#000000" fill-opacity="1">64</text>
  <path d="M 463 9 L 463 441" fill="none" stroke-width="0.75" stroke="#000000" stroke-opacity="0.49804" stroke-linecap="butt" stroke-linejoin="round"/>
  <text x="454.5" y="453.7" font-family="Helvetica" font-size="10" font-weight="normal" font-style="normal" fill="#000000" fill-opacity="1">128</text>
  <path d="M 522 9 L 522 441" fill="none" stroke-width="0.75" stroke="#000000" stroke-opacity="0.49804" stroke-linecap="butt" stroke-linejoin="round"/>
  <text x="513.5" y="453.7" font-family="Helvetica" font-size="10" font-weight="normal" font-style="normal" fill="#000000" fill-opacity="1">256</text>
  <path d="M 581 9 L 581 441" fill="none" stroke-width="0.75" stroke="#000000" stroke-opacity="0.49804" stroke-linecap="butt" stroke-linejoin="round"/>
  <text x="572.5" y="453.7" font-family="Helvetica" font-size="10" font-weight="normal" font-style="normal" fill="#000000" fill-opacity="1">512</text>
  <path d="M 640 9 L 640 441" fill="none" stroke-width="0.75" stroke="#000000" stroke-opacity="0.49804" stroke-linecap="butt" stroke-linejoin="round"/>
  <text x="634.5" y="453.7" font-family="Helvetica" font-size="10" font-weight="normal" font-style="normal" fill="#000000" fill-opacity="1">1k</text>
  <path d="M 699 9 L 699 441" fill="none" stroke-width="0.75" stroke="#000000" stroke-opacity="0.49804" stroke-linecap="butt" stroke-linejoin="round"/>
  <text x="693.5" y="453.7" font-family="Helvetica" font-size="10" font-weight="normal" font-style="normal" fill="#000000" fill-opacity="1">2k</text>
  <path d="M 758 9 L 758 441" fill="none" stroke-width="0.75" stroke="#000000" stroke-opacity="0.49804" stroke-linecap="butt" stroke-linejoin="round"/>
  <text x="752.5" y="453.7" font-family="Helvetica" font-size="10" font-weight="normal" font-style="normal" fill="#000000" fill-opacity="1">4k</text>
  <path d="M 817 9 L 817 441" fill="none" stroke-width="0.75" stroke="#000000" stroke-opacity="0.49804" stroke-linecap="butt" stroke-linejoin="round"/>
  <text x="811.5" y="453.7" font-family="Helvetica" font-size="10" font-weight="normal" font-style="normal" fill="#000000" fill-opacity="1">8k</text>
  <path d="M 876 9 L 876 441" fill="none" stroke-width="0.75" stroke="#000000" stroke-opacity="0.49804" stroke-linecap="butt" stroke-linejoin="round"/>
  <text x="867.5" y="453.7" font-family="Helvetica" font-size="10" font-weight="normal" font-style="normal" fill="#000000" fill-opacity="1">16k</text>
  <path d="M 935 9 L 935 441" fill="none" stroke-width="0.75" stroke="#000000" stroke-opacity="0.49804" stroke-linecap="butt" stroke-linejoin="round"/>
  <text x="926.5" y="453.7" font-family="Helvetica" font-size="10" font-weight="normal" font-style="normal" fill="#000000" fill-opacity="1">32k</text>
  <path d="M 994 9 L 994 441" fill="none" stroke-width="0.75" stroke="#000000" stroke-opacity="0.49804" stroke-linecap="butt" stroke-linejoin="round"/>
  <text x="985.5" y="453.7" font-family="Helvetica" font-size="10" font-weight="normal" font-style="normal" fill="#000000" fill-opacity="1">64k</text>
  <path d="M 1053 9 L 1053 441" fill="none" stroke-width="0.75" stroke="#000000" stroke-opacity="0.49804" stroke-linecap="butt" stroke-linejoin="round"/>
  <text x="1042" y="453.7" font-family="Helvetica" font-size="10" font-weight="normal" font-style="normal" fill="#000000" fill-opacity="1">128k</text>
  <path d="M 1112 9 L 1112 441" fill="none" stroke-width="0.75" stroke="#000000" stroke-opacity="0.49804" stroke-linecap="butt" stroke-linejoin="round"/>
  <text x="1101" y="453.7" font-family="Helvetica" font-size="10" font-weight="normal" font-style="normal" fill="#000000" fill-opacity="1">256k</text>
  <path d="M 1171 9 L 1171 441" fill="none" stroke-width="0.75" stroke="#000000" stroke-opacity="0.49804" stroke-linecap="butt" stroke-linejoin="round"/>
  <text x="1160" y="453.7" font-family="Helvetica" font-size="10" font-weight="normal" font-style="normal" fill="#000000" fill-opacity="1">512k</text>
  <path d="M 1230 9 L 1230 441" fill="none" stroke-width="0.75" stroke="#000000" stroke-opacity="0.49804" stroke-linecap="butt" stroke-linejoin="round"/>
  <text x="1223" y="453.7" font-family="Helvetica" font-size="10" font-weight="normal" font-style="normal" fill="#000000" fill-opacity="1">1M</text>
  <path d="M 50 441 L 1230 441" fill="none" stroke-width="0.75" stroke="#000000" stroke-opacity="0.49804" stroke-linecap="butt" stroke-linejoin="round"/>
  <text x="16" y="442.7" font-family="Helvetica" font-size="10" font-weight="normal" font-style="normal" fill="#000000" fill-opacity="1">100 ps</text>
  <text x="1236" y="442.7" font-family="Helvetica" font-size="10" font-weight="normal" font-style="normal" fill="#000000" fill-opacity="1">100 ps</text>
  <path d="M 50 333 L 1230 333" fill="none" stroke-width="0.75" stroke="#000000" stroke-opacity="0.49804" stroke-linecap="butt" stroke-linejoin="round"/>
  <text x="27" y="334.7" font-family="Helvetica" font-size="10" font-weight="normal" font-style="normal" fill="#000000" fill-opacity="1">1 ns</text>
  <text x="1236" y="334.7" font-family="Helvetica" font-size="10" font-weight="normal" font-style="normal" fill="#000000" fill-opacity="1">1 ns</text>
  <path d="M 50 225 L 1230 225" fill="none" stroke-width="0.75" stroke="#000000" stroke-opacity="0.49804" stroke-linecap="butt" stroke-linejoin="round"/>
  <text x="21" y="226.7" font-family="Helvetica" font-size="10" font-weight="normal" font-style="normal" fill="#000000" fill-opacity="1">10 ns</text>
  <text x="1236" y="226.7" font-family="Helvetica" font-size="10" font-weight="normal" font-style="normal" fill="#000000" fill-opacity="1">10 ns</text>
  <path d="M 50 117 L 1230 117" fill="none" stroke-width="0.75" stroke="#000000" stroke-opacity="0.49804" stroke-linecap="butt" stroke-linejoin="round"/>
  <text x="16" y="118.7" font-family="Helvetica" font-size="10" font-weight="normal" font-style="normal" fill="#000000" fill-opacity="1">100 ns</text>
  <text x="1236" y="118.7" font-family="Helvetica" font-size="10" font-weight="normal" font-style="normal" fill="#000000" fill-opacity="1">100 ns</text>
  <path d="M 50 9 L 1230 9" fill="none" stroke-width="0.75" stroke="#000000" stroke-opacity="0.49804" stroke-linecap="butt" stroke-linejoin="round"/>
  <text x="26" y="10.7" font-family="Helvetica" font-size="10" font-weight="normal" font-style="normal" fill="#000000" fill-opacity="1">1 µs</text>
  <text x="1236" y="10.7" font-family="Helvetica" font-size="10" font-weight="normal" font-style="normal" fill="#000000" fill-opacity="1">1 µs</text>
  <path d="M 50 408.49 L 1230 408.49" fill="none" stroke-width="0.5" stroke="#000000" stroke-opacity="0.25882" stroke-linecap="butt" stroke-linejoin="round" stroke-dasharray="6 3" stroke-dashoffset="0"/>
  <path d="M 50 375.98 L 1230 375.98" fill="none" stroke-width="0.5" stroke="#000000" stroke-opacity="0.25882" stroke-linecap="butt" stroke-linejoin="round" stroke-dasharray="6 3" stroke-dashoffset="0"/>
  <path d="M 50 343.47 L 1230 343.47" fill="none" stroke-width="0.5" stroke="#000000" stroke-opacity="0.25882" stroke-linecap="butt" stroke-linejoin="round" stroke-dasharray="6 3" stroke-dashoffset="0"/>
  <path d="M 50 310.96 L 1230 310.96" fill="none" stroke-width="0.5" stroke="#000000" stroke-opacity="0.25882" stroke-linecap="butt" stroke-linejoin="round" stroke-dasharray="6 3" stroke-dashoffset="0"/>
  <path d="M 50 278.44 L 1230 278.44" fill="none" stroke-width="0.5" stroke="#000000" stroke-opacity="0.25882" stroke-linecap="butt" stroke-linejoin="round" stroke-dasharray="6 3" stroke-dashoffset="0"/>
  <path d="M 50 245.93 L 1230 245.93" fill="none" stroke-width="0.5" stroke="#000000" stroke-opacity="0.25882" stroke-linecap="butt" stroke-linejoin="round" stroke-dasharray="6 3" stroke-dashoffset="0"/>
  <path d="M 50 213.42 L 1230 213.42" fill="none" stroke-width="0.5" stroke="#000000" stroke-opacity="0.25882" stroke-linecap="butt" stroke-linejoin="round" stroke-dasharray="6 3" stroke-dashoffset="0"/>
  <path d="M 50 180.91 L 1230 180.91" fill="none" stroke-width="0.5" stroke="#000000" stroke-opacity="0.25882" stroke-linecap="butt" stroke-linejoin="round" stroke-dasharray="6 3" stroke-dashoffset="0"/>
  <path d="M 50 148.4 L 1230 148.4" fill="none" stroke-width="0.5" stroke="#000000" stroke-opacity="0.25882" stroke-linecap="butt" stroke-linejoin="round" stroke-dasharray="6 3" stroke-dashoffset="0"/>
  <path d="M 50 115.89 L 1230 115.89" fill="none" stroke-width="0.5" stroke="#000000" stroke-opacity="0.25882" stroke-linecap="butt" stroke-linejoin="round" stroke-dasharray="6 3" stroke-dashoffset="0"/>
  <path d="M 50 83.376 L 1230 83.376" fill="none" stroke-width="0.5" stroke="#000000" stroke-opacity="0.25882" stroke-linecap="butt" stroke-linejoin="round" stroke-dasharray="6 3" stroke-dashoffset="0"/>
  <path d="M 50 50.865 L 1230 50.865" fill="none" stroke-width="0.5" stroke="#000000" stroke-opacity="0.25882" stroke-linecap="butt" stroke-linejoin="round" stroke-dasharray="6 3" stroke-dashoffset="0"/>
  <path d="M 50 18.354 L 1230 18.354" fill="none" stroke-width="0.5" stroke="#000000" stroke-opacity="0.25882" stroke-linecap="butt" stroke-linejoin="round" stroke-dasharray="6 3" stroke-dashoffset="0"/>
  <path d="M 74 33 L 74 88 L 449 88 L 449 33 z" fill="#FFFFFF" fill-opacity="1.0" stroke="none"/>
  <clipPath id="clip-0">
    <path d="M 50 9 L 50 441 L 1230 441 L 1230 9 z"/>
  </clipPath>
  <g clip-path="url(#clip-0)">
    <path d="M 50 231.46L 109 244.03L 143.51 250.33L 168 249.52L 186.99 249.09L 202.51 249.24L 215.63 249.47L 227 246.76L 245.99 247.04L 261.51 244.08L 274.63 244.92L 286 243.49L 304.99 239.52L 320.51 239.61L 333.63 238L 345 238.27L 363.99 232.77L 379.51 232.59L 392.63 228.83L 404 231.38L 422.99 228.06L 438.51 226.57L 451.63 225.06L 463 225.27L 481.99 221.92L 497.51 220.58L 510.63 219.4L 522 218.59L 540.99 216.06L 556.51 209.41L 569.63 199.88L 581 184.12L 599.99 172.36L 615.51 162.04L 628.63 155.07L 640 148.22L 658.99 142.29L 674.51 138.54L 687.63 134.58L 699 132.97L 717.99 130.39L 733.51 127.29L 746.63 125.07L 758 123.29L 776.99 118.9L 792.51 117.72L 805.63 114.62L 817 112.75L 835.99 112.26L 851.51 110.62L 864.63 108.7L 876 101.34L 894.99 105.15L 910.51 103.38L 923.63 102.87L 935 89.279L 953.99 99.939L 969.51 93.805L 982.63 94.415L 994 86.588L 1013 89.897L 1028.5 85.989L 1041.6 88.401L 1053 81.344L 1072 81.995L 1087.5 69.406L 1100.6 72.883L 1112 67.435L 1131 66.28L 1146.5 59.589L 1159.6 50.362L 1171 51.921L 1190 50.452L 1205.5 35.197L 1218.6 32.051L 1230 10.439L 1230 26.218L 1218.6 45.85L 1205.5 47.787L 1190 56.002L 1171 52.664L 1159.6 60.695L 1146.5 64.156L 1131 68.424L 1112 71.06L 1100.6 78.411L 1087.5 76.002L 1072 82.323L 1053 81.767L 1041.6 88.405L 1028.5 86.252L 1013 90.511L 994 87.121L 982.63 97.126L 969.51 93.819L 953.99 100.02L 935 93.281L 923.63 103.55L 910.51 103.67L 894.99 106.31L 876 101.6L 864.63 109.35L 851.51 110.78L 835.99 112.83L 817 113.43L 805.63 116.46L 792.51 117.88L 776.99 119.6L 758 123.42L 746.63 125.68L 733.51 127.71L 717.99 131.02L 699 133.49L 687.63 136.14L 674.51 138.74L 658.99 143.77L 640 148.95L 628.63 155.35L 615.51 162.34L 599.99 176.65L 581 186.26L 569.63 204.9L 556.51 214.21L 540.99 216.33L 522 219.32L 510.63 219.85L 497.51 220.69L 481.99 222.08L 463 225.38L 451.63 225.7L 438.51 226.89L 422.99 228.16L 404 231.58L 392.63 234.43L 379.51 233.5L 363.99 234.8L 345 238.74L 333.63 239.24L 320.51 240.04L 304.99 241.87L 286 243.84L 274.63 246.16L 261.51 245.51L 245.99 247.04L 227 249.05L 215.63 252.23L 202.51 250.28L 186.99 251.65L 168 251.14L 143.51 252.59L 109 244.03L 50 236" fill="#007AFF" fill-opacity="0.30196078431372547" stroke="none"/>
    <path d="M 50 241.5L 109 266.34L 143.51 282.79L 168 290.02L 186.99 292.19L 202.51 298.71L 215.63 301.07L 227 306.34L 245.99 311.59L 261.51 315.3L 274.63 318.28L 286 318.86L 304.99 322.53L 320.51 324.47L 333.63 325.52L 345 326.42L 363.99 319.41L 379.51 324.28L 392.63 325.41L 404 325.63L 422.99 326.24L 438.51 339.26L 451.63 330.59L 463 328.74L 481.99 331.83L 497.51 332.88L 510.63 328.13L 522 333.72L 540.99 331.95L 556.51 334.44L 569.63 333.73L 581 334.95L 599.99 333.63L 615.51 335.46L 628.63 335.63L 640 335.36L 658.99 335.86L 674.51 335.22L 687.63 335.76L 699 336.08L 717.99 336.15L 733.51 336.18L 746.63 336.39L 758 336.25L 776.99 336.27L 792.51 336.31L 805.63 336.25L 817 336.23L 835.99 336.31L 851.51 336.22L 864.63 336.32L 876 336.36L 894.99 336.26L 910.51 336.29L 923.63 336.31L 935 336.32L 953.99 336.37L 969.51 336.35L 982.63 336.38L 994 336.36L 1013 336.05L 1028.5 336.1L 1041.6 336.29L 1053 336.25L 1072 336.18L 1087.5 336.19L 1100.6 336.08L 1112 333.94L 1131 331.54L 1146.5 334.67L 1159.6 336.1L 1171 335.78L 1190 327.78L 1205.5 283.32L 1218.6 316.41L 1230 316.14L 1230 316.58L 1218.6 321.44L 1205.5 330.25L 1190 334.79L 1171 336.1L 1159.6 336.34L 1146.5 336.37L 1131 336.4L 1112 335.46L 1100.6 336.36L 1087.5 336.4L 1072 336.38L 1053 336.4L 1041.6 336.36L 1028.5 336.39L 1013 336.42L 994 336.42L 982.63 336.4L 969.51 336.38L 953.99 336.37L 935 336.35L 923.63 336.39L 910.51 336.38L 894.99 336.38L 876 336.37L 864.63 336.4L 851.51 336.34L 835.99 336.33L 817 336.36L 805.63 336.4L 792.51 336.31L 776.99 336.3L 758 336.27L 746.63 336.39L 733.51 336.21L 717.99 336.17L 699 336.1L 687.63 336.39L 674.51 336.78L 658.99 335.86L 640 336.08L 628.63 335.63L 615.51 335.51L 599.99 337.38L 581 335.18L 569.63 336.36L 556.51 334.74L 540.99 337.29L 522 333.72L 510.63 336.48L 497.51 332.88L 481.99 332.52L 463 334.11L 451.63 330.59L 438.51 339.26L 422.99 331.27L 404 327.15L 392.63 325.41L 379.51 326.27L 363.99 331.84L 345 329.13L 333.63 327.85L 320.51 326.05L 304.99 322.53L 286 320.62L 274.63 318.28L 261.51 315.3L 245.99 313.98L 227 309.02L 215.63 308.09L 202.51 301.84L 186.99 298.2L 168 290.02L 143.51 282.79L 109 271L 50 247.04" fill="#FF3B30" fill-opacity="0.30196078431372547" stroke="none"/>
    <path d="M 50 234.77L 109 244.03L 143.51 251.99L 168 250.71L 186.99 250.96L 202.51 250.01L 215.63 251.5L 227 248.44L 245.99 247.04L 261.51 245.13L 274.63 245.84L 286 243.74L 304.99 241.24L 320.51 239.93L 333.63 238.91L 345 238.62L 363.99 234.26L 379.51 233.26L 392.63 232.9L 404 231.53L 422.99 228.13L 438.51 226.81L 451.63 225.54L 463 225.35L 481.99 222.04L 497.51 220.66L 510.63 219.73L 522 219.13L 540.99 216.26L 556.51 212.91L 569.63 203.53L 581 185.69L 599.99 175.49L 615.51 162.26L 628.63 155.28L 640 148.76L 658.99 143.38L 674.51 138.69L 687.63 135.73L 699 133.36L 717.99 130.85L 733.51 127.6L 746.63 125.52L 758 123.39L 776.99 119.42L 792.51 117.84L 805.63 115.97L 817 113.26L 835.99 112.68L 851.51 110.74L 864.63 109.18L 876 101.53L 894.99 106L 910.51 103.59L 923.63 103.37L 935 92.202L 953.99 99.997L 969.51 93.815L 982.63 96.403L 994 86.981L 1013 90.35L 1028.5 86.183L 1041.6 88.404L 1053 81.656L 1072 82.237L 1087.5 74.187L 1100.6 76.903L 1112 70.086L 1131 67.854L 1146.5 62.92L 1159.6 57.769L 1171 52.469L 1190 54.488L 1205.5 44.159L 1218.6 41.836L 1230 21.558" fill="none" stroke-width="4" stroke="#007AFF" stroke-opacity="1" stroke-linecap="round" stroke-linejoin="round"/>
    <path d="M 50 245.53L 109 269.74L 143.51 282.79L 168 290.02L 186.99 296.55L 202.51 301L 215.63 306.15L 227 308.3L 245.99 313.35L 261.51 315.3L 274.63 318.28L 286 320.15L 304.99 322.53L 320.51 325.63L 333.63 327.23L 345 328.41L 363.99 328.26L 379.51 325.74L 392.63 325.41L 404 326.75L 422.99 329.91L 438.51 339.26L 451.63 330.59L 463 332.65L 481.99 332.33L 497.51 332.88L 510.63 334.15L 522 333.72L 540.99 335.84L 556.51 334.66L 569.63 335.66L 581 335.12L 599.99 336.37L 615.51 335.5L 628.63 335.63L 640 335.89L 658.99 335.86L 674.51 336.37L 687.63 336.23L 699 336.09L 717.99 336.16L 733.51 336.2L 746.63 336.39L 758 336.26L 776.99 336.29L 792.51 336.31L 805.63 336.36L 817 336.33L 835.99 336.32L 851.51 336.31L 864.63 336.38L 876 336.37L 894.99 336.34L 910.51 336.36L 923.63 336.37L 935 336.34L 953.99 336.37L 969.51 336.37L 982.63 336.4L 994 336.4L 1013 336.32L 1028.5 336.31L 1041.6 336.35L 1053 336.36L 1072 336.33L 1087.5 336.34L 1100.6 336.29L 1112 335.06L 1131 335.08L 1146.5 335.92L 1159.6 336.28L 1171 336.01L 1190 332.86L 1205.5 312.85L 1218.6 320.08L 1230 316.47" fill="none" stroke-width="4" stroke="#FF3B30" stroke-opacity="1" stroke-linecap="round" stroke-linejoin="round"/>
    <path d="M 50 234.77L 109 244.03L 143.51 251.99L 168 250.71L 186.99 250.96L 202.51 250.01L 215.63 251.5L 227 248.44L 245.99 247.04L 261.51 245.13L 274.63 245.84L 286 243.74L 304.99 241.24L 320.51 239.93L 333.63 238.91L 345 238.62L 363.99 234.26L 379.51 233.26L 392.63 232.9L 404 231.53L 422.99 228.13L 438.51 226.81L 451.63 225.54L 463 225.35L 481.99 222.04L 497.51 220.66L 510.63 219.73L 522 219.13L 540.99 216.26L 556.51 212.91L 569.63 203.53L 581 185.69L 599.99 175.49L 615.51 162.26L 628.63 155.28L 640 148.76L 658.99 143.38L 674.51 138.69L 687.63 135.73L 699 133.36L 717.99 130.85L 733.51 127.6L 746.63 125.52L 758 123.39L 776.99 119.42L 792.51 117.84L 805.63 115.97L 817 113.26L 835.99 112.68L 851.51 110.74L 864.63 109.18L 876 101.53L 894.99 106L 910.51 103.59L 923.63 103.37L 935 92.202L 953.99 99.997L 969.51 93.815L 982.63 96.403L 994 86.981L 1013 90.35L 1028.5 86.183L 1041.6 88.404L 1053 81.656L 1072 82.237L 1087.5 74.187L 1100.6 76.903L 1112 70.086L 1131 67.854L 1146.5 62.92L 1159.6 57.769L 1171 52.469L 1190 54.488L 1205.5 44.159L 1218.6 41.836L 1230 21.558" fill="none" stroke-width="0.5" stroke="#000000" stroke-opacity="0.30196" stroke-linecap="round" stroke-linejoin="round"/>
    <path d="M 50 245.53L 109 269.74L 143.51 282.79L 168 290.02L 186.99 296.55L 202.51 301L 215.63 306.15L 227 308.3L 245.99 313.35L 261.51 315.3L 274.63 318.28L 286 320.15L 304.99 322.53L 320.51 325.63L 333.63 327.23L 345 328.41L 363.99 328.26L 379.51 325.74L 392.63 325.41L 404 326.75L 422.99 329.91L 438.51 339.26L 451.63 330.59L 463 332.65L 481.99 332.33L 497.51 332.88L 510.63 334.15L 522 333.72L 540.99 335.84L 556.51 334.66L 569.63 335.66L 581 335.12L 599.99 336.37L 615.51 335.5L 628.63 335.63L 640 335.89L 658.99 335.86L 674.51 336.37L 687.63 336.23L 699 336.09L 717.99 336.16L 733.51 336.2L 746.63 336.39L 758 336.26L 776.99 336.29L 792.51 336.31L 805.63 336.36L 817 336.33L 835.99 336.32L 851.51 336.31L 864.63 336.38L 876 336.37L 894.99 336.34L 910.51 336.36L 923.63 336.37L 935 336.34L 953.99 336.37L 969.51 336.37L 982.63 336.4L 994 336.4L 1013 336.32L 1028.5 336.31L 1041.6 336.35L 1053 336.36L 1072 336.33L 1087.5 336.34L 1100.6 336.29L 1112 335.06L 1131 335.08L 1146.5 335.92L 1159.6 336.28L 1171 336.01L 1190 332.86L 1205.5 312.85L 1218.6 320.08L 1230 316.47" fill="none" stroke-width="0.5" stroke="#000000" stroke-opacity="0.30196" stroke-linecap="round" stroke-linejoin="round"/>
  </g>
  <path d="M 74 33 L 74 88 L 449 88 L 449 33 z" fill="#FFFFFF" fill-opacity="0.7019607843137254" stroke-width="0.5" stroke="#000000" stroke-opacity="1" stroke-linecap="round" stroke-linejoin="round"/>
  <path d="M 88 52 L 108 52" fill="none" stroke-width="4" stroke="#FF3B30" stroke-opacity="1" stroke-linecap="round" stroke-linejoin="round"/>
  <path d="M 88 52 L 108 52" fill="none" stroke-width="0.5" stroke="#000000" stroke-opacity="0.30196" stroke-linecap="round" stroke-linejoin="round"/>
  <text x="119" y="56.17" font-family="Menlo" font-size="12" font-weight="normal" font-style="normal" fill="#000000" fill-opacity="1">Array&lt;Int&gt; subscript get, random offsets</text>
  <path d="M 88 69 L 108 69" fill="none" stroke-width="4" stroke="#007AFF" stroke-opacity="1" stroke-linecap="round" stroke-linejoin="round"/>
  <path d="M 88 69 L 108 69" fill="none" stroke-width="0.5" stroke="#000000" stroke-opacity="0.30196" stroke-linecap="round" stroke-linejoin="round"/>
  <text x="119" y="73.17" font-family="Menlo" font-size="12" font-weight="normal" font-style="normal" fill="#000000" fill-opacity="1">TreeArray&lt;Int&gt; subscript get, random offsets</text>
  <path d="M 50 9 L 50 441 L 1230 441 L 1230 9 z" fill="none" stroke-width="0.5" stroke="#000000" stroke-opacity="1" stroke-linecap="round" stroke-linejoin="round"/>
</svg>
