<!DOCTYPE svg PUBLIC "-//W3C//DTD SVG 1.1//EN" "http://www.w3.org/Graphics/SVG/1.1/DTD/svg11.dtd">
<svg width="1280.0px" height="480.0px" viewBox="0.0 0.0 1280.0 480.0" xmlns="http://www.w3.org/2000/svg" xmlns:xlink="http://www.w3.org/1999/xlink" version="1.1">
  <path d="M 0 0 L 0 480 L 1280 480 L 1280 0 z" fill="#FFFFFF" fill-opacity="1.0" stroke="none"/>
  <text x="50" y="468.7" font-family="Helvetica" font-size="10" font-weight="normal" font-style="normal" fill="#000000" fill-opacity="1">Average per-element processing time over input size (bands: min, mean, mean + 2stddev)</text>
  <a xlink:href="https://github.com/apple/swift-collections-benchmark"><text x="1107" y="468.7" font-family="Helvetica" font-size="10" font-weight="normal" font-style="normal" fill="#000000" fill-opacity="1">swift-collections-benchmark</text></a>
  <path d="M 50 9 L 50 441" fill="none" stroke-width="0.75" stroke="#000000" stroke-opacity="0.49804" stroke-linecap="butt" stroke-linejoin="round"/>
  <text x="47" y="453.7" font-family="Helvetica" font-size="10" font-weight="normal" font-style="normal" fill="#000000" fill-opacity="1">1</text>
  <path d="M 109 9 L 109 441" fill="none" stroke-width="0.75" stroke="#000000" stroke-opacity="0.49804" stroke-linecap="butt" stroke-linejoin="round"/>
  <text x="106" y="453.7" font-family="Helvetica" font-size="10" font-weight="normal" font-style="normal" fill="#000000" fill-opacity="1">2</text>
  <path d="M 168 9 L 168 441" fill="none" stroke-width="0.75" stroke="#000000" stroke-opacity="0.49804" stroke-linecap="butt" stroke-linejoin="round"/>
  <text x="165" y="453.7" font-family="Helvetica" font-size="10" font-weight="normal" font-style="normal" fill="#000000" fill-opacity="1">4</text>
  <path d="M 227 9 L 227 441" fill="none" stroke-width="0.75" stroke="#000000" stroke-opacity="0.49804" stroke-linecap="butt" stroke-linejoin="round"/>
  <text x="224" y="453.7" font-family="Helvetica" font-size="10" font-weight="normal" font-style="normal" fill="#000000" fill-opacity="1">8</text>
  <path d="M 286 9 L 286 441" fill="none" stroke-width="0.75" stroke="#000000" stroke-opacity="0.49804" stroke-linecap="butt" stroke-linejoin="round"/>
  <text x="280" y="453.7" font-family="Helvetica" font-size="10" font-weight="normal" font-style="normal" fill="#000000" fill-opacity="1">16</text>
  <path d="M 345 9 L 345 441" fill="none" stroke-width="0.75" stroke="#000000" stroke-opacity="0.49804" stroke-linecap="butt" stroke-linejoin="round"/>
  <text x="339" y="453.7" font-family="Helvetica" font-size="10" font-weight="normal" font-style="normal" fill="#000000" fill-opacity="1">32</text>
  <path d="M 404 9 L 404 441" fill="none" stroke-width="0.75" stroke="#000000" stroke-opacity="0.49804" stroke-linecap="butt" stroke-linejoin="round"/>
  <text x="398" y="453.7" font-family="Helvetica" font-size="10" font-weight="normal" font-style="normal" fill="#000000" fill-opacity="1">64</text>
  <path d="M 463 9 L 463 441" fill="none" stroke-width="0.75" stroke="#000000" stroke-opacity="0.49804" stroke-linecap="butt" stroke-linejoin="round"/>
  <text x="454.5" y="453.7" font-family="Helvetica" font-size="10" font-weight="normal" font-style="normal" fill="#000000" fill-opacity="1">128</text>
  <path d="M 522 9 L 522 441" fill="none" stroke-width="0.75" stroke="#000000" stroke-opacity="0.49804" stroke-linecap="butt" stroke-linejoin="round"/>
  <text x="513.5" y="453.7" font-family="Helvetica" font-size="10" font-weight="normal" font-style="normal" fill="#000000" fill-opacity="1">256</text>
  <path d="M 581 9 L 581 441" fill="none" stroke-width="0.75" stroke="#000000" stroke-opacity="0.49804" stroke-linecap="butt" stroke-linejoin="round"/>
  <text x="572.5" y="453.7" font-family="Helvetica" font-size="10" font-weight="normal" font-style="normal" fill="#000000" fill-opacity="1">512</text>
  <path d="M 640 9 L 640 441" fill="none" stroke-width="0.75" stroke="#000000" stroke-opacity="0.49804" stroke-linecap="butt" stroke-linejoin="round"/>
  <text x="634.5" y="453.7" font-family="Helvetica" font-size="10" font-weight="normal" font-style="normal" fill="#000000" fill-opacity="1">1k</text>
  <path d="M 699 9 L 699 441" fill="none" stroke-width="0.75" stroke="#000000" stroke-opacity="0.49804" stroke-linecap="butt" stroke-linejoin="round"/>
  <text x="693.5" y="453.7" font-family="Helvetica" font-size="10" font-weight="normal" font-style="normal" fill="#000000" fill-opacity="1">2k</text>
  <path d="M 758 9 L 758 441" fill="none" stroke-width="0.75" stroke="#000000" stroke-opacity="0.49804" stroke-linecap="butt" stroke-linejoin="round"/>
  <text x="752.5" y="453.7" font-family="Helvetica" font-size="10" font-weight="normal" font-style="normal" fill="#000000" fill-opacity="1">4k</text>
  <path d="M 817 9 L 817 441" fill="none" stroke-width="0.75" stroke="#000000" stroke-opacity="0.49804" stroke-linecap="butt" stroke-linejoin="round"/>
  <text x="811.5" y="453.7" font-family="Helvetica" font-size="10" font-weight="normal" font-style="normal" fill="#000000" fill-opacity="1">8k</text>
  <path d="M 876 9 L 876 441" fill="none" stroke-width="0.75" stroke="#000000" stroke-opacity="0.49804" stroke-linecap="butt" stroke-linejoin="round"/>
  <text x="867.5" y="453.7" font-family="Helvetica" font-size="10" font-weight="normal" font-style="normal" fill="#000000" fill-opacity="1">16k</text>
  <path d="M 935 9 L 935 441" fill="none" stroke-width="0.75" stroke="#000000" stroke-opacity="0.49804" stroke-linecap="butt" stroke-linejoin="round"/>
  <text x="926.5" y="453.7" font-family="Helvetica" font-size="10" font-weight="normal" font-style="normal" fill="#000000" fill-opacity="1">32k</text>
  <path d="M 994 9 L 994 441" fill="none" stroke-width="0.75" stroke="#000000" stroke-opacity="0.49804" stroke-linecap="butt" stroke-linejoin="round"/>
  <text x="985.5" y="453.7" font-family="Helvetica" font-size="10" font-weight="normal" font-style="normal" fill="#000000" fill-opacity="1">64k</text>
  <path d="M 1053 9 L 1053 441" fill="none" stroke-width="0.75" stroke="#000000" stroke-opacity="0.49804" stroke-linecap="butt" stroke-linejoin="round"/>
  <text x="1042" y="453.7" font-family="Helvetica" font-size="10" font-weight="normal" font-style="normal" fill="#000000" fill-opacity="1">128k</text>
  <path d="M 1112 9 L 1112 441" fill="none" stroke-width="0.75" stroke="#000000" stroke-opacity="0.49804" stroke-linecap="butt" stroke-linejoin="round"/>
  <text x="1101" y="453.7" font-family="Helvetica" font-size="10" font-weight="normal" font-style="normal" fill="#000000" fill-opacity="1">256k</text>
  <path d="M 1171 9 L 1171 441" fill="none" stroke-width="0.75" stroke="#000000" stroke-opacity="0.49804" stroke-linecap="butt" stroke-linejoin="round"/>
  <text x="1160" y="453.7" font-family="Helvetica" font-size="10" font-weight="normal" font-style="normal" fill="#000000" fill-opacity="1">512k</text>
  <path d="M 1230 9 L 1230 441" fill="none" stroke-width="0.75" stroke="#000000" stroke-opacity="0.49804" stroke-linecap="butt" stroke-linejoin="round"/>
  <text x="1223" y="453.7" font-family="Helvetica" font-size="10" font-weight="normal" font-style="normal" fill="#000000" fill-opacity="1">1M</text>
  <path d="M 50 441 L 1230 441" fill="none" stroke-width="0.75" stroke="#000000" stroke-opacity="0.49804" stroke-linecap="butt" stroke-linejoin="round"/>
  <text x="16" y="442.7" font-family="Helvetica" font-size="10" font-weight="normal" font-style="normal" fill="#000000" fill-opacity="1">100 ps</text>
  <text x="1236" y="442.7" font-family="Helvetica" font-size="10" font-weight="normal" font-style="normal" fill="#000000" fill-opacity="1">100 ps</text>
  <path d="M 50 333 L 1230 333" fill="none" stroke-width="0.75" stroke="#000000" stroke-opacity="0.49804" stroke-linecap="butt" stroke-linejoin="round"/>
  <text x="27" y="334.7" font-family="Helvetica" font-size="10" font-weight="normal" font-style="normal" fill="#000000" fill-opacity="1">1 ns</text>
  <text x="1236" y="334.7" font-family="Helvetica" font-size="10" font-weight="normal" font-style="normal" fill="#000000" fill-opacity="1">1 ns</text>
  <path d="M 50 225 L 1230 225" fill="none" stroke-width="0.75" stroke="#000000" stroke-opacity="0.49804" stroke-linecap="butt" stroke-linejoin="round"/>
  <text x="21" y="226.7" font-family="Helvetica" font-size="10" font-weight="normal" font-style="normal" fill="#000000" fill-opacity="1">10 ns</text>
  <text x="1236" y="226.7" font-family="Helvetica" font-size="10" font-weight="normal" font-style="normal" fill="#000000" fill-opacity="1">10 ns</text>
  <path d="M 50 117 L 1230 117" fill="none" stroke-width="0.75" stroke="#000000" stroke-opacity="0.49804" stroke-linecap="butt" stroke-linejoin="round"/>
  <text x="16" y="118.7" font-family="Helvetica" font-size="10" font-weight="normal" font-style="normal" fill="#000000" fill-opacity="1">100 ns</text>
  <text x="1236" y="118.7" font-family="Helvetica" font-size="10" font-weight="normal" font-style="normal" fill="#000000" fill-opacity="1">100 ns</text>
  <path d="M 50 9 L 1230 9" fill="none" stroke-width="0.75" stroke="#000000" stroke-opacity="0.49804" stroke-linecap="butt" stroke-linejoin="round"/>
  <text x="26" y="10.7" font-family="Helvetica" font-size="10" font-weight="normal" font-style="normal" fill="#000000" fill-opacity="1">1 µs</text>
  <text x="1236" y="10.7" font-family="Helvetica" font-size="10" font-weight="normal" font-style="normal" fill="#000000" fill-opacity="1">1 µs</text>
  <path d="M 50 408.49 L 1230 408.49" fill="none" stroke-width="0.5" stroke="#000000" stroke-opacity="0.25882" stroke-linecap="butt" stroke-linejoin="round" stroke-dasharray="6 3" stroke-dashoffset="0"/>
  <path d="M 50 375.98 L 1230 375.98" fill="none" stroke-width="0.5" stroke="#000000" stroke-opacity="0.25882" stroke-linecap="butt" stroke-linejoin="round" stroke-dasharray="6 3" stroke-dashoffset="0"/>
  <path d="M 50 343.47 L 1230 343.47" fill="none" stroke-width="0.5" stroke="#000000" stroke-opacity="0.25882" stroke-linecap="butt" stroke-linejoin="round" stroke-dasharray="6 3" stroke-dashoffset="0"/>
  <path d="M 50 310.96 L 1230 310.96" fill="none" stroke-width="0.5" stroke="#000000" stroke-opacity="0.25882" stroke-linecap="butt" stroke-linejoin="round" stroke-dasharray="6 3" stroke-dashoffset="0"/>
  <path d="M 50 278.44 L 1230 278.44" fill="none" stroke-width="0.5" stroke="#000000" stroke-opacity="0.25882" stroke-linecap="butt" stroke-linejoin="round" stroke-dasharray="6 3" stroke-dashoffset="0"/>
  <path d="M 50 245.93 L 1230 245.93" fill="none" stroke-width="0.5" stroke="#000000" stroke-opacity="0.25882" stroke-linecap="butt" stroke-linejoin="round" stroke-dasharray="6 3" stroke-dashoffset="0"/>
  <path d="M 50 213.42 L 1230 213.42" fill="none" stroke-width="0.5" stroke="#000000" stroke-opacity="0.25882" stroke-linecap="butt" stroke-linejoin="round" stroke-dasharray="6 3" stroke-dashoffset="0"/>
  <path d="M 50 180.91 L 1230 180.91" fill="none" stroke-width="0.5" stroke="#000000" stroke-opacity="0.25882" stroke-linecap="butt" stroke-linejoin="round" stroke-dasharray="6 3" stroke-dashoffset="0"/>
  <path d="M 50 148.4 L 1230 148.4" fill="none" stroke-width="0.5" stroke="#000000" stroke-opacity="0.25882" stroke-linecap="butt" stroke-linejoin="round" stroke-dasharray="6 3" stroke-dashoffset="0"/>
  <path d="M 50 115.89 L 1230 115.89" fill="none" stroke-width="0.5" stroke="#000000" stroke-opacity="0.25882" stroke-linecap="butt" stroke-linejoin="round" stroke-dasharray="6 3" stroke-dashoffset="0"/>
  <path d="M 50 83.376 L 1230 83.376" fill="none" stroke-width="0.5" stroke="#000000" stroke-opacity="0.25882" stroke-linecap="butt" stroke-linejoin="round" stroke-dasharray="6 3" stroke-dashoffset="0"/>
  <path d="M 50 50.865 L 1230 50.865" fill="none" stroke-width="0.5" stroke="#000000" stroke-opacity="0.25882" stroke-linecap="butt" stroke-linejoin="round" stroke-dasharray="6 3" stroke-dashoffset="0"/>
  <path d="M 50 18.354 L 1230 18.354" fill="none" stroke-width="0.5" stroke="#000000" stroke-opacity="0.25882" stroke-linecap="butt" stroke-linejoin="round" stroke-dasharray="6 3" stroke-dashoffset="0"/>
  <path d="M 74 33 L 74 88 L 449 88 L 449 33 z" fill="#FFFFFF" fill-opacity="1.0" stroke="none"/>
  <clipPath id="clip-0">
    <path d="M 50 9 L 50 441 L 1230 441 L 1230 9 z"/>
  </clipPath>
  <g clip-path="url(#clip-0)">
    <path d="M 50 229.12L 109 232.72L 143.51 244.02L 168 242L 186.99 242.87L 202.51 245.04L 215.63 237.76L 227 242.64L 245.99 239.62L 261.51 237.11L 274.63 235.79L 286 236.61L 304.99 234.57L 320.51 234.45L 333.63 231.83L 345 227.13L 363.99 229.34L 379.51 226.02L 392.63 225.5L 404 224.64L 422.99 221.78L 438.51 220.47L 451.63 218.45L 463 215.85L 481.99 215L 497.51 210.72L 510.63 210.93L 522 210.98L 540.99 209.3L 556.51 200.1L 569.63 199.12L 581 186.17L 599.99 173.23L 615.51 160.87L 628.63 143.64L 640 150.46L 658.99 142.7L 674.51 137.82L 687.63 135.07L 699 132.83L 717.99 129.31L 733.51 126.65L 746.63 123.34L 758 122.53L 776.99 118.47L 792.51 115.49L 805.63 115.26L 817 112.38L 835.99 111.88L 851.51 110.33L 864.63 107.59L 876 106.59L 894.99 104.46L 910.51 96.936L 923.63 96.342L 935 93.197L 953.99 99.997L 969.51 88.576L 982.63 96.091L 994 78.092L 1013 83.286L 1028.5 81.604L 1041.6 76.87L 1053 60.395L 1072 81.294L 1087.5 76.034L 1100.6 76.041L 1112 69.858L 1131 66.412L 1146.5 56.546L 1159.6 52.447L 1171 33.769L 1190 43.255L 1205.5 41.304L 1218.6 35.685L 1230 36.24L 1230 37.31L 1218.6 44.209L 1205.5 46.695L 1190 51.748L 1171 56.058L 1159.6 56.607L 1146.5 60.544L 1131 67.764L 1112 70.11L 1100.6 78.34L 1087.5 78.915L 1072 84.444L 1053 79.303L 1041.6 92.044L 1028.5 89.205L 1013 94.099L 994 89.048L 982.63 98.534L 969.51 98.18L 953.99 100.81L 935 97.097L 923.63 103.76L 910.51 105.01L 894.99 106.08L 876 107.31L 864.63 109.18L 851.51 110.33L 835.99 112.08L 817 114.74L 805.63 115.57L 792.51 117.5L 776.99 119.4L 758 123.14L 746.63 125.36L 733.51 127.01L 717.99 129.96L 699 133.68L 687.63 136.21L 674.51 138.54L 658.99 144.34L 640 151.8L 628.63 155.42L 615.51 161.29L 599.99 177.71L 581 186.59L 569.63 203.03L 556.51 203.18L 540.99 210.03L 522 212.33L 510.63 213.97L 497.51 214.61L 481.99 216.52L 463 217.97L 451.63 218.76L 438.51 221.16L 422.99 222.09L 404 224.7L 392.63 226.53L 379.51 227.81L 363.99 230.73L 345 236.58L 333.63 231.99L 320.51 234.64L 304.99 236.2L 286 237.21L 274.63 240.01L 261.51 239.6L 245.99 241.18L 227 244.02L 215.63 248.96L 202.51 246.02L 186.99 242.87L 168 244.76L 143.51 244.02L 109 239.79L 50 229.12" fill="#007AFF" fill-opacity="0.30196078431372547" stroke="none"/>
    <path d="M 50 241.5L 109 266.34L 143.51 282.79L 168 290.02L 186.99 292.19L 202.51 298.71L 215.63 301.07L 227 306.34L 245.99 311.59L 261.51 315.3L 274.63 318.28L 286 318.86L 304.99 322.53L 320.51 324.47L 333.63 325.52L 345 326.42L 363.99 319.41L 379.51 324.28L 392.63 325.41L 404 325.63L 422.99 326.24L 438.51 339.26L 451.63 330.59L 463 328.74L 481.99 331.83L 497.51 332.88L 510.63 328.13L 522 333.72L 540.99 331.95L 556.51 334.44L 569.63 333.73L 581 334.95L 599.99 333.63L 615.51 335.46L 628.63 335.63L 640 335.36L 658.99 335.86L 674.51 335.22L 687.63 335.76L 699 336.08L 717.99 336.15L 733.51 336.18L 746.63 336.39L 758 336.25L 776.99 336.27L 792.51 336.31L 805.63 336.25L 817 336.23L 835.99 336.31L 851.51 336.22L 864.63 336.32L 876 336.36L 894.99 336.26L 910.51 336.29L 923.63 336.31L 935 336.32L 953.99 336.37L 969.51 336.35L 982.63 336.38L 994 336.36L 1013 336.05L 1028.5 336.1L 1041.6 336.29L 1053 336.25L 1072 336.18L 1087.5 336.19L 1100.6 336.08L 1112 333.94L 1131 331.54L 1146.5 334.67L 1159.6 336.1L 1171 335.78L 1190 327.78L 1205.5 283.32L 1218.6 316.41L 1230 316.14L 1230 316.58L 1218.6 321.44L 1205.5 330.25L 1190 334.79L 1171 336.1L 1159.6 336.34L 1146.5 336.37L 1131 336.4L 1112 335.46L 1100.6 336.36L 1087.5 336.4L 1072 336.38L 1053 336.4L 1041.6 336.36L 1028.5 336.39L 1013 336.42L 994 336.42L 982.63 336.4L 969.51 336.38L 953.99 336.37L 935 336.35L 923.63 336.39L 910.51 336.38L 894.99 336.38L 876 336.37L 864.63 336.4L 851.51 336.34L 835.99 336.33L 817 336.36L 805.63 336.4L 792.51 336.31L 776.99 336.3L 758 336.27L 746.63 336.39L 733.51 336.21L 717.99 336.17L 699 336.1L 687.63 336.39L 674.51 336.78L 658.99 335.86L 640 336.08L 628.63 335.63L 615.51 335.51L 599.99 337.38L 581 335.18L 569.63 336.36L 556.51 334.74L 540.99 337.29L 522 333.72L 510.63 336.48L 497.51 332.88L 481.99 332.52L 463 334.11L 451.63 330.59L 438.51 339.26L 422.99 331.27L 404 327.15L 392.63 325.41L 379.51 326.27L 363.99 331.84L 345 329.13L 333.63 327.85L 320.51 326.05L 304.99 322.53L 286 320.62L 274.63 318.28L 261.51 315.3L 245.99 313.98L 227 309.02L 215.63 308.09L 202.51 301.84L 186.99 298.2L 168 290.02L 143.51 282.79L 109 271L 50 247.04" fill="#FF3B30" fill-opacity="0.30196078431372547" stroke="none"/>
    <path d="M 50 229.12L 109 237.84L 143.51 244.02L 168 244.02L 186.99 242.87L 202.51 245.76L 215.63 245.77L 227 243.66L 245.99 240.76L 261.51 238.93L 274.63 238.87L 286 237.05L 304.99 235.77L 320.51 234.59L 333.63 231.95L 345 233.92L 363.99 230.36L 379.51 227.34L 392.63 226.26L 404 224.68L 422.99 222.01L 438.51 220.98L 451.63 218.68L 463 217.4L 481.99 216.12L 497.51 213.56L 510.63 213.16L 522 211.97L 540.99 209.84L 556.51 202.35L 569.63 201.98L 581 186.48L 599.99 176.5L 615.51 161.18L 628.63 152.04L 640 151.45L 658.99 143.91L 674.51 138.35L 687.63 135.91L 699 133.46L 717.99 129.79L 733.51 126.92L 746.63 124.82L 758 122.98L 776.99 119.16L 792.51 116.97L 805.63 115.49L 817 114.11L 835.99 112.03L 851.51 110.33L 864.63 108.76L 876 107.12L 894.99 105.65L 910.51 102.76L 923.63 101.71L 935 96.046L 953.99 100.6L 969.51 95.476L 982.63 97.883L 994 85.931L 1013 91.025L 1028.5 87.098L 1041.6 87.583L 1053 73.584L 1072 83.601L 1087.5 78.146L 1100.6 77.729L 1112 70.045L 1131 67.407L 1146.5 59.466L 1159.6 55.485L 1171 49.141L 1190 49.377L 1205.5 45.226L 1218.6 41.829L 1230 37.028" fill="none" stroke-width="4" stroke="#007AFF" stroke-opacity="1" stroke-linecap="round" stroke-linejoin="round"/>
    <path d="M 50 245.53L 109 269.74L 143.51 282.79L 168 290.02L 186.99 296.55L 202.51 301L 215.63 306.15L 227 308.3L 245.99 313.35L 261.51 315.3L 274.63 318.28L 286 320.15L 304.99 322.53L 320.51 325.63L 333.63 327.23L 345 328.41L 363.99 328.26L 379.51 325.74L 392.63 325.41L 404 326.75L 422.99 329.91L 438.51 339.26L 451.63 330.59L 463 332.65L 481.99 332.33L 497.51 332.88L 510.63 334.15L 522 333.72L 540.99 335.84L 556.51 334.66L 569.63 335.66L 581 335.12L 599.99 336.37L 615.51 335.5L 628.63 335.63L 640 335.89L 658.99 335.86L 674.51 336.37L 687.63 336.23L 699 336.09L 717.99 336.16L 733.51 336.2L 746.63 336.39L 758 336.26L 776.99 336.29L 792.51 336.31L 805.63 336.36L 817 336.33L 835.99 336.32L 851.51 336.31L 864.63 336.38L 876 336.37L 894.99 336.34L 910.51 336.36L 923.63 336.37L 935 336.34L 953.99 336.37L 969.51 336.37L 982.63 336.4L 994 336.4L 1013 336.32L 1028.5 336.31L 1041.6 336.35L 1053 336.36L 1072 336.33L 1087.5 336.34L 1100.6 336.29L 1112 335.06L 1131 335.08L 1146.5 335.92L 1159.6 336.28L 1171 336.01L 1190 332.86L 1205.5 312.85L 1218.6 320.08L 1230 316.47" fill="none" stroke-width="4" stroke="#FF3B30" stroke-opacity="1" stroke-linecap="round" stroke-linejoin="round"/>
    <path d="M 50 229.12L 109 237.84L 143.51 244.02L 168 244.02L 186.99 242.87L 202.51 245.76L 215.63 245.77L 227 243.66L 245.99 240.76L 261.51 238.93L 274.63 238.87L 286 237.05L 304.99 235.77L 320.51 234.59L 333.63 231.95L 345 233.92L 363.99 230.36L 379.51 227.34L 392.63 226.26L 404 224.68L 422.99 222.01L 438.51 220.98L 451.63 218.68L 463 217.4L 481.99 216.12L 497.51 213.56L 510.63 213.16L 522 211.97L 540.99 209.84L 556.51 202.35L 569.63 201.98L 581 186.48L 599.99 176.5L 615.51 161.18L 628.63 152.04L 640 151.45L 658.99 143.91L 674.51 138.35L 687.63 135.91L 699 133.46L 717.99 129.79L 733.51 126.92L 746.63 124.82L 758 122.98L 776.99 119.16L 792.51 116.97L 805.63 115.49L 817 114.11L 835.99 112.03L 851.51 110.33L 864.63 108.76L 876 107.12L 894.99 105.65L 910.51 102.76L 923.63 101.71L 935 96.046L 953.99 100.6L 969.51 95.476L 982.63 97.883L 994 85.931L 1013 91.025L 1028.5 87.098L 1041.6 87.583L 1053 73.584L 1072 83.601L 1087.5 78.146L 1100.6 77.729L 1112 70.045L 1131 67.407L 1146.5 59.466L 1159.6 55.485L 1171 49.141L 1190 49.377L 1205.5 45.226L 1218.6 41.829L 1230 37.028" fill="none" stroke-width="0.5" stroke="#000000" stroke-opacity="0.30196" stroke-linecap="round" stroke-linejoin="round"/>
    <path d="M 50 245.53L 109 269.74L 143.51 282.79L 168 290.02L 186.99 296.55L 202.51 301L 215.63 306.15L 227 308.3L 245.99 313.35L 261.51 315.3L 274.63 318.28L 286 320.15L 304.99 322.53L 320.51 325.63L 333.63 327.23L 345 328.41L 363.99 328.26L 379.51 325.74L 392.63 325.41L 404 326.75L 422.99 329.91L 438.51 339.26L 451.63 330.59L 463 332.65L 481.99 332.33L 497.51 332.88L 510.63 334.15L 522 333.72L 540.99 335.84L 556.51 334.66L 569.63 335.66L 581 335.12L 599.99 336.37L 615.51 335.5L 628.63 335.63L 640 335.89L 658.99 335.86L 674.51 336.37L 687.63 336.23L 699 336.09L 717.99 336.16L 733.51 336.2L 746.63 336.39L 758 336.26L 776.99 336.29L 792.51 336.31L 805.63 336.36L 817 336.33L 835.99 336.32L 851.51 336.31L 864.63 336.38L 876 336.37L 894.99 336.34L 910.51 336.36L 923.63 336.37L 935 336.34L 953.99 336.37L 969.51 336.37L 982.63 336.4L 994 336.4L 1013 336.32L 1028.5 336.31L 1041.6 336.35L 1053 336.36L 1072 336.33L 1087.5 336.34L 1100.6 336.29L 1112 335.06L 1131 335.08L 1146.5 335.92L 1159.6 336.28L 1171 336.01L 1190 332.86L 1205.5 312.85L 1218.6 320.08L 1230 316.47" fill="none" stroke-width="0.5" stroke="#000000" stroke-opacity="0.30196" stroke-linecap="round" stroke-linejoin="round"/>
  </g>
  <path d="M 74 33 L 74 88 L 449 88 L 449 33 z" fill="#FFFFFF" fill-opacity="0.7019607843137254" stroke-width="0.5" stroke="#000000" stroke-opacity="1" stroke-linecap="round" stroke-linejoin="round"/>
  <path d="M 88 52 L 108 52" fill="none" stroke-width="4" stroke="#FF3B30" stroke-opacity="1" stroke-linecap="round" stroke-linejoin="round"/>
  <path d="M 88 52 L 108 52" fill="none" stroke-width="0.5" stroke="#000000" stroke-opacity="0.30196" stroke-linecap="round" stroke-linejoin="round"/>
  <text x="119" y="56.17" font-family="Menlo" font-size="12" font-weight="normal" font-style="normal" fill="#000000" fill-opacity="1">Array&lt;Int&gt; subscript get, random offsets</text>
  <path d="M 88 69 L 108 69" fill="none" stroke-width="4" stroke="#007AFF" stroke-opacity="1" stroke-linecap="round" stroke-linejoin="round"/>
  <path d="M 88 69 L 108 69" fill="none" stroke-width="0.5" stroke="#000000" stroke-opacity="0.30196" stroke-linecap="round" stroke-linejoin="round"/>
  <text x="119" y="73.17" font-family="Menlo" font-size="12" font-weight="normal" font-style="normal" fill="#000000" fill-opacity="1">TreeArray&lt;Int&gt; subscript get, random offsets</text>
  <path d="M 50 9 L 50 441 L 1230 441 L 1230 9 z" fill="none" stroke-width="0.5" stroke="#000000" stroke-opacity="1" stroke-linecap="round" stroke-linejoin="round"/>
</svg>
