<!DOCTYPE svg PUBLIC "-//W3C//DTD SVG 1.1//EN" "http://www.w3.org/Graphics/SVG/1.1/DTD/svg11.dtd">
<svg width="1280.0px" height="480.0px" viewBox="0.0 0.0 1280.0 480.0" xmlns="http://www.w3.org/2000/svg" xmlns:xlink="http://www.w3.org/1999/xlink" version="1.1">
  <path d="M 0 0 L 0 480 L 1280 480 L 1280 0 z" fill="#FFFFFF" fill-opacity="1.0" stroke="none"/>
  <text x="50" y="468.7" font-family="Helvetica" font-size="10" font-weight="normal" font-style="normal" fill="#000000" fill-opacity="1">Average per-element processing time over input size (bands: min, mean, mean + 2stddev)</text>
  <a xlink:href="https://github.com/apple/swift-collections-benchmark"><text x="1107" y="468.7" font-family="Helvetica" font-size="10" font-weight="normal" font-style="normal" fill="#000000" fill-opacity="1">swift-collections-benchmark</text></a>
  <path d="M 50 9 L 50 441" fill="none" stroke-width="0.75" stroke="#000000" stroke-opacity="0.49804" stroke-linecap="butt" stroke-linejoin="round"/>
  <text x="47" y="453.7" font-family="Helvetica" font-size="10" font-weight="normal" font-style="normal" fill="#000000" fill-opacity="1">1</text>
  <path d="M 109 9 L 109 441" fill="none" stroke-width="0.75" stroke="#000000" stroke-opacity="0.49804" stroke-linecap="butt" stroke-linejoin="round"/>
  <text x="106" y="453.7" font-family="Helvetica" font-size="10" font-weight="normal" font-style="normal" fill="#000000" fill-opacity="1">2</text>
  <path d="M 168 9 L 168 441" fill="none" stroke-width="0.75" stroke="#000000" stroke-opacity="0.49804" stroke-linecap="butt" stroke-linejoin="round"/>
  <text x="165" y="453.7" font-family="Helvetica" font-size="10" font-weight="normal" font-style="normal" fill="#000000" fill-opacity="1">4</text>
  <path d="M 227 9 L 227 441" fill="none" stroke-width="0.75" stroke="#000000" stroke-opacity="0.49804" stroke-linecap="butt" stroke-linejoin="round"/>
  <text x="224" y="453.7" font-family="Helvetica" font-size="10" font-weight="normal" font-style="normal" fill="#000000" fill-opacity="1">8</text>
  <path d="M 286 9 L 286 441" fill="none" stroke-width="0.75" stroke="#000000" stroke-opacity="0.49804" stroke-linecap="butt" stroke-linejoin="round"/>
  <text x="280" y="453.7" font-family="Helvetica" font-size="10" font-weight="normal" font-style="normal" fill="#000000" fill-opacity="1">16</text>
  <path d="M 345 9 L 345 441" fill="none" stroke-width="0.75" stroke="#000000" stroke-opacity="0.49804" stroke-linecap="butt" stroke-linejoin="round"/>
  <text x="339" y="453.7" font-family="Helvetica" font-size="10" font-weight="normal" font-style="normal" fill="#000000" fill-opacity="1">32</text>
  <path d="M 404 9 L 404 441" fill="none" stroke-width="0.75" stroke="#000000" stroke-opacity="0.49804" stroke-linecap="butt" stroke-linejoin="round"/>
  <text x="398" y="453.7" font-family="Helvetica" font-size="10" font-weight="normal" font-style="normal" fill="#000000" fill-opacity="1">64</text>
  <path d="M 463 9 L 463 441" fill="none" stroke-width="0.75" stroke="#000000" stroke-opacity="0.49804" stroke-linecap="butt" stroke-linejoin="round"/>
  <text x="454.5" y="453.7" font-family="Helvetica" font-size="10" font-weight="normal" font-style="normal" fill="#000000" fill-opacity="1">128</text>
  <path d="M 522 9 L 522 441" fill="none" stroke-width="0.75" stroke="#000000" stroke-opacity="0.49804" stroke-linecap="butt" stroke-linejoin="round"/>
  <text x="513.5" y="453.7" font-family="Helvetica" font-size="10" font-weight="normal" font-style="normal" fill="#000000" fill-opacity="1">256</text>
  <path d="M 581 9 L 581 441" fill="none" stroke-width="0.75" stroke="#000000" stroke-opacity="0.49804" stroke-linecap="butt" stroke-linejoin="round"/>
  <text x="572.5" y="453.7" font-family="Helvetica" font-size="10" font-weight="normal" font-style="normal" fill="#000000" fill-opacity="1">512</text>
  <path d="M 640 9 L 640 441" fill="none" stroke-width="0.75" stroke="#000000" stroke-opacity="0.49804" stroke-linecap="butt" stroke-linejoin="round"/>
  <text x="634.5" y="453.7" font-family="Helvetica" font-size="10" font-weight="normal" font-style="normal" fill="#000000" fill-opacity="1">1k</text>
  <path d="M 699 9 L 699 441" fill="none" stroke-width="0.75" stroke="#000000" stroke-opacity="0.49804" stroke-linecap="butt" stroke-linejoin="round"/>
  <text x="693.5" y="453.7" font-family="Helvetica" font-size="10" font-weight="normal" font-style="normal" fill="#000000" fill-opacity="1">2k</text>
  <path d="M 758 9 L 758 441" fill="none" stroke-width="0.75" stroke="#000000" stroke-opacity="0.49804" stroke-linecap="butt" stroke-linejoin="round"/>
  <text x="752.5" y="453.7" font-family="Helvetica" font-size="10" font-weight="normal" font-style="normal" fill="#000000" fill-opacity="1">4k</text>
  <path d="M 817 9 L 817 441" fill="none" stroke-width="0.75" stroke="#000000" stroke-opacity="0.49804" stroke-linecap="butt" stroke-linejoin="round"/>
  <text x="811.5" y="453.7" font-family="Helvetica" font-size="10" font-weight="normal" font-style="normal" fill="#000000" fill-opacity="1">8k</text>
  <path d="M 876 9 L 876 441" fill="none" stroke-width="0.75" stroke="#000000" stroke-opacity="0.49804" stroke-linecap="butt" stroke-linejoin="round"/>
  <text x="867.5" y="453.7" font-family="Helvetica" font-size="10" font-weight="normal" font-style="normal" fill="#000000" fill-opacity="1">16k</text>
  <path d="M 935 9 L 935 441" fill="none" stroke-width="0.75" stroke="#000000" stroke-opacity="0.49804" stroke-linecap="butt" stroke-linejoin="round"/>
  <text x="926.5" y="453.7" font-family="Helvetica" font-size="10" font-weight="normal" font-style="normal" fill="#000000" fill-opacity="1">32k</text>
  <path d="M 994 9 L 994 441" fill="none" stroke-width="0.75" stroke="#000000" stroke-opacity="0.49804" stroke-linecap="butt" stroke-linejoin="round"/>
  <text x="985.5" y="453.7" font-family="Helvetica" font-size="10" font-weight="normal" font-style="normal" fill="#000000" fill-opacity="1">64k</text>
  <path d="M 1053 9 L 1053 441" fill="none" stroke-width="0.75" stroke="#000000" stroke-opacity="0.49804" stroke-linecap="butt" stroke-linejoin="round"/>
  <text x="1042" y="453.7" font-family="Helvetica" font-size="10" font-weight="normal" font-style="normal" fill="#000000" fill-opacity="1">128k</text>
  <path d="M 1112 9 L 1112 441" fill="none" stroke-width="0.75" stroke="#000000" stroke-opacity="0.49804" stroke-linecap="butt" stroke-linejoin="round"/>
  <text x="1101" y="453.7" font-family="Helvetica" font-size="10" font-weight="normal" font-style="normal" fill="#000000" fill-opacity="1">256k</text>
  <path d="M 1171 9 L 1171 441" fill="none" stroke-width="0.75" stroke="#000000" stroke-opacity="0.49804" stroke-linecap="butt" stroke-linejoin="round"/>
  <text x="1160" y="453.7" font-family="Helvetica" font-size="10" font-weight="normal" font-style="normal" fill="#000000" fill-opacity="1">512k</text>
  <path d="M 1230 9 L 1230 441" fill="none" stroke-width="0.75" stroke="#000000" stroke-opacity="0.49804" stroke-linecap="butt" stroke-linejoin="round"/>
  <text x="1223" y="453.7" font-family="Helvetica" font-size="10" font-weight="normal" font-style="normal" fill="#000000" fill-opacity="1">1M</text>
  <path d="M 50 441 L 1230 441" fill="none" stroke-width="0.75" stroke="#000000" stroke-opacity="0.49804" stroke-linecap="butt" stroke-linejoin="round"/>
  <text x="16" y="442.7" font-family="Helvetica" font-size="10" font-weight="normal" font-style="normal" fill="#000000" fill-opacity="1">100 ps</text>
  <text x="1236" y="442.7" font-family="Helvetica" font-size="10" font-weight="normal" font-style="normal" fill="#000000" fill-opacity="1">100 ps</text>
  <path d="M 50 333 L 1230 333" fill="none" stroke-width="0.75" stroke="#000000" stroke-opacity="0.49804" stroke-linecap="butt" stroke-linejoin="round"/>
  <text x="27" y="334.7" font-family="Helvetica" font-size="10" font-weight="normal" font-style="normal" fill="#000000" fill-opacity="1">1 ns</text>
  <text x="1236" y="334.7" font-family="Helvetica" font-size="10" font-weight="normal" font-style="normal" fill="#000000" fill-opacity="1">1 ns</text>
  <path d="M 50 225 L 1230 225" fill="none" stroke-width="0.75" stroke="#000000" stroke-opacity="0.49804" stroke-linecap="butt" stroke-linejoin="round"/>
  <text x="21" y="226.7" font-family="Helvetica" font-size="10" font-weight="normal" font-style="normal" fill="#000000" fill-opacity="1">10 ns</text>
  <text x="1236" y="226.7" font-family="Helvetica" font-size="10" font-weight="normal" font-style="normal" fill="#000000" fill-opacity="1">10 ns</text>
  <path d="M 50 117 L 1230 117" fill="none" stroke-width="0.75" stroke="#000000" stroke-opacity="0.49804" stroke-linecap="butt" stroke-linejoin="round"/>
  <text x="16" y="118.7" font-family="Helvetica" font-size="10" font-weight="normal" font-style="normal" fill="#000000" fill-opacity="1">100 ns</text>
  <text x="1236" y="118.7" font-family="Helvetica" font-size="10" font-weight="normal" font-style="normal" fill="#000000" fill-opacity="1">100 ns</text>
  <path d="M 50 9 L 1230 9" fill="none" stroke-width="0.75" stroke="#000000" stroke-opacity="0.49804" stroke-linecap="butt" stroke-linejoin="round"/>
  <text x="26" y="10.7" font-family="Helvetica" font-size="10" font-weight="normal" font-style="normal" fill="#000000" fill-opacity="1">1 µs</text>
  <text x="1236" y="10.7" font-family="Helvetica" font-size="10" font-weight="normal" font-style="normal" fill="#000000" fill-opacity="1">1 µs</text>
  <path d="M 50 408.49 L 1230 408.49" fill="none" stroke-width="0.5" stroke="#000000" stroke-opacity="0.25882" stroke-linecap="butt" stroke-linejoin="round" stroke-dasharray="6 3" stroke-dashoffset="0"/>
  <path d="M 50 375.98 L 1230 375.98" fill="none" stroke-width="0.5" stroke="#000000" stroke-opacity="0.25882" stroke-linecap="butt" stroke-linejoin="round" stroke-dasharray="6 3" stroke-dashoffset="0"/>
  <path d="M 50 343.47 L 1230 343.47" fill="none" stroke-width="0.5" stroke="#000000" stroke-opacity="0.25882" stroke-linecap="butt" stroke-linejoin="round" stroke-dasharray="6 3" stroke-dashoffset="0"/>
  <path d="M 50 310.96 L 1230 310.96" fill="none" stroke-width="0.5" stroke="#000000" stroke-opacity="0.25882" stroke-linecap="butt" stroke-linejoin="round" stroke-dasharray="6 3" stroke-dashoffset="0"/>
  <path d="M 50 278.44 L 1230 278.44" fill="none" stroke-width="0.5" stroke="#000000" stroke-opacity="0.25882" stroke-linecap="butt" stroke-linejoin="round" stroke-dasharray="6 3" stroke-dashoffset="0"/>
  <path d="M 50 245.93 L 1230 245.93" fill="none" stroke-width="0.5" stroke="#000000" stroke-opacity="0.25882" stroke-linecap="butt" stroke-linejoin="round" stroke-dasharray="6 3" stroke-dashoffset="0"/>
  <path d="M 50 213.42 L 1230 213.42" fill="none" stroke-width="0.5" stroke="#000000" stroke-opacity="0.25882" stroke-linecap="butt" stroke-linejoin="round" stroke-dasharray="6 3" stroke-dashoffset="0"/>
  <path d="M 50 180.91 L 1230 180.91" fill="none" stroke-width="0.5" stroke="#000000" stroke-opacity="0.25882" stroke-linecap="butt" stroke-linejoin="round" stroke-dasharray="6 3" stroke-dashoffset="0"/>
  <path d="M 50 148.4 L 1230 148.4" fill="none" stroke-width="0.5" stroke="#000000" stroke-opacity="0.25882" stroke-linecap="butt" stroke-linejoin="round" stroke-dasharray="6 3" stroke-dashoffset="0"/>
  <path d="M 50 115.89 L 1230 115.89" fill="none" stroke-width="0.5" stroke="#000000" stroke-opacity="0.25882" stroke-linecap="butt" stroke-linejoin="round" stroke-dasharray="6 3" stroke-dashoffset="0"/>
  <path d="M 50 83.376 L 1230 83.376" fill="none" stroke-width="0.5" stroke="#000000" stroke-opacity="0.25882" stroke-linecap="butt" stroke-linejoin="round" stroke-dasharray="6 3" stroke-dashoffset="0"/>
  <path d="M 50 50.865 L 1230 50.865" fill="none" stroke-width="0.5" stroke="#000000" stroke-opacity="0.25882" stroke-linecap="butt" stroke-linejoin="round" stroke-dasharray="6 3" stroke-dashoffset="0"/>
  <path d="M 50 18.354 L 1230 18.354" fill="none" stroke-width="0.5" stroke="#000000" stroke-opacity="0.25882" stroke-linecap="butt" stroke-linejoin="round" stroke-dasharray="6 3" stroke-dashoffset="0"/>
  <path d="M 74 33 L 74 122 L 536 122 L 536 33 z" fill="#FFFFFF" fill-opacity="1.0" stroke="none"/>
  <clipPath id="clip-0">
    <path d="M 50 9 L 50 441 L 1230 441 L 1230 9 z"/>
  </clipPath>
  <g clip-path="url(#clip-0)">
    <path d="M 50 236L 109 259.52L 143.51 271.19L 168 279.69L 186.99 287.01L 202.51 291.35L 215.63 293.6L 227 296.24L 245.99 301.48L 261.51 304.4L 274.63 306.6L 286 305.64L 304.99 311.43L 320.51 313.13L 333.63 314.36L 345 311.21L 363.99 313.34L 379.51 313.85L 392.63 315.57L 404 313.41L 422.99 317.89L 438.51 317.43L 451.63 319.3L 463 320.53L 481.99 320.69L 497.51 320.71L 510.63 320.34L 522 320.99L 540.99 321.37L 556.51 321.35L 569.63 321.82L 581 322.11L 599.99 321.65L 615.51 322.18L 628.63 322.41L 640 322.53L 658.99 322.22L 674.51 322.67L 687.63 322.67L 699 322.72L 717.99 322.77L 733.51 322.51L 746.63 322.82L 758 322.83L 776.99 322.85L 792.51 322.84L 805.63 322.86L 817 322.65L 835.99 322.85L 851.51 322.89L 864.63 322.79L 876 322.84L 894.99 322.87L 910.51 322.79L 923.63 322.88L 935 322.49L 953.99 322.9L 969.51 322.2L 982.63 322.07L 994 322.9L 1013 322.89L 1028.5 320.28L 1041.6 322.89L 1053 322.92L 1072 322.94L 1087.5 322.92L 1100.6 322.92L 1112 322.92L 1131 322.91L 1146.5 322.7L 1159.6 316.65L 1171 316.2L 1190 318.28L 1205.5 313.39L 1218.6 302.46L 1230 303.21L 1230 305.03L 1218.6 316.93L 1205.5 320.06L 1190 321.69L 1171 322.74L 1159.6 322.57L 1146.5 322.9L 1131 322.92L 1112 322.94L 1100.6 322.93L 1087.5 322.94L 1072 322.94L 1053 322.94L 1041.6 322.94L 1028.5 322.9L 1013 322.93L 994 322.94L 982.63 322.93L 969.51 322.94L 953.99 322.91L 935 322.92L 923.63 322.88L 910.51 322.92L 894.99 322.87L 876 322.91L 864.63 322.87L 851.51 322.9L 835.99 322.89L 817 322.88L 805.63 322.88L 792.51 322.87L 776.99 322.85L 758 322.84L 746.63 322.82L 733.51 323.12L 717.99 322.79L 699 322.73L 687.63 322.69L 674.51 322.67L 658.99 323.03L 640 322.53L 628.63 322.48L 615.51 322.58L 599.99 323.01L 581 322.11L 569.63 322.01L 556.51 321.89L 540.99 321.98L 522 321.33L 510.63 321.16L 497.51 320.85L 481.99 320.69L 463 320.53L 451.63 319.3L 438.51 320.62L 422.99 317.89L 404 320.81L 392.63 316.02L 379.51 315.75L 363.99 313.34L 345 320.25L 333.63 314.36L 320.51 313.13L 304.99 311.46L 286 308.32L 274.63 306.6L 261.51 304.4L 245.99 301.48L 227 298.76L 215.63 295.99L 202.51 291.35L 186.99 287.01L 168 282.82L 143.51 274.6L 109 259.52L 50 236" fill="#FFCC00" fill-opacity="0.30196078431372547" stroke="none"/>
    <path d="M 50 236.15L 109 261.63L 143.51 274.64L 168 282.82L 186.99 288.51L 202.51 292.73L 215.63 295.99L 227 298.59L 245.99 301.59L 261.51 305.3L 274.63 308.21L 286 306.31L 304.99 311.46L 320.51 312.65L 333.63 314.83L 345 320.25L 363.99 312.97L 379.51 314.75L 392.63 314.23L 404 319.74L 422.99 317.05L 438.51 318.65L 451.63 318.68L 463 319.16L 481.99 319.84L 497.51 320.85L 510.63 321.03L 522 321.05L 540.99 321.39L 556.51 321.43L 569.63 322.05L 581 320.8L 599.99 322.95L 615.51 322.56L 628.63 322.45L 640 321.54L 658.99 322.22L 674.51 322.68L 687.63 322.68L 699 322.74L 717.99 322.78L 733.51 322.77L 746.63 322.82L 758 322.81L 776.99 322.83L 792.51 322.84L 805.63 322.87L 817 322.88L 835.99 322.68L 851.51 322.89L 864.63 322.26L 876 322.88L 894.99 322.86L 910.51 322.89L 923.63 322.88L 935 322.76L 953.99 322.88L 969.51 322.7L 982.63 322.77L 994 322.79L 1013 322.83L 1028.5 320.08L 1041.6 322.86L 1053 322.83L 1072 321.5L 1087.5 322.76L 1100.6 322.87L 1112 322.78L 1131 322.42L 1146.5 321.75L 1159.6 320.03L 1171 319.03L 1190 320.88L 1205.5 313.84L 1218.6 306.4L 1230 301.6L 1230 305.11L 1218.6 317.41L 1205.5 320.18L 1190 321.51L 1171 322.81L 1159.6 322.89L 1146.5 322.82L 1131 322.94L 1112 322.93L 1100.6 322.89L 1087.5 322.88L 1072 322.94L 1053 322.91L 1041.6 322.93L 1028.5 322.93L 1013 322.93L 994 322.93L 982.63 322.88L 969.51 322.91L 953.99 322.93L 935 322.87L 923.63 322.88L 910.51 322.92L 894.99 322.86L 876 322.91L 864.63 322.83L 851.51 322.89L 835.99 322.89L 817 322.89L 805.63 322.87L 792.51 322.86L 776.99 322.85L 758 322.86L 746.63 322.82L 733.51 322.85L 717.99 322.78L 699 322.74L 687.63 322.7L 674.51 322.68L 658.99 323.03L 640 323.65L 628.63 322.48L 615.51 322.61L 599.99 323.06L 581 323.65L 569.63 322.05L 556.51 321.89L 540.99 321.66L 522 321.39L 510.63 321.16L 497.51 320.85L 481.99 320.69L 463 320.53L 451.63 319.43L 438.51 319.24L 422.99 318.06L 404 320.81L 392.63 316.52L 379.51 314.75L 363.99 314.43L 345 320.25L 333.63 314.83L 320.51 313.66L 304.99 311.46L 286 309.05L 274.63 308.21L 261.51 305.3L 245.99 303.52L 227 298.59L 215.63 295.99L 202.51 292.73L 186.99 288.51L 168 282.82L 143.51 274.64L 109 261.63L 50 241.2" fill="#28CD41" fill-opacity="0.30196078431372547" stroke="none"/>
    <path d="M 50 235.88L 109 241.28L 143.51 251.42L 168 248.7L 186.99 250.96L 202.51 249.73L 215.63 250.34L 227 247.15L 245.99 245.87L 261.51 244.36L 274.63 243.88L 286 244.41L 304.99 241.19L 320.51 239.39L 333.63 238.15L 345 236.97L 363.99 233.93L 379.51 232.37L 392.63 231.72L 404 230.17L 422.99 227.53L 438.51 226.23L 451.63 224.99L 463 225L 481.99 221.86L 497.51 218.18L 510.63 210.75L 522 207.56L 540.99 198.75L 556.51 169.79L 569.63 161.51L 581 152.2L 599.99 146.76L 615.51 143.37L 628.63 140.68L 640 138.08L 658.99 135.21L 674.51 132.62L 687.63 127.69L 699 130.35L 717.99 128.99L 733.51 126.82L 746.63 124.96L 758 123.43L 776.99 119.81L 792.51 117.67L 805.63 116.19L 817 112.9L 835.99 112.34L 851.51 110.35L 864.63 109.4L 876 101.77L 894.99 106.33L 910.51 103.64L 923.63 103.21L 935 93.456L 953.99 99.962L 969.51 94.16L 982.63 97.227L 994 87.108L 1013 90.405L 1028.5 86.398L 1041.6 88.468L 1053 81.968L 1072 78.511L 1087.5 78.546L 1100.6 78.391L 1112 71.496L 1131 68.526L 1146.5 61.623L 1159.6 61.091L 1171 52.739L 1190 52.713L 1205.5 45.359L 1218.6 45.959L 1230 24.581L 1230 28.032L 1218.6 46.303L 1205.5 49.231L 1190 56.062L 1171 53.806L 1159.6 61.784L 1146.5 64.474L 1131 69.698L 1112 71.607L 1100.6 78.909L 1087.5 79.39L 1072 82.788L 1053 82.004L 1041.6 88.562L 1028.5 86.399L 1013 90.708L 994 87.185L 982.63 97.499L 969.51 94.169L 953.99 100.27L 935 93.521L 923.63 103.92L 910.51 103.66L 894.99 106.78L 876 101.79L 864.63 109.84L 851.51 110.84L 835.99 112.91L 817 113.97L 805.63 116.52L 792.51 117.77L 776.99 120.25L 758 123.48L 746.63 125.8L 733.51 127.91L 717.99 129.02L 699 130.73L 687.63 136.09L 674.51 133.08L 658.99 135.97L 640 138.41L 628.63 141.59L 615.51 143.45L 599.99 146.82L 581 154.74L 569.63 163.22L 556.51 173.11L 540.99 202.49L 522 219.31L 510.63 215.54L 497.51 220.61L 481.99 221.98L 463 225.32L 451.63 225.86L 438.51 226.59L 422.99 228.08L 404 232.8L 392.63 232.03L 379.51 233.23L 363.99 234.38L 345 238.66L 333.63 238.68L 320.51 239.81L 304.99 241.45L 286 244.76L 274.63 245.51L 261.51 246.79L 245.99 247.04L 227 249.45L 215.63 251.25L 202.51 249.73L 186.99 250.96L 168 250.29L 143.51 251.42L 109 244.03L 50 236" fill="#007AFF" fill-opacity="0.30196078431372547" stroke="none"/>
    <path d="M 50 241.5L 109 266.34L 143.51 282.79L 168 290.02L 186.99 292.19L 202.51 298.71L 215.63 301.07L 227 306.34L 245.99 311.59L 261.51 315.3L 274.63 318.28L 286 318.86L 304.99 322.53L 320.51 324.47L 333.63 325.52L 345 326.42L 363.99 319.41L 379.51 324.28L 392.63 325.41L 404 325.63L 422.99 326.24L 438.51 339.26L 451.63 330.59L 463 328.74L 481.99 331.83L 497.51 332.88L 510.63 328.13L 522 333.72L 540.99 331.95L 556.51 334.44L 569.63 333.73L 581 334.95L 599.99 333.63L 615.51 335.46L 628.63 335.63L 640 335.36L 658.99 335.86L 674.51 335.22L 687.63 335.76L 699 336.08L 717.99 336.15L 733.51 336.18L 746.63 336.39L 758 336.25L 776.99 336.27L 792.51 336.31L 805.63 336.25L 817 336.23L 835.99 336.31L 851.51 336.22L 864.63 336.32L 876 336.36L 894.99 336.26L 910.51 336.29L 923.63 336.31L 935 336.32L 953.99 336.37L 969.51 336.35L 982.63 336.38L 994 336.36L 1013 336.05L 1028.5 336.1L 1041.6 336.29L 1053 336.25L 1072 336.18L 1087.5 336.19L 1100.6 336.08L 1112 333.94L 1131 331.54L 1146.5 334.67L 1159.6 336.1L 1171 335.78L 1190 327.78L 1205.5 283.32L 1218.6 316.41L 1230 316.14L 1230 316.58L 1218.6 321.44L 1205.5 330.25L 1190 334.79L 1171 336.1L 1159.6 336.34L 1146.5 336.37L 1131 336.4L 1112 335.46L 1100.6 336.36L 1087.5 336.4L 1072 336.38L 1053 336.4L 1041.6 336.36L 1028.5 336.39L 1013 336.42L 994 336.42L 982.63 336.4L 969.51 336.38L 953.99 336.37L 935 336.35L 923.63 336.39L 910.51 336.38L 894.99 336.38L 876 336.37L 864.63 336.4L 851.51 336.34L 835.99 336.33L 817 336.36L 805.63 336.4L 792.51 336.31L 776.99 336.3L 758 336.27L 746.63 336.39L 733.51 336.21L 717.99 336.17L 699 336.1L 687.63 336.39L 674.51 336.78L 658.99 335.86L 640 336.08L 628.63 335.63L 615.51 335.51L 599.99 337.38L 581 335.18L 569.63 336.36L 556.51 334.74L 540.99 337.29L 522 333.72L 510.63 336.48L 497.51 332.88L 481.99 332.52L 463 334.11L 451.63 330.59L 438.51 339.26L 422.99 331.27L 404 327.15L 392.63 325.41L 379.51 326.27L 363.99 331.84L 345 329.13L 333.63 327.85L 320.51 326.05L 304.99 322.53L 286 320.62L 274.63 318.28L 261.51 315.3L 245.99 313.98L 227 309.02L 215.63 308.09L 202.51 301.84L 186.99 298.2L 168 290.02L 143.51 282.79L 109 271L 50 247.04" fill="#FF3B30" fill-opacity="0.30196078431372547" stroke="none"/>
    <path d="M 50 236L 109 259.52L 143.51 273.69L 168 281.98L 186.99 287.01L 202.51 291.35L 215.63 295.35L 227 298.09L 245.99 301.48L 261.51 304.4L 274.63 306.6L 286 307.61L 304.99 311.45L 320.51 313.13L 333.63 314.36L 345 317.71L 363.99 313.34L 379.51 315.25L 392.63 315.91L 404 318.76L 422.99 317.89L 438.51 319.77L 451.63 319.3L 463 320.53L 481.99 320.69L 497.51 320.82L 510.63 320.94L 522 321.24L 540.99 321.82L 556.51 321.75L 569.63 321.96L 581 322.11L 599.99 322.65L 615.51 322.48L 628.63 322.46L 640 322.53L 658.99 322.82L 674.51 322.67L 687.63 322.69L 699 322.73L 717.99 322.78L 733.51 322.96L 746.63 322.82L 758 322.84L 776.99 322.85L 792.51 322.86L 805.63 322.87L 817 322.82L 835.99 322.88L 851.51 322.9L 864.63 322.85L 876 322.89L 894.99 322.87L 910.51 322.88L 923.63 322.88L 935 322.81L 953.99 322.91L 969.51 322.74L 982.63 322.7L 994 322.93L 1013 322.92L 1028.5 322.2L 1041.6 322.93L 1053 322.94L 1072 322.94L 1087.5 322.93L 1100.6 322.93L 1112 322.94L 1131 322.92L 1146.5 322.85L 1159.6 320.95L 1171 320.94L 1190 320.78L 1205.5 318.22L 1218.6 312.7L 1230 304.55" fill="none" stroke-width="4" stroke="#FFCC00" stroke-opacity="1" stroke-linecap="round" stroke-linejoin="round"/>
    <path d="M 50 239.83L 109 261.63L 143.51 274.64L 168 282.82L 186.99 288.51L 202.51 292.73L 215.63 295.99L 227 298.59L 245.99 303.01L 261.51 305.3L 274.63 308.21L 286 308.32L 304.99 311.46L 320.51 313.39L 333.63 314.83L 345 320.25L 363.99 314.05L 379.51 314.75L 392.63 315.91L 404 320.53L 422.99 317.8L 438.51 319.09L 451.63 319.23L 463 320.16L 481.99 320.47L 497.51 320.85L 510.63 321.12L 522 321.3L 540.99 321.59L 556.51 321.77L 569.63 322.05L 581 322.89L 599.99 323.03L 615.51 322.59L 628.63 322.47L 640 323.09L 658.99 322.82L 674.51 322.68L 687.63 322.7L 699 322.74L 717.99 322.78L 733.51 322.83L 746.63 322.82L 758 322.85L 776.99 322.85L 792.51 322.85L 805.63 322.87L 817 322.89L 835.99 322.83L 851.51 322.89L 864.63 322.68L 876 322.9L 894.99 322.86L 910.51 322.91L 923.63 322.88L 935 322.84L 953.99 322.91L 969.51 322.85L 982.63 322.85L 994 322.9L 1013 322.91L 1028.5 322.17L 1041.6 322.91L 1053 322.89L 1072 322.56L 1087.5 322.85L 1100.6 322.89L 1112 322.89L 1131 322.8L 1146.5 322.54L 1159.6 322.12L 1171 321.8L 1190 321.34L 1205.5 318.44L 1218.6 314.28L 1230 304.16" fill="none" stroke-width="4" stroke="#28CD41" stroke-opacity="1" stroke-linecap="round" stroke-linejoin="round"/>
    <path d="M 50 235.97L 109 243.3L 143.51 251.42L 168 249.87L 186.99 250.96L 202.51 249.73L 215.63 251.01L 227 248.84L 245.99 246.73L 261.51 246.14L 274.63 245.08L 286 244.67L 304.99 241.38L 320.51 239.7L 333.63 238.54L 345 238.21L 363.99 234.26L 379.51 233L 392.63 231.95L 404 232.09L 422.99 227.94L 438.51 226.5L 451.63 225.63L 463 225.24L 481.99 221.95L 497.51 219.96L 510.63 214.24L 522 215.95L 540.99 201.49L 556.51 172.22L 569.63 162.77L 581 154.06L 599.99 146.81L 615.51 143.43L 628.63 141.35L 640 138.32L 658.99 135.77L 674.51 132.96L 687.63 133.74L 699 130.63L 717.99 129.01L 733.51 127.62L 746.63 125.58L 758 123.47L 776.99 120.14L 792.51 117.74L 805.63 116.43L 817 113.69L 835.99 112.76L 851.51 110.71L 864.63 109.73L 876 101.78L 894.99 106.66L 910.51 103.65L 923.63 103.73L 935 93.504L 953.99 100.19L 969.51 94.167L 982.63 97.427L 994 87.165L 1013 90.629L 1028.5 86.399L 1041.6 88.537L 1053 81.995L 1072 81.632L 1087.5 79.168L 1100.6 78.773L 1112 71.578L 1131 69.389L 1146.5 63.712L 1159.6 61.602L 1171 53.525L 1190 55.163L 1205.5 48.189L 1218.6 46.213L 1230 27.105" fill="none" stroke-width="4" stroke="#007AFF" stroke-opacity="1" stroke-linecap="round" stroke-linejoin="round"/>
    <path d="M 50 245.53L 109 269.74L 143.51 282.79L 168 290.02L 186.99 296.55L 202.51 301L 215.63 306.15L 227 308.3L 245.99 313.35L 261.51 315.3L 274.63 318.28L 286 320.15L 304.99 322.53L 320.51 325.63L 333.63 327.23L 345 328.41L 363.99 328.26L 379.51 325.74L 392.63 325.41L 404 326.75L 422.99 329.91L 438.51 339.26L 451.63 330.59L 463 332.65L 481.99 332.33L 497.51 332.88L 510.63 334.15L 522 333.72L 540.99 335.84L 556.51 334.66L 569.63 335.66L 581 335.12L 599.99 336.37L 615.51 335.5L 628.63 335.63L 640 335.89L 658.99 335.86L 674.51 336.37L 687.63 336.23L 699 336.09L 717.99 336.16L 733.51 336.2L 746.63 336.39L 758 336.26L 776.99 336.29L 792.51 336.31L 805.63 336.36L 817 336.33L 835.99 336.32L 851.51 336.31L 864.63 336.38L 876 336.37L 894.99 336.34L 910.51 336.36L 923.63 336.37L 935 336.34L 953.99 336.37L 969.51 336.37L 982.63 336.4L 994 336.4L 1013 336.32L 1028.5 336.31L 1041.6 336.35L 1053 336.36L 1072 336.33L 1087.5 336.34L 1100.6 336.29L 1112 335.06L 1131 335.08L 1146.5 335.92L 1159.6 336.28L 1171 336.01L 1190 332.86L 1205.5 312.85L 1218.6 320.08L 1230 316.47" fill="none" stroke-width="4" stroke="#FF3B30" stroke-opacity="1" stroke-linecap="round" stroke-linejoin="round"/>
    <path d="M 50 236L 109 259.52L 143.51 273.69L 168 281.98L 186.99 287.01L 202.51 291.35L 215.63 295.35L 227 298.09L 245.99 301.48L 261.51 304.4L 274.63 306.6L 286 307.61L 304.99 311.45L 320.51 313.13L 333.63 314.36L 345 317.71L 363.99 313.34L 379.51 315.25L 392.63 315.91L 404 318.76L 422.99 317.89L 438.51 319.77L 451.63 319.3L 463 320.53L 481.99 320.69L 497.51 320.82L 510.63 320.94L 522 321.24L 540.99 321.82L 556.51 321.75L 569.63 321.96L 581 322.11L 599.99 322.65L 615.51 322.48L 628.63 322.46L 640 322.53L 658.99 322.82L 674.51 322.67L 687.63 322.69L 699 322.73L 717.99 322.78L 733.51 322.96L 746.63 322.82L 758 322.84L 776.99 322.85L 792.51 322.86L 805.63 322.87L 817 322.82L 835.99 322.88L 851.51 322.9L 864.63 322.85L 876 322.89L 894.99 322.87L 910.51 322.88L 923.63 322.88L 935 322.81L 953.99 322.91L 969.51 322.74L 982.63 322.7L 994 322.93L 1013 322.92L 1028.5 322.2L 1041.6 322.93L 1053 322.94L 1072 322.94L 1087.5 322.93L 1100.6 322.93L 1112 322.94L 1131 322.92L 1146.5 322.85L 1159.6 320.95L 1171 320.94L 1190 320.78L 1205.5 318.22L 1218.6 312.7L 1230 304.55" fill="none" stroke-width="0.5" stroke="#000000" stroke-opacity="0.30196" stroke-linecap="round" stroke-linejoin="round"/>
    <path d="M 50 239.83L 109 261.63L 143.51 274.64L 168 282.82L 186.99 288.51L 202.51 292.73L 215.63 295.99L 227 298.59L 245.99 303.01L 261.51 305.3L 274.63 308.21L 286 308.32L 304.99 311.46L 320.51 313.39L 333.63 314.83L 345 320.25L 363.99 314.05L 379.51 314.75L 392.63 315.91L 404 320.53L 422.99 317.8L 438.51 319.09L 451.63 319.23L 463 320.16L 481.99 320.47L 497.51 320.85L 510.63 321.12L 522 321.3L 540.99 321.59L 556.51 321.77L 569.63 322.05L 581 322.89L 599.99 323.03L 615.51 322.59L 628.63 322.47L 640 323.09L 658.99 322.82L 674.51 322.68L 687.63 322.7L 699 322.74L 717.99 322.78L 733.51 322.83L 746.63 322.82L 758 322.85L 776.99 322.85L 792.51 322.85L 805.63 322.87L 817 322.89L 835.99 322.83L 851.51 322.89L 864.63 322.68L 876 322.9L 894.99 322.86L 910.51 322.91L 923.63 322.88L 935 322.84L 953.99 322.91L 969.51 322.85L 982.63 322.85L 994 322.9L 1013 322.91L 1028.5 322.17L 1041.6 322.91L 1053 322.89L 1072 322.56L 1087.5 322.85L 1100.6 322.89L 1112 322.89L 1131 322.8L 1146.5 322.54L 1159.6 322.12L 1171 321.8L 1190 321.34L 1205.5 318.44L 1218.6 314.28L 1230 304.16" fill="none" stroke-width="0.5" stroke="#000000" stroke-opacity="0.30196" stroke-linecap="round" stroke-linejoin="round"/>
    <path d="M 50 235.97L 109 243.3L 143.51 251.42L 168 249.87L 186.99 250.96L 202.51 249.73L 215.63 251.01L 227 248.84L 245.99 246.73L 261.51 246.14L 274.63 245.08L 286 244.67L 304.99 241.38L 320.51 239.7L 333.63 238.54L 345 238.21L 363.99 234.26L 379.51 233L 392.63 231.95L 404 232.09L 422.99 227.94L 438.51 226.5L 451.63 225.63L 463 225.24L 481.99 221.95L 497.51 219.96L 510.63 214.24L 522 215.95L 540.99 201.49L 556.51 172.22L 569.63 162.77L 581 154.06L 599.99 146.81L 615.51 143.43L 628.63 141.35L 640 138.32L 658.99 135.77L 674.51 132.96L 687.63 133.74L 699 130.63L 717.99 129.01L 733.51 127.62L 746.63 125.58L 758 123.47L 776.99 120.14L 792.51 117.74L 805.63 116.43L 817 113.69L 835.99 112.76L 851.51 110.71L 864.63 109.73L 876 101.78L 894.99 106.66L 910.51 103.65L 923.63 103.73L 935 93.504L 953.99 100.19L 969.51 94.167L 982.63 97.427L 994 87.165L 1013 90.629L 1028.5 86.399L 1041.6 88.537L 1053 81.995L 1072 81.632L 1087.5 79.168L 1100.6 78.773L 1112 71.578L 1131 69.389L 1146.5 63.712L 1159.6 61.602L 1171 53.525L 1190 55.163L 1205.5 48.189L 1218.6 46.213L 1230 27.105" fill="none" stroke-width="0.5" stroke="#000000" stroke-opacity="0.30196" stroke-linecap="round" stroke-linejoin="round"/>
    <path d="M 50 245.53L 109 269.74L 143.51 282.79L 168 290.02L 186.99 296.55L 202.51 301L 215.63 306.15L 227 308.3L 245.99 313.35L 261.51 315.3L 274.63 318.28L 286 320.15L 304.99 322.53L 320.51 325.63L 333.63 327.23L 345 328.41L 363.99 328.26L 379.51 325.74L 392.63 325.41L 404 326.75L 422.99 329.91L 438.51 339.26L 451.63 330.59L 463 332.65L 481.99 332.33L 497.51 332.88L 510.63 334.15L 522 333.72L 540.99 335.84L 556.51 334.66L 569.63 335.66L 581 335.12L 599.99 336.37L 615.51 335.5L 628.63 335.63L 640 335.89L 658.99 335.86L 674.51 336.37L 687.63 336.23L 699 336.09L 717.99 336.16L 733.51 336.2L 746.63 336.39L 758 336.26L 776.99 336.29L 792.51 336.31L 805.63 336.36L 817 336.33L 835.99 336.32L 851.51 336.31L 864.63 336.38L 876 336.37L 894.99 336.34L 910.51 336.36L 923.63 336.37L 935 336.34L 953.99 336.37L 969.51 336.37L 982.63 336.4L 994 336.4L 1013 336.32L 1028.5 336.31L 1041.6 336.35L 1053 336.36L 1072 336.33L 1087.5 336.34L 1100.6 336.29L 1112 335.06L 1131 335.08L 1146.5 335.92L 1159.6 336.28L 1171 336.01L 1190 332.86L 1205.5 312.85L 1218.6 320.08L 1230 316.47" fill="none" stroke-width="0.5" stroke="#000000" stroke-opacity="0.30196" stroke-linecap="round" stroke-linejoin="round"/>
  </g>
  <path d="M 74 33 L 74 122 L 536 122 L 536 33 z" fill="#FFFFFF" fill-opacity="0.7019607843137254" stroke-width="0.5" stroke="#000000" stroke-opacity="1" stroke-linecap="round" stroke-linejoin="round"/>
  <path d="M 88 52 L 108 52" fill="none" stroke-width="4" stroke="#FF3B30" stroke-opacity="1" stroke-linecap="round" stroke-linejoin="round"/>
  <path d="M 88 52 L 108 52" fill="none" stroke-width="0.5" stroke="#000000" stroke-opacity="0.30196" stroke-linecap="round" stroke-linejoin="round"/>
  <text x="119" y="56.17" font-family="Menlo" font-size="12" font-weight="normal" font-style="normal" fill="#000000" fill-opacity="1">Array&lt;Int&gt; subscript get, random offsets</text>
  <path d="M 88 69 L 108 69" fill="none" stroke-width="4" stroke="#007AFF" stroke-opacity="1" stroke-linecap="round" stroke-linejoin="round"/>
  <path d="M 88 69 L 108 69" fill="none" stroke-width="0.5" stroke="#000000" stroke-opacity="0.30196" stroke-linecap="round" stroke-linejoin="round"/>
  <text x="119" y="73.17" font-family="Menlo" font-size="12" font-weight="normal" font-style="normal" fill="#000000" fill-opacity="1">TreeArray&lt;Int&gt; subscript get, random offsets</text>
  <path d="M 88 86 L 108 86" fill="none" stroke-width="4" stroke="#28CD41" stroke-opacity="1" stroke-linecap="round" stroke-linejoin="round"/>
  <path d="M 88 86 L 108 86" fill="none" stroke-width="0.5" stroke="#000000" stroke-opacity="0.30196" stroke-linecap="round" stroke-linejoin="round"/>
  <text x="119" y="90.17" font-family="Menlo" font-size="12" font-weight="normal" font-style="normal" fill="#000000" fill-opacity="1">Deque&lt;Int&gt; subscript get, random offsets (contiguous)</text>
  <path d="M 88 103 L 108 103" fill="none" stroke-width="4" stroke="#FFCC00" stroke-opacity="1" stroke-linecap="round" stroke-linejoin="round"/>
  <path d="M 88 103 L 108 103" fill="none" stroke-width="0.5" stroke="#000000" stroke-opacity="0.30196" stroke-linecap="round" stroke-linejoin="round"/>
  <text x="119" y="107.17" font-family="Menlo" font-size="12" font-weight="normal" font-style="normal" fill="#000000" fill-opacity="1">Deque&lt;Int&gt; subscript get, random offsets (discontiguous)</text>
  <path d="M 50 9 L 50 441 L 1230 441 L 1230 9 z" fill="none" stroke-width="0.5" stroke="#000000" stroke-opacity="1" stroke-linecap="round" stroke-linejoin="round"/>
</svg>
