<!DOCTYPE svg PUBLIC "-//W3C//DTD SVG 1.1//EN" "http://www.w3.org/Graphics/SVG/1.1/DTD/svg11.dtd">
<svg width="1280.0px" height="480.0px" viewBox="0.0 0.0 1280.0 480.0" xmlns="http://www.w3.org/2000/svg" xmlns:xlink="http://www.w3.org/1999/xlink" version="1.1">
  <path d="M 0 0 L 0 480 L 1280 480 L 1280 0 z" fill="#FFFFFF" fill-opacity="1.0" stroke="none"/>
  <text x="50" y="468.7" font-family="Helvetica" font-size="10" font-weight="normal" font-style="normal" fill="#000000" fill-opacity="1">Average per-element processing time over input size (bands: min, mean, mean + 2stddev)</text>
  <a xlink:href="https://github.com/apple/swift-collections-benchmark"><text x="1107" y="468.7" font-family="Helvetica" font-size="10" font-weight="normal" font-style="normal" fill="#000000" fill-opacity="1">swift-collections-benchmark</text></a>
  <path d="M 50 9 L 50 441" fill="none" stroke-width="0.75" stroke="#000000" stroke-opacity="0.49804" stroke-linecap="butt" stroke-linejoin="round"/>
  <text x="47" y="453.7" font-family="Helvetica" font-size="10" font-weight="normal" font-style="normal" fill="#000000" fill-opacity="1">1</text>
  <path d="M 123.75 9 L 123.75 441" fill="none" stroke-width="0.75" stroke="#000000" stroke-opacity="0.49804" stroke-linecap="butt" stroke-linejoin="round"/>
  <text x="120.75" y="453.7" font-family="Helvetica" font-size="10" font-weight="normal" font-style="normal" fill="#000000" fill-opacity="1">2</text>
  <path d="M 197.5 9 L 197.5 441" fill="none" stroke-width="0.75" stroke="#000000" stroke-opacity="0.49804" stroke-linecap="butt" stroke-linejoin="round"/>
  <text x="194.5" y="453.7" font-family="Helvetica" font-size="10" font-weight="normal" font-style="normal" fill="#000000" fill-opacity="1">4</text>
  <path d="M 271.25 9 L 271.25 441" fill="none" stroke-width="0.75" stroke="#000000" stroke-opacity="0.49804" stroke-linecap="butt" stroke-linejoin="round"/>
  <text x="268.25" y="453.7" font-family="Helvetica" font-size="10" font-weight="normal" font-style="normal" fill="#000000" fill-opacity="1">8</text>
  <path d="M 345 9 L 345 441" fill="none" stroke-width="0.75" stroke="#000000" stroke-opacity="0.49804" stroke-linecap="butt" stroke-linejoin="round"/>
  <text x="339" y="453.7" font-family="Helvetica" font-size="10" font-weight="normal" font-style="normal" fill="#000000" fill-opacity="1">16</text>
  <path d="M 418.75 9 L 418.75 441" fill="none" stroke-width="0.75" stroke="#000000" stroke-opacity="0.49804" stroke-linecap="butt" stroke-linejoin="round"/>
  <text x="412.75" y="453.7" font-family="Helvetica" font-size="10" font-weight="normal" font-style="normal" fill="#000000" fill-opacity="1">32</text>
  <path d="M 492.5 9 L 492.5 441" fill="none" stroke-width="0.75" stroke="#000000" stroke-opacity="0.49804" stroke-linecap="butt" stroke-linejoin="round"/>
  <text x="486.5" y="453.7" font-family="Helvetica" font-size="10" font-weight="normal" font-style="normal" fill="#000000" fill-opacity="1">64</text>
  <path d="M 566.25 9 L 566.25 441" fill="none" stroke-width="0.75" stroke="#000000" stroke-opacity="0.49804" stroke-linecap="butt" stroke-linejoin="round"/>
  <text x="557.75" y="453.7" font-family="Helvetica" font-size="10" font-weight="normal" font-style="normal" fill="#000000" fill-opacity="1">128</text>
  <path d="M 640 9 L 640 441" fill="none" stroke-width="0.75" stroke="#000000" stroke-opacity="0.49804" stroke-linecap="butt" stroke-linejoin="round"/>
  <text x="631.5" y="453.7" font-family="Helvetica" font-size="10" font-weight="normal" font-style="normal" fill="#000000" fill-opacity="1">256</text>
  <path d="M 713.75 9 L 713.75 441" fill="none" stroke-width="0.75" stroke="#000000" stroke-opacity="0.49804" stroke-linecap="butt" stroke-linejoin="round"/>
  <text x="705.25" y="453.7" font-family="Helvetica" font-size="10" font-weight="normal" font-style="normal" fill="#000000" fill-opacity="1">512</text>
  <path d="M 787.5 9 L 787.5 441" fill="none" stroke-width="0.75" stroke="#000000" stroke-opacity="0.49804" stroke-linecap="butt" stroke-linejoin="round"/>
  <text x="782" y="453.7" font-family="Helvetica" font-size="10" font-weight="normal" font-style="normal" fill="#000000" fill-opacity="1">1k</text>
  <path d="M 861.25 9 L 861.25 441" fill="none" stroke-width="0.75" stroke="#000000" stroke-opacity="0.49804" stroke-linecap="butt" stroke-linejoin="round"/>
  <text x="855.75" y="453.7" font-family="Helvetica" font-size="10" font-weight="normal" font-style="normal" fill="#000000" fill-opacity="1">2k</text>
  <path d="M 935 9 L 935 441" fill="none" stroke-width="0.75" stroke="#000000" stroke-opacity="0.49804" stroke-linecap="butt" stroke-linejoin="round"/>
  <text x="929.5" y="453.7" font-family="Helvetica" font-size="10" font-weight="normal" font-style="normal" fill="#000000" fill-opacity="1">4k</text>
  <path d="M 1008.8 9 L 1008.8 441" fill="none" stroke-width="0.75" stroke="#000000" stroke-opacity="0.49804" stroke-linecap="butt" stroke-linejoin="round"/>
  <text x="1003.2" y="453.7" font-family="Helvetica" font-size="10" font-weight="normal" font-style="normal" fill="#000000" fill-opacity="1">8k</text>
  <path d="M 1082.5 9 L 1082.5 441" fill="none" stroke-width="0.75" stroke="#000000" stroke-opacity="0.49804" stroke-linecap="butt" stroke-linejoin="round"/>
  <text x="1074" y="453.7" font-family="Helvetica" font-size="10" font-weight="normal" font-style="normal" fill="#000000" fill-opacity="1">16k</text>
  <path d="M 1156.2 9 L 1156.2 441" fill="none" stroke-width="0.75" stroke="#000000" stroke-opacity="0.49804" stroke-linecap="butt" stroke-linejoin="round"/>
  <text x="1147.8" y="453.7" font-family="Helvetica" font-size="10" font-weight="normal" font-style="normal" fill="#000000" fill-opacity="1">32k</text>
  <path d="M 1230 9 L 1230 441" fill="none" stroke-width="0.75" stroke="#000000" stroke-opacity="0.49804" stroke-linecap="butt" stroke-linejoin="round"/>
  <text x="1221.5" y="453.7" font-family="Helvetica" font-size="10" font-weight="normal" font-style="normal" fill="#000000" fill-opacity="1">64k</text>
  <path d="M 50 441 L 1230 441" fill="none" stroke-width="0.75" stroke="#000000" stroke-opacity="0.49804" stroke-linecap="butt" stroke-linejoin="round"/>
  <text x="27" y="442.7" font-family="Helvetica" font-size="10" font-weight="normal" font-style="normal" fill="#000000" fill-opacity="1">1 ns</text>
  <text x="1236" y="442.7" font-family="Helvetica" font-size="10" font-weight="normal" font-style="normal" fill="#000000" fill-opacity="1">1 ns</text>
  <path d="M 50 354.6 L 1230 354.6" fill="none" stroke-width="0.75" stroke="#000000" stroke-opacity="0.49804" stroke-linecap="butt" stroke-linejoin="round"/>
  <text x="21" y="356.3" font-family="Helvetica" font-size="10" font-weight="normal" font-style="normal" fill="#000000" fill-opacity="1">10 ns</text>
  <text x="1236" y="356.3" font-family="Helvetica" font-size="10" font-weight="normal" font-style="normal" fill="#000000" fill-opacity="1">10 ns</text>
  <path d="M 50 268.2 L 1230 268.2" fill="none" stroke-width="0.75" stroke="#000000" stroke-opacity="0.49804" stroke-linecap="butt" stroke-linejoin="round"/>
  <text x="16" y="269.9" font-family="Helvetica" font-size="10" font-weight="normal" font-style="normal" fill="#000000" fill-opacity="1">100 ns</text>
  <text x="1236" y="269.9" font-family="Helvetica" font-size="10" font-weight="normal" font-style="normal" fill="#000000" fill-opacity="1">100 ns</text>
  <path d="M 50 181.8 L 1230 181.8" fill="none" stroke-width="0.75" stroke="#000000" stroke-opacity="0.49804" stroke-linecap="butt" stroke-linejoin="round"/>
  <text x="26" y="183.5" font-family="Helvetica" font-size="10" font-weight="normal" font-style="normal" fill="#000000" fill-opacity="1">1 µs</text>
  <text x="1236" y="183.5" font-family="Helvetica" font-size="10" font-weight="normal" font-style="normal" fill="#000000" fill-opacity="1">1 µs</text>
  <path d="M 50 95.4 L 1230 95.4" fill="none" stroke-width="0.75" stroke="#000000" stroke-opacity="0.49804" stroke-linecap="butt" stroke-linejoin="round"/>
  <text x="21" y="97.1" font-family="Helvetica" font-size="10" font-weight="normal" font-style="normal" fill="#000000" fill-opacity="1">10 µs</text>
  <text x="1236" y="97.1" font-family="Helvetica" font-size="10" font-weight="normal" font-style="normal" fill="#000000" fill-opacity="1">10 µs</text>
  <path d="M 50 9 L 1230 9" fill="none" stroke-width="0.75" stroke="#000000" stroke-opacity="0.49804" stroke-linecap="butt" stroke-linejoin="round"/>
  <text x="15" y="10.7" font-family="Helvetica" font-size="10" font-weight="normal" font-style="normal" fill="#000000" fill-opacity="1">100 µs</text>
  <text x="1236" y="10.7" font-family="Helvetica" font-size="10" font-weight="normal" font-style="normal" fill="#000000" fill-opacity="1">100 µs</text>
  <path d="M 50 414.99 L 1230 414.99" fill="none" stroke-width="0.5" stroke="#000000" stroke-opacity="0.25882" stroke-linecap="butt" stroke-linejoin="round" stroke-dasharray="6 3" stroke-dashoffset="0"/>
  <path d="M 50 388.98 L 1230 388.98" fill="none" stroke-width="0.5" stroke="#000000" stroke-opacity="0.25882" stroke-linecap="butt" stroke-linejoin="round" stroke-dasharray="6 3" stroke-dashoffset="0"/>
  <path d="M 50 362.97 L 1230 362.97" fill="none" stroke-width="0.5" stroke="#000000" stroke-opacity="0.25882" stroke-linecap="butt" stroke-linejoin="round" stroke-dasharray="6 3" stroke-dashoffset="0"/>
  <path d="M 50 336.96 L 1230 336.96" fill="none" stroke-width="0.5" stroke="#000000" stroke-opacity="0.25882" stroke-linecap="butt" stroke-linejoin="round" stroke-dasharray="6 3" stroke-dashoffset="0"/>
  <path d="M 50 310.96 L 1230 310.96" fill="none" stroke-width="0.5" stroke="#000000" stroke-opacity="0.25882" stroke-linecap="butt" stroke-linejoin="round" stroke-dasharray="6 3" stroke-dashoffset="0"/>
  <path d="M 50 284.95 L 1230 284.95" fill="none" stroke-width="0.5" stroke="#000000" stroke-opacity="0.25882" stroke-linecap="butt" stroke-linejoin="round" stroke-dasharray="6 3" stroke-dashoffset="0"/>
  <path d="M 50 258.94 L 1230 258.94" fill="none" stroke-width="0.5" stroke="#000000" stroke-opacity="0.25882" stroke-linecap="butt" stroke-linejoin="round" stroke-dasharray="6 3" stroke-dashoffset="0"/>
  <path d="M 50 232.93 L 1230 232.93" fill="none" stroke-width="0.5" stroke="#000000" stroke-opacity="0.25882" stroke-linecap="butt" stroke-linejoin="round" stroke-dasharray="6 3" stroke-dashoffset="0"/>
  <path d="M 50 206.92 L 1230 206.92" fill="none" stroke-width="0.5" stroke="#000000" stroke-opacity="0.25882" stroke-linecap="butt" stroke-linejoin="round" stroke-dasharray="6 3" stroke-dashoffset="0"/>
  <path d="M 50 180.91 L 1230 180.91" fill="none" stroke-width="0.5" stroke="#000000" stroke-opacity="0.25882" stroke-linecap="butt" stroke-linejoin="round" stroke-dasharray="6 3" stroke-dashoffset="0"/>
  <path d="M 50 154.9 L 1230 154.9" fill="none" stroke-width="0.5" stroke="#000000" stroke-opacity="0.25882" stroke-linecap="butt" stroke-linejoin="round" stroke-dasharray="6 3" stroke-dashoffset="0"/>
  <path d="M 50 128.89 L 1230 128.89" fill="none" stroke-width="0.5" stroke="#000000" stroke-opacity="0.25882" stroke-linecap="butt" stroke-linejoin="round" stroke-dasharray="6 3" stroke-dashoffset="0"/>
  <path d="M 50 102.88 L 1230 102.88" fill="none" stroke-width="0.5" stroke="#000000" stroke-opacity="0.25882" stroke-linecap="butt" stroke-linejoin="round" stroke-dasharray="6 3" stroke-dashoffset="0"/>
  <path d="M 50 76.874 L 1230 76.874" fill="none" stroke-width="0.5" stroke="#000000" stroke-opacity="0.25882" stroke-linecap="butt" stroke-linejoin="round" stroke-dasharray="6 3" stroke-dashoffset="0"/>
  <path d="M 50 50.865 L 1230 50.865" fill="none" stroke-width="0.5" stroke="#000000" stroke-opacity="0.25882" stroke-linecap="butt" stroke-linejoin="round" stroke-dasharray="6 3" stroke-dashoffset="0"/>
  <path d="M 50 24.856 L 1230 24.856" fill="none" stroke-width="0.5" stroke="#000000" stroke-opacity="0.25882" stroke-linecap="butt" stroke-linejoin="round" stroke-dasharray="6 3" stroke-dashoffset="0"/>
  <path d="M 74 33 L 74 88 L 377 88 L 377 33 z" fill="#FFFFFF" fill-opacity="1.0" stroke="none"/>
  <clipPath id="clip-0">
    <path d="M 50 9 L 50 441 L 1230 441 L 1230 9 z"/>
  </clipPath>
  <g clip-path="url(#clip-0)">
    <path d="M 50 277.39L 123.75 275.33L 166.89 274.25L 197.5 273.26L 221.24 272.27L 240.64 270.97L 257.04 271.76L 271.25 270.54L 294.99 269.01L 314.39 267.19L 330.79 265.61L 345 263.62L 368.74 260.83L 388.14 258.32L 404.54 255.76L 418.75 253.31L 442.49 248.5L 461.89 244.73L 478.29 240.84L 492.5 237.51L 516.24 229.93L 535.64 226.4L 552.04 221.6L 566.25 217.89L 589.99 207.91L 609.39 204.73L 625.79 199.26L 640 195.09L 663.74 183.61L 683.14 180.77L 699.54 175.12L 713.75 170.83L 737.49 158.49L 756.89 155.77L 773.29 150.18L 787.5 145.58L 811.24 133.09L 830.64 130.86L 847.04 124.59L 861.25 120.31L 884.99 107.29L 904.39 104.68L 920.79 98.114L 935 93.193L 958.74 79.671L 978.14 77.474L 994.54 71.356L 1008.8 65.839L 1032.5 53.258L 1051.9 51.178L 1068.3 44.47L 1082.5 40.098L 1106.2 27.085L 1106.2 27.159L 1082.5 40.19L 1068.3 45.247L 1051.9 51.248L 1032.5 53.268L 1008.8 66.329L 994.54 71.369L 978.14 77.542L 958.74 79.855L 935 93.232L 920.79 98.126L 904.39 104.76L 884.99 107.46L 861.25 120.39L 847.04 124.83L 830.64 130.86L 811.24 133.23L 787.5 145.74L 773.29 150.25L 756.89 155.93L 737.49 158.68L 713.75 170.83L 699.54 175.14L 683.14 180.9L 663.74 183.61L 640 195.1L 625.79 199.32L 609.39 204.89L 589.99 207.98L 566.25 217.97L 552.04 221.67L 535.64 226.47L 516.24 229.97L 492.5 237.73L 478.29 240.87L 461.89 244.79L 442.49 248.53L 418.75 253.32L 404.54 255.89L 388.14 258.4L 368.74 261.11L 345 263.62L 330.79 265.67L 314.39 267.26L 294.99 269.1L 271.25 270.58L 257.04 271.76L 240.64 272.01L 221.24 272.61L 197.5 273.34L 166.89 274.48L 123.75 275.33L 50 277.76" fill="#007AFF" fill-opacity="0.30196078431372547" stroke="none"/>
    <path d="M 50 413.52L 123.75 426.93L 166.89 421.83L 197.5 421.87L 221.24 418.28L 240.64 411.17L 257.04 410.49L 271.25 407.71L 294.99 405.48L 314.39 401.78L 330.79 396.19L 345 391.93L 368.74 383.53L 388.14 376.77L 404.54 370.84L 418.75 365.83L 442.49 354.61L 461.89 346.41L 478.29 343.04L 492.5 336.84L 516.24 327.46L 535.64 320.11L 552.04 313.67L 566.25 309L 589.99 301L 609.39 294.8L 625.79 287.51L 640 284.68L 663.74 276.72L 683.14 268.19L 699.54 264.68L 713.75 259.96L 737.49 252.01L 756.89 245.2L 773.29 239L 787.5 234.52L 811.24 226.27L 830.64 219.79L 847.04 213.96L 861.25 209.14L 884.99 200.94L 904.39 194.19L 920.79 188.22L 935 183.42L 958.74 174.98L 978.14 168.3L 994.54 162.5L 1008.8 157.48L 1032.5 149.12L 1051.9 141.47L 1068.3 135.4L 1082.5 131.27L 1106.2 122.84L 1125.6 116.2L 1142 110.53L 1156.2 105.45L 1180 96.957L 1199.4 89.995L 1215.8 84.495L 1230 79.311L 1230 79.54L 1215.8 84.522L 1199.4 90.191L 1180 97.127L 1156.2 105.51L 1142 110.53L 1125.6 116.3L 1106.2 123.02L 1082.5 131.43L 1068.3 136.43L 1051.9 142.26L 1032.5 149.15L 1008.8 157.52L 994.54 162.53L 978.14 168.31L 958.74 175.11L 935 183.46L 920.79 188.45L 904.39 194.19L 884.99 200.98L 861.25 209.27L 847.04 214.09L 830.64 219.92L 811.24 226.66L 787.5 234.86L 773.29 239.73L 756.89 245.39L 737.49 252.1L 713.75 260.21L 699.54 264.98L 683.14 270.35L 663.74 276.94L 640 284.88L 625.79 289.36L 609.39 294.85L 589.99 301.26L 566.25 309.37L 552.04 313.69L 535.64 320.22L 516.24 328.74L 492.5 338.23L 478.29 344.52L 461.89 350.71L 442.49 357.57L 418.75 366.03L 404.54 371.01L 388.14 376.77L 368.74 383.53L 345 391.93L 330.79 396.85L 314.39 402.66L 294.99 407.9L 271.25 414.41L 257.04 412.4L 240.64 413.46L 221.24 418.28L 197.5 421.87L 166.89 421.83L 123.75 426.93L 50 413.52" fill="#FF3B30" fill-opacity="0.30196078431372547" stroke="none"/>
    <path d="M 50 277.67L 123.75 275.33L 166.89 274.42L 197.5 273.32L 221.24 272.52L 240.64 271.74L 257.04 271.76L 271.25 270.57L 294.99 269.08L 314.39 267.24L 330.79 265.66L 345 263.62L 368.74 261.03L 388.14 258.38L 404.54 255.85L 418.75 253.32L 442.49 248.52L 461.89 244.77L 478.29 240.86L 492.5 237.67L 516.24 229.96L 535.64 226.45L 552.04 221.65L 566.25 217.95L 589.99 207.96L 609.39 204.85L 625.79 199.31L 640 195.1L 663.74 183.61L 683.14 180.86L 699.54 175.14L 713.75 170.83L 737.49 158.63L 756.89 155.89L 773.29 150.23L 787.5 145.7L 811.24 133.19L 830.64 130.86L 847.04 124.77L 861.25 120.37L 884.99 107.42L 904.39 104.74L 920.79 98.123L 935 93.221L 958.74 79.807L 978.14 77.525L 994.54 71.366L 1008.8 66.2L 1032.5 53.265L 1051.9 51.23L 1068.3 45.043L 1082.5 40.166L 1106.2 27.14" fill="none" stroke-width="4" stroke="#007AFF" stroke-opacity="1" stroke-linecap="round" stroke-linejoin="round"/>
    <path d="M 50 413.52L 123.75 426.93L 166.89 421.83L 197.5 421.87L 221.24 418.28L 240.64 412.85L 257.04 411.89L 271.25 412.54L 294.99 407.25L 314.39 402.43L 330.79 396.67L 345 391.93L 368.74 383.53L 388.14 376.77L 404.54 370.96L 418.75 365.97L 442.49 356.77L 461.89 349.53L 478.29 344.13L 492.5 337.86L 516.24 328.4L 535.64 320.19L 552.04 313.69L 566.25 309.28L 589.99 301.19L 609.39 294.84L 625.79 288.87L 640 284.83L 663.74 276.88L 683.14 269.77L 699.54 264.9L 713.75 260.14L 737.49 252.08L 756.89 245.34L 773.29 239.54L 787.5 234.77L 811.24 226.56L 830.64 219.89L 847.04 214.06L 861.25 209.24L 884.99 200.97L 904.39 194.19L 920.79 188.39L 935 183.45L 958.74 175.08L 978.14 168.31L 994.54 162.52L 1008.8 157.51L 1032.5 149.14L 1051.9 142.05L 1068.3 136.16L 1082.5 131.39L 1106.2 122.97L 1125.6 116.28L 1142 110.53L 1156.2 105.5L 1180 97.082L 1199.4 90.14L 1215.8 84.515L 1230 79.48" fill="none" stroke-width="4" stroke="#FF3B30" stroke-opacity="1" stroke-linecap="round" stroke-linejoin="round"/>
    <path d="M 50 277.67L 123.75 275.33L 166.89 274.42L 197.5 273.32L 221.24 272.52L 240.64 271.74L 257.04 271.76L 271.25 270.57L 294.99 269.08L 314.39 267.24L 330.79 265.66L 345 263.62L 368.74 261.03L 388.14 258.38L 404.54 255.85L 418.75 253.32L 442.49 248.52L 461.89 244.77L 478.29 240.86L 492.5 237.67L 516.24 229.96L 535.64 226.45L 552.04 221.65L 566.25 217.95L 589.99 207.96L 609.39 204.85L 625.79 199.31L 640 195.1L 663.74 183.61L 683.14 180.86L 699.54 175.14L 713.75 170.83L 737.49 158.63L 756.89 155.89L 773.29 150.23L 787.5 145.7L 811.24 133.19L 830.64 130.86L 847.04 124.77L 861.25 120.37L 884.99 107.42L 904.39 104.74L 920.79 98.123L 935 93.221L 958.74 79.807L 978.14 77.525L 994.54 71.366L 1008.8 66.2L 1032.5 53.265L 1051.9 51.23L 1068.3 45.043L 1082.5 40.166L 1106.2 27.14" fill="none" stroke-width="0.5" stroke="#000000" stroke-opacity="0.30196" stroke-linecap="round" stroke-linejoin="round"/>
    <path d="M 50 413.52L 123.75 426.93L 166.89 421.83L 197.5 421.87L 221.24 418.28L 240.64 412.85L 257.04 411.89L 271.25 412.54L 294.99 407.25L 314.39 402.43L 330.79 396.67L 345 391.93L 368.74 383.53L 388.14 376.77L 404.54 370.96L 418.75 365.97L 442.49 356.77L 461.89 349.53L 478.29 344.13L 492.5 337.86L 516.24 328.4L 535.64 320.19L 552.04 313.69L 566.25 309.28L 589.99 301.19L 609.39 294.84L 625.79 288.87L 640 284.83L 663.74 276.88L 683.14 269.77L 699.54 264.9L 713.75 260.14L 737.49 252.08L 756.89 245.34L 773.29 239.54L 787.5 234.77L 811.24 226.56L 830.64 219.89L 847.04 214.06L 861.25 209.24L 884.99 200.97L 904.39 194.19L 920.79 188.39L 935 183.45L 958.74 175.08L 978.14 168.31L 994.54 162.52L 1008.8 157.51L 1032.5 149.14L 1051.9 142.05L 1068.3 136.16L 1082.5 131.39L 1106.2 122.97L 1125.6 116.28L 1142 110.53L 1156.2 105.5L 1180 97.082L 1199.4 90.14L 1215.8 84.515L 1230 79.48" fill="none" stroke-width="0.5" stroke="#000000" stroke-opacity="0.30196" stroke-linecap="round" stroke-linejoin="round"/>
  </g>
  <path d="M 74 33 L 74 88 L 377 88 L 377 33 z" fill="#FFFFFF" fill-opacity="0.7019607843137254" stroke-width="0.5" stroke="#000000" stroke-opacity="1" stroke-linecap="round" stroke-linejoin="round"/>
  <path d="M 88 52 L 108 52" fill="none" stroke-width="4" stroke="#FF3B30" stroke-opacity="1" stroke-linecap="round" stroke-linejoin="round"/>
  <path d="M 88 52 L 108 52" fill="none" stroke-width="0.5" stroke="#000000" stroke-opacity="0.30196" stroke-linecap="round" stroke-linejoin="round"/>
  <text x="119" y="56.17" font-family="Menlo" font-size="12" font-weight="normal" font-style="normal" fill="#000000" fill-opacity="1">Array&lt;Int&gt; successful contains</text>
  <path d="M 88 69 L 108 69" fill="none" stroke-width="4" stroke="#007AFF" stroke-opacity="1" stroke-linecap="round" stroke-linejoin="round"/>
  <path d="M 88 69 L 108 69" fill="none" stroke-width="0.5" stroke="#000000" stroke-opacity="0.30196" stroke-linecap="round" stroke-linejoin="round"/>
  <text x="119" y="73.17" font-family="Menlo" font-size="12" font-weight="normal" font-style="normal" fill="#000000" fill-opacity="1">TreeArray&lt;Int&gt; successful contains</text>
  <path d="M 50 9 L 50 441 L 1230 441 L 1230 9 z" fill="none" stroke-width="0.5" stroke="#000000" stroke-opacity="1" stroke-linecap="round" stroke-linejoin="round"/>
</svg>
