<!DOCTYPE svg PUBLIC "-//W3C//DTD SVG 1.1//EN" "http://www.w3.org/Graphics/SVG/1.1/DTD/svg11.dtd">
<svg width="1280.0px" height="480.0px" viewBox="0.0 0.0 1280.0 480.0" xmlns="http://www.w3.org/2000/svg" xmlns:xlink="http://www.w3.org/1999/xlink" version="1.1">
  <path d="M 0 0 L 0 480 L 1280 480 L 1280 0 z" fill="#FFFFFF" fill-opacity="1.0" stroke="none"/>
  <text x="50" y="468.7" font-family="Helvetica" font-size="10" font-weight="normal" font-style="normal" fill="#000000" fill-opacity="1">Average per-element processing time over input size (bands: min, mean, mean + 2stddev)</text>
  <a xlink:href="https://github.com/apple/swift-collections-benchmark"><text x="1107" y="468.7" font-family="Helvetica" font-size="10" font-weight="normal" font-style="normal" fill="#000000" fill-opacity="1">swift-collections-benchmark</text></a>
  <path d="M 50 9 L 50 441" fill="none" stroke-width="0.75" stroke="#000000" stroke-opacity="0.49804" stroke-linecap="butt" stroke-linejoin="round"/>
  <text x="47" y="453.7" font-family="Helvetica" font-size="10" font-weight="normal" font-style="normal" fill="#000000" fill-opacity="1">1</text>
  <path d="M 123.75 9 L 123.75 441" fill="none" stroke-width="0.75" stroke="#000000" stroke-opacity="0.49804" stroke-linecap="butt" stroke-linejoin="round"/>
  <text x="120.75" y="453.7" font-family="Helvetica" font-size="10" font-weight="normal" font-style="normal" fill="#000000" fill-opacity="1">2</text>
  <path d="M 197.5 9 L 197.5 441" fill="none" stroke-width="0.75" stroke="#000000" stroke-opacity="0.49804" stroke-linecap="butt" stroke-linejoin="round"/>
  <text x="194.5" y="453.7" font-family="Helvetica" font-size="10" font-weight="normal" font-style="normal" fill="#000000" fill-opacity="1">4</text>
  <path d="M 271.25 9 L 271.25 441" fill="none" stroke-width="0.75" stroke="#000000" stroke-opacity="0.49804" stroke-linecap="butt" stroke-linejoin="round"/>
  <text x="268.25" y="453.7" font-family="Helvetica" font-size="10" font-weight="normal" font-style="normal" fill="#000000" fill-opacity="1">8</text>
  <path d="M 345 9 L 345 441" fill="none" stroke-width="0.75" stroke="#000000" stroke-opacity="0.49804" stroke-linecap="butt" stroke-linejoin="round"/>
  <text x="339" y="453.7" font-family="Helvetica" font-size="10" font-weight="normal" font-style="normal" fill="#000000" fill-opacity="1">16</text>
  <path d="M 418.75 9 L 418.75 441" fill="none" stroke-width="0.75" stroke="#000000" stroke-opacity="0.49804" stroke-linecap="butt" stroke-linejoin="round"/>
  <text x="412.75" y="453.7" font-family="Helvetica" font-size="10" font-weight="normal" font-style="normal" fill="#000000" fill-opacity="1">32</text>
  <path d="M 492.5 9 L 492.5 441" fill="none" stroke-width="0.75" stroke="#000000" stroke-opacity="0.49804" stroke-linecap="butt" stroke-linejoin="round"/>
  <text x="486.5" y="453.7" font-family="Helvetica" font-size="10" font-weight="normal" font-style="normal" fill="#000000" fill-opacity="1">64</text>
  <path d="M 566.25 9 L 566.25 441" fill="none" stroke-width="0.75" stroke="#000000" stroke-opacity="0.49804" stroke-linecap="butt" stroke-linejoin="round"/>
  <text x="557.75" y="453.7" font-family="Helvetica" font-size="10" font-weight="normal" font-style="normal" fill="#000000" fill-opacity="1">128</text>
  <path d="M 640 9 L 640 441" fill="none" stroke-width="0.75" stroke="#000000" stroke-opacity="0.49804" stroke-linecap="butt" stroke-linejoin="round"/>
  <text x="631.5" y="453.7" font-family="Helvetica" font-size="10" font-weight="normal" font-style="normal" fill="#000000" fill-opacity="1">256</text>
  <path d="M 713.75 9 L 713.75 441" fill="none" stroke-width="0.75" stroke="#000000" stroke-opacity="0.49804" stroke-linecap="butt" stroke-linejoin="round"/>
  <text x="705.25" y="453.7" font-family="Helvetica" font-size="10" font-weight="normal" font-style="normal" fill="#000000" fill-opacity="1">512</text>
  <path d="M 787.5 9 L 787.5 441" fill="none" stroke-width="0.75" stroke="#000000" stroke-opacity="0.49804" stroke-linecap="butt" stroke-linejoin="round"/>
  <text x="782" y="453.7" font-family="Helvetica" font-size="10" font-weight="normal" font-style="normal" fill="#000000" fill-opacity="1">1k</text>
  <path d="M 861.25 9 L 861.25 441" fill="none" stroke-width="0.75" stroke="#000000" stroke-opacity="0.49804" stroke-linecap="butt" stroke-linejoin="round"/>
  <text x="855.75" y="453.7" font-family="Helvetica" font-size="10" font-weight="normal" font-style="normal" fill="#000000" fill-opacity="1">2k</text>
  <path d="M 935 9 L 935 441" fill="none" stroke-width="0.75" stroke="#000000" stroke-opacity="0.49804" stroke-linecap="butt" stroke-linejoin="round"/>
  <text x="929.5" y="453.7" font-family="Helvetica" font-size="10" font-weight="normal" font-style="normal" fill="#000000" fill-opacity="1">4k</text>
  <path d="M 1008.8 9 L 1008.8 441" fill="none" stroke-width="0.75" stroke="#000000" stroke-opacity="0.49804" stroke-linecap="butt" stroke-linejoin="round"/>
  <text x="1003.2" y="453.7" font-family="Helvetica" font-size="10" font-weight="normal" font-style="normal" fill="#000000" fill-opacity="1">8k</text>
  <path d="M 1082.5 9 L 1082.5 441" fill="none" stroke-width="0.75" stroke="#000000" stroke-opacity="0.49804" stroke-linecap="butt" stroke-linejoin="round"/>
  <text x="1074" y="453.7" font-family="Helvetica" font-size="10" font-weight="normal" font-style="normal" fill="#000000" fill-opacity="1">16k</text>
  <path d="M 1156.2 9 L 1156.2 441" fill="none" stroke-width="0.75" stroke="#000000" stroke-opacity="0.49804" stroke-linecap="butt" stroke-linejoin="round"/>
  <text x="1147.8" y="453.7" font-family="Helvetica" font-size="10" font-weight="normal" font-style="normal" fill="#000000" fill-opacity="1">32k</text>
  <path d="M 1230 9 L 1230 441" fill="none" stroke-width="0.75" stroke="#000000" stroke-opacity="0.49804" stroke-linecap="butt" stroke-linejoin="round"/>
  <text x="1221.5" y="453.7" font-family="Helvetica" font-size="10" font-weight="normal" font-style="normal" fill="#000000" fill-opacity="1">64k</text>
  <path d="M 50 441 L 1230 441" fill="none" stroke-width="0.75" stroke="#000000" stroke-opacity="0.49804" stroke-linecap="butt" stroke-linejoin="round"/>
  <text x="27" y="442.7" font-family="Helvetica" font-size="10" font-weight="normal" font-style="normal" fill="#000000" fill-opacity="1">1 ns</text>
  <text x="1236" y="442.7" font-family="Helvetica" font-size="10" font-weight="normal" font-style="normal" fill="#000000" fill-opacity="1">1 ns</text>
  <path d="M 50 354.6 L 1230 354.6" fill="none" stroke-width="0.75" stroke="#000000" stroke-opacity="0.49804" stroke-linecap="butt" stroke-linejoin="round"/>
  <text x="21" y="356.3" font-family="Helvetica" font-size="10" font-weight="normal" font-style="normal" fill="#000000" fill-opacity="1">10 ns</text>
  <text x="1236" y="356.3" font-family="Helvetica" font-size="10" font-weight="normal" font-style="normal" fill="#000000" fill-opacity="1">10 ns</text>
  <path d="M 50 268.2 L 1230 268.2" fill="none" stroke-width="0.75" stroke="#000000" stroke-opacity="0.49804" stroke-linecap="butt" stroke-linejoin="round"/>
  <text x="16" y="269.9" font-family="Helvetica" font-size="10" font-weight="normal" font-style="normal" fill="#000000" fill-opacity="1">100 ns</text>
  <text x="1236" y="269.9" font-family="Helvetica" font-size="10" font-weight="normal" font-style="normal" fill="#000000" fill-opacity="1">100 ns</text>
  <path d="M 50 181.8 L 1230 181.8" fill="none" stroke-width="0.75" stroke="#000000" stroke-opacity="0.49804" stroke-linecap="butt" stroke-linejoin="round"/>
  <text x="26" y="183.5" font-family="Helvetica" font-size="10" font-weight="normal" font-style="normal" fill="#000000" fill-opacity="1">1 µs</text>
  <text x="1236" y="183.5" font-family="Helvetica" font-size="10" font-weight="normal" font-style="normal" fill="#000000" fill-opacity="1">1 µs</text>
  <path d="M 50 95.4 L 1230 95.4" fill="none" stroke-width="0.75" stroke="#000000" stroke-opacity="0.49804" stroke-linecap="butt" stroke-linejoin="round"/>
  <text x="21" y="97.1" font-family="Helvetica" font-size="10" font-weight="normal" font-style="normal" fill="#000000" fill-opacity="1">10 µs</text>
  <text x="1236" y="97.1" font-family="Helvetica" font-size="10" font-weight="normal" font-style="normal" fill="#000000" fill-opacity="1">10 µs</text>
  <path d="M 50 9 L 1230 9" fill="none" stroke-width="0.75" stroke="#000000" stroke-opacity="0.49804" stroke-linecap="butt" stroke-linejoin="round"/>
  <text x="15" y="10.7" font-family="Helvetica" font-size="10" font-weight="normal" font-style="normal" fill="#000000" fill-opacity="1">100 µs</text>
  <text x="1236" y="10.7" font-family="Helvetica" font-size="10" font-weight="normal" font-style="normal" fill="#000000" fill-opacity="1">100 µs</text>
  <path d="M 50 414.99 L 1230 414.99" fill="none" stroke-width="0.5" stroke="#000000" stroke-opacity="0.25882" stroke-linecap="butt" stroke-linejoin="round" stroke-dasharray="6 3" stroke-dashoffset="0"/>
  <path d="M 50 388.98 L 1230 388.98" fill="none" stroke-width="0.5" stroke="#000000" stroke-opacity="0.25882" stroke-linecap="butt" stroke-linejoin="round" stroke-dasharray="6 3" stroke-dashoffset="0"/>
  <path d="M 50 362.97 L 1230 362.97" fill="none" stroke-width="0.5" stroke="#000000" stroke-opacity="0.25882" stroke-linecap="butt" stroke-linejoin="round" stroke-dasharray="6 3" stroke-dashoffset="0"/>
  <path d="M 50 336.96 L 1230 336.96" fill="none" stroke-width="0.5" stroke="#000000" stroke-opacity="0.25882" stroke-linecap="butt" stroke-linejoin="round" stroke-dasharray="6 3" stroke-dashoffset="0"/>
  <path d="M 50 310.96 L 1230 310.96" fill="none" stroke-width="0.5" stroke="#000000" stroke-opacity="0.25882" stroke-linecap="butt" stroke-linejoin="round" stroke-dasharray="6 3" stroke-dashoffset="0"/>
  <path d="M 50 284.95 L 1230 284.95" fill="none" stroke-width="0.5" stroke="#000000" stroke-opacity="0.25882" stroke-linecap="butt" stroke-linejoin="round" stroke-dasharray="6 3" stroke-dashoffset="0"/>
  <path d="M 50 258.94 L 1230 258.94" fill="none" stroke-width="0.5" stroke="#000000" stroke-opacity="0.25882" stroke-linecap="butt" stroke-linejoin="round" stroke-dasharray="6 3" stroke-dashoffset="0"/>
  <path d="M 50 232.93 L 1230 232.93" fill="none" stroke-width="0.5" stroke="#000000" stroke-opacity="0.25882" stroke-linecap="butt" stroke-linejoin="round" stroke-dasharray="6 3" stroke-dashoffset="0"/>
  <path d="M 50 206.92 L 1230 206.92" fill="none" stroke-width="0.5" stroke="#000000" stroke-opacity="0.25882" stroke-linecap="butt" stroke-linejoin="round" stroke-dasharray="6 3" stroke-dashoffset="0"/>
  <path d="M 50 180.91 L 1230 180.91" fill="none" stroke-width="0.5" stroke="#000000" stroke-opacity="0.25882" stroke-linecap="butt" stroke-linejoin="round" stroke-dasharray="6 3" stroke-dashoffset="0"/>
  <path d="M 50 154.9 L 1230 154.9" fill="none" stroke-width="0.5" stroke="#000000" stroke-opacity="0.25882" stroke-linecap="butt" stroke-linejoin="round" stroke-dasharray="6 3" stroke-dashoffset="0"/>
  <path d="M 50 128.89 L 1230 128.89" fill="none" stroke-width="0.5" stroke="#000000" stroke-opacity="0.25882" stroke-linecap="butt" stroke-linejoin="round" stroke-dasharray="6 3" stroke-dashoffset="0"/>
  <path d="M 50 102.88 L 1230 102.88" fill="none" stroke-width="0.5" stroke="#000000" stroke-opacity="0.25882" stroke-linecap="butt" stroke-linejoin="round" stroke-dasharray="6 3" stroke-dashoffset="0"/>
  <path d="M 50 76.874 L 1230 76.874" fill="none" stroke-width="0.5" stroke="#000000" stroke-opacity="0.25882" stroke-linecap="butt" stroke-linejoin="round" stroke-dasharray="6 3" stroke-dashoffset="0"/>
  <path d="M 50 50.865 L 1230 50.865" fill="none" stroke-width="0.5" stroke="#000000" stroke-opacity="0.25882" stroke-linecap="butt" stroke-linejoin="round" stroke-dasharray="6 3" stroke-dashoffset="0"/>
  <path d="M 50 24.856 L 1230 24.856" fill="none" stroke-width="0.5" stroke="#000000" stroke-opacity="0.25882" stroke-linecap="butt" stroke-linejoin="round" stroke-dasharray="6 3" stroke-dashoffset="0"/>
  <path d="M 74 33 L 74 88 L 377 88 L 377 33 z" fill="#FFFFFF" fill-opacity="1.0" stroke="none"/>
  <clipPath id="clip-0">
    <path d="M 50 9 L 50 441 L 1230 441 L 1230 9 z"/>
  </clipPath>
  <g clip-path="url(#clip-0)">
    <path d="M 50 275.12L 123.75 274.32L 166.89 273.94L 197.5 271.99L 221.24 271.23L 240.64 270.16L 257.04 270.11L 271.25 269.21L 294.99 267.6L 314.39 265.73L 330.79 264.28L 345 262.61L 368.74 259.95L 388.14 257.1L 404.54 254.71L 418.75 252.36L 442.49 247.57L 461.89 243.88L 478.29 240.16L 492.5 236.83L 516.24 228.95L 535.64 225.71L 552.04 220.99L 566.25 217.21L 589.99 207.01L 609.39 204.13L 625.79 198.89L 640 194.46L 663.74 183.29L 683.14 180.01L 699.54 174.78L 713.75 168.74L 737.49 157.4L 756.89 155.47L 773.29 150.07L 787.5 143.06L 811.24 132.83L 830.64 130.18L 847.04 124.61L 861.25 117.54L 884.99 106.57L 904.39 102.71L 920.79 97.129L 935 92.144L 958.74 78.915L 978.14 76.238L 994.54 70.153L 1008.8 65.744L 1032.5 52.612L 1051.9 50.42L 1068.3 44.376L 1082.5 39.671L 1106.2 26.629L 1106.2 26.816L 1082.5 39.691L 1068.3 44.775L 1051.9 50.649L 1032.5 52.991L 1008.8 65.988L 994.54 70.72L 978.14 76.702L 958.74 79.172L 935 92.491L 920.79 97.322L 904.39 103.54L 884.99 106.83L 861.25 119.81L 847.04 124.64L 830.64 130.26L 811.24 133.16L 787.5 145.37L 773.29 150.08L 756.89 155.55L 737.49 158.6L 713.75 170.43L 699.54 174.8L 683.14 180.24L 663.74 183.35L 640 194.55L 625.79 198.89L 609.39 204.19L 589.99 207.51L 566.25 217.22L 552.04 221.23L 535.64 225.74L 516.24 229.31L 492.5 236.96L 478.29 240.17L 461.89 243.89L 442.49 247.73L 418.75 252.41L 404.54 254.86L 388.14 257.47L 368.74 259.99L 345 262.66L 330.79 264.36L 314.39 265.99L 294.99 267.63L 271.25 269.25L 257.04 270.38L 240.64 270.38L 221.24 271.36L 197.5 272.15L 166.89 274.05L 123.75 274.85L 50 276.97" fill="#007AFF" fill-opacity="0.30196078431372547" stroke="none"/>
    <path d="M 50 413.52L 123.75 426.93L 166.89 421.83L 197.5 421.87L 221.24 418.28L 240.64 411.17L 257.04 410.49L 271.25 407.71L 294.99 405.48L 314.39 401.78L 330.79 396.19L 345 391.93L 368.74 383.53L 388.14 376.77L 404.54 370.84L 418.75 365.83L 442.49 354.61L 461.89 346.41L 478.29 343.04L 492.5 336.84L 516.24 327.46L 535.64 320.11L 552.04 313.67L 566.25 309L 589.99 301L 609.39 294.8L 625.79 287.51L 640 284.68L 663.74 276.72L 683.14 268.19L 699.54 264.68L 713.75 259.96L 737.49 252.01L 756.89 245.2L 773.29 239L 787.5 234.52L 811.24 226.27L 830.64 219.79L 847.04 213.96L 861.25 209.14L 884.99 200.94L 904.39 194.19L 920.79 188.22L 935 183.42L 958.74 174.98L 978.14 168.3L 994.54 162.5L 1008.8 157.48L 1032.5 149.12L 1051.9 141.47L 1068.3 135.4L 1082.5 131.27L 1106.2 122.84L 1125.6 116.2L 1142 110.53L 1156.2 105.45L 1180 96.957L 1199.4 89.995L 1215.8 84.495L 1230 79.311L 1230 79.54L 1215.8 84.522L 1199.4 90.191L 1180 97.127L 1156.2 105.51L 1142 110.53L 1125.6 116.3L 1106.2 123.02L 1082.5 131.43L 1068.3 136.43L 1051.9 142.26L 1032.5 149.15L 1008.8 157.52L 994.54 162.53L 978.14 168.31L 958.74 175.11L 935 183.46L 920.79 188.45L 904.39 194.19L 884.99 200.98L 861.25 209.27L 847.04 214.09L 830.64 219.92L 811.24 226.66L 787.5 234.86L 773.29 239.73L 756.89 245.39L 737.49 252.1L 713.75 260.21L 699.54 264.98L 683.14 270.35L 663.74 276.94L 640 284.88L 625.79 289.36L 609.39 294.85L 589.99 301.26L 566.25 309.37L 552.04 313.69L 535.64 320.22L 516.24 328.74L 492.5 338.23L 478.29 344.52L 461.89 350.71L 442.49 357.57L 418.75 366.03L 404.54 371.01L 388.14 376.77L 368.74 383.53L 345 391.93L 330.79 396.85L 314.39 402.66L 294.99 407.9L 271.25 414.41L 257.04 412.4L 240.64 413.46L 221.24 418.28L 197.5 421.87L 166.89 421.83L 123.75 426.93L 50 413.52" fill="#FF3B30" fill-opacity="0.30196078431372547" stroke="none"/>
    <path d="M 50 276.48L 123.75 274.71L 166.89 274.02L 197.5 272.11L 221.24 271.33L 240.64 270.32L 257.04 270.31L 271.25 269.24L 294.99 267.62L 314.39 265.92L 330.79 264.34L 345 262.65L 368.74 259.98L 388.14 257.38L 404.54 254.82L 418.75 252.4L 442.49 247.69L 461.89 243.88L 478.29 240.16L 492.5 236.92L 516.24 229.22L 535.64 225.73L 552.04 221.17L 566.25 217.21L 589.99 207.38L 609.39 204.18L 625.79 198.89L 640 194.53L 663.74 183.34L 683.14 180.18L 699.54 174.79L 713.75 169.98L 737.49 158.28L 756.89 155.53L 773.29 150.08L 787.5 144.75L 811.24 133.07L 830.64 130.24L 847.04 124.63L 861.25 119.2L 884.99 106.76L 904.39 103.32L 920.79 97.272L 935 92.4L 958.74 79.105L 978.14 76.58L 994.54 70.571L 1008.8 65.924L 1032.5 52.891L 1051.9 50.589L 1068.3 44.671L 1082.5 39.686L 1106.2 26.767" fill="none" stroke-width="4" stroke="#007AFF" stroke-opacity="1" stroke-linecap="round" stroke-linejoin="round"/>
    <path d="M 50 413.52L 123.75 426.93L 166.89 421.83L 197.5 421.87L 221.24 418.28L 240.64 412.85L 257.04 411.89L 271.25 412.54L 294.99 407.25L 314.39 402.43L 330.79 396.67L 345 391.93L 368.74 383.53L 388.14 376.77L 404.54 370.96L 418.75 365.97L 442.49 356.77L 461.89 349.53L 478.29 344.13L 492.5 337.86L 516.24 328.4L 535.64 320.19L 552.04 313.69L 566.25 309.28L 589.99 301.19L 609.39 294.84L 625.79 288.87L 640 284.83L 663.74 276.88L 683.14 269.77L 699.54 264.9L 713.75 260.14L 737.49 252.08L 756.89 245.34L 773.29 239.54L 787.5 234.77L 811.24 226.56L 830.64 219.89L 847.04 214.06L 861.25 209.24L 884.99 200.97L 904.39 194.19L 920.79 188.39L 935 183.45L 958.74 175.08L 978.14 168.31L 994.54 162.52L 1008.8 157.51L 1032.5 149.14L 1051.9 142.05L 1068.3 136.16L 1082.5 131.39L 1106.2 122.97L 1125.6 116.28L 1142 110.53L 1156.2 105.5L 1180 97.082L 1199.4 90.14L 1215.8 84.515L 1230 79.48" fill="none" stroke-width="4" stroke="#FF3B30" stroke-opacity="1" stroke-linecap="round" stroke-linejoin="round"/>
    <path d="M 50 276.48L 123.75 274.71L 166.89 274.02L 197.5 272.11L 221.24 271.33L 240.64 270.32L 257.04 270.31L 271.25 269.24L 294.99 267.62L 314.39 265.92L 330.79 264.34L 345 262.65L 368.74 259.98L 388.14 257.38L 404.54 254.82L 418.75 252.4L 442.49 247.69L 461.89 243.88L 478.29 240.16L 492.5 236.92L 516.24 229.22L 535.64 225.73L 552.04 221.17L 566.25 217.21L 589.99 207.38L 609.39 204.18L 625.79 198.89L 640 194.53L 663.74 183.34L 683.14 180.18L 699.54 174.79L 713.75 169.98L 737.49 158.28L 756.89 155.53L 773.29 150.08L 787.5 144.75L 811.24 133.07L 830.64 130.24L 847.04 124.63L 861.25 119.2L 884.99 106.76L 904.39 103.32L 920.79 97.272L 935 92.4L 958.74 79.105L 978.14 76.58L 994.54 70.571L 1008.8 65.924L 1032.5 52.891L 1051.9 50.589L 1068.3 44.671L 1082.5 39.686L 1106.2 26.767" fill="none" stroke-width="0.5" stroke="#000000" stroke-opacity="0.30196" stroke-linecap="round" stroke-linejoin="round"/>
    <path d="M 50 413.52L 123.75 426.93L 166.89 421.83L 197.5 421.87L 221.24 418.28L 240.64 412.85L 257.04 411.89L 271.25 412.54L 294.99 407.25L 314.39 402.43L 330.79 396.67L 345 391.93L 368.74 383.53L 388.14 376.77L 404.54 370.96L 418.75 365.97L 442.49 356.77L 461.89 349.53L 478.29 344.13L 492.5 337.86L 516.24 328.4L 535.64 320.19L 552.04 313.69L 566.25 309.28L 589.99 301.19L 609.39 294.84L 625.79 288.87L 640 284.83L 663.74 276.88L 683.14 269.77L 699.54 264.9L 713.75 260.14L 737.49 252.08L 756.89 245.34L 773.29 239.54L 787.5 234.77L 811.24 226.56L 830.64 219.89L 847.04 214.06L 861.25 209.24L 884.99 200.97L 904.39 194.19L 920.79 188.39L 935 183.45L 958.74 175.08L 978.14 168.31L 994.54 162.52L 1008.8 157.51L 1032.5 149.14L 1051.9 142.05L 1068.3 136.16L 1082.5 131.39L 1106.2 122.97L 1125.6 116.28L 1142 110.53L 1156.2 105.5L 1180 97.082L 1199.4 90.14L 1215.8 84.515L 1230 79.48" fill="none" stroke-width="0.5" stroke="#000000" stroke-opacity="0.30196" stroke-linecap="round" stroke-linejoin="round"/>
  </g>
  <path d="M 74 33 L 74 88 L 377 88 L 377 33 z" fill="#FFFFFF" fill-opacity="0.7019607843137254" stroke-width="0.5" stroke="#000000" stroke-opacity="1" stroke-linecap="round" stroke-linejoin="round"/>
  <path d="M 88 52 L 108 52" fill="none" stroke-width="4" stroke="#FF3B30" stroke-opacity="1" stroke-linecap="round" stroke-linejoin="round"/>
  <path d="M 88 52 L 108 52" fill="none" stroke-width="0.5" stroke="#000000" stroke-opacity="0.30196" stroke-linecap="round" stroke-linejoin="round"/>
  <text x="119" y="56.17" font-family="Menlo" font-size="12" font-weight="normal" font-style="normal" fill="#000000" fill-opacity="1">Array&lt;Int&gt; successful contains</text>
  <path d="M 88 69 L 108 69" fill="none" stroke-width="4" stroke="#007AFF" stroke-opacity="1" stroke-linecap="round" stroke-linejoin="round"/>
  <path d="M 88 69 L 108 69" fill="none" stroke-width="0.5" stroke="#000000" stroke-opacity="0.30196" stroke-linecap="round" stroke-linejoin="round"/>
  <text x="119" y="73.17" font-family="Menlo" font-size="12" font-weight="normal" font-style="normal" fill="#000000" fill-opacity="1">TreeArray&lt;Int&gt; successful contains</text>
  <path d="M 50 9 L 50 441 L 1230 441 L 1230 9 z" fill="none" stroke-width="0.5" stroke="#000000" stroke-opacity="1" stroke-linecap="round" stroke-linejoin="round"/>
</svg>
