<!DOCTYPE svg PUBLIC "-//W3C//DTD SVG 1.1//EN" "http://www.w3.org/Graphics/SVG/1.1/DTD/svg11.dtd">
<svg width="1280.0px" height="480.0px" viewBox="0.0 0.0 1280.0 480.0" xmlns="http://www.w3.org/2000/svg" xmlns:xlink="http://www.w3.org/1999/xlink" version="1.1">
  <path d="M 0 0 L 0 480 L 1280 480 L 1280 0 z" fill="#FFFFFF" fill-opacity="1.0" stroke="none"/>
  <text x="50" y="468.7" font-family="Helvetica" font-size="10" font-weight="normal" font-style="normal" fill="#000000" fill-opacity="1">Average per-element processing time over input size (bands: min, mean, mean + 2stddev)</text>
  <a xlink:href="https://github.com/apple/swift-collections-benchmark"><text x="1107" y="468.7" font-family="Helvetica" font-size="10" font-weight="normal" font-style="normal" fill="#000000" fill-opacity="1">swift-collections-benchmark</text></a>
  <path d="M 50 9 L 50 441" fill="none" stroke-width="0.75" stroke="#000000" stroke-opacity="0.49804" stroke-linecap="butt" stroke-linejoin="round"/>
  <text x="47" y="453.7" font-family="Helvetica" font-size="10" font-weight="normal" font-style="normal" fill="#000000" fill-opacity="1">1</text>
  <path d="M 123.75 9 L 123.75 441" fill="none" stroke-width="0.75" stroke="#000000" stroke-opacity="0.49804" stroke-linecap="butt" stroke-linejoin="round"/>
  <text x="120.75" y="453.7" font-family="Helvetica" font-size="10" font-weight="normal" font-style="normal" fill="#000000" fill-opacity="1">2</text>
  <path d="M 197.5 9 L 197.5 441" fill="none" stroke-width="0.75" stroke="#000000" stroke-opacity="0.49804" stroke-linecap="butt" stroke-linejoin="round"/>
  <text x="194.5" y="453.7" font-family="Helvetica" font-size="10" font-weight="normal" font-style="normal" fill="#000000" fill-opacity="1">4</text>
  <path d="M 271.25 9 L 271.25 441" fill="none" stroke-width="0.75" stroke="#000000" stroke-opacity="0.49804" stroke-linecap="butt" stroke-linejoin="round"/>
  <text x="268.25" y="453.7" font-family="Helvetica" font-size="10" font-weight="normal" font-style="normal" fill="#000000" fill-opacity="1">8</text>
  <path d="M 345 9 L 345 441" fill="none" stroke-width="0.75" stroke="#000000" stroke-opacity="0.49804" stroke-linecap="butt" stroke-linejoin="round"/>
  <text x="339" y="453.7" font-family="Helvetica" font-size="10" font-weight="normal" font-style="normal" fill="#000000" fill-opacity="1">16</text>
  <path d="M 418.75 9 L 418.75 441" fill="none" stroke-width="0.75" stroke="#000000" stroke-opacity="0.49804" stroke-linecap="butt" stroke-linejoin="round"/>
  <text x="412.75" y="453.7" font-family="Helvetica" font-size="10" font-weight="normal" font-style="normal" fill="#000000" fill-opacity="1">32</text>
  <path d="M 492.5 9 L 492.5 441" fill="none" stroke-width="0.75" stroke="#000000" stroke-opacity="0.49804" stroke-linecap="butt" stroke-linejoin="round"/>
  <text x="486.5" y="453.7" font-family="Helvetica" font-size="10" font-weight="normal" font-style="normal" fill="#000000" fill-opacity="1">64</text>
  <path d="M 566.25 9 L 566.25 441" fill="none" stroke-width="0.75" stroke="#000000" stroke-opacity="0.49804" stroke-linecap="butt" stroke-linejoin="round"/>
  <text x="557.75" y="453.7" font-family="Helvetica" font-size="10" font-weight="normal" font-style="normal" fill="#000000" fill-opacity="1">128</text>
  <path d="M 640 9 L 640 441" fill="none" stroke-width="0.75" stroke="#000000" stroke-opacity="0.49804" stroke-linecap="butt" stroke-linejoin="round"/>
  <text x="631.5" y="453.7" font-family="Helvetica" font-size="10" font-weight="normal" font-style="normal" fill="#000000" fill-opacity="1">256</text>
  <path d="M 713.75 9 L 713.75 441" fill="none" stroke-width="0.75" stroke="#000000" stroke-opacity="0.49804" stroke-linecap="butt" stroke-linejoin="round"/>
  <text x="705.25" y="453.7" font-family="Helvetica" font-size="10" font-weight="normal" font-style="normal" fill="#000000" fill-opacity="1">512</text>
  <path d="M 787.5 9 L 787.5 441" fill="none" stroke-width="0.75" stroke="#000000" stroke-opacity="0.49804" stroke-linecap="butt" stroke-linejoin="round"/>
  <text x="782" y="453.7" font-family="Helvetica" font-size="10" font-weight="normal" font-style="normal" fill="#000000" fill-opacity="1">1k</text>
  <path d="M 861.25 9 L 861.25 441" fill="none" stroke-width="0.75" stroke="#000000" stroke-opacity="0.49804" stroke-linecap="butt" stroke-linejoin="round"/>
  <text x="855.75" y="453.7" font-family="Helvetica" font-size="10" font-weight="normal" font-style="normal" fill="#000000" fill-opacity="1">2k</text>
  <path d="M 935 9 L 935 441" fill="none" stroke-width="0.75" stroke="#000000" stroke-opacity="0.49804" stroke-linecap="butt" stroke-linejoin="round"/>
  <text x="929.5" y="453.7" font-family="Helvetica" font-size="10" font-weight="normal" font-style="normal" fill="#000000" fill-opacity="1">4k</text>
  <path d="M 1008.8 9 L 1008.8 441" fill="none" stroke-width="0.75" stroke="#000000" stroke-opacity="0.49804" stroke-linecap="butt" stroke-linejoin="round"/>
  <text x="1003.2" y="453.7" font-family="Helvetica" font-size="10" font-weight="normal" font-style="normal" fill="#000000" fill-opacity="1">8k</text>
  <path d="M 1082.5 9 L 1082.5 441" fill="none" stroke-width="0.75" stroke="#000000" stroke-opacity="0.49804" stroke-linecap="butt" stroke-linejoin="round"/>
  <text x="1074" y="453.7" font-family="Helvetica" font-size="10" font-weight="normal" font-style="normal" fill="#000000" fill-opacity="1">16k</text>
  <path d="M 1156.2 9 L 1156.2 441" fill="none" stroke-width="0.75" stroke="#000000" stroke-opacity="0.49804" stroke-linecap="butt" stroke-linejoin="round"/>
  <text x="1147.8" y="453.7" font-family="Helvetica" font-size="10" font-weight="normal" font-style="normal" fill="#000000" fill-opacity="1">32k</text>
  <path d="M 1230 9 L 1230 441" fill="none" stroke-width="0.75" stroke="#000000" stroke-opacity="0.49804" stroke-linecap="butt" stroke-linejoin="round"/>
  <text x="1221.5" y="453.7" font-family="Helvetica" font-size="10" font-weight="normal" font-style="normal" fill="#000000" fill-opacity="1">64k</text>
  <path d="M 50 441 L 1230 441" fill="none" stroke-width="0.75" stroke="#000000" stroke-opacity="0.49804" stroke-linecap="butt" stroke-linejoin="round"/>
  <text x="27" y="442.7" font-family="Helvetica" font-size="10" font-weight="normal" font-style="normal" fill="#000000" fill-opacity="1">1 ns</text>
  <text x="1236" y="442.7" font-family="Helvetica" font-size="10" font-weight="normal" font-style="normal" fill="#000000" fill-opacity="1">1 ns</text>
  <path d="M 50 354.6 L 1230 354.6" fill="none" stroke-width="0.75" stroke="#000000" stroke-opacity="0.49804" stroke-linecap="butt" stroke-linejoin="round"/>
  <text x="21" y="356.3" font-family="Helvetica" font-size="10" font-weight="normal" font-style="normal" fill="#000000" fill-opacity="1">10 ns</text>
  <text x="1236" y="356.3" font-family="Helvetica" font-size="10" font-weight="normal" font-style="normal" fill="#000000" fill-opacity="1">10 ns</text>
  <path d="M 50 268.2 L 1230 268.2" fill="none" stroke-width="0.75" stroke="#000000" stroke-opacity="0.49804" stroke-linecap="butt" stroke-linejoin="round"/>
  <text x="16" y="269.9" font-family="Helvetica" font-size="10" font-weight="normal" font-style="normal" fill="#000000" fill-opacity="1">100 ns</text>
  <text x="1236" y="269.9" font-family="Helvetica" font-size="10" font-weight="normal" font-style="normal" fill="#000000" fill-opacity="1">100 ns</text>
  <path d="M 50 181.8 L 1230 181.8" fill="none" stroke-width="0.75" stroke="#000000" stroke-opacity="0.49804" stroke-linecap="butt" stroke-linejoin="round"/>
  <text x="26" y="183.5" font-family="Helvetica" font-size="10" font-weight="normal" font-style="normal" fill="#000000" fill-opacity="1">1 µs</text>
  <text x="1236" y="183.5" font-family="Helvetica" font-size="10" font-weight="normal" font-style="normal" fill="#000000" fill-opacity="1">1 µs</text>
  <path d="M 50 95.4 L 1230 95.4" fill="none" stroke-width="0.75" stroke="#000000" stroke-opacity="0.49804" stroke-linecap="butt" stroke-linejoin="round"/>
  <text x="21" y="97.1" font-family="Helvetica" font-size="10" font-weight="normal" font-style="normal" fill="#000000" fill-opacity="1">10 µs</text>
  <text x="1236" y="97.1" font-family="Helvetica" font-size="10" font-weight="normal" font-style="normal" fill="#000000" fill-opacity="1">10 µs</text>
  <path d="M 50 9 L 1230 9" fill="none" stroke-width="0.75" stroke="#000000" stroke-opacity="0.49804" stroke-linecap="butt" stroke-linejoin="round"/>
  <text x="15" y="10.7" font-family="Helvetica" font-size="10" font-weight="normal" font-style="normal" fill="#000000" fill-opacity="1">100 µs</text>
  <text x="1236" y="10.7" font-family="Helvetica" font-size="10" font-weight="normal" font-style="normal" fill="#000000" fill-opacity="1">100 µs</text>
  <path d="M 50 414.99 L 1230 414.99" fill="none" stroke-width="0.5" stroke="#000000" stroke-opacity="0.25882" stroke-linecap="butt" stroke-linejoin="round" stroke-dasharray="6 3" stroke-dashoffset="0"/>
  <path d="M 50 388.98 L 1230 388.98" fill="none" stroke-width="0.5" stroke="#000000" stroke-opacity="0.25882" stroke-linecap="butt" stroke-linejoin="round" stroke-dasharray="6 3" stroke-dashoffset="0"/>
  <path d="M 50 362.97 L 1230 362.97" fill="none" stroke-width="0.5" stroke="#000000" stroke-opacity="0.25882" stroke-linecap="butt" stroke-linejoin="round" stroke-dasharray="6 3" stroke-dashoffset="0"/>
  <path d="M 50 336.96 L 1230 336.96" fill="none" stroke-width="0.5" stroke="#000000" stroke-opacity="0.25882" stroke-linecap="butt" stroke-linejoin="round" stroke-dasharray="6 3" stroke-dashoffset="0"/>
  <path d="M 50 310.96 L 1230 310.96" fill="none" stroke-width="0.5" stroke="#000000" stroke-opacity="0.25882" stroke-linecap="butt" stroke-linejoin="round" stroke-dasharray="6 3" stroke-dashoffset="0"/>
  <path d="M 50 284.95 L 1230 284.95" fill="none" stroke-width="0.5" stroke="#000000" stroke-opacity="0.25882" stroke-linecap="butt" stroke-linejoin="round" stroke-dasharray="6 3" stroke-dashoffset="0"/>
  <path d="M 50 258.94 L 1230 258.94" fill="none" stroke-width="0.5" stroke="#000000" stroke-opacity="0.25882" stroke-linecap="butt" stroke-linejoin="round" stroke-dasharray="6 3" stroke-dashoffset="0"/>
  <path d="M 50 232.93 L 1230 232.93" fill="none" stroke-width="0.5" stroke="#000000" stroke-opacity="0.25882" stroke-linecap="butt" stroke-linejoin="round" stroke-dasharray="6 3" stroke-dashoffset="0"/>
  <path d="M 50 206.92 L 1230 206.92" fill="none" stroke-width="0.5" stroke="#000000" stroke-opacity="0.25882" stroke-linecap="butt" stroke-linejoin="round" stroke-dasharray="6 3" stroke-dashoffset="0"/>
  <path d="M 50 180.91 L 1230 180.91" fill="none" stroke-width="0.5" stroke="#000000" stroke-opacity="0.25882" stroke-linecap="butt" stroke-linejoin="round" stroke-dasharray="6 3" stroke-dashoffset="0"/>
  <path d="M 50 154.9 L 1230 154.9" fill="none" stroke-width="0.5" stroke="#000000" stroke-opacity="0.25882" stroke-linecap="butt" stroke-linejoin="round" stroke-dasharray="6 3" stroke-dashoffset="0"/>
  <path d="M 50 128.89 L 1230 128.89" fill="none" stroke-width="0.5" stroke="#000000" stroke-opacity="0.25882" stroke-linecap="butt" stroke-linejoin="round" stroke-dasharray="6 3" stroke-dashoffset="0"/>
  <path d="M 50 102.88 L 1230 102.88" fill="none" stroke-width="0.5" stroke="#000000" stroke-opacity="0.25882" stroke-linecap="butt" stroke-linejoin="round" stroke-dasharray="6 3" stroke-dashoffset="0"/>
  <path d="M 50 76.874 L 1230 76.874" fill="none" stroke-width="0.5" stroke="#000000" stroke-opacity="0.25882" stroke-linecap="butt" stroke-linejoin="round" stroke-dasharray="6 3" stroke-dashoffset="0"/>
  <path d="M 50 50.865 L 1230 50.865" fill="none" stroke-width="0.5" stroke="#000000" stroke-opacity="0.25882" stroke-linecap="butt" stroke-linejoin="round" stroke-dasharray="6 3" stroke-dashoffset="0"/>
  <path d="M 50 24.856 L 1230 24.856" fill="none" stroke-width="0.5" stroke="#000000" stroke-opacity="0.25882" stroke-linecap="butt" stroke-linejoin="round" stroke-dasharray="6 3" stroke-dashoffset="0"/>
  <path d="M 74 33 L 74 88 L 377 88 L 377 33 z" fill="#FFFFFF" fill-opacity="1.0" stroke="none"/>
  <clipPath id="clip-0">
    <path d="M 50 9 L 50 441 L 1230 441 L 1230 9 z"/>
  </clipPath>
  <g clip-path="url(#clip-0)">
    <path d="M 50 263.54L 123.75 265.31L 166.89 264.2L 197.5 262.08L 221.24 260.84L 240.64 259.75L 257.04 260.46L 271.25 260.14L 294.99 258.69L 314.39 256.92L 330.79 235.92L 345 254.09L 368.74 252.24L 388.14 250.77L 404.54 246.88L 418.75 246.07L 442.49 242.35L 461.89 237.9L 478.29 220.65L 492.5 233.12L 516.24 228.2L 535.64 220.13L 552.04 212.37L 566.25 212.42L 589.99 207.58L 609.39 199.89L 625.79 196.43L 640 189.75L 663.74 181.57L 683.14 174.67L 699.54 164.66L 713.75 165.26L 737.49 154.86L 756.89 144.67L 773.29 139.39L 787.5 134.32L 811.24 126.54L 830.64 115.16L 847.04 109.39L 861.25 103.74L 884.99 94.146L 904.39 83.44L 920.79 77.676L 935 71.354L 958.74 61.139L 978.14 53.85L 994.54 47.228L 1008.8 41.369L 1032.5 31.453L 1051.9 24.357L 1068.3 17.966L 1068.3 18.172L 1051.9 24.755L 1032.5 32.514L 1008.8 41.645L 994.54 48.002L 978.14 54.118L 958.74 62.808L 935 73.101L 920.79 79.182L 904.39 86.735L 884.99 95.229L 861.25 106.44L 847.04 111.76L 830.64 119.1L 811.24 127.12L 787.5 136.13L 773.29 143.73L 756.89 149.46L 737.49 156.68L 713.75 165.49L 699.54 171.85L 683.14 175.35L 663.74 182.72L 640 193.13L 625.79 198.02L 609.39 202.25L 589.99 208.05L 566.25 216.27L 552.04 215.32L 535.64 224.99L 516.24 228.5L 492.5 233.87L 478.29 236.91L 461.89 239.8L 442.49 242.51L 418.75 247.62L 404.54 249.14L 388.14 251.11L 368.74 253.82L 345 257.34L 330.79 256.56L 314.39 258.6L 294.99 261.36L 271.25 261.8L 257.04 262.53L 240.64 263.3L 221.24 265.17L 197.5 264.98L 166.89 265.2L 123.75 266.15L 50 267.73" fill="#007AFF" fill-opacity="0.30196078431372547" stroke="none"/>
    <path d="M 50 413.52L 123.75 426.68L 166.89 425.12L 197.5 419.82L 221.24 415.13L 240.64 413.46L 257.04 412.4L 271.25 410.72L 294.99 405.46L 314.39 401.77L 330.79 396.84L 345 391.93L 368.74 383.53L 388.14 376.67L 404.54 370.92L 418.75 363.83L 442.49 355.42L 461.89 343.83L 478.29 338.75L 492.5 334.03L 516.24 324.69L 535.64 317.46L 552.04 312.85L 566.25 308.05L 589.99 300.77L 609.39 294.41L 625.79 289.19L 640 284.21L 663.74 276.62L 683.14 269.86L 699.54 264.69L 713.75 259.46L 737.49 251.9L 756.89 245.14L 773.29 239.62L 787.5 234.28L 811.24 225.32L 830.64 219.59L 847.04 213.87L 861.25 208.92L 884.99 199.64L 904.39 193.16L 920.79 188.06L 935 183.32L 958.74 174.86L 978.14 168.21L 994.54 162.28L 1008.8 157.32L 1032.5 148.56L 1051.9 142.08L 1068.3 136.36L 1082.5 131.04L 1106.2 122.85L 1125.6 116.04L 1142 110.15L 1156.2 105.41L 1180 96.688L 1199.4 89.835L 1215.8 83.479L 1230 79.225L 1230 79.288L 1215.8 84.332L 1199.4 90.36L 1180 97.158L 1156.2 105.47L 1142 110.45L 1125.6 116.1L 1106.2 123.07L 1082.5 131.36L 1068.3 136.39L 1051.9 142.25L 1032.5 149.11L 1008.8 157.45L 994.54 162.53L 978.14 168.31L 958.74 175.09L 935 183.34L 920.79 188.3L 904.39 194.11L 884.99 200.97L 861.25 209.27L 847.04 214.22L 830.64 219.93L 811.24 226.65L 787.5 234.84L 773.29 239.77L 756.89 245.37L 737.49 251.93L 713.75 260.07L 699.54 264.87L 683.14 270.08L 663.74 276.93L 640 284.36L 625.79 289.22L 609.39 294.46L 589.99 300.81L 566.25 308.48L 552.04 313.15L 535.64 318.68L 516.24 325.17L 492.5 335.15L 478.29 342.31L 461.89 349.81L 442.49 356.2L 418.75 365.92L 404.54 370.92L 388.14 376.89L 368.74 383.53L 345 391.93L 330.79 396.84L 314.39 402.67L 294.99 406.62L 271.25 410.76L 257.04 412.4L 240.64 413.46L 221.24 418.28L 197.5 424.25L 166.89 425.12L 123.75 426.93L 50 413.52" fill="#FF3B30" fill-opacity="0.30196078431372547" stroke="none"/>
    <path d="M 50 266.59L 123.75 265.93L 166.89 264.93L 197.5 264.2L 221.24 263.99L 240.64 262.34L 257.04 261.98L 271.25 261.36L 294.99 260.64L 314.39 258.15L 330.79 249.98L 345 256.46L 368.74 253.4L 388.14 251.02L 404.54 248.54L 418.75 247.21L 442.49 242.47L 461.89 239.29L 478.29 231.94L 492.5 233.68L 516.24 228.42L 535.64 223.66L 552.04 214.53L 566.25 215.22L 589.99 207.92L 609.39 201.62L 625.79 197.6L 640 192.22L 663.74 182.42L 683.14 175.17L 699.54 169.84L 713.75 165.43L 737.49 156.19L 756.89 148.15L 773.29 142.55L 787.5 135.65L 811.24 126.96L 830.64 118.03L 847.04 111.13L 861.25 105.72L 884.99 94.943L 904.39 85.846L 920.79 78.782L 935 72.637L 958.74 62.365L 978.14 54.048L 994.54 47.798L 1008.8 41.573L 1032.5 32.234L 1051.9 24.65L 1068.3 18.118" fill="none" stroke-width="4" stroke="#007AFF" stroke-opacity="1" stroke-linecap="round" stroke-linejoin="round"/>
    <path d="M 50 413.52L 123.75 426.86L 166.89 425.12L 197.5 423.04L 221.24 417.43L 240.64 413.46L 257.04 412.4L 271.25 410.75L 294.99 406.31L 314.39 402.43L 330.79 396.84L 345 391.93L 368.74 383.53L 388.14 376.83L 404.54 370.92L 418.75 365.36L 442.49 355.99L 461.89 348.15L 478.29 341.34L 492.5 334.86L 516.24 325.04L 535.64 318.36L 552.04 313.08L 566.25 308.37L 589.99 300.8L 609.39 294.45L 625.79 289.21L 640 284.32L 663.74 276.85L 683.14 270.02L 699.54 264.82L 713.75 259.91L 737.49 251.92L 756.89 245.31L 773.29 239.73L 787.5 234.69L 811.24 226.3L 830.64 219.84L 847.04 214.13L 861.25 209.18L 884.99 200.62L 904.39 193.86L 920.79 188.24L 935 183.33L 958.74 175.03L 978.14 168.28L 994.54 162.46L 1008.8 157.42L 1032.5 148.96L 1051.9 142.2L 1068.3 136.38L 1082.5 131.28L 1106.2 123.01L 1125.6 116.08L 1142 110.37L 1156.2 105.46L 1180 97.035L 1199.4 90.222L 1215.8 84.108L 1230 79.271" fill="none" stroke-width="4" stroke="#FF3B30" stroke-opacity="1" stroke-linecap="round" stroke-linejoin="round"/>
    <path d="M 50 266.59L 123.75 265.93L 166.89 264.93L 197.5 264.2L 221.24 263.99L 240.64 262.34L 257.04 261.98L 271.25 261.36L 294.99 260.64L 314.39 258.15L 330.79 249.98L 345 256.46L 368.74 253.4L 388.14 251.02L 404.54 248.54L 418.75 247.21L 442.49 242.47L 461.89 239.29L 478.29 231.94L 492.5 233.68L 516.24 228.42L 535.64 223.66L 552.04 214.53L 566.25 215.22L 589.99 207.92L 609.39 201.62L 625.79 197.6L 640 192.22L 663.74 182.42L 683.14 175.17L 699.54 169.84L 713.75 165.43L 737.49 156.19L 756.89 148.15L 773.29 142.55L 787.5 135.65L 811.24 126.96L 830.64 118.03L 847.04 111.13L 861.25 105.72L 884.99 94.943L 904.39 85.846L 920.79 78.782L 935 72.637L 958.74 62.365L 978.14 54.048L 994.54 47.798L 1008.8 41.573L 1032.5 32.234L 1051.9 24.65L 1068.3 18.118" fill="none" stroke-width="0.5" stroke="#000000" stroke-opacity="0.30196" stroke-linecap="round" stroke-linejoin="round"/>
    <path d="M 50 413.52L 123.75 426.86L 166.89 425.12L 197.5 423.04L 221.24 417.43L 240.64 413.46L 257.04 412.4L 271.25 410.75L 294.99 406.31L 314.39 402.43L 330.79 396.84L 345 391.93L 368.74 383.53L 388.14 376.83L 404.54 370.92L 418.75 365.36L 442.49 355.99L 461.89 348.15L 478.29 341.34L 492.5 334.86L 516.24 325.04L 535.64 318.36L 552.04 313.08L 566.25 308.37L 589.99 300.8L 609.39 294.45L 625.79 289.21L 640 284.32L 663.74 276.85L 683.14 270.02L 699.54 264.82L 713.75 259.91L 737.49 251.92L 756.89 245.31L 773.29 239.73L 787.5 234.69L 811.24 226.3L 830.64 219.84L 847.04 214.13L 861.25 209.18L 884.99 200.62L 904.39 193.86L 920.79 188.24L 935 183.33L 958.74 175.03L 978.14 168.28L 994.54 162.46L 1008.8 157.42L 1032.5 148.96L 1051.9 142.2L 1068.3 136.38L 1082.5 131.28L 1106.2 123.01L 1125.6 116.08L 1142 110.37L 1156.2 105.46L 1180 97.035L 1199.4 90.222L 1215.8 84.108L 1230 79.271" fill="none" stroke-width="0.5" stroke="#000000" stroke-opacity="0.30196" stroke-linecap="round" stroke-linejoin="round"/>
  </g>
  <path d="M 74 33 L 74 88 L 377 88 L 377 33 z" fill="#FFFFFF" fill-opacity="0.7019607843137254" stroke-width="0.5" stroke="#000000" stroke-opacity="1" stroke-linecap="round" stroke-linejoin="round"/>
  <path d="M 88 52 L 108 52" fill="none" stroke-width="4" stroke="#FF3B30" stroke-opacity="1" stroke-linecap="round" stroke-linejoin="round"/>
  <path d="M 88 52 L 108 52" fill="none" stroke-width="0.5" stroke="#000000" stroke-opacity="0.30196" stroke-linecap="round" stroke-linejoin="round"/>
  <text x="119" y="56.17" font-family="Menlo" font-size="12" font-weight="normal" font-style="normal" fill="#000000" fill-opacity="1">Array&lt;Int&gt; successful contains</text>
  <path d="M 88 69 L 108 69" fill="none" stroke-width="4" stroke="#007AFF" stroke-opacity="1" stroke-linecap="round" stroke-linejoin="round"/>
  <path d="M 88 69 L 108 69" fill="none" stroke-width="0.5" stroke="#000000" stroke-opacity="0.30196" stroke-linecap="round" stroke-linejoin="round"/>
  <text x="119" y="73.17" font-family="Menlo" font-size="12" font-weight="normal" font-style="normal" fill="#000000" fill-opacity="1">TreeArray&lt;Int&gt; successful contains</text>
  <path d="M 50 9 L 50 441 L 1230 441 L 1230 9 z" fill="none" stroke-width="0.5" stroke="#000000" stroke-opacity="1" stroke-linecap="round" stroke-linejoin="round"/>
</svg>
