<!DOCTYPE svg PUBLIC "-//W3C//DTD SVG 1.1//EN" "http://www.w3.org/Graphics/SVG/1.1/DTD/svg11.dtd">
<svg width="1280.0px" height="480.0px" viewBox="0.0 0.0 1280.0 480.0" xmlns="http://www.w3.org/2000/svg" xmlns:xlink="http://www.w3.org/1999/xlink" version="1.1">
  <path d="M 0 0 L 0 480 L 1280 480 L 1280 0 z" fill="#FFFFFF" fill-opacity="1.0" stroke="none"/>
  <text x="50" y="468.7" font-family="Helvetica" font-size="10" font-weight="normal" font-style="normal" fill="#000000" fill-opacity="1">Average per-element processing time over input size (bands: min, mean, mean + 2stddev)</text>
  <a xlink:href="https://github.com/apple/swift-collections-benchmark"><text x="1107" y="468.7" font-family="Helvetica" font-size="10" font-weight="normal" font-style="normal" fill="#000000" fill-opacity="1">swift-collections-benchmark</text></a>
  <path d="M 50 9 L 50 441" fill="none" stroke-width="0.75" stroke="#000000" stroke-opacity="0.49804" stroke-linecap="butt" stroke-linejoin="round"/>
  <text x="47" y="453.7" font-family="Helvetica" font-size="10" font-weight="normal" font-style="normal" fill="#000000" fill-opacity="1">1</text>
  <path d="M 119.41 9 L 119.41 441" fill="none" stroke-width="0.75" stroke="#000000" stroke-opacity="0.49804" stroke-linecap="butt" stroke-linejoin="round"/>
  <text x="116.41" y="453.7" font-family="Helvetica" font-size="10" font-weight="normal" font-style="normal" fill="#000000" fill-opacity="1">2</text>
  <path d="M 188.82 9 L 188.82 441" fill="none" stroke-width="0.75" stroke="#000000" stroke-opacity="0.49804" stroke-linecap="butt" stroke-linejoin="round"/>
  <text x="185.82" y="453.7" font-family="Helvetica" font-size="10" font-weight="normal" font-style="normal" fill="#000000" fill-opacity="1">4</text>
  <path d="M 258.24 9 L 258.24 441" fill="none" stroke-width="0.75" stroke="#000000" stroke-opacity="0.49804" stroke-linecap="butt" stroke-linejoin="round"/>
  <text x="255.24" y="453.7" font-family="Helvetica" font-size="10" font-weight="normal" font-style="normal" fill="#000000" fill-opacity="1">8</text>
  <path d="M 327.65 9 L 327.65 441" fill="none" stroke-width="0.75" stroke="#000000" stroke-opacity="0.49804" stroke-linecap="butt" stroke-linejoin="round"/>
  <text x="321.65" y="453.7" font-family="Helvetica" font-size="10" font-weight="normal" font-style="normal" fill="#000000" fill-opacity="1">16</text>
  <path d="M 397.06 9 L 397.06 441" fill="none" stroke-width="0.75" stroke="#000000" stroke-opacity="0.49804" stroke-linecap="butt" stroke-linejoin="round"/>
  <text x="391.06" y="453.7" font-family="Helvetica" font-size="10" font-weight="normal" font-style="normal" fill="#000000" fill-opacity="1">32</text>
  <path d="M 466.47 9 L 466.47 441" fill="none" stroke-width="0.75" stroke="#000000" stroke-opacity="0.49804" stroke-linecap="butt" stroke-linejoin="round"/>
  <text x="460.47" y="453.7" font-family="Helvetica" font-size="10" font-weight="normal" font-style="normal" fill="#000000" fill-opacity="1">64</text>
  <path d="M 535.88 9 L 535.88 441" fill="none" stroke-width="0.75" stroke="#000000" stroke-opacity="0.49804" stroke-linecap="butt" stroke-linejoin="round"/>
  <text x="527.38" y="453.7" font-family="Helvetica" font-size="10" font-weight="normal" font-style="normal" fill="#000000" fill-opacity="1">128</text>
  <path d="M 605.29 9 L 605.29 441" fill="none" stroke-width="0.75" stroke="#000000" stroke-opacity="0.49804" stroke-linecap="butt" stroke-linejoin="round"/>
  <text x="596.79" y="453.7" font-family="Helvetica" font-size="10" font-weight="normal" font-style="normal" fill="#000000" fill-opacity="1">256</text>
  <path d="M 674.71 9 L 674.71 441" fill="none" stroke-width="0.75" stroke="#000000" stroke-opacity="0.49804" stroke-linecap="butt" stroke-linejoin="round"/>
  <text x="666.21" y="453.7" font-family="Helvetica" font-size="10" font-weight="normal" font-style="normal" fill="#000000" fill-opacity="1">512</text>
  <path d="M 744.12 9 L 744.12 441" fill="none" stroke-width="0.75" stroke="#000000" stroke-opacity="0.49804" stroke-linecap="butt" stroke-linejoin="round"/>
  <text x="738.62" y="453.7" font-family="Helvetica" font-size="10" font-weight="normal" font-style="normal" fill="#000000" fill-opacity="1">1k</text>
  <path d="M 813.53 9 L 813.53 441" fill="none" stroke-width="0.75" stroke="#000000" stroke-opacity="0.49804" stroke-linecap="butt" stroke-linejoin="round"/>
  <text x="808.03" y="453.7" font-family="Helvetica" font-size="10" font-weight="normal" font-style="normal" fill="#000000" fill-opacity="1">2k</text>
  <path d="M 882.94 9 L 882.94 441" fill="none" stroke-width="0.75" stroke="#000000" stroke-opacity="0.49804" stroke-linecap="butt" stroke-linejoin="round"/>
  <text x="877.44" y="453.7" font-family="Helvetica" font-size="10" font-weight="normal" font-style="normal" fill="#000000" fill-opacity="1">4k</text>
  <path d="M 952.35 9 L 952.35 441" fill="none" stroke-width="0.75" stroke="#000000" stroke-opacity="0.49804" stroke-linecap="butt" stroke-linejoin="round"/>
  <text x="946.85" y="453.7" font-family="Helvetica" font-size="10" font-weight="normal" font-style="normal" fill="#000000" fill-opacity="1">8k</text>
  <path d="M 1021.8 9 L 1021.8 441" fill="none" stroke-width="0.75" stroke="#000000" stroke-opacity="0.49804" stroke-linecap="butt" stroke-linejoin="round"/>
  <text x="1013.3" y="453.7" font-family="Helvetica" font-size="10" font-weight="normal" font-style="normal" fill="#000000" fill-opacity="1">16k</text>
  <path d="M 1091.2 9 L 1091.2 441" fill="none" stroke-width="0.75" stroke="#000000" stroke-opacity="0.49804" stroke-linecap="butt" stroke-linejoin="round"/>
  <text x="1082.7" y="453.7" font-family="Helvetica" font-size="10" font-weight="normal" font-style="normal" fill="#000000" fill-opacity="1">32k</text>
  <path d="M 1160.6 9 L 1160.6 441" fill="none" stroke-width="0.75" stroke="#000000" stroke-opacity="0.49804" stroke-linecap="butt" stroke-linejoin="round"/>
  <text x="1152.1" y="453.7" font-family="Helvetica" font-size="10" font-weight="normal" font-style="normal" fill="#000000" fill-opacity="1">64k</text>
  <path d="M 1230 9 L 1230 441" fill="none" stroke-width="0.75" stroke="#000000" stroke-opacity="0.49804" stroke-linecap="butt" stroke-linejoin="round"/>
  <text x="1219" y="453.7" font-family="Helvetica" font-size="10" font-weight="normal" font-style="normal" fill="#000000" fill-opacity="1">128k</text>
  <path d="M 50 441 L 1230 441" fill="none" stroke-width="0.75" stroke="#000000" stroke-opacity="0.49804" stroke-linecap="butt" stroke-linejoin="round"/>
  <text x="27" y="442.7" font-family="Helvetica" font-size="10" font-weight="normal" font-style="normal" fill="#000000" fill-opacity="1">1 ns</text>
  <text x="1236" y="442.7" font-family="Helvetica" font-size="10" font-weight="normal" font-style="normal" fill="#000000" fill-opacity="1">1 ns</text>
  <path d="M 50 354.6 L 1230 354.6" fill="none" stroke-width="0.75" stroke="#000000" stroke-opacity="0.49804" stroke-linecap="butt" stroke-linejoin="round"/>
  <text x="21" y="356.3" font-family="Helvetica" font-size="10" font-weight="normal" font-style="normal" fill="#000000" fill-opacity="1">10 ns</text>
  <text x="1236" y="356.3" font-family="Helvetica" font-size="10" font-weight="normal" font-style="normal" fill="#000000" fill-opacity="1">10 ns</text>
  <path d="M 50 268.2 L 1230 268.2" fill="none" stroke-width="0.75" stroke="#000000" stroke-opacity="0.49804" stroke-linecap="butt" stroke-linejoin="round"/>
  <text x="16" y="269.9" font-family="Helvetica" font-size="10" font-weight="normal" font-style="normal" fill="#000000" fill-opacity="1">100 ns</text>
  <text x="1236" y="269.9" font-family="Helvetica" font-size="10" font-weight="normal" font-style="normal" fill="#000000" fill-opacity="1">100 ns</text>
  <path d="M 50 181.8 L 1230 181.8" fill="none" stroke-width="0.75" stroke="#000000" stroke-opacity="0.49804" stroke-linecap="butt" stroke-linejoin="round"/>
  <text x="26" y="183.5" font-family="Helvetica" font-size="10" font-weight="normal" font-style="normal" fill="#000000" fill-opacity="1">1 µs</text>
  <text x="1236" y="183.5" font-family="Helvetica" font-size="10" font-weight="normal" font-style="normal" fill="#000000" fill-opacity="1">1 µs</text>
  <path d="M 50 95.4 L 1230 95.4" fill="none" stroke-width="0.75" stroke="#000000" stroke-opacity="0.49804" stroke-linecap="butt" stroke-linejoin="round"/>
  <text x="21" y="97.1" font-family="Helvetica" font-size="10" font-weight="normal" font-style="normal" fill="#000000" fill-opacity="1">10 µs</text>
  <text x="1236" y="97.1" font-family="Helvetica" font-size="10" font-weight="normal" font-style="normal" fill="#000000" fill-opacity="1">10 µs</text>
  <path d="M 50 9 L 1230 9" fill="none" stroke-width="0.75" stroke="#000000" stroke-opacity="0.49804" stroke-linecap="butt" stroke-linejoin="round"/>
  <text x="15" y="10.7" font-family="Helvetica" font-size="10" font-weight="normal" font-style="normal" fill="#000000" fill-opacity="1">100 µs</text>
  <text x="1236" y="10.7" font-family="Helvetica" font-size="10" font-weight="normal" font-style="normal" fill="#000000" fill-opacity="1">100 µs</text>
  <path d="M 50 414.99 L 1230 414.99" fill="none" stroke-width="0.5" stroke="#000000" stroke-opacity="0.25882" stroke-linecap="butt" stroke-linejoin="round" stroke-dasharray="6 3" stroke-dashoffset="0"/>
  <path d="M 50 388.98 L 1230 388.98" fill="none" stroke-width="0.5" stroke="#000000" stroke-opacity="0.25882" stroke-linecap="butt" stroke-linejoin="round" stroke-dasharray="6 3" stroke-dashoffset="0"/>
  <path d="M 50 362.97 L 1230 362.97" fill="none" stroke-width="0.5" stroke="#000000" stroke-opacity="0.25882" stroke-linecap="butt" stroke-linejoin="round" stroke-dasharray="6 3" stroke-dashoffset="0"/>
  <path d="M 50 336.96 L 1230 336.96" fill="none" stroke-width="0.5" stroke="#000000" stroke-opacity="0.25882" stroke-linecap="butt" stroke-linejoin="round" stroke-dasharray="6 3" stroke-dashoffset="0"/>
  <path d="M 50 310.96 L 1230 310.96" fill="none" stroke-width="0.5" stroke="#000000" stroke-opacity="0.25882" stroke-linecap="butt" stroke-linejoin="round" stroke-dasharray="6 3" stroke-dashoffset="0"/>
  <path d="M 50 284.95 L 1230 284.95" fill="none" stroke-width="0.5" stroke="#000000" stroke-opacity="0.25882" stroke-linecap="butt" stroke-linejoin="round" stroke-dasharray="6 3" stroke-dashoffset="0"/>
  <path d="M 50 258.94 L 1230 258.94" fill="none" stroke-width="0.5" stroke="#000000" stroke-opacity="0.25882" stroke-linecap="butt" stroke-linejoin="round" stroke-dasharray="6 3" stroke-dashoffset="0"/>
  <path d="M 50 232.93 L 1230 232.93" fill="none" stroke-width="0.5" stroke="#000000" stroke-opacity="0.25882" stroke-linecap="butt" stroke-linejoin="round" stroke-dasharray="6 3" stroke-dashoffset="0"/>
  <path d="M 50 206.92 L 1230 206.92" fill="none" stroke-width="0.5" stroke="#000000" stroke-opacity="0.25882" stroke-linecap="butt" stroke-linejoin="round" stroke-dasharray="6 3" stroke-dashoffset="0"/>
  <path d="M 50 180.91 L 1230 180.91" fill="none" stroke-width="0.5" stroke="#000000" stroke-opacity="0.25882" stroke-linecap="butt" stroke-linejoin="round" stroke-dasharray="6 3" stroke-dashoffset="0"/>
  <path d="M 50 154.9 L 1230 154.9" fill="none" stroke-width="0.5" stroke="#000000" stroke-opacity="0.25882" stroke-linecap="butt" stroke-linejoin="round" stroke-dasharray="6 3" stroke-dashoffset="0"/>
  <path d="M 50 128.89 L 1230 128.89" fill="none" stroke-width="0.5" stroke="#000000" stroke-opacity="0.25882" stroke-linecap="butt" stroke-linejoin="round" stroke-dasharray="6 3" stroke-dashoffset="0"/>
  <path d="M 50 102.88 L 1230 102.88" fill="none" stroke-width="0.5" stroke="#000000" stroke-opacity="0.25882" stroke-linecap="butt" stroke-linejoin="round" stroke-dasharray="6 3" stroke-dashoffset="0"/>
  <path d="M 50 76.874 L 1230 76.874" fill="none" stroke-width="0.5" stroke="#000000" stroke-opacity="0.25882" stroke-linecap="butt" stroke-linejoin="round" stroke-dasharray="6 3" stroke-dashoffset="0"/>
  <path d="M 50 50.865 L 1230 50.865" fill="none" stroke-width="0.5" stroke="#000000" stroke-opacity="0.25882" stroke-linecap="butt" stroke-linejoin="round" stroke-dasharray="6 3" stroke-dashoffset="0"/>
  <path d="M 50 24.856 L 1230 24.856" fill="none" stroke-width="0.5" stroke="#000000" stroke-opacity="0.25882" stroke-linecap="butt" stroke-linejoin="round" stroke-dasharray="6 3" stroke-dashoffset="0"/>
  <path d="M 74 33 L 74 122 L 464 122 L 464 33 z" fill="#FFFFFF" fill-opacity="1.0" stroke="none"/>
  <clipPath id="clip-0">
    <path d="M 50 9 L 50 441 L 1230 441 L 1230 9 z"/>
  </clipPath>
  <g clip-path="url(#clip-0)">
    <path d="M 50 348.92L 119.41 362.39L 160.02 361.03L 188.82 365.39L 211.17 366.71L 229.43 367.95L 244.86 368.54L 258.24 366.45L 280.58 366.87L 298.84 362.2L 314.28 364.38L 327.65 362.88L 349.99 360.06L 368.25 356.9L 383.69 354.1L 397.06 348.27L 419.4 345.57L 437.66 340.34L 453.1 335.04L 466.47 329.48L 488.82 322.73L 507.07 316.61L 522.51 310.61L 535.88 306.65L 558.23 297.62L 576.49 290.97L 591.92 285.8L 605.29 281.24L 627.64 274.39L 645.9 269.29L 661.33 264.49L 674.71 259.36L 697.05 250.2L 715.31 246.57L 730.75 240.35L 744.12 235.57L 766.46 228.68L 784.72 222.29L 800.16 215.26L 813.53 211.65L 835.88 203.62L 854.13 196.33L 869.57 190.99L 882.94 186.25L 905.29 177.52L 923.54 170.4L 938.98 165.36L 952.35 159.51L 974.7 150.48L 992.96 144.85L 1008.4 139.17L 1021.8 131.98L 1044.1 126.11L 1062.4 119.22L 1077.8 113.43L 1091.2 108.57L 1113.5 100.2L 1131.8 93.243L 1147.2 87.639L 1160.6 82.566L 1182.9 73.917L 1182.9 74.322L 1160.6 82.665L 1147.2 87.68L 1131.8 93.477L 1113.5 100.29L 1091.2 108.6L 1077.8 113.63L 1062.4 119.37L 1044.1 126.22L 1021.8 134.65L 1008.4 139.67L 992.96 145.18L 974.7 152.13L 952.35 160.17L 938.98 165.51L 923.54 171.31L 905.29 178.08L 882.94 186.34L 869.57 191.29L 854.13 196.94L 835.88 203.66L 813.53 211.87L 800.16 216.74L 784.72 222.32L 766.46 228.85L 744.12 236.83L 730.75 241.54L 715.31 246.94L 697.05 253.23L 674.71 260.12L 661.33 264.49L 645.9 269.3L 627.64 275.57L 605.29 282.74L 591.92 286.34L 576.49 291.5L 558.23 297.78L 535.88 306.84L 522.51 311.18L 507.07 316.74L 488.82 323.08L 466.47 332.39L 453.1 335.62L 437.66 340.6L 419.4 346.23L 397.06 350.97L 383.69 354.1L 368.25 357.16L 349.99 360.06L 327.65 362.88L 314.28 364.66L 298.84 368.43L 280.58 366.88L 258.24 366.45L 244.86 369.15L 229.43 368.66L 211.17 367.54L 188.82 365.39L 160.02 366.1L 119.41 362.39L 50 351.61" fill="#FFCC00" fill-opacity="0.30196078431372547" stroke="none"/>
    <path d="M 50 350.3L 119.41 363.37L 160.02 366.79L 188.82 368.72L 211.17 370.76L 229.43 371.41L 244.86 371.53L 258.24 371.03L 280.58 370.76L 298.84 369.45L 314.28 367.87L 327.65 364.11L 349.99 362.61L 368.25 359.19L 383.69 356.15L 397.06 353.03L 419.4 347.63L 437.66 342.04L 453.1 336.77L 466.47 331.96L 488.82 322.81L 507.07 315.62L 522.51 310.78L 535.88 306.48L 558.23 298.65L 576.49 293.64L 591.92 288.92L 605.29 284.42L 627.64 276.59L 645.9 270.74L 661.33 266.13L 674.71 260.81L 697.05 253.34L 715.31 247.14L 730.75 241.81L 744.12 237.11L 766.46 229.11L 784.72 222.46L 800.16 215.58L 813.53 210.5L 835.88 203.74L 854.13 197.05L 869.57 190.8L 882.94 185.96L 905.29 178.02L 923.54 170.23L 938.98 165.41L 952.35 159.41L 974.7 151.5L 992.96 145.43L 1008.4 138.97L 1021.8 134.63L 1044.1 126.29L 1062.4 119.45L 1077.8 113.65L 1091.2 108.65L 1113.5 100.34L 1131.8 93.522L 1147.2 87.744L 1160.6 82.75L 1182.9 74.328L 1182.9 74.391L 1160.6 82.775L 1147.2 87.769L 1131.8 93.549L 1113.5 100.41L 1091.2 108.72L 1077.8 113.72L 1062.4 119.54L 1044.1 126.36L 1021.8 134.77L 1008.4 139.73L 992.96 145.45L 974.7 152.26L 952.35 160.6L 938.98 165.66L 923.54 171.37L 905.29 178.14L 882.94 186.4L 869.57 191.41L 854.13 197.07L 835.88 203.77L 813.53 212.04L 800.16 216.75L 784.72 222.54L 766.46 229.17L 744.12 237.14L 730.75 241.9L 715.31 247.48L 697.05 253.84L 674.71 261.6L 661.33 266.19L 645.9 271.32L 627.64 277.37L 605.29 284.59L 591.92 288.99L 576.49 293.68L 558.23 299.38L 535.88 306.51L 522.51 311.1L 507.07 316.86L 488.82 323L 466.47 332.56L 453.1 337.3L 437.66 342.78L 419.4 347.63L 397.06 353.21L 383.69 356.25L 368.25 359.61L 349.99 363.17L 327.65 366.85L 314.28 368.18L 298.84 369.81L 280.58 370.76L 258.24 371.62L 244.86 371.53L 229.43 371.41L 211.17 370.76L 188.82 369.81L 160.02 366.82L 119.41 363.37L 50 353.09" fill="#28CD41" fill-opacity="0.30196078431372547" stroke="none"/>
    <path d="M 50 276.79L 119.41 274.5L 160.02 273.71L 188.82 272.61L 211.17 272.09L 229.43 270.94L 244.86 271.28L 258.24 269.91L 280.58 268.13L 298.84 266.63L 314.28 264.9L 327.65 263.06L 349.99 260.68L 368.25 258L 383.69 255.52L 397.06 252.91L 419.4 248.22L 437.66 244.44L 453.1 240.63L 466.47 237.37L 488.82 229.78L 507.07 225.43L 522.51 221.55L 535.88 213.4L 558.23 206.39L 576.49 204.66L 591.92 199.13L 605.29 194.11L 627.64 182.97L 645.9 180.64L 661.33 173.3L 674.71 169.55L 697.05 158.53L 715.31 155.8L 730.75 150.02L 744.12 145.71L 766.46 133.29L 784.72 130.66L 800.16 124.68L 813.53 120.22L 835.88 107.26L 854.13 104.52L 869.57 98.125L 882.94 93.099L 905.29 78.84L 923.54 77.353L 938.98 71.141L 952.35 65.8L 974.7 52.757L 992.96 50.788L 1008.4 44.154L 1021.8 38.678L 1044.1 25.73L 1044.1 26.952L 1021.8 40.145L 1008.4 44.968L 992.96 50.944L 974.7 52.985L 952.35 66.4L 938.98 71.403L 923.54 77.435L 905.29 79.859L 882.94 93.194L 869.57 98.139L 854.13 104.68L 835.88 107.46L 813.53 120.38L 800.16 124.85L 784.72 130.7L 766.46 133.3L 744.12 145.75L 730.75 150.29L 715.31 155.99L 697.05 158.71L 674.71 170.82L 661.33 175.1L 645.9 180.79L 627.64 183.44L 605.29 194.33L 591.92 199.19L 576.49 204.72L 558.23 207.91L 535.88 217.83L 522.51 221.56L 507.07 226.24L 488.82 229.82L 466.47 237.46L 453.1 240.79L 437.66 244.53L 419.4 248.24L 397.06 253.05L 383.69 255.64L 368.25 258.3L 349.99 260.74L 327.65 263.25L 314.28 265.02L 298.84 266.84L 280.58 268.67L 258.24 270.62L 244.86 271.42L 229.43 271.33L 211.17 272.22L 188.82 273.5L 160.02 274.05L 119.41 274.85L 50 277.16" fill="#007AFF" fill-opacity="0.30196078431372547" stroke="none"/>
    <path d="M 50 413.52L 119.41 426.93L 160.02 421.83L 188.82 421.87L 211.17 418.28L 229.43 411.17L 244.86 410.49L 258.24 407.71L 280.58 405.48L 298.84 401.78L 314.28 396.19L 327.65 391.93L 349.99 383.53L 368.25 376.77L 383.69 370.84L 397.06 365.83L 419.4 354.61L 437.66 346.41L 453.1 343.04L 466.47 336.84L 488.82 327.46L 507.07 320.11L 522.51 313.67L 535.88 309L 558.23 301L 576.49 294.8L 591.92 287.51L 605.29 284.68L 627.64 276.72L 645.9 268.19L 661.33 264.68L 674.71 259.96L 697.05 252.01L 715.31 245.2L 730.75 239L 744.12 234.52L 766.46 226.27L 784.72 219.79L 800.16 213.96L 813.53 209.14L 835.88 200.94L 854.13 194.19L 869.57 188.22L 882.94 183.42L 905.29 174.98L 923.54 168.3L 938.98 162.5L 952.35 157.48L 974.7 149.12L 992.96 141.47L 1008.4 135.4L 1021.8 131.27L 1044.1 122.84L 1062.4 116.2L 1077.8 110.53L 1091.2 105.45L 1113.5 96.957L 1131.8 89.995L 1147.2 84.495L 1160.6 79.311L 1160.6 79.54L 1147.2 84.522L 1131.8 90.191L 1113.5 97.127L 1091.2 105.51L 1077.8 110.53L 1062.4 116.3L 1044.1 123.02L 1021.8 131.43L 1008.4 136.43L 992.96 142.26L 974.7 149.15L 952.35 157.52L 938.98 162.53L 923.54 168.31L 905.29 175.11L 882.94 183.46L 869.57 188.45L 854.13 194.19L 835.88 200.98L 813.53 209.27L 800.16 214.09L 784.72 219.92L 766.46 226.66L 744.12 234.86L 730.75 239.73L 715.31 245.39L 697.05 252.1L 674.71 260.21L 661.33 264.98L 645.9 270.35L 627.64 276.94L 605.29 284.88L 591.92 289.36L 576.49 294.85L 558.23 301.26L 535.88 309.37L 522.51 313.69L 507.07 320.22L 488.82 328.74L 466.47 338.23L 453.1 344.52L 437.66 350.71L 419.4 357.57L 397.06 366.03L 383.69 371.01L 368.25 376.77L 349.99 383.53L 327.65 391.93L 314.28 396.85L 298.84 402.66L 280.58 407.9L 258.24 414.41L 244.86 412.4L 229.43 413.46L 211.17 418.28L 188.82 421.87L 160.02 421.83L 119.41 426.93L 50 413.52" fill="#FF3B30" fill-opacity="0.30196078431372547" stroke="none"/>
    <path d="M 50 350.89L 119.41 362.39L 160.02 364.71L 188.82 365.39L 211.17 367.32L 229.43 368.47L 244.86 368.99L 258.24 366.45L 280.58 366.88L 298.84 366.7L 314.28 364.59L 327.65 362.88L 349.99 360.06L 368.25 357.09L 383.69 354.1L 397.06 350.25L 419.4 346.06L 437.66 340.53L 453.1 335.47L 466.47 331.61L 488.82 322.99L 507.07 316.71L 522.51 311.03L 535.88 306.79L 558.23 297.73L 576.49 291.36L 591.92 286.2L 605.29 282.35L 627.64 275.26L 645.9 269.29L 661.33 264.49L 674.71 259.92L 697.05 252.42L 715.31 246.84L 730.75 241.22L 744.12 236.5L 766.46 228.8L 784.72 222.31L 800.16 216.35L 813.53 211.81L 835.88 203.65L 854.13 196.78L 869.57 191.21L 882.94 186.32L 905.29 177.93L 923.54 171.07L 938.98 165.47L 952.35 160L 974.7 151.69L 992.96 145.1L 1008.4 139.54L 1021.8 133.93L 1044.1 126.19L 1062.4 119.33L 1077.8 113.58L 1091.2 108.59L 1113.5 100.27L 1131.8 93.416L 1147.2 87.669L 1160.6 82.639L 1182.9 74.216" fill="none" stroke-width="4" stroke="#FFCC00" stroke-opacity="1" stroke-linecap="round" stroke-linejoin="round"/>
    <path d="M 50 352.34L 119.41 363.37L 160.02 366.81L 188.82 369.52L 211.17 370.76L 229.43 371.41L 244.86 371.53L 258.24 371.46L 280.58 370.76L 298.84 369.72L 314.28 368.1L 327.65 366.12L 349.99 363.02L 368.25 359.5L 383.69 356.23L 397.06 353.16L 419.4 347.63L 437.66 342.58L 453.1 337.16L 466.47 332.4L 488.82 322.95L 507.07 316.53L 522.51 311.02L 535.88 306.5L 558.23 299.19L 576.49 293.67L 591.92 288.97L 605.29 284.55L 627.64 277.16L 645.9 271.16L 661.33 266.17L 674.71 261.4L 697.05 253.71L 715.31 247.39L 730.75 241.87L 744.12 237.13L 766.46 229.15L 784.72 222.52L 800.16 216.44L 813.53 211.63L 835.88 203.76L 854.13 197.07L 869.57 191.25L 882.94 186.29L 905.29 178.11L 923.54 171.07L 938.98 165.59L 952.35 160.28L 974.7 152.06L 992.96 145.44L 1008.4 139.53L 1021.8 134.73L 1044.1 126.34L 1062.4 119.52L 1077.8 113.7L 1091.2 108.7L 1113.5 100.39L 1131.8 93.542L 1147.2 87.762L 1160.6 82.769L 1182.9 74.375" fill="none" stroke-width="4" stroke="#28CD41" stroke-opacity="1" stroke-linecap="round" stroke-linejoin="round"/>
    <path d="M 50 277.07L 119.41 274.76L 160.02 273.96L 188.82 273.26L 211.17 272.19L 229.43 271.23L 244.86 271.38L 258.24 270.43L 280.58 268.53L 298.84 266.79L 314.28 264.99L 327.65 263.2L 349.99 260.73L 368.25 258.22L 383.69 255.61L 397.06 253.01L 419.4 248.24L 437.66 244.5L 453.1 240.75L 466.47 237.44L 488.82 229.81L 507.07 226.02L 522.51 221.55L 535.88 216.62L 558.23 207.51L 576.49 204.7L 591.92 199.17L 605.29 194.28L 627.64 183.32L 645.9 180.75L 661.33 174.62L 674.71 170.49L 697.05 158.66L 715.31 155.94L 730.75 150.22L 744.12 145.74L 766.46 133.3L 784.72 130.69L 800.16 124.8L 813.53 120.34L 835.88 107.41L 854.13 104.64L 869.57 98.135L 882.94 93.169L 905.29 79.59L 923.54 77.414L 938.98 71.334L 952.35 66.242L 974.7 52.925L 992.96 50.903L 1008.4 44.753L 1021.8 39.756L 1044.1 26.629" fill="none" stroke-width="4" stroke="#007AFF" stroke-opacity="1" stroke-linecap="round" stroke-linejoin="round"/>
    <path d="M 50 413.52L 119.41 426.93L 160.02 421.83L 188.82 421.87L 211.17 418.28L 229.43 412.85L 244.86 411.89L 258.24 412.54L 280.58 407.25L 298.84 402.43L 314.28 396.67L 327.65 391.93L 349.99 383.53L 368.25 376.77L 383.69 370.96L 397.06 365.97L 419.4 356.77L 437.66 349.53L 453.1 344.13L 466.47 337.86L 488.82 328.4L 507.07 320.19L 522.51 313.69L 535.88 309.28L 558.23 301.19L 576.49 294.84L 591.92 288.87L 605.29 284.83L 627.64 276.88L 645.9 269.77L 661.33 264.9L 674.71 260.14L 697.05 252.08L 715.31 245.34L 730.75 239.54L 744.12 234.77L 766.46 226.56L 784.72 219.89L 800.16 214.06L 813.53 209.24L 835.88 200.97L 854.13 194.19L 869.57 188.39L 882.94 183.45L 905.29 175.08L 923.54 168.31L 938.98 162.52L 952.35 157.51L 974.7 149.14L 992.96 142.05L 1008.4 136.16L 1021.8 131.39L 1044.1 122.97L 1062.4 116.28L 1077.8 110.53L 1091.2 105.5L 1113.5 97.082L 1131.8 90.14L 1147.2 84.515L 1160.6 79.48" fill="none" stroke-width="4" stroke="#FF3B30" stroke-opacity="1" stroke-linecap="round" stroke-linejoin="round"/>
    <path d="M 50 350.89L 119.41 362.39L 160.02 364.71L 188.82 365.39L 211.17 367.32L 229.43 368.47L 244.86 368.99L 258.24 366.45L 280.58 366.88L 298.84 366.7L 314.28 364.59L 327.65 362.88L 349.99 360.06L 368.25 357.09L 383.69 354.1L 397.06 350.25L 419.4 346.06L 437.66 340.53L 453.1 335.47L 466.47 331.61L 488.82 322.99L 507.07 316.71L 522.51 311.03L 535.88 306.79L 558.23 297.73L 576.49 291.36L 591.92 286.2L 605.29 282.35L 627.64 275.26L 645.9 269.29L 661.33 264.49L 674.71 259.92L 697.05 252.42L 715.31 246.84L 730.75 241.22L 744.12 236.5L 766.46 228.8L 784.72 222.31L 800.16 216.35L 813.53 211.81L 835.88 203.65L 854.13 196.78L 869.57 191.21L 882.94 186.32L 905.29 177.93L 923.54 171.07L 938.98 165.47L 952.35 160L 974.7 151.69L 992.96 145.1L 1008.4 139.54L 1021.8 133.93L 1044.1 126.19L 1062.4 119.33L 1077.8 113.58L 1091.2 108.59L 1113.5 100.27L 1131.8 93.416L 1147.2 87.669L 1160.6 82.639L 1182.9 74.216" fill="none" stroke-width="0.5" stroke="#000000" stroke-opacity="0.30196" stroke-linecap="round" stroke-linejoin="round"/>
    <path d="M 50 352.34L 119.41 363.37L 160.02 366.81L 188.82 369.52L 211.17 370.76L 229.43 371.41L 244.86 371.53L 258.24 371.46L 280.58 370.76L 298.84 369.72L 314.28 368.1L 327.65 366.12L 349.99 363.02L 368.25 359.5L 383.69 356.23L 397.06 353.16L 419.4 347.63L 437.66 342.58L 453.1 337.16L 466.47 332.4L 488.82 322.95L 507.07 316.53L 522.51 311.02L 535.88 306.5L 558.23 299.19L 576.49 293.67L 591.92 288.97L 605.29 284.55L 627.64 277.16L 645.9 271.16L 661.33 266.17L 674.71 261.4L 697.05 253.71L 715.31 247.39L 730.75 241.87L 744.12 237.13L 766.46 229.15L 784.72 222.52L 800.16 216.44L 813.53 211.63L 835.88 203.76L 854.13 197.07L 869.57 191.25L 882.94 186.29L 905.29 178.11L 923.54 171.07L 938.98 165.59L 952.35 160.28L 974.7 152.06L 992.96 145.44L 1008.4 139.53L 1021.8 134.73L 1044.1 126.34L 1062.4 119.52L 1077.8 113.7L 1091.2 108.7L 1113.5 100.39L 1131.8 93.542L 1147.2 87.762L 1160.6 82.769L 1182.9 74.375" fill="none" stroke-width="0.5" stroke="#000000" stroke-opacity="0.30196" stroke-linecap="round" stroke-linejoin="round"/>
    <path d="M 50 277.07L 119.41 274.76L 160.02 273.96L 188.82 273.26L 211.17 272.19L 229.43 271.23L 244.86 271.38L 258.24 270.43L 280.58 268.53L 298.84 266.79L 314.28 264.99L 327.65 263.2L 349.99 260.73L 368.25 258.22L 383.69 255.61L 397.06 253.01L 419.4 248.24L 437.66 244.5L 453.1 240.75L 466.47 237.44L 488.82 229.81L 507.07 226.02L 522.51 221.55L 535.88 216.62L 558.23 207.51L 576.49 204.7L 591.92 199.17L 605.29 194.28L 627.64 183.32L 645.9 180.75L 661.33 174.62L 674.71 170.49L 697.05 158.66L 715.31 155.94L 730.75 150.22L 744.12 145.74L 766.46 133.3L 784.72 130.69L 800.16 124.8L 813.53 120.34L 835.88 107.41L 854.13 104.64L 869.57 98.135L 882.94 93.169L 905.29 79.59L 923.54 77.414L 938.98 71.334L 952.35 66.242L 974.7 52.925L 992.96 50.903L 1008.4 44.753L 1021.8 39.756L 1044.1 26.629" fill="none" stroke-width="0.5" stroke="#000000" stroke-opacity="0.30196" stroke-linecap="round" stroke-linejoin="round"/>
    <path d="M 50 413.52L 119.41 426.93L 160.02 421.83L 188.82 421.87L 211.17 418.28L 229.43 412.85L 244.86 411.89L 258.24 412.54L 280.58 407.25L 298.84 402.43L 314.28 396.67L 327.65 391.93L 349.99 383.53L 368.25 376.77L 383.69 370.96L 397.06 365.97L 419.4 356.77L 437.66 349.53L 453.1 344.13L 466.47 337.86L 488.82 328.4L 507.07 320.19L 522.51 313.69L 535.88 309.28L 558.23 301.19L 576.49 294.84L 591.92 288.87L 605.29 284.83L 627.64 276.88L 645.9 269.77L 661.33 264.9L 674.71 260.14L 697.05 252.08L 715.31 245.34L 730.75 239.54L 744.12 234.77L 766.46 226.56L 784.72 219.89L 800.16 214.06L 813.53 209.24L 835.88 200.97L 854.13 194.19L 869.57 188.39L 882.94 183.45L 905.29 175.08L 923.54 168.31L 938.98 162.52L 952.35 157.51L 974.7 149.14L 992.96 142.05L 1008.4 136.16L 1021.8 131.39L 1044.1 122.97L 1062.4 116.28L 1077.8 110.53L 1091.2 105.5L 1113.5 97.082L 1131.8 90.14L 1147.2 84.515L 1160.6 79.48" fill="none" stroke-width="0.5" stroke="#000000" stroke-opacity="0.30196" stroke-linecap="round" stroke-linejoin="round"/>
  </g>
  <path d="M 74 33 L 74 122 L 464 122 L 464 33 z" fill="#FFFFFF" fill-opacity="0.7019607843137254" stroke-width="0.5" stroke="#000000" stroke-opacity="1" stroke-linecap="round" stroke-linejoin="round"/>
  <path d="M 88 52 L 108 52" fill="none" stroke-width="4" stroke="#FF3B30" stroke-opacity="1" stroke-linecap="round" stroke-linejoin="round"/>
  <path d="M 88 52 L 108 52" fill="none" stroke-width="0.5" stroke="#000000" stroke-opacity="0.30196" stroke-linecap="round" stroke-linejoin="round"/>
  <text x="119" y="56.17" font-family="Menlo" font-size="12" font-weight="normal" font-style="normal" fill="#000000" fill-opacity="1">Array&lt;Int&gt; successful contains</text>
  <path d="M 88 69 L 108 69" fill="none" stroke-width="4" stroke="#007AFF" stroke-opacity="1" stroke-linecap="round" stroke-linejoin="round"/>
  <path d="M 88 69 L 108 69" fill="none" stroke-width="0.5" stroke="#000000" stroke-opacity="0.30196" stroke-linecap="round" stroke-linejoin="round"/>
  <text x="119" y="73.17" font-family="Menlo" font-size="12" font-weight="normal" font-style="normal" fill="#000000" fill-opacity="1">TreeArray&lt;Int&gt; successful contains</text>
  <path d="M 88 86 L 108 86" fill="none" stroke-width="4" stroke="#28CD41" stroke-opacity="1" stroke-linecap="round" stroke-linejoin="round"/>
  <path d="M 88 86 L 108 86" fill="none" stroke-width="0.5" stroke="#000000" stroke-opacity="0.30196" stroke-linecap="round" stroke-linejoin="round"/>
  <text x="119" y="90.17" font-family="Menlo" font-size="12" font-weight="normal" font-style="normal" fill="#000000" fill-opacity="1">Deque&lt;Int&gt; successful contains (contiguous)</text>
  <path d="M 88 103 L 108 103" fill="none" stroke-width="4" stroke="#FFCC00" stroke-opacity="1" stroke-linecap="round" stroke-linejoin="round"/>
  <path d="M 88 103 L 108 103" fill="none" stroke-width="0.5" stroke="#000000" stroke-opacity="0.30196" stroke-linecap="round" stroke-linejoin="round"/>
  <text x="119" y="107.17" font-family="Menlo" font-size="12" font-weight="normal" font-style="normal" fill="#000000" fill-opacity="1">Deque&lt;Int&gt; successful contains (discontiguous)</text>
  <path d="M 50 9 L 50 441 L 1230 441 L 1230 9 z" fill="none" stroke-width="0.5" stroke="#000000" stroke-opacity="1" stroke-linecap="round" stroke-linejoin="round"/>
</svg>
