<!DOCTYPE svg PUBLIC "-//W3C//DTD SVG 1.1//EN" "http://www.w3.org/Graphics/SVG/1.1/DTD/svg11.dtd">
<svg width="1280.0px" height="480.0px" viewBox="0.0 0.0 1280.0 480.0" xmlns="http://www.w3.org/2000/svg" xmlns:xlink="http://www.w3.org/1999/xlink" version="1.1">
  <path d="M 0 0 L 0 480 L 1280 480 L 1280 0 z" fill="#FFFFFF" fill-opacity="1.0" stroke="none"/>
  <text x="50" y="468.7" font-family="Helvetica" font-size="10" font-weight="normal" font-style="normal" fill="#000000" fill-opacity="1">Average per-element processing time over input size (bands: min, mean, mean + 2stddev)</text>
  <a xlink:href="https://github.com/apple/swift-collections-benchmark"><text x="1107" y="468.7" font-family="Helvetica" font-size="10" font-weight="normal" font-style="normal" fill="#000000" fill-opacity="1">swift-collections-benchmark</text></a>
  <path d="M 50 9 L 50 441" fill="none" stroke-width="0.75" stroke="#000000" stroke-opacity="0.49804" stroke-linecap="butt" stroke-linejoin="round"/>
  <text x="47" y="453.7" font-family="Helvetica" font-size="10" font-weight="normal" font-style="normal" fill="#000000" fill-opacity="1">1</text>
  <path d="M 123.75 9 L 123.75 441" fill="none" stroke-width="0.75" stroke="#000000" stroke-opacity="0.49804" stroke-linecap="butt" stroke-linejoin="round"/>
  <text x="120.75" y="453.7" font-family="Helvetica" font-size="10" font-weight="normal" font-style="normal" fill="#000000" fill-opacity="1">2</text>
  <path d="M 197.5 9 L 197.5 441" fill="none" stroke-width="0.75" stroke="#000000" stroke-opacity="0.49804" stroke-linecap="butt" stroke-linejoin="round"/>
  <text x="194.5" y="453.7" font-family="Helvetica" font-size="10" font-weight="normal" font-style="normal" fill="#000000" fill-opacity="1">4</text>
  <path d="M 271.25 9 L 271.25 441" fill="none" stroke-width="0.75" stroke="#000000" stroke-opacity="0.49804" stroke-linecap="butt" stroke-linejoin="round"/>
  <text x="268.25" y="453.7" font-family="Helvetica" font-size="10" font-weight="normal" font-style="normal" fill="#000000" fill-opacity="1">8</text>
  <path d="M 345 9 L 345 441" fill="none" stroke-width="0.75" stroke="#000000" stroke-opacity="0.49804" stroke-linecap="butt" stroke-linejoin="round"/>
  <text x="339" y="453.7" font-family="Helvetica" font-size="10" font-weight="normal" font-style="normal" fill="#000000" fill-opacity="1">16</text>
  <path d="M 418.75 9 L 418.75 441" fill="none" stroke-width="0.75" stroke="#000000" stroke-opacity="0.49804" stroke-linecap="butt" stroke-linejoin="round"/>
  <text x="412.75" y="453.7" font-family="Helvetica" font-size="10" font-weight="normal" font-style="normal" fill="#000000" fill-opacity="1">32</text>
  <path d="M 492.5 9 L 492.5 441" fill="none" stroke-width="0.75" stroke="#000000" stroke-opacity="0.49804" stroke-linecap="butt" stroke-linejoin="round"/>
  <text x="486.5" y="453.7" font-family="Helvetica" font-size="10" font-weight="normal" font-style="normal" fill="#000000" fill-opacity="1">64</text>
  <path d="M 566.25 9 L 566.25 441" fill="none" stroke-width="0.75" stroke="#000000" stroke-opacity="0.49804" stroke-linecap="butt" stroke-linejoin="round"/>
  <text x="557.75" y="453.7" font-family="Helvetica" font-size="10" font-weight="normal" font-style="normal" fill="#000000" fill-opacity="1">128</text>
  <path d="M 640 9 L 640 441" fill="none" stroke-width="0.75" stroke="#000000" stroke-opacity="0.49804" stroke-linecap="butt" stroke-linejoin="round"/>
  <text x="631.5" y="453.7" font-family="Helvetica" font-size="10" font-weight="normal" font-style="normal" fill="#000000" fill-opacity="1">256</text>
  <path d="M 713.75 9 L 713.75 441" fill="none" stroke-width="0.75" stroke="#000000" stroke-opacity="0.49804" stroke-linecap="butt" stroke-linejoin="round"/>
  <text x="705.25" y="453.7" font-family="Helvetica" font-size="10" font-weight="normal" font-style="normal" fill="#000000" fill-opacity="1">512</text>
  <path d="M 787.5 9 L 787.5 441" fill="none" stroke-width="0.75" stroke="#000000" stroke-opacity="0.49804" stroke-linecap="butt" stroke-linejoin="round"/>
  <text x="782" y="453.7" font-family="Helvetica" font-size="10" font-weight="normal" font-style="normal" fill="#000000" fill-opacity="1">1k</text>
  <path d="M 861.25 9 L 861.25 441" fill="none" stroke-width="0.75" stroke="#000000" stroke-opacity="0.49804" stroke-linecap="butt" stroke-linejoin="round"/>
  <text x="855.75" y="453.7" font-family="Helvetica" font-size="10" font-weight="normal" font-style="normal" fill="#000000" fill-opacity="1">2k</text>
  <path d="M 935 9 L 935 441" fill="none" stroke-width="0.75" stroke="#000000" stroke-opacity="0.49804" stroke-linecap="butt" stroke-linejoin="round"/>
  <text x="929.5" y="453.7" font-family="Helvetica" font-size="10" font-weight="normal" font-style="normal" fill="#000000" fill-opacity="1">4k</text>
  <path d="M 1008.8 9 L 1008.8 441" fill="none" stroke-width="0.75" stroke="#000000" stroke-opacity="0.49804" stroke-linecap="butt" stroke-linejoin="round"/>
  <text x="1003.2" y="453.7" font-family="Helvetica" font-size="10" font-weight="normal" font-style="normal" fill="#000000" fill-opacity="1">8k</text>
  <path d="M 1082.5 9 L 1082.5 441" fill="none" stroke-width="0.75" stroke="#000000" stroke-opacity="0.49804" stroke-linecap="butt" stroke-linejoin="round"/>
  <text x="1074" y="453.7" font-family="Helvetica" font-size="10" font-weight="normal" font-style="normal" fill="#000000" fill-opacity="1">16k</text>
  <path d="M 1156.2 9 L 1156.2 441" fill="none" stroke-width="0.75" stroke="#000000" stroke-opacity="0.49804" stroke-linecap="butt" stroke-linejoin="round"/>
  <text x="1147.8" y="453.7" font-family="Helvetica" font-size="10" font-weight="normal" font-style="normal" fill="#000000" fill-opacity="1">32k</text>
  <path d="M 1230 9 L 1230 441" fill="none" stroke-width="0.75" stroke="#000000" stroke-opacity="0.49804" stroke-linecap="butt" stroke-linejoin="round"/>
  <text x="1221.5" y="453.7" font-family="Helvetica" font-size="10" font-weight="normal" font-style="normal" fill="#000000" fill-opacity="1">64k</text>
  <path d="M 50 441 L 1230 441" fill="none" stroke-width="0.75" stroke="#000000" stroke-opacity="0.49804" stroke-linecap="butt" stroke-linejoin="round"/>
  <text x="27" y="442.7" font-family="Helvetica" font-size="10" font-weight="normal" font-style="normal" fill="#000000" fill-opacity="1">1 ns</text>
  <text x="1236" y="442.7" font-family="Helvetica" font-size="10" font-weight="normal" font-style="normal" fill="#000000" fill-opacity="1">1 ns</text>
  <path d="M 50 354.6 L 1230 354.6" fill="none" stroke-width="0.75" stroke="#000000" stroke-opacity="0.49804" stroke-linecap="butt" stroke-linejoin="round"/>
  <text x="21" y="356.3" font-family="Helvetica" font-size="10" font-weight="normal" font-style="normal" fill="#000000" fill-opacity="1">10 ns</text>
  <text x="1236" y="356.3" font-family="Helvetica" font-size="10" font-weight="normal" font-style="normal" fill="#000000" fill-opacity="1">10 ns</text>
  <path d="M 50 268.2 L 1230 268.2" fill="none" stroke-width="0.75" stroke="#000000" stroke-opacity="0.49804" stroke-linecap="butt" stroke-linejoin="round"/>
  <text x="16" y="269.9" font-family="Helvetica" font-size="10" font-weight="normal" font-style="normal" fill="#000000" fill-opacity="1">100 ns</text>
  <text x="1236" y="269.9" font-family="Helvetica" font-size="10" font-weight="normal" font-style="normal" fill="#000000" fill-opacity="1">100 ns</text>
  <path d="M 50 181.8 L 1230 181.8" fill="none" stroke-width="0.75" stroke="#000000" stroke-opacity="0.49804" stroke-linecap="butt" stroke-linejoin="round"/>
  <text x="26" y="183.5" font-family="Helvetica" font-size="10" font-weight="normal" font-style="normal" fill="#000000" fill-opacity="1">1 µs</text>
  <text x="1236" y="183.5" font-family="Helvetica" font-size="10" font-weight="normal" font-style="normal" fill="#000000" fill-opacity="1">1 µs</text>
  <path d="M 50 95.4 L 1230 95.4" fill="none" stroke-width="0.75" stroke="#000000" stroke-opacity="0.49804" stroke-linecap="butt" stroke-linejoin="round"/>
  <text x="21" y="97.1" font-family="Helvetica" font-size="10" font-weight="normal" font-style="normal" fill="#000000" fill-opacity="1">10 µs</text>
  <text x="1236" y="97.1" font-family="Helvetica" font-size="10" font-weight="normal" font-style="normal" fill="#000000" fill-opacity="1">10 µs</text>
  <path d="M 50 9 L 1230 9" fill="none" stroke-width="0.75" stroke="#000000" stroke-opacity="0.49804" stroke-linecap="butt" stroke-linejoin="round"/>
  <text x="15" y="10.7" font-family="Helvetica" font-size="10" font-weight="normal" font-style="normal" fill="#000000" fill-opacity="1">100 µs</text>
  <text x="1236" y="10.7" font-family="Helvetica" font-size="10" font-weight="normal" font-style="normal" fill="#000000" fill-opacity="1">100 µs</text>
  <path d="M 50 414.99 L 1230 414.99" fill="none" stroke-width="0.5" stroke="#000000" stroke-opacity="0.25882" stroke-linecap="butt" stroke-linejoin="round" stroke-dasharray="6 3" stroke-dashoffset="0"/>
  <path d="M 50 388.98 L 1230 388.98" fill="none" stroke-width="0.5" stroke="#000000" stroke-opacity="0.25882" stroke-linecap="butt" stroke-linejoin="round" stroke-dasharray="6 3" stroke-dashoffset="0"/>
  <path d="M 50 362.97 L 1230 362.97" fill="none" stroke-width="0.5" stroke="#000000" stroke-opacity="0.25882" stroke-linecap="butt" stroke-linejoin="round" stroke-dasharray="6 3" stroke-dashoffset="0"/>
  <path d="M 50 336.96 L 1230 336.96" fill="none" stroke-width="0.5" stroke="#000000" stroke-opacity="0.25882" stroke-linecap="butt" stroke-linejoin="round" stroke-dasharray="6 3" stroke-dashoffset="0"/>
  <path d="M 50 310.96 L 1230 310.96" fill="none" stroke-width="0.5" stroke="#000000" stroke-opacity="0.25882" stroke-linecap="butt" stroke-linejoin="round" stroke-dasharray="6 3" stroke-dashoffset="0"/>
  <path d="M 50 284.95 L 1230 284.95" fill="none" stroke-width="0.5" stroke="#000000" stroke-opacity="0.25882" stroke-linecap="butt" stroke-linejoin="round" stroke-dasharray="6 3" stroke-dashoffset="0"/>
  <path d="M 50 258.94 L 1230 258.94" fill="none" stroke-width="0.5" stroke="#000000" stroke-opacity="0.25882" stroke-linecap="butt" stroke-linejoin="round" stroke-dasharray="6 3" stroke-dashoffset="0"/>
  <path d="M 50 232.93 L 1230 232.93" fill="none" stroke-width="0.5" stroke="#000000" stroke-opacity="0.25882" stroke-linecap="butt" stroke-linejoin="round" stroke-dasharray="6 3" stroke-dashoffset="0"/>
  <path d="M 50 206.92 L 1230 206.92" fill="none" stroke-width="0.5" stroke="#000000" stroke-opacity="0.25882" stroke-linecap="butt" stroke-linejoin="round" stroke-dasharray="6 3" stroke-dashoffset="0"/>
  <path d="M 50 180.91 L 1230 180.91" fill="none" stroke-width="0.5" stroke="#000000" stroke-opacity="0.25882" stroke-linecap="butt" stroke-linejoin="round" stroke-dasharray="6 3" stroke-dashoffset="0"/>
  <path d="M 50 154.9 L 1230 154.9" fill="none" stroke-width="0.5" stroke="#000000" stroke-opacity="0.25882" stroke-linecap="butt" stroke-linejoin="round" stroke-dasharray="6 3" stroke-dashoffset="0"/>
  <path d="M 50 128.89 L 1230 128.89" fill="none" stroke-width="0.5" stroke="#000000" stroke-opacity="0.25882" stroke-linecap="butt" stroke-linejoin="round" stroke-dasharray="6 3" stroke-dashoffset="0"/>
  <path d="M 50 102.88 L 1230 102.88" fill="none" stroke-width="0.5" stroke="#000000" stroke-opacity="0.25882" stroke-linecap="butt" stroke-linejoin="round" stroke-dasharray="6 3" stroke-dashoffset="0"/>
  <path d="M 50 76.874 L 1230 76.874" fill="none" stroke-width="0.5" stroke="#000000" stroke-opacity="0.25882" stroke-linecap="butt" stroke-linejoin="round" stroke-dasharray="6 3" stroke-dashoffset="0"/>
  <path d="M 50 50.865 L 1230 50.865" fill="none" stroke-width="0.5" stroke="#000000" stroke-opacity="0.25882" stroke-linecap="butt" stroke-linejoin="round" stroke-dasharray="6 3" stroke-dashoffset="0"/>
  <path d="M 50 24.856 L 1230 24.856" fill="none" stroke-width="0.5" stroke="#000000" stroke-opacity="0.25882" stroke-linecap="butt" stroke-linejoin="round" stroke-dasharray="6 3" stroke-dashoffset="0"/>
  <path d="M 74 33 L 74 88 L 377 88 L 377 33 z" fill="#FFFFFF" fill-opacity="1.0" stroke="none"/>
  <clipPath id="clip-0">
    <path d="M 50 9 L 50 441 L 1230 441 L 1230 9 z"/>
  </clipPath>
  <g clip-path="url(#clip-0)">
    <path d="M 50 275.52L 123.75 275.01L 166.89 272.19L 197.5 271.23L 221.24 270.62L 240.64 269.35L 257.04 269.55L 271.25 270.34L 294.99 266.76L 314.39 264.85L 330.79 263.48L 345 261.62L 368.74 258.83L 388.14 256.25L 404.54 253.61L 418.75 250.93L 442.49 246.61L 461.89 242.66L 478.29 238.55L 492.5 235.42L 516.24 227.8L 535.64 224.2L 552.04 221.51L 566.25 217.85L 589.99 207.69L 609.39 204.69L 625.79 198.98L 640 194.88L 663.74 183.63L 683.14 180.55L 699.54 175.06L 713.75 167.42L 737.49 158.65L 756.89 155.86L 773.29 150.21L 787.5 145.8L 811.24 133.2L 830.64 130.79L 847.04 124.78L 861.25 120.18L 884.99 107.42L 904.39 104.67L 920.79 98.083L 935 93.042L 958.74 79.878L 978.14 77.041L 994.54 71.237L 1008.8 66.132L 1032.5 52.893L 1051.9 51.16L 1068.3 44.806L 1082.5 39.844L 1106.2 26.97L 1106.2 27.059L 1082.5 40.193L 1068.3 45.268L 1051.9 51.211L 1032.5 53.358L 1008.8 66.294L 994.54 71.264L 978.14 77.489L 958.74 79.901L 935 93.183L 920.79 98.169L 904.39 104.68L 884.99 107.5L 861.25 120.36L 847.04 124.84L 830.64 130.82L 811.24 133.33L 787.5 145.82L 773.29 150.27L 756.89 156.11L 737.49 158.7L 713.75 170.77L 699.54 175.14L 683.14 180.78L 663.74 183.64L 640 195.1L 625.79 199.24L 609.39 204.79L 589.99 207.96L 566.25 217.88L 552.04 221.67L 535.64 226.44L 516.24 230L 492.5 237.65L 478.29 240.85L 461.89 244.71L 442.49 248.52L 418.75 253.38L 404.54 255.87L 388.14 258.49L 368.74 261.1L 345 263.78L 330.79 265.69L 314.39 267.22L 294.99 269.1L 271.25 270.58L 257.04 271.78L 240.64 271.41L 221.24 272.47L 197.5 273.48L 166.89 274.24L 123.75 275.08L 50 277.76" fill="#007AFF" fill-opacity="0.30196078431372547" stroke="none"/>
    <path d="M 50 413.52L 123.75 426.93L 166.89 421.83L 197.5 421.87L 221.24 418.28L 240.64 411.17L 257.04 410.49L 271.25 407.71L 294.99 405.48L 314.39 401.78L 330.79 396.19L 345 391.93L 368.74 383.53L 388.14 376.77L 404.54 370.84L 418.75 365.83L 442.49 354.61L 461.89 346.41L 478.29 343.04L 492.5 336.84L 516.24 327.46L 535.64 320.11L 552.04 313.67L 566.25 309L 589.99 301L 609.39 294.8L 625.79 287.51L 640 284.68L 663.74 276.72L 683.14 268.19L 699.54 264.68L 713.75 259.96L 737.49 252.01L 756.89 245.2L 773.29 239L 787.5 234.52L 811.24 226.27L 830.64 219.79L 847.04 213.96L 861.25 209.14L 884.99 200.94L 904.39 194.19L 920.79 188.22L 935 183.42L 958.74 174.98L 978.14 168.3L 994.54 162.5L 1008.8 157.48L 1032.5 149.12L 1051.9 141.47L 1068.3 135.4L 1082.5 131.27L 1106.2 122.84L 1125.6 116.2L 1142 110.53L 1156.2 105.45L 1180 96.957L 1199.4 89.995L 1215.8 84.495L 1230 79.311L 1230 79.54L 1215.8 84.522L 1199.4 90.191L 1180 97.127L 1156.2 105.51L 1142 110.53L 1125.6 116.3L 1106.2 123.02L 1082.5 131.43L 1068.3 136.43L 1051.9 142.26L 1032.5 149.15L 1008.8 157.52L 994.54 162.53L 978.14 168.31L 958.74 175.11L 935 183.46L 920.79 188.45L 904.39 194.19L 884.99 200.98L 861.25 209.27L 847.04 214.09L 830.64 219.92L 811.24 226.66L 787.5 234.86L 773.29 239.73L 756.89 245.39L 737.49 252.1L 713.75 260.21L 699.54 264.98L 683.14 270.35L 663.74 276.94L 640 284.88L 625.79 289.36L 609.39 294.85L 589.99 301.26L 566.25 309.37L 552.04 313.69L 535.64 320.22L 516.24 328.74L 492.5 338.23L 478.29 344.52L 461.89 350.71L 442.49 357.57L 418.75 366.03L 404.54 371.01L 388.14 376.77L 368.74 383.53L 345 391.93L 330.79 396.85L 314.39 402.66L 294.99 407.9L 271.25 414.41L 257.04 412.4L 240.64 413.46L 221.24 418.28L 197.5 421.87L 166.89 421.83L 123.75 426.93L 50 413.52" fill="#FF3B30" fill-opacity="0.30196078431372547" stroke="none"/>
    <path d="M 50 277.16L 123.75 275.06L 166.89 273.69L 197.5 272.88L 221.24 271.98L 240.64 270.86L 257.04 271.19L 271.25 270.52L 294.99 268.47L 314.39 266.59L 330.79 265.1L 345 263.2L 368.74 260.49L 388.14 257.89L 404.54 255.27L 418.75 252.72L 442.49 248.01L 461.89 244.16L 478.29 240.23L 492.5 237.05L 516.24 229.42L 535.64 225.84L 552.04 221.63L 566.25 217.87L 589.99 207.89L 609.39 204.77L 625.79 199.17L 640 195.04L 663.74 183.64L 683.14 180.72L 699.54 175.12L 713.75 169.87L 737.49 158.69L 756.89 156.04L 773.29 150.25L 787.5 145.81L 811.24 133.3L 830.64 130.81L 847.04 124.82L 861.25 120.31L 884.99 107.48L 904.39 104.67L 920.79 98.146L 935 93.146L 958.74 79.895L 978.14 77.371L 994.54 71.257L 1008.8 66.251L 1032.5 53.236L 1051.9 51.198L 1068.3 45.146L 1082.5 40.102L 1106.2 27.036" fill="none" stroke-width="4" stroke="#007AFF" stroke-opacity="1" stroke-linecap="round" stroke-linejoin="round"/>
    <path d="M 50 413.52L 123.75 426.93L 166.89 421.83L 197.5 421.87L 221.24 418.28L 240.64 412.85L 257.04 411.89L 271.25 412.54L 294.99 407.25L 314.39 402.43L 330.79 396.67L 345 391.93L 368.74 383.53L 388.14 376.77L 404.54 370.96L 418.75 365.97L 442.49 356.77L 461.89 349.53L 478.29 344.13L 492.5 337.86L 516.24 328.4L 535.64 320.19L 552.04 313.69L 566.25 309.28L 589.99 301.19L 609.39 294.84L 625.79 288.87L 640 284.83L 663.74 276.88L 683.14 269.77L 699.54 264.9L 713.75 260.14L 737.49 252.08L 756.89 245.34L 773.29 239.54L 787.5 234.77L 811.24 226.56L 830.64 219.89L 847.04 214.06L 861.25 209.24L 884.99 200.97L 904.39 194.19L 920.79 188.39L 935 183.45L 958.74 175.08L 978.14 168.31L 994.54 162.52L 1008.8 157.51L 1032.5 149.14L 1051.9 142.05L 1068.3 136.16L 1082.5 131.39L 1106.2 122.97L 1125.6 116.28L 1142 110.53L 1156.2 105.5L 1180 97.082L 1199.4 90.14L 1215.8 84.515L 1230 79.48" fill="none" stroke-width="4" stroke="#FF3B30" stroke-opacity="1" stroke-linecap="round" stroke-linejoin="round"/>
    <path d="M 50 277.16L 123.75 275.06L 166.89 273.69L 197.5 272.88L 221.24 271.98L 240.64 270.86L 257.04 271.19L 271.25 270.52L 294.99 268.47L 314.39 266.59L 330.79 265.1L 345 263.2L 368.74 260.49L 388.14 257.89L 404.54 255.27L 418.75 252.72L 442.49 248.01L 461.89 244.16L 478.29 240.23L 492.5 237.05L 516.24 229.42L 535.64 225.84L 552.04 221.63L 566.25 217.87L 589.99 207.89L 609.39 204.77L 625.79 199.17L 640 195.04L 663.74 183.64L 683.14 180.72L 699.54 175.12L 713.75 169.87L 737.49 158.69L 756.89 156.04L 773.29 150.25L 787.5 145.81L 811.24 133.3L 830.64 130.81L 847.04 124.82L 861.25 120.31L 884.99 107.48L 904.39 104.67L 920.79 98.146L 935 93.146L 958.74 79.895L 978.14 77.371L 994.54 71.257L 1008.8 66.251L 1032.5 53.236L 1051.9 51.198L 1068.3 45.146L 1082.5 40.102L 1106.2 27.036" fill="none" stroke-width="0.5" stroke="#000000" stroke-opacity="0.30196" stroke-linecap="round" stroke-linejoin="round"/>
    <path d="M 50 413.52L 123.75 426.93L 166.89 421.83L 197.5 421.87L 221.24 418.28L 240.64 412.85L 257.04 411.89L 271.25 412.54L 294.99 407.25L 314.39 402.43L 330.79 396.67L 345 391.93L 368.74 383.53L 388.14 376.77L 404.54 370.96L 418.75 365.97L 442.49 356.77L 461.89 349.53L 478.29 344.13L 492.5 337.86L 516.24 328.4L 535.64 320.19L 552.04 313.69L 566.25 309.28L 589.99 301.19L 609.39 294.84L 625.79 288.87L 640 284.83L 663.74 276.88L 683.14 269.77L 699.54 264.9L 713.75 260.14L 737.49 252.08L 756.89 245.34L 773.29 239.54L 787.5 234.77L 811.24 226.56L 830.64 219.89L 847.04 214.06L 861.25 209.24L 884.99 200.97L 904.39 194.19L 920.79 188.39L 935 183.45L 958.74 175.08L 978.14 168.31L 994.54 162.52L 1008.8 157.51L 1032.5 149.14L 1051.9 142.05L 1068.3 136.16L 1082.5 131.39L 1106.2 122.97L 1125.6 116.28L 1142 110.53L 1156.2 105.5L 1180 97.082L 1199.4 90.14L 1215.8 84.515L 1230 79.48" fill="none" stroke-width="0.5" stroke="#000000" stroke-opacity="0.30196" stroke-linecap="round" stroke-linejoin="round"/>
  </g>
  <path d="M 74 33 L 74 88 L 377 88 L 377 33 z" fill="#FFFFFF" fill-opacity="0.7019607843137254" stroke-width="0.5" stroke="#000000" stroke-opacity="1" stroke-linecap="round" stroke-linejoin="round"/>
  <path d="M 88 52 L 108 52" fill="none" stroke-width="4" stroke="#FF3B30" stroke-opacity="1" stroke-linecap="round" stroke-linejoin="round"/>
  <path d="M 88 52 L 108 52" fill="none" stroke-width="0.5" stroke="#000000" stroke-opacity="0.30196" stroke-linecap="round" stroke-linejoin="round"/>
  <text x="119" y="56.17" font-family="Menlo" font-size="12" font-weight="normal" font-style="normal" fill="#000000" fill-opacity="1">Array&lt;Int&gt; successful contains</text>
  <path d="M 88 69 L 108 69" fill="none" stroke-width="4" stroke="#007AFF" stroke-opacity="1" stroke-linecap="round" stroke-linejoin="round"/>
  <path d="M 88 69 L 108 69" fill="none" stroke-width="0.5" stroke="#000000" stroke-opacity="0.30196" stroke-linecap="round" stroke-linejoin="round"/>
  <text x="119" y="73.17" font-family="Menlo" font-size="12" font-weight="normal" font-style="normal" fill="#000000" fill-opacity="1">TreeArray&lt;Int&gt; successful contains</text>
  <path d="M 50 9 L 50 441 L 1230 441 L 1230 9 z" fill="none" stroke-width="0.5" stroke="#000000" stroke-opacity="1" stroke-linecap="round" stroke-linejoin="round"/>
</svg>
