<!DOCTYPE svg PUBLIC "-//W3C//DTD SVG 1.1//EN" "http://www.w3.org/Graphics/SVG/1.1/DTD/svg11.dtd">
<svg width="1280.0px" height="480.0px" viewBox="0.0 0.0 1280.0 480.0" xmlns="http://www.w3.org/2000/svg" xmlns:xlink="http://www.w3.org/1999/xlink" version="1.1">
  <path d="M 0 0 L 0 480 L 1280 480 L 1280 0 z" fill="#FFFFFF" fill-opacity="1.0" stroke="none"/>
  <text x="50" y="468.7" font-family="Helvetica" font-size="10" font-weight="normal" font-style="normal" fill="#000000" fill-opacity="1">Average per-element processing time over input size (bands: min, mean, mean + 2stddev)</text>
  <a xlink:href="https://github.com/apple/swift-collections-benchmark"><text x="1107" y="468.7" font-family="Helvetica" font-size="10" font-weight="normal" font-style="normal" fill="#000000" fill-opacity="1">swift-collections-benchmark</text></a>
  <path d="M 50 9 L 50 441" fill="none" stroke-width="0.75" stroke="#000000" stroke-opacity="0.49804" stroke-linecap="butt" stroke-linejoin="round"/>
  <text x="47" y="453.7" font-family="Helvetica" font-size="10" font-weight="normal" font-style="normal" fill="#000000" fill-opacity="1">1</text>
  <path d="M 123.75 9 L 123.75 441" fill="none" stroke-width="0.75" stroke="#000000" stroke-opacity="0.49804" stroke-linecap="butt" stroke-linejoin="round"/>
  <text x="120.75" y="453.7" font-family="Helvetica" font-size="10" font-weight="normal" font-style="normal" fill="#000000" fill-opacity="1">2</text>
  <path d="M 197.5 9 L 197.5 441" fill="none" stroke-width="0.75" stroke="#000000" stroke-opacity="0.49804" stroke-linecap="butt" stroke-linejoin="round"/>
  <text x="194.5" y="453.7" font-family="Helvetica" font-size="10" font-weight="normal" font-style="normal" fill="#000000" fill-opacity="1">4</text>
  <path d="M 271.25 9 L 271.25 441" fill="none" stroke-width="0.75" stroke="#000000" stroke-opacity="0.49804" stroke-linecap="butt" stroke-linejoin="round"/>
  <text x="268.25" y="453.7" font-family="Helvetica" font-size="10" font-weight="normal" font-style="normal" fill="#000000" fill-opacity="1">8</text>
  <path d="M 345 9 L 345 441" fill="none" stroke-width="0.75" stroke="#000000" stroke-opacity="0.49804" stroke-linecap="butt" stroke-linejoin="round"/>
  <text x="339" y="453.7" font-family="Helvetica" font-size="10" font-weight="normal" font-style="normal" fill="#000000" fill-opacity="1">16</text>
  <path d="M 418.75 9 L 418.75 441" fill="none" stroke-width="0.75" stroke="#000000" stroke-opacity="0.49804" stroke-linecap="butt" stroke-linejoin="round"/>
  <text x="412.75" y="453.7" font-family="Helvetica" font-size="10" font-weight="normal" font-style="normal" fill="#000000" fill-opacity="1">32</text>
  <path d="M 492.5 9 L 492.5 441" fill="none" stroke-width="0.75" stroke="#000000" stroke-opacity="0.49804" stroke-linecap="butt" stroke-linejoin="round"/>
  <text x="486.5" y="453.7" font-family="Helvetica" font-size="10" font-weight="normal" font-style="normal" fill="#000000" fill-opacity="1">64</text>
  <path d="M 566.25 9 L 566.25 441" fill="none" stroke-width="0.75" stroke="#000000" stroke-opacity="0.49804" stroke-linecap="butt" stroke-linejoin="round"/>
  <text x="557.75" y="453.7" font-family="Helvetica" font-size="10" font-weight="normal" font-style="normal" fill="#000000" fill-opacity="1">128</text>
  <path d="M 640 9 L 640 441" fill="none" stroke-width="0.75" stroke="#000000" stroke-opacity="0.49804" stroke-linecap="butt" stroke-linejoin="round"/>
  <text x="631.5" y="453.7" font-family="Helvetica" font-size="10" font-weight="normal" font-style="normal" fill="#000000" fill-opacity="1">256</text>
  <path d="M 713.75 9 L 713.75 441" fill="none" stroke-width="0.75" stroke="#000000" stroke-opacity="0.49804" stroke-linecap="butt" stroke-linejoin="round"/>
  <text x="705.25" y="453.7" font-family="Helvetica" font-size="10" font-weight="normal" font-style="normal" fill="#000000" fill-opacity="1">512</text>
  <path d="M 787.5 9 L 787.5 441" fill="none" stroke-width="0.75" stroke="#000000" stroke-opacity="0.49804" stroke-linecap="butt" stroke-linejoin="round"/>
  <text x="782" y="453.7" font-family="Helvetica" font-size="10" font-weight="normal" font-style="normal" fill="#000000" fill-opacity="1">1k</text>
  <path d="M 861.25 9 L 861.25 441" fill="none" stroke-width="0.75" stroke="#000000" stroke-opacity="0.49804" stroke-linecap="butt" stroke-linejoin="round"/>
  <text x="855.75" y="453.7" font-family="Helvetica" font-size="10" font-weight="normal" font-style="normal" fill="#000000" fill-opacity="1">2k</text>
  <path d="M 935 9 L 935 441" fill="none" stroke-width="0.75" stroke="#000000" stroke-opacity="0.49804" stroke-linecap="butt" stroke-linejoin="round"/>
  <text x="929.5" y="453.7" font-family="Helvetica" font-size="10" font-weight="normal" font-style="normal" fill="#000000" fill-opacity="1">4k</text>
  <path d="M 1008.8 9 L 1008.8 441" fill="none" stroke-width="0.75" stroke="#000000" stroke-opacity="0.49804" stroke-linecap="butt" stroke-linejoin="round"/>
  <text x="1003.2" y="453.7" font-family="Helvetica" font-size="10" font-weight="normal" font-style="normal" fill="#000000" fill-opacity="1">8k</text>
  <path d="M 1082.5 9 L 1082.5 441" fill="none" stroke-width="0.75" stroke="#000000" stroke-opacity="0.49804" stroke-linecap="butt" stroke-linejoin="round"/>
  <text x="1074" y="453.7" font-family="Helvetica" font-size="10" font-weight="normal" font-style="normal" fill="#000000" fill-opacity="1">16k</text>
  <path d="M 1156.2 9 L 1156.2 441" fill="none" stroke-width="0.75" stroke="#000000" stroke-opacity="0.49804" stroke-linecap="butt" stroke-linejoin="round"/>
  <text x="1147.8" y="453.7" font-family="Helvetica" font-size="10" font-weight="normal" font-style="normal" fill="#000000" fill-opacity="1">32k</text>
  <path d="M 1230 9 L 1230 441" fill="none" stroke-width="0.75" stroke="#000000" stroke-opacity="0.49804" stroke-linecap="butt" stroke-linejoin="round"/>
  <text x="1221.5" y="453.7" font-family="Helvetica" font-size="10" font-weight="normal" font-style="normal" fill="#000000" fill-opacity="1">64k</text>
  <path d="M 50 441 L 1230 441" fill="none" stroke-width="0.75" stroke="#000000" stroke-opacity="0.49804" stroke-linecap="butt" stroke-linejoin="round"/>
  <text x="27" y="442.7" font-family="Helvetica" font-size="10" font-weight="normal" font-style="normal" fill="#000000" fill-opacity="1">1 ns</text>
  <text x="1236" y="442.7" font-family="Helvetica" font-size="10" font-weight="normal" font-style="normal" fill="#000000" fill-opacity="1">1 ns</text>
  <path d="M 50 354.6 L 1230 354.6" fill="none" stroke-width="0.75" stroke="#000000" stroke-opacity="0.49804" stroke-linecap="butt" stroke-linejoin="round"/>
  <text x="21" y="356.3" font-family="Helvetica" font-size="10" font-weight="normal" font-style="normal" fill="#000000" fill-opacity="1">10 ns</text>
  <text x="1236" y="356.3" font-family="Helvetica" font-size="10" font-weight="normal" font-style="normal" fill="#000000" fill-opacity="1">10 ns</text>
  <path d="M 50 268.2 L 1230 268.2" fill="none" stroke-width="0.75" stroke="#000000" stroke-opacity="0.49804" stroke-linecap="butt" stroke-linejoin="round"/>
  <text x="16" y="269.9" font-family="Helvetica" font-size="10" font-weight="normal" font-style="normal" fill="#000000" fill-opacity="1">100 ns</text>
  <text x="1236" y="269.9" font-family="Helvetica" font-size="10" font-weight="normal" font-style="normal" fill="#000000" fill-opacity="1">100 ns</text>
  <path d="M 50 181.8 L 1230 181.8" fill="none" stroke-width="0.75" stroke="#000000" stroke-opacity="0.49804" stroke-linecap="butt" stroke-linejoin="round"/>
  <text x="26" y="183.5" font-family="Helvetica" font-size="10" font-weight="normal" font-style="normal" fill="#000000" fill-opacity="1">1 µs</text>
  <text x="1236" y="183.5" font-family="Helvetica" font-size="10" font-weight="normal" font-style="normal" fill="#000000" fill-opacity="1">1 µs</text>
  <path d="M 50 95.4 L 1230 95.4" fill="none" stroke-width="0.75" stroke="#000000" stroke-opacity="0.49804" stroke-linecap="butt" stroke-linejoin="round"/>
  <text x="21" y="97.1" font-family="Helvetica" font-size="10" font-weight="normal" font-style="normal" fill="#000000" fill-opacity="1">10 µs</text>
  <text x="1236" y="97.1" font-family="Helvetica" font-size="10" font-weight="normal" font-style="normal" fill="#000000" fill-opacity="1">10 µs</text>
  <path d="M 50 9 L 1230 9" fill="none" stroke-width="0.75" stroke="#000000" stroke-opacity="0.49804" stroke-linecap="butt" stroke-linejoin="round"/>
  <text x="15" y="10.7" font-family="Helvetica" font-size="10" font-weight="normal" font-style="normal" fill="#000000" fill-opacity="1">100 µs</text>
  <text x="1236" y="10.7" font-family="Helvetica" font-size="10" font-weight="normal" font-style="normal" fill="#000000" fill-opacity="1">100 µs</text>
  <path d="M 50 414.99 L 1230 414.99" fill="none" stroke-width="0.5" stroke="#000000" stroke-opacity="0.25882" stroke-linecap="butt" stroke-linejoin="round" stroke-dasharray="6 3" stroke-dashoffset="0"/>
  <path d="M 50 388.98 L 1230 388.98" fill="none" stroke-width="0.5" stroke="#000000" stroke-opacity="0.25882" stroke-linecap="butt" stroke-linejoin="round" stroke-dasharray="6 3" stroke-dashoffset="0"/>
  <path d="M 50 362.97 L 1230 362.97" fill="none" stroke-width="0.5" stroke="#000000" stroke-opacity="0.25882" stroke-linecap="butt" stroke-linejoin="round" stroke-dasharray="6 3" stroke-dashoffset="0"/>
  <path d="M 50 336.96 L 1230 336.96" fill="none" stroke-width="0.5" stroke="#000000" stroke-opacity="0.25882" stroke-linecap="butt" stroke-linejoin="round" stroke-dasharray="6 3" stroke-dashoffset="0"/>
  <path d="M 50 310.96 L 1230 310.96" fill="none" stroke-width="0.5" stroke="#000000" stroke-opacity="0.25882" stroke-linecap="butt" stroke-linejoin="round" stroke-dasharray="6 3" stroke-dashoffset="0"/>
  <path d="M 50 284.95 L 1230 284.95" fill="none" stroke-width="0.5" stroke="#000000" stroke-opacity="0.25882" stroke-linecap="butt" stroke-linejoin="round" stroke-dasharray="6 3" stroke-dashoffset="0"/>
  <path d="M 50 258.94 L 1230 258.94" fill="none" stroke-width="0.5" stroke="#000000" stroke-opacity="0.25882" stroke-linecap="butt" stroke-linejoin="round" stroke-dasharray="6 3" stroke-dashoffset="0"/>
  <path d="M 50 232.93 L 1230 232.93" fill="none" stroke-width="0.5" stroke="#000000" stroke-opacity="0.25882" stroke-linecap="butt" stroke-linejoin="round" stroke-dasharray="6 3" stroke-dashoffset="0"/>
  <path d="M 50 206.92 L 1230 206.92" fill="none" stroke-width="0.5" stroke="#000000" stroke-opacity="0.25882" stroke-linecap="butt" stroke-linejoin="round" stroke-dasharray="6 3" stroke-dashoffset="0"/>
  <path d="M 50 180.91 L 1230 180.91" fill="none" stroke-width="0.5" stroke="#000000" stroke-opacity="0.25882" stroke-linecap="butt" stroke-linejoin="round" stroke-dasharray="6 3" stroke-dashoffset="0"/>
  <path d="M 50 154.9 L 1230 154.9" fill="none" stroke-width="0.5" stroke="#000000" stroke-opacity="0.25882" stroke-linecap="butt" stroke-linejoin="round" stroke-dasharray="6 3" stroke-dashoffset="0"/>
  <path d="M 50 128.89 L 1230 128.89" fill="none" stroke-width="0.5" stroke="#000000" stroke-opacity="0.25882" stroke-linecap="butt" stroke-linejoin="round" stroke-dasharray="6 3" stroke-dashoffset="0"/>
  <path d="M 50 102.88 L 1230 102.88" fill="none" stroke-width="0.5" stroke="#000000" stroke-opacity="0.25882" stroke-linecap="butt" stroke-linejoin="round" stroke-dasharray="6 3" stroke-dashoffset="0"/>
  <path d="M 50 76.874 L 1230 76.874" fill="none" stroke-width="0.5" stroke="#000000" stroke-opacity="0.25882" stroke-linecap="butt" stroke-linejoin="round" stroke-dasharray="6 3" stroke-dashoffset="0"/>
  <path d="M 50 50.865 L 1230 50.865" fill="none" stroke-width="0.5" stroke="#000000" stroke-opacity="0.25882" stroke-linecap="butt" stroke-linejoin="round" stroke-dasharray="6 3" stroke-dashoffset="0"/>
  <path d="M 50 24.856 L 1230 24.856" fill="none" stroke-width="0.5" stroke="#000000" stroke-opacity="0.25882" stroke-linecap="butt" stroke-linejoin="round" stroke-dasharray="6 3" stroke-dashoffset="0"/>
  <path d="M 74 33 L 74 88 L 392 88 L 392 33 z" fill="#FFFFFF" fill-opacity="1.0" stroke="none"/>
  <clipPath id="clip-0">
    <path d="M 50 9 L 50 441 L 1230 441 L 1230 9 z"/>
  </clipPath>
  <g clip-path="url(#clip-0)">
    <path d="M 50 276.96L 123.75 274.96L 166.89 275.04L 197.5 273.43L 221.24 272.47L 240.64 270.9L 257.04 270.2L 271.25 268.56L 294.99 266.2L 314.39 264.11L 330.79 261.16L 345 258.84L 368.74 254.96L 388.14 250.51L 404.54 247.93L 418.75 243.33L 442.49 238.35L 461.89 231.01L 478.29 225.86L 492.5 223.52L 516.24 217.5L 535.64 210.33L 552.04 203.43L 566.25 200.53L 589.99 193.94L 609.39 185.5L 625.79 179.95L 640 175.63L 663.74 168.67L 683.14 160.56L 699.54 152.39L 713.75 150.57L 737.49 143.35L 756.89 135.37L 773.29 127.73L 787.5 124.93L 811.24 117.57L 830.64 109.33L 847.04 103.81L 861.25 99.131L 884.99 89.781L 904.39 80.066L 920.79 72.43L 935 70.348L 958.74 62.388L 978.14 54.016L 994.54 47.131L 1008.8 43.955L 1032.5 36.014L 1051.9 28.717L 1068.3 21.759L 1068.3 21.938L 1051.9 29.202L 1032.5 37.311L 1008.8 43.994L 994.54 47.232L 978.14 55.461L 958.74 63.466L 935 70.523L 920.79 75.388L 904.39 81.38L 884.99 89.807L 861.25 99.201L 847.04 104.04L 830.64 109.56L 811.24 117.93L 787.5 124.99L 773.29 128.82L 756.89 135.38L 737.49 143.46L 713.75 150.64L 699.54 155.41L 683.14 160.9L 663.74 168.81L 640 175.79L 625.79 180.25L 609.39 186.27L 589.99 193.98L 566.25 200.71L 552.04 205.27L 535.64 210.36L 516.24 217.62L 492.5 223.58L 478.29 227.68L 461.89 232.42L 442.49 238.49L 418.75 243.58L 404.54 248.06L 388.14 250.63L 368.74 255.03L 345 258.98L 330.79 261.67L 314.39 264.13L 294.99 266.4L 271.25 268.75L 257.04 270.41L 240.64 270.96L 221.24 272.47L 197.5 273.44L 166.89 275.04L 123.75 275.14L 50 276.97" fill="#007AFF" fill-opacity="0.30196078431372547" stroke="none"/>
    <path d="M 50 401.26L 123.75 417.41L 166.89 389.21L 197.5 403.63L 221.24 399.89L 240.64 396.71L 257.04 396.48L 271.25 392.5L 294.99 388.21L 314.39 379.84L 330.79 376.19L 345 372.72L 368.74 366.67L 388.14 361.06L 404.54 356.2L 418.75 351.82L 442.49 344.18L 461.89 335.27L 478.29 331.93L 492.5 327.54L 516.24 319.47L 535.64 312.83L 552.04 301.71L 566.25 295.38L 589.99 288.14L 609.39 282.55L 625.79 275.19L 640 272.6L 663.74 265.14L 683.14 256.47L 699.54 252.55L 713.75 248.65L 737.49 240.72L 756.89 233.89L 773.29 228.67L 787.5 223.26L 811.24 215.12L 830.64 208.33L 847.04 203.08L 861.25 197.98L 884.99 189.85L 904.39 183.29L 920.79 177.51L 935 172.55L 958.74 164.21L 978.14 157.43L 994.54 151.65L 1008.8 146.66L 1032.5 137.9L 1051.9 129.89L 1068.3 123.97L 1082.5 119.22L 1106.2 112.04L 1125.6 104.54L 1142 99.636L 1156.2 94.58L 1180 85.863L 1199.4 79.338L 1215.8 73.267L 1215.8 73.649L 1199.4 79.414L 1180 86.296L 1156.2 94.665L 1142 99.644L 1125.6 104.74L 1106.2 112.23L 1082.5 120.42L 1068.3 125.35L 1051.9 131.34L 1032.5 138.15L 1008.8 146.66L 994.54 151.67L 978.14 157.46L 958.74 164.26L 935 172.58L 920.79 177.53L 904.39 183.31L 884.99 190.07L 861.25 198.32L 847.04 203.12L 830.64 208.88L 811.24 215.67L 787.5 223.77L 773.29 228.69L 756.89 234.26L 737.49 240.79L 713.75 248.69L 699.54 253.59L 683.14 258.99L 663.74 265.15L 640 272.82L 625.79 277.35L 609.39 282.59L 589.99 288.14L 566.25 295.86L 552.04 301.75L 535.64 312.83L 516.24 319.47L 492.5 327.54L 478.29 332.84L 461.89 337.81L 442.49 344.2L 418.75 351.82L 404.54 356.31L 388.14 361.21L 368.74 366.67L 345 373.03L 330.79 376.19L 314.39 379.84L 294.99 388.21L 271.25 393.55L 257.04 396.51L 240.64 398.24L 221.24 401.91L 197.5 403.63L 166.89 400.83L 123.75 417.41L 50 413.52" fill="#FF3B30" fill-opacity="0.30196078431372547" stroke="none"/>
    <path d="M 50 276.97L 123.75 275.09L 166.89 275.04L 197.5 273.43L 221.24 272.47L 240.64 270.94L 257.04 270.35L 271.25 268.7L 294.99 266.35L 314.39 264.12L 330.79 261.54L 345 258.94L 368.74 255.01L 388.14 250.6L 404.54 248.03L 418.75 243.52L 442.49 238.46L 461.89 232.05L 478.29 227.2L 492.5 223.57L 516.24 217.59L 535.64 210.36L 552.04 204.78L 566.25 200.66L 589.99 193.97L 609.39 186.06L 625.79 180.18L 640 175.74L 663.74 168.77L 683.14 160.81L 699.54 154.6L 713.75 150.62L 737.49 143.43L 756.89 135.38L 773.29 128.53L 787.5 124.98L 811.24 117.84L 830.64 109.5L 847.04 103.98L 861.25 99.183L 884.99 89.8L 904.39 81.032L 920.79 74.593L 935 70.477L 958.74 63.181L 978.14 55.078L 994.54 47.205L 1008.8 43.984L 1032.5 36.968L 1051.9 29.074L 1068.3 21.891" fill="none" stroke-width="4" stroke="#007AFF" stroke-opacity="1" stroke-linecap="round" stroke-linejoin="round"/>
    <path d="M 50 409.91L 123.75 417.41L 166.89 397.43L 197.5 403.63L 221.24 401.37L 240.64 397.84L 257.04 396.5L 271.25 393.28L 294.99 388.21L 314.39 379.84L 330.79 376.19L 345 372.95L 368.74 366.67L 388.14 361.17L 404.54 356.28L 418.75 351.82L 442.49 344.19L 461.89 337.13L 478.29 332.6L 492.5 327.54L 516.24 319.47L 535.64 312.83L 552.04 301.74L 566.25 295.73L 589.99 288.14L 609.39 282.58L 625.79 276.77L 640 272.76L 663.74 265.15L 683.14 258.32L 699.54 253.32L 713.75 248.68L 737.49 240.77L 756.89 234.16L 773.29 228.68L 787.5 223.64L 811.24 215.52L 830.64 208.73L 847.04 203.11L 861.25 198.23L 884.99 190.01L 904.39 183.3L 920.79 177.52L 935 172.58L 958.74 164.25L 978.14 157.45L 994.54 151.67L 1008.8 146.66L 1032.5 138.08L 1051.9 130.96L 1068.3 124.99L 1082.5 120.1L 1106.2 112.18L 1125.6 104.69L 1142 99.642L 1156.2 94.643L 1180 86.183L 1199.4 79.394L 1215.8 73.549" fill="none" stroke-width="4" stroke="#FF3B30" stroke-opacity="1" stroke-linecap="round" stroke-linejoin="round"/>
    <path d="M 50 276.97L 123.75 275.09L 166.89 275.04L 197.5 273.43L 221.24 272.47L 240.64 270.94L 257.04 270.35L 271.25 268.7L 294.99 266.35L 314.39 264.12L 330.79 261.54L 345 258.94L 368.74 255.01L 388.14 250.6L 404.54 248.03L 418.75 243.52L 442.49 238.46L 461.89 232.05L 478.29 227.2L 492.5 223.57L 516.24 217.59L 535.64 210.36L 552.04 204.78L 566.25 200.66L 589.99 193.97L 609.39 186.06L 625.79 180.18L 640 175.74L 663.74 168.77L 683.14 160.81L 699.54 154.6L 713.75 150.62L 737.49 143.43L 756.89 135.38L 773.29 128.53L 787.5 124.98L 811.24 117.84L 830.64 109.5L 847.04 103.98L 861.25 99.183L 884.99 89.8L 904.39 81.032L 920.79 74.593L 935 70.477L 958.74 63.181L 978.14 55.078L 994.54 47.205L 1008.8 43.984L 1032.5 36.968L 1051.9 29.074L 1068.3 21.891" fill="none" stroke-width="0.5" stroke="#000000" stroke-opacity="0.30196" stroke-linecap="round" stroke-linejoin="round"/>
    <path d="M 50 409.91L 123.75 417.41L 166.89 397.43L 197.5 403.63L 221.24 401.37L 240.64 397.84L 257.04 396.5L 271.25 393.28L 294.99 388.21L 314.39 379.84L 330.79 376.19L 345 372.95L 368.74 366.67L 388.14 361.17L 404.54 356.28L 418.75 351.82L 442.49 344.19L 461.89 337.13L 478.29 332.6L 492.5 327.54L 516.24 319.47L 535.64 312.83L 552.04 301.74L 566.25 295.73L 589.99 288.14L 609.39 282.58L 625.79 276.77L 640 272.76L 663.74 265.15L 683.14 258.32L 699.54 253.32L 713.75 248.68L 737.49 240.77L 756.89 234.16L 773.29 228.68L 787.5 223.64L 811.24 215.52L 830.64 208.73L 847.04 203.11L 861.25 198.23L 884.99 190.01L 904.39 183.3L 920.79 177.52L 935 172.58L 958.74 164.25L 978.14 157.45L 994.54 151.67L 1008.8 146.66L 1032.5 138.08L 1051.9 130.96L 1068.3 124.99L 1082.5 120.1L 1106.2 112.18L 1125.6 104.69L 1142 99.642L 1156.2 94.643L 1180 86.183L 1199.4 79.394L 1215.8 73.549" fill="none" stroke-width="0.5" stroke="#000000" stroke-opacity="0.30196" stroke-linecap="round" stroke-linejoin="round"/>
  </g>
  <path d="M 74 33 L 74 88 L 392 88 L 392 33 z" fill="#FFFFFF" fill-opacity="0.7019607843137254" stroke-width="0.5" stroke="#000000" stroke-opacity="1" stroke-linecap="round" stroke-linejoin="round"/>
  <path d="M 88 52 L 108 52" fill="none" stroke-width="4" stroke="#FF3B30" stroke-opacity="1" stroke-linecap="round" stroke-linejoin="round"/>
  <path d="M 88 52 L 108 52" fill="none" stroke-width="0.5" stroke="#000000" stroke-opacity="0.30196" stroke-linecap="round" stroke-linejoin="round"/>
  <text x="119" y="56.17" font-family="Menlo" font-size="12" font-weight="normal" font-style="normal" fill="#000000" fill-opacity="1">Array&lt;Int&gt; unsuccessful contains</text>
  <path d="M 88 69 L 108 69" fill="none" stroke-width="4" stroke="#007AFF" stroke-opacity="1" stroke-linecap="round" stroke-linejoin="round"/>
  <path d="M 88 69 L 108 69" fill="none" stroke-width="0.5" stroke="#000000" stroke-opacity="0.30196" stroke-linecap="round" stroke-linejoin="round"/>
  <text x="119" y="73.17" font-family="Menlo" font-size="12" font-weight="normal" font-style="normal" fill="#000000" fill-opacity="1">TreeArray&lt;Int&gt; unsuccessful contains</text>
  <path d="M 50 9 L 50 441 L 1230 441 L 1230 9 z" fill="none" stroke-width="0.5" stroke="#000000" stroke-opacity="1" stroke-linecap="round" stroke-linejoin="round"/>
</svg>
