<!DOCTYPE svg PUBLIC "-//W3C//DTD SVG 1.1//EN" "http://www.w3.org/Graphics/SVG/1.1/DTD/svg11.dtd">
<svg width="1280.0px" height="480.0px" viewBox="0.0 0.0 1280.0 480.0" xmlns="http://www.w3.org/2000/svg" xmlns:xlink="http://www.w3.org/1999/xlink" version="1.1">
  <path d="M 0 0 L 0 480 L 1280 480 L 1280 0 z" fill="#FFFFFF" fill-opacity="1.0" stroke="none"/>
  <text x="50" y="468.7" font-family="Helvetica" font-size="10" font-weight="normal" font-style="normal" fill="#000000" fill-opacity="1">Average per-element processing time over input size (bands: min, mean, mean + 2stddev)</text>
  <a xlink:href="https://github.com/apple/swift-collections-benchmark"><text x="1107" y="468.7" font-family="Helvetica" font-size="10" font-weight="normal" font-style="normal" fill="#000000" fill-opacity="1">swift-collections-benchmark</text></a>
  <path d="M 50 9 L 50 441" fill="none" stroke-width="0.75" stroke="#000000" stroke-opacity="0.49804" stroke-linecap="butt" stroke-linejoin="round"/>
  <text x="47" y="453.7" font-family="Helvetica" font-size="10" font-weight="normal" font-style="normal" fill="#000000" fill-opacity="1">1</text>
  <path d="M 123.75 9 L 123.75 441" fill="none" stroke-width="0.75" stroke="#000000" stroke-opacity="0.49804" stroke-linecap="butt" stroke-linejoin="round"/>
  <text x="120.75" y="453.7" font-family="Helvetica" font-size="10" font-weight="normal" font-style="normal" fill="#000000" fill-opacity="1">2</text>
  <path d="M 197.5 9 L 197.5 441" fill="none" stroke-width="0.75" stroke="#000000" stroke-opacity="0.49804" stroke-linecap="butt" stroke-linejoin="round"/>
  <text x="194.5" y="453.7" font-family="Helvetica" font-size="10" font-weight="normal" font-style="normal" fill="#000000" fill-opacity="1">4</text>
  <path d="M 271.25 9 L 271.25 441" fill="none" stroke-width="0.75" stroke="#000000" stroke-opacity="0.49804" stroke-linecap="butt" stroke-linejoin="round"/>
  <text x="268.25" y="453.7" font-family="Helvetica" font-size="10" font-weight="normal" font-style="normal" fill="#000000" fill-opacity="1">8</text>
  <path d="M 345 9 L 345 441" fill="none" stroke-width="0.75" stroke="#000000" stroke-opacity="0.49804" stroke-linecap="butt" stroke-linejoin="round"/>
  <text x="339" y="453.7" font-family="Helvetica" font-size="10" font-weight="normal" font-style="normal" fill="#000000" fill-opacity="1">16</text>
  <path d="M 418.75 9 L 418.75 441" fill="none" stroke-width="0.75" stroke="#000000" stroke-opacity="0.49804" stroke-linecap="butt" stroke-linejoin="round"/>
  <text x="412.75" y="453.7" font-family="Helvetica" font-size="10" font-weight="normal" font-style="normal" fill="#000000" fill-opacity="1">32</text>
  <path d="M 492.5 9 L 492.5 441" fill="none" stroke-width="0.75" stroke="#000000" stroke-opacity="0.49804" stroke-linecap="butt" stroke-linejoin="round"/>
  <text x="486.5" y="453.7" font-family="Helvetica" font-size="10" font-weight="normal" font-style="normal" fill="#000000" fill-opacity="1">64</text>
  <path d="M 566.25 9 L 566.25 441" fill="none" stroke-width="0.75" stroke="#000000" stroke-opacity="0.49804" stroke-linecap="butt" stroke-linejoin="round"/>
  <text x="557.75" y="453.7" font-family="Helvetica" font-size="10" font-weight="normal" font-style="normal" fill="#000000" fill-opacity="1">128</text>
  <path d="M 640 9 L 640 441" fill="none" stroke-width="0.75" stroke="#000000" stroke-opacity="0.49804" stroke-linecap="butt" stroke-linejoin="round"/>
  <text x="631.5" y="453.7" font-family="Helvetica" font-size="10" font-weight="normal" font-style="normal" fill="#000000" fill-opacity="1">256</text>
  <path d="M 713.75 9 L 713.75 441" fill="none" stroke-width="0.75" stroke="#000000" stroke-opacity="0.49804" stroke-linecap="butt" stroke-linejoin="round"/>
  <text x="705.25" y="453.7" font-family="Helvetica" font-size="10" font-weight="normal" font-style="normal" fill="#000000" fill-opacity="1">512</text>
  <path d="M 787.5 9 L 787.5 441" fill="none" stroke-width="0.75" stroke="#000000" stroke-opacity="0.49804" stroke-linecap="butt" stroke-linejoin="round"/>
  <text x="782" y="453.7" font-family="Helvetica" font-size="10" font-weight="normal" font-style="normal" fill="#000000" fill-opacity="1">1k</text>
  <path d="M 861.25 9 L 861.25 441" fill="none" stroke-width="0.75" stroke="#000000" stroke-opacity="0.49804" stroke-linecap="butt" stroke-linejoin="round"/>
  <text x="855.75" y="453.7" font-family="Helvetica" font-size="10" font-weight="normal" font-style="normal" fill="#000000" fill-opacity="1">2k</text>
  <path d="M 935 9 L 935 441" fill="none" stroke-width="0.75" stroke="#000000" stroke-opacity="0.49804" stroke-linecap="butt" stroke-linejoin="round"/>
  <text x="929.5" y="453.7" font-family="Helvetica" font-size="10" font-weight="normal" font-style="normal" fill="#000000" fill-opacity="1">4k</text>
  <path d="M 1008.8 9 L 1008.8 441" fill="none" stroke-width="0.75" stroke="#000000" stroke-opacity="0.49804" stroke-linecap="butt" stroke-linejoin="round"/>
  <text x="1003.2" y="453.7" font-family="Helvetica" font-size="10" font-weight="normal" font-style="normal" fill="#000000" fill-opacity="1">8k</text>
  <path d="M 1082.5 9 L 1082.5 441" fill="none" stroke-width="0.75" stroke="#000000" stroke-opacity="0.49804" stroke-linecap="butt" stroke-linejoin="round"/>
  <text x="1074" y="453.7" font-family="Helvetica" font-size="10" font-weight="normal" font-style="normal" fill="#000000" fill-opacity="1">16k</text>
  <path d="M 1156.2 9 L 1156.2 441" fill="none" stroke-width="0.75" stroke="#000000" stroke-opacity="0.49804" stroke-linecap="butt" stroke-linejoin="round"/>
  <text x="1147.8" y="453.7" font-family="Helvetica" font-size="10" font-weight="normal" font-style="normal" fill="#000000" fill-opacity="1">32k</text>
  <path d="M 1230 9 L 1230 441" fill="none" stroke-width="0.75" stroke="#000000" stroke-opacity="0.49804" stroke-linecap="butt" stroke-linejoin="round"/>
  <text x="1221.5" y="453.7" font-family="Helvetica" font-size="10" font-weight="normal" font-style="normal" fill="#000000" fill-opacity="1">64k</text>
  <path d="M 50 441 L 1230 441" fill="none" stroke-width="0.75" stroke="#000000" stroke-opacity="0.49804" stroke-linecap="butt" stroke-linejoin="round"/>
  <text x="27" y="442.7" font-family="Helvetica" font-size="10" font-weight="normal" font-style="normal" fill="#000000" fill-opacity="1">1 ns</text>
  <text x="1236" y="442.7" font-family="Helvetica" font-size="10" font-weight="normal" font-style="normal" fill="#000000" fill-opacity="1">1 ns</text>
  <path d="M 50 354.6 L 1230 354.6" fill="none" stroke-width="0.75" stroke="#000000" stroke-opacity="0.49804" stroke-linecap="butt" stroke-linejoin="round"/>
  <text x="21" y="356.3" font-family="Helvetica" font-size="10" font-weight="normal" font-style="normal" fill="#000000" fill-opacity="1">10 ns</text>
  <text x="1236" y="356.3" font-family="Helvetica" font-size="10" font-weight="normal" font-style="normal" fill="#000000" fill-opacity="1">10 ns</text>
  <path d="M 50 268.2 L 1230 268.2" fill="none" stroke-width="0.75" stroke="#000000" stroke-opacity="0.49804" stroke-linecap="butt" stroke-linejoin="round"/>
  <text x="16" y="269.9" font-family="Helvetica" font-size="10" font-weight="normal" font-style="normal" fill="#000000" fill-opacity="1">100 ns</text>
  <text x="1236" y="269.9" font-family="Helvetica" font-size="10" font-weight="normal" font-style="normal" fill="#000000" fill-opacity="1">100 ns</text>
  <path d="M 50 181.8 L 1230 181.8" fill="none" stroke-width="0.75" stroke="#000000" stroke-opacity="0.49804" stroke-linecap="butt" stroke-linejoin="round"/>
  <text x="26" y="183.5" font-family="Helvetica" font-size="10" font-weight="normal" font-style="normal" fill="#000000" fill-opacity="1">1 µs</text>
  <text x="1236" y="183.5" font-family="Helvetica" font-size="10" font-weight="normal" font-style="normal" fill="#000000" fill-opacity="1">1 µs</text>
  <path d="M 50 95.4 L 1230 95.4" fill="none" stroke-width="0.75" stroke="#000000" stroke-opacity="0.49804" stroke-linecap="butt" stroke-linejoin="round"/>
  <text x="21" y="97.1" font-family="Helvetica" font-size="10" font-weight="normal" font-style="normal" fill="#000000" fill-opacity="1">10 µs</text>
  <text x="1236" y="97.1" font-family="Helvetica" font-size="10" font-weight="normal" font-style="normal" fill="#000000" fill-opacity="1">10 µs</text>
  <path d="M 50 9 L 1230 9" fill="none" stroke-width="0.75" stroke="#000000" stroke-opacity="0.49804" stroke-linecap="butt" stroke-linejoin="round"/>
  <text x="15" y="10.7" font-family="Helvetica" font-size="10" font-weight="normal" font-style="normal" fill="#000000" fill-opacity="1">100 µs</text>
  <text x="1236" y="10.7" font-family="Helvetica" font-size="10" font-weight="normal" font-style="normal" fill="#000000" fill-opacity="1">100 µs</text>
  <path d="M 50 414.99 L 1230 414.99" fill="none" stroke-width="0.5" stroke="#000000" stroke-opacity="0.25882" stroke-linecap="butt" stroke-linejoin="round" stroke-dasharray="6 3" stroke-dashoffset="0"/>
  <path d="M 50 388.98 L 1230 388.98" fill="none" stroke-width="0.5" stroke="#000000" stroke-opacity="0.25882" stroke-linecap="butt" stroke-linejoin="round" stroke-dasharray="6 3" stroke-dashoffset="0"/>
  <path d="M 50 362.97 L 1230 362.97" fill="none" stroke-width="0.5" stroke="#000000" stroke-opacity="0.25882" stroke-linecap="butt" stroke-linejoin="round" stroke-dasharray="6 3" stroke-dashoffset="0"/>
  <path d="M 50 336.96 L 1230 336.96" fill="none" stroke-width="0.5" stroke="#000000" stroke-opacity="0.25882" stroke-linecap="butt" stroke-linejoin="round" stroke-dasharray="6 3" stroke-dashoffset="0"/>
  <path d="M 50 310.96 L 1230 310.96" fill="none" stroke-width="0.5" stroke="#000000" stroke-opacity="0.25882" stroke-linecap="butt" stroke-linejoin="round" stroke-dasharray="6 3" stroke-dashoffset="0"/>
  <path d="M 50 284.95 L 1230 284.95" fill="none" stroke-width="0.5" stroke="#000000" stroke-opacity="0.25882" stroke-linecap="butt" stroke-linejoin="round" stroke-dasharray="6 3" stroke-dashoffset="0"/>
  <path d="M 50 258.94 L 1230 258.94" fill="none" stroke-width="0.5" stroke="#000000" stroke-opacity="0.25882" stroke-linecap="butt" stroke-linejoin="round" stroke-dasharray="6 3" stroke-dashoffset="0"/>
  <path d="M 50 232.93 L 1230 232.93" fill="none" stroke-width="0.5" stroke="#000000" stroke-opacity="0.25882" stroke-linecap="butt" stroke-linejoin="round" stroke-dasharray="6 3" stroke-dashoffset="0"/>
  <path d="M 50 206.92 L 1230 206.92" fill="none" stroke-width="0.5" stroke="#000000" stroke-opacity="0.25882" stroke-linecap="butt" stroke-linejoin="round" stroke-dasharray="6 3" stroke-dashoffset="0"/>
  <path d="M 50 180.91 L 1230 180.91" fill="none" stroke-width="0.5" stroke="#000000" stroke-opacity="0.25882" stroke-linecap="butt" stroke-linejoin="round" stroke-dasharray="6 3" stroke-dashoffset="0"/>
  <path d="M 50 154.9 L 1230 154.9" fill="none" stroke-width="0.5" stroke="#000000" stroke-opacity="0.25882" stroke-linecap="butt" stroke-linejoin="round" stroke-dasharray="6 3" stroke-dashoffset="0"/>
  <path d="M 50 128.89 L 1230 128.89" fill="none" stroke-width="0.5" stroke="#000000" stroke-opacity="0.25882" stroke-linecap="butt" stroke-linejoin="round" stroke-dasharray="6 3" stroke-dashoffset="0"/>
  <path d="M 50 102.88 L 1230 102.88" fill="none" stroke-width="0.5" stroke="#000000" stroke-opacity="0.25882" stroke-linecap="butt" stroke-linejoin="round" stroke-dasharray="6 3" stroke-dashoffset="0"/>
  <path d="M 50 76.874 L 1230 76.874" fill="none" stroke-width="0.5" stroke="#000000" stroke-opacity="0.25882" stroke-linecap="butt" stroke-linejoin="round" stroke-dasharray="6 3" stroke-dashoffset="0"/>
  <path d="M 50 50.865 L 1230 50.865" fill="none" stroke-width="0.5" stroke="#000000" stroke-opacity="0.25882" stroke-linecap="butt" stroke-linejoin="round" stroke-dasharray="6 3" stroke-dashoffset="0"/>
  <path d="M 50 24.856 L 1230 24.856" fill="none" stroke-width="0.5" stroke="#000000" stroke-opacity="0.25882" stroke-linecap="butt" stroke-linejoin="round" stroke-dasharray="6 3" stroke-dashoffset="0"/>
  <path d="M 74 33 L 74 88 L 392 88 L 392 33 z" fill="#FFFFFF" fill-opacity="1.0" stroke="none"/>
  <clipPath id="clip-0">
    <path d="M 50 9 L 50 441 L 1230 441 L 1230 9 z"/>
  </clipPath>
  <g clip-path="url(#clip-0)">
    <path d="M 50 267.76L 123.75 266.45L 166.89 266.52L 197.5 265.2L 221.24 263.97L 240.64 261.94L 257.04 261.7L 271.25 261.34L 294.99 259.17L 314.39 257.24L 330.79 255.16L 345 253.04L 368.74 249.56L 388.14 245.77L 404.54 243.51L 418.75 239.61L 442.49 232.34L 461.89 229.11L 478.29 224.91L 492.5 220.04L 516.24 215.54L 535.64 208.52L 552.04 203.52L 566.25 199.07L 589.99 192.88L 609.39 185.42L 625.79 177.7L 640 175.1L 663.74 168.03L 683.14 160.23L 699.54 154.97L 713.75 150.25L 737.49 142.92L 756.89 135.06L 773.29 128.93L 787.5 124.44L 811.24 116.25L 830.64 109.14L 847.04 103.59L 861.25 98.93L 884.99 89.769L 904.39 81.267L 920.79 74.373L 935 69.485L 958.74 63.454L 978.14 54.934L 994.54 47.113L 1008.8 44.108L 1032.5 36.929L 1051.9 28.685L 1068.3 21.051L 1068.3 21.76L 1051.9 29.128L 1032.5 37.19L 1008.8 44.172L 994.54 49.101L 978.14 55.341L 958.74 63.458L 935 70.318L 920.79 74.376L 904.39 81.369L 884.99 89.8L 861.25 99.1L 847.04 104L 830.64 109.4L 811.24 117.62L 787.5 124.88L 773.29 129.65L 756.89 135.16L 737.49 143.24L 713.75 150.47L 699.54 155.13L 683.14 160.61L 663.74 168.45L 640 175.38L 625.79 179.76L 609.39 185.42L 589.99 192.93L 566.25 199.5L 552.04 203.77L 535.64 208.78L 516.24 215.57L 492.5 221.16L 478.29 225.12L 461.89 229.33L 442.49 235.04L 418.75 239.65L 404.54 243.62L 388.14 245.98L 368.74 249.82L 345 253.05L 330.79 255.16L 314.39 257.67L 294.99 259.53L 271.25 261.46L 257.04 262.61L 240.64 263.27L 221.24 265.17L 197.5 265.27L 166.89 266.62L 123.75 266.59L 50 268.36" fill="#007AFF" fill-opacity="0.30196078431372547" stroke="none"/>
    <path d="M 50 413.52L 123.75 417.41L 166.89 400.99L 197.5 402.2L 221.24 399.89L 240.64 397.48L 257.04 392.55L 271.25 392.51L 294.99 387.84L 314.39 379.36L 330.79 374.96L 345 372.87L 368.74 366.67L 388.14 361.06L 404.54 356.26L 418.75 349.67L 442.49 344.13L 461.89 337.77L 478.29 332.33L 492.5 327.55L 516.24 313.45L 535.64 307.43L 552.04 299.6L 566.25 295.6L 589.99 287.92L 609.39 282.57L 625.79 277.2L 640 272.41L 663.74 265.24L 683.14 258.93L 699.54 253.49L 713.75 247.85L 737.49 239.49L 756.89 234.24L 773.29 228.7L 787.5 223.65L 811.24 215.18L 830.64 208.13L 847.04 203.28L 861.25 197.77L 884.99 189.46L 904.39 183.2L 920.79 177.15L 935 172.09L 958.74 163.99L 978.14 157.3L 994.54 151.48L 1008.8 146.16L 1032.5 136.94L 1051.9 130.4L 1068.3 125.37L 1082.5 119.11L 1106.2 111.14L 1125.6 105.21L 1142 99.414L 1156.2 94.432L 1180 84.068L 1199.4 78.725L 1215.8 73.19L 1215.8 73.439L 1199.4 79.531L 1180 86.163L 1156.2 94.588L 1142 99.604L 1125.6 105.23L 1106.2 111.95L 1082.5 120.35L 1068.3 125.43L 1051.9 131.18L 1032.5 138.21L 1008.8 146.6L 994.54 151.67L 978.14 157.4L 958.74 164.2L 935 172.48L 920.79 177.57L 904.39 183.21L 884.99 190.07L 861.25 198.34L 847.04 203.28L 830.64 208.67L 811.24 215.66L 787.5 223.73L 773.29 228.71L 756.89 234.25L 737.49 240.73L 713.75 248.72L 699.54 253.55L 683.14 258.99L 663.74 265.24L 640 272.73L 625.79 277.4L 609.39 282.57L 589.99 288.14L 566.25 295.61L 552.04 301.75L 535.64 307.51L 516.24 313.51L 492.5 327.55L 478.29 332.33L 461.89 337.85L 442.49 344.19L 418.75 351.87L 404.54 356.26L 388.14 361.21L 368.74 366.67L 345 372.87L 330.79 378.02L 314.39 379.84L 294.99 388.6L 271.25 393.54L 257.04 399.78L 240.64 399.1L 221.24 401.91L 197.5 402.2L 166.89 404.62L 123.75 417.41L 50 413.52" fill="#FF3B30" fill-opacity="0.30196078431372547" stroke="none"/>
    <path d="M 50 268.2L 123.75 266.56L 166.89 266.59L 197.5 265.25L 221.24 264.85L 240.64 262.92L 257.04 262.37L 271.25 261.43L 294.99 259.44L 314.39 257.56L 330.79 255.16L 345 253.05L 368.74 249.75L 388.14 245.92L 404.54 243.59L 418.75 239.64L 442.49 234.31L 461.89 229.27L 478.29 225.06L 492.5 220.87L 516.24 215.56L 535.64 208.71L 552.04 203.7L 566.25 199.38L 589.99 192.92L 609.39 185.42L 625.79 179.21L 640 175.31L 663.74 168.34L 683.14 160.51L 699.54 155.09L 713.75 150.41L 737.49 143.16L 756.89 135.14L 773.29 129.46L 787.5 124.77L 811.24 117.26L 830.64 109.33L 847.04 103.89L 861.25 99.056L 884.99 89.792L 904.39 81.342L 920.79 74.375L 935 70.099L 958.74 63.457L 978.14 55.234L 994.54 48.571L 1008.8 44.156L 1032.5 37.122L 1051.9 29.012L 1068.3 21.574" fill="none" stroke-width="4" stroke="#007AFF" stroke-opacity="1" stroke-linecap="round" stroke-linejoin="round"/>
    <path d="M 50 413.52L 123.75 417.41L 166.89 403.64L 197.5 402.2L 221.24 401.37L 240.64 398.67L 257.04 397.75L 271.25 393.27L 294.99 388.4L 314.39 379.71L 330.79 377.2L 345 372.87L 368.74 366.67L 388.14 361.17L 404.54 356.26L 418.75 351.28L 442.49 344.17L 461.89 337.83L 478.29 332.33L 492.5 327.55L 516.24 313.5L 535.64 307.49L 552.04 301.17L 566.25 295.61L 589.99 288.08L 609.39 282.57L 625.79 277.35L 640 272.64L 663.74 265.24L 683.14 258.97L 699.54 253.53L 713.75 248.49L 737.49 240.4L 756.89 234.25L 773.29 228.7L 787.5 223.71L 811.24 215.53L 830.64 208.53L 847.04 203.28L 861.25 198.19L 884.99 189.91L 904.39 183.21L 920.79 177.46L 935 172.38L 958.74 164.14L 978.14 157.37L 994.54 151.62L 1008.8 146.49L 1032.5 137.87L 1051.9 130.97L 1068.3 125.41L 1082.5 120.02L 1106.2 111.74L 1125.6 105.22L 1142 99.554L 1156.2 94.547L 1180 85.604L 1199.4 79.318L 1215.8 73.374" fill="none" stroke-width="4" stroke="#FF3B30" stroke-opacity="1" stroke-linecap="round" stroke-linejoin="round"/>
    <path d="M 50 268.2L 123.75 266.56L 166.89 266.59L 197.5 265.25L 221.24 264.85L 240.64 262.92L 257.04 262.37L 271.25 261.43L 294.99 259.44L 314.39 257.56L 330.79 255.16L 345 253.05L 368.74 249.75L 388.14 245.92L 404.54 243.59L 418.75 239.64L 442.49 234.31L 461.89 229.27L 478.29 225.06L 492.5 220.87L 516.24 215.56L 535.64 208.71L 552.04 203.7L 566.25 199.38L 589.99 192.92L 609.39 185.42L 625.79 179.21L 640 175.31L 663.74 168.34L 683.14 160.51L 699.54 155.09L 713.75 150.41L 737.49 143.16L 756.89 135.14L 773.29 129.46L 787.5 124.77L 811.24 117.26L 830.64 109.33L 847.04 103.89L 861.25 99.056L 884.99 89.792L 904.39 81.342L 920.79 74.375L 935 70.099L 958.74 63.457L 978.14 55.234L 994.54 48.571L 1008.8 44.156L 1032.5 37.122L 1051.9 29.012L 1068.3 21.574" fill="none" stroke-width="0.5" stroke="#000000" stroke-opacity="0.30196" stroke-linecap="round" stroke-linejoin="round"/>
    <path d="M 50 413.52L 123.75 417.41L 166.89 403.64L 197.5 402.2L 221.24 401.37L 240.64 398.67L 257.04 397.75L 271.25 393.27L 294.99 388.4L 314.39 379.71L 330.79 377.2L 345 372.87L 368.74 366.67L 388.14 361.17L 404.54 356.26L 418.75 351.28L 442.49 344.17L 461.89 337.83L 478.29 332.33L 492.5 327.55L 516.24 313.5L 535.64 307.49L 552.04 301.17L 566.25 295.61L 589.99 288.08L 609.39 282.57L 625.79 277.35L 640 272.64L 663.74 265.24L 683.14 258.97L 699.54 253.53L 713.75 248.49L 737.49 240.4L 756.89 234.25L 773.29 228.7L 787.5 223.71L 811.24 215.53L 830.64 208.53L 847.04 203.28L 861.25 198.19L 884.99 189.91L 904.39 183.21L 920.79 177.46L 935 172.38L 958.74 164.14L 978.14 157.37L 994.54 151.62L 1008.8 146.49L 1032.5 137.87L 1051.9 130.97L 1068.3 125.41L 1082.5 120.02L 1106.2 111.74L 1125.6 105.22L 1142 99.554L 1156.2 94.547L 1180 85.604L 1199.4 79.318L 1215.8 73.374" fill="none" stroke-width="0.5" stroke="#000000" stroke-opacity="0.30196" stroke-linecap="round" stroke-linejoin="round"/>
  </g>
  <path d="M 74 33 L 74 88 L 392 88 L 392 33 z" fill="#FFFFFF" fill-opacity="0.7019607843137254" stroke-width="0.5" stroke="#000000" stroke-opacity="1" stroke-linecap="round" stroke-linejoin="round"/>
  <path d="M 88 52 L 108 52" fill="none" stroke-width="4" stroke="#FF3B30" stroke-opacity="1" stroke-linecap="round" stroke-linejoin="round"/>
  <path d="M 88 52 L 108 52" fill="none" stroke-width="0.5" stroke="#000000" stroke-opacity="0.30196" stroke-linecap="round" stroke-linejoin="round"/>
  <text x="119" y="56.17" font-family="Menlo" font-size="12" font-weight="normal" font-style="normal" fill="#000000" fill-opacity="1">Array&lt;Int&gt; unsuccessful contains</text>
  <path d="M 88 69 L 108 69" fill="none" stroke-width="4" stroke="#007AFF" stroke-opacity="1" stroke-linecap="round" stroke-linejoin="round"/>
  <path d="M 88 69 L 108 69" fill="none" stroke-width="0.5" stroke="#000000" stroke-opacity="0.30196" stroke-linecap="round" stroke-linejoin="round"/>
  <text x="119" y="73.17" font-family="Menlo" font-size="12" font-weight="normal" font-style="normal" fill="#000000" fill-opacity="1">TreeArray&lt;Int&gt; unsuccessful contains</text>
  <path d="M 50 9 L 50 441 L 1230 441 L 1230 9 z" fill="none" stroke-width="0.5" stroke="#000000" stroke-opacity="1" stroke-linecap="round" stroke-linejoin="round"/>
</svg>
