<!DOCTYPE svg PUBLIC "-//W3C//DTD SVG 1.1//EN" "http://www.w3.org/Graphics/SVG/1.1/DTD/svg11.dtd">
<svg width="1280.0px" height="480.0px" viewBox="0.0 0.0 1280.0 480.0" xmlns="http://www.w3.org/2000/svg" xmlns:xlink="http://www.w3.org/1999/xlink" version="1.1">
  <path d="M 0 0 L 0 480 L 1280 480 L 1280 0 z" fill="#FFFFFF" fill-opacity="1.0" stroke="none"/>
  <text x="50" y="468.7" font-family="Helvetica" font-size="10" font-weight="normal" font-style="normal" fill="#000000" fill-opacity="1">Average per-element processing time over input size (bands: min, mean, mean + 2stddev)</text>
  <a xlink:href="https://github.com/apple/swift-collections-benchmark"><text x="1107" y="468.7" font-family="Helvetica" font-size="10" font-weight="normal" font-style="normal" fill="#000000" fill-opacity="1">swift-collections-benchmark</text></a>
  <path d="M 50 9 L 50 441" fill="none" stroke-width="0.75" stroke="#000000" stroke-opacity="0.49804" stroke-linecap="butt" stroke-linejoin="round"/>
  <text x="47" y="453.7" font-family="Helvetica" font-size="10" font-weight="normal" font-style="normal" fill="#000000" fill-opacity="1">1</text>
  <path d="M 123.75 9 L 123.75 441" fill="none" stroke-width="0.75" stroke="#000000" stroke-opacity="0.49804" stroke-linecap="butt" stroke-linejoin="round"/>
  <text x="120.75" y="453.7" font-family="Helvetica" font-size="10" font-weight="normal" font-style="normal" fill="#000000" fill-opacity="1">2</text>
  <path d="M 197.5 9 L 197.5 441" fill="none" stroke-width="0.75" stroke="#000000" stroke-opacity="0.49804" stroke-linecap="butt" stroke-linejoin="round"/>
  <text x="194.5" y="453.7" font-family="Helvetica" font-size="10" font-weight="normal" font-style="normal" fill="#000000" fill-opacity="1">4</text>
  <path d="M 271.25 9 L 271.25 441" fill="none" stroke-width="0.75" stroke="#000000" stroke-opacity="0.49804" stroke-linecap="butt" stroke-linejoin="round"/>
  <text x="268.25" y="453.7" font-family="Helvetica" font-size="10" font-weight="normal" font-style="normal" fill="#000000" fill-opacity="1">8</text>
  <path d="M 345 9 L 345 441" fill="none" stroke-width="0.75" stroke="#000000" stroke-opacity="0.49804" stroke-linecap="butt" stroke-linejoin="round"/>
  <text x="339" y="453.7" font-family="Helvetica" font-size="10" font-weight="normal" font-style="normal" fill="#000000" fill-opacity="1">16</text>
  <path d="M 418.75 9 L 418.75 441" fill="none" stroke-width="0.75" stroke="#000000" stroke-opacity="0.49804" stroke-linecap="butt" stroke-linejoin="round"/>
  <text x="412.75" y="453.7" font-family="Helvetica" font-size="10" font-weight="normal" font-style="normal" fill="#000000" fill-opacity="1">32</text>
  <path d="M 492.5 9 L 492.5 441" fill="none" stroke-width="0.75" stroke="#000000" stroke-opacity="0.49804" stroke-linecap="butt" stroke-linejoin="round"/>
  <text x="486.5" y="453.7" font-family="Helvetica" font-size="10" font-weight="normal" font-style="normal" fill="#000000" fill-opacity="1">64</text>
  <path d="M 566.25 9 L 566.25 441" fill="none" stroke-width="0.75" stroke="#000000" stroke-opacity="0.49804" stroke-linecap="butt" stroke-linejoin="round"/>
  <text x="557.75" y="453.7" font-family="Helvetica" font-size="10" font-weight="normal" font-style="normal" fill="#000000" fill-opacity="1">128</text>
  <path d="M 640 9 L 640 441" fill="none" stroke-width="0.75" stroke="#000000" stroke-opacity="0.49804" stroke-linecap="butt" stroke-linejoin="round"/>
  <text x="631.5" y="453.7" font-family="Helvetica" font-size="10" font-weight="normal" font-style="normal" fill="#000000" fill-opacity="1">256</text>
  <path d="M 713.75 9 L 713.75 441" fill="none" stroke-width="0.75" stroke="#000000" stroke-opacity="0.49804" stroke-linecap="butt" stroke-linejoin="round"/>
  <text x="705.25" y="453.7" font-family="Helvetica" font-size="10" font-weight="normal" font-style="normal" fill="#000000" fill-opacity="1">512</text>
  <path d="M 787.5 9 L 787.5 441" fill="none" stroke-width="0.75" stroke="#000000" stroke-opacity="0.49804" stroke-linecap="butt" stroke-linejoin="round"/>
  <text x="782" y="453.7" font-family="Helvetica" font-size="10" font-weight="normal" font-style="normal" fill="#000000" fill-opacity="1">1k</text>
  <path d="M 861.25 9 L 861.25 441" fill="none" stroke-width="0.75" stroke="#000000" stroke-opacity="0.49804" stroke-linecap="butt" stroke-linejoin="round"/>
  <text x="855.75" y="453.7" font-family="Helvetica" font-size="10" font-weight="normal" font-style="normal" fill="#000000" fill-opacity="1">2k</text>
  <path d="M 935 9 L 935 441" fill="none" stroke-width="0.75" stroke="#000000" stroke-opacity="0.49804" stroke-linecap="butt" stroke-linejoin="round"/>
  <text x="929.5" y="453.7" font-family="Helvetica" font-size="10" font-weight="normal" font-style="normal" fill="#000000" fill-opacity="1">4k</text>
  <path d="M 1008.8 9 L 1008.8 441" fill="none" stroke-width="0.75" stroke="#000000" stroke-opacity="0.49804" stroke-linecap="butt" stroke-linejoin="round"/>
  <text x="1003.2" y="453.7" font-family="Helvetica" font-size="10" font-weight="normal" font-style="normal" fill="#000000" fill-opacity="1">8k</text>
  <path d="M 1082.5 9 L 1082.5 441" fill="none" stroke-width="0.75" stroke="#000000" stroke-opacity="0.49804" stroke-linecap="butt" stroke-linejoin="round"/>
  <text x="1074" y="453.7" font-family="Helvetica" font-size="10" font-weight="normal" font-style="normal" fill="#000000" fill-opacity="1">16k</text>
  <path d="M 1156.2 9 L 1156.2 441" fill="none" stroke-width="0.75" stroke="#000000" stroke-opacity="0.49804" stroke-linecap="butt" stroke-linejoin="round"/>
  <text x="1147.8" y="453.7" font-family="Helvetica" font-size="10" font-weight="normal" font-style="normal" fill="#000000" fill-opacity="1">32k</text>
  <path d="M 1230 9 L 1230 441" fill="none" stroke-width="0.75" stroke="#000000" stroke-opacity="0.49804" stroke-linecap="butt" stroke-linejoin="round"/>
  <text x="1221.5" y="453.7" font-family="Helvetica" font-size="10" font-weight="normal" font-style="normal" fill="#000000" fill-opacity="1">64k</text>
  <path d="M 50 441 L 1230 441" fill="none" stroke-width="0.75" stroke="#000000" stroke-opacity="0.49804" stroke-linecap="butt" stroke-linejoin="round"/>
  <text x="27" y="442.7" font-family="Helvetica" font-size="10" font-weight="normal" font-style="normal" fill="#000000" fill-opacity="1">1 ns</text>
  <text x="1236" y="442.7" font-family="Helvetica" font-size="10" font-weight="normal" font-style="normal" fill="#000000" fill-opacity="1">1 ns</text>
  <path d="M 50 354.6 L 1230 354.6" fill="none" stroke-width="0.75" stroke="#000000" stroke-opacity="0.49804" stroke-linecap="butt" stroke-linejoin="round"/>
  <text x="21" y="356.3" font-family="Helvetica" font-size="10" font-weight="normal" font-style="normal" fill="#000000" fill-opacity="1">10 ns</text>
  <text x="1236" y="356.3" font-family="Helvetica" font-size="10" font-weight="normal" font-style="normal" fill="#000000" fill-opacity="1">10 ns</text>
  <path d="M 50 268.2 L 1230 268.2" fill="none" stroke-width="0.75" stroke="#000000" stroke-opacity="0.49804" stroke-linecap="butt" stroke-linejoin="round"/>
  <text x="16" y="269.9" font-family="Helvetica" font-size="10" font-weight="normal" font-style="normal" fill="#000000" fill-opacity="1">100 ns</text>
  <text x="1236" y="269.9" font-family="Helvetica" font-size="10" font-weight="normal" font-style="normal" fill="#000000" fill-opacity="1">100 ns</text>
  <path d="M 50 181.8 L 1230 181.8" fill="none" stroke-width="0.75" stroke="#000000" stroke-opacity="0.49804" stroke-linecap="butt" stroke-linejoin="round"/>
  <text x="26" y="183.5" font-family="Helvetica" font-size="10" font-weight="normal" font-style="normal" fill="#000000" fill-opacity="1">1 µs</text>
  <text x="1236" y="183.5" font-family="Helvetica" font-size="10" font-weight="normal" font-style="normal" fill="#000000" fill-opacity="1">1 µs</text>
  <path d="M 50 95.4 L 1230 95.4" fill="none" stroke-width="0.75" stroke="#000000" stroke-opacity="0.49804" stroke-linecap="butt" stroke-linejoin="round"/>
  <text x="21" y="97.1" font-family="Helvetica" font-size="10" font-weight="normal" font-style="normal" fill="#000000" fill-opacity="1">10 µs</text>
  <text x="1236" y="97.1" font-family="Helvetica" font-size="10" font-weight="normal" font-style="normal" fill="#000000" fill-opacity="1">10 µs</text>
  <path d="M 50 9 L 1230 9" fill="none" stroke-width="0.75" stroke="#000000" stroke-opacity="0.49804" stroke-linecap="butt" stroke-linejoin="round"/>
  <text x="15" y="10.7" font-family="Helvetica" font-size="10" font-weight="normal" font-style="normal" fill="#000000" fill-opacity="1">100 µs</text>
  <text x="1236" y="10.7" font-family="Helvetica" font-size="10" font-weight="normal" font-style="normal" fill="#000000" fill-opacity="1">100 µs</text>
  <path d="M 50 414.99 L 1230 414.99" fill="none" stroke-width="0.5" stroke="#000000" stroke-opacity="0.25882" stroke-linecap="butt" stroke-linejoin="round" stroke-dasharray="6 3" stroke-dashoffset="0"/>
  <path d="M 50 388.98 L 1230 388.98" fill="none" stroke-width="0.5" stroke="#000000" stroke-opacity="0.25882" stroke-linecap="butt" stroke-linejoin="round" stroke-dasharray="6 3" stroke-dashoffset="0"/>
  <path d="M 50 362.97 L 1230 362.97" fill="none" stroke-width="0.5" stroke="#000000" stroke-opacity="0.25882" stroke-linecap="butt" stroke-linejoin="round" stroke-dasharray="6 3" stroke-dashoffset="0"/>
  <path d="M 50 336.96 L 1230 336.96" fill="none" stroke-width="0.5" stroke="#000000" stroke-opacity="0.25882" stroke-linecap="butt" stroke-linejoin="round" stroke-dasharray="6 3" stroke-dashoffset="0"/>
  <path d="M 50 310.96 L 1230 310.96" fill="none" stroke-width="0.5" stroke="#000000" stroke-opacity="0.25882" stroke-linecap="butt" stroke-linejoin="round" stroke-dasharray="6 3" stroke-dashoffset="0"/>
  <path d="M 50 284.95 L 1230 284.95" fill="none" stroke-width="0.5" stroke="#000000" stroke-opacity="0.25882" stroke-linecap="butt" stroke-linejoin="round" stroke-dasharray="6 3" stroke-dashoffset="0"/>
  <path d="M 50 258.94 L 1230 258.94" fill="none" stroke-width="0.5" stroke="#000000" stroke-opacity="0.25882" stroke-linecap="butt" stroke-linejoin="round" stroke-dasharray="6 3" stroke-dashoffset="0"/>
  <path d="M 50 232.93 L 1230 232.93" fill="none" stroke-width="0.5" stroke="#000000" stroke-opacity="0.25882" stroke-linecap="butt" stroke-linejoin="round" stroke-dasharray="6 3" stroke-dashoffset="0"/>
  <path d="M 50 206.92 L 1230 206.92" fill="none" stroke-width="0.5" stroke="#000000" stroke-opacity="0.25882" stroke-linecap="butt" stroke-linejoin="round" stroke-dasharray="6 3" stroke-dashoffset="0"/>
  <path d="M 50 180.91 L 1230 180.91" fill="none" stroke-width="0.5" stroke="#000000" stroke-opacity="0.25882" stroke-linecap="butt" stroke-linejoin="round" stroke-dasharray="6 3" stroke-dashoffset="0"/>
  <path d="M 50 154.9 L 1230 154.9" fill="none" stroke-width="0.5" stroke="#000000" stroke-opacity="0.25882" stroke-linecap="butt" stroke-linejoin="round" stroke-dasharray="6 3" stroke-dashoffset="0"/>
  <path d="M 50 128.89 L 1230 128.89" fill="none" stroke-width="0.5" stroke="#000000" stroke-opacity="0.25882" stroke-linecap="butt" stroke-linejoin="round" stroke-dasharray="6 3" stroke-dashoffset="0"/>
  <path d="M 50 102.88 L 1230 102.88" fill="none" stroke-width="0.5" stroke="#000000" stroke-opacity="0.25882" stroke-linecap="butt" stroke-linejoin="round" stroke-dasharray="6 3" stroke-dashoffset="0"/>
  <path d="M 50 76.874 L 1230 76.874" fill="none" stroke-width="0.5" stroke="#000000" stroke-opacity="0.25882" stroke-linecap="butt" stroke-linejoin="round" stroke-dasharray="6 3" stroke-dashoffset="0"/>
  <path d="M 50 50.865 L 1230 50.865" fill="none" stroke-width="0.5" stroke="#000000" stroke-opacity="0.25882" stroke-linecap="butt" stroke-linejoin="round" stroke-dasharray="6 3" stroke-dashoffset="0"/>
  <path d="M 50 24.856 L 1230 24.856" fill="none" stroke-width="0.5" stroke="#000000" stroke-opacity="0.25882" stroke-linecap="butt" stroke-linejoin="round" stroke-dasharray="6 3" stroke-dashoffset="0"/>
  <path d="M 74 33 L 74 122 L 478 122 L 478 33 z" fill="#FFFFFF" fill-opacity="1.0" stroke="none"/>
  <clipPath id="clip-0">
    <path d="M 50 9 L 50 441 L 1230 441 L 1230 9 z"/>
  </clipPath>
  <g clip-path="url(#clip-0)">
    <path d="M 50 341.55L 123.75 347.51L 166.89 348.85L 197.5 339.65L 221.24 338.77L 240.64 339.04L 257.04 338.67L 271.25 336.44L 294.99 336.29L 314.39 335.13L 330.79 334.12L 345 333.04L 368.74 330.73L 388.14 326.99L 404.54 325.85L 418.75 323.31L 442.49 318.69L 461.89 314.02L 478.29 309.77L 492.5 306.72L 516.24 300.21L 535.64 294.61L 552.04 289.82L 566.25 285.21L 589.99 273.93L 609.39 268.91L 625.79 264.43L 640 259.97L 663.74 252.68L 683.14 245.18L 699.54 238.97L 713.75 234.27L 737.49 227.04L 756.89 220.71L 773.29 215.37L 787.5 210.63L 811.24 202.51L 830.64 196.03L 847.04 190.05L 861.25 183.97L 884.99 177.52L 904.39 170.79L 920.79 163.01L 935 158.3L 958.74 151.66L 978.14 144.93L 994.54 139.43L 1008.8 133.3L 1032.5 125.48L 1051.9 118.94L 1068.3 113.46L 1082.5 108.61L 1106.2 100.23L 1125.6 93.011L 1142 87.037L 1156.2 82.132L 1180 74.341L 1199.4 67.457L 1199.4 67.501L 1180 74.344L 1156.2 82.722L 1142 87.695L 1125.6 93.392L 1106.2 100.29L 1082.5 108.66L 1068.3 113.69L 1051.9 119.44L 1032.5 126.25L 1008.8 134.39L 994.54 139.54L 978.14 145.13L 958.74 152.06L 935 160.33L 920.79 165.22L 904.39 170.89L 884.99 177.58L 861.25 185.74L 847.04 190.61L 830.64 196.19L 811.24 202.75L 787.5 210.77L 773.29 215.41L 756.89 220.85L 737.49 227.04L 713.75 234.3L 699.54 238.97L 683.14 245.18L 663.74 252.71L 640 260.03L 625.79 264.48L 609.39 268.94L 589.99 274.32L 566.25 285.53L 552.04 289.84L 535.64 294.67L 516.24 300.22L 492.5 306.72L 478.29 310.42L 461.89 315.11L 442.49 318.72L 418.75 323.36L 404.54 325.87L 388.14 330.35L 368.74 330.81L 345 333.18L 330.79 334.24L 314.39 335.28L 294.99 336.29L 271.25 337.85L 257.04 338.94L 240.64 339.04L 221.24 338.77L 197.5 339.65L 166.89 349.73L 123.75 347.51L 50 341.55" fill="#FFCC00" fill-opacity="0.30196078431372547" stroke="none"/>
    <path d="M 50 340.45L 123.75 348.15L 166.89 348.41L 197.5 350.92L 221.24 350.73L 240.64 349.98L 257.04 348.65L 271.25 349.34L 294.99 348.3L 314.39 346.96L 330.79 342.31L 345 342.58L 368.74 338.96L 388.14 334.89L 404.54 331.65L 418.75 328.23L 442.49 322.49L 461.89 317.47L 478.29 313.05L 492.5 309.07L 516.24 302.17L 535.64 296.35L 552.04 285.64L 566.25 281.68L 589.99 275.8L 609.39 270.51L 625.79 265.43L 640 260.82L 663.74 252.93L 683.14 246.98L 699.54 241.56L 713.75 236.88L 737.49 228.83L 756.89 222.14L 773.29 216.72L 787.5 211.4L 811.24 203.69L 830.64 196.82L 847.04 189.81L 861.25 184.74L 884.99 178.01L 904.39 171.32L 920.79 165.43L 935 160.49L 958.74 150.94L 978.14 144.68L 994.54 139.41L 1008.8 133.41L 1032.5 126.08L 1051.9 118.91L 1068.3 113L 1082.5 108.46L 1106.2 99.791L 1125.6 92.825L 1142 87.255L 1156.2 82.386L 1180 74.384L 1199.4 66.931L 1199.4 67.497L 1180 74.388L 1156.2 82.748L 1142 87.752L 1125.6 93.553L 1106.2 100.35L 1082.5 108.78L 1068.3 113.79L 1051.9 119.39L 1032.5 126.09L 1008.8 134.58L 994.54 139.72L 978.14 145.48L 958.74 152.3L 935 160.61L 920.79 165.56L 904.39 171.35L 884.99 178.06L 861.25 186.37L 847.04 191.26L 830.64 197.01L 811.24 203.71L 787.5 211.9L 773.29 216.74L 756.89 222.32L 737.49 228.9L 713.75 236.88L 699.54 241.6L 683.14 247.04L 663.74 253.32L 640 260.87L 625.79 265.44L 609.39 270.52L 589.99 275.87L 566.25 281.68L 552.04 285.84L 535.64 296.36L 516.24 302.19L 492.5 309.07L 478.29 313.05L 461.89 317.49L 442.49 322.49L 418.75 328.23L 404.54 331.7L 388.14 334.89L 368.74 338.99L 345 342.58L 330.79 347.98L 314.39 346.96L 294.99 348.55L 271.25 349.66L 257.04 349.01L 240.64 350.4L 221.24 350.74L 197.5 351.59L 166.89 349.27L 123.75 348.15L 50 340.45" fill="#28CD41" fill-opacity="0.30196078431372547" stroke="none"/>
    <path d="M 50 277.36L 123.75 275.07L 166.89 275.36L 197.5 274.76L 221.24 273.86L 240.64 272.27L 257.04 271.59L 271.25 270.5L 294.99 268.2L 314.39 265.96L 330.79 263.29L 345 258.8L 368.74 256.6L 388.14 251.41L 404.54 247.8L 418.75 241.92L 442.49 235.84L 461.89 232.12L 478.29 227.5L 492.5 219.69L 516.24 213.23L 535.64 209.51L 552.04 204.31L 566.25 196.38L 589.99 188.75L 609.39 184.97L 625.79 178.88L 640 170.73L 663.74 162.78L 683.14 159.13L 699.54 153.55L 713.75 145.2L 737.49 137.53L 756.89 133.57L 773.29 127.79L 787.5 119.6L 811.24 111.78L 830.64 107.47L 847.04 102.19L 861.25 93.696L 884.99 82.027L 904.39 79.587L 920.79 74.156L 935 65.467L 958.74 56.177L 978.14 53.338L 994.54 47.799L 1008.8 39.039L 1032.5 27.642L 1051.9 27.236L 1068.3 21.96L 1068.3 22.023L 1051.9 27.568L 1032.5 31.356L 1008.8 39.353L 994.54 48.238L 978.14 53.415L 958.74 56.768L 935 65.5L 920.79 74.163L 904.39 79.643L 884.99 82.188L 861.25 93.779L 847.04 102.24L 830.64 107.88L 811.24 111.81L 787.5 119.74L 773.29 128.08L 756.89 133.68L 737.49 137.61L 713.75 145.43L 699.54 153.88L 683.14 159.28L 663.74 163.17L 640 170.9L 625.79 178.92L 609.39 185.12L 589.99 188.96L 566.25 196.55L 552.04 204.37L 535.64 209.52L 516.24 213.41L 492.5 220.4L 478.29 227.59L 461.89 232.23L 442.49 235.86L 418.75 241.94L 404.54 247.92L 388.14 251.5L 368.74 256.65L 345 258.82L 330.79 263.33L 314.39 265.99L 294.99 268.23L 271.25 270.62L 257.04 271.78L 240.64 272.33L 221.24 273.93L 197.5 274.76L 166.89 275.48L 123.75 275.61L 50 277.36" fill="#007AFF" fill-opacity="0.30196078431372547" stroke="none"/>
    <path d="M 50 401.26L 123.75 417.41L 166.89 389.21L 197.5 403.63L 221.24 399.89L 240.64 396.71L 257.04 396.48L 271.25 392.5L 294.99 388.21L 314.39 379.84L 330.79 376.19L 345 372.72L 368.74 366.67L 388.14 361.06L 404.54 356.2L 418.75 351.82L 442.49 344.18L 461.89 335.27L 478.29 331.93L 492.5 327.54L 516.24 319.47L 535.64 312.83L 552.04 301.71L 566.25 295.38L 589.99 288.14L 609.39 282.55L 625.79 275.19L 640 272.6L 663.74 265.14L 683.14 256.47L 699.54 252.55L 713.75 248.65L 737.49 240.72L 756.89 233.89L 773.29 228.67L 787.5 223.26L 811.24 215.12L 830.64 208.33L 847.04 203.08L 861.25 197.98L 884.99 189.85L 904.39 183.29L 920.79 177.51L 935 172.55L 958.74 164.21L 978.14 157.43L 994.54 151.65L 1008.8 146.66L 1032.5 137.9L 1051.9 129.89L 1068.3 123.97L 1082.5 119.22L 1106.2 112.04L 1125.6 104.54L 1142 99.636L 1156.2 94.58L 1180 85.863L 1199.4 79.338L 1215.8 73.267L 1215.8 73.649L 1199.4 79.414L 1180 86.296L 1156.2 94.665L 1142 99.644L 1125.6 104.74L 1106.2 112.23L 1082.5 120.42L 1068.3 125.35L 1051.9 131.34L 1032.5 138.15L 1008.8 146.66L 994.54 151.67L 978.14 157.46L 958.74 164.26L 935 172.58L 920.79 177.53L 904.39 183.31L 884.99 190.07L 861.25 198.32L 847.04 203.12L 830.64 208.88L 811.24 215.67L 787.5 223.77L 773.29 228.69L 756.89 234.26L 737.49 240.79L 713.75 248.69L 699.54 253.59L 683.14 258.99L 663.74 265.15L 640 272.82L 625.79 277.35L 609.39 282.59L 589.99 288.14L 566.25 295.86L 552.04 301.75L 535.64 312.83L 516.24 319.47L 492.5 327.54L 478.29 332.84L 461.89 337.81L 442.49 344.2L 418.75 351.82L 404.54 356.31L 388.14 361.21L 368.74 366.67L 345 373.03L 330.79 376.19L 314.39 379.84L 294.99 388.21L 271.25 393.55L 257.04 396.51L 240.64 398.24L 221.24 401.91L 197.5 403.63L 166.89 400.83L 123.75 417.41L 50 413.52" fill="#FF3B30" fill-opacity="0.30196078431372547" stroke="none"/>
    <path d="M 50 341.55L 123.75 347.51L 166.89 349.5L 197.5 339.65L 221.24 338.77L 240.64 339.04L 257.04 338.87L 271.25 337.48L 294.99 336.29L 314.39 335.24L 330.79 334.21L 345 333.14L 368.74 330.78L 388.14 329.44L 404.54 325.87L 418.75 323.34L 442.49 318.71L 461.89 314.82L 478.29 310.25L 492.5 306.72L 516.24 300.21L 535.64 294.65L 552.04 289.83L 566.25 285.45L 589.99 274.21L 609.39 268.93L 625.79 264.47L 640 260.02L 663.74 252.7L 683.14 245.18L 699.54 238.97L 713.75 234.29L 737.49 227.04L 756.89 220.81L 773.29 215.4L 787.5 210.73L 811.24 202.69L 830.64 196.15L 847.04 190.46L 861.25 185.27L 884.99 177.56L 904.39 170.86L 920.79 164.63L 935 159.79L 958.74 151.96L 978.14 145.08L 994.54 139.51L 1008.8 134.1L 1032.5 126.05L 1051.9 119.31L 1068.3 113.63L 1082.5 108.65L 1106.2 100.27L 1125.6 93.292L 1142 87.522L 1156.2 82.567L 1180 74.343L 1199.4 67.49" fill="none" stroke-width="4" stroke="#FFCC00" stroke-opacity="1" stroke-linecap="round" stroke-linejoin="round"/>
    <path d="M 50 340.45L 123.75 348.15L 166.89 349.04L 197.5 351.41L 221.24 350.74L 240.64 350.29L 257.04 348.91L 271.25 349.58L 294.99 348.48L 314.39 346.96L 330.79 346.42L 345 342.58L 368.74 338.98L 388.14 334.89L 404.54 331.69L 418.75 328.23L 442.49 322.49L 461.89 317.49L 478.29 313.05L 492.5 309.07L 516.24 302.18L 535.64 296.36L 552.04 285.79L 566.25 281.68L 589.99 275.85L 609.39 270.52L 625.79 265.44L 640 260.86L 663.74 253.22L 683.14 247.02L 699.54 241.59L 713.75 236.88L 737.49 228.88L 756.89 222.27L 773.29 216.73L 787.5 211.77L 811.24 203.7L 830.64 196.96L 847.04 190.88L 861.25 185.93L 884.99 178.05L 904.39 171.34L 920.79 165.52L 935 160.58L 958.74 151.94L 978.14 145.27L 994.54 139.64L 1008.8 134.27L 1032.5 126.09L 1051.9 119.26L 1068.3 113.59L 1082.5 108.7L 1106.2 100.2L 1125.6 93.361L 1142 87.621L 1156.2 82.653L 1180 74.387L 1199.4 67.349" fill="none" stroke-width="4" stroke="#28CD41" stroke-opacity="1" stroke-linecap="round" stroke-linejoin="round"/>
    <path d="M 50 277.36L 123.75 275.47L 166.89 275.45L 197.5 274.76L 221.24 273.91L 240.64 272.31L 257.04 271.73L 271.25 270.59L 294.99 268.22L 314.39 265.98L 330.79 263.32L 345 258.82L 368.74 256.64L 388.14 251.48L 404.54 247.89L 418.75 241.93L 442.49 235.86L 461.89 232.2L 478.29 227.57L 492.5 220.21L 516.24 213.36L 535.64 209.52L 552.04 204.35L 566.25 196.5L 589.99 188.91L 609.39 185.08L 625.79 178.91L 640 170.85L 663.74 163.07L 683.14 159.24L 699.54 153.79L 713.75 145.37L 737.49 137.59L 756.89 133.65L 773.29 128.01L 787.5 119.7L 811.24 111.8L 830.64 107.77L 847.04 102.23L 861.25 93.757L 884.99 82.146L 904.39 79.628L 920.79 74.161L 935 65.491L 958.74 56.613L 978.14 53.395L 994.54 48.123L 1008.8 39.27L 1032.5 30.35L 1051.9 27.481L 1068.3 22.006" fill="none" stroke-width="4" stroke="#007AFF" stroke-opacity="1" stroke-linecap="round" stroke-linejoin="round"/>
    <path d="M 50 409.91L 123.75 417.41L 166.89 397.43L 197.5 403.63L 221.24 401.37L 240.64 397.84L 257.04 396.5L 271.25 393.28L 294.99 388.21L 314.39 379.84L 330.79 376.19L 345 372.95L 368.74 366.67L 388.14 361.17L 404.54 356.28L 418.75 351.82L 442.49 344.19L 461.89 337.13L 478.29 332.6L 492.5 327.54L 516.24 319.47L 535.64 312.83L 552.04 301.74L 566.25 295.73L 589.99 288.14L 609.39 282.58L 625.79 276.77L 640 272.76L 663.74 265.15L 683.14 258.32L 699.54 253.32L 713.75 248.68L 737.49 240.77L 756.89 234.16L 773.29 228.68L 787.5 223.64L 811.24 215.52L 830.64 208.73L 847.04 203.11L 861.25 198.23L 884.99 190.01L 904.39 183.3L 920.79 177.52L 935 172.58L 958.74 164.25L 978.14 157.45L 994.54 151.67L 1008.8 146.66L 1032.5 138.08L 1051.9 130.96L 1068.3 124.99L 1082.5 120.1L 1106.2 112.18L 1125.6 104.69L 1142 99.642L 1156.2 94.643L 1180 86.183L 1199.4 79.394L 1215.8 73.549" fill="none" stroke-width="4" stroke="#FF3B30" stroke-opacity="1" stroke-linecap="round" stroke-linejoin="round"/>
    <path d="M 50 341.55L 123.75 347.51L 166.89 349.5L 197.5 339.65L 221.24 338.77L 240.64 339.04L 257.04 338.87L 271.25 337.48L 294.99 336.29L 314.39 335.24L 330.79 334.21L 345 333.14L 368.74 330.78L 388.14 329.44L 404.54 325.87L 418.75 323.34L 442.49 318.71L 461.89 314.82L 478.29 310.25L 492.5 306.72L 516.24 300.21L 535.64 294.65L 552.04 289.83L 566.25 285.45L 589.99 274.21L 609.39 268.93L 625.79 264.47L 640 260.02L 663.74 252.7L 683.14 245.18L 699.54 238.97L 713.75 234.29L 737.49 227.04L 756.89 220.81L 773.29 215.4L 787.5 210.73L 811.24 202.69L 830.64 196.15L 847.04 190.46L 861.25 185.27L 884.99 177.56L 904.39 170.86L 920.79 164.63L 935 159.79L 958.74 151.96L 978.14 145.08L 994.54 139.51L 1008.8 134.1L 1032.5 126.05L 1051.9 119.31L 1068.3 113.63L 1082.5 108.65L 1106.2 100.27L 1125.6 93.292L 1142 87.522L 1156.2 82.567L 1180 74.343L 1199.4 67.49" fill="none" stroke-width="0.5" stroke="#000000" stroke-opacity="0.30196" stroke-linecap="round" stroke-linejoin="round"/>
    <path d="M 50 340.45L 123.75 348.15L 166.89 349.04L 197.5 351.41L 221.24 350.74L 240.64 350.29L 257.04 348.91L 271.25 349.58L 294.99 348.48L 314.39 346.96L 330.79 346.42L 345 342.58L 368.74 338.98L 388.14 334.89L 404.54 331.69L 418.75 328.23L 442.49 322.49L 461.89 317.49L 478.29 313.05L 492.5 309.07L 516.24 302.18L 535.64 296.36L 552.04 285.79L 566.25 281.68L 589.99 275.85L 609.39 270.52L 625.79 265.44L 640 260.86L 663.74 253.22L 683.14 247.02L 699.54 241.59L 713.75 236.88L 737.49 228.88L 756.89 222.27L 773.29 216.73L 787.5 211.77L 811.24 203.7L 830.64 196.96L 847.04 190.88L 861.25 185.93L 884.99 178.05L 904.39 171.34L 920.79 165.52L 935 160.58L 958.74 151.94L 978.14 145.27L 994.54 139.64L 1008.8 134.27L 1032.5 126.09L 1051.9 119.26L 1068.3 113.59L 1082.5 108.7L 1106.2 100.2L 1125.6 93.361L 1142 87.621L 1156.2 82.653L 1180 74.387L 1199.4 67.349" fill="none" stroke-width="0.5" stroke="#000000" stroke-opacity="0.30196" stroke-linecap="round" stroke-linejoin="round"/>
    <path d="M 50 277.36L 123.75 275.47L 166.89 275.45L 197.5 274.76L 221.24 273.91L 240.64 272.31L 257.04 271.73L 271.25 270.59L 294.99 268.22L 314.39 265.98L 330.79 263.32L 345 258.82L 368.74 256.64L 388.14 251.48L 404.54 247.89L 418.75 241.93L 442.49 235.86L 461.89 232.2L 478.29 227.57L 492.5 220.21L 516.24 213.36L 535.64 209.52L 552.04 204.35L 566.25 196.5L 589.99 188.91L 609.39 185.08L 625.79 178.91L 640 170.85L 663.74 163.07L 683.14 159.24L 699.54 153.79L 713.75 145.37L 737.49 137.59L 756.89 133.65L 773.29 128.01L 787.5 119.7L 811.24 111.8L 830.64 107.77L 847.04 102.23L 861.25 93.757L 884.99 82.146L 904.39 79.628L 920.79 74.161L 935 65.491L 958.74 56.613L 978.14 53.395L 994.54 48.123L 1008.8 39.27L 1032.5 30.35L 1051.9 27.481L 1068.3 22.006" fill="none" stroke-width="0.5" stroke="#000000" stroke-opacity="0.30196" stroke-linecap="round" stroke-linejoin="round"/>
    <path d="M 50 409.91L 123.75 417.41L 166.89 397.43L 197.5 403.63L 221.24 401.37L 240.64 397.84L 257.04 396.5L 271.25 393.28L 294.99 388.21L 314.39 379.84L 330.79 376.19L 345 372.95L 368.74 366.67L 388.14 361.17L 404.54 356.28L 418.75 351.82L 442.49 344.19L 461.89 337.13L 478.29 332.6L 492.5 327.54L 516.24 319.47L 535.64 312.83L 552.04 301.74L 566.25 295.73L 589.99 288.14L 609.39 282.58L 625.79 276.77L 640 272.76L 663.74 265.15L 683.14 258.32L 699.54 253.32L 713.75 248.68L 737.49 240.77L 756.89 234.16L 773.29 228.68L 787.5 223.64L 811.24 215.52L 830.64 208.73L 847.04 203.11L 861.25 198.23L 884.99 190.01L 904.39 183.3L 920.79 177.52L 935 172.58L 958.74 164.25L 978.14 157.45L 994.54 151.67L 1008.8 146.66L 1032.5 138.08L 1051.9 130.96L 1068.3 124.99L 1082.5 120.1L 1106.2 112.18L 1125.6 104.69L 1142 99.642L 1156.2 94.643L 1180 86.183L 1199.4 79.394L 1215.8 73.549" fill="none" stroke-width="0.5" stroke="#000000" stroke-opacity="0.30196" stroke-linecap="round" stroke-linejoin="round"/>
  </g>
  <path d="M 74 33 L 74 122 L 478 122 L 478 33 z" fill="#FFFFFF" fill-opacity="0.7019607843137254" stroke-width="0.5" stroke="#000000" stroke-opacity="1" stroke-linecap="round" stroke-linejoin="round"/>
  <path d="M 88 52 L 108 52" fill="none" stroke-width="4" stroke="#FF3B30" stroke-opacity="1" stroke-linecap="round" stroke-linejoin="round"/>
  <path d="M 88 52 L 108 52" fill="none" stroke-width="0.5" stroke="#000000" stroke-opacity="0.30196" stroke-linecap="round" stroke-linejoin="round"/>
  <text x="119" y="56.17" font-family="Menlo" font-size="12" font-weight="normal" font-style="normal" fill="#000000" fill-opacity="1">Array&lt;Int&gt; unsuccessful contains</text>
  <path d="M 88 69 L 108 69" fill="none" stroke-width="4" stroke="#007AFF" stroke-opacity="1" stroke-linecap="round" stroke-linejoin="round"/>
  <path d="M 88 69 L 108 69" fill="none" stroke-width="0.5" stroke="#000000" stroke-opacity="0.30196" stroke-linecap="round" stroke-linejoin="round"/>
  <text x="119" y="73.17" font-family="Menlo" font-size="12" font-weight="normal" font-style="normal" fill="#000000" fill-opacity="1">TreeArray&lt;Int&gt; unsuccessful contains</text>
  <path d="M 88 86 L 108 86" fill="none" stroke-width="4" stroke="#28CD41" stroke-opacity="1" stroke-linecap="round" stroke-linejoin="round"/>
  <path d="M 88 86 L 108 86" fill="none" stroke-width="0.5" stroke="#000000" stroke-opacity="0.30196" stroke-linecap="round" stroke-linejoin="round"/>
  <text x="119" y="90.17" font-family="Menlo" font-size="12" font-weight="normal" font-style="normal" fill="#000000" fill-opacity="1">Deque&lt;Int&gt; unsuccessful contains (contiguous)</text>
  <path d="M 88 103 L 108 103" fill="none" stroke-width="4" stroke="#FFCC00" stroke-opacity="1" stroke-linecap="round" stroke-linejoin="round"/>
  <path d="M 88 103 L 108 103" fill="none" stroke-width="0.5" stroke="#000000" stroke-opacity="0.30196" stroke-linecap="round" stroke-linejoin="round"/>
  <text x="119" y="107.17" font-family="Menlo" font-size="12" font-weight="normal" font-style="normal" fill="#000000" fill-opacity="1">Deque&lt;Int&gt; unsuccessful contains (discontiguous)</text>
  <path d="M 50 9 L 50 441 L 1230 441 L 1230 9 z" fill="none" stroke-width="0.5" stroke="#000000" stroke-opacity="1" stroke-linecap="round" stroke-linejoin="round"/>
</svg>
