<!DOCTYPE svg PUBLIC "-//W3C//DTD SVG 1.1//EN" "http://www.w3.org/Graphics/SVG/1.1/DTD/svg11.dtd">
<svg width="1280.0px" height="480.0px" viewBox="0.0 0.0 1280.0 480.0" xmlns="http://www.w3.org/2000/svg" xmlns:xlink="http://www.w3.org/1999/xlink" version="1.1">
  <path d="M 0 0 L 0 480 L 1280 480 L 1280 0 z" fill="#FFFFFF" fill-opacity="1.0" stroke="none"/>
  <text x="50" y="468.7" font-family="Helvetica" font-size="10" font-weight="normal" font-style="normal" fill="#000000" fill-opacity="1">Average per-element processing time over input size (bands: min, mean, mean + 2stddev)</text>
  <a xlink:href="https://github.com/apple/swift-collections-benchmark"><text x="1107" y="468.7" font-family="Helvetica" font-size="10" font-weight="normal" font-style="normal" fill="#000000" fill-opacity="1">swift-collections-benchmark</text></a>
  <path d="M 50 9 L 50 441" fill="none" stroke-width="0.75" stroke="#000000" stroke-opacity="0.49804" stroke-linecap="butt" stroke-linejoin="round"/>
  <text x="47" y="453.7" font-family="Helvetica" font-size="10" font-weight="normal" font-style="normal" fill="#000000" fill-opacity="1">1</text>
  <path d="M 123.75 9 L 123.75 441" fill="none" stroke-width="0.75" stroke="#000000" stroke-opacity="0.49804" stroke-linecap="butt" stroke-linejoin="round"/>
  <text x="120.75" y="453.7" font-family="Helvetica" font-size="10" font-weight="normal" font-style="normal" fill="#000000" fill-opacity="1">2</text>
  <path d="M 197.5 9 L 197.5 441" fill="none" stroke-width="0.75" stroke="#000000" stroke-opacity="0.49804" stroke-linecap="butt" stroke-linejoin="round"/>
  <text x="194.5" y="453.7" font-family="Helvetica" font-size="10" font-weight="normal" font-style="normal" fill="#000000" fill-opacity="1">4</text>
  <path d="M 271.25 9 L 271.25 441" fill="none" stroke-width="0.75" stroke="#000000" stroke-opacity="0.49804" stroke-linecap="butt" stroke-linejoin="round"/>
  <text x="268.25" y="453.7" font-family="Helvetica" font-size="10" font-weight="normal" font-style="normal" fill="#000000" fill-opacity="1">8</text>
  <path d="M 345 9 L 345 441" fill="none" stroke-width="0.75" stroke="#000000" stroke-opacity="0.49804" stroke-linecap="butt" stroke-linejoin="round"/>
  <text x="339" y="453.7" font-family="Helvetica" font-size="10" font-weight="normal" font-style="normal" fill="#000000" fill-opacity="1">16</text>
  <path d="M 418.75 9 L 418.75 441" fill="none" stroke-width="0.75" stroke="#000000" stroke-opacity="0.49804" stroke-linecap="butt" stroke-linejoin="round"/>
  <text x="412.75" y="453.7" font-family="Helvetica" font-size="10" font-weight="normal" font-style="normal" fill="#000000" fill-opacity="1">32</text>
  <path d="M 492.5 9 L 492.5 441" fill="none" stroke-width="0.75" stroke="#000000" stroke-opacity="0.49804" stroke-linecap="butt" stroke-linejoin="round"/>
  <text x="486.5" y="453.7" font-family="Helvetica" font-size="10" font-weight="normal" font-style="normal" fill="#000000" fill-opacity="1">64</text>
  <path d="M 566.25 9 L 566.25 441" fill="none" stroke-width="0.75" stroke="#000000" stroke-opacity="0.49804" stroke-linecap="butt" stroke-linejoin="round"/>
  <text x="557.75" y="453.7" font-family="Helvetica" font-size="10" font-weight="normal" font-style="normal" fill="#000000" fill-opacity="1">128</text>
  <path d="M 640 9 L 640 441" fill="none" stroke-width="0.75" stroke="#000000" stroke-opacity="0.49804" stroke-linecap="butt" stroke-linejoin="round"/>
  <text x="631.5" y="453.7" font-family="Helvetica" font-size="10" font-weight="normal" font-style="normal" fill="#000000" fill-opacity="1">256</text>
  <path d="M 713.75 9 L 713.75 441" fill="none" stroke-width="0.75" stroke="#000000" stroke-opacity="0.49804" stroke-linecap="butt" stroke-linejoin="round"/>
  <text x="705.25" y="453.7" font-family="Helvetica" font-size="10" font-weight="normal" font-style="normal" fill="#000000" fill-opacity="1">512</text>
  <path d="M 787.5 9 L 787.5 441" fill="none" stroke-width="0.75" stroke="#000000" stroke-opacity="0.49804" stroke-linecap="butt" stroke-linejoin="round"/>
  <text x="782" y="453.7" font-family="Helvetica" font-size="10" font-weight="normal" font-style="normal" fill="#000000" fill-opacity="1">1k</text>
  <path d="M 861.25 9 L 861.25 441" fill="none" stroke-width="0.75" stroke="#000000" stroke-opacity="0.49804" stroke-linecap="butt" stroke-linejoin="round"/>
  <text x="855.75" y="453.7" font-family="Helvetica" font-size="10" font-weight="normal" font-style="normal" fill="#000000" fill-opacity="1">2k</text>
  <path d="M 935 9 L 935 441" fill="none" stroke-width="0.75" stroke="#000000" stroke-opacity="0.49804" stroke-linecap="butt" stroke-linejoin="round"/>
  <text x="929.5" y="453.7" font-family="Helvetica" font-size="10" font-weight="normal" font-style="normal" fill="#000000" fill-opacity="1">4k</text>
  <path d="M 1008.8 9 L 1008.8 441" fill="none" stroke-width="0.75" stroke="#000000" stroke-opacity="0.49804" stroke-linecap="butt" stroke-linejoin="round"/>
  <text x="1003.2" y="453.7" font-family="Helvetica" font-size="10" font-weight="normal" font-style="normal" fill="#000000" fill-opacity="1">8k</text>
  <path d="M 1082.5 9 L 1082.5 441" fill="none" stroke-width="0.75" stroke="#000000" stroke-opacity="0.49804" stroke-linecap="butt" stroke-linejoin="round"/>
  <text x="1074" y="453.7" font-family="Helvetica" font-size="10" font-weight="normal" font-style="normal" fill="#000000" fill-opacity="1">16k</text>
  <path d="M 1156.2 9 L 1156.2 441" fill="none" stroke-width="0.75" stroke="#000000" stroke-opacity="0.49804" stroke-linecap="butt" stroke-linejoin="round"/>
  <text x="1147.8" y="453.7" font-family="Helvetica" font-size="10" font-weight="normal" font-style="normal" fill="#000000" fill-opacity="1">32k</text>
  <path d="M 1230 9 L 1230 441" fill="none" stroke-width="0.75" stroke="#000000" stroke-opacity="0.49804" stroke-linecap="butt" stroke-linejoin="round"/>
  <text x="1221.5" y="453.7" font-family="Helvetica" font-size="10" font-weight="normal" font-style="normal" fill="#000000" fill-opacity="1">64k</text>
  <path d="M 50 441 L 1230 441" fill="none" stroke-width="0.75" stroke="#000000" stroke-opacity="0.49804" stroke-linecap="butt" stroke-linejoin="round"/>
  <text x="27" y="442.7" font-family="Helvetica" font-size="10" font-weight="normal" font-style="normal" fill="#000000" fill-opacity="1">1 ns</text>
  <text x="1236" y="442.7" font-family="Helvetica" font-size="10" font-weight="normal" font-style="normal" fill="#000000" fill-opacity="1">1 ns</text>
  <path d="M 50 369 L 1230 369" fill="none" stroke-width="0.75" stroke="#000000" stroke-opacity="0.49804" stroke-linecap="butt" stroke-linejoin="round"/>
  <text x="21" y="370.7" font-family="Helvetica" font-size="10" font-weight="normal" font-style="normal" fill="#000000" fill-opacity="1">10 ns</text>
  <text x="1236" y="370.7" font-family="Helvetica" font-size="10" font-weight="normal" font-style="normal" fill="#000000" fill-opacity="1">10 ns</text>
  <path d="M 50 297 L 1230 297" fill="none" stroke-width="0.75" stroke="#000000" stroke-opacity="0.49804" stroke-linecap="butt" stroke-linejoin="round"/>
  <text x="16" y="298.7" font-family="Helvetica" font-size="10" font-weight="normal" font-style="normal" fill="#000000" fill-opacity="1">100 ns</text>
  <text x="1236" y="298.7" font-family="Helvetica" font-size="10" font-weight="normal" font-style="normal" fill="#000000" fill-opacity="1">100 ns</text>
  <path d="M 50 225 L 1230 225" fill="none" stroke-width="0.75" stroke="#000000" stroke-opacity="0.49804" stroke-linecap="butt" stroke-linejoin="round"/>
  <text x="26" y="226.7" font-family="Helvetica" font-size="10" font-weight="normal" font-style="normal" fill="#000000" fill-opacity="1">1 µs</text>
  <text x="1236" y="226.7" font-family="Helvetica" font-size="10" font-weight="normal" font-style="normal" fill="#000000" fill-opacity="1">1 µs</text>
  <path d="M 50 153 L 1230 153" fill="none" stroke-width="0.75" stroke="#000000" stroke-opacity="0.49804" stroke-linecap="butt" stroke-linejoin="round"/>
  <text x="21" y="154.7" font-family="Helvetica" font-size="10" font-weight="normal" font-style="normal" fill="#000000" fill-opacity="1">10 µs</text>
  <text x="1236" y="154.7" font-family="Helvetica" font-size="10" font-weight="normal" font-style="normal" fill="#000000" fill-opacity="1">10 µs</text>
  <path d="M 50 81 L 1230 81" fill="none" stroke-width="0.75" stroke="#000000" stroke-opacity="0.49804" stroke-linecap="butt" stroke-linejoin="round"/>
  <text x="15" y="82.7" font-family="Helvetica" font-size="10" font-weight="normal" font-style="normal" fill="#000000" fill-opacity="1">100 µs</text>
  <text x="1236" y="82.7" font-family="Helvetica" font-size="10" font-weight="normal" font-style="normal" fill="#000000" fill-opacity="1">100 µs</text>
  <path d="M 50 9 L 1230 9" fill="none" stroke-width="0.75" stroke="#000000" stroke-opacity="0.49804" stroke-linecap="butt" stroke-linejoin="round"/>
  <text x="24" y="10.7" font-family="Helvetica" font-size="10" font-weight="normal" font-style="normal" fill="#000000" fill-opacity="1">1 ms</text>
  <text x="1236" y="10.7" font-family="Helvetica" font-size="10" font-weight="normal" font-style="normal" fill="#000000" fill-opacity="1">1 ms</text>
  <path d="M 50 419.33 L 1230 419.33" fill="none" stroke-width="0.5" stroke="#000000" stroke-opacity="0.25882" stroke-linecap="butt" stroke-linejoin="round" stroke-dasharray="6 3" stroke-dashoffset="0"/>
  <path d="M 50 397.65 L 1230 397.65" fill="none" stroke-width="0.5" stroke="#000000" stroke-opacity="0.25882" stroke-linecap="butt" stroke-linejoin="round" stroke-dasharray="6 3" stroke-dashoffset="0"/>
  <path d="M 50 375.98 L 1230 375.98" fill="none" stroke-width="0.5" stroke="#000000" stroke-opacity="0.25882" stroke-linecap="butt" stroke-linejoin="round" stroke-dasharray="6 3" stroke-dashoffset="0"/>
  <path d="M 50 354.3 L 1230 354.3" fill="none" stroke-width="0.5" stroke="#000000" stroke-opacity="0.25882" stroke-linecap="butt" stroke-linejoin="round" stroke-dasharray="6 3" stroke-dashoffset="0"/>
  <path d="M 50 332.63 L 1230 332.63" fill="none" stroke-width="0.5" stroke="#000000" stroke-opacity="0.25882" stroke-linecap="butt" stroke-linejoin="round" stroke-dasharray="6 3" stroke-dashoffset="0"/>
  <path d="M 50 310.96 L 1230 310.96" fill="none" stroke-width="0.5" stroke="#000000" stroke-opacity="0.25882" stroke-linecap="butt" stroke-linejoin="round" stroke-dasharray="6 3" stroke-dashoffset="0"/>
  <path d="M 50 289.28 L 1230 289.28" fill="none" stroke-width="0.5" stroke="#000000" stroke-opacity="0.25882" stroke-linecap="butt" stroke-linejoin="round" stroke-dasharray="6 3" stroke-dashoffset="0"/>
  <path d="M 50 267.61 L 1230 267.61" fill="none" stroke-width="0.5" stroke="#000000" stroke-opacity="0.25882" stroke-linecap="butt" stroke-linejoin="round" stroke-dasharray="6 3" stroke-dashoffset="0"/>
  <path d="M 50 245.93 L 1230 245.93" fill="none" stroke-width="0.5" stroke="#000000" stroke-opacity="0.25882" stroke-linecap="butt" stroke-linejoin="round" stroke-dasharray="6 3" stroke-dashoffset="0"/>
  <path d="M 50 224.26 L 1230 224.26" fill="none" stroke-width="0.5" stroke="#000000" stroke-opacity="0.25882" stroke-linecap="butt" stroke-linejoin="round" stroke-dasharray="6 3" stroke-dashoffset="0"/>
  <path d="M 50 202.58 L 1230 202.58" fill="none" stroke-width="0.5" stroke="#000000" stroke-opacity="0.25882" stroke-linecap="butt" stroke-linejoin="round" stroke-dasharray="6 3" stroke-dashoffset="0"/>
  <path d="M 50 180.91 L 1230 180.91" fill="none" stroke-width="0.5" stroke="#000000" stroke-opacity="0.25882" stroke-linecap="butt" stroke-linejoin="round" stroke-dasharray="6 3" stroke-dashoffset="0"/>
  <path d="M 50 159.24 L 1230 159.24" fill="none" stroke-width="0.5" stroke="#000000" stroke-opacity="0.25882" stroke-linecap="butt" stroke-linejoin="round" stroke-dasharray="6 3" stroke-dashoffset="0"/>
  <path d="M 50 137.56 L 1230 137.56" fill="none" stroke-width="0.5" stroke="#000000" stroke-opacity="0.25882" stroke-linecap="butt" stroke-linejoin="round" stroke-dasharray="6 3" stroke-dashoffset="0"/>
  <path d="M 50 115.89 L 1230 115.89" fill="none" stroke-width="0.5" stroke="#000000" stroke-opacity="0.25882" stroke-linecap="butt" stroke-linejoin="round" stroke-dasharray="6 3" stroke-dashoffset="0"/>
  <path d="M 50 94.213 L 1230 94.213" fill="none" stroke-width="0.5" stroke="#000000" stroke-opacity="0.25882" stroke-linecap="butt" stroke-linejoin="round" stroke-dasharray="6 3" stroke-dashoffset="0"/>
  <path d="M 50 72.539 L 1230 72.539" fill="none" stroke-width="0.5" stroke="#000000" stroke-opacity="0.25882" stroke-linecap="butt" stroke-linejoin="round" stroke-dasharray="6 3" stroke-dashoffset="0"/>
  <path d="M 50 50.865 L 1230 50.865" fill="none" stroke-width="0.5" stroke="#000000" stroke-opacity="0.25882" stroke-linecap="butt" stroke-linejoin="round" stroke-dasharray="6 3" stroke-dashoffset="0"/>
  <path d="M 50 29.191 L 1230 29.191" fill="none" stroke-width="0.5" stroke="#000000" stroke-opacity="0.25882" stroke-linecap="butt" stroke-linejoin="round" stroke-dasharray="6 3" stroke-dashoffset="0"/>
  <path d="M 74 33 L 74 88 L 392 88 L 392 33 z" fill="#FFFFFF" fill-opacity="1.0" stroke="none"/>
  <clipPath id="clip-0">
    <path d="M 50 9 L 50 441 L 1230 441 L 1230 9 z"/>
  </clipPath>
  <g clip-path="url(#clip-0)">
    <path d="M 50 294.94L 123.75 294.31L 166.89 295.35L 197.5 293.14L 221.24 291.64L 240.64 291.31L 257.04 290.36L 271.25 289.82L 294.99 289.17L 314.39 286.41L 330.79 268.36L 345 282.85L 368.74 280.35L 388.14 278.34L 404.54 274.87L 418.75 272.93L 442.49 268.06L 461.89 265.23L 478.29 252.25L 492.5 256.13L 516.24 253.25L 535.64 246.03L 552.04 240.61L 566.25 238.56L 589.99 232.87L 609.39 223.74L 625.79 221.18L 640 220L 663.74 211.19L 683.14 204.31L 699.54 200.16L 713.75 198.17L 737.49 189.45L 756.89 179.76L 773.29 175.11L 787.5 170.8L 811.24 163.21L 830.64 150.45L 847.04 149.09L 861.25 139.75L 884.99 131.51L 904.39 124.47L 920.79 113.78L 935 112.17L 958.74 102.46L 978.14 98.191L 994.54 93.192L 1008.8 87.438L 1032.5 79.53L 1032.5 80.922L 1008.8 88.217L 994.54 93.348L 978.14 99.289L 958.74 106.35L 935 115L 920.79 121.44L 904.39 128.18L 884.99 136.25L 861.25 142.86L 847.04 149.18L 830.64 156.57L 811.24 165.35L 787.5 174.46L 773.29 179.22L 756.89 185.2L 737.49 190.87L 713.75 199.27L 699.54 203.93L 683.14 207.88L 663.74 213.96L 640 222.52L 625.79 226.42L 609.39 230.34L 589.99 236.48L 566.25 241.94L 552.04 241.05L 535.64 249.53L 516.24 253.58L 492.5 258.63L 478.29 262.59L 461.89 265.8L 442.49 270.09L 418.75 273.66L 404.54 276.19L 388.14 278.54L 368.74 281.82L 345 285.56L 330.79 285.53L 314.39 287.51L 294.99 290.36L 271.25 291.22L 257.04 292.23L 240.64 293.12L 221.24 294.64L 197.5 295.07L 166.89 295.43L 123.75 295.6L 50 296.87" fill="#007AFF" fill-opacity="0.30196078431372547" stroke="none"/>
    <path d="M 50 418.1L 123.75 421.34L 166.89 407.66L 197.5 408.67L 221.24 406.74L 240.64 404.74L 257.04 400.63L 271.25 400.6L 294.99 396.7L 314.39 389.63L 330.79 385.97L 345 384.22L 368.74 379.06L 388.14 374.38L 404.54 370.38L 418.75 364.89L 442.49 360.28L 461.89 354.98L 478.29 350.44L 492.5 346.46L 516.24 334.71L 535.64 329.69L 552.04 323.17L 566.25 319.83L 589.99 313.44L 609.39 308.97L 625.79 304.5L 640 300.51L 663.74 294.53L 683.14 289.27L 699.54 284.75L 713.75 280.04L 737.49 273.07L 756.89 268.7L 773.29 264.08L 787.5 259.88L 811.24 252.82L 830.64 246.94L 847.04 242.9L 861.25 238.31L 884.99 231.38L 904.39 226.17L 920.79 221.12L 935 216.91L 958.74 210.16L 978.14 204.58L 994.54 199.73L 1008.8 195.3L 1032.5 187.62L 1051.9 182.17L 1068.3 177.97L 1082.5 172.76L 1106.2 166.12L 1125.6 161.17L 1142 156.35L 1156.2 152.19L 1180 143.56L 1199.4 139.1L 1215.8 134.49L 1215.8 134.7L 1199.4 139.78L 1180 145.3L 1156.2 152.32L 1142 156.5L 1125.6 161.19L 1106.2 166.79L 1082.5 173.79L 1068.3 178.03L 1051.9 182.81L 1032.5 188.67L 1008.8 195.67L 994.54 199.89L 978.14 204.66L 958.74 210.33L 935 217.23L 920.79 221.47L 904.39 226.17L 884.99 231.89L 861.25 238.78L 847.04 242.9L 830.64 247.39L 811.24 253.22L 787.5 259.94L 773.29 264.09L 756.89 268.71L 737.49 274.11L 713.75 280.77L 699.54 284.79L 683.14 289.32L 663.74 294.53L 640 300.77L 625.79 304.67L 609.39 308.98L 589.99 313.62L 566.25 319.84L 552.04 324.96L 535.64 329.76L 516.24 334.76L 492.5 346.46L 478.29 350.44L 461.89 355.04L 442.49 360.32L 418.75 366.72L 404.54 370.38L 388.14 374.51L 368.74 379.06L 345 384.22L 330.79 388.52L 314.39 390.03L 294.99 397.33L 271.25 401.45L 257.04 406.65L 240.64 406.08L 221.24 408.43L 197.5 408.67L 166.89 410.68L 123.75 421.34L 50 418.1" fill="#FF3B30" fill-opacity="0.30196078431372547" stroke="none"/>
    <path d="M 50 296.36L 123.75 295.26L 166.89 295.41L 197.5 294.56L 221.24 293.83L 240.64 292.64L 257.04 291.73L 271.25 290.85L 294.99 290.04L 314.39 287.22L 330.79 280.06L 345 284.83L 368.74 281.43L 388.14 278.49L 404.54 275.84L 418.75 273.47L 442.49 269.55L 461.89 265.65L 478.29 259.54L 492.5 257.96L 516.24 253.5L 535.64 248.58L 552.04 240.93L 566.25 241.02L 589.99 235.5L 609.39 228.48L 625.79 224.96L 640 221.84L 663.74 213.21L 683.14 206.91L 699.54 202.9L 713.75 198.98L 737.49 190.5L 756.89 183.68L 773.29 178.09L 787.5 173.46L 811.24 164.78L 830.64 154.85L 847.04 149.16L 861.25 142.02L 884.99 134.94L 904.39 127.17L 920.79 119.25L 935 114.24L 958.74 105.29L 978.14 98.999L 994.54 93.307L 1008.8 88.011L 1032.5 80.552" fill="none" stroke-width="4" stroke="#007AFF" stroke-opacity="1" stroke-linecap="round" stroke-linejoin="round"/>
    <path d="M 50 418.1L 123.75 421.34L 166.89 409.86L 197.5 408.67L 221.24 407.98L 240.64 405.72L 257.04 404.96L 271.25 401.22L 294.99 397.17L 314.39 389.92L 330.79 387.83L 345 384.22L 368.74 379.06L 388.14 374.47L 404.54 370.38L 418.75 366.23L 442.49 360.31L 461.89 355.03L 478.29 350.44L 492.5 346.46L 516.24 334.75L 535.64 329.74L 552.04 324.48L 566.25 319.84L 589.99 313.57L 609.39 308.98L 625.79 304.62L 640 300.7L 663.74 294.53L 683.14 289.31L 699.54 284.78L 713.75 280.58L 737.49 273.83L 756.89 268.71L 773.29 264.09L 787.5 259.92L 811.24 253.11L 830.64 247.27L 847.04 242.9L 861.25 238.66L 884.99 231.76L 904.39 226.17L 920.79 221.38L 935 217.15L 958.74 210.28L 978.14 204.64L 994.54 199.85L 1008.8 195.57L 1032.5 188.4L 1051.9 182.64L 1068.3 178.01L 1082.5 173.52L 1106.2 166.61L 1125.6 161.19L 1142 156.46L 1156.2 152.29L 1180 144.84L 1199.4 139.6L 1215.8 134.64" fill="none" stroke-width="4" stroke="#FF3B30" stroke-opacity="1" stroke-linecap="round" stroke-linejoin="round"/>
    <path d="M 50 296.36L 123.75 295.26L 166.89 295.41L 197.5 294.56L 221.24 293.83L 240.64 292.64L 257.04 291.73L 271.25 290.85L 294.99 290.04L 314.39 287.22L 330.79 280.06L 345 284.83L 368.74 281.43L 388.14 278.49L 404.54 275.84L 418.75 273.47L 442.49 269.55L 461.89 265.65L 478.29 259.54L 492.5 257.96L 516.24 253.5L 535.64 248.58L 552.04 240.93L 566.25 241.02L 589.99 235.5L 609.39 228.48L 625.79 224.96L 640 221.84L 663.74 213.21L 683.14 206.91L 699.54 202.9L 713.75 198.98L 737.49 190.5L 756.89 183.68L 773.29 178.09L 787.5 173.46L 811.24 164.78L 830.64 154.85L 847.04 149.16L 861.25 142.02L 884.99 134.94L 904.39 127.17L 920.79 119.25L 935 114.24L 958.74 105.29L 978.14 98.999L 994.54 93.307L 1008.8 88.011L 1032.5 80.552" fill="none" stroke-width="0.5" stroke="#000000" stroke-opacity="0.30196" stroke-linecap="round" stroke-linejoin="round"/>
    <path d="M 50 418.1L 123.75 421.34L 166.89 409.86L 197.5 408.67L 221.24 407.98L 240.64 405.72L 257.04 404.96L 271.25 401.22L 294.99 397.17L 314.39 389.92L 330.79 387.83L 345 384.22L 368.74 379.06L 388.14 374.47L 404.54 370.38L 418.75 366.23L 442.49 360.31L 461.89 355.03L 478.29 350.44L 492.5 346.46L 516.24 334.75L 535.64 329.74L 552.04 324.48L 566.25 319.84L 589.99 313.57L 609.39 308.98L 625.79 304.62L 640 300.7L 663.74 294.53L 683.14 289.31L 699.54 284.78L 713.75 280.58L 737.49 273.83L 756.89 268.71L 773.29 264.09L 787.5 259.92L 811.24 253.11L 830.64 247.27L 847.04 242.9L 861.25 238.66L 884.99 231.76L 904.39 226.17L 920.79 221.38L 935 217.15L 958.74 210.28L 978.14 204.64L 994.54 199.85L 1008.8 195.57L 1032.5 188.4L 1051.9 182.64L 1068.3 178.01L 1082.5 173.52L 1106.2 166.61L 1125.6 161.19L 1142 156.46L 1156.2 152.29L 1180 144.84L 1199.4 139.6L 1215.8 134.64" fill="none" stroke-width="0.5" stroke="#000000" stroke-opacity="0.30196" stroke-linecap="round" stroke-linejoin="round"/>
  </g>
  <path d="M 74 33 L 74 88 L 392 88 L 392 33 z" fill="#FFFFFF" fill-opacity="0.7019607843137254" stroke-width="0.5" stroke="#000000" stroke-opacity="1" stroke-linecap="round" stroke-linejoin="round"/>
  <path d="M 88 52 L 108 52" fill="none" stroke-width="4" stroke="#FF3B30" stroke-opacity="1" stroke-linecap="round" stroke-linejoin="round"/>
  <path d="M 88 52 L 108 52" fill="none" stroke-width="0.5" stroke="#000000" stroke-opacity="0.30196" stroke-linecap="round" stroke-linejoin="round"/>
  <text x="119" y="56.17" font-family="Menlo" font-size="12" font-weight="normal" font-style="normal" fill="#000000" fill-opacity="1">Array&lt;Int&gt; unsuccessful contains</text>
  <path d="M 88 69 L 108 69" fill="none" stroke-width="4" stroke="#007AFF" stroke-opacity="1" stroke-linecap="round" stroke-linejoin="round"/>
  <path d="M 88 69 L 108 69" fill="none" stroke-width="0.5" stroke="#000000" stroke-opacity="0.30196" stroke-linecap="round" stroke-linejoin="round"/>
  <text x="119" y="73.17" font-family="Menlo" font-size="12" font-weight="normal" font-style="normal" fill="#000000" fill-opacity="1">TreeArray&lt;Int&gt; unsuccessful contains</text>
  <path d="M 50 9 L 50 441 L 1230 441 L 1230 9 z" fill="none" stroke-width="0.5" stroke="#000000" stroke-opacity="1" stroke-linecap="round" stroke-linejoin="round"/>
</svg>
