<!DOCTYPE svg PUBLIC "-//W3C//DTD SVG 1.1//EN" "http://www.w3.org/Graphics/SVG/1.1/DTD/svg11.dtd">
<svg width="1280.0px" height="480.0px" viewBox="0.0 0.0 1280.0 480.0" xmlns="http://www.w3.org/2000/svg" xmlns:xlink="http://www.w3.org/1999/xlink" version="1.1">
  <path d="M 0 0 L 0 480 L 1280 480 L 1280 0 z" fill="#FFFFFF" fill-opacity="1.0" stroke="none"/>
  <text x="50" y="468.7" font-family="Helvetica" font-size="10" font-weight="normal" font-style="normal" fill="#000000" fill-opacity="1">Average per-element processing time over input size (bands: min, mean, mean + 2stddev)</text>
  <a xlink:href="https://github.com/apple/swift-collections-benchmark"><text x="1107" y="468.7" font-family="Helvetica" font-size="10" font-weight="normal" font-style="normal" fill="#000000" fill-opacity="1">swift-collections-benchmark</text></a>
  <path d="M 50 9 L 50 441" fill="none" stroke-width="0.75" stroke="#000000" stroke-opacity="0.49804" stroke-linecap="butt" stroke-linejoin="round"/>
  <text x="47" y="453.7" font-family="Helvetica" font-size="10" font-weight="normal" font-style="normal" fill="#000000" fill-opacity="1">1</text>
  <path d="M 109 9 L 109 441" fill="none" stroke-width="0.75" stroke="#000000" stroke-opacity="0.49804" stroke-linecap="butt" stroke-linejoin="round"/>
  <text x="106" y="453.7" font-family="Helvetica" font-size="10" font-weight="normal" font-style="normal" fill="#000000" fill-opacity="1">2</text>
  <path d="M 168 9 L 168 441" fill="none" stroke-width="0.75" stroke="#000000" stroke-opacity="0.49804" stroke-linecap="butt" stroke-linejoin="round"/>
  <text x="165" y="453.7" font-family="Helvetica" font-size="10" font-weight="normal" font-style="normal" fill="#000000" fill-opacity="1">4</text>
  <path d="M 227 9 L 227 441" fill="none" stroke-width="0.75" stroke="#000000" stroke-opacity="0.49804" stroke-linecap="butt" stroke-linejoin="round"/>
  <text x="224" y="453.7" font-family="Helvetica" font-size="10" font-weight="normal" font-style="normal" fill="#000000" fill-opacity="1">8</text>
  <path d="M 286 9 L 286 441" fill="none" stroke-width="0.75" stroke="#000000" stroke-opacity="0.49804" stroke-linecap="butt" stroke-linejoin="round"/>
  <text x="280" y="453.7" font-family="Helvetica" font-size="10" font-weight="normal" font-style="normal" fill="#000000" fill-opacity="1">16</text>
  <path d="M 345 9 L 345 441" fill="none" stroke-width="0.75" stroke="#000000" stroke-opacity="0.49804" stroke-linecap="butt" stroke-linejoin="round"/>
  <text x="339" y="453.7" font-family="Helvetica" font-size="10" font-weight="normal" font-style="normal" fill="#000000" fill-opacity="1">32</text>
  <path d="M 404 9 L 404 441" fill="none" stroke-width="0.75" stroke="#000000" stroke-opacity="0.49804" stroke-linecap="butt" stroke-linejoin="round"/>
  <text x="398" y="453.7" font-family="Helvetica" font-size="10" font-weight="normal" font-style="normal" fill="#000000" fill-opacity="1">64</text>
  <path d="M 463 9 L 463 441" fill="none" stroke-width="0.75" stroke="#000000" stroke-opacity="0.49804" stroke-linecap="butt" stroke-linejoin="round"/>
  <text x="454.5" y="453.7" font-family="Helvetica" font-size="10" font-weight="normal" font-style="normal" fill="#000000" fill-opacity="1">128</text>
  <path d="M 522 9 L 522 441" fill="none" stroke-width="0.75" stroke="#000000" stroke-opacity="0.49804" stroke-linecap="butt" stroke-linejoin="round"/>
  <text x="513.5" y="453.7" font-family="Helvetica" font-size="10" font-weight="normal" font-style="normal" fill="#000000" fill-opacity="1">256</text>
  <path d="M 581 9 L 581 441" fill="none" stroke-width="0.75" stroke="#000000" stroke-opacity="0.49804" stroke-linecap="butt" stroke-linejoin="round"/>
  <text x="572.5" y="453.7" font-family="Helvetica" font-size="10" font-weight="normal" font-style="normal" fill="#000000" fill-opacity="1">512</text>
  <path d="M 640 9 L 640 441" fill="none" stroke-width="0.75" stroke="#000000" stroke-opacity="0.49804" stroke-linecap="butt" stroke-linejoin="round"/>
  <text x="634.5" y="453.7" font-family="Helvetica" font-size="10" font-weight="normal" font-style="normal" fill="#000000" fill-opacity="1">1k</text>
  <path d="M 699 9 L 699 441" fill="none" stroke-width="0.75" stroke="#000000" stroke-opacity="0.49804" stroke-linecap="butt" stroke-linejoin="round"/>
  <text x="693.5" y="453.7" font-family="Helvetica" font-size="10" font-weight="normal" font-style="normal" fill="#000000" fill-opacity="1">2k</text>
  <path d="M 758 9 L 758 441" fill="none" stroke-width="0.75" stroke="#000000" stroke-opacity="0.49804" stroke-linecap="butt" stroke-linejoin="round"/>
  <text x="752.5" y="453.7" font-family="Helvetica" font-size="10" font-weight="normal" font-style="normal" fill="#000000" fill-opacity="1">4k</text>
  <path d="M 817 9 L 817 441" fill="none" stroke-width="0.75" stroke="#000000" stroke-opacity="0.49804" stroke-linecap="butt" stroke-linejoin="round"/>
  <text x="811.5" y="453.7" font-family="Helvetica" font-size="10" font-weight="normal" font-style="normal" fill="#000000" fill-opacity="1">8k</text>
  <path d="M 876 9 L 876 441" fill="none" stroke-width="0.75" stroke="#000000" stroke-opacity="0.49804" stroke-linecap="butt" stroke-linejoin="round"/>
  <text x="867.5" y="453.7" font-family="Helvetica" font-size="10" font-weight="normal" font-style="normal" fill="#000000" fill-opacity="1">16k</text>
  <path d="M 935 9 L 935 441" fill="none" stroke-width="0.75" stroke="#000000" stroke-opacity="0.49804" stroke-linecap="butt" stroke-linejoin="round"/>
  <text x="926.5" y="453.7" font-family="Helvetica" font-size="10" font-weight="normal" font-style="normal" fill="#000000" fill-opacity="1">32k</text>
  <path d="M 994 9 L 994 441" fill="none" stroke-width="0.75" stroke="#000000" stroke-opacity="0.49804" stroke-linecap="butt" stroke-linejoin="round"/>
  <text x="985.5" y="453.7" font-family="Helvetica" font-size="10" font-weight="normal" font-style="normal" fill="#000000" fill-opacity="1">64k</text>
  <path d="M 1053 9 L 1053 441" fill="none" stroke-width="0.75" stroke="#000000" stroke-opacity="0.49804" stroke-linecap="butt" stroke-linejoin="round"/>
  <text x="1042" y="453.7" font-family="Helvetica" font-size="10" font-weight="normal" font-style="normal" fill="#000000" fill-opacity="1">128k</text>
  <path d="M 1112 9 L 1112 441" fill="none" stroke-width="0.75" stroke="#000000" stroke-opacity="0.49804" stroke-linecap="butt" stroke-linejoin="round"/>
  <text x="1101" y="453.7" font-family="Helvetica" font-size="10" font-weight="normal" font-style="normal" fill="#000000" fill-opacity="1">256k</text>
  <path d="M 1171 9 L 1171 441" fill="none" stroke-width="0.75" stroke="#000000" stroke-opacity="0.49804" stroke-linecap="butt" stroke-linejoin="round"/>
  <text x="1160" y="453.7" font-family="Helvetica" font-size="10" font-weight="normal" font-style="normal" fill="#000000" fill-opacity="1">512k</text>
  <path d="M 1230 9 L 1230 441" fill="none" stroke-width="0.75" stroke="#000000" stroke-opacity="0.49804" stroke-linecap="butt" stroke-linejoin="round"/>
  <text x="1223" y="453.7" font-family="Helvetica" font-size="10" font-weight="normal" font-style="normal" fill="#000000" fill-opacity="1">1M</text>
  <path d="M 50 441 L 1230 441" fill="none" stroke-width="0.75" stroke="#000000" stroke-opacity="0.49804" stroke-linecap="butt" stroke-linejoin="round"/>
  <text x="16" y="442.7" font-family="Helvetica" font-size="10" font-weight="normal" font-style="normal" fill="#000000" fill-opacity="1">100 ps</text>
  <text x="1236" y="442.7" font-family="Helvetica" font-size="10" font-weight="normal" font-style="normal" fill="#000000" fill-opacity="1">100 ps</text>
  <path d="M 50 333 L 1230 333" fill="none" stroke-width="0.75" stroke="#000000" stroke-opacity="0.49804" stroke-linecap="butt" stroke-linejoin="round"/>
  <text x="27" y="334.7" font-family="Helvetica" font-size="10" font-weight="normal" font-style="normal" fill="#000000" fill-opacity="1">1 ns</text>
  <text x="1236" y="334.7" font-family="Helvetica" font-size="10" font-weight="normal" font-style="normal" fill="#000000" fill-opacity="1">1 ns</text>
  <path d="M 50 225 L 1230 225" fill="none" stroke-width="0.75" stroke="#000000" stroke-opacity="0.49804" stroke-linecap="butt" stroke-linejoin="round"/>
  <text x="21" y="226.7" font-family="Helvetica" font-size="10" font-weight="normal" font-style="normal" fill="#000000" fill-opacity="1">10 ns</text>
  <text x="1236" y="226.7" font-family="Helvetica" font-size="10" font-weight="normal" font-style="normal" fill="#000000" fill-opacity="1">10 ns</text>
  <path d="M 50 117 L 1230 117" fill="none" stroke-width="0.75" stroke="#000000" stroke-opacity="0.49804" stroke-linecap="butt" stroke-linejoin="round"/>
  <text x="16" y="118.7" font-family="Helvetica" font-size="10" font-weight="normal" font-style="normal" fill="#000000" fill-opacity="1">100 ns</text>
  <text x="1236" y="118.7" font-family="Helvetica" font-size="10" font-weight="normal" font-style="normal" fill="#000000" fill-opacity="1">100 ns</text>
  <path d="M 50 9 L 1230 9" fill="none" stroke-width="0.75" stroke="#000000" stroke-opacity="0.49804" stroke-linecap="butt" stroke-linejoin="round"/>
  <text x="26" y="10.7" font-family="Helvetica" font-size="10" font-weight="normal" font-style="normal" fill="#000000" fill-opacity="1">1 µs</text>
  <text x="1236" y="10.7" font-family="Helvetica" font-size="10" font-weight="normal" font-style="normal" fill="#000000" fill-opacity="1">1 µs</text>
  <path d="M 50 408.49 L 1230 408.49" fill="none" stroke-width="0.5" stroke="#000000" stroke-opacity="0.25882" stroke-linecap="butt" stroke-linejoin="round" stroke-dasharray="6 3" stroke-dashoffset="0"/>
  <path d="M 50 375.98 L 1230 375.98" fill="none" stroke-width="0.5" stroke="#000000" stroke-opacity="0.25882" stroke-linecap="butt" stroke-linejoin="round" stroke-dasharray="6 3" stroke-dashoffset="0"/>
  <path d="M 50 343.47 L 1230 343.47" fill="none" stroke-width="0.5" stroke="#000000" stroke-opacity="0.25882" stroke-linecap="butt" stroke-linejoin="round" stroke-dasharray="6 3" stroke-dashoffset="0"/>
  <path d="M 50 310.96 L 1230 310.96" fill="none" stroke-width="0.5" stroke="#000000" stroke-opacity="0.25882" stroke-linecap="butt" stroke-linejoin="round" stroke-dasharray="6 3" stroke-dashoffset="0"/>
  <path d="M 50 278.44 L 1230 278.44" fill="none" stroke-width="0.5" stroke="#000000" stroke-opacity="0.25882" stroke-linecap="butt" stroke-linejoin="round" stroke-dasharray="6 3" stroke-dashoffset="0"/>
  <path d="M 50 245.93 L 1230 245.93" fill="none" stroke-width="0.5" stroke="#000000" stroke-opacity="0.25882" stroke-linecap="butt" stroke-linejoin="round" stroke-dasharray="6 3" stroke-dashoffset="0"/>
  <path d="M 50 213.42 L 1230 213.42" fill="none" stroke-width="0.5" stroke="#000000" stroke-opacity="0.25882" stroke-linecap="butt" stroke-linejoin="round" stroke-dasharray="6 3" stroke-dashoffset="0"/>
  <path d="M 50 180.91 L 1230 180.91" fill="none" stroke-width="0.5" stroke="#000000" stroke-opacity="0.25882" stroke-linecap="butt" stroke-linejoin="round" stroke-dasharray="6 3" stroke-dashoffset="0"/>
  <path d="M 50 148.4 L 1230 148.4" fill="none" stroke-width="0.5" stroke="#000000" stroke-opacity="0.25882" stroke-linecap="butt" stroke-linejoin="round" stroke-dasharray="6 3" stroke-dashoffset="0"/>
  <path d="M 50 115.89 L 1230 115.89" fill="none" stroke-width="0.5" stroke="#000000" stroke-opacity="0.25882" stroke-linecap="butt" stroke-linejoin="round" stroke-dasharray="6 3" stroke-dashoffset="0"/>
  <path d="M 50 83.376 L 1230 83.376" fill="none" stroke-width="0.5" stroke="#000000" stroke-opacity="0.25882" stroke-linecap="butt" stroke-linejoin="round" stroke-dasharray="6 3" stroke-dashoffset="0"/>
  <path d="M 50 50.865 L 1230 50.865" fill="none" stroke-width="0.5" stroke="#000000" stroke-opacity="0.25882" stroke-linecap="butt" stroke-linejoin="round" stroke-dasharray="6 3" stroke-dashoffset="0"/>
  <path d="M 50 18.354 L 1230 18.354" fill="none" stroke-width="0.5" stroke="#000000" stroke-opacity="0.25882" stroke-linecap="butt" stroke-linejoin="round" stroke-dasharray="6 3" stroke-dashoffset="0"/>
  <path d="M 74 33 L 74 122 L 500 122 L 500 33 z" fill="#FFFFFF" fill-opacity="1.0" stroke="none"/>
  <clipPath id="clip-0">
    <path d="M 50 9 L 50 441 L 1230 441 L 1230 9 z"/>
  </clipPath>
  <g clip-path="url(#clip-0)">
    <path d="M 50 156.68L 109 189.19L 143.51 210.35L 168 223.84L 186.99 234.31L 202.51 242.86L 215.63 250.09L 227 256.35L 245.99 266.82L 261.51 273.23L 274.63 280.46L 286 288.86L 304.99 297.19L 320.51 256.97L 333.63 282.03L 345 288.3L 363.99 298.76L 379.51 288.11L 392.63 295.34L 404 301.6L 422.99 298.76L 438.51 288.96L 451.63 288.64L 463 301.6L 481.99 304.78L 497.51 301.6L 510.63 303.75L 522 298.21L 540.99 301.6L 556.51 304.18L 569.63 301.6L 581 303.61L 599.99 303.2L 615.51 301.74L 628.63 303.88L 640 303.61L 658.99 302.48L 674.51 302.98L 687.63 303.89L 699 303.6L 717.99 303.24L 733.51 302.98L 746.63 303.63L 758 303.85L 776.99 303.8L 792.51 303.62L 805.63 303.61L 817 303.74L 835.99 303.81L 851.51 303.7L 864.63 303.96L 876 303.79L 894.99 303.96L 910.51 303.86L 923.63 303.93L 935 303.92L 953.99 303.86L 969.51 303.9L 982.63 303.93L 994 303.86L 1013 303.87L 1028.5 301.27L 1041.6 303.91L 1053 303.89L 1072 303.91L 1087.5 303.92L 1100.6 303.92L 1112 303.91L 1131 303.91L 1146.5 303.87L 1159.6 301.98L 1171 303.75L 1190 301.12L 1205.5 303.58L 1218.6 303.73L 1230 303.72L 1230 303.87L 1218.6 303.86L 1205.5 303.84L 1190 303.71L 1171 303.87L 1159.6 302.98L 1146.5 303.9L 1131 303.91L 1112 303.93L 1100.6 303.92L 1087.5 303.92L 1072 303.92L 1053 303.93L 1041.6 303.93L 1028.5 303.9L 1013 303.92L 994 303.92L 982.63 303.93L 969.51 303.94L 953.99 303.96L 935 303.92L 923.63 303.93L 910.51 303.94L 894.99 303.96L 876 303.92L 864.63 303.96L 851.51 304.03L 835.99 304.01L 817 303.98L 805.63 303.89L 792.51 303.94L 776.99 303.81L 758 303.85L 746.63 304.18L 733.51 304.29L 717.99 304.01L 699 303.6L 687.63 303.89L 674.51 304.29L 658.99 304.01L 640 303.61L 628.63 303.88L 615.51 304.27L 599.99 303.2L 581 303.61L 569.63 301.6L 556.51 304.3L 540.99 301.6L 522 305.61L 510.63 303.96L 497.51 301.6L 481.99 304.78L 463 301.6L 451.63 303.96L 438.51 307.03L 422.99 298.76L 404 301.6L 392.63 295.34L 379.51 288.11L 363.99 298.76L 345 288.3L 333.63 282.03L 320.51 307.88L 304.99 299.33L 286 288.86L 274.63 282.6L 261.51 275.37L 245.99 266.82L 227 256.35L 215.63 250.09L 202.51 242.86L 186.99 234.31L 168 223.84L 143.51 210.35L 109 191.33L 50 158.82" fill="#FFCC00" fill-opacity="0.30196078431372547" stroke="none"/>
    <path d="M 50 156.68L 109 190.2L 143.51 208.21L 168 221.7L 186.99 232.17L 202.51 242.86L 215.63 247.95L 227 256.35L 245.99 264.68L 261.51 275.37L 274.63 281.47L 286 286.72L 304.99 248.77L 320.51 257.32L 333.63 264.2L 345 288.3L 363.99 298.2L 379.51 288.11L 392.63 295.34L 404 301.6L 422.99 298.76L 438.51 288.79L 451.63 303.96L 463 301.6L 481.99 304.78L 497.51 301.6L 510.63 303.75L 522 301.6L 540.99 298.87L 556.51 304.18L 569.63 299.59L 581 303.61L 599.99 303.2L 615.51 302.93L 628.63 303.91L 640 303.59L 658.99 304.01L 674.51 303.6L 687.63 303.89L 699 303.6L 717.99 302.88L 733.51 303.93L 746.63 303.34L 758 303.62L 776.99 303.81L 792.51 303.94L 805.63 303.76L 817 303.98L 835.99 303.9L 851.51 303.94L 864.63 303.82L 876 303.92L 894.99 303.81L 910.51 303.86L 923.63 303.86L 935 303.92L 953.99 303.88L 969.51 303.86L 982.63 303.93L 994 303.92L 1013 302.15L 1028.5 301.24L 1041.6 303.89L 1053 303.91L 1072 303.9L 1087.5 303.92L 1100.6 303.92L 1112 303.92L 1131 303.91L 1146.5 303.87L 1159.6 301.44L 1171 303.78L 1190 301.09L 1205.5 303.53L 1218.6 303.74L 1230 303.81L 1230 303.85L 1218.6 303.85L 1205.5 303.83L 1190 303.7L 1171 303.87L 1159.6 303L 1146.5 303.9L 1131 303.92L 1112 303.93L 1100.6 303.92L 1087.5 303.92L 1072 303.92L 1053 303.93L 1041.6 303.93L 1028.5 303.89L 1013 303.93L 994 303.92L 982.63 303.93L 969.51 303.94L 953.99 303.93L 935 303.92L 923.63 303.93L 910.51 303.94L 894.99 304.01L 876 303.92L 864.63 303.96L 851.51 303.94L 835.99 303.91L 817 303.98L 805.63 304.04L 792.51 303.94L 776.99 303.81L 758 304.11L 746.63 303.89L 733.51 303.94L 717.99 304.41L 699 303.6L 687.63 303.89L 674.51 303.6L 658.99 304.01L 640 303.59L 628.63 303.91L 615.51 302.93L 599.99 303.2L 581 303.61L 569.63 303.91L 556.51 304.3L 540.99 304.78L 522 301.6L 510.63 303.96L 497.51 301.6L 481.99 304.78L 463 301.6L 451.63 303.96L 438.51 307.31L 422.99 298.76L 404 301.6L 392.63 295.34L 379.51 288.11L 363.99 298.2L 345 288.3L 333.63 315.11L 320.51 306.75L 304.99 298.2L 286 288.86L 274.63 281.47L 261.51 275.37L 245.99 266.82L 227 256.35L 215.63 250.09L 202.51 242.86L 186.99 234.31L 168 223.84L 143.51 210.35L 109 190.2L 50 158.82" fill="#28CD41" fill-opacity="0.30196078431372547" stroke="none"/>
    <path d="M 50 156.68L 109 189.19L 143.51 210.35L 168 221.7L 186.99 234.31L 202.51 240.72L 215.63 247.95L 227 223.27L 245.99 233.74L 261.51 210.78L 274.63 218.01L 286 236.58L 304.99 233.2L 320.51 216.38L 333.63 230.32L 345 229.46L 363.99 219.11L 379.51 216.25L 392.63 217.05L 404 220.26L 422.99 211.1L 438.51 215.8L 451.63 210.25L 463 210.55L 481.99 203.35L 497.51 198.02L 510.63 190.34L 522 181.74L 540.99 177.41L 556.51 166.33L 569.63 160.82L 581 153.75L 599.99 149.78L 615.51 144.55L 628.63 142.57L 640 140.11L 658.99 136.31L 674.51 131.7L 687.63 130.44L 699 129.76L 717.99 126.64L 733.51 124.5L 746.63 123.28L 758 112.52L 776.99 118.61L 792.51 115.98L 805.63 114.75L 817 112.52L 835.99 110.86L 851.51 109.21L 864.63 108.32L 876 100.91L 894.99 105.62L 910.51 102.81L 923.63 102.72L 935 92.651L 953.99 99.445L 969.51 93.467L 982.63 96.703L 994 86.637L 1013 89.995L 1028.5 85.842L 1041.6 88L 1053 81.391L 1072 78.464L 1087.5 78.042L 1100.6 78.249L 1112 72.389L 1131 69.126L 1146.5 64.52L 1159.6 61.295L 1171 39.366L 1190 56.058L 1205.5 48.497L 1218.6 44.811L 1230 23.447L 1230 26.835L 1218.6 46.666L 1205.5 50.276L 1190 56.341L 1171 39.463L 1159.6 61.661L 1146.5 64.551L 1131 69.426L 1112 72.484L 1100.6 78.385L 1087.5 78.967L 1072 81.676L 1053 81.409L 1041.6 88.055L 1028.5 85.938L 1013 90.337L 994 86.706L 982.63 96.896L 969.51 93.727L 953.99 99.577L 935 93.028L 923.63 103.27L 910.51 103.13L 894.99 105.87L 876 101.21L 864.63 108.84L 851.51 109.64L 835.99 111.48L 817 112.68L 805.63 114.95L 792.51 116.39L 776.99 118.69L 758 121.65L 746.63 123.36L 733.51 124.84L 717.99 127.26L 699 130.22L 687.63 131.56L 674.51 132.98L 658.99 136.57L 640 140.41L 628.63 142.86L 615.51 146.25L 599.99 151.83L 581 159.17L 569.63 162.34L 556.51 169.8L 540.99 183.77L 522 192.82L 510.63 194.5L 497.51 199.12L 481.99 204.86L 463 215.03L 451.63 215.38L 438.51 215.88L 422.99 218.6L 404 220.26L 392.63 223.11L 379.51 223.09L 363.99 228.03L 345 229.46L 333.63 230.32L 320.51 231.71L 304.99 233.74L 286 236.58L 274.63 248.96L 261.51 241.73L 245.99 233.74L 227 223.27L 215.63 250.09L 202.51 242.86L 186.99 234.31L 168 223.84L 143.51 210.35L 109 191.33L 50 158.82" fill="#007AFF" fill-opacity="0.30196078431372547" stroke="none"/>
    <path d="M 50 158.82L 109 191.33L 143.51 208.21L 168 221.7L 186.99 234.31L 202.51 241.73L 215.63 248.96L 227 255.22L 245.99 264.68L 261.51 274.24L 274.63 282.6L 286 286.72L 304.99 297.19L 320.51 305.74L 333.63 312.97L 345 321.38L 363.99 331.84L 379.51 338.25L 392.63 296.71L 404 303.33L 422.99 363.22L 438.51 371.77L 451.63 347.06L 463 353.32L 481.99 332.01L 497.51 353.13L 510.63 360.36L 522 366.62L 540.99 345.43L 556.51 346.58L 569.63 353.66L 581 353.82L 599.99 363.37L 615.51 366.62L 628.63 368.87L 640 366.62L 658.99 366.62L 674.51 366.62L 687.63 366.62L 699 361.4L 717.99 368.15L 733.51 367.96L 746.63 367.71L 758 367.62L 776.99 367.38L 792.51 366.68L 805.63 367.74L 817 367.17L 835.99 364.47L 851.51 364.5L 864.63 366.65L 876 363.91L 894.99 362.34L 910.51 358.83L 923.63 353.97L 935 354.53L 953.99 351.06L 969.51 349.1L 982.63 347.43L 994 341.61L 1013 344.6L 1028.5 343.9L 1041.6 343.11L 1053 342.62L 1072 341.25L 1087.5 341.51L 1100.6 340.58L 1112 336.22L 1131 337.74L 1146.5 338.75L 1159.6 338.89L 1171 336.87L 1190 338.18L 1205.5 336.06L 1218.6 338.51L 1230 337.6L 1230 339.25L 1218.6 339.29L 1205.5 339.18L 1190 339.09L 1171 339.84L 1159.6 340.12L 1146.5 340.06L 1131 340.6L 1112 340.09L 1100.6 341.01L 1087.5 341.6L 1072 341.99L 1053 342.76L 1041.6 343.28L 1028.5 343.95L 1013 345.01L 994 346.52L 982.63 347.61L 969.51 349.21L 953.99 351.33L 935 354.71L 923.63 356.27L 910.51 358.84L 894.99 362.69L 876 367.11L 864.63 367.18L 851.51 366.95L 835.99 367.41L 817 368.11L 805.63 367.76L 792.51 367.96L 776.99 367.42L 758 367.62L 746.63 367.76L 733.51 367.96L 717.99 368.23L 699 368.59L 687.63 366.62L 674.51 366.62L 658.99 366.62L 640 366.62L 628.63 368.87L 615.51 366.62L 599.99 363.64L 581 366.62L 569.63 368.99L 556.51 361.53L 540.99 363.5L 522 366.62L 510.63 360.36L 497.51 353.13L 481.99 363.78L 463 353.32L 451.63 347.06L 438.51 371.77L 422.99 363.22L 404 352.76L 392.63 347.62L 379.51 340.39L 363.99 331.84L 345 321.38L 333.63 315.11L 320.51 307.88L 304.99 299.33L 286 288.86L 274.63 282.6L 261.51 274.24L 245.99 266.82L 227 255.22L 215.63 248.96L 202.51 241.73L 186.99 234.31L 168 223.84L 143.51 210.35L 109 191.33L 50 158.82" fill="#FF3B30" fill-opacity="0.30196078431372547" stroke="none"/>
    <path d="M 50 158.25L 109 190.76L 143.51 210.35L 168 223.84L 186.99 234.31L 202.51 242.86L 215.63 250.09L 227 256.35L 245.99 266.82L 261.51 274.8L 274.63 282.03L 286 288.86L 304.99 298.76L 320.51 288.48L 333.63 282.03L 345 288.3L 363.99 298.76L 379.51 288.11L 392.63 295.34L 404 301.6L 422.99 298.76L 438.51 301.6L 451.63 299.45L 463 301.6L 481.99 304.78L 497.51 301.6L 510.63 303.91L 522 303.56L 540.99 301.6L 556.51 304.27L 569.63 301.6L 581 303.61L 599.99 303.2L 615.51 303.6L 628.63 303.88L 640 303.61L 658.99 303.6L 674.51 303.94L 687.63 303.89L 699 303.6L 717.99 303.81L 733.51 303.94L 746.63 304.04L 758 303.85L 776.99 303.8L 792.51 303.85L 805.63 303.82L 817 303.92L 835.99 303.96L 851.51 303.94L 864.63 303.96L 876 303.89L 894.99 303.96L 910.51 303.92L 923.63 303.93L 935 303.92L 953.99 303.93L 969.51 303.93L 982.63 303.93L 994 303.9L 1013 303.9L 1028.5 303.2L 1041.6 303.92L 1053 303.92L 1072 303.92L 1087.5 303.92L 1100.6 303.92L 1112 303.92L 1131 303.91L 1146.5 303.89L 1159.6 302.72L 1171 303.84L 1190 303.02L 1205.5 303.77L 1218.6 303.82L 1230 303.83" fill="none" stroke-width="4" stroke="#FFCC00" stroke-opacity="1" stroke-linecap="round" stroke-linejoin="round"/>
    <path d="M 50 158.25L 109 190.2L 143.51 209.78L 168 223.27L 186.99 233.74L 202.51 242.86L 215.63 249.52L 227 256.35L 245.99 266.25L 261.51 275.37L 274.63 281.47L 286 288.3L 304.99 279.56L 320.51 288.11L 333.63 295.71L 345 288.3L 363.99 298.2L 379.51 288.11L 392.63 295.34L 404 301.6L 422.99 298.76L 438.51 301.73L 451.63 303.96L 463 301.6L 481.99 304.78L 497.51 301.6L 510.63 303.91L 522 301.6L 540.99 303.17L 556.51 304.27L 569.63 302.74L 581 303.61L 599.99 303.2L 615.51 302.93L 628.63 303.91L 640 303.59L 658.99 304.01L 674.51 303.6L 687.63 303.89L 699 303.6L 717.99 304.01L 733.51 303.94L 746.63 303.74L 758 303.98L 776.99 303.81L 792.51 303.94L 805.63 303.96L 817 303.98L 835.99 303.9L 851.51 303.94L 864.63 303.93L 876 303.92L 894.99 303.96L 910.51 303.92L 923.63 303.91L 935 303.92L 953.99 303.92L 969.51 303.92L 982.63 303.93L 994 303.92L 1013 303.46L 1028.5 303.18L 1041.6 303.92L 1053 303.92L 1072 303.92L 1087.5 303.92L 1100.6 303.92L 1112 303.92L 1131 303.92L 1146.5 303.9L 1159.6 302.59L 1171 303.84L 1190 303.01L 1205.5 303.75L 1218.6 303.82L 1230 303.84" fill="none" stroke-width="4" stroke="#28CD41" stroke-opacity="1" stroke-linecap="round" stroke-linejoin="round"/>
    <path d="M 50 158.25L 109 190.76L 143.51 210.35L 168 223.27L 186.99 234.31L 202.51 242.29L 215.63 249.52L 227 223.27L 245.99 233.74L 261.51 231.49L 274.63 238.72L 286 236.58L 304.99 233.6L 320.51 227.2L 333.63 230.32L 345 229.46L 363.99 225.53L 379.51 221.2L 392.63 221.45L 404 220.26L 422.99 216.52L 438.51 215.86L 451.63 213.98L 463 213.82L 481.99 204.46L 497.51 198.83L 510.63 193.38L 522 189.66L 540.99 182.02L 556.51 168.87L 569.63 161.94L 581 157.7L 599.99 151.28L 615.51 145.8L 628.63 142.79L 640 140.33L 658.99 136.5L 674.51 132.64L 687.63 131.26L 699 130.1L 717.99 127.1L 733.51 124.75L 746.63 123.34L 758 119.09L 776.99 118.67L 792.51 116.28L 805.63 114.9L 817 112.64L 835.99 111.32L 851.51 109.53L 864.63 108.71L 876 101.13L 894.99 105.8L 910.51 103.04L 923.63 103.12L 935 92.929L 953.99 99.542L 969.51 93.659L 982.63 96.845L 994 86.688L 1013 90.247L 1028.5 85.913L 1041.6 88.04L 1053 81.404L 1072 80.815L 1087.5 78.724L 1100.6 78.35L 1112 72.459L 1131 69.348L 1146.5 64.543L 1159.6 61.565L 1171 39.438L 1190 56.267L 1205.5 49.805L 1218.6 46.174L 1230 25.926" fill="none" stroke-width="4" stroke="#007AFF" stroke-opacity="1" stroke-linecap="round" stroke-linejoin="round"/>
    <path d="M 50 158.82L 109 191.33L 143.51 209.78L 168 223.27L 186.99 234.31L 202.51 241.73L 215.63 248.96L 227 255.22L 245.99 266.25L 261.51 274.24L 274.63 282.6L 286 288.3L 304.99 298.76L 320.51 307.31L 333.63 314.54L 345 321.38L 363.99 331.84L 379.51 339.82L 392.63 328.23L 404 334.11L 422.99 363.22L 438.51 371.77L 451.63 347.06L 463 353.32L 481.99 353.21L 497.51 353.13L 510.63 360.36L 522 366.62L 540.99 358.07L 556.51 357.14L 569.63 364.48L 581 362.93L 599.99 363.57L 615.51 366.62L 628.63 368.87L 640 366.62L 658.99 366.62L 674.51 366.62L 687.63 366.62L 699 366.6L 717.99 368.21L 733.51 367.96L 746.63 367.75L 758 367.62L 776.99 367.41L 792.51 367.62L 805.63 367.76L 817 367.87L 835.99 366.62L 851.51 366.3L 864.63 367.04L 876 366.26L 894.99 362.6L 910.51 358.84L 923.63 355.66L 935 354.67L 953.99 351.26L 969.51 349.18L 982.63 347.56L 994 345.19L 1013 344.9L 1028.5 343.94L 1041.6 343.23L 1053 342.72L 1072 341.8L 1087.5 341.58L 1100.6 340.9L 1112 339.05L 1131 339.83L 1146.5 339.71L 1159.6 339.8L 1171 339.04L 1190 338.85L 1205.5 338.34L 1218.6 339.09L 1230 338.81" fill="none" stroke-width="4" stroke="#FF3B30" stroke-opacity="1" stroke-linecap="round" stroke-linejoin="round"/>
    <path d="M 50 158.25L 109 190.76L 143.51 210.35L 168 223.84L 186.99 234.31L 202.51 242.86L 215.63 250.09L 227 256.35L 245.99 266.82L 261.51 274.8L 274.63 282.03L 286 288.86L 304.99 298.76L 320.51 288.48L 333.63 282.03L 345 288.3L 363.99 298.76L 379.51 288.11L 392.63 295.34L 404 301.6L 422.99 298.76L 438.51 301.6L 451.63 299.45L 463 301.6L 481.99 304.78L 497.51 301.6L 510.63 303.91L 522 303.56L 540.99 301.6L 556.51 304.27L 569.63 301.6L 581 303.61L 599.99 303.2L 615.51 303.6L 628.63 303.88L 640 303.61L 658.99 303.6L 674.51 303.94L 687.63 303.89L 699 303.6L 717.99 303.81L 733.51 303.94L 746.63 304.04L 758 303.85L 776.99 303.8L 792.51 303.85L 805.63 303.82L 817 303.92L 835.99 303.96L 851.51 303.94L 864.63 303.96L 876 303.89L 894.99 303.96L 910.51 303.92L 923.63 303.93L 935 303.92L 953.99 303.93L 969.51 303.93L 982.63 303.93L 994 303.9L 1013 303.9L 1028.5 303.2L 1041.6 303.92L 1053 303.92L 1072 303.92L 1087.5 303.92L 1100.6 303.92L 1112 303.92L 1131 303.91L 1146.5 303.89L 1159.6 302.72L 1171 303.84L 1190 303.02L 1205.5 303.77L 1218.6 303.82L 1230 303.83" fill="none" stroke-width="0.5" stroke="#000000" stroke-opacity="0.30196" stroke-linecap="round" stroke-linejoin="round"/>
    <path d="M 50 158.25L 109 190.2L 143.51 209.78L 168 223.27L 186.99 233.74L 202.51 242.86L 215.63 249.52L 227 256.35L 245.99 266.25L 261.51 275.37L 274.63 281.47L 286 288.3L 304.99 279.56L 320.51 288.11L 333.63 295.71L 345 288.3L 363.99 298.2L 379.51 288.11L 392.63 295.34L 404 301.6L 422.99 298.76L 438.51 301.73L 451.63 303.96L 463 301.6L 481.99 304.78L 497.51 301.6L 510.63 303.91L 522 301.6L 540.99 303.17L 556.51 304.27L 569.63 302.74L 581 303.61L 599.99 303.2L 615.51 302.93L 628.63 303.91L 640 303.59L 658.99 304.01L 674.51 303.6L 687.63 303.89L 699 303.6L 717.99 304.01L 733.51 303.94L 746.63 303.74L 758 303.98L 776.99 303.81L 792.51 303.94L 805.63 303.96L 817 303.98L 835.99 303.9L 851.51 303.94L 864.63 303.93L 876 303.92L 894.99 303.96L 910.51 303.92L 923.63 303.91L 935 303.92L 953.99 303.92L 969.51 303.92L 982.63 303.93L 994 303.92L 1013 303.46L 1028.5 303.18L 1041.6 303.92L 1053 303.92L 1072 303.92L 1087.5 303.92L 1100.6 303.92L 1112 303.92L 1131 303.92L 1146.5 303.9L 1159.6 302.59L 1171 303.84L 1190 303.01L 1205.5 303.75L 1218.6 303.82L 1230 303.84" fill="none" stroke-width="0.5" stroke="#000000" stroke-opacity="0.30196" stroke-linecap="round" stroke-linejoin="round"/>
    <path d="M 50 158.25L 109 190.76L 143.51 210.35L 168 223.27L 186.99 234.31L 202.51 242.29L 215.63 249.52L 227 223.27L 245.99 233.74L 261.51 231.49L 274.63 238.72L 286 236.58L 304.99 233.6L 320.51 227.2L 333.63 230.32L 345 229.46L 363.99 225.53L 379.51 221.2L 392.63 221.45L 404 220.26L 422.99 216.52L 438.51 215.86L 451.63 213.98L 463 213.82L 481.99 204.46L 497.51 198.83L 510.63 193.38L 522 189.66L 540.99 182.02L 556.51 168.87L 569.63 161.94L 581 157.7L 599.99 151.28L 615.51 145.8L 628.63 142.79L 640 140.33L 658.99 136.5L 674.51 132.64L 687.63 131.26L 699 130.1L 717.99 127.1L 733.51 124.75L 746.63 123.34L 758 119.09L 776.99 118.67L 792.51 116.28L 805.63 114.9L 817 112.64L 835.99 111.32L 851.51 109.53L 864.63 108.71L 876 101.13L 894.99 105.8L 910.51 103.04L 923.63 103.12L 935 92.929L 953.99 99.542L 969.51 93.659L 982.63 96.845L 994 86.688L 1013 90.247L 1028.5 85.913L 1041.6 88.04L 1053 81.404L 1072 80.815L 1087.5 78.724L 1100.6 78.35L 1112 72.459L 1131 69.348L 1146.5 64.543L 1159.6 61.565L 1171 39.438L 1190 56.267L 1205.5 49.805L 1218.6 46.174L 1230 25.926" fill="none" stroke-width="0.5" stroke="#000000" stroke-opacity="0.30196" stroke-linecap="round" stroke-linejoin="round"/>
    <path d="M 50 158.82L 109 191.33L 143.51 209.78L 168 223.27L 186.99 234.31L 202.51 241.73L 215.63 248.96L 227 255.22L 245.99 266.25L 261.51 274.24L 274.63 282.6L 286 288.3L 304.99 298.76L 320.51 307.31L 333.63 314.54L 345 321.38L 363.99 331.84L 379.51 339.82L 392.63 328.23L 404 334.11L 422.99 363.22L 438.51 371.77L 451.63 347.06L 463 353.32L 481.99 353.21L 497.51 353.13L 510.63 360.36L 522 366.62L 540.99 358.07L 556.51 357.14L 569.63 364.48L 581 362.93L 599.99 363.57L 615.51 366.62L 628.63 368.87L 640 366.62L 658.99 366.62L 674.51 366.62L 687.63 366.62L 699 366.6L 717.99 368.21L 733.51 367.96L 746.63 367.75L 758 367.62L 776.99 367.41L 792.51 367.62L 805.63 367.76L 817 367.87L 835.99 366.62L 851.51 366.3L 864.63 367.04L 876 366.26L 894.99 362.6L 910.51 358.84L 923.63 355.66L 935 354.67L 953.99 351.26L 969.51 349.18L 982.63 347.56L 994 345.19L 1013 344.9L 1028.5 343.94L 1041.6 343.23L 1053 342.72L 1072 341.8L 1087.5 341.58L 1100.6 340.9L 1112 339.05L 1131 339.83L 1146.5 339.71L 1159.6 339.8L 1171 339.04L 1190 338.85L 1205.5 338.34L 1218.6 339.09L 1230 338.81" fill="none" stroke-width="0.5" stroke="#000000" stroke-opacity="0.30196" stroke-linecap="round" stroke-linejoin="round"/>
  </g>
  <path d="M 74 33 L 74 122 L 500 122 L 500 33 z" fill="#FFFFFF" fill-opacity="0.7019607843137254" stroke-width="0.5" stroke="#000000" stroke-opacity="1" stroke-linecap="round" stroke-linejoin="round"/>
  <path d="M 88 52 L 108 52" fill="none" stroke-width="4" stroke="#FF3B30" stroke-opacity="1" stroke-linecap="round" stroke-linejoin="round"/>
  <path d="M 88 52 L 108 52" fill="none" stroke-width="0.5" stroke="#000000" stroke-opacity="0.30196" stroke-linecap="round" stroke-linejoin="round"/>
  <text x="119" y="56.17" font-family="Menlo" font-size="12" font-weight="normal" font-style="normal" fill="#000000" fill-opacity="1">Array&lt;Int&gt; mutate through subscript</text>
  <path d="M 88 69 L 108 69" fill="none" stroke-width="4" stroke="#007AFF" stroke-opacity="1" stroke-linecap="round" stroke-linejoin="round"/>
  <path d="M 88 69 L 108 69" fill="none" stroke-width="0.5" stroke="#000000" stroke-opacity="0.30196" stroke-linecap="round" stroke-linejoin="round"/>
  <text x="119" y="73.17" font-family="Menlo" font-size="12" font-weight="normal" font-style="normal" fill="#000000" fill-opacity="1">TreeArray&lt;Int&gt; mutate through subscript</text>
  <path d="M 88 86 L 108 86" fill="none" stroke-width="4" stroke="#28CD41" stroke-opacity="1" stroke-linecap="round" stroke-linejoin="round"/>
  <path d="M 88 86 L 108 86" fill="none" stroke-width="0.5" stroke="#000000" stroke-opacity="0.30196" stroke-linecap="round" stroke-linejoin="round"/>
  <text x="119" y="90.17" font-family="Menlo" font-size="12" font-weight="normal" font-style="normal" fill="#000000" fill-opacity="1">Deque&lt;Int&gt; mutate through subscript (contiguous)</text>
  <path d="M 88 103 L 108 103" fill="none" stroke-width="4" stroke="#FFCC00" stroke-opacity="1" stroke-linecap="round" stroke-linejoin="round"/>
  <path d="M 88 103 L 108 103" fill="none" stroke-width="0.5" stroke="#000000" stroke-opacity="0.30196" stroke-linecap="round" stroke-linejoin="round"/>
  <text x="119" y="107.17" font-family="Menlo" font-size="12" font-weight="normal" font-style="normal" fill="#000000" fill-opacity="1">Deque&lt;Int&gt; mutate through subscript (discontiguous)</text>
  <path d="M 50 9 L 50 441 L 1230 441 L 1230 9 z" fill="none" stroke-width="0.5" stroke="#000000" stroke-opacity="1" stroke-linecap="round" stroke-linejoin="round"/>
</svg>
