<!DOCTYPE svg PUBLIC "-//W3C//DTD SVG 1.1//EN" "http://www.w3.org/Graphics/SVG/1.1/DTD/svg11.dtd">
<svg width="1280.0px" height="480.0px" viewBox="0.0 0.0 1280.0 480.0" xmlns="http://www.w3.org/2000/svg" xmlns:xlink="http://www.w3.org/1999/xlink" version="1.1">
  <path d="M 0 0 L 0 480 L 1280 480 L 1280 0 z" fill="#FFFFFF" fill-opacity="1.0" stroke="none"/>
  <text x="50" y="468.7" font-family="Helvetica" font-size="10" font-weight="normal" font-style="normal" fill="#000000" fill-opacity="1">Average per-element processing time over input size (bands: min, mean, mean + 2stddev)</text>
  <a xlink:href="https://github.com/apple/swift-collections-benchmark"><text x="1107" y="468.7" font-family="Helvetica" font-size="10" font-weight="normal" font-style="normal" fill="#000000" fill-opacity="1">swift-collections-benchmark</text></a>
  <path d="M 50 9 L 50 441" fill="none" stroke-width="0.75" stroke="#000000" stroke-opacity="0.49804" stroke-linecap="butt" stroke-linejoin="round"/>
  <text x="47" y="453.7" font-family="Helvetica" font-size="10" font-weight="normal" font-style="normal" fill="#000000" fill-opacity="1">1</text>
  <path d="M 109 9 L 109 441" fill="none" stroke-width="0.75" stroke="#000000" stroke-opacity="0.49804" stroke-linecap="butt" stroke-linejoin="round"/>
  <text x="106" y="453.7" font-family="Helvetica" font-size="10" font-weight="normal" font-style="normal" fill="#000000" fill-opacity="1">2</text>
  <path d="M 168 9 L 168 441" fill="none" stroke-width="0.75" stroke="#000000" stroke-opacity="0.49804" stroke-linecap="butt" stroke-linejoin="round"/>
  <text x="165" y="453.7" font-family="Helvetica" font-size="10" font-weight="normal" font-style="normal" fill="#000000" fill-opacity="1">4</text>
  <path d="M 227 9 L 227 441" fill="none" stroke-width="0.75" stroke="#000000" stroke-opacity="0.49804" stroke-linecap="butt" stroke-linejoin="round"/>
  <text x="224" y="453.7" font-family="Helvetica" font-size="10" font-weight="normal" font-style="normal" fill="#000000" fill-opacity="1">8</text>
  <path d="M 286 9 L 286 441" fill="none" stroke-width="0.75" stroke="#000000" stroke-opacity="0.49804" stroke-linecap="butt" stroke-linejoin="round"/>
  <text x="280" y="453.7" font-family="Helvetica" font-size="10" font-weight="normal" font-style="normal" fill="#000000" fill-opacity="1">16</text>
  <path d="M 345 9 L 345 441" fill="none" stroke-width="0.75" stroke="#000000" stroke-opacity="0.49804" stroke-linecap="butt" stroke-linejoin="round"/>
  <text x="339" y="453.7" font-family="Helvetica" font-size="10" font-weight="normal" font-style="normal" fill="#000000" fill-opacity="1">32</text>
  <path d="M 404 9 L 404 441" fill="none" stroke-width="0.75" stroke="#000000" stroke-opacity="0.49804" stroke-linecap="butt" stroke-linejoin="round"/>
  <text x="398" y="453.7" font-family="Helvetica" font-size="10" font-weight="normal" font-style="normal" fill="#000000" fill-opacity="1">64</text>
  <path d="M 463 9 L 463 441" fill="none" stroke-width="0.75" stroke="#000000" stroke-opacity="0.49804" stroke-linecap="butt" stroke-linejoin="round"/>
  <text x="454.5" y="453.7" font-family="Helvetica" font-size="10" font-weight="normal" font-style="normal" fill="#000000" fill-opacity="1">128</text>
  <path d="M 522 9 L 522 441" fill="none" stroke-width="0.75" stroke="#000000" stroke-opacity="0.49804" stroke-linecap="butt" stroke-linejoin="round"/>
  <text x="513.5" y="453.7" font-family="Helvetica" font-size="10" font-weight="normal" font-style="normal" fill="#000000" fill-opacity="1">256</text>
  <path d="M 581 9 L 581 441" fill="none" stroke-width="0.75" stroke="#000000" stroke-opacity="0.49804" stroke-linecap="butt" stroke-linejoin="round"/>
  <text x="572.5" y="453.7" font-family="Helvetica" font-size="10" font-weight="normal" font-style="normal" fill="#000000" fill-opacity="1">512</text>
  <path d="M 640 9 L 640 441" fill="none" stroke-width="0.75" stroke="#000000" stroke-opacity="0.49804" stroke-linecap="butt" stroke-linejoin="round"/>
  <text x="634.5" y="453.7" font-family="Helvetica" font-size="10" font-weight="normal" font-style="normal" fill="#000000" fill-opacity="1">1k</text>
  <path d="M 699 9 L 699 441" fill="none" stroke-width="0.75" stroke="#000000" stroke-opacity="0.49804" stroke-linecap="butt" stroke-linejoin="round"/>
  <text x="693.5" y="453.7" font-family="Helvetica" font-size="10" font-weight="normal" font-style="normal" fill="#000000" fill-opacity="1">2k</text>
  <path d="M 758 9 L 758 441" fill="none" stroke-width="0.75" stroke="#000000" stroke-opacity="0.49804" stroke-linecap="butt" stroke-linejoin="round"/>
  <text x="752.5" y="453.7" font-family="Helvetica" font-size="10" font-weight="normal" font-style="normal" fill="#000000" fill-opacity="1">4k</text>
  <path d="M 817 9 L 817 441" fill="none" stroke-width="0.75" stroke="#000000" stroke-opacity="0.49804" stroke-linecap="butt" stroke-linejoin="round"/>
  <text x="811.5" y="453.7" font-family="Helvetica" font-size="10" font-weight="normal" font-style="normal" fill="#000000" fill-opacity="1">8k</text>
  <path d="M 876 9 L 876 441" fill="none" stroke-width="0.75" stroke="#000000" stroke-opacity="0.49804" stroke-linecap="butt" stroke-linejoin="round"/>
  <text x="867.5" y="453.7" font-family="Helvetica" font-size="10" font-weight="normal" font-style="normal" fill="#000000" fill-opacity="1">16k</text>
  <path d="M 935 9 L 935 441" fill="none" stroke-width="0.75" stroke="#000000" stroke-opacity="0.49804" stroke-linecap="butt" stroke-linejoin="round"/>
  <text x="926.5" y="453.7" font-family="Helvetica" font-size="10" font-weight="normal" font-style="normal" fill="#000000" fill-opacity="1">32k</text>
  <path d="M 994 9 L 994 441" fill="none" stroke-width="0.75" stroke="#000000" stroke-opacity="0.49804" stroke-linecap="butt" stroke-linejoin="round"/>
  <text x="985.5" y="453.7" font-family="Helvetica" font-size="10" font-weight="normal" font-style="normal" fill="#000000" fill-opacity="1">64k</text>
  <path d="M 1053 9 L 1053 441" fill="none" stroke-width="0.75" stroke="#000000" stroke-opacity="0.49804" stroke-linecap="butt" stroke-linejoin="round"/>
  <text x="1042" y="453.7" font-family="Helvetica" font-size="10" font-weight="normal" font-style="normal" fill="#000000" fill-opacity="1">128k</text>
  <path d="M 1112 9 L 1112 441" fill="none" stroke-width="0.75" stroke="#000000" stroke-opacity="0.49804" stroke-linecap="butt" stroke-linejoin="round"/>
  <text x="1101" y="453.7" font-family="Helvetica" font-size="10" font-weight="normal" font-style="normal" fill="#000000" fill-opacity="1">256k</text>
  <path d="M 1171 9 L 1171 441" fill="none" stroke-width="0.75" stroke="#000000" stroke-opacity="0.49804" stroke-linecap="butt" stroke-linejoin="round"/>
  <text x="1160" y="453.7" font-family="Helvetica" font-size="10" font-weight="normal" font-style="normal" fill="#000000" fill-opacity="1">512k</text>
  <path d="M 1230 9 L 1230 441" fill="none" stroke-width="0.75" stroke="#000000" stroke-opacity="0.49804" stroke-linecap="butt" stroke-linejoin="round"/>
  <text x="1223" y="453.7" font-family="Helvetica" font-size="10" font-weight="normal" font-style="normal" fill="#000000" fill-opacity="1">1M</text>
  <path d="M 50 441 L 1230 441" fill="none" stroke-width="0.75" stroke="#000000" stroke-opacity="0.49804" stroke-linecap="butt" stroke-linejoin="round"/>
  <text x="16" y="442.7" font-family="Helvetica" font-size="10" font-weight="normal" font-style="normal" fill="#000000" fill-opacity="1">100 ps</text>
  <text x="1236" y="442.7" font-family="Helvetica" font-size="10" font-weight="normal" font-style="normal" fill="#000000" fill-opacity="1">100 ps</text>
  <path d="M 50 333 L 1230 333" fill="none" stroke-width="0.75" stroke="#000000" stroke-opacity="0.49804" stroke-linecap="butt" stroke-linejoin="round"/>
  <text x="27" y="334.7" font-family="Helvetica" font-size="10" font-weight="normal" font-style="normal" fill="#000000" fill-opacity="1">1 ns</text>
  <text x="1236" y="334.7" font-family="Helvetica" font-size="10" font-weight="normal" font-style="normal" fill="#000000" fill-opacity="1">1 ns</text>
  <path d="M 50 225 L 1230 225" fill="none" stroke-width="0.75" stroke="#000000" stroke-opacity="0.49804" stroke-linecap="butt" stroke-linejoin="round"/>
  <text x="21" y="226.7" font-family="Helvetica" font-size="10" font-weight="normal" font-style="normal" fill="#000000" fill-opacity="1">10 ns</text>
  <text x="1236" y="226.7" font-family="Helvetica" font-size="10" font-weight="normal" font-style="normal" fill="#000000" fill-opacity="1">10 ns</text>
  <path d="M 50 117 L 1230 117" fill="none" stroke-width="0.75" stroke="#000000" stroke-opacity="0.49804" stroke-linecap="butt" stroke-linejoin="round"/>
  <text x="16" y="118.7" font-family="Helvetica" font-size="10" font-weight="normal" font-style="normal" fill="#000000" fill-opacity="1">100 ns</text>
  <text x="1236" y="118.7" font-family="Helvetica" font-size="10" font-weight="normal" font-style="normal" fill="#000000" fill-opacity="1">100 ns</text>
  <path d="M 50 9 L 1230 9" fill="none" stroke-width="0.75" stroke="#000000" stroke-opacity="0.49804" stroke-linecap="butt" stroke-linejoin="round"/>
  <text x="26" y="10.7" font-family="Helvetica" font-size="10" font-weight="normal" font-style="normal" fill="#000000" fill-opacity="1">1 µs</text>
  <text x="1236" y="10.7" font-family="Helvetica" font-size="10" font-weight="normal" font-style="normal" fill="#000000" fill-opacity="1">1 µs</text>
  <path d="M 50 408.49 L 1230 408.49" fill="none" stroke-width="0.5" stroke="#000000" stroke-opacity="0.25882" stroke-linecap="butt" stroke-linejoin="round" stroke-dasharray="6 3" stroke-dashoffset="0"/>
  <path d="M 50 375.98 L 1230 375.98" fill="none" stroke-width="0.5" stroke="#000000" stroke-opacity="0.25882" stroke-linecap="butt" stroke-linejoin="round" stroke-dasharray="6 3" stroke-dashoffset="0"/>
  <path d="M 50 343.47 L 1230 343.47" fill="none" stroke-width="0.5" stroke="#000000" stroke-opacity="0.25882" stroke-linecap="butt" stroke-linejoin="round" stroke-dasharray="6 3" stroke-dashoffset="0"/>
  <path d="M 50 310.96 L 1230 310.96" fill="none" stroke-width="0.5" stroke="#000000" stroke-opacity="0.25882" stroke-linecap="butt" stroke-linejoin="round" stroke-dasharray="6 3" stroke-dashoffset="0"/>
  <path d="M 50 278.44 L 1230 278.44" fill="none" stroke-width="0.5" stroke="#000000" stroke-opacity="0.25882" stroke-linecap="butt" stroke-linejoin="round" stroke-dasharray="6 3" stroke-dashoffset="0"/>
  <path d="M 50 245.93 L 1230 245.93" fill="none" stroke-width="0.5" stroke="#000000" stroke-opacity="0.25882" stroke-linecap="butt" stroke-linejoin="round" stroke-dasharray="6 3" stroke-dashoffset="0"/>
  <path d="M 50 213.42 L 1230 213.42" fill="none" stroke-width="0.5" stroke="#000000" stroke-opacity="0.25882" stroke-linecap="butt" stroke-linejoin="round" stroke-dasharray="6 3" stroke-dashoffset="0"/>
  <path d="M 50 180.91 L 1230 180.91" fill="none" stroke-width="0.5" stroke="#000000" stroke-opacity="0.25882" stroke-linecap="butt" stroke-linejoin="round" stroke-dasharray="6 3" stroke-dashoffset="0"/>
  <path d="M 50 148.4 L 1230 148.4" fill="none" stroke-width="0.5" stroke="#000000" stroke-opacity="0.25882" stroke-linecap="butt" stroke-linejoin="round" stroke-dasharray="6 3" stroke-dashoffset="0"/>
  <path d="M 50 115.89 L 1230 115.89" fill="none" stroke-width="0.5" stroke="#000000" stroke-opacity="0.25882" stroke-linecap="butt" stroke-linejoin="round" stroke-dasharray="6 3" stroke-dashoffset="0"/>
  <path d="M 50 83.376 L 1230 83.376" fill="none" stroke-width="0.5" stroke="#000000" stroke-opacity="0.25882" stroke-linecap="butt" stroke-linejoin="round" stroke-dasharray="6 3" stroke-dashoffset="0"/>
  <path d="M 50 50.865 L 1230 50.865" fill="none" stroke-width="0.5" stroke="#000000" stroke-opacity="0.25882" stroke-linecap="butt" stroke-linejoin="round" stroke-dasharray="6 3" stroke-dashoffset="0"/>
  <path d="M 50 18.354 L 1230 18.354" fill="none" stroke-width="0.5" stroke="#000000" stroke-opacity="0.25882" stroke-linecap="butt" stroke-linejoin="round" stroke-dasharray="6 3" stroke-dashoffset="0"/>
  <path d="M 74 33 L 74 88 L 413 88 L 413 33 z" fill="#FFFFFF" fill-opacity="1.0" stroke="none"/>
  <clipPath id="clip-0">
    <path d="M 50 9 L 50 441 L 1230 441 L 1230 9 z"/>
  </clipPath>
  <g clip-path="url(#clip-0)">
    <path d="M 50 156.68L 109 189.19L 143.51 208.21L 168 223.84L 186.99 232.17L 202.51 240.72L 215.63 250.09L 227 223.27L 245.99 201.97L 261.51 241.22L 274.63 230.32L 286 236.58L 304.99 233.46L 320.51 223.09L 333.63 230.32L 345 218.13L 363.99 223.05L 379.51 223.09L 392.63 222.96L 404 217.84L 422.99 218.65L 438.51 211.36L 451.63 215.38L 463 210.45L 481.99 200.04L 497.51 140.75L 510.63 192.07L 522 170.97L 540.99 175.22L 556.51 145.99L 569.63 161.36L 581 153.08L 599.99 132.56L 615.51 134.14L 628.63 132.89L 640 131.91L 658.99 133.74L 674.51 132.09L 687.63 129.87L 699 127.33L 717.99 126.29L 733.51 124.12L 746.63 123.14L 758 120.66L 776.99 118.3L 792.51 115.75L 805.63 114.46L 817 112.18L 835.99 111.07L 851.51 109.32L 864.63 108.31L 876 100.54L 894.99 105.52L 910.51 102.78L 923.63 103.01L 935 88.822L 953.99 99.422L 969.51 93.22L 982.63 94.962L 994 86.304L 1013 89.521L 1028.5 85.689L 1041.6 87.802L 1053 81.045L 1072 81.673L 1087.5 65.002L 1100.6 74.643L 1112 65.319L 1131 63.834L 1146.5 58.27L 1159.6 60.569L 1171 47.073L 1190 54.465L 1205.5 34.024L 1218.6 35.571L 1230 15.673L 1230 25.072L 1218.6 46.008L 1205.5 50.684L 1190 54.926L 1171 51.466L 1159.6 61.045L 1146.5 63.664L 1131 63.842L 1112 71.647L 1100.6 78.522L 1087.5 75.603L 1072 81.679L 1053 81.301L 1041.6 87.996L 1028.5 85.885L 1013 90.125L 994 86.653L 982.63 96.638L 969.51 93.283L 953.99 99.525L 935 92.884L 923.63 103.07L 910.51 102.92L 894.99 105.82L 876 100.9L 864.63 108.61L 851.51 109.53L 835.99 111.57L 817 112.62L 805.63 115.15L 792.51 116.32L 776.99 118.64L 758 121.48L 746.63 123.22L 733.51 125.08L 717.99 127.65L 699 129.83L 687.63 131.67L 674.51 132.7L 658.99 133.83L 640 139.29L 628.63 141.48L 615.51 144.11L 599.99 150.37L 581 154.2L 569.63 162.45L 556.51 167.65L 540.99 180.35L 522 180.11L 510.63 197.31L 497.51 204.73L 481.99 210.77L 463 212.61L 451.63 215.38L 438.51 217.56L 422.99 218.65L 404 223.06L 392.63 223.11L 379.51 223.09L 363.99 223.05L 345 229.29L 333.63 230.32L 320.51 223.09L 304.99 233.46L 286 236.58L 274.63 230.32L 261.51 242.29L 245.99 233.74L 227 223.27L 215.63 250.09L 202.51 242.86L 186.99 234.31L 168 223.84L 143.51 210.35L 109 191.33L 50 158.82" fill="#007AFF" fill-opacity="0.30196078431372547" stroke="none"/>
    <path d="M 50 158.82L 109 191.33L 143.51 208.21L 168 221.7L 186.99 234.31L 202.51 241.73L 215.63 248.96L 227 255.22L 245.99 264.68L 261.51 274.24L 274.63 282.6L 286 286.72L 304.99 297.19L 320.51 305.74L 333.63 312.97L 345 321.38L 363.99 331.84L 379.51 338.25L 392.63 296.71L 404 303.33L 422.99 363.22L 438.51 371.77L 451.63 347.06L 463 353.32L 481.99 332.01L 497.51 353.13L 510.63 360.36L 522 366.62L 540.99 345.43L 556.51 346.58L 569.63 353.66L 581 353.82L 599.99 363.37L 615.51 366.62L 628.63 368.87L 640 366.62L 658.99 366.62L 674.51 366.62L 687.63 366.62L 699 361.4L 717.99 368.15L 733.51 367.96L 746.63 367.71L 758 367.62L 776.99 367.38L 792.51 366.68L 805.63 367.74L 817 367.17L 835.99 364.47L 851.51 364.5L 864.63 366.65L 876 363.91L 894.99 362.34L 910.51 358.83L 923.63 353.97L 935 354.53L 953.99 351.06L 969.51 349.1L 982.63 347.43L 994 341.61L 1013 344.6L 1028.5 343.9L 1041.6 343.11L 1053 342.62L 1072 341.25L 1087.5 341.51L 1100.6 340.58L 1112 336.22L 1131 337.74L 1146.5 338.75L 1159.6 338.89L 1171 336.87L 1190 338.18L 1205.5 336.06L 1218.6 338.51L 1230 337.6L 1230 339.25L 1218.6 339.29L 1205.5 339.18L 1190 339.09L 1171 339.84L 1159.6 340.12L 1146.5 340.06L 1131 340.6L 1112 340.09L 1100.6 341.01L 1087.5 341.6L 1072 341.99L 1053 342.76L 1041.6 343.28L 1028.5 343.95L 1013 345.01L 994 346.52L 982.63 347.61L 969.51 349.21L 953.99 351.33L 935 354.71L 923.63 356.27L 910.51 358.84L 894.99 362.69L 876 367.11L 864.63 367.18L 851.51 366.95L 835.99 367.41L 817 368.11L 805.63 367.76L 792.51 367.96L 776.99 367.42L 758 367.62L 746.63 367.76L 733.51 367.96L 717.99 368.23L 699 368.59L 687.63 366.62L 674.51 366.62L 658.99 366.62L 640 366.62L 628.63 368.87L 615.51 366.62L 599.99 363.64L 581 366.62L 569.63 368.99L 556.51 361.53L 540.99 363.5L 522 366.62L 510.63 360.36L 497.51 353.13L 481.99 363.78L 463 353.32L 451.63 347.06L 438.51 371.77L 422.99 363.22L 404 352.76L 392.63 347.62L 379.51 340.39L 363.99 331.84L 345 321.38L 333.63 315.11L 320.51 307.88L 304.99 299.33L 286 288.86L 274.63 282.6L 261.51 274.24L 245.99 266.82L 227 255.22L 215.63 248.96L 202.51 241.73L 186.99 234.31L 168 223.84L 143.51 210.35L 109 191.33L 50 158.82" fill="#FF3B30" fill-opacity="0.30196078431372547" stroke="none"/>
    <path d="M 50 158.25L 109 190.76L 143.51 209.78L 168 223.84L 186.99 233.74L 202.51 242.29L 215.63 250.09L 227 223.27L 245.99 223.16L 261.51 242.01L 274.63 230.32L 286 236.58L 304.99 233.46L 320.51 223.09L 333.63 230.32L 345 226.11L 363.99 223.05L 379.51 223.09L 392.63 223.07L 404 221.64L 422.99 218.65L 438.51 215.86L 451.63 215.38L 463 212.04L 481.99 207.72L 497.51 178.2L 510.63 195.89L 522 177.54L 540.99 178.95L 556.51 160.96L 569.63 162.16L 581 153.9L 599.99 145.03L 615.51 141.3L 628.63 139.08L 640 137.25L 658.99 133.8L 674.51 132.54L 687.63 131.19L 699 129.16L 717.99 127.29L 733.51 124.83L 746.63 123.2L 758 121.27L 776.99 118.55L 792.51 116.17L 805.63 114.97L 817 112.51L 835.99 111.44L 851.51 109.48L 864.63 108.53L 876 100.81L 894.99 105.74L 910.51 102.88L 923.63 103.05L 935 91.788L 953.99 99.498L 969.51 93.266L 982.63 96.194L 994 86.562L 1013 89.966L 1028.5 85.834L 1041.6 87.946L 1053 81.234L 1072 81.678L 1087.5 72.595L 1100.6 77.477L 1112 69.91L 1131 63.84L 1146.5 62.194L 1159.6 60.92L 1171 50.278L 1190 54.805L 1205.5 45.73L 1218.6 43.05L 1230 22.43" fill="none" stroke-width="4" stroke="#007AFF" stroke-opacity="1" stroke-linecap="round" stroke-linejoin="round"/>
    <path d="M 50 158.82L 109 191.33L 143.51 209.78L 168 223.27L 186.99 234.31L 202.51 241.73L 215.63 248.96L 227 255.22L 245.99 266.25L 261.51 274.24L 274.63 282.6L 286 288.3L 304.99 298.76L 320.51 307.31L 333.63 314.54L 345 321.38L 363.99 331.84L 379.51 339.82L 392.63 328.23L 404 334.11L 422.99 363.22L 438.51 371.77L 451.63 347.06L 463 353.32L 481.99 353.21L 497.51 353.13L 510.63 360.36L 522 366.62L 540.99 358.07L 556.51 357.14L 569.63 364.48L 581 362.93L 599.99 363.57L 615.51 366.62L 628.63 368.87L 640 366.62L 658.99 366.62L 674.51 366.62L 687.63 366.62L 699 366.6L 717.99 368.21L 733.51 367.96L 746.63 367.75L 758 367.62L 776.99 367.41L 792.51 367.62L 805.63 367.76L 817 367.87L 835.99 366.62L 851.51 366.3L 864.63 367.04L 876 366.26L 894.99 362.6L 910.51 358.84L 923.63 355.66L 935 354.67L 953.99 351.26L 969.51 349.18L 982.63 347.56L 994 345.19L 1013 344.9L 1028.5 343.94L 1041.6 343.23L 1053 342.72L 1072 341.8L 1087.5 341.58L 1100.6 340.9L 1112 339.05L 1131 339.83L 1146.5 339.71L 1159.6 339.8L 1171 339.04L 1190 338.85L 1205.5 338.34L 1218.6 339.09L 1230 338.81" fill="none" stroke-width="4" stroke="#FF3B30" stroke-opacity="1" stroke-linecap="round" stroke-linejoin="round"/>
    <path d="M 50 158.25L 109 190.76L 143.51 209.78L 168 223.84L 186.99 233.74L 202.51 242.29L 215.63 250.09L 227 223.27L 245.99 223.16L 261.51 242.01L 274.63 230.32L 286 236.58L 304.99 233.46L 320.51 223.09L 333.63 230.32L 345 226.11L 363.99 223.05L 379.51 223.09L 392.63 223.07L 404 221.64L 422.99 218.65L 438.51 215.86L 451.63 215.38L 463 212.04L 481.99 207.72L 497.51 178.2L 510.63 195.89L 522 177.54L 540.99 178.95L 556.51 160.96L 569.63 162.16L 581 153.9L 599.99 145.03L 615.51 141.3L 628.63 139.08L 640 137.25L 658.99 133.8L 674.51 132.54L 687.63 131.19L 699 129.16L 717.99 127.29L 733.51 124.83L 746.63 123.2L 758 121.27L 776.99 118.55L 792.51 116.17L 805.63 114.97L 817 112.51L 835.99 111.44L 851.51 109.48L 864.63 108.53L 876 100.81L 894.99 105.74L 910.51 102.88L 923.63 103.05L 935 91.788L 953.99 99.498L 969.51 93.266L 982.63 96.194L 994 86.562L 1013 89.966L 1028.5 85.834L 1041.6 87.946L 1053 81.234L 1072 81.678L 1087.5 72.595L 1100.6 77.477L 1112 69.91L 1131 63.84L 1146.5 62.194L 1159.6 60.92L 1171 50.278L 1190 54.805L 1205.5 45.73L 1218.6 43.05L 1230 22.43" fill="none" stroke-width="0.5" stroke="#000000" stroke-opacity="0.30196" stroke-linecap="round" stroke-linejoin="round"/>
    <path d="M 50 158.82L 109 191.33L 143.51 209.78L 168 223.27L 186.99 234.31L 202.51 241.73L 215.63 248.96L 227 255.22L 245.99 266.25L 261.51 274.24L 274.63 282.6L 286 288.3L 304.99 298.76L 320.51 307.31L 333.63 314.54L 345 321.38L 363.99 331.84L 379.51 339.82L 392.63 328.23L 404 334.11L 422.99 363.22L 438.51 371.77L 451.63 347.06L 463 353.32L 481.99 353.21L 497.51 353.13L 510.63 360.36L 522 366.62L 540.99 358.07L 556.51 357.14L 569.63 364.48L 581 362.93L 599.99 363.57L 615.51 366.62L 628.63 368.87L 640 366.62L 658.99 366.62L 674.51 366.62L 687.63 366.62L 699 366.6L 717.99 368.21L 733.51 367.96L 746.63 367.75L 758 367.62L 776.99 367.41L 792.51 367.62L 805.63 367.76L 817 367.87L 835.99 366.62L 851.51 366.3L 864.63 367.04L 876 366.26L 894.99 362.6L 910.51 358.84L 923.63 355.66L 935 354.67L 953.99 351.26L 969.51 349.18L 982.63 347.56L 994 345.19L 1013 344.9L 1028.5 343.94L 1041.6 343.23L 1053 342.72L 1072 341.8L 1087.5 341.58L 1100.6 340.9L 1112 339.05L 1131 339.83L 1146.5 339.71L 1159.6 339.8L 1171 339.04L 1190 338.85L 1205.5 338.34L 1218.6 339.09L 1230 338.81" fill="none" stroke-width="0.5" stroke="#000000" stroke-opacity="0.30196" stroke-linecap="round" stroke-linejoin="round"/>
  </g>
  <path d="M 74 33 L 74 88 L 413 88 L 413 33 z" fill="#FFFFFF" fill-opacity="0.7019607843137254" stroke-width="0.5" stroke="#000000" stroke-opacity="1" stroke-linecap="round" stroke-linejoin="round"/>
  <path d="M 88 52 L 108 52" fill="none" stroke-width="4" stroke="#FF3B30" stroke-opacity="1" stroke-linecap="round" stroke-linejoin="round"/>
  <path d="M 88 52 L 108 52" fill="none" stroke-width="0.5" stroke="#000000" stroke-opacity="0.30196" stroke-linecap="round" stroke-linejoin="round"/>
  <text x="119" y="56.17" font-family="Menlo" font-size="12" font-weight="normal" font-style="normal" fill="#000000" fill-opacity="1">Array&lt;Int&gt; mutate through subscript</text>
  <path d="M 88 69 L 108 69" fill="none" stroke-width="4" stroke="#007AFF" stroke-opacity="1" stroke-linecap="round" stroke-linejoin="round"/>
  <path d="M 88 69 L 108 69" fill="none" stroke-width="0.5" stroke="#000000" stroke-opacity="0.30196" stroke-linecap="round" stroke-linejoin="round"/>
  <text x="119" y="73.17" font-family="Menlo" font-size="12" font-weight="normal" font-style="normal" fill="#000000" fill-opacity="1">TreeArray&lt;Int&gt; mutate through subscript</text>
  <path d="M 50 9 L 50 441 L 1230 441 L 1230 9 z" fill="none" stroke-width="0.5" stroke="#000000" stroke-opacity="1" stroke-linecap="round" stroke-linejoin="round"/>
</svg>
