<!DOCTYPE svg PUBLIC "-//W3C//DTD SVG 1.1//EN" "http://www.w3.org/Graphics/SVG/1.1/DTD/svg11.dtd">
<svg width="1280.0px" height="480.0px" viewBox="0.0 0.0 1280.0 480.0" xmlns="http://www.w3.org/2000/svg" xmlns:xlink="http://www.w3.org/1999/xlink" version="1.1">
  <path d="M 0 0 L 0 480 L 1280 480 L 1280 0 z" fill="#FFFFFF" fill-opacity="1.0" stroke="none"/>
  <text x="50" y="468.7" font-family="Helvetica" font-size="10" font-weight="normal" font-style="normal" fill="#000000" fill-opacity="1">Average per-element processing time over input size (bands: min, mean, mean + 2stddev)</text>
  <a xlink:href="https://github.com/apple/swift-collections-benchmark"><text x="1107" y="468.7" font-family="Helvetica" font-size="10" font-weight="normal" font-style="normal" fill="#000000" fill-opacity="1">swift-collections-benchmark</text></a>
  <path d="M 50 9 L 50 441" fill="none" stroke-width="0.75" stroke="#000000" stroke-opacity="0.49804" stroke-linecap="butt" stroke-linejoin="round"/>
  <text x="47" y="453.7" font-family="Helvetica" font-size="10" font-weight="normal" font-style="normal" fill="#000000" fill-opacity="1">1</text>
  <path d="M 109 9 L 109 441" fill="none" stroke-width="0.75" stroke="#000000" stroke-opacity="0.49804" stroke-linecap="butt" stroke-linejoin="round"/>
  <text x="106" y="453.7" font-family="Helvetica" font-size="10" font-weight="normal" font-style="normal" fill="#000000" fill-opacity="1">2</text>
  <path d="M 168 9 L 168 441" fill="none" stroke-width="0.75" stroke="#000000" stroke-opacity="0.49804" stroke-linecap="butt" stroke-linejoin="round"/>
  <text x="165" y="453.7" font-family="Helvetica" font-size="10" font-weight="normal" font-style="normal" fill="#000000" fill-opacity="1">4</text>
  <path d="M 227 9 L 227 441" fill="none" stroke-width="0.75" stroke="#000000" stroke-opacity="0.49804" stroke-linecap="butt" stroke-linejoin="round"/>
  <text x="224" y="453.7" font-family="Helvetica" font-size="10" font-weight="normal" font-style="normal" fill="#000000" fill-opacity="1">8</text>
  <path d="M 286 9 L 286 441" fill="none" stroke-width="0.75" stroke="#000000" stroke-opacity="0.49804" stroke-linecap="butt" stroke-linejoin="round"/>
  <text x="280" y="453.7" font-family="Helvetica" font-size="10" font-weight="normal" font-style="normal" fill="#000000" fill-opacity="1">16</text>
  <path d="M 345 9 L 345 441" fill="none" stroke-width="0.75" stroke="#000000" stroke-opacity="0.49804" stroke-linecap="butt" stroke-linejoin="round"/>
  <text x="339" y="453.7" font-family="Helvetica" font-size="10" font-weight="normal" font-style="normal" fill="#000000" fill-opacity="1">32</text>
  <path d="M 404 9 L 404 441" fill="none" stroke-width="0.75" stroke="#000000" stroke-opacity="0.49804" stroke-linecap="butt" stroke-linejoin="round"/>
  <text x="398" y="453.7" font-family="Helvetica" font-size="10" font-weight="normal" font-style="normal" fill="#000000" fill-opacity="1">64</text>
  <path d="M 463 9 L 463 441" fill="none" stroke-width="0.75" stroke="#000000" stroke-opacity="0.49804" stroke-linecap="butt" stroke-linejoin="round"/>
  <text x="454.5" y="453.7" font-family="Helvetica" font-size="10" font-weight="normal" font-style="normal" fill="#000000" fill-opacity="1">128</text>
  <path d="M 522 9 L 522 441" fill="none" stroke-width="0.75" stroke="#000000" stroke-opacity="0.49804" stroke-linecap="butt" stroke-linejoin="round"/>
  <text x="513.5" y="453.7" font-family="Helvetica" font-size="10" font-weight="normal" font-style="normal" fill="#000000" fill-opacity="1">256</text>
  <path d="M 581 9 L 581 441" fill="none" stroke-width="0.75" stroke="#000000" stroke-opacity="0.49804" stroke-linecap="butt" stroke-linejoin="round"/>
  <text x="572.5" y="453.7" font-family="Helvetica" font-size="10" font-weight="normal" font-style="normal" fill="#000000" fill-opacity="1">512</text>
  <path d="M 640 9 L 640 441" fill="none" stroke-width="0.75" stroke="#000000" stroke-opacity="0.49804" stroke-linecap="butt" stroke-linejoin="round"/>
  <text x="634.5" y="453.7" font-family="Helvetica" font-size="10" font-weight="normal" font-style="normal" fill="#000000" fill-opacity="1">1k</text>
  <path d="M 699 9 L 699 441" fill="none" stroke-width="0.75" stroke="#000000" stroke-opacity="0.49804" stroke-linecap="butt" stroke-linejoin="round"/>
  <text x="693.5" y="453.7" font-family="Helvetica" font-size="10" font-weight="normal" font-style="normal" fill="#000000" fill-opacity="1">2k</text>
  <path d="M 758 9 L 758 441" fill="none" stroke-width="0.75" stroke="#000000" stroke-opacity="0.49804" stroke-linecap="butt" stroke-linejoin="round"/>
  <text x="752.5" y="453.7" font-family="Helvetica" font-size="10" font-weight="normal" font-style="normal" fill="#000000" fill-opacity="1">4k</text>
  <path d="M 817 9 L 817 441" fill="none" stroke-width="0.75" stroke="#000000" stroke-opacity="0.49804" stroke-linecap="butt" stroke-linejoin="round"/>
  <text x="811.5" y="453.7" font-family="Helvetica" font-size="10" font-weight="normal" font-style="normal" fill="#000000" fill-opacity="1">8k</text>
  <path d="M 876 9 L 876 441" fill="none" stroke-width="0.75" stroke="#000000" stroke-opacity="0.49804" stroke-linecap="butt" stroke-linejoin="round"/>
  <text x="867.5" y="453.7" font-family="Helvetica" font-size="10" font-weight="normal" font-style="normal" fill="#000000" fill-opacity="1">16k</text>
  <path d="M 935 9 L 935 441" fill="none" stroke-width="0.75" stroke="#000000" stroke-opacity="0.49804" stroke-linecap="butt" stroke-linejoin="round"/>
  <text x="926.5" y="453.7" font-family="Helvetica" font-size="10" font-weight="normal" font-style="normal" fill="#000000" fill-opacity="1">32k</text>
  <path d="M 994 9 L 994 441" fill="none" stroke-width="0.75" stroke="#000000" stroke-opacity="0.49804" stroke-linecap="butt" stroke-linejoin="round"/>
  <text x="985.5" y="453.7" font-family="Helvetica" font-size="10" font-weight="normal" font-style="normal" fill="#000000" fill-opacity="1">64k</text>
  <path d="M 1053 9 L 1053 441" fill="none" stroke-width="0.75" stroke="#000000" stroke-opacity="0.49804" stroke-linecap="butt" stroke-linejoin="round"/>
  <text x="1042" y="453.7" font-family="Helvetica" font-size="10" font-weight="normal" font-style="normal" fill="#000000" fill-opacity="1">128k</text>
  <path d="M 1112 9 L 1112 441" fill="none" stroke-width="0.75" stroke="#000000" stroke-opacity="0.49804" stroke-linecap="butt" stroke-linejoin="round"/>
  <text x="1101" y="453.7" font-family="Helvetica" font-size="10" font-weight="normal" font-style="normal" fill="#000000" fill-opacity="1">256k</text>
  <path d="M 1171 9 L 1171 441" fill="none" stroke-width="0.75" stroke="#000000" stroke-opacity="0.49804" stroke-linecap="butt" stroke-linejoin="round"/>
  <text x="1160" y="453.7" font-family="Helvetica" font-size="10" font-weight="normal" font-style="normal" fill="#000000" fill-opacity="1">512k</text>
  <path d="M 1230 9 L 1230 441" fill="none" stroke-width="0.75" stroke="#000000" stroke-opacity="0.49804" stroke-linecap="butt" stroke-linejoin="round"/>
  <text x="1223" y="453.7" font-family="Helvetica" font-size="10" font-weight="normal" font-style="normal" fill="#000000" fill-opacity="1">1M</text>
  <path d="M 50 441 L 1230 441" fill="none" stroke-width="0.75" stroke="#000000" stroke-opacity="0.49804" stroke-linecap="butt" stroke-linejoin="round"/>
  <text x="16" y="442.7" font-family="Helvetica" font-size="10" font-weight="normal" font-style="normal" fill="#000000" fill-opacity="1">100 ps</text>
  <text x="1236" y="442.7" font-family="Helvetica" font-size="10" font-weight="normal" font-style="normal" fill="#000000" fill-opacity="1">100 ps</text>
  <path d="M 50 333 L 1230 333" fill="none" stroke-width="0.75" stroke="#000000" stroke-opacity="0.49804" stroke-linecap="butt" stroke-linejoin="round"/>
  <text x="27" y="334.7" font-family="Helvetica" font-size="10" font-weight="normal" font-style="normal" fill="#000000" fill-opacity="1">1 ns</text>
  <text x="1236" y="334.7" font-family="Helvetica" font-size="10" font-weight="normal" font-style="normal" fill="#000000" fill-opacity="1">1 ns</text>
  <path d="M 50 225 L 1230 225" fill="none" stroke-width="0.75" stroke="#000000" stroke-opacity="0.49804" stroke-linecap="butt" stroke-linejoin="round"/>
  <text x="21" y="226.7" font-family="Helvetica" font-size="10" font-weight="normal" font-style="normal" fill="#000000" fill-opacity="1">10 ns</text>
  <text x="1236" y="226.7" font-family="Helvetica" font-size="10" font-weight="normal" font-style="normal" fill="#000000" fill-opacity="1">10 ns</text>
  <path d="M 50 117 L 1230 117" fill="none" stroke-width="0.75" stroke="#000000" stroke-opacity="0.49804" stroke-linecap="butt" stroke-linejoin="round"/>
  <text x="16" y="118.7" font-family="Helvetica" font-size="10" font-weight="normal" font-style="normal" fill="#000000" fill-opacity="1">100 ns</text>
  <text x="1236" y="118.7" font-family="Helvetica" font-size="10" font-weight="normal" font-style="normal" fill="#000000" fill-opacity="1">100 ns</text>
  <path d="M 50 9 L 1230 9" fill="none" stroke-width="0.75" stroke="#000000" stroke-opacity="0.49804" stroke-linecap="butt" stroke-linejoin="round"/>
  <text x="26" y="10.7" font-family="Helvetica" font-size="10" font-weight="normal" font-style="normal" fill="#000000" fill-opacity="1">1 µs</text>
  <text x="1236" y="10.7" font-family="Helvetica" font-size="10" font-weight="normal" font-style="normal" fill="#000000" fill-opacity="1">1 µs</text>
  <path d="M 50 408.49 L 1230 408.49" fill="none" stroke-width="0.5" stroke="#000000" stroke-opacity="0.25882" stroke-linecap="butt" stroke-linejoin="round" stroke-dasharray="6 3" stroke-dashoffset="0"/>
  <path d="M 50 375.98 L 1230 375.98" fill="none" stroke-width="0.5" stroke="#000000" stroke-opacity="0.25882" stroke-linecap="butt" stroke-linejoin="round" stroke-dasharray="6 3" stroke-dashoffset="0"/>
  <path d="M 50 343.47 L 1230 343.47" fill="none" stroke-width="0.5" stroke="#000000" stroke-opacity="0.25882" stroke-linecap="butt" stroke-linejoin="round" stroke-dasharray="6 3" stroke-dashoffset="0"/>
  <path d="M 50 310.96 L 1230 310.96" fill="none" stroke-width="0.5" stroke="#000000" stroke-opacity="0.25882" stroke-linecap="butt" stroke-linejoin="round" stroke-dasharray="6 3" stroke-dashoffset="0"/>
  <path d="M 50 278.44 L 1230 278.44" fill="none" stroke-width="0.5" stroke="#000000" stroke-opacity="0.25882" stroke-linecap="butt" stroke-linejoin="round" stroke-dasharray="6 3" stroke-dashoffset="0"/>
  <path d="M 50 245.93 L 1230 245.93" fill="none" stroke-width="0.5" stroke="#000000" stroke-opacity="0.25882" stroke-linecap="butt" stroke-linejoin="round" stroke-dasharray="6 3" stroke-dashoffset="0"/>
  <path d="M 50 213.42 L 1230 213.42" fill="none" stroke-width="0.5" stroke="#000000" stroke-opacity="0.25882" stroke-linecap="butt" stroke-linejoin="round" stroke-dasharray="6 3" stroke-dashoffset="0"/>
  <path d="M 50 180.91 L 1230 180.91" fill="none" stroke-width="0.5" stroke="#000000" stroke-opacity="0.25882" stroke-linecap="butt" stroke-linejoin="round" stroke-dasharray="6 3" stroke-dashoffset="0"/>
  <path d="M 50 148.4 L 1230 148.4" fill="none" stroke-width="0.5" stroke="#000000" stroke-opacity="0.25882" stroke-linecap="butt" stroke-linejoin="round" stroke-dasharray="6 3" stroke-dashoffset="0"/>
  <path d="M 50 115.89 L 1230 115.89" fill="none" stroke-width="0.5" stroke="#000000" stroke-opacity="0.25882" stroke-linecap="butt" stroke-linejoin="round" stroke-dasharray="6 3" stroke-dashoffset="0"/>
  <path d="M 50 83.376 L 1230 83.376" fill="none" stroke-width="0.5" stroke="#000000" stroke-opacity="0.25882" stroke-linecap="butt" stroke-linejoin="round" stroke-dasharray="6 3" stroke-dashoffset="0"/>
  <path d="M 50 50.865 L 1230 50.865" fill="none" stroke-width="0.5" stroke="#000000" stroke-opacity="0.25882" stroke-linecap="butt" stroke-linejoin="round" stroke-dasharray="6 3" stroke-dashoffset="0"/>
  <path d="M 50 18.354 L 1230 18.354" fill="none" stroke-width="0.5" stroke="#000000" stroke-opacity="0.25882" stroke-linecap="butt" stroke-linejoin="round" stroke-dasharray="6 3" stroke-dashoffset="0"/>
  <path d="M 74 33 L 74 88 L 413 88 L 413 33 z" fill="#FFFFFF" fill-opacity="1.0" stroke="none"/>
  <clipPath id="clip-0">
    <path d="M 50 9 L 50 441 L 1230 441 L 1230 9 z"/>
  </clipPath>
  <g clip-path="url(#clip-0)">
    <path d="M 50 157.69L 109 190.2L 143.51 210.35L 168 221.7L 186.99 233.18L 202.51 192.3L 215.63 199.53L 227 223.27L 245.99 201.97L 261.51 223.09L 274.63 216.47L 286 204.75L 304.99 201.46L 320.51 209.64L 333.63 194.73L 345 204.49L 363.99 189.11L 379.51 201.73L 392.63 202.05L 404 173.61L 422.99 202.52L 438.51 196.91L 451.63 180.55L 463 180.13L 481.99 184.84L 497.51 172.58L 510.63 167.01L 522 174.96L 540.99 166.76L 556.51 155.78L 569.63 152.39L 581 153.95L 599.99 142.49L 615.51 142L 628.63 138.18L 640 133.89L 658.99 133.22L 674.51 127.35L 687.63 130.96L 699 124.26L 717.99 126.49L 733.51 120.52L 746.63 119.54L 758 117.48L 776.99 115.99L 792.51 113.27L 805.63 110.24L 817 110.66L 835.99 106.45L 851.51 106.48L 864.63 104.72L 876 101.65L 894.99 100.19L 910.51 100.31L 923.63 95.873L 935 96.022L 953.99 95.142L 969.51 93.719L 982.63 91.429L 994 88.494L 1013 87.948L 1028.5 85.509L 1041.6 85.208L 1053 81.79L 1072 78.287L 1087.5 77.585L 1100.6 73.411L 1112 68.38L 1131 65.854L 1146.5 60.668L 1159.6 57.938L 1171 55.142L 1190 48.114L 1205.5 44.23L 1218.6 42.614L 1230 39.088L 1230 39.708L 1218.6 42.758L 1205.5 46.595L 1190 51.491L 1171 55.813L 1159.6 58.837L 1146.5 62.409L 1131 66.711L 1112 72.142L 1100.6 74.132L 1087.5 78.012L 1072 81.411L 1053 84.014L 1041.6 85.363L 1028.5 87.358L 1013 88.641L 994 90.16L 982.63 91.598L 969.51 94.103L 953.99 95.517L 935 96.984L 923.63 99.034L 910.51 100.36L 894.99 103.06L 876 105.02L 864.63 106.04L 851.51 107.67L 835.99 109.99L 817 111.52L 805.63 113.26L 792.51 115.8L 776.99 117.23L 758 121.67L 746.63 121.43L 733.51 125.25L 717.99 127.73L 699 130.02L 687.63 132.51L 674.51 131.97L 658.99 134.18L 640 138.74L 628.63 140.53L 615.51 143.35L 599.99 146.15L 581 154.11L 569.63 160.1L 556.51 163.77L 540.99 167.44L 522 177.54L 510.63 179.11L 497.51 181.7L 481.99 192.37L 463 196.01L 451.63 192.28L 438.51 199.12L 422.99 202.52L 404 206.03L 392.63 206.37L 379.51 206.77L 363.99 210.75L 345 212.58L 333.63 211.3L 320.51 209.64L 304.99 214.53L 286 223.27L 274.63 217.01L 261.51 223.09L 245.99 233.74L 227 223.27L 215.63 248.96L 202.51 241.73L 186.99 233.18L 168 223.84L 143.51 210.35L 109 190.2L 50 157.69" fill="#007AFF" fill-opacity="0.30196078431372547" stroke="none"/>
    <path d="M 50 158.82L 109 189.19L 143.51 210.35L 168 222.71L 186.99 234.31L 202.51 240.72L 215.63 247.95L 227 254.21L 245.99 265.69L 261.51 273.23L 274.63 282.6L 286 286.72L 304.99 298.2L 320.51 306.75L 333.63 312.97L 345 321.38L 363.99 330.71L 379.51 338.25L 392.63 345.48L 404 353.89L 422.99 362.21L 438.51 338.76L 451.63 315.29L 463 353.32L 481.99 332.01L 497.51 372.34L 510.63 360.36L 522 343.77L 540.99 363.25L 556.51 361.76L 569.63 353.66L 581 366.62L 599.99 363.64L 615.51 361.76L 628.63 364.48L 640 366.62L 658.99 366.62L 674.51 366.62L 687.63 364.48L 699 368.59L 717.99 363.77L 733.51 365.44L 746.63 367.71L 758 365.75L 776.99 367.38L 792.51 366.65L 805.63 367.16L 817 368.11L 835.99 364.81L 851.51 367.27L 864.63 362.06L 876 366.18L 894.99 362.72L 910.51 357.41L 923.63 356.29L 935 354.07L 953.99 348.01L 969.51 349.09L 982.63 347.39L 994 346.18L 1013 344.98L 1028.5 342.26L 1041.6 341.8L 1053 341.9L 1072 341.76L 1087.5 341.5L 1100.6 339.46L 1112 340.21L 1131 339.08L 1146.5 334.72L 1159.6 335.95L 1171 338.6L 1190 337.46L 1205.5 338.51L 1218.6 339.15L 1230 339.16L 1230 339.23L 1218.6 339.38L 1205.5 339.29L 1190 339.41L 1171 339.15L 1159.6 338.99L 1146.5 340.11L 1131 340.49L 1112 340.95L 1100.6 341.29L 1087.5 341.61L 1072 342.1L 1053 342.74L 1041.6 343.32L 1028.5 344.1L 1013 345.04L 994 346.56L 982.63 347.65L 969.51 349.09L 953.99 351.26L 935 354.43L 923.63 356.72L 910.51 358.98L 894.99 363.42L 876 367.11L 864.63 367.18L 851.51 367.28L 835.99 367.02L 817 368.11L 805.63 367.19L 792.51 367.96L 776.99 367.42L 758 367.6L 746.63 367.76L 733.51 367.96L 717.99 366.62L 699 368.59L 687.63 364.48L 674.51 366.62L 658.99 366.62L 640 366.62L 628.63 364.48L 615.51 361.76L 599.99 363.64L 581 366.62L 569.63 368.99L 556.51 361.76L 540.99 363.78L 522 366.62L 510.63 360.36L 497.51 372.34L 481.99 363.78L 463 353.32L 451.63 347.06L 438.51 339.82L 422.99 364.35L 404 353.89L 392.63 347.62L 379.51 340.39L 363.99 330.71L 345 321.38L 333.63 315.11L 320.51 306.75L 304.99 298.2L 286 288.86L 274.63 282.6L 261.51 275.37L 245.99 265.69L 227 256.35L 215.63 250.09L 202.51 242.86L 186.99 234.31L 168 222.71L 143.51 210.35L 109 191.33L 50 158.82" fill="#FF3B30" fill-opacity="0.30196078431372547" stroke="none"/>
    <path d="M 50 157.69L 109 190.2L 143.51 210.35L 168 223.27L 186.99 233.18L 202.51 223.09L 215.63 230.32L 227 223.27L 245.99 223.16L 261.51 223.09L 274.63 216.87L 286 217.69L 304.99 210.75L 320.51 209.64L 333.63 206.37L 345 210.33L 363.99 204.07L 379.51 205.4L 392.63 205.21L 404 195.18L 422.99 202.52L 438.51 198.53L 451.63 188.92L 463 191.31L 481.99 190.28L 497.51 179.14L 510.63 175.63L 522 176.85L 540.99 167.26L 556.51 161.55L 569.63 157.96L 581 154.07L 599.99 145.17L 615.51 142.99L 628.63 139.91L 640 137.42L 658.99 133.92L 674.51 130.72L 687.63 132.1L 699 128.44L 717.99 127.4L 733.51 123.97L 746.63 120.93L 758 120.54L 776.99 116.9L 792.51 115.12L 805.63 112.45L 817 111.29L 835.99 109.04L 851.51 107.35L 864.63 105.69L 876 104.12L 894.99 102.29L 910.51 100.34L 923.63 98.187L 935 96.731L 953.99 95.419L 969.51 94.003L 982.63 91.554L 994 89.719L 1013 88.459L 1028.5 86.868L 1041.6 85.323L 1053 83.423L 1072 80.575L 1087.5 77.9L 1100.6 73.942L 1112 71.13L 1131 66.486L 1146.5 61.948L 1159.6 58.601L 1171 55.637L 1190 50.585L 1205.5 45.965L 1218.6 42.721L 1230 39.545" fill="none" stroke-width="4" stroke="#007AFF" stroke-opacity="1" stroke-linecap="round" stroke-linejoin="round"/>
    <path d="M 50 158.82L 109 190.76L 143.51 210.35L 168 222.71L 186.99 234.31L 202.51 242.29L 215.63 249.52L 227 255.78L 245.99 265.69L 261.51 274.8L 274.63 282.6L 286 288.3L 304.99 298.2L 320.51 306.75L 333.63 314.54L 345 321.38L 363.99 330.71L 379.51 339.82L 392.63 347.06L 404 353.89L 422.99 363.78L 438.51 339.54L 451.63 336.48L 463 353.32L 481.99 353.21L 497.51 372.34L 510.63 360.36L 522 359.5L 540.99 363.64L 556.51 361.76L 569.63 364.48L 581 366.62L 599.99 363.64L 615.51 361.76L 628.63 364.48L 640 366.62L 658.99 366.62L 674.51 366.62L 687.63 364.48L 699 368.59L 717.99 365.86L 733.51 367.28L 746.63 367.75L 758 367.11L 776.99 367.41L 792.51 367.61L 805.63 367.18L 817 368.11L 835.99 366.43L 851.51 367.28L 864.63 365.79L 876 366.87L 894.99 363.23L 910.51 358.56L 923.63 356.61L 935 354.34L 953.99 350.39L 969.51 349.09L 982.63 347.58L 994 346.46L 1013 345.02L 1028.5 343.61L 1041.6 342.92L 1053 342.52L 1072 342.01L 1087.5 341.58L 1100.6 340.81L 1112 340.75L 1131 340.12L 1146.5 338.64L 1159.6 338.17L 1171 339L 1190 338.89L 1205.5 339.09L 1218.6 339.32L 1230 339.21" fill="none" stroke-width="4" stroke="#FF3B30" stroke-opacity="1" stroke-linecap="round" stroke-linejoin="round"/>
    <path d="M 50 157.69L 109 190.2L 143.51 210.35L 168 223.27L 186.99 233.18L 202.51 223.09L 215.63 230.32L 227 223.27L 245.99 223.16L 261.51 223.09L 274.63 216.87L 286 217.69L 304.99 210.75L 320.51 209.64L 333.63 206.37L 345 210.33L 363.99 204.07L 379.51 205.4L 392.63 205.21L 404 195.18L 422.99 202.52L 438.51 198.53L 451.63 188.92L 463 191.31L 481.99 190.28L 497.51 179.14L 510.63 175.63L 522 176.85L 540.99 167.26L 556.51 161.55L 569.63 157.96L 581 154.07L 599.99 145.17L 615.51 142.99L 628.63 139.91L 640 137.42L 658.99 133.92L 674.51 130.72L 687.63 132.1L 699 128.44L 717.99 127.4L 733.51 123.97L 746.63 120.93L 758 120.54L 776.99 116.9L 792.51 115.12L 805.63 112.45L 817 111.29L 835.99 109.04L 851.51 107.35L 864.63 105.69L 876 104.12L 894.99 102.29L 910.51 100.34L 923.63 98.187L 935 96.731L 953.99 95.419L 969.51 94.003L 982.63 91.554L 994 89.719L 1013 88.459L 1028.5 86.868L 1041.6 85.323L 1053 83.423L 1072 80.575L 1087.5 77.9L 1100.6 73.942L 1112 71.13L 1131 66.486L 1146.5 61.948L 1159.6 58.601L 1171 55.637L 1190 50.585L 1205.5 45.965L 1218.6 42.721L 1230 39.545" fill="none" stroke-width="0.5" stroke="#000000" stroke-opacity="0.30196" stroke-linecap="round" stroke-linejoin="round"/>
    <path d="M 50 158.82L 109 190.76L 143.51 210.35L 168 222.71L 186.99 234.31L 202.51 242.29L 215.63 249.52L 227 255.78L 245.99 265.69L 261.51 274.8L 274.63 282.6L 286 288.3L 304.99 298.2L 320.51 306.75L 333.63 314.54L 345 321.38L 363.99 330.71L 379.51 339.82L 392.63 347.06L 404 353.89L 422.99 363.78L 438.51 339.54L 451.63 336.48L 463 353.32L 481.99 353.21L 497.51 372.34L 510.63 360.36L 522 359.5L 540.99 363.64L 556.51 361.76L 569.63 364.48L 581 366.62L 599.99 363.64L 615.51 361.76L 628.63 364.48L 640 366.62L 658.99 366.62L 674.51 366.62L 687.63 364.48L 699 368.59L 717.99 365.86L 733.51 367.28L 746.63 367.75L 758 367.11L 776.99 367.41L 792.51 367.61L 805.63 367.18L 817 368.11L 835.99 366.43L 851.51 367.28L 864.63 365.79L 876 366.87L 894.99 363.23L 910.51 358.56L 923.63 356.61L 935 354.34L 953.99 350.39L 969.51 349.09L 982.63 347.58L 994 346.46L 1013 345.02L 1028.5 343.61L 1041.6 342.92L 1053 342.52L 1072 342.01L 1087.5 341.58L 1100.6 340.81L 1112 340.75L 1131 340.12L 1146.5 338.64L 1159.6 338.17L 1171 339L 1190 338.89L 1205.5 339.09L 1218.6 339.32L 1230 339.21" fill="none" stroke-width="0.5" stroke="#000000" stroke-opacity="0.30196" stroke-linecap="round" stroke-linejoin="round"/>
  </g>
  <path d="M 74 33 L 74 88 L 413 88 L 413 33 z" fill="#FFFFFF" fill-opacity="0.7019607843137254" stroke-width="0.5" stroke="#000000" stroke-opacity="1" stroke-linecap="round" stroke-linejoin="round"/>
  <path d="M 88 52 L 108 52" fill="none" stroke-width="4" stroke="#FF3B30" stroke-opacity="1" stroke-linecap="round" stroke-linejoin="round"/>
  <path d="M 88 52 L 108 52" fill="none" stroke-width="0.5" stroke="#000000" stroke-opacity="0.30196" stroke-linecap="round" stroke-linejoin="round"/>
  <text x="119" y="56.17" font-family="Menlo" font-size="12" font-weight="normal" font-style="normal" fill="#000000" fill-opacity="1">Array&lt;Int&gt; mutate through subscript</text>
  <path d="M 88 69 L 108 69" fill="none" stroke-width="4" stroke="#007AFF" stroke-opacity="1" stroke-linecap="round" stroke-linejoin="round"/>
  <path d="M 88 69 L 108 69" fill="none" stroke-width="0.5" stroke="#000000" stroke-opacity="0.30196" stroke-linecap="round" stroke-linejoin="round"/>
  <text x="119" y="73.17" font-family="Menlo" font-size="12" font-weight="normal" font-style="normal" fill="#000000" fill-opacity="1">TreeArray&lt;Int&gt; mutate through subscript</text>
  <path d="M 50 9 L 50 441 L 1230 441 L 1230 9 z" fill="none" stroke-width="0.5" stroke="#000000" stroke-opacity="1" stroke-linecap="round" stroke-linejoin="round"/>
</svg>
