<!DOCTYPE svg PUBLIC "-//W3C//DTD SVG 1.1//EN" "http://www.w3.org/Graphics/SVG/1.1/DTD/svg11.dtd">
<svg width="1280.0px" height="480.0px" viewBox="0.0 0.0 1280.0 480.0" xmlns="http://www.w3.org/2000/svg" xmlns:xlink="http://www.w3.org/1999/xlink" version="1.1">
  <path d="M 0 0 L 0 480 L 1280 480 L 1280 0 z" fill="#FFFFFF" fill-opacity="1.0" stroke="none"/>
  <text x="50" y="468.7" font-family="Helvetica" font-size="10" font-weight="normal" font-style="normal" fill="#000000" fill-opacity="1">Average per-element processing time over input size (bands: min, mean, mean + 2stddev)</text>
  <a xlink:href="https://github.com/apple/swift-collections-benchmark"><text x="1107" y="468.7" font-family="Helvetica" font-size="10" font-weight="normal" font-style="normal" fill="#000000" fill-opacity="1">swift-collections-benchmark</text></a>
  <path d="M 50 9 L 50 441" fill="none" stroke-width="0.75" stroke="#000000" stroke-opacity="0.49804" stroke-linecap="butt" stroke-linejoin="round"/>
  <text x="47" y="453.7" font-family="Helvetica" font-size="10" font-weight="normal" font-style="normal" fill="#000000" fill-opacity="1">1</text>
  <path d="M 109 9 L 109 441" fill="none" stroke-width="0.75" stroke="#000000" stroke-opacity="0.49804" stroke-linecap="butt" stroke-linejoin="round"/>
  <text x="106" y="453.7" font-family="Helvetica" font-size="10" font-weight="normal" font-style="normal" fill="#000000" fill-opacity="1">2</text>
  <path d="M 168 9 L 168 441" fill="none" stroke-width="0.75" stroke="#000000" stroke-opacity="0.49804" stroke-linecap="butt" stroke-linejoin="round"/>
  <text x="165" y="453.7" font-family="Helvetica" font-size="10" font-weight="normal" font-style="normal" fill="#000000" fill-opacity="1">4</text>
  <path d="M 227 9 L 227 441" fill="none" stroke-width="0.75" stroke="#000000" stroke-opacity="0.49804" stroke-linecap="butt" stroke-linejoin="round"/>
  <text x="224" y="453.7" font-family="Helvetica" font-size="10" font-weight="normal" font-style="normal" fill="#000000" fill-opacity="1">8</text>
  <path d="M 286 9 L 286 441" fill="none" stroke-width="0.75" stroke="#000000" stroke-opacity="0.49804" stroke-linecap="butt" stroke-linejoin="round"/>
  <text x="280" y="453.7" font-family="Helvetica" font-size="10" font-weight="normal" font-style="normal" fill="#000000" fill-opacity="1">16</text>
  <path d="M 345 9 L 345 441" fill="none" stroke-width="0.75" stroke="#000000" stroke-opacity="0.49804" stroke-linecap="butt" stroke-linejoin="round"/>
  <text x="339" y="453.7" font-family="Helvetica" font-size="10" font-weight="normal" font-style="normal" fill="#000000" fill-opacity="1">32</text>
  <path d="M 404 9 L 404 441" fill="none" stroke-width="0.75" stroke="#000000" stroke-opacity="0.49804" stroke-linecap="butt" stroke-linejoin="round"/>
  <text x="398" y="453.7" font-family="Helvetica" font-size="10" font-weight="normal" font-style="normal" fill="#000000" fill-opacity="1">64</text>
  <path d="M 463 9 L 463 441" fill="none" stroke-width="0.75" stroke="#000000" stroke-opacity="0.49804" stroke-linecap="butt" stroke-linejoin="round"/>
  <text x="454.5" y="453.7" font-family="Helvetica" font-size="10" font-weight="normal" font-style="normal" fill="#000000" fill-opacity="1">128</text>
  <path d="M 522 9 L 522 441" fill="none" stroke-width="0.75" stroke="#000000" stroke-opacity="0.49804" stroke-linecap="butt" stroke-linejoin="round"/>
  <text x="513.5" y="453.7" font-family="Helvetica" font-size="10" font-weight="normal" font-style="normal" fill="#000000" fill-opacity="1">256</text>
  <path d="M 581 9 L 581 441" fill="none" stroke-width="0.75" stroke="#000000" stroke-opacity="0.49804" stroke-linecap="butt" stroke-linejoin="round"/>
  <text x="572.5" y="453.7" font-family="Helvetica" font-size="10" font-weight="normal" font-style="normal" fill="#000000" fill-opacity="1">512</text>
  <path d="M 640 9 L 640 441" fill="none" stroke-width="0.75" stroke="#000000" stroke-opacity="0.49804" stroke-linecap="butt" stroke-linejoin="round"/>
  <text x="634.5" y="453.7" font-family="Helvetica" font-size="10" font-weight="normal" font-style="normal" fill="#000000" fill-opacity="1">1k</text>
  <path d="M 699 9 L 699 441" fill="none" stroke-width="0.75" stroke="#000000" stroke-opacity="0.49804" stroke-linecap="butt" stroke-linejoin="round"/>
  <text x="693.5" y="453.7" font-family="Helvetica" font-size="10" font-weight="normal" font-style="normal" fill="#000000" fill-opacity="1">2k</text>
  <path d="M 758 9 L 758 441" fill="none" stroke-width="0.75" stroke="#000000" stroke-opacity="0.49804" stroke-linecap="butt" stroke-linejoin="round"/>
  <text x="752.5" y="453.7" font-family="Helvetica" font-size="10" font-weight="normal" font-style="normal" fill="#000000" fill-opacity="1">4k</text>
  <path d="M 817 9 L 817 441" fill="none" stroke-width="0.75" stroke="#000000" stroke-opacity="0.49804" stroke-linecap="butt" stroke-linejoin="round"/>
  <text x="811.5" y="453.7" font-family="Helvetica" font-size="10" font-weight="normal" font-style="normal" fill="#000000" fill-opacity="1">8k</text>
  <path d="M 876 9 L 876 441" fill="none" stroke-width="0.75" stroke="#000000" stroke-opacity="0.49804" stroke-linecap="butt" stroke-linejoin="round"/>
  <text x="867.5" y="453.7" font-family="Helvetica" font-size="10" font-weight="normal" font-style="normal" fill="#000000" fill-opacity="1">16k</text>
  <path d="M 935 9 L 935 441" fill="none" stroke-width="0.75" stroke="#000000" stroke-opacity="0.49804" stroke-linecap="butt" stroke-linejoin="round"/>
  <text x="926.5" y="453.7" font-family="Helvetica" font-size="10" font-weight="normal" font-style="normal" fill="#000000" fill-opacity="1">32k</text>
  <path d="M 994 9 L 994 441" fill="none" stroke-width="0.75" stroke="#000000" stroke-opacity="0.49804" stroke-linecap="butt" stroke-linejoin="round"/>
  <text x="985.5" y="453.7" font-family="Helvetica" font-size="10" font-weight="normal" font-style="normal" fill="#000000" fill-opacity="1">64k</text>
  <path d="M 1053 9 L 1053 441" fill="none" stroke-width="0.75" stroke="#000000" stroke-opacity="0.49804" stroke-linecap="butt" stroke-linejoin="round"/>
  <text x="1042" y="453.7" font-family="Helvetica" font-size="10" font-weight="normal" font-style="normal" fill="#000000" fill-opacity="1">128k</text>
  <path d="M 1112 9 L 1112 441" fill="none" stroke-width="0.75" stroke="#000000" stroke-opacity="0.49804" stroke-linecap="butt" stroke-linejoin="round"/>
  <text x="1101" y="453.7" font-family="Helvetica" font-size="10" font-weight="normal" font-style="normal" fill="#000000" fill-opacity="1">256k</text>
  <path d="M 1171 9 L 1171 441" fill="none" stroke-width="0.75" stroke="#000000" stroke-opacity="0.49804" stroke-linecap="butt" stroke-linejoin="round"/>
  <text x="1160" y="453.7" font-family="Helvetica" font-size="10" font-weight="normal" font-style="normal" fill="#000000" fill-opacity="1">512k</text>
  <path d="M 1230 9 L 1230 441" fill="none" stroke-width="0.75" stroke="#000000" stroke-opacity="0.49804" stroke-linecap="butt" stroke-linejoin="round"/>
  <text x="1223" y="453.7" font-family="Helvetica" font-size="10" font-weight="normal" font-style="normal" fill="#000000" fill-opacity="1">1M</text>
  <path d="M 50 441 L 1230 441" fill="none" stroke-width="0.75" stroke="#000000" stroke-opacity="0.49804" stroke-linecap="butt" stroke-linejoin="round"/>
  <text x="16" y="442.7" font-family="Helvetica" font-size="10" font-weight="normal" font-style="normal" fill="#000000" fill-opacity="1">100 ps</text>
  <text x="1236" y="442.7" font-family="Helvetica" font-size="10" font-weight="normal" font-style="normal" fill="#000000" fill-opacity="1">100 ps</text>
  <path d="M 50 333 L 1230 333" fill="none" stroke-width="0.75" stroke="#000000" stroke-opacity="0.49804" stroke-linecap="butt" stroke-linejoin="round"/>
  <text x="27" y="334.7" font-family="Helvetica" font-size="10" font-weight="normal" font-style="normal" fill="#000000" fill-opacity="1">1 ns</text>
  <text x="1236" y="334.7" font-family="Helvetica" font-size="10" font-weight="normal" font-style="normal" fill="#000000" fill-opacity="1">1 ns</text>
  <path d="M 50 225 L 1230 225" fill="none" stroke-width="0.75" stroke="#000000" stroke-opacity="0.49804" stroke-linecap="butt" stroke-linejoin="round"/>
  <text x="21" y="226.7" font-family="Helvetica" font-size="10" font-weight="normal" font-style="normal" fill="#000000" fill-opacity="1">10 ns</text>
  <text x="1236" y="226.7" font-family="Helvetica" font-size="10" font-weight="normal" font-style="normal" fill="#000000" fill-opacity="1">10 ns</text>
  <path d="M 50 117 L 1230 117" fill="none" stroke-width="0.75" stroke="#000000" stroke-opacity="0.49804" stroke-linecap="butt" stroke-linejoin="round"/>
  <text x="16" y="118.7" font-family="Helvetica" font-size="10" font-weight="normal" font-style="normal" fill="#000000" fill-opacity="1">100 ns</text>
  <text x="1236" y="118.7" font-family="Helvetica" font-size="10" font-weight="normal" font-style="normal" fill="#000000" fill-opacity="1">100 ns</text>
  <path d="M 50 9 L 1230 9" fill="none" stroke-width="0.75" stroke="#000000" stroke-opacity="0.49804" stroke-linecap="butt" stroke-linejoin="round"/>
  <text x="26" y="10.7" font-family="Helvetica" font-size="10" font-weight="normal" font-style="normal" fill="#000000" fill-opacity="1">1 µs</text>
  <text x="1236" y="10.7" font-family="Helvetica" font-size="10" font-weight="normal" font-style="normal" fill="#000000" fill-opacity="1">1 µs</text>
  <path d="M 50 408.49 L 1230 408.49" fill="none" stroke-width="0.5" stroke="#000000" stroke-opacity="0.25882" stroke-linecap="butt" stroke-linejoin="round" stroke-dasharray="6 3" stroke-dashoffset="0"/>
  <path d="M 50 375.98 L 1230 375.98" fill="none" stroke-width="0.5" stroke="#000000" stroke-opacity="0.25882" stroke-linecap="butt" stroke-linejoin="round" stroke-dasharray="6 3" stroke-dashoffset="0"/>
  <path d="M 50 343.47 L 1230 343.47" fill="none" stroke-width="0.5" stroke="#000000" stroke-opacity="0.25882" stroke-linecap="butt" stroke-linejoin="round" stroke-dasharray="6 3" stroke-dashoffset="0"/>
  <path d="M 50 310.96 L 1230 310.96" fill="none" stroke-width="0.5" stroke="#000000" stroke-opacity="0.25882" stroke-linecap="butt" stroke-linejoin="round" stroke-dasharray="6 3" stroke-dashoffset="0"/>
  <path d="M 50 278.44 L 1230 278.44" fill="none" stroke-width="0.5" stroke="#000000" stroke-opacity="0.25882" stroke-linecap="butt" stroke-linejoin="round" stroke-dasharray="6 3" stroke-dashoffset="0"/>
  <path d="M 50 245.93 L 1230 245.93" fill="none" stroke-width="0.5" stroke="#000000" stroke-opacity="0.25882" stroke-linecap="butt" stroke-linejoin="round" stroke-dasharray="6 3" stroke-dashoffset="0"/>
  <path d="M 50 213.42 L 1230 213.42" fill="none" stroke-width="0.5" stroke="#000000" stroke-opacity="0.25882" stroke-linecap="butt" stroke-linejoin="round" stroke-dasharray="6 3" stroke-dashoffset="0"/>
  <path d="M 50 180.91 L 1230 180.91" fill="none" stroke-width="0.5" stroke="#000000" stroke-opacity="0.25882" stroke-linecap="butt" stroke-linejoin="round" stroke-dasharray="6 3" stroke-dashoffset="0"/>
  <path d="M 50 148.4 L 1230 148.4" fill="none" stroke-width="0.5" stroke="#000000" stroke-opacity="0.25882" stroke-linecap="butt" stroke-linejoin="round" stroke-dasharray="6 3" stroke-dashoffset="0"/>
  <path d="M 50 115.89 L 1230 115.89" fill="none" stroke-width="0.5" stroke="#000000" stroke-opacity="0.25882" stroke-linecap="butt" stroke-linejoin="round" stroke-dasharray="6 3" stroke-dashoffset="0"/>
  <path d="M 50 83.376 L 1230 83.376" fill="none" stroke-width="0.5" stroke="#000000" stroke-opacity="0.25882" stroke-linecap="butt" stroke-linejoin="round" stroke-dasharray="6 3" stroke-dashoffset="0"/>
  <path d="M 50 50.865 L 1230 50.865" fill="none" stroke-width="0.5" stroke="#000000" stroke-opacity="0.25882" stroke-linecap="butt" stroke-linejoin="round" stroke-dasharray="6 3" stroke-dashoffset="0"/>
  <path d="M 50 18.354 L 1230 18.354" fill="none" stroke-width="0.5" stroke="#000000" stroke-opacity="0.25882" stroke-linecap="butt" stroke-linejoin="round" stroke-dasharray="6 3" stroke-dashoffset="0"/>
  <path d="M 74 33 L 74 88 L 413 88 L 413 33 z" fill="#FFFFFF" fill-opacity="1.0" stroke="none"/>
  <clipPath id="clip-0">
    <path d="M 50 9 L 50 441 L 1230 441 L 1230 9 z"/>
  </clipPath>
  <g clip-path="url(#clip-0)">
    <path d="M 50 156.68L 109 190.2L 143.51 208.21L 168 222.71L 186.99 232.17L 202.51 241.73L 215.63 199.53L 227 191.5L 245.99 214.53L 261.51 223.09L 274.63 207.46L 286 222.99L 304.99 207.83L 320.51 210.01L 333.63 211.75L 345 204.92L 363.99 214.53L 379.51 206.94L 392.63 196.57L 404 212.64L 422.99 205.77L 438.51 195.12L 451.63 169.41L 463 193.92L 481.99 194.38L 497.51 184.09L 510.63 176.41L 522 167.23L 540.99 160.02L 556.51 142.37L 569.63 159.31L 581 142.61L 599.99 126.15L 615.51 133.93L 628.63 131.25L 640 127.78L 658.99 128.1L 674.51 127.14L 687.63 128.56L 699 124.72L 717.99 124.56L 733.51 121.72L 746.63 120.94L 758 118.78L 776.99 115.44L 792.51 112.8L 805.63 111.88L 817 112.12L 835.99 107.99L 851.51 108.57L 864.63 107.5L 876 105.1L 894.99 102.58L 910.51 91.585L 923.63 102.41L 935 93.093L 953.99 90.496L 969.51 85.046L 982.63 89.039L 994 82.857L 1013 93.134L 1028.5 76.206L 1041.6 72.747L 1053 75.341L 1072 67.922L 1087.5 75.407L 1100.6 71.289L 1112 63.22L 1131 63.801L 1146.5 60.696L 1159.6 55.222L 1171 51.737L 1190 44.592L 1205.5 42.796L 1218.6 42.813L 1230 34.486L 1230 37.183L 1218.6 42.851L 1205.5 45.3L 1190 51.809L 1171 52.216L 1159.6 57.814L 1146.5 61.071L 1131 65.472L 1112 67.03L 1100.6 75.683L 1087.5 75.673L 1072 82.46L 1053 81.15L 1041.6 90.846L 1028.5 88.107L 1013 93.371L 994 88.049L 982.63 96.952L 969.51 93.134L 953.99 95.799L 935 95.816L 923.63 102.74L 910.51 103.27L 894.99 104.74L 876 105.62L 864.63 107.55L 851.51 108.8L 835.99 110.34L 817 112.46L 805.63 113.35L 792.51 114.61L 776.99 115.98L 758 119.05L 746.63 121.08L 733.51 122.36L 717.99 124.8L 699 127.42L 687.63 129.64L 674.51 130.95L 658.99 131.36L 640 133.49L 628.63 138.46L 615.51 141.25L 599.99 149.63L 581 142.86L 569.63 161.2L 556.51 165.46L 540.99 163.99L 522 175.11L 510.63 180.11L 497.51 192.06L 481.99 198.19L 463 202.16L 451.63 204.07L 438.51 206.74L 422.99 209.01L 404 212.64L 392.63 213.93L 379.51 212.62L 363.99 214.53L 345 222.99L 333.63 223.19L 320.51 223.09L 304.99 223.16L 286 222.99L 274.63 230.32L 261.51 223.09L 245.99 214.53L 227 223.27L 215.63 248.96L 202.51 241.73L 186.99 234.31L 168 222.71L 143.51 210.35L 109 190.2L 50 158.82" fill="#007AFF" fill-opacity="0.30196078431372547" stroke="none"/>
    <path d="M 50 158.82L 109 189.19L 143.51 210.35L 168 222.71L 186.99 234.31L 202.51 240.72L 215.63 247.95L 227 254.21L 245.99 265.69L 261.51 273.23L 274.63 282.6L 286 286.72L 304.99 298.2L 320.51 306.75L 333.63 312.97L 345 321.38L 363.99 330.71L 379.51 338.25L 392.63 345.48L 404 353.89L 422.99 362.21L 438.51 338.76L 451.63 315.29L 463 353.32L 481.99 332.01L 497.51 372.34L 510.63 360.36L 522 343.77L 540.99 363.25L 556.51 361.76L 569.63 353.66L 581 366.62L 599.99 363.64L 615.51 361.76L 628.63 364.48L 640 366.62L 658.99 366.62L 674.51 366.62L 687.63 364.48L 699 368.59L 717.99 363.77L 733.51 365.44L 746.63 367.71L 758 365.75L 776.99 367.38L 792.51 366.65L 805.63 367.16L 817 368.11L 835.99 364.81L 851.51 367.27L 864.63 362.06L 876 366.18L 894.99 362.72L 910.51 357.41L 923.63 356.29L 935 354.07L 953.99 348.01L 969.51 349.09L 982.63 347.39L 994 346.18L 1013 344.98L 1028.5 342.26L 1041.6 341.8L 1053 341.9L 1072 341.76L 1087.5 341.5L 1100.6 339.46L 1112 340.21L 1131 339.08L 1146.5 334.72L 1159.6 335.95L 1171 338.6L 1190 337.46L 1205.5 338.51L 1218.6 339.15L 1230 339.16L 1230 339.23L 1218.6 339.38L 1205.5 339.29L 1190 339.41L 1171 339.15L 1159.6 338.99L 1146.5 340.11L 1131 340.49L 1112 340.95L 1100.6 341.29L 1087.5 341.61L 1072 342.1L 1053 342.74L 1041.6 343.32L 1028.5 344.1L 1013 345.04L 994 346.56L 982.63 347.65L 969.51 349.09L 953.99 351.26L 935 354.43L 923.63 356.72L 910.51 358.98L 894.99 363.42L 876 367.11L 864.63 367.18L 851.51 367.28L 835.99 367.02L 817 368.11L 805.63 367.19L 792.51 367.96L 776.99 367.42L 758 367.6L 746.63 367.76L 733.51 367.96L 717.99 366.62L 699 368.59L 687.63 364.48L 674.51 366.62L 658.99 366.62L 640 366.62L 628.63 364.48L 615.51 361.76L 599.99 363.64L 581 366.62L 569.63 368.99L 556.51 361.76L 540.99 363.78L 522 366.62L 510.63 360.36L 497.51 372.34L 481.99 363.78L 463 353.32L 451.63 347.06L 438.51 339.82L 422.99 364.35L 404 353.89L 392.63 347.62L 379.51 340.39L 363.99 330.71L 345 321.38L 333.63 315.11L 320.51 306.75L 304.99 298.2L 286 288.86L 274.63 282.6L 261.51 275.37L 245.99 265.69L 227 256.35L 215.63 250.09L 202.51 242.86L 186.99 234.31L 168 222.71L 143.51 210.35L 109 191.33L 50 158.82" fill="#FF3B30" fill-opacity="0.30196078431372547" stroke="none"/>
    <path d="M 50 158.25L 109 190.2L 143.51 209.78L 168 222.71L 186.99 233.74L 202.51 241.73L 215.63 230.32L 227 212.69L 245.99 214.53L 261.51 223.09L 274.63 223.19L 286 222.99L 304.99 218.65L 320.51 219.3L 333.63 219.92L 345 217.56L 363.99 214.53L 379.51 211.07L 392.63 208.74L 404 212.64L 422.99 208.14L 438.51 203.42L 451.63 192.28L 463 199.86L 481.99 197.16L 497.51 189.85L 510.63 179.12L 522 172.92L 540.99 162.92L 556.51 158.25L 569.63 160.7L 581 142.79L 599.99 142.28L 615.51 139.23L 628.63 136.47L 640 131.93L 658.99 130.48L 674.51 129.93L 687.63 129.35L 699 126.7L 717.99 124.73L 733.51 122.19L 746.63 121.04L 758 118.98L 776.99 115.84L 792.51 114.13L 805.63 112.96L 817 112.37L 835.99 109.71L 851.51 108.74L 864.63 107.54L 876 105.48L 894.99 104.17L 910.51 99.924L 923.63 102.66L 935 95.089L 953.99 94.355L 969.51 90.883L 982.63 94.753L 994 86.637L 1013 93.309L 1028.5 84.695L 1041.6 85.405L 1053 79.562L 1072 78.207L 1087.5 75.603L 1100.6 74.495L 1112 66.005L 1131 65.03L 1146.5 60.972L 1159.6 57.123L 1171 52.091L 1190 49.814L 1205.5 44.633L 1218.6 42.841L 1230 36.464" fill="none" stroke-width="4" stroke="#007AFF" stroke-opacity="1" stroke-linecap="round" stroke-linejoin="round"/>
    <path d="M 50 158.82L 109 190.76L 143.51 210.35L 168 222.71L 186.99 234.31L 202.51 242.29L 215.63 249.52L 227 255.78L 245.99 265.69L 261.51 274.8L 274.63 282.6L 286 288.3L 304.99 298.2L 320.51 306.75L 333.63 314.54L 345 321.38L 363.99 330.71L 379.51 339.82L 392.63 347.06L 404 353.89L 422.99 363.78L 438.51 339.54L 451.63 336.48L 463 353.32L 481.99 353.21L 497.51 372.34L 510.63 360.36L 522 359.5L 540.99 363.64L 556.51 361.76L 569.63 364.48L 581 366.62L 599.99 363.64L 615.51 361.76L 628.63 364.48L 640 366.62L 658.99 366.62L 674.51 366.62L 687.63 364.48L 699 368.59L 717.99 365.86L 733.51 367.28L 746.63 367.75L 758 367.11L 776.99 367.41L 792.51 367.61L 805.63 367.18L 817 368.11L 835.99 366.43L 851.51 367.28L 864.63 365.79L 876 366.87L 894.99 363.23L 910.51 358.56L 923.63 356.61L 935 354.34L 953.99 350.39L 969.51 349.09L 982.63 347.58L 994 346.46L 1013 345.02L 1028.5 343.61L 1041.6 342.92L 1053 342.52L 1072 342.01L 1087.5 341.58L 1100.6 340.81L 1112 340.75L 1131 340.12L 1146.5 338.64L 1159.6 338.17L 1171 339L 1190 338.89L 1205.5 339.09L 1218.6 339.32L 1230 339.21" fill="none" stroke-width="4" stroke="#FF3B30" stroke-opacity="1" stroke-linecap="round" stroke-linejoin="round"/>
    <path d="M 50 158.25L 109 190.2L 143.51 209.78L 168 222.71L 186.99 233.74L 202.51 241.73L 215.63 230.32L 227 212.69L 245.99 214.53L 261.51 223.09L 274.63 223.19L 286 222.99L 304.99 218.65L 320.51 219.3L 333.63 219.92L 345 217.56L 363.99 214.53L 379.51 211.07L 392.63 208.74L 404 212.64L 422.99 208.14L 438.51 203.42L 451.63 192.28L 463 199.86L 481.99 197.16L 497.51 189.85L 510.63 179.12L 522 172.92L 540.99 162.92L 556.51 158.25L 569.63 160.7L 581 142.79L 599.99 142.28L 615.51 139.23L 628.63 136.47L 640 131.93L 658.99 130.48L 674.51 129.93L 687.63 129.35L 699 126.7L 717.99 124.73L 733.51 122.19L 746.63 121.04L 758 118.98L 776.99 115.84L 792.51 114.13L 805.63 112.96L 817 112.37L 835.99 109.71L 851.51 108.74L 864.63 107.54L 876 105.48L 894.99 104.17L 910.51 99.924L 923.63 102.66L 935 95.089L 953.99 94.355L 969.51 90.883L 982.63 94.753L 994 86.637L 1013 93.309L 1028.5 84.695L 1041.6 85.405L 1053 79.562L 1072 78.207L 1087.5 75.603L 1100.6 74.495L 1112 66.005L 1131 65.03L 1146.5 60.972L 1159.6 57.123L 1171 52.091L 1190 49.814L 1205.5 44.633L 1218.6 42.841L 1230 36.464" fill="none" stroke-width="0.5" stroke="#000000" stroke-opacity="0.30196" stroke-linecap="round" stroke-linejoin="round"/>
    <path d="M 50 158.82L 109 190.76L 143.51 210.35L 168 222.71L 186.99 234.31L 202.51 242.29L 215.63 249.52L 227 255.78L 245.99 265.69L 261.51 274.8L 274.63 282.6L 286 288.3L 304.99 298.2L 320.51 306.75L 333.63 314.54L 345 321.38L 363.99 330.71L 379.51 339.82L 392.63 347.06L 404 353.89L 422.99 363.78L 438.51 339.54L 451.63 336.48L 463 353.32L 481.99 353.21L 497.51 372.34L 510.63 360.36L 522 359.5L 540.99 363.64L 556.51 361.76L 569.63 364.48L 581 366.62L 599.99 363.64L 615.51 361.76L 628.63 364.48L 640 366.62L 658.99 366.62L 674.51 366.62L 687.63 364.48L 699 368.59L 717.99 365.86L 733.51 367.28L 746.63 367.75L 758 367.11L 776.99 367.41L 792.51 367.61L 805.63 367.18L 817 368.11L 835.99 366.43L 851.51 367.28L 864.63 365.79L 876 366.87L 894.99 363.23L 910.51 358.56L 923.63 356.61L 935 354.34L 953.99 350.39L 969.51 349.09L 982.63 347.58L 994 346.46L 1013 345.02L 1028.5 343.61L 1041.6 342.92L 1053 342.52L 1072 342.01L 1087.5 341.58L 1100.6 340.81L 1112 340.75L 1131 340.12L 1146.5 338.64L 1159.6 338.17L 1171 339L 1190 338.89L 1205.5 339.09L 1218.6 339.32L 1230 339.21" fill="none" stroke-width="0.5" stroke="#000000" stroke-opacity="0.30196" stroke-linecap="round" stroke-linejoin="round"/>
  </g>
  <path d="M 74 33 L 74 88 L 413 88 L 413 33 z" fill="#FFFFFF" fill-opacity="0.7019607843137254" stroke-width="0.5" stroke="#000000" stroke-opacity="1" stroke-linecap="round" stroke-linejoin="round"/>
  <path d="M 88 52 L 108 52" fill="none" stroke-width="4" stroke="#FF3B30" stroke-opacity="1" stroke-linecap="round" stroke-linejoin="round"/>
  <path d="M 88 52 L 108 52" fill="none" stroke-width="0.5" stroke="#000000" stroke-opacity="0.30196" stroke-linecap="round" stroke-linejoin="round"/>
  <text x="119" y="56.17" font-family="Menlo" font-size="12" font-weight="normal" font-style="normal" fill="#000000" fill-opacity="1">Array&lt;Int&gt; mutate through subscript</text>
  <path d="M 88 69 L 108 69" fill="none" stroke-width="4" stroke="#007AFF" stroke-opacity="1" stroke-linecap="round" stroke-linejoin="round"/>
  <path d="M 88 69 L 108 69" fill="none" stroke-width="0.5" stroke="#000000" stroke-opacity="0.30196" stroke-linecap="round" stroke-linejoin="round"/>
  <text x="119" y="73.17" font-family="Menlo" font-size="12" font-weight="normal" font-style="normal" fill="#000000" fill-opacity="1">TreeArray&lt;Int&gt; mutate through subscript</text>
  <path d="M 50 9 L 50 441 L 1230 441 L 1230 9 z" fill="none" stroke-width="0.5" stroke="#000000" stroke-opacity="1" stroke-linecap="round" stroke-linejoin="round"/>
</svg>
