<!DOCTYPE svg PUBLIC "-//W3C//DTD SVG 1.1//EN" "http://www.w3.org/Graphics/SVG/1.1/DTD/svg11.dtd">
<svg width="1280.0px" height="480.0px" viewBox="0.0 0.0 1280.0 480.0" xmlns="http://www.w3.org/2000/svg" xmlns:xlink="http://www.w3.org/1999/xlink" version="1.1">
  <path d="M 0 0 L 0 480 L 1280 480 L 1280 0 z" fill="#FFFFFF" fill-opacity="1.0" stroke="none"/>
  <text x="50" y="468.7" font-family="Helvetica" font-size="10" font-weight="normal" font-style="normal" fill="#000000" fill-opacity="1">Average per-element processing time over input size (bands: min, mean, mean + 2stddev)</text>
  <a xlink:href="https://github.com/apple/swift-collections-benchmark"><text x="1107" y="468.7" font-family="Helvetica" font-size="10" font-weight="normal" font-style="normal" fill="#000000" fill-opacity="1">swift-collections-benchmark</text></a>
  <path d="M 50 9 L 50 441" fill="none" stroke-width="0.75" stroke="#000000" stroke-opacity="0.49804" stroke-linecap="butt" stroke-linejoin="round"/>
  <text x="47" y="453.7" font-family="Helvetica" font-size="10" font-weight="normal" font-style="normal" fill="#000000" fill-opacity="1">1</text>
  <path d="M 109 9 L 109 441" fill="none" stroke-width="0.75" stroke="#000000" stroke-opacity="0.49804" stroke-linecap="butt" stroke-linejoin="round"/>
  <text x="106" y="453.7" font-family="Helvetica" font-size="10" font-weight="normal" font-style="normal" fill="#000000" fill-opacity="1">2</text>
  <path d="M 168 9 L 168 441" fill="none" stroke-width="0.75" stroke="#000000" stroke-opacity="0.49804" stroke-linecap="butt" stroke-linejoin="round"/>
  <text x="165" y="453.7" font-family="Helvetica" font-size="10" font-weight="normal" font-style="normal" fill="#000000" fill-opacity="1">4</text>
  <path d="M 227 9 L 227 441" fill="none" stroke-width="0.75" stroke="#000000" stroke-opacity="0.49804" stroke-linecap="butt" stroke-linejoin="round"/>
  <text x="224" y="453.7" font-family="Helvetica" font-size="10" font-weight="normal" font-style="normal" fill="#000000" fill-opacity="1">8</text>
  <path d="M 286 9 L 286 441" fill="none" stroke-width="0.75" stroke="#000000" stroke-opacity="0.49804" stroke-linecap="butt" stroke-linejoin="round"/>
  <text x="280" y="453.7" font-family="Helvetica" font-size="10" font-weight="normal" font-style="normal" fill="#000000" fill-opacity="1">16</text>
  <path d="M 345 9 L 345 441" fill="none" stroke-width="0.75" stroke="#000000" stroke-opacity="0.49804" stroke-linecap="butt" stroke-linejoin="round"/>
  <text x="339" y="453.7" font-family="Helvetica" font-size="10" font-weight="normal" font-style="normal" fill="#000000" fill-opacity="1">32</text>
  <path d="M 404 9 L 404 441" fill="none" stroke-width="0.75" stroke="#000000" stroke-opacity="0.49804" stroke-linecap="butt" stroke-linejoin="round"/>
  <text x="398" y="453.7" font-family="Helvetica" font-size="10" font-weight="normal" font-style="normal" fill="#000000" fill-opacity="1">64</text>
  <path d="M 463 9 L 463 441" fill="none" stroke-width="0.75" stroke="#000000" stroke-opacity="0.49804" stroke-linecap="butt" stroke-linejoin="round"/>
  <text x="454.5" y="453.7" font-family="Helvetica" font-size="10" font-weight="normal" font-style="normal" fill="#000000" fill-opacity="1">128</text>
  <path d="M 522 9 L 522 441" fill="none" stroke-width="0.75" stroke="#000000" stroke-opacity="0.49804" stroke-linecap="butt" stroke-linejoin="round"/>
  <text x="513.5" y="453.7" font-family="Helvetica" font-size="10" font-weight="normal" font-style="normal" fill="#000000" fill-opacity="1">256</text>
  <path d="M 581 9 L 581 441" fill="none" stroke-width="0.75" stroke="#000000" stroke-opacity="0.49804" stroke-linecap="butt" stroke-linejoin="round"/>
  <text x="572.5" y="453.7" font-family="Helvetica" font-size="10" font-weight="normal" font-style="normal" fill="#000000" fill-opacity="1">512</text>
  <path d="M 640 9 L 640 441" fill="none" stroke-width="0.75" stroke="#000000" stroke-opacity="0.49804" stroke-linecap="butt" stroke-linejoin="round"/>
  <text x="634.5" y="453.7" font-family="Helvetica" font-size="10" font-weight="normal" font-style="normal" fill="#000000" fill-opacity="1">1k</text>
  <path d="M 699 9 L 699 441" fill="none" stroke-width="0.75" stroke="#000000" stroke-opacity="0.49804" stroke-linecap="butt" stroke-linejoin="round"/>
  <text x="693.5" y="453.7" font-family="Helvetica" font-size="10" font-weight="normal" font-style="normal" fill="#000000" fill-opacity="1">2k</text>
  <path d="M 758 9 L 758 441" fill="none" stroke-width="0.75" stroke="#000000" stroke-opacity="0.49804" stroke-linecap="butt" stroke-linejoin="round"/>
  <text x="752.5" y="453.7" font-family="Helvetica" font-size="10" font-weight="normal" font-style="normal" fill="#000000" fill-opacity="1">4k</text>
  <path d="M 817 9 L 817 441" fill="none" stroke-width="0.75" stroke="#000000" stroke-opacity="0.49804" stroke-linecap="butt" stroke-linejoin="round"/>
  <text x="811.5" y="453.7" font-family="Helvetica" font-size="10" font-weight="normal" font-style="normal" fill="#000000" fill-opacity="1">8k</text>
  <path d="M 876 9 L 876 441" fill="none" stroke-width="0.75" stroke="#000000" stroke-opacity="0.49804" stroke-linecap="butt" stroke-linejoin="round"/>
  <text x="867.5" y="453.7" font-family="Helvetica" font-size="10" font-weight="normal" font-style="normal" fill="#000000" fill-opacity="1">16k</text>
  <path d="M 935 9 L 935 441" fill="none" stroke-width="0.75" stroke="#000000" stroke-opacity="0.49804" stroke-linecap="butt" stroke-linejoin="round"/>
  <text x="926.5" y="453.7" font-family="Helvetica" font-size="10" font-weight="normal" font-style="normal" fill="#000000" fill-opacity="1">32k</text>
  <path d="M 994 9 L 994 441" fill="none" stroke-width="0.75" stroke="#000000" stroke-opacity="0.49804" stroke-linecap="butt" stroke-linejoin="round"/>
  <text x="985.5" y="453.7" font-family="Helvetica" font-size="10" font-weight="normal" font-style="normal" fill="#000000" fill-opacity="1">64k</text>
  <path d="M 1053 9 L 1053 441" fill="none" stroke-width="0.75" stroke="#000000" stroke-opacity="0.49804" stroke-linecap="butt" stroke-linejoin="round"/>
  <text x="1042" y="453.7" font-family="Helvetica" font-size="10" font-weight="normal" font-style="normal" fill="#000000" fill-opacity="1">128k</text>
  <path d="M 1112 9 L 1112 441" fill="none" stroke-width="0.75" stroke="#000000" stroke-opacity="0.49804" stroke-linecap="butt" stroke-linejoin="round"/>
  <text x="1101" y="453.7" font-family="Helvetica" font-size="10" font-weight="normal" font-style="normal" fill="#000000" fill-opacity="1">256k</text>
  <path d="M 1171 9 L 1171 441" fill="none" stroke-width="0.75" stroke="#000000" stroke-opacity="0.49804" stroke-linecap="butt" stroke-linejoin="round"/>
  <text x="1160" y="453.7" font-family="Helvetica" font-size="10" font-weight="normal" font-style="normal" fill="#000000" fill-opacity="1">512k</text>
  <path d="M 1230 9 L 1230 441" fill="none" stroke-width="0.75" stroke="#000000" stroke-opacity="0.49804" stroke-linecap="butt" stroke-linejoin="round"/>
  <text x="1223" y="453.7" font-family="Helvetica" font-size="10" font-weight="normal" font-style="normal" fill="#000000" fill-opacity="1">1M</text>
  <path d="M 50 441 L 1230 441" fill="none" stroke-width="0.75" stroke="#000000" stroke-opacity="0.49804" stroke-linecap="butt" stroke-linejoin="round"/>
  <text x="16" y="442.7" font-family="Helvetica" font-size="10" font-weight="normal" font-style="normal" fill="#000000" fill-opacity="1">100 ps</text>
  <text x="1236" y="442.7" font-family="Helvetica" font-size="10" font-weight="normal" font-style="normal" fill="#000000" fill-opacity="1">100 ps</text>
  <path d="M 50 333 L 1230 333" fill="none" stroke-width="0.75" stroke="#000000" stroke-opacity="0.49804" stroke-linecap="butt" stroke-linejoin="round"/>
  <text x="27" y="334.7" font-family="Helvetica" font-size="10" font-weight="normal" font-style="normal" fill="#000000" fill-opacity="1">1 ns</text>
  <text x="1236" y="334.7" font-family="Helvetica" font-size="10" font-weight="normal" font-style="normal" fill="#000000" fill-opacity="1">1 ns</text>
  <path d="M 50 225 L 1230 225" fill="none" stroke-width="0.75" stroke="#000000" stroke-opacity="0.49804" stroke-linecap="butt" stroke-linejoin="round"/>
  <text x="21" y="226.7" font-family="Helvetica" font-size="10" font-weight="normal" font-style="normal" fill="#000000" fill-opacity="1">10 ns</text>
  <text x="1236" y="226.7" font-family="Helvetica" font-size="10" font-weight="normal" font-style="normal" fill="#000000" fill-opacity="1">10 ns</text>
  <path d="M 50 117 L 1230 117" fill="none" stroke-width="0.75" stroke="#000000" stroke-opacity="0.49804" stroke-linecap="butt" stroke-linejoin="round"/>
  <text x="16" y="118.7" font-family="Helvetica" font-size="10" font-weight="normal" font-style="normal" fill="#000000" fill-opacity="1">100 ns</text>
  <text x="1236" y="118.7" font-family="Helvetica" font-size="10" font-weight="normal" font-style="normal" fill="#000000" fill-opacity="1">100 ns</text>
  <path d="M 50 9 L 1230 9" fill="none" stroke-width="0.75" stroke="#000000" stroke-opacity="0.49804" stroke-linecap="butt" stroke-linejoin="round"/>
  <text x="26" y="10.7" font-family="Helvetica" font-size="10" font-weight="normal" font-style="normal" fill="#000000" fill-opacity="1">1 µs</text>
  <text x="1236" y="10.7" font-family="Helvetica" font-size="10" font-weight="normal" font-style="normal" fill="#000000" fill-opacity="1">1 µs</text>
  <path d="M 50 408.49 L 1230 408.49" fill="none" stroke-width="0.5" stroke="#000000" stroke-opacity="0.25882" stroke-linecap="butt" stroke-linejoin="round" stroke-dasharray="6 3" stroke-dashoffset="0"/>
  <path d="M 50 375.98 L 1230 375.98" fill="none" stroke-width="0.5" stroke="#000000" stroke-opacity="0.25882" stroke-linecap="butt" stroke-linejoin="round" stroke-dasharray="6 3" stroke-dashoffset="0"/>
  <path d="M 50 343.47 L 1230 343.47" fill="none" stroke-width="0.5" stroke="#000000" stroke-opacity="0.25882" stroke-linecap="butt" stroke-linejoin="round" stroke-dasharray="6 3" stroke-dashoffset="0"/>
  <path d="M 50 310.96 L 1230 310.96" fill="none" stroke-width="0.5" stroke="#000000" stroke-opacity="0.25882" stroke-linecap="butt" stroke-linejoin="round" stroke-dasharray="6 3" stroke-dashoffset="0"/>
  <path d="M 50 278.44 L 1230 278.44" fill="none" stroke-width="0.5" stroke="#000000" stroke-opacity="0.25882" stroke-linecap="butt" stroke-linejoin="round" stroke-dasharray="6 3" stroke-dashoffset="0"/>
  <path d="M 50 245.93 L 1230 245.93" fill="none" stroke-width="0.5" stroke="#000000" stroke-opacity="0.25882" stroke-linecap="butt" stroke-linejoin="round" stroke-dasharray="6 3" stroke-dashoffset="0"/>
  <path d="M 50 213.42 L 1230 213.42" fill="none" stroke-width="0.5" stroke="#000000" stroke-opacity="0.25882" stroke-linecap="butt" stroke-linejoin="round" stroke-dasharray="6 3" stroke-dashoffset="0"/>
  <path d="M 50 180.91 L 1230 180.91" fill="none" stroke-width="0.5" stroke="#000000" stroke-opacity="0.25882" stroke-linecap="butt" stroke-linejoin="round" stroke-dasharray="6 3" stroke-dashoffset="0"/>
  <path d="M 50 148.4 L 1230 148.4" fill="none" stroke-width="0.5" stroke="#000000" stroke-opacity="0.25882" stroke-linecap="butt" stroke-linejoin="round" stroke-dasharray="6 3" stroke-dashoffset="0"/>
  <path d="M 50 115.89 L 1230 115.89" fill="none" stroke-width="0.5" stroke="#000000" stroke-opacity="0.25882" stroke-linecap="butt" stroke-linejoin="round" stroke-dasharray="6 3" stroke-dashoffset="0"/>
  <path d="M 50 83.376 L 1230 83.376" fill="none" stroke-width="0.5" stroke="#000000" stroke-opacity="0.25882" stroke-linecap="butt" stroke-linejoin="round" stroke-dasharray="6 3" stroke-dashoffset="0"/>
  <path d="M 50 50.865 L 1230 50.865" fill="none" stroke-width="0.5" stroke="#000000" stroke-opacity="0.25882" stroke-linecap="butt" stroke-linejoin="round" stroke-dasharray="6 3" stroke-dashoffset="0"/>
  <path d="M 50 18.354 L 1230 18.354" fill="none" stroke-width="0.5" stroke="#000000" stroke-opacity="0.25882" stroke-linecap="butt" stroke-linejoin="round" stroke-dasharray="6 3" stroke-dashoffset="0"/>
  <path d="M 74 33 L 74 88 L 413 88 L 413 33 z" fill="#FFFFFF" fill-opacity="1.0" stroke="none"/>
  <clipPath id="clip-0">
    <path d="M 50 9 L 50 441 L 1230 441 L 1230 9 z"/>
  </clipPath>
  <g clip-path="url(#clip-0)">
    <path d="M 50 157.69L 109 189.19L 143.51 208.21L 168 222.71L 186.99 232.17L 202.51 192.3L 215.63 217.01L 227 223.27L 245.99 201.97L 261.51 223.09L 274.63 230.32L 286 222.74L 304.99 222.73L 320.51 210.01L 333.63 211.62L 345 217.56L 363.99 214.53L 379.51 215.73L 392.63 208.96L 404 210.33L 422.99 207.44L 438.51 200.62L 451.63 207.54L 463 195.39L 481.99 190.23L 497.51 190.63L 510.63 183.71L 522 162.99L 540.99 170.47L 556.51 157.29L 569.63 141.55L 581 134L 599.99 147.53L 615.51 141.53L 628.63 135.42L 640 136.65L 658.99 133.26L 674.51 130.23L 687.63 129.4L 699 127.16L 717.99 123.48L 733.51 121.28L 746.63 120.52L 758 119.17L 776.99 116.32L 792.51 113.72L 805.63 113.6L 817 112.62L 835.99 106.59L 851.51 106.1L 864.63 107.77L 876 105.4L 894.99 101.56L 910.51 97.854L 923.63 97.877L 935 92.972L 953.99 98.175L 969.51 85.203L 982.63 90.925L 994 82.5L 1013 80.542L 1028.5 80.194L 1041.6 79.288L 1053 78.322L 1072 82.608L 1087.5 58.618L 1100.6 49.196L 1112 45.146L 1131 64.507L 1146.5 59.056L 1159.6 37.908L 1171 53.742L 1190 49.283L 1205.5 29.055L 1218.6 33.663L 1230 34.941L 1230 36.889L 1218.6 43.544L 1205.5 42.919L 1190 51.558L 1171 54.443L 1159.6 58.899L 1146.5 61.015L 1131 67.443L 1112 69.508L 1100.6 76.336L 1087.5 76.512L 1072 83.44L 1053 79.947L 1041.6 91.125L 1028.5 88.208L 1013 92.9L 994 87.589L 982.63 94.536L 969.51 97.03L 953.99 99.785L 935 95.779L 923.63 102.41L 910.51 103.64L 894.99 105.08L 876 105.53L 864.63 107.97L 851.51 108.98L 835.99 110.39L 817 112.9L 805.63 113.74L 792.51 114.75L 776.99 116.35L 758 119.64L 746.63 121.34L 733.51 122.4L 717.99 125.15L 699 127.48L 687.63 129.92L 674.51 131.24L 658.99 134.82L 640 137.54L 628.63 140.64L 615.51 142.03L 599.99 148.66L 581 152.86L 569.63 161.65L 556.51 161.88L 540.99 171.95L 522 176.45L 510.63 186.57L 497.51 191.56L 481.99 196.18L 463 200.31L 451.63 207.54L 438.51 208.15L 422.99 210.79L 404 210.33L 392.63 214L 379.51 215.88L 363.99 214.53L 345 217.56L 333.63 223.03L 320.51 223.09L 304.99 223.16L 286 223.27L 274.63 230.32L 261.51 223.09L 245.99 233.74L 227 223.27L 215.63 217.01L 202.51 241.73L 186.99 234.31L 168 222.71L 143.51 210.35L 109 191.33L 50 157.69" fill="#007AFF" fill-opacity="0.30196078431372547" stroke="none"/>
    <path d="M 50 158.82L 109 191.33L 143.51 208.21L 168 221.7L 186.99 234.31L 202.51 241.73L 215.63 248.96L 227 255.22L 245.99 264.68L 261.51 274.24L 274.63 282.6L 286 286.72L 304.99 297.19L 320.51 305.74L 333.63 312.97L 345 321.38L 363.99 331.84L 379.51 338.25L 392.63 296.71L 404 303.33L 422.99 363.22L 438.51 371.77L 451.63 347.06L 463 353.32L 481.99 332.01L 497.51 353.13L 510.63 360.36L 522 366.62L 540.99 345.43L 556.51 346.58L 569.63 353.66L 581 353.82L 599.99 363.37L 615.51 366.62L 628.63 368.87L 640 366.62L 658.99 366.62L 674.51 366.62L 687.63 366.62L 699 361.4L 717.99 368.15L 733.51 367.96L 746.63 367.71L 758 367.62L 776.99 367.38L 792.51 366.68L 805.63 367.74L 817 367.17L 835.99 364.47L 851.51 364.5L 864.63 366.65L 876 363.91L 894.99 362.34L 910.51 358.83L 923.63 353.97L 935 354.53L 953.99 351.06L 969.51 349.1L 982.63 347.43L 994 341.61L 1013 344.6L 1028.5 343.9L 1041.6 343.11L 1053 342.62L 1072 341.25L 1087.5 341.51L 1100.6 340.58L 1112 336.22L 1131 337.74L 1146.5 338.75L 1159.6 338.89L 1171 336.87L 1190 338.18L 1205.5 336.06L 1218.6 338.51L 1230 337.6L 1230 339.25L 1218.6 339.29L 1205.5 339.18L 1190 339.09L 1171 339.84L 1159.6 340.12L 1146.5 340.06L 1131 340.6L 1112 340.09L 1100.6 341.01L 1087.5 341.6L 1072 341.99L 1053 342.76L 1041.6 343.28L 1028.5 343.95L 1013 345.01L 994 346.52L 982.63 347.61L 969.51 349.21L 953.99 351.33L 935 354.71L 923.63 356.27L 910.51 358.84L 894.99 362.69L 876 367.11L 864.63 367.18L 851.51 366.95L 835.99 367.41L 817 368.11L 805.63 367.76L 792.51 367.96L 776.99 367.42L 758 367.62L 746.63 367.76L 733.51 367.96L 717.99 368.23L 699 368.59L 687.63 366.62L 674.51 366.62L 658.99 366.62L 640 366.62L 628.63 368.87L 615.51 366.62L 599.99 363.64L 581 366.62L 569.63 368.99L 556.51 361.53L 540.99 363.5L 522 366.62L 510.63 360.36L 497.51 353.13L 481.99 363.78L 463 353.32L 451.63 347.06L 438.51 371.77L 422.99 363.22L 404 352.76L 392.63 347.62L 379.51 340.39L 363.99 331.84L 345 321.38L 333.63 315.11L 320.51 307.88L 304.99 299.33L 286 288.86L 274.63 282.6L 261.51 274.24L 245.99 266.82L 227 255.22L 215.63 248.96L 202.51 241.73L 186.99 234.31L 168 223.84L 143.51 210.35L 109 191.33L 50 158.82" fill="#FF3B30" fill-opacity="0.30196078431372547" stroke="none"/>
    <path d="M 50 157.69L 109 190.76L 143.51 209.78L 168 222.71L 186.99 233.74L 202.51 223.09L 215.63 217.01L 227 223.27L 245.99 223.16L 261.51 223.09L 274.63 230.32L 286 223.13L 304.99 223.05L 320.51 219.3L 333.63 219.77L 345 217.56L 363.99 214.53L 379.51 215.84L 392.63 212.63L 404 210.33L 422.99 209.89L 438.51 206.06L 451.63 207.54L 463 198.97L 481.99 194.55L 497.51 191.31L 510.63 185.8L 522 172.54L 540.99 171.56L 556.51 160.64L 569.63 155.52L 581 147.16L 599.99 148.36L 615.51 141.9L 628.63 139.22L 640 137.31L 658.99 134.41L 674.51 130.98L 687.63 129.79L 699 127.4L 717.99 124.71L 733.51 122.1L 746.63 121.13L 758 119.52L 776.99 116.34L 792.51 114.48L 805.63 113.71L 817 112.83L 835.99 109.37L 851.51 108.21L 864.63 107.92L 876 105.49L 894.99 104.14L 910.51 102.06L 923.63 101.18L 935 95.029L 953.99 99.359L 969.51 93.642L 982.63 93.566L 994 86.206L 1013 89.345L 1028.5 85.979L 1041.6 87.734L 1053 79.517L 1072 83.221L 1087.5 71.141L 1100.6 67.602L 1112 61.829L 1131 66.658L 1146.5 60.496L 1159.6 52.448L 1171 54.259L 1190 50.953L 1205.5 38.884L 1218.6 40.756L 1230 36.373" fill="none" stroke-width="4" stroke="#007AFF" stroke-opacity="1" stroke-linecap="round" stroke-linejoin="round"/>
    <path d="M 50 158.82L 109 191.33L 143.51 209.78L 168 223.27L 186.99 234.31L 202.51 241.73L 215.63 248.96L 227 255.22L 245.99 266.25L 261.51 274.24L 274.63 282.6L 286 288.3L 304.99 298.76L 320.51 307.31L 333.63 314.54L 345 321.38L 363.99 331.84L 379.51 339.82L 392.63 328.23L 404 334.11L 422.99 363.22L 438.51 371.77L 451.63 347.06L 463 353.32L 481.99 353.21L 497.51 353.13L 510.63 360.36L 522 366.62L 540.99 358.07L 556.51 357.14L 569.63 364.48L 581 362.93L 599.99 363.57L 615.51 366.62L 628.63 368.87L 640 366.62L 658.99 366.62L 674.51 366.62L 687.63 366.62L 699 366.6L 717.99 368.21L 733.51 367.96L 746.63 367.75L 758 367.62L 776.99 367.41L 792.51 367.62L 805.63 367.76L 817 367.87L 835.99 366.62L 851.51 366.3L 864.63 367.04L 876 366.26L 894.99 362.6L 910.51 358.84L 923.63 355.66L 935 354.67L 953.99 351.26L 969.51 349.18L 982.63 347.56L 994 345.19L 1013 344.9L 1028.5 343.94L 1041.6 343.23L 1053 342.72L 1072 341.8L 1087.5 341.58L 1100.6 340.9L 1112 339.05L 1131 339.83L 1146.5 339.71L 1159.6 339.8L 1171 339.04L 1190 338.85L 1205.5 338.34L 1218.6 339.09L 1230 338.81" fill="none" stroke-width="4" stroke="#FF3B30" stroke-opacity="1" stroke-linecap="round" stroke-linejoin="round"/>
    <path d="M 50 157.69L 109 190.76L 143.51 209.78L 168 222.71L 186.99 233.74L 202.51 223.09L 215.63 217.01L 227 223.27L 245.99 223.16L 261.51 223.09L 274.63 230.32L 286 223.13L 304.99 223.05L 320.51 219.3L 333.63 219.77L 345 217.56L 363.99 214.53L 379.51 215.84L 392.63 212.63L 404 210.33L 422.99 209.89L 438.51 206.06L 451.63 207.54L 463 198.97L 481.99 194.55L 497.51 191.31L 510.63 185.8L 522 172.54L 540.99 171.56L 556.51 160.64L 569.63 155.52L 581 147.16L 599.99 148.36L 615.51 141.9L 628.63 139.22L 640 137.31L 658.99 134.41L 674.51 130.98L 687.63 129.79L 699 127.4L 717.99 124.71L 733.51 122.1L 746.63 121.13L 758 119.52L 776.99 116.34L 792.51 114.48L 805.63 113.71L 817 112.83L 835.99 109.37L 851.51 108.21L 864.63 107.92L 876 105.49L 894.99 104.14L 910.51 102.06L 923.63 101.18L 935 95.029L 953.99 99.359L 969.51 93.642L 982.63 93.566L 994 86.206L 1013 89.345L 1028.5 85.979L 1041.6 87.734L 1053 79.517L 1072 83.221L 1087.5 71.141L 1100.6 67.602L 1112 61.829L 1131 66.658L 1146.5 60.496L 1159.6 52.448L 1171 54.259L 1190 50.953L 1205.5 38.884L 1218.6 40.756L 1230 36.373" fill="none" stroke-width="0.5" stroke="#000000" stroke-opacity="0.30196" stroke-linecap="round" stroke-linejoin="round"/>
    <path d="M 50 158.82L 109 191.33L 143.51 209.78L 168 223.27L 186.99 234.31L 202.51 241.73L 215.63 248.96L 227 255.22L 245.99 266.25L 261.51 274.24L 274.63 282.6L 286 288.3L 304.99 298.76L 320.51 307.31L 333.63 314.54L 345 321.38L 363.99 331.84L 379.51 339.82L 392.63 328.23L 404 334.11L 422.99 363.22L 438.51 371.77L 451.63 347.06L 463 353.32L 481.99 353.21L 497.51 353.13L 510.63 360.36L 522 366.62L 540.99 358.07L 556.51 357.14L 569.63 364.48L 581 362.93L 599.99 363.57L 615.51 366.62L 628.63 368.87L 640 366.62L 658.99 366.62L 674.51 366.62L 687.63 366.62L 699 366.6L 717.99 368.21L 733.51 367.96L 746.63 367.75L 758 367.62L 776.99 367.41L 792.51 367.62L 805.63 367.76L 817 367.87L 835.99 366.62L 851.51 366.3L 864.63 367.04L 876 366.26L 894.99 362.6L 910.51 358.84L 923.63 355.66L 935 354.67L 953.99 351.26L 969.51 349.18L 982.63 347.56L 994 345.19L 1013 344.9L 1028.5 343.94L 1041.6 343.23L 1053 342.72L 1072 341.8L 1087.5 341.58L 1100.6 340.9L 1112 339.05L 1131 339.83L 1146.5 339.71L 1159.6 339.8L 1171 339.04L 1190 338.85L 1205.5 338.34L 1218.6 339.09L 1230 338.81" fill="none" stroke-width="0.5" stroke="#000000" stroke-opacity="0.30196" stroke-linecap="round" stroke-linejoin="round"/>
  </g>
  <path d="M 74 33 L 74 88 L 413 88 L 413 33 z" fill="#FFFFFF" fill-opacity="0.7019607843137254" stroke-width="0.5" stroke="#000000" stroke-opacity="1" stroke-linecap="round" stroke-linejoin="round"/>
  <path d="M 88 52 L 108 52" fill="none" stroke-width="4" stroke="#FF3B30" stroke-opacity="1" stroke-linecap="round" stroke-linejoin="round"/>
  <path d="M 88 52 L 108 52" fill="none" stroke-width="0.5" stroke="#000000" stroke-opacity="0.30196" stroke-linecap="round" stroke-linejoin="round"/>
  <text x="119" y="56.17" font-family="Menlo" font-size="12" font-weight="normal" font-style="normal" fill="#000000" fill-opacity="1">Array&lt;Int&gt; mutate through subscript</text>
  <path d="M 88 69 L 108 69" fill="none" stroke-width="4" stroke="#007AFF" stroke-opacity="1" stroke-linecap="round" stroke-linejoin="round"/>
  <path d="M 88 69 L 108 69" fill="none" stroke-width="0.5" stroke="#000000" stroke-opacity="0.30196" stroke-linecap="round" stroke-linejoin="round"/>
  <text x="119" y="73.17" font-family="Menlo" font-size="12" font-weight="normal" font-style="normal" fill="#000000" fill-opacity="1">TreeArray&lt;Int&gt; mutate through subscript</text>
  <path d="M 50 9 L 50 441 L 1230 441 L 1230 9 z" fill="none" stroke-width="0.5" stroke="#000000" stroke-opacity="1" stroke-linecap="round" stroke-linejoin="round"/>
</svg>
