<!DOCTYPE svg PUBLIC "-//W3C//DTD SVG 1.1//EN" "http://www.w3.org/Graphics/SVG/1.1/DTD/svg11.dtd">
<svg width="1280.0px" height="480.0px" viewBox="0.0 0.0 1280.0 480.0" xmlns="http://www.w3.org/2000/svg" xmlns:xlink="http://www.w3.org/1999/xlink" version="1.1">
  <path d="M 0 0 L 0 480 L 1280 480 L 1280 0 z" fill="#FFFFFF" fill-opacity="1.0" stroke="none"/>
  <text x="50" y="468.7" font-family="Helvetica" font-size="10" font-weight="normal" font-style="normal" fill="#000000" fill-opacity="1">Average per-element processing time over input size (bands: min, mean, mean + 2stddev)</text>
  <a xlink:href="https://github.com/apple/swift-collections-benchmark"><text x="1107" y="468.7" font-family="Helvetica" font-size="10" font-weight="normal" font-style="normal" fill="#000000" fill-opacity="1">swift-collections-benchmark</text></a>
  <path d="M 50 9 L 50 441" fill="none" stroke-width="0.75" stroke="#000000" stroke-opacity="0.49804" stroke-linecap="butt" stroke-linejoin="round"/>
  <text x="47" y="453.7" font-family="Helvetica" font-size="10" font-weight="normal" font-style="normal" fill="#000000" fill-opacity="1">1</text>
  <path d="M 109 9 L 109 441" fill="none" stroke-width="0.75" stroke="#000000" stroke-opacity="0.49804" stroke-linecap="butt" stroke-linejoin="round"/>
  <text x="106" y="453.7" font-family="Helvetica" font-size="10" font-weight="normal" font-style="normal" fill="#000000" fill-opacity="1">2</text>
  <path d="M 168 9 L 168 441" fill="none" stroke-width="0.75" stroke="#000000" stroke-opacity="0.49804" stroke-linecap="butt" stroke-linejoin="round"/>
  <text x="165" y="453.7" font-family="Helvetica" font-size="10" font-weight="normal" font-style="normal" fill="#000000" fill-opacity="1">4</text>
  <path d="M 227 9 L 227 441" fill="none" stroke-width="0.75" stroke="#000000" stroke-opacity="0.49804" stroke-linecap="butt" stroke-linejoin="round"/>
  <text x="224" y="453.7" font-family="Helvetica" font-size="10" font-weight="normal" font-style="normal" fill="#000000" fill-opacity="1">8</text>
  <path d="M 286 9 L 286 441" fill="none" stroke-width="0.75" stroke="#000000" stroke-opacity="0.49804" stroke-linecap="butt" stroke-linejoin="round"/>
  <text x="280" y="453.7" font-family="Helvetica" font-size="10" font-weight="normal" font-style="normal" fill="#000000" fill-opacity="1">16</text>
  <path d="M 345 9 L 345 441" fill="none" stroke-width="0.75" stroke="#000000" stroke-opacity="0.49804" stroke-linecap="butt" stroke-linejoin="round"/>
  <text x="339" y="453.7" font-family="Helvetica" font-size="10" font-weight="normal" font-style="normal" fill="#000000" fill-opacity="1">32</text>
  <path d="M 404 9 L 404 441" fill="none" stroke-width="0.75" stroke="#000000" stroke-opacity="0.49804" stroke-linecap="butt" stroke-linejoin="round"/>
  <text x="398" y="453.7" font-family="Helvetica" font-size="10" font-weight="normal" font-style="normal" fill="#000000" fill-opacity="1">64</text>
  <path d="M 463 9 L 463 441" fill="none" stroke-width="0.75" stroke="#000000" stroke-opacity="0.49804" stroke-linecap="butt" stroke-linejoin="round"/>
  <text x="454.5" y="453.7" font-family="Helvetica" font-size="10" font-weight="normal" font-style="normal" fill="#000000" fill-opacity="1">128</text>
  <path d="M 522 9 L 522 441" fill="none" stroke-width="0.75" stroke="#000000" stroke-opacity="0.49804" stroke-linecap="butt" stroke-linejoin="round"/>
  <text x="513.5" y="453.7" font-family="Helvetica" font-size="10" font-weight="normal" font-style="normal" fill="#000000" fill-opacity="1">256</text>
  <path d="M 581 9 L 581 441" fill="none" stroke-width="0.75" stroke="#000000" stroke-opacity="0.49804" stroke-linecap="butt" stroke-linejoin="round"/>
  <text x="572.5" y="453.7" font-family="Helvetica" font-size="10" font-weight="normal" font-style="normal" fill="#000000" fill-opacity="1">512</text>
  <path d="M 640 9 L 640 441" fill="none" stroke-width="0.75" stroke="#000000" stroke-opacity="0.49804" stroke-linecap="butt" stroke-linejoin="round"/>
  <text x="634.5" y="453.7" font-family="Helvetica" font-size="10" font-weight="normal" font-style="normal" fill="#000000" fill-opacity="1">1k</text>
  <path d="M 699 9 L 699 441" fill="none" stroke-width="0.75" stroke="#000000" stroke-opacity="0.49804" stroke-linecap="butt" stroke-linejoin="round"/>
  <text x="693.5" y="453.7" font-family="Helvetica" font-size="10" font-weight="normal" font-style="normal" fill="#000000" fill-opacity="1">2k</text>
  <path d="M 758 9 L 758 441" fill="none" stroke-width="0.75" stroke="#000000" stroke-opacity="0.49804" stroke-linecap="butt" stroke-linejoin="round"/>
  <text x="752.5" y="453.7" font-family="Helvetica" font-size="10" font-weight="normal" font-style="normal" fill="#000000" fill-opacity="1">4k</text>
  <path d="M 817 9 L 817 441" fill="none" stroke-width="0.75" stroke="#000000" stroke-opacity="0.49804" stroke-linecap="butt" stroke-linejoin="round"/>
  <text x="811.5" y="453.7" font-family="Helvetica" font-size="10" font-weight="normal" font-style="normal" fill="#000000" fill-opacity="1">8k</text>
  <path d="M 876 9 L 876 441" fill="none" stroke-width="0.75" stroke="#000000" stroke-opacity="0.49804" stroke-linecap="butt" stroke-linejoin="round"/>
  <text x="867.5" y="453.7" font-family="Helvetica" font-size="10" font-weight="normal" font-style="normal" fill="#000000" fill-opacity="1">16k</text>
  <path d="M 935 9 L 935 441" fill="none" stroke-width="0.75" stroke="#000000" stroke-opacity="0.49804" stroke-linecap="butt" stroke-linejoin="round"/>
  <text x="926.5" y="453.7" font-family="Helvetica" font-size="10" font-weight="normal" font-style="normal" fill="#000000" fill-opacity="1">32k</text>
  <path d="M 994 9 L 994 441" fill="none" stroke-width="0.75" stroke="#000000" stroke-opacity="0.49804" stroke-linecap="butt" stroke-linejoin="round"/>
  <text x="985.5" y="453.7" font-family="Helvetica" font-size="10" font-weight="normal" font-style="normal" fill="#000000" fill-opacity="1">64k</text>
  <path d="M 1053 9 L 1053 441" fill="none" stroke-width="0.75" stroke="#000000" stroke-opacity="0.49804" stroke-linecap="butt" stroke-linejoin="round"/>
  <text x="1042" y="453.7" font-family="Helvetica" font-size="10" font-weight="normal" font-style="normal" fill="#000000" fill-opacity="1">128k</text>
  <path d="M 1112 9 L 1112 441" fill="none" stroke-width="0.75" stroke="#000000" stroke-opacity="0.49804" stroke-linecap="butt" stroke-linejoin="round"/>
  <text x="1101" y="453.7" font-family="Helvetica" font-size="10" font-weight="normal" font-style="normal" fill="#000000" fill-opacity="1">256k</text>
  <path d="M 1171 9 L 1171 441" fill="none" stroke-width="0.75" stroke="#000000" stroke-opacity="0.49804" stroke-linecap="butt" stroke-linejoin="round"/>
  <text x="1160" y="453.7" font-family="Helvetica" font-size="10" font-weight="normal" font-style="normal" fill="#000000" fill-opacity="1">512k</text>
  <path d="M 1230 9 L 1230 441" fill="none" stroke-width="0.75" stroke="#000000" stroke-opacity="0.49804" stroke-linecap="butt" stroke-linejoin="round"/>
  <text x="1223" y="453.7" font-family="Helvetica" font-size="10" font-weight="normal" font-style="normal" fill="#000000" fill-opacity="1">1M</text>
  <path d="M 50 441 L 1230 441" fill="none" stroke-width="0.75" stroke="#000000" stroke-opacity="0.49804" stroke-linecap="butt" stroke-linejoin="round"/>
  <text x="27" y="442.7" font-family="Helvetica" font-size="10" font-weight="normal" font-style="normal" fill="#000000" fill-opacity="1">1 ns</text>
  <text x="1236" y="442.7" font-family="Helvetica" font-size="10" font-weight="normal" font-style="normal" fill="#000000" fill-opacity="1">1 ns</text>
  <path d="M 50 297 L 1230 297" fill="none" stroke-width="0.75" stroke="#000000" stroke-opacity="0.49804" stroke-linecap="butt" stroke-linejoin="round"/>
  <text x="21" y="298.7" font-family="Helvetica" font-size="10" font-weight="normal" font-style="normal" fill="#000000" fill-opacity="1">10 ns</text>
  <text x="1236" y="298.7" font-family="Helvetica" font-size="10" font-weight="normal" font-style="normal" fill="#000000" fill-opacity="1">10 ns</text>
  <path d="M 50 153 L 1230 153" fill="none" stroke-width="0.75" stroke="#000000" stroke-opacity="0.49804" stroke-linecap="butt" stroke-linejoin="round"/>
  <text x="16" y="154.7" font-family="Helvetica" font-size="10" font-weight="normal" font-style="normal" fill="#000000" fill-opacity="1">100 ns</text>
  <text x="1236" y="154.7" font-family="Helvetica" font-size="10" font-weight="normal" font-style="normal" fill="#000000" fill-opacity="1">100 ns</text>
  <path d="M 50 9 L 1230 9" fill="none" stroke-width="0.75" stroke="#000000" stroke-opacity="0.49804" stroke-linecap="butt" stroke-linejoin="round"/>
  <text x="26" y="10.7" font-family="Helvetica" font-size="10" font-weight="normal" font-style="normal" fill="#000000" fill-opacity="1">1 µs</text>
  <text x="1236" y="10.7" font-family="Helvetica" font-size="10" font-weight="normal" font-style="normal" fill="#000000" fill-opacity="1">1 µs</text>
  <path d="M 50 397.65 L 1230 397.65" fill="none" stroke-width="0.5" stroke="#000000" stroke-opacity="0.25882" stroke-linecap="butt" stroke-linejoin="round" stroke-dasharray="6 3" stroke-dashoffset="0"/>
  <path d="M 50 354.3 L 1230 354.3" fill="none" stroke-width="0.5" stroke="#000000" stroke-opacity="0.25882" stroke-linecap="butt" stroke-linejoin="round" stroke-dasharray="6 3" stroke-dashoffset="0"/>
  <path d="M 50 310.96 L 1230 310.96" fill="none" stroke-width="0.5" stroke="#000000" stroke-opacity="0.25882" stroke-linecap="butt" stroke-linejoin="round" stroke-dasharray="6 3" stroke-dashoffset="0"/>
  <path d="M 50 267.61 L 1230 267.61" fill="none" stroke-width="0.5" stroke="#000000" stroke-opacity="0.25882" stroke-linecap="butt" stroke-linejoin="round" stroke-dasharray="6 3" stroke-dashoffset="0"/>
  <path d="M 50 224.26 L 1230 224.26" fill="none" stroke-width="0.5" stroke="#000000" stroke-opacity="0.25882" stroke-linecap="butt" stroke-linejoin="round" stroke-dasharray="6 3" stroke-dashoffset="0"/>
  <path d="M 50 180.91 L 1230 180.91" fill="none" stroke-width="0.5" stroke="#000000" stroke-opacity="0.25882" stroke-linecap="butt" stroke-linejoin="round" stroke-dasharray="6 3" stroke-dashoffset="0"/>
  <path d="M 50 137.56 L 1230 137.56" fill="none" stroke-width="0.5" stroke="#000000" stroke-opacity="0.25882" stroke-linecap="butt" stroke-linejoin="round" stroke-dasharray="6 3" stroke-dashoffset="0"/>
  <path d="M 50 94.213 L 1230 94.213" fill="none" stroke-width="0.5" stroke="#000000" stroke-opacity="0.25882" stroke-linecap="butt" stroke-linejoin="round" stroke-dasharray="6 3" stroke-dashoffset="0"/>
  <path d="M 50 50.865 L 1230 50.865" fill="none" stroke-width="0.5" stroke="#000000" stroke-opacity="0.25882" stroke-linecap="butt" stroke-linejoin="round" stroke-dasharray="6 3" stroke-dashoffset="0"/>
  <path d="M 74 33 L 74 88 L 327 88 L 327 33 z" fill="#FFFFFF" fill-opacity="1.0" stroke="none"/>
  <clipPath id="clip-0">
    <path d="M 50 9 L 50 441 L 1230 441 L 1230 9 z"/>
  </clipPath>
  <g clip-path="url(#clip-0)">
    <path d="M 50 205.91L 109 249.25L 143.51 177.8L 168 184.7L 186.99 160.6L 202.51 190.68L 215.63 185.94L 227 169.89L 245.99 178.66L 261.51 193.8L 274.63 182.72L 286 180.58L 304.99 168.23L 320.51 163.46L 333.63 172.74L 345 160.96L 363.99 170.99L 379.51 164.63L 392.63 162.43L 404 164.38L 422.99 152.1L 438.51 152.81L 451.63 148.97L 463 148.01L 481.99 146.95L 497.51 150.34L 510.63 146.56L 522 141.24L 540.99 143.14L 556.51 139.02L 569.63 139.28L 581 137.2L 599.99 136.77L 615.51 137.37L 628.63 132.27L 640 134.35L 658.99 131.91L 674.51 129.5L 687.63 130.88L 699 127.02L 717.99 127.02L 733.51 126.33L 746.63 123.02L 758 119.47L 776.99 118.38L 792.51 111.2L 805.63 114.88L 817 111.98L 835.99 111.73L 851.51 109.61L 864.63 106.21L 876 106.62L 894.99 104.79L 910.51 102.47L 923.63 101.21L 935 99.791L 953.99 98.097L 969.51 94.84L 982.63 93.532L 994 92.351L 1013 89.009L 1028.5 88.325L 1041.6 87.047L 1053 85.936L 1072 82.158L 1087.5 79.028L 1100.6 75.575L 1112 69.762L 1131 65.895L 1146.5 61.905L 1159.6 58.561L 1171 54.682L 1190 49.1L 1205.5 43.42L 1218.6 41.652L 1230 35.143L 1230 37.392L 1218.6 41.862L 1205.5 46.432L 1190 51.28L 1171 57.537L 1159.6 60.445L 1146.5 63.375L 1131 67.75L 1112 72.948L 1100.6 75.723L 1087.5 79.431L 1072 82.992L 1053 86.11L 1041.6 88.122L 1028.5 88.417L 1013 91.705L 994 93.115L 982.63 94.905L 969.51 96.285L 953.99 98.365L 935 100.43L 923.63 102.01L 910.51 102.91L 894.99 105.13L 876 107.43L 864.63 108.34L 851.51 110.2L 835.99 111.98L 817 115.01L 805.63 116.57L 792.51 118.47L 776.99 118.87L 758 122.87L 746.63 125.05L 733.51 126.52L 717.99 127.89L 699 132.12L 687.63 131.95L 674.51 131.81L 658.99 132.58L 640 136.67L 628.63 139.28L 615.51 137.57L 599.99 140.16L 581 143.82L 569.63 145.98L 556.51 143.55L 540.99 146.14L 522 152.53L 510.63 149.23L 497.51 150.84L 481.99 153.82L 463 153.65L 451.63 155.56L 438.51 158.8L 422.99 161.35L 404 164.41L 392.63 167.85L 379.51 169.86L 363.99 170.99L 345 168.44L 333.63 172.74L 320.51 171.3L 304.99 182.39L 286 196.98L 274.63 188.63L 261.51 193.8L 245.99 186.74L 227 216.24L 215.63 199.46L 202.51 207.75L 186.99 239.7L 168 250.6L 143.51 277.46L 109 252.11L 50 208.76" fill="#007AFF" fill-opacity="0.30196078431372547" stroke="none"/>
    <path d="M 50 208.76L 109 252.11L 143.51 274.61L 168 293.95L 186.99 307.9L 202.51 320.81L 215.63 327.6L 227 335.95L 245.99 352.76L 261.51 361.31L 274.63 372.29L 286 379.3L 304.99 394.6L 320.51 404.66L 333.63 373.04L 345 379.97L 363.99 393.92L 379.51 381.14L 392.63 390.78L 404 368.08L 422.99 394.63L 438.51 382.05L 451.63 390.78L 463 382.06L 481.99 395.16L 497.51 386.99L 510.63 396.27L 522 399.13L 540.99 395.49L 556.51 396.08L 569.63 402.07L 581 401.69L 599.99 397.24L 615.51 399.13L 628.63 399.26L 640 401.82L 658.99 400.31L 674.51 401.8L 687.63 397.87L 699 401.77L 717.99 401.29L 733.51 401.39L 746.63 401.45L 758 401.5L 776.99 402.06L 792.51 401.82L 805.63 401.64L 817 402.14L 835.99 398.64L 851.51 402.03L 864.63 394.95L 876 402.14L 894.99 401.94L 910.51 401.98L 923.63 402.05L 935 402.14L 953.99 398.64L 969.51 402.08L 982.63 402.14L 994 401.95L 1013 402.12L 1028.5 399.82L 1041.6 394.09L 1053 401.94L 1072 402L 1087.5 401.87L 1100.6 399.64L 1112 396.14L 1131 399.04L 1146.5 401.82L 1159.6 395.26L 1171 398.84L 1190 396.79L 1205.5 386.44L 1218.6 380.79L 1230 367.5L 1230 368.77L 1218.6 388.95L 1205.5 395.27L 1190 398.9L 1171 401.46L 1159.6 400.28L 1146.5 401.84L 1131 401.95L 1112 402.07L 1100.6 402.06L 1087.5 402.06L 1072 402.06L 1053 402.11L 1041.6 402.15L 1028.5 402.12L 1013 402.15L 994 402.16L 982.63 402.14L 969.51 402.19L 953.99 402.14L 935 402.14L 923.63 402.23L 910.51 402.19L 894.99 402.2L 876 402.14L 864.63 402.19L 851.51 402.25L 835.99 402.2L 817 402.14L 805.63 402.38L 792.51 402.25L 776.99 402.07L 758 402.14L 746.63 402.18L 733.51 402.24L 717.99 402.34L 699 401.8L 687.63 402.17L 674.51 401.8L 658.99 402.34L 640 401.82L 628.63 402.21L 615.51 399.13L 599.99 401.27L 581 401.82L 569.63 402.21L 556.51 402.65L 540.99 403.38L 522 399.13L 510.63 396.27L 497.51 399.13L 481.99 395.16L 463 399.13L 451.63 390.78L 438.51 406.75L 422.99 395.35L 404 399.13L 392.63 390.78L 379.51 381.14L 363.99 395.35L 345 381.39L 333.63 373.04L 320.51 407.51L 304.99 394.6L 286 382.15L 274.63 372.29L 261.51 364.16L 245.99 352.76L 227 338.8L 215.63 330.45L 202.51 320.81L 186.99 307.9L 168 293.95L 143.51 277.46L 109 252.11L 50 208.76" fill="#FF3B30" fill-opacity="0.30196078431372547" stroke="none"/>
    <path d="M 50 208L 109 251.35L 143.51 233.36L 168 225.74L 186.99 207.85L 202.51 202.82L 215.63 195.64L 227 200.47L 245.99 184.53L 261.51 193.8L 274.63 187.03L 286 192.26L 304.99 178.37L 320.51 169.16L 333.63 172.74L 345 166.4L 363.99 170.99L 379.51 168.45L 392.63 166.39L 404 164.4L 422.99 158.8L 438.51 157.18L 451.63 153.77L 463 152.13L 481.99 151.95L 497.51 150.71L 510.63 148.52L 522 149.38L 540.99 145.34L 556.51 142.33L 569.63 144.16L 581 142.03L 599.99 139.26L 615.51 137.52L 628.63 137.37L 640 136.05L 658.99 132.41L 674.51 131.2L 687.63 131.67L 699 130.75L 717.99 127.66L 733.51 126.47L 746.63 124.51L 758 121.96L 776.99 118.74L 792.51 116.49L 805.63 116.12L 817 114.21L 835.99 111.91L 851.51 110.05L 864.63 107.78L 876 107.22L 894.99 105.04L 910.51 102.8L 923.63 101.8L 935 100.26L 953.99 98.295L 969.51 95.904L 982.63 94.544L 994 92.915L 1013 90.989L 1028.5 88.393L 1041.6 87.839L 1053 86.065L 1072 82.773L 1087.5 79.325L 1100.6 75.684L 1112 72.1L 1131 67.26L 1146.5 62.988L 1159.6 59.947L 1171 56.778L 1190 50.703L 1205.5 45.631L 1218.6 41.807L 1230 36.797" fill="none" stroke-width="4" stroke="#007AFF" stroke-opacity="1" stroke-linecap="round" stroke-linejoin="round"/>
    <path d="M 50 208.76L 109 252.11L 143.51 276.71L 168 293.95L 186.99 307.9L 202.51 320.81L 215.63 329.7L 227 338.05L 245.99 352.76L 261.51 363.4L 274.63 372.29L 286 381.39L 304.99 394.6L 320.51 406.75L 333.63 373.04L 345 381.02L 363.99 394.97L 379.51 381.14L 392.63 390.78L 404 389.42L 422.99 395.16L 438.51 399.3L 451.63 390.78L 463 394.21L 481.99 395.16L 497.51 395.73L 510.63 396.27L 522 399.13L 540.99 401.22L 556.51 400.87L 569.63 402.17L 581 401.79L 599.99 400.19L 615.51 399.13L 628.63 401.43L 640 401.82L 658.99 401.81L 674.51 401.8L 687.63 401.02L 699 401.79L 717.99 402.07L 733.51 402.02L 746.63 401.99L 758 401.97L 776.99 402.07L 792.51 402.14L 805.63 402.19L 817 402.14L 835.99 401.25L 851.51 402.19L 864.63 400.22L 876 402.14L 894.99 402.14L 910.51 402.14L 923.63 402.19L 935 402.14L 953.99 401.2L 969.51 402.17L 982.63 402.14L 994 402.11L 1013 402.15L 1028.5 401.51L 1041.6 399.94L 1053 402.06L 1072 402.04L 1087.5 402.01L 1100.6 401.42L 1112 400.47L 1131 401.18L 1146.5 401.83L 1159.6 398.93L 1171 400.77L 1190 398.34L 1205.5 392.84L 1218.6 386.71L 1230 368.44" fill="none" stroke-width="4" stroke="#FF3B30" stroke-opacity="1" stroke-linecap="round" stroke-linejoin="round"/>
    <path d="M 50 208L 109 251.35L 143.51 233.36L 168 225.74L 186.99 207.85L 202.51 202.82L 215.63 195.64L 227 200.47L 245.99 184.53L 261.51 193.8L 274.63 187.03L 286 192.26L 304.99 178.37L 320.51 169.16L 333.63 172.74L 345 166.4L 363.99 170.99L 379.51 168.45L 392.63 166.39L 404 164.4L 422.99 158.8L 438.51 157.18L 451.63 153.77L 463 152.13L 481.99 151.95L 497.51 150.71L 510.63 148.52L 522 149.38L 540.99 145.34L 556.51 142.33L 569.63 144.16L 581 142.03L 599.99 139.26L 615.51 137.52L 628.63 137.37L 640 136.05L 658.99 132.41L 674.51 131.2L 687.63 131.67L 699 130.75L 717.99 127.66L 733.51 126.47L 746.63 124.51L 758 121.96L 776.99 118.74L 792.51 116.49L 805.63 116.12L 817 114.21L 835.99 111.91L 851.51 110.05L 864.63 107.78L 876 107.22L 894.99 105.04L 910.51 102.8L 923.63 101.8L 935 100.26L 953.99 98.295L 969.51 95.904L 982.63 94.544L 994 92.915L 1013 90.989L 1028.5 88.393L 1041.6 87.839L 1053 86.065L 1072 82.773L 1087.5 79.325L 1100.6 75.684L 1112 72.1L 1131 67.26L 1146.5 62.988L 1159.6 59.947L 1171 56.778L 1190 50.703L 1205.5 45.631L 1218.6 41.807L 1230 36.797" fill="none" stroke-width="0.5" stroke="#000000" stroke-opacity="0.30196" stroke-linecap="round" stroke-linejoin="round"/>
    <path d="M 50 208.76L 109 252.11L 143.51 276.71L 168 293.95L 186.99 307.9L 202.51 320.81L 215.63 329.7L 227 338.05L 245.99 352.76L 261.51 363.4L 274.63 372.29L 286 381.39L 304.99 394.6L 320.51 406.75L 333.63 373.04L 345 381.02L 363.99 394.97L 379.51 381.14L 392.63 390.78L 404 389.42L 422.99 395.16L 438.51 399.3L 451.63 390.78L 463 394.21L 481.99 395.16L 497.51 395.73L 510.63 396.27L 522 399.13L 540.99 401.22L 556.51 400.87L 569.63 402.17L 581 401.79L 599.99 400.19L 615.51 399.13L 628.63 401.43L 640 401.82L 658.99 401.81L 674.51 401.8L 687.63 401.02L 699 401.79L 717.99 402.07L 733.51 402.02L 746.63 401.99L 758 401.97L 776.99 402.07L 792.51 402.14L 805.63 402.19L 817 402.14L 835.99 401.25L 851.51 402.19L 864.63 400.22L 876 402.14L 894.99 402.14L 910.51 402.14L 923.63 402.19L 935 402.14L 953.99 401.2L 969.51 402.17L 982.63 402.14L 994 402.11L 1013 402.15L 1028.5 401.51L 1041.6 399.94L 1053 402.06L 1072 402.04L 1087.5 402.01L 1100.6 401.42L 1112 400.47L 1131 401.18L 1146.5 401.83L 1159.6 398.93L 1171 400.77L 1190 398.34L 1205.5 392.84L 1218.6 386.71L 1230 368.44" fill="none" stroke-width="0.5" stroke="#000000" stroke-opacity="0.30196" stroke-linecap="round" stroke-linejoin="round"/>
  </g>
  <path d="M 74 33 L 74 88 L 327 88 L 327 33 z" fill="#FFFFFF" fill-opacity="0.7019607843137254" stroke-width="0.5" stroke="#000000" stroke-opacity="1" stroke-linecap="round" stroke-linejoin="round"/>
  <path d="M 88 52 L 108 52" fill="none" stroke-width="4" stroke="#FF3B30" stroke-opacity="1" stroke-linecap="round" stroke-linejoin="round"/>
  <path d="M 88 52 L 108 52" fill="none" stroke-width="0.5" stroke="#000000" stroke-opacity="0.30196" stroke-linecap="round" stroke-linejoin="round"/>
  <text x="119" y="56.17" font-family="Menlo" font-size="12" font-weight="normal" font-style="normal" fill="#000000" fill-opacity="1">Array&lt;Int&gt; random swaps</text>
  <path d="M 88 69 L 108 69" fill="none" stroke-width="4" stroke="#007AFF" stroke-opacity="1" stroke-linecap="round" stroke-linejoin="round"/>
  <path d="M 88 69 L 108 69" fill="none" stroke-width="0.5" stroke="#000000" stroke-opacity="0.30196" stroke-linecap="round" stroke-linejoin="round"/>
  <text x="119" y="73.17" font-family="Menlo" font-size="12" font-weight="normal" font-style="normal" fill="#000000" fill-opacity="1">TreeArray&lt;Int&gt; random swaps</text>
  <path d="M 50 9 L 50 441 L 1230 441 L 1230 9 z" fill="none" stroke-width="0.5" stroke="#000000" stroke-opacity="1" stroke-linecap="round" stroke-linejoin="round"/>
</svg>
