<!DOCTYPE svg PUBLIC "-//W3C//DTD SVG 1.1//EN" "http://www.w3.org/Graphics/SVG/1.1/DTD/svg11.dtd">
<svg width="1280.0px" height="480.0px" viewBox="0.0 0.0 1280.0 480.0" xmlns="http://www.w3.org/2000/svg" xmlns:xlink="http://www.w3.org/1999/xlink" version="1.1">
  <path d="M 0 0 L 0 480 L 1280 480 L 1280 0 z" fill="#FFFFFF" fill-opacity="1.0" stroke="none"/>
  <text x="50" y="468.7" font-family="Helvetica" font-size="10" font-weight="normal" font-style="normal" fill="#000000" fill-opacity="1">Average per-element processing time over input size (bands: min, mean, mean + 2stddev)</text>
  <a xlink:href="https://github.com/apple/swift-collections-benchmark"><text x="1107" y="468.7" font-family="Helvetica" font-size="10" font-weight="normal" font-style="normal" fill="#000000" fill-opacity="1">swift-collections-benchmark</text></a>
  <path d="M 50 9 L 50 441" fill="none" stroke-width="0.75" stroke="#000000" stroke-opacity="0.49804" stroke-linecap="butt" stroke-linejoin="round"/>
  <text x="47" y="453.7" font-family="Helvetica" font-size="10" font-weight="normal" font-style="normal" fill="#000000" fill-opacity="1">1</text>
  <path d="M 109 9 L 109 441" fill="none" stroke-width="0.75" stroke="#000000" stroke-opacity="0.49804" stroke-linecap="butt" stroke-linejoin="round"/>
  <text x="106" y="453.7" font-family="Helvetica" font-size="10" font-weight="normal" font-style="normal" fill="#000000" fill-opacity="1">2</text>
  <path d="M 168 9 L 168 441" fill="none" stroke-width="0.75" stroke="#000000" stroke-opacity="0.49804" stroke-linecap="butt" stroke-linejoin="round"/>
  <text x="165" y="453.7" font-family="Helvetica" font-size="10" font-weight="normal" font-style="normal" fill="#000000" fill-opacity="1">4</text>
  <path d="M 227 9 L 227 441" fill="none" stroke-width="0.75" stroke="#000000" stroke-opacity="0.49804" stroke-linecap="butt" stroke-linejoin="round"/>
  <text x="224" y="453.7" font-family="Helvetica" font-size="10" font-weight="normal" font-style="normal" fill="#000000" fill-opacity="1">8</text>
  <path d="M 286 9 L 286 441" fill="none" stroke-width="0.75" stroke="#000000" stroke-opacity="0.49804" stroke-linecap="butt" stroke-linejoin="round"/>
  <text x="280" y="453.7" font-family="Helvetica" font-size="10" font-weight="normal" font-style="normal" fill="#000000" fill-opacity="1">16</text>
  <path d="M 345 9 L 345 441" fill="none" stroke-width="0.75" stroke="#000000" stroke-opacity="0.49804" stroke-linecap="butt" stroke-linejoin="round"/>
  <text x="339" y="453.7" font-family="Helvetica" font-size="10" font-weight="normal" font-style="normal" fill="#000000" fill-opacity="1">32</text>
  <path d="M 404 9 L 404 441" fill="none" stroke-width="0.75" stroke="#000000" stroke-opacity="0.49804" stroke-linecap="butt" stroke-linejoin="round"/>
  <text x="398" y="453.7" font-family="Helvetica" font-size="10" font-weight="normal" font-style="normal" fill="#000000" fill-opacity="1">64</text>
  <path d="M 463 9 L 463 441" fill="none" stroke-width="0.75" stroke="#000000" stroke-opacity="0.49804" stroke-linecap="butt" stroke-linejoin="round"/>
  <text x="454.5" y="453.7" font-family="Helvetica" font-size="10" font-weight="normal" font-style="normal" fill="#000000" fill-opacity="1">128</text>
  <path d="M 522 9 L 522 441" fill="none" stroke-width="0.75" stroke="#000000" stroke-opacity="0.49804" stroke-linecap="butt" stroke-linejoin="round"/>
  <text x="513.5" y="453.7" font-family="Helvetica" font-size="10" font-weight="normal" font-style="normal" fill="#000000" fill-opacity="1">256</text>
  <path d="M 581 9 L 581 441" fill="none" stroke-width="0.75" stroke="#000000" stroke-opacity="0.49804" stroke-linecap="butt" stroke-linejoin="round"/>
  <text x="572.5" y="453.7" font-family="Helvetica" font-size="10" font-weight="normal" font-style="normal" fill="#000000" fill-opacity="1">512</text>
  <path d="M 640 9 L 640 441" fill="none" stroke-width="0.75" stroke="#000000" stroke-opacity="0.49804" stroke-linecap="butt" stroke-linejoin="round"/>
  <text x="634.5" y="453.7" font-family="Helvetica" font-size="10" font-weight="normal" font-style="normal" fill="#000000" fill-opacity="1">1k</text>
  <path d="M 699 9 L 699 441" fill="none" stroke-width="0.75" stroke="#000000" stroke-opacity="0.49804" stroke-linecap="butt" stroke-linejoin="round"/>
  <text x="693.5" y="453.7" font-family="Helvetica" font-size="10" font-weight="normal" font-style="normal" fill="#000000" fill-opacity="1">2k</text>
  <path d="M 758 9 L 758 441" fill="none" stroke-width="0.75" stroke="#000000" stroke-opacity="0.49804" stroke-linecap="butt" stroke-linejoin="round"/>
  <text x="752.5" y="453.7" font-family="Helvetica" font-size="10" font-weight="normal" font-style="normal" fill="#000000" fill-opacity="1">4k</text>
  <path d="M 817 9 L 817 441" fill="none" stroke-width="0.75" stroke="#000000" stroke-opacity="0.49804" stroke-linecap="butt" stroke-linejoin="round"/>
  <text x="811.5" y="453.7" font-family="Helvetica" font-size="10" font-weight="normal" font-style="normal" fill="#000000" fill-opacity="1">8k</text>
  <path d="M 876 9 L 876 441" fill="none" stroke-width="0.75" stroke="#000000" stroke-opacity="0.49804" stroke-linecap="butt" stroke-linejoin="round"/>
  <text x="867.5" y="453.7" font-family="Helvetica" font-size="10" font-weight="normal" font-style="normal" fill="#000000" fill-opacity="1">16k</text>
  <path d="M 935 9 L 935 441" fill="none" stroke-width="0.75" stroke="#000000" stroke-opacity="0.49804" stroke-linecap="butt" stroke-linejoin="round"/>
  <text x="926.5" y="453.7" font-family="Helvetica" font-size="10" font-weight="normal" font-style="normal" fill="#000000" fill-opacity="1">32k</text>
  <path d="M 994 9 L 994 441" fill="none" stroke-width="0.75" stroke="#000000" stroke-opacity="0.49804" stroke-linecap="butt" stroke-linejoin="round"/>
  <text x="985.5" y="453.7" font-family="Helvetica" font-size="10" font-weight="normal" font-style="normal" fill="#000000" fill-opacity="1">64k</text>
  <path d="M 1053 9 L 1053 441" fill="none" stroke-width="0.75" stroke="#000000" stroke-opacity="0.49804" stroke-linecap="butt" stroke-linejoin="round"/>
  <text x="1042" y="453.7" font-family="Helvetica" font-size="10" font-weight="normal" font-style="normal" fill="#000000" fill-opacity="1">128k</text>
  <path d="M 1112 9 L 1112 441" fill="none" stroke-width="0.75" stroke="#000000" stroke-opacity="0.49804" stroke-linecap="butt" stroke-linejoin="round"/>
  <text x="1101" y="453.7" font-family="Helvetica" font-size="10" font-weight="normal" font-style="normal" fill="#000000" fill-opacity="1">256k</text>
  <path d="M 1171 9 L 1171 441" fill="none" stroke-width="0.75" stroke="#000000" stroke-opacity="0.49804" stroke-linecap="butt" stroke-linejoin="round"/>
  <text x="1160" y="453.7" font-family="Helvetica" font-size="10" font-weight="normal" font-style="normal" fill="#000000" fill-opacity="1">512k</text>
  <path d="M 1230 9 L 1230 441" fill="none" stroke-width="0.75" stroke="#000000" stroke-opacity="0.49804" stroke-linecap="butt" stroke-linejoin="round"/>
  <text x="1223" y="453.7" font-family="Helvetica" font-size="10" font-weight="normal" font-style="normal" fill="#000000" fill-opacity="1">1M</text>
  <path d="M 50 441 L 1230 441" fill="none" stroke-width="0.75" stroke="#000000" stroke-opacity="0.49804" stroke-linecap="butt" stroke-linejoin="round"/>
  <text x="27" y="442.7" font-family="Helvetica" font-size="10" font-weight="normal" font-style="normal" fill="#000000" fill-opacity="1">1 ns</text>
  <text x="1236" y="442.7" font-family="Helvetica" font-size="10" font-weight="normal" font-style="normal" fill="#000000" fill-opacity="1">1 ns</text>
  <path d="M 50 297 L 1230 297" fill="none" stroke-width="0.75" stroke="#000000" stroke-opacity="0.49804" stroke-linecap="butt" stroke-linejoin="round"/>
  <text x="21" y="298.7" font-family="Helvetica" font-size="10" font-weight="normal" font-style="normal" fill="#000000" fill-opacity="1">10 ns</text>
  <text x="1236" y="298.7" font-family="Helvetica" font-size="10" font-weight="normal" font-style="normal" fill="#000000" fill-opacity="1">10 ns</text>
  <path d="M 50 153 L 1230 153" fill="none" stroke-width="0.75" stroke="#000000" stroke-opacity="0.49804" stroke-linecap="butt" stroke-linejoin="round"/>
  <text x="16" y="154.7" font-family="Helvetica" font-size="10" font-weight="normal" font-style="normal" fill="#000000" fill-opacity="1">100 ns</text>
  <text x="1236" y="154.7" font-family="Helvetica" font-size="10" font-weight="normal" font-style="normal" fill="#000000" fill-opacity="1">100 ns</text>
  <path d="M 50 9 L 1230 9" fill="none" stroke-width="0.75" stroke="#000000" stroke-opacity="0.49804" stroke-linecap="butt" stroke-linejoin="round"/>
  <text x="26" y="10.7" font-family="Helvetica" font-size="10" font-weight="normal" font-style="normal" fill="#000000" fill-opacity="1">1 µs</text>
  <text x="1236" y="10.7" font-family="Helvetica" font-size="10" font-weight="normal" font-style="normal" fill="#000000" fill-opacity="1">1 µs</text>
  <path d="M 50 397.65 L 1230 397.65" fill="none" stroke-width="0.5" stroke="#000000" stroke-opacity="0.25882" stroke-linecap="butt" stroke-linejoin="round" stroke-dasharray="6 3" stroke-dashoffset="0"/>
  <path d="M 50 354.3 L 1230 354.3" fill="none" stroke-width="0.5" stroke="#000000" stroke-opacity="0.25882" stroke-linecap="butt" stroke-linejoin="round" stroke-dasharray="6 3" stroke-dashoffset="0"/>
  <path d="M 50 310.96 L 1230 310.96" fill="none" stroke-width="0.5" stroke="#000000" stroke-opacity="0.25882" stroke-linecap="butt" stroke-linejoin="round" stroke-dasharray="6 3" stroke-dashoffset="0"/>
  <path d="M 50 267.61 L 1230 267.61" fill="none" stroke-width="0.5" stroke="#000000" stroke-opacity="0.25882" stroke-linecap="butt" stroke-linejoin="round" stroke-dasharray="6 3" stroke-dashoffset="0"/>
  <path d="M 50 224.26 L 1230 224.26" fill="none" stroke-width="0.5" stroke="#000000" stroke-opacity="0.25882" stroke-linecap="butt" stroke-linejoin="round" stroke-dasharray="6 3" stroke-dashoffset="0"/>
  <path d="M 50 180.91 L 1230 180.91" fill="none" stroke-width="0.5" stroke="#000000" stroke-opacity="0.25882" stroke-linecap="butt" stroke-linejoin="round" stroke-dasharray="6 3" stroke-dashoffset="0"/>
  <path d="M 50 137.56 L 1230 137.56" fill="none" stroke-width="0.5" stroke="#000000" stroke-opacity="0.25882" stroke-linecap="butt" stroke-linejoin="round" stroke-dasharray="6 3" stroke-dashoffset="0"/>
  <path d="M 50 94.213 L 1230 94.213" fill="none" stroke-width="0.5" stroke="#000000" stroke-opacity="0.25882" stroke-linecap="butt" stroke-linejoin="round" stroke-dasharray="6 3" stroke-dashoffset="0"/>
  <path d="M 50 50.865 L 1230 50.865" fill="none" stroke-width="0.5" stroke="#000000" stroke-opacity="0.25882" stroke-linecap="butt" stroke-linejoin="round" stroke-dasharray="6 3" stroke-dashoffset="0"/>
  <path d="M 74 33 L 74 88 L 327 88 L 327 33 z" fill="#FFFFFF" fill-opacity="1.0" stroke="none"/>
  <clipPath id="clip-0">
    <path d="M 50 9 L 50 441 L 1230 441 L 1230 9 z"/>
  </clipPath>
  <g clip-path="url(#clip-0)">
    <path d="M 50 205.91L 109 252.11L 143.51 275.96L 168 225.74L 186.99 197.49L 202.51 183.76L 215.63 199.95L 227 188.24L 245.99 175.96L 261.51 170.81L 274.63 167.88L 286 182.5L 304.99 180.28L 320.51 174.44L 333.63 174.24L 345 165.73L 363.99 161.74L 379.51 161.87L 392.63 157.47L 404 154.91L 422.99 150.6L 438.51 157.07L 451.63 150.55L 463 153.88L 481.99 152.89L 497.51 148.41L 510.63 148.3L 522 147.43L 540.99 144.91L 556.51 144.86L 569.63 136.33L 581 141.56L 599.99 135.91L 615.51 138.52L 628.63 137.29L 640 137.5L 658.99 132.03L 674.51 133.81L 687.63 131.16L 699 130.65L 717.99 127.18L 733.51 122.74L 746.63 123.1L 758 120.75L 776.99 117.95L 792.51 117.94L 805.63 115.52L 817 110.64L 835.99 111.67L 851.51 110.49L 864.63 107.36L 876 106.93L 894.99 103.88L 910.51 101.88L 923.63 100.81L 935 99.299L 953.99 97.269L 969.51 96.422L 982.63 94.444L 994 93.133L 1013 91.513L 1028.5 90.01L 1041.6 87.749L 1053 87.499L 1072 83.497L 1087.5 82.017L 1100.6 79.369L 1112 74.956L 1131 69.704L 1146.5 47.119L 1159.6 52.925L 1171 52.627L 1190 46.59L 1205.5 47.227L 1218.6 25.412L 1230 29.912L 1230 42.137L 1218.6 41.833L 1205.5 50.231L 1190 54.131L 1171 60.188L 1159.6 63.089L 1146.5 67.373L 1131 71.356L 1112 76.818L 1100.6 79.818L 1087.5 82.669L 1072 85.522L 1053 87.614L 1041.6 88.791L 1028.5 90.172L 1013 91.828L 994 93.633L 982.63 95.08L 969.51 96.759L 953.99 98.227L 935 100.58L 923.63 100.87L 910.51 102.72L 894.99 105.15L 876 106.98L 864.63 109.22L 851.51 110.93L 835.99 112.01L 817 114.61L 805.63 115.95L 792.51 118.51L 776.99 122L 758 123.92L 746.63 126.5L 733.51 127.2L 717.99 130.72L 699 132.43L 687.63 133L 674.51 133.95L 658.99 135.73L 640 137.54L 628.63 139.04L 615.51 138.77L 599.99 142.8L 581 142.22L 569.63 147.5L 556.51 145.2L 540.99 146.43L 522 148.14L 510.63 149.56L 497.51 154.76L 481.99 154.15L 463 154.27L 451.63 158.29L 438.51 157.62L 422.99 161.73L 404 165.39L 392.63 167.84L 379.51 178.2L 363.99 170.99L 345 173.9L 333.63 179.5L 320.51 177.39L 304.99 180.37L 286 187.88L 274.63 203.44L 261.51 198.15L 245.99 214.34L 227 200.38L 215.63 217.39L 202.51 219.25L 186.99 221.58L 168 225.74L 143.51 275.96L 109 252.11L 50 208.76" fill="#007AFF" fill-opacity="0.30196078431372547" stroke="none"/>
    <path d="M 50 205.91L 109 249.25L 143.51 275.96L 168 295.46L 186.99 307.9L 202.51 317.96L 215.63 327.6L 227 338.8L 245.99 351.25L 261.51 361.31L 274.63 370.95L 286 379.3L 304.99 394.6L 320.51 407.51L 333.63 415.64L 345 381.39L 363.99 393.92L 379.51 381.14L 392.63 390.78L 404 399.13L 422.99 395.35L 438.51 382.05L 451.63 401.71L 463 399.13L 481.99 395.16L 497.51 399.13L 510.63 396.13L 522 399.13L 540.99 399.13L 556.51 392.91L 569.63 391.29L 581 396.78L 599.99 401.27L 615.51 400.91L 628.63 399.26L 640 401.82L 658.99 400.26L 674.51 398.43L 687.63 400.72L 699 401.8L 717.99 401.81L 733.51 401.38L 746.63 402.17L 758 401.83L 776.99 402.07L 792.51 401.61L 805.63 401.81L 817 401.82L 835.99 398.52L 851.51 398.54L 864.63 402.1L 876 398.57L 894.99 402.14L 910.51 402.09L 923.63 398.64L 935 402.18L 953.99 402.11L 969.51 402.06L 982.63 401.98L 994 394.8L 1013 402.06L 1028.5 402.07L 1041.6 401.52L 1053 402.03L 1072 402L 1087.5 401.99L 1100.6 401.93L 1112 384.72L 1131 397.62L 1146.5 399.89L 1159.6 401.18L 1171 400.79L 1190 397.66L 1205.5 342.79L 1218.6 383.68L 1230 371.45L 1230 372.92L 1218.6 385.66L 1205.5 395.03L 1190 400.1L 1171 401.12L 1159.6 401.66L 1146.5 401.56L 1131 401.94L 1112 400.64L 1100.6 402.03L 1087.5 402.04L 1072 402L 1053 402.05L 1041.6 401.92L 1028.5 402.12L 1013 402.15L 994 402.16L 982.63 402.21L 969.51 402.17L 953.99 402.24L 935 402.18L 923.63 402.19L 910.51 402.19L 894.99 402.14L 876 402.22L 864.63 402.28L 851.51 402.14L 835.99 402.34L 817 402.14L 805.63 402.19L 792.51 402.48L 776.99 402.07L 758 402.47L 746.63 402.19L 733.51 402.25L 717.99 401.81L 699 401.8L 687.63 402.17L 674.51 401.8L 658.99 402.34L 640 401.82L 628.63 402.21L 615.51 400.91L 599.99 401.27L 581 401.82L 569.63 402.21L 556.51 399.13L 540.99 399.13L 522 399.13L 510.63 396.13L 497.51 399.13L 481.99 395.16L 463 399.13L 451.63 402.29L 438.51 406.75L 422.99 395.35L 404 399.13L 392.63 390.78L 379.51 381.14L 363.99 395.35L 345 381.39L 333.63 415.64L 320.51 407.51L 304.99 394.6L 286 382.15L 274.63 373.8L 261.51 364.16L 245.99 351.25L 227 338.8L 215.63 330.45L 202.51 320.81L 186.99 307.9L 168 295.46L 143.51 275.96L 109 252.11L 50 208.76" fill="#FF3B30" fill-opacity="0.30196078431372547" stroke="none"/>
    <path d="M 50 208L 109 252.11L 143.51 275.96L 168 225.74L 186.99 214.34L 202.51 207.88L 215.63 212.35L 227 196.98L 245.99 201.84L 261.51 189.77L 274.63 192.03L 286 186.43L 304.99 180.35L 320.51 176.6L 333.63 178.08L 345 171.66L 363.99 168.44L 379.51 173.51L 392.63 164.96L 404 162.48L 422.99 158.62L 438.51 157.47L 451.63 156.18L 463 154.17L 481.99 153.82L 497.51 153.04L 510.63 149.23L 522 147.96L 540.99 146.03L 556.51 145.11L 569.63 144.39L 581 142.05L 599.99 140.93L 615.51 138.71L 628.63 138.58L 640 137.53L 658.99 134.74L 674.51 133.91L 687.63 132.51L 699 131.96L 717.99 129.78L 733.51 126.01L 746.63 125.59L 758 123.07L 776.99 120.92L 792.51 118.36L 805.63 115.84L 817 113.55L 835.99 111.92L 851.51 110.82L 864.63 108.73L 876 106.97L 894.99 104.82L 910.51 102.5L 923.63 100.86L 935 100.25L 953.99 97.976L 969.51 96.671L 982.63 94.913L 994 93.502L 1013 91.745L 1028.5 90.13L 1041.6 88.517L 1053 87.584L 1072 84.987L 1087.5 82.498L 1100.6 79.7L 1112 76.326L 1131 70.92L 1146.5 61.418L 1159.6 60.271L 1171 58.123L 1190 52.072L 1205.5 49.432L 1218.6 37.11L 1230 38.706" fill="none" stroke-width="4" stroke="#007AFF" stroke-opacity="1" stroke-linecap="round" stroke-linejoin="round"/>
    <path d="M 50 208L 109 251.35L 143.51 275.96L 168 295.46L 186.99 307.9L 202.51 320.05L 215.63 329.7L 227 338.8L 245.99 351.25L 261.51 363.4L 274.63 373.04L 286 381.39L 304.99 394.6L 320.51 407.51L 333.63 415.64L 345 381.39L 363.99 394.97L 379.51 381.14L 392.63 390.78L 404 399.13L 422.99 395.35L 438.51 399.3L 451.63 402.14L 463 399.13L 481.99 395.16L 497.51 399.13L 510.63 396.13L 522 399.13L 540.99 399.13L 556.51 397.45L 569.63 399.17L 581 400.46L 599.99 401.27L 615.51 400.91L 628.63 401.43L 640 401.82L 658.99 401.79L 674.51 400.9L 687.63 401.79L 699 401.8L 717.99 401.81L 733.51 402.03L 746.63 402.19L 758 402.31L 776.99 402.07L 792.51 402.25L 805.63 402.09L 817 402.05L 835.99 401.32L 851.51 401.18L 864.63 402.23L 876 401.25L 894.99 402.14L 910.51 402.17L 923.63 401.24L 935 402.18L 953.99 402.21L 969.51 402.14L 982.63 402.15L 994 400.15L 1013 402.13L 1028.5 402.11L 1041.6 401.81L 1053 402.05L 1072 402L 1087.5 402.03L 1100.6 402L 1112 396.07L 1131 400.78L 1146.5 401.12L 1159.6 401.53L 1171 401.03L 1190 399.46L 1205.5 376.68L 1218.6 385.14L 1230 372.53" fill="none" stroke-width="4" stroke="#FF3B30" stroke-opacity="1" stroke-linecap="round" stroke-linejoin="round"/>
    <path d="M 50 208L 109 252.11L 143.51 275.96L 168 225.74L 186.99 214.34L 202.51 207.88L 215.63 212.35L 227 196.98L 245.99 201.84L 261.51 189.77L 274.63 192.03L 286 186.43L 304.99 180.35L 320.51 176.6L 333.63 178.08L 345 171.66L 363.99 168.44L 379.51 173.51L 392.63 164.96L 404 162.48L 422.99 158.62L 438.51 157.47L 451.63 156.18L 463 154.17L 481.99 153.82L 497.51 153.04L 510.63 149.23L 522 147.96L 540.99 146.03L 556.51 145.11L 569.63 144.39L 581 142.05L 599.99 140.93L 615.51 138.71L 628.63 138.58L 640 137.53L 658.99 134.74L 674.51 133.91L 687.63 132.51L 699 131.96L 717.99 129.78L 733.51 126.01L 746.63 125.59L 758 123.07L 776.99 120.92L 792.51 118.36L 805.63 115.84L 817 113.55L 835.99 111.92L 851.51 110.82L 864.63 108.73L 876 106.97L 894.99 104.82L 910.51 102.5L 923.63 100.86L 935 100.25L 953.99 97.976L 969.51 96.671L 982.63 94.913L 994 93.502L 1013 91.745L 1028.5 90.13L 1041.6 88.517L 1053 87.584L 1072 84.987L 1087.5 82.498L 1100.6 79.7L 1112 76.326L 1131 70.92L 1146.5 61.418L 1159.6 60.271L 1171 58.123L 1190 52.072L 1205.5 49.432L 1218.6 37.11L 1230 38.706" fill="none" stroke-width="0.5" stroke="#000000" stroke-opacity="0.30196" stroke-linecap="round" stroke-linejoin="round"/>
    <path d="M 50 208L 109 251.35L 143.51 275.96L 168 295.46L 186.99 307.9L 202.51 320.05L 215.63 329.7L 227 338.8L 245.99 351.25L 261.51 363.4L 274.63 373.04L 286 381.39L 304.99 394.6L 320.51 407.51L 333.63 415.64L 345 381.39L 363.99 394.97L 379.51 381.14L 392.63 390.78L 404 399.13L 422.99 395.35L 438.51 399.3L 451.63 402.14L 463 399.13L 481.99 395.16L 497.51 399.13L 510.63 396.13L 522 399.13L 540.99 399.13L 556.51 397.45L 569.63 399.17L 581 400.46L 599.99 401.27L 615.51 400.91L 628.63 401.43L 640 401.82L 658.99 401.79L 674.51 400.9L 687.63 401.79L 699 401.8L 717.99 401.81L 733.51 402.03L 746.63 402.19L 758 402.31L 776.99 402.07L 792.51 402.25L 805.63 402.09L 817 402.05L 835.99 401.32L 851.51 401.18L 864.63 402.23L 876 401.25L 894.99 402.14L 910.51 402.17L 923.63 401.24L 935 402.18L 953.99 402.21L 969.51 402.14L 982.63 402.15L 994 400.15L 1013 402.13L 1028.5 402.11L 1041.6 401.81L 1053 402.05L 1072 402L 1087.5 402.03L 1100.6 402L 1112 396.07L 1131 400.78L 1146.5 401.12L 1159.6 401.53L 1171 401.03L 1190 399.46L 1205.5 376.68L 1218.6 385.14L 1230 372.53" fill="none" stroke-width="0.5" stroke="#000000" stroke-opacity="0.30196" stroke-linecap="round" stroke-linejoin="round"/>
  </g>
  <path d="M 74 33 L 74 88 L 327 88 L 327 33 z" fill="#FFFFFF" fill-opacity="0.7019607843137254" stroke-width="0.5" stroke="#000000" stroke-opacity="1" stroke-linecap="round" stroke-linejoin="round"/>
  <path d="M 88 52 L 108 52" fill="none" stroke-width="4" stroke="#FF3B30" stroke-opacity="1" stroke-linecap="round" stroke-linejoin="round"/>
  <path d="M 88 52 L 108 52" fill="none" stroke-width="0.5" stroke="#000000" stroke-opacity="0.30196" stroke-linecap="round" stroke-linejoin="round"/>
  <text x="119" y="56.17" font-family="Menlo" font-size="12" font-weight="normal" font-style="normal" fill="#000000" fill-opacity="1">Array&lt;Int&gt; random swaps</text>
  <path d="M 88 69 L 108 69" fill="none" stroke-width="4" stroke="#007AFF" stroke-opacity="1" stroke-linecap="round" stroke-linejoin="round"/>
  <path d="M 88 69 L 108 69" fill="none" stroke-width="0.5" stroke="#000000" stroke-opacity="0.30196" stroke-linecap="round" stroke-linejoin="round"/>
  <text x="119" y="73.17" font-family="Menlo" font-size="12" font-weight="normal" font-style="normal" fill="#000000" fill-opacity="1">TreeArray&lt;Int&gt; random swaps</text>
  <path d="M 50 9 L 50 441 L 1230 441 L 1230 9 z" fill="none" stroke-width="0.5" stroke="#000000" stroke-opacity="1" stroke-linecap="round" stroke-linejoin="round"/>
</svg>
