<!DOCTYPE svg PUBLIC "-//W3C//DTD SVG 1.1//EN" "http://www.w3.org/Graphics/SVG/1.1/DTD/svg11.dtd">
<svg width="1280.0px" height="480.0px" viewBox="0.0 0.0 1280.0 480.0" xmlns="http://www.w3.org/2000/svg" xmlns:xlink="http://www.w3.org/1999/xlink" version="1.1">
  <path d="M 0 0 L 0 480 L 1280 480 L 1280 0 z" fill="#FFFFFF" fill-opacity="1.0" stroke="none"/>
  <text x="50" y="468.7" font-family="Helvetica" font-size="10" font-weight="normal" font-style="normal" fill="#000000" fill-opacity="1">Average per-element processing time over input size (bands: min, mean, mean + 2stddev)</text>
  <a xlink:href="https://github.com/apple/swift-collections-benchmark"><text x="1107" y="468.7" font-family="Helvetica" font-size="10" font-weight="normal" font-style="normal" fill="#000000" fill-opacity="1">swift-collections-benchmark</text></a>
  <path d="M 50 9 L 50 441" fill="none" stroke-width="0.75" stroke="#000000" stroke-opacity="0.49804" stroke-linecap="butt" stroke-linejoin="round"/>
  <text x="47" y="453.7" font-family="Helvetica" font-size="10" font-weight="normal" font-style="normal" fill="#000000" fill-opacity="1">1</text>
  <path d="M 109 9 L 109 441" fill="none" stroke-width="0.75" stroke="#000000" stroke-opacity="0.49804" stroke-linecap="butt" stroke-linejoin="round"/>
  <text x="106" y="453.7" font-family="Helvetica" font-size="10" font-weight="normal" font-style="normal" fill="#000000" fill-opacity="1">2</text>
  <path d="M 168 9 L 168 441" fill="none" stroke-width="0.75" stroke="#000000" stroke-opacity="0.49804" stroke-linecap="butt" stroke-linejoin="round"/>
  <text x="165" y="453.7" font-family="Helvetica" font-size="10" font-weight="normal" font-style="normal" fill="#000000" fill-opacity="1">4</text>
  <path d="M 227 9 L 227 441" fill="none" stroke-width="0.75" stroke="#000000" stroke-opacity="0.49804" stroke-linecap="butt" stroke-linejoin="round"/>
  <text x="224" y="453.7" font-family="Helvetica" font-size="10" font-weight="normal" font-style="normal" fill="#000000" fill-opacity="1">8</text>
  <path d="M 286 9 L 286 441" fill="none" stroke-width="0.75" stroke="#000000" stroke-opacity="0.49804" stroke-linecap="butt" stroke-linejoin="round"/>
  <text x="280" y="453.7" font-family="Helvetica" font-size="10" font-weight="normal" font-style="normal" fill="#000000" fill-opacity="1">16</text>
  <path d="M 345 9 L 345 441" fill="none" stroke-width="0.75" stroke="#000000" stroke-opacity="0.49804" stroke-linecap="butt" stroke-linejoin="round"/>
  <text x="339" y="453.7" font-family="Helvetica" font-size="10" font-weight="normal" font-style="normal" fill="#000000" fill-opacity="1">32</text>
  <path d="M 404 9 L 404 441" fill="none" stroke-width="0.75" stroke="#000000" stroke-opacity="0.49804" stroke-linecap="butt" stroke-linejoin="round"/>
  <text x="398" y="453.7" font-family="Helvetica" font-size="10" font-weight="normal" font-style="normal" fill="#000000" fill-opacity="1">64</text>
  <path d="M 463 9 L 463 441" fill="none" stroke-width="0.75" stroke="#000000" stroke-opacity="0.49804" stroke-linecap="butt" stroke-linejoin="round"/>
  <text x="454.5" y="453.7" font-family="Helvetica" font-size="10" font-weight="normal" font-style="normal" fill="#000000" fill-opacity="1">128</text>
  <path d="M 522 9 L 522 441" fill="none" stroke-width="0.75" stroke="#000000" stroke-opacity="0.49804" stroke-linecap="butt" stroke-linejoin="round"/>
  <text x="513.5" y="453.7" font-family="Helvetica" font-size="10" font-weight="normal" font-style="normal" fill="#000000" fill-opacity="1">256</text>
  <path d="M 581 9 L 581 441" fill="none" stroke-width="0.75" stroke="#000000" stroke-opacity="0.49804" stroke-linecap="butt" stroke-linejoin="round"/>
  <text x="572.5" y="453.7" font-family="Helvetica" font-size="10" font-weight="normal" font-style="normal" fill="#000000" fill-opacity="1">512</text>
  <path d="M 640 9 L 640 441" fill="none" stroke-width="0.75" stroke="#000000" stroke-opacity="0.49804" stroke-linecap="butt" stroke-linejoin="round"/>
  <text x="634.5" y="453.7" font-family="Helvetica" font-size="10" font-weight="normal" font-style="normal" fill="#000000" fill-opacity="1">1k</text>
  <path d="M 699 9 L 699 441" fill="none" stroke-width="0.75" stroke="#000000" stroke-opacity="0.49804" stroke-linecap="butt" stroke-linejoin="round"/>
  <text x="693.5" y="453.7" font-family="Helvetica" font-size="10" font-weight="normal" font-style="normal" fill="#000000" fill-opacity="1">2k</text>
  <path d="M 758 9 L 758 441" fill="none" stroke-width="0.75" stroke="#000000" stroke-opacity="0.49804" stroke-linecap="butt" stroke-linejoin="round"/>
  <text x="752.5" y="453.7" font-family="Helvetica" font-size="10" font-weight="normal" font-style="normal" fill="#000000" fill-opacity="1">4k</text>
  <path d="M 817 9 L 817 441" fill="none" stroke-width="0.75" stroke="#000000" stroke-opacity="0.49804" stroke-linecap="butt" stroke-linejoin="round"/>
  <text x="811.5" y="453.7" font-family="Helvetica" font-size="10" font-weight="normal" font-style="normal" fill="#000000" fill-opacity="1">8k</text>
  <path d="M 876 9 L 876 441" fill="none" stroke-width="0.75" stroke="#000000" stroke-opacity="0.49804" stroke-linecap="butt" stroke-linejoin="round"/>
  <text x="867.5" y="453.7" font-family="Helvetica" font-size="10" font-weight="normal" font-style="normal" fill="#000000" fill-opacity="1">16k</text>
  <path d="M 935 9 L 935 441" fill="none" stroke-width="0.75" stroke="#000000" stroke-opacity="0.49804" stroke-linecap="butt" stroke-linejoin="round"/>
  <text x="926.5" y="453.7" font-family="Helvetica" font-size="10" font-weight="normal" font-style="normal" fill="#000000" fill-opacity="1">32k</text>
  <path d="M 994 9 L 994 441" fill="none" stroke-width="0.75" stroke="#000000" stroke-opacity="0.49804" stroke-linecap="butt" stroke-linejoin="round"/>
  <text x="985.5" y="453.7" font-family="Helvetica" font-size="10" font-weight="normal" font-style="normal" fill="#000000" fill-opacity="1">64k</text>
  <path d="M 1053 9 L 1053 441" fill="none" stroke-width="0.75" stroke="#000000" stroke-opacity="0.49804" stroke-linecap="butt" stroke-linejoin="round"/>
  <text x="1042" y="453.7" font-family="Helvetica" font-size="10" font-weight="normal" font-style="normal" fill="#000000" fill-opacity="1">128k</text>
  <path d="M 1112 9 L 1112 441" fill="none" stroke-width="0.75" stroke="#000000" stroke-opacity="0.49804" stroke-linecap="butt" stroke-linejoin="round"/>
  <text x="1101" y="453.7" font-family="Helvetica" font-size="10" font-weight="normal" font-style="normal" fill="#000000" fill-opacity="1">256k</text>
  <path d="M 1171 9 L 1171 441" fill="none" stroke-width="0.75" stroke="#000000" stroke-opacity="0.49804" stroke-linecap="butt" stroke-linejoin="round"/>
  <text x="1160" y="453.7" font-family="Helvetica" font-size="10" font-weight="normal" font-style="normal" fill="#000000" fill-opacity="1">512k</text>
  <path d="M 1230 9 L 1230 441" fill="none" stroke-width="0.75" stroke="#000000" stroke-opacity="0.49804" stroke-linecap="butt" stroke-linejoin="round"/>
  <text x="1223" y="453.7" font-family="Helvetica" font-size="10" font-weight="normal" font-style="normal" fill="#000000" fill-opacity="1">1M</text>
  <path d="M 50 441 L 1230 441" fill="none" stroke-width="0.75" stroke="#000000" stroke-opacity="0.49804" stroke-linecap="butt" stroke-linejoin="round"/>
  <text x="27" y="442.7" font-family="Helvetica" font-size="10" font-weight="normal" font-style="normal" fill="#000000" fill-opacity="1">1 ns</text>
  <text x="1236" y="442.7" font-family="Helvetica" font-size="10" font-weight="normal" font-style="normal" fill="#000000" fill-opacity="1">1 ns</text>
  <path d="M 50 297 L 1230 297" fill="none" stroke-width="0.75" stroke="#000000" stroke-opacity="0.49804" stroke-linecap="butt" stroke-linejoin="round"/>
  <text x="21" y="298.7" font-family="Helvetica" font-size="10" font-weight="normal" font-style="normal" fill="#000000" fill-opacity="1">10 ns</text>
  <text x="1236" y="298.7" font-family="Helvetica" font-size="10" font-weight="normal" font-style="normal" fill="#000000" fill-opacity="1">10 ns</text>
  <path d="M 50 153 L 1230 153" fill="none" stroke-width="0.75" stroke="#000000" stroke-opacity="0.49804" stroke-linecap="butt" stroke-linejoin="round"/>
  <text x="16" y="154.7" font-family="Helvetica" font-size="10" font-weight="normal" font-style="normal" fill="#000000" fill-opacity="1">100 ns</text>
  <text x="1236" y="154.7" font-family="Helvetica" font-size="10" font-weight="normal" font-style="normal" fill="#000000" fill-opacity="1">100 ns</text>
  <path d="M 50 9 L 1230 9" fill="none" stroke-width="0.75" stroke="#000000" stroke-opacity="0.49804" stroke-linecap="butt" stroke-linejoin="round"/>
  <text x="26" y="10.7" font-family="Helvetica" font-size="10" font-weight="normal" font-style="normal" fill="#000000" fill-opacity="1">1 µs</text>
  <text x="1236" y="10.7" font-family="Helvetica" font-size="10" font-weight="normal" font-style="normal" fill="#000000" fill-opacity="1">1 µs</text>
  <path d="M 50 397.65 L 1230 397.65" fill="none" stroke-width="0.5" stroke="#000000" stroke-opacity="0.25882" stroke-linecap="butt" stroke-linejoin="round" stroke-dasharray="6 3" stroke-dashoffset="0"/>
  <path d="M 50 354.3 L 1230 354.3" fill="none" stroke-width="0.5" stroke="#000000" stroke-opacity="0.25882" stroke-linecap="butt" stroke-linejoin="round" stroke-dasharray="6 3" stroke-dashoffset="0"/>
  <path d="M 50 310.96 L 1230 310.96" fill="none" stroke-width="0.5" stroke="#000000" stroke-opacity="0.25882" stroke-linecap="butt" stroke-linejoin="round" stroke-dasharray="6 3" stroke-dashoffset="0"/>
  <path d="M 50 267.61 L 1230 267.61" fill="none" stroke-width="0.5" stroke="#000000" stroke-opacity="0.25882" stroke-linecap="butt" stroke-linejoin="round" stroke-dasharray="6 3" stroke-dashoffset="0"/>
  <path d="M 50 224.26 L 1230 224.26" fill="none" stroke-width="0.5" stroke="#000000" stroke-opacity="0.25882" stroke-linecap="butt" stroke-linejoin="round" stroke-dasharray="6 3" stroke-dashoffset="0"/>
  <path d="M 50 180.91 L 1230 180.91" fill="none" stroke-width="0.5" stroke="#000000" stroke-opacity="0.25882" stroke-linecap="butt" stroke-linejoin="round" stroke-dasharray="6 3" stroke-dashoffset="0"/>
  <path d="M 50 137.56 L 1230 137.56" fill="none" stroke-width="0.5" stroke="#000000" stroke-opacity="0.25882" stroke-linecap="butt" stroke-linejoin="round" stroke-dasharray="6 3" stroke-dashoffset="0"/>
  <path d="M 50 94.213 L 1230 94.213" fill="none" stroke-width="0.5" stroke="#000000" stroke-opacity="0.25882" stroke-linecap="butt" stroke-linejoin="round" stroke-dasharray="6 3" stroke-dashoffset="0"/>
  <path d="M 50 50.865 L 1230 50.865" fill="none" stroke-width="0.5" stroke="#000000" stroke-opacity="0.25882" stroke-linecap="butt" stroke-linejoin="round" stroke-dasharray="6 3" stroke-dashoffset="0"/>
  <path d="M 74 33 L 74 88 L 327 88 L 327 33 z" fill="#FFFFFF" fill-opacity="1.0" stroke="none"/>
  <clipPath id="clip-0">
    <path d="M 50 9 L 50 441 L 1230 441 L 1230 9 z"/>
  </clipPath>
  <g clip-path="url(#clip-0)">
    <path d="M 50 208.76L 109 250.6L 143.51 210.05L 168 225.74L 186.99 208.64L 202.51 191.17L 215.63 175.86L 227 195.37L 245.99 183.3L 261.51 179.27L 274.63 177.43L 286 173.26L 304.99 166.82L 320.51 164.82L 333.63 161.81L 345 166.37L 363.99 159.64L 379.51 159.56L 392.63 160.22L 404 155.49L 422.99 153L 438.51 148.99L 451.63 148.71L 463 147.13L 481.99 146.68L 497.51 149.3L 510.63 146.25L 522 144.09L 540.99 140.8L 556.51 141.22L 569.63 143.21L 581 140.31L 599.99 138.06L 615.51 136.87L 628.63 135.54L 640 134.24L 658.99 132.68L 674.51 132.09L 687.63 130.4L 699 130.32L 717.99 125.47L 733.51 121.69L 746.63 122.78L 758 120.11L 776.99 117.77L 792.51 115.65L 805.63 114.91L 817 112.82L 835.99 110.35L 851.51 109.43L 864.63 106.62L 876 103.75L 894.99 103.76L 910.51 102.26L 923.63 101.04L 935 99.618L 953.99 97.199L 969.51 94.806L 982.63 93.52L 994 92.791L 1013 89.027L 1028.5 88.652L 1041.6 87.074L 1053 86.047L 1072 81.242L 1087.5 79.914L 1100.6 76.794L 1112 73.398L 1131 66.988L 1146.5 63.671L 1159.6 61.055L 1171 56.125L 1190 50.211L 1205.5 47.181L 1218.6 41.292L 1230 40.008L 1230 40.231L 1218.6 44.156L 1205.5 48.34L 1190 52.138L 1171 58.328L 1159.6 61.342L 1146.5 64.222L 1131 68.717L 1112 74.317L 1100.6 77.075L 1087.5 80.223L 1072 83.928L 1053 86.062L 1041.6 87.939L 1028.5 89.827L 1013 91.198L 994 93.45L 982.63 95.22L 969.51 96.818L 953.99 98.2L 935 99.962L 923.63 101.21L 910.51 102.98L 894.99 104.87L 876 107.15L 864.63 107.5L 851.51 109.73L 835.99 112.65L 817 113.62L 805.63 115.05L 792.51 116.17L 776.99 119.6L 758 120.37L 746.63 123.61L 733.51 125.94L 717.99 127.84L 699 130.83L 687.63 131.67L 674.51 132.25L 658.99 133.13L 640 136.59L 628.63 136.51L 615.51 140.7L 599.99 142.05L 581 142.82L 569.63 143.88L 556.51 145.56L 540.99 148.15L 522 147.02L 510.63 146.66L 497.51 149.54L 481.99 150.76L 463 153.86L 451.63 154.37L 438.51 156.74L 422.99 160.99L 404 159.7L 392.63 163.3L 379.51 163.12L 363.99 171.87L 345 166.37L 333.63 178.08L 320.51 175.79L 304.99 188.98L 286 187.88L 274.63 195.64L 261.51 186L 245.99 201.7L 227 250.97L 215.63 243L 202.51 232.98L 186.99 239.7L 168 225.74L 143.51 275.96L 109 250.6L 50 208.76" fill="#007AFF" fill-opacity="0.30196078431372547" stroke="none"/>
    <path d="M 50 205.91L 109 249.25L 143.51 275.96L 168 295.46L 186.99 307.9L 202.51 317.96L 215.63 327.6L 227 338.8L 245.99 351.25L 261.51 361.31L 274.63 370.95L 286 379.3L 304.99 394.6L 320.51 407.51L 333.63 415.64L 345 381.39L 363.99 393.92L 379.51 381.14L 392.63 390.78L 404 399.13L 422.99 395.35L 438.51 382.05L 451.63 401.71L 463 399.13L 481.99 395.16L 497.51 399.13L 510.63 396.13L 522 399.13L 540.99 399.13L 556.51 392.91L 569.63 391.29L 581 396.78L 599.99 401.27L 615.51 400.91L 628.63 399.26L 640 401.82L 658.99 400.26L 674.51 398.43L 687.63 400.72L 699 401.8L 717.99 401.81L 733.51 401.38L 746.63 402.17L 758 401.83L 776.99 402.07L 792.51 401.61L 805.63 401.81L 817 401.82L 835.99 398.52L 851.51 398.54L 864.63 402.1L 876 398.57L 894.99 402.14L 910.51 402.09L 923.63 398.64L 935 402.18L 953.99 402.11L 969.51 402.06L 982.63 401.98L 994 394.8L 1013 402.06L 1028.5 402.07L 1041.6 401.52L 1053 402.03L 1072 402L 1087.5 401.99L 1100.6 401.93L 1112 384.72L 1131 397.62L 1146.5 399.89L 1159.6 401.18L 1171 400.79L 1190 397.66L 1205.5 342.79L 1218.6 383.68L 1230 371.45L 1230 372.92L 1218.6 385.66L 1205.5 395.03L 1190 400.1L 1171 401.12L 1159.6 401.66L 1146.5 401.56L 1131 401.94L 1112 400.64L 1100.6 402.03L 1087.5 402.04L 1072 402L 1053 402.05L 1041.6 401.92L 1028.5 402.12L 1013 402.15L 994 402.16L 982.63 402.21L 969.51 402.17L 953.99 402.24L 935 402.18L 923.63 402.19L 910.51 402.19L 894.99 402.14L 876 402.22L 864.63 402.28L 851.51 402.14L 835.99 402.34L 817 402.14L 805.63 402.19L 792.51 402.48L 776.99 402.07L 758 402.47L 746.63 402.19L 733.51 402.25L 717.99 401.81L 699 401.8L 687.63 402.17L 674.51 401.8L 658.99 402.34L 640 401.82L 628.63 402.21L 615.51 400.91L 599.99 401.27L 581 401.82L 569.63 402.21L 556.51 399.13L 540.99 399.13L 522 399.13L 510.63 396.13L 497.51 399.13L 481.99 395.16L 463 399.13L 451.63 402.29L 438.51 406.75L 422.99 395.35L 404 399.13L 392.63 390.78L 379.51 381.14L 363.99 395.35L 345 381.39L 333.63 415.64L 320.51 407.51L 304.99 394.6L 286 382.15L 274.63 373.8L 261.51 364.16L 245.99 351.25L 227 338.8L 215.63 330.45L 202.51 320.81L 186.99 307.9L 168 295.46L 143.51 275.96L 109 252.11L 50 208.76" fill="#FF3B30" fill-opacity="0.30196078431372547" stroke="none"/>
    <path d="M 50 208.76L 109 250.6L 143.51 251.1L 168 225.74L 186.99 229.98L 202.51 219.1L 215.63 217.52L 227 231.09L 245.99 196.35L 261.51 184.17L 274.63 190.35L 286 183.72L 304.99 182.39L 320.51 172.74L 333.63 173.4L 345 166.37L 363.99 168.44L 379.51 162.17L 392.63 162.48L 404 158.57L 422.99 158.8L 438.51 154.62L 451.63 152.84L 463 152.03L 481.99 149.67L 497.51 149.48L 510.63 146.55L 522 146.24L 540.99 146.14L 556.51 144.4L 569.63 143.7L 581 142.15L 599.99 140.98L 615.51 139.67L 628.63 136.26L 640 135.97L 658.99 133.01L 674.51 132.21L 687.63 131.33L 699 130.7L 717.99 127.21L 733.51 124.8L 746.63 123.39L 758 120.3L 776.99 119.11L 792.51 116.03L 805.63 115.02L 817 113.41L 835.99 112.04L 851.51 109.65L 864.63 107.27L 876 106.24L 894.99 104.57L 910.51 102.79L 923.63 101.17L 935 99.872L 953.99 97.937L 969.51 96.286L 982.63 94.771L 994 93.277L 1013 90.624L 1028.5 89.518L 1041.6 87.712L 1053 86.058L 1072 83.215L 1087.5 80.142L 1100.6 77.001L 1112 74.076L 1131 68.261L 1146.5 64.077L 1159.6 61.267L 1171 57.745L 1190 51.629L 1205.5 48.035L 1218.6 43.395L 1230 40.172" fill="none" stroke-width="4" stroke="#007AFF" stroke-opacity="1" stroke-linecap="round" stroke-linejoin="round"/>
    <path d="M 50 208L 109 251.35L 143.51 275.96L 168 295.46L 186.99 307.9L 202.51 320.05L 215.63 329.7L 227 338.8L 245.99 351.25L 261.51 363.4L 274.63 373.04L 286 381.39L 304.99 394.6L 320.51 407.51L 333.63 415.64L 345 381.39L 363.99 394.97L 379.51 381.14L 392.63 390.78L 404 399.13L 422.99 395.35L 438.51 399.3L 451.63 402.14L 463 399.13L 481.99 395.16L 497.51 399.13L 510.63 396.13L 522 399.13L 540.99 399.13L 556.51 397.45L 569.63 399.17L 581 400.46L 599.99 401.27L 615.51 400.91L 628.63 401.43L 640 401.82L 658.99 401.79L 674.51 400.9L 687.63 401.79L 699 401.8L 717.99 401.81L 733.51 402.03L 746.63 402.19L 758 402.31L 776.99 402.07L 792.51 402.25L 805.63 402.09L 817 402.05L 835.99 401.32L 851.51 401.18L 864.63 402.23L 876 401.25L 894.99 402.14L 910.51 402.17L 923.63 401.24L 935 402.18L 953.99 402.21L 969.51 402.14L 982.63 402.15L 994 400.15L 1013 402.13L 1028.5 402.11L 1041.6 401.81L 1053 402.05L 1072 402L 1087.5 402.03L 1100.6 402L 1112 396.07L 1131 400.78L 1146.5 401.12L 1159.6 401.53L 1171 401.03L 1190 399.46L 1205.5 376.68L 1218.6 385.14L 1230 372.53" fill="none" stroke-width="4" stroke="#FF3B30" stroke-opacity="1" stroke-linecap="round" stroke-linejoin="round"/>
    <path d="M 50 208.76L 109 250.6L 143.51 251.1L 168 225.74L 186.99 229.98L 202.51 219.1L 215.63 217.52L 227 231.09L 245.99 196.35L 261.51 184.17L 274.63 190.35L 286 183.72L 304.99 182.39L 320.51 172.74L 333.63 173.4L 345 166.37L 363.99 168.44L 379.51 162.17L 392.63 162.48L 404 158.57L 422.99 158.8L 438.51 154.62L 451.63 152.84L 463 152.03L 481.99 149.67L 497.51 149.48L 510.63 146.55L 522 146.24L 540.99 146.14L 556.51 144.4L 569.63 143.7L 581 142.15L 599.99 140.98L 615.51 139.67L 628.63 136.26L 640 135.97L 658.99 133.01L 674.51 132.21L 687.63 131.33L 699 130.7L 717.99 127.21L 733.51 124.8L 746.63 123.39L 758 120.3L 776.99 119.11L 792.51 116.03L 805.63 115.02L 817 113.41L 835.99 112.04L 851.51 109.65L 864.63 107.27L 876 106.24L 894.99 104.57L 910.51 102.79L 923.63 101.17L 935 99.872L 953.99 97.937L 969.51 96.286L 982.63 94.771L 994 93.277L 1013 90.624L 1028.5 89.518L 1041.6 87.712L 1053 86.058L 1072 83.215L 1087.5 80.142L 1100.6 77.001L 1112 74.076L 1131 68.261L 1146.5 64.077L 1159.6 61.267L 1171 57.745L 1190 51.629L 1205.5 48.035L 1218.6 43.395L 1230 40.172" fill="none" stroke-width="0.5" stroke="#000000" stroke-opacity="0.30196" stroke-linecap="round" stroke-linejoin="round"/>
    <path d="M 50 208L 109 251.35L 143.51 275.96L 168 295.46L 186.99 307.9L 202.51 320.05L 215.63 329.7L 227 338.8L 245.99 351.25L 261.51 363.4L 274.63 373.04L 286 381.39L 304.99 394.6L 320.51 407.51L 333.63 415.64L 345 381.39L 363.99 394.97L 379.51 381.14L 392.63 390.78L 404 399.13L 422.99 395.35L 438.51 399.3L 451.63 402.14L 463 399.13L 481.99 395.16L 497.51 399.13L 510.63 396.13L 522 399.13L 540.99 399.13L 556.51 397.45L 569.63 399.17L 581 400.46L 599.99 401.27L 615.51 400.91L 628.63 401.43L 640 401.82L 658.99 401.79L 674.51 400.9L 687.63 401.79L 699 401.8L 717.99 401.81L 733.51 402.03L 746.63 402.19L 758 402.31L 776.99 402.07L 792.51 402.25L 805.63 402.09L 817 402.05L 835.99 401.32L 851.51 401.18L 864.63 402.23L 876 401.25L 894.99 402.14L 910.51 402.17L 923.63 401.24L 935 402.18L 953.99 402.21L 969.51 402.14L 982.63 402.15L 994 400.15L 1013 402.13L 1028.5 402.11L 1041.6 401.81L 1053 402.05L 1072 402L 1087.5 402.03L 1100.6 402L 1112 396.07L 1131 400.78L 1146.5 401.12L 1159.6 401.53L 1171 401.03L 1190 399.46L 1205.5 376.68L 1218.6 385.14L 1230 372.53" fill="none" stroke-width="0.5" stroke="#000000" stroke-opacity="0.30196" stroke-linecap="round" stroke-linejoin="round"/>
  </g>
  <path d="M 74 33 L 74 88 L 327 88 L 327 33 z" fill="#FFFFFF" fill-opacity="0.7019607843137254" stroke-width="0.5" stroke="#000000" stroke-opacity="1" stroke-linecap="round" stroke-linejoin="round"/>
  <path d="M 88 52 L 108 52" fill="none" stroke-width="4" stroke="#FF3B30" stroke-opacity="1" stroke-linecap="round" stroke-linejoin="round"/>
  <path d="M 88 52 L 108 52" fill="none" stroke-width="0.5" stroke="#000000" stroke-opacity="0.30196" stroke-linecap="round" stroke-linejoin="round"/>
  <text x="119" y="56.17" font-family="Menlo" font-size="12" font-weight="normal" font-style="normal" fill="#000000" fill-opacity="1">Array&lt;Int&gt; random swaps</text>
  <path d="M 88 69 L 108 69" fill="none" stroke-width="4" stroke="#007AFF" stroke-opacity="1" stroke-linecap="round" stroke-linejoin="round"/>
  <path d="M 88 69 L 108 69" fill="none" stroke-width="0.5" stroke="#000000" stroke-opacity="0.30196" stroke-linecap="round" stroke-linejoin="round"/>
  <text x="119" y="73.17" font-family="Menlo" font-size="12" font-weight="normal" font-style="normal" fill="#000000" fill-opacity="1">TreeArray&lt;Int&gt; random swaps</text>
  <path d="M 50 9 L 50 441 L 1230 441 L 1230 9 z" fill="none" stroke-width="0.5" stroke="#000000" stroke-opacity="1" stroke-linecap="round" stroke-linejoin="round"/>
</svg>
