<!DOCTYPE svg PUBLIC "-//W3C//DTD SVG 1.1//EN" "http://www.w3.org/Graphics/SVG/1.1/DTD/svg11.dtd">
<svg width="1280.0px" height="480.0px" viewBox="0.0 0.0 1280.0 480.0" xmlns="http://www.w3.org/2000/svg" xmlns:xlink="http://www.w3.org/1999/xlink" version="1.1">
  <path d="M 0 0 L 0 480 L 1280 480 L 1280 0 z" fill="#FFFFFF" fill-opacity="1.0" stroke="none"/>
  <text x="50" y="468.7" font-family="Helvetica" font-size="10" font-weight="normal" font-style="normal" fill="#000000" fill-opacity="1">Average per-element processing time over input size (bands: min, mean, mean + 2stddev)</text>
  <a xlink:href="https://github.com/apple/swift-collections-benchmark"><text x="1107" y="468.7" font-family="Helvetica" font-size="10" font-weight="normal" font-style="normal" fill="#000000" fill-opacity="1">swift-collections-benchmark</text></a>
  <path d="M 50 9 L 50 441" fill="none" stroke-width="0.75" stroke="#000000" stroke-opacity="0.49804" stroke-linecap="butt" stroke-linejoin="round"/>
  <text x="47" y="453.7" font-family="Helvetica" font-size="10" font-weight="normal" font-style="normal" fill="#000000" fill-opacity="1">1</text>
  <path d="M 109 9 L 109 441" fill="none" stroke-width="0.75" stroke="#000000" stroke-opacity="0.49804" stroke-linecap="butt" stroke-linejoin="round"/>
  <text x="106" y="453.7" font-family="Helvetica" font-size="10" font-weight="normal" font-style="normal" fill="#000000" fill-opacity="1">2</text>
  <path d="M 168 9 L 168 441" fill="none" stroke-width="0.75" stroke="#000000" stroke-opacity="0.49804" stroke-linecap="butt" stroke-linejoin="round"/>
  <text x="165" y="453.7" font-family="Helvetica" font-size="10" font-weight="normal" font-style="normal" fill="#000000" fill-opacity="1">4</text>
  <path d="M 227 9 L 227 441" fill="none" stroke-width="0.75" stroke="#000000" stroke-opacity="0.49804" stroke-linecap="butt" stroke-linejoin="round"/>
  <text x="224" y="453.7" font-family="Helvetica" font-size="10" font-weight="normal" font-style="normal" fill="#000000" fill-opacity="1">8</text>
  <path d="M 286 9 L 286 441" fill="none" stroke-width="0.75" stroke="#000000" stroke-opacity="0.49804" stroke-linecap="butt" stroke-linejoin="round"/>
  <text x="280" y="453.7" font-family="Helvetica" font-size="10" font-weight="normal" font-style="normal" fill="#000000" fill-opacity="1">16</text>
  <path d="M 345 9 L 345 441" fill="none" stroke-width="0.75" stroke="#000000" stroke-opacity="0.49804" stroke-linecap="butt" stroke-linejoin="round"/>
  <text x="339" y="453.7" font-family="Helvetica" font-size="10" font-weight="normal" font-style="normal" fill="#000000" fill-opacity="1">32</text>
  <path d="M 404 9 L 404 441" fill="none" stroke-width="0.75" stroke="#000000" stroke-opacity="0.49804" stroke-linecap="butt" stroke-linejoin="round"/>
  <text x="398" y="453.7" font-family="Helvetica" font-size="10" font-weight="normal" font-style="normal" fill="#000000" fill-opacity="1">64</text>
  <path d="M 463 9 L 463 441" fill="none" stroke-width="0.75" stroke="#000000" stroke-opacity="0.49804" stroke-linecap="butt" stroke-linejoin="round"/>
  <text x="454.5" y="453.7" font-family="Helvetica" font-size="10" font-weight="normal" font-style="normal" fill="#000000" fill-opacity="1">128</text>
  <path d="M 522 9 L 522 441" fill="none" stroke-width="0.75" stroke="#000000" stroke-opacity="0.49804" stroke-linecap="butt" stroke-linejoin="round"/>
  <text x="513.5" y="453.7" font-family="Helvetica" font-size="10" font-weight="normal" font-style="normal" fill="#000000" fill-opacity="1">256</text>
  <path d="M 581 9 L 581 441" fill="none" stroke-width="0.75" stroke="#000000" stroke-opacity="0.49804" stroke-linecap="butt" stroke-linejoin="round"/>
  <text x="572.5" y="453.7" font-family="Helvetica" font-size="10" font-weight="normal" font-style="normal" fill="#000000" fill-opacity="1">512</text>
  <path d="M 640 9 L 640 441" fill="none" stroke-width="0.75" stroke="#000000" stroke-opacity="0.49804" stroke-linecap="butt" stroke-linejoin="round"/>
  <text x="634.5" y="453.7" font-family="Helvetica" font-size="10" font-weight="normal" font-style="normal" fill="#000000" fill-opacity="1">1k</text>
  <path d="M 699 9 L 699 441" fill="none" stroke-width="0.75" stroke="#000000" stroke-opacity="0.49804" stroke-linecap="butt" stroke-linejoin="round"/>
  <text x="693.5" y="453.7" font-family="Helvetica" font-size="10" font-weight="normal" font-style="normal" fill="#000000" fill-opacity="1">2k</text>
  <path d="M 758 9 L 758 441" fill="none" stroke-width="0.75" stroke="#000000" stroke-opacity="0.49804" stroke-linecap="butt" stroke-linejoin="round"/>
  <text x="752.5" y="453.7" font-family="Helvetica" font-size="10" font-weight="normal" font-style="normal" fill="#000000" fill-opacity="1">4k</text>
  <path d="M 817 9 L 817 441" fill="none" stroke-width="0.75" stroke="#000000" stroke-opacity="0.49804" stroke-linecap="butt" stroke-linejoin="round"/>
  <text x="811.5" y="453.7" font-family="Helvetica" font-size="10" font-weight="normal" font-style="normal" fill="#000000" fill-opacity="1">8k</text>
  <path d="M 876 9 L 876 441" fill="none" stroke-width="0.75" stroke="#000000" stroke-opacity="0.49804" stroke-linecap="butt" stroke-linejoin="round"/>
  <text x="867.5" y="453.7" font-family="Helvetica" font-size="10" font-weight="normal" font-style="normal" fill="#000000" fill-opacity="1">16k</text>
  <path d="M 935 9 L 935 441" fill="none" stroke-width="0.75" stroke="#000000" stroke-opacity="0.49804" stroke-linecap="butt" stroke-linejoin="round"/>
  <text x="926.5" y="453.7" font-family="Helvetica" font-size="10" font-weight="normal" font-style="normal" fill="#000000" fill-opacity="1">32k</text>
  <path d="M 994 9 L 994 441" fill="none" stroke-width="0.75" stroke="#000000" stroke-opacity="0.49804" stroke-linecap="butt" stroke-linejoin="round"/>
  <text x="985.5" y="453.7" font-family="Helvetica" font-size="10" font-weight="normal" font-style="normal" fill="#000000" fill-opacity="1">64k</text>
  <path d="M 1053 9 L 1053 441" fill="none" stroke-width="0.75" stroke="#000000" stroke-opacity="0.49804" stroke-linecap="butt" stroke-linejoin="round"/>
  <text x="1042" y="453.7" font-family="Helvetica" font-size="10" font-weight="normal" font-style="normal" fill="#000000" fill-opacity="1">128k</text>
  <path d="M 1112 9 L 1112 441" fill="none" stroke-width="0.75" stroke="#000000" stroke-opacity="0.49804" stroke-linecap="butt" stroke-linejoin="round"/>
  <text x="1101" y="453.7" font-family="Helvetica" font-size="10" font-weight="normal" font-style="normal" fill="#000000" fill-opacity="1">256k</text>
  <path d="M 1171 9 L 1171 441" fill="none" stroke-width="0.75" stroke="#000000" stroke-opacity="0.49804" stroke-linecap="butt" stroke-linejoin="round"/>
  <text x="1160" y="453.7" font-family="Helvetica" font-size="10" font-weight="normal" font-style="normal" fill="#000000" fill-opacity="1">512k</text>
  <path d="M 1230 9 L 1230 441" fill="none" stroke-width="0.75" stroke="#000000" stroke-opacity="0.49804" stroke-linecap="butt" stroke-linejoin="round"/>
  <text x="1223" y="453.7" font-family="Helvetica" font-size="10" font-weight="normal" font-style="normal" fill="#000000" fill-opacity="1">1M</text>
  <path d="M 50 441 L 1230 441" fill="none" stroke-width="0.75" stroke="#000000" stroke-opacity="0.49804" stroke-linecap="butt" stroke-linejoin="round"/>
  <text x="27" y="442.7" font-family="Helvetica" font-size="10" font-weight="normal" font-style="normal" fill="#000000" fill-opacity="1">1 ns</text>
  <text x="1236" y="442.7" font-family="Helvetica" font-size="10" font-weight="normal" font-style="normal" fill="#000000" fill-opacity="1">1 ns</text>
  <path d="M 50 297 L 1230 297" fill="none" stroke-width="0.75" stroke="#000000" stroke-opacity="0.49804" stroke-linecap="butt" stroke-linejoin="round"/>
  <text x="21" y="298.7" font-family="Helvetica" font-size="10" font-weight="normal" font-style="normal" fill="#000000" fill-opacity="1">10 ns</text>
  <text x="1236" y="298.7" font-family="Helvetica" font-size="10" font-weight="normal" font-style="normal" fill="#000000" fill-opacity="1">10 ns</text>
  <path d="M 50 153 L 1230 153" fill="none" stroke-width="0.75" stroke="#000000" stroke-opacity="0.49804" stroke-linecap="butt" stroke-linejoin="round"/>
  <text x="16" y="154.7" font-family="Helvetica" font-size="10" font-weight="normal" font-style="normal" fill="#000000" fill-opacity="1">100 ns</text>
  <text x="1236" y="154.7" font-family="Helvetica" font-size="10" font-weight="normal" font-style="normal" fill="#000000" fill-opacity="1">100 ns</text>
  <path d="M 50 9 L 1230 9" fill="none" stroke-width="0.75" stroke="#000000" stroke-opacity="0.49804" stroke-linecap="butt" stroke-linejoin="round"/>
  <text x="26" y="10.7" font-family="Helvetica" font-size="10" font-weight="normal" font-style="normal" fill="#000000" fill-opacity="1">1 µs</text>
  <text x="1236" y="10.7" font-family="Helvetica" font-size="10" font-weight="normal" font-style="normal" fill="#000000" fill-opacity="1">1 µs</text>
  <path d="M 50 397.65 L 1230 397.65" fill="none" stroke-width="0.5" stroke="#000000" stroke-opacity="0.25882" stroke-linecap="butt" stroke-linejoin="round" stroke-dasharray="6 3" stroke-dashoffset="0"/>
  <path d="M 50 354.3 L 1230 354.3" fill="none" stroke-width="0.5" stroke="#000000" stroke-opacity="0.25882" stroke-linecap="butt" stroke-linejoin="round" stroke-dasharray="6 3" stroke-dashoffset="0"/>
  <path d="M 50 310.96 L 1230 310.96" fill="none" stroke-width="0.5" stroke="#000000" stroke-opacity="0.25882" stroke-linecap="butt" stroke-linejoin="round" stroke-dasharray="6 3" stroke-dashoffset="0"/>
  <path d="M 50 267.61 L 1230 267.61" fill="none" stroke-width="0.5" stroke="#000000" stroke-opacity="0.25882" stroke-linecap="butt" stroke-linejoin="round" stroke-dasharray="6 3" stroke-dashoffset="0"/>
  <path d="M 50 224.26 L 1230 224.26" fill="none" stroke-width="0.5" stroke="#000000" stroke-opacity="0.25882" stroke-linecap="butt" stroke-linejoin="round" stroke-dasharray="6 3" stroke-dashoffset="0"/>
  <path d="M 50 180.91 L 1230 180.91" fill="none" stroke-width="0.5" stroke="#000000" stroke-opacity="0.25882" stroke-linecap="butt" stroke-linejoin="round" stroke-dasharray="6 3" stroke-dashoffset="0"/>
  <path d="M 50 137.56 L 1230 137.56" fill="none" stroke-width="0.5" stroke="#000000" stroke-opacity="0.25882" stroke-linecap="butt" stroke-linejoin="round" stroke-dasharray="6 3" stroke-dashoffset="0"/>
  <path d="M 50 94.213 L 1230 94.213" fill="none" stroke-width="0.5" stroke="#000000" stroke-opacity="0.25882" stroke-linecap="butt" stroke-linejoin="round" stroke-dasharray="6 3" stroke-dashoffset="0"/>
  <path d="M 50 50.865 L 1230 50.865" fill="none" stroke-width="0.5" stroke="#000000" stroke-opacity="0.25882" stroke-linecap="butt" stroke-linejoin="round" stroke-dasharray="6 3" stroke-dashoffset="0"/>
  <path d="M 74 33 L 74 122 L 413 122 L 413 33 z" fill="#FFFFFF" fill-opacity="1.0" stroke="none"/>
  <clipPath id="clip-0">
    <path d="M 50 9 L 50 441 L 1230 441 L 1230 9 z"/>
  </clipPath>
  <g clip-path="url(#clip-0)">
    <path d="M 50 205.91L 109 250.6L 143.51 277.46L 168 292.6L 186.99 306.56L 202.51 320.81L 215.63 330.45L 227 337.3L 245.99 352.76L 261.51 362.65L 274.63 370.95L 286 382.15L 304.99 328.7L 320.51 363.4L 333.63 373.04L 345 355.79L 363.99 353.34L 379.51 350.67L 392.63 360.31L 404 380.68L 422.99 380.67L 438.51 372.21L 451.63 390.78L 463 389.64L 481.99 375.85L 497.51 392.36L 510.63 390.78L 522 389.53L 540.99 384.61L 556.51 386.81L 569.63 390.78L 581 391.77L 599.99 391.34L 615.51 392.53L 628.63 392.11L 640 390.74L 658.99 392.21L 674.51 392.52L 687.63 391.52L 699 392.36L 717.99 391.81L 733.51 391.81L 746.63 391.8L 758 392.36L 776.99 392.47L 792.51 392.55L 805.63 391.17L 817 392.37L 835.99 392.25L 851.51 392.64L 864.63 392.52L 876 392.5L 894.99 392.42L 910.51 392.55L 923.63 392.52L 935 392.53L 953.99 392.41L 969.51 392.17L 982.63 392.12L 994 392.35L 1013 388.54L 1028.5 387.96L 1041.6 392.23L 1053 392.25L 1072 389.8L 1087.5 392.12L 1100.6 392.08L 1112 392.08L 1131 391.66L 1146.5 391.85L 1159.6 341.78L 1171 361.42L 1190 380L 1205.5 378.67L 1218.6 356.91L 1230 363.89L 1230 365.32L 1218.6 372.51L 1205.5 386.26L 1190 389.21L 1171 391.1L 1159.6 386.26L 1146.5 391.88L 1131 392.14L 1112 392.16L 1100.6 392.12L 1087.5 392.23L 1072 392.15L 1053 392.27L 1041.6 392.25L 1028.5 392.23L 1013 392.25L 994 392.35L 982.63 392.43L 969.51 392.4L 953.99 392.53L 935 392.53L 923.63 392.52L 910.51 392.55L 894.99 392.64L 876 392.64L 864.63 392.52L 851.51 392.64L 835.99 392.7L 817 392.64L 805.63 392.44L 792.51 392.55L 776.99 392.47L 758 392.36L 746.63 392.43L 733.51 392.54L 717.99 392.71L 699 392.36L 687.63 392.77L 674.51 392.55L 658.99 392.25L 640 392.92L 628.63 392.11L 615.51 392.53L 599.99 391.34L 581 391.77L 569.63 390.78L 556.51 392.57L 540.99 391.34L 522 389.53L 510.63 390.78L 497.51 392.65L 481.99 387.73L 463 389.64L 451.63 390.78L 438.51 392.65L 422.99 381.24L 404 381.39L 392.63 390.78L 379.51 381.14L 363.99 394.6L 345 355.79L 333.63 373.04L 320.51 363.4L 304.99 394.6L 286 382.15L 274.63 373.8L 261.51 362.65L 245.99 352.76L 227 337.3L 215.63 330.45L 202.51 320.81L 186.99 309.41L 168 295.46L 143.51 277.46L 109 250.6L 50 208.76" fill="#FFCC00" fill-opacity="0.30196078431372547" stroke="none"/>
    <path d="M 50 205.91L 109 250.6L 143.51 274.61L 168 293.95L 186.99 306.56L 202.51 317.96L 215.63 327.6L 227 337.3L 245.99 349.91L 261.51 361.31L 274.63 373.8L 286 382.15L 304.99 328.22L 320.51 407.51L 333.63 373.04L 345 355.79L 363.99 352.99L 379.51 362.69L 392.63 360.31L 404 381.39L 422.99 381.24L 438.51 372.41L 451.63 390.78L 463 389.23L 481.99 387.73L 497.51 381.6L 510.63 390.78L 522 389.53L 540.99 384.61L 556.51 386.81L 569.63 386.06L 581 391.77L 599.99 391.25L 615.51 392.5L 628.63 392.05L 640 390.71L 658.99 390.49L 674.51 392.55L 687.63 392.11L 699 392.33L 717.99 391.82L 733.51 392.16L 746.63 391.8L 758 392.09L 776.99 392.23L 792.51 392.55L 805.63 392.29L 817 392.64L 835.99 392.58L 851.51 392.54L 864.63 392.44L 876 392.51L 894.99 392.53L 910.51 392.54L 923.63 392.48L 935 392.5L 953.99 392.27L 969.51 392.35L 982.63 392.35L 994 392.26L 1013 388.62L 1028.5 388.57L 1041.6 392.02L 1053 391.96L 1072 391.78L 1087.5 392.02L 1100.6 392.03L 1112 391.61L 1131 391.95L 1146.5 391.84L 1159.6 350.69L 1171 359.62L 1190 381.28L 1205.5 379.63L 1218.6 330.52L 1230 363.37L 1230 365.43L 1218.6 371.53L 1205.5 386.74L 1190 389.62L 1171 391.18L 1159.6 391.52L 1146.5 392L 1131 392.08L 1112 392.14L 1100.6 392.06L 1087.5 392.11L 1072 392.17L 1053 392.2L 1041.6 392.24L 1028.5 392.16L 1013 392.28L 994 392.37L 982.63 392.35L 969.51 392.35L 953.99 392.44L 935 392.5L 923.63 392.48L 910.51 392.55L 894.99 392.53L 876 392.64L 864.63 392.6L 851.51 392.55L 835.99 392.59L 817 392.64L 805.63 392.6L 792.51 392.55L 776.99 392.24L 758 392.64L 746.63 392.44L 733.51 392.16L 717.99 392.7L 699 392.36L 687.63 392.11L 674.51 392.55L 658.99 392.23L 640 392.95L 628.63 392.11L 615.51 392.57L 599.99 391.34L 581 391.77L 569.63 390.78L 556.51 392.57L 540.99 391.34L 522 389.53L 510.63 390.78L 497.51 392.65L 481.99 387.73L 463 389.64L 451.63 390.78L 438.51 392.35L 422.99 381.24L 404 381.39L 392.63 390.78L 379.51 363.4L 363.99 395.35L 345 355.79L 333.63 373.04L 320.51 407.51L 304.99 396.11L 286 382.15L 274.63 373.8L 261.51 364.16L 245.99 352.76L 227 337.3L 215.63 330.45L 202.51 320.81L 186.99 309.41L 168 293.95L 143.51 277.46L 109 250.6L 50 208.76" fill="#28CD41" fill-opacity="0.30196078431372547" stroke="none"/>
    <path d="M 50 205.91L 109 252.11L 143.51 177.8L 168 228.04L 186.99 172.81L 202.51 199.38L 215.63 228.32L 227 188.5L 245.99 207.7L 261.51 173.97L 274.63 182.84L 286 177.82L 304.99 173.23L 320.51 177.56L 333.63 175.74L 345 169.77L 363.99 167.76L 379.51 161.9L 392.63 159.19L 404 154.42L 422.99 154.83L 438.51 153.03L 451.63 153.07L 463 151.57L 481.99 152.85L 497.51 150.09L 510.63 149.82L 522 148L 540.99 143.48L 556.51 132.72L 569.63 145.39L 581 138.35L 599.99 143.19L 615.51 137.51L 628.63 138.05L 640 136.73L 658.99 135.83L 674.51 132.76L 687.63 132.6L 699 130.54L 717.99 128.05L 733.51 124.39L 746.63 124.76L 758 120.82L 776.99 120.48L 792.51 118.12L 805.63 116.55L 817 107.5L 835.99 111.55L 851.51 108.45L 864.63 105.88L 876 105.93L 894.99 104.07L 910.51 96.016L 923.63 101.47L 935 100.79L 953.99 99.062L 969.51 94.937L 982.63 92.242L 994 91.777L 1013 90.686L 1028.5 87.901L 1041.6 88.473L 1053 66.024L 1072 82.39L 1087.5 82.099L 1100.6 78.911L 1112 75.964L 1131 70.565L 1146.5 65.285L 1159.6 60.443L 1171 59.341L 1190 53.628L 1205.5 45.892L 1218.6 41.624L 1230 39.592L 1230 42.634L 1218.6 45.532L 1205.5 49.97L 1190 54.145L 1171 60.14L 1159.6 62.744L 1146.5 67.106L 1131 72.218L 1112 76.701L 1100.6 80.354L 1087.5 83.218L 1072 85.194L 1053 85.715L 1041.6 88.869L 1028.5 90.134L 1013 92.017L 994 94.584L 982.63 95.77L 969.51 97.314L 953.99 99.184L 935 101.54L 923.63 101.66L 910.51 103.14L 894.99 104.89L 876 107.36L 864.63 109.11L 851.51 110.8L 835.99 112.75L 817 116.21L 805.63 117.75L 792.51 118.23L 776.99 122.31L 758 124.37L 746.63 125.51L 733.51 128.45L 717.99 131.84L 699 132.89L 687.63 133.12L 674.51 134.59L 658.99 135.92L 640 138.06L 628.63 139.07L 615.51 141.11L 599.99 143.99L 581 143.74L 569.63 146.18L 556.51 145.14L 540.99 147.92L 522 148.9L 510.63 150.67L 497.51 150.58L 481.99 153.16L 463 154.69L 451.63 155.8L 438.51 157.33L 422.99 158.8L 404 162.96L 392.63 162.21L 379.51 163.12L 363.99 170.99L 345 176.21L 333.63 183.88L 320.51 180.67L 304.99 184.53L 286 187.81L 274.63 195.64L 261.51 213.24L 245.99 207.7L 227 200.38L 215.63 228.89L 202.51 251.1L 186.99 239.7L 168 293.95L 143.51 277.46L 109 252.11L 50 208.76" fill="#007AFF" fill-opacity="0.30196078431372547" stroke="none"/>
    <path d="M 50 205.91L 109 249.25L 143.51 275.96L 168 295.46L 186.99 307.9L 202.51 317.96L 215.63 327.6L 227 338.8L 245.99 351.25L 261.51 361.31L 274.63 370.95L 286 379.3L 304.99 394.6L 320.51 407.51L 333.63 415.64L 345 381.39L 363.99 393.92L 379.51 381.14L 392.63 390.78L 404 399.13L 422.99 395.35L 438.51 382.05L 451.63 401.71L 463 399.13L 481.99 395.16L 497.51 399.13L 510.63 396.13L 522 399.13L 540.99 399.13L 556.51 392.91L 569.63 391.29L 581 396.78L 599.99 401.27L 615.51 400.91L 628.63 399.26L 640 401.82L 658.99 400.26L 674.51 398.43L 687.63 400.72L 699 401.8L 717.99 401.81L 733.51 401.38L 746.63 402.17L 758 401.83L 776.99 402.07L 792.51 401.61L 805.63 401.81L 817 401.82L 835.99 398.52L 851.51 398.54L 864.63 402.1L 876 398.57L 894.99 402.14L 910.51 402.09L 923.63 398.64L 935 402.18L 953.99 402.11L 969.51 402.06L 982.63 401.98L 994 394.8L 1013 402.06L 1028.5 402.07L 1041.6 401.52L 1053 402.03L 1072 402L 1087.5 401.99L 1100.6 401.93L 1112 384.72L 1131 397.62L 1146.5 399.89L 1159.6 401.18L 1171 400.79L 1190 397.66L 1205.5 342.79L 1218.6 383.68L 1230 371.45L 1230 372.92L 1218.6 385.66L 1205.5 395.03L 1190 400.1L 1171 401.12L 1159.6 401.66L 1146.5 401.56L 1131 401.94L 1112 400.64L 1100.6 402.03L 1087.5 402.04L 1072 402L 1053 402.05L 1041.6 401.92L 1028.5 402.12L 1013 402.15L 994 402.16L 982.63 402.21L 969.51 402.17L 953.99 402.24L 935 402.18L 923.63 402.19L 910.51 402.19L 894.99 402.14L 876 402.22L 864.63 402.28L 851.51 402.14L 835.99 402.34L 817 402.14L 805.63 402.19L 792.51 402.48L 776.99 402.07L 758 402.47L 746.63 402.19L 733.51 402.25L 717.99 401.81L 699 401.8L 687.63 402.17L 674.51 401.8L 658.99 402.34L 640 401.82L 628.63 402.21L 615.51 400.91L 599.99 401.27L 581 401.82L 569.63 402.21L 556.51 399.13L 540.99 399.13L 522 399.13L 510.63 396.13L 497.51 399.13L 481.99 395.16L 463 399.13L 451.63 402.29L 438.51 406.75L 422.99 395.35L 404 399.13L 392.63 390.78L 379.51 381.14L 363.99 395.35L 345 381.39L 333.63 415.64L 320.51 407.51L 304.99 394.6L 286 382.15L 274.63 373.8L 261.51 364.16L 245.99 351.25L 227 338.8L 215.63 330.45L 202.51 320.81L 186.99 307.9L 168 295.46L 143.51 275.96L 109 252.11L 50 208.76" fill="#FF3B30" fill-opacity="0.30196078431372547" stroke="none"/>
    <path d="M 50 208L 109 250.6L 143.51 277.46L 168 294.7L 186.99 308.65L 202.51 320.81L 215.63 330.45L 227 337.3L 245.99 352.76L 261.51 362.65L 274.63 373.04L 286 382.15L 304.99 369.74L 320.51 363.4L 333.63 373.04L 345 355.79L 363.99 380.94L 379.51 371.65L 392.63 381.29L 404 381.21L 422.99 381.09L 438.51 386.63L 451.63 390.78L 463 389.64L 481.99 384.4L 497.51 392.57L 510.63 390.78L 522 389.53L 540.99 389.51L 556.51 391.01L 569.63 390.78L 581 391.77L 599.99 391.34L 615.51 392.53L 628.63 392.11L 640 392.34L 658.99 392.24L 674.51 392.54L 687.63 392.44L 699 392.36L 717.99 392.47L 733.51 392.35L 746.63 392.27L 758 392.36L 776.99 392.47L 792.51 392.55L 805.63 392.1L 817 392.57L 835.99 392.59L 851.51 392.64L 864.63 392.52L 876 392.61L 894.99 392.59L 910.51 392.55L 923.63 392.52L 935 392.53L 953.99 392.5L 969.51 392.34L 982.63 392.35L 994 392.35L 1013 391.26L 1028.5 391.09L 1041.6 392.24L 1053 392.26L 1072 391.53L 1087.5 392.2L 1100.6 392.11L 1112 392.14L 1131 392.01L 1146.5 391.88L 1159.6 371.27L 1171 381.89L 1190 386.67L 1205.5 384.19L 1218.6 368.04L 1230 364.94" fill="none" stroke-width="4" stroke="#FFCC00" stroke-opacity="1" stroke-linecap="round" stroke-linejoin="round"/>
    <path d="M 50 208L 109 250.6L 143.51 276.71L 168 293.95L 186.99 308.65L 202.51 320.05L 215.63 329.7L 227 337.3L 245.99 352L 261.51 363.4L 274.63 373.8L 286 382.15L 304.99 370.24L 320.51 407.51L 333.63 373.04L 345 355.79L 363.99 381.24L 379.51 363.22L 392.63 381.29L 404 381.39L 422.99 381.24L 438.51 386.49L 451.63 390.78L 463 389.53L 481.99 387.73L 497.51 389.57L 510.63 390.78L 522 389.53L 540.99 389.51L 556.51 391.01L 569.63 389.51L 581 391.77L 599.99 391.31L 615.51 392.55L 628.63 392.1L 640 392.36L 658.99 391.77L 674.51 392.55L 687.63 392.11L 699 392.35L 717.99 392.47L 733.51 392.16L 746.63 392.27L 758 392.5L 776.99 392.23L 792.51 392.55L 805.63 392.52L 817 392.64L 835.99 392.58L 851.51 392.55L 864.63 392.56L 876 392.61L 894.99 392.53L 910.51 392.55L 923.63 392.48L 935 392.5L 953.99 392.39L 969.51 392.35L 982.63 392.35L 994 392.34L 1013 391.3L 1028.5 391.2L 1041.6 392.18L 1053 392.14L 1072 392.07L 1087.5 392.09L 1100.6 392.05L 1112 392L 1131 392.05L 1146.5 391.96L 1159.6 378.04L 1171 381.28L 1190 387.33L 1205.5 384.8L 1218.6 357.98L 1230 364.88" fill="none" stroke-width="4" stroke="#28CD41" stroke-opacity="1" stroke-linecap="round" stroke-linejoin="round"/>
    <path d="M 50 208L 109 252.11L 143.51 233.36L 168 269.09L 186.99 214.34L 202.51 232.98L 215.63 228.74L 227 197.06L 245.99 207.7L 261.51 200.38L 274.63 192.03L 286 185.04L 304.99 181.38L 320.51 179.84L 333.63 181.65L 345 174.46L 363.99 170.13L 379.51 162.8L 392.63 161.41L 404 160.61L 422.99 157.74L 438.51 156.18L 451.63 155.08L 463 153.86L 481.99 153.08L 497.51 150.45L 510.63 150.45L 522 148.66L 540.99 146.73L 556.51 141.65L 569.63 145.98L 581 142.28L 599.99 143.78L 615.51 140.15L 628.63 138.8L 640 137.71L 658.99 135.89L 674.51 134.11L 687.63 132.99L 699 132.27L 717.99 130.83L 733.51 127.36L 746.63 125.31L 758 123.42L 776.99 121.82L 792.51 118.2L 805.63 117.43L 817 113.82L 835.99 112.43L 851.51 110.18L 864.63 108.25L 876 106.98L 894.99 104.68L 910.51 101.2L 923.63 101.61L 935 101.34L 953.99 99.152L 969.51 96.684L 982.63 94.829L 994 93.838L 1013 91.667L 1028.5 89.543L 1041.6 88.766L 1053 79.945L 1072 84.449L 1087.5 82.924L 1100.6 79.974L 1112 76.507L 1131 71.782L 1146.5 66.625L 1159.6 62.135L 1171 59.93L 1190 54.01L 1205.5 48.879L 1218.6 44.488L 1230 41.825" fill="none" stroke-width="4" stroke="#007AFF" stroke-opacity="1" stroke-linecap="round" stroke-linejoin="round"/>
    <path d="M 50 208L 109 251.35L 143.51 275.96L 168 295.46L 186.99 307.9L 202.51 320.05L 215.63 329.7L 227 338.8L 245.99 351.25L 261.51 363.4L 274.63 373.04L 286 381.39L 304.99 394.6L 320.51 407.51L 333.63 415.64L 345 381.39L 363.99 394.97L 379.51 381.14L 392.63 390.78L 404 399.13L 422.99 395.35L 438.51 399.3L 451.63 402.14L 463 399.13L 481.99 395.16L 497.51 399.13L 510.63 396.13L 522 399.13L 540.99 399.13L 556.51 397.45L 569.63 399.17L 581 400.46L 599.99 401.27L 615.51 400.91L 628.63 401.43L 640 401.82L 658.99 401.79L 674.51 400.9L 687.63 401.79L 699 401.8L 717.99 401.81L 733.51 402.03L 746.63 402.19L 758 402.31L 776.99 402.07L 792.51 402.25L 805.63 402.09L 817 402.05L 835.99 401.32L 851.51 401.18L 864.63 402.23L 876 401.25L 894.99 402.14L 910.51 402.17L 923.63 401.24L 935 402.18L 953.99 402.21L 969.51 402.14L 982.63 402.15L 994 400.15L 1013 402.13L 1028.5 402.11L 1041.6 401.81L 1053 402.05L 1072 402L 1087.5 402.03L 1100.6 402L 1112 396.07L 1131 400.78L 1146.5 401.12L 1159.6 401.53L 1171 401.03L 1190 399.46L 1205.5 376.68L 1218.6 385.14L 1230 372.53" fill="none" stroke-width="4" stroke="#FF3B30" stroke-opacity="1" stroke-linecap="round" stroke-linejoin="round"/>
    <path d="M 50 208L 109 250.6L 143.51 277.46L 168 294.7L 186.99 308.65L 202.51 320.81L 215.63 330.45L 227 337.3L 245.99 352.76L 261.51 362.65L 274.63 373.04L 286 382.15L 304.99 369.74L 320.51 363.4L 333.63 373.04L 345 355.79L 363.99 380.94L 379.51 371.65L 392.63 381.29L 404 381.21L 422.99 381.09L 438.51 386.63L 451.63 390.78L 463 389.64L 481.99 384.4L 497.51 392.57L 510.63 390.78L 522 389.53L 540.99 389.51L 556.51 391.01L 569.63 390.78L 581 391.77L 599.99 391.34L 615.51 392.53L 628.63 392.11L 640 392.34L 658.99 392.24L 674.51 392.54L 687.63 392.44L 699 392.36L 717.99 392.47L 733.51 392.35L 746.63 392.27L 758 392.36L 776.99 392.47L 792.51 392.55L 805.63 392.1L 817 392.57L 835.99 392.59L 851.51 392.64L 864.63 392.52L 876 392.61L 894.99 392.59L 910.51 392.55L 923.63 392.52L 935 392.53L 953.99 392.5L 969.51 392.34L 982.63 392.35L 994 392.35L 1013 391.26L 1028.5 391.09L 1041.6 392.24L 1053 392.26L 1072 391.53L 1087.5 392.2L 1100.6 392.11L 1112 392.14L 1131 392.01L 1146.5 391.88L 1159.6 371.27L 1171 381.89L 1190 386.67L 1205.5 384.19L 1218.6 368.04L 1230 364.94" fill="none" stroke-width="0.5" stroke="#000000" stroke-opacity="0.30196" stroke-linecap="round" stroke-linejoin="round"/>
    <path d="M 50 208L 109 250.6L 143.51 276.71L 168 293.95L 186.99 308.65L 202.51 320.05L 215.63 329.7L 227 337.3L 245.99 352L 261.51 363.4L 274.63 373.8L 286 382.15L 304.99 370.24L 320.51 407.51L 333.63 373.04L 345 355.79L 363.99 381.24L 379.51 363.22L 392.63 381.29L 404 381.39L 422.99 381.24L 438.51 386.49L 451.63 390.78L 463 389.53L 481.99 387.73L 497.51 389.57L 510.63 390.78L 522 389.53L 540.99 389.51L 556.51 391.01L 569.63 389.51L 581 391.77L 599.99 391.31L 615.51 392.55L 628.63 392.1L 640 392.36L 658.99 391.77L 674.51 392.55L 687.63 392.11L 699 392.35L 717.99 392.47L 733.51 392.16L 746.63 392.27L 758 392.5L 776.99 392.23L 792.51 392.55L 805.63 392.52L 817 392.64L 835.99 392.58L 851.51 392.55L 864.63 392.56L 876 392.61L 894.99 392.53L 910.51 392.55L 923.63 392.48L 935 392.5L 953.99 392.39L 969.51 392.35L 982.63 392.35L 994 392.34L 1013 391.3L 1028.5 391.2L 1041.6 392.18L 1053 392.14L 1072 392.07L 1087.5 392.09L 1100.6 392.05L 1112 392L 1131 392.05L 1146.5 391.96L 1159.6 378.04L 1171 381.28L 1190 387.33L 1205.5 384.8L 1218.6 357.98L 1230 364.88" fill="none" stroke-width="0.5" stroke="#000000" stroke-opacity="0.30196" stroke-linecap="round" stroke-linejoin="round"/>
    <path d="M 50 208L 109 252.11L 143.51 233.36L 168 269.09L 186.99 214.34L 202.51 232.98L 215.63 228.74L 227 197.06L 245.99 207.7L 261.51 200.38L 274.63 192.03L 286 185.04L 304.99 181.38L 320.51 179.84L 333.63 181.65L 345 174.46L 363.99 170.13L 379.51 162.8L 392.63 161.41L 404 160.61L 422.99 157.74L 438.51 156.18L 451.63 155.08L 463 153.86L 481.99 153.08L 497.51 150.45L 510.63 150.45L 522 148.66L 540.99 146.73L 556.51 141.65L 569.63 145.98L 581 142.28L 599.99 143.78L 615.51 140.15L 628.63 138.8L 640 137.71L 658.99 135.89L 674.51 134.11L 687.63 132.99L 699 132.27L 717.99 130.83L 733.51 127.36L 746.63 125.31L 758 123.42L 776.99 121.82L 792.51 118.2L 805.63 117.43L 817 113.82L 835.99 112.43L 851.51 110.18L 864.63 108.25L 876 106.98L 894.99 104.68L 910.51 101.2L 923.63 101.61L 935 101.34L 953.99 99.152L 969.51 96.684L 982.63 94.829L 994 93.838L 1013 91.667L 1028.5 89.543L 1041.6 88.766L 1053 79.945L 1072 84.449L 1087.5 82.924L 1100.6 79.974L 1112 76.507L 1131 71.782L 1146.5 66.625L 1159.6 62.135L 1171 59.93L 1190 54.01L 1205.5 48.879L 1218.6 44.488L 1230 41.825" fill="none" stroke-width="0.5" stroke="#000000" stroke-opacity="0.30196" stroke-linecap="round" stroke-linejoin="round"/>
    <path d="M 50 208L 109 251.35L 143.51 275.96L 168 295.46L 186.99 307.9L 202.51 320.05L 215.63 329.7L 227 338.8L 245.99 351.25L 261.51 363.4L 274.63 373.04L 286 381.39L 304.99 394.6L 320.51 407.51L 333.63 415.64L 345 381.39L 363.99 394.97L 379.51 381.14L 392.63 390.78L 404 399.13L 422.99 395.35L 438.51 399.3L 451.63 402.14L 463 399.13L 481.99 395.16L 497.51 399.13L 510.63 396.13L 522 399.13L 540.99 399.13L 556.51 397.45L 569.63 399.17L 581 400.46L 599.99 401.27L 615.51 400.91L 628.63 401.43L 640 401.82L 658.99 401.79L 674.51 400.9L 687.63 401.79L 699 401.8L 717.99 401.81L 733.51 402.03L 746.63 402.19L 758 402.31L 776.99 402.07L 792.51 402.25L 805.63 402.09L 817 402.05L 835.99 401.32L 851.51 401.18L 864.63 402.23L 876 401.25L 894.99 402.14L 910.51 402.17L 923.63 401.24L 935 402.18L 953.99 402.21L 969.51 402.14L 982.63 402.15L 994 400.15L 1013 402.13L 1028.5 402.11L 1041.6 401.81L 1053 402.05L 1072 402L 1087.5 402.03L 1100.6 402L 1112 396.07L 1131 400.78L 1146.5 401.12L 1159.6 401.53L 1171 401.03L 1190 399.46L 1205.5 376.68L 1218.6 385.14L 1230 372.53" fill="none" stroke-width="0.5" stroke="#000000" stroke-opacity="0.30196" stroke-linecap="round" stroke-linejoin="round"/>
  </g>
  <path d="M 74 33 L 74 122 L 413 122 L 413 33 z" fill="#FFFFFF" fill-opacity="0.7019607843137254" stroke-width="0.5" stroke="#000000" stroke-opacity="1" stroke-linecap="round" stroke-linejoin="round"/>
  <path d="M 88 52 L 108 52" fill="none" stroke-width="4" stroke="#FF3B30" stroke-opacity="1" stroke-linecap="round" stroke-linejoin="round"/>
  <path d="M 88 52 L 108 52" fill="none" stroke-width="0.5" stroke="#000000" stroke-opacity="0.30196" stroke-linecap="round" stroke-linejoin="round"/>
  <text x="119" y="56.17" font-family="Menlo" font-size="12" font-weight="normal" font-style="normal" fill="#000000" fill-opacity="1">Array&lt;Int&gt; random swaps</text>
  <path d="M 88 69 L 108 69" fill="none" stroke-width="4" stroke="#007AFF" stroke-opacity="1" stroke-linecap="round" stroke-linejoin="round"/>
  <path d="M 88 69 L 108 69" fill="none" stroke-width="0.5" stroke="#000000" stroke-opacity="0.30196" stroke-linecap="round" stroke-linejoin="round"/>
  <text x="119" y="73.17" font-family="Menlo" font-size="12" font-weight="normal" font-style="normal" fill="#000000" fill-opacity="1">TreeArray&lt;Int&gt; random swaps</text>
  <path d="M 88 86 L 108 86" fill="none" stroke-width="4" stroke="#28CD41" stroke-opacity="1" stroke-linecap="round" stroke-linejoin="round"/>
  <path d="M 88 86 L 108 86" fill="none" stroke-width="0.5" stroke="#000000" stroke-opacity="0.30196" stroke-linecap="round" stroke-linejoin="round"/>
  <text x="119" y="90.17" font-family="Menlo" font-size="12" font-weight="normal" font-style="normal" fill="#000000" fill-opacity="1">Deque&lt;Int&gt; random swaps (contiguous)</text>
  <path d="M 88 103 L 108 103" fill="none" stroke-width="4" stroke="#FFCC00" stroke-opacity="1" stroke-linecap="round" stroke-linejoin="round"/>
  <path d="M 88 103 L 108 103" fill="none" stroke-width="0.5" stroke="#000000" stroke-opacity="0.30196" stroke-linecap="round" stroke-linejoin="round"/>
  <text x="119" y="107.17" font-family="Menlo" font-size="12" font-weight="normal" font-style="normal" fill="#000000" fill-opacity="1">Deque&lt;Int&gt; random swaps (discontiguous)</text>
  <path d="M 50 9 L 50 441 L 1230 441 L 1230 9 z" fill="none" stroke-width="0.5" stroke="#000000" stroke-opacity="1" stroke-linecap="round" stroke-linejoin="round"/>
</svg>
