<!DOCTYPE svg PUBLIC "-//W3C//DTD SVG 1.1//EN" "http://www.w3.org/Graphics/SVG/1.1/DTD/svg11.dtd">
<svg width="1280.0px" height="480.0px" viewBox="0.0 0.0 1280.0 480.0" xmlns="http://www.w3.org/2000/svg" xmlns:xlink="http://www.w3.org/1999/xlink" version="1.1">
  <path d="M 0 0 L 0 480 L 1280 480 L 1280 0 z" fill="#FFFFFF" fill-opacity="1.0" stroke="none"/>
  <text x="50" y="468.7" font-family="Helvetica" font-size="10" font-weight="normal" font-style="normal" fill="#000000" fill-opacity="1">Average per-element processing time over input size (bands: min, mean, mean + 2stddev)</text>
  <a xlink:href="https://github.com/apple/swift-collections-benchmark"><text x="1107" y="468.7" font-family="Helvetica" font-size="10" font-weight="normal" font-style="normal" fill="#000000" fill-opacity="1">swift-collections-benchmark</text></a>
  <path d="M 50 9 L 50 441" fill="none" stroke-width="0.75" stroke="#000000" stroke-opacity="0.49804" stroke-linecap="butt" stroke-linejoin="round"/>
  <text x="47" y="453.7" font-family="Helvetica" font-size="10" font-weight="normal" font-style="normal" fill="#000000" fill-opacity="1">1</text>
  <path d="M 109 9 L 109 441" fill="none" stroke-width="0.75" stroke="#000000" stroke-opacity="0.49804" stroke-linecap="butt" stroke-linejoin="round"/>
  <text x="106" y="453.7" font-family="Helvetica" font-size="10" font-weight="normal" font-style="normal" fill="#000000" fill-opacity="1">2</text>
  <path d="M 168 9 L 168 441" fill="none" stroke-width="0.75" stroke="#000000" stroke-opacity="0.49804" stroke-linecap="butt" stroke-linejoin="round"/>
  <text x="165" y="453.7" font-family="Helvetica" font-size="10" font-weight="normal" font-style="normal" fill="#000000" fill-opacity="1">4</text>
  <path d="M 227 9 L 227 441" fill="none" stroke-width="0.75" stroke="#000000" stroke-opacity="0.49804" stroke-linecap="butt" stroke-linejoin="round"/>
  <text x="224" y="453.7" font-family="Helvetica" font-size="10" font-weight="normal" font-style="normal" fill="#000000" fill-opacity="1">8</text>
  <path d="M 286 9 L 286 441" fill="none" stroke-width="0.75" stroke="#000000" stroke-opacity="0.49804" stroke-linecap="butt" stroke-linejoin="round"/>
  <text x="280" y="453.7" font-family="Helvetica" font-size="10" font-weight="normal" font-style="normal" fill="#000000" fill-opacity="1">16</text>
  <path d="M 345 9 L 345 441" fill="none" stroke-width="0.75" stroke="#000000" stroke-opacity="0.49804" stroke-linecap="butt" stroke-linejoin="round"/>
  <text x="339" y="453.7" font-family="Helvetica" font-size="10" font-weight="normal" font-style="normal" fill="#000000" fill-opacity="1">32</text>
  <path d="M 404 9 L 404 441" fill="none" stroke-width="0.75" stroke="#000000" stroke-opacity="0.49804" stroke-linecap="butt" stroke-linejoin="round"/>
  <text x="398" y="453.7" font-family="Helvetica" font-size="10" font-weight="normal" font-style="normal" fill="#000000" fill-opacity="1">64</text>
  <path d="M 463 9 L 463 441" fill="none" stroke-width="0.75" stroke="#000000" stroke-opacity="0.49804" stroke-linecap="butt" stroke-linejoin="round"/>
  <text x="454.5" y="453.7" font-family="Helvetica" font-size="10" font-weight="normal" font-style="normal" fill="#000000" fill-opacity="1">128</text>
  <path d="M 522 9 L 522 441" fill="none" stroke-width="0.75" stroke="#000000" stroke-opacity="0.49804" stroke-linecap="butt" stroke-linejoin="round"/>
  <text x="513.5" y="453.7" font-family="Helvetica" font-size="10" font-weight="normal" font-style="normal" fill="#000000" fill-opacity="1">256</text>
  <path d="M 581 9 L 581 441" fill="none" stroke-width="0.75" stroke="#000000" stroke-opacity="0.49804" stroke-linecap="butt" stroke-linejoin="round"/>
  <text x="572.5" y="453.7" font-family="Helvetica" font-size="10" font-weight="normal" font-style="normal" fill="#000000" fill-opacity="1">512</text>
  <path d="M 640 9 L 640 441" fill="none" stroke-width="0.75" stroke="#000000" stroke-opacity="0.49804" stroke-linecap="butt" stroke-linejoin="round"/>
  <text x="634.5" y="453.7" font-family="Helvetica" font-size="10" font-weight="normal" font-style="normal" fill="#000000" fill-opacity="1">1k</text>
  <path d="M 699 9 L 699 441" fill="none" stroke-width="0.75" stroke="#000000" stroke-opacity="0.49804" stroke-linecap="butt" stroke-linejoin="round"/>
  <text x="693.5" y="453.7" font-family="Helvetica" font-size="10" font-weight="normal" font-style="normal" fill="#000000" fill-opacity="1">2k</text>
  <path d="M 758 9 L 758 441" fill="none" stroke-width="0.75" stroke="#000000" stroke-opacity="0.49804" stroke-linecap="butt" stroke-linejoin="round"/>
  <text x="752.5" y="453.7" font-family="Helvetica" font-size="10" font-weight="normal" font-style="normal" fill="#000000" fill-opacity="1">4k</text>
  <path d="M 817 9 L 817 441" fill="none" stroke-width="0.75" stroke="#000000" stroke-opacity="0.49804" stroke-linecap="butt" stroke-linejoin="round"/>
  <text x="811.5" y="453.7" font-family="Helvetica" font-size="10" font-weight="normal" font-style="normal" fill="#000000" fill-opacity="1">8k</text>
  <path d="M 876 9 L 876 441" fill="none" stroke-width="0.75" stroke="#000000" stroke-opacity="0.49804" stroke-linecap="butt" stroke-linejoin="round"/>
  <text x="867.5" y="453.7" font-family="Helvetica" font-size="10" font-weight="normal" font-style="normal" fill="#000000" fill-opacity="1">16k</text>
  <path d="M 935 9 L 935 441" fill="none" stroke-width="0.75" stroke="#000000" stroke-opacity="0.49804" stroke-linecap="butt" stroke-linejoin="round"/>
  <text x="926.5" y="453.7" font-family="Helvetica" font-size="10" font-weight="normal" font-style="normal" fill="#000000" fill-opacity="1">32k</text>
  <path d="M 994 9 L 994 441" fill="none" stroke-width="0.75" stroke="#000000" stroke-opacity="0.49804" stroke-linecap="butt" stroke-linejoin="round"/>
  <text x="985.5" y="453.7" font-family="Helvetica" font-size="10" font-weight="normal" font-style="normal" fill="#000000" fill-opacity="1">64k</text>
  <path d="M 1053 9 L 1053 441" fill="none" stroke-width="0.75" stroke="#000000" stroke-opacity="0.49804" stroke-linecap="butt" stroke-linejoin="round"/>
  <text x="1042" y="453.7" font-family="Helvetica" font-size="10" font-weight="normal" font-style="normal" fill="#000000" fill-opacity="1">128k</text>
  <path d="M 1112 9 L 1112 441" fill="none" stroke-width="0.75" stroke="#000000" stroke-opacity="0.49804" stroke-linecap="butt" stroke-linejoin="round"/>
  <text x="1101" y="453.7" font-family="Helvetica" font-size="10" font-weight="normal" font-style="normal" fill="#000000" fill-opacity="1">256k</text>
  <path d="M 1171 9 L 1171 441" fill="none" stroke-width="0.75" stroke="#000000" stroke-opacity="0.49804" stroke-linecap="butt" stroke-linejoin="round"/>
  <text x="1160" y="453.7" font-family="Helvetica" font-size="10" font-weight="normal" font-style="normal" fill="#000000" fill-opacity="1">512k</text>
  <path d="M 1230 9 L 1230 441" fill="none" stroke-width="0.75" stroke="#000000" stroke-opacity="0.49804" stroke-linecap="butt" stroke-linejoin="round"/>
  <text x="1223" y="453.7" font-family="Helvetica" font-size="10" font-weight="normal" font-style="normal" fill="#000000" fill-opacity="1">1M</text>
  <path d="M 50 441 L 1230 441" fill="none" stroke-width="0.75" stroke="#000000" stroke-opacity="0.49804" stroke-linecap="butt" stroke-linejoin="round"/>
  <text x="27" y="442.7" font-family="Helvetica" font-size="10" font-weight="normal" font-style="normal" fill="#000000" fill-opacity="1">1 ns</text>
  <text x="1236" y="442.7" font-family="Helvetica" font-size="10" font-weight="normal" font-style="normal" fill="#000000" fill-opacity="1">1 ns</text>
  <path d="M 50 297 L 1230 297" fill="none" stroke-width="0.75" stroke="#000000" stroke-opacity="0.49804" stroke-linecap="butt" stroke-linejoin="round"/>
  <text x="21" y="298.7" font-family="Helvetica" font-size="10" font-weight="normal" font-style="normal" fill="#000000" fill-opacity="1">10 ns</text>
  <text x="1236" y="298.7" font-family="Helvetica" font-size="10" font-weight="normal" font-style="normal" fill="#000000" fill-opacity="1">10 ns</text>
  <path d="M 50 153 L 1230 153" fill="none" stroke-width="0.75" stroke="#000000" stroke-opacity="0.49804" stroke-linecap="butt" stroke-linejoin="round"/>
  <text x="16" y="154.7" font-family="Helvetica" font-size="10" font-weight="normal" font-style="normal" fill="#000000" fill-opacity="1">100 ns</text>
  <text x="1236" y="154.7" font-family="Helvetica" font-size="10" font-weight="normal" font-style="normal" fill="#000000" fill-opacity="1">100 ns</text>
  <path d="M 50 9 L 1230 9" fill="none" stroke-width="0.75" stroke="#000000" stroke-opacity="0.49804" stroke-linecap="butt" stroke-linejoin="round"/>
  <text x="26" y="10.7" font-family="Helvetica" font-size="10" font-weight="normal" font-style="normal" fill="#000000" fill-opacity="1">1 µs</text>
  <text x="1236" y="10.7" font-family="Helvetica" font-size="10" font-weight="normal" font-style="normal" fill="#000000" fill-opacity="1">1 µs</text>
  <path d="M 50 397.65 L 1230 397.65" fill="none" stroke-width="0.5" stroke="#000000" stroke-opacity="0.25882" stroke-linecap="butt" stroke-linejoin="round" stroke-dasharray="6 3" stroke-dashoffset="0"/>
  <path d="M 50 354.3 L 1230 354.3" fill="none" stroke-width="0.5" stroke="#000000" stroke-opacity="0.25882" stroke-linecap="butt" stroke-linejoin="round" stroke-dasharray="6 3" stroke-dashoffset="0"/>
  <path d="M 50 310.96 L 1230 310.96" fill="none" stroke-width="0.5" stroke="#000000" stroke-opacity="0.25882" stroke-linecap="butt" stroke-linejoin="round" stroke-dasharray="6 3" stroke-dashoffset="0"/>
  <path d="M 50 267.61 L 1230 267.61" fill="none" stroke-width="0.5" stroke="#000000" stroke-opacity="0.25882" stroke-linecap="butt" stroke-linejoin="round" stroke-dasharray="6 3" stroke-dashoffset="0"/>
  <path d="M 50 224.26 L 1230 224.26" fill="none" stroke-width="0.5" stroke="#000000" stroke-opacity="0.25882" stroke-linecap="butt" stroke-linejoin="round" stroke-dasharray="6 3" stroke-dashoffset="0"/>
  <path d="M 50 180.91 L 1230 180.91" fill="none" stroke-width="0.5" stroke="#000000" stroke-opacity="0.25882" stroke-linecap="butt" stroke-linejoin="round" stroke-dasharray="6 3" stroke-dashoffset="0"/>
  <path d="M 50 137.56 L 1230 137.56" fill="none" stroke-width="0.5" stroke="#000000" stroke-opacity="0.25882" stroke-linecap="butt" stroke-linejoin="round" stroke-dasharray="6 3" stroke-dashoffset="0"/>
  <path d="M 50 94.213 L 1230 94.213" fill="none" stroke-width="0.5" stroke="#000000" stroke-opacity="0.25882" stroke-linecap="butt" stroke-linejoin="round" stroke-dasharray="6 3" stroke-dashoffset="0"/>
  <path d="M 50 50.865 L 1230 50.865" fill="none" stroke-width="0.5" stroke="#000000" stroke-opacity="0.25882" stroke-linecap="butt" stroke-linejoin="round" stroke-dasharray="6 3" stroke-dashoffset="0"/>
  <path d="M 74 33 L 74 88 L 327 88 L 327 33 z" fill="#FFFFFF" fill-opacity="1.0" stroke="none"/>
  <clipPath id="clip-0">
    <path d="M 50 9 L 50 441 L 1230 441 L 1230 9 z"/>
  </clipPath>
  <g clip-path="url(#clip-0)">
    <path d="M 50 207.25L 109 250.6L 143.51 277.46L 168 207.63L 186.99 264.56L 202.51 232.98L 215.63 207.68L 227 200.38L 245.99 196.35L 261.51 202.71L 274.63 188.71L 286 185.08L 304.99 178.37L 320.51 180.71L 333.63 172.74L 345 167.42L 363.99 170.12L 379.51 164.4L 392.63 165.53L 404 163.92L 422.99 163.25L 438.51 158.21L 451.63 159.05L 463 157.47L 481.99 155.32L 497.51 151.23L 510.63 152.26L 522 148.14L 540.99 147.47L 556.51 145.32L 569.63 142.19L 581 142.65L 599.99 140.63L 615.51 138.48L 628.63 135.69L 640 138L 658.99 133.96L 674.51 132.48L 687.63 130.37L 699 129.34L 717.99 126.97L 733.51 125.62L 746.63 122.72L 758 121.58L 776.99 119.06L 792.51 116.58L 805.63 115.1L 817 113.41L 835.99 110.45L 851.51 109.54L 864.63 108.34L 876 106.33L 894.99 104.47L 910.51 103.16L 923.63 100.17L 935 99.951L 953.99 97.296L 969.51 95.59L 969.51 95.59L 953.99 97.296L 935 99.951L 923.63 100.17L 910.51 103.16L 894.99 104.47L 876 106.33L 864.63 108.34L 851.51 109.54L 835.99 110.45L 817 113.41L 805.63 115.1L 792.51 116.58L 776.99 119.06L 758 121.58L 746.63 122.72L 733.51 125.62L 717.99 126.97L 699 129.34L 687.63 130.37L 674.51 132.48L 658.99 133.96L 640 138L 628.63 135.69L 615.51 138.48L 599.99 140.63L 581 142.65L 569.63 142.19L 556.51 145.32L 540.99 147.47L 522 148.14L 510.63 152.26L 497.51 151.23L 481.99 155.32L 463 157.47L 451.63 159.05L 438.51 158.21L 422.99 163.25L 404 163.92L 392.63 165.53L 379.51 164.4L 363.99 170.12L 345 167.42L 333.63 172.74L 320.51 180.71L 304.99 178.37L 286 185.08L 274.63 188.71L 261.51 202.71L 245.99 196.35L 227 200.38L 215.63 207.68L 202.51 232.98L 186.99 264.56L 168 207.63L 143.51 277.46L 109 250.6L 50 207.25" fill="#007AFF" fill-opacity="0.30196078431372547" stroke="none"/>
    <path d="M 50 208.76L 109 252.11L 143.51 274.61L 168 293.95L 186.99 307.9L 202.51 320.81L 215.63 327.6L 227 335.95L 245.99 352.76L 261.51 361.31L 274.63 372.29L 286 379.3L 304.99 394.6L 320.51 404.66L 333.63 373.04L 345 379.97L 363.99 393.92L 379.51 381.14L 392.63 390.78L 404 368.08L 422.99 394.63L 438.51 382.05L 451.63 390.78L 463 382.06L 481.99 395.16L 497.51 386.99L 510.63 396.27L 522 399.13L 540.99 395.49L 556.51 396.08L 569.63 402.07L 581 401.69L 599.99 397.24L 615.51 399.13L 628.63 399.26L 640 401.82L 658.99 400.31L 674.51 401.8L 687.63 397.87L 699 401.77L 717.99 401.29L 733.51 401.39L 746.63 401.45L 758 401.5L 776.99 402.06L 792.51 401.82L 805.63 401.64L 817 402.14L 835.99 398.64L 851.51 402.03L 864.63 394.95L 876 402.14L 894.99 401.94L 910.51 401.98L 923.63 402.05L 935 402.14L 953.99 398.64L 969.51 402.08L 982.63 402.14L 994 401.95L 1013 402.12L 1028.5 399.82L 1041.6 394.09L 1053 401.94L 1072 402L 1087.5 401.87L 1100.6 399.64L 1112 396.14L 1131 399.04L 1146.5 401.82L 1159.6 395.26L 1171 398.84L 1190 396.79L 1205.5 386.44L 1218.6 380.79L 1230 367.5L 1230 368.77L 1218.6 388.95L 1205.5 395.27L 1190 398.9L 1171 401.46L 1159.6 400.28L 1146.5 401.84L 1131 401.95L 1112 402.07L 1100.6 402.06L 1087.5 402.06L 1072 402.06L 1053 402.11L 1041.6 402.15L 1028.5 402.12L 1013 402.15L 994 402.16L 982.63 402.14L 969.51 402.19L 953.99 402.14L 935 402.14L 923.63 402.23L 910.51 402.19L 894.99 402.2L 876 402.14L 864.63 402.19L 851.51 402.25L 835.99 402.2L 817 402.14L 805.63 402.38L 792.51 402.25L 776.99 402.07L 758 402.14L 746.63 402.18L 733.51 402.24L 717.99 402.34L 699 401.8L 687.63 402.17L 674.51 401.8L 658.99 402.34L 640 401.82L 628.63 402.21L 615.51 399.13L 599.99 401.27L 581 401.82L 569.63 402.21L 556.51 402.65L 540.99 403.38L 522 399.13L 510.63 396.27L 497.51 399.13L 481.99 395.16L 463 399.13L 451.63 390.78L 438.51 406.75L 422.99 395.35L 404 399.13L 392.63 390.78L 379.51 381.14L 363.99 395.35L 345 381.39L 333.63 373.04L 320.51 407.51L 304.99 394.6L 286 382.15L 274.63 372.29L 261.51 364.16L 245.99 352.76L 227 338.8L 215.63 330.45L 202.51 320.81L 186.99 307.9L 168 293.95L 143.51 277.46L 109 252.11L 50 208.76" fill="#FF3B30" fill-opacity="0.30196078431372547" stroke="none"/>
    <path d="M 50 207.25L 109 250.6L 143.51 277.46L 168 207.63L 186.99 264.56L 202.51 232.98L 215.63 207.68L 227 200.38L 245.99 196.35L 261.51 202.71L 274.63 188.71L 286 185.08L 304.99 178.37L 320.51 180.71L 333.63 172.74L 345 167.42L 363.99 170.12L 379.51 164.4L 392.63 165.53L 404 163.92L 422.99 163.25L 438.51 158.21L 451.63 159.05L 463 157.47L 481.99 155.32L 497.51 151.23L 510.63 152.26L 522 148.14L 540.99 147.47L 556.51 145.32L 569.63 142.19L 581 142.65L 599.99 140.63L 615.51 138.48L 628.63 135.69L 640 138L 658.99 133.96L 674.51 132.48L 687.63 130.37L 699 129.34L 717.99 126.97L 733.51 125.62L 746.63 122.72L 758 121.58L 776.99 119.06L 792.51 116.58L 805.63 115.1L 817 113.41L 835.99 110.45L 851.51 109.54L 864.63 108.34L 876 106.33L 894.99 104.47L 910.51 103.16L 923.63 100.17L 935 99.951L 953.99 97.296L 969.51 95.59" fill="none" stroke-width="4" stroke="#007AFF" stroke-opacity="1" stroke-linecap="round" stroke-linejoin="round"/>
    <path d="M 50 208.76L 109 252.11L 143.51 276.71L 168 293.95L 186.99 307.9L 202.51 320.81L 215.63 329.7L 227 338.05L 245.99 352.76L 261.51 363.4L 274.63 372.29L 286 381.39L 304.99 394.6L 320.51 406.75L 333.63 373.04L 345 381.02L 363.99 394.97L 379.51 381.14L 392.63 390.78L 404 389.42L 422.99 395.16L 438.51 399.3L 451.63 390.78L 463 394.21L 481.99 395.16L 497.51 395.73L 510.63 396.27L 522 399.13L 540.99 401.22L 556.51 400.87L 569.63 402.17L 581 401.79L 599.99 400.19L 615.51 399.13L 628.63 401.43L 640 401.82L 658.99 401.81L 674.51 401.8L 687.63 401.02L 699 401.79L 717.99 402.07L 733.51 402.02L 746.63 401.99L 758 401.97L 776.99 402.07L 792.51 402.14L 805.63 402.19L 817 402.14L 835.99 401.25L 851.51 402.19L 864.63 400.22L 876 402.14L 894.99 402.14L 910.51 402.14L 923.63 402.19L 935 402.14L 953.99 401.2L 969.51 402.17L 982.63 402.14L 994 402.11L 1013 402.15L 1028.5 401.51L 1041.6 399.94L 1053 402.06L 1072 402.04L 1087.5 402.01L 1100.6 401.42L 1112 400.47L 1131 401.18L 1146.5 401.83L 1159.6 398.93L 1171 400.77L 1190 398.34L 1205.5 392.84L 1218.6 386.71L 1230 368.44" fill="none" stroke-width="4" stroke="#FF3B30" stroke-opacity="1" stroke-linecap="round" stroke-linejoin="round"/>
    <path d="M 50 207.25L 109 250.6L 143.51 277.46L 168 207.63L 186.99 264.56L 202.51 232.98L 215.63 207.68L 227 200.38L 245.99 196.35L 261.51 202.71L 274.63 188.71L 286 185.08L 304.99 178.37L 320.51 180.71L 333.63 172.74L 345 167.42L 363.99 170.12L 379.51 164.4L 392.63 165.53L 404 163.92L 422.99 163.25L 438.51 158.21L 451.63 159.05L 463 157.47L 481.99 155.32L 497.51 151.23L 510.63 152.26L 522 148.14L 540.99 147.47L 556.51 145.32L 569.63 142.19L 581 142.65L 599.99 140.63L 615.51 138.48L 628.63 135.69L 640 138L 658.99 133.96L 674.51 132.48L 687.63 130.37L 699 129.34L 717.99 126.97L 733.51 125.62L 746.63 122.72L 758 121.58L 776.99 119.06L 792.51 116.58L 805.63 115.1L 817 113.41L 835.99 110.45L 851.51 109.54L 864.63 108.34L 876 106.33L 894.99 104.47L 910.51 103.16L 923.63 100.17L 935 99.951L 953.99 97.296L 969.51 95.59" fill="none" stroke-width="0.5" stroke="#000000" stroke-opacity="0.30196" stroke-linecap="round" stroke-linejoin="round"/>
    <path d="M 50 208.76L 109 252.11L 143.51 276.71L 168 293.95L 186.99 307.9L 202.51 320.81L 215.63 329.7L 227 338.05L 245.99 352.76L 261.51 363.4L 274.63 372.29L 286 381.39L 304.99 394.6L 320.51 406.75L 333.63 373.04L 345 381.02L 363.99 394.97L 379.51 381.14L 392.63 390.78L 404 389.42L 422.99 395.16L 438.51 399.3L 451.63 390.78L 463 394.21L 481.99 395.16L 497.51 395.73L 510.63 396.27L 522 399.13L 540.99 401.22L 556.51 400.87L 569.63 402.17L 581 401.79L 599.99 400.19L 615.51 399.13L 628.63 401.43L 640 401.82L 658.99 401.81L 674.51 401.8L 687.63 401.02L 699 401.79L 717.99 402.07L 733.51 402.02L 746.63 401.99L 758 401.97L 776.99 402.07L 792.51 402.14L 805.63 402.19L 817 402.14L 835.99 401.25L 851.51 402.19L 864.63 400.22L 876 402.14L 894.99 402.14L 910.51 402.14L 923.63 402.19L 935 402.14L 953.99 401.2L 969.51 402.17L 982.63 402.14L 994 402.11L 1013 402.15L 1028.5 401.51L 1041.6 399.94L 1053 402.06L 1072 402.04L 1087.5 402.01L 1100.6 401.42L 1112 400.47L 1131 401.18L 1146.5 401.83L 1159.6 398.93L 1171 400.77L 1190 398.34L 1205.5 392.84L 1218.6 386.71L 1230 368.44" fill="none" stroke-width="0.5" stroke="#000000" stroke-opacity="0.30196" stroke-linecap="round" stroke-linejoin="round"/>
  </g>
  <path d="M 74 33 L 74 88 L 327 88 L 327 33 z" fill="#FFFFFF" fill-opacity="0.7019607843137254" stroke-width="0.5" stroke="#000000" stroke-opacity="1" stroke-linecap="round" stroke-linejoin="round"/>
  <path d="M 88 52 L 108 52" fill="none" stroke-width="4" stroke="#FF3B30" stroke-opacity="1" stroke-linecap="round" stroke-linejoin="round"/>
  <path d="M 88 52 L 108 52" fill="none" stroke-width="0.5" stroke="#000000" stroke-opacity="0.30196" stroke-linecap="round" stroke-linejoin="round"/>
  <text x="119" y="56.17" font-family="Menlo" font-size="12" font-weight="normal" font-style="normal" fill="#000000" fill-opacity="1">Array&lt;Int&gt; random swaps</text>
  <path d="M 88 69 L 108 69" fill="none" stroke-width="4" stroke="#007AFF" stroke-opacity="1" stroke-linecap="round" stroke-linejoin="round"/>
  <path d="M 88 69 L 108 69" fill="none" stroke-width="0.5" stroke="#000000" stroke-opacity="0.30196" stroke-linecap="round" stroke-linejoin="round"/>
  <text x="119" y="73.17" font-family="Menlo" font-size="12" font-weight="normal" font-style="normal" fill="#000000" fill-opacity="1">TreeArray&lt;Int&gt; random swaps</text>
  <path d="M 50 9 L 50 441 L 1230 441 L 1230 9 z" fill="none" stroke-width="0.5" stroke="#000000" stroke-opacity="1" stroke-linecap="round" stroke-linejoin="round"/>
</svg>
