<!DOCTYPE svg PUBLIC "-//W3C//DTD SVG 1.1//EN" "http://www.w3.org/Graphics/SVG/1.1/DTD/svg11.dtd">
<svg width="1280.0px" height="480.0px" viewBox="0.0 0.0 1280.0 480.0" xmlns="http://www.w3.org/2000/svg" xmlns:xlink="http://www.w3.org/1999/xlink" version="1.1">
  <path d="M 0 0 L 0 480 L 1280 480 L 1280 0 z" fill="#FFFFFF" fill-opacity="1.0" stroke="none"/>
  <text x="50" y="468.7" font-family="Helvetica" font-size="10" font-weight="normal" font-style="normal" fill="#000000" fill-opacity="1">Average per-element processing time over input size (bands: min, mean, mean + 2stddev)</text>
  <a xlink:href="https://github.com/apple/swift-collections-benchmark"><text x="1107" y="468.7" font-family="Helvetica" font-size="10" font-weight="normal" font-style="normal" fill="#000000" fill-opacity="1">swift-collections-benchmark</text></a>
  <path d="M 50 9 L 50 441" fill="none" stroke-width="0.75" stroke="#000000" stroke-opacity="0.49804" stroke-linecap="butt" stroke-linejoin="round"/>
  <text x="47" y="453.7" font-family="Helvetica" font-size="10" font-weight="normal" font-style="normal" fill="#000000" fill-opacity="1">1</text>
  <path d="M 109 9 L 109 441" fill="none" stroke-width="0.75" stroke="#000000" stroke-opacity="0.49804" stroke-linecap="butt" stroke-linejoin="round"/>
  <text x="106" y="453.7" font-family="Helvetica" font-size="10" font-weight="normal" font-style="normal" fill="#000000" fill-opacity="1">2</text>
  <path d="M 168 9 L 168 441" fill="none" stroke-width="0.75" stroke="#000000" stroke-opacity="0.49804" stroke-linecap="butt" stroke-linejoin="round"/>
  <text x="165" y="453.7" font-family="Helvetica" font-size="10" font-weight="normal" font-style="normal" fill="#000000" fill-opacity="1">4</text>
  <path d="M 227 9 L 227 441" fill="none" stroke-width="0.75" stroke="#000000" stroke-opacity="0.49804" stroke-linecap="butt" stroke-linejoin="round"/>
  <text x="224" y="453.7" font-family="Helvetica" font-size="10" font-weight="normal" font-style="normal" fill="#000000" fill-opacity="1">8</text>
  <path d="M 286 9 L 286 441" fill="none" stroke-width="0.75" stroke="#000000" stroke-opacity="0.49804" stroke-linecap="butt" stroke-linejoin="round"/>
  <text x="280" y="453.7" font-family="Helvetica" font-size="10" font-weight="normal" font-style="normal" fill="#000000" fill-opacity="1">16</text>
  <path d="M 345 9 L 345 441" fill="none" stroke-width="0.75" stroke="#000000" stroke-opacity="0.49804" stroke-linecap="butt" stroke-linejoin="round"/>
  <text x="339" y="453.7" font-family="Helvetica" font-size="10" font-weight="normal" font-style="normal" fill="#000000" fill-opacity="1">32</text>
  <path d="M 404 9 L 404 441" fill="none" stroke-width="0.75" stroke="#000000" stroke-opacity="0.49804" stroke-linecap="butt" stroke-linejoin="round"/>
  <text x="398" y="453.7" font-family="Helvetica" font-size="10" font-weight="normal" font-style="normal" fill="#000000" fill-opacity="1">64</text>
  <path d="M 463 9 L 463 441" fill="none" stroke-width="0.75" stroke="#000000" stroke-opacity="0.49804" stroke-linecap="butt" stroke-linejoin="round"/>
  <text x="454.5" y="453.7" font-family="Helvetica" font-size="10" font-weight="normal" font-style="normal" fill="#000000" fill-opacity="1">128</text>
  <path d="M 522 9 L 522 441" fill="none" stroke-width="0.75" stroke="#000000" stroke-opacity="0.49804" stroke-linecap="butt" stroke-linejoin="round"/>
  <text x="513.5" y="453.7" font-family="Helvetica" font-size="10" font-weight="normal" font-style="normal" fill="#000000" fill-opacity="1">256</text>
  <path d="M 581 9 L 581 441" fill="none" stroke-width="0.75" stroke="#000000" stroke-opacity="0.49804" stroke-linecap="butt" stroke-linejoin="round"/>
  <text x="572.5" y="453.7" font-family="Helvetica" font-size="10" font-weight="normal" font-style="normal" fill="#000000" fill-opacity="1">512</text>
  <path d="M 640 9 L 640 441" fill="none" stroke-width="0.75" stroke="#000000" stroke-opacity="0.49804" stroke-linecap="butt" stroke-linejoin="round"/>
  <text x="634.5" y="453.7" font-family="Helvetica" font-size="10" font-weight="normal" font-style="normal" fill="#000000" fill-opacity="1">1k</text>
  <path d="M 699 9 L 699 441" fill="none" stroke-width="0.75" stroke="#000000" stroke-opacity="0.49804" stroke-linecap="butt" stroke-linejoin="round"/>
  <text x="693.5" y="453.7" font-family="Helvetica" font-size="10" font-weight="normal" font-style="normal" fill="#000000" fill-opacity="1">2k</text>
  <path d="M 758 9 L 758 441" fill="none" stroke-width="0.75" stroke="#000000" stroke-opacity="0.49804" stroke-linecap="butt" stroke-linejoin="round"/>
  <text x="752.5" y="453.7" font-family="Helvetica" font-size="10" font-weight="normal" font-style="normal" fill="#000000" fill-opacity="1">4k</text>
  <path d="M 817 9 L 817 441" fill="none" stroke-width="0.75" stroke="#000000" stroke-opacity="0.49804" stroke-linecap="butt" stroke-linejoin="round"/>
  <text x="811.5" y="453.7" font-family="Helvetica" font-size="10" font-weight="normal" font-style="normal" fill="#000000" fill-opacity="1">8k</text>
  <path d="M 876 9 L 876 441" fill="none" stroke-width="0.75" stroke="#000000" stroke-opacity="0.49804" stroke-linecap="butt" stroke-linejoin="round"/>
  <text x="867.5" y="453.7" font-family="Helvetica" font-size="10" font-weight="normal" font-style="normal" fill="#000000" fill-opacity="1">16k</text>
  <path d="M 935 9 L 935 441" fill="none" stroke-width="0.75" stroke="#000000" stroke-opacity="0.49804" stroke-linecap="butt" stroke-linejoin="round"/>
  <text x="926.5" y="453.7" font-family="Helvetica" font-size="10" font-weight="normal" font-style="normal" fill="#000000" fill-opacity="1">32k</text>
  <path d="M 994 9 L 994 441" fill="none" stroke-width="0.75" stroke="#000000" stroke-opacity="0.49804" stroke-linecap="butt" stroke-linejoin="round"/>
  <text x="985.5" y="453.7" font-family="Helvetica" font-size="10" font-weight="normal" font-style="normal" fill="#000000" fill-opacity="1">64k</text>
  <path d="M 1053 9 L 1053 441" fill="none" stroke-width="0.75" stroke="#000000" stroke-opacity="0.49804" stroke-linecap="butt" stroke-linejoin="round"/>
  <text x="1042" y="453.7" font-family="Helvetica" font-size="10" font-weight="normal" font-style="normal" fill="#000000" fill-opacity="1">128k</text>
  <path d="M 1112 9 L 1112 441" fill="none" stroke-width="0.75" stroke="#000000" stroke-opacity="0.49804" stroke-linecap="butt" stroke-linejoin="round"/>
  <text x="1101" y="453.7" font-family="Helvetica" font-size="10" font-weight="normal" font-style="normal" fill="#000000" fill-opacity="1">256k</text>
  <path d="M 1171 9 L 1171 441" fill="none" stroke-width="0.75" stroke="#000000" stroke-opacity="0.49804" stroke-linecap="butt" stroke-linejoin="round"/>
  <text x="1160" y="453.7" font-family="Helvetica" font-size="10" font-weight="normal" font-style="normal" fill="#000000" fill-opacity="1">512k</text>
  <path d="M 1230 9 L 1230 441" fill="none" stroke-width="0.75" stroke="#000000" stroke-opacity="0.49804" stroke-linecap="butt" stroke-linejoin="round"/>
  <text x="1223" y="453.7" font-family="Helvetica" font-size="10" font-weight="normal" font-style="normal" fill="#000000" fill-opacity="1">1M</text>
  <path d="M 50 441 L 1230 441" fill="none" stroke-width="0.75" stroke="#000000" stroke-opacity="0.49804" stroke-linecap="butt" stroke-linejoin="round"/>
  <text x="27" y="442.7" font-family="Helvetica" font-size="10" font-weight="normal" font-style="normal" fill="#000000" fill-opacity="1">1 ns</text>
  <text x="1236" y="442.7" font-family="Helvetica" font-size="10" font-weight="normal" font-style="normal" fill="#000000" fill-opacity="1">1 ns</text>
  <path d="M 50 297 L 1230 297" fill="none" stroke-width="0.75" stroke="#000000" stroke-opacity="0.49804" stroke-linecap="butt" stroke-linejoin="round"/>
  <text x="21" y="298.7" font-family="Helvetica" font-size="10" font-weight="normal" font-style="normal" fill="#000000" fill-opacity="1">10 ns</text>
  <text x="1236" y="298.7" font-family="Helvetica" font-size="10" font-weight="normal" font-style="normal" fill="#000000" fill-opacity="1">10 ns</text>
  <path d="M 50 153 L 1230 153" fill="none" stroke-width="0.75" stroke="#000000" stroke-opacity="0.49804" stroke-linecap="butt" stroke-linejoin="round"/>
  <text x="16" y="154.7" font-family="Helvetica" font-size="10" font-weight="normal" font-style="normal" fill="#000000" fill-opacity="1">100 ns</text>
  <text x="1236" y="154.7" font-family="Helvetica" font-size="10" font-weight="normal" font-style="normal" fill="#000000" fill-opacity="1">100 ns</text>
  <path d="M 50 9 L 1230 9" fill="none" stroke-width="0.75" stroke="#000000" stroke-opacity="0.49804" stroke-linecap="butt" stroke-linejoin="round"/>
  <text x="26" y="10.7" font-family="Helvetica" font-size="10" font-weight="normal" font-style="normal" fill="#000000" fill-opacity="1">1 µs</text>
  <text x="1236" y="10.7" font-family="Helvetica" font-size="10" font-weight="normal" font-style="normal" fill="#000000" fill-opacity="1">1 µs</text>
  <path d="M 50 397.65 L 1230 397.65" fill="none" stroke-width="0.5" stroke="#000000" stroke-opacity="0.25882" stroke-linecap="butt" stroke-linejoin="round" stroke-dasharray="6 3" stroke-dashoffset="0"/>
  <path d="M 50 354.3 L 1230 354.3" fill="none" stroke-width="0.5" stroke="#000000" stroke-opacity="0.25882" stroke-linecap="butt" stroke-linejoin="round" stroke-dasharray="6 3" stroke-dashoffset="0"/>
  <path d="M 50 310.96 L 1230 310.96" fill="none" stroke-width="0.5" stroke="#000000" stroke-opacity="0.25882" stroke-linecap="butt" stroke-linejoin="round" stroke-dasharray="6 3" stroke-dashoffset="0"/>
  <path d="M 50 267.61 L 1230 267.61" fill="none" stroke-width="0.5" stroke="#000000" stroke-opacity="0.25882" stroke-linecap="butt" stroke-linejoin="round" stroke-dasharray="6 3" stroke-dashoffset="0"/>
  <path d="M 50 224.26 L 1230 224.26" fill="none" stroke-width="0.5" stroke="#000000" stroke-opacity="0.25882" stroke-linecap="butt" stroke-linejoin="round" stroke-dasharray="6 3" stroke-dashoffset="0"/>
  <path d="M 50 180.91 L 1230 180.91" fill="none" stroke-width="0.5" stroke="#000000" stroke-opacity="0.25882" stroke-linecap="butt" stroke-linejoin="round" stroke-dasharray="6 3" stroke-dashoffset="0"/>
  <path d="M 50 137.56 L 1230 137.56" fill="none" stroke-width="0.5" stroke="#000000" stroke-opacity="0.25882" stroke-linecap="butt" stroke-linejoin="round" stroke-dasharray="6 3" stroke-dashoffset="0"/>
  <path d="M 50 94.213 L 1230 94.213" fill="none" stroke-width="0.5" stroke="#000000" stroke-opacity="0.25882" stroke-linecap="butt" stroke-linejoin="round" stroke-dasharray="6 3" stroke-dashoffset="0"/>
  <path d="M 50 50.865 L 1230 50.865" fill="none" stroke-width="0.5" stroke="#000000" stroke-opacity="0.25882" stroke-linecap="butt" stroke-linejoin="round" stroke-dasharray="6 3" stroke-dashoffset="0"/>
  <path d="M 74 33 L 74 88 L 327 88 L 327 33 z" fill="#FFFFFF" fill-opacity="1.0" stroke="none"/>
  <clipPath id="clip-0">
    <path d="M 50 9 L 50 441 L 1230 441 L 1230 9 z"/>
  </clipPath>
  <g clip-path="url(#clip-0)">
    <path d="M 50 205.91L 109 252.11L 143.51 191.35L 168 227.06L 186.99 187.41L 202.51 172.01L 215.63 192.64L 227 200.38L 245.99 183.48L 261.51 170.81L 274.63 192.03L 286 175.77L 304.99 166.64L 320.51 174.37L 333.63 153.76L 345 166.66L 363.99 164.54L 379.51 153.27L 392.63 162.83L 404 147.23L 422.99 157.13L 438.51 154.78L 451.63 150.62L 463 145.13L 481.99 144.08L 497.51 145.04L 510.63 147.7L 522 147.36L 540.99 141.41L 556.51 142.89L 569.63 136.09L 581 139.5L 599.99 138.31L 615.51 137.44L 628.63 137.36L 640 133.52L 658.99 134.88L 674.51 130.7L 687.63 130.45L 699 129.33L 717.99 122.71L 733.51 123.68L 746.63 121.58L 758 119.53L 776.99 114.14L 792.51 115.27L 805.63 114.43L 817 111.79L 835.99 109.7L 851.51 105.01L 864.63 107.92L 876 103.98L 894.99 98.534L 910.51 101.77L 923.63 100.65L 935 90.307L 953.99 94.554L 969.51 84.167L 982.63 92.598L 994 92.148L 1013 75.016L 1028.5 78.528L 1041.6 85.156L 1053 83.878L 1072 80.947L 1087.5 56.044L 1100.6 76.323L 1112 73.591L 1131 67.228L 1146.5 33.494L 1159.6 52.957L 1171 42.739L 1190 31.006L 1205.5 41.405L 1218.6 37.25L 1230 38.303L 1230 39.315L 1218.6 43.335L 1205.5 44.905L 1190 48.231L 1171 56.794L 1159.6 60.231L 1146.5 61.772L 1131 67.76L 1112 73.724L 1100.6 77.273L 1087.5 80.068L 1072 83.471L 1053 86.773L 1041.6 87.683L 1028.5 89.043L 1013 90.66L 994 93.19L 982.63 93.842L 969.51 95.695L 953.99 97.868L 935 100.3L 923.63 100.66L 910.51 102.72L 894.99 104.44L 876 104.95L 864.63 108.43L 851.51 108.95L 835.99 110.92L 817 113.53L 805.63 115.09L 792.51 115.61L 776.99 119.32L 758 122.12L 746.63 123.59L 733.51 125.49L 717.99 128.72L 699 130.02L 687.63 132.32L 674.51 132.8L 658.99 135.38L 640 135.85L 628.63 138.72L 615.51 139.18L 599.99 139.31L 581 141.49L 569.63 145.51L 556.51 143.78L 540.99 147.25L 522 148.62L 510.63 152.14L 497.51 152.57L 481.99 151.23L 463 156.82L 451.63 154.61L 438.51 155.32L 422.99 159.16L 404 161.54L 392.63 164.96L 379.51 171.29L 363.99 167.6L 345 172.76L 333.63 167.83L 320.51 177.39L 304.99 184.53L 286 196.98L 274.63 192.03L 261.51 198.15L 245.99 214.34L 227 200.38L 215.63 207.89L 202.51 251.1L 186.99 207.85L 168 293.95L 143.51 232.61L 109 252.11L 50 208.76" fill="#007AFF" fill-opacity="0.30196078431372547" stroke="none"/>
    <path d="M 50 205.91L 109 249.25L 143.51 275.96L 168 295.46L 186.99 307.9L 202.51 317.96L 215.63 327.6L 227 338.8L 245.99 351.25L 261.51 361.31L 274.63 370.95L 286 379.3L 304.99 394.6L 320.51 407.51L 333.63 415.64L 345 381.39L 363.99 393.92L 379.51 381.14L 392.63 390.78L 404 399.13L 422.99 395.35L 438.51 382.05L 451.63 401.71L 463 399.13L 481.99 395.16L 497.51 399.13L 510.63 396.13L 522 399.13L 540.99 399.13L 556.51 392.91L 569.63 391.29L 581 396.78L 599.99 401.27L 615.51 400.91L 628.63 399.26L 640 401.82L 658.99 400.26L 674.51 398.43L 687.63 400.72L 699 401.8L 717.99 401.81L 733.51 401.38L 746.63 402.17L 758 401.83L 776.99 402.07L 792.51 401.61L 805.63 401.81L 817 401.82L 835.99 398.52L 851.51 398.54L 864.63 402.1L 876 398.57L 894.99 402.14L 910.51 402.09L 923.63 398.64L 935 402.18L 953.99 402.11L 969.51 402.06L 982.63 401.98L 994 394.8L 1013 402.06L 1028.5 402.07L 1041.6 401.52L 1053 402.03L 1072 402L 1087.5 401.99L 1100.6 401.93L 1112 384.72L 1131 397.62L 1146.5 399.89L 1159.6 401.18L 1171 400.79L 1190 397.66L 1205.5 342.79L 1218.6 383.68L 1230 371.45L 1230 372.92L 1218.6 385.66L 1205.5 395.03L 1190 400.1L 1171 401.12L 1159.6 401.66L 1146.5 401.56L 1131 401.94L 1112 400.64L 1100.6 402.03L 1087.5 402.04L 1072 402L 1053 402.05L 1041.6 401.92L 1028.5 402.12L 1013 402.15L 994 402.16L 982.63 402.21L 969.51 402.17L 953.99 402.24L 935 402.18L 923.63 402.19L 910.51 402.19L 894.99 402.14L 876 402.22L 864.63 402.28L 851.51 402.14L 835.99 402.34L 817 402.14L 805.63 402.19L 792.51 402.48L 776.99 402.07L 758 402.47L 746.63 402.19L 733.51 402.25L 717.99 401.81L 699 401.8L 687.63 402.17L 674.51 401.8L 658.99 402.34L 640 401.82L 628.63 402.21L 615.51 400.91L 599.99 401.27L 581 401.82L 569.63 402.21L 556.51 399.13L 540.99 399.13L 522 399.13L 510.63 396.13L 497.51 399.13L 481.99 395.16L 463 399.13L 451.63 402.29L 438.51 406.75L 422.99 395.35L 404 399.13L 392.63 390.78L 379.51 381.14L 363.99 395.35L 345 381.39L 333.63 415.64L 320.51 407.51L 304.99 394.6L 286 382.15L 274.63 373.8L 261.51 364.16L 245.99 351.25L 227 338.8L 215.63 330.45L 202.51 320.81L 186.99 307.9L 168 295.46L 143.51 275.96L 109 252.11L 50 208.76" fill="#FF3B30" fill-opacity="0.30196078431372547" stroke="none"/>
    <path d="M 50 208L 109 252.11L 143.51 218.95L 168 268.59L 186.99 201.84L 202.51 219.25L 215.63 203.54L 227 200.38L 245.99 204.7L 261.51 189.77L 274.63 192.03L 286 190.71L 304.99 179.34L 320.51 176.58L 333.63 163.84L 345 171.11L 363.99 166.79L 379.51 166.06L 392.63 164.4L 404 157.48L 422.99 158.62L 438.51 155.18L 451.63 153.54L 463 153.55L 481.99 149.29L 497.51 150.51L 510.63 150.95L 522 148.29L 540.99 145.67L 556.51 143.55L 569.63 142.91L 581 140.97L 599.99 139.04L 615.51 138.72L 628.63 138.36L 640 135.23L 658.99 135.25L 674.51 132.24L 687.63 131.83L 699 129.84L 717.99 127.1L 733.51 125.01L 746.63 123.06L 758 121.43L 776.99 117.92L 792.51 115.52L 805.63 114.91L 817 113.07L 835.99 110.6L 851.51 107.89L 864.63 108.3L 876 104.69L 894.99 102.84L 910.51 102.47L 923.63 100.65L 935 97.534L 953.99 96.985L 969.51 92.473L 982.63 93.515L 994 92.917L 1013 86.182L 1028.5 86.121L 1041.6 87.013L 1053 86.004L 1072 82.802L 1087.5 72.85L 1100.6 77.024L 1112 73.689L 1131 67.621L 1146.5 53.068L 1159.6 58.248L 1171 52.807L 1190 43.255L 1205.5 43.972L 1218.6 41.688L 1230 39.049" fill="none" stroke-width="4" stroke="#007AFF" stroke-opacity="1" stroke-linecap="round" stroke-linejoin="round"/>
    <path d="M 50 208L 109 251.35L 143.51 275.96L 168 295.46L 186.99 307.9L 202.51 320.05L 215.63 329.7L 227 338.8L 245.99 351.25L 261.51 363.4L 274.63 373.04L 286 381.39L 304.99 394.6L 320.51 407.51L 333.63 415.64L 345 381.39L 363.99 394.97L 379.51 381.14L 392.63 390.78L 404 399.13L 422.99 395.35L 438.51 399.3L 451.63 402.14L 463 399.13L 481.99 395.16L 497.51 399.13L 510.63 396.13L 522 399.13L 540.99 399.13L 556.51 397.45L 569.63 399.17L 581 400.46L 599.99 401.27L 615.51 400.91L 628.63 401.43L 640 401.82L 658.99 401.79L 674.51 400.9L 687.63 401.79L 699 401.8L 717.99 401.81L 733.51 402.03L 746.63 402.19L 758 402.31L 776.99 402.07L 792.51 402.25L 805.63 402.09L 817 402.05L 835.99 401.32L 851.51 401.18L 864.63 402.23L 876 401.25L 894.99 402.14L 910.51 402.17L 923.63 401.24L 935 402.18L 953.99 402.21L 969.51 402.14L 982.63 402.15L 994 400.15L 1013 402.13L 1028.5 402.11L 1041.6 401.81L 1053 402.05L 1072 402L 1087.5 402.03L 1100.6 402L 1112 396.07L 1131 400.78L 1146.5 401.12L 1159.6 401.53L 1171 401.03L 1190 399.46L 1205.5 376.68L 1218.6 385.14L 1230 372.53" fill="none" stroke-width="4" stroke="#FF3B30" stroke-opacity="1" stroke-linecap="round" stroke-linejoin="round"/>
    <path d="M 50 208L 109 252.11L 143.51 218.95L 168 268.59L 186.99 201.84L 202.51 219.25L 215.63 203.54L 227 200.38L 245.99 204.7L 261.51 189.77L 274.63 192.03L 286 190.71L 304.99 179.34L 320.51 176.58L 333.63 163.84L 345 171.11L 363.99 166.79L 379.51 166.06L 392.63 164.4L 404 157.48L 422.99 158.62L 438.51 155.18L 451.63 153.54L 463 153.55L 481.99 149.29L 497.51 150.51L 510.63 150.95L 522 148.29L 540.99 145.67L 556.51 143.55L 569.63 142.91L 581 140.97L 599.99 139.04L 615.51 138.72L 628.63 138.36L 640 135.23L 658.99 135.25L 674.51 132.24L 687.63 131.83L 699 129.84L 717.99 127.1L 733.51 125.01L 746.63 123.06L 758 121.43L 776.99 117.92L 792.51 115.52L 805.63 114.91L 817 113.07L 835.99 110.6L 851.51 107.89L 864.63 108.3L 876 104.69L 894.99 102.84L 910.51 102.47L 923.63 100.65L 935 97.534L 953.99 96.985L 969.51 92.473L 982.63 93.515L 994 92.917L 1013 86.182L 1028.5 86.121L 1041.6 87.013L 1053 86.004L 1072 82.802L 1087.5 72.85L 1100.6 77.024L 1112 73.689L 1131 67.621L 1146.5 53.068L 1159.6 58.248L 1171 52.807L 1190 43.255L 1205.5 43.972L 1218.6 41.688L 1230 39.049" fill="none" stroke-width="0.5" stroke="#000000" stroke-opacity="0.30196" stroke-linecap="round" stroke-linejoin="round"/>
    <path d="M 50 208L 109 251.35L 143.51 275.96L 168 295.46L 186.99 307.9L 202.51 320.05L 215.63 329.7L 227 338.8L 245.99 351.25L 261.51 363.4L 274.63 373.04L 286 381.39L 304.99 394.6L 320.51 407.51L 333.63 415.64L 345 381.39L 363.99 394.97L 379.51 381.14L 392.63 390.78L 404 399.13L 422.99 395.35L 438.51 399.3L 451.63 402.14L 463 399.13L 481.99 395.16L 497.51 399.13L 510.63 396.13L 522 399.13L 540.99 399.13L 556.51 397.45L 569.63 399.17L 581 400.46L 599.99 401.27L 615.51 400.91L 628.63 401.43L 640 401.82L 658.99 401.79L 674.51 400.9L 687.63 401.79L 699 401.8L 717.99 401.81L 733.51 402.03L 746.63 402.19L 758 402.31L 776.99 402.07L 792.51 402.25L 805.63 402.09L 817 402.05L 835.99 401.32L 851.51 401.18L 864.63 402.23L 876 401.25L 894.99 402.14L 910.51 402.17L 923.63 401.24L 935 402.18L 953.99 402.21L 969.51 402.14L 982.63 402.15L 994 400.15L 1013 402.13L 1028.5 402.11L 1041.6 401.81L 1053 402.05L 1072 402L 1087.5 402.03L 1100.6 402L 1112 396.07L 1131 400.78L 1146.5 401.12L 1159.6 401.53L 1171 401.03L 1190 399.46L 1205.5 376.68L 1218.6 385.14L 1230 372.53" fill="none" stroke-width="0.5" stroke="#000000" stroke-opacity="0.30196" stroke-linecap="round" stroke-linejoin="round"/>
  </g>
  <path d="M 74 33 L 74 88 L 327 88 L 327 33 z" fill="#FFFFFF" fill-opacity="0.7019607843137254" stroke-width="0.5" stroke="#000000" stroke-opacity="1" stroke-linecap="round" stroke-linejoin="round"/>
  <path d="M 88 52 L 108 52" fill="none" stroke-width="4" stroke="#FF3B30" stroke-opacity="1" stroke-linecap="round" stroke-linejoin="round"/>
  <path d="M 88 52 L 108 52" fill="none" stroke-width="0.5" stroke="#000000" stroke-opacity="0.30196" stroke-linecap="round" stroke-linejoin="round"/>
  <text x="119" y="56.17" font-family="Menlo" font-size="12" font-weight="normal" font-style="normal" fill="#000000" fill-opacity="1">Array&lt;Int&gt; random swaps</text>
  <path d="M 88 69 L 108 69" fill="none" stroke-width="4" stroke="#007AFF" stroke-opacity="1" stroke-linecap="round" stroke-linejoin="round"/>
  <path d="M 88 69 L 108 69" fill="none" stroke-width="0.5" stroke="#000000" stroke-opacity="0.30196" stroke-linecap="round" stroke-linejoin="round"/>
  <text x="119" y="73.17" font-family="Menlo" font-size="12" font-weight="normal" font-style="normal" fill="#000000" fill-opacity="1">TreeArray&lt;Int&gt; random swaps</text>
  <path d="M 50 9 L 50 441 L 1230 441 L 1230 9 z" fill="none" stroke-width="0.5" stroke="#000000" stroke-opacity="1" stroke-linecap="round" stroke-linejoin="round"/>
</svg>
