<!DOCTYPE svg PUBLIC "-//W3C//DTD SVG 1.1//EN" "http://www.w3.org/Graphics/SVG/1.1/DTD/svg11.dtd">
<svg width="1280.0px" height="480.0px" viewBox="0.0 0.0 1280.0 480.0" xmlns="http://www.w3.org/2000/svg" xmlns:xlink="http://www.w3.org/1999/xlink" version="1.1">
  <path d="M 0 0 L 0 480 L 1280 480 L 1280 0 z" fill="#FFFFFF" fill-opacity="1.0" stroke="none"/>
  <text x="50" y="468.7" font-family="Helvetica" font-size="10" font-weight="normal" font-style="normal" fill="#000000" fill-opacity="1">Average per-element processing time over input size (bands: min, mean, mean + 2stddev)</text>
  <a xlink:href="https://github.com/apple/swift-collections-benchmark"><text x="1107" y="468.7" font-family="Helvetica" font-size="10" font-weight="normal" font-style="normal" fill="#000000" fill-opacity="1">swift-collections-benchmark</text></a>
  <path d="M 50 9 L 50 441" fill="none" stroke-width="0.75" stroke="#000000" stroke-opacity="0.49804" stroke-linecap="butt" stroke-linejoin="round"/>
  <text x="47" y="453.7" font-family="Helvetica" font-size="10" font-weight="normal" font-style="normal" fill="#000000" fill-opacity="1">1</text>
  <path d="M 109 9 L 109 441" fill="none" stroke-width="0.75" stroke="#000000" stroke-opacity="0.49804" stroke-linecap="butt" stroke-linejoin="round"/>
  <text x="106" y="453.7" font-family="Helvetica" font-size="10" font-weight="normal" font-style="normal" fill="#000000" fill-opacity="1">2</text>
  <path d="M 168 9 L 168 441" fill="none" stroke-width="0.75" stroke="#000000" stroke-opacity="0.49804" stroke-linecap="butt" stroke-linejoin="round"/>
  <text x="165" y="453.7" font-family="Helvetica" font-size="10" font-weight="normal" font-style="normal" fill="#000000" fill-opacity="1">4</text>
  <path d="M 227 9 L 227 441" fill="none" stroke-width="0.75" stroke="#000000" stroke-opacity="0.49804" stroke-linecap="butt" stroke-linejoin="round"/>
  <text x="224" y="453.7" font-family="Helvetica" font-size="10" font-weight="normal" font-style="normal" fill="#000000" fill-opacity="1">8</text>
  <path d="M 286 9 L 286 441" fill="none" stroke-width="0.75" stroke="#000000" stroke-opacity="0.49804" stroke-linecap="butt" stroke-linejoin="round"/>
  <text x="280" y="453.7" font-family="Helvetica" font-size="10" font-weight="normal" font-style="normal" fill="#000000" fill-opacity="1">16</text>
  <path d="M 345 9 L 345 441" fill="none" stroke-width="0.75" stroke="#000000" stroke-opacity="0.49804" stroke-linecap="butt" stroke-linejoin="round"/>
  <text x="339" y="453.7" font-family="Helvetica" font-size="10" font-weight="normal" font-style="normal" fill="#000000" fill-opacity="1">32</text>
  <path d="M 404 9 L 404 441" fill="none" stroke-width="0.75" stroke="#000000" stroke-opacity="0.49804" stroke-linecap="butt" stroke-linejoin="round"/>
  <text x="398" y="453.7" font-family="Helvetica" font-size="10" font-weight="normal" font-style="normal" fill="#000000" fill-opacity="1">64</text>
  <path d="M 463 9 L 463 441" fill="none" stroke-width="0.75" stroke="#000000" stroke-opacity="0.49804" stroke-linecap="butt" stroke-linejoin="round"/>
  <text x="454.5" y="453.7" font-family="Helvetica" font-size="10" font-weight="normal" font-style="normal" fill="#000000" fill-opacity="1">128</text>
  <path d="M 522 9 L 522 441" fill="none" stroke-width="0.75" stroke="#000000" stroke-opacity="0.49804" stroke-linecap="butt" stroke-linejoin="round"/>
  <text x="513.5" y="453.7" font-family="Helvetica" font-size="10" font-weight="normal" font-style="normal" fill="#000000" fill-opacity="1">256</text>
  <path d="M 581 9 L 581 441" fill="none" stroke-width="0.75" stroke="#000000" stroke-opacity="0.49804" stroke-linecap="butt" stroke-linejoin="round"/>
  <text x="572.5" y="453.7" font-family="Helvetica" font-size="10" font-weight="normal" font-style="normal" fill="#000000" fill-opacity="1">512</text>
  <path d="M 640 9 L 640 441" fill="none" stroke-width="0.75" stroke="#000000" stroke-opacity="0.49804" stroke-linecap="butt" stroke-linejoin="round"/>
  <text x="634.5" y="453.7" font-family="Helvetica" font-size="10" font-weight="normal" font-style="normal" fill="#000000" fill-opacity="1">1k</text>
  <path d="M 699 9 L 699 441" fill="none" stroke-width="0.75" stroke="#000000" stroke-opacity="0.49804" stroke-linecap="butt" stroke-linejoin="round"/>
  <text x="693.5" y="453.7" font-family="Helvetica" font-size="10" font-weight="normal" font-style="normal" fill="#000000" fill-opacity="1">2k</text>
  <path d="M 758 9 L 758 441" fill="none" stroke-width="0.75" stroke="#000000" stroke-opacity="0.49804" stroke-linecap="butt" stroke-linejoin="round"/>
  <text x="752.5" y="453.7" font-family="Helvetica" font-size="10" font-weight="normal" font-style="normal" fill="#000000" fill-opacity="1">4k</text>
  <path d="M 817 9 L 817 441" fill="none" stroke-width="0.75" stroke="#000000" stroke-opacity="0.49804" stroke-linecap="butt" stroke-linejoin="round"/>
  <text x="811.5" y="453.7" font-family="Helvetica" font-size="10" font-weight="normal" font-style="normal" fill="#000000" fill-opacity="1">8k</text>
  <path d="M 876 9 L 876 441" fill="none" stroke-width="0.75" stroke="#000000" stroke-opacity="0.49804" stroke-linecap="butt" stroke-linejoin="round"/>
  <text x="867.5" y="453.7" font-family="Helvetica" font-size="10" font-weight="normal" font-style="normal" fill="#000000" fill-opacity="1">16k</text>
  <path d="M 935 9 L 935 441" fill="none" stroke-width="0.75" stroke="#000000" stroke-opacity="0.49804" stroke-linecap="butt" stroke-linejoin="round"/>
  <text x="926.5" y="453.7" font-family="Helvetica" font-size="10" font-weight="normal" font-style="normal" fill="#000000" fill-opacity="1">32k</text>
  <path d="M 994 9 L 994 441" fill="none" stroke-width="0.75" stroke="#000000" stroke-opacity="0.49804" stroke-linecap="butt" stroke-linejoin="round"/>
  <text x="985.5" y="453.7" font-family="Helvetica" font-size="10" font-weight="normal" font-style="normal" fill="#000000" fill-opacity="1">64k</text>
  <path d="M 1053 9 L 1053 441" fill="none" stroke-width="0.75" stroke="#000000" stroke-opacity="0.49804" stroke-linecap="butt" stroke-linejoin="round"/>
  <text x="1042" y="453.7" font-family="Helvetica" font-size="10" font-weight="normal" font-style="normal" fill="#000000" fill-opacity="1">128k</text>
  <path d="M 1112 9 L 1112 441" fill="none" stroke-width="0.75" stroke="#000000" stroke-opacity="0.49804" stroke-linecap="butt" stroke-linejoin="round"/>
  <text x="1101" y="453.7" font-family="Helvetica" font-size="10" font-weight="normal" font-style="normal" fill="#000000" fill-opacity="1">256k</text>
  <path d="M 1171 9 L 1171 441" fill="none" stroke-width="0.75" stroke="#000000" stroke-opacity="0.49804" stroke-linecap="butt" stroke-linejoin="round"/>
  <text x="1160" y="453.7" font-family="Helvetica" font-size="10" font-weight="normal" font-style="normal" fill="#000000" fill-opacity="1">512k</text>
  <path d="M 1230 9 L 1230 441" fill="none" stroke-width="0.75" stroke="#000000" stroke-opacity="0.49804" stroke-linecap="butt" stroke-linejoin="round"/>
  <text x="1223" y="453.7" font-family="Helvetica" font-size="10" font-weight="normal" font-style="normal" fill="#000000" fill-opacity="1">1M</text>
  <path d="M 50 441 L 1230 441" fill="none" stroke-width="0.75" stroke="#000000" stroke-opacity="0.49804" stroke-linecap="butt" stroke-linejoin="round"/>
  <text x="27" y="442.7" font-family="Helvetica" font-size="10" font-weight="normal" font-style="normal" fill="#000000" fill-opacity="1">1 ns</text>
  <text x="1236" y="442.7" font-family="Helvetica" font-size="10" font-weight="normal" font-style="normal" fill="#000000" fill-opacity="1">1 ns</text>
  <path d="M 50 297 L 1230 297" fill="none" stroke-width="0.75" stroke="#000000" stroke-opacity="0.49804" stroke-linecap="butt" stroke-linejoin="round"/>
  <text x="21" y="298.7" font-family="Helvetica" font-size="10" font-weight="normal" font-style="normal" fill="#000000" fill-opacity="1">10 ns</text>
  <text x="1236" y="298.7" font-family="Helvetica" font-size="10" font-weight="normal" font-style="normal" fill="#000000" fill-opacity="1">10 ns</text>
  <path d="M 50 153 L 1230 153" fill="none" stroke-width="0.75" stroke="#000000" stroke-opacity="0.49804" stroke-linecap="butt" stroke-linejoin="round"/>
  <text x="16" y="154.7" font-family="Helvetica" font-size="10" font-weight="normal" font-style="normal" fill="#000000" fill-opacity="1">100 ns</text>
  <text x="1236" y="154.7" font-family="Helvetica" font-size="10" font-weight="normal" font-style="normal" fill="#000000" fill-opacity="1">100 ns</text>
  <path d="M 50 9 L 1230 9" fill="none" stroke-width="0.75" stroke="#000000" stroke-opacity="0.49804" stroke-linecap="butt" stroke-linejoin="round"/>
  <text x="26" y="10.7" font-family="Helvetica" font-size="10" font-weight="normal" font-style="normal" fill="#000000" fill-opacity="1">1 µs</text>
  <text x="1236" y="10.7" font-family="Helvetica" font-size="10" font-weight="normal" font-style="normal" fill="#000000" fill-opacity="1">1 µs</text>
  <path d="M 50 397.65 L 1230 397.65" fill="none" stroke-width="0.5" stroke="#000000" stroke-opacity="0.25882" stroke-linecap="butt" stroke-linejoin="round" stroke-dasharray="6 3" stroke-dashoffset="0"/>
  <path d="M 50 354.3 L 1230 354.3" fill="none" stroke-width="0.5" stroke="#000000" stroke-opacity="0.25882" stroke-linecap="butt" stroke-linejoin="round" stroke-dasharray="6 3" stroke-dashoffset="0"/>
  <path d="M 50 310.96 L 1230 310.96" fill="none" stroke-width="0.5" stroke="#000000" stroke-opacity="0.25882" stroke-linecap="butt" stroke-linejoin="round" stroke-dasharray="6 3" stroke-dashoffset="0"/>
  <path d="M 50 267.61 L 1230 267.61" fill="none" stroke-width="0.5" stroke="#000000" stroke-opacity="0.25882" stroke-linecap="butt" stroke-linejoin="round" stroke-dasharray="6 3" stroke-dashoffset="0"/>
  <path d="M 50 224.26 L 1230 224.26" fill="none" stroke-width="0.5" stroke="#000000" stroke-opacity="0.25882" stroke-linecap="butt" stroke-linejoin="round" stroke-dasharray="6 3" stroke-dashoffset="0"/>
  <path d="M 50 180.91 L 1230 180.91" fill="none" stroke-width="0.5" stroke="#000000" stroke-opacity="0.25882" stroke-linecap="butt" stroke-linejoin="round" stroke-dasharray="6 3" stroke-dashoffset="0"/>
  <path d="M 50 137.56 L 1230 137.56" fill="none" stroke-width="0.5" stroke="#000000" stroke-opacity="0.25882" stroke-linecap="butt" stroke-linejoin="round" stroke-dasharray="6 3" stroke-dashoffset="0"/>
  <path d="M 50 94.213 L 1230 94.213" fill="none" stroke-width="0.5" stroke="#000000" stroke-opacity="0.25882" stroke-linecap="butt" stroke-linejoin="round" stroke-dasharray="6 3" stroke-dashoffset="0"/>
  <path d="M 50 50.865 L 1230 50.865" fill="none" stroke-width="0.5" stroke="#000000" stroke-opacity="0.25882" stroke-linecap="butt" stroke-linejoin="round" stroke-dasharray="6 3" stroke-dashoffset="0"/>
  <path d="M 74 33 L 74 88 L 327 88 L 327 33 z" fill="#FFFFFF" fill-opacity="1.0" stroke="none"/>
  <clipPath id="clip-0">
    <path d="M 50 9 L 50 441 L 1230 441 L 1230 9 z"/>
  </clipPath>
  <g clip-path="url(#clip-0)">
    <path d="M 50 205.91L 109 252.11L 143.51 233.36L 168 208.99L 186.99 221.24L 202.51 218.68L 215.63 192.64L 227 194.98L 245.99 192.67L 261.51 190.07L 274.63 177.73L 286 185.25L 304.99 182.62L 320.51 179.2L 333.63 172.85L 345 167.66L 363.99 162.62L 379.51 164.7L 392.63 160.81L 404 156.86L 422.99 154.55L 438.51 147.81L 451.63 154.01L 463 147.39L 481.99 148.24L 497.51 148.03L 510.63 149.35L 522 146.04L 540.99 140.05L 556.51 143.6L 569.63 142.59L 581 142.31L 599.99 139.33L 615.51 138.27L 628.63 131.15L 640 135.56L 658.99 135.02L 674.51 134.38L 687.63 130.46L 699 131.49L 717.99 129.21L 733.51 126.26L 746.63 125.68L 758 124.02L 776.99 118.56L 792.51 118.24L 805.63 115.12L 817 114.28L 835.99 110.55L 851.51 108.77L 864.63 107.6L 876 107.11L 894.99 104.48L 910.51 101.52L 923.63 101.18L 935 100.35L 953.99 98.23L 969.51 94.891L 982.63 90.696L 994 92.692L 1013 90.264L 1028.5 89.37L 1041.6 86.367L 1053 83.954L 1072 81.03L 1087.5 79.997L 1100.6 59.733L 1112 74.068L 1131 63.515L 1146.5 64.492L 1159.6 60.925L 1171 54.295L 1190 51.886L 1205.5 41.003L 1218.6 15.299L 1230 36.295L 1230 38.491L 1218.6 35.331L 1205.5 49.801L 1190 52.589L 1171 60.512L 1159.6 62.02L 1146.5 65.844L 1131 63.684L 1112 76.511L 1100.6 79.3L 1087.5 81.418L 1072 84.938L 1053 87.256L 1041.6 88.337L 1028.5 90.339L 1013 92.227L 994 93.902L 982.63 94.972L 969.51 95.823L 953.99 98.638L 935 100.68L 923.63 101.9L 910.51 102.97L 894.99 105.88L 876 107.74L 864.63 109.37L 851.51 110.32L 835.99 112.6L 817 115.83L 805.63 116.58L 792.51 118.53L 776.99 119.63L 758 124.1L 746.63 125.86L 733.51 128.11L 717.99 129.29L 699 131.99L 687.63 134.07L 674.51 135.72L 658.99 137.41L 640 138.7L 628.63 140.17L 615.51 139.15L 599.99 142.87L 581 143.3L 569.63 147.18L 556.51 146.11L 540.99 150.21L 522 150.74L 510.63 149.56L 497.51 151.23L 481.99 153.98L 463 156.17L 451.63 156.79L 438.51 164.73L 422.99 168.86L 404 162.96L 392.63 164.96L 379.51 171.29L 363.99 175.48L 345 173.87L 333.63 175.37L 320.51 182.39L 304.99 186.69L 286 190.74L 274.63 203.44L 261.51 198.15L 245.99 230.2L 227 225.74L 215.63 207.89L 202.51 219.25L 186.99 221.96L 168 251.35L 143.51 233.36L 109 252.11L 50 208.76" fill="#007AFF" fill-opacity="0.30196078431372547" stroke="none"/>
    <path d="M 50 205.91L 109 249.25L 143.51 275.96L 168 295.46L 186.99 307.9L 202.51 317.96L 215.63 327.6L 227 338.8L 245.99 351.25L 261.51 361.31L 274.63 370.95L 286 379.3L 304.99 394.6L 320.51 407.51L 333.63 415.64L 345 381.39L 363.99 393.92L 379.51 381.14L 392.63 390.78L 404 399.13L 422.99 395.35L 438.51 382.05L 451.63 401.71L 463 399.13L 481.99 395.16L 497.51 399.13L 510.63 396.13L 522 399.13L 540.99 399.13L 556.51 392.91L 569.63 391.29L 581 396.78L 599.99 401.27L 615.51 400.91L 628.63 399.26L 640 401.82L 658.99 400.26L 674.51 398.43L 687.63 400.72L 699 401.8L 717.99 401.81L 733.51 401.38L 746.63 402.17L 758 401.83L 776.99 402.07L 792.51 401.61L 805.63 401.81L 817 401.82L 835.99 398.52L 851.51 398.54L 864.63 402.1L 876 398.57L 894.99 402.14L 910.51 402.09L 923.63 398.64L 935 402.18L 953.99 402.11L 969.51 402.06L 982.63 401.98L 994 394.8L 1013 402.06L 1028.5 402.07L 1041.6 401.52L 1053 402.03L 1072 402L 1087.5 401.99L 1100.6 401.93L 1112 384.72L 1131 397.62L 1146.5 399.89L 1159.6 401.18L 1171 400.79L 1190 397.66L 1205.5 342.79L 1218.6 383.68L 1230 371.45L 1230 372.92L 1218.6 385.66L 1205.5 395.03L 1190 400.1L 1171 401.12L 1159.6 401.66L 1146.5 401.56L 1131 401.94L 1112 400.64L 1100.6 402.03L 1087.5 402.04L 1072 402L 1053 402.05L 1041.6 401.92L 1028.5 402.12L 1013 402.15L 994 402.16L 982.63 402.21L 969.51 402.17L 953.99 402.24L 935 402.18L 923.63 402.19L 910.51 402.19L 894.99 402.14L 876 402.22L 864.63 402.28L 851.51 402.14L 835.99 402.34L 817 402.14L 805.63 402.19L 792.51 402.48L 776.99 402.07L 758 402.47L 746.63 402.19L 733.51 402.25L 717.99 401.81L 699 401.8L 687.63 402.17L 674.51 401.8L 658.99 402.34L 640 401.82L 628.63 402.21L 615.51 400.91L 599.99 401.27L 581 401.82L 569.63 402.21L 556.51 399.13L 540.99 399.13L 522 399.13L 510.63 396.13L 497.51 399.13L 481.99 395.16L 463 399.13L 451.63 402.29L 438.51 406.75L 422.99 395.35L 404 399.13L 392.63 390.78L 379.51 381.14L 363.99 395.35L 345 381.39L 333.63 415.64L 320.51 407.51L 304.99 394.6L 286 382.15L 274.63 373.8L 261.51 364.16L 245.99 351.25L 227 338.8L 215.63 330.45L 202.51 320.81L 186.99 307.9L 168 295.46L 143.51 275.96L 109 252.11L 50 208.76" fill="#FF3B30" fill-opacity="0.30196078431372547" stroke="none"/>
    <path d="M 50 208L 109 252.11L 143.51 233.36L 168 237.24L 186.99 221.77L 202.51 219.1L 215.63 203.54L 227 216.14L 245.99 218.03L 261.51 195.93L 274.63 195.64L 286 189.26L 304.99 185.6L 320.51 181.54L 333.63 174.7L 345 172.19L 363.99 171.86L 379.51 169.5L 392.63 163.85L 404 161.31L 422.99 164.79L 438.51 159.85L 451.63 156.05L 463 153.76L 481.99 152.43L 497.51 150.38L 510.63 149.5L 522 149.48L 540.99 147.4L 556.51 145.44L 569.63 145.95L 581 143.04L 599.99 141.93L 615.51 138.92L 628.63 137.69L 640 137.87L 658.99 136.77L 674.51 135.36L 687.63 133.11L 699 131.86L 717.99 129.27L 733.51 127.62L 746.63 125.82L 758 124.08L 776.99 119.35L 792.51 118.45L 805.63 116.19L 817 115.42L 835.99 112.06L 851.51 109.91L 864.63 108.91L 876 107.57L 894.99 105.51L 910.51 102.59L 923.63 101.71L 935 100.59L 953.99 98.531L 969.51 95.578L 982.63 93.826L 994 93.584L 1013 91.708L 1028.5 90.084L 1041.6 87.816L 1053 86.376L 1072 83.893L 1087.5 81.044L 1100.6 73.57L 1112 75.864L 1131 63.64L 1146.5 65.488L 1159.6 61.732L 1171 58.827L 1190 52.404L 1205.5 47.381L 1218.6 29.449L 1230 37.91" fill="none" stroke-width="4" stroke="#007AFF" stroke-opacity="1" stroke-linecap="round" stroke-linejoin="round"/>
    <path d="M 50 208L 109 251.35L 143.51 275.96L 168 295.46L 186.99 307.9L 202.51 320.05L 215.63 329.7L 227 338.8L 245.99 351.25L 261.51 363.4L 274.63 373.04L 286 381.39L 304.99 394.6L 320.51 407.51L 333.63 415.64L 345 381.39L 363.99 394.97L 379.51 381.14L 392.63 390.78L 404 399.13L 422.99 395.35L 438.51 399.3L 451.63 402.14L 463 399.13L 481.99 395.16L 497.51 399.13L 510.63 396.13L 522 399.13L 540.99 399.13L 556.51 397.45L 569.63 399.17L 581 400.46L 599.99 401.27L 615.51 400.91L 628.63 401.43L 640 401.82L 658.99 401.79L 674.51 400.9L 687.63 401.79L 699 401.8L 717.99 401.81L 733.51 402.03L 746.63 402.19L 758 402.31L 776.99 402.07L 792.51 402.25L 805.63 402.09L 817 402.05L 835.99 401.32L 851.51 401.18L 864.63 402.23L 876 401.25L 894.99 402.14L 910.51 402.17L 923.63 401.24L 935 402.18L 953.99 402.21L 969.51 402.14L 982.63 402.15L 994 400.15L 1013 402.13L 1028.5 402.11L 1041.6 401.81L 1053 402.05L 1072 402L 1087.5 402.03L 1100.6 402L 1112 396.07L 1131 400.78L 1146.5 401.12L 1159.6 401.53L 1171 401.03L 1190 399.46L 1205.5 376.68L 1218.6 385.14L 1230 372.53" fill="none" stroke-width="4" stroke="#FF3B30" stroke-opacity="1" stroke-linecap="round" stroke-linejoin="round"/>
    <path d="M 50 208L 109 252.11L 143.51 233.36L 168 237.24L 186.99 221.77L 202.51 219.1L 215.63 203.54L 227 216.14L 245.99 218.03L 261.51 195.93L 274.63 195.64L 286 189.26L 304.99 185.6L 320.51 181.54L 333.63 174.7L 345 172.19L 363.99 171.86L 379.51 169.5L 392.63 163.85L 404 161.31L 422.99 164.79L 438.51 159.85L 451.63 156.05L 463 153.76L 481.99 152.43L 497.51 150.38L 510.63 149.5L 522 149.48L 540.99 147.4L 556.51 145.44L 569.63 145.95L 581 143.04L 599.99 141.93L 615.51 138.92L 628.63 137.69L 640 137.87L 658.99 136.77L 674.51 135.36L 687.63 133.11L 699 131.86L 717.99 129.27L 733.51 127.62L 746.63 125.82L 758 124.08L 776.99 119.35L 792.51 118.45L 805.63 116.19L 817 115.42L 835.99 112.06L 851.51 109.91L 864.63 108.91L 876 107.57L 894.99 105.51L 910.51 102.59L 923.63 101.71L 935 100.59L 953.99 98.531L 969.51 95.578L 982.63 93.826L 994 93.584L 1013 91.708L 1028.5 90.084L 1041.6 87.816L 1053 86.376L 1072 83.893L 1087.5 81.044L 1100.6 73.57L 1112 75.864L 1131 63.64L 1146.5 65.488L 1159.6 61.732L 1171 58.827L 1190 52.404L 1205.5 47.381L 1218.6 29.449L 1230 37.91" fill="none" stroke-width="0.5" stroke="#000000" stroke-opacity="0.30196" stroke-linecap="round" stroke-linejoin="round"/>
    <path d="M 50 208L 109 251.35L 143.51 275.96L 168 295.46L 186.99 307.9L 202.51 320.05L 215.63 329.7L 227 338.8L 245.99 351.25L 261.51 363.4L 274.63 373.04L 286 381.39L 304.99 394.6L 320.51 407.51L 333.63 415.64L 345 381.39L 363.99 394.97L 379.51 381.14L 392.63 390.78L 404 399.13L 422.99 395.35L 438.51 399.3L 451.63 402.14L 463 399.13L 481.99 395.16L 497.51 399.13L 510.63 396.13L 522 399.13L 540.99 399.13L 556.51 397.45L 569.63 399.17L 581 400.46L 599.99 401.27L 615.51 400.91L 628.63 401.43L 640 401.82L 658.99 401.79L 674.51 400.9L 687.63 401.79L 699 401.8L 717.99 401.81L 733.51 402.03L 746.63 402.19L 758 402.31L 776.99 402.07L 792.51 402.25L 805.63 402.09L 817 402.05L 835.99 401.32L 851.51 401.18L 864.63 402.23L 876 401.25L 894.99 402.14L 910.51 402.17L 923.63 401.24L 935 402.18L 953.99 402.21L 969.51 402.14L 982.63 402.15L 994 400.15L 1013 402.13L 1028.5 402.11L 1041.6 401.81L 1053 402.05L 1072 402L 1087.5 402.03L 1100.6 402L 1112 396.07L 1131 400.78L 1146.5 401.12L 1159.6 401.53L 1171 401.03L 1190 399.46L 1205.5 376.68L 1218.6 385.14L 1230 372.53" fill="none" stroke-width="0.5" stroke="#000000" stroke-opacity="0.30196" stroke-linecap="round" stroke-linejoin="round"/>
  </g>
  <path d="M 74 33 L 74 88 L 327 88 L 327 33 z" fill="#FFFFFF" fill-opacity="0.7019607843137254" stroke-width="0.5" stroke="#000000" stroke-opacity="1" stroke-linecap="round" stroke-linejoin="round"/>
  <path d="M 88 52 L 108 52" fill="none" stroke-width="4" stroke="#FF3B30" stroke-opacity="1" stroke-linecap="round" stroke-linejoin="round"/>
  <path d="M 88 52 L 108 52" fill="none" stroke-width="0.5" stroke="#000000" stroke-opacity="0.30196" stroke-linecap="round" stroke-linejoin="round"/>
  <text x="119" y="56.17" font-family="Menlo" font-size="12" font-weight="normal" font-style="normal" fill="#000000" fill-opacity="1">Array&lt;Int&gt; random swaps</text>
  <path d="M 88 69 L 108 69" fill="none" stroke-width="4" stroke="#007AFF" stroke-opacity="1" stroke-linecap="round" stroke-linejoin="round"/>
  <path d="M 88 69 L 108 69" fill="none" stroke-width="0.5" stroke="#000000" stroke-opacity="0.30196" stroke-linecap="round" stroke-linejoin="round"/>
  <text x="119" y="73.17" font-family="Menlo" font-size="12" font-weight="normal" font-style="normal" fill="#000000" fill-opacity="1">TreeArray&lt;Int&gt; random swaps</text>
  <path d="M 50 9 L 50 441 L 1230 441 L 1230 9 z" fill="none" stroke-width="0.5" stroke="#000000" stroke-opacity="1" stroke-linecap="round" stroke-linejoin="round"/>
</svg>
