<!DOCTYPE svg PUBLIC "-//W3C//DTD SVG 1.1//EN" "http://www.w3.org/Graphics/SVG/1.1/DTD/svg11.dtd">
<svg width="1280.0px" height="480.0px" viewBox="0.0 0.0 1280.0 480.0" xmlns="http://www.w3.org/2000/svg" xmlns:xlink="http://www.w3.org/1999/xlink" version="1.1">
  <path d="M 0 0 L 0 480 L 1280 480 L 1280 0 z" fill="#FFFFFF" fill-opacity="1.0" stroke="none"/>
  <text x="50" y="468.7" font-family="Helvetica" font-size="10" font-weight="normal" font-style="normal" fill="#000000" fill-opacity="1">Average per-element processing time over input size (bands: min, mean, mean + 2stddev)</text>
  <a xlink:href="https://github.com/apple/swift-collections-benchmark"><text x="1107" y="468.7" font-family="Helvetica" font-size="10" font-weight="normal" font-style="normal" fill="#000000" fill-opacity="1">swift-collections-benchmark</text></a>
  <path d="M 50 9 L 50 441" fill="none" stroke-width="0.75" stroke="#000000" stroke-opacity="0.49804" stroke-linecap="butt" stroke-linejoin="round"/>
  <text x="47" y="453.7" font-family="Helvetica" font-size="10" font-weight="normal" font-style="normal" fill="#000000" fill-opacity="1">1</text>
  <path d="M 109 9 L 109 441" fill="none" stroke-width="0.75" stroke="#000000" stroke-opacity="0.49804" stroke-linecap="butt" stroke-linejoin="round"/>
  <text x="106" y="453.7" font-family="Helvetica" font-size="10" font-weight="normal" font-style="normal" fill="#000000" fill-opacity="1">2</text>
  <path d="M 168 9 L 168 441" fill="none" stroke-width="0.75" stroke="#000000" stroke-opacity="0.49804" stroke-linecap="butt" stroke-linejoin="round"/>
  <text x="165" y="453.7" font-family="Helvetica" font-size="10" font-weight="normal" font-style="normal" fill="#000000" fill-opacity="1">4</text>
  <path d="M 227 9 L 227 441" fill="none" stroke-width="0.75" stroke="#000000" stroke-opacity="0.49804" stroke-linecap="butt" stroke-linejoin="round"/>
  <text x="224" y="453.7" font-family="Helvetica" font-size="10" font-weight="normal" font-style="normal" fill="#000000" fill-opacity="1">8</text>
  <path d="M 286 9 L 286 441" fill="none" stroke-width="0.75" stroke="#000000" stroke-opacity="0.49804" stroke-linecap="butt" stroke-linejoin="round"/>
  <text x="280" y="453.7" font-family="Helvetica" font-size="10" font-weight="normal" font-style="normal" fill="#000000" fill-opacity="1">16</text>
  <path d="M 345 9 L 345 441" fill="none" stroke-width="0.75" stroke="#000000" stroke-opacity="0.49804" stroke-linecap="butt" stroke-linejoin="round"/>
  <text x="339" y="453.7" font-family="Helvetica" font-size="10" font-weight="normal" font-style="normal" fill="#000000" fill-opacity="1">32</text>
  <path d="M 404 9 L 404 441" fill="none" stroke-width="0.75" stroke="#000000" stroke-opacity="0.49804" stroke-linecap="butt" stroke-linejoin="round"/>
  <text x="398" y="453.7" font-family="Helvetica" font-size="10" font-weight="normal" font-style="normal" fill="#000000" fill-opacity="1">64</text>
  <path d="M 463 9 L 463 441" fill="none" stroke-width="0.75" stroke="#000000" stroke-opacity="0.49804" stroke-linecap="butt" stroke-linejoin="round"/>
  <text x="454.5" y="453.7" font-family="Helvetica" font-size="10" font-weight="normal" font-style="normal" fill="#000000" fill-opacity="1">128</text>
  <path d="M 522 9 L 522 441" fill="none" stroke-width="0.75" stroke="#000000" stroke-opacity="0.49804" stroke-linecap="butt" stroke-linejoin="round"/>
  <text x="513.5" y="453.7" font-family="Helvetica" font-size="10" font-weight="normal" font-style="normal" fill="#000000" fill-opacity="1">256</text>
  <path d="M 581 9 L 581 441" fill="none" stroke-width="0.75" stroke="#000000" stroke-opacity="0.49804" stroke-linecap="butt" stroke-linejoin="round"/>
  <text x="572.5" y="453.7" font-family="Helvetica" font-size="10" font-weight="normal" font-style="normal" fill="#000000" fill-opacity="1">512</text>
  <path d="M 640 9 L 640 441" fill="none" stroke-width="0.75" stroke="#000000" stroke-opacity="0.49804" stroke-linecap="butt" stroke-linejoin="round"/>
  <text x="634.5" y="453.7" font-family="Helvetica" font-size="10" font-weight="normal" font-style="normal" fill="#000000" fill-opacity="1">1k</text>
  <path d="M 699 9 L 699 441" fill="none" stroke-width="0.75" stroke="#000000" stroke-opacity="0.49804" stroke-linecap="butt" stroke-linejoin="round"/>
  <text x="693.5" y="453.7" font-family="Helvetica" font-size="10" font-weight="normal" font-style="normal" fill="#000000" fill-opacity="1">2k</text>
  <path d="M 758 9 L 758 441" fill="none" stroke-width="0.75" stroke="#000000" stroke-opacity="0.49804" stroke-linecap="butt" stroke-linejoin="round"/>
  <text x="752.5" y="453.7" font-family="Helvetica" font-size="10" font-weight="normal" font-style="normal" fill="#000000" fill-opacity="1">4k</text>
  <path d="M 817 9 L 817 441" fill="none" stroke-width="0.75" stroke="#000000" stroke-opacity="0.49804" stroke-linecap="butt" stroke-linejoin="round"/>
  <text x="811.5" y="453.7" font-family="Helvetica" font-size="10" font-weight="normal" font-style="normal" fill="#000000" fill-opacity="1">8k</text>
  <path d="M 876 9 L 876 441" fill="none" stroke-width="0.75" stroke="#000000" stroke-opacity="0.49804" stroke-linecap="butt" stroke-linejoin="round"/>
  <text x="867.5" y="453.7" font-family="Helvetica" font-size="10" font-weight="normal" font-style="normal" fill="#000000" fill-opacity="1">16k</text>
  <path d="M 935 9 L 935 441" fill="none" stroke-width="0.75" stroke="#000000" stroke-opacity="0.49804" stroke-linecap="butt" stroke-linejoin="round"/>
  <text x="926.5" y="453.7" font-family="Helvetica" font-size="10" font-weight="normal" font-style="normal" fill="#000000" fill-opacity="1">32k</text>
  <path d="M 994 9 L 994 441" fill="none" stroke-width="0.75" stroke="#000000" stroke-opacity="0.49804" stroke-linecap="butt" stroke-linejoin="round"/>
  <text x="985.5" y="453.7" font-family="Helvetica" font-size="10" font-weight="normal" font-style="normal" fill="#000000" fill-opacity="1">64k</text>
  <path d="M 1053 9 L 1053 441" fill="none" stroke-width="0.75" stroke="#000000" stroke-opacity="0.49804" stroke-linecap="butt" stroke-linejoin="round"/>
  <text x="1042" y="453.7" font-family="Helvetica" font-size="10" font-weight="normal" font-style="normal" fill="#000000" fill-opacity="1">128k</text>
  <path d="M 1112 9 L 1112 441" fill="none" stroke-width="0.75" stroke="#000000" stroke-opacity="0.49804" stroke-linecap="butt" stroke-linejoin="round"/>
  <text x="1101" y="453.7" font-family="Helvetica" font-size="10" font-weight="normal" font-style="normal" fill="#000000" fill-opacity="1">256k</text>
  <path d="M 1171 9 L 1171 441" fill="none" stroke-width="0.75" stroke="#000000" stroke-opacity="0.49804" stroke-linecap="butt" stroke-linejoin="round"/>
  <text x="1160" y="453.7" font-family="Helvetica" font-size="10" font-weight="normal" font-style="normal" fill="#000000" fill-opacity="1">512k</text>
  <path d="M 1230 9 L 1230 441" fill="none" stroke-width="0.75" stroke="#000000" stroke-opacity="0.49804" stroke-linecap="butt" stroke-linejoin="round"/>
  <text x="1223" y="453.7" font-family="Helvetica" font-size="10" font-weight="normal" font-style="normal" fill="#000000" fill-opacity="1">1M</text>
  <path d="M 50 441 L 1230 441" fill="none" stroke-width="0.75" stroke="#000000" stroke-opacity="0.49804" stroke-linecap="butt" stroke-linejoin="round"/>
  <text x="16" y="442.7" font-family="Helvetica" font-size="10" font-weight="normal" font-style="normal" fill="#000000" fill-opacity="1">100 ps</text>
  <text x="1236" y="442.7" font-family="Helvetica" font-size="10" font-weight="normal" font-style="normal" fill="#000000" fill-opacity="1">100 ps</text>
  <path d="M 50 333 L 1230 333" fill="none" stroke-width="0.75" stroke="#000000" stroke-opacity="0.49804" stroke-linecap="butt" stroke-linejoin="round"/>
  <text x="27" y="334.7" font-family="Helvetica" font-size="10" font-weight="normal" font-style="normal" fill="#000000" fill-opacity="1">1 ns</text>
  <text x="1236" y="334.7" font-family="Helvetica" font-size="10" font-weight="normal" font-style="normal" fill="#000000" fill-opacity="1">1 ns</text>
  <path d="M 50 225 L 1230 225" fill="none" stroke-width="0.75" stroke="#000000" stroke-opacity="0.49804" stroke-linecap="butt" stroke-linejoin="round"/>
  <text x="21" y="226.7" font-family="Helvetica" font-size="10" font-weight="normal" font-style="normal" fill="#000000" fill-opacity="1">10 ns</text>
  <text x="1236" y="226.7" font-family="Helvetica" font-size="10" font-weight="normal" font-style="normal" fill="#000000" fill-opacity="1">10 ns</text>
  <path d="M 50 117 L 1230 117" fill="none" stroke-width="0.75" stroke="#000000" stroke-opacity="0.49804" stroke-linecap="butt" stroke-linejoin="round"/>
  <text x="16" y="118.7" font-family="Helvetica" font-size="10" font-weight="normal" font-style="normal" fill="#000000" fill-opacity="1">100 ns</text>
  <text x="1236" y="118.7" font-family="Helvetica" font-size="10" font-weight="normal" font-style="normal" fill="#000000" fill-opacity="1">100 ns</text>
  <path d="M 50 9 L 1230 9" fill="none" stroke-width="0.75" stroke="#000000" stroke-opacity="0.49804" stroke-linecap="butt" stroke-linejoin="round"/>
  <text x="26" y="10.7" font-family="Helvetica" font-size="10" font-weight="normal" font-style="normal" fill="#000000" fill-opacity="1">1 µs</text>
  <text x="1236" y="10.7" font-family="Helvetica" font-size="10" font-weight="normal" font-style="normal" fill="#000000" fill-opacity="1">1 µs</text>
  <path d="M 50 408.49 L 1230 408.49" fill="none" stroke-width="0.5" stroke="#000000" stroke-opacity="0.25882" stroke-linecap="butt" stroke-linejoin="round" stroke-dasharray="6 3" stroke-dashoffset="0"/>
  <path d="M 50 375.98 L 1230 375.98" fill="none" stroke-width="0.5" stroke="#000000" stroke-opacity="0.25882" stroke-linecap="butt" stroke-linejoin="round" stroke-dasharray="6 3" stroke-dashoffset="0"/>
  <path d="M 50 343.47 L 1230 343.47" fill="none" stroke-width="0.5" stroke="#000000" stroke-opacity="0.25882" stroke-linecap="butt" stroke-linejoin="round" stroke-dasharray="6 3" stroke-dashoffset="0"/>
  <path d="M 50 310.96 L 1230 310.96" fill="none" stroke-width="0.5" stroke="#000000" stroke-opacity="0.25882" stroke-linecap="butt" stroke-linejoin="round" stroke-dasharray="6 3" stroke-dashoffset="0"/>
  <path d="M 50 278.44 L 1230 278.44" fill="none" stroke-width="0.5" stroke="#000000" stroke-opacity="0.25882" stroke-linecap="butt" stroke-linejoin="round" stroke-dasharray="6 3" stroke-dashoffset="0"/>
  <path d="M 50 245.93 L 1230 245.93" fill="none" stroke-width="0.5" stroke="#000000" stroke-opacity="0.25882" stroke-linecap="butt" stroke-linejoin="round" stroke-dasharray="6 3" stroke-dashoffset="0"/>
  <path d="M 50 213.42 L 1230 213.42" fill="none" stroke-width="0.5" stroke="#000000" stroke-opacity="0.25882" stroke-linecap="butt" stroke-linejoin="round" stroke-dasharray="6 3" stroke-dashoffset="0"/>
  <path d="M 50 180.91 L 1230 180.91" fill="none" stroke-width="0.5" stroke="#000000" stroke-opacity="0.25882" stroke-linecap="butt" stroke-linejoin="round" stroke-dasharray="6 3" stroke-dashoffset="0"/>
  <path d="M 50 148.4 L 1230 148.4" fill="none" stroke-width="0.5" stroke="#000000" stroke-opacity="0.25882" stroke-linecap="butt" stroke-linejoin="round" stroke-dasharray="6 3" stroke-dashoffset="0"/>
  <path d="M 50 115.89 L 1230 115.89" fill="none" stroke-width="0.5" stroke="#000000" stroke-opacity="0.25882" stroke-linecap="butt" stroke-linejoin="round" stroke-dasharray="6 3" stroke-dashoffset="0"/>
  <path d="M 50 83.376 L 1230 83.376" fill="none" stroke-width="0.5" stroke="#000000" stroke-opacity="0.25882" stroke-linecap="butt" stroke-linejoin="round" stroke-dasharray="6 3" stroke-dashoffset="0"/>
  <path d="M 50 50.865 L 1230 50.865" fill="none" stroke-width="0.5" stroke="#000000" stroke-opacity="0.25882" stroke-linecap="butt" stroke-linejoin="round" stroke-dasharray="6 3" stroke-dashoffset="0"/>
  <path d="M 50 18.354 L 1230 18.354" fill="none" stroke-width="0.5" stroke="#000000" stroke-opacity="0.25882" stroke-linecap="butt" stroke-linejoin="round" stroke-dasharray="6 3" stroke-dashoffset="0"/>
  <path d="M 74 33 L 74 88 L 428 88 L 428 33 z" fill="#FFFFFF" fill-opacity="1.0" stroke="none"/>
  <clipPath id="clip-0">
    <path d="M 50 9 L 50 441 L 1230 441 L 1230 9 z"/>
  </clipPath>
  <g clip-path="url(#clip-0)">
    <path d="M 50 157.69L 109 189.19L 143.51 209.22L 168 223.84L 186.99 233.18L 202.51 192.3L 215.63 217.01L 227 222.2L 245.99 232.67L 261.51 199.79L 274.63 230.32L 286 212.69L 304.99 201.73L 320.51 209.64L 333.63 198.23L 345 204.49L 363.99 201.34L 379.51 204.35L 392.63 194.33L 404 198.69L 422.99 192.07L 438.51 193.71L 451.63 194.06L 463 191.39L 481.99 183.88L 497.51 176.34L 510.63 168.67L 522 154.2L 540.99 149.73L 556.51 129.62L 569.63 129.83L 581 131.82L 599.99 124.91L 615.51 123.35L 628.63 125.71L 640 126.25L 658.99 125.98L 674.51 126.04L 687.63 124.31L 699 122.72L 717.99 124.36L 733.51 121.79L 746.63 122.88L 758 118.39L 776.99 121.17L 792.51 121.22L 805.63 120.08L 817 120.08L 835.99 118.84L 851.51 117.07L 864.63 118.51L 876 116.18L 894.99 118.1L 910.51 117.01L 923.63 117.77L 935 115.59L 953.99 115.73L 969.51 115.83L 982.63 113.1L 994 108.9L 1013 113.84L 1028.5 112.29L 1041.6 113.84L 1053 98.399L 1072 111.6L 1087.5 104.2L 1100.6 110.08L 1112 91.783L 1131 105.46L 1146.5 97.427L 1159.6 104.49L 1171 87.2L 1190 99.769L 1205.5 91.334L 1218.6 96.458L 1230 79.817L 1230 84.715L 1218.6 98.186L 1205.5 92.781L 1190 99.845L 1171 87.502L 1159.6 104.63L 1146.5 100.84L 1131 105.49L 1112 97.341L 1100.6 110.88L 1087.5 106.28L 1072 111.66L 1053 103.43L 1041.6 113.95L 1028.5 112.85L 1013 114.87L 994 109.05L 982.63 115.55L 969.51 115.86L 953.99 116.46L 935 115.68L 923.63 117.88L 910.51 117.77L 894.99 118.46L 876 118.84L 864.63 118.64L 851.51 119.88L 835.99 120.64L 817 120.32L 805.63 121.91L 792.51 121.32L 776.99 122.6L 758 123.01L 746.63 123.89L 733.51 123.87L 717.99 124.98L 699 125.65L 687.63 126.64L 674.51 127.02L 658.99 128.15L 640 127.97L 628.63 131.31L 615.51 130.44L 599.99 131.19L 581 138.26L 569.63 143.2L 556.51 141.13L 540.99 157.92L 522 162.68L 510.63 170.73L 497.51 184.61L 481.99 192.36L 463 192.82L 451.63 194.06L 438.51 195.72L 422.99 199.6L 404 202.18L 392.63 201.92L 379.51 209.57L 363.99 207.25L 345 212.58L 333.63 206.32L 320.51 209.64L 304.99 214.53L 286 212.69L 274.63 230.32L 261.51 223.09L 245.99 233.74L 227 223.27L 215.63 217.01L 202.51 241.73L 186.99 233.18L 168 223.84L 143.51 209.22L 109 191.33L 50 157.69" fill="#007AFF" fill-opacity="0.30196078431372547" stroke="none"/>
    <path d="M 50 157.69L 109 191.33L 143.51 208.21L 168 221.7L 186.99 232.17L 202.51 240.72L 215.63 250.09L 227 254.21L 245.99 265.69L 261.51 273.23L 274.63 281.47L 286 287.73L 304.99 298.2L 320.51 306.75L 333.63 313.98L 345 320.25L 363.99 330.71L 379.51 340.39L 392.63 347.62L 404 302.97L 422.99 363.22L 438.51 339.82L 451.63 347.06L 463 321.55L 481.99 344.58L 497.51 339.29L 510.63 328.7L 522 327.41L 540.99 331.5L 556.51 329.54L 569.63 321.22L 581 318.51L 599.99 323.49L 615.51 323.16L 628.63 312.37L 640 321.26L 658.99 323.49L 674.51 325.17L 687.63 332.01L 699 329.6L 717.99 327.88L 733.51 330L 746.63 332.61L 758 332.82L 776.99 329.12L 792.51 326.95L 805.63 319.05L 817 315.82L 835.99 304.34L 851.51 292.25L 864.63 280.74L 876 286.86L 894.99 292.36L 910.51 280.46L 923.63 285.59L 935 286.88L 953.99 282.75L 969.51 283.16L 982.63 281.32L 994 273.39L 1013 282.73L 1028.5 281.52L 1041.6 281.17L 1053 281.23L 1072 280.96L 1087.5 279.95L 1100.6 280.23L 1112 275.41L 1131 275.86L 1146.5 278.58L 1159.6 279.55L 1171 279.08L 1190 279.45L 1205.5 274.59L 1218.6 278.88L 1230 277.95L 1230 279.19L 1218.6 279.24L 1205.5 279.41L 1190 279.47L 1171 279.62L 1159.6 279.68L 1146.5 279.56L 1131 279.78L 1112 280.06L 1100.6 280.59L 1087.5 280.85L 1072 281.28L 1053 281.93L 1041.6 281.41L 1028.5 282.23L 1013 283.44L 994 283.38L 982.63 283.48L 969.51 285.03L 953.99 285.56L 935 287.74L 923.63 287.43L 910.51 289.41L 894.99 295.13L 876 297.23L 864.63 301.11L 851.51 305.95L 835.99 309.8L 817 317.43L 805.63 320.62L 792.51 328.59L 776.99 333.34L 758 336.62L 746.63 335.82L 733.51 336.11L 717.99 334.89L 699 333.16L 687.63 334.11L 674.51 336.78L 658.99 334.11L 640 338.18L 628.63 336.36L 615.51 336.82L 599.99 334.11L 581 338.23L 569.63 336.36L 556.51 339.68L 540.99 344.58L 522 342.74L 510.63 346.77L 497.51 339.82L 481.99 344.58L 463 353.32L 451.63 347.06L 438.51 339.82L 422.99 363.22L 404 353.89L 392.63 347.62L 379.51 340.39L 363.99 330.71L 345 320.25L 333.63 313.98L 320.51 306.75L 304.99 298.2L 286 287.73L 274.63 281.47L 261.51 275.37L 245.99 265.69L 227 256.35L 215.63 250.09L 202.51 242.86L 186.99 234.31L 168 223.84L 143.51 210.35L 109 191.33L 50 157.69" fill="#FF3B30" fill-opacity="0.30196078431372547" stroke="none"/>
    <path d="M 50 157.69L 109 190.76L 143.51 209.22L 168 223.84L 186.99 233.18L 202.51 223.09L 215.63 217.01L 227 222.99L 245.99 233.46L 261.51 215.8L 274.63 230.32L 286 212.69L 304.99 210.84L 320.51 209.64L 333.63 204.07L 345 210.33L 363.99 205.63L 379.51 208.15L 392.63 199.82L 404 201.25L 422.99 197.51L 438.51 195.19L 451.63 194.06L 463 192.44L 481.99 189.99L 497.51 182.31L 510.63 170.18L 522 160.32L 540.99 155.64L 556.51 137.84L 569.63 139.32L 581 136.49L 599.99 129.47L 615.51 128.48L 628.63 129.78L 640 127.52L 658.99 127.57L 674.51 126.77L 687.63 126.02L 699 124.87L 717.99 124.82L 733.51 123.32L 746.63 123.62L 758 121.76L 776.99 122.22L 792.51 121.29L 805.63 121.42L 817 120.26L 835.99 120.16L 851.51 119.13L 864.63 118.6L 876 118.13L 894.99 118.36L 910.51 117.57L 923.63 117.85L 935 115.66L 953.99 116.27L 969.51 115.85L 982.63 114.9L 994 109.01L 1013 114.6L 1028.5 112.7L 1041.6 113.92L 1053 102.06L 1072 111.64L 1087.5 105.73L 1100.6 110.67L 1112 95.825L 1131 105.48L 1146.5 99.924L 1159.6 104.59L 1171 87.423L 1190 99.825L 1205.5 92.398L 1218.6 97.729L 1230 83.385" fill="none" stroke-width="4" stroke="#007AFF" stroke-opacity="1" stroke-linecap="round" stroke-linejoin="round"/>
    <path d="M 50 157.69L 109 191.33L 143.51 209.78L 168 223.27L 186.99 233.74L 202.51 242.29L 215.63 250.09L 227 255.78L 245.99 265.69L 261.51 274.8L 274.63 281.47L 286 287.73L 304.99 298.2L 320.51 306.75L 333.63 313.98L 345 320.25L 363.99 330.71L 379.51 340.39L 392.63 347.62L 404 334.49L 422.99 363.22L 438.51 339.82L 451.63 347.06L 463 342.74L 481.99 344.58L 497.51 339.68L 510.63 341.34L 522 338.23L 540.99 340.8L 556.51 336.82L 569.63 331.91L 581 332.23L 599.99 331.1L 615.51 332.85L 628.63 328.82L 640 333.14L 658.99 331.1L 674.51 333.46L 687.63 333.55L 699 332.21L 717.99 332.95L 733.51 334.43L 746.63 334.96L 758 335.6L 776.99 332.2L 792.51 328.16L 805.63 320.2L 817 317.01L 835.99 308.31L 851.51 301.97L 864.63 294.88L 876 294.29L 894.99 294.39L 910.51 286.9L 923.63 286.94L 935 287.52L 953.99 284.81L 969.51 284.54L 982.63 282.9L 994 280.56L 1013 283.25L 1028.5 282.04L 1041.6 281.34L 1053 281.74L 1072 281.2L 1087.5 280.62L 1100.6 280.5L 1112 278.8L 1131 278.73L 1146.5 279.31L 1159.6 279.65L 1171 279.48L 1190 279.46L 1205.5 278.1L 1218.6 279.15L 1230 278.87" fill="none" stroke-width="4" stroke="#FF3B30" stroke-opacity="1" stroke-linecap="round" stroke-linejoin="round"/>
    <path d="M 50 157.69L 109 190.76L 143.51 209.22L 168 223.84L 186.99 233.18L 202.51 223.09L 215.63 217.01L 227 222.99L 245.99 233.46L 261.51 215.8L 274.63 230.32L 286 212.69L 304.99 210.84L 320.51 209.64L 333.63 204.07L 345 210.33L 363.99 205.63L 379.51 208.15L 392.63 199.82L 404 201.25L 422.99 197.51L 438.51 195.19L 451.63 194.06L 463 192.44L 481.99 189.99L 497.51 182.31L 510.63 170.18L 522 160.32L 540.99 155.64L 556.51 137.84L 569.63 139.32L 581 136.49L 599.99 129.47L 615.51 128.48L 628.63 129.78L 640 127.52L 658.99 127.57L 674.51 126.77L 687.63 126.02L 699 124.87L 717.99 124.82L 733.51 123.32L 746.63 123.62L 758 121.76L 776.99 122.22L 792.51 121.29L 805.63 121.42L 817 120.26L 835.99 120.16L 851.51 119.13L 864.63 118.6L 876 118.13L 894.99 118.36L 910.51 117.57L 923.63 117.85L 935 115.66L 953.99 116.27L 969.51 115.85L 982.63 114.9L 994 109.01L 1013 114.6L 1028.5 112.7L 1041.6 113.92L 1053 102.06L 1072 111.64L 1087.5 105.73L 1100.6 110.67L 1112 95.825L 1131 105.48L 1146.5 99.924L 1159.6 104.59L 1171 87.423L 1190 99.825L 1205.5 92.398L 1218.6 97.729L 1230 83.385" fill="none" stroke-width="0.5" stroke="#000000" stroke-opacity="0.30196" stroke-linecap="round" stroke-linejoin="round"/>
    <path d="M 50 157.69L 109 191.33L 143.51 209.78L 168 223.27L 186.99 233.74L 202.51 242.29L 215.63 250.09L 227 255.78L 245.99 265.69L 261.51 274.8L 274.63 281.47L 286 287.73L 304.99 298.2L 320.51 306.75L 333.63 313.98L 345 320.25L 363.99 330.71L 379.51 340.39L 392.63 347.62L 404 334.49L 422.99 363.22L 438.51 339.82L 451.63 347.06L 463 342.74L 481.99 344.58L 497.51 339.68L 510.63 341.34L 522 338.23L 540.99 340.8L 556.51 336.82L 569.63 331.91L 581 332.23L 599.99 331.1L 615.51 332.85L 628.63 328.82L 640 333.14L 658.99 331.1L 674.51 333.46L 687.63 333.55L 699 332.21L 717.99 332.95L 733.51 334.43L 746.63 334.96L 758 335.6L 776.99 332.2L 792.51 328.16L 805.63 320.2L 817 317.01L 835.99 308.31L 851.51 301.97L 864.63 294.88L 876 294.29L 894.99 294.39L 910.51 286.9L 923.63 286.94L 935 287.52L 953.99 284.81L 969.51 284.54L 982.63 282.9L 994 280.56L 1013 283.25L 1028.5 282.04L 1041.6 281.34L 1053 281.74L 1072 281.2L 1087.5 280.62L 1100.6 280.5L 1112 278.8L 1131 278.73L 1146.5 279.31L 1159.6 279.65L 1171 279.48L 1190 279.46L 1205.5 278.1L 1218.6 279.15L 1230 278.87" fill="none" stroke-width="0.5" stroke="#000000" stroke-opacity="0.30196" stroke-linecap="round" stroke-linejoin="round"/>
  </g>
  <path d="M 74 33 L 74 88 L 428 88 L 428 33 z" fill="#FFFFFF" fill-opacity="0.7019607843137254" stroke-width="0.5" stroke="#000000" stroke-opacity="1" stroke-linecap="round" stroke-linejoin="round"/>
  <path d="M 88 52 L 108 52" fill="none" stroke-width="4" stroke="#FF3B30" stroke-opacity="1" stroke-linecap="round" stroke-linejoin="round"/>
  <path d="M 88 52 L 108 52" fill="none" stroke-width="0.5" stroke="#000000" stroke-opacity="0.30196" stroke-linecap="round" stroke-linejoin="round"/>
  <text x="119" y="56.17" font-family="Menlo" font-size="12" font-weight="normal" font-style="normal" fill="#000000" fill-opacity="1">Array&lt;Int&gt; partitioning around middle</text>
  <path d="M 88 69 L 108 69" fill="none" stroke-width="4" stroke="#007AFF" stroke-opacity="1" stroke-linecap="round" stroke-linejoin="round"/>
  <path d="M 88 69 L 108 69" fill="none" stroke-width="0.5" stroke="#000000" stroke-opacity="0.30196" stroke-linecap="round" stroke-linejoin="round"/>
  <text x="119" y="73.17" font-family="Menlo" font-size="12" font-weight="normal" font-style="normal" fill="#000000" fill-opacity="1">TreeArray&lt;Int&gt; partitioning around middle</text>
  <path d="M 50 9 L 50 441 L 1230 441 L 1230 9 z" fill="none" stroke-width="0.5" stroke="#000000" stroke-opacity="1" stroke-linecap="round" stroke-linejoin="round"/>
</svg>
