<!DOCTYPE svg PUBLIC "-//W3C//DTD SVG 1.1//EN" "http://www.w3.org/Graphics/SVG/1.1/DTD/svg11.dtd">
<svg width="1280.0px" height="480.0px" viewBox="0.0 0.0 1280.0 480.0" xmlns="http://www.w3.org/2000/svg" xmlns:xlink="http://www.w3.org/1999/xlink" version="1.1">
  <path d="M 0 0 L 0 480 L 1280 480 L 1280 0 z" fill="#FFFFFF" fill-opacity="1.0" stroke="none"/>
  <text x="50" y="468.7" font-family="Helvetica" font-size="10" font-weight="normal" font-style="normal" fill="#000000" fill-opacity="1">Average per-element processing time over input size (bands: min, mean, mean + 2stddev)</text>
  <a xlink:href="https://github.com/apple/swift-collections-benchmark"><text x="1107" y="468.7" font-family="Helvetica" font-size="10" font-weight="normal" font-style="normal" fill="#000000" fill-opacity="1">swift-collections-benchmark</text></a>
  <path d="M 50 9 L 50 441" fill="none" stroke-width="0.75" stroke="#000000" stroke-opacity="0.49804" stroke-linecap="butt" stroke-linejoin="round"/>
  <text x="47" y="453.7" font-family="Helvetica" font-size="10" font-weight="normal" font-style="normal" fill="#000000" fill-opacity="1">1</text>
  <path d="M 109 9 L 109 441" fill="none" stroke-width="0.75" stroke="#000000" stroke-opacity="0.49804" stroke-linecap="butt" stroke-linejoin="round"/>
  <text x="106" y="453.7" font-family="Helvetica" font-size="10" font-weight="normal" font-style="normal" fill="#000000" fill-opacity="1">2</text>
  <path d="M 168 9 L 168 441" fill="none" stroke-width="0.75" stroke="#000000" stroke-opacity="0.49804" stroke-linecap="butt" stroke-linejoin="round"/>
  <text x="165" y="453.7" font-family="Helvetica" font-size="10" font-weight="normal" font-style="normal" fill="#000000" fill-opacity="1">4</text>
  <path d="M 227 9 L 227 441" fill="none" stroke-width="0.75" stroke="#000000" stroke-opacity="0.49804" stroke-linecap="butt" stroke-linejoin="round"/>
  <text x="224" y="453.7" font-family="Helvetica" font-size="10" font-weight="normal" font-style="normal" fill="#000000" fill-opacity="1">8</text>
  <path d="M 286 9 L 286 441" fill="none" stroke-width="0.75" stroke="#000000" stroke-opacity="0.49804" stroke-linecap="butt" stroke-linejoin="round"/>
  <text x="280" y="453.7" font-family="Helvetica" font-size="10" font-weight="normal" font-style="normal" fill="#000000" fill-opacity="1">16</text>
  <path d="M 345 9 L 345 441" fill="none" stroke-width="0.75" stroke="#000000" stroke-opacity="0.49804" stroke-linecap="butt" stroke-linejoin="round"/>
  <text x="339" y="453.7" font-family="Helvetica" font-size="10" font-weight="normal" font-style="normal" fill="#000000" fill-opacity="1">32</text>
  <path d="M 404 9 L 404 441" fill="none" stroke-width="0.75" stroke="#000000" stroke-opacity="0.49804" stroke-linecap="butt" stroke-linejoin="round"/>
  <text x="398" y="453.7" font-family="Helvetica" font-size="10" font-weight="normal" font-style="normal" fill="#000000" fill-opacity="1">64</text>
  <path d="M 463 9 L 463 441" fill="none" stroke-width="0.75" stroke="#000000" stroke-opacity="0.49804" stroke-linecap="butt" stroke-linejoin="round"/>
  <text x="454.5" y="453.7" font-family="Helvetica" font-size="10" font-weight="normal" font-style="normal" fill="#000000" fill-opacity="1">128</text>
  <path d="M 522 9 L 522 441" fill="none" stroke-width="0.75" stroke="#000000" stroke-opacity="0.49804" stroke-linecap="butt" stroke-linejoin="round"/>
  <text x="513.5" y="453.7" font-family="Helvetica" font-size="10" font-weight="normal" font-style="normal" fill="#000000" fill-opacity="1">256</text>
  <path d="M 581 9 L 581 441" fill="none" stroke-width="0.75" stroke="#000000" stroke-opacity="0.49804" stroke-linecap="butt" stroke-linejoin="round"/>
  <text x="572.5" y="453.7" font-family="Helvetica" font-size="10" font-weight="normal" font-style="normal" fill="#000000" fill-opacity="1">512</text>
  <path d="M 640 9 L 640 441" fill="none" stroke-width="0.75" stroke="#000000" stroke-opacity="0.49804" stroke-linecap="butt" stroke-linejoin="round"/>
  <text x="634.5" y="453.7" font-family="Helvetica" font-size="10" font-weight="normal" font-style="normal" fill="#000000" fill-opacity="1">1k</text>
  <path d="M 699 9 L 699 441" fill="none" stroke-width="0.75" stroke="#000000" stroke-opacity="0.49804" stroke-linecap="butt" stroke-linejoin="round"/>
  <text x="693.5" y="453.7" font-family="Helvetica" font-size="10" font-weight="normal" font-style="normal" fill="#000000" fill-opacity="1">2k</text>
  <path d="M 758 9 L 758 441" fill="none" stroke-width="0.75" stroke="#000000" stroke-opacity="0.49804" stroke-linecap="butt" stroke-linejoin="round"/>
  <text x="752.5" y="453.7" font-family="Helvetica" font-size="10" font-weight="normal" font-style="normal" fill="#000000" fill-opacity="1">4k</text>
  <path d="M 817 9 L 817 441" fill="none" stroke-width="0.75" stroke="#000000" stroke-opacity="0.49804" stroke-linecap="butt" stroke-linejoin="round"/>
  <text x="811.5" y="453.7" font-family="Helvetica" font-size="10" font-weight="normal" font-style="normal" fill="#000000" fill-opacity="1">8k</text>
  <path d="M 876 9 L 876 441" fill="none" stroke-width="0.75" stroke="#000000" stroke-opacity="0.49804" stroke-linecap="butt" stroke-linejoin="round"/>
  <text x="867.5" y="453.7" font-family="Helvetica" font-size="10" font-weight="normal" font-style="normal" fill="#000000" fill-opacity="1">16k</text>
  <path d="M 935 9 L 935 441" fill="none" stroke-width="0.75" stroke="#000000" stroke-opacity="0.49804" stroke-linecap="butt" stroke-linejoin="round"/>
  <text x="926.5" y="453.7" font-family="Helvetica" font-size="10" font-weight="normal" font-style="normal" fill="#000000" fill-opacity="1">32k</text>
  <path d="M 994 9 L 994 441" fill="none" stroke-width="0.75" stroke="#000000" stroke-opacity="0.49804" stroke-linecap="butt" stroke-linejoin="round"/>
  <text x="985.5" y="453.7" font-family="Helvetica" font-size="10" font-weight="normal" font-style="normal" fill="#000000" fill-opacity="1">64k</text>
  <path d="M 1053 9 L 1053 441" fill="none" stroke-width="0.75" stroke="#000000" stroke-opacity="0.49804" stroke-linecap="butt" stroke-linejoin="round"/>
  <text x="1042" y="453.7" font-family="Helvetica" font-size="10" font-weight="normal" font-style="normal" fill="#000000" fill-opacity="1">128k</text>
  <path d="M 1112 9 L 1112 441" fill="none" stroke-width="0.75" stroke="#000000" stroke-opacity="0.49804" stroke-linecap="butt" stroke-linejoin="round"/>
  <text x="1101" y="453.7" font-family="Helvetica" font-size="10" font-weight="normal" font-style="normal" fill="#000000" fill-opacity="1">256k</text>
  <path d="M 1171 9 L 1171 441" fill="none" stroke-width="0.75" stroke="#000000" stroke-opacity="0.49804" stroke-linecap="butt" stroke-linejoin="round"/>
  <text x="1160" y="453.7" font-family="Helvetica" font-size="10" font-weight="normal" font-style="normal" fill="#000000" fill-opacity="1">512k</text>
  <path d="M 1230 9 L 1230 441" fill="none" stroke-width="0.75" stroke="#000000" stroke-opacity="0.49804" stroke-linecap="butt" stroke-linejoin="round"/>
  <text x="1223" y="453.7" font-family="Helvetica" font-size="10" font-weight="normal" font-style="normal" fill="#000000" fill-opacity="1">1M</text>
  <path d="M 50 441 L 1230 441" fill="none" stroke-width="0.75" stroke="#000000" stroke-opacity="0.49804" stroke-linecap="butt" stroke-linejoin="round"/>
  <text x="16" y="442.7" font-family="Helvetica" font-size="10" font-weight="normal" font-style="normal" fill="#000000" fill-opacity="1">100 ps</text>
  <text x="1236" y="442.7" font-family="Helvetica" font-size="10" font-weight="normal" font-style="normal" fill="#000000" fill-opacity="1">100 ps</text>
  <path d="M 50 333 L 1230 333" fill="none" stroke-width="0.75" stroke="#000000" stroke-opacity="0.49804" stroke-linecap="butt" stroke-linejoin="round"/>
  <text x="27" y="334.7" font-family="Helvetica" font-size="10" font-weight="normal" font-style="normal" fill="#000000" fill-opacity="1">1 ns</text>
  <text x="1236" y="334.7" font-family="Helvetica" font-size="10" font-weight="normal" font-style="normal" fill="#000000" fill-opacity="1">1 ns</text>
  <path d="M 50 225 L 1230 225" fill="none" stroke-width="0.75" stroke="#000000" stroke-opacity="0.49804" stroke-linecap="butt" stroke-linejoin="round"/>
  <text x="21" y="226.7" font-family="Helvetica" font-size="10" font-weight="normal" font-style="normal" fill="#000000" fill-opacity="1">10 ns</text>
  <text x="1236" y="226.7" font-family="Helvetica" font-size="10" font-weight="normal" font-style="normal" fill="#000000" fill-opacity="1">10 ns</text>
  <path d="M 50 117 L 1230 117" fill="none" stroke-width="0.75" stroke="#000000" stroke-opacity="0.49804" stroke-linecap="butt" stroke-linejoin="round"/>
  <text x="16" y="118.7" font-family="Helvetica" font-size="10" font-weight="normal" font-style="normal" fill="#000000" fill-opacity="1">100 ns</text>
  <text x="1236" y="118.7" font-family="Helvetica" font-size="10" font-weight="normal" font-style="normal" fill="#000000" fill-opacity="1">100 ns</text>
  <path d="M 50 9 L 1230 9" fill="none" stroke-width="0.75" stroke="#000000" stroke-opacity="0.49804" stroke-linecap="butt" stroke-linejoin="round"/>
  <text x="26" y="10.7" font-family="Helvetica" font-size="10" font-weight="normal" font-style="normal" fill="#000000" fill-opacity="1">1 µs</text>
  <text x="1236" y="10.7" font-family="Helvetica" font-size="10" font-weight="normal" font-style="normal" fill="#000000" fill-opacity="1">1 µs</text>
  <path d="M 50 408.49 L 1230 408.49" fill="none" stroke-width="0.5" stroke="#000000" stroke-opacity="0.25882" stroke-linecap="butt" stroke-linejoin="round" stroke-dasharray="6 3" stroke-dashoffset="0"/>
  <path d="M 50 375.98 L 1230 375.98" fill="none" stroke-width="0.5" stroke="#000000" stroke-opacity="0.25882" stroke-linecap="butt" stroke-linejoin="round" stroke-dasharray="6 3" stroke-dashoffset="0"/>
  <path d="M 50 343.47 L 1230 343.47" fill="none" stroke-width="0.5" stroke="#000000" stroke-opacity="0.25882" stroke-linecap="butt" stroke-linejoin="round" stroke-dasharray="6 3" stroke-dashoffset="0"/>
  <path d="M 50 310.96 L 1230 310.96" fill="none" stroke-width="0.5" stroke="#000000" stroke-opacity="0.25882" stroke-linecap="butt" stroke-linejoin="round" stroke-dasharray="6 3" stroke-dashoffset="0"/>
  <path d="M 50 278.44 L 1230 278.44" fill="none" stroke-width="0.5" stroke="#000000" stroke-opacity="0.25882" stroke-linecap="butt" stroke-linejoin="round" stroke-dasharray="6 3" stroke-dashoffset="0"/>
  <path d="M 50 245.93 L 1230 245.93" fill="none" stroke-width="0.5" stroke="#000000" stroke-opacity="0.25882" stroke-linecap="butt" stroke-linejoin="round" stroke-dasharray="6 3" stroke-dashoffset="0"/>
  <path d="M 50 213.42 L 1230 213.42" fill="none" stroke-width="0.5" stroke="#000000" stroke-opacity="0.25882" stroke-linecap="butt" stroke-linejoin="round" stroke-dasharray="6 3" stroke-dashoffset="0"/>
  <path d="M 50 180.91 L 1230 180.91" fill="none" stroke-width="0.5" stroke="#000000" stroke-opacity="0.25882" stroke-linecap="butt" stroke-linejoin="round" stroke-dasharray="6 3" stroke-dashoffset="0"/>
  <path d="M 50 148.4 L 1230 148.4" fill="none" stroke-width="0.5" stroke="#000000" stroke-opacity="0.25882" stroke-linecap="butt" stroke-linejoin="round" stroke-dasharray="6 3" stroke-dashoffset="0"/>
  <path d="M 50 115.89 L 1230 115.89" fill="none" stroke-width="0.5" stroke="#000000" stroke-opacity="0.25882" stroke-linecap="butt" stroke-linejoin="round" stroke-dasharray="6 3" stroke-dashoffset="0"/>
  <path d="M 50 83.376 L 1230 83.376" fill="none" stroke-width="0.5" stroke="#000000" stroke-opacity="0.25882" stroke-linecap="butt" stroke-linejoin="round" stroke-dasharray="6 3" stroke-dashoffset="0"/>
  <path d="M 50 50.865 L 1230 50.865" fill="none" stroke-width="0.5" stroke="#000000" stroke-opacity="0.25882" stroke-linecap="butt" stroke-linejoin="round" stroke-dasharray="6 3" stroke-dashoffset="0"/>
  <path d="M 50 18.354 L 1230 18.354" fill="none" stroke-width="0.5" stroke="#000000" stroke-opacity="0.25882" stroke-linecap="butt" stroke-linejoin="round" stroke-dasharray="6 3" stroke-dashoffset="0"/>
  <path d="M 74 33 L 74 88 L 428 88 L 428 33 z" fill="#FFFFFF" fill-opacity="1.0" stroke="none"/>
  <clipPath id="clip-0">
    <path d="M 50 9 L 50 441 L 1230 441 L 1230 9 z"/>
  </clipPath>
  <g clip-path="url(#clip-0)">
    <path d="M 50 156.68L 109 189.19L 143.51 210.35L 168 222.71L 186.99 182.02L 202.51 158.92L 215.63 165.29L 227 140.06L 245.99 146.04L 261.51 142.46L 274.63 144.09L 286 155.41L 304.99 142.41L 320.51 123.7L 333.63 130.41L 345 142.07L 363.99 129.75L 379.51 140.42L 392.63 137.13L 404 136.37L 422.99 130.63L 438.51 126.49L 451.63 130.46L 463 126.77L 481.99 128.61L 497.51 125.26L 510.63 127.03L 522 128.5L 540.99 126.46L 556.51 122.03L 569.63 125.79L 581 121.28L 599.99 122.46L 615.51 122.31L 628.63 120.73L 640 117.65L 658.99 120.13L 674.51 114.82L 687.63 119.43L 699 116.54L 717.99 117.24L 733.51 118.29L 746.63 116.01L 758 118.07L 776.99 114.49L 792.51 115.85L 805.63 111.58L 817 115.48L 835.99 114.26L 851.51 112.67L 864.63 110.75L 876 112.13L 894.99 110.82L 910.51 110.44L 923.63 108.75L 935 108.66L 953.99 109.38L 969.51 108.46L 982.63 106.9L 994 107.92L 1013 104.33L 1028.5 104.96L 1041.6 104.52L 1053 105.25L 1072 104.32L 1087.5 104.25L 1100.6 101.96L 1112 103.43L 1131 101.63L 1146.5 102.23L 1159.6 100.87L 1171 101.44L 1190 99.272L 1205.5 98.929L 1218.6 98.42L 1230 97.779L 1230 99.06L 1218.6 99.794L 1205.5 100.59L 1190 99.672L 1171 101.98L 1159.6 101.52L 1146.5 102.43L 1131 102.4L 1112 103.68L 1100.6 104.25L 1087.5 104.5L 1072 104.9L 1053 106.37L 1041.6 107.16L 1028.5 107.88L 1013 107.16L 994 108.14L 982.63 107.98L 969.51 109.62L 953.99 109.59L 935 110.65L 923.63 110.48L 910.51 111.44L 894.99 112.76L 876 112.87L 864.63 113.23L 851.51 113.93L 835.99 114.79L 817 115.79L 805.63 114.66L 792.51 116.54L 776.99 117.23L 758 118.69L 746.63 117.58L 733.51 118.69L 717.99 120.48L 699 119.64L 687.63 122.55L 674.51 120.89L 658.99 121.08L 640 122.28L 628.63 123.38L 615.51 124.32L 599.99 125.44L 581 126.71L 569.63 126.4L 556.51 129.04L 540.99 126.89L 522 131.19L 510.63 129.37L 497.51 129.9L 481.99 133L 463 128.97L 451.63 131.81L 438.51 137.76L 422.99 133.87L 404 140.03L 392.63 143.73L 379.51 141.73L 363.99 143.99L 345 142.07L 333.63 142.52L 320.51 156.18L 304.99 145.77L 286 161.09L 274.63 154.83L 261.51 162.18L 245.99 153.63L 227 171.56L 215.63 165.29L 202.51 176.99L 186.99 182.02L 168 222.71L 143.51 210.35L 109 191.33L 50 158.82" fill="#007AFF" fill-opacity="0.30196078431372547" stroke="none"/>
    <path d="M 50 157.69L 109 189.19L 143.51 208.21L 168 221.7L 186.99 233.18L 202.51 240.72L 215.63 248.96L 227 254.21L 245.99 264.68L 261.51 274.24L 274.63 281.47L 286 286.72L 304.99 297.19L 320.51 305.74L 333.63 312.97L 345 319.24L 363.99 330.71L 379.51 338.25L 392.63 346.49L 404 351.75L 422.99 331.27L 438.51 308.05L 451.63 346.49L 463 321.55L 481.99 321.72L 497.51 339.82L 510.63 336.48L 522 326.99L 540.99 326.01L 556.51 329.54L 569.63 328.19L 581 323.99L 599.99 328.44L 615.51 325.1L 628.63 322.77L 640 332.14L 658.99 317.95L 674.51 327.05L 687.63 329.86L 699 327.08L 717.99 330.55L 733.51 329.36L 746.63 334.16L 758 328.42L 776.99 332.65L 792.51 325.06L 805.63 316.73L 817 314.53L 835.99 287.78L 851.51 281.01L 864.63 275.35L 876 296.25L 894.99 280.66L 910.51 284.49L 923.63 282.7L 935 286.84L 953.99 281.33L 969.51 284.14L 982.63 280.95L 994 281.09L 1013 282.26L 1028.5 281.16L 1041.6 277.04L 1053 280.94L 1072 280.86L 1087.5 279.73L 1100.6 279.73L 1112 276.75L 1131 278.11L 1146.5 278.83L 1159.6 278.29L 1171 278.22L 1190 277.92L 1205.5 279.19L 1218.6 278.71L 1230 279.09L 1230 279.16L 1218.6 279.33L 1205.5 279.32L 1190 278.99L 1171 279.26L 1159.6 279.44L 1146.5 279.86L 1131 279.62L 1112 280.32L 1100.6 280.44L 1087.5 280.66L 1072 281.57L 1053 281.88L 1041.6 282.07L 1028.5 282.69L 1013 283.07L 994 284.07L 982.63 282.84L 969.51 285.03L 953.99 285.85L 935 287.22L 923.63 287.69L 910.51 287.56L 894.99 291.53L 876 297.62L 864.63 300.36L 851.51 302.26L 835.99 304.32L 817 316.42L 805.63 324.32L 792.51 327.16L 776.99 334.11L 758 334.6L 746.63 335.25L 733.51 334.11L 717.99 334.91L 699 332.18L 687.63 329.86L 674.51 331.59L 658.99 339.05L 640 332.23L 628.63 334.11L 615.51 334.11L 599.99 334.11L 581 330.33L 569.63 336.48L 556.51 339.68L 540.99 337.46L 522 326.99L 510.63 336.48L 497.51 339.82L 481.99 344.58L 463 353.32L 451.63 346.49L 438.51 339.82L 422.99 331.27L 404 353.89L 392.63 346.49L 379.51 340.39L 363.99 330.71L 345 321.38L 333.63 315.11L 320.51 307.88L 304.99 299.33L 286 288.86L 274.63 281.47L 261.51 274.24L 245.99 266.82L 227 256.35L 215.63 248.96L 202.51 242.86L 186.99 233.18L 168 223.84L 143.51 210.35L 109 191.33L 50 157.69" fill="#FF3B30" fill-opacity="0.30196078431372547" stroke="none"/>
    <path d="M 50 158.25L 109 190.76L 143.51 210.35L 168 222.71L 186.99 182.02L 202.51 171.56L 215.63 165.29L 227 161.09L 245.99 151.52L 261.51 156.18L 274.63 151.78L 286 159.54L 304.99 144.87L 320.51 145.31L 333.63 139.04L 345 142.07L 363.99 139.83L 379.51 141.39L 392.63 141.92L 404 139.04L 422.99 133L 438.51 134.54L 451.63 131.46L 463 128.38L 481.99 131.82L 497.51 128.64L 510.63 128.75L 522 130.47L 540.99 126.78L 556.51 127.1L 569.63 126.24L 581 125.23L 599.99 124.64L 615.51 123.78L 628.63 122.67L 640 121.02L 658.99 120.83L 674.51 119.23L 687.63 121.71L 699 118.81L 717.99 119.61L 733.51 118.58L 746.63 117.16L 758 118.53L 776.99 116.5L 792.51 116.36L 805.63 113.84L 817 115.71L 835.99 114.65L 851.51 113.6L 864.63 112.57L 876 112.68L 894.99 112.24L 910.51 111.18L 923.63 110.02L 935 110.12L 953.99 109.53L 969.51 109.31L 982.63 107.69L 994 108.09L 1013 106.41L 1028.5 107.1L 1041.6 106.46L 1053 106.07L 1072 104.75L 1087.5 104.43L 1100.6 103.64L 1112 103.61L 1131 102.2L 1146.5 102.38L 1159.6 101.35L 1171 101.84L 1190 99.568L 1205.5 100.15L 1218.6 99.431L 1230 98.722" fill="none" stroke-width="4" stroke="#007AFF" stroke-opacity="1" stroke-linecap="round" stroke-linejoin="round"/>
    <path d="M 50 157.69L 109 190.76L 143.51 209.78L 168 223.27L 186.99 233.18L 202.51 242.29L 215.63 248.96L 227 255.78L 245.99 266.25L 261.51 274.24L 274.63 281.47L 286 288.3L 304.99 298.76L 320.51 307.31L 333.63 314.54L 345 320.81L 363.99 330.71L 379.51 339.82L 392.63 346.49L 404 353.32L 422.99 331.27L 438.51 329.25L 451.63 346.49L 463 342.74L 481.99 337.46L 497.51 339.82L 510.63 336.48L 522 326.99L 540.99 334.19L 556.51 336.82L 569.63 334.17L 581 328.59L 599.99 332.56L 615.51 331.59L 628.63 330.88L 640 332.21L 658.99 332.56L 674.51 330.36L 687.63 329.86L 699 330.8L 717.99 333.73L 733.51 332.82L 746.63 334.96L 758 332.9L 776.99 333.72L 792.51 326.6L 805.63 322.22L 817 315.92L 835.99 299.41L 851.51 295.72L 864.63 292.44L 876 297.26L 894.99 288.44L 910.51 286.74L 923.63 286.34L 935 287.12L 953.99 284.63L 969.51 284.8L 982.63 282.34L 994 283.28L 1013 282.86L 1028.5 282.29L 1041.6 280.7L 1053 281.63L 1072 281.38L 1087.5 280.41L 1100.6 280.25L 1112 279.36L 1131 279.22L 1146.5 279.59L 1159.6 279.14L 1171 278.99L 1190 278.71L 1205.5 279.29L 1218.6 279.17L 1230 279.14" fill="none" stroke-width="4" stroke="#FF3B30" stroke-opacity="1" stroke-linecap="round" stroke-linejoin="round"/>
    <path d="M 50 158.25L 109 190.76L 143.51 210.35L 168 222.71L 186.99 182.02L 202.51 171.56L 215.63 165.29L 227 161.09L 245.99 151.52L 261.51 156.18L 274.63 151.78L 286 159.54L 304.99 144.87L 320.51 145.31L 333.63 139.04L 345 142.07L 363.99 139.83L 379.51 141.39L 392.63 141.92L 404 139.04L 422.99 133L 438.51 134.54L 451.63 131.46L 463 128.38L 481.99 131.82L 497.51 128.64L 510.63 128.75L 522 130.47L 540.99 126.78L 556.51 127.1L 569.63 126.24L 581 125.23L 599.99 124.64L 615.51 123.78L 628.63 122.67L 640 121.02L 658.99 120.83L 674.51 119.23L 687.63 121.71L 699 118.81L 717.99 119.61L 733.51 118.58L 746.63 117.16L 758 118.53L 776.99 116.5L 792.51 116.36L 805.63 113.84L 817 115.71L 835.99 114.65L 851.51 113.6L 864.63 112.57L 876 112.68L 894.99 112.24L 910.51 111.18L 923.63 110.02L 935 110.12L 953.99 109.53L 969.51 109.31L 982.63 107.69L 994 108.09L 1013 106.41L 1028.5 107.1L 1041.6 106.46L 1053 106.07L 1072 104.75L 1087.5 104.43L 1100.6 103.64L 1112 103.61L 1131 102.2L 1146.5 102.38L 1159.6 101.35L 1171 101.84L 1190 99.568L 1205.5 100.15L 1218.6 99.431L 1230 98.722" fill="none" stroke-width="0.5" stroke="#000000" stroke-opacity="0.30196" stroke-linecap="round" stroke-linejoin="round"/>
    <path d="M 50 157.69L 109 190.76L 143.51 209.78L 168 223.27L 186.99 233.18L 202.51 242.29L 215.63 248.96L 227 255.78L 245.99 266.25L 261.51 274.24L 274.63 281.47L 286 288.3L 304.99 298.76L 320.51 307.31L 333.63 314.54L 345 320.81L 363.99 330.71L 379.51 339.82L 392.63 346.49L 404 353.32L 422.99 331.27L 438.51 329.25L 451.63 346.49L 463 342.74L 481.99 337.46L 497.51 339.82L 510.63 336.48L 522 326.99L 540.99 334.19L 556.51 336.82L 569.63 334.17L 581 328.59L 599.99 332.56L 615.51 331.59L 628.63 330.88L 640 332.21L 658.99 332.56L 674.51 330.36L 687.63 329.86L 699 330.8L 717.99 333.73L 733.51 332.82L 746.63 334.96L 758 332.9L 776.99 333.72L 792.51 326.6L 805.63 322.22L 817 315.92L 835.99 299.41L 851.51 295.72L 864.63 292.44L 876 297.26L 894.99 288.44L 910.51 286.74L 923.63 286.34L 935 287.12L 953.99 284.63L 969.51 284.8L 982.63 282.34L 994 283.28L 1013 282.86L 1028.5 282.29L 1041.6 280.7L 1053 281.63L 1072 281.38L 1087.5 280.41L 1100.6 280.25L 1112 279.36L 1131 279.22L 1146.5 279.59L 1159.6 279.14L 1171 278.99L 1190 278.71L 1205.5 279.29L 1218.6 279.17L 1230 279.14" fill="none" stroke-width="0.5" stroke="#000000" stroke-opacity="0.30196" stroke-linecap="round" stroke-linejoin="round"/>
  </g>
  <path d="M 74 33 L 74 88 L 428 88 L 428 33 z" fill="#FFFFFF" fill-opacity="0.7019607843137254" stroke-width="0.5" stroke="#000000" stroke-opacity="1" stroke-linecap="round" stroke-linejoin="round"/>
  <path d="M 88 52 L 108 52" fill="none" stroke-width="4" stroke="#FF3B30" stroke-opacity="1" stroke-linecap="round" stroke-linejoin="round"/>
  <path d="M 88 52 L 108 52" fill="none" stroke-width="0.5" stroke="#000000" stroke-opacity="0.30196" stroke-linecap="round" stroke-linejoin="round"/>
  <text x="119" y="56.17" font-family="Menlo" font-size="12" font-weight="normal" font-style="normal" fill="#000000" fill-opacity="1">Array&lt;Int&gt; partitioning around middle</text>
  <path d="M 88 69 L 108 69" fill="none" stroke-width="4" stroke="#007AFF" stroke-opacity="1" stroke-linecap="round" stroke-linejoin="round"/>
  <path d="M 88 69 L 108 69" fill="none" stroke-width="0.5" stroke="#000000" stroke-opacity="0.30196" stroke-linecap="round" stroke-linejoin="round"/>
  <text x="119" y="73.17" font-family="Menlo" font-size="12" font-weight="normal" font-style="normal" fill="#000000" fill-opacity="1">TreeArray&lt;Int&gt; partitioning around middle</text>
  <path d="M 50 9 L 50 441 L 1230 441 L 1230 9 z" fill="none" stroke-width="0.5" stroke="#000000" stroke-opacity="1" stroke-linecap="round" stroke-linejoin="round"/>
</svg>
