<!DOCTYPE svg PUBLIC "-//W3C//DTD SVG 1.1//EN" "http://www.w3.org/Graphics/SVG/1.1/DTD/svg11.dtd">
<svg width="1280.0px" height="480.0px" viewBox="0.0 0.0 1280.0 480.0" xmlns="http://www.w3.org/2000/svg" xmlns:xlink="http://www.w3.org/1999/xlink" version="1.1">
  <path d="M 0 0 L 0 480 L 1280 480 L 1280 0 z" fill="#FFFFFF" fill-opacity="1.0" stroke="none"/>
  <text x="50" y="468.7" font-family="Helvetica" font-size="10" font-weight="normal" font-style="normal" fill="#000000" fill-opacity="1">Average per-element processing time over input size (bands: min, mean, mean + 2stddev)</text>
  <a xlink:href="https://github.com/apple/swift-collections-benchmark"><text x="1107" y="468.7" font-family="Helvetica" font-size="10" font-weight="normal" font-style="normal" fill="#000000" fill-opacity="1">swift-collections-benchmark</text></a>
  <path d="M 50 9 L 50 441" fill="none" stroke-width="0.75" stroke="#000000" stroke-opacity="0.49804" stroke-linecap="butt" stroke-linejoin="round"/>
  <text x="47" y="453.7" font-family="Helvetica" font-size="10" font-weight="normal" font-style="normal" fill="#000000" fill-opacity="1">1</text>
  <path d="M 109 9 L 109 441" fill="none" stroke-width="0.75" stroke="#000000" stroke-opacity="0.49804" stroke-linecap="butt" stroke-linejoin="round"/>
  <text x="106" y="453.7" font-family="Helvetica" font-size="10" font-weight="normal" font-style="normal" fill="#000000" fill-opacity="1">2</text>
  <path d="M 168 9 L 168 441" fill="none" stroke-width="0.75" stroke="#000000" stroke-opacity="0.49804" stroke-linecap="butt" stroke-linejoin="round"/>
  <text x="165" y="453.7" font-family="Helvetica" font-size="10" font-weight="normal" font-style="normal" fill="#000000" fill-opacity="1">4</text>
  <path d="M 227 9 L 227 441" fill="none" stroke-width="0.75" stroke="#000000" stroke-opacity="0.49804" stroke-linecap="butt" stroke-linejoin="round"/>
  <text x="224" y="453.7" font-family="Helvetica" font-size="10" font-weight="normal" font-style="normal" fill="#000000" fill-opacity="1">8</text>
  <path d="M 286 9 L 286 441" fill="none" stroke-width="0.75" stroke="#000000" stroke-opacity="0.49804" stroke-linecap="butt" stroke-linejoin="round"/>
  <text x="280" y="453.7" font-family="Helvetica" font-size="10" font-weight="normal" font-style="normal" fill="#000000" fill-opacity="1">16</text>
  <path d="M 345 9 L 345 441" fill="none" stroke-width="0.75" stroke="#000000" stroke-opacity="0.49804" stroke-linecap="butt" stroke-linejoin="round"/>
  <text x="339" y="453.7" font-family="Helvetica" font-size="10" font-weight="normal" font-style="normal" fill="#000000" fill-opacity="1">32</text>
  <path d="M 404 9 L 404 441" fill="none" stroke-width="0.75" stroke="#000000" stroke-opacity="0.49804" stroke-linecap="butt" stroke-linejoin="round"/>
  <text x="398" y="453.7" font-family="Helvetica" font-size="10" font-weight="normal" font-style="normal" fill="#000000" fill-opacity="1">64</text>
  <path d="M 463 9 L 463 441" fill="none" stroke-width="0.75" stroke="#000000" stroke-opacity="0.49804" stroke-linecap="butt" stroke-linejoin="round"/>
  <text x="454.5" y="453.7" font-family="Helvetica" font-size="10" font-weight="normal" font-style="normal" fill="#000000" fill-opacity="1">128</text>
  <path d="M 522 9 L 522 441" fill="none" stroke-width="0.75" stroke="#000000" stroke-opacity="0.49804" stroke-linecap="butt" stroke-linejoin="round"/>
  <text x="513.5" y="453.7" font-family="Helvetica" font-size="10" font-weight="normal" font-style="normal" fill="#000000" fill-opacity="1">256</text>
  <path d="M 581 9 L 581 441" fill="none" stroke-width="0.75" stroke="#000000" stroke-opacity="0.49804" stroke-linecap="butt" stroke-linejoin="round"/>
  <text x="572.5" y="453.7" font-family="Helvetica" font-size="10" font-weight="normal" font-style="normal" fill="#000000" fill-opacity="1">512</text>
  <path d="M 640 9 L 640 441" fill="none" stroke-width="0.75" stroke="#000000" stroke-opacity="0.49804" stroke-linecap="butt" stroke-linejoin="round"/>
  <text x="634.5" y="453.7" font-family="Helvetica" font-size="10" font-weight="normal" font-style="normal" fill="#000000" fill-opacity="1">1k</text>
  <path d="M 699 9 L 699 441" fill="none" stroke-width="0.75" stroke="#000000" stroke-opacity="0.49804" stroke-linecap="butt" stroke-linejoin="round"/>
  <text x="693.5" y="453.7" font-family="Helvetica" font-size="10" font-weight="normal" font-style="normal" fill="#000000" fill-opacity="1">2k</text>
  <path d="M 758 9 L 758 441" fill="none" stroke-width="0.75" stroke="#000000" stroke-opacity="0.49804" stroke-linecap="butt" stroke-linejoin="round"/>
  <text x="752.5" y="453.7" font-family="Helvetica" font-size="10" font-weight="normal" font-style="normal" fill="#000000" fill-opacity="1">4k</text>
  <path d="M 817 9 L 817 441" fill="none" stroke-width="0.75" stroke="#000000" stroke-opacity="0.49804" stroke-linecap="butt" stroke-linejoin="round"/>
  <text x="811.5" y="453.7" font-family="Helvetica" font-size="10" font-weight="normal" font-style="normal" fill="#000000" fill-opacity="1">8k</text>
  <path d="M 876 9 L 876 441" fill="none" stroke-width="0.75" stroke="#000000" stroke-opacity="0.49804" stroke-linecap="butt" stroke-linejoin="round"/>
  <text x="867.5" y="453.7" font-family="Helvetica" font-size="10" font-weight="normal" font-style="normal" fill="#000000" fill-opacity="1">16k</text>
  <path d="M 935 9 L 935 441" fill="none" stroke-width="0.75" stroke="#000000" stroke-opacity="0.49804" stroke-linecap="butt" stroke-linejoin="round"/>
  <text x="926.5" y="453.7" font-family="Helvetica" font-size="10" font-weight="normal" font-style="normal" fill="#000000" fill-opacity="1">32k</text>
  <path d="M 994 9 L 994 441" fill="none" stroke-width="0.75" stroke="#000000" stroke-opacity="0.49804" stroke-linecap="butt" stroke-linejoin="round"/>
  <text x="985.5" y="453.7" font-family="Helvetica" font-size="10" font-weight="normal" font-style="normal" fill="#000000" fill-opacity="1">64k</text>
  <path d="M 1053 9 L 1053 441" fill="none" stroke-width="0.75" stroke="#000000" stroke-opacity="0.49804" stroke-linecap="butt" stroke-linejoin="round"/>
  <text x="1042" y="453.7" font-family="Helvetica" font-size="10" font-weight="normal" font-style="normal" fill="#000000" fill-opacity="1">128k</text>
  <path d="M 1112 9 L 1112 441" fill="none" stroke-width="0.75" stroke="#000000" stroke-opacity="0.49804" stroke-linecap="butt" stroke-linejoin="round"/>
  <text x="1101" y="453.7" font-family="Helvetica" font-size="10" font-weight="normal" font-style="normal" fill="#000000" fill-opacity="1">256k</text>
  <path d="M 1171 9 L 1171 441" fill="none" stroke-width="0.75" stroke="#000000" stroke-opacity="0.49804" stroke-linecap="butt" stroke-linejoin="round"/>
  <text x="1160" y="453.7" font-family="Helvetica" font-size="10" font-weight="normal" font-style="normal" fill="#000000" fill-opacity="1">512k</text>
  <path d="M 1230 9 L 1230 441" fill="none" stroke-width="0.75" stroke="#000000" stroke-opacity="0.49804" stroke-linecap="butt" stroke-linejoin="round"/>
  <text x="1223" y="453.7" font-family="Helvetica" font-size="10" font-weight="normal" font-style="normal" fill="#000000" fill-opacity="1">1M</text>
  <path d="M 50 441 L 1230 441" fill="none" stroke-width="0.75" stroke="#000000" stroke-opacity="0.49804" stroke-linecap="butt" stroke-linejoin="round"/>
  <text x="16" y="442.7" font-family="Helvetica" font-size="10" font-weight="normal" font-style="normal" fill="#000000" fill-opacity="1">100 ps</text>
  <text x="1236" y="442.7" font-family="Helvetica" font-size="10" font-weight="normal" font-style="normal" fill="#000000" fill-opacity="1">100 ps</text>
  <path d="M 50 333 L 1230 333" fill="none" stroke-width="0.75" stroke="#000000" stroke-opacity="0.49804" stroke-linecap="butt" stroke-linejoin="round"/>
  <text x="27" y="334.7" font-family="Helvetica" font-size="10" font-weight="normal" font-style="normal" fill="#000000" fill-opacity="1">1 ns</text>
  <text x="1236" y="334.7" font-family="Helvetica" font-size="10" font-weight="normal" font-style="normal" fill="#000000" fill-opacity="1">1 ns</text>
  <path d="M 50 225 L 1230 225" fill="none" stroke-width="0.75" stroke="#000000" stroke-opacity="0.49804" stroke-linecap="butt" stroke-linejoin="round"/>
  <text x="21" y="226.7" font-family="Helvetica" font-size="10" font-weight="normal" font-style="normal" fill="#000000" fill-opacity="1">10 ns</text>
  <text x="1236" y="226.7" font-family="Helvetica" font-size="10" font-weight="normal" font-style="normal" fill="#000000" fill-opacity="1">10 ns</text>
  <path d="M 50 117 L 1230 117" fill="none" stroke-width="0.75" stroke="#000000" stroke-opacity="0.49804" stroke-linecap="butt" stroke-linejoin="round"/>
  <text x="16" y="118.7" font-family="Helvetica" font-size="10" font-weight="normal" font-style="normal" fill="#000000" fill-opacity="1">100 ns</text>
  <text x="1236" y="118.7" font-family="Helvetica" font-size="10" font-weight="normal" font-style="normal" fill="#000000" fill-opacity="1">100 ns</text>
  <path d="M 50 9 L 1230 9" fill="none" stroke-width="0.75" stroke="#000000" stroke-opacity="0.49804" stroke-linecap="butt" stroke-linejoin="round"/>
  <text x="26" y="10.7" font-family="Helvetica" font-size="10" font-weight="normal" font-style="normal" fill="#000000" fill-opacity="1">1 µs</text>
  <text x="1236" y="10.7" font-family="Helvetica" font-size="10" font-weight="normal" font-style="normal" fill="#000000" fill-opacity="1">1 µs</text>
  <path d="M 50 408.49 L 1230 408.49" fill="none" stroke-width="0.5" stroke="#000000" stroke-opacity="0.25882" stroke-linecap="butt" stroke-linejoin="round" stroke-dasharray="6 3" stroke-dashoffset="0"/>
  <path d="M 50 375.98 L 1230 375.98" fill="none" stroke-width="0.5" stroke="#000000" stroke-opacity="0.25882" stroke-linecap="butt" stroke-linejoin="round" stroke-dasharray="6 3" stroke-dashoffset="0"/>
  <path d="M 50 343.47 L 1230 343.47" fill="none" stroke-width="0.5" stroke="#000000" stroke-opacity="0.25882" stroke-linecap="butt" stroke-linejoin="round" stroke-dasharray="6 3" stroke-dashoffset="0"/>
  <path d="M 50 310.96 L 1230 310.96" fill="none" stroke-width="0.5" stroke="#000000" stroke-opacity="0.25882" stroke-linecap="butt" stroke-linejoin="round" stroke-dasharray="6 3" stroke-dashoffset="0"/>
  <path d="M 50 278.44 L 1230 278.44" fill="none" stroke-width="0.5" stroke="#000000" stroke-opacity="0.25882" stroke-linecap="butt" stroke-linejoin="round" stroke-dasharray="6 3" stroke-dashoffset="0"/>
  <path d="M 50 245.93 L 1230 245.93" fill="none" stroke-width="0.5" stroke="#000000" stroke-opacity="0.25882" stroke-linecap="butt" stroke-linejoin="round" stroke-dasharray="6 3" stroke-dashoffset="0"/>
  <path d="M 50 213.42 L 1230 213.42" fill="none" stroke-width="0.5" stroke="#000000" stroke-opacity="0.25882" stroke-linecap="butt" stroke-linejoin="round" stroke-dasharray="6 3" stroke-dashoffset="0"/>
  <path d="M 50 180.91 L 1230 180.91" fill="none" stroke-width="0.5" stroke="#000000" stroke-opacity="0.25882" stroke-linecap="butt" stroke-linejoin="round" stroke-dasharray="6 3" stroke-dashoffset="0"/>
  <path d="M 50 148.4 L 1230 148.4" fill="none" stroke-width="0.5" stroke="#000000" stroke-opacity="0.25882" stroke-linecap="butt" stroke-linejoin="round" stroke-dasharray="6 3" stroke-dashoffset="0"/>
  <path d="M 50 115.89 L 1230 115.89" fill="none" stroke-width="0.5" stroke="#000000" stroke-opacity="0.25882" stroke-linecap="butt" stroke-linejoin="round" stroke-dasharray="6 3" stroke-dashoffset="0"/>
  <path d="M 50 83.376 L 1230 83.376" fill="none" stroke-width="0.5" stroke="#000000" stroke-opacity="0.25882" stroke-linecap="butt" stroke-linejoin="round" stroke-dasharray="6 3" stroke-dashoffset="0"/>
  <path d="M 50 50.865 L 1230 50.865" fill="none" stroke-width="0.5" stroke="#000000" stroke-opacity="0.25882" stroke-linecap="butt" stroke-linejoin="round" stroke-dasharray="6 3" stroke-dashoffset="0"/>
  <path d="M 50 18.354 L 1230 18.354" fill="none" stroke-width="0.5" stroke="#000000" stroke-opacity="0.25882" stroke-linecap="butt" stroke-linejoin="round" stroke-dasharray="6 3" stroke-dashoffset="0"/>
  <path d="M 74 33 L 74 88 L 428 88 L 428 33 z" fill="#FFFFFF" fill-opacity="1.0" stroke="none"/>
  <clipPath id="clip-0">
    <path d="M 50 9 L 50 441 L 1230 441 L 1230 9 z"/>
  </clipPath>
  <g clip-path="url(#clip-0)">
    <path d="M 50 157.69L 109 190.2L 143.51 210.35L 168 222.71L 186.99 233.18L 202.51 209.78L 215.63 217.01L 227 223.27L 245.99 233.74L 261.51 223.09L 274.63 217.01L 286 212.69L 304.99 207.25L 320.51 204.07L 333.63 211.3L 345 204.07L 363.99 207.25L 379.51 204.07L 392.63 204.07L 404 198.54L 422.99 196.82L 438.51 188.67L 451.63 196.85L 463 185.05L 481.99 187.73L 497.51 179.34L 510.63 177.82L 522 158.99L 540.99 139.34L 556.51 141.81L 569.63 136.07L 581 139.72L 599.99 130.41L 615.51 129.8L 628.63 128.19L 640 128.41L 658.99 127.21L 674.51 126.73L 687.63 127.79L 699 124.32L 717.99 125.22L 733.51 124.4L 746.63 124.47L 758 123.09L 776.99 123.47L 792.51 122.19L 805.63 121.08L 817 121.9L 835.99 120.56L 851.51 119.88L 864.63 119.78L 876 119.49L 894.99 118.89L 910.51 118.16L 923.63 117.88L 935 115.54L 953.99 116.86L 969.51 115.99L 969.51 115.99L 953.99 116.86L 935 115.54L 923.63 117.88L 910.51 118.16L 894.99 118.89L 876 119.49L 864.63 119.78L 851.51 119.88L 835.99 120.56L 817 121.9L 805.63 121.08L 792.51 122.19L 776.99 123.47L 758 123.09L 746.63 124.47L 733.51 124.4L 717.99 125.22L 699 124.32L 687.63 127.79L 674.51 126.73L 658.99 127.21L 640 128.41L 628.63 128.19L 615.51 129.8L 599.99 130.41L 581 139.72L 569.63 136.07L 556.51 141.81L 540.99 139.34L 522 158.99L 510.63 177.82L 497.51 179.34L 481.99 187.73L 463 185.05L 451.63 196.85L 438.51 188.67L 422.99 196.82L 404 198.54L 392.63 204.07L 379.51 204.07L 363.99 207.25L 345 204.07L 333.63 211.3L 320.51 204.07L 304.99 207.25L 286 212.69L 274.63 217.01L 261.51 223.09L 245.99 233.74L 227 223.27L 215.63 217.01L 202.51 209.78L 186.99 233.18L 168 222.71L 143.51 210.35L 109 190.2L 50 157.69" fill="#007AFF" fill-opacity="0.30196078431372547" stroke="none"/>
    <path d="M 50 157.69L 109 189.19L 143.51 208.21L 168 221.7L 186.99 233.18L 202.51 240.72L 215.63 248.96L 227 254.21L 245.99 264.68L 261.51 274.24L 274.63 281.47L 286 286.72L 304.99 297.19L 320.51 305.74L 333.63 312.97L 345 319.24L 363.99 330.71L 379.51 338.25L 392.63 346.49L 404 351.75L 422.99 331.27L 438.51 308.05L 451.63 346.49L 463 321.55L 481.99 321.72L 497.51 339.82L 510.63 336.48L 522 326.99L 540.99 326.01L 556.51 329.54L 569.63 328.19L 581 323.99L 599.99 328.44L 615.51 325.1L 628.63 322.77L 640 332.14L 658.99 317.95L 674.51 327.05L 687.63 329.86L 699 327.08L 717.99 330.55L 733.51 329.36L 746.63 334.16L 758 328.42L 776.99 332.65L 792.51 325.06L 805.63 316.73L 817 314.53L 835.99 287.78L 851.51 281.01L 864.63 275.35L 876 296.25L 894.99 280.66L 910.51 284.49L 923.63 282.7L 935 286.84L 953.99 281.33L 969.51 284.14L 982.63 280.95L 994 281.09L 1013 282.26L 1028.5 281.16L 1041.6 277.04L 1053 280.94L 1072 280.86L 1087.5 279.73L 1100.6 279.73L 1112 276.75L 1131 278.11L 1146.5 278.83L 1159.6 278.29L 1171 278.22L 1190 277.92L 1205.5 279.19L 1218.6 278.71L 1230 279.09L 1230 279.16L 1218.6 279.33L 1205.5 279.32L 1190 278.99L 1171 279.26L 1159.6 279.44L 1146.5 279.86L 1131 279.62L 1112 280.32L 1100.6 280.44L 1087.5 280.66L 1072 281.57L 1053 281.88L 1041.6 282.07L 1028.5 282.69L 1013 283.07L 994 284.07L 982.63 282.84L 969.51 285.03L 953.99 285.85L 935 287.22L 923.63 287.69L 910.51 287.56L 894.99 291.53L 876 297.62L 864.63 300.36L 851.51 302.26L 835.99 304.32L 817 316.42L 805.63 324.32L 792.51 327.16L 776.99 334.11L 758 334.6L 746.63 335.25L 733.51 334.11L 717.99 334.91L 699 332.18L 687.63 329.86L 674.51 331.59L 658.99 339.05L 640 332.23L 628.63 334.11L 615.51 334.11L 599.99 334.11L 581 330.33L 569.63 336.48L 556.51 339.68L 540.99 337.46L 522 326.99L 510.63 336.48L 497.51 339.82L 481.99 344.58L 463 353.32L 451.63 346.49L 438.51 339.82L 422.99 331.27L 404 353.89L 392.63 346.49L 379.51 340.39L 363.99 330.71L 345 321.38L 333.63 315.11L 320.51 307.88L 304.99 299.33L 286 288.86L 274.63 281.47L 261.51 274.24L 245.99 266.82L 227 256.35L 215.63 248.96L 202.51 242.86L 186.99 233.18L 168 223.84L 143.51 210.35L 109 191.33L 50 157.69" fill="#FF3B30" fill-opacity="0.30196078431372547" stroke="none"/>
    <path d="M 50 157.69L 109 190.2L 143.51 210.35L 168 222.71L 186.99 233.18L 202.51 209.78L 215.63 217.01L 227 223.27L 245.99 233.74L 261.51 223.09L 274.63 217.01L 286 212.69L 304.99 207.25L 320.51 204.07L 333.63 211.3L 345 204.07L 363.99 207.25L 379.51 204.07L 392.63 204.07L 404 198.54L 422.99 196.82L 438.51 188.67L 451.63 196.85L 463 185.05L 481.99 187.73L 497.51 179.34L 510.63 177.82L 522 158.99L 540.99 139.34L 556.51 141.81L 569.63 136.07L 581 139.72L 599.99 130.41L 615.51 129.8L 628.63 128.19L 640 128.41L 658.99 127.21L 674.51 126.73L 687.63 127.79L 699 124.32L 717.99 125.22L 733.51 124.4L 746.63 124.47L 758 123.09L 776.99 123.47L 792.51 122.19L 805.63 121.08L 817 121.9L 835.99 120.56L 851.51 119.88L 864.63 119.78L 876 119.49L 894.99 118.89L 910.51 118.16L 923.63 117.88L 935 115.54L 953.99 116.86L 969.51 115.99" fill="none" stroke-width="4" stroke="#007AFF" stroke-opacity="1" stroke-linecap="round" stroke-linejoin="round"/>
    <path d="M 50 157.69L 109 190.76L 143.51 209.78L 168 223.27L 186.99 233.18L 202.51 242.29L 215.63 248.96L 227 255.78L 245.99 266.25L 261.51 274.24L 274.63 281.47L 286 288.3L 304.99 298.76L 320.51 307.31L 333.63 314.54L 345 320.81L 363.99 330.71L 379.51 339.82L 392.63 346.49L 404 353.32L 422.99 331.27L 438.51 329.25L 451.63 346.49L 463 342.74L 481.99 337.46L 497.51 339.82L 510.63 336.48L 522 326.99L 540.99 334.19L 556.51 336.82L 569.63 334.17L 581 328.59L 599.99 332.56L 615.51 331.59L 628.63 330.88L 640 332.21L 658.99 332.56L 674.51 330.36L 687.63 329.86L 699 330.8L 717.99 333.73L 733.51 332.82L 746.63 334.96L 758 332.9L 776.99 333.72L 792.51 326.6L 805.63 322.22L 817 315.92L 835.99 299.41L 851.51 295.72L 864.63 292.44L 876 297.26L 894.99 288.44L 910.51 286.74L 923.63 286.34L 935 287.12L 953.99 284.63L 969.51 284.8L 982.63 282.34L 994 283.28L 1013 282.86L 1028.5 282.29L 1041.6 280.7L 1053 281.63L 1072 281.38L 1087.5 280.41L 1100.6 280.25L 1112 279.36L 1131 279.22L 1146.5 279.59L 1159.6 279.14L 1171 278.99L 1190 278.71L 1205.5 279.29L 1218.6 279.17L 1230 279.14" fill="none" stroke-width="4" stroke="#FF3B30" stroke-opacity="1" stroke-linecap="round" stroke-linejoin="round"/>
    <path d="M 50 157.69L 109 190.2L 143.51 210.35L 168 222.71L 186.99 233.18L 202.51 209.78L 215.63 217.01L 227 223.27L 245.99 233.74L 261.51 223.09L 274.63 217.01L 286 212.69L 304.99 207.25L 320.51 204.07L 333.63 211.3L 345 204.07L 363.99 207.25L 379.51 204.07L 392.63 204.07L 404 198.54L 422.99 196.82L 438.51 188.67L 451.63 196.85L 463 185.05L 481.99 187.73L 497.51 179.34L 510.63 177.82L 522 158.99L 540.99 139.34L 556.51 141.81L 569.63 136.07L 581 139.72L 599.99 130.41L 615.51 129.8L 628.63 128.19L 640 128.41L 658.99 127.21L 674.51 126.73L 687.63 127.79L 699 124.32L 717.99 125.22L 733.51 124.4L 746.63 124.47L 758 123.09L 776.99 123.47L 792.51 122.19L 805.63 121.08L 817 121.9L 835.99 120.56L 851.51 119.88L 864.63 119.78L 876 119.49L 894.99 118.89L 910.51 118.16L 923.63 117.88L 935 115.54L 953.99 116.86L 969.51 115.99" fill="none" stroke-width="0.5" stroke="#000000" stroke-opacity="0.30196" stroke-linecap="round" stroke-linejoin="round"/>
    <path d="M 50 157.69L 109 190.76L 143.51 209.78L 168 223.27L 186.99 233.18L 202.51 242.29L 215.63 248.96L 227 255.78L 245.99 266.25L 261.51 274.24L 274.63 281.47L 286 288.3L 304.99 298.76L 320.51 307.31L 333.63 314.54L 345 320.81L 363.99 330.71L 379.51 339.82L 392.63 346.49L 404 353.32L 422.99 331.27L 438.51 329.25L 451.63 346.49L 463 342.74L 481.99 337.46L 497.51 339.82L 510.63 336.48L 522 326.99L 540.99 334.19L 556.51 336.82L 569.63 334.17L 581 328.59L 599.99 332.56L 615.51 331.59L 628.63 330.88L 640 332.21L 658.99 332.56L 674.51 330.36L 687.63 329.86L 699 330.8L 717.99 333.73L 733.51 332.82L 746.63 334.96L 758 332.9L 776.99 333.72L 792.51 326.6L 805.63 322.22L 817 315.92L 835.99 299.41L 851.51 295.72L 864.63 292.44L 876 297.26L 894.99 288.44L 910.51 286.74L 923.63 286.34L 935 287.12L 953.99 284.63L 969.51 284.8L 982.63 282.34L 994 283.28L 1013 282.86L 1028.5 282.29L 1041.6 280.7L 1053 281.63L 1072 281.38L 1087.5 280.41L 1100.6 280.25L 1112 279.36L 1131 279.22L 1146.5 279.59L 1159.6 279.14L 1171 278.99L 1190 278.71L 1205.5 279.29L 1218.6 279.17L 1230 279.14" fill="none" stroke-width="0.5" stroke="#000000" stroke-opacity="0.30196" stroke-linecap="round" stroke-linejoin="round"/>
  </g>
  <path d="M 74 33 L 74 88 L 428 88 L 428 33 z" fill="#FFFFFF" fill-opacity="0.7019607843137254" stroke-width="0.5" stroke="#000000" stroke-opacity="1" stroke-linecap="round" stroke-linejoin="round"/>
  <path d="M 88 52 L 108 52" fill="none" stroke-width="4" stroke="#FF3B30" stroke-opacity="1" stroke-linecap="round" stroke-linejoin="round"/>
  <path d="M 88 52 L 108 52" fill="none" stroke-width="0.5" stroke="#000000" stroke-opacity="0.30196" stroke-linecap="round" stroke-linejoin="round"/>
  <text x="119" y="56.17" font-family="Menlo" font-size="12" font-weight="normal" font-style="normal" fill="#000000" fill-opacity="1">Array&lt;Int&gt; partitioning around middle</text>
  <path d="M 88 69 L 108 69" fill="none" stroke-width="4" stroke="#007AFF" stroke-opacity="1" stroke-linecap="round" stroke-linejoin="round"/>
  <path d="M 88 69 L 108 69" fill="none" stroke-width="0.5" stroke="#000000" stroke-opacity="0.30196" stroke-linecap="round" stroke-linejoin="round"/>
  <text x="119" y="73.17" font-family="Menlo" font-size="12" font-weight="normal" font-style="normal" fill="#000000" fill-opacity="1">TreeArray&lt;Int&gt; partitioning around middle</text>
  <path d="M 50 9 L 50 441 L 1230 441 L 1230 9 z" fill="none" stroke-width="0.5" stroke="#000000" stroke-opacity="1" stroke-linecap="round" stroke-linejoin="round"/>
</svg>
