<!DOCTYPE svg PUBLIC "-//W3C//DTD SVG 1.1//EN" "http://www.w3.org/Graphics/SVG/1.1/DTD/svg11.dtd">
<svg width="1280.0px" height="480.0px" viewBox="0.0 0.0 1280.0 480.0" xmlns="http://www.w3.org/2000/svg" xmlns:xlink="http://www.w3.org/1999/xlink" version="1.1">
  <path d="M 0 0 L 0 480 L 1280 480 L 1280 0 z" fill="#FFFFFF" fill-opacity="1.0" stroke="none"/>
  <text x="50" y="468.7" font-family="Helvetica" font-size="10" font-weight="normal" font-style="normal" fill="#000000" fill-opacity="1">Average per-element processing time over input size (bands: min, mean, mean + 2stddev)</text>
  <a xlink:href="https://github.com/apple/swift-collections-benchmark"><text x="1107" y="468.7" font-family="Helvetica" font-size="10" font-weight="normal" font-style="normal" fill="#000000" fill-opacity="1">swift-collections-benchmark</text></a>
  <path d="M 50 9 L 50 441" fill="none" stroke-width="0.75" stroke="#000000" stroke-opacity="0.49804" stroke-linecap="butt" stroke-linejoin="round"/>
  <text x="47" y="453.7" font-family="Helvetica" font-size="10" font-weight="normal" font-style="normal" fill="#000000" fill-opacity="1">1</text>
  <path d="M 109 9 L 109 441" fill="none" stroke-width="0.75" stroke="#000000" stroke-opacity="0.49804" stroke-linecap="butt" stroke-linejoin="round"/>
  <text x="106" y="453.7" font-family="Helvetica" font-size="10" font-weight="normal" font-style="normal" fill="#000000" fill-opacity="1">2</text>
  <path d="M 168 9 L 168 441" fill="none" stroke-width="0.75" stroke="#000000" stroke-opacity="0.49804" stroke-linecap="butt" stroke-linejoin="round"/>
  <text x="165" y="453.7" font-family="Helvetica" font-size="10" font-weight="normal" font-style="normal" fill="#000000" fill-opacity="1">4</text>
  <path d="M 227 9 L 227 441" fill="none" stroke-width="0.75" stroke="#000000" stroke-opacity="0.49804" stroke-linecap="butt" stroke-linejoin="round"/>
  <text x="224" y="453.7" font-family="Helvetica" font-size="10" font-weight="normal" font-style="normal" fill="#000000" fill-opacity="1">8</text>
  <path d="M 286 9 L 286 441" fill="none" stroke-width="0.75" stroke="#000000" stroke-opacity="0.49804" stroke-linecap="butt" stroke-linejoin="round"/>
  <text x="280" y="453.7" font-family="Helvetica" font-size="10" font-weight="normal" font-style="normal" fill="#000000" fill-opacity="1">16</text>
  <path d="M 345 9 L 345 441" fill="none" stroke-width="0.75" stroke="#000000" stroke-opacity="0.49804" stroke-linecap="butt" stroke-linejoin="round"/>
  <text x="339" y="453.7" font-family="Helvetica" font-size="10" font-weight="normal" font-style="normal" fill="#000000" fill-opacity="1">32</text>
  <path d="M 404 9 L 404 441" fill="none" stroke-width="0.75" stroke="#000000" stroke-opacity="0.49804" stroke-linecap="butt" stroke-linejoin="round"/>
  <text x="398" y="453.7" font-family="Helvetica" font-size="10" font-weight="normal" font-style="normal" fill="#000000" fill-opacity="1">64</text>
  <path d="M 463 9 L 463 441" fill="none" stroke-width="0.75" stroke="#000000" stroke-opacity="0.49804" stroke-linecap="butt" stroke-linejoin="round"/>
  <text x="454.5" y="453.7" font-family="Helvetica" font-size="10" font-weight="normal" font-style="normal" fill="#000000" fill-opacity="1">128</text>
  <path d="M 522 9 L 522 441" fill="none" stroke-width="0.75" stroke="#000000" stroke-opacity="0.49804" stroke-linecap="butt" stroke-linejoin="round"/>
  <text x="513.5" y="453.7" font-family="Helvetica" font-size="10" font-weight="normal" font-style="normal" fill="#000000" fill-opacity="1">256</text>
  <path d="M 581 9 L 581 441" fill="none" stroke-width="0.75" stroke="#000000" stroke-opacity="0.49804" stroke-linecap="butt" stroke-linejoin="round"/>
  <text x="572.5" y="453.7" font-family="Helvetica" font-size="10" font-weight="normal" font-style="normal" fill="#000000" fill-opacity="1">512</text>
  <path d="M 640 9 L 640 441" fill="none" stroke-width="0.75" stroke="#000000" stroke-opacity="0.49804" stroke-linecap="butt" stroke-linejoin="round"/>
  <text x="634.5" y="453.7" font-family="Helvetica" font-size="10" font-weight="normal" font-style="normal" fill="#000000" fill-opacity="1">1k</text>
  <path d="M 699 9 L 699 441" fill="none" stroke-width="0.75" stroke="#000000" stroke-opacity="0.49804" stroke-linecap="butt" stroke-linejoin="round"/>
  <text x="693.5" y="453.7" font-family="Helvetica" font-size="10" font-weight="normal" font-style="normal" fill="#000000" fill-opacity="1">2k</text>
  <path d="M 758 9 L 758 441" fill="none" stroke-width="0.75" stroke="#000000" stroke-opacity="0.49804" stroke-linecap="butt" stroke-linejoin="round"/>
  <text x="752.5" y="453.7" font-family="Helvetica" font-size="10" font-weight="normal" font-style="normal" fill="#000000" fill-opacity="1">4k</text>
  <path d="M 817 9 L 817 441" fill="none" stroke-width="0.75" stroke="#000000" stroke-opacity="0.49804" stroke-linecap="butt" stroke-linejoin="round"/>
  <text x="811.5" y="453.7" font-family="Helvetica" font-size="10" font-weight="normal" font-style="normal" fill="#000000" fill-opacity="1">8k</text>
  <path d="M 876 9 L 876 441" fill="none" stroke-width="0.75" stroke="#000000" stroke-opacity="0.49804" stroke-linecap="butt" stroke-linejoin="round"/>
  <text x="867.5" y="453.7" font-family="Helvetica" font-size="10" font-weight="normal" font-style="normal" fill="#000000" fill-opacity="1">16k</text>
  <path d="M 935 9 L 935 441" fill="none" stroke-width="0.75" stroke="#000000" stroke-opacity="0.49804" stroke-linecap="butt" stroke-linejoin="round"/>
  <text x="926.5" y="453.7" font-family="Helvetica" font-size="10" font-weight="normal" font-style="normal" fill="#000000" fill-opacity="1">32k</text>
  <path d="M 994 9 L 994 441" fill="none" stroke-width="0.75" stroke="#000000" stroke-opacity="0.49804" stroke-linecap="butt" stroke-linejoin="round"/>
  <text x="985.5" y="453.7" font-family="Helvetica" font-size="10" font-weight="normal" font-style="normal" fill="#000000" fill-opacity="1">64k</text>
  <path d="M 1053 9 L 1053 441" fill="none" stroke-width="0.75" stroke="#000000" stroke-opacity="0.49804" stroke-linecap="butt" stroke-linejoin="round"/>
  <text x="1042" y="453.7" font-family="Helvetica" font-size="10" font-weight="normal" font-style="normal" fill="#000000" fill-opacity="1">128k</text>
  <path d="M 1112 9 L 1112 441" fill="none" stroke-width="0.75" stroke="#000000" stroke-opacity="0.49804" stroke-linecap="butt" stroke-linejoin="round"/>
  <text x="1101" y="453.7" font-family="Helvetica" font-size="10" font-weight="normal" font-style="normal" fill="#000000" fill-opacity="1">256k</text>
  <path d="M 1171 9 L 1171 441" fill="none" stroke-width="0.75" stroke="#000000" stroke-opacity="0.49804" stroke-linecap="butt" stroke-linejoin="round"/>
  <text x="1160" y="453.7" font-family="Helvetica" font-size="10" font-weight="normal" font-style="normal" fill="#000000" fill-opacity="1">512k</text>
  <path d="M 1230 9 L 1230 441" fill="none" stroke-width="0.75" stroke="#000000" stroke-opacity="0.49804" stroke-linecap="butt" stroke-linejoin="round"/>
  <text x="1223" y="453.7" font-family="Helvetica" font-size="10" font-weight="normal" font-style="normal" fill="#000000" fill-opacity="1">1M</text>
  <path d="M 50 441 L 1230 441" fill="none" stroke-width="0.75" stroke="#000000" stroke-opacity="0.49804" stroke-linecap="butt" stroke-linejoin="round"/>
  <text x="16" y="442.7" font-family="Helvetica" font-size="10" font-weight="normal" font-style="normal" fill="#000000" fill-opacity="1">100 ps</text>
  <text x="1236" y="442.7" font-family="Helvetica" font-size="10" font-weight="normal" font-style="normal" fill="#000000" fill-opacity="1">100 ps</text>
  <path d="M 50 333 L 1230 333" fill="none" stroke-width="0.75" stroke="#000000" stroke-opacity="0.49804" stroke-linecap="butt" stroke-linejoin="round"/>
  <text x="27" y="334.7" font-family="Helvetica" font-size="10" font-weight="normal" font-style="normal" fill="#000000" fill-opacity="1">1 ns</text>
  <text x="1236" y="334.7" font-family="Helvetica" font-size="10" font-weight="normal" font-style="normal" fill="#000000" fill-opacity="1">1 ns</text>
  <path d="M 50 225 L 1230 225" fill="none" stroke-width="0.75" stroke="#000000" stroke-opacity="0.49804" stroke-linecap="butt" stroke-linejoin="round"/>
  <text x="21" y="226.7" font-family="Helvetica" font-size="10" font-weight="normal" font-style="normal" fill="#000000" fill-opacity="1">10 ns</text>
  <text x="1236" y="226.7" font-family="Helvetica" font-size="10" font-weight="normal" font-style="normal" fill="#000000" fill-opacity="1">10 ns</text>
  <path d="M 50 117 L 1230 117" fill="none" stroke-width="0.75" stroke="#000000" stroke-opacity="0.49804" stroke-linecap="butt" stroke-linejoin="round"/>
  <text x="16" y="118.7" font-family="Helvetica" font-size="10" font-weight="normal" font-style="normal" fill="#000000" fill-opacity="1">100 ns</text>
  <text x="1236" y="118.7" font-family="Helvetica" font-size="10" font-weight="normal" font-style="normal" fill="#000000" fill-opacity="1">100 ns</text>
  <path d="M 50 9 L 1230 9" fill="none" stroke-width="0.75" stroke="#000000" stroke-opacity="0.49804" stroke-linecap="butt" stroke-linejoin="round"/>
  <text x="26" y="10.7" font-family="Helvetica" font-size="10" font-weight="normal" font-style="normal" fill="#000000" fill-opacity="1">1 µs</text>
  <text x="1236" y="10.7" font-family="Helvetica" font-size="10" font-weight="normal" font-style="normal" fill="#000000" fill-opacity="1">1 µs</text>
  <path d="M 50 408.49 L 1230 408.49" fill="none" stroke-width="0.5" stroke="#000000" stroke-opacity="0.25882" stroke-linecap="butt" stroke-linejoin="round" stroke-dasharray="6 3" stroke-dashoffset="0"/>
  <path d="M 50 375.98 L 1230 375.98" fill="none" stroke-width="0.5" stroke="#000000" stroke-opacity="0.25882" stroke-linecap="butt" stroke-linejoin="round" stroke-dasharray="6 3" stroke-dashoffset="0"/>
  <path d="M 50 343.47 L 1230 343.47" fill="none" stroke-width="0.5" stroke="#000000" stroke-opacity="0.25882" stroke-linecap="butt" stroke-linejoin="round" stroke-dasharray="6 3" stroke-dashoffset="0"/>
  <path d="M 50 310.96 L 1230 310.96" fill="none" stroke-width="0.5" stroke="#000000" stroke-opacity="0.25882" stroke-linecap="butt" stroke-linejoin="round" stroke-dasharray="6 3" stroke-dashoffset="0"/>
  <path d="M 50 278.44 L 1230 278.44" fill="none" stroke-width="0.5" stroke="#000000" stroke-opacity="0.25882" stroke-linecap="butt" stroke-linejoin="round" stroke-dasharray="6 3" stroke-dashoffset="0"/>
  <path d="M 50 245.93 L 1230 245.93" fill="none" stroke-width="0.5" stroke="#000000" stroke-opacity="0.25882" stroke-linecap="butt" stroke-linejoin="round" stroke-dasharray="6 3" stroke-dashoffset="0"/>
  <path d="M 50 213.42 L 1230 213.42" fill="none" stroke-width="0.5" stroke="#000000" stroke-opacity="0.25882" stroke-linecap="butt" stroke-linejoin="round" stroke-dasharray="6 3" stroke-dashoffset="0"/>
  <path d="M 50 180.91 L 1230 180.91" fill="none" stroke-width="0.5" stroke="#000000" stroke-opacity="0.25882" stroke-linecap="butt" stroke-linejoin="round" stroke-dasharray="6 3" stroke-dashoffset="0"/>
  <path d="M 50 148.4 L 1230 148.4" fill="none" stroke-width="0.5" stroke="#000000" stroke-opacity="0.25882" stroke-linecap="butt" stroke-linejoin="round" stroke-dasharray="6 3" stroke-dashoffset="0"/>
  <path d="M 50 115.89 L 1230 115.89" fill="none" stroke-width="0.5" stroke="#000000" stroke-opacity="0.25882" stroke-linecap="butt" stroke-linejoin="round" stroke-dasharray="6 3" stroke-dashoffset="0"/>
  <path d="M 50 83.376 L 1230 83.376" fill="none" stroke-width="0.5" stroke="#000000" stroke-opacity="0.25882" stroke-linecap="butt" stroke-linejoin="round" stroke-dasharray="6 3" stroke-dashoffset="0"/>
  <path d="M 50 50.865 L 1230 50.865" fill="none" stroke-width="0.5" stroke="#000000" stroke-opacity="0.25882" stroke-linecap="butt" stroke-linejoin="round" stroke-dasharray="6 3" stroke-dashoffset="0"/>
  <path d="M 50 18.354 L 1230 18.354" fill="none" stroke-width="0.5" stroke="#000000" stroke-opacity="0.25882" stroke-linecap="butt" stroke-linejoin="round" stroke-dasharray="6 3" stroke-dashoffset="0"/>
  <path d="M 74 33 L 74 88 L 428 88 L 428 33 z" fill="#FFFFFF" fill-opacity="1.0" stroke="none"/>
  <clipPath id="clip-0">
    <path d="M 50 9 L 50 441 L 1230 441 L 1230 9 z"/>
  </clipPath>
  <g clip-path="url(#clip-0)">
    <path d="M 50 158.82L 109 189.19L 143.51 208.21L 168 223.84L 186.99 234.31L 202.51 191.95L 215.63 199.53L 227 222.2L 245.99 215.91L 261.51 210.78L 274.63 207.02L 286 222.99L 304.99 222.73L 320.51 204.39L 333.63 198.39L 345 186.12L 363.99 210.75L 379.51 204.23L 392.63 202.29L 404 192.57L 422.99 204.07L 438.51 198.17L 451.63 198.91L 463 192.18L 481.99 170.96L 497.51 178.71L 510.63 169.14L 522 151.53L 540.99 148.86L 556.51 139.22L 569.63 138.28L 581 133.52L 599.99 132.65L 615.51 130.27L 628.63 129.72L 640 127.38L 658.99 127.78L 674.51 126.42L 687.63 127.11L 699 125.07L 717.99 124.02L 733.51 123.13L 746.63 124.58L 758 119.44L 776.99 119.93L 792.51 122L 805.63 121.26L 817 121.38L 835.99 120.81L 851.51 119.56L 864.63 118.66L 876 117.98L 894.99 118.89L 910.51 115.62L 923.63 117.51L 935 109.51L 953.99 117.09L 969.51 113.95L 982.63 116.02L 994 106.83L 1013 113.89L 1028.5 109.36L 1041.6 112.64L 1053 101.44L 1072 104.54L 1087.5 99.794L 1100.6 107.25L 1112 96.003L 1131 99.834L 1146.5 98.009L 1159.6 98.153L 1171 83.196L 1190 91.537L 1205.5 86.876L 1218.6 92.162L 1230 79.257L 1230 85.612L 1218.6 97.095L 1205.5 92.698L 1190 97.535L 1171 91.14L 1159.6 102.72L 1146.5 99.144L 1131 102.95L 1112 96.081L 1100.6 107.8L 1087.5 104.36L 1072 108.48L 1053 101.72L 1041.6 113.51L 1028.5 109.51L 1013 114.44L 994 107.22L 982.63 116.21L 969.51 115.22L 953.99 117.16L 935 112.09L 923.63 118.07L 910.51 117.92L 894.99 119.14L 876 118.4L 864.63 120.03L 851.51 120.08L 835.99 120.85L 817 122.01L 805.63 121.81L 792.51 122.64L 776.99 123.92L 758 123.57L 746.63 124.78L 733.51 125.35L 717.99 126.55L 699 127.64L 687.63 127.34L 674.51 128.71L 658.99 130.7L 640 131.42L 628.63 130L 615.51 133.27L 599.99 134.49L 581 134.67L 569.63 138.28L 556.51 149.69L 540.99 156.62L 522 158.06L 510.63 183.95L 497.51 192.06L 481.99 199.6L 463 195.2L 451.63 200.83L 438.51 202.77L 422.99 204.07L 404 206.08L 392.63 211.3L 379.51 209.57L 363.99 210.75L 345 223.13L 333.63 216.87L 320.51 215.8L 304.99 223.16L 286 222.99L 274.63 230.32L 261.51 241.73L 245.99 266.82L 227 223.27L 215.63 248.96L 202.51 242.86L 186.99 234.31L 168 223.84L 143.51 210.35L 109 191.33L 50 158.82" fill="#007AFF" fill-opacity="0.30196078431372547" stroke="none"/>
    <path d="M 50 157.69L 109 191.33L 143.51 208.21L 168 221.7L 186.99 232.17L 202.51 240.72L 215.63 250.09L 227 254.21L 245.99 265.69L 261.51 273.23L 274.63 281.47L 286 287.73L 304.99 298.2L 320.51 306.75L 333.63 313.98L 345 320.25L 363.99 330.71L 379.51 340.39L 392.63 347.62L 404 302.97L 422.99 363.22L 438.51 339.82L 451.63 347.06L 463 321.55L 481.99 344.58L 497.51 339.29L 510.63 328.7L 522 327.41L 540.99 331.5L 556.51 329.54L 569.63 321.22L 581 318.51L 599.99 323.49L 615.51 323.16L 628.63 312.37L 640 321.26L 658.99 323.49L 674.51 325.17L 687.63 332.01L 699 329.6L 717.99 327.88L 733.51 330L 746.63 332.61L 758 332.82L 776.99 329.12L 792.51 326.95L 805.63 319.05L 817 315.82L 835.99 304.34L 851.51 292.25L 864.63 280.74L 876 286.86L 894.99 292.36L 910.51 280.46L 923.63 285.59L 935 286.88L 953.99 282.75L 969.51 283.16L 982.63 281.32L 994 273.39L 1013 282.73L 1028.5 281.52L 1041.6 281.17L 1053 281.23L 1072 280.96L 1087.5 279.95L 1100.6 280.23L 1112 275.41L 1131 275.86L 1146.5 278.58L 1159.6 279.55L 1171 279.08L 1190 279.45L 1205.5 274.59L 1218.6 278.88L 1230 277.95L 1230 279.19L 1218.6 279.24L 1205.5 279.41L 1190 279.47L 1171 279.62L 1159.6 279.68L 1146.5 279.56L 1131 279.78L 1112 280.06L 1100.6 280.59L 1087.5 280.85L 1072 281.28L 1053 281.93L 1041.6 281.41L 1028.5 282.23L 1013 283.44L 994 283.38L 982.63 283.48L 969.51 285.03L 953.99 285.56L 935 287.74L 923.63 287.43L 910.51 289.41L 894.99 295.13L 876 297.23L 864.63 301.11L 851.51 305.95L 835.99 309.8L 817 317.43L 805.63 320.62L 792.51 328.59L 776.99 333.34L 758 336.62L 746.63 335.82L 733.51 336.11L 717.99 334.89L 699 333.16L 687.63 334.11L 674.51 336.78L 658.99 334.11L 640 338.18L 628.63 336.36L 615.51 336.82L 599.99 334.11L 581 338.23L 569.63 336.36L 556.51 339.68L 540.99 344.58L 522 342.74L 510.63 346.77L 497.51 339.82L 481.99 344.58L 463 353.32L 451.63 347.06L 438.51 339.82L 422.99 363.22L 404 353.89L 392.63 347.62L 379.51 340.39L 363.99 330.71L 345 320.25L 333.63 313.98L 320.51 306.75L 304.99 298.2L 286 287.73L 274.63 281.47L 261.51 275.37L 245.99 265.69L 227 256.35L 215.63 250.09L 202.51 242.86L 186.99 234.31L 168 223.84L 143.51 210.35L 109 191.33L 50 157.69" fill="#FF3B30" fill-opacity="0.30196078431372547" stroke="none"/>
    <path d="M 50 158.82L 109 190.76L 143.51 209.78L 168 223.84L 186.99 234.31L 202.51 223.46L 215.63 230.32L 227 222.99L 245.99 247.42L 261.51 231.49L 274.63 223.03L 286 222.99L 304.99 223.05L 320.51 212.54L 333.63 211.3L 345 210.33L 363.99 210.75L 379.51 208.11L 392.63 208.77L 404 202.16L 422.99 204.07L 438.51 201.53L 451.63 200.32L 463 194.4L 481.99 190.28L 497.51 188.19L 510.63 179.61L 522 156.26L 540.99 154.47L 556.51 146.73L 569.63 138.28L 581 134.37L 599.99 134L 615.51 132.46L 628.63 129.92L 640 130.33L 658.99 129.92L 674.51 128.1L 687.63 127.28L 699 126.95L 717.99 125.88L 733.51 124.76L 746.63 124.73L 758 122.46L 776.99 122.85L 792.51 122.47L 805.63 121.66L 817 121.85L 835.99 120.84L 851.51 119.95L 864.63 119.67L 876 118.29L 894.99 119.07L 910.51 117.31L 923.63 117.92L 935 111.41L 953.99 117.14L 969.51 114.89L 982.63 116.16L 994 107.12L 1013 114.29L 1028.5 109.47L 1041.6 113.28L 1053 101.64L 1072 107.42L 1087.5 103.12L 1100.6 107.65L 1112 96.06L 1131 102.12L 1146.5 98.845L 1159.6 101.49L 1171 88.931L 1190 95.893L 1205.5 91.106L 1218.6 95.756L 1230 83.867" fill="none" stroke-width="4" stroke="#007AFF" stroke-opacity="1" stroke-linecap="round" stroke-linejoin="round"/>
    <path d="M 50 157.69L 109 191.33L 143.51 209.78L 168 223.27L 186.99 233.74L 202.51 242.29L 215.63 250.09L 227 255.78L 245.99 265.69L 261.51 274.8L 274.63 281.47L 286 287.73L 304.99 298.2L 320.51 306.75L 333.63 313.98L 345 320.25L 363.99 330.71L 379.51 340.39L 392.63 347.62L 404 334.49L 422.99 363.22L 438.51 339.82L 451.63 347.06L 463 342.74L 481.99 344.58L 497.51 339.68L 510.63 341.34L 522 338.23L 540.99 340.8L 556.51 336.82L 569.63 331.91L 581 332.23L 599.99 331.1L 615.51 332.85L 628.63 328.82L 640 333.14L 658.99 331.1L 674.51 333.46L 687.63 333.55L 699 332.21L 717.99 332.95L 733.51 334.43L 746.63 334.96L 758 335.6L 776.99 332.2L 792.51 328.16L 805.63 320.2L 817 317.01L 835.99 308.31L 851.51 301.97L 864.63 294.88L 876 294.29L 894.99 294.39L 910.51 286.9L 923.63 286.94L 935 287.52L 953.99 284.81L 969.51 284.54L 982.63 282.9L 994 280.56L 1013 283.25L 1028.5 282.04L 1041.6 281.34L 1053 281.74L 1072 281.2L 1087.5 280.62L 1100.6 280.5L 1112 278.8L 1131 278.73L 1146.5 279.31L 1159.6 279.65L 1171 279.48L 1190 279.46L 1205.5 278.1L 1218.6 279.15L 1230 278.87" fill="none" stroke-width="4" stroke="#FF3B30" stroke-opacity="1" stroke-linecap="round" stroke-linejoin="round"/>
    <path d="M 50 158.82L 109 190.76L 143.51 209.78L 168 223.84L 186.99 234.31L 202.51 223.46L 215.63 230.32L 227 222.99L 245.99 247.42L 261.51 231.49L 274.63 223.03L 286 222.99L 304.99 223.05L 320.51 212.54L 333.63 211.3L 345 210.33L 363.99 210.75L 379.51 208.11L 392.63 208.77L 404 202.16L 422.99 204.07L 438.51 201.53L 451.63 200.32L 463 194.4L 481.99 190.28L 497.51 188.19L 510.63 179.61L 522 156.26L 540.99 154.47L 556.51 146.73L 569.63 138.28L 581 134.37L 599.99 134L 615.51 132.46L 628.63 129.92L 640 130.33L 658.99 129.92L 674.51 128.1L 687.63 127.28L 699 126.95L 717.99 125.88L 733.51 124.76L 746.63 124.73L 758 122.46L 776.99 122.85L 792.51 122.47L 805.63 121.66L 817 121.85L 835.99 120.84L 851.51 119.95L 864.63 119.67L 876 118.29L 894.99 119.07L 910.51 117.31L 923.63 117.92L 935 111.41L 953.99 117.14L 969.51 114.89L 982.63 116.16L 994 107.12L 1013 114.29L 1028.5 109.47L 1041.6 113.28L 1053 101.64L 1072 107.42L 1087.5 103.12L 1100.6 107.65L 1112 96.06L 1131 102.12L 1146.5 98.845L 1159.6 101.49L 1171 88.931L 1190 95.893L 1205.5 91.106L 1218.6 95.756L 1230 83.867" fill="none" stroke-width="0.5" stroke="#000000" stroke-opacity="0.30196" stroke-linecap="round" stroke-linejoin="round"/>
    <path d="M 50 157.69L 109 191.33L 143.51 209.78L 168 223.27L 186.99 233.74L 202.51 242.29L 215.63 250.09L 227 255.78L 245.99 265.69L 261.51 274.8L 274.63 281.47L 286 287.73L 304.99 298.2L 320.51 306.75L 333.63 313.98L 345 320.25L 363.99 330.71L 379.51 340.39L 392.63 347.62L 404 334.49L 422.99 363.22L 438.51 339.82L 451.63 347.06L 463 342.74L 481.99 344.58L 497.51 339.68L 510.63 341.34L 522 338.23L 540.99 340.8L 556.51 336.82L 569.63 331.91L 581 332.23L 599.99 331.1L 615.51 332.85L 628.63 328.82L 640 333.14L 658.99 331.1L 674.51 333.46L 687.63 333.55L 699 332.21L 717.99 332.95L 733.51 334.43L 746.63 334.96L 758 335.6L 776.99 332.2L 792.51 328.16L 805.63 320.2L 817 317.01L 835.99 308.31L 851.51 301.97L 864.63 294.88L 876 294.29L 894.99 294.39L 910.51 286.9L 923.63 286.94L 935 287.52L 953.99 284.81L 969.51 284.54L 982.63 282.9L 994 280.56L 1013 283.25L 1028.5 282.04L 1041.6 281.34L 1053 281.74L 1072 281.2L 1087.5 280.62L 1100.6 280.5L 1112 278.8L 1131 278.73L 1146.5 279.31L 1159.6 279.65L 1171 279.48L 1190 279.46L 1205.5 278.1L 1218.6 279.15L 1230 278.87" fill="none" stroke-width="0.5" stroke="#000000" stroke-opacity="0.30196" stroke-linecap="round" stroke-linejoin="round"/>
  </g>
  <path d="M 74 33 L 74 88 L 428 88 L 428 33 z" fill="#FFFFFF" fill-opacity="0.7019607843137254" stroke-width="0.5" stroke="#000000" stroke-opacity="1" stroke-linecap="round" stroke-linejoin="round"/>
  <path d="M 88 52 L 108 52" fill="none" stroke-width="4" stroke="#FF3B30" stroke-opacity="1" stroke-linecap="round" stroke-linejoin="round"/>
  <path d="M 88 52 L 108 52" fill="none" stroke-width="0.5" stroke="#000000" stroke-opacity="0.30196" stroke-linecap="round" stroke-linejoin="round"/>
  <text x="119" y="56.17" font-family="Menlo" font-size="12" font-weight="normal" font-style="normal" fill="#000000" fill-opacity="1">Array&lt;Int&gt; partitioning around middle</text>
  <path d="M 88 69 L 108 69" fill="none" stroke-width="4" stroke="#007AFF" stroke-opacity="1" stroke-linecap="round" stroke-linejoin="round"/>
  <path d="M 88 69 L 108 69" fill="none" stroke-width="0.5" stroke="#000000" stroke-opacity="0.30196" stroke-linecap="round" stroke-linejoin="round"/>
  <text x="119" y="73.17" font-family="Menlo" font-size="12" font-weight="normal" font-style="normal" fill="#000000" fill-opacity="1">TreeArray&lt;Int&gt; partitioning around middle</text>
  <path d="M 50 9 L 50 441 L 1230 441 L 1230 9 z" fill="none" stroke-width="0.5" stroke="#000000" stroke-opacity="1" stroke-linecap="round" stroke-linejoin="round"/>
</svg>
