<!DOCTYPE svg PUBLIC "-//W3C//DTD SVG 1.1//EN" "http://www.w3.org/Graphics/SVG/1.1/DTD/svg11.dtd">
<svg width="1280.0px" height="480.0px" viewBox="0.0 0.0 1280.0 480.0" xmlns="http://www.w3.org/2000/svg" xmlns:xlink="http://www.w3.org/1999/xlink" version="1.1">
  <path d="M 0 0 L 0 480 L 1280 480 L 1280 0 z" fill="#FFFFFF" fill-opacity="1.0" stroke="none"/>
  <text x="50" y="468.7" font-family="Helvetica" font-size="10" font-weight="normal" font-style="normal" fill="#000000" fill-opacity="1">Average per-element processing time over input size (bands: min, mean, mean + 2stddev)</text>
  <a xlink:href="https://github.com/apple/swift-collections-benchmark"><text x="1107" y="468.7" font-family="Helvetica" font-size="10" font-weight="normal" font-style="normal" fill="#000000" fill-opacity="1">swift-collections-benchmark</text></a>
  <path d="M 50 9 L 50 441" fill="none" stroke-width="0.75" stroke="#000000" stroke-opacity="0.49804" stroke-linecap="butt" stroke-linejoin="round"/>
  <text x="47" y="453.7" font-family="Helvetica" font-size="10" font-weight="normal" font-style="normal" fill="#000000" fill-opacity="1">1</text>
  <path d="M 109 9 L 109 441" fill="none" stroke-width="0.75" stroke="#000000" stroke-opacity="0.49804" stroke-linecap="butt" stroke-linejoin="round"/>
  <text x="106" y="453.7" font-family="Helvetica" font-size="10" font-weight="normal" font-style="normal" fill="#000000" fill-opacity="1">2</text>
  <path d="M 168 9 L 168 441" fill="none" stroke-width="0.75" stroke="#000000" stroke-opacity="0.49804" stroke-linecap="butt" stroke-linejoin="round"/>
  <text x="165" y="453.7" font-family="Helvetica" font-size="10" font-weight="normal" font-style="normal" fill="#000000" fill-opacity="1">4</text>
  <path d="M 227 9 L 227 441" fill="none" stroke-width="0.75" stroke="#000000" stroke-opacity="0.49804" stroke-linecap="butt" stroke-linejoin="round"/>
  <text x="224" y="453.7" font-family="Helvetica" font-size="10" font-weight="normal" font-style="normal" fill="#000000" fill-opacity="1">8</text>
  <path d="M 286 9 L 286 441" fill="none" stroke-width="0.75" stroke="#000000" stroke-opacity="0.49804" stroke-linecap="butt" stroke-linejoin="round"/>
  <text x="280" y="453.7" font-family="Helvetica" font-size="10" font-weight="normal" font-style="normal" fill="#000000" fill-opacity="1">16</text>
  <path d="M 345 9 L 345 441" fill="none" stroke-width="0.75" stroke="#000000" stroke-opacity="0.49804" stroke-linecap="butt" stroke-linejoin="round"/>
  <text x="339" y="453.7" font-family="Helvetica" font-size="10" font-weight="normal" font-style="normal" fill="#000000" fill-opacity="1">32</text>
  <path d="M 404 9 L 404 441" fill="none" stroke-width="0.75" stroke="#000000" stroke-opacity="0.49804" stroke-linecap="butt" stroke-linejoin="round"/>
  <text x="398" y="453.7" font-family="Helvetica" font-size="10" font-weight="normal" font-style="normal" fill="#000000" fill-opacity="1">64</text>
  <path d="M 463 9 L 463 441" fill="none" stroke-width="0.75" stroke="#000000" stroke-opacity="0.49804" stroke-linecap="butt" stroke-linejoin="round"/>
  <text x="454.5" y="453.7" font-family="Helvetica" font-size="10" font-weight="normal" font-style="normal" fill="#000000" fill-opacity="1">128</text>
  <path d="M 522 9 L 522 441" fill="none" stroke-width="0.75" stroke="#000000" stroke-opacity="0.49804" stroke-linecap="butt" stroke-linejoin="round"/>
  <text x="513.5" y="453.7" font-family="Helvetica" font-size="10" font-weight="normal" font-style="normal" fill="#000000" fill-opacity="1">256</text>
  <path d="M 581 9 L 581 441" fill="none" stroke-width="0.75" stroke="#000000" stroke-opacity="0.49804" stroke-linecap="butt" stroke-linejoin="round"/>
  <text x="572.5" y="453.7" font-family="Helvetica" font-size="10" font-weight="normal" font-style="normal" fill="#000000" fill-opacity="1">512</text>
  <path d="M 640 9 L 640 441" fill="none" stroke-width="0.75" stroke="#000000" stroke-opacity="0.49804" stroke-linecap="butt" stroke-linejoin="round"/>
  <text x="634.5" y="453.7" font-family="Helvetica" font-size="10" font-weight="normal" font-style="normal" fill="#000000" fill-opacity="1">1k</text>
  <path d="M 699 9 L 699 441" fill="none" stroke-width="0.75" stroke="#000000" stroke-opacity="0.49804" stroke-linecap="butt" stroke-linejoin="round"/>
  <text x="693.5" y="453.7" font-family="Helvetica" font-size="10" font-weight="normal" font-style="normal" fill="#000000" fill-opacity="1">2k</text>
  <path d="M 758 9 L 758 441" fill="none" stroke-width="0.75" stroke="#000000" stroke-opacity="0.49804" stroke-linecap="butt" stroke-linejoin="round"/>
  <text x="752.5" y="453.7" font-family="Helvetica" font-size="10" font-weight="normal" font-style="normal" fill="#000000" fill-opacity="1">4k</text>
  <path d="M 817 9 L 817 441" fill="none" stroke-width="0.75" stroke="#000000" stroke-opacity="0.49804" stroke-linecap="butt" stroke-linejoin="round"/>
  <text x="811.5" y="453.7" font-family="Helvetica" font-size="10" font-weight="normal" font-style="normal" fill="#000000" fill-opacity="1">8k</text>
  <path d="M 876 9 L 876 441" fill="none" stroke-width="0.75" stroke="#000000" stroke-opacity="0.49804" stroke-linecap="butt" stroke-linejoin="round"/>
  <text x="867.5" y="453.7" font-family="Helvetica" font-size="10" font-weight="normal" font-style="normal" fill="#000000" fill-opacity="1">16k</text>
  <path d="M 935 9 L 935 441" fill="none" stroke-width="0.75" stroke="#000000" stroke-opacity="0.49804" stroke-linecap="butt" stroke-linejoin="round"/>
  <text x="926.5" y="453.7" font-family="Helvetica" font-size="10" font-weight="normal" font-style="normal" fill="#000000" fill-opacity="1">32k</text>
  <path d="M 994 9 L 994 441" fill="none" stroke-width="0.75" stroke="#000000" stroke-opacity="0.49804" stroke-linecap="butt" stroke-linejoin="round"/>
  <text x="985.5" y="453.7" font-family="Helvetica" font-size="10" font-weight="normal" font-style="normal" fill="#000000" fill-opacity="1">64k</text>
  <path d="M 1053 9 L 1053 441" fill="none" stroke-width="0.75" stroke="#000000" stroke-opacity="0.49804" stroke-linecap="butt" stroke-linejoin="round"/>
  <text x="1042" y="453.7" font-family="Helvetica" font-size="10" font-weight="normal" font-style="normal" fill="#000000" fill-opacity="1">128k</text>
  <path d="M 1112 9 L 1112 441" fill="none" stroke-width="0.75" stroke="#000000" stroke-opacity="0.49804" stroke-linecap="butt" stroke-linejoin="round"/>
  <text x="1101" y="453.7" font-family="Helvetica" font-size="10" font-weight="normal" font-style="normal" fill="#000000" fill-opacity="1">256k</text>
  <path d="M 1171 9 L 1171 441" fill="none" stroke-width="0.75" stroke="#000000" stroke-opacity="0.49804" stroke-linecap="butt" stroke-linejoin="round"/>
  <text x="1160" y="453.7" font-family="Helvetica" font-size="10" font-weight="normal" font-style="normal" fill="#000000" fill-opacity="1">512k</text>
  <path d="M 1230 9 L 1230 441" fill="none" stroke-width="0.75" stroke="#000000" stroke-opacity="0.49804" stroke-linecap="butt" stroke-linejoin="round"/>
  <text x="1223" y="453.7" font-family="Helvetica" font-size="10" font-weight="normal" font-style="normal" fill="#000000" fill-opacity="1">1M</text>
  <path d="M 50 441 L 1230 441" fill="none" stroke-width="0.75" stroke="#000000" stroke-opacity="0.49804" stroke-linecap="butt" stroke-linejoin="round"/>
  <text x="16" y="442.7" font-family="Helvetica" font-size="10" font-weight="normal" font-style="normal" fill="#000000" fill-opacity="1">100 ps</text>
  <text x="1236" y="442.7" font-family="Helvetica" font-size="10" font-weight="normal" font-style="normal" fill="#000000" fill-opacity="1">100 ps</text>
  <path d="M 50 333 L 1230 333" fill="none" stroke-width="0.75" stroke="#000000" stroke-opacity="0.49804" stroke-linecap="butt" stroke-linejoin="round"/>
  <text x="27" y="334.7" font-family="Helvetica" font-size="10" font-weight="normal" font-style="normal" fill="#000000" fill-opacity="1">1 ns</text>
  <text x="1236" y="334.7" font-family="Helvetica" font-size="10" font-weight="normal" font-style="normal" fill="#000000" fill-opacity="1">1 ns</text>
  <path d="M 50 225 L 1230 225" fill="none" stroke-width="0.75" stroke="#000000" stroke-opacity="0.49804" stroke-linecap="butt" stroke-linejoin="round"/>
  <text x="21" y="226.7" font-family="Helvetica" font-size="10" font-weight="normal" font-style="normal" fill="#000000" fill-opacity="1">10 ns</text>
  <text x="1236" y="226.7" font-family="Helvetica" font-size="10" font-weight="normal" font-style="normal" fill="#000000" fill-opacity="1">10 ns</text>
  <path d="M 50 117 L 1230 117" fill="none" stroke-width="0.75" stroke="#000000" stroke-opacity="0.49804" stroke-linecap="butt" stroke-linejoin="round"/>
  <text x="16" y="118.7" font-family="Helvetica" font-size="10" font-weight="normal" font-style="normal" fill="#000000" fill-opacity="1">100 ns</text>
  <text x="1236" y="118.7" font-family="Helvetica" font-size="10" font-weight="normal" font-style="normal" fill="#000000" fill-opacity="1">100 ns</text>
  <path d="M 50 9 L 1230 9" fill="none" stroke-width="0.75" stroke="#000000" stroke-opacity="0.49804" stroke-linecap="butt" stroke-linejoin="round"/>
  <text x="26" y="10.7" font-family="Helvetica" font-size="10" font-weight="normal" font-style="normal" fill="#000000" fill-opacity="1">1 µs</text>
  <text x="1236" y="10.7" font-family="Helvetica" font-size="10" font-weight="normal" font-style="normal" fill="#000000" fill-opacity="1">1 µs</text>
  <path d="M 50 408.49 L 1230 408.49" fill="none" stroke-width="0.5" stroke="#000000" stroke-opacity="0.25882" stroke-linecap="butt" stroke-linejoin="round" stroke-dasharray="6 3" stroke-dashoffset="0"/>
  <path d="M 50 375.98 L 1230 375.98" fill="none" stroke-width="0.5" stroke="#000000" stroke-opacity="0.25882" stroke-linecap="butt" stroke-linejoin="round" stroke-dasharray="6 3" stroke-dashoffset="0"/>
  <path d="M 50 343.47 L 1230 343.47" fill="none" stroke-width="0.5" stroke="#000000" stroke-opacity="0.25882" stroke-linecap="butt" stroke-linejoin="round" stroke-dasharray="6 3" stroke-dashoffset="0"/>
  <path d="M 50 310.96 L 1230 310.96" fill="none" stroke-width="0.5" stroke="#000000" stroke-opacity="0.25882" stroke-linecap="butt" stroke-linejoin="round" stroke-dasharray="6 3" stroke-dashoffset="0"/>
  <path d="M 50 278.44 L 1230 278.44" fill="none" stroke-width="0.5" stroke="#000000" stroke-opacity="0.25882" stroke-linecap="butt" stroke-linejoin="round" stroke-dasharray="6 3" stroke-dashoffset="0"/>
  <path d="M 50 245.93 L 1230 245.93" fill="none" stroke-width="0.5" stroke="#000000" stroke-opacity="0.25882" stroke-linecap="butt" stroke-linejoin="round" stroke-dasharray="6 3" stroke-dashoffset="0"/>
  <path d="M 50 213.42 L 1230 213.42" fill="none" stroke-width="0.5" stroke="#000000" stroke-opacity="0.25882" stroke-linecap="butt" stroke-linejoin="round" stroke-dasharray="6 3" stroke-dashoffset="0"/>
  <path d="M 50 180.91 L 1230 180.91" fill="none" stroke-width="0.5" stroke="#000000" stroke-opacity="0.25882" stroke-linecap="butt" stroke-linejoin="round" stroke-dasharray="6 3" stroke-dashoffset="0"/>
  <path d="M 50 148.4 L 1230 148.4" fill="none" stroke-width="0.5" stroke="#000000" stroke-opacity="0.25882" stroke-linecap="butt" stroke-linejoin="round" stroke-dasharray="6 3" stroke-dashoffset="0"/>
  <path d="M 50 115.89 L 1230 115.89" fill="none" stroke-width="0.5" stroke="#000000" stroke-opacity="0.25882" stroke-linecap="butt" stroke-linejoin="round" stroke-dasharray="6 3" stroke-dashoffset="0"/>
  <path d="M 50 83.376 L 1230 83.376" fill="none" stroke-width="0.5" stroke="#000000" stroke-opacity="0.25882" stroke-linecap="butt" stroke-linejoin="round" stroke-dasharray="6 3" stroke-dashoffset="0"/>
  <path d="M 50 50.865 L 1230 50.865" fill="none" stroke-width="0.5" stroke="#000000" stroke-opacity="0.25882" stroke-linecap="butt" stroke-linejoin="round" stroke-dasharray="6 3" stroke-dashoffset="0"/>
  <path d="M 50 18.354 L 1230 18.354" fill="none" stroke-width="0.5" stroke="#000000" stroke-opacity="0.25882" stroke-linecap="butt" stroke-linejoin="round" stroke-dasharray="6 3" stroke-dashoffset="0"/>
  <path d="M 74 33 L 74 88 L 428 88 L 428 33 z" fill="#FFFFFF" fill-opacity="1.0" stroke="none"/>
  <clipPath id="clip-0">
    <path d="M 50 9 L 50 441 L 1230 441 L 1230 9 z"/>
  </clipPath>
  <g clip-path="url(#clip-0)">
    <path d="M 50 157.69L 109 191.33L 143.51 209.22L 168 222.71L 186.99 234.31L 202.51 241.73L 215.63 247.95L 227 223.27L 245.99 233.74L 261.51 223.09L 274.63 230.32L 286 222.99L 304.99 214.85L 320.51 204.64L 333.63 202.56L 345 212.99L 363.99 207.7L 379.51 209.82L 392.63 208.96L 404 208.32L 422.99 201.43L 438.51 204.07L 451.63 199.99L 463 201.22L 481.99 197.69L 497.51 168.88L 510.63 158.84L 522 141.66L 540.99 128.8L 556.51 141.49L 569.63 137.14L 581 132.31L 599.99 129.62L 615.51 128.2L 628.63 126.88L 640 128.51L 658.99 126.25L 674.51 125.6L 687.63 125.55L 699 126.86L 717.99 125.22L 733.51 123.52L 746.63 123.53L 758 123.41L 776.99 122.24L 792.51 121.52L 805.63 121.57L 817 121.34L 835.99 120.89L 851.51 119.21L 864.63 119.52L 876 117.48L 894.99 118.39L 910.51 117.56L 923.63 117.36L 935 109.11L 953.99 116.27L 969.51 113.42L 982.63 115.21L 994 105.95L 1013 112.8L 1028.5 106.24L 1041.6 112.69L 1053 101.38L 1072 104.99L 1087.5 104.01L 1100.6 104.85L 1112 89.036L 1131 100.49L 1146.5 93.828L 1159.6 99.254L 1171 87.053L 1190 97.647L 1205.5 87.219L 1218.6 95.573L 1230 82.334L 1230 84.801L 1218.6 96.918L 1205.5 92.709L 1190 97.698L 1171 87.118L 1159.6 102.1L 1146.5 98.707L 1131 100.51L 1112 95.946L 1100.6 107.11L 1087.5 104.11L 1072 107.79L 1053 101.4L 1041.6 112.82L 1028.5 109.12L 1013 113.75L 994 106.57L 982.63 115.43L 969.51 114.7L 953.99 116.85L 935 111.93L 923.63 117.54L 910.51 117.59L 894.99 118.79L 876 118.29L 864.63 119.69L 851.51 119.81L 835.99 121.06L 817 121.8L 805.63 121.92L 792.51 122.13L 776.99 123.12L 758 123.75L 746.63 124.44L 733.51 124.34L 717.99 125.94L 699 127.29L 687.63 125.88L 674.51 127.39L 658.99 129.57L 640 130.32L 628.63 129.42L 615.51 133.85L 599.99 134.53L 581 133.96L 569.63 137.26L 556.51 141.98L 540.99 156.2L 522 172.29L 510.63 180.78L 497.51 191.07L 481.99 201.78L 463 201.22L 451.63 204.07L 438.51 204.07L 422.99 210.79L 404 212.64L 392.63 214L 379.51 215.88L 363.99 214.53L 345 223.13L 333.63 223.19L 320.51 215.8L 304.99 233.74L 286 222.99L 274.63 230.32L 261.51 223.09L 245.99 233.74L 227 223.27L 215.63 250.09L 202.51 241.73L 186.99 234.31L 168 222.71L 143.51 209.22L 109 191.33L 50 157.69" fill="#007AFF" fill-opacity="0.30196078431372547" stroke="none"/>
    <path d="M 50 157.69L 109 191.33L 143.51 208.21L 168 221.7L 186.99 232.17L 202.51 240.72L 215.63 250.09L 227 254.21L 245.99 265.69L 261.51 273.23L 274.63 281.47L 286 287.73L 304.99 298.2L 320.51 306.75L 333.63 313.98L 345 320.25L 363.99 330.71L 379.51 340.39L 392.63 347.62L 404 302.97L 422.99 363.22L 438.51 339.82L 451.63 347.06L 463 321.55L 481.99 344.58L 497.51 339.29L 510.63 328.7L 522 327.41L 540.99 331.5L 556.51 329.54L 569.63 321.22L 581 318.51L 599.99 323.49L 615.51 323.16L 628.63 312.37L 640 321.26L 658.99 323.49L 674.51 325.17L 687.63 332.01L 699 329.6L 717.99 327.88L 733.51 330L 746.63 332.61L 758 332.82L 776.99 329.12L 792.51 326.95L 805.63 319.05L 817 315.82L 835.99 304.34L 851.51 292.25L 864.63 280.74L 876 286.86L 894.99 292.36L 910.51 280.46L 923.63 285.59L 935 286.88L 953.99 282.75L 969.51 283.16L 982.63 281.32L 994 273.39L 1013 282.73L 1028.5 281.52L 1041.6 281.17L 1053 281.23L 1072 280.96L 1087.5 279.95L 1100.6 280.23L 1112 275.41L 1131 275.86L 1146.5 278.58L 1159.6 279.55L 1171 279.08L 1190 279.45L 1205.5 274.59L 1218.6 278.88L 1230 277.95L 1230 279.19L 1218.6 279.24L 1205.5 279.41L 1190 279.47L 1171 279.62L 1159.6 279.68L 1146.5 279.56L 1131 279.78L 1112 280.06L 1100.6 280.59L 1087.5 280.85L 1072 281.28L 1053 281.93L 1041.6 281.41L 1028.5 282.23L 1013 283.44L 994 283.38L 982.63 283.48L 969.51 285.03L 953.99 285.56L 935 287.74L 923.63 287.43L 910.51 289.41L 894.99 295.13L 876 297.23L 864.63 301.11L 851.51 305.95L 835.99 309.8L 817 317.43L 805.63 320.62L 792.51 328.59L 776.99 333.34L 758 336.62L 746.63 335.82L 733.51 336.11L 717.99 334.89L 699 333.16L 687.63 334.11L 674.51 336.78L 658.99 334.11L 640 338.18L 628.63 336.36L 615.51 336.82L 599.99 334.11L 581 338.23L 569.63 336.36L 556.51 339.68L 540.99 344.58L 522 342.74L 510.63 346.77L 497.51 339.82L 481.99 344.58L 463 353.32L 451.63 347.06L 438.51 339.82L 422.99 363.22L 404 353.89L 392.63 347.62L 379.51 340.39L 363.99 330.71L 345 320.25L 333.63 313.98L 320.51 306.75L 304.99 298.2L 286 287.73L 274.63 281.47L 261.51 275.37L 245.99 265.69L 227 256.35L 215.63 250.09L 202.51 242.86L 186.99 234.31L 168 223.84L 143.51 210.35L 109 191.33L 50 157.69" fill="#FF3B30" fill-opacity="0.30196078431372547" stroke="none"/>
    <path d="M 50 157.69L 109 191.33L 143.51 209.22L 168 222.71L 186.99 234.31L 202.51 241.73L 215.63 249.52L 227 223.27L 245.99 233.74L 261.51 223.09L 274.63 230.32L 286 222.99L 304.99 228.03L 320.51 212.62L 333.63 216.87L 345 220.26L 363.99 212.65L 379.51 214.22L 392.63 212.63L 404 211.47L 422.99 208.16L 438.51 204.07L 451.63 202.97L 463 201.22L 481.99 200.68L 497.51 184.19L 510.63 173.99L 522 162.18L 540.99 147.36L 556.51 141.85L 569.63 137.23L 581 133.52L 599.99 133.2L 615.51 132.31L 628.63 128.75L 640 129.84L 658.99 128.68L 674.51 126.91L 687.63 125.79L 699 127.18L 717.99 125.75L 733.51 124.12L 746.63 124.2L 758 123.66L 776.99 122.89L 792.51 121.97L 805.63 121.83L 817 121.68L 835.99 121.02L 851.51 119.66L 864.63 119.65L 876 118.08L 894.99 118.68L 910.51 117.58L 923.63 117.49L 935 111.17L 953.99 116.7L 969.51 114.36L 982.63 115.38L 994 106.41L 1013 113.5L 1028.5 108.35L 1041.6 112.79L 1053 101.4L 1072 107.04L 1087.5 104.09L 1100.6 106.51L 1112 94.041L 1131 100.5L 1146.5 97.383L 1159.6 101.34L 1171 87.101L 1190 97.684L 1205.5 91.212L 1218.6 96.563L 1230 84.144" fill="none" stroke-width="4" stroke="#007AFF" stroke-opacity="1" stroke-linecap="round" stroke-linejoin="round"/>
    <path d="M 50 157.69L 109 191.33L 143.51 209.78L 168 223.27L 186.99 233.74L 202.51 242.29L 215.63 250.09L 227 255.78L 245.99 265.69L 261.51 274.8L 274.63 281.47L 286 287.73L 304.99 298.2L 320.51 306.75L 333.63 313.98L 345 320.25L 363.99 330.71L 379.51 340.39L 392.63 347.62L 404 334.49L 422.99 363.22L 438.51 339.82L 451.63 347.06L 463 342.74L 481.99 344.58L 497.51 339.68L 510.63 341.34L 522 338.23L 540.99 340.8L 556.51 336.82L 569.63 331.91L 581 332.23L 599.99 331.1L 615.51 332.85L 628.63 328.82L 640 333.14L 658.99 331.1L 674.51 333.46L 687.63 333.55L 699 332.21L 717.99 332.95L 733.51 334.43L 746.63 334.96L 758 335.6L 776.99 332.2L 792.51 328.16L 805.63 320.2L 817 317.01L 835.99 308.31L 851.51 301.97L 864.63 294.88L 876 294.29L 894.99 294.39L 910.51 286.9L 923.63 286.94L 935 287.52L 953.99 284.81L 969.51 284.54L 982.63 282.9L 994 280.56L 1013 283.25L 1028.5 282.04L 1041.6 281.34L 1053 281.74L 1072 281.2L 1087.5 280.62L 1100.6 280.5L 1112 278.8L 1131 278.73L 1146.5 279.31L 1159.6 279.65L 1171 279.48L 1190 279.46L 1205.5 278.1L 1218.6 279.15L 1230 278.87" fill="none" stroke-width="4" stroke="#FF3B30" stroke-opacity="1" stroke-linecap="round" stroke-linejoin="round"/>
    <path d="M 50 157.69L 109 191.33L 143.51 209.22L 168 222.71L 186.99 234.31L 202.51 241.73L 215.63 249.52L 227 223.27L 245.99 233.74L 261.51 223.09L 274.63 230.32L 286 222.99L 304.99 228.03L 320.51 212.62L 333.63 216.87L 345 220.26L 363.99 212.65L 379.51 214.22L 392.63 212.63L 404 211.47L 422.99 208.16L 438.51 204.07L 451.63 202.97L 463 201.22L 481.99 200.68L 497.51 184.19L 510.63 173.99L 522 162.18L 540.99 147.36L 556.51 141.85L 569.63 137.23L 581 133.52L 599.99 133.2L 615.51 132.31L 628.63 128.75L 640 129.84L 658.99 128.68L 674.51 126.91L 687.63 125.79L 699 127.18L 717.99 125.75L 733.51 124.12L 746.63 124.2L 758 123.66L 776.99 122.89L 792.51 121.97L 805.63 121.83L 817 121.68L 835.99 121.02L 851.51 119.66L 864.63 119.65L 876 118.08L 894.99 118.68L 910.51 117.58L 923.63 117.49L 935 111.17L 953.99 116.7L 969.51 114.36L 982.63 115.38L 994 106.41L 1013 113.5L 1028.5 108.35L 1041.6 112.79L 1053 101.4L 1072 107.04L 1087.5 104.09L 1100.6 106.51L 1112 94.041L 1131 100.5L 1146.5 97.383L 1159.6 101.34L 1171 87.101L 1190 97.684L 1205.5 91.212L 1218.6 96.563L 1230 84.144" fill="none" stroke-width="0.5" stroke="#000000" stroke-opacity="0.30196" stroke-linecap="round" stroke-linejoin="round"/>
    <path d="M 50 157.69L 109 191.33L 143.51 209.78L 168 223.27L 186.99 233.74L 202.51 242.29L 215.63 250.09L 227 255.78L 245.99 265.69L 261.51 274.8L 274.63 281.47L 286 287.73L 304.99 298.2L 320.51 306.75L 333.63 313.98L 345 320.25L 363.99 330.71L 379.51 340.39L 392.63 347.62L 404 334.49L 422.99 363.22L 438.51 339.82L 451.63 347.06L 463 342.74L 481.99 344.58L 497.51 339.68L 510.63 341.34L 522 338.23L 540.99 340.8L 556.51 336.82L 569.63 331.91L 581 332.23L 599.99 331.1L 615.51 332.85L 628.63 328.82L 640 333.14L 658.99 331.1L 674.51 333.46L 687.63 333.55L 699 332.21L 717.99 332.95L 733.51 334.43L 746.63 334.96L 758 335.6L 776.99 332.2L 792.51 328.16L 805.63 320.2L 817 317.01L 835.99 308.31L 851.51 301.97L 864.63 294.88L 876 294.29L 894.99 294.39L 910.51 286.9L 923.63 286.94L 935 287.52L 953.99 284.81L 969.51 284.54L 982.63 282.9L 994 280.56L 1013 283.25L 1028.5 282.04L 1041.6 281.34L 1053 281.74L 1072 281.2L 1087.5 280.62L 1100.6 280.5L 1112 278.8L 1131 278.73L 1146.5 279.31L 1159.6 279.65L 1171 279.48L 1190 279.46L 1205.5 278.1L 1218.6 279.15L 1230 278.87" fill="none" stroke-width="0.5" stroke="#000000" stroke-opacity="0.30196" stroke-linecap="round" stroke-linejoin="round"/>
  </g>
  <path d="M 74 33 L 74 88 L 428 88 L 428 33 z" fill="#FFFFFF" fill-opacity="0.7019607843137254" stroke-width="0.5" stroke="#000000" stroke-opacity="1" stroke-linecap="round" stroke-linejoin="round"/>
  <path d="M 88 52 L 108 52" fill="none" stroke-width="4" stroke="#FF3B30" stroke-opacity="1" stroke-linecap="round" stroke-linejoin="round"/>
  <path d="M 88 52 L 108 52" fill="none" stroke-width="0.5" stroke="#000000" stroke-opacity="0.30196" stroke-linecap="round" stroke-linejoin="round"/>
  <text x="119" y="56.17" font-family="Menlo" font-size="12" font-weight="normal" font-style="normal" fill="#000000" fill-opacity="1">Array&lt;Int&gt; partitioning around middle</text>
  <path d="M 88 69 L 108 69" fill="none" stroke-width="4" stroke="#007AFF" stroke-opacity="1" stroke-linecap="round" stroke-linejoin="round"/>
  <path d="M 88 69 L 108 69" fill="none" stroke-width="0.5" stroke="#000000" stroke-opacity="0.30196" stroke-linecap="round" stroke-linejoin="round"/>
  <text x="119" y="73.17" font-family="Menlo" font-size="12" font-weight="normal" font-style="normal" fill="#000000" fill-opacity="1">TreeArray&lt;Int&gt; partitioning around middle</text>
  <path d="M 50 9 L 50 441 L 1230 441 L 1230 9 z" fill="none" stroke-width="0.5" stroke="#000000" stroke-opacity="1" stroke-linecap="round" stroke-linejoin="round"/>
</svg>
