<!DOCTYPE svg PUBLIC "-//W3C//DTD SVG 1.1//EN" "http://www.w3.org/Graphics/SVG/1.1/DTD/svg11.dtd">
<svg width="1280.0px" height="480.0px" viewBox="0.0 0.0 1280.0 480.0" xmlns="http://www.w3.org/2000/svg" xmlns:xlink="http://www.w3.org/1999/xlink" version="1.1">
  <path d="M 0 0 L 0 480 L 1280 480 L 1280 0 z" fill="#FFFFFF" fill-opacity="1.0" stroke="none"/>
  <text x="50" y="468.7" font-family="Helvetica" font-size="10" font-weight="normal" font-style="normal" fill="#000000" fill-opacity="1">Average per-element processing time over input size (bands: min, mean, mean + 2stddev)</text>
  <a xlink:href="https://github.com/apple/swift-collections-benchmark"><text x="1107" y="468.7" font-family="Helvetica" font-size="10" font-weight="normal" font-style="normal" fill="#000000" fill-opacity="1">swift-collections-benchmark</text></a>
  <path d="M 50 9 L 50 441" fill="none" stroke-width="0.75" stroke="#000000" stroke-opacity="0.49804" stroke-linecap="butt" stroke-linejoin="round"/>
  <text x="47" y="453.7" font-family="Helvetica" font-size="10" font-weight="normal" font-style="normal" fill="#000000" fill-opacity="1">1</text>
  <path d="M 109 9 L 109 441" fill="none" stroke-width="0.75" stroke="#000000" stroke-opacity="0.49804" stroke-linecap="butt" stroke-linejoin="round"/>
  <text x="106" y="453.7" font-family="Helvetica" font-size="10" font-weight="normal" font-style="normal" fill="#000000" fill-opacity="1">2</text>
  <path d="M 168 9 L 168 441" fill="none" stroke-width="0.75" stroke="#000000" stroke-opacity="0.49804" stroke-linecap="butt" stroke-linejoin="round"/>
  <text x="165" y="453.7" font-family="Helvetica" font-size="10" font-weight="normal" font-style="normal" fill="#000000" fill-opacity="1">4</text>
  <path d="M 227 9 L 227 441" fill="none" stroke-width="0.75" stroke="#000000" stroke-opacity="0.49804" stroke-linecap="butt" stroke-linejoin="round"/>
  <text x="224" y="453.7" font-family="Helvetica" font-size="10" font-weight="normal" font-style="normal" fill="#000000" fill-opacity="1">8</text>
  <path d="M 286 9 L 286 441" fill="none" stroke-width="0.75" stroke="#000000" stroke-opacity="0.49804" stroke-linecap="butt" stroke-linejoin="round"/>
  <text x="280" y="453.7" font-family="Helvetica" font-size="10" font-weight="normal" font-style="normal" fill="#000000" fill-opacity="1">16</text>
  <path d="M 345 9 L 345 441" fill="none" stroke-width="0.75" stroke="#000000" stroke-opacity="0.49804" stroke-linecap="butt" stroke-linejoin="round"/>
  <text x="339" y="453.7" font-family="Helvetica" font-size="10" font-weight="normal" font-style="normal" fill="#000000" fill-opacity="1">32</text>
  <path d="M 404 9 L 404 441" fill="none" stroke-width="0.75" stroke="#000000" stroke-opacity="0.49804" stroke-linecap="butt" stroke-linejoin="round"/>
  <text x="398" y="453.7" font-family="Helvetica" font-size="10" font-weight="normal" font-style="normal" fill="#000000" fill-opacity="1">64</text>
  <path d="M 463 9 L 463 441" fill="none" stroke-width="0.75" stroke="#000000" stroke-opacity="0.49804" stroke-linecap="butt" stroke-linejoin="round"/>
  <text x="454.5" y="453.7" font-family="Helvetica" font-size="10" font-weight="normal" font-style="normal" fill="#000000" fill-opacity="1">128</text>
  <path d="M 522 9 L 522 441" fill="none" stroke-width="0.75" stroke="#000000" stroke-opacity="0.49804" stroke-linecap="butt" stroke-linejoin="round"/>
  <text x="513.5" y="453.7" font-family="Helvetica" font-size="10" font-weight="normal" font-style="normal" fill="#000000" fill-opacity="1">256</text>
  <path d="M 581 9 L 581 441" fill="none" stroke-width="0.75" stroke="#000000" stroke-opacity="0.49804" stroke-linecap="butt" stroke-linejoin="round"/>
  <text x="572.5" y="453.7" font-family="Helvetica" font-size="10" font-weight="normal" font-style="normal" fill="#000000" fill-opacity="1">512</text>
  <path d="M 640 9 L 640 441" fill="none" stroke-width="0.75" stroke="#000000" stroke-opacity="0.49804" stroke-linecap="butt" stroke-linejoin="round"/>
  <text x="634.5" y="453.7" font-family="Helvetica" font-size="10" font-weight="normal" font-style="normal" fill="#000000" fill-opacity="1">1k</text>
  <path d="M 699 9 L 699 441" fill="none" stroke-width="0.75" stroke="#000000" stroke-opacity="0.49804" stroke-linecap="butt" stroke-linejoin="round"/>
  <text x="693.5" y="453.7" font-family="Helvetica" font-size="10" font-weight="normal" font-style="normal" fill="#000000" fill-opacity="1">2k</text>
  <path d="M 758 9 L 758 441" fill="none" stroke-width="0.75" stroke="#000000" stroke-opacity="0.49804" stroke-linecap="butt" stroke-linejoin="round"/>
  <text x="752.5" y="453.7" font-family="Helvetica" font-size="10" font-weight="normal" font-style="normal" fill="#000000" fill-opacity="1">4k</text>
  <path d="M 817 9 L 817 441" fill="none" stroke-width="0.75" stroke="#000000" stroke-opacity="0.49804" stroke-linecap="butt" stroke-linejoin="round"/>
  <text x="811.5" y="453.7" font-family="Helvetica" font-size="10" font-weight="normal" font-style="normal" fill="#000000" fill-opacity="1">8k</text>
  <path d="M 876 9 L 876 441" fill="none" stroke-width="0.75" stroke="#000000" stroke-opacity="0.49804" stroke-linecap="butt" stroke-linejoin="round"/>
  <text x="867.5" y="453.7" font-family="Helvetica" font-size="10" font-weight="normal" font-style="normal" fill="#000000" fill-opacity="1">16k</text>
  <path d="M 935 9 L 935 441" fill="none" stroke-width="0.75" stroke="#000000" stroke-opacity="0.49804" stroke-linecap="butt" stroke-linejoin="round"/>
  <text x="926.5" y="453.7" font-family="Helvetica" font-size="10" font-weight="normal" font-style="normal" fill="#000000" fill-opacity="1">32k</text>
  <path d="M 994 9 L 994 441" fill="none" stroke-width="0.75" stroke="#000000" stroke-opacity="0.49804" stroke-linecap="butt" stroke-linejoin="round"/>
  <text x="985.5" y="453.7" font-family="Helvetica" font-size="10" font-weight="normal" font-style="normal" fill="#000000" fill-opacity="1">64k</text>
  <path d="M 1053 9 L 1053 441" fill="none" stroke-width="0.75" stroke="#000000" stroke-opacity="0.49804" stroke-linecap="butt" stroke-linejoin="round"/>
  <text x="1042" y="453.7" font-family="Helvetica" font-size="10" font-weight="normal" font-style="normal" fill="#000000" fill-opacity="1">128k</text>
  <path d="M 1112 9 L 1112 441" fill="none" stroke-width="0.75" stroke="#000000" stroke-opacity="0.49804" stroke-linecap="butt" stroke-linejoin="round"/>
  <text x="1101" y="453.7" font-family="Helvetica" font-size="10" font-weight="normal" font-style="normal" fill="#000000" fill-opacity="1">256k</text>
  <path d="M 1171 9 L 1171 441" fill="none" stroke-width="0.75" stroke="#000000" stroke-opacity="0.49804" stroke-linecap="butt" stroke-linejoin="round"/>
  <text x="1160" y="453.7" font-family="Helvetica" font-size="10" font-weight="normal" font-style="normal" fill="#000000" fill-opacity="1">512k</text>
  <path d="M 1230 9 L 1230 441" fill="none" stroke-width="0.75" stroke="#000000" stroke-opacity="0.49804" stroke-linecap="butt" stroke-linejoin="round"/>
  <text x="1223" y="453.7" font-family="Helvetica" font-size="10" font-weight="normal" font-style="normal" fill="#000000" fill-opacity="1">1M</text>
  <path d="M 50 441 L 1230 441" fill="none" stroke-width="0.75" stroke="#000000" stroke-opacity="0.49804" stroke-linecap="butt" stroke-linejoin="round"/>
  <text x="16" y="442.7" font-family="Helvetica" font-size="10" font-weight="normal" font-style="normal" fill="#000000" fill-opacity="1">100 ps</text>
  <text x="1236" y="442.7" font-family="Helvetica" font-size="10" font-weight="normal" font-style="normal" fill="#000000" fill-opacity="1">100 ps</text>
  <path d="M 50 333 L 1230 333" fill="none" stroke-width="0.75" stroke="#000000" stroke-opacity="0.49804" stroke-linecap="butt" stroke-linejoin="round"/>
  <text x="27" y="334.7" font-family="Helvetica" font-size="10" font-weight="normal" font-style="normal" fill="#000000" fill-opacity="1">1 ns</text>
  <text x="1236" y="334.7" font-family="Helvetica" font-size="10" font-weight="normal" font-style="normal" fill="#000000" fill-opacity="1">1 ns</text>
  <path d="M 50 225 L 1230 225" fill="none" stroke-width="0.75" stroke="#000000" stroke-opacity="0.49804" stroke-linecap="butt" stroke-linejoin="round"/>
  <text x="21" y="226.7" font-family="Helvetica" font-size="10" font-weight="normal" font-style="normal" fill="#000000" fill-opacity="1">10 ns</text>
  <text x="1236" y="226.7" font-family="Helvetica" font-size="10" font-weight="normal" font-style="normal" fill="#000000" fill-opacity="1">10 ns</text>
  <path d="M 50 117 L 1230 117" fill="none" stroke-width="0.75" stroke="#000000" stroke-opacity="0.49804" stroke-linecap="butt" stroke-linejoin="round"/>
  <text x="16" y="118.7" font-family="Helvetica" font-size="10" font-weight="normal" font-style="normal" fill="#000000" fill-opacity="1">100 ns</text>
  <text x="1236" y="118.7" font-family="Helvetica" font-size="10" font-weight="normal" font-style="normal" fill="#000000" fill-opacity="1">100 ns</text>
  <path d="M 50 9 L 1230 9" fill="none" stroke-width="0.75" stroke="#000000" stroke-opacity="0.49804" stroke-linecap="butt" stroke-linejoin="round"/>
  <text x="26" y="10.7" font-family="Helvetica" font-size="10" font-weight="normal" font-style="normal" fill="#000000" fill-opacity="1">1 µs</text>
  <text x="1236" y="10.7" font-family="Helvetica" font-size="10" font-weight="normal" font-style="normal" fill="#000000" fill-opacity="1">1 µs</text>
  <path d="M 50 408.49 L 1230 408.49" fill="none" stroke-width="0.5" stroke="#000000" stroke-opacity="0.25882" stroke-linecap="butt" stroke-linejoin="round" stroke-dasharray="6 3" stroke-dashoffset="0"/>
  <path d="M 50 375.98 L 1230 375.98" fill="none" stroke-width="0.5" stroke="#000000" stroke-opacity="0.25882" stroke-linecap="butt" stroke-linejoin="round" stroke-dasharray="6 3" stroke-dashoffset="0"/>
  <path d="M 50 343.47 L 1230 343.47" fill="none" stroke-width="0.5" stroke="#000000" stroke-opacity="0.25882" stroke-linecap="butt" stroke-linejoin="round" stroke-dasharray="6 3" stroke-dashoffset="0"/>
  <path d="M 50 310.96 L 1230 310.96" fill="none" stroke-width="0.5" stroke="#000000" stroke-opacity="0.25882" stroke-linecap="butt" stroke-linejoin="round" stroke-dasharray="6 3" stroke-dashoffset="0"/>
  <path d="M 50 278.44 L 1230 278.44" fill="none" stroke-width="0.5" stroke="#000000" stroke-opacity="0.25882" stroke-linecap="butt" stroke-linejoin="round" stroke-dasharray="6 3" stroke-dashoffset="0"/>
  <path d="M 50 245.93 L 1230 245.93" fill="none" stroke-width="0.5" stroke="#000000" stroke-opacity="0.25882" stroke-linecap="butt" stroke-linejoin="round" stroke-dasharray="6 3" stroke-dashoffset="0"/>
  <path d="M 50 213.42 L 1230 213.42" fill="none" stroke-width="0.5" stroke="#000000" stroke-opacity="0.25882" stroke-linecap="butt" stroke-linejoin="round" stroke-dasharray="6 3" stroke-dashoffset="0"/>
  <path d="M 50 180.91 L 1230 180.91" fill="none" stroke-width="0.5" stroke="#000000" stroke-opacity="0.25882" stroke-linecap="butt" stroke-linejoin="round" stroke-dasharray="6 3" stroke-dashoffset="0"/>
  <path d="M 50 148.4 L 1230 148.4" fill="none" stroke-width="0.5" stroke="#000000" stroke-opacity="0.25882" stroke-linecap="butt" stroke-linejoin="round" stroke-dasharray="6 3" stroke-dashoffset="0"/>
  <path d="M 50 115.89 L 1230 115.89" fill="none" stroke-width="0.5" stroke="#000000" stroke-opacity="0.25882" stroke-linecap="butt" stroke-linejoin="round" stroke-dasharray="6 3" stroke-dashoffset="0"/>
  <path d="M 50 83.376 L 1230 83.376" fill="none" stroke-width="0.5" stroke="#000000" stroke-opacity="0.25882" stroke-linecap="butt" stroke-linejoin="round" stroke-dasharray="6 3" stroke-dashoffset="0"/>
  <path d="M 50 50.865 L 1230 50.865" fill="none" stroke-width="0.5" stroke="#000000" stroke-opacity="0.25882" stroke-linecap="butt" stroke-linejoin="round" stroke-dasharray="6 3" stroke-dashoffset="0"/>
  <path d="M 50 18.354 L 1230 18.354" fill="none" stroke-width="0.5" stroke="#000000" stroke-opacity="0.25882" stroke-linecap="butt" stroke-linejoin="round" stroke-dasharray="6 3" stroke-dashoffset="0"/>
  <path d="M 74 33 L 74 88 L 428 88 L 428 33 z" fill="#FFFFFF" fill-opacity="1.0" stroke="none"/>
  <clipPath id="clip-0">
    <path d="M 50 9 L 50 441 L 1230 441 L 1230 9 z"/>
  </clipPath>
  <g clip-path="url(#clip-0)">
    <path d="M 50 158.82L 109 191.33L 143.51 208.21L 168 222.71L 186.99 232.17L 202.51 240.72L 215.63 199.18L 227 205.79L 245.99 201.97L 261.51 199.79L 274.63 207.02L 286 213.72L 304.99 201.73L 320.51 195.42L 333.63 211.3L 345 194.28L 363.99 204.34L 379.51 201.46L 392.63 204.07L 404 197.26L 422.99 188.86L 438.51 183.84L 451.63 194.02L 463 194.4L 481.99 188.89L 497.51 171.72L 510.63 173.6L 522 151.85L 540.99 138.57L 556.51 136.61L 569.63 133.4L 581 131.25L 599.99 128.94L 615.51 123.9L 628.63 127.22L 640 124.06L 658.99 127.23L 674.51 125.43L 687.63 124.01L 699 125.47L 717.99 124.86L 733.51 121.96L 746.63 122.37L 758 123.21L 776.99 122.07L 792.51 121.11L 805.63 121.37L 817 121.51L 835.99 120.15L 851.51 119.35L 864.63 119.33L 876 116.61L 894.99 118.8L 910.51 117.73L 923.63 117.3L 935 115.54L 953.99 116.69L 969.51 115.75L 982.63 115.65L 994 106.47L 1013 114.64L 1028.5 112.63L 1041.6 113.94L 1053 100.88L 1072 110.76L 1087.5 106.27L 1100.6 110.78L 1112 91.814L 1131 104.16L 1146.5 100.91L 1159.6 104.6L 1171 89.702L 1190 100L 1205.5 94.549L 1218.6 99.213L 1230 85.334L 1230 85.409L 1218.6 99.274L 1205.5 94.958L 1190 100.06L 1171 90.957L 1159.6 104.74L 1146.5 100.96L 1131 104.31L 1112 97.587L 1100.6 111.08L 1087.5 106.38L 1072 111.79L 1053 101.73L 1041.6 114.05L 1028.5 112.89L 1013 114.94L 994 109.03L 982.63 115.91L 969.51 115.82L 953.99 116.8L 935 116.14L 923.63 117.49L 910.51 117.98L 894.99 118.88L 876 118.74L 864.63 119.93L 851.51 119.97L 835.99 120.8L 817 121.59L 805.63 121.84L 792.51 121.39L 776.99 122.91L 758 123.44L 746.63 124.19L 733.51 123.94L 717.99 125.17L 699 126.17L 687.63 127.98L 674.51 126.55L 658.99 127.71L 640 129.69L 628.63 127.69L 615.51 130.88L 599.99 131.81L 581 133.68L 569.63 139.47L 556.51 144.66L 540.99 154L 522 172.79L 510.63 182.17L 497.51 184.62L 481.99 189.99L 463 194.4L 451.63 194.06L 438.51 196.84L 422.99 204.07L 404 208.13L 392.63 204.07L 379.51 201.57L 363.99 210.84L 345 208.08L 333.63 211.3L 320.51 215.8L 304.99 214.53L 286 236.58L 274.63 230.32L 261.51 223.09L 245.99 233.74L 227 255.22L 215.63 250.09L 202.51 242.86L 186.99 234.31L 168 222.71L 143.51 210.35L 109 191.33L 50 158.82" fill="#007AFF" fill-opacity="0.30196078431372547" stroke="none"/>
    <path d="M 50 157.69L 109 191.33L 143.51 208.21L 168 221.7L 186.99 232.17L 202.51 240.72L 215.63 250.09L 227 254.21L 245.99 265.69L 261.51 273.23L 274.63 281.47L 286 287.73L 304.99 298.2L 320.51 306.75L 333.63 313.98L 345 320.25L 363.99 330.71L 379.51 340.39L 392.63 347.62L 404 302.97L 422.99 363.22L 438.51 339.82L 451.63 347.06L 463 321.55L 481.99 344.58L 497.51 339.29L 510.63 328.7L 522 327.41L 540.99 331.5L 556.51 329.54L 569.63 321.22L 581 318.51L 599.99 323.49L 615.51 323.16L 628.63 312.37L 640 321.26L 658.99 323.49L 674.51 325.17L 687.63 332.01L 699 329.6L 717.99 327.88L 733.51 330L 746.63 332.61L 758 332.82L 776.99 329.12L 792.51 326.95L 805.63 319.05L 817 315.82L 835.99 304.34L 851.51 292.25L 864.63 280.74L 876 286.86L 894.99 292.36L 910.51 280.46L 923.63 285.59L 935 286.88L 953.99 282.75L 969.51 283.16L 982.63 281.32L 994 273.39L 1013 282.73L 1028.5 281.52L 1041.6 281.17L 1053 281.23L 1072 280.96L 1087.5 279.95L 1100.6 280.23L 1112 275.41L 1131 275.86L 1146.5 278.58L 1159.6 279.55L 1171 279.08L 1190 279.45L 1205.5 274.59L 1218.6 278.88L 1230 277.95L 1230 279.19L 1218.6 279.24L 1205.5 279.41L 1190 279.47L 1171 279.62L 1159.6 279.68L 1146.5 279.56L 1131 279.78L 1112 280.06L 1100.6 280.59L 1087.5 280.85L 1072 281.28L 1053 281.93L 1041.6 281.41L 1028.5 282.23L 1013 283.44L 994 283.38L 982.63 283.48L 969.51 285.03L 953.99 285.56L 935 287.74L 923.63 287.43L 910.51 289.41L 894.99 295.13L 876 297.23L 864.63 301.11L 851.51 305.95L 835.99 309.8L 817 317.43L 805.63 320.62L 792.51 328.59L 776.99 333.34L 758 336.62L 746.63 335.82L 733.51 336.11L 717.99 334.89L 699 333.16L 687.63 334.11L 674.51 336.78L 658.99 334.11L 640 338.18L 628.63 336.36L 615.51 336.82L 599.99 334.11L 581 338.23L 569.63 336.36L 556.51 339.68L 540.99 344.58L 522 342.74L 510.63 346.77L 497.51 339.82L 481.99 344.58L 463 353.32L 451.63 347.06L 438.51 339.82L 422.99 363.22L 404 353.89L 392.63 347.62L 379.51 340.39L 363.99 330.71L 345 320.25L 333.63 313.98L 320.51 306.75L 304.99 298.2L 286 287.73L 274.63 281.47L 261.51 275.37L 245.99 265.69L 227 256.35L 215.63 250.09L 202.51 242.86L 186.99 234.31L 168 223.84L 143.51 210.35L 109 191.33L 50 157.69" fill="#FF3B30" fill-opacity="0.30196078431372547" stroke="none"/>
    <path d="M 50 158.82L 109 191.33L 143.51 209.78L 168 222.71L 186.99 233.74L 202.51 242.29L 215.63 230.69L 227 236.58L 245.99 223.16L 261.51 215.8L 274.63 223.03L 286 229.46L 304.99 210.84L 320.51 209.57L 333.63 211.3L 345 204.07L 363.99 209.05L 379.51 201.54L 392.63 204.07L 404 205.04L 422.99 199.6L 438.51 193.08L 451.63 194.05L 463 194.4L 481.99 189.7L 497.51 180.9L 510.63 179.77L 522 166.36L 540.99 149.45L 556.51 142.42L 569.63 137.81L 581 133.03L 599.99 131.05L 615.51 128.96L 628.63 127.57L 640 128.15L 658.99 127.58L 674.51 126.26L 687.63 126.91L 699 125.99L 717.99 125.09L 733.51 123.41L 746.63 123.71L 758 123.38L 776.99 122.69L 792.51 121.32L 805.63 121.71L 817 121.57L 835.99 120.63L 851.51 119.81L 864.63 119.77L 876 118.17L 894.99 118.86L 910.51 117.91L 923.63 117.44L 935 115.99L 953.99 116.77L 969.51 115.8L 982.63 115.84L 994 108.35L 1013 114.86L 1028.5 112.83L 1041.6 114.02L 1053 101.51L 1072 111.52L 1087.5 106.35L 1100.6 111L 1112 96.01L 1131 104.27L 1146.5 100.95L 1159.6 104.71L 1171 90.626L 1190 100.05L 1205.5 94.851L 1218.6 99.258L 1230 85.389" fill="none" stroke-width="4" stroke="#007AFF" stroke-opacity="1" stroke-linecap="round" stroke-linejoin="round"/>
    <path d="M 50 157.69L 109 191.33L 143.51 209.78L 168 223.27L 186.99 233.74L 202.51 242.29L 215.63 250.09L 227 255.78L 245.99 265.69L 261.51 274.8L 274.63 281.47L 286 287.73L 304.99 298.2L 320.51 306.75L 333.63 313.98L 345 320.25L 363.99 330.71L 379.51 340.39L 392.63 347.62L 404 334.49L 422.99 363.22L 438.51 339.82L 451.63 347.06L 463 342.74L 481.99 344.58L 497.51 339.68L 510.63 341.34L 522 338.23L 540.99 340.8L 556.51 336.82L 569.63 331.91L 581 332.23L 599.99 331.1L 615.51 332.85L 628.63 328.82L 640 333.14L 658.99 331.1L 674.51 333.46L 687.63 333.55L 699 332.21L 717.99 332.95L 733.51 334.43L 746.63 334.96L 758 335.6L 776.99 332.2L 792.51 328.16L 805.63 320.2L 817 317.01L 835.99 308.31L 851.51 301.97L 864.63 294.88L 876 294.29L 894.99 294.39L 910.51 286.9L 923.63 286.94L 935 287.52L 953.99 284.81L 969.51 284.54L 982.63 282.9L 994 280.56L 1013 283.25L 1028.5 282.04L 1041.6 281.34L 1053 281.74L 1072 281.2L 1087.5 280.62L 1100.6 280.5L 1112 278.8L 1131 278.73L 1146.5 279.31L 1159.6 279.65L 1171 279.48L 1190 279.46L 1205.5 278.1L 1218.6 279.15L 1230 278.87" fill="none" stroke-width="4" stroke="#FF3B30" stroke-opacity="1" stroke-linecap="round" stroke-linejoin="round"/>
    <path d="M 50 158.82L 109 191.33L 143.51 209.78L 168 222.71L 186.99 233.74L 202.51 242.29L 215.63 230.69L 227 236.58L 245.99 223.16L 261.51 215.8L 274.63 223.03L 286 229.46L 304.99 210.84L 320.51 209.57L 333.63 211.3L 345 204.07L 363.99 209.05L 379.51 201.54L 392.63 204.07L 404 205.04L 422.99 199.6L 438.51 193.08L 451.63 194.05L 463 194.4L 481.99 189.7L 497.51 180.9L 510.63 179.77L 522 166.36L 540.99 149.45L 556.51 142.42L 569.63 137.81L 581 133.03L 599.99 131.05L 615.51 128.96L 628.63 127.57L 640 128.15L 658.99 127.58L 674.51 126.26L 687.63 126.91L 699 125.99L 717.99 125.09L 733.51 123.41L 746.63 123.71L 758 123.38L 776.99 122.69L 792.51 121.32L 805.63 121.71L 817 121.57L 835.99 120.63L 851.51 119.81L 864.63 119.77L 876 118.17L 894.99 118.86L 910.51 117.91L 923.63 117.44L 935 115.99L 953.99 116.77L 969.51 115.8L 982.63 115.84L 994 108.35L 1013 114.86L 1028.5 112.83L 1041.6 114.02L 1053 101.51L 1072 111.52L 1087.5 106.35L 1100.6 111L 1112 96.01L 1131 104.27L 1146.5 100.95L 1159.6 104.71L 1171 90.626L 1190 100.05L 1205.5 94.851L 1218.6 99.258L 1230 85.389" fill="none" stroke-width="0.5" stroke="#000000" stroke-opacity="0.30196" stroke-linecap="round" stroke-linejoin="round"/>
    <path d="M 50 157.69L 109 191.33L 143.51 209.78L 168 223.27L 186.99 233.74L 202.51 242.29L 215.63 250.09L 227 255.78L 245.99 265.69L 261.51 274.8L 274.63 281.47L 286 287.73L 304.99 298.2L 320.51 306.75L 333.63 313.98L 345 320.25L 363.99 330.71L 379.51 340.39L 392.63 347.62L 404 334.49L 422.99 363.22L 438.51 339.82L 451.63 347.06L 463 342.74L 481.99 344.58L 497.51 339.68L 510.63 341.34L 522 338.23L 540.99 340.8L 556.51 336.82L 569.63 331.91L 581 332.23L 599.99 331.1L 615.51 332.85L 628.63 328.82L 640 333.14L 658.99 331.1L 674.51 333.46L 687.63 333.55L 699 332.21L 717.99 332.95L 733.51 334.43L 746.63 334.96L 758 335.6L 776.99 332.2L 792.51 328.16L 805.63 320.2L 817 317.01L 835.99 308.31L 851.51 301.97L 864.63 294.88L 876 294.29L 894.99 294.39L 910.51 286.9L 923.63 286.94L 935 287.52L 953.99 284.81L 969.51 284.54L 982.63 282.9L 994 280.56L 1013 283.25L 1028.5 282.04L 1041.6 281.34L 1053 281.74L 1072 281.2L 1087.5 280.62L 1100.6 280.5L 1112 278.8L 1131 278.73L 1146.5 279.31L 1159.6 279.65L 1171 279.48L 1190 279.46L 1205.5 278.1L 1218.6 279.15L 1230 278.87" fill="none" stroke-width="0.5" stroke="#000000" stroke-opacity="0.30196" stroke-linecap="round" stroke-linejoin="round"/>
  </g>
  <path d="M 74 33 L 74 88 L 428 88 L 428 33 z" fill="#FFFFFF" fill-opacity="0.7019607843137254" stroke-width="0.5" stroke="#000000" stroke-opacity="1" stroke-linecap="round" stroke-linejoin="round"/>
  <path d="M 88 52 L 108 52" fill="none" stroke-width="4" stroke="#FF3B30" stroke-opacity="1" stroke-linecap="round" stroke-linejoin="round"/>
  <path d="M 88 52 L 108 52" fill="none" stroke-width="0.5" stroke="#000000" stroke-opacity="0.30196" stroke-linecap="round" stroke-linejoin="round"/>
  <text x="119" y="56.17" font-family="Menlo" font-size="12" font-weight="normal" font-style="normal" fill="#000000" fill-opacity="1">Array&lt;Int&gt; partitioning around middle</text>
  <path d="M 88 69 L 108 69" fill="none" stroke-width="4" stroke="#007AFF" stroke-opacity="1" stroke-linecap="round" stroke-linejoin="round"/>
  <path d="M 88 69 L 108 69" fill="none" stroke-width="0.5" stroke="#000000" stroke-opacity="0.30196" stroke-linecap="round" stroke-linejoin="round"/>
  <text x="119" y="73.17" font-family="Menlo" font-size="12" font-weight="normal" font-style="normal" fill="#000000" fill-opacity="1">TreeArray&lt;Int&gt; partitioning around middle</text>
  <path d="M 50 9 L 50 441 L 1230 441 L 1230 9 z" fill="none" stroke-width="0.5" stroke="#000000" stroke-opacity="1" stroke-linecap="round" stroke-linejoin="round"/>
</svg>
