<!DOCTYPE svg PUBLIC "-//W3C//DTD SVG 1.1//EN" "http://www.w3.org/Graphics/SVG/1.1/DTD/svg11.dtd">
<svg width="1280.0px" height="480.0px" viewBox="0.0 0.0 1280.0 480.0" xmlns="http://www.w3.org/2000/svg" xmlns:xlink="http://www.w3.org/1999/xlink" version="1.1">
  <path d="M 0 0 L 0 480 L 1280 480 L 1280 0 z" fill="#FFFFFF" fill-opacity="1.0" stroke="none"/>
  <text x="50" y="468.7" font-family="Helvetica" font-size="10" font-weight="normal" font-style="normal" fill="#000000" fill-opacity="1">Average per-element processing time over input size (bands: min, mean, mean + 2stddev)</text>
  <a xlink:href="https://github.com/apple/swift-collections-benchmark"><text x="1107" y="468.7" font-family="Helvetica" font-size="10" font-weight="normal" font-style="normal" fill="#000000" fill-opacity="1">swift-collections-benchmark</text></a>
  <path d="M 50 9 L 50 441" fill="none" stroke-width="0.75" stroke="#000000" stroke-opacity="0.49804" stroke-linecap="butt" stroke-linejoin="round"/>
  <text x="47" y="453.7" font-family="Helvetica" font-size="10" font-weight="normal" font-style="normal" fill="#000000" fill-opacity="1">1</text>
  <path d="M 109 9 L 109 441" fill="none" stroke-width="0.75" stroke="#000000" stroke-opacity="0.49804" stroke-linecap="butt" stroke-linejoin="round"/>
  <text x="106" y="453.7" font-family="Helvetica" font-size="10" font-weight="normal" font-style="normal" fill="#000000" fill-opacity="1">2</text>
  <path d="M 168 9 L 168 441" fill="none" stroke-width="0.75" stroke="#000000" stroke-opacity="0.49804" stroke-linecap="butt" stroke-linejoin="round"/>
  <text x="165" y="453.7" font-family="Helvetica" font-size="10" font-weight="normal" font-style="normal" fill="#000000" fill-opacity="1">4</text>
  <path d="M 227 9 L 227 441" fill="none" stroke-width="0.75" stroke="#000000" stroke-opacity="0.49804" stroke-linecap="butt" stroke-linejoin="round"/>
  <text x="224" y="453.7" font-family="Helvetica" font-size="10" font-weight="normal" font-style="normal" fill="#000000" fill-opacity="1">8</text>
  <path d="M 286 9 L 286 441" fill="none" stroke-width="0.75" stroke="#000000" stroke-opacity="0.49804" stroke-linecap="butt" stroke-linejoin="round"/>
  <text x="280" y="453.7" font-family="Helvetica" font-size="10" font-weight="normal" font-style="normal" fill="#000000" fill-opacity="1">16</text>
  <path d="M 345 9 L 345 441" fill="none" stroke-width="0.75" stroke="#000000" stroke-opacity="0.49804" stroke-linecap="butt" stroke-linejoin="round"/>
  <text x="339" y="453.7" font-family="Helvetica" font-size="10" font-weight="normal" font-style="normal" fill="#000000" fill-opacity="1">32</text>
  <path d="M 404 9 L 404 441" fill="none" stroke-width="0.75" stroke="#000000" stroke-opacity="0.49804" stroke-linecap="butt" stroke-linejoin="round"/>
  <text x="398" y="453.7" font-family="Helvetica" font-size="10" font-weight="normal" font-style="normal" fill="#000000" fill-opacity="1">64</text>
  <path d="M 463 9 L 463 441" fill="none" stroke-width="0.75" stroke="#000000" stroke-opacity="0.49804" stroke-linecap="butt" stroke-linejoin="round"/>
  <text x="454.5" y="453.7" font-family="Helvetica" font-size="10" font-weight="normal" font-style="normal" fill="#000000" fill-opacity="1">128</text>
  <path d="M 522 9 L 522 441" fill="none" stroke-width="0.75" stroke="#000000" stroke-opacity="0.49804" stroke-linecap="butt" stroke-linejoin="round"/>
  <text x="513.5" y="453.7" font-family="Helvetica" font-size="10" font-weight="normal" font-style="normal" fill="#000000" fill-opacity="1">256</text>
  <path d="M 581 9 L 581 441" fill="none" stroke-width="0.75" stroke="#000000" stroke-opacity="0.49804" stroke-linecap="butt" stroke-linejoin="round"/>
  <text x="572.5" y="453.7" font-family="Helvetica" font-size="10" font-weight="normal" font-style="normal" fill="#000000" fill-opacity="1">512</text>
  <path d="M 640 9 L 640 441" fill="none" stroke-width="0.75" stroke="#000000" stroke-opacity="0.49804" stroke-linecap="butt" stroke-linejoin="round"/>
  <text x="634.5" y="453.7" font-family="Helvetica" font-size="10" font-weight="normal" font-style="normal" fill="#000000" fill-opacity="1">1k</text>
  <path d="M 699 9 L 699 441" fill="none" stroke-width="0.75" stroke="#000000" stroke-opacity="0.49804" stroke-linecap="butt" stroke-linejoin="round"/>
  <text x="693.5" y="453.7" font-family="Helvetica" font-size="10" font-weight="normal" font-style="normal" fill="#000000" fill-opacity="1">2k</text>
  <path d="M 758 9 L 758 441" fill="none" stroke-width="0.75" stroke="#000000" stroke-opacity="0.49804" stroke-linecap="butt" stroke-linejoin="round"/>
  <text x="752.5" y="453.7" font-family="Helvetica" font-size="10" font-weight="normal" font-style="normal" fill="#000000" fill-opacity="1">4k</text>
  <path d="M 817 9 L 817 441" fill="none" stroke-width="0.75" stroke="#000000" stroke-opacity="0.49804" stroke-linecap="butt" stroke-linejoin="round"/>
  <text x="811.5" y="453.7" font-family="Helvetica" font-size="10" font-weight="normal" font-style="normal" fill="#000000" fill-opacity="1">8k</text>
  <path d="M 876 9 L 876 441" fill="none" stroke-width="0.75" stroke="#000000" stroke-opacity="0.49804" stroke-linecap="butt" stroke-linejoin="round"/>
  <text x="867.5" y="453.7" font-family="Helvetica" font-size="10" font-weight="normal" font-style="normal" fill="#000000" fill-opacity="1">16k</text>
  <path d="M 935 9 L 935 441" fill="none" stroke-width="0.75" stroke="#000000" stroke-opacity="0.49804" stroke-linecap="butt" stroke-linejoin="round"/>
  <text x="926.5" y="453.7" font-family="Helvetica" font-size="10" font-weight="normal" font-style="normal" fill="#000000" fill-opacity="1">32k</text>
  <path d="M 994 9 L 994 441" fill="none" stroke-width="0.75" stroke="#000000" stroke-opacity="0.49804" stroke-linecap="butt" stroke-linejoin="round"/>
  <text x="985.5" y="453.7" font-family="Helvetica" font-size="10" font-weight="normal" font-style="normal" fill="#000000" fill-opacity="1">64k</text>
  <path d="M 1053 9 L 1053 441" fill="none" stroke-width="0.75" stroke="#000000" stroke-opacity="0.49804" stroke-linecap="butt" stroke-linejoin="round"/>
  <text x="1042" y="453.7" font-family="Helvetica" font-size="10" font-weight="normal" font-style="normal" fill="#000000" fill-opacity="1">128k</text>
  <path d="M 1112 9 L 1112 441" fill="none" stroke-width="0.75" stroke="#000000" stroke-opacity="0.49804" stroke-linecap="butt" stroke-linejoin="round"/>
  <text x="1101" y="453.7" font-family="Helvetica" font-size="10" font-weight="normal" font-style="normal" fill="#000000" fill-opacity="1">256k</text>
  <path d="M 1171 9 L 1171 441" fill="none" stroke-width="0.75" stroke="#000000" stroke-opacity="0.49804" stroke-linecap="butt" stroke-linejoin="round"/>
  <text x="1160" y="453.7" font-family="Helvetica" font-size="10" font-weight="normal" font-style="normal" fill="#000000" fill-opacity="1">512k</text>
  <path d="M 1230 9 L 1230 441" fill="none" stroke-width="0.75" stroke="#000000" stroke-opacity="0.49804" stroke-linecap="butt" stroke-linejoin="round"/>
  <text x="1223" y="453.7" font-family="Helvetica" font-size="10" font-weight="normal" font-style="normal" fill="#000000" fill-opacity="1">1M</text>
  <path d="M 50 441 L 1230 441" fill="none" stroke-width="0.75" stroke="#000000" stroke-opacity="0.49804" stroke-linecap="butt" stroke-linejoin="round"/>
  <text x="16" y="442.7" font-family="Helvetica" font-size="10" font-weight="normal" font-style="normal" fill="#000000" fill-opacity="1">100 ps</text>
  <text x="1236" y="442.7" font-family="Helvetica" font-size="10" font-weight="normal" font-style="normal" fill="#000000" fill-opacity="1">100 ps</text>
  <path d="M 50 333 L 1230 333" fill="none" stroke-width="0.75" stroke="#000000" stroke-opacity="0.49804" stroke-linecap="butt" stroke-linejoin="round"/>
  <text x="27" y="334.7" font-family="Helvetica" font-size="10" font-weight="normal" font-style="normal" fill="#000000" fill-opacity="1">1 ns</text>
  <text x="1236" y="334.7" font-family="Helvetica" font-size="10" font-weight="normal" font-style="normal" fill="#000000" fill-opacity="1">1 ns</text>
  <path d="M 50 225 L 1230 225" fill="none" stroke-width="0.75" stroke="#000000" stroke-opacity="0.49804" stroke-linecap="butt" stroke-linejoin="round"/>
  <text x="21" y="226.7" font-family="Helvetica" font-size="10" font-weight="normal" font-style="normal" fill="#000000" fill-opacity="1">10 ns</text>
  <text x="1236" y="226.7" font-family="Helvetica" font-size="10" font-weight="normal" font-style="normal" fill="#000000" fill-opacity="1">10 ns</text>
  <path d="M 50 117 L 1230 117" fill="none" stroke-width="0.75" stroke="#000000" stroke-opacity="0.49804" stroke-linecap="butt" stroke-linejoin="round"/>
  <text x="16" y="118.7" font-family="Helvetica" font-size="10" font-weight="normal" font-style="normal" fill="#000000" fill-opacity="1">100 ns</text>
  <text x="1236" y="118.7" font-family="Helvetica" font-size="10" font-weight="normal" font-style="normal" fill="#000000" fill-opacity="1">100 ns</text>
  <path d="M 50 9 L 1230 9" fill="none" stroke-width="0.75" stroke="#000000" stroke-opacity="0.49804" stroke-linecap="butt" stroke-linejoin="round"/>
  <text x="26" y="10.7" font-family="Helvetica" font-size="10" font-weight="normal" font-style="normal" fill="#000000" fill-opacity="1">1 µs</text>
  <text x="1236" y="10.7" font-family="Helvetica" font-size="10" font-weight="normal" font-style="normal" fill="#000000" fill-opacity="1">1 µs</text>
  <path d="M 50 408.49 L 1230 408.49" fill="none" stroke-width="0.5" stroke="#000000" stroke-opacity="0.25882" stroke-linecap="butt" stroke-linejoin="round" stroke-dasharray="6 3" stroke-dashoffset="0"/>
  <path d="M 50 375.98 L 1230 375.98" fill="none" stroke-width="0.5" stroke="#000000" stroke-opacity="0.25882" stroke-linecap="butt" stroke-linejoin="round" stroke-dasharray="6 3" stroke-dashoffset="0"/>
  <path d="M 50 343.47 L 1230 343.47" fill="none" stroke-width="0.5" stroke="#000000" stroke-opacity="0.25882" stroke-linecap="butt" stroke-linejoin="round" stroke-dasharray="6 3" stroke-dashoffset="0"/>
  <path d="M 50 310.96 L 1230 310.96" fill="none" stroke-width="0.5" stroke="#000000" stroke-opacity="0.25882" stroke-linecap="butt" stroke-linejoin="round" stroke-dasharray="6 3" stroke-dashoffset="0"/>
  <path d="M 50 278.44 L 1230 278.44" fill="none" stroke-width="0.5" stroke="#000000" stroke-opacity="0.25882" stroke-linecap="butt" stroke-linejoin="round" stroke-dasharray="6 3" stroke-dashoffset="0"/>
  <path d="M 50 245.93 L 1230 245.93" fill="none" stroke-width="0.5" stroke="#000000" stroke-opacity="0.25882" stroke-linecap="butt" stroke-linejoin="round" stroke-dasharray="6 3" stroke-dashoffset="0"/>
  <path d="M 50 213.42 L 1230 213.42" fill="none" stroke-width="0.5" stroke="#000000" stroke-opacity="0.25882" stroke-linecap="butt" stroke-linejoin="round" stroke-dasharray="6 3" stroke-dashoffset="0"/>
  <path d="M 50 180.91 L 1230 180.91" fill="none" stroke-width="0.5" stroke="#000000" stroke-opacity="0.25882" stroke-linecap="butt" stroke-linejoin="round" stroke-dasharray="6 3" stroke-dashoffset="0"/>
  <path d="M 50 148.4 L 1230 148.4" fill="none" stroke-width="0.5" stroke="#000000" stroke-opacity="0.25882" stroke-linecap="butt" stroke-linejoin="round" stroke-dasharray="6 3" stroke-dashoffset="0"/>
  <path d="M 50 115.89 L 1230 115.89" fill="none" stroke-width="0.5" stroke="#000000" stroke-opacity="0.25882" stroke-linecap="butt" stroke-linejoin="round" stroke-dasharray="6 3" stroke-dashoffset="0"/>
  <path d="M 50 83.376 L 1230 83.376" fill="none" stroke-width="0.5" stroke="#000000" stroke-opacity="0.25882" stroke-linecap="butt" stroke-linejoin="round" stroke-dasharray="6 3" stroke-dashoffset="0"/>
  <path d="M 50 50.865 L 1230 50.865" fill="none" stroke-width="0.5" stroke="#000000" stroke-opacity="0.25882" stroke-linecap="butt" stroke-linejoin="round" stroke-dasharray="6 3" stroke-dashoffset="0"/>
  <path d="M 50 18.354 L 1230 18.354" fill="none" stroke-width="0.5" stroke="#000000" stroke-opacity="0.25882" stroke-linecap="butt" stroke-linejoin="round" stroke-dasharray="6 3" stroke-dashoffset="0"/>
  <path d="M 74 33 L 74 122 L 514 122 L 514 33 z" fill="#FFFFFF" fill-opacity="1.0" stroke="none"/>
  <clipPath id="clip-0">
    <path d="M 50 9 L 50 441 L 1230 441 L 1230 9 z"/>
  </clipPath>
  <g clip-path="url(#clip-0)">
    <path d="M 50 156.68L 109 191.33L 143.51 210.35L 168 223.84L 186.99 233.18L 202.51 241.73L 215.63 248.96L 227 254.21L 245.99 264.68L 261.51 273.23L 274.63 280.46L 286 288.86L 304.99 297.19L 320.51 257.32L 333.63 264.55L 345 288.3L 363.99 266.99L 379.51 307.31L 392.63 282.77L 404 301.6L 422.99 298.48L 438.51 296.3L 451.63 288.79L 463 294.9L 481.99 293.38L 497.51 301.6L 510.63 291.87L 522 291.41L 540.99 290.86L 556.51 299.26L 569.63 299.45L 581 287.19L 599.99 290.98L 615.51 296.75L 628.63 290.98L 640 292.88L 658.99 292.52L 674.51 286.86L 687.63 289.37L 699 284.94L 717.99 282.86L 733.51 272.83L 746.63 271.32L 758 269.56L 776.99 268.02L 792.51 264.63L 805.63 263.16L 817 257.33L 835.99 251.93L 851.51 254.99L 864.63 254.38L 876 251.79L 894.99 250.91L 910.51 249.3L 923.63 250.01L 935 248.41L 953.99 247.58L 969.51 248.67L 982.63 247.57L 994 248.28L 1013 247.84L 1028.5 245.5L 1041.6 247.73L 1053 247.08L 1072 247.82L 1087.5 246.45L 1100.6 246.93L 1112 247.34L 1131 247.43L 1146.5 246.87L 1159.6 244.08L 1171 246.73L 1190 245.64L 1205.5 246.62L 1218.6 244.01L 1230 246.33L 1230 246.91L 1218.6 246.9L 1205.5 247.23L 1190 247.21L 1171 247.37L 1159.6 247.13L 1146.5 247.49L 1131 247.56L 1112 247.72L 1100.6 247.54L 1087.5 247.72L 1072 248L 1053 248.03L 1041.6 247.78L 1028.5 248.3L 1013 248.11L 994 248.28L 982.63 248.86L 969.51 249.34L 953.99 250.37L 935 249.44L 923.63 251.2L 910.51 251.05L 894.99 251.26L 876 252.73L 864.63 254.43L 851.51 256.4L 835.99 257.43L 817 260.72L 805.63 263.88L 792.51 265.49L 776.99 270.08L 758 274.8L 746.63 276.98L 733.51 281.72L 717.99 283.37L 699 285.61L 687.63 289.39L 674.51 291.66L 658.99 295.05L 640 296.08L 628.63 298.37L 615.51 299.08L 599.99 301.6L 581 299.67L 569.63 299.45L 556.51 304.3L 540.99 301.6L 522 297.9L 510.63 299.45L 497.51 301.6L 481.99 304.78L 463 310.23L 451.63 303.74L 438.51 296.73L 422.99 298.48L 404 301.6L 392.63 314.54L 379.51 307.31L 363.99 298.76L 345 288.3L 333.63 313.98L 320.51 306.75L 304.99 299.33L 286 288.86L 274.63 282.6L 261.51 275.37L 245.99 266.82L 227 256.35L 215.63 248.96L 202.51 241.73L 186.99 233.18L 168 223.84L 143.51 210.35L 109 191.33L 50 158.82" fill="#FFCC00" fill-opacity="0.30196078431372547" stroke="none"/>
    <path d="M 50 156.68L 109 191.33L 143.51 210.35L 168 221.7L 186.99 233.18L 202.51 242.86L 215.63 247.95L 227 255.22L 245.99 265.69L 261.51 274.24L 274.63 282.6L 286 286.72L 304.99 297.19L 320.51 305.74L 333.63 313.98L 345 321.38L 363.99 329.7L 379.51 340.39L 392.63 347.62L 404 352.76L 422.99 313.79L 438.51 338.76L 451.63 345.99L 463 335.84L 481.99 332.28L 497.51 353.13L 510.63 360.36L 522 342.74L 540.99 338.03L 556.51 353.13L 569.63 346.65L 581 338.5L 599.99 341.11L 615.51 342.66L 628.63 339.27L 640 340.52L 658.99 330.25L 674.51 339.87L 687.63 341.46L 699 337.41L 717.99 329.51L 733.51 339.02L 746.63 336.39L 758 333.87L 776.99 337.43L 792.51 336.79L 805.63 334.71L 817 332.06L 835.99 319.24L 851.51 319.12L 864.63 315.58L 876 309.5L 894.99 305.13L 910.51 303.33L 923.63 292.08L 935 296.31L 953.99 282.2L 969.51 284.92L 982.63 286.16L 994 284.87L 1013 276.96L 1028.5 280.85L 1041.6 281.31L 1053 282.17L 1072 279.32L 1087.5 280.38L 1100.6 278.12L 1112 278.77L 1131 279.37L 1146.5 278.61L 1159.6 274.04L 1171 278.18L 1190 275.41L 1205.5 277.6L 1218.6 275.55L 1230 277.63L 1230 277.96L 1218.6 278.03L 1205.5 278.17L 1190 278.48L 1171 278.37L 1159.6 278.56L 1146.5 278.61L 1131 279.42L 1112 279.73L 1100.6 280.14L 1087.5 280.63L 1072 280.95L 1053 282.28L 1041.6 282.66L 1028.5 282.86L 1013 283.88L 994 285.61L 982.63 288.23L 969.51 287.85L 953.99 291.51L 935 297.2L 923.63 297.94L 910.51 303.9L 894.99 308.14L 876 312.95L 864.63 315.94L 851.51 323.39L 835.99 324.12L 817 334.36L 805.63 335.82L 792.51 336.79L 776.99 339.05L 758 339.82L 746.63 336.39L 733.51 341.9L 717.99 343.6L 699 343.85L 687.63 344.05L 674.51 345.93L 658.99 346.54L 640 345.05L 628.63 349.89L 615.51 342.66L 599.99 348.69L 581 347.61L 569.63 346.91L 556.51 353.13L 540.99 352.98L 522 342.74L 510.63 360.36L 497.51 353.13L 481.99 363.22L 463 385.27L 451.63 347.06L 438.51 339.82L 422.99 363.22L 404 352.76L 392.63 347.62L 379.51 340.39L 363.99 331.84L 345 321.38L 333.63 313.98L 320.51 307.88L 304.99 299.33L 286 288.86L 274.63 282.6L 261.51 274.24L 245.99 265.69L 227 255.22L 215.63 250.09L 202.51 242.86L 186.99 233.18L 168 223.84L 143.51 210.35L 109 191.33L 50 158.82" fill="#28CD41" fill-opacity="0.30196078431372547" stroke="none"/>
    <path d="M 50 156.68L 109 191.33L 143.51 208.21L 168 221.7L 186.99 234.31L 202.51 240.72L 215.63 250.09L 227 222.2L 245.99 201.97L 261.51 199.79L 274.63 199.53L 286 198.11L 304.99 214.53L 320.51 204.64L 333.63 206.83L 345 204.41L 363.99 204.41L 379.51 201.73L 392.63 198.31L 404 202.42L 422.99 197.08L 438.51 197.03L 451.63 192.63L 463 200.29L 481.99 193.69L 497.51 186.49L 510.63 159.07L 522 169.24L 540.99 145.27L 556.51 125.61L 569.63 139.87L 581 132.75L 599.99 131.5L 615.51 131.11L 628.63 130.27L 640 130.39L 658.99 128.7L 674.51 126.88L 687.63 126.02L 699 126.78L 717.99 125.2L 733.51 123.57L 746.63 123.72L 758 124.21L 776.99 123.5L 792.51 121.94L 805.63 122.01L 817 119.74L 835.99 120.78L 851.51 118.88L 864.63 120.19L 876 118.13L 894.99 118.9L 910.51 114.32L 923.63 118.3L 935 111.89L 953.99 116.81L 969.51 113.99L 982.63 116.15L 994 106.17L 1013 114.01L 1028.5 106.39L 1041.6 111.28L 1053 97.017L 1072 107.72L 1087.5 103.64L 1100.6 107.55L 1112 95.293L 1131 102.63L 1146.5 98.654L 1159.6 102.5L 1171 90.381L 1190 96.987L 1205.5 90.418L 1218.6 96.343L 1230 85.347L 1230 85.709L 1218.6 96.883L 1205.5 91.403L 1190 97.427L 1171 90.42L 1159.6 102.52L 1146.5 98.788L 1131 103.09L 1112 95.405L 1100.6 107.56L 1087.5 104.25L 1072 108.42L 1053 98.83L 1041.6 113.25L 1028.5 109.3L 1013 114.34L 994 106.89L 982.63 116.33L 969.51 115.12L 953.99 117.44L 935 112.23L 923.63 118.31L 910.51 118.4L 894.99 119.68L 876 118.28L 864.63 120.31L 851.51 120.28L 835.99 121.28L 817 121.94L 805.63 122.62L 792.51 122.61L 776.99 123.6L 758 124.34L 746.63 124.73L 733.51 125.01L 717.99 127.01L 699 127.3L 687.63 127.58L 674.51 127.55L 658.99 130.57L 640 131.87L 628.63 132.54L 615.51 132.45L 599.99 132.79L 581 136.03L 569.63 140.97L 556.51 145.59L 540.99 155.5L 522 176.45L 510.63 181.81L 497.51 189.13L 481.99 196.18L 463 200.33L 451.63 201.89L 438.51 201.51L 422.99 202.52L 404 210.33L 392.63 211.3L 379.51 206.77L 363.99 210.75L 345 212.69L 333.63 216.73L 320.51 215.8L 304.99 214.53L 286 236.58L 274.63 248.96L 261.51 223.09L 245.99 233.74L 227 223.27L 215.63 250.09L 202.51 242.86L 186.99 234.31L 168 223.84L 143.51 210.35L 109 191.33L 50 158.82" fill="#007AFF" fill-opacity="0.30196078431372547" stroke="none"/>
    <path d="M 50 157.69L 109 191.33L 143.51 208.21L 168 221.7L 186.99 232.17L 202.51 240.72L 215.63 250.09L 227 254.21L 245.99 265.69L 261.51 273.23L 274.63 281.47L 286 287.73L 304.99 298.2L 320.51 306.75L 333.63 313.98L 345 320.25L 363.99 330.71L 379.51 340.39L 392.63 347.62L 404 302.97L 422.99 363.22L 438.51 339.82L 451.63 347.06L 463 321.55L 481.99 344.58L 497.51 339.29L 510.63 328.7L 522 327.41L 540.99 331.5L 556.51 329.54L 569.63 321.22L 581 318.51L 599.99 323.49L 615.51 323.16L 628.63 312.37L 640 321.26L 658.99 323.49L 674.51 325.17L 687.63 332.01L 699 329.6L 717.99 327.88L 733.51 330L 746.63 332.61L 758 332.82L 776.99 329.12L 792.51 326.95L 805.63 319.05L 817 315.82L 835.99 304.34L 851.51 292.25L 864.63 280.74L 876 286.86L 894.99 292.36L 910.51 280.46L 923.63 285.59L 935 286.88L 953.99 282.75L 969.51 283.16L 982.63 281.32L 994 273.39L 1013 282.73L 1028.5 281.52L 1041.6 281.17L 1053 281.23L 1072 280.96L 1087.5 279.95L 1100.6 280.23L 1112 275.41L 1131 275.86L 1146.5 278.58L 1159.6 279.55L 1171 279.08L 1190 279.45L 1205.5 274.59L 1218.6 278.88L 1230 277.95L 1230 279.19L 1218.6 279.24L 1205.5 279.41L 1190 279.47L 1171 279.62L 1159.6 279.68L 1146.5 279.56L 1131 279.78L 1112 280.06L 1100.6 280.59L 1087.5 280.85L 1072 281.28L 1053 281.93L 1041.6 281.41L 1028.5 282.23L 1013 283.44L 994 283.38L 982.63 283.48L 969.51 285.03L 953.99 285.56L 935 287.74L 923.63 287.43L 910.51 289.41L 894.99 295.13L 876 297.23L 864.63 301.11L 851.51 305.95L 835.99 309.8L 817 317.43L 805.63 320.62L 792.51 328.59L 776.99 333.34L 758 336.62L 746.63 335.82L 733.51 336.11L 717.99 334.89L 699 333.16L 687.63 334.11L 674.51 336.78L 658.99 334.11L 640 338.18L 628.63 336.36L 615.51 336.82L 599.99 334.11L 581 338.23L 569.63 336.36L 556.51 339.68L 540.99 344.58L 522 342.74L 510.63 346.77L 497.51 339.82L 481.99 344.58L 463 353.32L 451.63 347.06L 438.51 339.82L 422.99 363.22L 404 353.89L 392.63 347.62L 379.51 340.39L 363.99 330.71L 345 320.25L 333.63 313.98L 320.51 306.75L 304.99 298.2L 286 287.73L 274.63 281.47L 261.51 275.37L 245.99 265.69L 227 256.35L 215.63 250.09L 202.51 242.86L 186.99 234.31L 168 223.84L 143.51 210.35L 109 191.33L 50 157.69" fill="#FF3B30" fill-opacity="0.30196078431372547" stroke="none"/>
    <path d="M 50 158.25L 109 191.33L 143.51 210.35L 168 223.84L 186.99 233.18L 202.51 241.73L 215.63 248.96L 227 255.78L 245.99 266.25L 261.51 274.8L 274.63 282.03L 286 288.86L 304.99 298.76L 320.51 288.11L 333.63 295.34L 345 288.3L 363.99 288.18L 379.51 307.31L 392.63 303.96L 404 301.6L 422.99 298.48L 438.51 296.62L 451.63 299.35L 463 305.72L 481.99 301.53L 497.51 301.6L 510.63 297.35L 522 296.12L 540.99 298.55L 556.51 302.93L 569.63 299.45L 581 296.08L 599.99 298.59L 615.51 298.46L 628.63 296.32L 640 295.22L 658.99 294.37L 674.51 290.36L 687.63 289.38L 699 285.44L 717.99 283.24L 733.51 279.23L 746.63 275.43L 758 273.37L 776.99 269.53L 792.51 265.26L 805.63 263.69L 817 259.81L 835.99 255.93L 851.51 256.03L 864.63 254.42L 876 252.48L 894.99 251.17L 910.51 250.58L 923.63 250.89L 935 249.16L 953.99 249.62L 969.51 249.16L 982.63 248.52L 994 248.28L 1013 248.04L 1028.5 247.56L 1041.6 247.77L 1053 247.78L 1072 247.95L 1087.5 247.39L 1100.6 247.38L 1112 247.62L 1131 247.52L 1146.5 247.33L 1159.6 246.32L 1171 247.2L 1190 246.79L 1205.5 247.07L 1218.6 246.13L 1230 246.76" fill="none" stroke-width="4" stroke="#FFCC00" stroke-opacity="1" stroke-linecap="round" stroke-linejoin="round"/>
    <path d="M 50 158.25L 109 191.33L 143.51 210.35L 168 223.27L 186.99 233.18L 202.51 242.86L 215.63 249.52L 227 255.22L 245.99 265.69L 261.51 274.24L 274.63 282.6L 286 288.3L 304.99 298.76L 320.51 307.31L 333.63 313.98L 345 321.38L 363.99 331.27L 379.51 340.39L 392.63 347.62L 404 352.76L 422.99 344.58L 438.51 339.54L 451.63 346.77L 463 366.62L 481.99 352.98L 497.51 353.13L 510.63 360.36L 522 342.74L 540.99 348.59L 556.51 353.13L 569.63 346.84L 581 345.05L 599.99 346.59L 615.51 342.66L 628.63 346.88L 640 343.82L 658.99 341.71L 674.51 344.27L 687.63 343.36L 699 342.08L 717.99 339.49L 733.51 341.13L 746.63 336.39L 758 338.19L 776.99 338.62L 792.51 336.79L 805.63 335.53L 817 333.75L 835.99 322.79L 851.51 322.24L 864.63 315.85L 876 312.02L 894.99 307.34L 910.51 303.75L 923.63 296.34L 935 296.97L 953.99 288.89L 969.51 287.07L 982.63 287.68L 994 285.42L 1013 281.97L 1028.5 282.33L 1041.6 282.31L 1053 282.25L 1072 280.52L 1087.5 280.56L 1100.6 279.6L 1112 279.48L 1131 279.41L 1146.5 278.61L 1159.6 277.33L 1171 278.32L 1190 277.66L 1205.5 278.02L 1218.6 277.37L 1230 277.87" fill="none" stroke-width="4" stroke="#28CD41" stroke-opacity="1" stroke-linecap="round" stroke-linejoin="round"/>
    <path d="M 50 158.25L 109 191.33L 143.51 209.78L 168 223.27L 186.99 234.31L 202.51 242.29L 215.63 250.09L 227 222.99L 245.99 223.16L 261.51 215.8L 274.63 230.32L 286 223.13L 304.99 214.53L 320.51 212.62L 333.63 213.93L 345 210.38L 363.99 209.01L 379.51 205.4L 392.63 207.54L 404 208.13L 422.99 201.03L 438.51 200.3L 451.63 199.29L 463 200.32L 481.99 195.52L 497.51 188.43L 510.63 174.73L 522 174.46L 540.99 152.6L 556.51 139.49L 569.63 140.68L 581 135.15L 599.99 132.45L 615.51 132.09L 628.63 131.93L 640 131.48L 658.99 130.08L 674.51 127.37L 687.63 127.17L 699 127.17L 717.99 126.53L 733.51 124.63L 746.63 124.46L 758 124.3L 776.99 123.57L 792.51 122.43L 805.63 122.46L 817 121.35L 835.99 121.15L 851.51 119.91L 864.63 120.28L 876 118.24L 894.99 119.47L 910.51 117.3L 923.63 118.31L 935 112.14L 953.99 117.28L 969.51 114.82L 982.63 116.29L 994 106.7L 1013 114.25L 1028.5 108.52L 1041.6 112.73L 1053 98.35L 1072 108.24L 1087.5 104.09L 1100.6 107.56L 1112 95.376L 1131 102.97L 1146.5 98.753L 1159.6 102.52L 1171 90.41L 1190 97.312L 1205.5 91.144L 1218.6 96.741L 1230 85.614" fill="none" stroke-width="4" stroke="#007AFF" stroke-opacity="1" stroke-linecap="round" stroke-linejoin="round"/>
    <path d="M 50 157.69L 109 191.33L 143.51 209.78L 168 223.27L 186.99 233.74L 202.51 242.29L 215.63 250.09L 227 255.78L 245.99 265.69L 261.51 274.8L 274.63 281.47L 286 287.73L 304.99 298.2L 320.51 306.75L 333.63 313.98L 345 320.25L 363.99 330.71L 379.51 340.39L 392.63 347.62L 404 334.49L 422.99 363.22L 438.51 339.82L 451.63 347.06L 463 342.74L 481.99 344.58L 497.51 339.68L 510.63 341.34L 522 338.23L 540.99 340.8L 556.51 336.82L 569.63 331.91L 581 332.23L 599.99 331.1L 615.51 332.85L 628.63 328.82L 640 333.14L 658.99 331.1L 674.51 333.46L 687.63 333.55L 699 332.21L 717.99 332.95L 733.51 334.43L 746.63 334.96L 758 335.6L 776.99 332.2L 792.51 328.16L 805.63 320.2L 817 317.01L 835.99 308.31L 851.51 301.97L 864.63 294.88L 876 294.29L 894.99 294.39L 910.51 286.9L 923.63 286.94L 935 287.52L 953.99 284.81L 969.51 284.54L 982.63 282.9L 994 280.56L 1013 283.25L 1028.5 282.04L 1041.6 281.34L 1053 281.74L 1072 281.2L 1087.5 280.62L 1100.6 280.5L 1112 278.8L 1131 278.73L 1146.5 279.31L 1159.6 279.65L 1171 279.48L 1190 279.46L 1205.5 278.1L 1218.6 279.15L 1230 278.87" fill="none" stroke-width="4" stroke="#FF3B30" stroke-opacity="1" stroke-linecap="round" stroke-linejoin="round"/>
    <path d="M 50 158.25L 109 191.33L 143.51 210.35L 168 223.84L 186.99 233.18L 202.51 241.73L 215.63 248.96L 227 255.78L 245.99 266.25L 261.51 274.8L 274.63 282.03L 286 288.86L 304.99 298.76L 320.51 288.11L 333.63 295.34L 345 288.3L 363.99 288.18L 379.51 307.31L 392.63 303.96L 404 301.6L 422.99 298.48L 438.51 296.62L 451.63 299.35L 463 305.72L 481.99 301.53L 497.51 301.6L 510.63 297.35L 522 296.12L 540.99 298.55L 556.51 302.93L 569.63 299.45L 581 296.08L 599.99 298.59L 615.51 298.46L 628.63 296.32L 640 295.22L 658.99 294.37L 674.51 290.36L 687.63 289.38L 699 285.44L 717.99 283.24L 733.51 279.23L 746.63 275.43L 758 273.37L 776.99 269.53L 792.51 265.26L 805.63 263.69L 817 259.81L 835.99 255.93L 851.51 256.03L 864.63 254.42L 876 252.48L 894.99 251.17L 910.51 250.58L 923.63 250.89L 935 249.16L 953.99 249.62L 969.51 249.16L 982.63 248.52L 994 248.28L 1013 248.04L 1028.5 247.56L 1041.6 247.77L 1053 247.78L 1072 247.95L 1087.5 247.39L 1100.6 247.38L 1112 247.62L 1131 247.52L 1146.5 247.33L 1159.6 246.32L 1171 247.2L 1190 246.79L 1205.5 247.07L 1218.6 246.13L 1230 246.76" fill="none" stroke-width="0.5" stroke="#000000" stroke-opacity="0.30196" stroke-linecap="round" stroke-linejoin="round"/>
    <path d="M 50 158.25L 109 191.33L 143.51 210.35L 168 223.27L 186.99 233.18L 202.51 242.86L 215.63 249.52L 227 255.22L 245.99 265.69L 261.51 274.24L 274.63 282.6L 286 288.3L 304.99 298.76L 320.51 307.31L 333.63 313.98L 345 321.38L 363.99 331.27L 379.51 340.39L 392.63 347.62L 404 352.76L 422.99 344.58L 438.51 339.54L 451.63 346.77L 463 366.62L 481.99 352.98L 497.51 353.13L 510.63 360.36L 522 342.74L 540.99 348.59L 556.51 353.13L 569.63 346.84L 581 345.05L 599.99 346.59L 615.51 342.66L 628.63 346.88L 640 343.82L 658.99 341.71L 674.51 344.27L 687.63 343.36L 699 342.08L 717.99 339.49L 733.51 341.13L 746.63 336.39L 758 338.19L 776.99 338.62L 792.51 336.79L 805.63 335.53L 817 333.75L 835.99 322.79L 851.51 322.24L 864.63 315.85L 876 312.02L 894.99 307.34L 910.51 303.75L 923.63 296.34L 935 296.97L 953.99 288.89L 969.51 287.07L 982.63 287.68L 994 285.42L 1013 281.97L 1028.5 282.33L 1041.6 282.31L 1053 282.25L 1072 280.52L 1087.5 280.56L 1100.6 279.6L 1112 279.48L 1131 279.41L 1146.5 278.61L 1159.6 277.33L 1171 278.32L 1190 277.66L 1205.5 278.02L 1218.6 277.37L 1230 277.87" fill="none" stroke-width="0.5" stroke="#000000" stroke-opacity="0.30196" stroke-linecap="round" stroke-linejoin="round"/>
    <path d="M 50 158.25L 109 191.33L 143.51 209.78L 168 223.27L 186.99 234.31L 202.51 242.29L 215.63 250.09L 227 222.99L 245.99 223.16L 261.51 215.8L 274.63 230.32L 286 223.13L 304.99 214.53L 320.51 212.62L 333.63 213.93L 345 210.38L 363.99 209.01L 379.51 205.4L 392.63 207.54L 404 208.13L 422.99 201.03L 438.51 200.3L 451.63 199.29L 463 200.32L 481.99 195.52L 497.51 188.43L 510.63 174.73L 522 174.46L 540.99 152.6L 556.51 139.49L 569.63 140.68L 581 135.15L 599.99 132.45L 615.51 132.09L 628.63 131.93L 640 131.48L 658.99 130.08L 674.51 127.37L 687.63 127.17L 699 127.17L 717.99 126.53L 733.51 124.63L 746.63 124.46L 758 124.3L 776.99 123.57L 792.51 122.43L 805.63 122.46L 817 121.35L 835.99 121.15L 851.51 119.91L 864.63 120.28L 876 118.24L 894.99 119.47L 910.51 117.3L 923.63 118.31L 935 112.14L 953.99 117.28L 969.51 114.82L 982.63 116.29L 994 106.7L 1013 114.25L 1028.5 108.52L 1041.6 112.73L 1053 98.35L 1072 108.24L 1087.5 104.09L 1100.6 107.56L 1112 95.376L 1131 102.97L 1146.5 98.753L 1159.6 102.52L 1171 90.41L 1190 97.312L 1205.5 91.144L 1218.6 96.741L 1230 85.614" fill="none" stroke-width="0.5" stroke="#000000" stroke-opacity="0.30196" stroke-linecap="round" stroke-linejoin="round"/>
    <path d="M 50 157.69L 109 191.33L 143.51 209.78L 168 223.27L 186.99 233.74L 202.51 242.29L 215.63 250.09L 227 255.78L 245.99 265.69L 261.51 274.8L 274.63 281.47L 286 287.73L 304.99 298.2L 320.51 306.75L 333.63 313.98L 345 320.25L 363.99 330.71L 379.51 340.39L 392.63 347.62L 404 334.49L 422.99 363.22L 438.51 339.82L 451.63 347.06L 463 342.74L 481.99 344.58L 497.51 339.68L 510.63 341.34L 522 338.23L 540.99 340.8L 556.51 336.82L 569.63 331.91L 581 332.23L 599.99 331.1L 615.51 332.85L 628.63 328.82L 640 333.14L 658.99 331.1L 674.51 333.46L 687.63 333.55L 699 332.21L 717.99 332.95L 733.51 334.43L 746.63 334.96L 758 335.6L 776.99 332.2L 792.51 328.16L 805.63 320.2L 817 317.01L 835.99 308.31L 851.51 301.97L 864.63 294.88L 876 294.29L 894.99 294.39L 910.51 286.9L 923.63 286.94L 935 287.52L 953.99 284.81L 969.51 284.54L 982.63 282.9L 994 280.56L 1013 283.25L 1028.5 282.04L 1041.6 281.34L 1053 281.74L 1072 281.2L 1087.5 280.62L 1100.6 280.5L 1112 278.8L 1131 278.73L 1146.5 279.31L 1159.6 279.65L 1171 279.48L 1190 279.46L 1205.5 278.1L 1218.6 279.15L 1230 278.87" fill="none" stroke-width="0.5" stroke="#000000" stroke-opacity="0.30196" stroke-linecap="round" stroke-linejoin="round"/>
  </g>
  <path d="M 74 33 L 74 122 L 514 122 L 514 33 z" fill="#FFFFFF" fill-opacity="0.7019607843137254" stroke-width="0.5" stroke="#000000" stroke-opacity="1" stroke-linecap="round" stroke-linejoin="round"/>
  <path d="M 88 52 L 108 52" fill="none" stroke-width="4" stroke="#FF3B30" stroke-opacity="1" stroke-linecap="round" stroke-linejoin="round"/>
  <path d="M 88 52 L 108 52" fill="none" stroke-width="0.5" stroke="#000000" stroke-opacity="0.30196" stroke-linecap="round" stroke-linejoin="round"/>
  <text x="119" y="56.17" font-family="Menlo" font-size="12" font-weight="normal" font-style="normal" fill="#000000" fill-opacity="1">Array&lt;Int&gt; partitioning around middle</text>
  <path d="M 88 69 L 108 69" fill="none" stroke-width="4" stroke="#007AFF" stroke-opacity="1" stroke-linecap="round" stroke-linejoin="round"/>
  <path d="M 88 69 L 108 69" fill="none" stroke-width="0.5" stroke="#000000" stroke-opacity="0.30196" stroke-linecap="round" stroke-linejoin="round"/>
  <text x="119" y="73.17" font-family="Menlo" font-size="12" font-weight="normal" font-style="normal" fill="#000000" fill-opacity="1">TreeArray&lt;Int&gt; partitioning around middle</text>
  <path d="M 88 86 L 108 86" fill="none" stroke-width="4" stroke="#28CD41" stroke-opacity="1" stroke-linecap="round" stroke-linejoin="round"/>
  <path d="M 88 86 L 108 86" fill="none" stroke-width="0.5" stroke="#000000" stroke-opacity="0.30196" stroke-linecap="round" stroke-linejoin="round"/>
  <text x="119" y="90.17" font-family="Menlo" font-size="12" font-weight="normal" font-style="normal" fill="#000000" fill-opacity="1">Deque&lt;Int&gt; partitioning around middle (contiguous)</text>
  <path d="M 88 103 L 108 103" fill="none" stroke-width="4" stroke="#FFCC00" stroke-opacity="1" stroke-linecap="round" stroke-linejoin="round"/>
  <path d="M 88 103 L 108 103" fill="none" stroke-width="0.5" stroke="#000000" stroke-opacity="0.30196" stroke-linecap="round" stroke-linejoin="round"/>
  <text x="119" y="107.17" font-family="Menlo" font-size="12" font-weight="normal" font-style="normal" fill="#000000" fill-opacity="1">Deque&lt;Int&gt; partitioning around middle (discontiguous)</text>
  <path d="M 50 9 L 50 441 L 1230 441 L 1230 9 z" fill="none" stroke-width="0.5" stroke="#000000" stroke-opacity="1" stroke-linecap="round" stroke-linejoin="round"/>
</svg>
