<!DOCTYPE svg PUBLIC "-//W3C//DTD SVG 1.1//EN" "http://www.w3.org/Graphics/SVG/1.1/DTD/svg11.dtd">
<svg width="1280.0px" height="480.0px" viewBox="0.0 0.0 1280.0 480.0" xmlns="http://www.w3.org/2000/svg" xmlns:xlink="http://www.w3.org/1999/xlink" version="1.1">
  <path d="M 0 0 L 0 480 L 1280 480 L 1280 0 z" fill="#FFFFFF" fill-opacity="1.0" stroke="none"/>
  <text x="50" y="468.7" font-family="Helvetica" font-size="10" font-weight="normal" font-style="normal" fill="#000000" fill-opacity="1">Average per-element processing time over input size (bands: min, mean, mean + 2stddev)</text>
  <a xlink:href="https://github.com/apple/swift-collections-benchmark"><text x="1107" y="468.7" font-family="Helvetica" font-size="10" font-weight="normal" font-style="normal" fill="#000000" fill-opacity="1">swift-collections-benchmark</text></a>
  <path d="M 50 9 L 50 441" fill="none" stroke-width="0.75" stroke="#000000" stroke-opacity="0.49804" stroke-linecap="butt" stroke-linejoin="round"/>
  <text x="47" y="453.7" font-family="Helvetica" font-size="10" font-weight="normal" font-style="normal" fill="#000000" fill-opacity="1">1</text>
  <path d="M 109 9 L 109 441" fill="none" stroke-width="0.75" stroke="#000000" stroke-opacity="0.49804" stroke-linecap="butt" stroke-linejoin="round"/>
  <text x="106" y="453.7" font-family="Helvetica" font-size="10" font-weight="normal" font-style="normal" fill="#000000" fill-opacity="1">2</text>
  <path d="M 168 9 L 168 441" fill="none" stroke-width="0.75" stroke="#000000" stroke-opacity="0.49804" stroke-linecap="butt" stroke-linejoin="round"/>
  <text x="165" y="453.7" font-family="Helvetica" font-size="10" font-weight="normal" font-style="normal" fill="#000000" fill-opacity="1">4</text>
  <path d="M 227 9 L 227 441" fill="none" stroke-width="0.75" stroke="#000000" stroke-opacity="0.49804" stroke-linecap="butt" stroke-linejoin="round"/>
  <text x="224" y="453.7" font-family="Helvetica" font-size="10" font-weight="normal" font-style="normal" fill="#000000" fill-opacity="1">8</text>
  <path d="M 286 9 L 286 441" fill="none" stroke-width="0.75" stroke="#000000" stroke-opacity="0.49804" stroke-linecap="butt" stroke-linejoin="round"/>
  <text x="280" y="453.7" font-family="Helvetica" font-size="10" font-weight="normal" font-style="normal" fill="#000000" fill-opacity="1">16</text>
  <path d="M 345 9 L 345 441" fill="none" stroke-width="0.75" stroke="#000000" stroke-opacity="0.49804" stroke-linecap="butt" stroke-linejoin="round"/>
  <text x="339" y="453.7" font-family="Helvetica" font-size="10" font-weight="normal" font-style="normal" fill="#000000" fill-opacity="1">32</text>
  <path d="M 404 9 L 404 441" fill="none" stroke-width="0.75" stroke="#000000" stroke-opacity="0.49804" stroke-linecap="butt" stroke-linejoin="round"/>
  <text x="398" y="453.7" font-family="Helvetica" font-size="10" font-weight="normal" font-style="normal" fill="#000000" fill-opacity="1">64</text>
  <path d="M 463 9 L 463 441" fill="none" stroke-width="0.75" stroke="#000000" stroke-opacity="0.49804" stroke-linecap="butt" stroke-linejoin="round"/>
  <text x="454.5" y="453.7" font-family="Helvetica" font-size="10" font-weight="normal" font-style="normal" fill="#000000" fill-opacity="1">128</text>
  <path d="M 522 9 L 522 441" fill="none" stroke-width="0.75" stroke="#000000" stroke-opacity="0.49804" stroke-linecap="butt" stroke-linejoin="round"/>
  <text x="513.5" y="453.7" font-family="Helvetica" font-size="10" font-weight="normal" font-style="normal" fill="#000000" fill-opacity="1">256</text>
  <path d="M 581 9 L 581 441" fill="none" stroke-width="0.75" stroke="#000000" stroke-opacity="0.49804" stroke-linecap="butt" stroke-linejoin="round"/>
  <text x="572.5" y="453.7" font-family="Helvetica" font-size="10" font-weight="normal" font-style="normal" fill="#000000" fill-opacity="1">512</text>
  <path d="M 640 9 L 640 441" fill="none" stroke-width="0.75" stroke="#000000" stroke-opacity="0.49804" stroke-linecap="butt" stroke-linejoin="round"/>
  <text x="634.5" y="453.7" font-family="Helvetica" font-size="10" font-weight="normal" font-style="normal" fill="#000000" fill-opacity="1">1k</text>
  <path d="M 699 9 L 699 441" fill="none" stroke-width="0.75" stroke="#000000" stroke-opacity="0.49804" stroke-linecap="butt" stroke-linejoin="round"/>
  <text x="693.5" y="453.7" font-family="Helvetica" font-size="10" font-weight="normal" font-style="normal" fill="#000000" fill-opacity="1">2k</text>
  <path d="M 758 9 L 758 441" fill="none" stroke-width="0.75" stroke="#000000" stroke-opacity="0.49804" stroke-linecap="butt" stroke-linejoin="round"/>
  <text x="752.5" y="453.7" font-family="Helvetica" font-size="10" font-weight="normal" font-style="normal" fill="#000000" fill-opacity="1">4k</text>
  <path d="M 817 9 L 817 441" fill="none" stroke-width="0.75" stroke="#000000" stroke-opacity="0.49804" stroke-linecap="butt" stroke-linejoin="round"/>
  <text x="811.5" y="453.7" font-family="Helvetica" font-size="10" font-weight="normal" font-style="normal" fill="#000000" fill-opacity="1">8k</text>
  <path d="M 876 9 L 876 441" fill="none" stroke-width="0.75" stroke="#000000" stroke-opacity="0.49804" stroke-linecap="butt" stroke-linejoin="round"/>
  <text x="867.5" y="453.7" font-family="Helvetica" font-size="10" font-weight="normal" font-style="normal" fill="#000000" fill-opacity="1">16k</text>
  <path d="M 935 9 L 935 441" fill="none" stroke-width="0.75" stroke="#000000" stroke-opacity="0.49804" stroke-linecap="butt" stroke-linejoin="round"/>
  <text x="926.5" y="453.7" font-family="Helvetica" font-size="10" font-weight="normal" font-style="normal" fill="#000000" fill-opacity="1">32k</text>
  <path d="M 994 9 L 994 441" fill="none" stroke-width="0.75" stroke="#000000" stroke-opacity="0.49804" stroke-linecap="butt" stroke-linejoin="round"/>
  <text x="985.5" y="453.7" font-family="Helvetica" font-size="10" font-weight="normal" font-style="normal" fill="#000000" fill-opacity="1">64k</text>
  <path d="M 1053 9 L 1053 441" fill="none" stroke-width="0.75" stroke="#000000" stroke-opacity="0.49804" stroke-linecap="butt" stroke-linejoin="round"/>
  <text x="1042" y="453.7" font-family="Helvetica" font-size="10" font-weight="normal" font-style="normal" fill="#000000" fill-opacity="1">128k</text>
  <path d="M 1112 9 L 1112 441" fill="none" stroke-width="0.75" stroke="#000000" stroke-opacity="0.49804" stroke-linecap="butt" stroke-linejoin="round"/>
  <text x="1101" y="453.7" font-family="Helvetica" font-size="10" font-weight="normal" font-style="normal" fill="#000000" fill-opacity="1">256k</text>
  <path d="M 1171 9 L 1171 441" fill="none" stroke-width="0.75" stroke="#000000" stroke-opacity="0.49804" stroke-linecap="butt" stroke-linejoin="round"/>
  <text x="1160" y="453.7" font-family="Helvetica" font-size="10" font-weight="normal" font-style="normal" fill="#000000" fill-opacity="1">512k</text>
  <path d="M 1230 9 L 1230 441" fill="none" stroke-width="0.75" stroke="#000000" stroke-opacity="0.49804" stroke-linecap="butt" stroke-linejoin="round"/>
  <text x="1223" y="453.7" font-family="Helvetica" font-size="10" font-weight="normal" font-style="normal" fill="#000000" fill-opacity="1">1M</text>
  <path d="M 50 441 L 1230 441" fill="none" stroke-width="0.75" stroke="#000000" stroke-opacity="0.49804" stroke-linecap="butt" stroke-linejoin="round"/>
  <text x="27" y="442.7" font-family="Helvetica" font-size="10" font-weight="normal" font-style="normal" fill="#000000" fill-opacity="1">1 ns</text>
  <text x="1236" y="442.7" font-family="Helvetica" font-size="10" font-weight="normal" font-style="normal" fill="#000000" fill-opacity="1">1 ns</text>
  <path d="M 50 297 L 1230 297" fill="none" stroke-width="0.75" stroke="#000000" stroke-opacity="0.49804" stroke-linecap="butt" stroke-linejoin="round"/>
  <text x="21" y="298.7" font-family="Helvetica" font-size="10" font-weight="normal" font-style="normal" fill="#000000" fill-opacity="1">10 ns</text>
  <text x="1236" y="298.7" font-family="Helvetica" font-size="10" font-weight="normal" font-style="normal" fill="#000000" fill-opacity="1">10 ns</text>
  <path d="M 50 153 L 1230 153" fill="none" stroke-width="0.75" stroke="#000000" stroke-opacity="0.49804" stroke-linecap="butt" stroke-linejoin="round"/>
  <text x="16" y="154.7" font-family="Helvetica" font-size="10" font-weight="normal" font-style="normal" fill="#000000" fill-opacity="1">100 ns</text>
  <text x="1236" y="154.7" font-family="Helvetica" font-size="10" font-weight="normal" font-style="normal" fill="#000000" fill-opacity="1">100 ns</text>
  <path d="M 50 9 L 1230 9" fill="none" stroke-width="0.75" stroke="#000000" stroke-opacity="0.49804" stroke-linecap="butt" stroke-linejoin="round"/>
  <text x="26" y="10.7" font-family="Helvetica" font-size="10" font-weight="normal" font-style="normal" fill="#000000" fill-opacity="1">1 µs</text>
  <text x="1236" y="10.7" font-family="Helvetica" font-size="10" font-weight="normal" font-style="normal" fill="#000000" fill-opacity="1">1 µs</text>
  <path d="M 50 397.65 L 1230 397.65" fill="none" stroke-width="0.5" stroke="#000000" stroke-opacity="0.25882" stroke-linecap="butt" stroke-linejoin="round" stroke-dasharray="6 3" stroke-dashoffset="0"/>
  <path d="M 50 354.3 L 1230 354.3" fill="none" stroke-width="0.5" stroke="#000000" stroke-opacity="0.25882" stroke-linecap="butt" stroke-linejoin="round" stroke-dasharray="6 3" stroke-dashoffset="0"/>
  <path d="M 50 310.96 L 1230 310.96" fill="none" stroke-width="0.5" stroke="#000000" stroke-opacity="0.25882" stroke-linecap="butt" stroke-linejoin="round" stroke-dasharray="6 3" stroke-dashoffset="0"/>
  <path d="M 50 267.61 L 1230 267.61" fill="none" stroke-width="0.5" stroke="#000000" stroke-opacity="0.25882" stroke-linecap="butt" stroke-linejoin="round" stroke-dasharray="6 3" stroke-dashoffset="0"/>
  <path d="M 50 224.26 L 1230 224.26" fill="none" stroke-width="0.5" stroke="#000000" stroke-opacity="0.25882" stroke-linecap="butt" stroke-linejoin="round" stroke-dasharray="6 3" stroke-dashoffset="0"/>
  <path d="M 50 180.91 L 1230 180.91" fill="none" stroke-width="0.5" stroke="#000000" stroke-opacity="0.25882" stroke-linecap="butt" stroke-linejoin="round" stroke-dasharray="6 3" stroke-dashoffset="0"/>
  <path d="M 50 137.56 L 1230 137.56" fill="none" stroke-width="0.5" stroke="#000000" stroke-opacity="0.25882" stroke-linecap="butt" stroke-linejoin="round" stroke-dasharray="6 3" stroke-dashoffset="0"/>
  <path d="M 50 94.213 L 1230 94.213" fill="none" stroke-width="0.5" stroke="#000000" stroke-opacity="0.25882" stroke-linecap="butt" stroke-linejoin="round" stroke-dasharray="6 3" stroke-dashoffset="0"/>
  <path d="M 50 50.865 L 1230 50.865" fill="none" stroke-width="0.5" stroke="#000000" stroke-opacity="0.25882" stroke-linecap="butt" stroke-linejoin="round" stroke-dasharray="6 3" stroke-dashoffset="0"/>
  <path d="M 74 33 L 74 88 L 269 88 L 269 33 z" fill="#FFFFFF" fill-opacity="1.0" stroke="none"/>
  <clipPath id="clip-0">
    <path d="M 50 9 L 50 441 L 1230 441 L 1230 9 z"/>
  </clipPath>
  <g clip-path="url(#clip-0)">
    <path d="M 50 108.57L 109 164.65L 143.51 177.28L 168 208L 186.99 221.58L 202.51 219.25L 215.63 228.89L 227 217L 245.99 239.7L 261.51 233.66L 274.63 242.45L 286 237.64L 304.99 240.15L 320.51 246.58L 333.63 247.15L 345 240.61L 363.99 245.42L 379.51 237.45L 392.63 242.76L 404 232.58L 422.99 234.65L 438.51 228.4L 451.63 207.58L 463 211.01L 481.99 206.39L 497.51 184.91L 510.63 178.64L 522 188.58L 540.99 176.72L 556.51 179.91L 569.63 179.15L 581 178.68L 599.99 176.92L 615.51 172.61L 628.63 169.92L 640 166.85L 658.99 160.14L 674.51 160.27L 687.63 160.35L 699 156.68L 717.99 157.35L 733.51 156.16L 746.63 153.25L 758 153.39L 776.99 154.18L 792.51 151.18L 805.63 151.44L 817 148.24L 835.99 149.64L 851.51 147.61L 864.63 145.76L 876 145.71L 894.99 145.2L 910.51 143.7L 923.63 143.27L 935 141.5L 953.99 140.26L 969.51 139.41L 982.63 139L 994 135.18L 1013 136.22L 1028.5 137.26L 1041.6 135.69L 1053 127.63L 1072 134.4L 1087.5 129.49L 1100.6 131.26L 1112 115.95L 1131 129.09L 1146.5 120.31L 1159.6 126.95L 1171 112.76L 1190 122.24L 1205.5 113.28L 1218.6 118.23L 1230 106.48L 1230 109.94L 1218.6 120.46L 1205.5 118.5L 1190 122.83L 1171 114.32L 1159.6 127.76L 1146.5 123.52L 1131 129.14L 1112 121.46L 1100.6 133.08L 1087.5 131.54L 1072 135.32L 1053 128.44L 1041.6 137.11L 1028.5 137.46L 1013 138.6L 994 135.23L 982.63 139.54L 969.51 140.25L 953.99 141.04L 935 141.95L 923.63 143.37L 910.51 143.77L 894.99 145.57L 876 145.98L 864.63 147.97L 851.51 148.1L 835.99 149.74L 817 150.17L 805.63 151.94L 792.51 152.34L 776.99 154.75L 758 154.98L 746.63 155.89L 733.51 157.09L 717.99 158.72L 699 159.13L 687.63 161.07L 674.51 163.75L 658.99 167.35L 640 170.16L 628.63 172.91L 615.51 175.61L 599.99 178.54L 581 178.83L 569.63 179.66L 556.51 181.53L 540.99 186.57L 522 189.27L 510.63 192.47L 497.51 198.39L 481.99 210.96L 463 217.22L 451.63 216.74L 438.51 228.4L 422.99 234.71L 404 232.64L 392.63 242.76L 379.51 246.11L 363.99 251.05L 345 247.34L 333.63 255.81L 320.51 256.45L 304.99 251.2L 286 251.16L 274.63 242.81L 261.51 251.1L 245.99 239.7L 227 236.94L 215.63 228.89L 202.51 219.25L 186.99 221.58L 168 208L 143.51 207.75L 109 164.65L 50 139.04" fill="#007AFF" fill-opacity="0.30196078431372547" stroke="none"/>
    <path d="M 50 207.25L 109 249.25L 143.51 275.96L 168 295.46L 186.99 306.56L 202.51 317.96L 215.63 327.6L 227 335.95L 245.99 351.25L 261.51 361.31L 274.63 370.95L 286 379.3L 304.99 328.22L 320.51 363.4L 333.63 372.29L 345 325.31L 363.99 337.32L 379.51 337.8L 392.63 315.98L 404 290.92L 422.99 294.67L 438.51 287.28L 451.63 290.36L 463 286.12L 481.99 291.78L 497.51 283.98L 510.63 284.33L 522 296.59L 540.99 289.39L 556.51 277.85L 569.63 280.05L 581 289.54L 599.99 282.29L 615.51 273.95L 628.63 266.13L 640 263.91L 658.99 249.91L 674.51 244.33L 687.63 236.78L 699 232.5L 717.99 230.59L 733.51 225.55L 746.63 224.08L 758 221.64L 776.99 218.79L 792.51 217.52L 805.63 215.19L 817 213.22L 835.99 208.55L 851.51 205.64L 864.63 207.57L 876 203.62L 894.99 205.93L 910.51 204.94L 923.63 203.94L 935 202.31L 953.99 201.17L 969.51 199.7L 982.63 198.57L 994 189.53L 1013 196.24L 1028.5 195.15L 1041.6 194.18L 1053 192.81L 1072 191.43L 1087.5 190.71L 1100.6 189.75L 1112 185.17L 1131 183.14L 1146.5 186.75L 1159.6 185.36L 1171 184.58L 1190 183.79L 1205.5 174.22L 1218.6 182.33L 1230 180.88L 1230 181.1L 1218.6 182.37L 1205.5 183.42L 1190 184.2L 1171 184.84L 1159.6 185.84L 1146.5 186.85L 1131 188.09L 1112 188.62L 1100.6 189.87L 1087.5 191.21L 1072 192.26L 1053 192.94L 1041.6 194.24L 1028.5 195.5L 1013 196.66L 994 197.49L 982.63 199.22L 969.51 200.32L 953.99 201.45L 935 202.56L 923.63 204.04L 910.51 205.28L 894.99 206.41L 876 207.83L 864.63 209.88L 851.51 210.89L 835.99 212.18L 817 213.36L 805.63 215.68L 792.51 217.61L 776.99 218.9L 758 221.89L 746.63 224.34L 733.51 227.34L 717.99 231.54L 699 235.89L 687.63 239.83L 674.51 244.75L 658.99 255.87L 640 266.85L 628.63 268.9L 615.51 276.7L 599.99 287.43L 581 294.93L 569.63 280.05L 556.51 288.26L 540.99 293.67L 522 300.62L 510.63 288.07L 497.51 290.66L 481.99 301.04L 463 305.07L 451.63 294.43L 438.51 291.93L 422.99 301.04L 404 298.48L 392.63 329.51L 379.51 337.8L 363.99 337.9L 345 355.79L 333.63 372.29L 320.51 363.4L 304.99 396.11L 286 382.15L 274.63 373.8L 261.51 364.16L 245.99 351.25L 227 338.8L 215.63 330.45L 202.51 320.81L 186.99 309.41L 168 295.46L 143.51 275.96L 109 252.11L 50 207.25" fill="#FF3B30" fill-opacity="0.30196078431372547" stroke="none"/>
    <path d="M 50 129.55L 109 164.65L 143.51 198.25L 168 208L 186.99 221.58L 202.51 219.25L 215.63 228.89L 227 231.09L 245.99 239.7L 261.51 246.05L 274.63 242.72L 286 247.34L 304.99 248.12L 320.51 253.72L 333.63 253.43L 345 245.51L 363.99 249.53L 379.51 243.73L 392.63 242.76L 404 232.63L 422.99 234.7L 438.51 228.4L 451.63 214.21L 463 215.54L 481.99 209.73L 497.51 194.58L 510.63 188.55L 522 189.09L 540.99 183.84L 556.51 181.1L 569.63 179.53L 581 178.79L 599.99 178.11L 615.51 174.81L 628.63 172.12L 640 169.27L 658.99 165.39L 674.51 162.82L 687.63 160.88L 699 158.48L 717.99 158.36L 733.51 156.85L 746.63 155.19L 758 154.56L 776.99 154.6L 792.51 152.03L 805.63 151.81L 817 149.66L 835.99 149.72L 851.51 147.97L 864.63 147.39L 876 145.91L 894.99 145.47L 910.51 143.75L 923.63 143.34L 935 141.83L 953.99 140.83L 969.51 140.03L 982.63 139.4L 994 135.22L 1013 137.97L 1028.5 137.4L 1041.6 136.74L 1053 128.23L 1072 135.08L 1087.5 131L 1100.6 132.6L 1112 119.97L 1131 129.13L 1146.5 122.67L 1159.6 127.55L 1171 113.91L 1190 122.67L 1205.5 117.1L 1218.6 119.87L 1230 109.02" fill="none" stroke-width="4" stroke="#007AFF" stroke-opacity="1" stroke-linecap="round" stroke-linejoin="round"/>
    <path d="M 50 207.25L 109 251.35L 143.51 275.96L 168 295.46L 186.99 308.65L 202.51 320.05L 215.63 329.7L 227 338.05L 245.99 351.25L 261.51 363.4L 274.63 373.04L 286 381.39L 304.99 370.24L 320.51 363.4L 333.63 372.29L 345 346.29L 363.99 337.75L 379.51 337.8L 392.63 325.68L 404 296.42L 422.99 299.31L 438.51 290.69L 451.63 293.34L 463 299.54L 481.99 298.48L 497.51 288.84L 510.63 287.07L 522 299.54L 540.99 292.52L 556.51 285.37L 569.63 280.05L 581 293.48L 599.99 286.05L 615.51 275.97L 628.63 268.17L 640 266.07L 658.99 254.25L 674.51 244.64L 687.63 239.01L 699 234.98L 717.99 231.29L 733.51 226.86L 746.63 224.27L 758 221.83L 776.99 218.87L 792.51 217.58L 805.63 215.56L 817 213.32L 835.99 211.21L 851.51 209.48L 864.63 209.27L 876 206.7L 894.99 206.28L 910.51 205.19L 923.63 204.01L 935 202.49L 953.99 201.38L 969.51 200.16L 982.63 199.05L 994 195.31L 1013 196.55L 1028.5 195.41L 1041.6 194.23L 1053 192.91L 1072 192.04L 1087.5 191.08L 1100.6 189.84L 1112 187.7L 1131 186.76L 1146.5 186.82L 1159.6 185.72L 1171 184.77L 1190 184.1L 1205.5 180.88L 1218.6 182.36L 1230 181.04" fill="none" stroke-width="4" stroke="#FF3B30" stroke-opacity="1" stroke-linecap="round" stroke-linejoin="round"/>
    <path d="M 50 129.55L 109 164.65L 143.51 198.25L 168 208L 186.99 221.58L 202.51 219.25L 215.63 228.89L 227 231.09L 245.99 239.7L 261.51 246.05L 274.63 242.72L 286 247.34L 304.99 248.12L 320.51 253.72L 333.63 253.43L 345 245.51L 363.99 249.53L 379.51 243.73L 392.63 242.76L 404 232.63L 422.99 234.7L 438.51 228.4L 451.63 214.21L 463 215.54L 481.99 209.73L 497.51 194.58L 510.63 188.55L 522 189.09L 540.99 183.84L 556.51 181.1L 569.63 179.53L 581 178.79L 599.99 178.11L 615.51 174.81L 628.63 172.12L 640 169.27L 658.99 165.39L 674.51 162.82L 687.63 160.88L 699 158.48L 717.99 158.36L 733.51 156.85L 746.63 155.19L 758 154.56L 776.99 154.6L 792.51 152.03L 805.63 151.81L 817 149.66L 835.99 149.72L 851.51 147.97L 864.63 147.39L 876 145.91L 894.99 145.47L 910.51 143.75L 923.63 143.34L 935 141.83L 953.99 140.83L 969.51 140.03L 982.63 139.4L 994 135.22L 1013 137.97L 1028.5 137.4L 1041.6 136.74L 1053 128.23L 1072 135.08L 1087.5 131L 1100.6 132.6L 1112 119.97L 1131 129.13L 1146.5 122.67L 1159.6 127.55L 1171 113.91L 1190 122.67L 1205.5 117.1L 1218.6 119.87L 1230 109.02" fill="none" stroke-width="0.5" stroke="#000000" stroke-opacity="0.30196" stroke-linecap="round" stroke-linejoin="round"/>
    <path d="M 50 207.25L 109 251.35L 143.51 275.96L 168 295.46L 186.99 308.65L 202.51 320.05L 215.63 329.7L 227 338.05L 245.99 351.25L 261.51 363.4L 274.63 373.04L 286 381.39L 304.99 370.24L 320.51 363.4L 333.63 372.29L 345 346.29L 363.99 337.75L 379.51 337.8L 392.63 325.68L 404 296.42L 422.99 299.31L 438.51 290.69L 451.63 293.34L 463 299.54L 481.99 298.48L 497.51 288.84L 510.63 287.07L 522 299.54L 540.99 292.52L 556.51 285.37L 569.63 280.05L 581 293.48L 599.99 286.05L 615.51 275.97L 628.63 268.17L 640 266.07L 658.99 254.25L 674.51 244.64L 687.63 239.01L 699 234.98L 717.99 231.29L 733.51 226.86L 746.63 224.27L 758 221.83L 776.99 218.87L 792.51 217.58L 805.63 215.56L 817 213.32L 835.99 211.21L 851.51 209.48L 864.63 209.27L 876 206.7L 894.99 206.28L 910.51 205.19L 923.63 204.01L 935 202.49L 953.99 201.38L 969.51 200.16L 982.63 199.05L 994 195.31L 1013 196.55L 1028.5 195.41L 1041.6 194.23L 1053 192.91L 1072 192.04L 1087.5 191.08L 1100.6 189.84L 1112 187.7L 1131 186.76L 1146.5 186.82L 1159.6 185.72L 1171 184.77L 1190 184.1L 1205.5 180.88L 1218.6 182.36L 1230 181.04" fill="none" stroke-width="0.5" stroke="#000000" stroke-opacity="0.30196" stroke-linecap="round" stroke-linejoin="round"/>
  </g>
  <path d="M 74 33 L 74 88 L 269 88 L 269 33 z" fill="#FFFFFF" fill-opacity="0.7019607843137254" stroke-width="0.5" stroke="#000000" stroke-opacity="1" stroke-linecap="round" stroke-linejoin="round"/>
  <path d="M 88 52 L 108 52" fill="none" stroke-width="4" stroke="#FF3B30" stroke-opacity="1" stroke-linecap="round" stroke-linejoin="round"/>
  <path d="M 88 52 L 108 52" fill="none" stroke-width="0.5" stroke="#000000" stroke-opacity="0.30196" stroke-linecap="round" stroke-linejoin="round"/>
  <text x="119" y="56.17" font-family="Menlo" font-size="12" font-weight="normal" font-style="normal" fill="#000000" fill-opacity="1">Array&lt;Int&gt; sort</text>
  <path d="M 88 69 L 108 69" fill="none" stroke-width="4" stroke="#007AFF" stroke-opacity="1" stroke-linecap="round" stroke-linejoin="round"/>
  <path d="M 88 69 L 108 69" fill="none" stroke-width="0.5" stroke="#000000" stroke-opacity="0.30196" stroke-linecap="round" stroke-linejoin="round"/>
  <text x="119" y="73.17" font-family="Menlo" font-size="12" font-weight="normal" font-style="normal" fill="#000000" fill-opacity="1">TreeArray&lt;Int&gt; sort</text>
  <path d="M 50 9 L 50 441 L 1230 441 L 1230 9 z" fill="none" stroke-width="0.5" stroke="#000000" stroke-opacity="1" stroke-linecap="round" stroke-linejoin="round"/>
</svg>
