<!DOCTYPE svg PUBLIC "-//W3C//DTD SVG 1.1//EN" "http://www.w3.org/Graphics/SVG/1.1/DTD/svg11.dtd">
<svg width="1280.0px" height="480.0px" viewBox="0.0 0.0 1280.0 480.0" xmlns="http://www.w3.org/2000/svg" xmlns:xlink="http://www.w3.org/1999/xlink" version="1.1">
  <path d="M 0 0 L 0 480 L 1280 480 L 1280 0 z" fill="#FFFFFF" fill-opacity="1.0" stroke="none"/>
  <text x="50" y="468.7" font-family="Helvetica" font-size="10" font-weight="normal" font-style="normal" fill="#000000" fill-opacity="1">Average per-element processing time over input size (bands: min, mean, mean + 2stddev)</text>
  <a xlink:href="https://github.com/apple/swift-collections-benchmark"><text x="1107" y="468.7" font-family="Helvetica" font-size="10" font-weight="normal" font-style="normal" fill="#000000" fill-opacity="1">swift-collections-benchmark</text></a>
  <path d="M 50 9 L 50 441" fill="none" stroke-width="0.75" stroke="#000000" stroke-opacity="0.49804" stroke-linecap="butt" stroke-linejoin="round"/>
  <text x="47" y="453.7" font-family="Helvetica" font-size="10" font-weight="normal" font-style="normal" fill="#000000" fill-opacity="1">1</text>
  <path d="M 109 9 L 109 441" fill="none" stroke-width="0.75" stroke="#000000" stroke-opacity="0.49804" stroke-linecap="butt" stroke-linejoin="round"/>
  <text x="106" y="453.7" font-family="Helvetica" font-size="10" font-weight="normal" font-style="normal" fill="#000000" fill-opacity="1">2</text>
  <path d="M 168 9 L 168 441" fill="none" stroke-width="0.75" stroke="#000000" stroke-opacity="0.49804" stroke-linecap="butt" stroke-linejoin="round"/>
  <text x="165" y="453.7" font-family="Helvetica" font-size="10" font-weight="normal" font-style="normal" fill="#000000" fill-opacity="1">4</text>
  <path d="M 227 9 L 227 441" fill="none" stroke-width="0.75" stroke="#000000" stroke-opacity="0.49804" stroke-linecap="butt" stroke-linejoin="round"/>
  <text x="224" y="453.7" font-family="Helvetica" font-size="10" font-weight="normal" font-style="normal" fill="#000000" fill-opacity="1">8</text>
  <path d="M 286 9 L 286 441" fill="none" stroke-width="0.75" stroke="#000000" stroke-opacity="0.49804" stroke-linecap="butt" stroke-linejoin="round"/>
  <text x="280" y="453.7" font-family="Helvetica" font-size="10" font-weight="normal" font-style="normal" fill="#000000" fill-opacity="1">16</text>
  <path d="M 345 9 L 345 441" fill="none" stroke-width="0.75" stroke="#000000" stroke-opacity="0.49804" stroke-linecap="butt" stroke-linejoin="round"/>
  <text x="339" y="453.7" font-family="Helvetica" font-size="10" font-weight="normal" font-style="normal" fill="#000000" fill-opacity="1">32</text>
  <path d="M 404 9 L 404 441" fill="none" stroke-width="0.75" stroke="#000000" stroke-opacity="0.49804" stroke-linecap="butt" stroke-linejoin="round"/>
  <text x="398" y="453.7" font-family="Helvetica" font-size="10" font-weight="normal" font-style="normal" fill="#000000" fill-opacity="1">64</text>
  <path d="M 463 9 L 463 441" fill="none" stroke-width="0.75" stroke="#000000" stroke-opacity="0.49804" stroke-linecap="butt" stroke-linejoin="round"/>
  <text x="454.5" y="453.7" font-family="Helvetica" font-size="10" font-weight="normal" font-style="normal" fill="#000000" fill-opacity="1">128</text>
  <path d="M 522 9 L 522 441" fill="none" stroke-width="0.75" stroke="#000000" stroke-opacity="0.49804" stroke-linecap="butt" stroke-linejoin="round"/>
  <text x="513.5" y="453.7" font-family="Helvetica" font-size="10" font-weight="normal" font-style="normal" fill="#000000" fill-opacity="1">256</text>
  <path d="M 581 9 L 581 441" fill="none" stroke-width="0.75" stroke="#000000" stroke-opacity="0.49804" stroke-linecap="butt" stroke-linejoin="round"/>
  <text x="572.5" y="453.7" font-family="Helvetica" font-size="10" font-weight="normal" font-style="normal" fill="#000000" fill-opacity="1">512</text>
  <path d="M 640 9 L 640 441" fill="none" stroke-width="0.75" stroke="#000000" stroke-opacity="0.49804" stroke-linecap="butt" stroke-linejoin="round"/>
  <text x="634.5" y="453.7" font-family="Helvetica" font-size="10" font-weight="normal" font-style="normal" fill="#000000" fill-opacity="1">1k</text>
  <path d="M 699 9 L 699 441" fill="none" stroke-width="0.75" stroke="#000000" stroke-opacity="0.49804" stroke-linecap="butt" stroke-linejoin="round"/>
  <text x="693.5" y="453.7" font-family="Helvetica" font-size="10" font-weight="normal" font-style="normal" fill="#000000" fill-opacity="1">2k</text>
  <path d="M 758 9 L 758 441" fill="none" stroke-width="0.75" stroke="#000000" stroke-opacity="0.49804" stroke-linecap="butt" stroke-linejoin="round"/>
  <text x="752.5" y="453.7" font-family="Helvetica" font-size="10" font-weight="normal" font-style="normal" fill="#000000" fill-opacity="1">4k</text>
  <path d="M 817 9 L 817 441" fill="none" stroke-width="0.75" stroke="#000000" stroke-opacity="0.49804" stroke-linecap="butt" stroke-linejoin="round"/>
  <text x="811.5" y="453.7" font-family="Helvetica" font-size="10" font-weight="normal" font-style="normal" fill="#000000" fill-opacity="1">8k</text>
  <path d="M 876 9 L 876 441" fill="none" stroke-width="0.75" stroke="#000000" stroke-opacity="0.49804" stroke-linecap="butt" stroke-linejoin="round"/>
  <text x="867.5" y="453.7" font-family="Helvetica" font-size="10" font-weight="normal" font-style="normal" fill="#000000" fill-opacity="1">16k</text>
  <path d="M 935 9 L 935 441" fill="none" stroke-width="0.75" stroke="#000000" stroke-opacity="0.49804" stroke-linecap="butt" stroke-linejoin="round"/>
  <text x="926.5" y="453.7" font-family="Helvetica" font-size="10" font-weight="normal" font-style="normal" fill="#000000" fill-opacity="1">32k</text>
  <path d="M 994 9 L 994 441" fill="none" stroke-width="0.75" stroke="#000000" stroke-opacity="0.49804" stroke-linecap="butt" stroke-linejoin="round"/>
  <text x="985.5" y="453.7" font-family="Helvetica" font-size="10" font-weight="normal" font-style="normal" fill="#000000" fill-opacity="1">64k</text>
  <path d="M 1053 9 L 1053 441" fill="none" stroke-width="0.75" stroke="#000000" stroke-opacity="0.49804" stroke-linecap="butt" stroke-linejoin="round"/>
  <text x="1042" y="453.7" font-family="Helvetica" font-size="10" font-weight="normal" font-style="normal" fill="#000000" fill-opacity="1">128k</text>
  <path d="M 1112 9 L 1112 441" fill="none" stroke-width="0.75" stroke="#000000" stroke-opacity="0.49804" stroke-linecap="butt" stroke-linejoin="round"/>
  <text x="1101" y="453.7" font-family="Helvetica" font-size="10" font-weight="normal" font-style="normal" fill="#000000" fill-opacity="1">256k</text>
  <path d="M 1171 9 L 1171 441" fill="none" stroke-width="0.75" stroke="#000000" stroke-opacity="0.49804" stroke-linecap="butt" stroke-linejoin="round"/>
  <text x="1160" y="453.7" font-family="Helvetica" font-size="10" font-weight="normal" font-style="normal" fill="#000000" fill-opacity="1">512k</text>
  <path d="M 1230 9 L 1230 441" fill="none" stroke-width="0.75" stroke="#000000" stroke-opacity="0.49804" stroke-linecap="butt" stroke-linejoin="round"/>
  <text x="1223" y="453.7" font-family="Helvetica" font-size="10" font-weight="normal" font-style="normal" fill="#000000" fill-opacity="1">1M</text>
  <path d="M 50 441 L 1230 441" fill="none" stroke-width="0.75" stroke="#000000" stroke-opacity="0.49804" stroke-linecap="butt" stroke-linejoin="round"/>
  <text x="27" y="442.7" font-family="Helvetica" font-size="10" font-weight="normal" font-style="normal" fill="#000000" fill-opacity="1">1 ns</text>
  <text x="1236" y="442.7" font-family="Helvetica" font-size="10" font-weight="normal" font-style="normal" fill="#000000" fill-opacity="1">1 ns</text>
  <path d="M 50 297 L 1230 297" fill="none" stroke-width="0.75" stroke="#000000" stroke-opacity="0.49804" stroke-linecap="butt" stroke-linejoin="round"/>
  <text x="21" y="298.7" font-family="Helvetica" font-size="10" font-weight="normal" font-style="normal" fill="#000000" fill-opacity="1">10 ns</text>
  <text x="1236" y="298.7" font-family="Helvetica" font-size="10" font-weight="normal" font-style="normal" fill="#000000" fill-opacity="1">10 ns</text>
  <path d="M 50 153 L 1230 153" fill="none" stroke-width="0.75" stroke="#000000" stroke-opacity="0.49804" stroke-linecap="butt" stroke-linejoin="round"/>
  <text x="16" y="154.7" font-family="Helvetica" font-size="10" font-weight="normal" font-style="normal" fill="#000000" fill-opacity="1">100 ns</text>
  <text x="1236" y="154.7" font-family="Helvetica" font-size="10" font-weight="normal" font-style="normal" fill="#000000" fill-opacity="1">100 ns</text>
  <path d="M 50 9 L 1230 9" fill="none" stroke-width="0.75" stroke="#000000" stroke-opacity="0.49804" stroke-linecap="butt" stroke-linejoin="round"/>
  <text x="26" y="10.7" font-family="Helvetica" font-size="10" font-weight="normal" font-style="normal" fill="#000000" fill-opacity="1">1 µs</text>
  <text x="1236" y="10.7" font-family="Helvetica" font-size="10" font-weight="normal" font-style="normal" fill="#000000" fill-opacity="1">1 µs</text>
  <path d="M 50 397.65 L 1230 397.65" fill="none" stroke-width="0.5" stroke="#000000" stroke-opacity="0.25882" stroke-linecap="butt" stroke-linejoin="round" stroke-dasharray="6 3" stroke-dashoffset="0"/>
  <path d="M 50 354.3 L 1230 354.3" fill="none" stroke-width="0.5" stroke="#000000" stroke-opacity="0.25882" stroke-linecap="butt" stroke-linejoin="round" stroke-dasharray="6 3" stroke-dashoffset="0"/>
  <path d="M 50 310.96 L 1230 310.96" fill="none" stroke-width="0.5" stroke="#000000" stroke-opacity="0.25882" stroke-linecap="butt" stroke-linejoin="round" stroke-dasharray="6 3" stroke-dashoffset="0"/>
  <path d="M 50 267.61 L 1230 267.61" fill="none" stroke-width="0.5" stroke="#000000" stroke-opacity="0.25882" stroke-linecap="butt" stroke-linejoin="round" stroke-dasharray="6 3" stroke-dashoffset="0"/>
  <path d="M 50 224.26 L 1230 224.26" fill="none" stroke-width="0.5" stroke="#000000" stroke-opacity="0.25882" stroke-linecap="butt" stroke-linejoin="round" stroke-dasharray="6 3" stroke-dashoffset="0"/>
  <path d="M 50 180.91 L 1230 180.91" fill="none" stroke-width="0.5" stroke="#000000" stroke-opacity="0.25882" stroke-linecap="butt" stroke-linejoin="round" stroke-dasharray="6 3" stroke-dashoffset="0"/>
  <path d="M 50 137.56 L 1230 137.56" fill="none" stroke-width="0.5" stroke="#000000" stroke-opacity="0.25882" stroke-linecap="butt" stroke-linejoin="round" stroke-dasharray="6 3" stroke-dashoffset="0"/>
  <path d="M 50 94.213 L 1230 94.213" fill="none" stroke-width="0.5" stroke="#000000" stroke-opacity="0.25882" stroke-linecap="butt" stroke-linejoin="round" stroke-dasharray="6 3" stroke-dashoffset="0"/>
  <path d="M 50 50.865 L 1230 50.865" fill="none" stroke-width="0.5" stroke="#000000" stroke-opacity="0.25882" stroke-linecap="butt" stroke-linejoin="round" stroke-dasharray="6 3" stroke-dashoffset="0"/>
  <path d="M 74 33 L 74 88 L 269 88 L 269 33 z" fill="#FFFFFF" fill-opacity="1.0" stroke="none"/>
  <clipPath id="clip-0">
    <path d="M 50 9 L 50 441 L 1230 441 L 1230 9 z"/>
  </clipPath>
  <g clip-path="url(#clip-0)">
    <path d="M 50 120.93L 109 139.47L 143.51 146.96L 168 150.94L 186.99 165.03L 202.51 160.3L 215.63 169.42L 227 182.39L 245.99 186.54L 261.51 179.27L 274.63 179.71L 286 182.62L 304.99 180.72L 320.51 181L 333.63 185.43L 345 178.92L 363.99 177.56L 379.51 180.74L 392.63 176.2L 404 174.56L 422.99 171.66L 438.51 170.36L 451.63 168L 463 167.13L 481.99 169.94L 497.51 165.29L 510.63 165.96L 522 168.19L 540.99 168.44L 556.51 160.56L 569.63 160.59L 581 160.9L 599.99 156.27L 615.51 150.33L 628.63 154.28L 640 147.31L 658.99 146.23L 674.51 146.05L 687.63 141.52L 699 147.18L 717.99 144.19L 733.51 145.7L 746.63 145.5L 758 144.9L 776.99 140.89L 792.51 139.83L 805.63 140.19L 817 138.48L 835.99 137.24L 851.51 137.02L 864.63 136.69L 876 135.4L 894.99 134.17L 910.51 134.7L 923.63 134.11L 935 131.43L 953.99 131.17L 969.51 131.24L 982.63 130.49L 994 129.33L 1013 126.88L 1028.5 127.28L 1041.6 124.53L 1053 125.86L 1072 122.88L 1087.5 122.53L 1100.6 122.18L 1112 121.75L 1131 121.39L 1146.5 119.91L 1159.6 119.66L 1171 118.77L 1190 117.84L 1205.5 117.33L 1218.6 115.97L 1230 115.41L 1230 117.19L 1218.6 116.59L 1205.5 117.75L 1190 118.1L 1171 119.25L 1159.6 119.9L 1146.5 120.49L 1131 121.46L 1112 122.47L 1100.6 123.21L 1087.5 123.93L 1072 125.78L 1053 126.15L 1041.6 126.34L 1028.5 127.72L 1013 128.79L 994 129.67L 982.63 130.53L 969.51 131.4L 953.99 131.59L 935 133.13L 923.63 134.2L 910.51 135.07L 894.99 135.58L 876 136.13L 864.63 136.96L 851.51 138.06L 835.99 139.65L 817 140.87L 805.63 141.02L 792.51 141.52L 776.99 143.43L 758 146.2L 746.63 145.92L 733.51 146.27L 717.99 145.06L 699 149.19L 687.63 151.63L 674.51 152.21L 658.99 152.51L 640 156.39L 628.63 158.45L 615.51 160.08L 599.99 161.49L 581 165.02L 569.63 164.75L 556.51 168.35L 540.99 168.44L 522 171.51L 510.63 169.03L 497.51 170.56L 481.99 175.49L 463 172.75L 451.63 171.49L 438.51 173.88L 422.99 176.91L 404 176.79L 392.63 180.2L 379.51 182.39L 363.99 181.35L 345 186.43L 333.63 185.43L 320.51 187.83L 304.99 188.98L 286 187.88L 274.63 185.47L 261.51 186L 245.99 186.74L 227 182.39L 215.63 179.53L 202.51 182.39L 186.99 178.23L 168 164.46L 143.51 164.4L 109 164.65L 50 120.93" fill="#007AFF" fill-opacity="0.30196078431372547" stroke="none"/>
    <path d="M 50 205.91L 109 249.25L 143.51 275.96L 168 293.95L 186.99 307.9L 202.51 317.96L 215.63 328.95L 227 338.8L 245.99 351.25L 261.51 361.31L 274.63 372.29L 286 379.3L 304.99 396.11L 320.51 363.4L 333.63 330.68L 345 325.31L 363.99 327.53L 379.51 320.36L 392.63 309.93L 404 291.24L 422.99 294.67L 438.51 292.09L 451.63 288.07L 463 300.62L 481.99 294.43L 497.51 287.51L 510.63 287.17L 522 292.87L 540.99 292.31L 556.51 284.49L 569.63 277.49L 581 295.01L 599.99 287.92L 615.51 276.06L 628.63 246L 640 263.62L 658.99 247.98L 674.51 236.74L 687.63 238.17L 699 223.77L 717.99 229.42L 733.51 227.1L 746.63 224.02L 758 221.45L 776.99 218.57L 792.51 217.08L 805.63 215.21L 817 213.59L 835.99 208.94L 851.51 210.57L 864.63 201.43L 876 207.41L 894.99 206.01L 910.51 204.84L 923.63 203.76L 935 201.9L 953.99 197.19L 969.51 200.07L 982.63 198.84L 994 197.67L 1013 196.58L 1028.5 194.22L 1041.6 190L 1053 192.71L 1072 191.89L 1087.5 191.07L 1100.6 189.61L 1112 184.88L 1131 187.85L 1146.5 186.72L 1159.6 185.32L 1171 184.01L 1190 183.49L 1205.5 182.89L 1218.6 181.62L 1230 180.77L 1230 181.3L 1218.6 182.44L 1205.5 183.17L 1190 183.85L 1171 184.87L 1159.6 186.13L 1146.5 186.89L 1131 187.97L 1112 188.96L 1100.6 190.26L 1087.5 191.12L 1072 192.17L 1053 193.16L 1041.6 194.66L 1028.5 195.55L 1013 196.61L 994 197.72L 982.63 198.87L 969.51 200.21L 953.99 201.37L 935 202.51L 923.63 204.29L 910.51 205.11L 894.99 206.36L 876 207.9L 864.63 209.71L 851.51 210.82L 835.99 211.75L 817 213.76L 805.63 216.18L 792.51 217.51L 776.99 219.78L 758 221.89L 746.63 224.45L 733.51 227.48L 717.99 232.33L 699 236.17L 687.63 241.18L 674.51 247.38L 658.99 252.98L 640 270.24L 628.63 270.03L 615.51 277.94L 599.99 291.4L 581 296.94L 569.63 278.29L 556.51 290.04L 540.99 296.84L 522 300.59L 510.63 289.12L 497.51 297.1L 481.99 294.43L 463 300.62L 451.63 288.07L 438.51 297.13L 422.99 301.04L 404 307.51L 392.63 322.08L 379.51 337.8L 363.99 351.63L 345 355.79L 333.63 373.04L 320.51 363.4L 304.99 396.11L 286 382.15L 274.63 372.29L 261.51 364.16L 245.99 351.25L 227 338.8L 215.63 328.95L 202.51 320.81L 186.99 307.9L 168 293.95L 143.51 275.96L 109 252.11L 50 208.76" fill="#FF3B30" fill-opacity="0.30196078431372547" stroke="none"/>
    <path d="M 50 120.93L 109 157.04L 143.51 159.36L 168 160.64L 186.99 174.51L 202.51 175.83L 215.63 176.73L 227 182.39L 245.99 186.69L 261.51 184.17L 274.63 183.91L 286 186.46L 304.99 186.72L 320.51 185.98L 333.63 185.43L 345 184.38L 363.99 180.34L 379.51 181.96L 392.63 179.13L 404 176.2L 422.99 175.5L 438.51 172.94L 451.63 170.56L 463 171.23L 481.99 173.99L 497.51 169.14L 510.63 168.22L 522 170.63L 540.99 168.44L 556.51 166.22L 569.63 163.64L 581 163.92L 599.99 160.08L 615.51 157.38L 628.63 157.33L 640 153.89L 658.99 150.81L 674.51 150.54L 687.63 148.83L 699 148.66L 717.99 144.83L 733.51 146.12L 746.63 145.81L 758 145.86L 776.99 142.76L 792.51 141.08L 805.63 140.8L 817 140.24L 835.99 139.01L 851.51 137.78L 864.63 136.89L 876 135.94L 894.99 135.21L 910.51 134.97L 923.63 134.18L 935 132.68L 953.99 131.48L 969.51 131.36L 982.63 130.52L 994 129.58L 1013 128.28L 1028.5 127.61L 1041.6 125.86L 1053 126.08L 1072 125.01L 1087.5 123.56L 1100.6 122.94L 1112 122.28L 1131 121.44L 1146.5 120.33L 1159.6 119.84L 1171 119.12L 1190 118.04L 1205.5 117.64L 1218.6 116.43L 1230 116.72" fill="none" stroke-width="4" stroke="#007AFF" stroke-opacity="1" stroke-linecap="round" stroke-linejoin="round"/>
    <path d="M 50 208L 109 251.35L 143.51 275.96L 168 293.95L 186.99 307.9L 202.51 320.05L 215.63 328.95L 227 338.8L 245.99 351.25L 261.51 363.4L 274.63 372.29L 286 381.39L 304.99 396.11L 320.51 363.4L 333.63 358.94L 345 346.29L 363.99 344.38L 379.51 332.75L 392.63 318.67L 404 302.83L 422.99 299.31L 438.51 295.77L 451.63 288.07L 463 300.62L 481.99 294.43L 497.51 294.45L 510.63 288.6L 522 298.48L 540.99 295.63L 556.51 288.54L 569.63 278.08L 581 296.43L 599.99 290.47L 615.51 277.44L 628.63 262.81L 640 268.44L 658.99 251.64L 674.51 244.42L 687.63 240.38L 699 232.69L 717.99 231.56L 733.51 227.38L 746.63 224.34L 758 221.78L 776.99 219.46L 792.51 217.4L 805.63 215.93L 817 213.71L 835.99 211L 851.51 210.76L 864.63 207.44L 876 207.77L 894.99 206.26L 910.51 205.04L 923.63 204.15L 935 202.35L 953.99 200.25L 969.51 200.18L 982.63 198.86L 994 197.71L 1013 196.61L 1028.5 195.2L 1041.6 193.41L 1053 193.04L 1072 192.1L 1087.5 191.11L 1100.6 190.09L 1112 187.87L 1131 187.94L 1146.5 186.85L 1159.6 185.92L 1171 184.64L 1190 183.75L 1205.5 183.1L 1218.6 182.22L 1230 181.16" fill="none" stroke-width="4" stroke="#FF3B30" stroke-opacity="1" stroke-linecap="round" stroke-linejoin="round"/>
    <path d="M 50 120.93L 109 157.04L 143.51 159.36L 168 160.64L 186.99 174.51L 202.51 175.83L 215.63 176.73L 227 182.39L 245.99 186.69L 261.51 184.17L 274.63 183.91L 286 186.46L 304.99 186.72L 320.51 185.98L 333.63 185.43L 345 184.38L 363.99 180.34L 379.51 181.96L 392.63 179.13L 404 176.2L 422.99 175.5L 438.51 172.94L 451.63 170.56L 463 171.23L 481.99 173.99L 497.51 169.14L 510.63 168.22L 522 170.63L 540.99 168.44L 556.51 166.22L 569.63 163.64L 581 163.92L 599.99 160.08L 615.51 157.38L 628.63 157.33L 640 153.89L 658.99 150.81L 674.51 150.54L 687.63 148.83L 699 148.66L 717.99 144.83L 733.51 146.12L 746.63 145.81L 758 145.86L 776.99 142.76L 792.51 141.08L 805.63 140.8L 817 140.24L 835.99 139.01L 851.51 137.78L 864.63 136.89L 876 135.94L 894.99 135.21L 910.51 134.97L 923.63 134.18L 935 132.68L 953.99 131.48L 969.51 131.36L 982.63 130.52L 994 129.58L 1013 128.28L 1028.5 127.61L 1041.6 125.86L 1053 126.08L 1072 125.01L 1087.5 123.56L 1100.6 122.94L 1112 122.28L 1131 121.44L 1146.5 120.33L 1159.6 119.84L 1171 119.12L 1190 118.04L 1205.5 117.64L 1218.6 116.43L 1230 116.72" fill="none" stroke-width="0.5" stroke="#000000" stroke-opacity="0.30196" stroke-linecap="round" stroke-linejoin="round"/>
    <path d="M 50 208L 109 251.35L 143.51 275.96L 168 293.95L 186.99 307.9L 202.51 320.05L 215.63 328.95L 227 338.8L 245.99 351.25L 261.51 363.4L 274.63 372.29L 286 381.39L 304.99 396.11L 320.51 363.4L 333.63 358.94L 345 346.29L 363.99 344.38L 379.51 332.75L 392.63 318.67L 404 302.83L 422.99 299.31L 438.51 295.77L 451.63 288.07L 463 300.62L 481.99 294.43L 497.51 294.45L 510.63 288.6L 522 298.48L 540.99 295.63L 556.51 288.54L 569.63 278.08L 581 296.43L 599.99 290.47L 615.51 277.44L 628.63 262.81L 640 268.44L 658.99 251.64L 674.51 244.42L 687.63 240.38L 699 232.69L 717.99 231.56L 733.51 227.38L 746.63 224.34L 758 221.78L 776.99 219.46L 792.51 217.4L 805.63 215.93L 817 213.71L 835.99 211L 851.51 210.76L 864.63 207.44L 876 207.77L 894.99 206.26L 910.51 205.04L 923.63 204.15L 935 202.35L 953.99 200.25L 969.51 200.18L 982.63 198.86L 994 197.71L 1013 196.61L 1028.5 195.2L 1041.6 193.41L 1053 193.04L 1072 192.1L 1087.5 191.11L 1100.6 190.09L 1112 187.87L 1131 187.94L 1146.5 186.85L 1159.6 185.92L 1171 184.64L 1190 183.75L 1205.5 183.1L 1218.6 182.22L 1230 181.16" fill="none" stroke-width="0.5" stroke="#000000" stroke-opacity="0.30196" stroke-linecap="round" stroke-linejoin="round"/>
  </g>
  <path d="M 74 33 L 74 88 L 269 88 L 269 33 z" fill="#FFFFFF" fill-opacity="0.7019607843137254" stroke-width="0.5" stroke="#000000" stroke-opacity="1" stroke-linecap="round" stroke-linejoin="round"/>
  <path d="M 88 52 L 108 52" fill="none" stroke-width="4" stroke="#FF3B30" stroke-opacity="1" stroke-linecap="round" stroke-linejoin="round"/>
  <path d="M 88 52 L 108 52" fill="none" stroke-width="0.5" stroke="#000000" stroke-opacity="0.30196" stroke-linecap="round" stroke-linejoin="round"/>
  <text x="119" y="56.17" font-family="Menlo" font-size="12" font-weight="normal" font-style="normal" fill="#000000" fill-opacity="1">Array&lt;Int&gt; sort</text>
  <path d="M 88 69 L 108 69" fill="none" stroke-width="4" stroke="#007AFF" stroke-opacity="1" stroke-linecap="round" stroke-linejoin="round"/>
  <path d="M 88 69 L 108 69" fill="none" stroke-width="0.5" stroke="#000000" stroke-opacity="0.30196" stroke-linecap="round" stroke-linejoin="round"/>
  <text x="119" y="73.17" font-family="Menlo" font-size="12" font-weight="normal" font-style="normal" fill="#000000" fill-opacity="1">TreeArray&lt;Int&gt; sort</text>
  <path d="M 50 9 L 50 441 L 1230 441 L 1230 9 z" fill="none" stroke-width="0.5" stroke="#000000" stroke-opacity="1" stroke-linecap="round" stroke-linejoin="round"/>
</svg>
