<!DOCTYPE svg PUBLIC "-//W3C//DTD SVG 1.1//EN" "http://www.w3.org/Graphics/SVG/1.1/DTD/svg11.dtd">
<svg width="1280.0px" height="480.0px" viewBox="0.0 0.0 1280.0 480.0" xmlns="http://www.w3.org/2000/svg" xmlns:xlink="http://www.w3.org/1999/xlink" version="1.1">
  <path d="M 0 0 L 0 480 L 1280 480 L 1280 0 z" fill="#FFFFFF" fill-opacity="1.0" stroke="none"/>
  <text x="50" y="468.7" font-family="Helvetica" font-size="10" font-weight="normal" font-style="normal" fill="#000000" fill-opacity="1">Average per-element processing time over input size (bands: min, mean, mean + 2stddev)</text>
  <a xlink:href="https://github.com/apple/swift-collections-benchmark"><text x="1107" y="468.7" font-family="Helvetica" font-size="10" font-weight="normal" font-style="normal" fill="#000000" fill-opacity="1">swift-collections-benchmark</text></a>
  <path d="M 50 9 L 50 441" fill="none" stroke-width="0.75" stroke="#000000" stroke-opacity="0.49804" stroke-linecap="butt" stroke-linejoin="round"/>
  <text x="47" y="453.7" font-family="Helvetica" font-size="10" font-weight="normal" font-style="normal" fill="#000000" fill-opacity="1">1</text>
  <path d="M 109 9 L 109 441" fill="none" stroke-width="0.75" stroke="#000000" stroke-opacity="0.49804" stroke-linecap="butt" stroke-linejoin="round"/>
  <text x="106" y="453.7" font-family="Helvetica" font-size="10" font-weight="normal" font-style="normal" fill="#000000" fill-opacity="1">2</text>
  <path d="M 168 9 L 168 441" fill="none" stroke-width="0.75" stroke="#000000" stroke-opacity="0.49804" stroke-linecap="butt" stroke-linejoin="round"/>
  <text x="165" y="453.7" font-family="Helvetica" font-size="10" font-weight="normal" font-style="normal" fill="#000000" fill-opacity="1">4</text>
  <path d="M 227 9 L 227 441" fill="none" stroke-width="0.75" stroke="#000000" stroke-opacity="0.49804" stroke-linecap="butt" stroke-linejoin="round"/>
  <text x="224" y="453.7" font-family="Helvetica" font-size="10" font-weight="normal" font-style="normal" fill="#000000" fill-opacity="1">8</text>
  <path d="M 286 9 L 286 441" fill="none" stroke-width="0.75" stroke="#000000" stroke-opacity="0.49804" stroke-linecap="butt" stroke-linejoin="round"/>
  <text x="280" y="453.7" font-family="Helvetica" font-size="10" font-weight="normal" font-style="normal" fill="#000000" fill-opacity="1">16</text>
  <path d="M 345 9 L 345 441" fill="none" stroke-width="0.75" stroke="#000000" stroke-opacity="0.49804" stroke-linecap="butt" stroke-linejoin="round"/>
  <text x="339" y="453.7" font-family="Helvetica" font-size="10" font-weight="normal" font-style="normal" fill="#000000" fill-opacity="1">32</text>
  <path d="M 404 9 L 404 441" fill="none" stroke-width="0.75" stroke="#000000" stroke-opacity="0.49804" stroke-linecap="butt" stroke-linejoin="round"/>
  <text x="398" y="453.7" font-family="Helvetica" font-size="10" font-weight="normal" font-style="normal" fill="#000000" fill-opacity="1">64</text>
  <path d="M 463 9 L 463 441" fill="none" stroke-width="0.75" stroke="#000000" stroke-opacity="0.49804" stroke-linecap="butt" stroke-linejoin="round"/>
  <text x="454.5" y="453.7" font-family="Helvetica" font-size="10" font-weight="normal" font-style="normal" fill="#000000" fill-opacity="1">128</text>
  <path d="M 522 9 L 522 441" fill="none" stroke-width="0.75" stroke="#000000" stroke-opacity="0.49804" stroke-linecap="butt" stroke-linejoin="round"/>
  <text x="513.5" y="453.7" font-family="Helvetica" font-size="10" font-weight="normal" font-style="normal" fill="#000000" fill-opacity="1">256</text>
  <path d="M 581 9 L 581 441" fill="none" stroke-width="0.75" stroke="#000000" stroke-opacity="0.49804" stroke-linecap="butt" stroke-linejoin="round"/>
  <text x="572.5" y="453.7" font-family="Helvetica" font-size="10" font-weight="normal" font-style="normal" fill="#000000" fill-opacity="1">512</text>
  <path d="M 640 9 L 640 441" fill="none" stroke-width="0.75" stroke="#000000" stroke-opacity="0.49804" stroke-linecap="butt" stroke-linejoin="round"/>
  <text x="634.5" y="453.7" font-family="Helvetica" font-size="10" font-weight="normal" font-style="normal" fill="#000000" fill-opacity="1">1k</text>
  <path d="M 699 9 L 699 441" fill="none" stroke-width="0.75" stroke="#000000" stroke-opacity="0.49804" stroke-linecap="butt" stroke-linejoin="round"/>
  <text x="693.5" y="453.7" font-family="Helvetica" font-size="10" font-weight="normal" font-style="normal" fill="#000000" fill-opacity="1">2k</text>
  <path d="M 758 9 L 758 441" fill="none" stroke-width="0.75" stroke="#000000" stroke-opacity="0.49804" stroke-linecap="butt" stroke-linejoin="round"/>
  <text x="752.5" y="453.7" font-family="Helvetica" font-size="10" font-weight="normal" font-style="normal" fill="#000000" fill-opacity="1">4k</text>
  <path d="M 817 9 L 817 441" fill="none" stroke-width="0.75" stroke="#000000" stroke-opacity="0.49804" stroke-linecap="butt" stroke-linejoin="round"/>
  <text x="811.5" y="453.7" font-family="Helvetica" font-size="10" font-weight="normal" font-style="normal" fill="#000000" fill-opacity="1">8k</text>
  <path d="M 876 9 L 876 441" fill="none" stroke-width="0.75" stroke="#000000" stroke-opacity="0.49804" stroke-linecap="butt" stroke-linejoin="round"/>
  <text x="867.5" y="453.7" font-family="Helvetica" font-size="10" font-weight="normal" font-style="normal" fill="#000000" fill-opacity="1">16k</text>
  <path d="M 935 9 L 935 441" fill="none" stroke-width="0.75" stroke="#000000" stroke-opacity="0.49804" stroke-linecap="butt" stroke-linejoin="round"/>
  <text x="926.5" y="453.7" font-family="Helvetica" font-size="10" font-weight="normal" font-style="normal" fill="#000000" fill-opacity="1">32k</text>
  <path d="M 994 9 L 994 441" fill="none" stroke-width="0.75" stroke="#000000" stroke-opacity="0.49804" stroke-linecap="butt" stroke-linejoin="round"/>
  <text x="985.5" y="453.7" font-family="Helvetica" font-size="10" font-weight="normal" font-style="normal" fill="#000000" fill-opacity="1">64k</text>
  <path d="M 1053 9 L 1053 441" fill="none" stroke-width="0.75" stroke="#000000" stroke-opacity="0.49804" stroke-linecap="butt" stroke-linejoin="round"/>
  <text x="1042" y="453.7" font-family="Helvetica" font-size="10" font-weight="normal" font-style="normal" fill="#000000" fill-opacity="1">128k</text>
  <path d="M 1112 9 L 1112 441" fill="none" stroke-width="0.75" stroke="#000000" stroke-opacity="0.49804" stroke-linecap="butt" stroke-linejoin="round"/>
  <text x="1101" y="453.7" font-family="Helvetica" font-size="10" font-weight="normal" font-style="normal" fill="#000000" fill-opacity="1">256k</text>
  <path d="M 1171 9 L 1171 441" fill="none" stroke-width="0.75" stroke="#000000" stroke-opacity="0.49804" stroke-linecap="butt" stroke-linejoin="round"/>
  <text x="1160" y="453.7" font-family="Helvetica" font-size="10" font-weight="normal" font-style="normal" fill="#000000" fill-opacity="1">512k</text>
  <path d="M 1230 9 L 1230 441" fill="none" stroke-width="0.75" stroke="#000000" stroke-opacity="0.49804" stroke-linecap="butt" stroke-linejoin="round"/>
  <text x="1223" y="453.7" font-family="Helvetica" font-size="10" font-weight="normal" font-style="normal" fill="#000000" fill-opacity="1">1M</text>
  <path d="M 50 441 L 1230 441" fill="none" stroke-width="0.75" stroke="#000000" stroke-opacity="0.49804" stroke-linecap="butt" stroke-linejoin="round"/>
  <text x="27" y="442.7" font-family="Helvetica" font-size="10" font-weight="normal" font-style="normal" fill="#000000" fill-opacity="1">1 ns</text>
  <text x="1236" y="442.7" font-family="Helvetica" font-size="10" font-weight="normal" font-style="normal" fill="#000000" fill-opacity="1">1 ns</text>
  <path d="M 50 297 L 1230 297" fill="none" stroke-width="0.75" stroke="#000000" stroke-opacity="0.49804" stroke-linecap="butt" stroke-linejoin="round"/>
  <text x="21" y="298.7" font-family="Helvetica" font-size="10" font-weight="normal" font-style="normal" fill="#000000" fill-opacity="1">10 ns</text>
  <text x="1236" y="298.7" font-family="Helvetica" font-size="10" font-weight="normal" font-style="normal" fill="#000000" fill-opacity="1">10 ns</text>
  <path d="M 50 153 L 1230 153" fill="none" stroke-width="0.75" stroke="#000000" stroke-opacity="0.49804" stroke-linecap="butt" stroke-linejoin="round"/>
  <text x="16" y="154.7" font-family="Helvetica" font-size="10" font-weight="normal" font-style="normal" fill="#000000" fill-opacity="1">100 ns</text>
  <text x="1236" y="154.7" font-family="Helvetica" font-size="10" font-weight="normal" font-style="normal" fill="#000000" fill-opacity="1">100 ns</text>
  <path d="M 50 9 L 1230 9" fill="none" stroke-width="0.75" stroke="#000000" stroke-opacity="0.49804" stroke-linecap="butt" stroke-linejoin="round"/>
  <text x="26" y="10.7" font-family="Helvetica" font-size="10" font-weight="normal" font-style="normal" fill="#000000" fill-opacity="1">1 µs</text>
  <text x="1236" y="10.7" font-family="Helvetica" font-size="10" font-weight="normal" font-style="normal" fill="#000000" fill-opacity="1">1 µs</text>
  <path d="M 50 397.65 L 1230 397.65" fill="none" stroke-width="0.5" stroke="#000000" stroke-opacity="0.25882" stroke-linecap="butt" stroke-linejoin="round" stroke-dasharray="6 3" stroke-dashoffset="0"/>
  <path d="M 50 354.3 L 1230 354.3" fill="none" stroke-width="0.5" stroke="#000000" stroke-opacity="0.25882" stroke-linecap="butt" stroke-linejoin="round" stroke-dasharray="6 3" stroke-dashoffset="0"/>
  <path d="M 50 310.96 L 1230 310.96" fill="none" stroke-width="0.5" stroke="#000000" stroke-opacity="0.25882" stroke-linecap="butt" stroke-linejoin="round" stroke-dasharray="6 3" stroke-dashoffset="0"/>
  <path d="M 50 267.61 L 1230 267.61" fill="none" stroke-width="0.5" stroke="#000000" stroke-opacity="0.25882" stroke-linecap="butt" stroke-linejoin="round" stroke-dasharray="6 3" stroke-dashoffset="0"/>
  <path d="M 50 224.26 L 1230 224.26" fill="none" stroke-width="0.5" stroke="#000000" stroke-opacity="0.25882" stroke-linecap="butt" stroke-linejoin="round" stroke-dasharray="6 3" stroke-dashoffset="0"/>
  <path d="M 50 180.91 L 1230 180.91" fill="none" stroke-width="0.5" stroke="#000000" stroke-opacity="0.25882" stroke-linecap="butt" stroke-linejoin="round" stroke-dasharray="6 3" stroke-dashoffset="0"/>
  <path d="M 50 137.56 L 1230 137.56" fill="none" stroke-width="0.5" stroke="#000000" stroke-opacity="0.25882" stroke-linecap="butt" stroke-linejoin="round" stroke-dasharray="6 3" stroke-dashoffset="0"/>
  <path d="M 50 94.213 L 1230 94.213" fill="none" stroke-width="0.5" stroke="#000000" stroke-opacity="0.25882" stroke-linecap="butt" stroke-linejoin="round" stroke-dasharray="6 3" stroke-dashoffset="0"/>
  <path d="M 50 50.865 L 1230 50.865" fill="none" stroke-width="0.5" stroke="#000000" stroke-opacity="0.25882" stroke-linecap="butt" stroke-linejoin="round" stroke-dasharray="6 3" stroke-dashoffset="0"/>
  <path d="M 74 33 L 74 88 L 269 88 L 269 33 z" fill="#FFFFFF" fill-opacity="1.0" stroke="none"/>
  <clipPath id="clip-0">
    <path d="M 50 9 L 50 441 L 1230 441 L 1230 9 z"/>
  </clipPath>
  <g clip-path="url(#clip-0)">
    <path d="M 50 139.04L 109 151.33L 143.51 189.29L 168 193.32L 186.99 207.85L 202.51 218.68L 215.63 228.89L 227 217L 245.99 239.7L 261.51 241.39L 274.63 242.81L 286 243.73L 304.99 245.18L 320.51 233.84L 333.63 243.06L 345 231.72L 363.99 237.34L 379.51 237.37L 392.63 230.97L 404 221.14L 422.99 221.05L 438.51 209.13L 451.63 216.38L 463 220.24L 481.99 198.96L 497.51 191.33L 510.63 188.37L 522 189.3L 540.99 176.76L 556.51 178L 569.63 172.56L 581 162.53L 599.99 167.13L 615.51 169.27L 628.63 167.71L 640 165.11L 658.99 161.76L 674.51 158.72L 687.63 159.47L 699 157.45L 717.99 153.82L 733.51 154.94L 746.63 151.61L 758 147.99L 776.99 154.98L 792.51 150.92L 805.63 151.47L 817 150.31L 835.99 150.74L 851.51 148.25L 864.63 148.34L 876 145.39L 894.99 146.68L 910.51 142.62L 923.63 141.06L 935 141.55L 953.99 142.8L 969.51 141.28L 982.63 139.56L 994 133.57L 1013 138.44L 1028.5 136.23L 1041.6 136.1L 1053 124.62L 1072 134.45L 1087.5 130.72L 1100.6 132.74L 1112 120L 1131 128.23L 1146.5 123.63L 1159.6 126.34L 1171 114.66L 1190 119.84L 1205.5 116.09L 1218.6 118.25L 1230 109.44L 1230 111.38L 1218.6 120.68L 1205.5 116.61L 1190 122.56L 1171 116.27L 1159.6 128.32L 1146.5 124.32L 1131 130.15L 1112 121.21L 1100.6 133.73L 1087.5 132.07L 1072 136.13L 1053 127.26L 1041.6 137.47L 1028.5 137.39L 1013 139.51L 994 136.59L 982.63 140.96L 969.51 141.51L 953.99 142.84L 935 142.13L 923.63 144.73L 910.51 144.78L 894.99 146.98L 876 146.53L 864.63 148.5L 851.51 149.18L 835.99 150.76L 817 150.44L 805.63 152.25L 792.51 153.05L 776.99 155.27L 758 155.53L 746.63 155.35L 733.51 157.13L 717.99 158.9L 699 157.79L 687.63 163.12L 674.51 161.6L 658.99 165.21L 640 168.63L 628.63 168.85L 615.51 171.24L 599.99 177.75L 581 182.56L 569.63 175.36L 556.51 180.57L 540.99 191.05L 522 190.01L 510.63 196.3L 497.51 193.27L 481.99 205.83L 463 222.56L 451.63 222.83L 438.51 228.4L 422.99 228.95L 404 231.19L 392.63 244.72L 379.51 241.44L 363.99 242.38L 345 243.73L 333.63 251.13L 320.51 251.1L 304.99 245.18L 286 243.73L 274.63 242.81L 261.51 241.39L 245.99 239.7L 227 236.94L 215.63 228.89L 202.51 219.25L 186.99 207.85L 168 193.9L 143.51 190.01L 109 182.39L 50 139.04" fill="#007AFF" fill-opacity="0.30196078431372547" stroke="none"/>
    <path d="M 50 207.25L 109 249.25L 143.51 275.96L 168 295.46L 186.99 306.56L 202.51 317.96L 215.63 327.6L 227 335.95L 245.99 351.25L 261.51 361.31L 274.63 370.95L 286 379.3L 304.99 328.22L 320.51 363.4L 333.63 372.29L 345 325.31L 363.99 337.32L 379.51 337.8L 392.63 315.98L 404 290.92L 422.99 294.67L 438.51 287.28L 451.63 290.36L 463 286.12L 481.99 291.78L 497.51 283.98L 510.63 284.33L 522 296.59L 540.99 289.39L 556.51 277.85L 569.63 280.05L 581 289.54L 599.99 282.29L 615.51 273.95L 628.63 266.13L 640 263.91L 658.99 249.91L 674.51 244.33L 687.63 236.78L 699 232.5L 717.99 230.59L 733.51 225.55L 746.63 224.08L 758 221.64L 776.99 218.79L 792.51 217.52L 805.63 215.19L 817 213.22L 835.99 208.55L 851.51 205.64L 864.63 207.57L 876 203.62L 894.99 205.93L 910.51 204.94L 923.63 203.94L 935 202.31L 953.99 201.17L 969.51 199.7L 982.63 198.57L 994 189.53L 1013 196.24L 1028.5 195.15L 1041.6 194.18L 1053 192.81L 1072 191.43L 1087.5 190.71L 1100.6 189.75L 1112 185.17L 1131 183.14L 1146.5 186.75L 1159.6 185.36L 1171 184.58L 1190 183.79L 1205.5 174.22L 1218.6 182.33L 1230 180.88L 1230 181.1L 1218.6 182.37L 1205.5 183.42L 1190 184.2L 1171 184.84L 1159.6 185.84L 1146.5 186.85L 1131 188.09L 1112 188.62L 1100.6 189.87L 1087.5 191.21L 1072 192.26L 1053 192.94L 1041.6 194.24L 1028.5 195.5L 1013 196.66L 994 197.49L 982.63 199.22L 969.51 200.32L 953.99 201.45L 935 202.56L 923.63 204.04L 910.51 205.28L 894.99 206.41L 876 207.83L 864.63 209.88L 851.51 210.89L 835.99 212.18L 817 213.36L 805.63 215.68L 792.51 217.61L 776.99 218.9L 758 221.89L 746.63 224.34L 733.51 227.34L 717.99 231.54L 699 235.89L 687.63 239.83L 674.51 244.75L 658.99 255.87L 640 266.85L 628.63 268.9L 615.51 276.7L 599.99 287.43L 581 294.93L 569.63 280.05L 556.51 288.26L 540.99 293.67L 522 300.62L 510.63 288.07L 497.51 290.66L 481.99 301.04L 463 305.07L 451.63 294.43L 438.51 291.93L 422.99 301.04L 404 298.48L 392.63 329.51L 379.51 337.8L 363.99 337.9L 345 355.79L 333.63 372.29L 320.51 363.4L 304.99 396.11L 286 382.15L 274.63 373.8L 261.51 364.16L 245.99 351.25L 227 338.8L 215.63 330.45L 202.51 320.81L 186.99 309.41L 168 295.46L 143.51 275.96L 109 252.11L 50 207.25" fill="#FF3B30" fill-opacity="0.30196078431372547" stroke="none"/>
    <path d="M 50 139.04L 109 172.68L 143.51 189.82L 168 193.75L 186.99 207.85L 202.51 219.1L 215.63 228.89L 227 231.09L 245.99 239.7L 261.51 241.39L 274.63 242.81L 286 243.73L 304.99 245.18L 320.51 246.11L 333.63 248.92L 345 240.36L 363.99 241.02L 379.51 240.35L 392.63 240.82L 404 228.41L 422.99 226.79L 438.51 222.77L 451.63 221.08L 463 221.94L 481.99 203.96L 497.51 192.76L 510.63 194.13L 522 189.82L 540.99 186.99L 556.51 179.89L 569.63 174.62L 581 176.68L 599.99 174.8L 615.51 170.72L 628.63 168.55L 640 167.69L 658.99 164.29L 674.51 160.83L 687.63 162.15L 699 157.7L 717.99 157.53L 733.51 156.55L 746.63 154.35L 758 153.47L 776.99 155.19L 792.51 152.49L 805.63 152.05L 817 150.41L 835.99 150.75L 851.51 148.93L 864.63 148.46L 876 146.23L 894.99 146.9L 910.51 144.21L 923.63 143.75L 935 141.98L 953.99 142.83L 969.51 141.45L 982.63 140.59L 994 135.79L 1013 139.23L 1028.5 137.09L 1041.6 137.11L 1053 126.56L 1072 135.69L 1087.5 131.72L 1100.6 133.47L 1112 120.89L 1131 129.64L 1146.5 124.14L 1159.6 127.8L 1171 115.84L 1190 121.84L 1205.5 116.48L 1218.6 120.04L 1230 110.87" fill="none" stroke-width="4" stroke="#007AFF" stroke-opacity="1" stroke-linecap="round" stroke-linejoin="round"/>
    <path d="M 50 207.25L 109 251.35L 143.51 275.96L 168 295.46L 186.99 308.65L 202.51 320.05L 215.63 329.7L 227 338.05L 245.99 351.25L 261.51 363.4L 274.63 373.04L 286 381.39L 304.99 370.24L 320.51 363.4L 333.63 372.29L 345 346.29L 363.99 337.75L 379.51 337.8L 392.63 325.68L 404 296.42L 422.99 299.31L 438.51 290.69L 451.63 293.34L 463 299.54L 481.99 298.48L 497.51 288.84L 510.63 287.07L 522 299.54L 540.99 292.52L 556.51 285.37L 569.63 280.05L 581 293.48L 599.99 286.05L 615.51 275.97L 628.63 268.17L 640 266.07L 658.99 254.25L 674.51 244.64L 687.63 239.01L 699 234.98L 717.99 231.29L 733.51 226.86L 746.63 224.27L 758 221.83L 776.99 218.87L 792.51 217.58L 805.63 215.56L 817 213.32L 835.99 211.21L 851.51 209.48L 864.63 209.27L 876 206.7L 894.99 206.28L 910.51 205.19L 923.63 204.01L 935 202.49L 953.99 201.38L 969.51 200.16L 982.63 199.05L 994 195.31L 1013 196.55L 1028.5 195.41L 1041.6 194.23L 1053 192.91L 1072 192.04L 1087.5 191.08L 1100.6 189.84L 1112 187.7L 1131 186.76L 1146.5 186.82L 1159.6 185.72L 1171 184.77L 1190 184.1L 1205.5 180.88L 1218.6 182.36L 1230 181.04" fill="none" stroke-width="4" stroke="#FF3B30" stroke-opacity="1" stroke-linecap="round" stroke-linejoin="round"/>
    <path d="M 50 139.04L 109 172.68L 143.51 189.82L 168 193.75L 186.99 207.85L 202.51 219.1L 215.63 228.89L 227 231.09L 245.99 239.7L 261.51 241.39L 274.63 242.81L 286 243.73L 304.99 245.18L 320.51 246.11L 333.63 248.92L 345 240.36L 363.99 241.02L 379.51 240.35L 392.63 240.82L 404 228.41L 422.99 226.79L 438.51 222.77L 451.63 221.08L 463 221.94L 481.99 203.96L 497.51 192.76L 510.63 194.13L 522 189.82L 540.99 186.99L 556.51 179.89L 569.63 174.62L 581 176.68L 599.99 174.8L 615.51 170.72L 628.63 168.55L 640 167.69L 658.99 164.29L 674.51 160.83L 687.63 162.15L 699 157.7L 717.99 157.53L 733.51 156.55L 746.63 154.35L 758 153.47L 776.99 155.19L 792.51 152.49L 805.63 152.05L 817 150.41L 835.99 150.75L 851.51 148.93L 864.63 148.46L 876 146.23L 894.99 146.9L 910.51 144.21L 923.63 143.75L 935 141.98L 953.99 142.83L 969.51 141.45L 982.63 140.59L 994 135.79L 1013 139.23L 1028.5 137.09L 1041.6 137.11L 1053 126.56L 1072 135.69L 1087.5 131.72L 1100.6 133.47L 1112 120.89L 1131 129.64L 1146.5 124.14L 1159.6 127.8L 1171 115.84L 1190 121.84L 1205.5 116.48L 1218.6 120.04L 1230 110.87" fill="none" stroke-width="0.5" stroke="#000000" stroke-opacity="0.30196" stroke-linecap="round" stroke-linejoin="round"/>
    <path d="M 50 207.25L 109 251.35L 143.51 275.96L 168 295.46L 186.99 308.65L 202.51 320.05L 215.63 329.7L 227 338.05L 245.99 351.25L 261.51 363.4L 274.63 373.04L 286 381.39L 304.99 370.24L 320.51 363.4L 333.63 372.29L 345 346.29L 363.99 337.75L 379.51 337.8L 392.63 325.68L 404 296.42L 422.99 299.31L 438.51 290.69L 451.63 293.34L 463 299.54L 481.99 298.48L 497.51 288.84L 510.63 287.07L 522 299.54L 540.99 292.52L 556.51 285.37L 569.63 280.05L 581 293.48L 599.99 286.05L 615.51 275.97L 628.63 268.17L 640 266.07L 658.99 254.25L 674.51 244.64L 687.63 239.01L 699 234.98L 717.99 231.29L 733.51 226.86L 746.63 224.27L 758 221.83L 776.99 218.87L 792.51 217.58L 805.63 215.56L 817 213.32L 835.99 211.21L 851.51 209.48L 864.63 209.27L 876 206.7L 894.99 206.28L 910.51 205.19L 923.63 204.01L 935 202.49L 953.99 201.38L 969.51 200.16L 982.63 199.05L 994 195.31L 1013 196.55L 1028.5 195.41L 1041.6 194.23L 1053 192.91L 1072 192.04L 1087.5 191.08L 1100.6 189.84L 1112 187.7L 1131 186.76L 1146.5 186.82L 1159.6 185.72L 1171 184.77L 1190 184.1L 1205.5 180.88L 1218.6 182.36L 1230 181.04" fill="none" stroke-width="0.5" stroke="#000000" stroke-opacity="0.30196" stroke-linecap="round" stroke-linejoin="round"/>
  </g>
  <path d="M 74 33 L 74 88 L 269 88 L 269 33 z" fill="#FFFFFF" fill-opacity="0.7019607843137254" stroke-width="0.5" stroke="#000000" stroke-opacity="1" stroke-linecap="round" stroke-linejoin="round"/>
  <path d="M 88 52 L 108 52" fill="none" stroke-width="4" stroke="#FF3B30" stroke-opacity="1" stroke-linecap="round" stroke-linejoin="round"/>
  <path d="M 88 52 L 108 52" fill="none" stroke-width="0.5" stroke="#000000" stroke-opacity="0.30196" stroke-linecap="round" stroke-linejoin="round"/>
  <text x="119" y="56.17" font-family="Menlo" font-size="12" font-weight="normal" font-style="normal" fill="#000000" fill-opacity="1">Array&lt;Int&gt; sort</text>
  <path d="M 88 69 L 108 69" fill="none" stroke-width="4" stroke="#007AFF" stroke-opacity="1" stroke-linecap="round" stroke-linejoin="round"/>
  <path d="M 88 69 L 108 69" fill="none" stroke-width="0.5" stroke="#000000" stroke-opacity="0.30196" stroke-linecap="round" stroke-linejoin="round"/>
  <text x="119" y="73.17" font-family="Menlo" font-size="12" font-weight="normal" font-style="normal" fill="#000000" fill-opacity="1">TreeArray&lt;Int&gt; sort</text>
  <path d="M 50 9 L 50 441 L 1230 441 L 1230 9 z" fill="none" stroke-width="0.5" stroke="#000000" stroke-opacity="1" stroke-linecap="round" stroke-linejoin="round"/>
</svg>
