<!DOCTYPE svg PUBLIC "-//W3C//DTD SVG 1.1//EN" "http://www.w3.org/Graphics/SVG/1.1/DTD/svg11.dtd">
<svg width="1280.0px" height="480.0px" viewBox="0.0 0.0 1280.0 480.0" xmlns="http://www.w3.org/2000/svg" xmlns:xlink="http://www.w3.org/1999/xlink" version="1.1">
  <path d="M 0 0 L 0 480 L 1280 480 L 1280 0 z" fill="#FFFFFF" fill-opacity="1.0" stroke="none"/>
  <text x="50" y="468.7" font-family="Helvetica" font-size="10" font-weight="normal" font-style="normal" fill="#000000" fill-opacity="1">Average per-element processing time over input size (bands: min, mean, mean + 2stddev)</text>
  <a xlink:href="https://github.com/apple/swift-collections-benchmark"><text x="1107" y="468.7" font-family="Helvetica" font-size="10" font-weight="normal" font-style="normal" fill="#000000" fill-opacity="1">swift-collections-benchmark</text></a>
  <path d="M 50 9 L 50 441" fill="none" stroke-width="0.75" stroke="#000000" stroke-opacity="0.49804" stroke-linecap="butt" stroke-linejoin="round"/>
  <text x="47" y="453.7" font-family="Helvetica" font-size="10" font-weight="normal" font-style="normal" fill="#000000" fill-opacity="1">1</text>
  <path d="M 109 9 L 109 441" fill="none" stroke-width="0.75" stroke="#000000" stroke-opacity="0.49804" stroke-linecap="butt" stroke-linejoin="round"/>
  <text x="106" y="453.7" font-family="Helvetica" font-size="10" font-weight="normal" font-style="normal" fill="#000000" fill-opacity="1">2</text>
  <path d="M 168 9 L 168 441" fill="none" stroke-width="0.75" stroke="#000000" stroke-opacity="0.49804" stroke-linecap="butt" stroke-linejoin="round"/>
  <text x="165" y="453.7" font-family="Helvetica" font-size="10" font-weight="normal" font-style="normal" fill="#000000" fill-opacity="1">4</text>
  <path d="M 227 9 L 227 441" fill="none" stroke-width="0.75" stroke="#000000" stroke-opacity="0.49804" stroke-linecap="butt" stroke-linejoin="round"/>
  <text x="224" y="453.7" font-family="Helvetica" font-size="10" font-weight="normal" font-style="normal" fill="#000000" fill-opacity="1">8</text>
  <path d="M 286 9 L 286 441" fill="none" stroke-width="0.75" stroke="#000000" stroke-opacity="0.49804" stroke-linecap="butt" stroke-linejoin="round"/>
  <text x="280" y="453.7" font-family="Helvetica" font-size="10" font-weight="normal" font-style="normal" fill="#000000" fill-opacity="1">16</text>
  <path d="M 345 9 L 345 441" fill="none" stroke-width="0.75" stroke="#000000" stroke-opacity="0.49804" stroke-linecap="butt" stroke-linejoin="round"/>
  <text x="339" y="453.7" font-family="Helvetica" font-size="10" font-weight="normal" font-style="normal" fill="#000000" fill-opacity="1">32</text>
  <path d="M 404 9 L 404 441" fill="none" stroke-width="0.75" stroke="#000000" stroke-opacity="0.49804" stroke-linecap="butt" stroke-linejoin="round"/>
  <text x="398" y="453.7" font-family="Helvetica" font-size="10" font-weight="normal" font-style="normal" fill="#000000" fill-opacity="1">64</text>
  <path d="M 463 9 L 463 441" fill="none" stroke-width="0.75" stroke="#000000" stroke-opacity="0.49804" stroke-linecap="butt" stroke-linejoin="round"/>
  <text x="454.5" y="453.7" font-family="Helvetica" font-size="10" font-weight="normal" font-style="normal" fill="#000000" fill-opacity="1">128</text>
  <path d="M 522 9 L 522 441" fill="none" stroke-width="0.75" stroke="#000000" stroke-opacity="0.49804" stroke-linecap="butt" stroke-linejoin="round"/>
  <text x="513.5" y="453.7" font-family="Helvetica" font-size="10" font-weight="normal" font-style="normal" fill="#000000" fill-opacity="1">256</text>
  <path d="M 581 9 L 581 441" fill="none" stroke-width="0.75" stroke="#000000" stroke-opacity="0.49804" stroke-linecap="butt" stroke-linejoin="round"/>
  <text x="572.5" y="453.7" font-family="Helvetica" font-size="10" font-weight="normal" font-style="normal" fill="#000000" fill-opacity="1">512</text>
  <path d="M 640 9 L 640 441" fill="none" stroke-width="0.75" stroke="#000000" stroke-opacity="0.49804" stroke-linecap="butt" stroke-linejoin="round"/>
  <text x="634.5" y="453.7" font-family="Helvetica" font-size="10" font-weight="normal" font-style="normal" fill="#000000" fill-opacity="1">1k</text>
  <path d="M 699 9 L 699 441" fill="none" stroke-width="0.75" stroke="#000000" stroke-opacity="0.49804" stroke-linecap="butt" stroke-linejoin="round"/>
  <text x="693.5" y="453.7" font-family="Helvetica" font-size="10" font-weight="normal" font-style="normal" fill="#000000" fill-opacity="1">2k</text>
  <path d="M 758 9 L 758 441" fill="none" stroke-width="0.75" stroke="#000000" stroke-opacity="0.49804" stroke-linecap="butt" stroke-linejoin="round"/>
  <text x="752.5" y="453.7" font-family="Helvetica" font-size="10" font-weight="normal" font-style="normal" fill="#000000" fill-opacity="1">4k</text>
  <path d="M 817 9 L 817 441" fill="none" stroke-width="0.75" stroke="#000000" stroke-opacity="0.49804" stroke-linecap="butt" stroke-linejoin="round"/>
  <text x="811.5" y="453.7" font-family="Helvetica" font-size="10" font-weight="normal" font-style="normal" fill="#000000" fill-opacity="1">8k</text>
  <path d="M 876 9 L 876 441" fill="none" stroke-width="0.75" stroke="#000000" stroke-opacity="0.49804" stroke-linecap="butt" stroke-linejoin="round"/>
  <text x="867.5" y="453.7" font-family="Helvetica" font-size="10" font-weight="normal" font-style="normal" fill="#000000" fill-opacity="1">16k</text>
  <path d="M 935 9 L 935 441" fill="none" stroke-width="0.75" stroke="#000000" stroke-opacity="0.49804" stroke-linecap="butt" stroke-linejoin="round"/>
  <text x="926.5" y="453.7" font-family="Helvetica" font-size="10" font-weight="normal" font-style="normal" fill="#000000" fill-opacity="1">32k</text>
  <path d="M 994 9 L 994 441" fill="none" stroke-width="0.75" stroke="#000000" stroke-opacity="0.49804" stroke-linecap="butt" stroke-linejoin="round"/>
  <text x="985.5" y="453.7" font-family="Helvetica" font-size="10" font-weight="normal" font-style="normal" fill="#000000" fill-opacity="1">64k</text>
  <path d="M 1053 9 L 1053 441" fill="none" stroke-width="0.75" stroke="#000000" stroke-opacity="0.49804" stroke-linecap="butt" stroke-linejoin="round"/>
  <text x="1042" y="453.7" font-family="Helvetica" font-size="10" font-weight="normal" font-style="normal" fill="#000000" fill-opacity="1">128k</text>
  <path d="M 1112 9 L 1112 441" fill="none" stroke-width="0.75" stroke="#000000" stroke-opacity="0.49804" stroke-linecap="butt" stroke-linejoin="round"/>
  <text x="1101" y="453.7" font-family="Helvetica" font-size="10" font-weight="normal" font-style="normal" fill="#000000" fill-opacity="1">256k</text>
  <path d="M 1171 9 L 1171 441" fill="none" stroke-width="0.75" stroke="#000000" stroke-opacity="0.49804" stroke-linecap="butt" stroke-linejoin="round"/>
  <text x="1160" y="453.7" font-family="Helvetica" font-size="10" font-weight="normal" font-style="normal" fill="#000000" fill-opacity="1">512k</text>
  <path d="M 1230 9 L 1230 441" fill="none" stroke-width="0.75" stroke="#000000" stroke-opacity="0.49804" stroke-linecap="butt" stroke-linejoin="round"/>
  <text x="1223" y="453.7" font-family="Helvetica" font-size="10" font-weight="normal" font-style="normal" fill="#000000" fill-opacity="1">1M</text>
  <path d="M 50 441 L 1230 441" fill="none" stroke-width="0.75" stroke="#000000" stroke-opacity="0.49804" stroke-linecap="butt" stroke-linejoin="round"/>
  <text x="27" y="442.7" font-family="Helvetica" font-size="10" font-weight="normal" font-style="normal" fill="#000000" fill-opacity="1">1 ns</text>
  <text x="1236" y="442.7" font-family="Helvetica" font-size="10" font-weight="normal" font-style="normal" fill="#000000" fill-opacity="1">1 ns</text>
  <path d="M 50 297 L 1230 297" fill="none" stroke-width="0.75" stroke="#000000" stroke-opacity="0.49804" stroke-linecap="butt" stroke-linejoin="round"/>
  <text x="21" y="298.7" font-family="Helvetica" font-size="10" font-weight="normal" font-style="normal" fill="#000000" fill-opacity="1">10 ns</text>
  <text x="1236" y="298.7" font-family="Helvetica" font-size="10" font-weight="normal" font-style="normal" fill="#000000" fill-opacity="1">10 ns</text>
  <path d="M 50 153 L 1230 153" fill="none" stroke-width="0.75" stroke="#000000" stroke-opacity="0.49804" stroke-linecap="butt" stroke-linejoin="round"/>
  <text x="16" y="154.7" font-family="Helvetica" font-size="10" font-weight="normal" font-style="normal" fill="#000000" fill-opacity="1">100 ns</text>
  <text x="1236" y="154.7" font-family="Helvetica" font-size="10" font-weight="normal" font-style="normal" fill="#000000" fill-opacity="1">100 ns</text>
  <path d="M 50 9 L 1230 9" fill="none" stroke-width="0.75" stroke="#000000" stroke-opacity="0.49804" stroke-linecap="butt" stroke-linejoin="round"/>
  <text x="26" y="10.7" font-family="Helvetica" font-size="10" font-weight="normal" font-style="normal" fill="#000000" fill-opacity="1">1 µs</text>
  <text x="1236" y="10.7" font-family="Helvetica" font-size="10" font-weight="normal" font-style="normal" fill="#000000" fill-opacity="1">1 µs</text>
  <path d="M 50 397.65 L 1230 397.65" fill="none" stroke-width="0.5" stroke="#000000" stroke-opacity="0.25882" stroke-linecap="butt" stroke-linejoin="round" stroke-dasharray="6 3" stroke-dashoffset="0"/>
  <path d="M 50 354.3 L 1230 354.3" fill="none" stroke-width="0.5" stroke="#000000" stroke-opacity="0.25882" stroke-linecap="butt" stroke-linejoin="round" stroke-dasharray="6 3" stroke-dashoffset="0"/>
  <path d="M 50 310.96 L 1230 310.96" fill="none" stroke-width="0.5" stroke="#000000" stroke-opacity="0.25882" stroke-linecap="butt" stroke-linejoin="round" stroke-dasharray="6 3" stroke-dashoffset="0"/>
  <path d="M 50 267.61 L 1230 267.61" fill="none" stroke-width="0.5" stroke="#000000" stroke-opacity="0.25882" stroke-linecap="butt" stroke-linejoin="round" stroke-dasharray="6 3" stroke-dashoffset="0"/>
  <path d="M 50 224.26 L 1230 224.26" fill="none" stroke-width="0.5" stroke="#000000" stroke-opacity="0.25882" stroke-linecap="butt" stroke-linejoin="round" stroke-dasharray="6 3" stroke-dashoffset="0"/>
  <path d="M 50 180.91 L 1230 180.91" fill="none" stroke-width="0.5" stroke="#000000" stroke-opacity="0.25882" stroke-linecap="butt" stroke-linejoin="round" stroke-dasharray="6 3" stroke-dashoffset="0"/>
  <path d="M 50 137.56 L 1230 137.56" fill="none" stroke-width="0.5" stroke="#000000" stroke-opacity="0.25882" stroke-linecap="butt" stroke-linejoin="round" stroke-dasharray="6 3" stroke-dashoffset="0"/>
  <path d="M 50 94.213 L 1230 94.213" fill="none" stroke-width="0.5" stroke="#000000" stroke-opacity="0.25882" stroke-linecap="butt" stroke-linejoin="round" stroke-dasharray="6 3" stroke-dashoffset="0"/>
  <path d="M 50 50.865 L 1230 50.865" fill="none" stroke-width="0.5" stroke="#000000" stroke-opacity="0.25882" stroke-linecap="butt" stroke-linejoin="round" stroke-dasharray="6 3" stroke-dashoffset="0"/>
  <path d="M 74 33 L 74 88 L 269 88 L 269 33 z" fill="#FFFFFF" fill-opacity="1.0" stroke="none"/>
  <clipPath id="clip-0">
    <path d="M 50 9 L 50 441 L 1230 441 L 1230 9 z"/>
  </clipPath>
  <g clip-path="url(#clip-0)">
    <path d="M 50 108.57L 109 164.65L 143.51 189.29L 168 207.28L 186.99 197.49L 202.51 219.25L 215.63 228.89L 227 225.74L 245.99 229.79L 261.51 241.39L 274.63 242.45L 286 237.64L 304.99 244.92L 320.51 241.77L 333.63 235.9L 345 234.54L 363.99 228.25L 379.51 235.38L 392.63 230.79L 404 217.74L 422.99 220.27L 438.51 216.61L 451.63 208.75L 463 211.86L 481.99 187.04L 497.51 197.47L 510.63 191.77L 522 184.64L 540.99 185.05L 556.51 176.81L 569.63 176.54L 581 171.24L 599.99 174.18L 615.51 169.86L 628.63 167.04L 640 162.23L 658.99 163.38L 674.51 162.45L 687.63 157.17L 699 158.38L 717.99 154.63L 733.51 155L 746.63 157.03L 758 150.74L 776.99 155.06L 792.51 153.26L 805.63 152.63L 817 150.82L 835.99 150.55L 851.51 148.45L 864.63 146.44L 876 146.47L 894.99 145.63L 910.51 145.38L 923.63 144.62L 935 142.68L 953.99 142.68L 969.51 140.83L 982.63 139.35L 994 136.35L 1013 138.41L 1028.5 137.59L 1041.6 137.48L 1053 126.02L 1072 132.31L 1087.5 127.5L 1100.6 133.28L 1112 121.96L 1131 128.79L 1146.5 120.74L 1159.6 126.33L 1171 109.91L 1190 120.41L 1205.5 116.96L 1218.6 117.88L 1230 108.63L 1230 111.57L 1218.6 121.11L 1205.5 118.44L 1190 120.64L 1171 116.74L 1159.6 128.04L 1146.5 123.99L 1131 129.62L 1112 122.02L 1100.6 133.7L 1087.5 132.34L 1072 135.78L 1053 128.77L 1041.6 137.55L 1028.5 137.89L 1013 139.36L 994 137.05L 982.63 141.38L 969.51 141.71L 953.99 143.34L 935 143.36L 923.63 145.07L 910.51 145.79L 894.99 146.92L 876 147.1L 864.63 148.55L 851.51 149.64L 835.99 150.6L 817 151.47L 805.63 152.78L 792.51 153.84L 776.99 156.01L 758 155.36L 746.63 157.04L 733.51 157.88L 717.99 159.58L 699 159.08L 687.63 160.91L 674.51 162.79L 658.99 166.01L 640 167.53L 628.63 168.81L 615.51 172.29L 599.99 175.73L 581 179.61L 569.63 180.56L 556.51 186.9L 540.99 185.05L 522 190.74L 510.63 195.6L 497.51 201.85L 481.99 210.95L 463 213.91L 451.63 219.38L 438.51 229.3L 422.99 232.33L 404 229.78L 392.63 240.82L 379.51 243.73L 363.99 237.12L 345 247.34L 333.63 251.13L 320.51 251.1L 304.99 245.18L 286 251.16L 274.63 242.81L 261.51 241.39L 245.99 230.2L 227 225.74L 215.63 228.89L 202.51 219.25L 186.99 221.58L 168 208L 143.51 190.01L 109 164.65L 50 139.04" fill="#007AFF" fill-opacity="0.30196078431372547" stroke="none"/>
    <path d="M 50 207.25L 109 249.25L 143.51 275.96L 168 295.46L 186.99 306.56L 202.51 317.96L 215.63 327.6L 227 335.95L 245.99 351.25L 261.51 361.31L 274.63 370.95L 286 379.3L 304.99 328.22L 320.51 363.4L 333.63 372.29L 345 325.31L 363.99 337.32L 379.51 337.8L 392.63 315.98L 404 290.92L 422.99 294.67L 438.51 287.28L 451.63 290.36L 463 286.12L 481.99 291.78L 497.51 283.98L 510.63 284.33L 522 296.59L 540.99 289.39L 556.51 277.85L 569.63 280.05L 581 289.54L 599.99 282.29L 615.51 273.95L 628.63 266.13L 640 263.91L 658.99 249.91L 674.51 244.33L 687.63 236.78L 699 232.5L 717.99 230.59L 733.51 225.55L 746.63 224.08L 758 221.64L 776.99 218.79L 792.51 217.52L 805.63 215.19L 817 213.22L 835.99 208.55L 851.51 205.64L 864.63 207.57L 876 203.62L 894.99 205.93L 910.51 204.94L 923.63 203.94L 935 202.31L 953.99 201.17L 969.51 199.7L 982.63 198.57L 994 189.53L 1013 196.24L 1028.5 195.15L 1041.6 194.18L 1053 192.81L 1072 191.43L 1087.5 190.71L 1100.6 189.75L 1112 185.17L 1131 183.14L 1146.5 186.75L 1159.6 185.36L 1171 184.58L 1190 183.79L 1205.5 174.22L 1218.6 182.33L 1230 180.88L 1230 181.1L 1218.6 182.37L 1205.5 183.42L 1190 184.2L 1171 184.84L 1159.6 185.84L 1146.5 186.85L 1131 188.09L 1112 188.62L 1100.6 189.87L 1087.5 191.21L 1072 192.26L 1053 192.94L 1041.6 194.24L 1028.5 195.5L 1013 196.66L 994 197.49L 982.63 199.22L 969.51 200.32L 953.99 201.45L 935 202.56L 923.63 204.04L 910.51 205.28L 894.99 206.41L 876 207.83L 864.63 209.88L 851.51 210.89L 835.99 212.18L 817 213.36L 805.63 215.68L 792.51 217.61L 776.99 218.9L 758 221.89L 746.63 224.34L 733.51 227.34L 717.99 231.54L 699 235.89L 687.63 239.83L 674.51 244.75L 658.99 255.87L 640 266.85L 628.63 268.9L 615.51 276.7L 599.99 287.43L 581 294.93L 569.63 280.05L 556.51 288.26L 540.99 293.67L 522 300.62L 510.63 288.07L 497.51 290.66L 481.99 301.04L 463 305.07L 451.63 294.43L 438.51 291.93L 422.99 301.04L 404 298.48L 392.63 329.51L 379.51 337.8L 363.99 337.9L 345 355.79L 333.63 372.29L 320.51 363.4L 304.99 396.11L 286 382.15L 274.63 373.8L 261.51 364.16L 245.99 351.25L 227 338.8L 215.63 330.45L 202.51 320.81L 186.99 309.41L 168 295.46L 143.51 275.96L 109 252.11L 50 207.25" fill="#FF3B30" fill-opacity="0.30196078431372547" stroke="none"/>
    <path d="M 50 129.55L 109 164.65L 143.51 189.82L 168 207.81L 186.99 214.34L 202.51 219.25L 215.63 228.89L 227 225.74L 245.99 230.09L 261.51 241.39L 274.63 242.72L 286 247.34L 304.99 245.12L 320.51 248.53L 333.63 246.78L 345 243.73L 363.99 234.68L 379.51 241.44L 392.63 238.04L 404 226.4L 422.99 228.95L 438.51 225.73L 451.63 216.42L 463 213.37L 481.99 203.77L 497.51 200.67L 510.63 194.58L 522 189.09L 540.99 185.05L 556.51 184.1L 569.63 179.48L 581 177.31L 599.99 175.32L 615.51 171.65L 628.63 168.35L 640 166.1L 658.99 165.31L 674.51 162.7L 687.63 159.91L 699 158.9L 717.99 158.25L 733.51 157.12L 746.63 157.04L 758 154.12L 776.99 155.76L 792.51 153.69L 805.63 152.74L 817 151.3L 835.99 150.59L 851.51 149.33L 864.63 148L 876 146.93L 894.99 146.58L 910.51 145.68L 923.63 144.95L 935 143.18L 953.99 143.17L 969.51 141.48L 982.63 140.85L 994 136.87L 1013 139.11L 1028.5 137.81L 1041.6 137.53L 1053 128.04L 1072 134.86L 1087.5 131.04L 1100.6 133.59L 1112 122L 1131 129.4L 1146.5 123.12L 1159.6 127.59L 1171 114.88L 1190 120.58L 1205.5 118.05L 1218.6 120.25L 1230 110.79" fill="none" stroke-width="4" stroke="#007AFF" stroke-opacity="1" stroke-linecap="round" stroke-linejoin="round"/>
    <path d="M 50 207.25L 109 251.35L 143.51 275.96L 168 295.46L 186.99 308.65L 202.51 320.05L 215.63 329.7L 227 338.05L 245.99 351.25L 261.51 363.4L 274.63 373.04L 286 381.39L 304.99 370.24L 320.51 363.4L 333.63 372.29L 345 346.29L 363.99 337.75L 379.51 337.8L 392.63 325.68L 404 296.42L 422.99 299.31L 438.51 290.69L 451.63 293.34L 463 299.54L 481.99 298.48L 497.51 288.84L 510.63 287.07L 522 299.54L 540.99 292.52L 556.51 285.37L 569.63 280.05L 581 293.48L 599.99 286.05L 615.51 275.97L 628.63 268.17L 640 266.07L 658.99 254.25L 674.51 244.64L 687.63 239.01L 699 234.98L 717.99 231.29L 733.51 226.86L 746.63 224.27L 758 221.83L 776.99 218.87L 792.51 217.58L 805.63 215.56L 817 213.32L 835.99 211.21L 851.51 209.48L 864.63 209.27L 876 206.7L 894.99 206.28L 910.51 205.19L 923.63 204.01L 935 202.49L 953.99 201.38L 969.51 200.16L 982.63 199.05L 994 195.31L 1013 196.55L 1028.5 195.41L 1041.6 194.23L 1053 192.91L 1072 192.04L 1087.5 191.08L 1100.6 189.84L 1112 187.7L 1131 186.76L 1146.5 186.82L 1159.6 185.72L 1171 184.77L 1190 184.1L 1205.5 180.88L 1218.6 182.36L 1230 181.04" fill="none" stroke-width="4" stroke="#FF3B30" stroke-opacity="1" stroke-linecap="round" stroke-linejoin="round"/>
    <path d="M 50 129.55L 109 164.65L 143.51 189.82L 168 207.81L 186.99 214.34L 202.51 219.25L 215.63 228.89L 227 225.74L 245.99 230.09L 261.51 241.39L 274.63 242.72L 286 247.34L 304.99 245.12L 320.51 248.53L 333.63 246.78L 345 243.73L 363.99 234.68L 379.51 241.44L 392.63 238.04L 404 226.4L 422.99 228.95L 438.51 225.73L 451.63 216.42L 463 213.37L 481.99 203.77L 497.51 200.67L 510.63 194.58L 522 189.09L 540.99 185.05L 556.51 184.1L 569.63 179.48L 581 177.31L 599.99 175.32L 615.51 171.65L 628.63 168.35L 640 166.1L 658.99 165.31L 674.51 162.7L 687.63 159.91L 699 158.9L 717.99 158.25L 733.51 157.12L 746.63 157.04L 758 154.12L 776.99 155.76L 792.51 153.69L 805.63 152.74L 817 151.3L 835.99 150.59L 851.51 149.33L 864.63 148L 876 146.93L 894.99 146.58L 910.51 145.68L 923.63 144.95L 935 143.18L 953.99 143.17L 969.51 141.48L 982.63 140.85L 994 136.87L 1013 139.11L 1028.5 137.81L 1041.6 137.53L 1053 128.04L 1072 134.86L 1087.5 131.04L 1100.6 133.59L 1112 122L 1131 129.4L 1146.5 123.12L 1159.6 127.59L 1171 114.88L 1190 120.58L 1205.5 118.05L 1218.6 120.25L 1230 110.79" fill="none" stroke-width="0.5" stroke="#000000" stroke-opacity="0.30196" stroke-linecap="round" stroke-linejoin="round"/>
    <path d="M 50 207.25L 109 251.35L 143.51 275.96L 168 295.46L 186.99 308.65L 202.51 320.05L 215.63 329.7L 227 338.05L 245.99 351.25L 261.51 363.4L 274.63 373.04L 286 381.39L 304.99 370.24L 320.51 363.4L 333.63 372.29L 345 346.29L 363.99 337.75L 379.51 337.8L 392.63 325.68L 404 296.42L 422.99 299.31L 438.51 290.69L 451.63 293.34L 463 299.54L 481.99 298.48L 497.51 288.84L 510.63 287.07L 522 299.54L 540.99 292.52L 556.51 285.37L 569.63 280.05L 581 293.48L 599.99 286.05L 615.51 275.97L 628.63 268.17L 640 266.07L 658.99 254.25L 674.51 244.64L 687.63 239.01L 699 234.98L 717.99 231.29L 733.51 226.86L 746.63 224.27L 758 221.83L 776.99 218.87L 792.51 217.58L 805.63 215.56L 817 213.32L 835.99 211.21L 851.51 209.48L 864.63 209.27L 876 206.7L 894.99 206.28L 910.51 205.19L 923.63 204.01L 935 202.49L 953.99 201.38L 969.51 200.16L 982.63 199.05L 994 195.31L 1013 196.55L 1028.5 195.41L 1041.6 194.23L 1053 192.91L 1072 192.04L 1087.5 191.08L 1100.6 189.84L 1112 187.7L 1131 186.76L 1146.5 186.82L 1159.6 185.72L 1171 184.77L 1190 184.1L 1205.5 180.88L 1218.6 182.36L 1230 181.04" fill="none" stroke-width="0.5" stroke="#000000" stroke-opacity="0.30196" stroke-linecap="round" stroke-linejoin="round"/>
  </g>
  <path d="M 74 33 L 74 88 L 269 88 L 269 33 z" fill="#FFFFFF" fill-opacity="0.7019607843137254" stroke-width="0.5" stroke="#000000" stroke-opacity="1" stroke-linecap="round" stroke-linejoin="round"/>
  <path d="M 88 52 L 108 52" fill="none" stroke-width="4" stroke="#FF3B30" stroke-opacity="1" stroke-linecap="round" stroke-linejoin="round"/>
  <path d="M 88 52 L 108 52" fill="none" stroke-width="0.5" stroke="#000000" stroke-opacity="0.30196" stroke-linecap="round" stroke-linejoin="round"/>
  <text x="119" y="56.17" font-family="Menlo" font-size="12" font-weight="normal" font-style="normal" fill="#000000" fill-opacity="1">Array&lt;Int&gt; sort</text>
  <path d="M 88 69 L 108 69" fill="none" stroke-width="4" stroke="#007AFF" stroke-opacity="1" stroke-linecap="round" stroke-linejoin="round"/>
  <path d="M 88 69 L 108 69" fill="none" stroke-width="0.5" stroke="#000000" stroke-opacity="0.30196" stroke-linecap="round" stroke-linejoin="round"/>
  <text x="119" y="73.17" font-family="Menlo" font-size="12" font-weight="normal" font-style="normal" fill="#000000" fill-opacity="1">TreeArray&lt;Int&gt; sort</text>
  <path d="M 50 9 L 50 441 L 1230 441 L 1230 9 z" fill="none" stroke-width="0.5" stroke="#000000" stroke-opacity="1" stroke-linecap="round" stroke-linejoin="round"/>
</svg>
