<!DOCTYPE svg PUBLIC "-//W3C//DTD SVG 1.1//EN" "http://www.w3.org/Graphics/SVG/1.1/DTD/svg11.dtd">
<svg width="1280.0px" height="480.0px" viewBox="0.0 0.0 1280.0 480.0" xmlns="http://www.w3.org/2000/svg" xmlns:xlink="http://www.w3.org/1999/xlink" version="1.1">
  <path d="M 0 0 L 0 480 L 1280 480 L 1280 0 z" fill="#FFFFFF" fill-opacity="1.0" stroke="none"/>
  <text x="50" y="468.7" font-family="Helvetica" font-size="10" font-weight="normal" font-style="normal" fill="#000000" fill-opacity="1">Average per-element processing time over input size (bands: min, mean, mean + 2stddev)</text>
  <a xlink:href="https://github.com/apple/swift-collections-benchmark"><text x="1107" y="468.7" font-family="Helvetica" font-size="10" font-weight="normal" font-style="normal" fill="#000000" fill-opacity="1">swift-collections-benchmark</text></a>
  <path d="M 50 9 L 50 441" fill="none" stroke-width="0.75" stroke="#000000" stroke-opacity="0.49804" stroke-linecap="butt" stroke-linejoin="round"/>
  <text x="47" y="453.7" font-family="Helvetica" font-size="10" font-weight="normal" font-style="normal" fill="#000000" fill-opacity="1">1</text>
  <path d="M 109 9 L 109 441" fill="none" stroke-width="0.75" stroke="#000000" stroke-opacity="0.49804" stroke-linecap="butt" stroke-linejoin="round"/>
  <text x="106" y="453.7" font-family="Helvetica" font-size="10" font-weight="normal" font-style="normal" fill="#000000" fill-opacity="1">2</text>
  <path d="M 168 9 L 168 441" fill="none" stroke-width="0.75" stroke="#000000" stroke-opacity="0.49804" stroke-linecap="butt" stroke-linejoin="round"/>
  <text x="165" y="453.7" font-family="Helvetica" font-size="10" font-weight="normal" font-style="normal" fill="#000000" fill-opacity="1">4</text>
  <path d="M 227 9 L 227 441" fill="none" stroke-width="0.75" stroke="#000000" stroke-opacity="0.49804" stroke-linecap="butt" stroke-linejoin="round"/>
  <text x="224" y="453.7" font-family="Helvetica" font-size="10" font-weight="normal" font-style="normal" fill="#000000" fill-opacity="1">8</text>
  <path d="M 286 9 L 286 441" fill="none" stroke-width="0.75" stroke="#000000" stroke-opacity="0.49804" stroke-linecap="butt" stroke-linejoin="round"/>
  <text x="280" y="453.7" font-family="Helvetica" font-size="10" font-weight="normal" font-style="normal" fill="#000000" fill-opacity="1">16</text>
  <path d="M 345 9 L 345 441" fill="none" stroke-width="0.75" stroke="#000000" stroke-opacity="0.49804" stroke-linecap="butt" stroke-linejoin="round"/>
  <text x="339" y="453.7" font-family="Helvetica" font-size="10" font-weight="normal" font-style="normal" fill="#000000" fill-opacity="1">32</text>
  <path d="M 404 9 L 404 441" fill="none" stroke-width="0.75" stroke="#000000" stroke-opacity="0.49804" stroke-linecap="butt" stroke-linejoin="round"/>
  <text x="398" y="453.7" font-family="Helvetica" font-size="10" font-weight="normal" font-style="normal" fill="#000000" fill-opacity="1">64</text>
  <path d="M 463 9 L 463 441" fill="none" stroke-width="0.75" stroke="#000000" stroke-opacity="0.49804" stroke-linecap="butt" stroke-linejoin="round"/>
  <text x="454.5" y="453.7" font-family="Helvetica" font-size="10" font-weight="normal" font-style="normal" fill="#000000" fill-opacity="1">128</text>
  <path d="M 522 9 L 522 441" fill="none" stroke-width="0.75" stroke="#000000" stroke-opacity="0.49804" stroke-linecap="butt" stroke-linejoin="round"/>
  <text x="513.5" y="453.7" font-family="Helvetica" font-size="10" font-weight="normal" font-style="normal" fill="#000000" fill-opacity="1">256</text>
  <path d="M 581 9 L 581 441" fill="none" stroke-width="0.75" stroke="#000000" stroke-opacity="0.49804" stroke-linecap="butt" stroke-linejoin="round"/>
  <text x="572.5" y="453.7" font-family="Helvetica" font-size="10" font-weight="normal" font-style="normal" fill="#000000" fill-opacity="1">512</text>
  <path d="M 640 9 L 640 441" fill="none" stroke-width="0.75" stroke="#000000" stroke-opacity="0.49804" stroke-linecap="butt" stroke-linejoin="round"/>
  <text x="634.5" y="453.7" font-family="Helvetica" font-size="10" font-weight="normal" font-style="normal" fill="#000000" fill-opacity="1">1k</text>
  <path d="M 699 9 L 699 441" fill="none" stroke-width="0.75" stroke="#000000" stroke-opacity="0.49804" stroke-linecap="butt" stroke-linejoin="round"/>
  <text x="693.5" y="453.7" font-family="Helvetica" font-size="10" font-weight="normal" font-style="normal" fill="#000000" fill-opacity="1">2k</text>
  <path d="M 758 9 L 758 441" fill="none" stroke-width="0.75" stroke="#000000" stroke-opacity="0.49804" stroke-linecap="butt" stroke-linejoin="round"/>
  <text x="752.5" y="453.7" font-family="Helvetica" font-size="10" font-weight="normal" font-style="normal" fill="#000000" fill-opacity="1">4k</text>
  <path d="M 817 9 L 817 441" fill="none" stroke-width="0.75" stroke="#000000" stroke-opacity="0.49804" stroke-linecap="butt" stroke-linejoin="round"/>
  <text x="811.5" y="453.7" font-family="Helvetica" font-size="10" font-weight="normal" font-style="normal" fill="#000000" fill-opacity="1">8k</text>
  <path d="M 876 9 L 876 441" fill="none" stroke-width="0.75" stroke="#000000" stroke-opacity="0.49804" stroke-linecap="butt" stroke-linejoin="round"/>
  <text x="867.5" y="453.7" font-family="Helvetica" font-size="10" font-weight="normal" font-style="normal" fill="#000000" fill-opacity="1">16k</text>
  <path d="M 935 9 L 935 441" fill="none" stroke-width="0.75" stroke="#000000" stroke-opacity="0.49804" stroke-linecap="butt" stroke-linejoin="round"/>
  <text x="926.5" y="453.7" font-family="Helvetica" font-size="10" font-weight="normal" font-style="normal" fill="#000000" fill-opacity="1">32k</text>
  <path d="M 994 9 L 994 441" fill="none" stroke-width="0.75" stroke="#000000" stroke-opacity="0.49804" stroke-linecap="butt" stroke-linejoin="round"/>
  <text x="985.5" y="453.7" font-family="Helvetica" font-size="10" font-weight="normal" font-style="normal" fill="#000000" fill-opacity="1">64k</text>
  <path d="M 1053 9 L 1053 441" fill="none" stroke-width="0.75" stroke="#000000" stroke-opacity="0.49804" stroke-linecap="butt" stroke-linejoin="round"/>
  <text x="1042" y="453.7" font-family="Helvetica" font-size="10" font-weight="normal" font-style="normal" fill="#000000" fill-opacity="1">128k</text>
  <path d="M 1112 9 L 1112 441" fill="none" stroke-width="0.75" stroke="#000000" stroke-opacity="0.49804" stroke-linecap="butt" stroke-linejoin="round"/>
  <text x="1101" y="453.7" font-family="Helvetica" font-size="10" font-weight="normal" font-style="normal" fill="#000000" fill-opacity="1">256k</text>
  <path d="M 1171 9 L 1171 441" fill="none" stroke-width="0.75" stroke="#000000" stroke-opacity="0.49804" stroke-linecap="butt" stroke-linejoin="round"/>
  <text x="1160" y="453.7" font-family="Helvetica" font-size="10" font-weight="normal" font-style="normal" fill="#000000" fill-opacity="1">512k</text>
  <path d="M 1230 9 L 1230 441" fill="none" stroke-width="0.75" stroke="#000000" stroke-opacity="0.49804" stroke-linecap="butt" stroke-linejoin="round"/>
  <text x="1223" y="453.7" font-family="Helvetica" font-size="10" font-weight="normal" font-style="normal" fill="#000000" fill-opacity="1">1M</text>
  <path d="M 50 441 L 1230 441" fill="none" stroke-width="0.75" stroke="#000000" stroke-opacity="0.49804" stroke-linecap="butt" stroke-linejoin="round"/>
  <text x="27" y="442.7" font-family="Helvetica" font-size="10" font-weight="normal" font-style="normal" fill="#000000" fill-opacity="1">1 ns</text>
  <text x="1236" y="442.7" font-family="Helvetica" font-size="10" font-weight="normal" font-style="normal" fill="#000000" fill-opacity="1">1 ns</text>
  <path d="M 50 297 L 1230 297" fill="none" stroke-width="0.75" stroke="#000000" stroke-opacity="0.49804" stroke-linecap="butt" stroke-linejoin="round"/>
  <text x="21" y="298.7" font-family="Helvetica" font-size="10" font-weight="normal" font-style="normal" fill="#000000" fill-opacity="1">10 ns</text>
  <text x="1236" y="298.7" font-family="Helvetica" font-size="10" font-weight="normal" font-style="normal" fill="#000000" fill-opacity="1">10 ns</text>
  <path d="M 50 153 L 1230 153" fill="none" stroke-width="0.75" stroke="#000000" stroke-opacity="0.49804" stroke-linecap="butt" stroke-linejoin="round"/>
  <text x="16" y="154.7" font-family="Helvetica" font-size="10" font-weight="normal" font-style="normal" fill="#000000" fill-opacity="1">100 ns</text>
  <text x="1236" y="154.7" font-family="Helvetica" font-size="10" font-weight="normal" font-style="normal" fill="#000000" fill-opacity="1">100 ns</text>
  <path d="M 50 9 L 1230 9" fill="none" stroke-width="0.75" stroke="#000000" stroke-opacity="0.49804" stroke-linecap="butt" stroke-linejoin="round"/>
  <text x="26" y="10.7" font-family="Helvetica" font-size="10" font-weight="normal" font-style="normal" fill="#000000" fill-opacity="1">1 µs</text>
  <text x="1236" y="10.7" font-family="Helvetica" font-size="10" font-weight="normal" font-style="normal" fill="#000000" fill-opacity="1">1 µs</text>
  <path d="M 50 397.65 L 1230 397.65" fill="none" stroke-width="0.5" stroke="#000000" stroke-opacity="0.25882" stroke-linecap="butt" stroke-linejoin="round" stroke-dasharray="6 3" stroke-dashoffset="0"/>
  <path d="M 50 354.3 L 1230 354.3" fill="none" stroke-width="0.5" stroke="#000000" stroke-opacity="0.25882" stroke-linecap="butt" stroke-linejoin="round" stroke-dasharray="6 3" stroke-dashoffset="0"/>
  <path d="M 50 310.96 L 1230 310.96" fill="none" stroke-width="0.5" stroke="#000000" stroke-opacity="0.25882" stroke-linecap="butt" stroke-linejoin="round" stroke-dasharray="6 3" stroke-dashoffset="0"/>
  <path d="M 50 267.61 L 1230 267.61" fill="none" stroke-width="0.5" stroke="#000000" stroke-opacity="0.25882" stroke-linecap="butt" stroke-linejoin="round" stroke-dasharray="6 3" stroke-dashoffset="0"/>
  <path d="M 50 224.26 L 1230 224.26" fill="none" stroke-width="0.5" stroke="#000000" stroke-opacity="0.25882" stroke-linecap="butt" stroke-linejoin="round" stroke-dasharray="6 3" stroke-dashoffset="0"/>
  <path d="M 50 180.91 L 1230 180.91" fill="none" stroke-width="0.5" stroke="#000000" stroke-opacity="0.25882" stroke-linecap="butt" stroke-linejoin="round" stroke-dasharray="6 3" stroke-dashoffset="0"/>
  <path d="M 50 137.56 L 1230 137.56" fill="none" stroke-width="0.5" stroke="#000000" stroke-opacity="0.25882" stroke-linecap="butt" stroke-linejoin="round" stroke-dasharray="6 3" stroke-dashoffset="0"/>
  <path d="M 50 94.213 L 1230 94.213" fill="none" stroke-width="0.5" stroke="#000000" stroke-opacity="0.25882" stroke-linecap="butt" stroke-linejoin="round" stroke-dasharray="6 3" stroke-dashoffset="0"/>
  <path d="M 50 50.865 L 1230 50.865" fill="none" stroke-width="0.5" stroke="#000000" stroke-opacity="0.25882" stroke-linecap="butt" stroke-linejoin="round" stroke-dasharray="6 3" stroke-dashoffset="0"/>
  <path d="M 74 33 L 74 88 L 269 88 L 269 33 z" fill="#FFFFFF" fill-opacity="1.0" stroke="none"/>
  <clipPath id="clip-0">
    <path d="M 50 9 L 50 441 L 1230 441 L 1230 9 z"/>
  </clipPath>
  <g clip-path="url(#clip-0)">
    <path d="M 50 107.2L 109 164.28L 143.51 175.9L 168 193.9L 186.99 196.35L 202.51 207.75L 215.63 217.39L 227 216.24L 245.99 229.98L 261.51 225.74L 274.63 235.38L 286 237.09L 304.99 234.65L 320.51 233.08L 333.63 238.99L 345 231.16L 363.99 221.72L 379.51 224.01L 392.63 222.84L 404 219.55L 422.99 212.63L 438.51 199.8L 451.63 200.87L 463 197.41L 481.99 197.67L 497.51 188.79L 510.63 187.43L 522 181.1L 540.99 175.38L 556.51 175.03L 569.63 172.28L 581 172.68L 599.99 170.5L 615.51 166.47L 628.63 168.1L 640 164.22L 658.99 166.49L 674.51 163.33L 687.63 158.01L 699 157.51L 717.99 155.7L 733.51 153.59L 746.63 154.87L 758 152.98L 776.99 152.22L 792.51 151.42L 805.63 150.58L 817 148.85L 835.99 146.94L 851.51 146.72L 864.63 145.85L 876 145.1L 894.99 143.93L 910.51 143.16L 923.63 142.15L 935 140.99L 953.99 139.66L 969.51 139.15L 969.51 139.15L 953.99 139.66L 935 140.99L 923.63 142.15L 910.51 143.16L 894.99 143.93L 876 145.1L 864.63 145.85L 851.51 146.72L 835.99 146.94L 817 148.85L 805.63 150.58L 792.51 151.42L 776.99 152.22L 758 152.98L 746.63 154.87L 733.51 153.59L 717.99 155.7L 699 157.51L 687.63 158.01L 674.51 163.33L 658.99 166.49L 640 164.22L 628.63 168.1L 615.51 166.47L 599.99 170.5L 581 172.68L 569.63 172.28L 556.51 175.03L 540.99 175.38L 522 181.1L 510.63 187.43L 497.51 188.79L 481.99 197.67L 463 197.41L 451.63 200.87L 438.51 199.8L 422.99 212.63L 404 219.55L 392.63 222.84L 379.51 224.01L 363.99 221.72L 345 231.16L 333.63 238.99L 320.51 233.08L 304.99 234.65L 286 237.09L 274.63 235.38L 261.51 225.74L 245.99 229.98L 227 216.24L 215.63 217.39L 202.51 207.75L 186.99 196.35L 168 193.9L 143.51 175.9L 109 164.28L 50 107.2" fill="#007AFF" fill-opacity="0.30196078431372547" stroke="none"/>
    <path d="M 50 205.91L 109 249.25L 143.51 275.96L 168 293.95L 186.99 307.9L 202.51 317.96L 215.63 328.95L 227 338.8L 245.99 351.25L 261.51 361.31L 274.63 372.29L 286 379.3L 304.99 396.11L 320.51 363.4L 333.63 330.68L 345 325.31L 363.99 327.53L 379.51 320.36L 392.63 309.93L 404 291.24L 422.99 294.67L 438.51 292.09L 451.63 288.07L 463 300.62L 481.99 294.43L 497.51 287.51L 510.63 287.17L 522 292.87L 540.99 292.31L 556.51 284.49L 569.63 277.49L 581 295.01L 599.99 287.92L 615.51 276.06L 628.63 246L 640 263.62L 658.99 247.98L 674.51 236.74L 687.63 238.17L 699 223.77L 717.99 229.42L 733.51 227.1L 746.63 224.02L 758 221.45L 776.99 218.57L 792.51 217.08L 805.63 215.21L 817 213.59L 835.99 208.94L 851.51 210.57L 864.63 201.43L 876 207.41L 894.99 206.01L 910.51 204.84L 923.63 203.76L 935 201.9L 953.99 197.19L 969.51 200.07L 982.63 198.84L 994 197.67L 1013 196.58L 1028.5 194.22L 1041.6 190L 1053 192.71L 1072 191.89L 1087.5 191.07L 1100.6 189.61L 1112 184.88L 1131 187.85L 1146.5 186.72L 1159.6 185.32L 1171 184.01L 1190 183.49L 1205.5 182.89L 1218.6 181.62L 1230 180.77L 1230 181.3L 1218.6 182.44L 1205.5 183.17L 1190 183.85L 1171 184.87L 1159.6 186.13L 1146.5 186.89L 1131 187.97L 1112 188.96L 1100.6 190.26L 1087.5 191.12L 1072 192.17L 1053 193.16L 1041.6 194.66L 1028.5 195.55L 1013 196.61L 994 197.72L 982.63 198.87L 969.51 200.21L 953.99 201.37L 935 202.51L 923.63 204.29L 910.51 205.11L 894.99 206.36L 876 207.9L 864.63 209.71L 851.51 210.82L 835.99 211.75L 817 213.76L 805.63 216.18L 792.51 217.51L 776.99 219.78L 758 221.89L 746.63 224.45L 733.51 227.48L 717.99 232.33L 699 236.17L 687.63 241.18L 674.51 247.38L 658.99 252.98L 640 270.24L 628.63 270.03L 615.51 277.94L 599.99 291.4L 581 296.94L 569.63 278.29L 556.51 290.04L 540.99 296.84L 522 300.59L 510.63 289.12L 497.51 297.1L 481.99 294.43L 463 300.62L 451.63 288.07L 438.51 297.13L 422.99 301.04L 404 307.51L 392.63 322.08L 379.51 337.8L 363.99 351.63L 345 355.79L 333.63 373.04L 320.51 363.4L 304.99 396.11L 286 382.15L 274.63 372.29L 261.51 364.16L 245.99 351.25L 227 338.8L 215.63 328.95L 202.51 320.81L 186.99 307.9L 168 293.95L 143.51 275.96L 109 252.11L 50 208.76" fill="#FF3B30" fill-opacity="0.30196078431372547" stroke="none"/>
    <path d="M 50 107.2L 109 164.28L 143.51 175.9L 168 193.9L 186.99 196.35L 202.51 207.75L 215.63 217.39L 227 216.24L 245.99 229.98L 261.51 225.74L 274.63 235.38L 286 237.09L 304.99 234.65L 320.51 233.08L 333.63 238.99L 345 231.16L 363.99 221.72L 379.51 224.01L 392.63 222.84L 404 219.55L 422.99 212.63L 438.51 199.8L 451.63 200.87L 463 197.41L 481.99 197.67L 497.51 188.79L 510.63 187.43L 522 181.1L 540.99 175.38L 556.51 175.03L 569.63 172.28L 581 172.68L 599.99 170.5L 615.51 166.47L 628.63 168.1L 640 164.22L 658.99 166.49L 674.51 163.33L 687.63 158.01L 699 157.51L 717.99 155.7L 733.51 153.59L 746.63 154.87L 758 152.98L 776.99 152.22L 792.51 151.42L 805.63 150.58L 817 148.85L 835.99 146.94L 851.51 146.72L 864.63 145.85L 876 145.1L 894.99 143.93L 910.51 143.16L 923.63 142.15L 935 140.99L 953.99 139.66L 969.51 139.15" fill="none" stroke-width="4" stroke="#007AFF" stroke-opacity="1" stroke-linecap="round" stroke-linejoin="round"/>
    <path d="M 50 208L 109 251.35L 143.51 275.96L 168 293.95L 186.99 307.9L 202.51 320.05L 215.63 328.95L 227 338.8L 245.99 351.25L 261.51 363.4L 274.63 372.29L 286 381.39L 304.99 396.11L 320.51 363.4L 333.63 358.94L 345 346.29L 363.99 344.38L 379.51 332.75L 392.63 318.67L 404 302.83L 422.99 299.31L 438.51 295.77L 451.63 288.07L 463 300.62L 481.99 294.43L 497.51 294.45L 510.63 288.6L 522 298.48L 540.99 295.63L 556.51 288.54L 569.63 278.08L 581 296.43L 599.99 290.47L 615.51 277.44L 628.63 262.81L 640 268.44L 658.99 251.64L 674.51 244.42L 687.63 240.38L 699 232.69L 717.99 231.56L 733.51 227.38L 746.63 224.34L 758 221.78L 776.99 219.46L 792.51 217.4L 805.63 215.93L 817 213.71L 835.99 211L 851.51 210.76L 864.63 207.44L 876 207.77L 894.99 206.26L 910.51 205.04L 923.63 204.15L 935 202.35L 953.99 200.25L 969.51 200.18L 982.63 198.86L 994 197.71L 1013 196.61L 1028.5 195.2L 1041.6 193.41L 1053 193.04L 1072 192.1L 1087.5 191.11L 1100.6 190.09L 1112 187.87L 1131 187.94L 1146.5 186.85L 1159.6 185.92L 1171 184.64L 1190 183.75L 1205.5 183.1L 1218.6 182.22L 1230 181.16" fill="none" stroke-width="4" stroke="#FF3B30" stroke-opacity="1" stroke-linecap="round" stroke-linejoin="round"/>
    <path d="M 50 107.2L 109 164.28L 143.51 175.9L 168 193.9L 186.99 196.35L 202.51 207.75L 215.63 217.39L 227 216.24L 245.99 229.98L 261.51 225.74L 274.63 235.38L 286 237.09L 304.99 234.65L 320.51 233.08L 333.63 238.99L 345 231.16L 363.99 221.72L 379.51 224.01L 392.63 222.84L 404 219.55L 422.99 212.63L 438.51 199.8L 451.63 200.87L 463 197.41L 481.99 197.67L 497.51 188.79L 510.63 187.43L 522 181.1L 540.99 175.38L 556.51 175.03L 569.63 172.28L 581 172.68L 599.99 170.5L 615.51 166.47L 628.63 168.1L 640 164.22L 658.99 166.49L 674.51 163.33L 687.63 158.01L 699 157.51L 717.99 155.7L 733.51 153.59L 746.63 154.87L 758 152.98L 776.99 152.22L 792.51 151.42L 805.63 150.58L 817 148.85L 835.99 146.94L 851.51 146.72L 864.63 145.85L 876 145.1L 894.99 143.93L 910.51 143.16L 923.63 142.15L 935 140.99L 953.99 139.66L 969.51 139.15" fill="none" stroke-width="0.5" stroke="#000000" stroke-opacity="0.30196" stroke-linecap="round" stroke-linejoin="round"/>
    <path d="M 50 208L 109 251.35L 143.51 275.96L 168 293.95L 186.99 307.9L 202.51 320.05L 215.63 328.95L 227 338.8L 245.99 351.25L 261.51 363.4L 274.63 372.29L 286 381.39L 304.99 396.11L 320.51 363.4L 333.63 358.94L 345 346.29L 363.99 344.38L 379.51 332.75L 392.63 318.67L 404 302.83L 422.99 299.31L 438.51 295.77L 451.63 288.07L 463 300.62L 481.99 294.43L 497.51 294.45L 510.63 288.6L 522 298.48L 540.99 295.63L 556.51 288.54L 569.63 278.08L 581 296.43L 599.99 290.47L 615.51 277.44L 628.63 262.81L 640 268.44L 658.99 251.64L 674.51 244.42L 687.63 240.38L 699 232.69L 717.99 231.56L 733.51 227.38L 746.63 224.34L 758 221.78L 776.99 219.46L 792.51 217.4L 805.63 215.93L 817 213.71L 835.99 211L 851.51 210.76L 864.63 207.44L 876 207.77L 894.99 206.26L 910.51 205.04L 923.63 204.15L 935 202.35L 953.99 200.25L 969.51 200.18L 982.63 198.86L 994 197.71L 1013 196.61L 1028.5 195.2L 1041.6 193.41L 1053 193.04L 1072 192.1L 1087.5 191.11L 1100.6 190.09L 1112 187.87L 1131 187.94L 1146.5 186.85L 1159.6 185.92L 1171 184.64L 1190 183.75L 1205.5 183.1L 1218.6 182.22L 1230 181.16" fill="none" stroke-width="0.5" stroke="#000000" stroke-opacity="0.30196" stroke-linecap="round" stroke-linejoin="round"/>
  </g>
  <path d="M 74 33 L 74 88 L 269 88 L 269 33 z" fill="#FFFFFF" fill-opacity="0.7019607843137254" stroke-width="0.5" stroke="#000000" stroke-opacity="1" stroke-linecap="round" stroke-linejoin="round"/>
  <path d="M 88 52 L 108 52" fill="none" stroke-width="4" stroke="#FF3B30" stroke-opacity="1" stroke-linecap="round" stroke-linejoin="round"/>
  <path d="M 88 52 L 108 52" fill="none" stroke-width="0.5" stroke="#000000" stroke-opacity="0.30196" stroke-linecap="round" stroke-linejoin="round"/>
  <text x="119" y="56.17" font-family="Menlo" font-size="12" font-weight="normal" font-style="normal" fill="#000000" fill-opacity="1">Array&lt;Int&gt; sort</text>
  <path d="M 88 69 L 108 69" fill="none" stroke-width="4" stroke="#007AFF" stroke-opacity="1" stroke-linecap="round" stroke-linejoin="round"/>
  <path d="M 88 69 L 108 69" fill="none" stroke-width="0.5" stroke="#000000" stroke-opacity="0.30196" stroke-linecap="round" stroke-linejoin="round"/>
  <text x="119" y="73.17" font-family="Menlo" font-size="12" font-weight="normal" font-style="normal" fill="#000000" fill-opacity="1">TreeArray&lt;Int&gt; sort</text>
  <path d="M 50 9 L 50 441 L 1230 441 L 1230 9 z" fill="none" stroke-width="0.5" stroke="#000000" stroke-opacity="1" stroke-linecap="round" stroke-linejoin="round"/>
</svg>
