<!DOCTYPE svg PUBLIC "-//W3C//DTD SVG 1.1//EN" "http://www.w3.org/Graphics/SVG/1.1/DTD/svg11.dtd">
<svg width="1280.0px" height="480.0px" viewBox="0.0 0.0 1280.0 480.0" xmlns="http://www.w3.org/2000/svg" xmlns:xlink="http://www.w3.org/1999/xlink" version="1.1">
  <path d="M 0 0 L 0 480 L 1280 480 L 1280 0 z" fill="#FFFFFF" fill-opacity="1.0" stroke="none"/>
  <text x="50" y="468.7" font-family="Helvetica" font-size="10" font-weight="normal" font-style="normal" fill="#000000" fill-opacity="1">Average per-element processing time over input size (bands: min, mean, mean + 2stddev)</text>
  <a xlink:href="https://github.com/apple/swift-collections-benchmark"><text x="1107" y="468.7" font-family="Helvetica" font-size="10" font-weight="normal" font-style="normal" fill="#000000" fill-opacity="1">swift-collections-benchmark</text></a>
  <path d="M 50 9 L 50 441" fill="none" stroke-width="0.75" stroke="#000000" stroke-opacity="0.49804" stroke-linecap="butt" stroke-linejoin="round"/>
  <text x="47" y="453.7" font-family="Helvetica" font-size="10" font-weight="normal" font-style="normal" fill="#000000" fill-opacity="1">1</text>
  <path d="M 109 9 L 109 441" fill="none" stroke-width="0.75" stroke="#000000" stroke-opacity="0.49804" stroke-linecap="butt" stroke-linejoin="round"/>
  <text x="106" y="453.7" font-family="Helvetica" font-size="10" font-weight="normal" font-style="normal" fill="#000000" fill-opacity="1">2</text>
  <path d="M 168 9 L 168 441" fill="none" stroke-width="0.75" stroke="#000000" stroke-opacity="0.49804" stroke-linecap="butt" stroke-linejoin="round"/>
  <text x="165" y="453.7" font-family="Helvetica" font-size="10" font-weight="normal" font-style="normal" fill="#000000" fill-opacity="1">4</text>
  <path d="M 227 9 L 227 441" fill="none" stroke-width="0.75" stroke="#000000" stroke-opacity="0.49804" stroke-linecap="butt" stroke-linejoin="round"/>
  <text x="224" y="453.7" font-family="Helvetica" font-size="10" font-weight="normal" font-style="normal" fill="#000000" fill-opacity="1">8</text>
  <path d="M 286 9 L 286 441" fill="none" stroke-width="0.75" stroke="#000000" stroke-opacity="0.49804" stroke-linecap="butt" stroke-linejoin="round"/>
  <text x="280" y="453.7" font-family="Helvetica" font-size="10" font-weight="normal" font-style="normal" fill="#000000" fill-opacity="1">16</text>
  <path d="M 345 9 L 345 441" fill="none" stroke-width="0.75" stroke="#000000" stroke-opacity="0.49804" stroke-linecap="butt" stroke-linejoin="round"/>
  <text x="339" y="453.7" font-family="Helvetica" font-size="10" font-weight="normal" font-style="normal" fill="#000000" fill-opacity="1">32</text>
  <path d="M 404 9 L 404 441" fill="none" stroke-width="0.75" stroke="#000000" stroke-opacity="0.49804" stroke-linecap="butt" stroke-linejoin="round"/>
  <text x="398" y="453.7" font-family="Helvetica" font-size="10" font-weight="normal" font-style="normal" fill="#000000" fill-opacity="1">64</text>
  <path d="M 463 9 L 463 441" fill="none" stroke-width="0.75" stroke="#000000" stroke-opacity="0.49804" stroke-linecap="butt" stroke-linejoin="round"/>
  <text x="454.5" y="453.7" font-family="Helvetica" font-size="10" font-weight="normal" font-style="normal" fill="#000000" fill-opacity="1">128</text>
  <path d="M 522 9 L 522 441" fill="none" stroke-width="0.75" stroke="#000000" stroke-opacity="0.49804" stroke-linecap="butt" stroke-linejoin="round"/>
  <text x="513.5" y="453.7" font-family="Helvetica" font-size="10" font-weight="normal" font-style="normal" fill="#000000" fill-opacity="1">256</text>
  <path d="M 581 9 L 581 441" fill="none" stroke-width="0.75" stroke="#000000" stroke-opacity="0.49804" stroke-linecap="butt" stroke-linejoin="round"/>
  <text x="572.5" y="453.7" font-family="Helvetica" font-size="10" font-weight="normal" font-style="normal" fill="#000000" fill-opacity="1">512</text>
  <path d="M 640 9 L 640 441" fill="none" stroke-width="0.75" stroke="#000000" stroke-opacity="0.49804" stroke-linecap="butt" stroke-linejoin="round"/>
  <text x="634.5" y="453.7" font-family="Helvetica" font-size="10" font-weight="normal" font-style="normal" fill="#000000" fill-opacity="1">1k</text>
  <path d="M 699 9 L 699 441" fill="none" stroke-width="0.75" stroke="#000000" stroke-opacity="0.49804" stroke-linecap="butt" stroke-linejoin="round"/>
  <text x="693.5" y="453.7" font-family="Helvetica" font-size="10" font-weight="normal" font-style="normal" fill="#000000" fill-opacity="1">2k</text>
  <path d="M 758 9 L 758 441" fill="none" stroke-width="0.75" stroke="#000000" stroke-opacity="0.49804" stroke-linecap="butt" stroke-linejoin="round"/>
  <text x="752.5" y="453.7" font-family="Helvetica" font-size="10" font-weight="normal" font-style="normal" fill="#000000" fill-opacity="1">4k</text>
  <path d="M 817 9 L 817 441" fill="none" stroke-width="0.75" stroke="#000000" stroke-opacity="0.49804" stroke-linecap="butt" stroke-linejoin="round"/>
  <text x="811.5" y="453.7" font-family="Helvetica" font-size="10" font-weight="normal" font-style="normal" fill="#000000" fill-opacity="1">8k</text>
  <path d="M 876 9 L 876 441" fill="none" stroke-width="0.75" stroke="#000000" stroke-opacity="0.49804" stroke-linecap="butt" stroke-linejoin="round"/>
  <text x="867.5" y="453.7" font-family="Helvetica" font-size="10" font-weight="normal" font-style="normal" fill="#000000" fill-opacity="1">16k</text>
  <path d="M 935 9 L 935 441" fill="none" stroke-width="0.75" stroke="#000000" stroke-opacity="0.49804" stroke-linecap="butt" stroke-linejoin="round"/>
  <text x="926.5" y="453.7" font-family="Helvetica" font-size="10" font-weight="normal" font-style="normal" fill="#000000" fill-opacity="1">32k</text>
  <path d="M 994 9 L 994 441" fill="none" stroke-width="0.75" stroke="#000000" stroke-opacity="0.49804" stroke-linecap="butt" stroke-linejoin="round"/>
  <text x="985.5" y="453.7" font-family="Helvetica" font-size="10" font-weight="normal" font-style="normal" fill="#000000" fill-opacity="1">64k</text>
  <path d="M 1053 9 L 1053 441" fill="none" stroke-width="0.75" stroke="#000000" stroke-opacity="0.49804" stroke-linecap="butt" stroke-linejoin="round"/>
  <text x="1042" y="453.7" font-family="Helvetica" font-size="10" font-weight="normal" font-style="normal" fill="#000000" fill-opacity="1">128k</text>
  <path d="M 1112 9 L 1112 441" fill="none" stroke-width="0.75" stroke="#000000" stroke-opacity="0.49804" stroke-linecap="butt" stroke-linejoin="round"/>
  <text x="1101" y="453.7" font-family="Helvetica" font-size="10" font-weight="normal" font-style="normal" fill="#000000" fill-opacity="1">256k</text>
  <path d="M 1171 9 L 1171 441" fill="none" stroke-width="0.75" stroke="#000000" stroke-opacity="0.49804" stroke-linecap="butt" stroke-linejoin="round"/>
  <text x="1160" y="453.7" font-family="Helvetica" font-size="10" font-weight="normal" font-style="normal" fill="#000000" fill-opacity="1">512k</text>
  <path d="M 1230 9 L 1230 441" fill="none" stroke-width="0.75" stroke="#000000" stroke-opacity="0.49804" stroke-linecap="butt" stroke-linejoin="round"/>
  <text x="1223" y="453.7" font-family="Helvetica" font-size="10" font-weight="normal" font-style="normal" fill="#000000" fill-opacity="1">1M</text>
  <path d="M 50 441 L 1230 441" fill="none" stroke-width="0.75" stroke="#000000" stroke-opacity="0.49804" stroke-linecap="butt" stroke-linejoin="round"/>
  <text x="27" y="442.7" font-family="Helvetica" font-size="10" font-weight="normal" font-style="normal" fill="#000000" fill-opacity="1">1 ns</text>
  <text x="1236" y="442.7" font-family="Helvetica" font-size="10" font-weight="normal" font-style="normal" fill="#000000" fill-opacity="1">1 ns</text>
  <path d="M 50 297 L 1230 297" fill="none" stroke-width="0.75" stroke="#000000" stroke-opacity="0.49804" stroke-linecap="butt" stroke-linejoin="round"/>
  <text x="21" y="298.7" font-family="Helvetica" font-size="10" font-weight="normal" font-style="normal" fill="#000000" fill-opacity="1">10 ns</text>
  <text x="1236" y="298.7" font-family="Helvetica" font-size="10" font-weight="normal" font-style="normal" fill="#000000" fill-opacity="1">10 ns</text>
  <path d="M 50 153 L 1230 153" fill="none" stroke-width="0.75" stroke="#000000" stroke-opacity="0.49804" stroke-linecap="butt" stroke-linejoin="round"/>
  <text x="16" y="154.7" font-family="Helvetica" font-size="10" font-weight="normal" font-style="normal" fill="#000000" fill-opacity="1">100 ns</text>
  <text x="1236" y="154.7" font-family="Helvetica" font-size="10" font-weight="normal" font-style="normal" fill="#000000" fill-opacity="1">100 ns</text>
  <path d="M 50 9 L 1230 9" fill="none" stroke-width="0.75" stroke="#000000" stroke-opacity="0.49804" stroke-linecap="butt" stroke-linejoin="round"/>
  <text x="26" y="10.7" font-family="Helvetica" font-size="10" font-weight="normal" font-style="normal" fill="#000000" fill-opacity="1">1 µs</text>
  <text x="1236" y="10.7" font-family="Helvetica" font-size="10" font-weight="normal" font-style="normal" fill="#000000" fill-opacity="1">1 µs</text>
  <path d="M 50 397.65 L 1230 397.65" fill="none" stroke-width="0.5" stroke="#000000" stroke-opacity="0.25882" stroke-linecap="butt" stroke-linejoin="round" stroke-dasharray="6 3" stroke-dashoffset="0"/>
  <path d="M 50 354.3 L 1230 354.3" fill="none" stroke-width="0.5" stroke="#000000" stroke-opacity="0.25882" stroke-linecap="butt" stroke-linejoin="round" stroke-dasharray="6 3" stroke-dashoffset="0"/>
  <path d="M 50 310.96 L 1230 310.96" fill="none" stroke-width="0.5" stroke="#000000" stroke-opacity="0.25882" stroke-linecap="butt" stroke-linejoin="round" stroke-dasharray="6 3" stroke-dashoffset="0"/>
  <path d="M 50 267.61 L 1230 267.61" fill="none" stroke-width="0.5" stroke="#000000" stroke-opacity="0.25882" stroke-linecap="butt" stroke-linejoin="round" stroke-dasharray="6 3" stroke-dashoffset="0"/>
  <path d="M 50 224.26 L 1230 224.26" fill="none" stroke-width="0.5" stroke="#000000" stroke-opacity="0.25882" stroke-linecap="butt" stroke-linejoin="round" stroke-dasharray="6 3" stroke-dashoffset="0"/>
  <path d="M 50 180.91 L 1230 180.91" fill="none" stroke-width="0.5" stroke="#000000" stroke-opacity="0.25882" stroke-linecap="butt" stroke-linejoin="round" stroke-dasharray="6 3" stroke-dashoffset="0"/>
  <path d="M 50 137.56 L 1230 137.56" fill="none" stroke-width="0.5" stroke="#000000" stroke-opacity="0.25882" stroke-linecap="butt" stroke-linejoin="round" stroke-dasharray="6 3" stroke-dashoffset="0"/>
  <path d="M 50 94.213 L 1230 94.213" fill="none" stroke-width="0.5" stroke="#000000" stroke-opacity="0.25882" stroke-linecap="butt" stroke-linejoin="round" stroke-dasharray="6 3" stroke-dashoffset="0"/>
  <path d="M 50 50.865 L 1230 50.865" fill="none" stroke-width="0.5" stroke="#000000" stroke-opacity="0.25882" stroke-linecap="butt" stroke-linejoin="round" stroke-dasharray="6 3" stroke-dashoffset="0"/>
  <path d="M 74 33 L 74 88 L 269 88 L 269 33 z" fill="#FFFFFF" fill-opacity="1.0" stroke="none"/>
  <clipPath id="clip-0">
    <path d="M 50 9 L 50 441 L 1230 441 L 1230 9 z"/>
  </clipPath>
  <g clip-path="url(#clip-0)">
    <path d="M 50 120.59L 109 164.28L 143.51 165.31L 168 193.32L 186.99 196.35L 202.51 207.75L 215.63 217.39L 227 215.83L 245.99 221.77L 261.51 219.65L 274.63 228.74L 286 226.19L 304.99 234.65L 320.51 229.75L 333.63 238.82L 345 225.85L 363.99 225.92L 379.51 216.26L 392.63 207.38L 404 215.18L 422.99 199.62L 438.51 193.91L 451.63 198.23L 463 197.6L 481.99 188.56L 497.51 186.59L 510.63 179.86L 522 180.5L 540.99 170.71L 556.51 169.81L 569.63 169.86L 581 171.54L 599.99 165.09L 615.51 161.9L 628.63 162.89L 640 157.84L 658.99 162.46L 674.51 160.7L 687.63 158.8L 699 155.33L 717.99 156.81L 733.51 153.98L 746.63 153.37L 758 150.43L 776.99 152.43L 792.51 151.47L 805.63 148.92L 817 148.39L 835.99 145.44L 851.51 146.18L 864.63 145.03L 876 144.68L 894.99 143.23L 910.51 139.82L 923.63 140.68L 935 140.61L 953.99 138.85L 969.51 135.99L 982.63 138.5L 994 136.03L 1013 130.07L 1028.5 134.31L 1041.6 131.96L 1053 129.23L 1072 131.13L 1087.5 128.98L 1100.6 129.93L 1112 120.63L 1131 128.87L 1146.5 125.46L 1159.6 126.99L 1171 112.23L 1190 122.9L 1205.5 113.91L 1218.6 120.65L 1230 109.5L 1230 109.78L 1218.6 122.6L 1205.5 117.23L 1190 123.44L 1171 112.97L 1159.6 129.01L 1146.5 126.7L 1131 129.84L 1112 121.9L 1100.6 131.15L 1087.5 131.93L 1072 133.41L 1053 129.9L 1041.6 135.19L 1028.5 135.42L 1013 136.65L 994 137.2L 982.63 138.71L 969.51 138.69L 953.99 139.8L 935 140.95L 923.63 142.61L 910.51 142.09L 894.99 143.75L 876 144.98L 864.63 146.08L 851.51 146.85L 835.99 147.71L 817 148.52L 805.63 150.96L 792.51 151.69L 776.99 153.05L 758 152.68L 746.63 155.07L 733.51 155.52L 717.99 157.06L 699 158.95L 687.63 159.23L 674.51 161.77L 658.99 162.69L 640 165.98L 628.63 169.49L 615.51 168.7L 599.99 173.26L 581 172.2L 569.63 171.33L 556.51 179.74L 540.99 179.59L 522 181.11L 510.63 184.47L 497.51 190.25L 481.99 199.35L 463 201.7L 451.63 205.02L 438.51 209.74L 422.99 214.34L 404 219.53L 392.63 227.26L 379.51 219.14L 363.99 230.09L 345 231.23L 333.63 238.99L 320.51 237.14L 304.99 234.65L 286 237.24L 274.63 228.74L 261.51 233.17L 245.99 221.77L 227 216.24L 215.63 217.39L 202.51 207.75L 186.99 196.35L 168 193.9L 143.51 190.01L 109 164.28L 50 121.3" fill="#007AFF" fill-opacity="0.30196078431372547" stroke="none"/>
    <path d="M 50 205.91L 109 249.25L 143.51 275.96L 168 293.95L 186.99 307.9L 202.51 317.96L 215.63 328.95L 227 338.8L 245.99 351.25L 261.51 361.31L 274.63 372.29L 286 379.3L 304.99 396.11L 320.51 363.4L 333.63 330.68L 345 325.31L 363.99 327.53L 379.51 320.36L 392.63 309.93L 404 291.24L 422.99 294.67L 438.51 292.09L 451.63 288.07L 463 300.62L 481.99 294.43L 497.51 287.51L 510.63 287.17L 522 292.87L 540.99 292.31L 556.51 284.49L 569.63 277.49L 581 295.01L 599.99 287.92L 615.51 276.06L 628.63 246L 640 263.62L 658.99 247.98L 674.51 236.74L 687.63 238.17L 699 223.77L 717.99 229.42L 733.51 227.1L 746.63 224.02L 758 221.45L 776.99 218.57L 792.51 217.08L 805.63 215.21L 817 213.59L 835.99 208.94L 851.51 210.57L 864.63 201.43L 876 207.41L 894.99 206.01L 910.51 204.84L 923.63 203.76L 935 201.9L 953.99 197.19L 969.51 200.07L 982.63 198.84L 994 197.67L 1013 196.58L 1028.5 194.22L 1041.6 190L 1053 192.71L 1072 191.89L 1087.5 191.07L 1100.6 189.61L 1112 184.88L 1131 187.85L 1146.5 186.72L 1159.6 185.32L 1171 184.01L 1190 183.49L 1205.5 182.89L 1218.6 181.62L 1230 180.77L 1230 181.3L 1218.6 182.44L 1205.5 183.17L 1190 183.85L 1171 184.87L 1159.6 186.13L 1146.5 186.89L 1131 187.97L 1112 188.96L 1100.6 190.26L 1087.5 191.12L 1072 192.17L 1053 193.16L 1041.6 194.66L 1028.5 195.55L 1013 196.61L 994 197.72L 982.63 198.87L 969.51 200.21L 953.99 201.37L 935 202.51L 923.63 204.29L 910.51 205.11L 894.99 206.36L 876 207.9L 864.63 209.71L 851.51 210.82L 835.99 211.75L 817 213.76L 805.63 216.18L 792.51 217.51L 776.99 219.78L 758 221.89L 746.63 224.45L 733.51 227.48L 717.99 232.33L 699 236.17L 687.63 241.18L 674.51 247.38L 658.99 252.98L 640 270.24L 628.63 270.03L 615.51 277.94L 599.99 291.4L 581 296.94L 569.63 278.29L 556.51 290.04L 540.99 296.84L 522 300.59L 510.63 289.12L 497.51 297.1L 481.99 294.43L 463 300.62L 451.63 288.07L 438.51 297.13L 422.99 301.04L 404 307.51L 392.63 322.08L 379.51 337.8L 363.99 351.63L 345 355.79L 333.63 373.04L 320.51 363.4L 304.99 396.11L 286 382.15L 274.63 372.29L 261.51 364.16L 245.99 351.25L 227 338.8L 215.63 328.95L 202.51 320.81L 186.99 307.9L 168 293.95L 143.51 275.96L 109 252.11L 50 208.76" fill="#FF3B30" fill-opacity="0.30196078431372547" stroke="none"/>
    <path d="M 50 121.12L 109 164.28L 143.51 182.56L 168 193.75L 186.99 196.35L 202.51 207.75L 215.63 217.39L 227 216.14L 245.99 221.77L 261.51 229.35L 274.63 228.74L 286 234.16L 304.99 234.65L 320.51 235.13L 333.63 238.94L 345 229.78L 363.99 228.98L 379.51 218.38L 392.63 221.43L 404 218.36L 422.99 210.15L 438.51 205.2L 451.63 203.17L 463 200.6L 481.99 196.35L 497.51 189.27L 510.63 183.23L 522 180.95L 540.99 177.15L 556.51 176.99L 569.63 170.95L 581 172.02L 599.99 171.02L 615.51 166.85L 628.63 167.7L 640 163.75L 658.99 162.63L 674.51 161.49L 687.63 159.12L 699 157.99L 717.99 156.99L 733.51 155.11L 746.63 154.62L 758 152.08L 776.99 152.89L 792.51 151.63L 805.63 150.42L 817 148.48L 835.99 147.11L 851.51 146.67L 864.63 145.8L 876 144.9L 894.99 143.61L 910.51 141.49L 923.63 142.1L 935 140.86L 953.99 139.55L 969.51 137.98L 982.63 138.66L 994 136.89L 1013 134.86L 1028.5 135.12L 1041.6 134.33L 1053 129.73L 1072 132.81L 1087.5 131.15L 1100.6 130.83L 1112 121.57L 1131 129.58L 1146.5 126.37L 1159.6 128.48L 1171 112.78L 1190 123.3L 1205.5 116.35L 1218.6 122.09L 1230 109.71" fill="none" stroke-width="4" stroke="#007AFF" stroke-opacity="1" stroke-linecap="round" stroke-linejoin="round"/>
    <path d="M 50 208L 109 251.35L 143.51 275.96L 168 293.95L 186.99 307.9L 202.51 320.05L 215.63 328.95L 227 338.8L 245.99 351.25L 261.51 363.4L 274.63 372.29L 286 381.39L 304.99 396.11L 320.51 363.4L 333.63 358.94L 345 346.29L 363.99 344.38L 379.51 332.75L 392.63 318.67L 404 302.83L 422.99 299.31L 438.51 295.77L 451.63 288.07L 463 300.62L 481.99 294.43L 497.51 294.45L 510.63 288.6L 522 298.48L 540.99 295.63L 556.51 288.54L 569.63 278.08L 581 296.43L 599.99 290.47L 615.51 277.44L 628.63 262.81L 640 268.44L 658.99 251.64L 674.51 244.42L 687.63 240.38L 699 232.69L 717.99 231.56L 733.51 227.38L 746.63 224.34L 758 221.78L 776.99 219.46L 792.51 217.4L 805.63 215.93L 817 213.71L 835.99 211L 851.51 210.76L 864.63 207.44L 876 207.77L 894.99 206.26L 910.51 205.04L 923.63 204.15L 935 202.35L 953.99 200.25L 969.51 200.18L 982.63 198.86L 994 197.71L 1013 196.61L 1028.5 195.2L 1041.6 193.41L 1053 193.04L 1072 192.1L 1087.5 191.11L 1100.6 190.09L 1112 187.87L 1131 187.94L 1146.5 186.85L 1159.6 185.92L 1171 184.64L 1190 183.75L 1205.5 183.1L 1218.6 182.22L 1230 181.16" fill="none" stroke-width="4" stroke="#FF3B30" stroke-opacity="1" stroke-linecap="round" stroke-linejoin="round"/>
    <path d="M 50 121.12L 109 164.28L 143.51 182.56L 168 193.75L 186.99 196.35L 202.51 207.75L 215.63 217.39L 227 216.14L 245.99 221.77L 261.51 229.35L 274.63 228.74L 286 234.16L 304.99 234.65L 320.51 235.13L 333.63 238.94L 345 229.78L 363.99 228.98L 379.51 218.38L 392.63 221.43L 404 218.36L 422.99 210.15L 438.51 205.2L 451.63 203.17L 463 200.6L 481.99 196.35L 497.51 189.27L 510.63 183.23L 522 180.95L 540.99 177.15L 556.51 176.99L 569.63 170.95L 581 172.02L 599.99 171.02L 615.51 166.85L 628.63 167.7L 640 163.75L 658.99 162.63L 674.51 161.49L 687.63 159.12L 699 157.99L 717.99 156.99L 733.51 155.11L 746.63 154.62L 758 152.08L 776.99 152.89L 792.51 151.63L 805.63 150.42L 817 148.48L 835.99 147.11L 851.51 146.67L 864.63 145.8L 876 144.9L 894.99 143.61L 910.51 141.49L 923.63 142.1L 935 140.86L 953.99 139.55L 969.51 137.98L 982.63 138.66L 994 136.89L 1013 134.86L 1028.5 135.12L 1041.6 134.33L 1053 129.73L 1072 132.81L 1087.5 131.15L 1100.6 130.83L 1112 121.57L 1131 129.58L 1146.5 126.37L 1159.6 128.48L 1171 112.78L 1190 123.3L 1205.5 116.35L 1218.6 122.09L 1230 109.71" fill="none" stroke-width="0.5" stroke="#000000" stroke-opacity="0.30196" stroke-linecap="round" stroke-linejoin="round"/>
    <path d="M 50 208L 109 251.35L 143.51 275.96L 168 293.95L 186.99 307.9L 202.51 320.05L 215.63 328.95L 227 338.8L 245.99 351.25L 261.51 363.4L 274.63 372.29L 286 381.39L 304.99 396.11L 320.51 363.4L 333.63 358.94L 345 346.29L 363.99 344.38L 379.51 332.75L 392.63 318.67L 404 302.83L 422.99 299.31L 438.51 295.77L 451.63 288.07L 463 300.62L 481.99 294.43L 497.51 294.45L 510.63 288.6L 522 298.48L 540.99 295.63L 556.51 288.54L 569.63 278.08L 581 296.43L 599.99 290.47L 615.51 277.44L 628.63 262.81L 640 268.44L 658.99 251.64L 674.51 244.42L 687.63 240.38L 699 232.69L 717.99 231.56L 733.51 227.38L 746.63 224.34L 758 221.78L 776.99 219.46L 792.51 217.4L 805.63 215.93L 817 213.71L 835.99 211L 851.51 210.76L 864.63 207.44L 876 207.77L 894.99 206.26L 910.51 205.04L 923.63 204.15L 935 202.35L 953.99 200.25L 969.51 200.18L 982.63 198.86L 994 197.71L 1013 196.61L 1028.5 195.2L 1041.6 193.41L 1053 193.04L 1072 192.1L 1087.5 191.11L 1100.6 190.09L 1112 187.87L 1131 187.94L 1146.5 186.85L 1159.6 185.92L 1171 184.64L 1190 183.75L 1205.5 183.1L 1218.6 182.22L 1230 181.16" fill="none" stroke-width="0.5" stroke="#000000" stroke-opacity="0.30196" stroke-linecap="round" stroke-linejoin="round"/>
  </g>
  <path d="M 74 33 L 74 88 L 269 88 L 269 33 z" fill="#FFFFFF" fill-opacity="0.7019607843137254" stroke-width="0.5" stroke="#000000" stroke-opacity="1" stroke-linecap="round" stroke-linejoin="round"/>
  <path d="M 88 52 L 108 52" fill="none" stroke-width="4" stroke="#FF3B30" stroke-opacity="1" stroke-linecap="round" stroke-linejoin="round"/>
  <path d="M 88 52 L 108 52" fill="none" stroke-width="0.5" stroke="#000000" stroke-opacity="0.30196" stroke-linecap="round" stroke-linejoin="round"/>
  <text x="119" y="56.17" font-family="Menlo" font-size="12" font-weight="normal" font-style="normal" fill="#000000" fill-opacity="1">Array&lt;Int&gt; sort</text>
  <path d="M 88 69 L 108 69" fill="none" stroke-width="4" stroke="#007AFF" stroke-opacity="1" stroke-linecap="round" stroke-linejoin="round"/>
  <path d="M 88 69 L 108 69" fill="none" stroke-width="0.5" stroke="#000000" stroke-opacity="0.30196" stroke-linecap="round" stroke-linejoin="round"/>
  <text x="119" y="73.17" font-family="Menlo" font-size="12" font-weight="normal" font-style="normal" fill="#000000" fill-opacity="1">TreeArray&lt;Int&gt; sort</text>
  <path d="M 50 9 L 50 441 L 1230 441 L 1230 9 z" fill="none" stroke-width="0.5" stroke="#000000" stroke-opacity="1" stroke-linecap="round" stroke-linejoin="round"/>
</svg>
