<!DOCTYPE svg PUBLIC "-//W3C//DTD SVG 1.1//EN" "http://www.w3.org/Graphics/SVG/1.1/DTD/svg11.dtd">
<svg width="1280.0px" height="480.0px" viewBox="0.0 0.0 1280.0 480.0" xmlns="http://www.w3.org/2000/svg" xmlns:xlink="http://www.w3.org/1999/xlink" version="1.1">
  <path d="M 0 0 L 0 480 L 1280 480 L 1280 0 z" fill="#FFFFFF" fill-opacity="1.0" stroke="none"/>
  <text x="50" y="468.7" font-family="Helvetica" font-size="10" font-weight="normal" font-style="normal" fill="#000000" fill-opacity="1">Average per-element processing time over input size (bands: min, mean, mean + 2stddev)</text>
  <a xlink:href="https://github.com/apple/swift-collections-benchmark"><text x="1107" y="468.7" font-family="Helvetica" font-size="10" font-weight="normal" font-style="normal" fill="#000000" fill-opacity="1">swift-collections-benchmark</text></a>
  <path d="M 50 9 L 50 441" fill="none" stroke-width="0.75" stroke="#000000" stroke-opacity="0.49804" stroke-linecap="butt" stroke-linejoin="round"/>
  <text x="47" y="453.7" font-family="Helvetica" font-size="10" font-weight="normal" font-style="normal" fill="#000000" fill-opacity="1">1</text>
  <path d="M 109 9 L 109 441" fill="none" stroke-width="0.75" stroke="#000000" stroke-opacity="0.49804" stroke-linecap="butt" stroke-linejoin="round"/>
  <text x="106" y="453.7" font-family="Helvetica" font-size="10" font-weight="normal" font-style="normal" fill="#000000" fill-opacity="1">2</text>
  <path d="M 168 9 L 168 441" fill="none" stroke-width="0.75" stroke="#000000" stroke-opacity="0.49804" stroke-linecap="butt" stroke-linejoin="round"/>
  <text x="165" y="453.7" font-family="Helvetica" font-size="10" font-weight="normal" font-style="normal" fill="#000000" fill-opacity="1">4</text>
  <path d="M 227 9 L 227 441" fill="none" stroke-width="0.75" stroke="#000000" stroke-opacity="0.49804" stroke-linecap="butt" stroke-linejoin="round"/>
  <text x="224" y="453.7" font-family="Helvetica" font-size="10" font-weight="normal" font-style="normal" fill="#000000" fill-opacity="1">8</text>
  <path d="M 286 9 L 286 441" fill="none" stroke-width="0.75" stroke="#000000" stroke-opacity="0.49804" stroke-linecap="butt" stroke-linejoin="round"/>
  <text x="280" y="453.7" font-family="Helvetica" font-size="10" font-weight="normal" font-style="normal" fill="#000000" fill-opacity="1">16</text>
  <path d="M 345 9 L 345 441" fill="none" stroke-width="0.75" stroke="#000000" stroke-opacity="0.49804" stroke-linecap="butt" stroke-linejoin="round"/>
  <text x="339" y="453.7" font-family="Helvetica" font-size="10" font-weight="normal" font-style="normal" fill="#000000" fill-opacity="1">32</text>
  <path d="M 404 9 L 404 441" fill="none" stroke-width="0.75" stroke="#000000" stroke-opacity="0.49804" stroke-linecap="butt" stroke-linejoin="round"/>
  <text x="398" y="453.7" font-family="Helvetica" font-size="10" font-weight="normal" font-style="normal" fill="#000000" fill-opacity="1">64</text>
  <path d="M 463 9 L 463 441" fill="none" stroke-width="0.75" stroke="#000000" stroke-opacity="0.49804" stroke-linecap="butt" stroke-linejoin="round"/>
  <text x="454.5" y="453.7" font-family="Helvetica" font-size="10" font-weight="normal" font-style="normal" fill="#000000" fill-opacity="1">128</text>
  <path d="M 522 9 L 522 441" fill="none" stroke-width="0.75" stroke="#000000" stroke-opacity="0.49804" stroke-linecap="butt" stroke-linejoin="round"/>
  <text x="513.5" y="453.7" font-family="Helvetica" font-size="10" font-weight="normal" font-style="normal" fill="#000000" fill-opacity="1">256</text>
  <path d="M 581 9 L 581 441" fill="none" stroke-width="0.75" stroke="#000000" stroke-opacity="0.49804" stroke-linecap="butt" stroke-linejoin="round"/>
  <text x="572.5" y="453.7" font-family="Helvetica" font-size="10" font-weight="normal" font-style="normal" fill="#000000" fill-opacity="1">512</text>
  <path d="M 640 9 L 640 441" fill="none" stroke-width="0.75" stroke="#000000" stroke-opacity="0.49804" stroke-linecap="butt" stroke-linejoin="round"/>
  <text x="634.5" y="453.7" font-family="Helvetica" font-size="10" font-weight="normal" font-style="normal" fill="#000000" fill-opacity="1">1k</text>
  <path d="M 699 9 L 699 441" fill="none" stroke-width="0.75" stroke="#000000" stroke-opacity="0.49804" stroke-linecap="butt" stroke-linejoin="round"/>
  <text x="693.5" y="453.7" font-family="Helvetica" font-size="10" font-weight="normal" font-style="normal" fill="#000000" fill-opacity="1">2k</text>
  <path d="M 758 9 L 758 441" fill="none" stroke-width="0.75" stroke="#000000" stroke-opacity="0.49804" stroke-linecap="butt" stroke-linejoin="round"/>
  <text x="752.5" y="453.7" font-family="Helvetica" font-size="10" font-weight="normal" font-style="normal" fill="#000000" fill-opacity="1">4k</text>
  <path d="M 817 9 L 817 441" fill="none" stroke-width="0.75" stroke="#000000" stroke-opacity="0.49804" stroke-linecap="butt" stroke-linejoin="round"/>
  <text x="811.5" y="453.7" font-family="Helvetica" font-size="10" font-weight="normal" font-style="normal" fill="#000000" fill-opacity="1">8k</text>
  <path d="M 876 9 L 876 441" fill="none" stroke-width="0.75" stroke="#000000" stroke-opacity="0.49804" stroke-linecap="butt" stroke-linejoin="round"/>
  <text x="867.5" y="453.7" font-family="Helvetica" font-size="10" font-weight="normal" font-style="normal" fill="#000000" fill-opacity="1">16k</text>
  <path d="M 935 9 L 935 441" fill="none" stroke-width="0.75" stroke="#000000" stroke-opacity="0.49804" stroke-linecap="butt" stroke-linejoin="round"/>
  <text x="926.5" y="453.7" font-family="Helvetica" font-size="10" font-weight="normal" font-style="normal" fill="#000000" fill-opacity="1">32k</text>
  <path d="M 994 9 L 994 441" fill="none" stroke-width="0.75" stroke="#000000" stroke-opacity="0.49804" stroke-linecap="butt" stroke-linejoin="round"/>
  <text x="985.5" y="453.7" font-family="Helvetica" font-size="10" font-weight="normal" font-style="normal" fill="#000000" fill-opacity="1">64k</text>
  <path d="M 1053 9 L 1053 441" fill="none" stroke-width="0.75" stroke="#000000" stroke-opacity="0.49804" stroke-linecap="butt" stroke-linejoin="round"/>
  <text x="1042" y="453.7" font-family="Helvetica" font-size="10" font-weight="normal" font-style="normal" fill="#000000" fill-opacity="1">128k</text>
  <path d="M 1112 9 L 1112 441" fill="none" stroke-width="0.75" stroke="#000000" stroke-opacity="0.49804" stroke-linecap="butt" stroke-linejoin="round"/>
  <text x="1101" y="453.7" font-family="Helvetica" font-size="10" font-weight="normal" font-style="normal" fill="#000000" fill-opacity="1">256k</text>
  <path d="M 1171 9 L 1171 441" fill="none" stroke-width="0.75" stroke="#000000" stroke-opacity="0.49804" stroke-linecap="butt" stroke-linejoin="round"/>
  <text x="1160" y="453.7" font-family="Helvetica" font-size="10" font-weight="normal" font-style="normal" fill="#000000" fill-opacity="1">512k</text>
  <path d="M 1230 9 L 1230 441" fill="none" stroke-width="0.75" stroke="#000000" stroke-opacity="0.49804" stroke-linecap="butt" stroke-linejoin="round"/>
  <text x="1223" y="453.7" font-family="Helvetica" font-size="10" font-weight="normal" font-style="normal" fill="#000000" fill-opacity="1">1M</text>
  <path d="M 50 441 L 1230 441" fill="none" stroke-width="0.75" stroke="#000000" stroke-opacity="0.49804" stroke-linecap="butt" stroke-linejoin="round"/>
  <text x="16" y="442.7" font-family="Helvetica" font-size="10" font-weight="normal" font-style="normal" fill="#000000" fill-opacity="1">100 ps</text>
  <text x="1236" y="442.7" font-family="Helvetica" font-size="10" font-weight="normal" font-style="normal" fill="#000000" fill-opacity="1">100 ps</text>
  <path d="M 50 333 L 1230 333" fill="none" stroke-width="0.75" stroke="#000000" stroke-opacity="0.49804" stroke-linecap="butt" stroke-linejoin="round"/>
  <text x="27" y="334.7" font-family="Helvetica" font-size="10" font-weight="normal" font-style="normal" fill="#000000" fill-opacity="1">1 ns</text>
  <text x="1236" y="334.7" font-family="Helvetica" font-size="10" font-weight="normal" font-style="normal" fill="#000000" fill-opacity="1">1 ns</text>
  <path d="M 50 225 L 1230 225" fill="none" stroke-width="0.75" stroke="#000000" stroke-opacity="0.49804" stroke-linecap="butt" stroke-linejoin="round"/>
  <text x="21" y="226.7" font-family="Helvetica" font-size="10" font-weight="normal" font-style="normal" fill="#000000" fill-opacity="1">10 ns</text>
  <text x="1236" y="226.7" font-family="Helvetica" font-size="10" font-weight="normal" font-style="normal" fill="#000000" fill-opacity="1">10 ns</text>
  <path d="M 50 117 L 1230 117" fill="none" stroke-width="0.75" stroke="#000000" stroke-opacity="0.49804" stroke-linecap="butt" stroke-linejoin="round"/>
  <text x="16" y="118.7" font-family="Helvetica" font-size="10" font-weight="normal" font-style="normal" fill="#000000" fill-opacity="1">100 ns</text>
  <text x="1236" y="118.7" font-family="Helvetica" font-size="10" font-weight="normal" font-style="normal" fill="#000000" fill-opacity="1">100 ns</text>
  <path d="M 50 9 L 1230 9" fill="none" stroke-width="0.75" stroke="#000000" stroke-opacity="0.49804" stroke-linecap="butt" stroke-linejoin="round"/>
  <text x="26" y="10.7" font-family="Helvetica" font-size="10" font-weight="normal" font-style="normal" fill="#000000" fill-opacity="1">1 µs</text>
  <text x="1236" y="10.7" font-family="Helvetica" font-size="10" font-weight="normal" font-style="normal" fill="#000000" fill-opacity="1">1 µs</text>
  <path d="M 50 408.49 L 1230 408.49" fill="none" stroke-width="0.5" stroke="#000000" stroke-opacity="0.25882" stroke-linecap="butt" stroke-linejoin="round" stroke-dasharray="6 3" stroke-dashoffset="0"/>
  <path d="M 50 375.98 L 1230 375.98" fill="none" stroke-width="0.5" stroke="#000000" stroke-opacity="0.25882" stroke-linecap="butt" stroke-linejoin="round" stroke-dasharray="6 3" stroke-dashoffset="0"/>
  <path d="M 50 343.47 L 1230 343.47" fill="none" stroke-width="0.5" stroke="#000000" stroke-opacity="0.25882" stroke-linecap="butt" stroke-linejoin="round" stroke-dasharray="6 3" stroke-dashoffset="0"/>
  <path d="M 50 310.96 L 1230 310.96" fill="none" stroke-width="0.5" stroke="#000000" stroke-opacity="0.25882" stroke-linecap="butt" stroke-linejoin="round" stroke-dasharray="6 3" stroke-dashoffset="0"/>
  <path d="M 50 278.44 L 1230 278.44" fill="none" stroke-width="0.5" stroke="#000000" stroke-opacity="0.25882" stroke-linecap="butt" stroke-linejoin="round" stroke-dasharray="6 3" stroke-dashoffset="0"/>
  <path d="M 50 245.93 L 1230 245.93" fill="none" stroke-width="0.5" stroke="#000000" stroke-opacity="0.25882" stroke-linecap="butt" stroke-linejoin="round" stroke-dasharray="6 3" stroke-dashoffset="0"/>
  <path d="M 50 213.42 L 1230 213.42" fill="none" stroke-width="0.5" stroke="#000000" stroke-opacity="0.25882" stroke-linecap="butt" stroke-linejoin="round" stroke-dasharray="6 3" stroke-dashoffset="0"/>
  <path d="M 50 180.91 L 1230 180.91" fill="none" stroke-width="0.5" stroke="#000000" stroke-opacity="0.25882" stroke-linecap="butt" stroke-linejoin="round" stroke-dasharray="6 3" stroke-dashoffset="0"/>
  <path d="M 50 148.4 L 1230 148.4" fill="none" stroke-width="0.5" stroke="#000000" stroke-opacity="0.25882" stroke-linecap="butt" stroke-linejoin="round" stroke-dasharray="6 3" stroke-dashoffset="0"/>
  <path d="M 50 115.89 L 1230 115.89" fill="none" stroke-width="0.5" stroke="#000000" stroke-opacity="0.25882" stroke-linecap="butt" stroke-linejoin="round" stroke-dasharray="6 3" stroke-dashoffset="0"/>
  <path d="M 50 83.376 L 1230 83.376" fill="none" stroke-width="0.5" stroke="#000000" stroke-opacity="0.25882" stroke-linecap="butt" stroke-linejoin="round" stroke-dasharray="6 3" stroke-dashoffset="0"/>
  <path d="M 50 50.865 L 1230 50.865" fill="none" stroke-width="0.5" stroke="#000000" stroke-opacity="0.25882" stroke-linecap="butt" stroke-linejoin="round" stroke-dasharray="6 3" stroke-dashoffset="0"/>
  <path d="M 50 18.354 L 1230 18.354" fill="none" stroke-width="0.5" stroke="#000000" stroke-opacity="0.25882" stroke-linecap="butt" stroke-linejoin="round" stroke-dasharray="6 3" stroke-dashoffset="0"/>
  <path d="M 74 33 L 74 88 L 283 88 L 283 33 z" fill="#FFFFFF" fill-opacity="1.0" stroke="none"/>
  <clipPath id="clip-0">
    <path d="M 50 9 L 50 441 L 1230 441 L 1230 9 z"/>
  </clipPath>
  <g clip-path="url(#clip-0)">
    <path d="M 50 88.571L 109 108.04L 143.51 118.46L 168 122.28L 186.99 122.55L 202.51 123.71L 215.63 113.35L 227 114.29L 245.99 116.01L 261.51 117.03L 274.63 120.03L 286 113.69L 304.99 113.94L 320.51 116.67L 333.63 113.92L 345 114L 363.99 116.04L 379.51 112.98L 392.63 112.98L 404 112.53L 422.99 111.48L 438.51 110.8L 451.63 110.68L 463 110.1L 481.99 109.2L 497.51 108.23L 510.63 108.11L 522 108.4L 540.99 106.8L 556.51 107.38L 569.63 107.84L 581 107.96L 599.99 103.11L 615.51 102.26L 628.63 103.05L 640 99.703L 658.99 99.196L 674.51 98.943L 687.63 99.01L 699 96.909L 717.99 97.531L 733.51 96.038L 746.63 100.38L 758 96.022L 776.99 95.127L 792.51 93.922L 805.63 91.282L 817 93.791L 835.99 92.902L 851.51 89.683L 864.63 90.906L 876 87.676L 894.99 88.283L 910.51 87.351L 923.63 87.029L 935 87.835L 953.99 86.633L 969.51 84.882L 969.51 84.882L 953.99 86.633L 935 87.835L 923.63 87.029L 910.51 87.351L 894.99 88.283L 876 87.676L 864.63 90.906L 851.51 89.683L 835.99 92.902L 817 93.791L 805.63 91.282L 792.51 93.922L 776.99 95.127L 758 96.022L 746.63 100.38L 733.51 96.038L 717.99 97.531L 699 96.909L 687.63 99.01L 674.51 98.943L 658.99 99.196L 640 99.703L 628.63 103.05L 615.51 102.26L 599.99 103.11L 581 107.96L 569.63 107.84L 556.51 107.38L 540.99 106.8L 522 108.4L 510.63 108.11L 497.51 108.23L 481.99 109.2L 463 110.1L 451.63 110.68L 438.51 110.8L 422.99 111.48L 404 112.53L 392.63 112.98L 379.51 112.98L 363.99 116.04L 345 114L 333.63 113.92L 320.51 116.67L 304.99 113.94L 286 113.69L 274.63 120.03L 261.51 117.03L 245.99 116.01L 227 114.29L 215.63 113.35L 202.51 123.71L 186.99 122.55L 168 122.28L 143.51 118.46L 109 108.04L 50 88.571" fill="#007AFF" fill-opacity="0.30196078431372547" stroke="none"/>
    <path d="M 50 140.72L 109 174.79L 143.51 163.93L 168 168.34L 186.99 172.58L 202.51 180.52L 215.63 188.48L 227 193.89L 245.99 193.79L 261.51 202.27L 274.63 208.98L 286 215.04L 304.99 204.53L 320.51 208.27L 333.63 210.72L 345 227.43L 363.99 221.27L 379.51 233.21L 392.63 232.43L 404 236.56L 422.99 243.9L 438.51 254.55L 451.63 263.66L 463 270.93L 481.99 273.65L 497.51 272L 510.63 282.15L 522 287.61L 540.99 292.85L 556.51 289.96L 569.63 294.7L 581 300.64L 599.99 306.11L 615.51 302.97L 628.63 309.76L 640 312.8L 658.99 315.8L 674.51 311.79L 687.63 319.37L 699 321.85L 717.99 326.99L 733.51 320.77L 746.63 328.42L 758 329.72L 776.99 333.18L 792.51 326.63L 805.63 330.99L 817 319.5L 835.99 313.93L 851.51 320.29L 864.63 316.24L 876 288.62L 894.99 306.44L 910.51 275.94L 923.63 295.54L 935 304.59L 953.99 314.88L 969.51 312.02L 982.63 298.04L 994 271.66L 1013 266.2L 1028.5 279.83L 1041.6 283.94L 1053 289.81L 1072 282.08L 1087.5 275.42L 1100.6 285.18L 1112 270.53L 1131 282.5L 1146.5 291.17L 1159.6 295.24L 1171 288.04L 1190 282L 1205.5 285.47L 1218.6 287.74L 1230 279.66L 1230 293.73L 1218.6 303.68L 1205.5 303.64L 1190 288.4L 1171 294.46L 1159.6 296.66L 1146.5 294.11L 1131 296.23L 1112 292.05L 1100.6 300.53L 1087.5 293.7L 1072 296.03L 1053 291.13L 1041.6 308.61L 1028.5 309.75L 1013 302.68L 994 294.2L 982.63 311.48L 969.51 320.71L 953.99 324.79L 935 325.68L 923.63 323.78L 910.51 324.94L 894.99 325.97L 876 318.88L 864.63 334.91L 851.51 335.34L 835.99 330.11L 817 320.12L 805.63 331.97L 792.51 335.43L 776.99 333.67L 758 330.69L 746.63 328.77L 733.51 322.62L 717.99 328.59L 699 323.49L 687.63 320.6L 674.51 317.05L 658.99 319.48L 640 313.86L 628.63 310.28L 615.51 304.06L 599.99 308.48L 581 301.64L 569.63 298.34L 556.51 293.77L 540.99 294.94L 522 288.23L 510.63 284.44L 497.51 277.99L 481.99 275.19L 463 271.29L 451.63 263.73L 438.51 259.71L 422.99 250.74L 404 250.07L 392.63 242.52L 379.51 233.21L 363.99 225.99L 345 230.09L 333.63 225.14L 320.51 218.33L 304.99 205.82L 286 215.42L 274.63 209.36L 261.51 202.39L 245.99 193.98L 227 194.87L 215.63 188.48L 202.51 181.25L 186.99 172.82L 168 190.76L 143.51 164.95L 109 174.79L 50 142.62" fill="#FF3B30" fill-opacity="0.30196078431372547" stroke="none"/>
    <path d="M 50 88.571L 109 108.04L 143.51 118.46L 168 122.28L 186.99 122.55L 202.51 123.71L 215.63 113.35L 227 114.29L 245.99 116.01L 261.51 117.03L 274.63 120.03L 286 113.69L 304.99 113.94L 320.51 116.67L 333.63 113.92L 345 114L 363.99 116.04L 379.51 112.98L 392.63 112.98L 404 112.53L 422.99 111.48L 438.51 110.8L 451.63 110.68L 463 110.1L 481.99 109.2L 497.51 108.23L 510.63 108.11L 522 108.4L 540.99 106.8L 556.51 107.38L 569.63 107.84L 581 107.96L 599.99 103.11L 615.51 102.26L 628.63 103.05L 640 99.703L 658.99 99.196L 674.51 98.943L 687.63 99.01L 699 96.909L 717.99 97.531L 733.51 96.038L 746.63 100.38L 758 96.022L 776.99 95.127L 792.51 93.922L 805.63 91.282L 817 93.791L 835.99 92.902L 851.51 89.683L 864.63 90.906L 876 87.676L 894.99 88.283L 910.51 87.351L 923.63 87.029L 935 87.835L 953.99 86.633L 969.51 84.882" fill="none" stroke-width="4" stroke="#007AFF" stroke-opacity="1" stroke-linecap="round" stroke-linejoin="round"/>
    <path d="M 50 142.12L 109 174.79L 143.51 164.69L 168 183.8L 186.99 172.76L 202.51 181.06L 215.63 188.48L 227 194.61L 245.99 193.93L 261.51 202.36L 274.63 209.26L 286 215.32L 304.99 205.48L 320.51 215.49L 333.63 220.92L 345 229.38L 363.99 224.71L 379.51 233.21L 392.63 239.67L 404 246.15L 422.99 248.86L 438.51 258.31L 451.63 263.71L 463 271.2L 481.99 274.78L 497.51 276.35L 510.63 283.83L 522 288.06L 540.99 294.38L 556.51 292.75L 569.63 297.36L 581 301.38L 599.99 307.85L 615.51 303.77L 628.63 310.14L 640 313.58L 658.99 318.49L 674.51 315.62L 687.63 320.28L 699 323.06L 717.99 328.17L 733.51 322.13L 746.63 328.68L 758 330.44L 776.99 333.54L 792.51 332.97L 805.63 331.72L 817 319.96L 835.99 325.31L 851.51 330.92L 864.63 329.28L 876 308.92L 894.99 320.04L 910.51 306.51L 923.63 314.62L 935 319.19L 953.99 321.99L 969.51 318.28L 982.63 307.58L 994 287.2L 1013 290.11L 1028.5 299.92L 1041.6 300.82L 1053 290.78L 1072 291.97L 1087.5 288.2L 1100.6 296.01L 1112 285.41L 1131 292.24L 1146.5 293.32L 1159.6 296.29L 1171 292.7L 1190 286.64L 1205.5 298.17L 1218.6 298.97L 1230 289.63" fill="none" stroke-width="4" stroke="#FF3B30" stroke-opacity="1" stroke-linecap="round" stroke-linejoin="round"/>
    <path d="M 50 88.571L 109 108.04L 143.51 118.46L 168 122.28L 186.99 122.55L 202.51 123.71L 215.63 113.35L 227 114.29L 245.99 116.01L 261.51 117.03L 274.63 120.03L 286 113.69L 304.99 113.94L 320.51 116.67L 333.63 113.92L 345 114L 363.99 116.04L 379.51 112.98L 392.63 112.98L 404 112.53L 422.99 111.48L 438.51 110.8L 451.63 110.68L 463 110.1L 481.99 109.2L 497.51 108.23L 510.63 108.11L 522 108.4L 540.99 106.8L 556.51 107.38L 569.63 107.84L 581 107.96L 599.99 103.11L 615.51 102.26L 628.63 103.05L 640 99.703L 658.99 99.196L 674.51 98.943L 687.63 99.01L 699 96.909L 717.99 97.531L 733.51 96.038L 746.63 100.38L 758 96.022L 776.99 95.127L 792.51 93.922L 805.63 91.282L 817 93.791L 835.99 92.902L 851.51 89.683L 864.63 90.906L 876 87.676L 894.99 88.283L 910.51 87.351L 923.63 87.029L 935 87.835L 953.99 86.633L 969.51 84.882" fill="none" stroke-width="0.5" stroke="#000000" stroke-opacity="0.30196" stroke-linecap="round" stroke-linejoin="round"/>
    <path d="M 50 142.12L 109 174.79L 143.51 164.69L 168 183.8L 186.99 172.76L 202.51 181.06L 215.63 188.48L 227 194.61L 245.99 193.93L 261.51 202.36L 274.63 209.26L 286 215.32L 304.99 205.48L 320.51 215.49L 333.63 220.92L 345 229.38L 363.99 224.71L 379.51 233.21L 392.63 239.67L 404 246.15L 422.99 248.86L 438.51 258.31L 451.63 263.71L 463 271.2L 481.99 274.78L 497.51 276.35L 510.63 283.83L 522 288.06L 540.99 294.38L 556.51 292.75L 569.63 297.36L 581 301.38L 599.99 307.85L 615.51 303.77L 628.63 310.14L 640 313.58L 658.99 318.49L 674.51 315.62L 687.63 320.28L 699 323.06L 717.99 328.17L 733.51 322.13L 746.63 328.68L 758 330.44L 776.99 333.54L 792.51 332.97L 805.63 331.72L 817 319.96L 835.99 325.31L 851.51 330.92L 864.63 329.28L 876 308.92L 894.99 320.04L 910.51 306.51L 923.63 314.62L 935 319.19L 953.99 321.99L 969.51 318.28L 982.63 307.58L 994 287.2L 1013 290.11L 1028.5 299.92L 1041.6 300.82L 1053 290.78L 1072 291.97L 1087.5 288.2L 1100.6 296.01L 1112 285.41L 1131 292.24L 1146.5 293.32L 1159.6 296.29L 1171 292.7L 1190 286.64L 1205.5 298.17L 1218.6 298.97L 1230 289.63" fill="none" stroke-width="0.5" stroke="#000000" stroke-opacity="0.30196" stroke-linecap="round" stroke-linejoin="round"/>
  </g>
  <path d="M 74 33 L 74 88 L 283 88 L 283 33 z" fill="#FFFFFF" fill-opacity="0.7019607843137254" stroke-width="0.5" stroke="#000000" stroke-opacity="1" stroke-linecap="round" stroke-linejoin="round"/>
  <path d="M 88 52 L 108 52" fill="none" stroke-width="4" stroke="#FF3B30" stroke-opacity="1" stroke-linecap="round" stroke-linejoin="round"/>
  <path d="M 88 52 L 108 52" fill="none" stroke-width="0.5" stroke="#000000" stroke-opacity="0.30196" stroke-linecap="round" stroke-linejoin="round"/>
  <text x="119" y="56.17" font-family="Menlo" font-size="12" font-weight="normal" font-style="normal" fill="#000000" fill-opacity="1">Array&lt;Int&gt; append</text>
  <path d="M 88 69 L 108 69" fill="none" stroke-width="4" stroke="#007AFF" stroke-opacity="1" stroke-linecap="round" stroke-linejoin="round"/>
  <path d="M 88 69 L 108 69" fill="none" stroke-width="0.5" stroke="#000000" stroke-opacity="0.30196" stroke-linecap="round" stroke-linejoin="round"/>
  <text x="119" y="73.17" font-family="Menlo" font-size="12" font-weight="normal" font-style="normal" fill="#000000" fill-opacity="1">TreeArray&lt;Int&gt; append</text>
  <path d="M 50 9 L 50 441 L 1230 441 L 1230 9 z" fill="none" stroke-width="0.5" stroke="#000000" stroke-opacity="1" stroke-linecap="round" stroke-linejoin="round"/>
</svg>
