<!DOCTYPE svg PUBLIC "-//W3C//DTD SVG 1.1//EN" "http://www.w3.org/Graphics/SVG/1.1/DTD/svg11.dtd">
<svg width="1280.0px" height="480.0px" viewBox="0.0 0.0 1280.0 480.0" xmlns="http://www.w3.org/2000/svg" xmlns:xlink="http://www.w3.org/1999/xlink" version="1.1">
  <path d="M 0 0 L 0 480 L 1280 480 L 1280 0 z" fill="#FFFFFF" fill-opacity="1.0" stroke="none"/>
  <text x="50" y="468.7" font-family="Helvetica" font-size="10" font-weight="normal" font-style="normal" fill="#000000" fill-opacity="1">Average per-element processing time over input size (bands: min, mean, mean + 2stddev)</text>
  <a xlink:href="https://github.com/apple/swift-collections-benchmark"><text x="1107" y="468.7" font-family="Helvetica" font-size="10" font-weight="normal" font-style="normal" fill="#000000" fill-opacity="1">swift-collections-benchmark</text></a>
  <path d="M 50 9 L 50 441" fill="none" stroke-width="0.75" stroke="#000000" stroke-opacity="0.49804" stroke-linecap="butt" stroke-linejoin="round"/>
  <text x="47" y="453.7" font-family="Helvetica" font-size="10" font-weight="normal" font-style="normal" fill="#000000" fill-opacity="1">1</text>
  <path d="M 109 9 L 109 441" fill="none" stroke-width="0.75" stroke="#000000" stroke-opacity="0.49804" stroke-linecap="butt" stroke-linejoin="round"/>
  <text x="106" y="453.7" font-family="Helvetica" font-size="10" font-weight="normal" font-style="normal" fill="#000000" fill-opacity="1">2</text>
  <path d="M 168 9 L 168 441" fill="none" stroke-width="0.75" stroke="#000000" stroke-opacity="0.49804" stroke-linecap="butt" stroke-linejoin="round"/>
  <text x="165" y="453.7" font-family="Helvetica" font-size="10" font-weight="normal" font-style="normal" fill="#000000" fill-opacity="1">4</text>
  <path d="M 227 9 L 227 441" fill="none" stroke-width="0.75" stroke="#000000" stroke-opacity="0.49804" stroke-linecap="butt" stroke-linejoin="round"/>
  <text x="224" y="453.7" font-family="Helvetica" font-size="10" font-weight="normal" font-style="normal" fill="#000000" fill-opacity="1">8</text>
  <path d="M 286 9 L 286 441" fill="none" stroke-width="0.75" stroke="#000000" stroke-opacity="0.49804" stroke-linecap="butt" stroke-linejoin="round"/>
  <text x="280" y="453.7" font-family="Helvetica" font-size="10" font-weight="normal" font-style="normal" fill="#000000" fill-opacity="1">16</text>
  <path d="M 345 9 L 345 441" fill="none" stroke-width="0.75" stroke="#000000" stroke-opacity="0.49804" stroke-linecap="butt" stroke-linejoin="round"/>
  <text x="339" y="453.7" font-family="Helvetica" font-size="10" font-weight="normal" font-style="normal" fill="#000000" fill-opacity="1">32</text>
  <path d="M 404 9 L 404 441" fill="none" stroke-width="0.75" stroke="#000000" stroke-opacity="0.49804" stroke-linecap="butt" stroke-linejoin="round"/>
  <text x="398" y="453.7" font-family="Helvetica" font-size="10" font-weight="normal" font-style="normal" fill="#000000" fill-opacity="1">64</text>
  <path d="M 463 9 L 463 441" fill="none" stroke-width="0.75" stroke="#000000" stroke-opacity="0.49804" stroke-linecap="butt" stroke-linejoin="round"/>
  <text x="454.5" y="453.7" font-family="Helvetica" font-size="10" font-weight="normal" font-style="normal" fill="#000000" fill-opacity="1">128</text>
  <path d="M 522 9 L 522 441" fill="none" stroke-width="0.75" stroke="#000000" stroke-opacity="0.49804" stroke-linecap="butt" stroke-linejoin="round"/>
  <text x="513.5" y="453.7" font-family="Helvetica" font-size="10" font-weight="normal" font-style="normal" fill="#000000" fill-opacity="1">256</text>
  <path d="M 581 9 L 581 441" fill="none" stroke-width="0.75" stroke="#000000" stroke-opacity="0.49804" stroke-linecap="butt" stroke-linejoin="round"/>
  <text x="572.5" y="453.7" font-family="Helvetica" font-size="10" font-weight="normal" font-style="normal" fill="#000000" fill-opacity="1">512</text>
  <path d="M 640 9 L 640 441" fill="none" stroke-width="0.75" stroke="#000000" stroke-opacity="0.49804" stroke-linecap="butt" stroke-linejoin="round"/>
  <text x="634.5" y="453.7" font-family="Helvetica" font-size="10" font-weight="normal" font-style="normal" fill="#000000" fill-opacity="1">1k</text>
  <path d="M 699 9 L 699 441" fill="none" stroke-width="0.75" stroke="#000000" stroke-opacity="0.49804" stroke-linecap="butt" stroke-linejoin="round"/>
  <text x="693.5" y="453.7" font-family="Helvetica" font-size="10" font-weight="normal" font-style="normal" fill="#000000" fill-opacity="1">2k</text>
  <path d="M 758 9 L 758 441" fill="none" stroke-width="0.75" stroke="#000000" stroke-opacity="0.49804" stroke-linecap="butt" stroke-linejoin="round"/>
  <text x="752.5" y="453.7" font-family="Helvetica" font-size="10" font-weight="normal" font-style="normal" fill="#000000" fill-opacity="1">4k</text>
  <path d="M 817 9 L 817 441" fill="none" stroke-width="0.75" stroke="#000000" stroke-opacity="0.49804" stroke-linecap="butt" stroke-linejoin="round"/>
  <text x="811.5" y="453.7" font-family="Helvetica" font-size="10" font-weight="normal" font-style="normal" fill="#000000" fill-opacity="1">8k</text>
  <path d="M 876 9 L 876 441" fill="none" stroke-width="0.75" stroke="#000000" stroke-opacity="0.49804" stroke-linecap="butt" stroke-linejoin="round"/>
  <text x="867.5" y="453.7" font-family="Helvetica" font-size="10" font-weight="normal" font-style="normal" fill="#000000" fill-opacity="1">16k</text>
  <path d="M 935 9 L 935 441" fill="none" stroke-width="0.75" stroke="#000000" stroke-opacity="0.49804" stroke-linecap="butt" stroke-linejoin="round"/>
  <text x="926.5" y="453.7" font-family="Helvetica" font-size="10" font-weight="normal" font-style="normal" fill="#000000" fill-opacity="1">32k</text>
  <path d="M 994 9 L 994 441" fill="none" stroke-width="0.75" stroke="#000000" stroke-opacity="0.49804" stroke-linecap="butt" stroke-linejoin="round"/>
  <text x="985.5" y="453.7" font-family="Helvetica" font-size="10" font-weight="normal" font-style="normal" fill="#000000" fill-opacity="1">64k</text>
  <path d="M 1053 9 L 1053 441" fill="none" stroke-width="0.75" stroke="#000000" stroke-opacity="0.49804" stroke-linecap="butt" stroke-linejoin="round"/>
  <text x="1042" y="453.7" font-family="Helvetica" font-size="10" font-weight="normal" font-style="normal" fill="#000000" fill-opacity="1">128k</text>
  <path d="M 1112 9 L 1112 441" fill="none" stroke-width="0.75" stroke="#000000" stroke-opacity="0.49804" stroke-linecap="butt" stroke-linejoin="round"/>
  <text x="1101" y="453.7" font-family="Helvetica" font-size="10" font-weight="normal" font-style="normal" fill="#000000" fill-opacity="1">256k</text>
  <path d="M 1171 9 L 1171 441" fill="none" stroke-width="0.75" stroke="#000000" stroke-opacity="0.49804" stroke-linecap="butt" stroke-linejoin="round"/>
  <text x="1160" y="453.7" font-family="Helvetica" font-size="10" font-weight="normal" font-style="normal" fill="#000000" fill-opacity="1">512k</text>
  <path d="M 1230 9 L 1230 441" fill="none" stroke-width="0.75" stroke="#000000" stroke-opacity="0.49804" stroke-linecap="butt" stroke-linejoin="round"/>
  <text x="1223" y="453.7" font-family="Helvetica" font-size="10" font-weight="normal" font-style="normal" fill="#000000" fill-opacity="1">1M</text>
  <path d="M 50 441 L 1230 441" fill="none" stroke-width="0.75" stroke="#000000" stroke-opacity="0.49804" stroke-linecap="butt" stroke-linejoin="round"/>
  <text x="16" y="442.7" font-family="Helvetica" font-size="10" font-weight="normal" font-style="normal" fill="#000000" fill-opacity="1">100 ps</text>
  <text x="1236" y="442.7" font-family="Helvetica" font-size="10" font-weight="normal" font-style="normal" fill="#000000" fill-opacity="1">100 ps</text>
  <path d="M 50 333 L 1230 333" fill="none" stroke-width="0.75" stroke="#000000" stroke-opacity="0.49804" stroke-linecap="butt" stroke-linejoin="round"/>
  <text x="27" y="334.7" font-family="Helvetica" font-size="10" font-weight="normal" font-style="normal" fill="#000000" fill-opacity="1">1 ns</text>
  <text x="1236" y="334.7" font-family="Helvetica" font-size="10" font-weight="normal" font-style="normal" fill="#000000" fill-opacity="1">1 ns</text>
  <path d="M 50 225 L 1230 225" fill="none" stroke-width="0.75" stroke="#000000" stroke-opacity="0.49804" stroke-linecap="butt" stroke-linejoin="round"/>
  <text x="21" y="226.7" font-family="Helvetica" font-size="10" font-weight="normal" font-style="normal" fill="#000000" fill-opacity="1">10 ns</text>
  <text x="1236" y="226.7" font-family="Helvetica" font-size="10" font-weight="normal" font-style="normal" fill="#000000" fill-opacity="1">10 ns</text>
  <path d="M 50 117 L 1230 117" fill="none" stroke-width="0.75" stroke="#000000" stroke-opacity="0.49804" stroke-linecap="butt" stroke-linejoin="round"/>
  <text x="16" y="118.7" font-family="Helvetica" font-size="10" font-weight="normal" font-style="normal" fill="#000000" fill-opacity="1">100 ns</text>
  <text x="1236" y="118.7" font-family="Helvetica" font-size="10" font-weight="normal" font-style="normal" fill="#000000" fill-opacity="1">100 ns</text>
  <path d="M 50 9 L 1230 9" fill="none" stroke-width="0.75" stroke="#000000" stroke-opacity="0.49804" stroke-linecap="butt" stroke-linejoin="round"/>
  <text x="26" y="10.7" font-family="Helvetica" font-size="10" font-weight="normal" font-style="normal" fill="#000000" fill-opacity="1">1 µs</text>
  <text x="1236" y="10.7" font-family="Helvetica" font-size="10" font-weight="normal" font-style="normal" fill="#000000" fill-opacity="1">1 µs</text>
  <path d="M 50 408.49 L 1230 408.49" fill="none" stroke-width="0.5" stroke="#000000" stroke-opacity="0.25882" stroke-linecap="butt" stroke-linejoin="round" stroke-dasharray="6 3" stroke-dashoffset="0"/>
  <path d="M 50 375.98 L 1230 375.98" fill="none" stroke-width="0.5" stroke="#000000" stroke-opacity="0.25882" stroke-linecap="butt" stroke-linejoin="round" stroke-dasharray="6 3" stroke-dashoffset="0"/>
  <path d="M 50 343.47 L 1230 343.47" fill="none" stroke-width="0.5" stroke="#000000" stroke-opacity="0.25882" stroke-linecap="butt" stroke-linejoin="round" stroke-dasharray="6 3" stroke-dashoffset="0"/>
  <path d="M 50 310.96 L 1230 310.96" fill="none" stroke-width="0.5" stroke="#000000" stroke-opacity="0.25882" stroke-linecap="butt" stroke-linejoin="round" stroke-dasharray="6 3" stroke-dashoffset="0"/>
  <path d="M 50 278.44 L 1230 278.44" fill="none" stroke-width="0.5" stroke="#000000" stroke-opacity="0.25882" stroke-linecap="butt" stroke-linejoin="round" stroke-dasharray="6 3" stroke-dashoffset="0"/>
  <path d="M 50 245.93 L 1230 245.93" fill="none" stroke-width="0.5" stroke="#000000" stroke-opacity="0.25882" stroke-linecap="butt" stroke-linejoin="round" stroke-dasharray="6 3" stroke-dashoffset="0"/>
  <path d="M 50 213.42 L 1230 213.42" fill="none" stroke-width="0.5" stroke="#000000" stroke-opacity="0.25882" stroke-linecap="butt" stroke-linejoin="round" stroke-dasharray="6 3" stroke-dashoffset="0"/>
  <path d="M 50 180.91 L 1230 180.91" fill="none" stroke-width="0.5" stroke="#000000" stroke-opacity="0.25882" stroke-linecap="butt" stroke-linejoin="round" stroke-dasharray="6 3" stroke-dashoffset="0"/>
  <path d="M 50 148.4 L 1230 148.4" fill="none" stroke-width="0.5" stroke="#000000" stroke-opacity="0.25882" stroke-linecap="butt" stroke-linejoin="round" stroke-dasharray="6 3" stroke-dashoffset="0"/>
  <path d="M 50 115.89 L 1230 115.89" fill="none" stroke-width="0.5" stroke="#000000" stroke-opacity="0.25882" stroke-linecap="butt" stroke-linejoin="round" stroke-dasharray="6 3" stroke-dashoffset="0"/>
  <path d="M 50 83.376 L 1230 83.376" fill="none" stroke-width="0.5" stroke="#000000" stroke-opacity="0.25882" stroke-linecap="butt" stroke-linejoin="round" stroke-dasharray="6 3" stroke-dashoffset="0"/>
  <path d="M 50 50.865 L 1230 50.865" fill="none" stroke-width="0.5" stroke="#000000" stroke-opacity="0.25882" stroke-linecap="butt" stroke-linejoin="round" stroke-dasharray="6 3" stroke-dashoffset="0"/>
  <path d="M 50 18.354 L 1230 18.354" fill="none" stroke-width="0.5" stroke="#000000" stroke-opacity="0.25882" stroke-linecap="butt" stroke-linejoin="round" stroke-dasharray="6 3" stroke-dashoffset="0"/>
  <path d="M 74 33 L 74 105 L 283 105 L 283 33 z" fill="#FFFFFF" fill-opacity="1.0" stroke="none"/>
  <clipPath id="clip-0">
    <path d="M 50 9 L 50 441 L 1230 441 L 1230 9 z"/>
  </clipPath>
  <g clip-path="url(#clip-0)">
    <path d="M 50 120.7L 109 129.22L 143.51 147.11L 168 143.55L 186.99 153.01L 202.51 149.2L 215.63 156.03L 227 161.72L 245.99 162.54L 261.51 170.18L 274.63 176.57L 286 175.1L 304.99 184.31L 320.51 182.81L 333.63 188.18L 345 194.75L 363.99 196.16L 379.51 202.39L 392.63 201.81L 404 197.66L 422.99 216.09L 438.51 218.42L 451.63 224.71L 463 223.61L 481.99 231.28L 497.51 233.97L 510.63 239.3L 522 244.09L 540.99 246.71L 556.51 251.14L 569.63 254.51L 581 256.3L 599.99 261.56L 615.51 264.08L 628.63 266.67L 640 269.8L 658.99 270.38L 674.51 274.95L 687.63 275.06L 699 277.2L 717.99 279.91L 733.51 279.58L 746.63 282.13L 758 280.95L 776.99 282.3L 792.51 283.23L 805.63 285.57L 817 274.3L 835.99 286.96L 851.51 285.91L 864.63 224.01L 876 272.44L 894.99 274.17L 910.51 257.93L 923.63 239.79L 935 250.5L 953.99 287.73L 969.51 246.5L 982.63 284.56L 994 256.24L 1013 247.7L 1028.5 249.62L 1041.6 250.61L 1053 263.99L 1072 268.49L 1087.5 252.35L 1100.6 259.25L 1112 266.45L 1131 260.24L 1146.5 262.07L 1159.6 257.8L 1171 259.81L 1190 258.4L 1205.5 265.96L 1218.6 256.62L 1230 269.04L 1230 269.26L 1218.6 267.67L 1205.5 268.37L 1190 263.62L 1171 271.13L 1159.6 263.02L 1146.5 263.24L 1131 270.25L 1112 267.5L 1100.6 279.48L 1087.5 277.58L 1072 279.27L 1053 272.47L 1041.6 272.35L 1028.5 274.26L 1013 269.48L 994 290.17L 982.63 288.53L 969.51 287.71L 953.99 289.43L 935 287.83L 923.63 289.46L 910.51 288.75L 894.99 287.22L 876 288.71L 864.63 287.19L 851.51 285.98L 835.99 287.55L 817 284.69L 805.63 286.81L 792.51 285.15L 776.99 284.01L 758 281.06L 746.63 283.15L 733.51 281.02L 717.99 280.83L 699 277.52L 687.63 275.37L 674.51 275.18L 658.99 271.64L 640 270.46L 628.63 267.43L 615.51 264.17L 599.99 262.66L 581 257.06L 569.63 258.19L 556.51 253.16L 540.99 247.04L 522 244.18L 510.63 239.33L 497.51 234.78L 481.99 233.03L 463 225.52L 451.63 224.88L 438.51 218.86L 422.99 216.5L 404 208.68L 392.63 203.01L 379.51 204.35L 363.99 196.41L 345 194.87L 333.63 190.52L 320.51 182.88L 304.99 184.9L 286 175.43L 274.63 177.05L 261.51 170.47L 245.99 162.54L 227 161.85L 215.63 156.03L 202.51 149.45L 186.99 153.17L 168 143.56L 143.51 147.35L 109 129.46L 50 126.74" fill="#28CD41" fill-opacity="0.30196078431372547" stroke="none"/>
    <path d="M 50 88.443L 109 108.78L 143.51 115.48L 168 118.1L 186.99 117.45L 202.51 119.61L 215.63 116.05L 227 104.61L 245.99 106.73L 261.51 108.42L 274.63 110.06L 286 110.39L 304.99 101.37L 320.51 101.9L 333.63 102.95L 345 103.46L 363.99 106.06L 379.51 97.07L 392.63 96.533L 404 99.354L 422.99 99.293L 438.51 93.181L 451.63 94.289L 463 93.408L 481.99 95.505L 497.51 97.223L 510.63 91.789L 522 92.074L 540.99 94.482L 556.51 94.618L 569.63 88.829L 581 88.737L 599.99 90.237L 615.51 91.747L 628.63 91.445L 640 92.388L 658.99 91.925L 674.51 87.02L 687.63 86.38L 699 87.649L 717.99 87.731L 733.51 89.629L 746.63 79.004L 758 82.197L 776.99 81.721L 792.51 82.818L 805.63 84.371L 817 82.145L 835.99 79.86L 851.51 81.509L 864.63 79.348L 876 75.825L 894.99 80.426L 910.51 79.08L 923.63 78.079L 935 75.606L 953.99 74.077L 969.51 75.519L 982.63 76.729L 994 72.642L 1013 73.626L 1028.5 75.341L 1041.6 75.843L 1053 70.526L 1072 69.246L 1087.5 73.599L 1100.6 73.432L 1112 68.64L 1131 70.785L 1146.5 70.685L 1159.6 68.823L 1171 67.261L 1190 66.994L 1205.5 69.058L 1218.6 68.499L 1230 62.465L 1230 66.292L 1218.6 70.233L 1205.5 69.238L 1190 68.736L 1171 68.495L 1159.6 71.21L 1146.5 71.372L 1131 71.402L 1112 69.456L 1100.6 76.342L 1087.5 73.739L 1072 75.5L 1053 71.617L 1041.6 76.906L 1028.5 75.806L 1013 75.602L 994 74.149L 982.63 78.257L 969.51 77.581L 953.99 79.461L 935 75.657L 923.63 83.09L 910.51 80.004L 894.99 80.987L 876 76.984L 864.63 82.898L 851.51 82.282L 835.99 82.126L 817 82.52L 805.63 85.795L 792.51 88.115L 776.99 87.266L 758 84.911L 746.63 83.366L 733.51 89.793L 717.99 91.358L 699 90.563L 687.63 89.095L 674.51 87.428L 658.99 93.919L 640 92.718L 628.63 92.699L 615.51 92.163L 599.99 92.061L 581 90.278L 569.63 89.054L 556.51 98.131L 540.99 94.505L 522 93.356L 510.63 91.946L 497.51 99.724L 481.99 101.42L 463 98.577L 451.63 95.734L 438.51 93.567L 422.99 102.78L 404 99.551L 392.63 100.51L 379.51 97.071L 363.99 106.92L 345 104.07L 333.63 103.39L 320.51 102.94L 304.99 101.61L 286 110.43L 274.63 110.41L 261.51 109.28L 245.99 106.91L 227 105.22L 215.63 125.5L 202.51 120.27L 186.99 121.01L 168 118.49L 143.51 115.84L 109 108.94L 50 92.924" fill="#007AFF" fill-opacity="0.30196078431372547" stroke="none"/>
    <path d="M 50 139.49L 109 174.79L 143.51 164.43L 168 176.71L 186.99 165.33L 202.51 178.5L 215.63 187.75L 227 193.29L 245.99 193.11L 261.51 201.76L 274.63 208.61L 286 214.94L 304.99 202.75L 320.51 211.4L 333.63 215.01L 345 224.92L 363.99 221.1L 379.51 230.6L 392.63 238.24L 404 237.68L 422.99 245.57L 438.51 249.51L 451.63 256.8L 463 260.31L 481.99 273.72L 497.51 273.43L 510.63 281.04L 522 286.9L 540.99 290.99L 556.51 286.71L 569.63 296.86L 581 298.62L 599.99 306.09L 615.51 301.68L 628.63 308.34L 640 311.22L 658.99 317.68L 674.51 313.06L 687.63 318.58L 699 322.45L 717.99 326.84L 733.51 320.63L 746.63 327.95L 758 329.85L 776.99 332.75L 792.51 331.76L 805.63 329.52L 817 315.2L 835.99 305.49L 851.51 329.39L 864.63 314.48L 876 272.03L 894.99 298.09L 910.51 277.65L 923.63 270.7L 935 318.33L 953.99 303.3L 969.51 294.2L 982.63 326.54L 994 293.74L 1013 299.66L 1028.5 286.43L 1041.6 307.48L 1053 281.7L 1072 295.05L 1087.5 295.6L 1100.6 291.26L 1112 272.87L 1131 279.18L 1146.5 290.65L 1159.6 288.44L 1171 280.99L 1190 284.73L 1205.5 279.75L 1218.6 283.7L 1230 281.98L 1230 291.13L 1218.6 296.8L 1205.5 294.03L 1190 288.02L 1171 292L 1159.6 297.06L 1146.5 296.11L 1131 293.79L 1112 288.7L 1100.6 296.45L 1087.5 299.66L 1072 295.88L 1053 296.27L 1041.6 311.59L 1028.5 324.88L 1013 306.28L 994 303.72L 982.63 332.25L 969.51 326.09L 953.99 329.89L 935 320.16L 923.63 331.04L 910.51 321.92L 894.99 326.13L 876 318.05L 864.63 337.38L 851.51 336.19L 835.99 332.26L 817 320.42L 805.63 335.65L 792.51 334.78L 776.99 333.33L 758 330.36L 746.63 328.94L 733.51 323.77L 717.99 327.31L 699 322.89L 687.63 319.98L 674.51 318.37L 658.99 319.51L 640 314.63L 628.63 310.52L 615.51 306.54L 599.99 306.68L 581 300.6L 569.63 297.95L 556.51 292.21L 540.99 291.13L 522 289.03L 510.63 283.18L 497.51 274.7L 481.99 275.26L 463 270.68L 451.63 264.82L 438.51 257.59L 422.99 247.04L 404 245.32L 392.63 239.72L 379.51 231.6L 363.99 227.15L 345 225.86L 333.63 226.53L 320.51 213.06L 304.99 205.02L 286 215.32L 274.63 209.56L 261.51 202.33L 245.99 193.88L 227 194.74L 215.63 188.48L 202.51 180.86L 186.99 182.02L 168 177.73L 143.51 164.78L 109 174.79L 50 142.62" fill="#FF3B30" fill-opacity="0.30196078431372547" stroke="none"/>
    <path d="M 50 125.09L 109 129.4L 143.51 147.29L 168 143.55L 186.99 153.13L 202.51 149.38L 215.63 156.03L 227 161.81L 245.99 162.54L 261.51 170.4L 274.63 176.92L 286 175.34L 304.99 184.75L 320.51 182.86L 333.63 189.9L 345 194.84L 363.99 196.34L 379.51 203.83L 392.63 202.69L 404 205.55L 422.99 216.39L 438.51 218.75L 451.63 224.83L 463 225.02L 481.99 232.57L 497.51 234.56L 510.63 239.32L 522 244.16L 540.99 246.96L 556.51 252.62L 569.63 257.2L 581 256.86L 599.99 262.37L 615.51 264.14L 628.63 267.23L 640 270.28L 658.99 271.31L 674.51 275.12L 687.63 275.29L 699 277.43L 717.99 280.59L 733.51 280.64L 746.63 282.88L 758 281.03L 776.99 283.55L 792.51 284.64L 805.63 286.49L 817 281.75L 835.99 287.4L 851.51 285.96L 864.63 261.12L 876 283.88L 894.99 283.45L 910.51 278.56L 923.63 270.69L 935 274.89L 953.99 288.98L 969.51 273.03L 982.63 287.46L 994 278.69L 1013 262.75L 1028.5 266.48L 1041.6 265.63L 1053 270.1L 1072 276.21L 1087.5 269.58L 1100.6 273.3L 1112 267.22L 1131 267.42L 1146.5 262.93L 1159.6 261.6L 1171 267.9L 1190 262.2L 1205.5 267.72L 1218.6 264.52L 1230 269.2" fill="none" stroke-width="4" stroke="#28CD41" stroke-opacity="1" stroke-linecap="round" stroke-linejoin="round"/>
    <path d="M 50 91.712L 109 108.9L 143.51 115.75L 168 118.39L 186.99 120.06L 202.51 120.1L 215.63 122.84L 227 105.06L 245.99 106.86L 261.51 109.06L 274.63 110.32L 286 110.42L 304.99 101.55L 320.51 102.66L 333.63 103.27L 345 103.91L 363.99 106.69L 379.51 97.071L 392.63 99.439L 404 99.5L 422.99 101.84L 438.51 93.466L 451.63 95.352L 463 97.171L 481.99 99.799L 497.51 99.058L 510.63 91.905L 522 93.018L 540.99 94.499L 556.51 97.188L 569.63 88.995L 581 89.87L 599.99 91.578L 615.51 92.054L 628.63 92.368L 640 92.631L 658.99 93.39L 674.51 87.321L 687.63 88.371L 699 89.784L 717.99 90.383L 733.51 89.75L 746.63 82.187L 758 84.187L 776.99 85.753L 792.51 86.673L 805.63 85.419L 817 82.422L 835.99 81.524L 851.51 82.079L 864.63 81.944L 876 76.679L 894.99 80.84L 910.51 79.761L 923.63 81.728L 935 75.643L 953.99 77.994L 969.51 77.034L 982.63 77.853L 994 73.751L 1013 75.078L 1028.5 75.684L 1041.6 76.626L 1053 71.33L 1072 73.784L 1087.5 73.702L 1100.6 75.564L 1112 69.242L 1131 71.24L 1146.5 71.192L 1159.6 70.575L 1171 68.17L 1190 68.274L 1205.5 69.191L 1218.6 69.774L 1230 65.262" fill="none" stroke-width="4" stroke="#007AFF" stroke-opacity="1" stroke-linecap="round" stroke-linejoin="round"/>
    <path d="M 50 141.78L 109 174.79L 143.51 164.69L 168 177.46L 186.99 177.06L 202.51 180.23L 215.63 188.29L 227 194.36L 245.99 193.68L 261.51 202.18L 274.63 209.31L 286 215.22L 304.99 204.41L 320.51 212.62L 333.63 223.24L 345 225.62L 363.99 225.49L 379.51 231.34L 392.63 239.33L 404 243.2L 422.99 246.66L 438.51 255.34L 451.63 262.59L 463 267.74L 481.99 274.86L 497.51 274.37L 510.63 282.61L 522 288.46L 540.99 291.1L 556.51 290.71L 569.63 297.66L 581 300.07L 599.99 306.53L 615.51 305.22L 628.63 309.94L 640 313.71L 658.99 319.02L 674.51 316.92L 687.63 319.61L 699 322.77L 717.99 327.19L 733.51 322.93L 746.63 328.68L 758 330.23L 776.99 333.18L 792.51 333.97L 805.63 333.97L 817 319L 835.99 323.66L 851.51 334.31L 864.63 330.24L 876 301.09L 894.99 317.05L 910.51 305.8L 923.63 306.58L 935 319.68L 953.99 321.37L 969.51 315.46L 982.63 330.69L 994 300.9L 1013 304.46L 1028.5 311.44L 1041.6 310.48L 1053 292.01L 1072 295.66L 1087.5 298.57L 1100.6 295.04L 1112 284.03L 1131 289.52L 1146.5 294.62L 1159.6 294.65L 1171 288.87L 1190 287.14L 1205.5 289.86L 1218.6 293.01L 1230 288.56" fill="none" stroke-width="4" stroke="#FF3B30" stroke-opacity="1" stroke-linecap="round" stroke-linejoin="round"/>
    <path d="M 50 125.09L 109 129.4L 143.51 147.29L 168 143.55L 186.99 153.13L 202.51 149.38L 215.63 156.03L 227 161.81L 245.99 162.54L 261.51 170.4L 274.63 176.92L 286 175.34L 304.99 184.75L 320.51 182.86L 333.63 189.9L 345 194.84L 363.99 196.34L 379.51 203.83L 392.63 202.69L 404 205.55L 422.99 216.39L 438.51 218.75L 451.63 224.83L 463 225.02L 481.99 232.57L 497.51 234.56L 510.63 239.32L 522 244.16L 540.99 246.96L 556.51 252.62L 569.63 257.2L 581 256.86L 599.99 262.37L 615.51 264.14L 628.63 267.23L 640 270.28L 658.99 271.31L 674.51 275.12L 687.63 275.29L 699 277.43L 717.99 280.59L 733.51 280.64L 746.63 282.88L 758 281.03L 776.99 283.55L 792.51 284.64L 805.63 286.49L 817 281.75L 835.99 287.4L 851.51 285.96L 864.63 261.12L 876 283.88L 894.99 283.45L 910.51 278.56L 923.63 270.69L 935 274.89L 953.99 288.98L 969.51 273.03L 982.63 287.46L 994 278.69L 1013 262.75L 1028.5 266.48L 1041.6 265.63L 1053 270.1L 1072 276.21L 1087.5 269.58L 1100.6 273.3L 1112 267.22L 1131 267.42L 1146.5 262.93L 1159.6 261.6L 1171 267.9L 1190 262.2L 1205.5 267.72L 1218.6 264.52L 1230 269.2" fill="none" stroke-width="0.5" stroke="#000000" stroke-opacity="0.30196" stroke-linecap="round" stroke-linejoin="round"/>
    <path d="M 50 91.712L 109 108.9L 143.51 115.75L 168 118.39L 186.99 120.06L 202.51 120.1L 215.63 122.84L 227 105.06L 245.99 106.86L 261.51 109.06L 274.63 110.32L 286 110.42L 304.99 101.55L 320.51 102.66L 333.63 103.27L 345 103.91L 363.99 106.69L 379.51 97.071L 392.63 99.439L 404 99.5L 422.99 101.84L 438.51 93.466L 451.63 95.352L 463 97.171L 481.99 99.799L 497.51 99.058L 510.63 91.905L 522 93.018L 540.99 94.499L 556.51 97.188L 569.63 88.995L 581 89.87L 599.99 91.578L 615.51 92.054L 628.63 92.368L 640 92.631L 658.99 93.39L 674.51 87.321L 687.63 88.371L 699 89.784L 717.99 90.383L 733.51 89.75L 746.63 82.187L 758 84.187L 776.99 85.753L 792.51 86.673L 805.63 85.419L 817 82.422L 835.99 81.524L 851.51 82.079L 864.63 81.944L 876 76.679L 894.99 80.84L 910.51 79.761L 923.63 81.728L 935 75.643L 953.99 77.994L 969.51 77.034L 982.63 77.853L 994 73.751L 1013 75.078L 1028.5 75.684L 1041.6 76.626L 1053 71.33L 1072 73.784L 1087.5 73.702L 1100.6 75.564L 1112 69.242L 1131 71.24L 1146.5 71.192L 1159.6 70.575L 1171 68.17L 1190 68.274L 1205.5 69.191L 1218.6 69.774L 1230 65.262" fill="none" stroke-width="0.5" stroke="#000000" stroke-opacity="0.30196" stroke-linecap="round" stroke-linejoin="round"/>
    <path d="M 50 141.78L 109 174.79L 143.51 164.69L 168 177.46L 186.99 177.06L 202.51 180.23L 215.63 188.29L 227 194.36L 245.99 193.68L 261.51 202.18L 274.63 209.31L 286 215.22L 304.99 204.41L 320.51 212.62L 333.63 223.24L 345 225.62L 363.99 225.49L 379.51 231.34L 392.63 239.33L 404 243.2L 422.99 246.66L 438.51 255.34L 451.63 262.59L 463 267.74L 481.99 274.86L 497.51 274.37L 510.63 282.61L 522 288.46L 540.99 291.1L 556.51 290.71L 569.63 297.66L 581 300.07L 599.99 306.53L 615.51 305.22L 628.63 309.94L 640 313.71L 658.99 319.02L 674.51 316.92L 687.63 319.61L 699 322.77L 717.99 327.19L 733.51 322.93L 746.63 328.68L 758 330.23L 776.99 333.18L 792.51 333.97L 805.63 333.97L 817 319L 835.99 323.66L 851.51 334.31L 864.63 330.24L 876 301.09L 894.99 317.05L 910.51 305.8L 923.63 306.58L 935 319.68L 953.99 321.37L 969.51 315.46L 982.63 330.69L 994 300.9L 1013 304.46L 1028.5 311.44L 1041.6 310.48L 1053 292.01L 1072 295.66L 1087.5 298.57L 1100.6 295.04L 1112 284.03L 1131 289.52L 1146.5 294.62L 1159.6 294.65L 1171 288.87L 1190 287.14L 1205.5 289.86L 1218.6 293.01L 1230 288.56" fill="none" stroke-width="0.5" stroke="#000000" stroke-opacity="0.30196" stroke-linecap="round" stroke-linejoin="round"/>
  </g>
  <path d="M 74 33 L 74 105 L 283 105 L 283 33 z" fill="#FFFFFF" fill-opacity="0.7019607843137254" stroke-width="0.5" stroke="#000000" stroke-opacity="1" stroke-linecap="round" stroke-linejoin="round"/>
  <path d="M 88 52 L 108 52" fill="none" stroke-width="4" stroke="#FF3B30" stroke-opacity="1" stroke-linecap="round" stroke-linejoin="round"/>
  <path d="M 88 52 L 108 52" fill="none" stroke-width="0.5" stroke="#000000" stroke-opacity="0.30196" stroke-linecap="round" stroke-linejoin="round"/>
  <text x="119" y="56.17" font-family="Menlo" font-size="12" font-weight="normal" font-style="normal" fill="#000000" fill-opacity="1">Array&lt;Int&gt; append</text>
  <path d="M 88 69 L 108 69" fill="none" stroke-width="4" stroke="#007AFF" stroke-opacity="1" stroke-linecap="round" stroke-linejoin="round"/>
  <path d="M 88 69 L 108 69" fill="none" stroke-width="0.5" stroke="#000000" stroke-opacity="0.30196" stroke-linecap="round" stroke-linejoin="round"/>
  <text x="119" y="73.17" font-family="Menlo" font-size="12" font-weight="normal" font-style="normal" fill="#000000" fill-opacity="1">TreeArray&lt;Int&gt; append</text>
  <path d="M 88 86 L 108 86" fill="none" stroke-width="4" stroke="#28CD41" stroke-opacity="1" stroke-linecap="round" stroke-linejoin="round"/>
  <path d="M 88 86 L 108 86" fill="none" stroke-width="0.5" stroke="#000000" stroke-opacity="0.30196" stroke-linecap="round" stroke-linejoin="round"/>
  <text x="119" y="90.17" font-family="Menlo" font-size="12" font-weight="normal" font-style="normal" fill="#000000" fill-opacity="1">Deque&lt;Int&gt; append</text>
  <path d="M 50 9 L 50 441 L 1230 441 L 1230 9 z" fill="none" stroke-width="0.5" stroke="#000000" stroke-opacity="1" stroke-linecap="round" stroke-linejoin="round"/>
</svg>
