<!DOCTYPE svg PUBLIC "-//W3C//DTD SVG 1.1//EN" "http://www.w3.org/Graphics/SVG/1.1/DTD/svg11.dtd">
<svg width="1280.0px" height="480.0px" viewBox="0.0 0.0 1280.0 480.0" xmlns="http://www.w3.org/2000/svg" xmlns:xlink="http://www.w3.org/1999/xlink" version="1.1">
  <path d="M 0 0 L 0 480 L 1280 480 L 1280 0 z" fill="#FFFFFF" fill-opacity="1.0" stroke="none"/>
  <text x="50" y="468.7" font-family="Helvetica" font-size="10" font-weight="normal" font-style="normal" fill="#000000" fill-opacity="1">Average per-element processing time over input size (bands: min, mean, mean + 2stddev)</text>
  <a xlink:href="https://github.com/apple/swift-collections-benchmark"><text x="1107" y="468.7" font-family="Helvetica" font-size="10" font-weight="normal" font-style="normal" fill="#000000" fill-opacity="1">swift-collections-benchmark</text></a>
  <path d="M 50 9 L 50 441" fill="none" stroke-width="0.75" stroke="#000000" stroke-opacity="0.49804" stroke-linecap="butt" stroke-linejoin="round"/>
  <text x="47" y="453.7" font-family="Helvetica" font-size="10" font-weight="normal" font-style="normal" fill="#000000" fill-opacity="1">1</text>
  <path d="M 109 9 L 109 441" fill="none" stroke-width="0.75" stroke="#000000" stroke-opacity="0.49804" stroke-linecap="butt" stroke-linejoin="round"/>
  <text x="106" y="453.7" font-family="Helvetica" font-size="10" font-weight="normal" font-style="normal" fill="#000000" fill-opacity="1">2</text>
  <path d="M 168 9 L 168 441" fill="none" stroke-width="0.75" stroke="#000000" stroke-opacity="0.49804" stroke-linecap="butt" stroke-linejoin="round"/>
  <text x="165" y="453.7" font-family="Helvetica" font-size="10" font-weight="normal" font-style="normal" fill="#000000" fill-opacity="1">4</text>
  <path d="M 227 9 L 227 441" fill="none" stroke-width="0.75" stroke="#000000" stroke-opacity="0.49804" stroke-linecap="butt" stroke-linejoin="round"/>
  <text x="224" y="453.7" font-family="Helvetica" font-size="10" font-weight="normal" font-style="normal" fill="#000000" fill-opacity="1">8</text>
  <path d="M 286 9 L 286 441" fill="none" stroke-width="0.75" stroke="#000000" stroke-opacity="0.49804" stroke-linecap="butt" stroke-linejoin="round"/>
  <text x="280" y="453.7" font-family="Helvetica" font-size="10" font-weight="normal" font-style="normal" fill="#000000" fill-opacity="1">16</text>
  <path d="M 345 9 L 345 441" fill="none" stroke-width="0.75" stroke="#000000" stroke-opacity="0.49804" stroke-linecap="butt" stroke-linejoin="round"/>
  <text x="339" y="453.7" font-family="Helvetica" font-size="10" font-weight="normal" font-style="normal" fill="#000000" fill-opacity="1">32</text>
  <path d="M 404 9 L 404 441" fill="none" stroke-width="0.75" stroke="#000000" stroke-opacity="0.49804" stroke-linecap="butt" stroke-linejoin="round"/>
  <text x="398" y="453.7" font-family="Helvetica" font-size="10" font-weight="normal" font-style="normal" fill="#000000" fill-opacity="1">64</text>
  <path d="M 463 9 L 463 441" fill="none" stroke-width="0.75" stroke="#000000" stroke-opacity="0.49804" stroke-linecap="butt" stroke-linejoin="round"/>
  <text x="454.5" y="453.7" font-family="Helvetica" font-size="10" font-weight="normal" font-style="normal" fill="#000000" fill-opacity="1">128</text>
  <path d="M 522 9 L 522 441" fill="none" stroke-width="0.75" stroke="#000000" stroke-opacity="0.49804" stroke-linecap="butt" stroke-linejoin="round"/>
  <text x="513.5" y="453.7" font-family="Helvetica" font-size="10" font-weight="normal" font-style="normal" fill="#000000" fill-opacity="1">256</text>
  <path d="M 581 9 L 581 441" fill="none" stroke-width="0.75" stroke="#000000" stroke-opacity="0.49804" stroke-linecap="butt" stroke-linejoin="round"/>
  <text x="572.5" y="453.7" font-family="Helvetica" font-size="10" font-weight="normal" font-style="normal" fill="#000000" fill-opacity="1">512</text>
  <path d="M 640 9 L 640 441" fill="none" stroke-width="0.75" stroke="#000000" stroke-opacity="0.49804" stroke-linecap="butt" stroke-linejoin="round"/>
  <text x="634.5" y="453.7" font-family="Helvetica" font-size="10" font-weight="normal" font-style="normal" fill="#000000" fill-opacity="1">1k</text>
  <path d="M 699 9 L 699 441" fill="none" stroke-width="0.75" stroke="#000000" stroke-opacity="0.49804" stroke-linecap="butt" stroke-linejoin="round"/>
  <text x="693.5" y="453.7" font-family="Helvetica" font-size="10" font-weight="normal" font-style="normal" fill="#000000" fill-opacity="1">2k</text>
  <path d="M 758 9 L 758 441" fill="none" stroke-width="0.75" stroke="#000000" stroke-opacity="0.49804" stroke-linecap="butt" stroke-linejoin="round"/>
  <text x="752.5" y="453.7" font-family="Helvetica" font-size="10" font-weight="normal" font-style="normal" fill="#000000" fill-opacity="1">4k</text>
  <path d="M 817 9 L 817 441" fill="none" stroke-width="0.75" stroke="#000000" stroke-opacity="0.49804" stroke-linecap="butt" stroke-linejoin="round"/>
  <text x="811.5" y="453.7" font-family="Helvetica" font-size="10" font-weight="normal" font-style="normal" fill="#000000" fill-opacity="1">8k</text>
  <path d="M 876 9 L 876 441" fill="none" stroke-width="0.75" stroke="#000000" stroke-opacity="0.49804" stroke-linecap="butt" stroke-linejoin="round"/>
  <text x="867.5" y="453.7" font-family="Helvetica" font-size="10" font-weight="normal" font-style="normal" fill="#000000" fill-opacity="1">16k</text>
  <path d="M 935 9 L 935 441" fill="none" stroke-width="0.75" stroke="#000000" stroke-opacity="0.49804" stroke-linecap="butt" stroke-linejoin="round"/>
  <text x="926.5" y="453.7" font-family="Helvetica" font-size="10" font-weight="normal" font-style="normal" fill="#000000" fill-opacity="1">32k</text>
  <path d="M 994 9 L 994 441" fill="none" stroke-width="0.75" stroke="#000000" stroke-opacity="0.49804" stroke-linecap="butt" stroke-linejoin="round"/>
  <text x="985.5" y="453.7" font-family="Helvetica" font-size="10" font-weight="normal" font-style="normal" fill="#000000" fill-opacity="1">64k</text>
  <path d="M 1053 9 L 1053 441" fill="none" stroke-width="0.75" stroke="#000000" stroke-opacity="0.49804" stroke-linecap="butt" stroke-linejoin="round"/>
  <text x="1042" y="453.7" font-family="Helvetica" font-size="10" font-weight="normal" font-style="normal" fill="#000000" fill-opacity="1">128k</text>
  <path d="M 1112 9 L 1112 441" fill="none" stroke-width="0.75" stroke="#000000" stroke-opacity="0.49804" stroke-linecap="butt" stroke-linejoin="round"/>
  <text x="1101" y="453.7" font-family="Helvetica" font-size="10" font-weight="normal" font-style="normal" fill="#000000" fill-opacity="1">256k</text>
  <path d="M 1171 9 L 1171 441" fill="none" stroke-width="0.75" stroke="#000000" stroke-opacity="0.49804" stroke-linecap="butt" stroke-linejoin="round"/>
  <text x="1160" y="453.7" font-family="Helvetica" font-size="10" font-weight="normal" font-style="normal" fill="#000000" fill-opacity="1">512k</text>
  <path d="M 1230 9 L 1230 441" fill="none" stroke-width="0.75" stroke="#000000" stroke-opacity="0.49804" stroke-linecap="butt" stroke-linejoin="round"/>
  <text x="1223" y="453.7" font-family="Helvetica" font-size="10" font-weight="normal" font-style="normal" fill="#000000" fill-opacity="1">1M</text>
  <path d="M 50 441 L 1230 441" fill="none" stroke-width="0.75" stroke="#000000" stroke-opacity="0.49804" stroke-linecap="butt" stroke-linejoin="round"/>
  <text x="16" y="442.7" font-family="Helvetica" font-size="10" font-weight="normal" font-style="normal" fill="#000000" fill-opacity="1">100 ps</text>
  <text x="1236" y="442.7" font-family="Helvetica" font-size="10" font-weight="normal" font-style="normal" fill="#000000" fill-opacity="1">100 ps</text>
  <path d="M 50 333 L 1230 333" fill="none" stroke-width="0.75" stroke="#000000" stroke-opacity="0.49804" stroke-linecap="butt" stroke-linejoin="round"/>
  <text x="27" y="334.7" font-family="Helvetica" font-size="10" font-weight="normal" font-style="normal" fill="#000000" fill-opacity="1">1 ns</text>
  <text x="1236" y="334.7" font-family="Helvetica" font-size="10" font-weight="normal" font-style="normal" fill="#000000" fill-opacity="1">1 ns</text>
  <path d="M 50 225 L 1230 225" fill="none" stroke-width="0.75" stroke="#000000" stroke-opacity="0.49804" stroke-linecap="butt" stroke-linejoin="round"/>
  <text x="21" y="226.7" font-family="Helvetica" font-size="10" font-weight="normal" font-style="normal" fill="#000000" fill-opacity="1">10 ns</text>
  <text x="1236" y="226.7" font-family="Helvetica" font-size="10" font-weight="normal" font-style="normal" fill="#000000" fill-opacity="1">10 ns</text>
  <path d="M 50 117 L 1230 117" fill="none" stroke-width="0.75" stroke="#000000" stroke-opacity="0.49804" stroke-linecap="butt" stroke-linejoin="round"/>
  <text x="16" y="118.7" font-family="Helvetica" font-size="10" font-weight="normal" font-style="normal" fill="#000000" fill-opacity="1">100 ns</text>
  <text x="1236" y="118.7" font-family="Helvetica" font-size="10" font-weight="normal" font-style="normal" fill="#000000" fill-opacity="1">100 ns</text>
  <path d="M 50 9 L 1230 9" fill="none" stroke-width="0.75" stroke="#000000" stroke-opacity="0.49804" stroke-linecap="butt" stroke-linejoin="round"/>
  <text x="26" y="10.7" font-family="Helvetica" font-size="10" font-weight="normal" font-style="normal" fill="#000000" fill-opacity="1">1 µs</text>
  <text x="1236" y="10.7" font-family="Helvetica" font-size="10" font-weight="normal" font-style="normal" fill="#000000" fill-opacity="1">1 µs</text>
  <path d="M 50 408.49 L 1230 408.49" fill="none" stroke-width="0.5" stroke="#000000" stroke-opacity="0.25882" stroke-linecap="butt" stroke-linejoin="round" stroke-dasharray="6 3" stroke-dashoffset="0"/>
  <path d="M 50 375.98 L 1230 375.98" fill="none" stroke-width="0.5" stroke="#000000" stroke-opacity="0.25882" stroke-linecap="butt" stroke-linejoin="round" stroke-dasharray="6 3" stroke-dashoffset="0"/>
  <path d="M 50 343.47 L 1230 343.47" fill="none" stroke-width="0.5" stroke="#000000" stroke-opacity="0.25882" stroke-linecap="butt" stroke-linejoin="round" stroke-dasharray="6 3" stroke-dashoffset="0"/>
  <path d="M 50 310.96 L 1230 310.96" fill="none" stroke-width="0.5" stroke="#000000" stroke-opacity="0.25882" stroke-linecap="butt" stroke-linejoin="round" stroke-dasharray="6 3" stroke-dashoffset="0"/>
  <path d="M 50 278.44 L 1230 278.44" fill="none" stroke-width="0.5" stroke="#000000" stroke-opacity="0.25882" stroke-linecap="butt" stroke-linejoin="round" stroke-dasharray="6 3" stroke-dashoffset="0"/>
  <path d="M 50 245.93 L 1230 245.93" fill="none" stroke-width="0.5" stroke="#000000" stroke-opacity="0.25882" stroke-linecap="butt" stroke-linejoin="round" stroke-dasharray="6 3" stroke-dashoffset="0"/>
  <path d="M 50 213.42 L 1230 213.42" fill="none" stroke-width="0.5" stroke="#000000" stroke-opacity="0.25882" stroke-linecap="butt" stroke-linejoin="round" stroke-dasharray="6 3" stroke-dashoffset="0"/>
  <path d="M 50 180.91 L 1230 180.91" fill="none" stroke-width="0.5" stroke="#000000" stroke-opacity="0.25882" stroke-linecap="butt" stroke-linejoin="round" stroke-dasharray="6 3" stroke-dashoffset="0"/>
  <path d="M 50 148.4 L 1230 148.4" fill="none" stroke-width="0.5" stroke="#000000" stroke-opacity="0.25882" stroke-linecap="butt" stroke-linejoin="round" stroke-dasharray="6 3" stroke-dashoffset="0"/>
  <path d="M 50 115.89 L 1230 115.89" fill="none" stroke-width="0.5" stroke="#000000" stroke-opacity="0.25882" stroke-linecap="butt" stroke-linejoin="round" stroke-dasharray="6 3" stroke-dashoffset="0"/>
  <path d="M 50 83.376 L 1230 83.376" fill="none" stroke-width="0.5" stroke="#000000" stroke-opacity="0.25882" stroke-linecap="butt" stroke-linejoin="round" stroke-dasharray="6 3" stroke-dashoffset="0"/>
  <path d="M 50 50.865 L 1230 50.865" fill="none" stroke-width="0.5" stroke="#000000" stroke-opacity="0.25882" stroke-linecap="butt" stroke-linejoin="round" stroke-dasharray="6 3" stroke-dashoffset="0"/>
  <path d="M 50 18.354 L 1230 18.354" fill="none" stroke-width="0.5" stroke="#000000" stroke-opacity="0.25882" stroke-linecap="butt" stroke-linejoin="round" stroke-dasharray="6 3" stroke-dashoffset="0"/>
  <path d="M 74 33 L 74 88 L 283 88 L 283 33 z" fill="#FFFFFF" fill-opacity="1.0" stroke="none"/>
  <clipPath id="clip-0">
    <path d="M 50 9 L 50 441 L 1230 441 L 1230 9 z"/>
  </clipPath>
  <g clip-path="url(#clip-0)">
    <path d="M 50 90.69L 109 105.04L 143.51 112.87L 168 116.46L 186.99 117.4L 202.51 116.73L 215.63 118.24L 227 101.3L 245.99 106.42L 261.51 104.68L 274.63 106.16L 286 107.18L 304.99 98.438L 320.51 99.606L 333.63 101.69L 345 102.06L 363.99 102.71L 379.51 95.794L 392.63 95.871L 404 97.144L 422.99 97.584L 438.51 92.803L 451.63 91.867L 463 94.306L 481.99 94.592L 497.51 95.848L 510.63 89.302L 522 88.337L 540.99 94.038L 556.51 93.029L 569.63 84.482L 581 86.678L 599.99 66.042L 615.51 87.53L 628.63 91.43L 640 91.81L 658.99 91.994L 674.51 85.04L 687.63 86.045L 699 87.902L 717.99 86.939L 733.51 87.043L 746.63 80.192L 758 78.996L 776.99 78.626L 792.51 81.871L 805.63 86.101L 817 80.216L 835.99 77.461L 851.51 79.314L 864.63 79.746L 876 73.928L 894.99 76.71L 910.51 78.139L 923.63 76.987L 935 66.574L 953.99 71.892L 969.51 70.17L 982.63 73.218L 994 68.929L 1013 68.068L 1028.5 69.431L 1041.6 73.507L 1053 65.771L 1072 66.722L 1087.5 66.422L 1100.6 68.857L 1112 67.346L 1131 67.89L 1146.5 69.696L 1159.6 69.914L 1171 61.657L 1190 66.738L 1205.5 69.665L 1218.6 66.991L 1230 63.054L 1230 64.934L 1218.6 70.084L 1205.5 70.078L 1190 67.77L 1171 66.293L 1159.6 72.499L 1146.5 70.485L 1131 70.732L 1112 68.092L 1100.6 77.318L 1087.5 73.533L 1072 72.148L 1053 71.949L 1041.6 77.709L 1028.5 76.242L 1013 75.26L 994 72.909L 982.63 78.152L 969.51 79.344L 953.99 75.549L 935 75.615L 923.63 79.456L 910.51 80.709L 894.99 78.489L 876 79.302L 864.63 84.54L 851.51 84.69L 835.99 83.314L 817 80.532L 805.63 87.413L 792.51 85.988L 776.99 87.463L 758 86.018L 746.63 82.31L 733.51 90.057L 717.99 89.69L 699 88.558L 687.63 87.796L 674.51 86.621L 658.99 92.855L 640 92.937L 628.63 94.584L 615.51 93.193L 599.99 91.633L 581 89.675L 569.63 89.749L 556.51 95.153L 540.99 94.35L 522 95.101L 510.63 92.16L 497.51 98.144L 481.99 98.938L 463 95.988L 451.63 94.666L 438.51 93.655L 422.99 100.81L 404 99.174L 392.63 98.162L 379.51 96.734L 363.99 104.8L 345 104.32L 333.63 103.41L 320.51 102.59L 304.99 101.72L 286 110.28L 274.63 110.07L 261.51 108.99L 245.99 106.66L 227 106.53L 215.63 119.97L 202.51 119.41L 186.99 119.41L 168 118.54L 143.51 115.21L 109 109.6L 50 91.768" fill="#007AFF" fill-opacity="0.30196078431372547" stroke="none"/>
    <path d="M 50 139.49L 109 174.79L 143.51 164.43L 168 176.71L 186.99 165.33L 202.51 178.5L 215.63 187.75L 227 193.29L 245.99 193.11L 261.51 201.76L 274.63 208.61L 286 214.94L 304.99 202.75L 320.51 211.4L 333.63 215.01L 345 224.92L 363.99 221.1L 379.51 230.6L 392.63 238.24L 404 237.68L 422.99 245.57L 438.51 249.51L 451.63 256.8L 463 260.31L 481.99 273.72L 497.51 273.43L 510.63 281.04L 522 286.9L 540.99 290.99L 556.51 286.71L 569.63 296.86L 581 298.62L 599.99 306.09L 615.51 301.68L 628.63 308.34L 640 311.22L 658.99 317.68L 674.51 313.06L 687.63 318.58L 699 322.45L 717.99 326.84L 733.51 320.63L 746.63 327.95L 758 329.85L 776.99 332.75L 792.51 331.76L 805.63 329.52L 817 315.2L 835.99 305.49L 851.51 329.39L 864.63 314.48L 876 272.03L 894.99 298.09L 910.51 277.65L 923.63 270.7L 935 318.33L 953.99 303.3L 969.51 294.2L 982.63 326.54L 994 293.74L 1013 299.66L 1028.5 286.43L 1041.6 307.48L 1053 281.7L 1072 295.05L 1087.5 295.6L 1100.6 291.26L 1112 272.87L 1131 279.18L 1146.5 290.65L 1159.6 288.44L 1171 280.99L 1190 284.73L 1205.5 279.75L 1218.6 283.7L 1230 281.98L 1230 291.13L 1218.6 296.8L 1205.5 294.03L 1190 288.02L 1171 292L 1159.6 297.06L 1146.5 296.11L 1131 293.79L 1112 288.7L 1100.6 296.45L 1087.5 299.66L 1072 295.88L 1053 296.27L 1041.6 311.59L 1028.5 324.88L 1013 306.28L 994 303.72L 982.63 332.25L 969.51 326.09L 953.99 329.89L 935 320.16L 923.63 331.04L 910.51 321.92L 894.99 326.13L 876 318.05L 864.63 337.38L 851.51 336.19L 835.99 332.26L 817 320.42L 805.63 335.65L 792.51 334.78L 776.99 333.33L 758 330.36L 746.63 328.94L 733.51 323.77L 717.99 327.31L 699 322.89L 687.63 319.98L 674.51 318.37L 658.99 319.51L 640 314.63L 628.63 310.52L 615.51 306.54L 599.99 306.68L 581 300.6L 569.63 297.95L 556.51 292.21L 540.99 291.13L 522 289.03L 510.63 283.18L 497.51 274.7L 481.99 275.26L 463 270.68L 451.63 264.82L 438.51 257.59L 422.99 247.04L 404 245.32L 392.63 239.72L 379.51 231.6L 363.99 227.15L 345 225.86L 333.63 226.53L 320.51 213.06L 304.99 205.02L 286 215.32L 274.63 209.56L 261.51 202.33L 245.99 193.88L 227 194.74L 215.63 188.48L 202.51 180.86L 186.99 182.02L 168 177.73L 143.51 164.78L 109 174.79L 50 142.62" fill="#FF3B30" fill-opacity="0.30196078431372547" stroke="none"/>
    <path d="M 50 91.484L 109 108.37L 143.51 114.59L 168 117.99L 186.99 118.87L 202.51 118.69L 215.63 119.51L 227 105.11L 245.99 106.6L 261.51 107.83L 274.63 109.02L 286 109.45L 304.99 100.84L 320.51 101.79L 333.63 102.96L 345 103.72L 363.99 104.24L 379.51 96.487L 392.63 97.553L 404 98.635L 422.99 99.947L 438.51 93.431L 451.63 93.919L 463 95.543L 481.99 97.764L 497.51 97.534L 510.63 91.396L 522 93.238L 540.99 94.268L 556.51 94.589L 569.63 88.315L 581 88.873L 599.99 83.492L 615.51 91.647L 628.63 93.739L 640 92.64L 658.99 92.629L 674.51 86.203L 687.63 87.332L 699 88.386L 717.99 88.956L 733.51 89.251L 746.63 81.748L 758 84.08L 776.99 84.989L 792.51 84.877L 805.63 87.067L 817 80.449L 835.99 81.713L 851.51 83.225L 864.63 83.24L 876 77.838L 894.99 78.018L 910.51 80.024L 923.63 78.799L 935 73.08L 953.99 74.566L 969.51 76.769L 982.63 76.813L 994 71.836L 1013 73.273L 1028.5 74.365L 1041.6 76.575L 1053 70.255L 1072 70.669L 1087.5 71.569L 1100.6 74.957L 1112 67.896L 1131 69.973L 1146.5 70.277L 1159.6 71.81L 1171 65.037L 1190 67.498L 1205.5 69.97L 1218.6 69.256L 1230 64.436" fill="none" stroke-width="4" stroke="#007AFF" stroke-opacity="1" stroke-linecap="round" stroke-linejoin="round"/>
    <path d="M 50 141.78L 109 174.79L 143.51 164.69L 168 177.46L 186.99 177.06L 202.51 180.23L 215.63 188.29L 227 194.36L 245.99 193.68L 261.51 202.18L 274.63 209.31L 286 215.22L 304.99 204.41L 320.51 212.62L 333.63 223.24L 345 225.62L 363.99 225.49L 379.51 231.34L 392.63 239.33L 404 243.2L 422.99 246.66L 438.51 255.34L 451.63 262.59L 463 267.74L 481.99 274.86L 497.51 274.37L 510.63 282.61L 522 288.46L 540.99 291.1L 556.51 290.71L 569.63 297.66L 581 300.07L 599.99 306.53L 615.51 305.22L 628.63 309.94L 640 313.71L 658.99 319.02L 674.51 316.92L 687.63 319.61L 699 322.77L 717.99 327.19L 733.51 322.93L 746.63 328.68L 758 330.23L 776.99 333.18L 792.51 333.97L 805.63 333.97L 817 319L 835.99 323.66L 851.51 334.31L 864.63 330.24L 876 301.09L 894.99 317.05L 910.51 305.8L 923.63 306.58L 935 319.68L 953.99 321.37L 969.51 315.46L 982.63 330.69L 994 300.9L 1013 304.46L 1028.5 311.44L 1041.6 310.48L 1053 292.01L 1072 295.66L 1087.5 298.57L 1100.6 295.04L 1112 284.03L 1131 289.52L 1146.5 294.62L 1159.6 294.65L 1171 288.87L 1190 287.14L 1205.5 289.86L 1218.6 293.01L 1230 288.56" fill="none" stroke-width="4" stroke="#FF3B30" stroke-opacity="1" stroke-linecap="round" stroke-linejoin="round"/>
    <path d="M 50 91.484L 109 108.37L 143.51 114.59L 168 117.99L 186.99 118.87L 202.51 118.69L 215.63 119.51L 227 105.11L 245.99 106.6L 261.51 107.83L 274.63 109.02L 286 109.45L 304.99 100.84L 320.51 101.79L 333.63 102.96L 345 103.72L 363.99 104.24L 379.51 96.487L 392.63 97.553L 404 98.635L 422.99 99.947L 438.51 93.431L 451.63 93.919L 463 95.543L 481.99 97.764L 497.51 97.534L 510.63 91.396L 522 93.238L 540.99 94.268L 556.51 94.589L 569.63 88.315L 581 88.873L 599.99 83.492L 615.51 91.647L 628.63 93.739L 640 92.64L 658.99 92.629L 674.51 86.203L 687.63 87.332L 699 88.386L 717.99 88.956L 733.51 89.251L 746.63 81.748L 758 84.08L 776.99 84.989L 792.51 84.877L 805.63 87.067L 817 80.449L 835.99 81.713L 851.51 83.225L 864.63 83.24L 876 77.838L 894.99 78.018L 910.51 80.024L 923.63 78.799L 935 73.08L 953.99 74.566L 969.51 76.769L 982.63 76.813L 994 71.836L 1013 73.273L 1028.5 74.365L 1041.6 76.575L 1053 70.255L 1072 70.669L 1087.5 71.569L 1100.6 74.957L 1112 67.896L 1131 69.973L 1146.5 70.277L 1159.6 71.81L 1171 65.037L 1190 67.498L 1205.5 69.97L 1218.6 69.256L 1230 64.436" fill="none" stroke-width="0.5" stroke="#000000" stroke-opacity="0.30196" stroke-linecap="round" stroke-linejoin="round"/>
    <path d="M 50 141.78L 109 174.79L 143.51 164.69L 168 177.46L 186.99 177.06L 202.51 180.23L 215.63 188.29L 227 194.36L 245.99 193.68L 261.51 202.18L 274.63 209.31L 286 215.22L 304.99 204.41L 320.51 212.62L 333.63 223.24L 345 225.62L 363.99 225.49L 379.51 231.34L 392.63 239.33L 404 243.2L 422.99 246.66L 438.51 255.34L 451.63 262.59L 463 267.74L 481.99 274.86L 497.51 274.37L 510.63 282.61L 522 288.46L 540.99 291.1L 556.51 290.71L 569.63 297.66L 581 300.07L 599.99 306.53L 615.51 305.22L 628.63 309.94L 640 313.71L 658.99 319.02L 674.51 316.92L 687.63 319.61L 699 322.77L 717.99 327.19L 733.51 322.93L 746.63 328.68L 758 330.23L 776.99 333.18L 792.51 333.97L 805.63 333.97L 817 319L 835.99 323.66L 851.51 334.31L 864.63 330.24L 876 301.09L 894.99 317.05L 910.51 305.8L 923.63 306.58L 935 319.68L 953.99 321.37L 969.51 315.46L 982.63 330.69L 994 300.9L 1013 304.46L 1028.5 311.44L 1041.6 310.48L 1053 292.01L 1072 295.66L 1087.5 298.57L 1100.6 295.04L 1112 284.03L 1131 289.52L 1146.5 294.62L 1159.6 294.65L 1171 288.87L 1190 287.14L 1205.5 289.86L 1218.6 293.01L 1230 288.56" fill="none" stroke-width="0.5" stroke="#000000" stroke-opacity="0.30196" stroke-linecap="round" stroke-linejoin="round"/>
  </g>
  <path d="M 74 33 L 74 88 L 283 88 L 283 33 z" fill="#FFFFFF" fill-opacity="0.7019607843137254" stroke-width="0.5" stroke="#000000" stroke-opacity="1" stroke-linecap="round" stroke-linejoin="round"/>
  <path d="M 88 52 L 108 52" fill="none" stroke-width="4" stroke="#FF3B30" stroke-opacity="1" stroke-linecap="round" stroke-linejoin="round"/>
  <path d="M 88 52 L 108 52" fill="none" stroke-width="0.5" stroke="#000000" stroke-opacity="0.30196" stroke-linecap="round" stroke-linejoin="round"/>
  <text x="119" y="56.17" font-family="Menlo" font-size="12" font-weight="normal" font-style="normal" fill="#000000" fill-opacity="1">Array&lt;Int&gt; append</text>
  <path d="M 88 69 L 108 69" fill="none" stroke-width="4" stroke="#007AFF" stroke-opacity="1" stroke-linecap="round" stroke-linejoin="round"/>
  <path d="M 88 69 L 108 69" fill="none" stroke-width="0.5" stroke="#000000" stroke-opacity="0.30196" stroke-linecap="round" stroke-linejoin="round"/>
  <text x="119" y="73.17" font-family="Menlo" font-size="12" font-weight="normal" font-style="normal" fill="#000000" fill-opacity="1">TreeArray&lt;Int&gt; append</text>
  <path d="M 50 9 L 50 441 L 1230 441 L 1230 9 z" fill="none" stroke-width="0.5" stroke="#000000" stroke-opacity="1" stroke-linecap="round" stroke-linejoin="round"/>
</svg>
