<!DOCTYPE svg PUBLIC "-//W3C//DTD SVG 1.1//EN" "http://www.w3.org/Graphics/SVG/1.1/DTD/svg11.dtd">
<svg width="1280.0px" height="480.0px" viewBox="0.0 0.0 1280.0 480.0" xmlns="http://www.w3.org/2000/svg" xmlns:xlink="http://www.w3.org/1999/xlink" version="1.1">
  <path d="M 0 0 L 0 480 L 1280 480 L 1280 0 z" fill="#FFFFFF" fill-opacity="1.0" stroke="none"/>
  <text x="50" y="468.7" font-family="Helvetica" font-size="10" font-weight="normal" font-style="normal" fill="#000000" fill-opacity="1">Average per-element processing time over input size (bands: min, mean, mean + 2stddev)</text>
  <a xlink:href="https://github.com/apple/swift-collections-benchmark"><text x="1107" y="468.7" font-family="Helvetica" font-size="10" font-weight="normal" font-style="normal" fill="#000000" fill-opacity="1">swift-collections-benchmark</text></a>
  <path d="M 50 9 L 50 441" fill="none" stroke-width="0.75" stroke="#000000" stroke-opacity="0.49804" stroke-linecap="butt" stroke-linejoin="round"/>
  <text x="47" y="453.7" font-family="Helvetica" font-size="10" font-weight="normal" font-style="normal" fill="#000000" fill-opacity="1">1</text>
  <path d="M 109 9 L 109 441" fill="none" stroke-width="0.75" stroke="#000000" stroke-opacity="0.49804" stroke-linecap="butt" stroke-linejoin="round"/>
  <text x="106" y="453.7" font-family="Helvetica" font-size="10" font-weight="normal" font-style="normal" fill="#000000" fill-opacity="1">2</text>
  <path d="M 168 9 L 168 441" fill="none" stroke-width="0.75" stroke="#000000" stroke-opacity="0.49804" stroke-linecap="butt" stroke-linejoin="round"/>
  <text x="165" y="453.7" font-family="Helvetica" font-size="10" font-weight="normal" font-style="normal" fill="#000000" fill-opacity="1">4</text>
  <path d="M 227 9 L 227 441" fill="none" stroke-width="0.75" stroke="#000000" stroke-opacity="0.49804" stroke-linecap="butt" stroke-linejoin="round"/>
  <text x="224" y="453.7" font-family="Helvetica" font-size="10" font-weight="normal" font-style="normal" fill="#000000" fill-opacity="1">8</text>
  <path d="M 286 9 L 286 441" fill="none" stroke-width="0.75" stroke="#000000" stroke-opacity="0.49804" stroke-linecap="butt" stroke-linejoin="round"/>
  <text x="280" y="453.7" font-family="Helvetica" font-size="10" font-weight="normal" font-style="normal" fill="#000000" fill-opacity="1">16</text>
  <path d="M 345 9 L 345 441" fill="none" stroke-width="0.75" stroke="#000000" stroke-opacity="0.49804" stroke-linecap="butt" stroke-linejoin="round"/>
  <text x="339" y="453.7" font-family="Helvetica" font-size="10" font-weight="normal" font-style="normal" fill="#000000" fill-opacity="1">32</text>
  <path d="M 404 9 L 404 441" fill="none" stroke-width="0.75" stroke="#000000" stroke-opacity="0.49804" stroke-linecap="butt" stroke-linejoin="round"/>
  <text x="398" y="453.7" font-family="Helvetica" font-size="10" font-weight="normal" font-style="normal" fill="#000000" fill-opacity="1">64</text>
  <path d="M 463 9 L 463 441" fill="none" stroke-width="0.75" stroke="#000000" stroke-opacity="0.49804" stroke-linecap="butt" stroke-linejoin="round"/>
  <text x="454.5" y="453.7" font-family="Helvetica" font-size="10" font-weight="normal" font-style="normal" fill="#000000" fill-opacity="1">128</text>
  <path d="M 522 9 L 522 441" fill="none" stroke-width="0.75" stroke="#000000" stroke-opacity="0.49804" stroke-linecap="butt" stroke-linejoin="round"/>
  <text x="513.5" y="453.7" font-family="Helvetica" font-size="10" font-weight="normal" font-style="normal" fill="#000000" fill-opacity="1">256</text>
  <path d="M 581 9 L 581 441" fill="none" stroke-width="0.75" stroke="#000000" stroke-opacity="0.49804" stroke-linecap="butt" stroke-linejoin="round"/>
  <text x="572.5" y="453.7" font-family="Helvetica" font-size="10" font-weight="normal" font-style="normal" fill="#000000" fill-opacity="1">512</text>
  <path d="M 640 9 L 640 441" fill="none" stroke-width="0.75" stroke="#000000" stroke-opacity="0.49804" stroke-linecap="butt" stroke-linejoin="round"/>
  <text x="634.5" y="453.7" font-family="Helvetica" font-size="10" font-weight="normal" font-style="normal" fill="#000000" fill-opacity="1">1k</text>
  <path d="M 699 9 L 699 441" fill="none" stroke-width="0.75" stroke="#000000" stroke-opacity="0.49804" stroke-linecap="butt" stroke-linejoin="round"/>
  <text x="693.5" y="453.7" font-family="Helvetica" font-size="10" font-weight="normal" font-style="normal" fill="#000000" fill-opacity="1">2k</text>
  <path d="M 758 9 L 758 441" fill="none" stroke-width="0.75" stroke="#000000" stroke-opacity="0.49804" stroke-linecap="butt" stroke-linejoin="round"/>
  <text x="752.5" y="453.7" font-family="Helvetica" font-size="10" font-weight="normal" font-style="normal" fill="#000000" fill-opacity="1">4k</text>
  <path d="M 817 9 L 817 441" fill="none" stroke-width="0.75" stroke="#000000" stroke-opacity="0.49804" stroke-linecap="butt" stroke-linejoin="round"/>
  <text x="811.5" y="453.7" font-family="Helvetica" font-size="10" font-weight="normal" font-style="normal" fill="#000000" fill-opacity="1">8k</text>
  <path d="M 876 9 L 876 441" fill="none" stroke-width="0.75" stroke="#000000" stroke-opacity="0.49804" stroke-linecap="butt" stroke-linejoin="round"/>
  <text x="867.5" y="453.7" font-family="Helvetica" font-size="10" font-weight="normal" font-style="normal" fill="#000000" fill-opacity="1">16k</text>
  <path d="M 935 9 L 935 441" fill="none" stroke-width="0.75" stroke="#000000" stroke-opacity="0.49804" stroke-linecap="butt" stroke-linejoin="round"/>
  <text x="926.5" y="453.7" font-family="Helvetica" font-size="10" font-weight="normal" font-style="normal" fill="#000000" fill-opacity="1">32k</text>
  <path d="M 994 9 L 994 441" fill="none" stroke-width="0.75" stroke="#000000" stroke-opacity="0.49804" stroke-linecap="butt" stroke-linejoin="round"/>
  <text x="985.5" y="453.7" font-family="Helvetica" font-size="10" font-weight="normal" font-style="normal" fill="#000000" fill-opacity="1">64k</text>
  <path d="M 1053 9 L 1053 441" fill="none" stroke-width="0.75" stroke="#000000" stroke-opacity="0.49804" stroke-linecap="butt" stroke-linejoin="round"/>
  <text x="1042" y="453.7" font-family="Helvetica" font-size="10" font-weight="normal" font-style="normal" fill="#000000" fill-opacity="1">128k</text>
  <path d="M 1112 9 L 1112 441" fill="none" stroke-width="0.75" stroke="#000000" stroke-opacity="0.49804" stroke-linecap="butt" stroke-linejoin="round"/>
  <text x="1101" y="453.7" font-family="Helvetica" font-size="10" font-weight="normal" font-style="normal" fill="#000000" fill-opacity="1">256k</text>
  <path d="M 1171 9 L 1171 441" fill="none" stroke-width="0.75" stroke="#000000" stroke-opacity="0.49804" stroke-linecap="butt" stroke-linejoin="round"/>
  <text x="1160" y="453.7" font-family="Helvetica" font-size="10" font-weight="normal" font-style="normal" fill="#000000" fill-opacity="1">512k</text>
  <path d="M 1230 9 L 1230 441" fill="none" stroke-width="0.75" stroke="#000000" stroke-opacity="0.49804" stroke-linecap="butt" stroke-linejoin="round"/>
  <text x="1223" y="453.7" font-family="Helvetica" font-size="10" font-weight="normal" font-style="normal" fill="#000000" fill-opacity="1">1M</text>
  <path d="M 50 441 L 1230 441" fill="none" stroke-width="0.75" stroke="#000000" stroke-opacity="0.49804" stroke-linecap="butt" stroke-linejoin="round"/>
  <text x="16" y="442.7" font-family="Helvetica" font-size="10" font-weight="normal" font-style="normal" fill="#000000" fill-opacity="1">100 ps</text>
  <text x="1236" y="442.7" font-family="Helvetica" font-size="10" font-weight="normal" font-style="normal" fill="#000000" fill-opacity="1">100 ps</text>
  <path d="M 50 333 L 1230 333" fill="none" stroke-width="0.75" stroke="#000000" stroke-opacity="0.49804" stroke-linecap="butt" stroke-linejoin="round"/>
  <text x="27" y="334.7" font-family="Helvetica" font-size="10" font-weight="normal" font-style="normal" fill="#000000" fill-opacity="1">1 ns</text>
  <text x="1236" y="334.7" font-family="Helvetica" font-size="10" font-weight="normal" font-style="normal" fill="#000000" fill-opacity="1">1 ns</text>
  <path d="M 50 225 L 1230 225" fill="none" stroke-width="0.75" stroke="#000000" stroke-opacity="0.49804" stroke-linecap="butt" stroke-linejoin="round"/>
  <text x="21" y="226.7" font-family="Helvetica" font-size="10" font-weight="normal" font-style="normal" fill="#000000" fill-opacity="1">10 ns</text>
  <text x="1236" y="226.7" font-family="Helvetica" font-size="10" font-weight="normal" font-style="normal" fill="#000000" fill-opacity="1">10 ns</text>
  <path d="M 50 117 L 1230 117" fill="none" stroke-width="0.75" stroke="#000000" stroke-opacity="0.49804" stroke-linecap="butt" stroke-linejoin="round"/>
  <text x="16" y="118.7" font-family="Helvetica" font-size="10" font-weight="normal" font-style="normal" fill="#000000" fill-opacity="1">100 ns</text>
  <text x="1236" y="118.7" font-family="Helvetica" font-size="10" font-weight="normal" font-style="normal" fill="#000000" fill-opacity="1">100 ns</text>
  <path d="M 50 9 L 1230 9" fill="none" stroke-width="0.75" stroke="#000000" stroke-opacity="0.49804" stroke-linecap="butt" stroke-linejoin="round"/>
  <text x="26" y="10.7" font-family="Helvetica" font-size="10" font-weight="normal" font-style="normal" fill="#000000" fill-opacity="1">1 µs</text>
  <text x="1236" y="10.7" font-family="Helvetica" font-size="10" font-weight="normal" font-style="normal" fill="#000000" fill-opacity="1">1 µs</text>
  <path d="M 50 408.49 L 1230 408.49" fill="none" stroke-width="0.5" stroke="#000000" stroke-opacity="0.25882" stroke-linecap="butt" stroke-linejoin="round" stroke-dasharray="6 3" stroke-dashoffset="0"/>
  <path d="M 50 375.98 L 1230 375.98" fill="none" stroke-width="0.5" stroke="#000000" stroke-opacity="0.25882" stroke-linecap="butt" stroke-linejoin="round" stroke-dasharray="6 3" stroke-dashoffset="0"/>
  <path d="M 50 343.47 L 1230 343.47" fill="none" stroke-width="0.5" stroke="#000000" stroke-opacity="0.25882" stroke-linecap="butt" stroke-linejoin="round" stroke-dasharray="6 3" stroke-dashoffset="0"/>
  <path d="M 50 310.96 L 1230 310.96" fill="none" stroke-width="0.5" stroke="#000000" stroke-opacity="0.25882" stroke-linecap="butt" stroke-linejoin="round" stroke-dasharray="6 3" stroke-dashoffset="0"/>
  <path d="M 50 278.44 L 1230 278.44" fill="none" stroke-width="0.5" stroke="#000000" stroke-opacity="0.25882" stroke-linecap="butt" stroke-linejoin="round" stroke-dasharray="6 3" stroke-dashoffset="0"/>
  <path d="M 50 245.93 L 1230 245.93" fill="none" stroke-width="0.5" stroke="#000000" stroke-opacity="0.25882" stroke-linecap="butt" stroke-linejoin="round" stroke-dasharray="6 3" stroke-dashoffset="0"/>
  <path d="M 50 213.42 L 1230 213.42" fill="none" stroke-width="0.5" stroke="#000000" stroke-opacity="0.25882" stroke-linecap="butt" stroke-linejoin="round" stroke-dasharray="6 3" stroke-dashoffset="0"/>
  <path d="M 50 180.91 L 1230 180.91" fill="none" stroke-width="0.5" stroke="#000000" stroke-opacity="0.25882" stroke-linecap="butt" stroke-linejoin="round" stroke-dasharray="6 3" stroke-dashoffset="0"/>
  <path d="M 50 148.4 L 1230 148.4" fill="none" stroke-width="0.5" stroke="#000000" stroke-opacity="0.25882" stroke-linecap="butt" stroke-linejoin="round" stroke-dasharray="6 3" stroke-dashoffset="0"/>
  <path d="M 50 115.89 L 1230 115.89" fill="none" stroke-width="0.5" stroke="#000000" stroke-opacity="0.25882" stroke-linecap="butt" stroke-linejoin="round" stroke-dasharray="6 3" stroke-dashoffset="0"/>
  <path d="M 50 83.376 L 1230 83.376" fill="none" stroke-width="0.5" stroke="#000000" stroke-opacity="0.25882" stroke-linecap="butt" stroke-linejoin="round" stroke-dasharray="6 3" stroke-dashoffset="0"/>
  <path d="M 50 50.865 L 1230 50.865" fill="none" stroke-width="0.5" stroke="#000000" stroke-opacity="0.25882" stroke-linecap="butt" stroke-linejoin="round" stroke-dasharray="6 3" stroke-dashoffset="0"/>
  <path d="M 50 18.354 L 1230 18.354" fill="none" stroke-width="0.5" stroke="#000000" stroke-opacity="0.25882" stroke-linecap="butt" stroke-linejoin="round" stroke-dasharray="6 3" stroke-dashoffset="0"/>
  <path d="M 74 33 L 74 88 L 283 88 L 283 33 z" fill="#FFFFFF" fill-opacity="1.0" stroke="none"/>
  <clipPath id="clip-0">
    <path d="M 50 9 L 50 441 L 1230 441 L 1230 9 z"/>
  </clipPath>
  <g clip-path="url(#clip-0)">
    <path d="M 50 87.872L 109 107.67L 143.51 116.08L 168 120.26L 186.99 120.64L 202.51 120.58L 215.63 111.94L 227 114.97L 245.99 115.92L 261.51 114.69L 274.63 117.79L 286 113.31L 304.99 113.03L 320.51 113.78L 333.63 113.51L 345 114.32L 363.99 112.01L 379.51 112.82L 392.63 112.58L 404 110.54L 422.99 111.02L 438.51 109.1L 451.63 108.69L 463 109.67L 481.99 108.86L 497.51 107.58L 510.63 108.12L 522 107.03L 540.99 105.35L 556.51 104.71L 569.63 105.11L 581 103.98L 599.99 101.74L 615.51 101.18L 628.63 100.37L 640 98.03L 658.99 97.206L 674.51 98.721L 687.63 97.715L 699 96.905L 717.99 86.081L 733.51 96.283L 746.63 88.126L 758 90.796L 776.99 95.065L 792.51 91.488L 805.63 89.39L 817 88.495L 835.99 87.665L 851.51 85.423L 864.63 81.431L 876 82.887L 894.99 82.118L 910.51 86.328L 923.63 84.409L 935 80.325L 953.99 82.498L 969.51 75.924L 982.63 81.921L 994 82.15L 1013 77.534L 1028.5 80.292L 1041.6 78.075L 1053 82.168L 1072 77.199L 1087.5 77.399L 1100.6 74.387L 1112 76.778L 1131 75.081L 1146.5 76.488L 1159.6 77.142L 1171 75.597L 1190 75.564L 1205.5 73.891L 1218.6 73.109L 1230 71.533L 1230 74.169L 1218.6 74.341L 1205.5 75.838L 1190 75.895L 1171 75.948L 1159.6 78.57L 1146.5 78.325L 1131 77.444L 1112 80.328L 1100.6 79.008L 1087.5 78.905L 1072 81.098L 1053 82.73L 1041.6 84.05L 1028.5 80.955L 1013 83.195L 994 84.04L 982.63 86.571L 969.51 86.074L 953.99 85.391L 935 88.071L 923.63 87.679L 910.51 87.122L 894.99 85.469L 876 89.419L 864.63 87.062L 851.51 93.162L 835.99 88.902L 817 91.41L 805.63 91.3L 792.51 92.24L 776.99 95.23L 758 94.621L 746.63 96.239L 733.51 96.575L 717.99 98.845L 699 97.478L 687.63 98.4L 674.51 99.303L 658.99 98.319L 640 102.61L 628.63 102.6L 615.51 103.79L 599.99 103.78L 581 104.88L 569.63 105.83L 556.51 106.7L 540.99 107.32L 522 108.85L 510.63 108.2L 497.51 108.88L 481.99 109.27L 463 110.44L 451.63 113.28L 438.51 114.5L 422.99 111.5L 404 113.3L 392.63 113.14L 379.51 113.03L 363.99 112.73L 345 114.79L 333.63 114.76L 320.51 114.36L 304.99 114.16L 286 113.65L 274.63 118.03L 261.51 120.03L 245.99 116.4L 227 115.25L 215.63 113.35L 202.51 124.58L 186.99 122.58L 168 120.76L 143.51 118.59L 109 110.19L 50 88.892" fill="#007AFF" fill-opacity="0.30196078431372547" stroke="none"/>
    <path d="M 50 140.72L 109 174.79L 143.51 163.93L 168 168.34L 186.99 172.58L 202.51 180.52L 215.63 188.48L 227 193.89L 245.99 193.79L 261.51 202.27L 274.63 208.98L 286 215.04L 304.99 204.53L 320.51 208.27L 333.63 210.72L 345 227.43L 363.99 221.27L 379.51 233.21L 392.63 232.43L 404 236.56L 422.99 243.9L 438.51 254.55L 451.63 263.66L 463 270.93L 481.99 273.65L 497.51 272L 510.63 282.15L 522 287.61L 540.99 292.85L 556.51 289.96L 569.63 294.7L 581 300.64L 599.99 306.11L 615.51 302.97L 628.63 309.76L 640 312.8L 658.99 315.8L 674.51 311.79L 687.63 319.37L 699 321.85L 717.99 326.99L 733.51 320.77L 746.63 328.42L 758 329.72L 776.99 333.18L 792.51 326.63L 805.63 330.99L 817 319.5L 835.99 313.93L 851.51 320.29L 864.63 316.24L 876 288.62L 894.99 306.44L 910.51 275.94L 923.63 295.54L 935 304.59L 953.99 314.88L 969.51 312.02L 982.63 298.04L 994 271.66L 1013 266.2L 1028.5 279.83L 1041.6 283.94L 1053 289.81L 1072 282.08L 1087.5 275.42L 1100.6 285.18L 1112 270.53L 1131 282.5L 1146.5 291.17L 1159.6 295.24L 1171 288.04L 1190 282L 1205.5 285.47L 1218.6 287.74L 1230 279.66L 1230 293.73L 1218.6 303.68L 1205.5 303.64L 1190 288.4L 1171 294.46L 1159.6 296.66L 1146.5 294.11L 1131 296.23L 1112 292.05L 1100.6 300.53L 1087.5 293.7L 1072 296.03L 1053 291.13L 1041.6 308.61L 1028.5 309.75L 1013 302.68L 994 294.2L 982.63 311.48L 969.51 320.71L 953.99 324.79L 935 325.68L 923.63 323.78L 910.51 324.94L 894.99 325.97L 876 318.88L 864.63 334.91L 851.51 335.34L 835.99 330.11L 817 320.12L 805.63 331.97L 792.51 335.43L 776.99 333.67L 758 330.69L 746.63 328.77L 733.51 322.62L 717.99 328.59L 699 323.49L 687.63 320.6L 674.51 317.05L 658.99 319.48L 640 313.86L 628.63 310.28L 615.51 304.06L 599.99 308.48L 581 301.64L 569.63 298.34L 556.51 293.77L 540.99 294.94L 522 288.23L 510.63 284.44L 497.51 277.99L 481.99 275.19L 463 271.29L 451.63 263.73L 438.51 259.71L 422.99 250.74L 404 250.07L 392.63 242.52L 379.51 233.21L 363.99 225.99L 345 230.09L 333.63 225.14L 320.51 218.33L 304.99 205.82L 286 215.42L 274.63 209.36L 261.51 202.39L 245.99 193.98L 227 194.87L 215.63 188.48L 202.51 181.25L 186.99 172.82L 168 190.76L 143.51 164.95L 109 174.79L 50 142.62" fill="#FF3B30" fill-opacity="0.30196078431372547" stroke="none"/>
    <path d="M 50 88.623L 109 109.52L 143.51 117.92L 168 120.63L 186.99 122.06L 202.51 123.51L 215.63 112.98L 227 115.18L 245.99 116.27L 261.51 118.57L 274.63 117.97L 286 113.56L 304.99 113.86L 320.51 114.21L 333.63 114.43L 345 114.67L 363.99 112.54L 379.51 112.98L 392.63 113L 404 112.56L 422.99 111.38L 438.51 113.03L 451.63 112.03L 463 110.24L 481.99 109.16L 497.51 108.53L 510.63 108.18L 522 108.37L 540.99 106.8L 556.51 106.17L 569.63 105.64L 581 104.65L 599.99 103.24L 615.51 103.09L 628.63 102.01L 640 101.37L 658.99 98.026L 674.51 99.151L 687.63 98.22L 699 97.328L 717.99 95.162L 733.51 96.498L 746.63 93.981L 758 93.591L 776.99 95.187L 792.51 92.042L 805.63 90.793L 817 90.631L 835.99 88.576L 851.51 91.014L 864.63 85.525L 876 87.623L 894.99 84.57L 910.51 86.913L 923.63 86.803L 935 85.921L 953.99 84.618L 969.51 83.204L 982.63 85.311L 994 83.539L 1013 81.649L 1028.5 80.781L 1041.6 82.415L 1053 82.583L 1072 80.048L 1087.5 78.507L 1100.6 77.756L 1112 79.375L 1131 76.815L 1146.5 77.838L 1159.6 78.193L 1171 75.856L 1190 75.808L 1205.5 75.322L 1218.6 74.016L 1230 73.466" fill="none" stroke-width="4" stroke="#007AFF" stroke-opacity="1" stroke-linecap="round" stroke-linejoin="round"/>
    <path d="M 50 142.12L 109 174.79L 143.51 164.69L 168 183.8L 186.99 172.76L 202.51 181.06L 215.63 188.48L 227 194.61L 245.99 193.93L 261.51 202.36L 274.63 209.26L 286 215.32L 304.99 205.48L 320.51 215.49L 333.63 220.92L 345 229.38L 363.99 224.71L 379.51 233.21L 392.63 239.67L 404 246.15L 422.99 248.86L 438.51 258.31L 451.63 263.71L 463 271.2L 481.99 274.78L 497.51 276.35L 510.63 283.83L 522 288.06L 540.99 294.38L 556.51 292.75L 569.63 297.36L 581 301.38L 599.99 307.85L 615.51 303.77L 628.63 310.14L 640 313.58L 658.99 318.49L 674.51 315.62L 687.63 320.28L 699 323.06L 717.99 328.17L 733.51 322.13L 746.63 328.68L 758 330.44L 776.99 333.54L 792.51 332.97L 805.63 331.72L 817 319.96L 835.99 325.31L 851.51 330.92L 864.63 329.28L 876 308.92L 894.99 320.04L 910.51 306.51L 923.63 314.62L 935 319.19L 953.99 321.99L 969.51 318.28L 982.63 307.58L 994 287.2L 1013 290.11L 1028.5 299.92L 1041.6 300.82L 1053 290.78L 1072 291.97L 1087.5 288.2L 1100.6 296.01L 1112 285.41L 1131 292.24L 1146.5 293.32L 1159.6 296.29L 1171 292.7L 1190 286.64L 1205.5 298.17L 1218.6 298.97L 1230 289.63" fill="none" stroke-width="4" stroke="#FF3B30" stroke-opacity="1" stroke-linecap="round" stroke-linejoin="round"/>
    <path d="M 50 88.623L 109 109.52L 143.51 117.92L 168 120.63L 186.99 122.06L 202.51 123.51L 215.63 112.98L 227 115.18L 245.99 116.27L 261.51 118.57L 274.63 117.97L 286 113.56L 304.99 113.86L 320.51 114.21L 333.63 114.43L 345 114.67L 363.99 112.54L 379.51 112.98L 392.63 113L 404 112.56L 422.99 111.38L 438.51 113.03L 451.63 112.03L 463 110.24L 481.99 109.16L 497.51 108.53L 510.63 108.18L 522 108.37L 540.99 106.8L 556.51 106.17L 569.63 105.64L 581 104.65L 599.99 103.24L 615.51 103.09L 628.63 102.01L 640 101.37L 658.99 98.026L 674.51 99.151L 687.63 98.22L 699 97.328L 717.99 95.162L 733.51 96.498L 746.63 93.981L 758 93.591L 776.99 95.187L 792.51 92.042L 805.63 90.793L 817 90.631L 835.99 88.576L 851.51 91.014L 864.63 85.525L 876 87.623L 894.99 84.57L 910.51 86.913L 923.63 86.803L 935 85.921L 953.99 84.618L 969.51 83.204L 982.63 85.311L 994 83.539L 1013 81.649L 1028.5 80.781L 1041.6 82.415L 1053 82.583L 1072 80.048L 1087.5 78.507L 1100.6 77.756L 1112 79.375L 1131 76.815L 1146.5 77.838L 1159.6 78.193L 1171 75.856L 1190 75.808L 1205.5 75.322L 1218.6 74.016L 1230 73.466" fill="none" stroke-width="0.5" stroke="#000000" stroke-opacity="0.30196" stroke-linecap="round" stroke-linejoin="round"/>
    <path d="M 50 142.12L 109 174.79L 143.51 164.69L 168 183.8L 186.99 172.76L 202.51 181.06L 215.63 188.48L 227 194.61L 245.99 193.93L 261.51 202.36L 274.63 209.26L 286 215.32L 304.99 205.48L 320.51 215.49L 333.63 220.92L 345 229.38L 363.99 224.71L 379.51 233.21L 392.63 239.67L 404 246.15L 422.99 248.86L 438.51 258.31L 451.63 263.71L 463 271.2L 481.99 274.78L 497.51 276.35L 510.63 283.83L 522 288.06L 540.99 294.38L 556.51 292.75L 569.63 297.36L 581 301.38L 599.99 307.85L 615.51 303.77L 628.63 310.14L 640 313.58L 658.99 318.49L 674.51 315.62L 687.63 320.28L 699 323.06L 717.99 328.17L 733.51 322.13L 746.63 328.68L 758 330.44L 776.99 333.54L 792.51 332.97L 805.63 331.72L 817 319.96L 835.99 325.31L 851.51 330.92L 864.63 329.28L 876 308.92L 894.99 320.04L 910.51 306.51L 923.63 314.62L 935 319.19L 953.99 321.99L 969.51 318.28L 982.63 307.58L 994 287.2L 1013 290.11L 1028.5 299.92L 1041.6 300.82L 1053 290.78L 1072 291.97L 1087.5 288.2L 1100.6 296.01L 1112 285.41L 1131 292.24L 1146.5 293.32L 1159.6 296.29L 1171 292.7L 1190 286.64L 1205.5 298.17L 1218.6 298.97L 1230 289.63" fill="none" stroke-width="0.5" stroke="#000000" stroke-opacity="0.30196" stroke-linecap="round" stroke-linejoin="round"/>
  </g>
  <path d="M 74 33 L 74 88 L 283 88 L 283 33 z" fill="#FFFFFF" fill-opacity="0.7019607843137254" stroke-width="0.5" stroke="#000000" stroke-opacity="1" stroke-linecap="round" stroke-linejoin="round"/>
  <path d="M 88 52 L 108 52" fill="none" stroke-width="4" stroke="#FF3B30" stroke-opacity="1" stroke-linecap="round" stroke-linejoin="round"/>
  <path d="M 88 52 L 108 52" fill="none" stroke-width="0.5" stroke="#000000" stroke-opacity="0.30196" stroke-linecap="round" stroke-linejoin="round"/>
  <text x="119" y="56.17" font-family="Menlo" font-size="12" font-weight="normal" font-style="normal" fill="#000000" fill-opacity="1">Array&lt;Int&gt; append</text>
  <path d="M 88 69 L 108 69" fill="none" stroke-width="4" stroke="#007AFF" stroke-opacity="1" stroke-linecap="round" stroke-linejoin="round"/>
  <path d="M 88 69 L 108 69" fill="none" stroke-width="0.5" stroke="#000000" stroke-opacity="0.30196" stroke-linecap="round" stroke-linejoin="round"/>
  <text x="119" y="73.17" font-family="Menlo" font-size="12" font-weight="normal" font-style="normal" fill="#000000" fill-opacity="1">TreeArray&lt;Int&gt; append</text>
  <path d="M 50 9 L 50 441 L 1230 441 L 1230 9 z" fill="none" stroke-width="0.5" stroke="#000000" stroke-opacity="1" stroke-linecap="round" stroke-linejoin="round"/>
</svg>
