<!DOCTYPE svg PUBLIC "-//W3C//DTD SVG 1.1//EN" "http://www.w3.org/Graphics/SVG/1.1/DTD/svg11.dtd">
<svg width="1280.0px" height="480.0px" viewBox="0.0 0.0 1280.0 480.0" xmlns="http://www.w3.org/2000/svg" xmlns:xlink="http://www.w3.org/1999/xlink" version="1.1">
  <path d="M 0 0 L 0 480 L 1280 480 L 1280 0 z" fill="#FFFFFF" fill-opacity="1.0" stroke="none"/>
  <text x="50" y="468.7" font-family="Helvetica" font-size="10" font-weight="normal" font-style="normal" fill="#000000" fill-opacity="1">Average per-element processing time over input size (bands: min, mean, mean + 2stddev)</text>
  <a xlink:href="https://github.com/apple/swift-collections-benchmark"><text x="1107" y="468.7" font-family="Helvetica" font-size="10" font-weight="normal" font-style="normal" fill="#000000" fill-opacity="1">swift-collections-benchmark</text></a>
  <path d="M 50 9 L 50 441" fill="none" stroke-width="0.75" stroke="#000000" stroke-opacity="0.49804" stroke-linecap="butt" stroke-linejoin="round"/>
  <text x="47" y="453.7" font-family="Helvetica" font-size="10" font-weight="normal" font-style="normal" fill="#000000" fill-opacity="1">1</text>
  <path d="M 109 9 L 109 441" fill="none" stroke-width="0.75" stroke="#000000" stroke-opacity="0.49804" stroke-linecap="butt" stroke-linejoin="round"/>
  <text x="106" y="453.7" font-family="Helvetica" font-size="10" font-weight="normal" font-style="normal" fill="#000000" fill-opacity="1">2</text>
  <path d="M 168 9 L 168 441" fill="none" stroke-width="0.75" stroke="#000000" stroke-opacity="0.49804" stroke-linecap="butt" stroke-linejoin="round"/>
  <text x="165" y="453.7" font-family="Helvetica" font-size="10" font-weight="normal" font-style="normal" fill="#000000" fill-opacity="1">4</text>
  <path d="M 227 9 L 227 441" fill="none" stroke-width="0.75" stroke="#000000" stroke-opacity="0.49804" stroke-linecap="butt" stroke-linejoin="round"/>
  <text x="224" y="453.7" font-family="Helvetica" font-size="10" font-weight="normal" font-style="normal" fill="#000000" fill-opacity="1">8</text>
  <path d="M 286 9 L 286 441" fill="none" stroke-width="0.75" stroke="#000000" stroke-opacity="0.49804" stroke-linecap="butt" stroke-linejoin="round"/>
  <text x="280" y="453.7" font-family="Helvetica" font-size="10" font-weight="normal" font-style="normal" fill="#000000" fill-opacity="1">16</text>
  <path d="M 345 9 L 345 441" fill="none" stroke-width="0.75" stroke="#000000" stroke-opacity="0.49804" stroke-linecap="butt" stroke-linejoin="round"/>
  <text x="339" y="453.7" font-family="Helvetica" font-size="10" font-weight="normal" font-style="normal" fill="#000000" fill-opacity="1">32</text>
  <path d="M 404 9 L 404 441" fill="none" stroke-width="0.75" stroke="#000000" stroke-opacity="0.49804" stroke-linecap="butt" stroke-linejoin="round"/>
  <text x="398" y="453.7" font-family="Helvetica" font-size="10" font-weight="normal" font-style="normal" fill="#000000" fill-opacity="1">64</text>
  <path d="M 463 9 L 463 441" fill="none" stroke-width="0.75" stroke="#000000" stroke-opacity="0.49804" stroke-linecap="butt" stroke-linejoin="round"/>
  <text x="454.5" y="453.7" font-family="Helvetica" font-size="10" font-weight="normal" font-style="normal" fill="#000000" fill-opacity="1">128</text>
  <path d="M 522 9 L 522 441" fill="none" stroke-width="0.75" stroke="#000000" stroke-opacity="0.49804" stroke-linecap="butt" stroke-linejoin="round"/>
  <text x="513.5" y="453.7" font-family="Helvetica" font-size="10" font-weight="normal" font-style="normal" fill="#000000" fill-opacity="1">256</text>
  <path d="M 581 9 L 581 441" fill="none" stroke-width="0.75" stroke="#000000" stroke-opacity="0.49804" stroke-linecap="butt" stroke-linejoin="round"/>
  <text x="572.5" y="453.7" font-family="Helvetica" font-size="10" font-weight="normal" font-style="normal" fill="#000000" fill-opacity="1">512</text>
  <path d="M 640 9 L 640 441" fill="none" stroke-width="0.75" stroke="#000000" stroke-opacity="0.49804" stroke-linecap="butt" stroke-linejoin="round"/>
  <text x="634.5" y="453.7" font-family="Helvetica" font-size="10" font-weight="normal" font-style="normal" fill="#000000" fill-opacity="1">1k</text>
  <path d="M 699 9 L 699 441" fill="none" stroke-width="0.75" stroke="#000000" stroke-opacity="0.49804" stroke-linecap="butt" stroke-linejoin="round"/>
  <text x="693.5" y="453.7" font-family="Helvetica" font-size="10" font-weight="normal" font-style="normal" fill="#000000" fill-opacity="1">2k</text>
  <path d="M 758 9 L 758 441" fill="none" stroke-width="0.75" stroke="#000000" stroke-opacity="0.49804" stroke-linecap="butt" stroke-linejoin="round"/>
  <text x="752.5" y="453.7" font-family="Helvetica" font-size="10" font-weight="normal" font-style="normal" fill="#000000" fill-opacity="1">4k</text>
  <path d="M 817 9 L 817 441" fill="none" stroke-width="0.75" stroke="#000000" stroke-opacity="0.49804" stroke-linecap="butt" stroke-linejoin="round"/>
  <text x="811.5" y="453.7" font-family="Helvetica" font-size="10" font-weight="normal" font-style="normal" fill="#000000" fill-opacity="1">8k</text>
  <path d="M 876 9 L 876 441" fill="none" stroke-width="0.75" stroke="#000000" stroke-opacity="0.49804" stroke-linecap="butt" stroke-linejoin="round"/>
  <text x="867.5" y="453.7" font-family="Helvetica" font-size="10" font-weight="normal" font-style="normal" fill="#000000" fill-opacity="1">16k</text>
  <path d="M 935 9 L 935 441" fill="none" stroke-width="0.75" stroke="#000000" stroke-opacity="0.49804" stroke-linecap="butt" stroke-linejoin="round"/>
  <text x="926.5" y="453.7" font-family="Helvetica" font-size="10" font-weight="normal" font-style="normal" fill="#000000" fill-opacity="1">32k</text>
  <path d="M 994 9 L 994 441" fill="none" stroke-width="0.75" stroke="#000000" stroke-opacity="0.49804" stroke-linecap="butt" stroke-linejoin="round"/>
  <text x="985.5" y="453.7" font-family="Helvetica" font-size="10" font-weight="normal" font-style="normal" fill="#000000" fill-opacity="1">64k</text>
  <path d="M 1053 9 L 1053 441" fill="none" stroke-width="0.75" stroke="#000000" stroke-opacity="0.49804" stroke-linecap="butt" stroke-linejoin="round"/>
  <text x="1042" y="453.7" font-family="Helvetica" font-size="10" font-weight="normal" font-style="normal" fill="#000000" fill-opacity="1">128k</text>
  <path d="M 1112 9 L 1112 441" fill="none" stroke-width="0.75" stroke="#000000" stroke-opacity="0.49804" stroke-linecap="butt" stroke-linejoin="round"/>
  <text x="1101" y="453.7" font-family="Helvetica" font-size="10" font-weight="normal" font-style="normal" fill="#000000" fill-opacity="1">256k</text>
  <path d="M 1171 9 L 1171 441" fill="none" stroke-width="0.75" stroke="#000000" stroke-opacity="0.49804" stroke-linecap="butt" stroke-linejoin="round"/>
  <text x="1160" y="453.7" font-family="Helvetica" font-size="10" font-weight="normal" font-style="normal" fill="#000000" fill-opacity="1">512k</text>
  <path d="M 1230 9 L 1230 441" fill="none" stroke-width="0.75" stroke="#000000" stroke-opacity="0.49804" stroke-linecap="butt" stroke-linejoin="round"/>
  <text x="1223" y="453.7" font-family="Helvetica" font-size="10" font-weight="normal" font-style="normal" fill="#000000" fill-opacity="1">1M</text>
  <path d="M 50 441 L 1230 441" fill="none" stroke-width="0.75" stroke="#000000" stroke-opacity="0.49804" stroke-linecap="butt" stroke-linejoin="round"/>
  <text x="16" y="442.7" font-family="Helvetica" font-size="10" font-weight="normal" font-style="normal" fill="#000000" fill-opacity="1">100 ps</text>
  <text x="1236" y="442.7" font-family="Helvetica" font-size="10" font-weight="normal" font-style="normal" fill="#000000" fill-opacity="1">100 ps</text>
  <path d="M 50 333 L 1230 333" fill="none" stroke-width="0.75" stroke="#000000" stroke-opacity="0.49804" stroke-linecap="butt" stroke-linejoin="round"/>
  <text x="27" y="334.7" font-family="Helvetica" font-size="10" font-weight="normal" font-style="normal" fill="#000000" fill-opacity="1">1 ns</text>
  <text x="1236" y="334.7" font-family="Helvetica" font-size="10" font-weight="normal" font-style="normal" fill="#000000" fill-opacity="1">1 ns</text>
  <path d="M 50 225 L 1230 225" fill="none" stroke-width="0.75" stroke="#000000" stroke-opacity="0.49804" stroke-linecap="butt" stroke-linejoin="round"/>
  <text x="21" y="226.7" font-family="Helvetica" font-size="10" font-weight="normal" font-style="normal" fill="#000000" fill-opacity="1">10 ns</text>
  <text x="1236" y="226.7" font-family="Helvetica" font-size="10" font-weight="normal" font-style="normal" fill="#000000" fill-opacity="1">10 ns</text>
  <path d="M 50 117 L 1230 117" fill="none" stroke-width="0.75" stroke="#000000" stroke-opacity="0.49804" stroke-linecap="butt" stroke-linejoin="round"/>
  <text x="16" y="118.7" font-family="Helvetica" font-size="10" font-weight="normal" font-style="normal" fill="#000000" fill-opacity="1">100 ns</text>
  <text x="1236" y="118.7" font-family="Helvetica" font-size="10" font-weight="normal" font-style="normal" fill="#000000" fill-opacity="1">100 ns</text>
  <path d="M 50 9 L 1230 9" fill="none" stroke-width="0.75" stroke="#000000" stroke-opacity="0.49804" stroke-linecap="butt" stroke-linejoin="round"/>
  <text x="26" y="10.7" font-family="Helvetica" font-size="10" font-weight="normal" font-style="normal" fill="#000000" fill-opacity="1">1 µs</text>
  <text x="1236" y="10.7" font-family="Helvetica" font-size="10" font-weight="normal" font-style="normal" fill="#000000" fill-opacity="1">1 µs</text>
  <path d="M 50 408.49 L 1230 408.49" fill="none" stroke-width="0.5" stroke="#000000" stroke-opacity="0.25882" stroke-linecap="butt" stroke-linejoin="round" stroke-dasharray="6 3" stroke-dashoffset="0"/>
  <path d="M 50 375.98 L 1230 375.98" fill="none" stroke-width="0.5" stroke="#000000" stroke-opacity="0.25882" stroke-linecap="butt" stroke-linejoin="round" stroke-dasharray="6 3" stroke-dashoffset="0"/>
  <path d="M 50 343.47 L 1230 343.47" fill="none" stroke-width="0.5" stroke="#000000" stroke-opacity="0.25882" stroke-linecap="butt" stroke-linejoin="round" stroke-dasharray="6 3" stroke-dashoffset="0"/>
  <path d="M 50 310.96 L 1230 310.96" fill="none" stroke-width="0.5" stroke="#000000" stroke-opacity="0.25882" stroke-linecap="butt" stroke-linejoin="round" stroke-dasharray="6 3" stroke-dashoffset="0"/>
  <path d="M 50 278.44 L 1230 278.44" fill="none" stroke-width="0.5" stroke="#000000" stroke-opacity="0.25882" stroke-linecap="butt" stroke-linejoin="round" stroke-dasharray="6 3" stroke-dashoffset="0"/>
  <path d="M 50 245.93 L 1230 245.93" fill="none" stroke-width="0.5" stroke="#000000" stroke-opacity="0.25882" stroke-linecap="butt" stroke-linejoin="round" stroke-dasharray="6 3" stroke-dashoffset="0"/>
  <path d="M 50 213.42 L 1230 213.42" fill="none" stroke-width="0.5" stroke="#000000" stroke-opacity="0.25882" stroke-linecap="butt" stroke-linejoin="round" stroke-dasharray="6 3" stroke-dashoffset="0"/>
  <path d="M 50 180.91 L 1230 180.91" fill="none" stroke-width="0.5" stroke="#000000" stroke-opacity="0.25882" stroke-linecap="butt" stroke-linejoin="round" stroke-dasharray="6 3" stroke-dashoffset="0"/>
  <path d="M 50 148.4 L 1230 148.4" fill="none" stroke-width="0.5" stroke="#000000" stroke-opacity="0.25882" stroke-linecap="butt" stroke-linejoin="round" stroke-dasharray="6 3" stroke-dashoffset="0"/>
  <path d="M 50 115.89 L 1230 115.89" fill="none" stroke-width="0.5" stroke="#000000" stroke-opacity="0.25882" stroke-linecap="butt" stroke-linejoin="round" stroke-dasharray="6 3" stroke-dashoffset="0"/>
  <path d="M 50 83.376 L 1230 83.376" fill="none" stroke-width="0.5" stroke="#000000" stroke-opacity="0.25882" stroke-linecap="butt" stroke-linejoin="round" stroke-dasharray="6 3" stroke-dashoffset="0"/>
  <path d="M 50 50.865 L 1230 50.865" fill="none" stroke-width="0.5" stroke="#000000" stroke-opacity="0.25882" stroke-linecap="butt" stroke-linejoin="round" stroke-dasharray="6 3" stroke-dashoffset="0"/>
  <path d="M 50 18.354 L 1230 18.354" fill="none" stroke-width="0.5" stroke="#000000" stroke-opacity="0.25882" stroke-linecap="butt" stroke-linejoin="round" stroke-dasharray="6 3" stroke-dashoffset="0"/>
  <path d="M 74 33 L 74 105 L 283 105 L 283 33 z" fill="#FFFFFF" fill-opacity="1.0" stroke="none"/>
  <clipPath id="clip-0">
    <path d="M 50 9 L 50 441 L 1230 441 L 1230 9 z"/>
  </clipPath>
  <g clip-path="url(#clip-0)">
    <path d="M 50 120.7L 109 129.22L 143.51 147.11L 168 143.55L 186.99 153.01L 202.51 149.2L 215.63 156.03L 227 161.72L 245.99 162.54L 261.51 170.18L 274.63 176.57L 286 175.1L 304.99 184.31L 320.51 182.81L 333.63 188.18L 345 194.75L 363.99 196.16L 379.51 202.39L 392.63 201.81L 404 197.66L 422.99 216.09L 438.51 218.42L 451.63 224.71L 463 223.61L 481.99 231.28L 497.51 233.97L 510.63 239.3L 522 244.09L 540.99 246.71L 556.51 251.14L 569.63 254.51L 581 256.3L 599.99 261.56L 615.51 264.08L 628.63 266.67L 640 269.8L 658.99 270.38L 674.51 274.95L 687.63 275.06L 699 277.2L 717.99 279.91L 733.51 279.58L 746.63 282.13L 758 280.95L 776.99 282.3L 792.51 283.23L 805.63 285.57L 817 274.3L 835.99 286.96L 851.51 285.91L 864.63 224.01L 876 272.44L 894.99 274.17L 910.51 257.93L 923.63 239.79L 935 250.5L 953.99 287.73L 969.51 246.5L 982.63 284.56L 994 256.24L 1013 247.7L 1028.5 249.62L 1041.6 250.61L 1053 263.99L 1072 268.49L 1087.5 252.35L 1100.6 259.25L 1112 266.45L 1131 260.24L 1146.5 262.07L 1159.6 257.8L 1171 259.81L 1190 258.4L 1205.5 265.96L 1218.6 256.62L 1230 269.04L 1230 269.26L 1218.6 267.67L 1205.5 268.37L 1190 263.62L 1171 271.13L 1159.6 263.02L 1146.5 263.24L 1131 270.25L 1112 267.5L 1100.6 279.48L 1087.5 277.58L 1072 279.27L 1053 272.47L 1041.6 272.35L 1028.5 274.26L 1013 269.48L 994 290.17L 982.63 288.53L 969.51 287.71L 953.99 289.43L 935 287.83L 923.63 289.46L 910.51 288.75L 894.99 287.22L 876 288.71L 864.63 287.19L 851.51 285.98L 835.99 287.55L 817 284.69L 805.63 286.81L 792.51 285.15L 776.99 284.01L 758 281.06L 746.63 283.15L 733.51 281.02L 717.99 280.83L 699 277.52L 687.63 275.37L 674.51 275.18L 658.99 271.64L 640 270.46L 628.63 267.43L 615.51 264.17L 599.99 262.66L 581 257.06L 569.63 258.19L 556.51 253.16L 540.99 247.04L 522 244.18L 510.63 239.33L 497.51 234.78L 481.99 233.03L 463 225.52L 451.63 224.88L 438.51 218.86L 422.99 216.5L 404 208.68L 392.63 203.01L 379.51 204.35L 363.99 196.41L 345 194.87L 333.63 190.52L 320.51 182.88L 304.99 184.9L 286 175.43L 274.63 177.05L 261.51 170.47L 245.99 162.54L 227 161.85L 215.63 156.03L 202.51 149.45L 186.99 153.17L 168 143.56L 143.51 147.35L 109 129.46L 50 126.74" fill="#28CD41" fill-opacity="0.30196078431372547" stroke="none"/>
    <path d="M 50 90.316L 109 107.42L 143.51 115.1L 168 117.89L 186.99 119.2L 202.51 117.79L 215.63 119.3L 227 104.17L 245.99 108.72L 261.51 108.79L 274.63 107.37L 286 109.48L 304.99 100.72L 320.51 100.09L 333.63 102.56L 345 103.35L 363.99 104.69L 379.51 95.425L 392.63 94.053L 404 99.266L 422.99 98.226L 438.51 89.953L 451.63 94.489L 463 94.082L 481.99 96.794L 497.51 97.657L 510.63 89.312L 522 93.121L 540.99 93.045L 556.51 94.778L 569.63 87.206L 581 88.597L 599.99 90.662L 615.51 89.9L 628.63 92.727L 640 92.391L 658.99 91.585L 674.51 85.754L 687.63 86.307L 699 86.842L 717.99 89.241L 733.51 83.161L 746.63 78.114L 758 79.381L 776.99 83.409L 792.51 78.978L 805.63 84.202L 817 80.594L 835.99 76.161L 851.51 80.191L 864.63 75.916L 876 75.508L 894.99 77.43L 910.51 77.616L 923.63 78.176L 935 73.056L 953.99 76.153L 969.51 77.14L 982.63 74.94L 994 72.311L 1013 73.601L 1028.5 67.179L 1041.6 72.96L 1053 67.382L 1072 71.999L 1087.5 72.069L 1100.6 74.567L 1112 66.912L 1131 70.958L 1146.5 68.126L 1159.6 70.006L 1171 65.766L 1190 67.067L 1205.5 67.619L 1218.6 69.812L 1230 61.019L 1230 66.795L 1218.6 71.772L 1205.5 68.658L 1190 69.116L 1171 66.794L 1159.6 71.643L 1146.5 71.038L 1131 71.072L 1112 69.542L 1100.6 75.384L 1087.5 74.034L 1072 74.32L 1053 71.674L 1041.6 76.07L 1028.5 77.561L 1013 75.51L 994 73.093L 982.63 78.989L 969.51 79.267L 953.99 77.474L 935 75.433L 923.63 81.471L 910.51 80.294L 894.99 80.157L 876 78.395L 864.63 84.616L 851.51 82.807L 835.99 82.089L 817 81.448L 805.63 86.61L 792.51 87.774L 776.99 85.605L 758 84.816L 746.63 83.828L 733.51 90.395L 717.99 89.405L 699 90.796L 687.63 88.724L 674.51 88.069L 658.99 94.115L 640 94.462L 628.63 93.912L 615.51 94.482L 599.99 91.313L 581 91.111L 569.63 89.194L 556.51 94.838L 540.99 94.307L 522 93.135L 510.63 92.107L 497.51 98.541L 481.99 97.093L 463 95.521L 451.63 94.974L 438.51 96.986L 422.99 100.64L 404 99.41L 392.63 102.52L 379.51 99.863L 363.99 105.1L 345 103.68L 333.63 103.22L 320.51 104.62L 304.99 101.48L 286 110.62L 274.63 112.47L 261.51 108.82L 245.99 109.76L 227 105.51L 215.63 120.96L 202.51 121.77L 186.99 119.2L 168 117.99L 143.51 115.34L 109 109.6L 50 90.53" fill="#007AFF" fill-opacity="0.30196078431372547" stroke="none"/>
    <path d="M 50 139.49L 109 174.79L 143.51 164.43L 168 176.71L 186.99 165.33L 202.51 178.5L 215.63 187.75L 227 193.29L 245.99 193.11L 261.51 201.76L 274.63 208.61L 286 214.94L 304.99 202.75L 320.51 211.4L 333.63 215.01L 345 224.92L 363.99 221.1L 379.51 230.6L 392.63 238.24L 404 237.68L 422.99 245.57L 438.51 249.51L 451.63 256.8L 463 260.31L 481.99 273.72L 497.51 273.43L 510.63 281.04L 522 286.9L 540.99 290.99L 556.51 286.71L 569.63 296.86L 581 298.62L 599.99 306.09L 615.51 301.68L 628.63 308.34L 640 311.22L 658.99 317.68L 674.51 313.06L 687.63 318.58L 699 322.45L 717.99 326.84L 733.51 320.63L 746.63 327.95L 758 329.85L 776.99 332.75L 792.51 331.76L 805.63 329.52L 817 315.2L 835.99 305.49L 851.51 329.39L 864.63 314.48L 876 272.03L 894.99 298.09L 910.51 277.65L 923.63 270.7L 935 318.33L 953.99 303.3L 969.51 294.2L 982.63 326.54L 994 293.74L 1013 299.66L 1028.5 286.43L 1041.6 307.48L 1053 281.7L 1072 295.05L 1087.5 295.6L 1100.6 291.26L 1112 272.87L 1131 279.18L 1146.5 290.65L 1159.6 288.44L 1171 280.99L 1190 284.73L 1205.5 279.75L 1218.6 283.7L 1230 281.98L 1230 291.13L 1218.6 296.8L 1205.5 294.03L 1190 288.02L 1171 292L 1159.6 297.06L 1146.5 296.11L 1131 293.79L 1112 288.7L 1100.6 296.45L 1087.5 299.66L 1072 295.88L 1053 296.27L 1041.6 311.59L 1028.5 324.88L 1013 306.28L 994 303.72L 982.63 332.25L 969.51 326.09L 953.99 329.89L 935 320.16L 923.63 331.04L 910.51 321.92L 894.99 326.13L 876 318.05L 864.63 337.38L 851.51 336.19L 835.99 332.26L 817 320.42L 805.63 335.65L 792.51 334.78L 776.99 333.33L 758 330.36L 746.63 328.94L 733.51 323.77L 717.99 327.31L 699 322.89L 687.63 319.98L 674.51 318.37L 658.99 319.51L 640 314.63L 628.63 310.52L 615.51 306.54L 599.99 306.68L 581 300.6L 569.63 297.95L 556.51 292.21L 540.99 291.13L 522 289.03L 510.63 283.18L 497.51 274.7L 481.99 275.26L 463 270.68L 451.63 264.82L 438.51 257.59L 422.99 247.04L 404 245.32L 392.63 239.72L 379.51 231.6L 363.99 227.15L 345 225.86L 333.63 226.53L 320.51 213.06L 304.99 205.02L 286 215.32L 274.63 209.56L 261.51 202.33L 245.99 193.88L 227 194.74L 215.63 188.48L 202.51 180.86L 186.99 182.02L 168 177.73L 143.51 164.78L 109 174.79L 50 142.62" fill="#FF3B30" fill-opacity="0.30196078431372547" stroke="none"/>
    <path d="M 50 125.09L 109 129.4L 143.51 147.29L 168 143.55L 186.99 153.13L 202.51 149.38L 215.63 156.03L 227 161.81L 245.99 162.54L 261.51 170.4L 274.63 176.92L 286 175.34L 304.99 184.75L 320.51 182.86L 333.63 189.9L 345 194.84L 363.99 196.34L 379.51 203.83L 392.63 202.69L 404 205.55L 422.99 216.39L 438.51 218.75L 451.63 224.83L 463 225.02L 481.99 232.57L 497.51 234.56L 510.63 239.32L 522 244.16L 540.99 246.96L 556.51 252.62L 569.63 257.2L 581 256.86L 599.99 262.37L 615.51 264.14L 628.63 267.23L 640 270.28L 658.99 271.31L 674.51 275.12L 687.63 275.29L 699 277.43L 717.99 280.59L 733.51 280.64L 746.63 282.88L 758 281.03L 776.99 283.55L 792.51 284.64L 805.63 286.49L 817 281.75L 835.99 287.4L 851.51 285.96L 864.63 261.12L 876 283.88L 894.99 283.45L 910.51 278.56L 923.63 270.69L 935 274.89L 953.99 288.98L 969.51 273.03L 982.63 287.46L 994 278.69L 1013 262.75L 1028.5 266.48L 1041.6 265.63L 1053 270.1L 1072 276.21L 1087.5 269.58L 1100.6 273.3L 1112 267.22L 1131 267.42L 1146.5 262.93L 1159.6 261.6L 1171 267.9L 1190 262.2L 1205.5 267.72L 1218.6 264.52L 1230 269.2" fill="none" stroke-width="4" stroke="#28CD41" stroke-opacity="1" stroke-linecap="round" stroke-linejoin="round"/>
    <path d="M 50 90.474L 109 109.02L 143.51 115.27L 168 117.96L 186.99 119.2L 202.51 120.7L 215.63 120.52L 227 105.16L 245.99 109.48L 261.51 108.81L 274.63 111.08L 286 110.32L 304.99 101.28L 320.51 103.39L 333.63 103.05L 345 103.59L 363.99 104.99L 379.51 98.663L 392.63 100.16L 404 99.373L 422.99 100L 438.51 95.045L 451.63 94.847L 463 95.141L 481.99 97.015L 497.51 98.308L 510.63 91.36L 522 93.131L 540.99 93.974L 556.51 94.822L 569.63 88.667L 581 90.441L 599.99 91.142L 615.51 93.241L 628.63 93.6L 640 93.912L 658.99 93.441L 674.51 87.453L 687.63 88.08L 699 89.731L 717.99 89.362L 733.51 88.395L 746.63 82.267L 758 83.335L 776.99 85.021L 792.51 85.313L 805.63 85.969L 817 81.224L 835.99 80.467L 851.51 82.11L 864.63 82.183L 876 77.624L 894.99 79.429L 910.51 79.579L 923.63 80.588L 935 74.8L 953.99 77.125L 969.51 78.702L 982.63 77.897L 994 72.887L 1013 75.004L 1028.5 74.619L 1041.6 75.238L 1053 70.514L 1072 73.703L 1087.5 73.513L 1100.6 75.17L 1112 68.841L 1131 71.042L 1146.5 70.259L 1159.6 71.21L 1171 66.523L 1190 68.572L 1205.5 68.384L 1218.6 71.252L 1230 65.216" fill="none" stroke-width="4" stroke="#007AFF" stroke-opacity="1" stroke-linecap="round" stroke-linejoin="round"/>
    <path d="M 50 141.78L 109 174.79L 143.51 164.69L 168 177.46L 186.99 177.06L 202.51 180.23L 215.63 188.29L 227 194.36L 245.99 193.68L 261.51 202.18L 274.63 209.31L 286 215.22L 304.99 204.41L 320.51 212.62L 333.63 223.24L 345 225.62L 363.99 225.49L 379.51 231.34L 392.63 239.33L 404 243.2L 422.99 246.66L 438.51 255.34L 451.63 262.59L 463 267.74L 481.99 274.86L 497.51 274.37L 510.63 282.61L 522 288.46L 540.99 291.1L 556.51 290.71L 569.63 297.66L 581 300.07L 599.99 306.53L 615.51 305.22L 628.63 309.94L 640 313.71L 658.99 319.02L 674.51 316.92L 687.63 319.61L 699 322.77L 717.99 327.19L 733.51 322.93L 746.63 328.68L 758 330.23L 776.99 333.18L 792.51 333.97L 805.63 333.97L 817 319L 835.99 323.66L 851.51 334.31L 864.63 330.24L 876 301.09L 894.99 317.05L 910.51 305.8L 923.63 306.58L 935 319.68L 953.99 321.37L 969.51 315.46L 982.63 330.69L 994 300.9L 1013 304.46L 1028.5 311.44L 1041.6 310.48L 1053 292.01L 1072 295.66L 1087.5 298.57L 1100.6 295.04L 1112 284.03L 1131 289.52L 1146.5 294.62L 1159.6 294.65L 1171 288.87L 1190 287.14L 1205.5 289.86L 1218.6 293.01L 1230 288.56" fill="none" stroke-width="4" stroke="#FF3B30" stroke-opacity="1" stroke-linecap="round" stroke-linejoin="round"/>
    <path d="M 50 125.09L 109 129.4L 143.51 147.29L 168 143.55L 186.99 153.13L 202.51 149.38L 215.63 156.03L 227 161.81L 245.99 162.54L 261.51 170.4L 274.63 176.92L 286 175.34L 304.99 184.75L 320.51 182.86L 333.63 189.9L 345 194.84L 363.99 196.34L 379.51 203.83L 392.63 202.69L 404 205.55L 422.99 216.39L 438.51 218.75L 451.63 224.83L 463 225.02L 481.99 232.57L 497.51 234.56L 510.63 239.32L 522 244.16L 540.99 246.96L 556.51 252.62L 569.63 257.2L 581 256.86L 599.99 262.37L 615.51 264.14L 628.63 267.23L 640 270.28L 658.99 271.31L 674.51 275.12L 687.63 275.29L 699 277.43L 717.99 280.59L 733.51 280.64L 746.63 282.88L 758 281.03L 776.99 283.55L 792.51 284.64L 805.63 286.49L 817 281.75L 835.99 287.4L 851.51 285.96L 864.63 261.12L 876 283.88L 894.99 283.45L 910.51 278.56L 923.63 270.69L 935 274.89L 953.99 288.98L 969.51 273.03L 982.63 287.46L 994 278.69L 1013 262.75L 1028.5 266.48L 1041.6 265.63L 1053 270.1L 1072 276.21L 1087.5 269.58L 1100.6 273.3L 1112 267.22L 1131 267.42L 1146.5 262.93L 1159.6 261.6L 1171 267.9L 1190 262.2L 1205.5 267.72L 1218.6 264.52L 1230 269.2" fill="none" stroke-width="0.5" stroke="#000000" stroke-opacity="0.30196" stroke-linecap="round" stroke-linejoin="round"/>
    <path d="M 50 90.474L 109 109.02L 143.51 115.27L 168 117.96L 186.99 119.2L 202.51 120.7L 215.63 120.52L 227 105.16L 245.99 109.48L 261.51 108.81L 274.63 111.08L 286 110.32L 304.99 101.28L 320.51 103.39L 333.63 103.05L 345 103.59L 363.99 104.99L 379.51 98.663L 392.63 100.16L 404 99.373L 422.99 100L 438.51 95.045L 451.63 94.847L 463 95.141L 481.99 97.015L 497.51 98.308L 510.63 91.36L 522 93.131L 540.99 93.974L 556.51 94.822L 569.63 88.667L 581 90.441L 599.99 91.142L 615.51 93.241L 628.63 93.6L 640 93.912L 658.99 93.441L 674.51 87.453L 687.63 88.08L 699 89.731L 717.99 89.362L 733.51 88.395L 746.63 82.267L 758 83.335L 776.99 85.021L 792.51 85.313L 805.63 85.969L 817 81.224L 835.99 80.467L 851.51 82.11L 864.63 82.183L 876 77.624L 894.99 79.429L 910.51 79.579L 923.63 80.588L 935 74.8L 953.99 77.125L 969.51 78.702L 982.63 77.897L 994 72.887L 1013 75.004L 1028.5 74.619L 1041.6 75.238L 1053 70.514L 1072 73.703L 1087.5 73.513L 1100.6 75.17L 1112 68.841L 1131 71.042L 1146.5 70.259L 1159.6 71.21L 1171 66.523L 1190 68.572L 1205.5 68.384L 1218.6 71.252L 1230 65.216" fill="none" stroke-width="0.5" stroke="#000000" stroke-opacity="0.30196" stroke-linecap="round" stroke-linejoin="round"/>
    <path d="M 50 141.78L 109 174.79L 143.51 164.69L 168 177.46L 186.99 177.06L 202.51 180.23L 215.63 188.29L 227 194.36L 245.99 193.68L 261.51 202.18L 274.63 209.31L 286 215.22L 304.99 204.41L 320.51 212.62L 333.63 223.24L 345 225.62L 363.99 225.49L 379.51 231.34L 392.63 239.33L 404 243.2L 422.99 246.66L 438.51 255.34L 451.63 262.59L 463 267.74L 481.99 274.86L 497.51 274.37L 510.63 282.61L 522 288.46L 540.99 291.1L 556.51 290.71L 569.63 297.66L 581 300.07L 599.99 306.53L 615.51 305.22L 628.63 309.94L 640 313.71L 658.99 319.02L 674.51 316.92L 687.63 319.61L 699 322.77L 717.99 327.19L 733.51 322.93L 746.63 328.68L 758 330.23L 776.99 333.18L 792.51 333.97L 805.63 333.97L 817 319L 835.99 323.66L 851.51 334.31L 864.63 330.24L 876 301.09L 894.99 317.05L 910.51 305.8L 923.63 306.58L 935 319.68L 953.99 321.37L 969.51 315.46L 982.63 330.69L 994 300.9L 1013 304.46L 1028.5 311.44L 1041.6 310.48L 1053 292.01L 1072 295.66L 1087.5 298.57L 1100.6 295.04L 1112 284.03L 1131 289.52L 1146.5 294.62L 1159.6 294.65L 1171 288.87L 1190 287.14L 1205.5 289.86L 1218.6 293.01L 1230 288.56" fill="none" stroke-width="0.5" stroke="#000000" stroke-opacity="0.30196" stroke-linecap="round" stroke-linejoin="round"/>
  </g>
  <path d="M 74 33 L 74 105 L 283 105 L 283 33 z" fill="#FFFFFF" fill-opacity="0.7019607843137254" stroke-width="0.5" stroke="#000000" stroke-opacity="1" stroke-linecap="round" stroke-linejoin="round"/>
  <path d="M 88 52 L 108 52" fill="none" stroke-width="4" stroke="#FF3B30" stroke-opacity="1" stroke-linecap="round" stroke-linejoin="round"/>
  <path d="M 88 52 L 108 52" fill="none" stroke-width="0.5" stroke="#000000" stroke-opacity="0.30196" stroke-linecap="round" stroke-linejoin="round"/>
  <text x="119" y="56.17" font-family="Menlo" font-size="12" font-weight="normal" font-style="normal" fill="#000000" fill-opacity="1">Array&lt;Int&gt; append</text>
  <path d="M 88 69 L 108 69" fill="none" stroke-width="4" stroke="#007AFF" stroke-opacity="1" stroke-linecap="round" stroke-linejoin="round"/>
  <path d="M 88 69 L 108 69" fill="none" stroke-width="0.5" stroke="#000000" stroke-opacity="0.30196" stroke-linecap="round" stroke-linejoin="round"/>
  <text x="119" y="73.17" font-family="Menlo" font-size="12" font-weight="normal" font-style="normal" fill="#000000" fill-opacity="1">TreeArray&lt;Int&gt; append</text>
  <path d="M 88 86 L 108 86" fill="none" stroke-width="4" stroke="#28CD41" stroke-opacity="1" stroke-linecap="round" stroke-linejoin="round"/>
  <path d="M 88 86 L 108 86" fill="none" stroke-width="0.5" stroke="#000000" stroke-opacity="0.30196" stroke-linecap="round" stroke-linejoin="round"/>
  <text x="119" y="90.17" font-family="Menlo" font-size="12" font-weight="normal" font-style="normal" fill="#000000" fill-opacity="1">Deque&lt;Int&gt; append</text>
  <path d="M 50 9 L 50 441 L 1230 441 L 1230 9 z" fill="none" stroke-width="0.5" stroke="#000000" stroke-opacity="1" stroke-linecap="round" stroke-linejoin="round"/>
</svg>
