<!DOCTYPE svg PUBLIC "-//W3C//DTD SVG 1.1//EN" "http://www.w3.org/Graphics/SVG/1.1/DTD/svg11.dtd">
<svg width="1280.0px" height="480.0px" viewBox="0.0 0.0 1280.0 480.0" xmlns="http://www.w3.org/2000/svg" xmlns:xlink="http://www.w3.org/1999/xlink" version="1.1">
  <path d="M 0 0 L 0 480 L 1280 480 L 1280 0 z" fill="#FFFFFF" fill-opacity="1.0" stroke="none"/>
  <text x="50" y="468.7" font-family="Helvetica" font-size="10" font-weight="normal" font-style="normal" fill="#000000" fill-opacity="1">Average per-element processing time over input size (bands: min, mean, mean + 2stddev)</text>
  <a xlink:href="https://github.com/apple/swift-collections-benchmark"><text x="1107" y="468.7" font-family="Helvetica" font-size="10" font-weight="normal" font-style="normal" fill="#000000" fill-opacity="1">swift-collections-benchmark</text></a>
  <path d="M 50 9 L 50 441" fill="none" stroke-width="0.75" stroke="#000000" stroke-opacity="0.49804" stroke-linecap="butt" stroke-linejoin="round"/>
  <text x="47" y="453.7" font-family="Helvetica" font-size="10" font-weight="normal" font-style="normal" fill="#000000" fill-opacity="1">1</text>
  <path d="M 109 9 L 109 441" fill="none" stroke-width="0.75" stroke="#000000" stroke-opacity="0.49804" stroke-linecap="butt" stroke-linejoin="round"/>
  <text x="106" y="453.7" font-family="Helvetica" font-size="10" font-weight="normal" font-style="normal" fill="#000000" fill-opacity="1">2</text>
  <path d="M 168 9 L 168 441" fill="none" stroke-width="0.75" stroke="#000000" stroke-opacity="0.49804" stroke-linecap="butt" stroke-linejoin="round"/>
  <text x="165" y="453.7" font-family="Helvetica" font-size="10" font-weight="normal" font-style="normal" fill="#000000" fill-opacity="1">4</text>
  <path d="M 227 9 L 227 441" fill="none" stroke-width="0.75" stroke="#000000" stroke-opacity="0.49804" stroke-linecap="butt" stroke-linejoin="round"/>
  <text x="224" y="453.7" font-family="Helvetica" font-size="10" font-weight="normal" font-style="normal" fill="#000000" fill-opacity="1">8</text>
  <path d="M 286 9 L 286 441" fill="none" stroke-width="0.75" stroke="#000000" stroke-opacity="0.49804" stroke-linecap="butt" stroke-linejoin="round"/>
  <text x="280" y="453.7" font-family="Helvetica" font-size="10" font-weight="normal" font-style="normal" fill="#000000" fill-opacity="1">16</text>
  <path d="M 345 9 L 345 441" fill="none" stroke-width="0.75" stroke="#000000" stroke-opacity="0.49804" stroke-linecap="butt" stroke-linejoin="round"/>
  <text x="339" y="453.7" font-family="Helvetica" font-size="10" font-weight="normal" font-style="normal" fill="#000000" fill-opacity="1">32</text>
  <path d="M 404 9 L 404 441" fill="none" stroke-width="0.75" stroke="#000000" stroke-opacity="0.49804" stroke-linecap="butt" stroke-linejoin="round"/>
  <text x="398" y="453.7" font-family="Helvetica" font-size="10" font-weight="normal" font-style="normal" fill="#000000" fill-opacity="1">64</text>
  <path d="M 463 9 L 463 441" fill="none" stroke-width="0.75" stroke="#000000" stroke-opacity="0.49804" stroke-linecap="butt" stroke-linejoin="round"/>
  <text x="454.5" y="453.7" font-family="Helvetica" font-size="10" font-weight="normal" font-style="normal" fill="#000000" fill-opacity="1">128</text>
  <path d="M 522 9 L 522 441" fill="none" stroke-width="0.75" stroke="#000000" stroke-opacity="0.49804" stroke-linecap="butt" stroke-linejoin="round"/>
  <text x="513.5" y="453.7" font-family="Helvetica" font-size="10" font-weight="normal" font-style="normal" fill="#000000" fill-opacity="1">256</text>
  <path d="M 581 9 L 581 441" fill="none" stroke-width="0.75" stroke="#000000" stroke-opacity="0.49804" stroke-linecap="butt" stroke-linejoin="round"/>
  <text x="572.5" y="453.7" font-family="Helvetica" font-size="10" font-weight="normal" font-style="normal" fill="#000000" fill-opacity="1">512</text>
  <path d="M 640 9 L 640 441" fill="none" stroke-width="0.75" stroke="#000000" stroke-opacity="0.49804" stroke-linecap="butt" stroke-linejoin="round"/>
  <text x="634.5" y="453.7" font-family="Helvetica" font-size="10" font-weight="normal" font-style="normal" fill="#000000" fill-opacity="1">1k</text>
  <path d="M 699 9 L 699 441" fill="none" stroke-width="0.75" stroke="#000000" stroke-opacity="0.49804" stroke-linecap="butt" stroke-linejoin="round"/>
  <text x="693.5" y="453.7" font-family="Helvetica" font-size="10" font-weight="normal" font-style="normal" fill="#000000" fill-opacity="1">2k</text>
  <path d="M 758 9 L 758 441" fill="none" stroke-width="0.75" stroke="#000000" stroke-opacity="0.49804" stroke-linecap="butt" stroke-linejoin="round"/>
  <text x="752.5" y="453.7" font-family="Helvetica" font-size="10" font-weight="normal" font-style="normal" fill="#000000" fill-opacity="1">4k</text>
  <path d="M 817 9 L 817 441" fill="none" stroke-width="0.75" stroke="#000000" stroke-opacity="0.49804" stroke-linecap="butt" stroke-linejoin="round"/>
  <text x="811.5" y="453.7" font-family="Helvetica" font-size="10" font-weight="normal" font-style="normal" fill="#000000" fill-opacity="1">8k</text>
  <path d="M 876 9 L 876 441" fill="none" stroke-width="0.75" stroke="#000000" stroke-opacity="0.49804" stroke-linecap="butt" stroke-linejoin="round"/>
  <text x="867.5" y="453.7" font-family="Helvetica" font-size="10" font-weight="normal" font-style="normal" fill="#000000" fill-opacity="1">16k</text>
  <path d="M 935 9 L 935 441" fill="none" stroke-width="0.75" stroke="#000000" stroke-opacity="0.49804" stroke-linecap="butt" stroke-linejoin="round"/>
  <text x="926.5" y="453.7" font-family="Helvetica" font-size="10" font-weight="normal" font-style="normal" fill="#000000" fill-opacity="1">32k</text>
  <path d="M 994 9 L 994 441" fill="none" stroke-width="0.75" stroke="#000000" stroke-opacity="0.49804" stroke-linecap="butt" stroke-linejoin="round"/>
  <text x="985.5" y="453.7" font-family="Helvetica" font-size="10" font-weight="normal" font-style="normal" fill="#000000" fill-opacity="1">64k</text>
  <path d="M 1053 9 L 1053 441" fill="none" stroke-width="0.75" stroke="#000000" stroke-opacity="0.49804" stroke-linecap="butt" stroke-linejoin="round"/>
  <text x="1042" y="453.7" font-family="Helvetica" font-size="10" font-weight="normal" font-style="normal" fill="#000000" fill-opacity="1">128k</text>
  <path d="M 1112 9 L 1112 441" fill="none" stroke-width="0.75" stroke="#000000" stroke-opacity="0.49804" stroke-linecap="butt" stroke-linejoin="round"/>
  <text x="1101" y="453.7" font-family="Helvetica" font-size="10" font-weight="normal" font-style="normal" fill="#000000" fill-opacity="1">256k</text>
  <path d="M 1171 9 L 1171 441" fill="none" stroke-width="0.75" stroke="#000000" stroke-opacity="0.49804" stroke-linecap="butt" stroke-linejoin="round"/>
  <text x="1160" y="453.7" font-family="Helvetica" font-size="10" font-weight="normal" font-style="normal" fill="#000000" fill-opacity="1">512k</text>
  <path d="M 1230 9 L 1230 441" fill="none" stroke-width="0.75" stroke="#000000" stroke-opacity="0.49804" stroke-linecap="butt" stroke-linejoin="round"/>
  <text x="1223" y="453.7" font-family="Helvetica" font-size="10" font-weight="normal" font-style="normal" fill="#000000" fill-opacity="1">1M</text>
  <path d="M 50 441 L 1230 441" fill="none" stroke-width="0.75" stroke="#000000" stroke-opacity="0.49804" stroke-linecap="butt" stroke-linejoin="round"/>
  <text x="16" y="442.7" font-family="Helvetica" font-size="10" font-weight="normal" font-style="normal" fill="#000000" fill-opacity="1">100 ps</text>
  <text x="1236" y="442.7" font-family="Helvetica" font-size="10" font-weight="normal" font-style="normal" fill="#000000" fill-opacity="1">100 ps</text>
  <path d="M 50 333 L 1230 333" fill="none" stroke-width="0.75" stroke="#000000" stroke-opacity="0.49804" stroke-linecap="butt" stroke-linejoin="round"/>
  <text x="27" y="334.7" font-family="Helvetica" font-size="10" font-weight="normal" font-style="normal" fill="#000000" fill-opacity="1">1 ns</text>
  <text x="1236" y="334.7" font-family="Helvetica" font-size="10" font-weight="normal" font-style="normal" fill="#000000" fill-opacity="1">1 ns</text>
  <path d="M 50 225 L 1230 225" fill="none" stroke-width="0.75" stroke="#000000" stroke-opacity="0.49804" stroke-linecap="butt" stroke-linejoin="round"/>
  <text x="21" y="226.7" font-family="Helvetica" font-size="10" font-weight="normal" font-style="normal" fill="#000000" fill-opacity="1">10 ns</text>
  <text x="1236" y="226.7" font-family="Helvetica" font-size="10" font-weight="normal" font-style="normal" fill="#000000" fill-opacity="1">10 ns</text>
  <path d="M 50 117 L 1230 117" fill="none" stroke-width="0.75" stroke="#000000" stroke-opacity="0.49804" stroke-linecap="butt" stroke-linejoin="round"/>
  <text x="16" y="118.7" font-family="Helvetica" font-size="10" font-weight="normal" font-style="normal" fill="#000000" fill-opacity="1">100 ns</text>
  <text x="1236" y="118.7" font-family="Helvetica" font-size="10" font-weight="normal" font-style="normal" fill="#000000" fill-opacity="1">100 ns</text>
  <path d="M 50 9 L 1230 9" fill="none" stroke-width="0.75" stroke="#000000" stroke-opacity="0.49804" stroke-linecap="butt" stroke-linejoin="round"/>
  <text x="26" y="10.7" font-family="Helvetica" font-size="10" font-weight="normal" font-style="normal" fill="#000000" fill-opacity="1">1 µs</text>
  <text x="1236" y="10.7" font-family="Helvetica" font-size="10" font-weight="normal" font-style="normal" fill="#000000" fill-opacity="1">1 µs</text>
  <path d="M 50 408.49 L 1230 408.49" fill="none" stroke-width="0.5" stroke="#000000" stroke-opacity="0.25882" stroke-linecap="butt" stroke-linejoin="round" stroke-dasharray="6 3" stroke-dashoffset="0"/>
  <path d="M 50 375.98 L 1230 375.98" fill="none" stroke-width="0.5" stroke="#000000" stroke-opacity="0.25882" stroke-linecap="butt" stroke-linejoin="round" stroke-dasharray="6 3" stroke-dashoffset="0"/>
  <path d="M 50 343.47 L 1230 343.47" fill="none" stroke-width="0.5" stroke="#000000" stroke-opacity="0.25882" stroke-linecap="butt" stroke-linejoin="round" stroke-dasharray="6 3" stroke-dashoffset="0"/>
  <path d="M 50 310.96 L 1230 310.96" fill="none" stroke-width="0.5" stroke="#000000" stroke-opacity="0.25882" stroke-linecap="butt" stroke-linejoin="round" stroke-dasharray="6 3" stroke-dashoffset="0"/>
  <path d="M 50 278.44 L 1230 278.44" fill="none" stroke-width="0.5" stroke="#000000" stroke-opacity="0.25882" stroke-linecap="butt" stroke-linejoin="round" stroke-dasharray="6 3" stroke-dashoffset="0"/>
  <path d="M 50 245.93 L 1230 245.93" fill="none" stroke-width="0.5" stroke="#000000" stroke-opacity="0.25882" stroke-linecap="butt" stroke-linejoin="round" stroke-dasharray="6 3" stroke-dashoffset="0"/>
  <path d="M 50 213.42 L 1230 213.42" fill="none" stroke-width="0.5" stroke="#000000" stroke-opacity="0.25882" stroke-linecap="butt" stroke-linejoin="round" stroke-dasharray="6 3" stroke-dashoffset="0"/>
  <path d="M 50 180.91 L 1230 180.91" fill="none" stroke-width="0.5" stroke="#000000" stroke-opacity="0.25882" stroke-linecap="butt" stroke-linejoin="round" stroke-dasharray="6 3" stroke-dashoffset="0"/>
  <path d="M 50 148.4 L 1230 148.4" fill="none" stroke-width="0.5" stroke="#000000" stroke-opacity="0.25882" stroke-linecap="butt" stroke-linejoin="round" stroke-dasharray="6 3" stroke-dashoffset="0"/>
  <path d="M 50 115.89 L 1230 115.89" fill="none" stroke-width="0.5" stroke="#000000" stroke-opacity="0.25882" stroke-linecap="butt" stroke-linejoin="round" stroke-dasharray="6 3" stroke-dashoffset="0"/>
  <path d="M 50 83.376 L 1230 83.376" fill="none" stroke-width="0.5" stroke="#000000" stroke-opacity="0.25882" stroke-linecap="butt" stroke-linejoin="round" stroke-dasharray="6 3" stroke-dashoffset="0"/>
  <path d="M 50 50.865 L 1230 50.865" fill="none" stroke-width="0.5" stroke="#000000" stroke-opacity="0.25882" stroke-linecap="butt" stroke-linejoin="round" stroke-dasharray="6 3" stroke-dashoffset="0"/>
  <path d="M 50 18.354 L 1230 18.354" fill="none" stroke-width="0.5" stroke="#000000" stroke-opacity="0.25882" stroke-linecap="butt" stroke-linejoin="round" stroke-dasharray="6 3" stroke-dashoffset="0"/>
  <path d="M 74 33 L 74 88 L 283 88 L 283 33 z" fill="#FFFFFF" fill-opacity="1.0" stroke="none"/>
  <clipPath id="clip-0">
    <path d="M 50 9 L 50 441 L 1230 441 L 1230 9 z"/>
  </clipPath>
  <g clip-path="url(#clip-0)">
    <path d="M 50 86.677L 109 108.21L 143.51 115.6L 168 120.1L 186.99 122.2L 202.51 123.27L 215.63 112.68L 227 113.86L 245.99 116L 261.51 116.42L 274.63 117.19L 286 113.35L 304.99 113.38L 320.51 113.41L 333.63 111.97L 345 113.44L 363.99 112.06L 379.51 111.23L 392.63 110.36L 404 112.28L 422.99 110.09L 438.51 110.48L 451.63 114.27L 463 109.95L 481.99 108.55L 497.51 107.25L 510.63 105.62L 522 105.14L 540.99 104.81L 556.51 104.53L 569.63 103.55L 581 102.9L 599.99 102.72L 615.51 101.12L 628.63 99.489L 640 99.043L 658.99 96.536L 674.51 97.894L 687.63 97.787L 699 97.515L 717.99 85.473L 733.51 88.776L 746.63 90.02L 758 88.936L 776.99 94.292L 792.51 90.957L 805.63 90.153L 817 88.76L 835.99 88.194L 851.51 84.516L 864.63 83.552L 876 86.777L 894.99 86.123L 910.51 88.044L 923.63 86.087L 935 87.395L 953.99 83.993L 969.51 83.941L 982.63 82.849L 994 82.155L 1013 80.671L 1028.5 77.968L 1041.6 82.039L 1053 76.636L 1072 78.5L 1087.5 77.189L 1100.6 78.72L 1112 78.551L 1131 78.126L 1146.5 74.437L 1159.6 77.002L 1171 74.174L 1190 74.184L 1205.5 72.268L 1218.6 73.176L 1230 72.866L 1230 75.522L 1218.6 77.227L 1205.5 76.685L 1190 76.993L 1171 77.467L 1159.6 79.103L 1146.5 78.258L 1131 80.432L 1112 79.548L 1100.6 79.243L 1087.5 81.465L 1072 82.092L 1053 84.873L 1041.6 83.27L 1028.5 83.681L 1013 82.552L 994 82.996L 982.63 86.173L 969.51 86.706L 953.99 86.265L 935 88.223L 923.63 88.928L 910.51 88.312L 894.99 86.413L 876 89.471L 864.63 88.53L 851.51 94.643L 835.99 92.74L 817 91.307L 805.63 92.554L 792.51 93.048L 776.99 95.198L 758 95.017L 746.63 95.301L 733.51 95.65L 717.99 97.749L 699 101.85L 687.63 99.041L 674.51 99.112L 658.99 103.07L 640 100.88L 628.63 102.02L 615.51 102.24L 599.99 103.34L 581 104.85L 569.63 105.77L 556.51 106.07L 540.99 106.39L 522 108.05L 510.63 110.01L 497.51 109.21L 481.99 108.6L 463 109.98L 451.63 114.59L 438.51 110.64L 422.99 110.85L 404 112.4L 392.63 115.43L 379.51 113.93L 363.99 112.9L 345 114.47L 333.63 115.76L 320.51 114.05L 304.99 113.63L 286 113.48L 274.63 117.65L 261.51 118.31L 245.99 117L 227 114.39L 215.63 113.76L 202.51 123.41L 186.99 122.64L 168 120.6L 143.51 118.86L 109 108.37L 50 91.202" fill="#007AFF" fill-opacity="0.30196078431372547" stroke="none"/>
    <path d="M 50 139.49L 109 174.79L 143.51 164.43L 168 176.71L 186.99 165.33L 202.51 178.5L 215.63 187.75L 227 193.29L 245.99 193.11L 261.51 201.76L 274.63 208.61L 286 214.94L 304.99 202.75L 320.51 211.4L 333.63 215.01L 345 224.92L 363.99 221.1L 379.51 230.6L 392.63 238.24L 404 237.68L 422.99 245.57L 438.51 249.51L 451.63 256.8L 463 260.31L 481.99 273.72L 497.51 273.43L 510.63 281.04L 522 286.9L 540.99 290.99L 556.51 286.71L 569.63 296.86L 581 298.62L 599.99 306.09L 615.51 301.68L 628.63 308.34L 640 311.22L 658.99 317.68L 674.51 313.06L 687.63 318.58L 699 322.45L 717.99 326.84L 733.51 320.63L 746.63 327.95L 758 329.85L 776.99 332.75L 792.51 331.76L 805.63 329.52L 817 315.2L 835.99 305.49L 851.51 329.39L 864.63 314.48L 876 272.03L 894.99 298.09L 910.51 277.65L 923.63 270.7L 935 318.33L 953.99 303.3L 969.51 294.2L 982.63 326.54L 994 293.74L 1013 299.66L 1028.5 286.43L 1041.6 307.48L 1053 281.7L 1072 295.05L 1087.5 295.6L 1100.6 291.26L 1112 272.87L 1131 279.18L 1146.5 290.65L 1159.6 288.44L 1171 280.99L 1190 284.73L 1205.5 279.75L 1218.6 283.7L 1230 281.98L 1230 291.13L 1218.6 296.8L 1205.5 294.03L 1190 288.02L 1171 292L 1159.6 297.06L 1146.5 296.11L 1131 293.79L 1112 288.7L 1100.6 296.45L 1087.5 299.66L 1072 295.88L 1053 296.27L 1041.6 311.59L 1028.5 324.88L 1013 306.28L 994 303.72L 982.63 332.25L 969.51 326.09L 953.99 329.89L 935 320.16L 923.63 331.04L 910.51 321.92L 894.99 326.13L 876 318.05L 864.63 337.38L 851.51 336.19L 835.99 332.26L 817 320.42L 805.63 335.65L 792.51 334.78L 776.99 333.33L 758 330.36L 746.63 328.94L 733.51 323.77L 717.99 327.31L 699 322.89L 687.63 319.98L 674.51 318.37L 658.99 319.51L 640 314.63L 628.63 310.52L 615.51 306.54L 599.99 306.68L 581 300.6L 569.63 297.95L 556.51 292.21L 540.99 291.13L 522 289.03L 510.63 283.18L 497.51 274.7L 481.99 275.26L 463 270.68L 451.63 264.82L 438.51 257.59L 422.99 247.04L 404 245.32L 392.63 239.72L 379.51 231.6L 363.99 227.15L 345 225.86L 333.63 226.53L 320.51 213.06L 304.99 205.02L 286 215.32L 274.63 209.56L 261.51 202.33L 245.99 193.88L 227 194.74L 215.63 188.48L 202.51 180.86L 186.99 182.02L 168 177.73L 143.51 164.78L 109 174.79L 50 142.62" fill="#FF3B30" fill-opacity="0.30196078431372547" stroke="none"/>
    <path d="M 50 89.977L 109 108.33L 143.51 117.99L 168 120.47L 186.99 122.53L 202.51 123.38L 215.63 113.48L 227 114.25L 245.99 116.74L 261.51 117.81L 274.63 117.53L 286 113.45L 304.99 113.56L 320.51 113.88L 333.63 114.74L 345 114.2L 363.99 112.68L 379.51 113.21L 392.63 114.05L 404 112.37L 422.99 110.65L 438.51 110.6L 451.63 114.5L 463 109.97L 481.99 108.59L 497.51 108.69L 510.63 108.82L 522 107.27L 540.99 105.97L 556.51 105.67L 569.63 105.18L 581 104.33L 599.99 103.17L 615.51 101.94L 628.63 101.34L 640 100.39L 658.99 101.28L 674.51 98.791L 687.63 98.71L 699 100.68L 717.99 94.22L 733.51 93.755L 746.63 93.863L 758 93.351L 776.99 94.96L 792.51 92.493L 805.63 91.914L 817 90.629L 835.99 91.509L 851.51 91.78L 864.63 87.178L 876 88.752L 894.99 86.337L 910.51 88.242L 923.63 88.169L 935 88.005L 953.99 85.661L 969.51 85.968L 982.63 85.282L 994 82.775L 1013 82.053L 1028.5 82.12L 1041.6 82.945L 1053 82.578L 1072 81.127L 1087.5 80.31L 1100.6 79.106L 1112 79.285L 1131 79.819L 1146.5 77.23L 1159.6 78.545L 1171 76.584L 1190 76.243L 1205.5 75.491L 1218.6 76.135L 1230 74.814" fill="none" stroke-width="4" stroke="#007AFF" stroke-opacity="1" stroke-linecap="round" stroke-linejoin="round"/>
    <path d="M 50 141.78L 109 174.79L 143.51 164.69L 168 177.46L 186.99 177.06L 202.51 180.23L 215.63 188.29L 227 194.36L 245.99 193.68L 261.51 202.18L 274.63 209.31L 286 215.22L 304.99 204.41L 320.51 212.62L 333.63 223.24L 345 225.62L 363.99 225.49L 379.51 231.34L 392.63 239.33L 404 243.2L 422.99 246.66L 438.51 255.34L 451.63 262.59L 463 267.74L 481.99 274.86L 497.51 274.37L 510.63 282.61L 522 288.46L 540.99 291.1L 556.51 290.71L 569.63 297.66L 581 300.07L 599.99 306.53L 615.51 305.22L 628.63 309.94L 640 313.71L 658.99 319.02L 674.51 316.92L 687.63 319.61L 699 322.77L 717.99 327.19L 733.51 322.93L 746.63 328.68L 758 330.23L 776.99 333.18L 792.51 333.97L 805.63 333.97L 817 319L 835.99 323.66L 851.51 334.31L 864.63 330.24L 876 301.09L 894.99 317.05L 910.51 305.8L 923.63 306.58L 935 319.68L 953.99 321.37L 969.51 315.46L 982.63 330.69L 994 300.9L 1013 304.46L 1028.5 311.44L 1041.6 310.48L 1053 292.01L 1072 295.66L 1087.5 298.57L 1100.6 295.04L 1112 284.03L 1131 289.52L 1146.5 294.62L 1159.6 294.65L 1171 288.87L 1190 287.14L 1205.5 289.86L 1218.6 293.01L 1230 288.56" fill="none" stroke-width="4" stroke="#FF3B30" stroke-opacity="1" stroke-linecap="round" stroke-linejoin="round"/>
    <path d="M 50 89.977L 109 108.33L 143.51 117.99L 168 120.47L 186.99 122.53L 202.51 123.38L 215.63 113.48L 227 114.25L 245.99 116.74L 261.51 117.81L 274.63 117.53L 286 113.45L 304.99 113.56L 320.51 113.88L 333.63 114.74L 345 114.2L 363.99 112.68L 379.51 113.21L 392.63 114.05L 404 112.37L 422.99 110.65L 438.51 110.6L 451.63 114.5L 463 109.97L 481.99 108.59L 497.51 108.69L 510.63 108.82L 522 107.27L 540.99 105.97L 556.51 105.67L 569.63 105.18L 581 104.33L 599.99 103.17L 615.51 101.94L 628.63 101.34L 640 100.39L 658.99 101.28L 674.51 98.791L 687.63 98.71L 699 100.68L 717.99 94.22L 733.51 93.755L 746.63 93.863L 758 93.351L 776.99 94.96L 792.51 92.493L 805.63 91.914L 817 90.629L 835.99 91.509L 851.51 91.78L 864.63 87.178L 876 88.752L 894.99 86.337L 910.51 88.242L 923.63 88.169L 935 88.005L 953.99 85.661L 969.51 85.968L 982.63 85.282L 994 82.775L 1013 82.053L 1028.5 82.12L 1041.6 82.945L 1053 82.578L 1072 81.127L 1087.5 80.31L 1100.6 79.106L 1112 79.285L 1131 79.819L 1146.5 77.23L 1159.6 78.545L 1171 76.584L 1190 76.243L 1205.5 75.491L 1218.6 76.135L 1230 74.814" fill="none" stroke-width="0.5" stroke="#000000" stroke-opacity="0.30196" stroke-linecap="round" stroke-linejoin="round"/>
    <path d="M 50 141.78L 109 174.79L 143.51 164.69L 168 177.46L 186.99 177.06L 202.51 180.23L 215.63 188.29L 227 194.36L 245.99 193.68L 261.51 202.18L 274.63 209.31L 286 215.22L 304.99 204.41L 320.51 212.62L 333.63 223.24L 345 225.62L 363.99 225.49L 379.51 231.34L 392.63 239.33L 404 243.2L 422.99 246.66L 438.51 255.34L 451.63 262.59L 463 267.74L 481.99 274.86L 497.51 274.37L 510.63 282.61L 522 288.46L 540.99 291.1L 556.51 290.71L 569.63 297.66L 581 300.07L 599.99 306.53L 615.51 305.22L 628.63 309.94L 640 313.71L 658.99 319.02L 674.51 316.92L 687.63 319.61L 699 322.77L 717.99 327.19L 733.51 322.93L 746.63 328.68L 758 330.23L 776.99 333.18L 792.51 333.97L 805.63 333.97L 817 319L 835.99 323.66L 851.51 334.31L 864.63 330.24L 876 301.09L 894.99 317.05L 910.51 305.8L 923.63 306.58L 935 319.68L 953.99 321.37L 969.51 315.46L 982.63 330.69L 994 300.9L 1013 304.46L 1028.5 311.44L 1041.6 310.48L 1053 292.01L 1072 295.66L 1087.5 298.57L 1100.6 295.04L 1112 284.03L 1131 289.52L 1146.5 294.62L 1159.6 294.65L 1171 288.87L 1190 287.14L 1205.5 289.86L 1218.6 293.01L 1230 288.56" fill="none" stroke-width="0.5" stroke="#000000" stroke-opacity="0.30196" stroke-linecap="round" stroke-linejoin="round"/>
  </g>
  <path d="M 74 33 L 74 88 L 283 88 L 283 33 z" fill="#FFFFFF" fill-opacity="0.7019607843137254" stroke-width="0.5" stroke="#000000" stroke-opacity="1" stroke-linecap="round" stroke-linejoin="round"/>
  <path d="M 88 52 L 108 52" fill="none" stroke-width="4" stroke="#FF3B30" stroke-opacity="1" stroke-linecap="round" stroke-linejoin="round"/>
  <path d="M 88 52 L 108 52" fill="none" stroke-width="0.5" stroke="#000000" stroke-opacity="0.30196" stroke-linecap="round" stroke-linejoin="round"/>
  <text x="119" y="56.17" font-family="Menlo" font-size="12" font-weight="normal" font-style="normal" fill="#000000" fill-opacity="1">Array&lt;Int&gt; append</text>
  <path d="M 88 69 L 108 69" fill="none" stroke-width="4" stroke="#007AFF" stroke-opacity="1" stroke-linecap="round" stroke-linejoin="round"/>
  <path d="M 88 69 L 108 69" fill="none" stroke-width="0.5" stroke="#000000" stroke-opacity="0.30196" stroke-linecap="round" stroke-linejoin="round"/>
  <text x="119" y="73.17" font-family="Menlo" font-size="12" font-weight="normal" font-style="normal" fill="#000000" fill-opacity="1">TreeArray&lt;Int&gt; append</text>
  <path d="M 50 9 L 50 441 L 1230 441 L 1230 9 z" fill="none" stroke-width="0.5" stroke="#000000" stroke-opacity="1" stroke-linecap="round" stroke-linejoin="round"/>
</svg>
