<!DOCTYPE svg PUBLIC "-//W3C//DTD SVG 1.1//EN" "http://www.w3.org/Graphics/SVG/1.1/DTD/svg11.dtd">
<svg width="1280.0px" height="480.0px" viewBox="0.0 0.0 1280.0 480.0" xmlns="http://www.w3.org/2000/svg" xmlns:xlink="http://www.w3.org/1999/xlink" version="1.1">
  <path d="M 0 0 L 0 480 L 1280 480 L 1280 0 z" fill="#FFFFFF" fill-opacity="1.0" stroke="none"/>
  <text x="50" y="468.7" font-family="Helvetica" font-size="10" font-weight="normal" font-style="normal" fill="#000000" fill-opacity="1">Average per-element processing time over input size (bands: min, mean, mean + 2stddev)</text>
  <a xlink:href="https://github.com/apple/swift-collections-benchmark"><text x="1107" y="468.7" font-family="Helvetica" font-size="10" font-weight="normal" font-style="normal" fill="#000000" fill-opacity="1">swift-collections-benchmark</text></a>
  <path d="M 50 9 L 50 441" fill="none" stroke-width="0.75" stroke="#000000" stroke-opacity="0.49804" stroke-linecap="butt" stroke-linejoin="round"/>
  <text x="47" y="453.7" font-family="Helvetica" font-size="10" font-weight="normal" font-style="normal" fill="#000000" fill-opacity="1">1</text>
  <path d="M 109 9 L 109 441" fill="none" stroke-width="0.75" stroke="#000000" stroke-opacity="0.49804" stroke-linecap="butt" stroke-linejoin="round"/>
  <text x="106" y="453.7" font-family="Helvetica" font-size="10" font-weight="normal" font-style="normal" fill="#000000" fill-opacity="1">2</text>
  <path d="M 168 9 L 168 441" fill="none" stroke-width="0.75" stroke="#000000" stroke-opacity="0.49804" stroke-linecap="butt" stroke-linejoin="round"/>
  <text x="165" y="453.7" font-family="Helvetica" font-size="10" font-weight="normal" font-style="normal" fill="#000000" fill-opacity="1">4</text>
  <path d="M 227 9 L 227 441" fill="none" stroke-width="0.75" stroke="#000000" stroke-opacity="0.49804" stroke-linecap="butt" stroke-linejoin="round"/>
  <text x="224" y="453.7" font-family="Helvetica" font-size="10" font-weight="normal" font-style="normal" fill="#000000" fill-opacity="1">8</text>
  <path d="M 286 9 L 286 441" fill="none" stroke-width="0.75" stroke="#000000" stroke-opacity="0.49804" stroke-linecap="butt" stroke-linejoin="round"/>
  <text x="280" y="453.7" font-family="Helvetica" font-size="10" font-weight="normal" font-style="normal" fill="#000000" fill-opacity="1">16</text>
  <path d="M 345 9 L 345 441" fill="none" stroke-width="0.75" stroke="#000000" stroke-opacity="0.49804" stroke-linecap="butt" stroke-linejoin="round"/>
  <text x="339" y="453.7" font-family="Helvetica" font-size="10" font-weight="normal" font-style="normal" fill="#000000" fill-opacity="1">32</text>
  <path d="M 404 9 L 404 441" fill="none" stroke-width="0.75" stroke="#000000" stroke-opacity="0.49804" stroke-linecap="butt" stroke-linejoin="round"/>
  <text x="398" y="453.7" font-family="Helvetica" font-size="10" font-weight="normal" font-style="normal" fill="#000000" fill-opacity="1">64</text>
  <path d="M 463 9 L 463 441" fill="none" stroke-width="0.75" stroke="#000000" stroke-opacity="0.49804" stroke-linecap="butt" stroke-linejoin="round"/>
  <text x="454.5" y="453.7" font-family="Helvetica" font-size="10" font-weight="normal" font-style="normal" fill="#000000" fill-opacity="1">128</text>
  <path d="M 522 9 L 522 441" fill="none" stroke-width="0.75" stroke="#000000" stroke-opacity="0.49804" stroke-linecap="butt" stroke-linejoin="round"/>
  <text x="513.5" y="453.7" font-family="Helvetica" font-size="10" font-weight="normal" font-style="normal" fill="#000000" fill-opacity="1">256</text>
  <path d="M 581 9 L 581 441" fill="none" stroke-width="0.75" stroke="#000000" stroke-opacity="0.49804" stroke-linecap="butt" stroke-linejoin="round"/>
  <text x="572.5" y="453.7" font-family="Helvetica" font-size="10" font-weight="normal" font-style="normal" fill="#000000" fill-opacity="1">512</text>
  <path d="M 640 9 L 640 441" fill="none" stroke-width="0.75" stroke="#000000" stroke-opacity="0.49804" stroke-linecap="butt" stroke-linejoin="round"/>
  <text x="634.5" y="453.7" font-family="Helvetica" font-size="10" font-weight="normal" font-style="normal" fill="#000000" fill-opacity="1">1k</text>
  <path d="M 699 9 L 699 441" fill="none" stroke-width="0.75" stroke="#000000" stroke-opacity="0.49804" stroke-linecap="butt" stroke-linejoin="round"/>
  <text x="693.5" y="453.7" font-family="Helvetica" font-size="10" font-weight="normal" font-style="normal" fill="#000000" fill-opacity="1">2k</text>
  <path d="M 758 9 L 758 441" fill="none" stroke-width="0.75" stroke="#000000" stroke-opacity="0.49804" stroke-linecap="butt" stroke-linejoin="round"/>
  <text x="752.5" y="453.7" font-family="Helvetica" font-size="10" font-weight="normal" font-style="normal" fill="#000000" fill-opacity="1">4k</text>
  <path d="M 817 9 L 817 441" fill="none" stroke-width="0.75" stroke="#000000" stroke-opacity="0.49804" stroke-linecap="butt" stroke-linejoin="round"/>
  <text x="811.5" y="453.7" font-family="Helvetica" font-size="10" font-weight="normal" font-style="normal" fill="#000000" fill-opacity="1">8k</text>
  <path d="M 876 9 L 876 441" fill="none" stroke-width="0.75" stroke="#000000" stroke-opacity="0.49804" stroke-linecap="butt" stroke-linejoin="round"/>
  <text x="867.5" y="453.7" font-family="Helvetica" font-size="10" font-weight="normal" font-style="normal" fill="#000000" fill-opacity="1">16k</text>
  <path d="M 935 9 L 935 441" fill="none" stroke-width="0.75" stroke="#000000" stroke-opacity="0.49804" stroke-linecap="butt" stroke-linejoin="round"/>
  <text x="926.5" y="453.7" font-family="Helvetica" font-size="10" font-weight="normal" font-style="normal" fill="#000000" fill-opacity="1">32k</text>
  <path d="M 994 9 L 994 441" fill="none" stroke-width="0.75" stroke="#000000" stroke-opacity="0.49804" stroke-linecap="butt" stroke-linejoin="round"/>
  <text x="985.5" y="453.7" font-family="Helvetica" font-size="10" font-weight="normal" font-style="normal" fill="#000000" fill-opacity="1">64k</text>
  <path d="M 1053 9 L 1053 441" fill="none" stroke-width="0.75" stroke="#000000" stroke-opacity="0.49804" stroke-linecap="butt" stroke-linejoin="round"/>
  <text x="1042" y="453.7" font-family="Helvetica" font-size="10" font-weight="normal" font-style="normal" fill="#000000" fill-opacity="1">128k</text>
  <path d="M 1112 9 L 1112 441" fill="none" stroke-width="0.75" stroke="#000000" stroke-opacity="0.49804" stroke-linecap="butt" stroke-linejoin="round"/>
  <text x="1101" y="453.7" font-family="Helvetica" font-size="10" font-weight="normal" font-style="normal" fill="#000000" fill-opacity="1">256k</text>
  <path d="M 1171 9 L 1171 441" fill="none" stroke-width="0.75" stroke="#000000" stroke-opacity="0.49804" stroke-linecap="butt" stroke-linejoin="round"/>
  <text x="1160" y="453.7" font-family="Helvetica" font-size="10" font-weight="normal" font-style="normal" fill="#000000" fill-opacity="1">512k</text>
  <path d="M 1230 9 L 1230 441" fill="none" stroke-width="0.75" stroke="#000000" stroke-opacity="0.49804" stroke-linecap="butt" stroke-linejoin="round"/>
  <text x="1223" y="453.7" font-family="Helvetica" font-size="10" font-weight="normal" font-style="normal" fill="#000000" fill-opacity="1">1M</text>
  <path d="M 50 441 L 1230 441" fill="none" stroke-width="0.75" stroke="#000000" stroke-opacity="0.49804" stroke-linecap="butt" stroke-linejoin="round"/>
  <text x="16" y="442.7" font-family="Helvetica" font-size="10" font-weight="normal" font-style="normal" fill="#000000" fill-opacity="1">100 ps</text>
  <text x="1236" y="442.7" font-family="Helvetica" font-size="10" font-weight="normal" font-style="normal" fill="#000000" fill-opacity="1">100 ps</text>
  <path d="M 50 333 L 1230 333" fill="none" stroke-width="0.75" stroke="#000000" stroke-opacity="0.49804" stroke-linecap="butt" stroke-linejoin="round"/>
  <text x="27" y="334.7" font-family="Helvetica" font-size="10" font-weight="normal" font-style="normal" fill="#000000" fill-opacity="1">1 ns</text>
  <text x="1236" y="334.7" font-family="Helvetica" font-size="10" font-weight="normal" font-style="normal" fill="#000000" fill-opacity="1">1 ns</text>
  <path d="M 50 225 L 1230 225" fill="none" stroke-width="0.75" stroke="#000000" stroke-opacity="0.49804" stroke-linecap="butt" stroke-linejoin="round"/>
  <text x="21" y="226.7" font-family="Helvetica" font-size="10" font-weight="normal" font-style="normal" fill="#000000" fill-opacity="1">10 ns</text>
  <text x="1236" y="226.7" font-family="Helvetica" font-size="10" font-weight="normal" font-style="normal" fill="#000000" fill-opacity="1">10 ns</text>
  <path d="M 50 117 L 1230 117" fill="none" stroke-width="0.75" stroke="#000000" stroke-opacity="0.49804" stroke-linecap="butt" stroke-linejoin="round"/>
  <text x="16" y="118.7" font-family="Helvetica" font-size="10" font-weight="normal" font-style="normal" fill="#000000" fill-opacity="1">100 ns</text>
  <text x="1236" y="118.7" font-family="Helvetica" font-size="10" font-weight="normal" font-style="normal" fill="#000000" fill-opacity="1">100 ns</text>
  <path d="M 50 9 L 1230 9" fill="none" stroke-width="0.75" stroke="#000000" stroke-opacity="0.49804" stroke-linecap="butt" stroke-linejoin="round"/>
  <text x="26" y="10.7" font-family="Helvetica" font-size="10" font-weight="normal" font-style="normal" fill="#000000" fill-opacity="1">1 µs</text>
  <text x="1236" y="10.7" font-family="Helvetica" font-size="10" font-weight="normal" font-style="normal" fill="#000000" fill-opacity="1">1 µs</text>
  <path d="M 50 408.49 L 1230 408.49" fill="none" stroke-width="0.5" stroke="#000000" stroke-opacity="0.25882" stroke-linecap="butt" stroke-linejoin="round" stroke-dasharray="6 3" stroke-dashoffset="0"/>
  <path d="M 50 375.98 L 1230 375.98" fill="none" stroke-width="0.5" stroke="#000000" stroke-opacity="0.25882" stroke-linecap="butt" stroke-linejoin="round" stroke-dasharray="6 3" stroke-dashoffset="0"/>
  <path d="M 50 343.47 L 1230 343.47" fill="none" stroke-width="0.5" stroke="#000000" stroke-opacity="0.25882" stroke-linecap="butt" stroke-linejoin="round" stroke-dasharray="6 3" stroke-dashoffset="0"/>
  <path d="M 50 310.96 L 1230 310.96" fill="none" stroke-width="0.5" stroke="#000000" stroke-opacity="0.25882" stroke-linecap="butt" stroke-linejoin="round" stroke-dasharray="6 3" stroke-dashoffset="0"/>
  <path d="M 50 278.44 L 1230 278.44" fill="none" stroke-width="0.5" stroke="#000000" stroke-opacity="0.25882" stroke-linecap="butt" stroke-linejoin="round" stroke-dasharray="6 3" stroke-dashoffset="0"/>
  <path d="M 50 245.93 L 1230 245.93" fill="none" stroke-width="0.5" stroke="#000000" stroke-opacity="0.25882" stroke-linecap="butt" stroke-linejoin="round" stroke-dasharray="6 3" stroke-dashoffset="0"/>
  <path d="M 50 213.42 L 1230 213.42" fill="none" stroke-width="0.5" stroke="#000000" stroke-opacity="0.25882" stroke-linecap="butt" stroke-linejoin="round" stroke-dasharray="6 3" stroke-dashoffset="0"/>
  <path d="M 50 180.91 L 1230 180.91" fill="none" stroke-width="0.5" stroke="#000000" stroke-opacity="0.25882" stroke-linecap="butt" stroke-linejoin="round" stroke-dasharray="6 3" stroke-dashoffset="0"/>
  <path d="M 50 148.4 L 1230 148.4" fill="none" stroke-width="0.5" stroke="#000000" stroke-opacity="0.25882" stroke-linecap="butt" stroke-linejoin="round" stroke-dasharray="6 3" stroke-dashoffset="0"/>
  <path d="M 50 115.89 L 1230 115.89" fill="none" stroke-width="0.5" stroke="#000000" stroke-opacity="0.25882" stroke-linecap="butt" stroke-linejoin="round" stroke-dasharray="6 3" stroke-dashoffset="0"/>
  <path d="M 50 83.376 L 1230 83.376" fill="none" stroke-width="0.5" stroke="#000000" stroke-opacity="0.25882" stroke-linecap="butt" stroke-linejoin="round" stroke-dasharray="6 3" stroke-dashoffset="0"/>
  <path d="M 50 50.865 L 1230 50.865" fill="none" stroke-width="0.5" stroke="#000000" stroke-opacity="0.25882" stroke-linecap="butt" stroke-linejoin="round" stroke-dasharray="6 3" stroke-dashoffset="0"/>
  <path d="M 50 18.354 L 1230 18.354" fill="none" stroke-width="0.5" stroke="#000000" stroke-opacity="0.25882" stroke-linecap="butt" stroke-linejoin="round" stroke-dasharray="6 3" stroke-dashoffset="0"/>
  <path d="M 74 33 L 74 88 L 428 88 L 428 33 z" fill="#FFFFFF" fill-opacity="1.0" stroke="none"/>
  <clipPath id="clip-0">
    <path d="M 50 9 L 50 441 L 1230 441 L 1230 9 z"/>
  </clipPath>
  <g clip-path="url(#clip-0)">
    <path d="M 50 85.676L 109 105.84L 143.51 116.74L 168 121.03L 186.99 121.86L 202.51 123.3L 215.63 113.11L 227 114.2L 245.99 115.35L 261.51 116.48L 274.63 117.85L 286 120.03L 304.99 118.18L 320.51 118.72L 333.63 118.17L 345 118.09L 363.99 117.76L 379.51 116.85L 392.63 117.49L 404 115.97L 422.99 114.65L 438.51 114.5L 451.63 114.09L 463 112.75L 481.99 112.24L 497.51 110.61L 510.63 110.5L 522 111.83L 540.99 106.84L 556.51 107.73L 569.63 106.67L 581 107.12L 599.99 107.85L 615.51 103.76L 628.63 102.21L 640 101.66L 658.99 100.04L 674.51 101.92L 687.63 101.49L 699 101.12L 717.99 96.589L 733.51 96.182L 746.63 100.86L 758 96.368L 776.99 93.257L 792.51 92.979L 805.63 93.402L 817 91.627L 835.99 91.542L 851.51 91.137L 864.63 91.368L 876 89.574L 894.99 88.407L 910.51 88.189L 923.63 90.283L 935 88.155L 953.99 86.139L 969.51 88.081L 969.51 88.081L 953.99 86.139L 935 88.155L 923.63 90.283L 910.51 88.189L 894.99 88.407L 876 89.574L 864.63 91.368L 851.51 91.137L 835.99 91.542L 817 91.627L 805.63 93.402L 792.51 92.979L 776.99 93.257L 758 96.368L 746.63 100.86L 733.51 96.182L 717.99 96.589L 699 101.12L 687.63 101.49L 674.51 101.92L 658.99 100.04L 640 101.66L 628.63 102.21L 615.51 103.76L 599.99 107.85L 581 107.12L 569.63 106.67L 556.51 107.73L 540.99 106.84L 522 111.83L 510.63 110.5L 497.51 110.61L 481.99 112.24L 463 112.75L 451.63 114.09L 438.51 114.5L 422.99 114.65L 404 115.97L 392.63 117.49L 379.51 116.85L 363.99 117.76L 345 118.09L 333.63 118.17L 320.51 118.72L 304.99 118.18L 286 120.03L 274.63 117.85L 261.51 116.48L 245.99 115.35L 227 114.2L 215.63 113.11L 202.51 123.3L 186.99 121.86L 168 121.03L 143.51 116.74L 109 105.84L 50 85.676" fill="#007AFF" fill-opacity="0.30196078431372547" stroke="none"/>
    <path d="M 50 143.63L 109 175.81L 143.51 193.15L 168 206.31L 186.99 218.11L 202.51 226.02L 215.63 232.91L 227 239.18L 245.99 248.66L 261.51 253.72L 274.63 263.18L 286 268.8L 304.99 275.21L 320.51 285.07L 333.63 286.59L 345 274.12L 363.99 281.04L 379.51 285.63L 392.63 292.63L 404 295.33L 422.99 302.72L 438.51 309.55L 451.63 309.94L 463 323.28L 481.99 328.57L 497.51 331.49L 510.63 333.77L 522 335.7L 540.99 338.23L 556.51 340.01L 569.63 341.4L 581 339.92L 599.99 341.96L 615.51 343.56L 628.63 345.94L 640 346.42L 658.99 347.29L 674.51 347.82L 687.63 348.18L 699 348.11L 717.99 348.41L 733.51 348.98L 746.63 349.27L 758 349.29L 776.99 349.65L 792.51 349.76L 805.63 349.89L 817 349.91L 835.99 332.05L 851.51 346.27L 864.63 345.61L 876 316.55L 894.99 327.65L 910.51 317.94L 923.63 316.8L 935 316.92L 953.99 314.5L 969.51 347.36L 982.63 329.13L 994 318.07L 1013 350.43L 1028.5 316.36L 1041.6 316.78L 1053 329.09L 1072 315.73L 1087.5 305.61L 1100.6 309.36L 1112 307.5L 1131 310.21L 1146.5 309.24L 1159.6 318.89L 1171 323.96L 1190 307.37L 1205.5 302.49L 1218.6 320.24L 1230 315.78L 1230 348.97L 1218.6 327.38L 1205.5 330.27L 1190 326.9L 1171 335.5L 1159.6 325.95L 1146.5 323.65L 1131 321.9L 1112 331.16L 1100.6 325.19L 1087.5 328.16L 1072 350.84L 1053 329.29L 1041.6 348.59L 1028.5 350.49L 1013 350.63L 994 347.2L 982.63 329.91L 969.51 350.34L 953.99 350.36L 935 350.29L 923.63 350.29L 910.51 347.72L 894.99 332.76L 876 349.95L 864.63 349.89L 851.51 350.06L 835.99 349.2L 817 349.99L 805.63 349.89L 792.51 349.83L 776.99 349.65L 758 349.34L 746.63 349.34L 733.51 349.21L 717.99 348.98L 699 348.54L 687.63 348.27L 674.51 347.85L 658.99 347.29L 640 346.47L 628.63 345.94L 615.51 345.17L 599.99 344.58L 581 342.71L 569.63 341.6L 556.51 340.35L 540.99 338.37L 522 335.7L 510.63 333.93L 497.51 331.68L 481.99 328.57L 463 323.52L 451.63 311.18L 438.51 309.78L 422.99 305.24L 404 298.87L 392.63 293.2L 379.51 291.68L 363.99 282.3L 345 277.72L 333.63 292.22L 320.51 285.09L 304.99 278.02L 286 269.41L 274.63 263.77L 261.51 261.31L 245.99 249.29L 227 239.82L 215.63 233.55L 202.51 226.66L 186.99 218.11L 168 206.31L 143.51 193.15L 109 175.81L 50 143.65" fill="#FF3B30" fill-opacity="0.30196078431372547" stroke="none"/>
    <path d="M 50 85.676L 109 105.84L 143.51 116.74L 168 121.03L 186.99 121.86L 202.51 123.3L 215.63 113.11L 227 114.2L 245.99 115.35L 261.51 116.48L 274.63 117.85L 286 120.03L 304.99 118.18L 320.51 118.72L 333.63 118.17L 345 118.09L 363.99 117.76L 379.51 116.85L 392.63 117.49L 404 115.97L 422.99 114.65L 438.51 114.5L 451.63 114.09L 463 112.75L 481.99 112.24L 497.51 110.61L 510.63 110.5L 522 111.83L 540.99 106.84L 556.51 107.73L 569.63 106.67L 581 107.12L 599.99 107.85L 615.51 103.76L 628.63 102.21L 640 101.66L 658.99 100.04L 674.51 101.92L 687.63 101.49L 699 101.12L 717.99 96.589L 733.51 96.182L 746.63 100.86L 758 96.368L 776.99 93.257L 792.51 92.979L 805.63 93.402L 817 91.627L 835.99 91.542L 851.51 91.137L 864.63 91.368L 876 89.574L 894.99 88.407L 910.51 88.189L 923.63 90.283L 935 88.155L 953.99 86.139L 969.51 88.081" fill="none" stroke-width="4" stroke="#007AFF" stroke-opacity="1" stroke-linecap="round" stroke-linejoin="round"/>
    <path d="M 50 143.64L 109 175.81L 143.51 193.15L 168 206.31L 186.99 218.11L 202.51 226.49L 215.63 233.39L 227 239.65L 245.99 249.12L 261.51 259.21L 274.63 263.62L 286 269.25L 304.99 277.27L 320.51 285.08L 333.63 290.68L 345 276.75L 363.99 281.96L 379.51 290.02L 392.63 293.05L 404 297.92L 422.99 304.57L 438.51 309.72L 451.63 310.86L 463 323.46L 481.99 328.57L 497.51 331.63L 510.63 333.89L 522 335.7L 540.99 338.33L 556.51 340.26L 569.63 341.55L 581 341.97L 599.99 343.88L 615.51 344.74L 628.63 345.94L 640 346.46L 658.99 347.29L 674.51 347.84L 687.63 348.24L 699 348.43L 717.99 348.83L 733.51 349.15L 746.63 349.32L 758 349.33L 776.99 349.65L 792.51 349.81L 805.63 349.89L 817 349.97L 835.99 344.08L 851.51 349.04L 864.63 348.74L 876 338.69L 894.99 331.37L 910.51 337.95L 923.63 339L 935 339.05L 953.99 338.06L 969.51 349.55L 982.63 329.71L 994 337.69L 1013 350.58L 1028.5 338.93L 1041.6 338L 1053 329.24L 1072 338.86L 1087.5 321.15L 1100.6 320.52L 1112 323.74L 1131 318.55L 1146.5 319.44L 1159.6 324L 1171 332.2L 1190 320.96L 1205.5 321.29L 1218.6 325.41L 1230 337.8" fill="none" stroke-width="4" stroke="#FF3B30" stroke-opacity="1" stroke-linecap="round" stroke-linejoin="round"/>
    <path d="M 50 85.676L 109 105.84L 143.51 116.74L 168 121.03L 186.99 121.86L 202.51 123.3L 215.63 113.11L 227 114.2L 245.99 115.35L 261.51 116.48L 274.63 117.85L 286 120.03L 304.99 118.18L 320.51 118.72L 333.63 118.17L 345 118.09L 363.99 117.76L 379.51 116.85L 392.63 117.49L 404 115.97L 422.99 114.65L 438.51 114.5L 451.63 114.09L 463 112.75L 481.99 112.24L 497.51 110.61L 510.63 110.5L 522 111.83L 540.99 106.84L 556.51 107.73L 569.63 106.67L 581 107.12L 599.99 107.85L 615.51 103.76L 628.63 102.21L 640 101.66L 658.99 100.04L 674.51 101.92L 687.63 101.49L 699 101.12L 717.99 96.589L 733.51 96.182L 746.63 100.86L 758 96.368L 776.99 93.257L 792.51 92.979L 805.63 93.402L 817 91.627L 835.99 91.542L 851.51 91.137L 864.63 91.368L 876 89.574L 894.99 88.407L 910.51 88.189L 923.63 90.283L 935 88.155L 953.99 86.139L 969.51 88.081" fill="none" stroke-width="0.5" stroke="#000000" stroke-opacity="0.30196" stroke-linecap="round" stroke-linejoin="round"/>
    <path d="M 50 143.64L 109 175.81L 143.51 193.15L 168 206.31L 186.99 218.11L 202.51 226.49L 215.63 233.39L 227 239.65L 245.99 249.12L 261.51 259.21L 274.63 263.62L 286 269.25L 304.99 277.27L 320.51 285.08L 333.63 290.68L 345 276.75L 363.99 281.96L 379.51 290.02L 392.63 293.05L 404 297.92L 422.99 304.57L 438.51 309.72L 451.63 310.86L 463 323.46L 481.99 328.57L 497.51 331.63L 510.63 333.89L 522 335.7L 540.99 338.33L 556.51 340.26L 569.63 341.55L 581 341.97L 599.99 343.88L 615.51 344.74L 628.63 345.94L 640 346.46L 658.99 347.29L 674.51 347.84L 687.63 348.24L 699 348.43L 717.99 348.83L 733.51 349.15L 746.63 349.32L 758 349.33L 776.99 349.65L 792.51 349.81L 805.63 349.89L 817 349.97L 835.99 344.08L 851.51 349.04L 864.63 348.74L 876 338.69L 894.99 331.37L 910.51 337.95L 923.63 339L 935 339.05L 953.99 338.06L 969.51 349.55L 982.63 329.71L 994 337.69L 1013 350.58L 1028.5 338.93L 1041.6 338L 1053 329.24L 1072 338.86L 1087.5 321.15L 1100.6 320.52L 1112 323.74L 1131 318.55L 1146.5 319.44L 1159.6 324L 1171 332.2L 1190 320.96L 1205.5 321.29L 1218.6 325.41L 1230 337.8" fill="none" stroke-width="0.5" stroke="#000000" stroke-opacity="0.30196" stroke-linecap="round" stroke-linejoin="round"/>
  </g>
  <path d="M 74 33 L 74 88 L 428 88 L 428 33 z" fill="#FFFFFF" fill-opacity="0.7019607843137254" stroke-width="0.5" stroke="#000000" stroke-opacity="1" stroke-linecap="round" stroke-linejoin="round"/>
  <path d="M 88 52 L 108 52" fill="none" stroke-width="4" stroke="#FF3B30" stroke-opacity="1" stroke-linecap="round" stroke-linejoin="round"/>
  <path d="M 88 52 L 108 52" fill="none" stroke-width="0.5" stroke="#000000" stroke-opacity="0.30196" stroke-linecap="round" stroke-linejoin="round"/>
  <text x="119" y="56.17" font-family="Menlo" font-size="12" font-weight="normal" font-style="normal" fill="#000000" fill-opacity="1">Array&lt;Int&gt; append, reserving capacity</text>
  <path d="M 88 69 L 108 69" fill="none" stroke-width="4" stroke="#007AFF" stroke-opacity="1" stroke-linecap="round" stroke-linejoin="round"/>
  <path d="M 88 69 L 108 69" fill="none" stroke-width="0.5" stroke="#000000" stroke-opacity="0.30196" stroke-linecap="round" stroke-linejoin="round"/>
  <text x="119" y="73.17" font-family="Menlo" font-size="12" font-weight="normal" font-style="normal" fill="#000000" fill-opacity="1">TreeArray&lt;Int&gt; append, reserving capacity</text>
  <path d="M 50 9 L 50 441 L 1230 441 L 1230 9 z" fill="none" stroke-width="0.5" stroke="#000000" stroke-opacity="1" stroke-linecap="round" stroke-linejoin="round"/>
</svg>
