<!DOCTYPE svg PUBLIC "-//W3C//DTD SVG 1.1//EN" "http://www.w3.org/Graphics/SVG/1.1/DTD/svg11.dtd">
<svg width="1280.0px" height="480.0px" viewBox="0.0 0.0 1280.0 480.0" xmlns="http://www.w3.org/2000/svg" xmlns:xlink="http://www.w3.org/1999/xlink" version="1.1">
  <path d="M 0 0 L 0 480 L 1280 480 L 1280 0 z" fill="#FFFFFF" fill-opacity="1.0" stroke="none"/>
  <text x="50" y="468.7" font-family="Helvetica" font-size="10" font-weight="normal" font-style="normal" fill="#000000" fill-opacity="1">Average per-element processing time over input size (bands: min, mean, mean + 2stddev)</text>
  <a xlink:href="https://github.com/apple/swift-collections-benchmark"><text x="1107" y="468.7" font-family="Helvetica" font-size="10" font-weight="normal" font-style="normal" fill="#000000" fill-opacity="1">swift-collections-benchmark</text></a>
  <path d="M 50 9 L 50 441" fill="none" stroke-width="0.75" stroke="#000000" stroke-opacity="0.49804" stroke-linecap="butt" stroke-linejoin="round"/>
  <text x="47" y="453.7" font-family="Helvetica" font-size="10" font-weight="normal" font-style="normal" fill="#000000" fill-opacity="1">1</text>
  <path d="M 109 9 L 109 441" fill="none" stroke-width="0.75" stroke="#000000" stroke-opacity="0.49804" stroke-linecap="butt" stroke-linejoin="round"/>
  <text x="106" y="453.7" font-family="Helvetica" font-size="10" font-weight="normal" font-style="normal" fill="#000000" fill-opacity="1">2</text>
  <path d="M 168 9 L 168 441" fill="none" stroke-width="0.75" stroke="#000000" stroke-opacity="0.49804" stroke-linecap="butt" stroke-linejoin="round"/>
  <text x="165" y="453.7" font-family="Helvetica" font-size="10" font-weight="normal" font-style="normal" fill="#000000" fill-opacity="1">4</text>
  <path d="M 227 9 L 227 441" fill="none" stroke-width="0.75" stroke="#000000" stroke-opacity="0.49804" stroke-linecap="butt" stroke-linejoin="round"/>
  <text x="224" y="453.7" font-family="Helvetica" font-size="10" font-weight="normal" font-style="normal" fill="#000000" fill-opacity="1">8</text>
  <path d="M 286 9 L 286 441" fill="none" stroke-width="0.75" stroke="#000000" stroke-opacity="0.49804" stroke-linecap="butt" stroke-linejoin="round"/>
  <text x="280" y="453.7" font-family="Helvetica" font-size="10" font-weight="normal" font-style="normal" fill="#000000" fill-opacity="1">16</text>
  <path d="M 345 9 L 345 441" fill="none" stroke-width="0.75" stroke="#000000" stroke-opacity="0.49804" stroke-linecap="butt" stroke-linejoin="round"/>
  <text x="339" y="453.7" font-family="Helvetica" font-size="10" font-weight="normal" font-style="normal" fill="#000000" fill-opacity="1">32</text>
  <path d="M 404 9 L 404 441" fill="none" stroke-width="0.75" stroke="#000000" stroke-opacity="0.49804" stroke-linecap="butt" stroke-linejoin="round"/>
  <text x="398" y="453.7" font-family="Helvetica" font-size="10" font-weight="normal" font-style="normal" fill="#000000" fill-opacity="1">64</text>
  <path d="M 463 9 L 463 441" fill="none" stroke-width="0.75" stroke="#000000" stroke-opacity="0.49804" stroke-linecap="butt" stroke-linejoin="round"/>
  <text x="454.5" y="453.7" font-family="Helvetica" font-size="10" font-weight="normal" font-style="normal" fill="#000000" fill-opacity="1">128</text>
  <path d="M 522 9 L 522 441" fill="none" stroke-width="0.75" stroke="#000000" stroke-opacity="0.49804" stroke-linecap="butt" stroke-linejoin="round"/>
  <text x="513.5" y="453.7" font-family="Helvetica" font-size="10" font-weight="normal" font-style="normal" fill="#000000" fill-opacity="1">256</text>
  <path d="M 581 9 L 581 441" fill="none" stroke-width="0.75" stroke="#000000" stroke-opacity="0.49804" stroke-linecap="butt" stroke-linejoin="round"/>
  <text x="572.5" y="453.7" font-family="Helvetica" font-size="10" font-weight="normal" font-style="normal" fill="#000000" fill-opacity="1">512</text>
  <path d="M 640 9 L 640 441" fill="none" stroke-width="0.75" stroke="#000000" stroke-opacity="0.49804" stroke-linecap="butt" stroke-linejoin="round"/>
  <text x="634.5" y="453.7" font-family="Helvetica" font-size="10" font-weight="normal" font-style="normal" fill="#000000" fill-opacity="1">1k</text>
  <path d="M 699 9 L 699 441" fill="none" stroke-width="0.75" stroke="#000000" stroke-opacity="0.49804" stroke-linecap="butt" stroke-linejoin="round"/>
  <text x="693.5" y="453.7" font-family="Helvetica" font-size="10" font-weight="normal" font-style="normal" fill="#000000" fill-opacity="1">2k</text>
  <path d="M 758 9 L 758 441" fill="none" stroke-width="0.75" stroke="#000000" stroke-opacity="0.49804" stroke-linecap="butt" stroke-linejoin="round"/>
  <text x="752.5" y="453.7" font-family="Helvetica" font-size="10" font-weight="normal" font-style="normal" fill="#000000" fill-opacity="1">4k</text>
  <path d="M 817 9 L 817 441" fill="none" stroke-width="0.75" stroke="#000000" stroke-opacity="0.49804" stroke-linecap="butt" stroke-linejoin="round"/>
  <text x="811.5" y="453.7" font-family="Helvetica" font-size="10" font-weight="normal" font-style="normal" fill="#000000" fill-opacity="1">8k</text>
  <path d="M 876 9 L 876 441" fill="none" stroke-width="0.75" stroke="#000000" stroke-opacity="0.49804" stroke-linecap="butt" stroke-linejoin="round"/>
  <text x="867.5" y="453.7" font-family="Helvetica" font-size="10" font-weight="normal" font-style="normal" fill="#000000" fill-opacity="1">16k</text>
  <path d="M 935 9 L 935 441" fill="none" stroke-width="0.75" stroke="#000000" stroke-opacity="0.49804" stroke-linecap="butt" stroke-linejoin="round"/>
  <text x="926.5" y="453.7" font-family="Helvetica" font-size="10" font-weight="normal" font-style="normal" fill="#000000" fill-opacity="1">32k</text>
  <path d="M 994 9 L 994 441" fill="none" stroke-width="0.75" stroke="#000000" stroke-opacity="0.49804" stroke-linecap="butt" stroke-linejoin="round"/>
  <text x="985.5" y="453.7" font-family="Helvetica" font-size="10" font-weight="normal" font-style="normal" fill="#000000" fill-opacity="1">64k</text>
  <path d="M 1053 9 L 1053 441" fill="none" stroke-width="0.75" stroke="#000000" stroke-opacity="0.49804" stroke-linecap="butt" stroke-linejoin="round"/>
  <text x="1042" y="453.7" font-family="Helvetica" font-size="10" font-weight="normal" font-style="normal" fill="#000000" fill-opacity="1">128k</text>
  <path d="M 1112 9 L 1112 441" fill="none" stroke-width="0.75" stroke="#000000" stroke-opacity="0.49804" stroke-linecap="butt" stroke-linejoin="round"/>
  <text x="1101" y="453.7" font-family="Helvetica" font-size="10" font-weight="normal" font-style="normal" fill="#000000" fill-opacity="1">256k</text>
  <path d="M 1171 9 L 1171 441" fill="none" stroke-width="0.75" stroke="#000000" stroke-opacity="0.49804" stroke-linecap="butt" stroke-linejoin="round"/>
  <text x="1160" y="453.7" font-family="Helvetica" font-size="10" font-weight="normal" font-style="normal" fill="#000000" fill-opacity="1">512k</text>
  <path d="M 1230 9 L 1230 441" fill="none" stroke-width="0.75" stroke="#000000" stroke-opacity="0.49804" stroke-linecap="butt" stroke-linejoin="round"/>
  <text x="1223" y="453.7" font-family="Helvetica" font-size="10" font-weight="normal" font-style="normal" fill="#000000" fill-opacity="1">1M</text>
  <path d="M 50 441 L 1230 441" fill="none" stroke-width="0.75" stroke="#000000" stroke-opacity="0.49804" stroke-linecap="butt" stroke-linejoin="round"/>
  <text x="16" y="442.7" font-family="Helvetica" font-size="10" font-weight="normal" font-style="normal" fill="#000000" fill-opacity="1">100 ps</text>
  <text x="1236" y="442.7" font-family="Helvetica" font-size="10" font-weight="normal" font-style="normal" fill="#000000" fill-opacity="1">100 ps</text>
  <path d="M 50 333 L 1230 333" fill="none" stroke-width="0.75" stroke="#000000" stroke-opacity="0.49804" stroke-linecap="butt" stroke-linejoin="round"/>
  <text x="27" y="334.7" font-family="Helvetica" font-size="10" font-weight="normal" font-style="normal" fill="#000000" fill-opacity="1">1 ns</text>
  <text x="1236" y="334.7" font-family="Helvetica" font-size="10" font-weight="normal" font-style="normal" fill="#000000" fill-opacity="1">1 ns</text>
  <path d="M 50 225 L 1230 225" fill="none" stroke-width="0.75" stroke="#000000" stroke-opacity="0.49804" stroke-linecap="butt" stroke-linejoin="round"/>
  <text x="21" y="226.7" font-family="Helvetica" font-size="10" font-weight="normal" font-style="normal" fill="#000000" fill-opacity="1">10 ns</text>
  <text x="1236" y="226.7" font-family="Helvetica" font-size="10" font-weight="normal" font-style="normal" fill="#000000" fill-opacity="1">10 ns</text>
  <path d="M 50 117 L 1230 117" fill="none" stroke-width="0.75" stroke="#000000" stroke-opacity="0.49804" stroke-linecap="butt" stroke-linejoin="round"/>
  <text x="16" y="118.7" font-family="Helvetica" font-size="10" font-weight="normal" font-style="normal" fill="#000000" fill-opacity="1">100 ns</text>
  <text x="1236" y="118.7" font-family="Helvetica" font-size="10" font-weight="normal" font-style="normal" fill="#000000" fill-opacity="1">100 ns</text>
  <path d="M 50 9 L 1230 9" fill="none" stroke-width="0.75" stroke="#000000" stroke-opacity="0.49804" stroke-linecap="butt" stroke-linejoin="round"/>
  <text x="26" y="10.7" font-family="Helvetica" font-size="10" font-weight="normal" font-style="normal" fill="#000000" fill-opacity="1">1 µs</text>
  <text x="1236" y="10.7" font-family="Helvetica" font-size="10" font-weight="normal" font-style="normal" fill="#000000" fill-opacity="1">1 µs</text>
  <path d="M 50 408.49 L 1230 408.49" fill="none" stroke-width="0.5" stroke="#000000" stroke-opacity="0.25882" stroke-linecap="butt" stroke-linejoin="round" stroke-dasharray="6 3" stroke-dashoffset="0"/>
  <path d="M 50 375.98 L 1230 375.98" fill="none" stroke-width="0.5" stroke="#000000" stroke-opacity="0.25882" stroke-linecap="butt" stroke-linejoin="round" stroke-dasharray="6 3" stroke-dashoffset="0"/>
  <path d="M 50 343.47 L 1230 343.47" fill="none" stroke-width="0.5" stroke="#000000" stroke-opacity="0.25882" stroke-linecap="butt" stroke-linejoin="round" stroke-dasharray="6 3" stroke-dashoffset="0"/>
  <path d="M 50 310.96 L 1230 310.96" fill="none" stroke-width="0.5" stroke="#000000" stroke-opacity="0.25882" stroke-linecap="butt" stroke-linejoin="round" stroke-dasharray="6 3" stroke-dashoffset="0"/>
  <path d="M 50 278.44 L 1230 278.44" fill="none" stroke-width="0.5" stroke="#000000" stroke-opacity="0.25882" stroke-linecap="butt" stroke-linejoin="round" stroke-dasharray="6 3" stroke-dashoffset="0"/>
  <path d="M 50 245.93 L 1230 245.93" fill="none" stroke-width="0.5" stroke="#000000" stroke-opacity="0.25882" stroke-linecap="butt" stroke-linejoin="round" stroke-dasharray="6 3" stroke-dashoffset="0"/>
  <path d="M 50 213.42 L 1230 213.42" fill="none" stroke-width="0.5" stroke="#000000" stroke-opacity="0.25882" stroke-linecap="butt" stroke-linejoin="round" stroke-dasharray="6 3" stroke-dashoffset="0"/>
  <path d="M 50 180.91 L 1230 180.91" fill="none" stroke-width="0.5" stroke="#000000" stroke-opacity="0.25882" stroke-linecap="butt" stroke-linejoin="round" stroke-dasharray="6 3" stroke-dashoffset="0"/>
  <path d="M 50 148.4 L 1230 148.4" fill="none" stroke-width="0.5" stroke="#000000" stroke-opacity="0.25882" stroke-linecap="butt" stroke-linejoin="round" stroke-dasharray="6 3" stroke-dashoffset="0"/>
  <path d="M 50 115.89 L 1230 115.89" fill="none" stroke-width="0.5" stroke="#000000" stroke-opacity="0.25882" stroke-linecap="butt" stroke-linejoin="round" stroke-dasharray="6 3" stroke-dashoffset="0"/>
  <path d="M 50 83.376 L 1230 83.376" fill="none" stroke-width="0.5" stroke="#000000" stroke-opacity="0.25882" stroke-linecap="butt" stroke-linejoin="round" stroke-dasharray="6 3" stroke-dashoffset="0"/>
  <path d="M 50 50.865 L 1230 50.865" fill="none" stroke-width="0.5" stroke="#000000" stroke-opacity="0.25882" stroke-linecap="butt" stroke-linejoin="round" stroke-dasharray="6 3" stroke-dashoffset="0"/>
  <path d="M 50 18.354 L 1230 18.354" fill="none" stroke-width="0.5" stroke="#000000" stroke-opacity="0.25882" stroke-linecap="butt" stroke-linejoin="round" stroke-dasharray="6 3" stroke-dashoffset="0"/>
  <path d="M 74 33 L 74 105 L 428 105 L 428 33 z" fill="#FFFFFF" fill-opacity="1.0" stroke="none"/>
  <clipPath id="clip-0">
    <path d="M 50 9 L 50 441 L 1230 441 L 1230 9 z"/>
  </clipPath>
  <g clip-path="url(#clip-0)">
    <path d="M 50 120.47L 109 155.82L 143.51 174.56L 168 188.07L 186.99 197.43L 202.51 204.5L 215.63 210.7L 227 216.13L 245.99 224.24L 261.51 230.75L 274.63 233.67L 286 233.76L 304.99 245L 320.51 251.29L 333.63 243.3L 345 249.45L 363.99 255.7L 379.51 259.15L 392.63 263.16L 404 182.57L 422.99 271.53L 438.51 274.01L 451.63 276.53L 463 283.21L 481.99 285.6L 497.51 287.22L 510.63 288.51L 522 289.45L 540.99 290.81L 556.51 291.74L 569.63 292.42L 581 292.94L 599.99 293.64L 615.51 294.14L 628.63 294.51L 640 294.77L 658.99 295.15L 674.51 295.4L 687.63 295.59L 699 295.71L 717.99 295.89L 733.51 296.01L 746.63 296.13L 758 296.19L 776.99 296.26L 792.51 296.32L 805.63 296.39L 817 296.31L 835.99 296.31L 851.51 296.38L 864.63 296.47L 876 296.47L 894.99 296.33L 910.51 296.41L 923.63 296.21L 935 296.43L 953.99 296.55L 969.51 296.39L 982.63 296.57L 994 296.59L 1013 295.61L 1028.5 293.92L 1041.6 296.28L 1053 296.08L 1072 296.63L 1087.5 288.5L 1100.6 288.64L 1112 289.33L 1131 287.75L 1146.5 288.87L 1159.6 285.45L 1171 288.56L 1190 287.7L 1205.5 288.29L 1218.6 286.85L 1230 295.48L 1230 296.21L 1218.6 288.54L 1205.5 289.53L 1190 289.66L 1171 291.18L 1159.6 288.43L 1146.5 289.21L 1131 291.26L 1112 289.35L 1100.6 291.21L 1087.5 289.13L 1072 296.66L 1053 296.63L 1041.6 296.57L 1028.5 296.57L 1013 296.63L 994 296.61L 982.63 296.65L 969.51 296.62L 953.99 296.6L 935 296.6L 923.63 296.59L 910.51 296.55L 894.99 296.45L 876 296.55L 864.63 296.48L 851.51 296.48L 835.99 296.34L 817 296.36L 805.63 296.4L 792.51 296.34L 776.99 296.29L 758 296.19L 746.63 296.13L 733.51 296.04L 717.99 295.91L 699 295.73L 687.63 295.59L 674.51 295.4L 658.99 295.15L 640 294.77L 628.63 294.51L 615.51 294.15L 599.99 293.67L 581 292.94L 569.63 292.42L 556.51 291.74L 540.99 290.81L 522 289.45L 510.63 288.51L 497.51 287.29L 481.99 285.6L 463 283.21L 451.63 277.64L 438.51 274.79L 422.99 271.53L 404 268.32L 392.63 265.32L 379.51 262.67L 363.99 255.88L 345 249.45L 333.63 248.29L 320.51 251.55L 304.99 247.04L 286 238.82L 274.63 236.31L 261.51 231.45L 245.99 224.61L 227 216.13L 215.63 211.09L 202.51 204.91L 186.99 197.43L 168 188.07L 143.51 174.57L 109 156.68L 50 126.02" fill="#28CD41" fill-opacity="0.30196078431372547" stroke="none"/>
    <path d="M 50 85.765L 109 103.91L 143.51 112.56L 168 115.52L 186.99 118.24L 202.51 121.74L 215.63 119.64L 227 103.92L 245.99 113.52L 261.51 113.18L 274.63 114.01L 286 114.28L 304.99 115.86L 320.51 114.59L 333.63 114.28L 345 114.42L 363.99 113.65L 379.51 111.24L 392.63 108.78L 404 110.98L 422.99 110.32L 438.51 109.45L 451.63 109.04L 463 108.24L 481.99 107.38L 497.51 108.89L 510.63 105.1L 522 105.65L 540.99 104.27L 556.51 101.93L 569.63 100.21L 581 101.32L 599.99 99.856L 615.51 99.605L 628.63 98.866L 640 98.64L 658.99 97.75L 674.51 97.992L 687.63 94.782L 699 96.816L 717.99 95.457L 733.51 94.383L 746.63 94.882L 758 94.067L 776.99 92.603L 792.51 89.824L 805.63 89.124L 817 91.929L 835.99 88.349L 851.51 88.549L 864.63 86.658L 876 85.295L 894.99 87.573L 910.51 85.298L 923.63 86.091L 935 88.351L 953.99 88.734L 969.51 84.664L 982.63 84.541L 994 83.903L 1013 84.564L 1028.5 81.965L 1041.6 80.122L 1053 82.414L 1072 79.354L 1087.5 82.814L 1100.6 82.865L 1112 81.229L 1131 79.859L 1146.5 79.456L 1159.6 73.321L 1171 75.98L 1190 77.431L 1205.5 77.92L 1218.6 76.565L 1230 76.128L 1230 76.701L 1218.6 76.978L 1205.5 78.947L 1190 77.813L 1171 79.62L 1159.6 81.299L 1146.5 81.428L 1131 82.071L 1112 81.278L 1100.6 82.913L 1087.5 83.923L 1072 82.767L 1053 83.771L 1041.6 84.778L 1028.5 84.771L 1013 84.676L 994 86.1L 982.63 86.913L 969.51 87.915L 953.99 88.961L 935 88.856L 923.63 89.752L 910.51 87.504L 894.99 87.889L 876 90.222L 864.63 91.637L 851.51 91.33L 835.99 91.519L 817 93.74L 805.63 93.055L 792.51 94.838L 776.99 93.152L 758 95.5L 746.63 96.506L 733.51 95.958L 717.99 97.997L 699 98.358L 687.63 101.04L 674.51 99.557L 658.99 101.42L 640 100.28L 628.63 103.61L 615.51 101.89L 599.99 103.92L 581 104.65L 569.63 107.72L 556.51 106.29L 540.99 104.94L 522 106.85L 510.63 107.31L 497.51 109.39L 481.99 109.6L 463 109.17L 451.63 109.6L 438.51 110.79L 422.99 110.62L 404 112.52L 392.63 116.44L 379.51 117.91L 363.99 113.77L 345 114.8L 333.63 115.29L 320.51 116.69L 304.99 116L 286 114.97L 274.63 114.29L 261.51 114.31L 245.99 115.07L 227 105.68L 215.63 119.7L 202.51 121.8L 186.99 118.55L 168 117.84L 143.51 115.78L 109 106.53L 50 90.198" fill="#007AFF" fill-opacity="0.30196078431372547" stroke="none"/>
    <path d="M 50 139.49L 109 174.78L 143.51 192.16L 168 202.94L 186.99 216.81L 202.51 223.19L 215.63 231.97L 227 238.49L 245.99 248.64L 261.51 256.23L 274.63 262.54L 286 267.88L 304.99 276.85L 320.51 284.5L 333.63 290.3L 345 273.34L 363.99 280.19L 379.51 282.87L 392.63 292.75L 404 296.86L 422.99 303.27L 438.51 306.79L 451.63 308.93L 463 320.73L 481.99 328.35L 497.51 331.47L 510.63 333.76L 522 335.62L 540.99 338.3L 556.51 339.94L 569.63 341.5L 581 342.57L 599.99 343.62L 615.51 345.04L 628.63 345.83L 640 346.42L 658.99 346.06L 674.51 347.85L 687.63 348.25L 699 348.13L 717.99 348.58L 733.51 349.29L 746.63 349.35L 758 349.33L 776.99 349.59L 792.51 349.78L 805.63 349.83L 817 349.92L 835.99 332.11L 851.51 322.54L 864.63 348.43L 876 329.36L 894.99 328.89L 910.51 320.91L 923.63 316.16L 935 324.37L 953.99 316.7L 969.51 316.63L 982.63 329.03L 994 326.69L 1013 329.04L 1028.5 319.1L 1041.6 317.95L 1053 321.62L 1072 315.65L 1087.5 311.84L 1100.6 313.46L 1112 311.88L 1131 307.75L 1146.5 333.96L 1159.6 312.25L 1171 320.26L 1190 292.07L 1205.5 302.27L 1218.6 305.68L 1230 316.31L 1230 349.52L 1218.6 321.22L 1205.5 324.65L 1190 316.69L 1171 334.25L 1159.6 319.27L 1146.5 339.06L 1131 326.7L 1112 313.02L 1100.6 331.84L 1087.5 327.42L 1072 350.67L 1053 350.63L 1041.6 350.61L 1028.5 344.74L 1013 329.4L 994 329.96L 982.63 329.84L 969.51 350.23L 953.99 350.15L 935 337.53L 923.63 350.29L 910.51 341.6L 894.99 349.06L 876 329.89L 864.63 349.89L 851.51 349.6L 835.99 349.46L 817 349.98L 805.63 349.97L 792.51 349.81L 776.99 349.74L 758 349.36L 746.63 349.35L 733.51 349.29L 717.99 348.97L 699 348.54L 687.63 348.25L 674.51 347.85L 658.99 348.64L 640 346.47L 628.63 345.94L 615.51 345.17L 599.99 344.58L 581 342.57L 569.63 341.5L 556.51 340.17L 540.99 338.3L 522 335.62L 510.63 333.76L 497.51 331.48L 481.99 328.35L 463 323.27L 451.63 308.94L 438.51 309.78L 422.99 303.52L 404 297.13L 392.63 292.75L 379.51 287.95L 363.99 283.98L 345 273.34L 333.63 290.3L 320.51 284.5L 304.99 277.42L 286 268.47L 274.63 263.14L 261.51 256.23L 245.99 248.64L 227 238.49L 215.63 233.22L 202.51 225.66L 186.99 217.44L 168 205.34L 143.51 192.16L 109 174.79L 50 142.62" fill="#FF3B30" fill-opacity="0.30196078431372547" stroke="none"/>
    <path d="M 50 124.51L 109 156.45L 143.51 174.57L 168 188.07L 186.99 197.43L 202.51 204.8L 215.63 210.99L 227 216.13L 245.99 224.51L 261.51 231.26L 274.63 235.61L 286 237.45L 304.99 246.5L 320.51 251.48L 333.63 246.94L 345 249.45L 363.99 255.83L 379.51 261.73L 392.63 264.74L 404 227.96L 422.99 271.53L 438.51 274.59L 451.63 277.35L 463 283.21L 481.99 285.6L 497.51 287.28L 510.63 288.51L 522 289.45L 540.99 290.81L 556.51 291.74L 569.63 292.42L 581 292.94L 599.99 293.66L 615.51 294.15L 628.63 294.51L 640 294.77L 658.99 295.15L 674.51 295.4L 687.63 295.59L 699 295.72L 717.99 295.91L 733.51 296.04L 746.63 296.13L 758 296.19L 776.99 296.29L 792.51 296.33L 805.63 296.4L 817 296.35L 835.99 296.33L 851.51 296.45L 864.63 296.47L 876 296.53L 894.99 296.42L 910.51 296.51L 923.63 296.49L 935 296.56L 953.99 296.59L 969.51 296.56L 982.63 296.63L 994 296.6L 1013 296.36L 1028.5 295.86L 1041.6 296.5L 1053 296.48L 1072 296.65L 1087.5 288.97L 1100.6 290.52L 1112 289.34L 1131 290.32L 1146.5 289.12L 1159.6 287.63L 1171 290.48L 1190 289.14L 1205.5 289.2L 1218.6 288.09L 1230 296.02" fill="none" stroke-width="4" stroke="#28CD41" stroke-opacity="1" stroke-linecap="round" stroke-linejoin="round"/>
    <path d="M 50 88.999L 109 105.84L 143.51 114.92L 168 117.22L 186.99 118.47L 202.51 121.78L 215.63 119.69L 227 105.21L 245.99 114.66L 261.51 114.01L 274.63 114.22L 286 114.79L 304.99 115.97L 320.51 116.13L 333.63 115.02L 345 114.7L 363.99 113.74L 379.51 116.07L 392.63 114.32L 404 112.12L 422.99 110.54L 438.51 110.44L 451.63 109.46L 463 108.92L 481.99 109.01L 497.51 109.26L 510.63 106.72L 522 106.53L 540.99 104.76L 556.51 105.11L 569.63 105.64L 581 103.76L 599.99 102.82L 615.51 101.28L 628.63 102.32L 640 99.847L 658.99 100.43L 674.51 99.143L 687.63 99.323L 699 97.95L 717.99 97.32L 733.51 95.541L 746.63 96.076L 758 95.121L 776.99 93.008L 792.51 93.476L 805.63 91.996L 817 93.26L 835.99 90.67L 851.51 90.588L 864.63 90.284L 876 88.885L 894.99 87.806L 910.51 86.918L 923.63 88.768L 935 88.724L 953.99 88.902L 969.51 87.044L 982.63 86.282L 994 85.516L 1013 84.646L 1028.5 84.021L 1041.6 83.516L 1053 83.413L 1072 81.851L 1087.5 83.631L 1100.6 82.901L 1112 81.265L 1131 81.483L 1146.5 80.905L 1159.6 79.081L 1171 78.642L 1190 77.713L 1205.5 78.677L 1218.6 76.87L 1230 76.55" fill="none" stroke-width="4" stroke="#007AFF" stroke-opacity="1" stroke-linecap="round" stroke-linejoin="round"/>
    <path d="M 50 141.78L 109 174.79L 143.51 192.16L 168 204.7L 186.99 217.27L 202.51 225L 215.63 232.89L 227 238.49L 245.99 248.64L 261.51 256.23L 274.63 262.98L 286 268.32L 304.99 277.27L 320.51 284.5L 333.63 290.3L 345 273.34L 363.99 282.96L 379.51 286.57L 392.63 292.75L 404 297.06L 422.99 303.45L 438.51 308.98L 451.63 308.94L 463 322.6L 481.99 328.35L 497.51 331.48L 510.63 333.76L 522 335.62L 540.99 338.3L 556.51 340.11L 569.63 341.5L 581 342.57L 599.99 344.33L 615.51 345.14L 628.63 345.91L 640 346.46L 658.99 347.95L 674.51 347.85L 687.63 348.25L 699 348.43L 717.99 348.87L 733.51 349.29L 746.63 349.35L 758 349.35L 776.99 349.7L 792.51 349.8L 805.63 349.93L 817 349.97L 835.99 344.27L 851.51 340.9L 864.63 349.51L 876 329.75L 894.99 342.9L 910.51 335.26L 923.63 338.73L 935 333.72L 953.99 338.87L 969.51 338.89L 982.63 329.63L 994 329.08L 1013 329.31L 1028.5 336.58L 1041.6 339.66L 1053 341.17L 1072 338.73L 1087.5 322.82L 1100.6 326.3L 1112 312.72L 1131 320.97L 1146.5 337.67L 1159.6 317.33L 1171 330.18L 1190 308.92L 1205.5 317.7L 1218.6 316.64L 1230 338.34" fill="none" stroke-width="4" stroke="#FF3B30" stroke-opacity="1" stroke-linecap="round" stroke-linejoin="round"/>
    <path d="M 50 124.51L 109 156.45L 143.51 174.57L 168 188.07L 186.99 197.43L 202.51 204.8L 215.63 210.99L 227 216.13L 245.99 224.51L 261.51 231.26L 274.63 235.61L 286 237.45L 304.99 246.5L 320.51 251.48L 333.63 246.94L 345 249.45L 363.99 255.83L 379.51 261.73L 392.63 264.74L 404 227.96L 422.99 271.53L 438.51 274.59L 451.63 277.35L 463 283.21L 481.99 285.6L 497.51 287.28L 510.63 288.51L 522 289.45L 540.99 290.81L 556.51 291.74L 569.63 292.42L 581 292.94L 599.99 293.66L 615.51 294.15L 628.63 294.51L 640 294.77L 658.99 295.15L 674.51 295.4L 687.63 295.59L 699 295.72L 717.99 295.91L 733.51 296.04L 746.63 296.13L 758 296.19L 776.99 296.29L 792.51 296.33L 805.63 296.4L 817 296.35L 835.99 296.33L 851.51 296.45L 864.63 296.47L 876 296.53L 894.99 296.42L 910.51 296.51L 923.63 296.49L 935 296.56L 953.99 296.59L 969.51 296.56L 982.63 296.63L 994 296.6L 1013 296.36L 1028.5 295.86L 1041.6 296.5L 1053 296.48L 1072 296.65L 1087.5 288.97L 1100.6 290.52L 1112 289.34L 1131 290.32L 1146.5 289.12L 1159.6 287.63L 1171 290.48L 1190 289.14L 1205.5 289.2L 1218.6 288.09L 1230 296.02" fill="none" stroke-width="0.5" stroke="#000000" stroke-opacity="0.30196" stroke-linecap="round" stroke-linejoin="round"/>
    <path d="M 50 88.999L 109 105.84L 143.51 114.92L 168 117.22L 186.99 118.47L 202.51 121.78L 215.63 119.69L 227 105.21L 245.99 114.66L 261.51 114.01L 274.63 114.22L 286 114.79L 304.99 115.97L 320.51 116.13L 333.63 115.02L 345 114.7L 363.99 113.74L 379.51 116.07L 392.63 114.32L 404 112.12L 422.99 110.54L 438.51 110.44L 451.63 109.46L 463 108.92L 481.99 109.01L 497.51 109.26L 510.63 106.72L 522 106.53L 540.99 104.76L 556.51 105.11L 569.63 105.64L 581 103.76L 599.99 102.82L 615.51 101.28L 628.63 102.32L 640 99.847L 658.99 100.43L 674.51 99.143L 687.63 99.323L 699 97.95L 717.99 97.32L 733.51 95.541L 746.63 96.076L 758 95.121L 776.99 93.008L 792.51 93.476L 805.63 91.996L 817 93.26L 835.99 90.67L 851.51 90.588L 864.63 90.284L 876 88.885L 894.99 87.806L 910.51 86.918L 923.63 88.768L 935 88.724L 953.99 88.902L 969.51 87.044L 982.63 86.282L 994 85.516L 1013 84.646L 1028.5 84.021L 1041.6 83.516L 1053 83.413L 1072 81.851L 1087.5 83.631L 1100.6 82.901L 1112 81.265L 1131 81.483L 1146.5 80.905L 1159.6 79.081L 1171 78.642L 1190 77.713L 1205.5 78.677L 1218.6 76.87L 1230 76.55" fill="none" stroke-width="0.5" stroke="#000000" stroke-opacity="0.30196" stroke-linecap="round" stroke-linejoin="round"/>
    <path d="M 50 141.78L 109 174.79L 143.51 192.16L 168 204.7L 186.99 217.27L 202.51 225L 215.63 232.89L 227 238.49L 245.99 248.64L 261.51 256.23L 274.63 262.98L 286 268.32L 304.99 277.27L 320.51 284.5L 333.63 290.3L 345 273.34L 363.99 282.96L 379.51 286.57L 392.63 292.75L 404 297.06L 422.99 303.45L 438.51 308.98L 451.63 308.94L 463 322.6L 481.99 328.35L 497.51 331.48L 510.63 333.76L 522 335.62L 540.99 338.3L 556.51 340.11L 569.63 341.5L 581 342.57L 599.99 344.33L 615.51 345.14L 628.63 345.91L 640 346.46L 658.99 347.95L 674.51 347.85L 687.63 348.25L 699 348.43L 717.99 348.87L 733.51 349.29L 746.63 349.35L 758 349.35L 776.99 349.7L 792.51 349.8L 805.63 349.93L 817 349.97L 835.99 344.27L 851.51 340.9L 864.63 349.51L 876 329.75L 894.99 342.9L 910.51 335.26L 923.63 338.73L 935 333.72L 953.99 338.87L 969.51 338.89L 982.63 329.63L 994 329.08L 1013 329.31L 1028.5 336.58L 1041.6 339.66L 1053 341.17L 1072 338.73L 1087.5 322.82L 1100.6 326.3L 1112 312.72L 1131 320.97L 1146.5 337.67L 1159.6 317.33L 1171 330.18L 1190 308.92L 1205.5 317.7L 1218.6 316.64L 1230 338.34" fill="none" stroke-width="0.5" stroke="#000000" stroke-opacity="0.30196" stroke-linecap="round" stroke-linejoin="round"/>
  </g>
  <path d="M 74 33 L 74 105 L 428 105 L 428 33 z" fill="#FFFFFF" fill-opacity="0.7019607843137254" stroke-width="0.5" stroke="#000000" stroke-opacity="1" stroke-linecap="round" stroke-linejoin="round"/>
  <path d="M 88 52 L 108 52" fill="none" stroke-width="4" stroke="#FF3B30" stroke-opacity="1" stroke-linecap="round" stroke-linejoin="round"/>
  <path d="M 88 52 L 108 52" fill="none" stroke-width="0.5" stroke="#000000" stroke-opacity="0.30196" stroke-linecap="round" stroke-linejoin="round"/>
  <text x="119" y="56.17" font-family="Menlo" font-size="12" font-weight="normal" font-style="normal" fill="#000000" fill-opacity="1">Array&lt;Int&gt; append, reserving capacity</text>
  <path d="M 88 69 L 108 69" fill="none" stroke-width="4" stroke="#007AFF" stroke-opacity="1" stroke-linecap="round" stroke-linejoin="round"/>
  <path d="M 88 69 L 108 69" fill="none" stroke-width="0.5" stroke="#000000" stroke-opacity="0.30196" stroke-linecap="round" stroke-linejoin="round"/>
  <text x="119" y="73.17" font-family="Menlo" font-size="12" font-weight="normal" font-style="normal" fill="#000000" fill-opacity="1">TreeArray&lt;Int&gt; append, reserving capacity</text>
  <path d="M 88 86 L 108 86" fill="none" stroke-width="4" stroke="#28CD41" stroke-opacity="1" stroke-linecap="round" stroke-linejoin="round"/>
  <path d="M 88 86 L 108 86" fill="none" stroke-width="0.5" stroke="#000000" stroke-opacity="0.30196" stroke-linecap="round" stroke-linejoin="round"/>
  <text x="119" y="90.17" font-family="Menlo" font-size="12" font-weight="normal" font-style="normal" fill="#000000" fill-opacity="1">Deque&lt;Int&gt; append, reserving capacity</text>
  <path d="M 50 9 L 50 441 L 1230 441 L 1230 9 z" fill="none" stroke-width="0.5" stroke="#000000" stroke-opacity="1" stroke-linecap="round" stroke-linejoin="round"/>
</svg>
