<!DOCTYPE svg PUBLIC "-//W3C//DTD SVG 1.1//EN" "http://www.w3.org/Graphics/SVG/1.1/DTD/svg11.dtd">
<svg width="1280.0px" height="480.0px" viewBox="0.0 0.0 1280.0 480.0" xmlns="http://www.w3.org/2000/svg" xmlns:xlink="http://www.w3.org/1999/xlink" version="1.1">
  <path d="M 0 0 L 0 480 L 1280 480 L 1280 0 z" fill="#FFFFFF" fill-opacity="1.0" stroke="none"/>
  <text x="50" y="468.7" font-family="Helvetica" font-size="10" font-weight="normal" font-style="normal" fill="#000000" fill-opacity="1">Average per-element processing time over input size (bands: min, mean, mean + 2stddev)</text>
  <a xlink:href="https://github.com/apple/swift-collections-benchmark"><text x="1107" y="468.7" font-family="Helvetica" font-size="10" font-weight="normal" font-style="normal" fill="#000000" fill-opacity="1">swift-collections-benchmark</text></a>
  <path d="M 50 9 L 50 441" fill="none" stroke-width="0.75" stroke="#000000" stroke-opacity="0.49804" stroke-linecap="butt" stroke-linejoin="round"/>
  <text x="47" y="453.7" font-family="Helvetica" font-size="10" font-weight="normal" font-style="normal" fill="#000000" fill-opacity="1">1</text>
  <path d="M 109 9 L 109 441" fill="none" stroke-width="0.75" stroke="#000000" stroke-opacity="0.49804" stroke-linecap="butt" stroke-linejoin="round"/>
  <text x="106" y="453.7" font-family="Helvetica" font-size="10" font-weight="normal" font-style="normal" fill="#000000" fill-opacity="1">2</text>
  <path d="M 168 9 L 168 441" fill="none" stroke-width="0.75" stroke="#000000" stroke-opacity="0.49804" stroke-linecap="butt" stroke-linejoin="round"/>
  <text x="165" y="453.7" font-family="Helvetica" font-size="10" font-weight="normal" font-style="normal" fill="#000000" fill-opacity="1">4</text>
  <path d="M 227 9 L 227 441" fill="none" stroke-width="0.75" stroke="#000000" stroke-opacity="0.49804" stroke-linecap="butt" stroke-linejoin="round"/>
  <text x="224" y="453.7" font-family="Helvetica" font-size="10" font-weight="normal" font-style="normal" fill="#000000" fill-opacity="1">8</text>
  <path d="M 286 9 L 286 441" fill="none" stroke-width="0.75" stroke="#000000" stroke-opacity="0.49804" stroke-linecap="butt" stroke-linejoin="round"/>
  <text x="280" y="453.7" font-family="Helvetica" font-size="10" font-weight="normal" font-style="normal" fill="#000000" fill-opacity="1">16</text>
  <path d="M 345 9 L 345 441" fill="none" stroke-width="0.75" stroke="#000000" stroke-opacity="0.49804" stroke-linecap="butt" stroke-linejoin="round"/>
  <text x="339" y="453.7" font-family="Helvetica" font-size="10" font-weight="normal" font-style="normal" fill="#000000" fill-opacity="1">32</text>
  <path d="M 404 9 L 404 441" fill="none" stroke-width="0.75" stroke="#000000" stroke-opacity="0.49804" stroke-linecap="butt" stroke-linejoin="round"/>
  <text x="398" y="453.7" font-family="Helvetica" font-size="10" font-weight="normal" font-style="normal" fill="#000000" fill-opacity="1">64</text>
  <path d="M 463 9 L 463 441" fill="none" stroke-width="0.75" stroke="#000000" stroke-opacity="0.49804" stroke-linecap="butt" stroke-linejoin="round"/>
  <text x="454.5" y="453.7" font-family="Helvetica" font-size="10" font-weight="normal" font-style="normal" fill="#000000" fill-opacity="1">128</text>
  <path d="M 522 9 L 522 441" fill="none" stroke-width="0.75" stroke="#000000" stroke-opacity="0.49804" stroke-linecap="butt" stroke-linejoin="round"/>
  <text x="513.5" y="453.7" font-family="Helvetica" font-size="10" font-weight="normal" font-style="normal" fill="#000000" fill-opacity="1">256</text>
  <path d="M 581 9 L 581 441" fill="none" stroke-width="0.75" stroke="#000000" stroke-opacity="0.49804" stroke-linecap="butt" stroke-linejoin="round"/>
  <text x="572.5" y="453.7" font-family="Helvetica" font-size="10" font-weight="normal" font-style="normal" fill="#000000" fill-opacity="1">512</text>
  <path d="M 640 9 L 640 441" fill="none" stroke-width="0.75" stroke="#000000" stroke-opacity="0.49804" stroke-linecap="butt" stroke-linejoin="round"/>
  <text x="634.5" y="453.7" font-family="Helvetica" font-size="10" font-weight="normal" font-style="normal" fill="#000000" fill-opacity="1">1k</text>
  <path d="M 699 9 L 699 441" fill="none" stroke-width="0.75" stroke="#000000" stroke-opacity="0.49804" stroke-linecap="butt" stroke-linejoin="round"/>
  <text x="693.5" y="453.7" font-family="Helvetica" font-size="10" font-weight="normal" font-style="normal" fill="#000000" fill-opacity="1">2k</text>
  <path d="M 758 9 L 758 441" fill="none" stroke-width="0.75" stroke="#000000" stroke-opacity="0.49804" stroke-linecap="butt" stroke-linejoin="round"/>
  <text x="752.5" y="453.7" font-family="Helvetica" font-size="10" font-weight="normal" font-style="normal" fill="#000000" fill-opacity="1">4k</text>
  <path d="M 817 9 L 817 441" fill="none" stroke-width="0.75" stroke="#000000" stroke-opacity="0.49804" stroke-linecap="butt" stroke-linejoin="round"/>
  <text x="811.5" y="453.7" font-family="Helvetica" font-size="10" font-weight="normal" font-style="normal" fill="#000000" fill-opacity="1">8k</text>
  <path d="M 876 9 L 876 441" fill="none" stroke-width="0.75" stroke="#000000" stroke-opacity="0.49804" stroke-linecap="butt" stroke-linejoin="round"/>
  <text x="867.5" y="453.7" font-family="Helvetica" font-size="10" font-weight="normal" font-style="normal" fill="#000000" fill-opacity="1">16k</text>
  <path d="M 935 9 L 935 441" fill="none" stroke-width="0.75" stroke="#000000" stroke-opacity="0.49804" stroke-linecap="butt" stroke-linejoin="round"/>
  <text x="926.5" y="453.7" font-family="Helvetica" font-size="10" font-weight="normal" font-style="normal" fill="#000000" fill-opacity="1">32k</text>
  <path d="M 994 9 L 994 441" fill="none" stroke-width="0.75" stroke="#000000" stroke-opacity="0.49804" stroke-linecap="butt" stroke-linejoin="round"/>
  <text x="985.5" y="453.7" font-family="Helvetica" font-size="10" font-weight="normal" font-style="normal" fill="#000000" fill-opacity="1">64k</text>
  <path d="M 1053 9 L 1053 441" fill="none" stroke-width="0.75" stroke="#000000" stroke-opacity="0.49804" stroke-linecap="butt" stroke-linejoin="round"/>
  <text x="1042" y="453.7" font-family="Helvetica" font-size="10" font-weight="normal" font-style="normal" fill="#000000" fill-opacity="1">128k</text>
  <path d="M 1112 9 L 1112 441" fill="none" stroke-width="0.75" stroke="#000000" stroke-opacity="0.49804" stroke-linecap="butt" stroke-linejoin="round"/>
  <text x="1101" y="453.7" font-family="Helvetica" font-size="10" font-weight="normal" font-style="normal" fill="#000000" fill-opacity="1">256k</text>
  <path d="M 1171 9 L 1171 441" fill="none" stroke-width="0.75" stroke="#000000" stroke-opacity="0.49804" stroke-linecap="butt" stroke-linejoin="round"/>
  <text x="1160" y="453.7" font-family="Helvetica" font-size="10" font-weight="normal" font-style="normal" fill="#000000" fill-opacity="1">512k</text>
  <path d="M 1230 9 L 1230 441" fill="none" stroke-width="0.75" stroke="#000000" stroke-opacity="0.49804" stroke-linecap="butt" stroke-linejoin="round"/>
  <text x="1223" y="453.7" font-family="Helvetica" font-size="10" font-weight="normal" font-style="normal" fill="#000000" fill-opacity="1">1M</text>
  <path d="M 50 441 L 1230 441" fill="none" stroke-width="0.75" stroke="#000000" stroke-opacity="0.49804" stroke-linecap="butt" stroke-linejoin="round"/>
  <text x="16" y="442.7" font-family="Helvetica" font-size="10" font-weight="normal" font-style="normal" fill="#000000" fill-opacity="1">100 ps</text>
  <text x="1236" y="442.7" font-family="Helvetica" font-size="10" font-weight="normal" font-style="normal" fill="#000000" fill-opacity="1">100 ps</text>
  <path d="M 50 333 L 1230 333" fill="none" stroke-width="0.75" stroke="#000000" stroke-opacity="0.49804" stroke-linecap="butt" stroke-linejoin="round"/>
  <text x="27" y="334.7" font-family="Helvetica" font-size="10" font-weight="normal" font-style="normal" fill="#000000" fill-opacity="1">1 ns</text>
  <text x="1236" y="334.7" font-family="Helvetica" font-size="10" font-weight="normal" font-style="normal" fill="#000000" fill-opacity="1">1 ns</text>
  <path d="M 50 225 L 1230 225" fill="none" stroke-width="0.75" stroke="#000000" stroke-opacity="0.49804" stroke-linecap="butt" stroke-linejoin="round"/>
  <text x="21" y="226.7" font-family="Helvetica" font-size="10" font-weight="normal" font-style="normal" fill="#000000" fill-opacity="1">10 ns</text>
  <text x="1236" y="226.7" font-family="Helvetica" font-size="10" font-weight="normal" font-style="normal" fill="#000000" fill-opacity="1">10 ns</text>
  <path d="M 50 117 L 1230 117" fill="none" stroke-width="0.75" stroke="#000000" stroke-opacity="0.49804" stroke-linecap="butt" stroke-linejoin="round"/>
  <text x="16" y="118.7" font-family="Helvetica" font-size="10" font-weight="normal" font-style="normal" fill="#000000" fill-opacity="1">100 ns</text>
  <text x="1236" y="118.7" font-family="Helvetica" font-size="10" font-weight="normal" font-style="normal" fill="#000000" fill-opacity="1">100 ns</text>
  <path d="M 50 9 L 1230 9" fill="none" stroke-width="0.75" stroke="#000000" stroke-opacity="0.49804" stroke-linecap="butt" stroke-linejoin="round"/>
  <text x="26" y="10.7" font-family="Helvetica" font-size="10" font-weight="normal" font-style="normal" fill="#000000" fill-opacity="1">1 µs</text>
  <text x="1236" y="10.7" font-family="Helvetica" font-size="10" font-weight="normal" font-style="normal" fill="#000000" fill-opacity="1">1 µs</text>
  <path d="M 50 408.49 L 1230 408.49" fill="none" stroke-width="0.5" stroke="#000000" stroke-opacity="0.25882" stroke-linecap="butt" stroke-linejoin="round" stroke-dasharray="6 3" stroke-dashoffset="0"/>
  <path d="M 50 375.98 L 1230 375.98" fill="none" stroke-width="0.5" stroke="#000000" stroke-opacity="0.25882" stroke-linecap="butt" stroke-linejoin="round" stroke-dasharray="6 3" stroke-dashoffset="0"/>
  <path d="M 50 343.47 L 1230 343.47" fill="none" stroke-width="0.5" stroke="#000000" stroke-opacity="0.25882" stroke-linecap="butt" stroke-linejoin="round" stroke-dasharray="6 3" stroke-dashoffset="0"/>
  <path d="M 50 310.96 L 1230 310.96" fill="none" stroke-width="0.5" stroke="#000000" stroke-opacity="0.25882" stroke-linecap="butt" stroke-linejoin="round" stroke-dasharray="6 3" stroke-dashoffset="0"/>
  <path d="M 50 278.44 L 1230 278.44" fill="none" stroke-width="0.5" stroke="#000000" stroke-opacity="0.25882" stroke-linecap="butt" stroke-linejoin="round" stroke-dasharray="6 3" stroke-dashoffset="0"/>
  <path d="M 50 245.93 L 1230 245.93" fill="none" stroke-width="0.5" stroke="#000000" stroke-opacity="0.25882" stroke-linecap="butt" stroke-linejoin="round" stroke-dasharray="6 3" stroke-dashoffset="0"/>
  <path d="M 50 213.42 L 1230 213.42" fill="none" stroke-width="0.5" stroke="#000000" stroke-opacity="0.25882" stroke-linecap="butt" stroke-linejoin="round" stroke-dasharray="6 3" stroke-dashoffset="0"/>
  <path d="M 50 180.91 L 1230 180.91" fill="none" stroke-width="0.5" stroke="#000000" stroke-opacity="0.25882" stroke-linecap="butt" stroke-linejoin="round" stroke-dasharray="6 3" stroke-dashoffset="0"/>
  <path d="M 50 148.4 L 1230 148.4" fill="none" stroke-width="0.5" stroke="#000000" stroke-opacity="0.25882" stroke-linecap="butt" stroke-linejoin="round" stroke-dasharray="6 3" stroke-dashoffset="0"/>
  <path d="M 50 115.89 L 1230 115.89" fill="none" stroke-width="0.5" stroke="#000000" stroke-opacity="0.25882" stroke-linecap="butt" stroke-linejoin="round" stroke-dasharray="6 3" stroke-dashoffset="0"/>
  <path d="M 50 83.376 L 1230 83.376" fill="none" stroke-width="0.5" stroke="#000000" stroke-opacity="0.25882" stroke-linecap="butt" stroke-linejoin="round" stroke-dasharray="6 3" stroke-dashoffset="0"/>
  <path d="M 50 50.865 L 1230 50.865" fill="none" stroke-width="0.5" stroke="#000000" stroke-opacity="0.25882" stroke-linecap="butt" stroke-linejoin="round" stroke-dasharray="6 3" stroke-dashoffset="0"/>
  <path d="M 50 18.354 L 1230 18.354" fill="none" stroke-width="0.5" stroke="#000000" stroke-opacity="0.25882" stroke-linecap="butt" stroke-linejoin="round" stroke-dasharray="6 3" stroke-dashoffset="0"/>
  <path d="M 74 33 L 74 88 L 428 88 L 428 33 z" fill="#FFFFFF" fill-opacity="1.0" stroke="none"/>
  <clipPath id="clip-0">
    <path d="M 50 9 L 50 441 L 1230 441 L 1230 9 z"/>
  </clipPath>
  <g clip-path="url(#clip-0)">
    <path d="M 50 83.801L 109 104.05L 143.51 113.58L 168 118.18L 186.99 120.58L 202.51 122.64L 215.63 112.29L 227 114.03L 245.99 114.14L 261.51 116.16L 274.63 116.94L 286 117.83L 304.99 117.46L 320.51 114.28L 333.63 117.61L 345 117.68L 363.99 116.32L 379.51 115.79L 392.63 114.2L 404 116.65L 422.99 112.62L 438.51 113.9L 451.63 111.77L 463 110.78L 481.99 108.88L 497.51 107.39L 510.63 104.61L 522 110.5L 540.99 107.65L 556.51 105.5L 569.63 106.69L 581 104.84L 599.99 102.75L 615.51 101.96L 628.63 102.53L 640 101.15L 658.99 99.58L 674.51 99.982L 687.63 96.039L 699 98.679L 717.99 97.68L 733.51 95.348L 746.63 95.657L 758 94.961L 776.99 94.695L 792.51 92.871L 805.63 93.238L 817 90.7L 835.99 92.363L 851.51 90.575L 864.63 89.088L 876 87.639L 894.99 89.251L 910.51 87.603L 923.63 82.379L 935 82.98L 953.99 83.924L 969.51 83.112L 982.63 85.216L 994 83.719L 1013 84.366L 1028.5 84.651L 1041.6 82.708L 1053 82.076L 1072 82.079L 1087.5 80.293L 1100.6 76.53L 1112 78.133L 1131 78.691L 1146.5 78.603L 1159.6 77.939L 1171 74.493L 1190 78.381L 1205.5 77.091L 1218.6 74.246L 1230 74.317L 1230 76.076L 1218.6 76.721L 1205.5 77.334L 1190 79.299L 1171 79.086L 1159.6 78.101L 1146.5 79.457L 1131 79.962L 1112 80.83L 1100.6 81.553L 1087.5 81.994L 1072 83.119L 1053 83.448L 1041.6 83.178L 1028.5 84.893L 1013 84.888L 994 87.257L 982.63 85.444L 969.51 85.082L 953.99 90.431L 935 89.751L 923.63 91.197L 910.51 88.727L 894.99 90.063L 876 91.734L 864.63 90.598L 851.51 90.92L 835.99 94.304L 817 95.357L 805.63 93.892L 792.51 95.608L 776.99 95.894L 758 95.599L 746.63 97.571L 733.51 96.302L 717.99 98.562L 699 100.32L 687.63 102.94L 674.51 100.18L 658.99 100.91L 640 104.66L 628.63 103.9L 615.51 103.14L 599.99 104.03L 581 105.14L 569.63 107.91L 556.51 106.18L 540.99 107.7L 522 112.45L 510.63 115.25L 497.51 112.7L 481.99 114.16L 463 114.5L 451.63 112.91L 438.51 117.7L 422.99 117.5L 404 118.43L 392.63 117.49L 379.51 117.49L 363.99 119L 345 117.94L 333.63 118.55L 320.51 123.64L 304.99 118.89L 286 118.21L 274.63 117.6L 261.51 116.56L 245.99 115.78L 227 114.34L 215.63 113.76L 202.51 122.71L 186.99 121.64L 168 119.25L 143.51 117.07L 109 108.04L 50 88.039" fill="#007AFF" fill-opacity="0.30196078431372547" stroke="none"/>
    <path d="M 50 139.49L 109 174.78L 143.51 192.16L 168 202.94L 186.99 216.81L 202.51 223.19L 215.63 231.97L 227 238.49L 245.99 248.64L 261.51 256.23L 274.63 262.54L 286 267.88L 304.99 276.85L 320.51 284.5L 333.63 290.3L 345 273.34L 363.99 280.19L 379.51 282.87L 392.63 292.75L 404 296.86L 422.99 303.27L 438.51 306.79L 451.63 308.93L 463 320.73L 481.99 328.35L 497.51 331.47L 510.63 333.76L 522 335.62L 540.99 338.3L 556.51 339.94L 569.63 341.5L 581 342.57L 599.99 343.62L 615.51 345.04L 628.63 345.83L 640 346.42L 658.99 346.06L 674.51 347.85L 687.63 348.25L 699 348.13L 717.99 348.58L 733.51 349.29L 746.63 349.35L 758 349.33L 776.99 349.59L 792.51 349.78L 805.63 349.83L 817 349.92L 835.99 332.11L 851.51 322.54L 864.63 348.43L 876 329.36L 894.99 328.89L 910.51 320.91L 923.63 316.16L 935 324.37L 953.99 316.7L 969.51 316.63L 982.63 329.03L 994 326.69L 1013 329.04L 1028.5 319.1L 1041.6 317.95L 1053 321.62L 1072 315.65L 1087.5 311.84L 1100.6 313.46L 1112 311.88L 1131 307.75L 1146.5 333.96L 1159.6 312.25L 1171 320.26L 1190 292.07L 1205.5 302.27L 1218.6 305.68L 1230 316.31L 1230 349.52L 1218.6 321.22L 1205.5 324.65L 1190 316.69L 1171 334.25L 1159.6 319.27L 1146.5 339.06L 1131 326.7L 1112 313.02L 1100.6 331.84L 1087.5 327.42L 1072 350.67L 1053 350.63L 1041.6 350.61L 1028.5 344.74L 1013 329.4L 994 329.96L 982.63 329.84L 969.51 350.23L 953.99 350.15L 935 337.53L 923.63 350.29L 910.51 341.6L 894.99 349.06L 876 329.89L 864.63 349.89L 851.51 349.6L 835.99 349.46L 817 349.98L 805.63 349.97L 792.51 349.81L 776.99 349.74L 758 349.36L 746.63 349.35L 733.51 349.29L 717.99 348.97L 699 348.54L 687.63 348.25L 674.51 347.85L 658.99 348.64L 640 346.47L 628.63 345.94L 615.51 345.17L 599.99 344.58L 581 342.57L 569.63 341.5L 556.51 340.17L 540.99 338.3L 522 335.62L 510.63 333.76L 497.51 331.48L 481.99 328.35L 463 323.27L 451.63 308.94L 438.51 309.78L 422.99 303.52L 404 297.13L 392.63 292.75L 379.51 287.95L 363.99 283.98L 345 273.34L 333.63 290.3L 320.51 284.5L 304.99 277.42L 286 268.47L 274.63 263.14L 261.51 256.23L 245.99 248.64L 227 238.49L 215.63 233.22L 202.51 225.66L 186.99 217.44L 168 205.34L 143.51 192.16L 109 174.79L 50 142.62" fill="#FF3B30" fill-opacity="0.30196078431372547" stroke="none"/>
    <path d="M 50 86.895L 109 106.97L 143.51 116.13L 168 118.97L 186.99 121.36L 202.51 122.69L 215.63 113.37L 227 114.26L 245.99 115.34L 261.51 116.46L 274.63 117.43L 286 118.11L 304.99 118.51L 320.51 121.01L 333.63 118.3L 345 117.88L 363.99 118.28L 379.51 117.04L 392.63 116.61L 404 117.96L 422.99 116.17L 438.51 116.68L 451.63 112.61L 463 113.5L 481.99 112.72L 497.51 111.26L 510.63 112.23L 522 111.93L 540.99 107.68L 556.51 106L 569.63 107.59L 581 105.06L 599.99 103.69L 615.51 102.83L 628.63 103.54L 640 103.72L 658.99 100.56L 674.51 100.13L 687.63 101.04L 699 99.883L 717.99 98.33L 733.51 96.051L 746.63 97.064L 758 95.432L 776.99 95.578L 792.51 94.878L 805.63 93.721L 817 94.095L 835.99 93.789L 851.51 90.83L 864.63 90.199L 876 90.629L 894.99 89.849L 910.51 88.431L 923.63 88.729L 935 87.886L 953.99 88.642L 969.51 84.56L 982.63 85.385L 994 86.306L 1013 84.751L 1028.5 84.83L 1041.6 83.055L 1053 83.086L 1072 82.845L 1087.5 81.544L 1100.6 80.188L 1112 80.111L 1131 79.626L 1146.5 79.233L 1159.6 78.059L 1171 77.843L 1190 79.058L 1205.5 77.27L 1218.6 76.062L 1230 75.61" fill="none" stroke-width="4" stroke="#007AFF" stroke-opacity="1" stroke-linecap="round" stroke-linejoin="round"/>
    <path d="M 50 141.78L 109 174.79L 143.51 192.16L 168 204.7L 186.99 217.27L 202.51 225L 215.63 232.89L 227 238.49L 245.99 248.64L 261.51 256.23L 274.63 262.98L 286 268.32L 304.99 277.27L 320.51 284.5L 333.63 290.3L 345 273.34L 363.99 282.96L 379.51 286.57L 392.63 292.75L 404 297.06L 422.99 303.45L 438.51 308.98L 451.63 308.94L 463 322.6L 481.99 328.35L 497.51 331.48L 510.63 333.76L 522 335.62L 540.99 338.3L 556.51 340.11L 569.63 341.5L 581 342.57L 599.99 344.33L 615.51 345.14L 628.63 345.91L 640 346.46L 658.99 347.95L 674.51 347.85L 687.63 348.25L 699 348.43L 717.99 348.87L 733.51 349.29L 746.63 349.35L 758 349.35L 776.99 349.7L 792.51 349.8L 805.63 349.93L 817 349.97L 835.99 344.27L 851.51 340.9L 864.63 349.51L 876 329.75L 894.99 342.9L 910.51 335.26L 923.63 338.73L 935 333.72L 953.99 338.87L 969.51 338.89L 982.63 329.63L 994 329.08L 1013 329.31L 1028.5 336.58L 1041.6 339.66L 1053 341.17L 1072 338.73L 1087.5 322.82L 1100.6 326.3L 1112 312.72L 1131 320.97L 1146.5 337.67L 1159.6 317.33L 1171 330.18L 1190 308.92L 1205.5 317.7L 1218.6 316.64L 1230 338.34" fill="none" stroke-width="4" stroke="#FF3B30" stroke-opacity="1" stroke-linecap="round" stroke-linejoin="round"/>
    <path d="M 50 86.895L 109 106.97L 143.51 116.13L 168 118.97L 186.99 121.36L 202.51 122.69L 215.63 113.37L 227 114.26L 245.99 115.34L 261.51 116.46L 274.63 117.43L 286 118.11L 304.99 118.51L 320.51 121.01L 333.63 118.3L 345 117.88L 363.99 118.28L 379.51 117.04L 392.63 116.61L 404 117.96L 422.99 116.17L 438.51 116.68L 451.63 112.61L 463 113.5L 481.99 112.72L 497.51 111.26L 510.63 112.23L 522 111.93L 540.99 107.68L 556.51 106L 569.63 107.59L 581 105.06L 599.99 103.69L 615.51 102.83L 628.63 103.54L 640 103.72L 658.99 100.56L 674.51 100.13L 687.63 101.04L 699 99.883L 717.99 98.33L 733.51 96.051L 746.63 97.064L 758 95.432L 776.99 95.578L 792.51 94.878L 805.63 93.721L 817 94.095L 835.99 93.789L 851.51 90.83L 864.63 90.199L 876 90.629L 894.99 89.849L 910.51 88.431L 923.63 88.729L 935 87.886L 953.99 88.642L 969.51 84.56L 982.63 85.385L 994 86.306L 1013 84.751L 1028.5 84.83L 1041.6 83.055L 1053 83.086L 1072 82.845L 1087.5 81.544L 1100.6 80.188L 1112 80.111L 1131 79.626L 1146.5 79.233L 1159.6 78.059L 1171 77.843L 1190 79.058L 1205.5 77.27L 1218.6 76.062L 1230 75.61" fill="none" stroke-width="0.5" stroke="#000000" stroke-opacity="0.30196" stroke-linecap="round" stroke-linejoin="round"/>
    <path d="M 50 141.78L 109 174.79L 143.51 192.16L 168 204.7L 186.99 217.27L 202.51 225L 215.63 232.89L 227 238.49L 245.99 248.64L 261.51 256.23L 274.63 262.98L 286 268.32L 304.99 277.27L 320.51 284.5L 333.63 290.3L 345 273.34L 363.99 282.96L 379.51 286.57L 392.63 292.75L 404 297.06L 422.99 303.45L 438.51 308.98L 451.63 308.94L 463 322.6L 481.99 328.35L 497.51 331.48L 510.63 333.76L 522 335.62L 540.99 338.3L 556.51 340.11L 569.63 341.5L 581 342.57L 599.99 344.33L 615.51 345.14L 628.63 345.91L 640 346.46L 658.99 347.95L 674.51 347.85L 687.63 348.25L 699 348.43L 717.99 348.87L 733.51 349.29L 746.63 349.35L 758 349.35L 776.99 349.7L 792.51 349.8L 805.63 349.93L 817 349.97L 835.99 344.27L 851.51 340.9L 864.63 349.51L 876 329.75L 894.99 342.9L 910.51 335.26L 923.63 338.73L 935 333.72L 953.99 338.87L 969.51 338.89L 982.63 329.63L 994 329.08L 1013 329.31L 1028.5 336.58L 1041.6 339.66L 1053 341.17L 1072 338.73L 1087.5 322.82L 1100.6 326.3L 1112 312.72L 1131 320.97L 1146.5 337.67L 1159.6 317.33L 1171 330.18L 1190 308.92L 1205.5 317.7L 1218.6 316.64L 1230 338.34" fill="none" stroke-width="0.5" stroke="#000000" stroke-opacity="0.30196" stroke-linecap="round" stroke-linejoin="round"/>
  </g>
  <path d="M 74 33 L 74 88 L 428 88 L 428 33 z" fill="#FFFFFF" fill-opacity="0.7019607843137254" stroke-width="0.5" stroke="#000000" stroke-opacity="1" stroke-linecap="round" stroke-linejoin="round"/>
  <path d="M 88 52 L 108 52" fill="none" stroke-width="4" stroke="#FF3B30" stroke-opacity="1" stroke-linecap="round" stroke-linejoin="round"/>
  <path d="M 88 52 L 108 52" fill="none" stroke-width="0.5" stroke="#000000" stroke-opacity="0.30196" stroke-linecap="round" stroke-linejoin="round"/>
  <text x="119" y="56.17" font-family="Menlo" font-size="12" font-weight="normal" font-style="normal" fill="#000000" fill-opacity="1">Array&lt;Int&gt; append, reserving capacity</text>
  <path d="M 88 69 L 108 69" fill="none" stroke-width="4" stroke="#007AFF" stroke-opacity="1" stroke-linecap="round" stroke-linejoin="round"/>
  <path d="M 88 69 L 108 69" fill="none" stroke-width="0.5" stroke="#000000" stroke-opacity="0.30196" stroke-linecap="round" stroke-linejoin="round"/>
  <text x="119" y="73.17" font-family="Menlo" font-size="12" font-weight="normal" font-style="normal" fill="#000000" fill-opacity="1">TreeArray&lt;Int&gt; append, reserving capacity</text>
  <path d="M 50 9 L 50 441 L 1230 441 L 1230 9 z" fill="none" stroke-width="0.5" stroke="#000000" stroke-opacity="1" stroke-linecap="round" stroke-linejoin="round"/>
</svg>
