<!DOCTYPE svg PUBLIC "-//W3C//DTD SVG 1.1//EN" "http://www.w3.org/Graphics/SVG/1.1/DTD/svg11.dtd">
<svg width="1280.0px" height="480.0px" viewBox="0.0 0.0 1280.0 480.0" xmlns="http://www.w3.org/2000/svg" xmlns:xlink="http://www.w3.org/1999/xlink" version="1.1">
  <path d="M 0 0 L 0 480 L 1280 480 L 1280 0 z" fill="#FFFFFF" fill-opacity="1.0" stroke="none"/>
  <text x="50" y="468.7" font-family="Helvetica" font-size="10" font-weight="normal" font-style="normal" fill="#000000" fill-opacity="1">Average per-element processing time over input size (bands: min, mean, mean + 2stddev)</text>
  <a xlink:href="https://github.com/apple/swift-collections-benchmark"><text x="1107" y="468.7" font-family="Helvetica" font-size="10" font-weight="normal" font-style="normal" fill="#000000" fill-opacity="1">swift-collections-benchmark</text></a>
  <path d="M 50 9 L 50 441" fill="none" stroke-width="0.75" stroke="#000000" stroke-opacity="0.49804" stroke-linecap="butt" stroke-linejoin="round"/>
  <text x="47" y="453.7" font-family="Helvetica" font-size="10" font-weight="normal" font-style="normal" fill="#000000" fill-opacity="1">1</text>
  <path d="M 109 9 L 109 441" fill="none" stroke-width="0.75" stroke="#000000" stroke-opacity="0.49804" stroke-linecap="butt" stroke-linejoin="round"/>
  <text x="106" y="453.7" font-family="Helvetica" font-size="10" font-weight="normal" font-style="normal" fill="#000000" fill-opacity="1">2</text>
  <path d="M 168 9 L 168 441" fill="none" stroke-width="0.75" stroke="#000000" stroke-opacity="0.49804" stroke-linecap="butt" stroke-linejoin="round"/>
  <text x="165" y="453.7" font-family="Helvetica" font-size="10" font-weight="normal" font-style="normal" fill="#000000" fill-opacity="1">4</text>
  <path d="M 227 9 L 227 441" fill="none" stroke-width="0.75" stroke="#000000" stroke-opacity="0.49804" stroke-linecap="butt" stroke-linejoin="round"/>
  <text x="224" y="453.7" font-family="Helvetica" font-size="10" font-weight="normal" font-style="normal" fill="#000000" fill-opacity="1">8</text>
  <path d="M 286 9 L 286 441" fill="none" stroke-width="0.75" stroke="#000000" stroke-opacity="0.49804" stroke-linecap="butt" stroke-linejoin="round"/>
  <text x="280" y="453.7" font-family="Helvetica" font-size="10" font-weight="normal" font-style="normal" fill="#000000" fill-opacity="1">16</text>
  <path d="M 345 9 L 345 441" fill="none" stroke-width="0.75" stroke="#000000" stroke-opacity="0.49804" stroke-linecap="butt" stroke-linejoin="round"/>
  <text x="339" y="453.7" font-family="Helvetica" font-size="10" font-weight="normal" font-style="normal" fill="#000000" fill-opacity="1">32</text>
  <path d="M 404 9 L 404 441" fill="none" stroke-width="0.75" stroke="#000000" stroke-opacity="0.49804" stroke-linecap="butt" stroke-linejoin="round"/>
  <text x="398" y="453.7" font-family="Helvetica" font-size="10" font-weight="normal" font-style="normal" fill="#000000" fill-opacity="1">64</text>
  <path d="M 463 9 L 463 441" fill="none" stroke-width="0.75" stroke="#000000" stroke-opacity="0.49804" stroke-linecap="butt" stroke-linejoin="round"/>
  <text x="454.5" y="453.7" font-family="Helvetica" font-size="10" font-weight="normal" font-style="normal" fill="#000000" fill-opacity="1">128</text>
  <path d="M 522 9 L 522 441" fill="none" stroke-width="0.75" stroke="#000000" stroke-opacity="0.49804" stroke-linecap="butt" stroke-linejoin="round"/>
  <text x="513.5" y="453.7" font-family="Helvetica" font-size="10" font-weight="normal" font-style="normal" fill="#000000" fill-opacity="1">256</text>
  <path d="M 581 9 L 581 441" fill="none" stroke-width="0.75" stroke="#000000" stroke-opacity="0.49804" stroke-linecap="butt" stroke-linejoin="round"/>
  <text x="572.5" y="453.7" font-family="Helvetica" font-size="10" font-weight="normal" font-style="normal" fill="#000000" fill-opacity="1">512</text>
  <path d="M 640 9 L 640 441" fill="none" stroke-width="0.75" stroke="#000000" stroke-opacity="0.49804" stroke-linecap="butt" stroke-linejoin="round"/>
  <text x="634.5" y="453.7" font-family="Helvetica" font-size="10" font-weight="normal" font-style="normal" fill="#000000" fill-opacity="1">1k</text>
  <path d="M 699 9 L 699 441" fill="none" stroke-width="0.75" stroke="#000000" stroke-opacity="0.49804" stroke-linecap="butt" stroke-linejoin="round"/>
  <text x="693.5" y="453.7" font-family="Helvetica" font-size="10" font-weight="normal" font-style="normal" fill="#000000" fill-opacity="1">2k</text>
  <path d="M 758 9 L 758 441" fill="none" stroke-width="0.75" stroke="#000000" stroke-opacity="0.49804" stroke-linecap="butt" stroke-linejoin="round"/>
  <text x="752.5" y="453.7" font-family="Helvetica" font-size="10" font-weight="normal" font-style="normal" fill="#000000" fill-opacity="1">4k</text>
  <path d="M 817 9 L 817 441" fill="none" stroke-width="0.75" stroke="#000000" stroke-opacity="0.49804" stroke-linecap="butt" stroke-linejoin="round"/>
  <text x="811.5" y="453.7" font-family="Helvetica" font-size="10" font-weight="normal" font-style="normal" fill="#000000" fill-opacity="1">8k</text>
  <path d="M 876 9 L 876 441" fill="none" stroke-width="0.75" stroke="#000000" stroke-opacity="0.49804" stroke-linecap="butt" stroke-linejoin="round"/>
  <text x="867.5" y="453.7" font-family="Helvetica" font-size="10" font-weight="normal" font-style="normal" fill="#000000" fill-opacity="1">16k</text>
  <path d="M 935 9 L 935 441" fill="none" stroke-width="0.75" stroke="#000000" stroke-opacity="0.49804" stroke-linecap="butt" stroke-linejoin="round"/>
  <text x="926.5" y="453.7" font-family="Helvetica" font-size="10" font-weight="normal" font-style="normal" fill="#000000" fill-opacity="1">32k</text>
  <path d="M 994 9 L 994 441" fill="none" stroke-width="0.75" stroke="#000000" stroke-opacity="0.49804" stroke-linecap="butt" stroke-linejoin="round"/>
  <text x="985.5" y="453.7" font-family="Helvetica" font-size="10" font-weight="normal" font-style="normal" fill="#000000" fill-opacity="1">64k</text>
  <path d="M 1053 9 L 1053 441" fill="none" stroke-width="0.75" stroke="#000000" stroke-opacity="0.49804" stroke-linecap="butt" stroke-linejoin="round"/>
  <text x="1042" y="453.7" font-family="Helvetica" font-size="10" font-weight="normal" font-style="normal" fill="#000000" fill-opacity="1">128k</text>
  <path d="M 1112 9 L 1112 441" fill="none" stroke-width="0.75" stroke="#000000" stroke-opacity="0.49804" stroke-linecap="butt" stroke-linejoin="round"/>
  <text x="1101" y="453.7" font-family="Helvetica" font-size="10" font-weight="normal" font-style="normal" fill="#000000" fill-opacity="1">256k</text>
  <path d="M 1171 9 L 1171 441" fill="none" stroke-width="0.75" stroke="#000000" stroke-opacity="0.49804" stroke-linecap="butt" stroke-linejoin="round"/>
  <text x="1160" y="453.7" font-family="Helvetica" font-size="10" font-weight="normal" font-style="normal" fill="#000000" fill-opacity="1">512k</text>
  <path d="M 1230 9 L 1230 441" fill="none" stroke-width="0.75" stroke="#000000" stroke-opacity="0.49804" stroke-linecap="butt" stroke-linejoin="round"/>
  <text x="1223" y="453.7" font-family="Helvetica" font-size="10" font-weight="normal" font-style="normal" fill="#000000" fill-opacity="1">1M</text>
  <path d="M 50 441 L 1230 441" fill="none" stroke-width="0.75" stroke="#000000" stroke-opacity="0.49804" stroke-linecap="butt" stroke-linejoin="round"/>
  <text x="16" y="442.7" font-family="Helvetica" font-size="10" font-weight="normal" font-style="normal" fill="#000000" fill-opacity="1">100 ps</text>
  <text x="1236" y="442.7" font-family="Helvetica" font-size="10" font-weight="normal" font-style="normal" fill="#000000" fill-opacity="1">100 ps</text>
  <path d="M 50 333 L 1230 333" fill="none" stroke-width="0.75" stroke="#000000" stroke-opacity="0.49804" stroke-linecap="butt" stroke-linejoin="round"/>
  <text x="27" y="334.7" font-family="Helvetica" font-size="10" font-weight="normal" font-style="normal" fill="#000000" fill-opacity="1">1 ns</text>
  <text x="1236" y="334.7" font-family="Helvetica" font-size="10" font-weight="normal" font-style="normal" fill="#000000" fill-opacity="1">1 ns</text>
  <path d="M 50 225 L 1230 225" fill="none" stroke-width="0.75" stroke="#000000" stroke-opacity="0.49804" stroke-linecap="butt" stroke-linejoin="round"/>
  <text x="21" y="226.7" font-family="Helvetica" font-size="10" font-weight="normal" font-style="normal" fill="#000000" fill-opacity="1">10 ns</text>
  <text x="1236" y="226.7" font-family="Helvetica" font-size="10" font-weight="normal" font-style="normal" fill="#000000" fill-opacity="1">10 ns</text>
  <path d="M 50 117 L 1230 117" fill="none" stroke-width="0.75" stroke="#000000" stroke-opacity="0.49804" stroke-linecap="butt" stroke-linejoin="round"/>
  <text x="16" y="118.7" font-family="Helvetica" font-size="10" font-weight="normal" font-style="normal" fill="#000000" fill-opacity="1">100 ns</text>
  <text x="1236" y="118.7" font-family="Helvetica" font-size="10" font-weight="normal" font-style="normal" fill="#000000" fill-opacity="1">100 ns</text>
  <path d="M 50 9 L 1230 9" fill="none" stroke-width="0.75" stroke="#000000" stroke-opacity="0.49804" stroke-linecap="butt" stroke-linejoin="round"/>
  <text x="26" y="10.7" font-family="Helvetica" font-size="10" font-weight="normal" font-style="normal" fill="#000000" fill-opacity="1">1 µs</text>
  <text x="1236" y="10.7" font-family="Helvetica" font-size="10" font-weight="normal" font-style="normal" fill="#000000" fill-opacity="1">1 µs</text>
  <path d="M 50 408.49 L 1230 408.49" fill="none" stroke-width="0.5" stroke="#000000" stroke-opacity="0.25882" stroke-linecap="butt" stroke-linejoin="round" stroke-dasharray="6 3" stroke-dashoffset="0"/>
  <path d="M 50 375.98 L 1230 375.98" fill="none" stroke-width="0.5" stroke="#000000" stroke-opacity="0.25882" stroke-linecap="butt" stroke-linejoin="round" stroke-dasharray="6 3" stroke-dashoffset="0"/>
  <path d="M 50 343.47 L 1230 343.47" fill="none" stroke-width="0.5" stroke="#000000" stroke-opacity="0.25882" stroke-linecap="butt" stroke-linejoin="round" stroke-dasharray="6 3" stroke-dashoffset="0"/>
  <path d="M 50 310.96 L 1230 310.96" fill="none" stroke-width="0.5" stroke="#000000" stroke-opacity="0.25882" stroke-linecap="butt" stroke-linejoin="round" stroke-dasharray="6 3" stroke-dashoffset="0"/>
  <path d="M 50 278.44 L 1230 278.44" fill="none" stroke-width="0.5" stroke="#000000" stroke-opacity="0.25882" stroke-linecap="butt" stroke-linejoin="round" stroke-dasharray="6 3" stroke-dashoffset="0"/>
  <path d="M 50 245.93 L 1230 245.93" fill="none" stroke-width="0.5" stroke="#000000" stroke-opacity="0.25882" stroke-linecap="butt" stroke-linejoin="round" stroke-dasharray="6 3" stroke-dashoffset="0"/>
  <path d="M 50 213.42 L 1230 213.42" fill="none" stroke-width="0.5" stroke="#000000" stroke-opacity="0.25882" stroke-linecap="butt" stroke-linejoin="round" stroke-dasharray="6 3" stroke-dashoffset="0"/>
  <path d="M 50 180.91 L 1230 180.91" fill="none" stroke-width="0.5" stroke="#000000" stroke-opacity="0.25882" stroke-linecap="butt" stroke-linejoin="round" stroke-dasharray="6 3" stroke-dashoffset="0"/>
  <path d="M 50 148.4 L 1230 148.4" fill="none" stroke-width="0.5" stroke="#000000" stroke-opacity="0.25882" stroke-linecap="butt" stroke-linejoin="round" stroke-dasharray="6 3" stroke-dashoffset="0"/>
  <path d="M 50 115.89 L 1230 115.89" fill="none" stroke-width="0.5" stroke="#000000" stroke-opacity="0.25882" stroke-linecap="butt" stroke-linejoin="round" stroke-dasharray="6 3" stroke-dashoffset="0"/>
  <path d="M 50 83.376 L 1230 83.376" fill="none" stroke-width="0.5" stroke="#000000" stroke-opacity="0.25882" stroke-linecap="butt" stroke-linejoin="round" stroke-dasharray="6 3" stroke-dashoffset="0"/>
  <path d="M 50 50.865 L 1230 50.865" fill="none" stroke-width="0.5" stroke="#000000" stroke-opacity="0.25882" stroke-linecap="butt" stroke-linejoin="round" stroke-dasharray="6 3" stroke-dashoffset="0"/>
  <path d="M 50 18.354 L 1230 18.354" fill="none" stroke-width="0.5" stroke="#000000" stroke-opacity="0.25882" stroke-linecap="butt" stroke-linejoin="round" stroke-dasharray="6 3" stroke-dashoffset="0"/>
  <path d="M 74 33 L 74 88 L 428 88 L 428 33 z" fill="#FFFFFF" fill-opacity="1.0" stroke="none"/>
  <clipPath id="clip-0">
    <path d="M 50 9 L 50 441 L 1230 441 L 1230 9 z"/>
  </clipPath>
  <g clip-path="url(#clip-0)">
    <path d="M 50 87.729L 109 103.93L 143.51 112.55L 168 116.39L 186.99 118.28L 202.51 116.4L 215.63 117.21L 227 104.23L 245.99 111.47L 261.51 111.5L 274.63 110.96L 286 110.87L 304.99 113.85L 320.51 112.88L 333.63 110.94L 345 111.19L 363.99 109.77L 379.51 109.9L 392.63 108.83L 404 108.16L 422.99 108.04L 438.51 107.25L 451.63 108.89L 463 107.64L 481.99 105.48L 497.51 106.29L 510.63 104.97L 522 104.62L 540.99 104.42L 556.51 103.48L 569.63 100.94L 581 101.46L 599.99 98.828L 615.51 100.31L 628.63 98.756L 640 96.826L 658.99 98.232L 674.51 96.884L 687.63 98.371L 699 95.334L 717.99 95.449L 733.51 95.495L 746.63 94.021L 758 93.176L 776.99 89.588L 792.51 92.442L 805.63 92.075L 817 90.019L 835.99 91.19L 851.51 89.645L 864.63 87.716L 876 88.32L 894.99 87.825L 910.51 87.451L 923.63 83.661L 935 86.312L 953.99 86.098L 969.51 86.71L 982.63 80.183L 994 86.248L 1013 83.594L 1028.5 83.937L 1041.6 82.988L 1053 80.654L 1072 79.793L 1087.5 82.152L 1100.6 80.321L 1112 79.228L 1131 78.737L 1146.5 78.311L 1159.6 73.633L 1171 76.855L 1190 75.839L 1205.5 77.579L 1218.6 73.771L 1230 77.031L 1230 77.059L 1218.6 76.675L 1205.5 77.951L 1190 77.439L 1171 79.204L 1159.6 81.707L 1146.5 80.234L 1131 80.321L 1112 82.351L 1100.6 80.792L 1087.5 82.169L 1072 83.868L 1053 84.592L 1041.6 83.152L 1028.5 85.687L 1013 86.018L 994 87.264L 982.63 86L 969.51 87.513L 953.99 87.62L 935 89.283L 923.63 90.53L 910.51 88.147L 894.99 89.059L 876 89.071L 864.63 90.453L 851.51 90.343L 835.99 92.423L 817 93.479L 805.63 92.573L 792.51 93.659L 776.99 95.119L 758 94.906L 746.63 95.315L 733.51 96.138L 717.99 95.869L 699 99.095L 687.63 99.378L 674.51 97.582L 658.99 98.474L 640 103.7L 628.63 101.68L 615.51 101.13L 599.99 105.11L 581 103.12L 569.63 105.43L 556.51 104.81L 540.99 104.72L 522 108.72L 510.63 110.01L 497.51 107.13L 481.99 108.12L 463 109.69L 451.63 109.3L 438.51 109.91L 422.99 110.51L 404 111.52L 392.63 112.16L 379.51 112.63L 363.99 113.66L 345 114.4L 333.63 116.45L 320.51 115.41L 304.99 115.76L 286 114.83L 274.63 114.25L 261.51 113.97L 245.99 113.68L 227 104.65L 215.63 119.46L 202.51 119.06L 186.99 119.53L 168 117.85L 143.51 115.84L 109 106.85L 50 90.198" fill="#007AFF" fill-opacity="0.30196078431372547" stroke="none"/>
    <path d="M 50 139.49L 109 174.78L 143.51 192.16L 168 202.94L 186.99 216.81L 202.51 223.19L 215.63 231.97L 227 238.49L 245.99 248.64L 261.51 256.23L 274.63 262.54L 286 267.88L 304.99 276.85L 320.51 284.5L 333.63 290.3L 345 273.34L 363.99 280.19L 379.51 282.87L 392.63 292.75L 404 296.86L 422.99 303.27L 438.51 306.79L 451.63 308.93L 463 320.73L 481.99 328.35L 497.51 331.47L 510.63 333.76L 522 335.62L 540.99 338.3L 556.51 339.94L 569.63 341.5L 581 342.57L 599.99 343.62L 615.51 345.04L 628.63 345.83L 640 346.42L 658.99 346.06L 674.51 347.85L 687.63 348.25L 699 348.13L 717.99 348.58L 733.51 349.29L 746.63 349.35L 758 349.33L 776.99 349.59L 792.51 349.78L 805.63 349.83L 817 349.92L 835.99 332.11L 851.51 322.54L 864.63 348.43L 876 329.36L 894.99 328.89L 910.51 320.91L 923.63 316.16L 935 324.37L 953.99 316.7L 969.51 316.63L 982.63 329.03L 994 326.69L 1013 329.04L 1028.5 319.1L 1041.6 317.95L 1053 321.62L 1072 315.65L 1087.5 311.84L 1100.6 313.46L 1112 311.88L 1131 307.75L 1146.5 333.96L 1159.6 312.25L 1171 320.26L 1190 292.07L 1205.5 302.27L 1218.6 305.68L 1230 316.31L 1230 349.52L 1218.6 321.22L 1205.5 324.65L 1190 316.69L 1171 334.25L 1159.6 319.27L 1146.5 339.06L 1131 326.7L 1112 313.02L 1100.6 331.84L 1087.5 327.42L 1072 350.67L 1053 350.63L 1041.6 350.61L 1028.5 344.74L 1013 329.4L 994 329.96L 982.63 329.84L 969.51 350.23L 953.99 350.15L 935 337.53L 923.63 350.29L 910.51 341.6L 894.99 349.06L 876 329.89L 864.63 349.89L 851.51 349.6L 835.99 349.46L 817 349.98L 805.63 349.97L 792.51 349.81L 776.99 349.74L 758 349.36L 746.63 349.35L 733.51 349.29L 717.99 348.97L 699 348.54L 687.63 348.25L 674.51 347.85L 658.99 348.64L 640 346.47L 628.63 345.94L 615.51 345.17L 599.99 344.58L 581 342.57L 569.63 341.5L 556.51 340.17L 540.99 338.3L 522 335.62L 510.63 333.76L 497.51 331.48L 481.99 328.35L 463 323.27L 451.63 308.94L 438.51 309.78L 422.99 303.52L 404 297.13L 392.63 292.75L 379.51 287.95L 363.99 283.98L 345 273.34L 333.63 290.3L 320.51 284.5L 304.99 277.42L 286 268.47L 274.63 263.14L 261.51 256.23L 245.99 248.64L 227 238.49L 215.63 233.22L 202.51 225.66L 186.99 217.44L 168 205.34L 143.51 192.16L 109 174.79L 50 142.62" fill="#FF3B30" fill-opacity="0.30196078431372547" stroke="none"/>
    <path d="M 50 89.54L 109 106.07L 143.51 114.96L 168 117.46L 186.99 119.2L 202.51 118.35L 215.63 118.87L 227 104.54L 245.99 113.09L 261.51 113.31L 274.63 113.37L 286 113.76L 304.99 115.25L 320.51 114.73L 333.63 114.95L 345 113.54L 363.99 112.61L 379.51 111.9L 392.63 111.27L 404 110.62L 422.99 109.85L 438.51 109.2L 451.63 109.19L 463 109.15L 481.99 107.42L 497.51 106.91L 510.63 108.64L 522 107.61L 540.99 104.64L 556.51 104.46L 569.63 104.22L 581 102.68L 599.99 103.39L 615.51 100.92L 628.63 100.9L 640 101.81L 658.99 98.411L 674.51 97.399L 687.63 99.113L 699 98.083L 717.99 95.759L 733.51 95.969L 746.63 94.973L 758 94.448L 776.99 93.61L 792.51 93.338L 805.63 92.442L 817 92.55L 835.99 92.098L 851.51 90.16L 864.63 89.722L 876 88.874L 894.99 88.733L 910.51 87.965L 923.63 88.636L 935 88.489L 953.99 87.217L 969.51 87.302L 982.63 84.41L 994 86.996L 1013 85.372L 1028.5 85.224L 1041.6 83.109L 1053 83.531L 1072 82.769L 1087.5 82.165L 1100.6 80.669L 1112 81.515L 1131 79.902L 1146.5 79.724L 1159.6 79.46L 1171 78.579L 1190 77.016L 1205.5 77.853L 1218.6 75.899L 1230 77.052" fill="none" stroke-width="4" stroke="#007AFF" stroke-opacity="1" stroke-linecap="round" stroke-linejoin="round"/>
    <path d="M 50 141.78L 109 174.79L 143.51 192.16L 168 204.7L 186.99 217.27L 202.51 225L 215.63 232.89L 227 238.49L 245.99 248.64L 261.51 256.23L 274.63 262.98L 286 268.32L 304.99 277.27L 320.51 284.5L 333.63 290.3L 345 273.34L 363.99 282.96L 379.51 286.57L 392.63 292.75L 404 297.06L 422.99 303.45L 438.51 308.98L 451.63 308.94L 463 322.6L 481.99 328.35L 497.51 331.48L 510.63 333.76L 522 335.62L 540.99 338.3L 556.51 340.11L 569.63 341.5L 581 342.57L 599.99 344.33L 615.51 345.14L 628.63 345.91L 640 346.46L 658.99 347.95L 674.51 347.85L 687.63 348.25L 699 348.43L 717.99 348.87L 733.51 349.29L 746.63 349.35L 758 349.35L 776.99 349.7L 792.51 349.8L 805.63 349.93L 817 349.97L 835.99 344.27L 851.51 340.9L 864.63 349.51L 876 329.75L 894.99 342.9L 910.51 335.26L 923.63 338.73L 935 333.72L 953.99 338.87L 969.51 338.89L 982.63 329.63L 994 329.08L 1013 329.31L 1028.5 336.58L 1041.6 339.66L 1053 341.17L 1072 338.73L 1087.5 322.82L 1100.6 326.3L 1112 312.72L 1131 320.97L 1146.5 337.67L 1159.6 317.33L 1171 330.18L 1190 308.92L 1205.5 317.7L 1218.6 316.64L 1230 338.34" fill="none" stroke-width="4" stroke="#FF3B30" stroke-opacity="1" stroke-linecap="round" stroke-linejoin="round"/>
    <path d="M 50 89.54L 109 106.07L 143.51 114.96L 168 117.46L 186.99 119.2L 202.51 118.35L 215.63 118.87L 227 104.54L 245.99 113.09L 261.51 113.31L 274.63 113.37L 286 113.76L 304.99 115.25L 320.51 114.73L 333.63 114.95L 345 113.54L 363.99 112.61L 379.51 111.9L 392.63 111.27L 404 110.62L 422.99 109.85L 438.51 109.2L 451.63 109.19L 463 109.15L 481.99 107.42L 497.51 106.91L 510.63 108.64L 522 107.61L 540.99 104.64L 556.51 104.46L 569.63 104.22L 581 102.68L 599.99 103.39L 615.51 100.92L 628.63 100.9L 640 101.81L 658.99 98.411L 674.51 97.399L 687.63 99.113L 699 98.083L 717.99 95.759L 733.51 95.969L 746.63 94.973L 758 94.448L 776.99 93.61L 792.51 93.338L 805.63 92.442L 817 92.55L 835.99 92.098L 851.51 90.16L 864.63 89.722L 876 88.874L 894.99 88.733L 910.51 87.965L 923.63 88.636L 935 88.489L 953.99 87.217L 969.51 87.302L 982.63 84.41L 994 86.996L 1013 85.372L 1028.5 85.224L 1041.6 83.109L 1053 83.531L 1072 82.769L 1087.5 82.165L 1100.6 80.669L 1112 81.515L 1131 79.902L 1146.5 79.724L 1159.6 79.46L 1171 78.579L 1190 77.016L 1205.5 77.853L 1218.6 75.899L 1230 77.052" fill="none" stroke-width="0.5" stroke="#000000" stroke-opacity="0.30196" stroke-linecap="round" stroke-linejoin="round"/>
    <path d="M 50 141.78L 109 174.79L 143.51 192.16L 168 204.7L 186.99 217.27L 202.51 225L 215.63 232.89L 227 238.49L 245.99 248.64L 261.51 256.23L 274.63 262.98L 286 268.32L 304.99 277.27L 320.51 284.5L 333.63 290.3L 345 273.34L 363.99 282.96L 379.51 286.57L 392.63 292.75L 404 297.06L 422.99 303.45L 438.51 308.98L 451.63 308.94L 463 322.6L 481.99 328.35L 497.51 331.48L 510.63 333.76L 522 335.62L 540.99 338.3L 556.51 340.11L 569.63 341.5L 581 342.57L 599.99 344.33L 615.51 345.14L 628.63 345.91L 640 346.46L 658.99 347.95L 674.51 347.85L 687.63 348.25L 699 348.43L 717.99 348.87L 733.51 349.29L 746.63 349.35L 758 349.35L 776.99 349.7L 792.51 349.8L 805.63 349.93L 817 349.97L 835.99 344.27L 851.51 340.9L 864.63 349.51L 876 329.75L 894.99 342.9L 910.51 335.26L 923.63 338.73L 935 333.72L 953.99 338.87L 969.51 338.89L 982.63 329.63L 994 329.08L 1013 329.31L 1028.5 336.58L 1041.6 339.66L 1053 341.17L 1072 338.73L 1087.5 322.82L 1100.6 326.3L 1112 312.72L 1131 320.97L 1146.5 337.67L 1159.6 317.33L 1171 330.18L 1190 308.92L 1205.5 317.7L 1218.6 316.64L 1230 338.34" fill="none" stroke-width="0.5" stroke="#000000" stroke-opacity="0.30196" stroke-linecap="round" stroke-linejoin="round"/>
  </g>
  <path d="M 74 33 L 74 88 L 428 88 L 428 33 z" fill="#FFFFFF" fill-opacity="0.7019607843137254" stroke-width="0.5" stroke="#000000" stroke-opacity="1" stroke-linecap="round" stroke-linejoin="round"/>
  <path d="M 88 52 L 108 52" fill="none" stroke-width="4" stroke="#FF3B30" stroke-opacity="1" stroke-linecap="round" stroke-linejoin="round"/>
  <path d="M 88 52 L 108 52" fill="none" stroke-width="0.5" stroke="#000000" stroke-opacity="0.30196" stroke-linecap="round" stroke-linejoin="round"/>
  <text x="119" y="56.17" font-family="Menlo" font-size="12" font-weight="normal" font-style="normal" fill="#000000" fill-opacity="1">Array&lt;Int&gt; append, reserving capacity</text>
  <path d="M 88 69 L 108 69" fill="none" stroke-width="4" stroke="#007AFF" stroke-opacity="1" stroke-linecap="round" stroke-linejoin="round"/>
  <path d="M 88 69 L 108 69" fill="none" stroke-width="0.5" stroke="#000000" stroke-opacity="0.30196" stroke-linecap="round" stroke-linejoin="round"/>
  <text x="119" y="73.17" font-family="Menlo" font-size="12" font-weight="normal" font-style="normal" fill="#000000" fill-opacity="1">TreeArray&lt;Int&gt; append, reserving capacity</text>
  <path d="M 50 9 L 50 441 L 1230 441 L 1230 9 z" fill="none" stroke-width="0.5" stroke="#000000" stroke-opacity="1" stroke-linecap="round" stroke-linejoin="round"/>
</svg>
