<!DOCTYPE svg PUBLIC "-//W3C//DTD SVG 1.1//EN" "http://www.w3.org/Graphics/SVG/1.1/DTD/svg11.dtd">
<svg width="1280.0px" height="480.0px" viewBox="0.0 0.0 1280.0 480.0" xmlns="http://www.w3.org/2000/svg" xmlns:xlink="http://www.w3.org/1999/xlink" version="1.1">
  <path d="M 0 0 L 0 480 L 1280 480 L 1280 0 z" fill="#FFFFFF" fill-opacity="1.0" stroke="none"/>
  <text x="50" y="468.7" font-family="Helvetica" font-size="10" font-weight="normal" font-style="normal" fill="#000000" fill-opacity="1">Average per-element processing time over input size (bands: min, mean, mean + 2stddev)</text>
  <a xlink:href="https://github.com/apple/swift-collections-benchmark"><text x="1107" y="468.7" font-family="Helvetica" font-size="10" font-weight="normal" font-style="normal" fill="#000000" fill-opacity="1">swift-collections-benchmark</text></a>
  <path d="M 50 9 L 50 441" fill="none" stroke-width="0.75" stroke="#000000" stroke-opacity="0.49804" stroke-linecap="butt" stroke-linejoin="round"/>
  <text x="47" y="453.7" font-family="Helvetica" font-size="10" font-weight="normal" font-style="normal" fill="#000000" fill-opacity="1">1</text>
  <path d="M 109 9 L 109 441" fill="none" stroke-width="0.75" stroke="#000000" stroke-opacity="0.49804" stroke-linecap="butt" stroke-linejoin="round"/>
  <text x="106" y="453.7" font-family="Helvetica" font-size="10" font-weight="normal" font-style="normal" fill="#000000" fill-opacity="1">2</text>
  <path d="M 168 9 L 168 441" fill="none" stroke-width="0.75" stroke="#000000" stroke-opacity="0.49804" stroke-linecap="butt" stroke-linejoin="round"/>
  <text x="165" y="453.7" font-family="Helvetica" font-size="10" font-weight="normal" font-style="normal" fill="#000000" fill-opacity="1">4</text>
  <path d="M 227 9 L 227 441" fill="none" stroke-width="0.75" stroke="#000000" stroke-opacity="0.49804" stroke-linecap="butt" stroke-linejoin="round"/>
  <text x="224" y="453.7" font-family="Helvetica" font-size="10" font-weight="normal" font-style="normal" fill="#000000" fill-opacity="1">8</text>
  <path d="M 286 9 L 286 441" fill="none" stroke-width="0.75" stroke="#000000" stroke-opacity="0.49804" stroke-linecap="butt" stroke-linejoin="round"/>
  <text x="280" y="453.7" font-family="Helvetica" font-size="10" font-weight="normal" font-style="normal" fill="#000000" fill-opacity="1">16</text>
  <path d="M 345 9 L 345 441" fill="none" stroke-width="0.75" stroke="#000000" stroke-opacity="0.49804" stroke-linecap="butt" stroke-linejoin="round"/>
  <text x="339" y="453.7" font-family="Helvetica" font-size="10" font-weight="normal" font-style="normal" fill="#000000" fill-opacity="1">32</text>
  <path d="M 404 9 L 404 441" fill="none" stroke-width="0.75" stroke="#000000" stroke-opacity="0.49804" stroke-linecap="butt" stroke-linejoin="round"/>
  <text x="398" y="453.7" font-family="Helvetica" font-size="10" font-weight="normal" font-style="normal" fill="#000000" fill-opacity="1">64</text>
  <path d="M 463 9 L 463 441" fill="none" stroke-width="0.75" stroke="#000000" stroke-opacity="0.49804" stroke-linecap="butt" stroke-linejoin="round"/>
  <text x="454.5" y="453.7" font-family="Helvetica" font-size="10" font-weight="normal" font-style="normal" fill="#000000" fill-opacity="1">128</text>
  <path d="M 522 9 L 522 441" fill="none" stroke-width="0.75" stroke="#000000" stroke-opacity="0.49804" stroke-linecap="butt" stroke-linejoin="round"/>
  <text x="513.5" y="453.7" font-family="Helvetica" font-size="10" font-weight="normal" font-style="normal" fill="#000000" fill-opacity="1">256</text>
  <path d="M 581 9 L 581 441" fill="none" stroke-width="0.75" stroke="#000000" stroke-opacity="0.49804" stroke-linecap="butt" stroke-linejoin="round"/>
  <text x="572.5" y="453.7" font-family="Helvetica" font-size="10" font-weight="normal" font-style="normal" fill="#000000" fill-opacity="1">512</text>
  <path d="M 640 9 L 640 441" fill="none" stroke-width="0.75" stroke="#000000" stroke-opacity="0.49804" stroke-linecap="butt" stroke-linejoin="round"/>
  <text x="634.5" y="453.7" font-family="Helvetica" font-size="10" font-weight="normal" font-style="normal" fill="#000000" fill-opacity="1">1k</text>
  <path d="M 699 9 L 699 441" fill="none" stroke-width="0.75" stroke="#000000" stroke-opacity="0.49804" stroke-linecap="butt" stroke-linejoin="round"/>
  <text x="693.5" y="453.7" font-family="Helvetica" font-size="10" font-weight="normal" font-style="normal" fill="#000000" fill-opacity="1">2k</text>
  <path d="M 758 9 L 758 441" fill="none" stroke-width="0.75" stroke="#000000" stroke-opacity="0.49804" stroke-linecap="butt" stroke-linejoin="round"/>
  <text x="752.5" y="453.7" font-family="Helvetica" font-size="10" font-weight="normal" font-style="normal" fill="#000000" fill-opacity="1">4k</text>
  <path d="M 817 9 L 817 441" fill="none" stroke-width="0.75" stroke="#000000" stroke-opacity="0.49804" stroke-linecap="butt" stroke-linejoin="round"/>
  <text x="811.5" y="453.7" font-family="Helvetica" font-size="10" font-weight="normal" font-style="normal" fill="#000000" fill-opacity="1">8k</text>
  <path d="M 876 9 L 876 441" fill="none" stroke-width="0.75" stroke="#000000" stroke-opacity="0.49804" stroke-linecap="butt" stroke-linejoin="round"/>
  <text x="867.5" y="453.7" font-family="Helvetica" font-size="10" font-weight="normal" font-style="normal" fill="#000000" fill-opacity="1">16k</text>
  <path d="M 935 9 L 935 441" fill="none" stroke-width="0.75" stroke="#000000" stroke-opacity="0.49804" stroke-linecap="butt" stroke-linejoin="round"/>
  <text x="926.5" y="453.7" font-family="Helvetica" font-size="10" font-weight="normal" font-style="normal" fill="#000000" fill-opacity="1">32k</text>
  <path d="M 994 9 L 994 441" fill="none" stroke-width="0.75" stroke="#000000" stroke-opacity="0.49804" stroke-linecap="butt" stroke-linejoin="round"/>
  <text x="985.5" y="453.7" font-family="Helvetica" font-size="10" font-weight="normal" font-style="normal" fill="#000000" fill-opacity="1">64k</text>
  <path d="M 1053 9 L 1053 441" fill="none" stroke-width="0.75" stroke="#000000" stroke-opacity="0.49804" stroke-linecap="butt" stroke-linejoin="round"/>
  <text x="1042" y="453.7" font-family="Helvetica" font-size="10" font-weight="normal" font-style="normal" fill="#000000" fill-opacity="1">128k</text>
  <path d="M 1112 9 L 1112 441" fill="none" stroke-width="0.75" stroke="#000000" stroke-opacity="0.49804" stroke-linecap="butt" stroke-linejoin="round"/>
  <text x="1101" y="453.7" font-family="Helvetica" font-size="10" font-weight="normal" font-style="normal" fill="#000000" fill-opacity="1">256k</text>
  <path d="M 1171 9 L 1171 441" fill="none" stroke-width="0.75" stroke="#000000" stroke-opacity="0.49804" stroke-linecap="butt" stroke-linejoin="round"/>
  <text x="1160" y="453.7" font-family="Helvetica" font-size="10" font-weight="normal" font-style="normal" fill="#000000" fill-opacity="1">512k</text>
  <path d="M 1230 9 L 1230 441" fill="none" stroke-width="0.75" stroke="#000000" stroke-opacity="0.49804" stroke-linecap="butt" stroke-linejoin="round"/>
  <text x="1223" y="453.7" font-family="Helvetica" font-size="10" font-weight="normal" font-style="normal" fill="#000000" fill-opacity="1">1M</text>
  <path d="M 50 441 L 1230 441" fill="none" stroke-width="0.75" stroke="#000000" stroke-opacity="0.49804" stroke-linecap="butt" stroke-linejoin="round"/>
  <text x="16" y="442.7" font-family="Helvetica" font-size="10" font-weight="normal" font-style="normal" fill="#000000" fill-opacity="1">100 ps</text>
  <text x="1236" y="442.7" font-family="Helvetica" font-size="10" font-weight="normal" font-style="normal" fill="#000000" fill-opacity="1">100 ps</text>
  <path d="M 50 333 L 1230 333" fill="none" stroke-width="0.75" stroke="#000000" stroke-opacity="0.49804" stroke-linecap="butt" stroke-linejoin="round"/>
  <text x="27" y="334.7" font-family="Helvetica" font-size="10" font-weight="normal" font-style="normal" fill="#000000" fill-opacity="1">1 ns</text>
  <text x="1236" y="334.7" font-family="Helvetica" font-size="10" font-weight="normal" font-style="normal" fill="#000000" fill-opacity="1">1 ns</text>
  <path d="M 50 225 L 1230 225" fill="none" stroke-width="0.75" stroke="#000000" stroke-opacity="0.49804" stroke-linecap="butt" stroke-linejoin="round"/>
  <text x="21" y="226.7" font-family="Helvetica" font-size="10" font-weight="normal" font-style="normal" fill="#000000" fill-opacity="1">10 ns</text>
  <text x="1236" y="226.7" font-family="Helvetica" font-size="10" font-weight="normal" font-style="normal" fill="#000000" fill-opacity="1">10 ns</text>
  <path d="M 50 117 L 1230 117" fill="none" stroke-width="0.75" stroke="#000000" stroke-opacity="0.49804" stroke-linecap="butt" stroke-linejoin="round"/>
  <text x="16" y="118.7" font-family="Helvetica" font-size="10" font-weight="normal" font-style="normal" fill="#000000" fill-opacity="1">100 ns</text>
  <text x="1236" y="118.7" font-family="Helvetica" font-size="10" font-weight="normal" font-style="normal" fill="#000000" fill-opacity="1">100 ns</text>
  <path d="M 50 9 L 1230 9" fill="none" stroke-width="0.75" stroke="#000000" stroke-opacity="0.49804" stroke-linecap="butt" stroke-linejoin="round"/>
  <text x="26" y="10.7" font-family="Helvetica" font-size="10" font-weight="normal" font-style="normal" fill="#000000" fill-opacity="1">1 µs</text>
  <text x="1236" y="10.7" font-family="Helvetica" font-size="10" font-weight="normal" font-style="normal" fill="#000000" fill-opacity="1">1 µs</text>
  <path d="M 50 408.49 L 1230 408.49" fill="none" stroke-width="0.5" stroke="#000000" stroke-opacity="0.25882" stroke-linecap="butt" stroke-linejoin="round" stroke-dasharray="6 3" stroke-dashoffset="0"/>
  <path d="M 50 375.98 L 1230 375.98" fill="none" stroke-width="0.5" stroke="#000000" stroke-opacity="0.25882" stroke-linecap="butt" stroke-linejoin="round" stroke-dasharray="6 3" stroke-dashoffset="0"/>
  <path d="M 50 343.47 L 1230 343.47" fill="none" stroke-width="0.5" stroke="#000000" stroke-opacity="0.25882" stroke-linecap="butt" stroke-linejoin="round" stroke-dasharray="6 3" stroke-dashoffset="0"/>
  <path d="M 50 310.96 L 1230 310.96" fill="none" stroke-width="0.5" stroke="#000000" stroke-opacity="0.25882" stroke-linecap="butt" stroke-linejoin="round" stroke-dasharray="6 3" stroke-dashoffset="0"/>
  <path d="M 50 278.44 L 1230 278.44" fill="none" stroke-width="0.5" stroke="#000000" stroke-opacity="0.25882" stroke-linecap="butt" stroke-linejoin="round" stroke-dasharray="6 3" stroke-dashoffset="0"/>
  <path d="M 50 245.93 L 1230 245.93" fill="none" stroke-width="0.5" stroke="#000000" stroke-opacity="0.25882" stroke-linecap="butt" stroke-linejoin="round" stroke-dasharray="6 3" stroke-dashoffset="0"/>
  <path d="M 50 213.42 L 1230 213.42" fill="none" stroke-width="0.5" stroke="#000000" stroke-opacity="0.25882" stroke-linecap="butt" stroke-linejoin="round" stroke-dasharray="6 3" stroke-dashoffset="0"/>
  <path d="M 50 180.91 L 1230 180.91" fill="none" stroke-width="0.5" stroke="#000000" stroke-opacity="0.25882" stroke-linecap="butt" stroke-linejoin="round" stroke-dasharray="6 3" stroke-dashoffset="0"/>
  <path d="M 50 148.4 L 1230 148.4" fill="none" stroke-width="0.5" stroke="#000000" stroke-opacity="0.25882" stroke-linecap="butt" stroke-linejoin="round" stroke-dasharray="6 3" stroke-dashoffset="0"/>
  <path d="M 50 115.89 L 1230 115.89" fill="none" stroke-width="0.5" stroke="#000000" stroke-opacity="0.25882" stroke-linecap="butt" stroke-linejoin="round" stroke-dasharray="6 3" stroke-dashoffset="0"/>
  <path d="M 50 83.376 L 1230 83.376" fill="none" stroke-width="0.5" stroke="#000000" stroke-opacity="0.25882" stroke-linecap="butt" stroke-linejoin="round" stroke-dasharray="6 3" stroke-dashoffset="0"/>
  <path d="M 50 50.865 L 1230 50.865" fill="none" stroke-width="0.5" stroke="#000000" stroke-opacity="0.25882" stroke-linecap="butt" stroke-linejoin="round" stroke-dasharray="6 3" stroke-dashoffset="0"/>
  <path d="M 50 18.354 L 1230 18.354" fill="none" stroke-width="0.5" stroke="#000000" stroke-opacity="0.25882" stroke-linecap="butt" stroke-linejoin="round" stroke-dasharray="6 3" stroke-dashoffset="0"/>
  <path d="M 74 33 L 74 105 L 428 105 L 428 33 z" fill="#FFFFFF" fill-opacity="1.0" stroke="none"/>
  <clipPath id="clip-0">
    <path d="M 50 9 L 50 441 L 1230 441 L 1230 9 z"/>
  </clipPath>
  <g clip-path="url(#clip-0)">
    <path d="M 50 120.47L 109 155.82L 143.51 174.56L 168 188.07L 186.99 197.43L 202.51 204.5L 215.63 210.7L 227 216.13L 245.99 224.24L 261.51 230.75L 274.63 233.67L 286 233.76L 304.99 245L 320.51 251.29L 333.63 243.3L 345 249.45L 363.99 255.7L 379.51 259.15L 392.63 263.16L 404 182.57L 422.99 271.53L 438.51 274.01L 451.63 276.53L 463 283.21L 481.99 285.6L 497.51 287.22L 510.63 288.51L 522 289.45L 540.99 290.81L 556.51 291.74L 569.63 292.42L 581 292.94L 599.99 293.64L 615.51 294.14L 628.63 294.51L 640 294.77L 658.99 295.15L 674.51 295.4L 687.63 295.59L 699 295.71L 717.99 295.89L 733.51 296.01L 746.63 296.13L 758 296.19L 776.99 296.26L 792.51 296.32L 805.63 296.39L 817 296.31L 835.99 296.31L 851.51 296.38L 864.63 296.47L 876 296.47L 894.99 296.33L 910.51 296.41L 923.63 296.21L 935 296.43L 953.99 296.55L 969.51 296.39L 982.63 296.57L 994 296.59L 1013 295.61L 1028.5 293.92L 1041.6 296.28L 1053 296.08L 1072 296.63L 1087.5 288.5L 1100.6 288.64L 1112 289.33L 1131 287.75L 1146.5 288.87L 1159.6 285.45L 1171 288.56L 1190 287.7L 1205.5 288.29L 1218.6 286.85L 1230 295.48L 1230 296.21L 1218.6 288.54L 1205.5 289.53L 1190 289.66L 1171 291.18L 1159.6 288.43L 1146.5 289.21L 1131 291.26L 1112 289.35L 1100.6 291.21L 1087.5 289.13L 1072 296.66L 1053 296.63L 1041.6 296.57L 1028.5 296.57L 1013 296.63L 994 296.61L 982.63 296.65L 969.51 296.62L 953.99 296.6L 935 296.6L 923.63 296.59L 910.51 296.55L 894.99 296.45L 876 296.55L 864.63 296.48L 851.51 296.48L 835.99 296.34L 817 296.36L 805.63 296.4L 792.51 296.34L 776.99 296.29L 758 296.19L 746.63 296.13L 733.51 296.04L 717.99 295.91L 699 295.73L 687.63 295.59L 674.51 295.4L 658.99 295.15L 640 294.77L 628.63 294.51L 615.51 294.15L 599.99 293.67L 581 292.94L 569.63 292.42L 556.51 291.74L 540.99 290.81L 522 289.45L 510.63 288.51L 497.51 287.29L 481.99 285.6L 463 283.21L 451.63 277.64L 438.51 274.79L 422.99 271.53L 404 268.32L 392.63 265.32L 379.51 262.67L 363.99 255.88L 345 249.45L 333.63 248.29L 320.51 251.55L 304.99 247.04L 286 238.82L 274.63 236.31L 261.51 231.45L 245.99 224.61L 227 216.13L 215.63 211.09L 202.51 204.91L 186.99 197.43L 168 188.07L 143.51 174.57L 109 156.68L 50 126.02" fill="#28CD41" fill-opacity="0.30196078431372547" stroke="none"/>
    <path d="M 50 87.726L 109 105.54L 143.51 113.8L 168 116.56L 186.99 115.74L 202.51 118.45L 215.63 119.1L 227 103.61L 245.99 113.3L 261.51 113.72L 274.63 113.68L 286 114.36L 304.99 115.17L 320.51 113.89L 333.63 113.92L 345 111.88L 363.99 112.63L 379.51 111.55L 392.63 111L 404 110.69L 422.99 110.84L 438.51 106.25L 451.63 108.82L 463 106.35L 481.99 105.98L 497.51 106.22L 510.63 103.95L 522 105.13L 540.99 103.2L 556.51 100.73L 569.63 101.88L 581 102.55L 599.99 98.681L 615.51 100.01L 628.63 102.15L 640 97.775L 658.99 97.432L 674.51 98.356L 687.63 95.279L 699 95.703L 717.99 95.168L 733.51 93.565L 746.63 94.403L 758 93.328L 776.99 93.022L 792.51 92.961L 805.63 91.681L 817 88.361L 835.99 88.922L 851.51 89.348L 864.63 88.982L 876 85.407L 894.99 88.794L 910.51 82.262L 923.63 88.301L 935 84.365L 953.99 85.734L 969.51 84.63L 982.63 82.055L 994 79.812L 1013 83.203L 1028.5 80.289L 1041.6 80.667L 1053 73.176L 1072 81.029L 1087.5 80.684L 1100.6 79.509L 1112 75.474L 1131 79.55L 1146.5 80.271L 1159.6 77.139L 1171 74.541L 1190 74.665L 1205.5 77.538L 1218.6 74.386L 1230 76.178L 1230 77.45L 1218.6 79.07L 1205.5 78.151L 1190 79.103L 1171 80.269L 1159.6 81.188L 1146.5 81.065L 1131 81.099L 1112 81.17L 1100.6 81.917L 1087.5 82.592L 1072 83.23L 1053 83.281L 1041.6 82.691L 1028.5 84.066L 1013 85.698L 994 86.49L 982.63 85.97L 969.51 87.111L 953.99 87.632L 935 88.542L 923.63 88.556L 910.51 90.206L 894.99 89.774L 876 89.407L 864.63 90.228L 851.51 89.795L 835.99 91.194L 817 94.774L 805.63 94.836L 792.51 95.11L 776.99 93.809L 758 94.586L 746.63 95.44L 733.51 96.935L 717.99 98.871L 699 98.705L 687.63 99.894L 674.51 99.874L 658.99 99.23L 640 100.44L 628.63 103.01L 615.51 101.51L 599.99 104.85L 581 102.74L 569.63 105.53L 556.51 107.44L 540.99 105.01L 522 106.19L 510.63 108.02L 497.51 112.15L 481.99 110.19L 463 111.56L 451.63 109.71L 438.51 112.98L 422.99 111.26L 404 111.71L 392.63 111.54L 379.51 112.64L 363.99 114.16L 345 118.11L 333.63 115.08L 320.51 116.67L 304.99 115.78L 286 114.47L 274.63 114.43L 261.51 113.87L 245.99 113.34L 227 105.03L 215.63 120.06L 202.51 119.24L 186.99 121.12L 168 116.56L 143.51 113.91L 109 107.64L 50 87.726" fill="#007AFF" fill-opacity="0.30196078431372547" stroke="none"/>
    <path d="M 50 139.49L 109 174.78L 143.51 192.16L 168 202.94L 186.99 216.81L 202.51 223.19L 215.63 231.97L 227 238.49L 245.99 248.64L 261.51 256.23L 274.63 262.54L 286 267.88L 304.99 276.85L 320.51 284.5L 333.63 290.3L 345 273.34L 363.99 280.19L 379.51 282.87L 392.63 292.75L 404 296.86L 422.99 303.27L 438.51 306.79L 451.63 308.93L 463 320.73L 481.99 328.35L 497.51 331.47L 510.63 333.76L 522 335.62L 540.99 338.3L 556.51 339.94L 569.63 341.5L 581 342.57L 599.99 343.62L 615.51 345.04L 628.63 345.83L 640 346.42L 658.99 346.06L 674.51 347.85L 687.63 348.25L 699 348.13L 717.99 348.58L 733.51 349.29L 746.63 349.35L 758 349.33L 776.99 349.59L 792.51 349.78L 805.63 349.83L 817 349.92L 835.99 332.11L 851.51 322.54L 864.63 348.43L 876 329.36L 894.99 328.89L 910.51 320.91L 923.63 316.16L 935 324.37L 953.99 316.7L 969.51 316.63L 982.63 329.03L 994 326.69L 1013 329.04L 1028.5 319.1L 1041.6 317.95L 1053 321.62L 1072 315.65L 1087.5 311.84L 1100.6 313.46L 1112 311.88L 1131 307.75L 1146.5 333.96L 1159.6 312.25L 1171 320.26L 1190 292.07L 1205.5 302.27L 1218.6 305.68L 1230 316.31L 1230 349.52L 1218.6 321.22L 1205.5 324.65L 1190 316.69L 1171 334.25L 1159.6 319.27L 1146.5 339.06L 1131 326.7L 1112 313.02L 1100.6 331.84L 1087.5 327.42L 1072 350.67L 1053 350.63L 1041.6 350.61L 1028.5 344.74L 1013 329.4L 994 329.96L 982.63 329.84L 969.51 350.23L 953.99 350.15L 935 337.53L 923.63 350.29L 910.51 341.6L 894.99 349.06L 876 329.89L 864.63 349.89L 851.51 349.6L 835.99 349.46L 817 349.98L 805.63 349.97L 792.51 349.81L 776.99 349.74L 758 349.36L 746.63 349.35L 733.51 349.29L 717.99 348.97L 699 348.54L 687.63 348.25L 674.51 347.85L 658.99 348.64L 640 346.47L 628.63 345.94L 615.51 345.17L 599.99 344.58L 581 342.57L 569.63 341.5L 556.51 340.17L 540.99 338.3L 522 335.62L 510.63 333.76L 497.51 331.48L 481.99 328.35L 463 323.27L 451.63 308.94L 438.51 309.78L 422.99 303.52L 404 297.13L 392.63 292.75L 379.51 287.95L 363.99 283.98L 345 273.34L 333.63 290.3L 320.51 284.5L 304.99 277.42L 286 268.47L 274.63 263.14L 261.51 256.23L 245.99 248.64L 227 238.49L 215.63 233.22L 202.51 225.66L 186.99 217.44L 168 205.34L 143.51 192.16L 109 174.79L 50 142.62" fill="#FF3B30" fill-opacity="0.30196078431372547" stroke="none"/>
    <path d="M 50 124.51L 109 156.45L 143.51 174.57L 168 188.07L 186.99 197.43L 202.51 204.8L 215.63 210.99L 227 216.13L 245.99 224.51L 261.51 231.26L 274.63 235.61L 286 237.45L 304.99 246.5L 320.51 251.48L 333.63 246.94L 345 249.45L 363.99 255.83L 379.51 261.73L 392.63 264.74L 404 227.96L 422.99 271.53L 438.51 274.59L 451.63 277.35L 463 283.21L 481.99 285.6L 497.51 287.28L 510.63 288.51L 522 289.45L 540.99 290.81L 556.51 291.74L 569.63 292.42L 581 292.94L 599.99 293.66L 615.51 294.15L 628.63 294.51L 640 294.77L 658.99 295.15L 674.51 295.4L 687.63 295.59L 699 295.72L 717.99 295.91L 733.51 296.04L 746.63 296.13L 758 296.19L 776.99 296.29L 792.51 296.33L 805.63 296.4L 817 296.35L 835.99 296.33L 851.51 296.45L 864.63 296.47L 876 296.53L 894.99 296.42L 910.51 296.51L 923.63 296.49L 935 296.56L 953.99 296.59L 969.51 296.56L 982.63 296.63L 994 296.6L 1013 296.36L 1028.5 295.86L 1041.6 296.5L 1053 296.48L 1072 296.65L 1087.5 288.97L 1100.6 290.52L 1112 289.34L 1131 290.32L 1146.5 289.12L 1159.6 287.63L 1171 290.48L 1190 289.14L 1205.5 289.2L 1218.6 288.09L 1230 296.02" fill="none" stroke-width="4" stroke="#28CD41" stroke-opacity="1" stroke-linecap="round" stroke-linejoin="round"/>
    <path d="M 50 87.726L 109 107.08L 143.51 113.88L 168 116.56L 186.99 119.65L 202.51 119.03L 215.63 119.8L 227 104.66L 245.99 113.33L 261.51 113.83L 274.63 114.24L 286 114.44L 304.99 115.62L 320.51 115.93L 333.63 114.78L 345 116.4L 363.99 113.75L 379.51 112.35L 392.63 111.4L 404 111.44L 422.99 111.15L 438.51 111.13L 451.63 109.47L 463 110.14L 481.99 109.05L 497.51 110.53L 510.63 106.92L 522 105.91L 540.99 104.53L 556.51 105.59L 569.63 104.55L 581 102.69L 599.99 103.16L 615.51 101.11L 628.63 102.78L 640 99.731L 658.99 98.754L 674.51 99.473L 687.63 98.644L 699 97.902L 717.99 97.875L 733.51 96.031L 746.63 95.167L 758 94.254L 776.99 93.602L 792.51 94.539L 805.63 93.991L 817 93.012L 835.99 90.59L 851.51 89.678L 864.63 89.9L 876 88.329L 894.99 89.516L 910.51 87.998L 923.63 88.489L 935 87.414L 953.99 87.129L 969.51 86.45L 982.63 84.916L 994 84.652L 1013 85.033L 1028.5 83.05L 1041.6 82.154L 1053 80.424L 1072 82.645L 1087.5 82.086L 1100.6 81.276L 1112 79.614L 1131 80.689L 1146.5 80.856L 1159.6 80.096L 1171 78.704L 1190 77.903L 1205.5 77.99L 1218.6 77.8L 1230 77.114" fill="none" stroke-width="4" stroke="#007AFF" stroke-opacity="1" stroke-linecap="round" stroke-linejoin="round"/>
    <path d="M 50 141.78L 109 174.79L 143.51 192.16L 168 204.7L 186.99 217.27L 202.51 225L 215.63 232.89L 227 238.49L 245.99 248.64L 261.51 256.23L 274.63 262.98L 286 268.32L 304.99 277.27L 320.51 284.5L 333.63 290.3L 345 273.34L 363.99 282.96L 379.51 286.57L 392.63 292.75L 404 297.06L 422.99 303.45L 438.51 308.98L 451.63 308.94L 463 322.6L 481.99 328.35L 497.51 331.48L 510.63 333.76L 522 335.62L 540.99 338.3L 556.51 340.11L 569.63 341.5L 581 342.57L 599.99 344.33L 615.51 345.14L 628.63 345.91L 640 346.46L 658.99 347.95L 674.51 347.85L 687.63 348.25L 699 348.43L 717.99 348.87L 733.51 349.29L 746.63 349.35L 758 349.35L 776.99 349.7L 792.51 349.8L 805.63 349.93L 817 349.97L 835.99 344.27L 851.51 340.9L 864.63 349.51L 876 329.75L 894.99 342.9L 910.51 335.26L 923.63 338.73L 935 333.72L 953.99 338.87L 969.51 338.89L 982.63 329.63L 994 329.08L 1013 329.31L 1028.5 336.58L 1041.6 339.66L 1053 341.17L 1072 338.73L 1087.5 322.82L 1100.6 326.3L 1112 312.72L 1131 320.97L 1146.5 337.67L 1159.6 317.33L 1171 330.18L 1190 308.92L 1205.5 317.7L 1218.6 316.64L 1230 338.34" fill="none" stroke-width="4" stroke="#FF3B30" stroke-opacity="1" stroke-linecap="round" stroke-linejoin="round"/>
    <path d="M 50 124.51L 109 156.45L 143.51 174.57L 168 188.07L 186.99 197.43L 202.51 204.8L 215.63 210.99L 227 216.13L 245.99 224.51L 261.51 231.26L 274.63 235.61L 286 237.45L 304.99 246.5L 320.51 251.48L 333.63 246.94L 345 249.45L 363.99 255.83L 379.51 261.73L 392.63 264.74L 404 227.96L 422.99 271.53L 438.51 274.59L 451.63 277.35L 463 283.21L 481.99 285.6L 497.51 287.28L 510.63 288.51L 522 289.45L 540.99 290.81L 556.51 291.74L 569.63 292.42L 581 292.94L 599.99 293.66L 615.51 294.15L 628.63 294.51L 640 294.77L 658.99 295.15L 674.51 295.4L 687.63 295.59L 699 295.72L 717.99 295.91L 733.51 296.04L 746.63 296.13L 758 296.19L 776.99 296.29L 792.51 296.33L 805.63 296.4L 817 296.35L 835.99 296.33L 851.51 296.45L 864.63 296.47L 876 296.53L 894.99 296.42L 910.51 296.51L 923.63 296.49L 935 296.56L 953.99 296.59L 969.51 296.56L 982.63 296.63L 994 296.6L 1013 296.36L 1028.5 295.86L 1041.6 296.5L 1053 296.48L 1072 296.65L 1087.5 288.97L 1100.6 290.52L 1112 289.34L 1131 290.32L 1146.5 289.12L 1159.6 287.63L 1171 290.48L 1190 289.14L 1205.5 289.2L 1218.6 288.09L 1230 296.02" fill="none" stroke-width="0.5" stroke="#000000" stroke-opacity="0.30196" stroke-linecap="round" stroke-linejoin="round"/>
    <path d="M 50 87.726L 109 107.08L 143.51 113.88L 168 116.56L 186.99 119.65L 202.51 119.03L 215.63 119.8L 227 104.66L 245.99 113.33L 261.51 113.83L 274.63 114.24L 286 114.44L 304.99 115.62L 320.51 115.93L 333.63 114.78L 345 116.4L 363.99 113.75L 379.51 112.35L 392.63 111.4L 404 111.44L 422.99 111.15L 438.51 111.13L 451.63 109.47L 463 110.14L 481.99 109.05L 497.51 110.53L 510.63 106.92L 522 105.91L 540.99 104.53L 556.51 105.59L 569.63 104.55L 581 102.69L 599.99 103.16L 615.51 101.11L 628.63 102.78L 640 99.731L 658.99 98.754L 674.51 99.473L 687.63 98.644L 699 97.902L 717.99 97.875L 733.51 96.031L 746.63 95.167L 758 94.254L 776.99 93.602L 792.51 94.539L 805.63 93.991L 817 93.012L 835.99 90.59L 851.51 89.678L 864.63 89.9L 876 88.329L 894.99 89.516L 910.51 87.998L 923.63 88.489L 935 87.414L 953.99 87.129L 969.51 86.45L 982.63 84.916L 994 84.652L 1013 85.033L 1028.5 83.05L 1041.6 82.154L 1053 80.424L 1072 82.645L 1087.5 82.086L 1100.6 81.276L 1112 79.614L 1131 80.689L 1146.5 80.856L 1159.6 80.096L 1171 78.704L 1190 77.903L 1205.5 77.99L 1218.6 77.8L 1230 77.114" fill="none" stroke-width="0.5" stroke="#000000" stroke-opacity="0.30196" stroke-linecap="round" stroke-linejoin="round"/>
    <path d="M 50 141.78L 109 174.79L 143.51 192.16L 168 204.7L 186.99 217.27L 202.51 225L 215.63 232.89L 227 238.49L 245.99 248.64L 261.51 256.23L 274.63 262.98L 286 268.32L 304.99 277.27L 320.51 284.5L 333.63 290.3L 345 273.34L 363.99 282.96L 379.51 286.57L 392.63 292.75L 404 297.06L 422.99 303.45L 438.51 308.98L 451.63 308.94L 463 322.6L 481.99 328.35L 497.51 331.48L 510.63 333.76L 522 335.62L 540.99 338.3L 556.51 340.11L 569.63 341.5L 581 342.57L 599.99 344.33L 615.51 345.14L 628.63 345.91L 640 346.46L 658.99 347.95L 674.51 347.85L 687.63 348.25L 699 348.43L 717.99 348.87L 733.51 349.29L 746.63 349.35L 758 349.35L 776.99 349.7L 792.51 349.8L 805.63 349.93L 817 349.97L 835.99 344.27L 851.51 340.9L 864.63 349.51L 876 329.75L 894.99 342.9L 910.51 335.26L 923.63 338.73L 935 333.72L 953.99 338.87L 969.51 338.89L 982.63 329.63L 994 329.08L 1013 329.31L 1028.5 336.58L 1041.6 339.66L 1053 341.17L 1072 338.73L 1087.5 322.82L 1100.6 326.3L 1112 312.72L 1131 320.97L 1146.5 337.67L 1159.6 317.33L 1171 330.18L 1190 308.92L 1205.5 317.7L 1218.6 316.64L 1230 338.34" fill="none" stroke-width="0.5" stroke="#000000" stroke-opacity="0.30196" stroke-linecap="round" stroke-linejoin="round"/>
  </g>
  <path d="M 74 33 L 74 105 L 428 105 L 428 33 z" fill="#FFFFFF" fill-opacity="0.7019607843137254" stroke-width="0.5" stroke="#000000" stroke-opacity="1" stroke-linecap="round" stroke-linejoin="round"/>
  <path d="M 88 52 L 108 52" fill="none" stroke-width="4" stroke="#FF3B30" stroke-opacity="1" stroke-linecap="round" stroke-linejoin="round"/>
  <path d="M 88 52 L 108 52" fill="none" stroke-width="0.5" stroke="#000000" stroke-opacity="0.30196" stroke-linecap="round" stroke-linejoin="round"/>
  <text x="119" y="56.17" font-family="Menlo" font-size="12" font-weight="normal" font-style="normal" fill="#000000" fill-opacity="1">Array&lt;Int&gt; append, reserving capacity</text>
  <path d="M 88 69 L 108 69" fill="none" stroke-width="4" stroke="#007AFF" stroke-opacity="1" stroke-linecap="round" stroke-linejoin="round"/>
  <path d="M 88 69 L 108 69" fill="none" stroke-width="0.5" stroke="#000000" stroke-opacity="0.30196" stroke-linecap="round" stroke-linejoin="round"/>
  <text x="119" y="73.17" font-family="Menlo" font-size="12" font-weight="normal" font-style="normal" fill="#000000" fill-opacity="1">TreeArray&lt;Int&gt; append, reserving capacity</text>
  <path d="M 88 86 L 108 86" fill="none" stroke-width="4" stroke="#28CD41" stroke-opacity="1" stroke-linecap="round" stroke-linejoin="round"/>
  <path d="M 88 86 L 108 86" fill="none" stroke-width="0.5" stroke="#000000" stroke-opacity="0.30196" stroke-linecap="round" stroke-linejoin="round"/>
  <text x="119" y="90.17" font-family="Menlo" font-size="12" font-weight="normal" font-style="normal" fill="#000000" fill-opacity="1">Deque&lt;Int&gt; append, reserving capacity</text>
  <path d="M 50 9 L 50 441 L 1230 441 L 1230 9 z" fill="none" stroke-width="0.5" stroke="#000000" stroke-opacity="1" stroke-linecap="round" stroke-linejoin="round"/>
</svg>
