<!DOCTYPE svg PUBLIC "-//W3C//DTD SVG 1.1//EN" "http://www.w3.org/Graphics/SVG/1.1/DTD/svg11.dtd">
<svg width="1280.0px" height="480.0px" viewBox="0.0 0.0 1280.0 480.0" xmlns="http://www.w3.org/2000/svg" xmlns:xlink="http://www.w3.org/1999/xlink" version="1.1">
  <path d="M 0 0 L 0 480 L 1280 480 L 1280 0 z" fill="#FFFFFF" fill-opacity="1.0" stroke="none"/>
  <text x="50" y="468.7" font-family="Helvetica" font-size="10" font-weight="normal" font-style="normal" fill="#000000" fill-opacity="1">Average per-element processing time over input size (bands: min, mean, mean + 2stddev)</text>
  <a xlink:href="https://github.com/apple/swift-collections-benchmark"><text x="1107" y="468.7" font-family="Helvetica" font-size="10" font-weight="normal" font-style="normal" fill="#000000" fill-opacity="1">swift-collections-benchmark</text></a>
  <path d="M 50 9 L 50 441" fill="none" stroke-width="0.75" stroke="#000000" stroke-opacity="0.49804" stroke-linecap="butt" stroke-linejoin="round"/>
  <text x="47" y="453.7" font-family="Helvetica" font-size="10" font-weight="normal" font-style="normal" fill="#000000" fill-opacity="1">1</text>
  <path d="M 109 9 L 109 441" fill="none" stroke-width="0.75" stroke="#000000" stroke-opacity="0.49804" stroke-linecap="butt" stroke-linejoin="round"/>
  <text x="106" y="453.7" font-family="Helvetica" font-size="10" font-weight="normal" font-style="normal" fill="#000000" fill-opacity="1">2</text>
  <path d="M 168 9 L 168 441" fill="none" stroke-width="0.75" stroke="#000000" stroke-opacity="0.49804" stroke-linecap="butt" stroke-linejoin="round"/>
  <text x="165" y="453.7" font-family="Helvetica" font-size="10" font-weight="normal" font-style="normal" fill="#000000" fill-opacity="1">4</text>
  <path d="M 227 9 L 227 441" fill="none" stroke-width="0.75" stroke="#000000" stroke-opacity="0.49804" stroke-linecap="butt" stroke-linejoin="round"/>
  <text x="224" y="453.7" font-family="Helvetica" font-size="10" font-weight="normal" font-style="normal" fill="#000000" fill-opacity="1">8</text>
  <path d="M 286 9 L 286 441" fill="none" stroke-width="0.75" stroke="#000000" stroke-opacity="0.49804" stroke-linecap="butt" stroke-linejoin="round"/>
  <text x="280" y="453.7" font-family="Helvetica" font-size="10" font-weight="normal" font-style="normal" fill="#000000" fill-opacity="1">16</text>
  <path d="M 345 9 L 345 441" fill="none" stroke-width="0.75" stroke="#000000" stroke-opacity="0.49804" stroke-linecap="butt" stroke-linejoin="round"/>
  <text x="339" y="453.7" font-family="Helvetica" font-size="10" font-weight="normal" font-style="normal" fill="#000000" fill-opacity="1">32</text>
  <path d="M 404 9 L 404 441" fill="none" stroke-width="0.75" stroke="#000000" stroke-opacity="0.49804" stroke-linecap="butt" stroke-linejoin="round"/>
  <text x="398" y="453.7" font-family="Helvetica" font-size="10" font-weight="normal" font-style="normal" fill="#000000" fill-opacity="1">64</text>
  <path d="M 463 9 L 463 441" fill="none" stroke-width="0.75" stroke="#000000" stroke-opacity="0.49804" stroke-linecap="butt" stroke-linejoin="round"/>
  <text x="454.5" y="453.7" font-family="Helvetica" font-size="10" font-weight="normal" font-style="normal" fill="#000000" fill-opacity="1">128</text>
  <path d="M 522 9 L 522 441" fill="none" stroke-width="0.75" stroke="#000000" stroke-opacity="0.49804" stroke-linecap="butt" stroke-linejoin="round"/>
  <text x="513.5" y="453.7" font-family="Helvetica" font-size="10" font-weight="normal" font-style="normal" fill="#000000" fill-opacity="1">256</text>
  <path d="M 581 9 L 581 441" fill="none" stroke-width="0.75" stroke="#000000" stroke-opacity="0.49804" stroke-linecap="butt" stroke-linejoin="round"/>
  <text x="572.5" y="453.7" font-family="Helvetica" font-size="10" font-weight="normal" font-style="normal" fill="#000000" fill-opacity="1">512</text>
  <path d="M 640 9 L 640 441" fill="none" stroke-width="0.75" stroke="#000000" stroke-opacity="0.49804" stroke-linecap="butt" stroke-linejoin="round"/>
  <text x="634.5" y="453.7" font-family="Helvetica" font-size="10" font-weight="normal" font-style="normal" fill="#000000" fill-opacity="1">1k</text>
  <path d="M 699 9 L 699 441" fill="none" stroke-width="0.75" stroke="#000000" stroke-opacity="0.49804" stroke-linecap="butt" stroke-linejoin="round"/>
  <text x="693.5" y="453.7" font-family="Helvetica" font-size="10" font-weight="normal" font-style="normal" fill="#000000" fill-opacity="1">2k</text>
  <path d="M 758 9 L 758 441" fill="none" stroke-width="0.75" stroke="#000000" stroke-opacity="0.49804" stroke-linecap="butt" stroke-linejoin="round"/>
  <text x="752.5" y="453.7" font-family="Helvetica" font-size="10" font-weight="normal" font-style="normal" fill="#000000" fill-opacity="1">4k</text>
  <path d="M 817 9 L 817 441" fill="none" stroke-width="0.75" stroke="#000000" stroke-opacity="0.49804" stroke-linecap="butt" stroke-linejoin="round"/>
  <text x="811.5" y="453.7" font-family="Helvetica" font-size="10" font-weight="normal" font-style="normal" fill="#000000" fill-opacity="1">8k</text>
  <path d="M 876 9 L 876 441" fill="none" stroke-width="0.75" stroke="#000000" stroke-opacity="0.49804" stroke-linecap="butt" stroke-linejoin="round"/>
  <text x="867.5" y="453.7" font-family="Helvetica" font-size="10" font-weight="normal" font-style="normal" fill="#000000" fill-opacity="1">16k</text>
  <path d="M 935 9 L 935 441" fill="none" stroke-width="0.75" stroke="#000000" stroke-opacity="0.49804" stroke-linecap="butt" stroke-linejoin="round"/>
  <text x="926.5" y="453.7" font-family="Helvetica" font-size="10" font-weight="normal" font-style="normal" fill="#000000" fill-opacity="1">32k</text>
  <path d="M 994 9 L 994 441" fill="none" stroke-width="0.75" stroke="#000000" stroke-opacity="0.49804" stroke-linecap="butt" stroke-linejoin="round"/>
  <text x="985.5" y="453.7" font-family="Helvetica" font-size="10" font-weight="normal" font-style="normal" fill="#000000" fill-opacity="1">64k</text>
  <path d="M 1053 9 L 1053 441" fill="none" stroke-width="0.75" stroke="#000000" stroke-opacity="0.49804" stroke-linecap="butt" stroke-linejoin="round"/>
  <text x="1042" y="453.7" font-family="Helvetica" font-size="10" font-weight="normal" font-style="normal" fill="#000000" fill-opacity="1">128k</text>
  <path d="M 1112 9 L 1112 441" fill="none" stroke-width="0.75" stroke="#000000" stroke-opacity="0.49804" stroke-linecap="butt" stroke-linejoin="round"/>
  <text x="1101" y="453.7" font-family="Helvetica" font-size="10" font-weight="normal" font-style="normal" fill="#000000" fill-opacity="1">256k</text>
  <path d="M 1171 9 L 1171 441" fill="none" stroke-width="0.75" stroke="#000000" stroke-opacity="0.49804" stroke-linecap="butt" stroke-linejoin="round"/>
  <text x="1160" y="453.7" font-family="Helvetica" font-size="10" font-weight="normal" font-style="normal" fill="#000000" fill-opacity="1">512k</text>
  <path d="M 1230 9 L 1230 441" fill="none" stroke-width="0.75" stroke="#000000" stroke-opacity="0.49804" stroke-linecap="butt" stroke-linejoin="round"/>
  <text x="1223" y="453.7" font-family="Helvetica" font-size="10" font-weight="normal" font-style="normal" fill="#000000" fill-opacity="1">1M</text>
  <path d="M 50 441 L 1230 441" fill="none" stroke-width="0.75" stroke="#000000" stroke-opacity="0.49804" stroke-linecap="butt" stroke-linejoin="round"/>
  <text x="21" y="442.7" font-family="Helvetica" font-size="10" font-weight="normal" font-style="normal" fill="#000000" fill-opacity="1">10 ns</text>
  <text x="1236" y="442.7" font-family="Helvetica" font-size="10" font-weight="normal" font-style="normal" fill="#000000" fill-opacity="1">10 ns</text>
  <path d="M 50 333 L 1230 333" fill="none" stroke-width="0.75" stroke="#000000" stroke-opacity="0.49804" stroke-linecap="butt" stroke-linejoin="round"/>
  <text x="16" y="334.7" font-family="Helvetica" font-size="10" font-weight="normal" font-style="normal" fill="#000000" fill-opacity="1">100 ns</text>
  <text x="1236" y="334.7" font-family="Helvetica" font-size="10" font-weight="normal" font-style="normal" fill="#000000" fill-opacity="1">100 ns</text>
  <path d="M 50 225 L 1230 225" fill="none" stroke-width="0.75" stroke="#000000" stroke-opacity="0.49804" stroke-linecap="butt" stroke-linejoin="round"/>
  <text x="26" y="226.7" font-family="Helvetica" font-size="10" font-weight="normal" font-style="normal" fill="#000000" fill-opacity="1">1 µs</text>
  <text x="1236" y="226.7" font-family="Helvetica" font-size="10" font-weight="normal" font-style="normal" fill="#000000" fill-opacity="1">1 µs</text>
  <path d="M 50 117 L 1230 117" fill="none" stroke-width="0.75" stroke="#000000" stroke-opacity="0.49804" stroke-linecap="butt" stroke-linejoin="round"/>
  <text x="21" y="118.7" font-family="Helvetica" font-size="10" font-weight="normal" font-style="normal" fill="#000000" fill-opacity="1">10 µs</text>
  <text x="1236" y="118.7" font-family="Helvetica" font-size="10" font-weight="normal" font-style="normal" fill="#000000" fill-opacity="1">10 µs</text>
  <path d="M 50 9 L 1230 9" fill="none" stroke-width="0.75" stroke="#000000" stroke-opacity="0.49804" stroke-linecap="butt" stroke-linejoin="round"/>
  <text x="15" y="10.7" font-family="Helvetica" font-size="10" font-weight="normal" font-style="normal" fill="#000000" fill-opacity="1">100 µs</text>
  <text x="1236" y="10.7" font-family="Helvetica" font-size="10" font-weight="normal" font-style="normal" fill="#000000" fill-opacity="1">100 µs</text>
  <path d="M 50 408.49 L 1230 408.49" fill="none" stroke-width="0.5" stroke="#000000" stroke-opacity="0.25882" stroke-linecap="butt" stroke-linejoin="round" stroke-dasharray="6 3" stroke-dashoffset="0"/>
  <path d="M 50 375.98 L 1230 375.98" fill="none" stroke-width="0.5" stroke="#000000" stroke-opacity="0.25882" stroke-linecap="butt" stroke-linejoin="round" stroke-dasharray="6 3" stroke-dashoffset="0"/>
  <path d="M 50 343.47 L 1230 343.47" fill="none" stroke-width="0.5" stroke="#000000" stroke-opacity="0.25882" stroke-linecap="butt" stroke-linejoin="round" stroke-dasharray="6 3" stroke-dashoffset="0"/>
  <path d="M 50 310.96 L 1230 310.96" fill="none" stroke-width="0.5" stroke="#000000" stroke-opacity="0.25882" stroke-linecap="butt" stroke-linejoin="round" stroke-dasharray="6 3" stroke-dashoffset="0"/>
  <path d="M 50 278.44 L 1230 278.44" fill="none" stroke-width="0.5" stroke="#000000" stroke-opacity="0.25882" stroke-linecap="butt" stroke-linejoin="round" stroke-dasharray="6 3" stroke-dashoffset="0"/>
  <path d="M 50 245.93 L 1230 245.93" fill="none" stroke-width="0.5" stroke="#000000" stroke-opacity="0.25882" stroke-linecap="butt" stroke-linejoin="round" stroke-dasharray="6 3" stroke-dashoffset="0"/>
  <path d="M 50 213.42 L 1230 213.42" fill="none" stroke-width="0.5" stroke="#000000" stroke-opacity="0.25882" stroke-linecap="butt" stroke-linejoin="round" stroke-dasharray="6 3" stroke-dashoffset="0"/>
  <path d="M 50 180.91 L 1230 180.91" fill="none" stroke-width="0.5" stroke="#000000" stroke-opacity="0.25882" stroke-linecap="butt" stroke-linejoin="round" stroke-dasharray="6 3" stroke-dashoffset="0"/>
  <path d="M 50 148.4 L 1230 148.4" fill="none" stroke-width="0.5" stroke="#000000" stroke-opacity="0.25882" stroke-linecap="butt" stroke-linejoin="round" stroke-dasharray="6 3" stroke-dashoffset="0"/>
  <path d="M 50 115.89 L 1230 115.89" fill="none" stroke-width="0.5" stroke="#000000" stroke-opacity="0.25882" stroke-linecap="butt" stroke-linejoin="round" stroke-dasharray="6 3" stroke-dashoffset="0"/>
  <path d="M 50 83.376 L 1230 83.376" fill="none" stroke-width="0.5" stroke="#000000" stroke-opacity="0.25882" stroke-linecap="butt" stroke-linejoin="round" stroke-dasharray="6 3" stroke-dashoffset="0"/>
  <path d="M 50 50.865 L 1230 50.865" fill="none" stroke-width="0.5" stroke="#000000" stroke-opacity="0.25882" stroke-linecap="butt" stroke-linejoin="round" stroke-dasharray="6 3" stroke-dashoffset="0"/>
  <path d="M 50 18.354 L 1230 18.354" fill="none" stroke-width="0.5" stroke="#000000" stroke-opacity="0.25882" stroke-linecap="butt" stroke-linejoin="round" stroke-dasharray="6 3" stroke-dashoffset="0"/>
  <path d="M 74 33 L 74 88 L 290 88 L 290 33 z" fill="#FFFFFF" fill-opacity="1.0" stroke="none"/>
  <clipPath id="clip-0">
    <path d="M 50 9 L 50 441 L 1230 441 L 1230 9 z"/>
  </clipPath>
  <g clip-path="url(#clip-0)">
    <path d="M 50 303.11L 109 323.01L 143.51 330.67L 168 332.52L 186.99 332.66L 202.51 335.59L 215.63 336.51L 227 321.03L 245.99 323.82L 261.51 325.24L 274.63 327.18L 286 327.37L 304.99 318.81L 320.51 319.74L 333.63 320.85L 345 321.31L 363.99 321.69L 379.51 314.44L 392.63 314.4L 404 317.33L 422.99 318.06L 438.51 310.38L 451.63 310.19L 463 313.9L 481.99 314.93L 497.51 316.21L 510.63 308.23L 522 309.12L 540.99 309.49L 556.51 313.35L 569.63 305.48L 581 304.44L 599.99 306.89L 615.51 308.09L 628.63 307.6L 640 308.86L 658.99 313.75L 674.51 304.16L 687.63 305.73L 699 306.65L 717.99 306.8L 733.51 309.73L 746.63 296.25L 758 300.06L 776.99 301.11L 792.51 302.22L 805.63 303.09L 817 295.94L 835.99 298.65L 851.51 300.6L 864.63 300.46L 876 294.66L 894.99 286.31L 910.51 295.9L 923.63 294.6L 935 290.79L 953.99 295.85L 969.51 294.38L 982.63 296.52L 994 290.29L 1013 290.89L 1028.5 293.28L 1041.6 294.36L 1053 287.35L 1072 289.69L 1087.5 291.23L 1100.6 290.62L 1112 281.92L 1131 288.37L 1146.5 289.39L 1159.6 283.85L 1171 282.56L 1190 284.39L 1205.5 286.06L 1218.6 284.51L 1230 279.06L 1230 283.74L 1218.6 286.35L 1205.5 286.53L 1190 286.06L 1171 283.9L 1159.6 291.2L 1146.5 289.64L 1131 289.08L 1112 286.8L 1100.6 291.93L 1087.5 292.48L 1072 290.76L 1053 290.72L 1041.6 295.44L 1028.5 293.88L 1013 293.96L 994 291.38L 982.63 297.04L 969.51 295.92L 953.99 296.96L 935 293.98L 923.63 297.58L 910.51 298.45L 894.99 298.33L 876 295.34L 864.63 301.68L 851.51 302.24L 835.99 299.08L 817 297.06L 805.63 305.34L 792.51 303.91L 776.99 305.82L 758 302.82L 746.63 302.42L 733.51 310.45L 717.99 308.18L 699 307.15L 687.63 307.45L 674.51 307L 658.99 314.41L 640 314.64L 628.63 311.32L 615.51 311.54L 599.99 312.38L 581 311.08L 569.63 308.78L 556.51 313.39L 540.99 314.19L 522 312.86L 510.63 311.18L 497.51 316.55L 481.99 315.52L 463 314.17L 451.63 315.54L 438.51 311.42L 422.99 318.75L 404 319.92L 392.63 317.76L 379.51 314.49L 363.99 323.72L 345 322.05L 333.63 321.01L 320.51 320.33L 304.99 318.95L 286 327.73L 274.63 327.28L 261.51 326.15L 245.99 324.29L 227 321.03L 215.63 336.69L 202.51 335.79L 186.99 337.06L 168 333.74L 143.51 331.02L 109 325.02L 50 308.11" fill="#007AFF" fill-opacity="0.30196078431372547" stroke="none"/>
    <path d="M 50 354.12L 109 381.44L 143.51 374.06L 168 383.27L 186.99 379.84L 202.51 384.72L 215.63 392.26L 227 396.97L 245.99 398.02L 261.51 403.11L 274.63 408.98L 286 413.2L 304.99 409.71L 320.51 415.53L 333.63 420.24L 345 424.15L 363.99 421.01L 379.51 426.34L 392.63 429.81L 404 430.81L 422.99 429.72L 438.51 414.66L 451.63 406.43L 463 401.2L 481.99 426.97L 497.51 422.13L 510.63 410.48L 522 414.32L 540.99 400.09L 556.51 400.21L 569.63 388.93L 581 389.87L 599.99 371.24L 615.51 366.86L 628.63 357.36L 640 356.27L 658.99 342.07L 674.51 338.19L 687.63 332.5L 699 323.65L 717.99 314.96L 733.51 307.91L 746.63 300.23L 758 294.41L 776.99 283.95L 792.51 275.61L 805.63 267.75L 817 261.94L 835.99 249.69L 851.51 241.35L 864.63 233.13L 876 225.38L 894.99 213.87L 910.51 202.14L 923.63 192.97L 935 185.65L 953.99 172.68L 969.51 164.48L 982.63 156.6L 994 149.8L 1013 138.71L 1028.5 129.56L 1041.6 122.96L 1053 115.78L 1072 106.72L 1072 106.72L 1053 117.28L 1041.6 123.58L 1028.5 130.75L 1013 139.58L 994 150.16L 982.63 157.06L 969.51 164.59L 953.99 174.04L 935 185.71L 923.63 193.17L 910.51 202.25L 894.99 214.1L 876 229.43L 864.63 235.7L 851.51 243.13L 835.99 251.67L 817 262.33L 805.63 268.63L 792.51 275.89L 776.99 284.49L 758 294.87L 746.63 300.78L 733.51 308.7L 717.99 317.03L 699 327.49L 687.63 332.55L 674.51 339.56L 658.99 349.12L 640 360.34L 628.63 366.42L 615.51 371.23L 599.99 380.44L 581 390.15L 569.63 395.09L 556.51 400.5L 540.99 405.9L 522 414.57L 510.63 418.25L 497.51 422.75L 481.99 427.69L 463 430.41L 451.63 431.01L 438.51 431.74L 422.99 431.14L 404 432.2L 392.63 430.34L 379.51 426.84L 363.99 422.31L 345 424.23L 333.63 422.17L 320.51 416.17L 304.99 410.48L 286 413.85L 274.63 408.98L 261.51 403.26L 245.99 398.02L 227 397.15L 215.63 392.45L 202.51 386.83L 186.99 379.85L 168 387.56L 143.51 374.06L 109 381.96L 50 354.12" fill="#FF3B30" fill-opacity="0.30196078431372547" stroke="none"/>
    <path d="M 50 306.75L 109 324.49L 143.51 330.93L 168 333.42L 186.99 335.87L 202.51 335.73L 215.63 336.64L 227 321.03L 245.99 324.16L 261.51 325.91L 274.63 327.25L 286 327.63L 304.99 318.92L 320.51 320.18L 333.63 320.97L 345 321.85L 363.99 323.18L 379.51 314.48L 392.63 316.86L 404 319.23L 422.99 318.57L 438.51 311.15L 451.63 314.09L 463 314.1L 481.99 315.36L 497.51 316.46L 510.63 310.39L 522 311.85L 540.99 312.91L 556.51 313.38L 569.63 307.89L 581 309.25L 599.99 310.89L 615.51 310.61L 628.63 310.32L 640 313.06L 658.99 314.24L 674.51 306.24L 687.63 306.99L 699 307.02L 717.99 307.81L 733.51 310.26L 746.63 300.73L 758 302.08L 776.99 304.54L 792.51 303.46L 805.63 304.74L 817 296.76L 835.99 298.96L 851.51 301.81L 864.63 301.36L 876 295.16L 894.99 294.88L 910.51 297.77L 923.63 296.78L 935 293.13L 953.99 296.67L 969.51 295.52L 982.63 296.9L 994 291.09L 1013 293.14L 1028.5 293.72L 1041.6 295.16L 1053 289.81L 1072 290.48L 1087.5 292.15L 1100.6 291.58L 1112 285.48L 1131 288.89L 1146.5 289.58L 1159.6 289.17L 1171 283.55L 1190 285.62L 1205.5 286.41L 1218.6 285.86L 1230 282.47" fill="none" stroke-width="4" stroke="#007AFF" stroke-opacity="1" stroke-linecap="round" stroke-linejoin="round"/>
    <path d="M 50 354.12L 109 381.82L 143.51 374.06L 168 386.4L 186.99 379.85L 202.51 386.27L 215.63 392.4L 227 397.1L 245.99 398.02L 261.51 403.22L 274.63 408.98L 286 413.68L 304.99 410.28L 320.51 416L 333.63 421.66L 345 424.21L 363.99 421.97L 379.51 426.71L 392.63 430.2L 404 431.83L 422.99 430.77L 438.51 426.64L 451.63 423.25L 463 420.87L 481.99 427.5L 497.51 422.59L 510.63 416.1L 522 414.51L 540.99 404.31L 556.51 400.43L 569.63 393.4L 581 390.08L 599.99 377.86L 615.51 370.05L 628.63 363.88L 640 359.24L 658.99 347.17L 674.51 339.2L 687.63 332.54L 699 326.46L 717.99 316.48L 733.51 308.49L 746.63 300.63L 758 294.75L 776.99 284.35L 792.51 275.81L 805.63 268.4L 817 262.23L 835.99 251.14L 851.51 242.66L 864.63 235.01L 876 228.34L 894.99 214.04L 910.51 202.22L 923.63 193.12L 935 185.69L 953.99 173.68L 969.51 164.56L 982.63 156.94L 994 150.06L 1013 139.35L 1028.5 130.44L 1041.6 123.42L 1053 116.89L 1072 106.72" fill="none" stroke-width="4" stroke="#FF3B30" stroke-opacity="1" stroke-linecap="round" stroke-linejoin="round"/>
    <path d="M 50 306.75L 109 324.49L 143.51 330.93L 168 333.42L 186.99 335.87L 202.51 335.73L 215.63 336.64L 227 321.03L 245.99 324.16L 261.51 325.91L 274.63 327.25L 286 327.63L 304.99 318.92L 320.51 320.18L 333.63 320.97L 345 321.85L 363.99 323.18L 379.51 314.48L 392.63 316.86L 404 319.23L 422.99 318.57L 438.51 311.15L 451.63 314.09L 463 314.1L 481.99 315.36L 497.51 316.46L 510.63 310.39L 522 311.85L 540.99 312.91L 556.51 313.38L 569.63 307.89L 581 309.25L 599.99 310.89L 615.51 310.61L 628.63 310.32L 640 313.06L 658.99 314.24L 674.51 306.24L 687.63 306.99L 699 307.02L 717.99 307.81L 733.51 310.26L 746.63 300.73L 758 302.08L 776.99 304.54L 792.51 303.46L 805.63 304.74L 817 296.76L 835.99 298.96L 851.51 301.81L 864.63 301.36L 876 295.16L 894.99 294.88L 910.51 297.77L 923.63 296.78L 935 293.13L 953.99 296.67L 969.51 295.52L 982.63 296.9L 994 291.09L 1013 293.14L 1028.5 293.72L 1041.6 295.16L 1053 289.81L 1072 290.48L 1087.5 292.15L 1100.6 291.58L 1112 285.48L 1131 288.89L 1146.5 289.58L 1159.6 289.17L 1171 283.55L 1190 285.62L 1205.5 286.41L 1218.6 285.86L 1230 282.47" fill="none" stroke-width="0.5" stroke="#000000" stroke-opacity="0.30196" stroke-linecap="round" stroke-linejoin="round"/>
    <path d="M 50 354.12L 109 381.82L 143.51 374.06L 168 386.4L 186.99 379.85L 202.51 386.27L 215.63 392.4L 227 397.1L 245.99 398.02L 261.51 403.22L 274.63 408.98L 286 413.68L 304.99 410.28L 320.51 416L 333.63 421.66L 345 424.21L 363.99 421.97L 379.51 426.71L 392.63 430.2L 404 431.83L 422.99 430.77L 438.51 426.64L 451.63 423.25L 463 420.87L 481.99 427.5L 497.51 422.59L 510.63 416.1L 522 414.51L 540.99 404.31L 556.51 400.43L 569.63 393.4L 581 390.08L 599.99 377.86L 615.51 370.05L 628.63 363.88L 640 359.24L 658.99 347.17L 674.51 339.2L 687.63 332.54L 699 326.46L 717.99 316.48L 733.51 308.49L 746.63 300.63L 758 294.75L 776.99 284.35L 792.51 275.81L 805.63 268.4L 817 262.23L 835.99 251.14L 851.51 242.66L 864.63 235.01L 876 228.34L 894.99 214.04L 910.51 202.22L 923.63 193.12L 935 185.69L 953.99 173.68L 969.51 164.56L 982.63 156.94L 994 150.06L 1013 139.35L 1028.5 130.44L 1041.6 123.42L 1053 116.89L 1072 106.72" fill="none" stroke-width="0.5" stroke="#000000" stroke-opacity="0.30196" stroke-linecap="round" stroke-linejoin="round"/>
  </g>
  <path d="M 74 33 L 74 88 L 290 88 L 290 33 z" fill="#FFFFFF" fill-opacity="0.7019607843137254" stroke-width="0.5" stroke="#000000" stroke-opacity="1" stroke-linecap="round" stroke-linejoin="round"/>
  <path d="M 88 52 L 108 52" fill="none" stroke-width="4" stroke="#FF3B30" stroke-opacity="1" stroke-linecap="round" stroke-linejoin="round"/>
  <path d="M 88 52 L 108 52" fill="none" stroke-width="0.5" stroke="#000000" stroke-opacity="0.30196" stroke-linecap="round" stroke-linejoin="round"/>
  <text x="119" y="56.17" font-family="Menlo" font-size="12" font-weight="normal" font-style="normal" fill="#000000" fill-opacity="1">Array&lt;Int&gt; prepend</text>
  <path d="M 88 69 L 108 69" fill="none" stroke-width="4" stroke="#007AFF" stroke-opacity="1" stroke-linecap="round" stroke-linejoin="round"/>
  <path d="M 88 69 L 108 69" fill="none" stroke-width="0.5" stroke="#000000" stroke-opacity="0.30196" stroke-linecap="round" stroke-linejoin="round"/>
  <text x="119" y="73.17" font-family="Menlo" font-size="12" font-weight="normal" font-style="normal" fill="#000000" fill-opacity="1">TreeArray&lt;Int&gt; prepend</text>
  <path d="M 50 9 L 50 441 L 1230 441 L 1230 9 z" fill="none" stroke-width="0.5" stroke="#000000" stroke-opacity="1" stroke-linecap="round" stroke-linejoin="round"/>
</svg>
