<!DOCTYPE svg PUBLIC "-//W3C//DTD SVG 1.1//EN" "http://www.w3.org/Graphics/SVG/1.1/DTD/svg11.dtd">
<svg width="1280.0px" height="480.0px" viewBox="0.0 0.0 1280.0 480.0" xmlns="http://www.w3.org/2000/svg" xmlns:xlink="http://www.w3.org/1999/xlink" version="1.1">
  <path d="M 0 0 L 0 480 L 1280 480 L 1280 0 z" fill="#FFFFFF" fill-opacity="1.0" stroke="none"/>
  <text x="50" y="468.7" font-family="Helvetica" font-size="10" font-weight="normal" font-style="normal" fill="#000000" fill-opacity="1">Average per-element processing time over input size (bands: min, mean, mean + 2stddev)</text>
  <a xlink:href="https://github.com/apple/swift-collections-benchmark"><text x="1107" y="468.7" font-family="Helvetica" font-size="10" font-weight="normal" font-style="normal" fill="#000000" fill-opacity="1">swift-collections-benchmark</text></a>
  <path d="M 50 9 L 50 441" fill="none" stroke-width="0.75" stroke="#000000" stroke-opacity="0.49804" stroke-linecap="butt" stroke-linejoin="round"/>
  <text x="47" y="453.7" font-family="Helvetica" font-size="10" font-weight="normal" font-style="normal" fill="#000000" fill-opacity="1">1</text>
  <path d="M 109 9 L 109 441" fill="none" stroke-width="0.75" stroke="#000000" stroke-opacity="0.49804" stroke-linecap="butt" stroke-linejoin="round"/>
  <text x="106" y="453.7" font-family="Helvetica" font-size="10" font-weight="normal" font-style="normal" fill="#000000" fill-opacity="1">2</text>
  <path d="M 168 9 L 168 441" fill="none" stroke-width="0.75" stroke="#000000" stroke-opacity="0.49804" stroke-linecap="butt" stroke-linejoin="round"/>
  <text x="165" y="453.7" font-family="Helvetica" font-size="10" font-weight="normal" font-style="normal" fill="#000000" fill-opacity="1">4</text>
  <path d="M 227 9 L 227 441" fill="none" stroke-width="0.75" stroke="#000000" stroke-opacity="0.49804" stroke-linecap="butt" stroke-linejoin="round"/>
  <text x="224" y="453.7" font-family="Helvetica" font-size="10" font-weight="normal" font-style="normal" fill="#000000" fill-opacity="1">8</text>
  <path d="M 286 9 L 286 441" fill="none" stroke-width="0.75" stroke="#000000" stroke-opacity="0.49804" stroke-linecap="butt" stroke-linejoin="round"/>
  <text x="280" y="453.7" font-family="Helvetica" font-size="10" font-weight="normal" font-style="normal" fill="#000000" fill-opacity="1">16</text>
  <path d="M 345 9 L 345 441" fill="none" stroke-width="0.75" stroke="#000000" stroke-opacity="0.49804" stroke-linecap="butt" stroke-linejoin="round"/>
  <text x="339" y="453.7" font-family="Helvetica" font-size="10" font-weight="normal" font-style="normal" fill="#000000" fill-opacity="1">32</text>
  <path d="M 404 9 L 404 441" fill="none" stroke-width="0.75" stroke="#000000" stroke-opacity="0.49804" stroke-linecap="butt" stroke-linejoin="round"/>
  <text x="398" y="453.7" font-family="Helvetica" font-size="10" font-weight="normal" font-style="normal" fill="#000000" fill-opacity="1">64</text>
  <path d="M 463 9 L 463 441" fill="none" stroke-width="0.75" stroke="#000000" stroke-opacity="0.49804" stroke-linecap="butt" stroke-linejoin="round"/>
  <text x="454.5" y="453.7" font-family="Helvetica" font-size="10" font-weight="normal" font-style="normal" fill="#000000" fill-opacity="1">128</text>
  <path d="M 522 9 L 522 441" fill="none" stroke-width="0.75" stroke="#000000" stroke-opacity="0.49804" stroke-linecap="butt" stroke-linejoin="round"/>
  <text x="513.5" y="453.7" font-family="Helvetica" font-size="10" font-weight="normal" font-style="normal" fill="#000000" fill-opacity="1">256</text>
  <path d="M 581 9 L 581 441" fill="none" stroke-width="0.75" stroke="#000000" stroke-opacity="0.49804" stroke-linecap="butt" stroke-linejoin="round"/>
  <text x="572.5" y="453.7" font-family="Helvetica" font-size="10" font-weight="normal" font-style="normal" fill="#000000" fill-opacity="1">512</text>
  <path d="M 640 9 L 640 441" fill="none" stroke-width="0.75" stroke="#000000" stroke-opacity="0.49804" stroke-linecap="butt" stroke-linejoin="round"/>
  <text x="634.5" y="453.7" font-family="Helvetica" font-size="10" font-weight="normal" font-style="normal" fill="#000000" fill-opacity="1">1k</text>
  <path d="M 699 9 L 699 441" fill="none" stroke-width="0.75" stroke="#000000" stroke-opacity="0.49804" stroke-linecap="butt" stroke-linejoin="round"/>
  <text x="693.5" y="453.7" font-family="Helvetica" font-size="10" font-weight="normal" font-style="normal" fill="#000000" fill-opacity="1">2k</text>
  <path d="M 758 9 L 758 441" fill="none" stroke-width="0.75" stroke="#000000" stroke-opacity="0.49804" stroke-linecap="butt" stroke-linejoin="round"/>
  <text x="752.5" y="453.7" font-family="Helvetica" font-size="10" font-weight="normal" font-style="normal" fill="#000000" fill-opacity="1">4k</text>
  <path d="M 817 9 L 817 441" fill="none" stroke-width="0.75" stroke="#000000" stroke-opacity="0.49804" stroke-linecap="butt" stroke-linejoin="round"/>
  <text x="811.5" y="453.7" font-family="Helvetica" font-size="10" font-weight="normal" font-style="normal" fill="#000000" fill-opacity="1">8k</text>
  <path d="M 876 9 L 876 441" fill="none" stroke-width="0.75" stroke="#000000" stroke-opacity="0.49804" stroke-linecap="butt" stroke-linejoin="round"/>
  <text x="867.5" y="453.7" font-family="Helvetica" font-size="10" font-weight="normal" font-style="normal" fill="#000000" fill-opacity="1">16k</text>
  <path d="M 935 9 L 935 441" fill="none" stroke-width="0.75" stroke="#000000" stroke-opacity="0.49804" stroke-linecap="butt" stroke-linejoin="round"/>
  <text x="926.5" y="453.7" font-family="Helvetica" font-size="10" font-weight="normal" font-style="normal" fill="#000000" fill-opacity="1">32k</text>
  <path d="M 994 9 L 994 441" fill="none" stroke-width="0.75" stroke="#000000" stroke-opacity="0.49804" stroke-linecap="butt" stroke-linejoin="round"/>
  <text x="985.5" y="453.7" font-family="Helvetica" font-size="10" font-weight="normal" font-style="normal" fill="#000000" fill-opacity="1">64k</text>
  <path d="M 1053 9 L 1053 441" fill="none" stroke-width="0.75" stroke="#000000" stroke-opacity="0.49804" stroke-linecap="butt" stroke-linejoin="round"/>
  <text x="1042" y="453.7" font-family="Helvetica" font-size="10" font-weight="normal" font-style="normal" fill="#000000" fill-opacity="1">128k</text>
  <path d="M 1112 9 L 1112 441" fill="none" stroke-width="0.75" stroke="#000000" stroke-opacity="0.49804" stroke-linecap="butt" stroke-linejoin="round"/>
  <text x="1101" y="453.7" font-family="Helvetica" font-size="10" font-weight="normal" font-style="normal" fill="#000000" fill-opacity="1">256k</text>
  <path d="M 1171 9 L 1171 441" fill="none" stroke-width="0.75" stroke="#000000" stroke-opacity="0.49804" stroke-linecap="butt" stroke-linejoin="round"/>
  <text x="1160" y="453.7" font-family="Helvetica" font-size="10" font-weight="normal" font-style="normal" fill="#000000" fill-opacity="1">512k</text>
  <path d="M 1230 9 L 1230 441" fill="none" stroke-width="0.75" stroke="#000000" stroke-opacity="0.49804" stroke-linecap="butt" stroke-linejoin="round"/>
  <text x="1223" y="453.7" font-family="Helvetica" font-size="10" font-weight="normal" font-style="normal" fill="#000000" fill-opacity="1">1M</text>
  <path d="M 50 441 L 1230 441" fill="none" stroke-width="0.75" stroke="#000000" stroke-opacity="0.49804" stroke-linecap="butt" stroke-linejoin="round"/>
  <text x="27" y="442.7" font-family="Helvetica" font-size="10" font-weight="normal" font-style="normal" fill="#000000" fill-opacity="1">1 ns</text>
  <text x="1236" y="442.7" font-family="Helvetica" font-size="10" font-weight="normal" font-style="normal" fill="#000000" fill-opacity="1">1 ns</text>
  <path d="M 50 354.6 L 1230 354.6" fill="none" stroke-width="0.75" stroke="#000000" stroke-opacity="0.49804" stroke-linecap="butt" stroke-linejoin="round"/>
  <text x="21" y="356.3" font-family="Helvetica" font-size="10" font-weight="normal" font-style="normal" fill="#000000" fill-opacity="1">10 ns</text>
  <text x="1236" y="356.3" font-family="Helvetica" font-size="10" font-weight="normal" font-style="normal" fill="#000000" fill-opacity="1">10 ns</text>
  <path d="M 50 268.2 L 1230 268.2" fill="none" stroke-width="0.75" stroke="#000000" stroke-opacity="0.49804" stroke-linecap="butt" stroke-linejoin="round"/>
  <text x="16" y="269.9" font-family="Helvetica" font-size="10" font-weight="normal" font-style="normal" fill="#000000" fill-opacity="1">100 ns</text>
  <text x="1236" y="269.9" font-family="Helvetica" font-size="10" font-weight="normal" font-style="normal" fill="#000000" fill-opacity="1">100 ns</text>
  <path d="M 50 181.8 L 1230 181.8" fill="none" stroke-width="0.75" stroke="#000000" stroke-opacity="0.49804" stroke-linecap="butt" stroke-linejoin="round"/>
  <text x="26" y="183.5" font-family="Helvetica" font-size="10" font-weight="normal" font-style="normal" fill="#000000" fill-opacity="1">1 µs</text>
  <text x="1236" y="183.5" font-family="Helvetica" font-size="10" font-weight="normal" font-style="normal" fill="#000000" fill-opacity="1">1 µs</text>
  <path d="M 50 95.4 L 1230 95.4" fill="none" stroke-width="0.75" stroke="#000000" stroke-opacity="0.49804" stroke-linecap="butt" stroke-linejoin="round"/>
  <text x="21" y="97.1" font-family="Helvetica" font-size="10" font-weight="normal" font-style="normal" fill="#000000" fill-opacity="1">10 µs</text>
  <text x="1236" y="97.1" font-family="Helvetica" font-size="10" font-weight="normal" font-style="normal" fill="#000000" fill-opacity="1">10 µs</text>
  <path d="M 50 9 L 1230 9" fill="none" stroke-width="0.75" stroke="#000000" stroke-opacity="0.49804" stroke-linecap="butt" stroke-linejoin="round"/>
  <text x="15" y="10.7" font-family="Helvetica" font-size="10" font-weight="normal" font-style="normal" fill="#000000" fill-opacity="1">100 µs</text>
  <text x="1236" y="10.7" font-family="Helvetica" font-size="10" font-weight="normal" font-style="normal" fill="#000000" fill-opacity="1">100 µs</text>
  <path d="M 50 414.99 L 1230 414.99" fill="none" stroke-width="0.5" stroke="#000000" stroke-opacity="0.25882" stroke-linecap="butt" stroke-linejoin="round" stroke-dasharray="6 3" stroke-dashoffset="0"/>
  <path d="M 50 388.98 L 1230 388.98" fill="none" stroke-width="0.5" stroke="#000000" stroke-opacity="0.25882" stroke-linecap="butt" stroke-linejoin="round" stroke-dasharray="6 3" stroke-dashoffset="0"/>
  <path d="M 50 362.97 L 1230 362.97" fill="none" stroke-width="0.5" stroke="#000000" stroke-opacity="0.25882" stroke-linecap="butt" stroke-linejoin="round" stroke-dasharray="6 3" stroke-dashoffset="0"/>
  <path d="M 50 336.96 L 1230 336.96" fill="none" stroke-width="0.5" stroke="#000000" stroke-opacity="0.25882" stroke-linecap="butt" stroke-linejoin="round" stroke-dasharray="6 3" stroke-dashoffset="0"/>
  <path d="M 50 310.96 L 1230 310.96" fill="none" stroke-width="0.5" stroke="#000000" stroke-opacity="0.25882" stroke-linecap="butt" stroke-linejoin="round" stroke-dasharray="6 3" stroke-dashoffset="0"/>
  <path d="M 50 284.95 L 1230 284.95" fill="none" stroke-width="0.5" stroke="#000000" stroke-opacity="0.25882" stroke-linecap="butt" stroke-linejoin="round" stroke-dasharray="6 3" stroke-dashoffset="0"/>
  <path d="M 50 258.94 L 1230 258.94" fill="none" stroke-width="0.5" stroke="#000000" stroke-opacity="0.25882" stroke-linecap="butt" stroke-linejoin="round" stroke-dasharray="6 3" stroke-dashoffset="0"/>
  <path d="M 50 232.93 L 1230 232.93" fill="none" stroke-width="0.5" stroke="#000000" stroke-opacity="0.25882" stroke-linecap="butt" stroke-linejoin="round" stroke-dasharray="6 3" stroke-dashoffset="0"/>
  <path d="M 50 206.92 L 1230 206.92" fill="none" stroke-width="0.5" stroke="#000000" stroke-opacity="0.25882" stroke-linecap="butt" stroke-linejoin="round" stroke-dasharray="6 3" stroke-dashoffset="0"/>
  <path d="M 50 180.91 L 1230 180.91" fill="none" stroke-width="0.5" stroke="#000000" stroke-opacity="0.25882" stroke-linecap="butt" stroke-linejoin="round" stroke-dasharray="6 3" stroke-dashoffset="0"/>
  <path d="M 50 154.9 L 1230 154.9" fill="none" stroke-width="0.5" stroke="#000000" stroke-opacity="0.25882" stroke-linecap="butt" stroke-linejoin="round" stroke-dasharray="6 3" stroke-dashoffset="0"/>
  <path d="M 50 128.89 L 1230 128.89" fill="none" stroke-width="0.5" stroke="#000000" stroke-opacity="0.25882" stroke-linecap="butt" stroke-linejoin="round" stroke-dasharray="6 3" stroke-dashoffset="0"/>
  <path d="M 50 102.88 L 1230 102.88" fill="none" stroke-width="0.5" stroke="#000000" stroke-opacity="0.25882" stroke-linecap="butt" stroke-linejoin="round" stroke-dasharray="6 3" stroke-dashoffset="0"/>
  <path d="M 50 76.874 L 1230 76.874" fill="none" stroke-width="0.5" stroke="#000000" stroke-opacity="0.25882" stroke-linecap="butt" stroke-linejoin="round" stroke-dasharray="6 3" stroke-dashoffset="0"/>
  <path d="M 50 50.865 L 1230 50.865" fill="none" stroke-width="0.5" stroke="#000000" stroke-opacity="0.25882" stroke-linecap="butt" stroke-linejoin="round" stroke-dasharray="6 3" stroke-dashoffset="0"/>
  <path d="M 50 24.856 L 1230 24.856" fill="none" stroke-width="0.5" stroke="#000000" stroke-opacity="0.25882" stroke-linecap="butt" stroke-linejoin="round" stroke-dasharray="6 3" stroke-dashoffset="0"/>
  <path d="M 74 33 L 74 105 L 290 105 L 290 33 z" fill="#FFFFFF" fill-opacity="1.0" stroke="none"/>
  <clipPath id="clip-0">
    <path d="M 50 9 L 50 441 L 1230 441 L 1230 9 z"/>
  </clipPath>
  <g clip-path="url(#clip-0)">
    <path d="M 50 275.78L 109 276.58L 143.51 290.08L 168 286.86L 186.99 294.28L 202.51 290.64L 215.63 295.81L 227 300.31L 245.99 300.03L 261.51 306.15L 274.63 310.18L 286 306.81L 304.99 316.59L 320.51 315.02L 333.63 320.17L 345 323.9L 363.99 323.46L 379.51 329.75L 392.63 329.46L 404 333.38L 422.99 339.37L 438.51 340.95L 451.63 345.67L 463 345.51L 481.99 350.46L 497.51 352.01L 510.63 355.72L 522 358.95L 540.99 360.67L 556.51 362.99L 569.63 366.63L 581 367.07L 599.99 370.21L 615.51 371.45L 628.63 373.35L 640 374.68L 658.99 375.83L 674.51 377.79L 687.63 377.55L 699 378.65L 717.99 380.69L 733.51 380.3L 746.63 381.64L 758 380.81L 776.99 381.1L 792.51 381.7L 805.63 383.96L 817 373.3L 835.99 384.13L 851.51 383.92L 864.63 379.33L 876 378.16L 894.99 363.74L 910.51 382.01L 923.63 382.07L 935 380.54L 953.99 372.91L 969.51 383.18L 982.63 376.55L 994 370.27L 1013 362.33L 1028.5 376.85L 1041.6 378.96L 1053 372.63L 1072 374.35L 1087.5 368.44L 1100.6 370.44L 1112 373.18L 1131 371.81L 1146.5 371.29L 1159.6 363.21L 1171 369.63L 1190 371.82L 1205.5 372.84L 1218.6 370.72L 1230 374.58L 1230 375.41L 1218.6 374.37L 1205.5 374.73L 1190 372.73L 1171 375.99L 1159.6 374.02L 1146.5 373.56L 1131 376.16L 1112 374.01L 1100.6 380.57L 1087.5 379.46L 1072 380.19L 1053 381.68L 1041.6 380.71L 1028.5 378.24L 1013 377.5L 994 381.13L 982.63 381.72L 969.51 384.74L 953.99 385.48L 935 384.88L 923.63 385.66L 910.51 385.16L 894.99 384.43L 876 385.03L 864.63 384.52L 851.51 383.97L 835.99 384.2L 817 382.87L 805.63 383.97L 792.51 383.26L 776.99 382.34L 758 381.3L 746.63 382.05L 733.51 380.95L 717.99 380.87L 699 379.13L 687.63 378.04L 674.51 377.92L 658.99 375.85L 640 375.12L 628.63 373.43L 615.51 371.65L 599.99 371.25L 581 367.31L 569.63 367.66L 556.51 364.98L 540.99 361.02L 522 359.12L 510.63 356.18L 497.51 352.66L 481.99 351.8L 463 346.38L 451.63 345.84L 438.51 341.67L 422.99 339.82L 404 333.46L 392.63 330.17L 379.51 330.1L 363.99 325L 345 324.11L 333.63 320.22L 320.51 315.5L 304.99 316.7L 286 309.87L 274.63 311.92L 261.51 306.64L 245.99 300.61L 227 300.4L 215.63 295.9L 202.51 290.82L 186.99 294.52L 168 286.98L 143.51 290.26L 109 276.77L 50 275.99" fill="#28CD41" fill-opacity="0.30196078431372547" stroke="none"/>
    <path d="M 50 247.02L 109 260.84L 143.51 267.06L 168 268.3L 186.99 269.69L 202.51 269.83L 215.63 271.41L 227 258.74L 245.99 260.76L 261.51 261.7L 274.63 263.3L 286 264.84L 304.99 256.69L 320.51 256.17L 333.63 257.82L 345 258.33L 363.99 261.77L 379.51 253.05L 392.63 254.41L 404 253.8L 422.99 256.07L 438.51 250.07L 451.63 251.72L 463 251.87L 481.99 253.64L 497.51 255.29L 510.63 249.07L 522 248.16L 540.99 251.02L 556.51 251.34L 569.63 246.7L 581 247.89L 599.99 246.97L 615.51 249.15L 628.63 248.7L 640 252.17L 658.99 248.97L 674.51 244.76L 687.63 246.19L 699 246.13L 717.99 247.18L 733.51 243.58L 746.63 239.76L 758 243.61L 776.99 239.69L 792.51 244.26L 805.63 245.19L 817 239.18L 835.99 236.13L 851.51 241.36L 864.63 239.89L 876 236.4L 894.99 238.59L 910.51 238.72L 923.63 238.09L 935 234.43L 953.99 235.08L 969.51 237.53L 982.63 238.49L 994 227.78L 1013 235.07L 1028.5 232.02L 1041.6 232.08L 1053 230.39L 1072 233.53L 1087.5 233.65L 1100.6 233.4L 1112 230.41L 1131 232.34L 1146.5 232.42L 1159.6 229.48L 1171 224.89L 1190 229.92L 1205.5 229.87L 1218.6 229.95L 1230 225.95L 1230 228.65L 1218.6 232.45L 1205.5 230.76L 1190 231.52L 1171 229.09L 1159.6 232.78L 1146.5 232.81L 1131 232.53L 1112 230.73L 1100.6 236.21L 1087.5 235.77L 1072 234.57L 1053 233.98L 1041.6 237.45L 1028.5 236.77L 1013 235.96L 994 234.09L 982.63 238.84L 969.51 239.3L 953.99 238.8L 935 236.15L 923.63 241.23L 910.51 240.36L 894.99 239.17L 876 238.2L 864.63 243.13L 851.51 242.66L 835.99 241.05L 817 241.91L 805.63 246.5L 792.51 245.1L 776.99 246.15L 758 243.86L 746.63 244.69L 733.51 248.38L 717.99 248.03L 699 247.62L 687.63 246.88L 674.51 246.22L 658.99 252.69L 640 252.29L 628.63 252.02L 615.51 250.59L 599.99 252.52L 581 248.02L 569.63 247.31L 556.51 253.13L 540.99 253.08L 522 251.69L 510.63 250.88L 497.51 258.05L 481.99 254.43L 463 254.46L 451.63 251.85L 438.51 250.6L 422.99 256.58L 404 256.52L 392.63 255.41L 379.51 253.23L 363.99 262.41L 345 259.05L 333.63 259.83L 320.51 259.32L 304.99 257.41L 286 264.84L 274.63 263.81L 261.51 264.23L 245.99 261.09L 227 259.69L 215.63 272.45L 202.51 271.81L 186.99 270.12L 168 268.67L 143.51 267.17L 109 262.35L 50 247.02" fill="#007AFF" fill-opacity="0.30196078431372547" stroke="none"/>
    <path d="M 50 285.09L 109 306.95L 143.51 301.05L 168 308.42L 186.99 305.67L 202.51 309.58L 215.63 315.61L 227 319.38L 245.99 320.22L 261.51 324.29L 274.63 328.98L 286 332.36L 304.99 329.57L 320.51 334.23L 333.63 337.99L 345 341.12L 363.99 338.61L 379.51 342.87L 392.63 345.65L 404 346.45L 422.99 345.58L 438.51 333.53L 451.63 326.94L 463 322.76L 481.99 343.38L 497.51 339.5L 510.63 330.19L 522 333.26L 540.99 321.87L 556.51 321.97L 569.63 312.94L 581 313.7L 599.99 298.79L 615.51 295.28L 628.63 287.69L 640 286.82L 658.99 275.46L 674.51 272.35L 687.63 267.8L 699 260.72L 717.99 253.77L 733.51 248.13L 746.63 241.98L 758 237.33L 776.99 228.96L 792.51 222.29L 805.63 216L 817 211.35L 835.99 201.55L 851.51 194.88L 864.63 188.3L 876 182.11L 894.99 172.9L 910.51 163.51L 923.63 156.18L 935 150.32L 953.99 139.94L 969.51 133.38L 982.63 127.08L 994 121.64L 1013 112.76L 1028.5 105.45L 1041.6 100.17L 1053 94.428L 1072 87.177L 1072 87.177L 1053 95.628L 1041.6 100.66L 1028.5 106.4L 1013 113.46L 994 121.93L 982.63 127.45L 969.51 133.47L 953.99 141.03L 935 150.37L 923.63 156.34L 910.51 163.6L 894.99 173.08L 876 185.34L 864.63 190.36L 851.51 196.31L 835.99 203.13L 817 211.66L 805.63 216.7L 792.51 222.51L 776.99 229.39L 758 237.69L 746.63 242.42L 733.51 248.76L 717.99 255.42L 699 263.79L 687.63 267.84L 674.51 273.44L 658.99 281.09L 640 290.07L 628.63 294.93L 615.51 298.78L 599.99 306.15L 581 313.92L 569.63 317.87L 556.51 322.2L 540.99 326.52L 522 333.46L 510.63 336.4L 497.51 340L 481.99 343.95L 463 346.13L 451.63 346.61L 438.51 347.19L 422.99 346.71L 404 347.56L 392.63 346.07L 379.51 343.27L 363.99 339.65L 345 341.19L 333.63 339.54L 320.51 334.74L 304.99 330.19L 286 332.88L 274.63 328.98L 261.51 324.4L 245.99 320.22L 227 319.52L 215.63 315.76L 202.51 311.27L 186.99 305.68L 168 311.84L 143.51 301.05L 109 307.37L 50 285.09" fill="#FF3B30" fill-opacity="0.30196078431372547" stroke="none"/>
    <path d="M 50 275.94L 109 276.72L 143.51 290.21L 168 286.95L 186.99 294.46L 202.51 290.78L 215.63 295.88L 227 300.38L 245.99 300.46L 261.51 306.51L 274.63 311.45L 286 309.04L 304.99 316.67L 320.51 315.37L 333.63 320.21L 345 324.05L 363.99 324.59L 379.51 330.01L 392.63 329.98L 404 333.44L 422.99 339.7L 438.51 341.48L 451.63 345.79L 463 346.15L 481.99 351.45L 497.51 352.49L 510.63 356.06L 522 359.07L 540.99 360.93L 556.51 364.45L 569.63 367.39L 581 367.25L 599.99 370.98L 615.51 371.6L 628.63 373.41L 640 375.01L 658.99 375.84L 674.51 377.89L 687.63 377.91L 699 379.01L 717.99 380.82L 733.51 380.78L 746.63 381.94L 758 381.17L 776.99 382.01L 792.51 382.85L 805.63 383.97L 817 380.13L 835.99 384.18L 851.51 383.96L 864.63 383.1L 876 383.11L 894.99 377.84L 910.51 384.31L 923.63 384.69L 935 383.7L 953.99 381.77L 969.51 384.32L 982.63 380.3L 994 377.98L 1013 372.91L 1028.5 377.88L 1041.6 380.25L 1053 379.1L 1072 378.57L 1087.5 376.26L 1100.6 377.65L 1112 373.79L 1131 374.97L 1146.5 372.95L 1159.6 370.88L 1171 374.23L 1190 372.49L 1205.5 374.23L 1218.6 373.38L 1230 375.19" fill="none" stroke-width="4" stroke="#28CD41" stroke-opacity="1" stroke-linecap="round" stroke-linejoin="round"/>
    <path d="M 50 247.02L 109 261.95L 143.51 267.14L 168 268.57L 186.99 270.01L 202.51 271.28L 215.63 272.18L 227 259.44L 245.99 261.01L 261.51 263.55L 274.63 263.68L 286 264.84L 304.99 257.22L 320.51 258.47L 333.63 259.29L 345 258.86L 363.99 262.24L 379.51 253.18L 392.63 255.14L 404 255.79L 422.99 256.44L 438.51 250.46L 451.63 251.82L 463 253.77L 481.99 254.22L 497.51 257.31L 510.63 250.4L 522 250.74L 540.99 252.53L 556.51 252.66L 569.63 247.15L 581 247.99L 599.99 250.99L 615.51 250.21L 628.63 251.12L 640 252.26L 658.99 251.68L 674.51 245.83L 687.63 246.7L 699 247.23L 717.99 247.8L 733.51 247.07L 746.63 243.34L 758 243.79L 776.99 244.35L 792.51 244.88L 805.63 246.16L 817 241.18L 835.99 239.7L 851.51 242.32L 864.63 242.25L 876 237.72L 894.99 239.02L 910.51 239.92L 923.63 240.38L 935 235.69L 953.99 237.79L 969.51 238.83L 982.63 238.75L 994 232.33L 1013 235.73L 1028.5 235.47L 1041.6 235.97L 1053 233.01L 1072 234.3L 1087.5 235.2L 1100.6 235.45L 1112 230.64L 1131 232.48L 1146.5 232.71L 1159.6 231.89L 1171 227.95L 1190 231.1L 1205.5 230.52L 1218.6 231.78L 1230 227.93" fill="none" stroke-width="4" stroke="#007AFF" stroke-opacity="1" stroke-linecap="round" stroke-linejoin="round"/>
    <path d="M 50 285.09L 109 307.26L 143.51 301.05L 168 310.92L 186.99 305.68L 202.51 310.82L 215.63 315.72L 227 319.48L 245.99 320.22L 261.51 324.37L 274.63 328.98L 286 332.75L 304.99 330.03L 320.51 334.6L 333.63 339.13L 345 341.17L 363.99 339.37L 379.51 343.17L 392.63 345.96L 404 347.27L 422.99 346.42L 438.51 343.12L 451.63 340.4L 463 338.49L 481.99 343.8L 497.51 339.87L 510.63 334.68L 522 333.41L 540.99 325.25L 556.51 322.14L 569.63 316.52L 581 313.86L 599.99 304.09L 615.51 297.84L 628.63 292.9L 640 289.19L 658.99 279.54L 674.51 273.16L 687.63 267.83L 699 262.97L 717.99 254.98L 733.51 248.6L 746.63 242.31L 758 237.6L 776.99 229.28L 792.51 222.45L 805.63 216.52L 817 211.58L 835.99 202.71L 851.51 195.93L 864.63 189.81L 876 184.47L 894.99 173.03L 910.51 163.58L 923.63 156.29L 935 150.36L 953.99 140.75L 969.51 133.45L 982.63 127.35L 994 121.85L 1013 113.28L 1028.5 106.15L 1041.6 100.53L 1053 95.311L 1072 87.177" fill="none" stroke-width="4" stroke="#FF3B30" stroke-opacity="1" stroke-linecap="round" stroke-linejoin="round"/>
    <path d="M 50 275.94L 109 276.72L 143.51 290.21L 168 286.95L 186.99 294.46L 202.51 290.78L 215.63 295.88L 227 300.38L 245.99 300.46L 261.51 306.51L 274.63 311.45L 286 309.04L 304.99 316.67L 320.51 315.37L 333.63 320.21L 345 324.05L 363.99 324.59L 379.51 330.01L 392.63 329.98L 404 333.44L 422.99 339.7L 438.51 341.48L 451.63 345.79L 463 346.15L 481.99 351.45L 497.51 352.49L 510.63 356.06L 522 359.07L 540.99 360.93L 556.51 364.45L 569.63 367.39L 581 367.25L 599.99 370.98L 615.51 371.6L 628.63 373.41L 640 375.01L 658.99 375.84L 674.51 377.89L 687.63 377.91L 699 379.01L 717.99 380.82L 733.51 380.78L 746.63 381.94L 758 381.17L 776.99 382.01L 792.51 382.85L 805.63 383.97L 817 380.13L 835.99 384.18L 851.51 383.96L 864.63 383.1L 876 383.11L 894.99 377.84L 910.51 384.31L 923.63 384.69L 935 383.7L 953.99 381.77L 969.51 384.32L 982.63 380.3L 994 377.98L 1013 372.91L 1028.5 377.88L 1041.6 380.25L 1053 379.1L 1072 378.57L 1087.5 376.26L 1100.6 377.65L 1112 373.79L 1131 374.97L 1146.5 372.95L 1159.6 370.88L 1171 374.23L 1190 372.49L 1205.5 374.23L 1218.6 373.38L 1230 375.19" fill="none" stroke-width="0.5" stroke="#000000" stroke-opacity="0.30196" stroke-linecap="round" stroke-linejoin="round"/>
    <path d="M 50 247.02L 109 261.95L 143.51 267.14L 168 268.57L 186.99 270.01L 202.51 271.28L 215.63 272.18L 227 259.44L 245.99 261.01L 261.51 263.55L 274.63 263.68L 286 264.84L 304.99 257.22L 320.51 258.47L 333.63 259.29L 345 258.86L 363.99 262.24L 379.51 253.18L 392.63 255.14L 404 255.79L 422.99 256.44L 438.51 250.46L 451.63 251.82L 463 253.77L 481.99 254.22L 497.51 257.31L 510.63 250.4L 522 250.74L 540.99 252.53L 556.51 252.66L 569.63 247.15L 581 247.99L 599.99 250.99L 615.51 250.21L 628.63 251.12L 640 252.26L 658.99 251.68L 674.51 245.83L 687.63 246.7L 699 247.23L 717.99 247.8L 733.51 247.07L 746.63 243.34L 758 243.79L 776.99 244.35L 792.51 244.88L 805.63 246.16L 817 241.18L 835.99 239.7L 851.51 242.32L 864.63 242.25L 876 237.72L 894.99 239.02L 910.51 239.92L 923.63 240.38L 935 235.69L 953.99 237.79L 969.51 238.83L 982.63 238.75L 994 232.33L 1013 235.73L 1028.5 235.47L 1041.6 235.97L 1053 233.01L 1072 234.3L 1087.5 235.2L 1100.6 235.45L 1112 230.64L 1131 232.48L 1146.5 232.71L 1159.6 231.89L 1171 227.95L 1190 231.1L 1205.5 230.52L 1218.6 231.78L 1230 227.93" fill="none" stroke-width="0.5" stroke="#000000" stroke-opacity="0.30196" stroke-linecap="round" stroke-linejoin="round"/>
    <path d="M 50 285.09L 109 307.26L 143.51 301.05L 168 310.92L 186.99 305.68L 202.51 310.82L 215.63 315.72L 227 319.48L 245.99 320.22L 261.51 324.37L 274.63 328.98L 286 332.75L 304.99 330.03L 320.51 334.6L 333.63 339.13L 345 341.17L 363.99 339.37L 379.51 343.17L 392.63 345.96L 404 347.27L 422.99 346.42L 438.51 343.12L 451.63 340.4L 463 338.49L 481.99 343.8L 497.51 339.87L 510.63 334.68L 522 333.41L 540.99 325.25L 556.51 322.14L 569.63 316.52L 581 313.86L 599.99 304.09L 615.51 297.84L 628.63 292.9L 640 289.19L 658.99 279.54L 674.51 273.16L 687.63 267.83L 699 262.97L 717.99 254.98L 733.51 248.6L 746.63 242.31L 758 237.6L 776.99 229.28L 792.51 222.45L 805.63 216.52L 817 211.58L 835.99 202.71L 851.51 195.93L 864.63 189.81L 876 184.47L 894.99 173.03L 910.51 163.58L 923.63 156.29L 935 150.36L 953.99 140.75L 969.51 133.45L 982.63 127.35L 994 121.85L 1013 113.28L 1028.5 106.15L 1041.6 100.53L 1053 95.311L 1072 87.177" fill="none" stroke-width="0.5" stroke="#000000" stroke-opacity="0.30196" stroke-linecap="round" stroke-linejoin="round"/>
  </g>
  <path d="M 74 33 L 74 105 L 290 105 L 290 33 z" fill="#FFFFFF" fill-opacity="0.7019607843137254" stroke-width="0.5" stroke="#000000" stroke-opacity="1" stroke-linecap="round" stroke-linejoin="round"/>
  <path d="M 88 52 L 108 52" fill="none" stroke-width="4" stroke="#FF3B30" stroke-opacity="1" stroke-linecap="round" stroke-linejoin="round"/>
  <path d="M 88 52 L 108 52" fill="none" stroke-width="0.5" stroke="#000000" stroke-opacity="0.30196" stroke-linecap="round" stroke-linejoin="round"/>
  <text x="119" y="56.17" font-family="Menlo" font-size="12" font-weight="normal" font-style="normal" fill="#000000" fill-opacity="1">Array&lt;Int&gt; prepend</text>
  <path d="M 88 69 L 108 69" fill="none" stroke-width="4" stroke="#007AFF" stroke-opacity="1" stroke-linecap="round" stroke-linejoin="round"/>
  <path d="M 88 69 L 108 69" fill="none" stroke-width="0.5" stroke="#000000" stroke-opacity="0.30196" stroke-linecap="round" stroke-linejoin="round"/>
  <text x="119" y="73.17" font-family="Menlo" font-size="12" font-weight="normal" font-style="normal" fill="#000000" fill-opacity="1">TreeArray&lt;Int&gt; prepend</text>
  <path d="M 88 86 L 108 86" fill="none" stroke-width="4" stroke="#28CD41" stroke-opacity="1" stroke-linecap="round" stroke-linejoin="round"/>
  <path d="M 88 86 L 108 86" fill="none" stroke-width="0.5" stroke="#000000" stroke-opacity="0.30196" stroke-linecap="round" stroke-linejoin="round"/>
  <text x="119" y="90.17" font-family="Menlo" font-size="12" font-weight="normal" font-style="normal" fill="#000000" fill-opacity="1">Deque&lt;Int&gt; prepend</text>
  <path d="M 50 9 L 50 441 L 1230 441 L 1230 9 z" fill="none" stroke-width="0.5" stroke="#000000" stroke-opacity="1" stroke-linecap="round" stroke-linejoin="round"/>
</svg>
