<!DOCTYPE svg PUBLIC "-//W3C//DTD SVG 1.1//EN" "http://www.w3.org/Graphics/SVG/1.1/DTD/svg11.dtd">
<svg width="1280.0px" height="480.0px" viewBox="0.0 0.0 1280.0 480.0" xmlns="http://www.w3.org/2000/svg" xmlns:xlink="http://www.w3.org/1999/xlink" version="1.1">
  <path d="M 0 0 L 0 480 L 1280 480 L 1280 0 z" fill="#FFFFFF" fill-opacity="1.0" stroke="none"/>
  <text x="50" y="468.7" font-family="Helvetica" font-size="10" font-weight="normal" font-style="normal" fill="#000000" fill-opacity="1">Average per-element processing time over input size (bands: min, mean, mean + 2stddev)</text>
  <a xlink:href="https://github.com/apple/swift-collections-benchmark"><text x="1107" y="468.7" font-family="Helvetica" font-size="10" font-weight="normal" font-style="normal" fill="#000000" fill-opacity="1">swift-collections-benchmark</text></a>
  <path d="M 50 9 L 50 441" fill="none" stroke-width="0.75" stroke="#000000" stroke-opacity="0.49804" stroke-linecap="butt" stroke-linejoin="round"/>
  <text x="47" y="453.7" font-family="Helvetica" font-size="10" font-weight="normal" font-style="normal" fill="#000000" fill-opacity="1">1</text>
  <path d="M 109 9 L 109 441" fill="none" stroke-width="0.75" stroke="#000000" stroke-opacity="0.49804" stroke-linecap="butt" stroke-linejoin="round"/>
  <text x="106" y="453.7" font-family="Helvetica" font-size="10" font-weight="normal" font-style="normal" fill="#000000" fill-opacity="1">2</text>
  <path d="M 168 9 L 168 441" fill="none" stroke-width="0.75" stroke="#000000" stroke-opacity="0.49804" stroke-linecap="butt" stroke-linejoin="round"/>
  <text x="165" y="453.7" font-family="Helvetica" font-size="10" font-weight="normal" font-style="normal" fill="#000000" fill-opacity="1">4</text>
  <path d="M 227 9 L 227 441" fill="none" stroke-width="0.75" stroke="#000000" stroke-opacity="0.49804" stroke-linecap="butt" stroke-linejoin="round"/>
  <text x="224" y="453.7" font-family="Helvetica" font-size="10" font-weight="normal" font-style="normal" fill="#000000" fill-opacity="1">8</text>
  <path d="M 286 9 L 286 441" fill="none" stroke-width="0.75" stroke="#000000" stroke-opacity="0.49804" stroke-linecap="butt" stroke-linejoin="round"/>
  <text x="280" y="453.7" font-family="Helvetica" font-size="10" font-weight="normal" font-style="normal" fill="#000000" fill-opacity="1">16</text>
  <path d="M 345 9 L 345 441" fill="none" stroke-width="0.75" stroke="#000000" stroke-opacity="0.49804" stroke-linecap="butt" stroke-linejoin="round"/>
  <text x="339" y="453.7" font-family="Helvetica" font-size="10" font-weight="normal" font-style="normal" fill="#000000" fill-opacity="1">32</text>
  <path d="M 404 9 L 404 441" fill="none" stroke-width="0.75" stroke="#000000" stroke-opacity="0.49804" stroke-linecap="butt" stroke-linejoin="round"/>
  <text x="398" y="453.7" font-family="Helvetica" font-size="10" font-weight="normal" font-style="normal" fill="#000000" fill-opacity="1">64</text>
  <path d="M 463 9 L 463 441" fill="none" stroke-width="0.75" stroke="#000000" stroke-opacity="0.49804" stroke-linecap="butt" stroke-linejoin="round"/>
  <text x="454.5" y="453.7" font-family="Helvetica" font-size="10" font-weight="normal" font-style="normal" fill="#000000" fill-opacity="1">128</text>
  <path d="M 522 9 L 522 441" fill="none" stroke-width="0.75" stroke="#000000" stroke-opacity="0.49804" stroke-linecap="butt" stroke-linejoin="round"/>
  <text x="513.5" y="453.7" font-family="Helvetica" font-size="10" font-weight="normal" font-style="normal" fill="#000000" fill-opacity="1">256</text>
  <path d="M 581 9 L 581 441" fill="none" stroke-width="0.75" stroke="#000000" stroke-opacity="0.49804" stroke-linecap="butt" stroke-linejoin="round"/>
  <text x="572.5" y="453.7" font-family="Helvetica" font-size="10" font-weight="normal" font-style="normal" fill="#000000" fill-opacity="1">512</text>
  <path d="M 640 9 L 640 441" fill="none" stroke-width="0.75" stroke="#000000" stroke-opacity="0.49804" stroke-linecap="butt" stroke-linejoin="round"/>
  <text x="634.5" y="453.7" font-family="Helvetica" font-size="10" font-weight="normal" font-style="normal" fill="#000000" fill-opacity="1">1k</text>
  <path d="M 699 9 L 699 441" fill="none" stroke-width="0.75" stroke="#000000" stroke-opacity="0.49804" stroke-linecap="butt" stroke-linejoin="round"/>
  <text x="693.5" y="453.7" font-family="Helvetica" font-size="10" font-weight="normal" font-style="normal" fill="#000000" fill-opacity="1">2k</text>
  <path d="M 758 9 L 758 441" fill="none" stroke-width="0.75" stroke="#000000" stroke-opacity="0.49804" stroke-linecap="butt" stroke-linejoin="round"/>
  <text x="752.5" y="453.7" font-family="Helvetica" font-size="10" font-weight="normal" font-style="normal" fill="#000000" fill-opacity="1">4k</text>
  <path d="M 817 9 L 817 441" fill="none" stroke-width="0.75" stroke="#000000" stroke-opacity="0.49804" stroke-linecap="butt" stroke-linejoin="round"/>
  <text x="811.5" y="453.7" font-family="Helvetica" font-size="10" font-weight="normal" font-style="normal" fill="#000000" fill-opacity="1">8k</text>
  <path d="M 876 9 L 876 441" fill="none" stroke-width="0.75" stroke="#000000" stroke-opacity="0.49804" stroke-linecap="butt" stroke-linejoin="round"/>
  <text x="867.5" y="453.7" font-family="Helvetica" font-size="10" font-weight="normal" font-style="normal" fill="#000000" fill-opacity="1">16k</text>
  <path d="M 935 9 L 935 441" fill="none" stroke-width="0.75" stroke="#000000" stroke-opacity="0.49804" stroke-linecap="butt" stroke-linejoin="round"/>
  <text x="926.5" y="453.7" font-family="Helvetica" font-size="10" font-weight="normal" font-style="normal" fill="#000000" fill-opacity="1">32k</text>
  <path d="M 994 9 L 994 441" fill="none" stroke-width="0.75" stroke="#000000" stroke-opacity="0.49804" stroke-linecap="butt" stroke-linejoin="round"/>
  <text x="985.5" y="453.7" font-family="Helvetica" font-size="10" font-weight="normal" font-style="normal" fill="#000000" fill-opacity="1">64k</text>
  <path d="M 1053 9 L 1053 441" fill="none" stroke-width="0.75" stroke="#000000" stroke-opacity="0.49804" stroke-linecap="butt" stroke-linejoin="round"/>
  <text x="1042" y="453.7" font-family="Helvetica" font-size="10" font-weight="normal" font-style="normal" fill="#000000" fill-opacity="1">128k</text>
  <path d="M 1112 9 L 1112 441" fill="none" stroke-width="0.75" stroke="#000000" stroke-opacity="0.49804" stroke-linecap="butt" stroke-linejoin="round"/>
  <text x="1101" y="453.7" font-family="Helvetica" font-size="10" font-weight="normal" font-style="normal" fill="#000000" fill-opacity="1">256k</text>
  <path d="M 1171 9 L 1171 441" fill="none" stroke-width="0.75" stroke="#000000" stroke-opacity="0.49804" stroke-linecap="butt" stroke-linejoin="round"/>
  <text x="1160" y="453.7" font-family="Helvetica" font-size="10" font-weight="normal" font-style="normal" fill="#000000" fill-opacity="1">512k</text>
  <path d="M 1230 9 L 1230 441" fill="none" stroke-width="0.75" stroke="#000000" stroke-opacity="0.49804" stroke-linecap="butt" stroke-linejoin="round"/>
  <text x="1223" y="453.7" font-family="Helvetica" font-size="10" font-weight="normal" font-style="normal" fill="#000000" fill-opacity="1">1M</text>
  <path d="M 50 441 L 1230 441" fill="none" stroke-width="0.75" stroke="#000000" stroke-opacity="0.49804" stroke-linecap="butt" stroke-linejoin="round"/>
  <text x="21" y="442.7" font-family="Helvetica" font-size="10" font-weight="normal" font-style="normal" fill="#000000" fill-opacity="1">10 ns</text>
  <text x="1236" y="442.7" font-family="Helvetica" font-size="10" font-weight="normal" font-style="normal" fill="#000000" fill-opacity="1">10 ns</text>
  <path d="M 50 333 L 1230 333" fill="none" stroke-width="0.75" stroke="#000000" stroke-opacity="0.49804" stroke-linecap="butt" stroke-linejoin="round"/>
  <text x="16" y="334.7" font-family="Helvetica" font-size="10" font-weight="normal" font-style="normal" fill="#000000" fill-opacity="1">100 ns</text>
  <text x="1236" y="334.7" font-family="Helvetica" font-size="10" font-weight="normal" font-style="normal" fill="#000000" fill-opacity="1">100 ns</text>
  <path d="M 50 225 L 1230 225" fill="none" stroke-width="0.75" stroke="#000000" stroke-opacity="0.49804" stroke-linecap="butt" stroke-linejoin="round"/>
  <text x="26" y="226.7" font-family="Helvetica" font-size="10" font-weight="normal" font-style="normal" fill="#000000" fill-opacity="1">1 µs</text>
  <text x="1236" y="226.7" font-family="Helvetica" font-size="10" font-weight="normal" font-style="normal" fill="#000000" fill-opacity="1">1 µs</text>
  <path d="M 50 117 L 1230 117" fill="none" stroke-width="0.75" stroke="#000000" stroke-opacity="0.49804" stroke-linecap="butt" stroke-linejoin="round"/>
  <text x="21" y="118.7" font-family="Helvetica" font-size="10" font-weight="normal" font-style="normal" fill="#000000" fill-opacity="1">10 µs</text>
  <text x="1236" y="118.7" font-family="Helvetica" font-size="10" font-weight="normal" font-style="normal" fill="#000000" fill-opacity="1">10 µs</text>
  <path d="M 50 9 L 1230 9" fill="none" stroke-width="0.75" stroke="#000000" stroke-opacity="0.49804" stroke-linecap="butt" stroke-linejoin="round"/>
  <text x="15" y="10.7" font-family="Helvetica" font-size="10" font-weight="normal" font-style="normal" fill="#000000" fill-opacity="1">100 µs</text>
  <text x="1236" y="10.7" font-family="Helvetica" font-size="10" font-weight="normal" font-style="normal" fill="#000000" fill-opacity="1">100 µs</text>
  <path d="M 50 408.49 L 1230 408.49" fill="none" stroke-width="0.5" stroke="#000000" stroke-opacity="0.25882" stroke-linecap="butt" stroke-linejoin="round" stroke-dasharray="6 3" stroke-dashoffset="0"/>
  <path d="M 50 375.98 L 1230 375.98" fill="none" stroke-width="0.5" stroke="#000000" stroke-opacity="0.25882" stroke-linecap="butt" stroke-linejoin="round" stroke-dasharray="6 3" stroke-dashoffset="0"/>
  <path d="M 50 343.47 L 1230 343.47" fill="none" stroke-width="0.5" stroke="#000000" stroke-opacity="0.25882" stroke-linecap="butt" stroke-linejoin="round" stroke-dasharray="6 3" stroke-dashoffset="0"/>
  <path d="M 50 310.96 L 1230 310.96" fill="none" stroke-width="0.5" stroke="#000000" stroke-opacity="0.25882" stroke-linecap="butt" stroke-linejoin="round" stroke-dasharray="6 3" stroke-dashoffset="0"/>
  <path d="M 50 278.44 L 1230 278.44" fill="none" stroke-width="0.5" stroke="#000000" stroke-opacity="0.25882" stroke-linecap="butt" stroke-linejoin="round" stroke-dasharray="6 3" stroke-dashoffset="0"/>
  <path d="M 50 245.93 L 1230 245.93" fill="none" stroke-width="0.5" stroke="#000000" stroke-opacity="0.25882" stroke-linecap="butt" stroke-linejoin="round" stroke-dasharray="6 3" stroke-dashoffset="0"/>
  <path d="M 50 213.42 L 1230 213.42" fill="none" stroke-width="0.5" stroke="#000000" stroke-opacity="0.25882" stroke-linecap="butt" stroke-linejoin="round" stroke-dasharray="6 3" stroke-dashoffset="0"/>
  <path d="M 50 180.91 L 1230 180.91" fill="none" stroke-width="0.5" stroke="#000000" stroke-opacity="0.25882" stroke-linecap="butt" stroke-linejoin="round" stroke-dasharray="6 3" stroke-dashoffset="0"/>
  <path d="M 50 148.4 L 1230 148.4" fill="none" stroke-width="0.5" stroke="#000000" stroke-opacity="0.25882" stroke-linecap="butt" stroke-linejoin="round" stroke-dasharray="6 3" stroke-dashoffset="0"/>
  <path d="M 50 115.89 L 1230 115.89" fill="none" stroke-width="0.5" stroke="#000000" stroke-opacity="0.25882" stroke-linecap="butt" stroke-linejoin="round" stroke-dasharray="6 3" stroke-dashoffset="0"/>
  <path d="M 50 83.376 L 1230 83.376" fill="none" stroke-width="0.5" stroke="#000000" stroke-opacity="0.25882" stroke-linecap="butt" stroke-linejoin="round" stroke-dasharray="6 3" stroke-dashoffset="0"/>
  <path d="M 50 50.865 L 1230 50.865" fill="none" stroke-width="0.5" stroke="#000000" stroke-opacity="0.25882" stroke-linecap="butt" stroke-linejoin="round" stroke-dasharray="6 3" stroke-dashoffset="0"/>
  <path d="M 50 18.354 L 1230 18.354" fill="none" stroke-width="0.5" stroke="#000000" stroke-opacity="0.25882" stroke-linecap="butt" stroke-linejoin="round" stroke-dasharray="6 3" stroke-dashoffset="0"/>
  <path d="M 74 33 L 74 88 L 290 88 L 290 33 z" fill="#FFFFFF" fill-opacity="1.0" stroke="none"/>
  <clipPath id="clip-0">
    <path d="M 50 9 L 50 441 L 1230 441 L 1230 9 z"/>
  </clipPath>
  <g clip-path="url(#clip-0)">
    <path d="M 50 303.13L 109 323.59L 143.51 331.51L 168 336.78L 186.99 338.1L 202.51 338.51L 215.63 329.8L 227 331.6L 245.99 334.3L 261.51 336.12L 274.63 336.57L 286 332.86L 304.99 334.99L 320.51 335.16L 333.63 332.98L 345 332.61L 363.99 330.66L 379.51 332.16L 392.63 330.98L 404 330.83L 422.99 330.36L 438.51 330.56L 451.63 329.89L 463 326.85L 481.99 328.65L 497.51 327.11L 510.63 327.54L 522 325.35L 540.99 325.46L 556.51 325.65L 569.63 324.7L 581 324.86L 599.99 324.77L 615.51 322.73L 628.63 321.36L 640 319.72L 658.99 318.54L 674.51 317.62L 687.63 318.08L 699 317.17L 717.99 307.84L 733.51 318.44L 746.63 308.29L 758 311.39L 776.99 310.19L 792.51 310.45L 805.63 306.5L 817 307.65L 835.99 305.97L 851.51 303.48L 864.63 300.17L 876 304.09L 894.99 302.5L 910.51 298.54L 923.63 303.94L 935 296.72L 953.99 302.62L 969.51 295.29L 982.63 300.57L 994 303.61L 1013 297.36L 1028.5 300.34L 1041.6 291.64L 1053 297.89L 1072 299.39L 1087.5 291.99L 1100.6 295.37L 1112 297.76L 1131 293.05L 1146.5 294.52L 1159.6 294.27L 1171 295.99L 1190 293.19L 1205.5 292.5L 1218.6 291.9L 1230 293.73L 1230 293.84L 1218.6 295.3L 1205.5 296.18L 1190 294.82L 1171 297.96L 1159.6 295.94L 1146.5 299.91L 1131 300.19L 1112 299.28L 1100.6 300.51L 1087.5 300.57L 1072 301.13L 1053 302.27L 1041.6 302.34L 1028.5 300.63L 1013 305.09L 994 305.08L 982.63 302.97L 969.51 305.82L 953.99 304.19L 935 306.2L 923.63 307.85L 910.51 307L 894.99 306.41L 876 306.93L 864.63 310.86L 851.51 308.12L 835.99 309.76L 817 311.95L 805.63 313.53L 792.51 315.13L 776.99 314.17L 758 318.39L 746.63 315.68L 733.51 318.98L 717.99 316.27L 699 322.45L 687.63 318.26L 674.51 319.78L 658.99 319.54L 640 320.42L 628.63 321.96L 615.51 324.01L 599.99 326.06L 581 325.24L 569.63 326.08L 556.51 325.93L 540.99 327.99L 522 330.36L 510.63 328.31L 497.51 328.75L 481.99 329.03L 463 333.49L 451.63 330.6L 438.51 330.69L 422.99 330.59L 404 332.23L 392.63 333.85L 379.51 332.16L 363.99 333L 345 335.16L 333.63 333.54L 320.51 335.18L 304.99 334.99L 286 332.93L 274.63 337.23L 261.51 336.18L 245.99 335.12L 227 333.02L 215.63 330.55L 202.51 342.54L 186.99 339.8L 168 337.19L 143.51 333.99L 109 326.11L 50 306.2" fill="#007AFF" fill-opacity="0.30196078431372547" stroke="none"/>
    <path d="M 50 353.83L 109 381.72L 143.51 373.92L 168 385.41L 186.99 378.65L 202.51 387.04L 215.63 390.59L 227 396.78L 245.99 396.42L 261.51 402.56L 274.63 408.64L 286 413.85L 304.99 408.9L 320.51 413.63L 333.63 419.46L 345 423.04L 363.99 422.36L 379.51 423.79L 392.63 428.13L 404 429.14L 422.99 428.77L 438.51 431.46L 451.63 431.03L 463 429.7L 481.99 413.5L 497.51 421.45L 510.63 418.25L 522 414.38L 540.99 390.55L 556.51 400.37L 569.63 388.65L 581 387.51L 599.99 373.53L 615.51 364.73L 628.63 358.55L 640 357.04L 658.99 345.59L 674.51 338.92L 687.63 330.72L 699 324.6L 717.99 315.52L 733.51 307.5L 746.63 298.77L 758 294.17L 776.99 284.29L 792.51 275.62L 805.63 267.98L 817 261.26L 835.99 251.23L 851.51 242.58L 864.63 230.5L 876 227.45L 894.99 213.88L 910.51 200.64L 923.63 193L 935 185.27L 953.99 171.94L 969.51 162.17L 982.63 156.2L 994 149.42L 1013 139.21L 1028.5 129.84L 1041.6 122.36L 1053 115.7L 1072 106.8L 1072 106.8L 1053 117.04L 1041.6 123.79L 1028.5 131.08L 1013 139.66L 994 150.25L 982.63 156.83L 969.51 163.65L 953.99 174.01L 935 185.48L 923.63 193.05L 910.51 201.87L 894.99 213.93L 876 229.4L 864.63 235.69L 851.51 242.81L 835.99 251.7L 817 262.24L 805.63 268.4L 792.51 275.81L 776.99 284.3L 758 294.65L 746.63 300.7L 733.51 307.82L 717.99 317.05L 699 327.25L 687.63 334.24L 674.51 340.02L 658.99 350.38L 640 358.65L 628.63 360.17L 615.51 368.38L 599.99 380.26L 581 389.92L 569.63 394.95L 556.51 400.42L 540.99 407.48L 522 414.7L 510.63 418.62L 497.51 422.62L 481.99 427.87L 463 430.3L 451.63 431.35L 438.51 431.69L 422.99 431.28L 404 433.56L 392.63 429.1L 379.51 428.62L 363.99 422.8L 345 424.66L 333.63 421.89L 320.51 417.43L 304.99 411.52L 286 413.85L 274.63 408.91L 261.51 403.26L 245.99 396.71L 227 396.96L 215.63 394.79L 202.51 387.04L 186.99 380.06L 168 385.42L 143.51 374.22L 109 382.24L 50 354.43" fill="#FF3B30" fill-opacity="0.30196078431372547" stroke="none"/>
    <path d="M 50 305.38L 109 325.44L 143.51 333.33L 168 337.08L 186.99 339.35L 202.51 341.45L 215.63 330.35L 227 332.65L 245.99 334.9L 261.51 336.17L 274.63 337.06L 286 332.91L 304.99 334.99L 320.51 335.17L 333.63 333.39L 345 334.48L 363.99 332.38L 379.51 332.16L 392.63 333.08L 404 331.86L 422.99 330.53L 438.51 330.66L 451.63 330.41L 463 331.66L 481.99 328.93L 497.51 328.31L 510.63 328.11L 522 329L 540.99 327.32L 556.51 325.86L 569.63 325.72L 581 325.14L 599.99 325.72L 615.51 323.67L 628.63 321.8L 640 320.23L 658.99 319.28L 674.51 319.2L 687.63 318.21L 699 321.01L 717.99 313.92L 733.51 318.84L 746.63 313.63L 758 316.46L 776.99 313.1L 792.51 313.86L 805.63 311.59L 817 310.79L 835.99 308.74L 851.51 306.86L 864.63 307.83L 876 306.17L 894.99 305.36L 910.51 304.64L 923.63 306.8L 935 303.53L 953.99 303.77L 969.51 302.83L 982.63 302.33L 994 304.69L 1013 302.95L 1028.5 300.55L 1041.6 299.3L 1053 301.09L 1072 300.67L 1087.5 298.17L 1100.6 299.11L 1112 298.88L 1131 298.22L 1146.5 298.44L 1159.6 295.5L 1171 297.44L 1190 294.39L 1205.5 295.19L 1218.6 294.39L 1230 293.81" fill="none" stroke-width="4" stroke="#007AFF" stroke-opacity="1" stroke-linecap="round" stroke-linejoin="round"/>
    <path d="M 50 354.27L 109 382.1L 143.51 374.14L 168 385.42L 186.99 379.69L 202.51 387.04L 215.63 393.65L 227 396.91L 245.99 396.64L 261.51 403.07L 274.63 408.84L 286 413.85L 304.99 410.82L 320.51 416.41L 333.63 421.24L 345 424.23L 363.99 422.69L 379.51 427.31L 392.63 428.85L 404 432.36L 422.99 430.61L 438.51 431.63L 451.63 431.27L 463 430.14L 481.99 423.67L 497.51 422.31L 510.63 418.52L 522 414.61L 540.99 402.44L 556.51 400.4L 569.63 393.22L 581 389.27L 599.99 378.41L 615.51 367.4L 628.63 359.74L 640 358.22L 658.99 349.08L 674.51 339.73L 687.63 333.3L 699 326.54L 717.99 316.64L 733.51 307.74L 746.63 300.19L 758 294.52L 776.99 284.3L 792.51 275.76L 805.63 268.29L 817 261.98L 835.99 251.57L 851.51 242.75L 864.63 234.28L 876 228.88L 894.99 213.92L 910.51 201.55L 923.63 193.03L 935 185.42L 953.99 173.46L 969.51 163.26L 982.63 156.67L 994 150.03L 1013 139.54L 1028.5 130.75L 1041.6 123.41L 1053 116.68L 1072 106.8" fill="none" stroke-width="4" stroke="#FF3B30" stroke-opacity="1" stroke-linecap="round" stroke-linejoin="round"/>
    <path d="M 50 305.38L 109 325.44L 143.51 333.33L 168 337.08L 186.99 339.35L 202.51 341.45L 215.63 330.35L 227 332.65L 245.99 334.9L 261.51 336.17L 274.63 337.06L 286 332.91L 304.99 334.99L 320.51 335.17L 333.63 333.39L 345 334.48L 363.99 332.38L 379.51 332.16L 392.63 333.08L 404 331.86L 422.99 330.53L 438.51 330.66L 451.63 330.41L 463 331.66L 481.99 328.93L 497.51 328.31L 510.63 328.11L 522 329L 540.99 327.32L 556.51 325.86L 569.63 325.72L 581 325.14L 599.99 325.72L 615.51 323.67L 628.63 321.8L 640 320.23L 658.99 319.28L 674.51 319.2L 687.63 318.21L 699 321.01L 717.99 313.92L 733.51 318.84L 746.63 313.63L 758 316.46L 776.99 313.1L 792.51 313.86L 805.63 311.59L 817 310.79L 835.99 308.74L 851.51 306.86L 864.63 307.83L 876 306.17L 894.99 305.36L 910.51 304.64L 923.63 306.8L 935 303.53L 953.99 303.77L 969.51 302.83L 982.63 302.33L 994 304.69L 1013 302.95L 1028.5 300.55L 1041.6 299.3L 1053 301.09L 1072 300.67L 1087.5 298.17L 1100.6 299.11L 1112 298.88L 1131 298.22L 1146.5 298.44L 1159.6 295.5L 1171 297.44L 1190 294.39L 1205.5 295.19L 1218.6 294.39L 1230 293.81" fill="none" stroke-width="0.5" stroke="#000000" stroke-opacity="0.30196" stroke-linecap="round" stroke-linejoin="round"/>
    <path d="M 50 354.27L 109 382.1L 143.51 374.14L 168 385.42L 186.99 379.69L 202.51 387.04L 215.63 393.65L 227 396.91L 245.99 396.64L 261.51 403.07L 274.63 408.84L 286 413.85L 304.99 410.82L 320.51 416.41L 333.63 421.24L 345 424.23L 363.99 422.69L 379.51 427.31L 392.63 428.85L 404 432.36L 422.99 430.61L 438.51 431.63L 451.63 431.27L 463 430.14L 481.99 423.67L 497.51 422.31L 510.63 418.52L 522 414.61L 540.99 402.44L 556.51 400.4L 569.63 393.22L 581 389.27L 599.99 378.41L 615.51 367.4L 628.63 359.74L 640 358.22L 658.99 349.08L 674.51 339.73L 687.63 333.3L 699 326.54L 717.99 316.64L 733.51 307.74L 746.63 300.19L 758 294.52L 776.99 284.3L 792.51 275.76L 805.63 268.29L 817 261.98L 835.99 251.57L 851.51 242.75L 864.63 234.28L 876 228.88L 894.99 213.92L 910.51 201.55L 923.63 193.03L 935 185.42L 953.99 173.46L 969.51 163.26L 982.63 156.67L 994 150.03L 1013 139.54L 1028.5 130.75L 1041.6 123.41L 1053 116.68L 1072 106.8" fill="none" stroke-width="0.5" stroke="#000000" stroke-opacity="0.30196" stroke-linecap="round" stroke-linejoin="round"/>
  </g>
  <path d="M 74 33 L 74 88 L 290 88 L 290 33 z" fill="#FFFFFF" fill-opacity="0.7019607843137254" stroke-width="0.5" stroke="#000000" stroke-opacity="1" stroke-linecap="round" stroke-linejoin="round"/>
  <path d="M 88 52 L 108 52" fill="none" stroke-width="4" stroke="#FF3B30" stroke-opacity="1" stroke-linecap="round" stroke-linejoin="round"/>
  <path d="M 88 52 L 108 52" fill="none" stroke-width="0.5" stroke="#000000" stroke-opacity="0.30196" stroke-linecap="round" stroke-linejoin="round"/>
  <text x="119" y="56.17" font-family="Menlo" font-size="12" font-weight="normal" font-style="normal" fill="#000000" fill-opacity="1">Array&lt;Int&gt; prepend</text>
  <path d="M 88 69 L 108 69" fill="none" stroke-width="4" stroke="#007AFF" stroke-opacity="1" stroke-linecap="round" stroke-linejoin="round"/>
  <path d="M 88 69 L 108 69" fill="none" stroke-width="0.5" stroke="#000000" stroke-opacity="0.30196" stroke-linecap="round" stroke-linejoin="round"/>
  <text x="119" y="73.17" font-family="Menlo" font-size="12" font-weight="normal" font-style="normal" fill="#000000" fill-opacity="1">TreeArray&lt;Int&gt; prepend</text>
  <path d="M 50 9 L 50 441 L 1230 441 L 1230 9 z" fill="none" stroke-width="0.5" stroke="#000000" stroke-opacity="1" stroke-linecap="round" stroke-linejoin="round"/>
</svg>
