<!DOCTYPE svg PUBLIC "-//W3C//DTD SVG 1.1//EN" "http://www.w3.org/Graphics/SVG/1.1/DTD/svg11.dtd">
<svg width="1280.0px" height="480.0px" viewBox="0.0 0.0 1280.0 480.0" xmlns="http://www.w3.org/2000/svg" xmlns:xlink="http://www.w3.org/1999/xlink" version="1.1">
  <path d="M 0 0 L 0 480 L 1280 480 L 1280 0 z" fill="#FFFFFF" fill-opacity="1.0" stroke="none"/>
  <text x="50" y="468.7" font-family="Helvetica" font-size="10" font-weight="normal" font-style="normal" fill="#000000" fill-opacity="1">Average per-element processing time over input size (bands: min, mean, mean + 2stddev)</text>
  <a xlink:href="https://github.com/apple/swift-collections-benchmark"><text x="1107" y="468.7" font-family="Helvetica" font-size="10" font-weight="normal" font-style="normal" fill="#000000" fill-opacity="1">swift-collections-benchmark</text></a>
  <path d="M 50 9 L 50 441" fill="none" stroke-width="0.75" stroke="#000000" stroke-opacity="0.49804" stroke-linecap="butt" stroke-linejoin="round"/>
  <text x="47" y="453.7" font-family="Helvetica" font-size="10" font-weight="normal" font-style="normal" fill="#000000" fill-opacity="1">1</text>
  <path d="M 109 9 L 109 441" fill="none" stroke-width="0.75" stroke="#000000" stroke-opacity="0.49804" stroke-linecap="butt" stroke-linejoin="round"/>
  <text x="106" y="453.7" font-family="Helvetica" font-size="10" font-weight="normal" font-style="normal" fill="#000000" fill-opacity="1">2</text>
  <path d="M 168 9 L 168 441" fill="none" stroke-width="0.75" stroke="#000000" stroke-opacity="0.49804" stroke-linecap="butt" stroke-linejoin="round"/>
  <text x="165" y="453.7" font-family="Helvetica" font-size="10" font-weight="normal" font-style="normal" fill="#000000" fill-opacity="1">4</text>
  <path d="M 227 9 L 227 441" fill="none" stroke-width="0.75" stroke="#000000" stroke-opacity="0.49804" stroke-linecap="butt" stroke-linejoin="round"/>
  <text x="224" y="453.7" font-family="Helvetica" font-size="10" font-weight="normal" font-style="normal" fill="#000000" fill-opacity="1">8</text>
  <path d="M 286 9 L 286 441" fill="none" stroke-width="0.75" stroke="#000000" stroke-opacity="0.49804" stroke-linecap="butt" stroke-linejoin="round"/>
  <text x="280" y="453.7" font-family="Helvetica" font-size="10" font-weight="normal" font-style="normal" fill="#000000" fill-opacity="1">16</text>
  <path d="M 345 9 L 345 441" fill="none" stroke-width="0.75" stroke="#000000" stroke-opacity="0.49804" stroke-linecap="butt" stroke-linejoin="round"/>
  <text x="339" y="453.7" font-family="Helvetica" font-size="10" font-weight="normal" font-style="normal" fill="#000000" fill-opacity="1">32</text>
  <path d="M 404 9 L 404 441" fill="none" stroke-width="0.75" stroke="#000000" stroke-opacity="0.49804" stroke-linecap="butt" stroke-linejoin="round"/>
  <text x="398" y="453.7" font-family="Helvetica" font-size="10" font-weight="normal" font-style="normal" fill="#000000" fill-opacity="1">64</text>
  <path d="M 463 9 L 463 441" fill="none" stroke-width="0.75" stroke="#000000" stroke-opacity="0.49804" stroke-linecap="butt" stroke-linejoin="round"/>
  <text x="454.5" y="453.7" font-family="Helvetica" font-size="10" font-weight="normal" font-style="normal" fill="#000000" fill-opacity="1">128</text>
  <path d="M 522 9 L 522 441" fill="none" stroke-width="0.75" stroke="#000000" stroke-opacity="0.49804" stroke-linecap="butt" stroke-linejoin="round"/>
  <text x="513.5" y="453.7" font-family="Helvetica" font-size="10" font-weight="normal" font-style="normal" fill="#000000" fill-opacity="1">256</text>
  <path d="M 581 9 L 581 441" fill="none" stroke-width="0.75" stroke="#000000" stroke-opacity="0.49804" stroke-linecap="butt" stroke-linejoin="round"/>
  <text x="572.5" y="453.7" font-family="Helvetica" font-size="10" font-weight="normal" font-style="normal" fill="#000000" fill-opacity="1">512</text>
  <path d="M 640 9 L 640 441" fill="none" stroke-width="0.75" stroke="#000000" stroke-opacity="0.49804" stroke-linecap="butt" stroke-linejoin="round"/>
  <text x="634.5" y="453.7" font-family="Helvetica" font-size="10" font-weight="normal" font-style="normal" fill="#000000" fill-opacity="1">1k</text>
  <path d="M 699 9 L 699 441" fill="none" stroke-width="0.75" stroke="#000000" stroke-opacity="0.49804" stroke-linecap="butt" stroke-linejoin="round"/>
  <text x="693.5" y="453.7" font-family="Helvetica" font-size="10" font-weight="normal" font-style="normal" fill="#000000" fill-opacity="1">2k</text>
  <path d="M 758 9 L 758 441" fill="none" stroke-width="0.75" stroke="#000000" stroke-opacity="0.49804" stroke-linecap="butt" stroke-linejoin="round"/>
  <text x="752.5" y="453.7" font-family="Helvetica" font-size="10" font-weight="normal" font-style="normal" fill="#000000" fill-opacity="1">4k</text>
  <path d="M 817 9 L 817 441" fill="none" stroke-width="0.75" stroke="#000000" stroke-opacity="0.49804" stroke-linecap="butt" stroke-linejoin="round"/>
  <text x="811.5" y="453.7" font-family="Helvetica" font-size="10" font-weight="normal" font-style="normal" fill="#000000" fill-opacity="1">8k</text>
  <path d="M 876 9 L 876 441" fill="none" stroke-width="0.75" stroke="#000000" stroke-opacity="0.49804" stroke-linecap="butt" stroke-linejoin="round"/>
  <text x="867.5" y="453.7" font-family="Helvetica" font-size="10" font-weight="normal" font-style="normal" fill="#000000" fill-opacity="1">16k</text>
  <path d="M 935 9 L 935 441" fill="none" stroke-width="0.75" stroke="#000000" stroke-opacity="0.49804" stroke-linecap="butt" stroke-linejoin="round"/>
  <text x="926.5" y="453.7" font-family="Helvetica" font-size="10" font-weight="normal" font-style="normal" fill="#000000" fill-opacity="1">32k</text>
  <path d="M 994 9 L 994 441" fill="none" stroke-width="0.75" stroke="#000000" stroke-opacity="0.49804" stroke-linecap="butt" stroke-linejoin="round"/>
  <text x="985.5" y="453.7" font-family="Helvetica" font-size="10" font-weight="normal" font-style="normal" fill="#000000" fill-opacity="1">64k</text>
  <path d="M 1053 9 L 1053 441" fill="none" stroke-width="0.75" stroke="#000000" stroke-opacity="0.49804" stroke-linecap="butt" stroke-linejoin="round"/>
  <text x="1042" y="453.7" font-family="Helvetica" font-size="10" font-weight="normal" font-style="normal" fill="#000000" fill-opacity="1">128k</text>
  <path d="M 1112 9 L 1112 441" fill="none" stroke-width="0.75" stroke="#000000" stroke-opacity="0.49804" stroke-linecap="butt" stroke-linejoin="round"/>
  <text x="1101" y="453.7" font-family="Helvetica" font-size="10" font-weight="normal" font-style="normal" fill="#000000" fill-opacity="1">256k</text>
  <path d="M 1171 9 L 1171 441" fill="none" stroke-width="0.75" stroke="#000000" stroke-opacity="0.49804" stroke-linecap="butt" stroke-linejoin="round"/>
  <text x="1160" y="453.7" font-family="Helvetica" font-size="10" font-weight="normal" font-style="normal" fill="#000000" fill-opacity="1">512k</text>
  <path d="M 1230 9 L 1230 441" fill="none" stroke-width="0.75" stroke="#000000" stroke-opacity="0.49804" stroke-linecap="butt" stroke-linejoin="round"/>
  <text x="1223" y="453.7" font-family="Helvetica" font-size="10" font-weight="normal" font-style="normal" fill="#000000" fill-opacity="1">1M</text>
  <path d="M 50 441 L 1230 441" fill="none" stroke-width="0.75" stroke="#000000" stroke-opacity="0.49804" stroke-linecap="butt" stroke-linejoin="round"/>
  <text x="21" y="442.7" font-family="Helvetica" font-size="10" font-weight="normal" font-style="normal" fill="#000000" fill-opacity="1">10 ns</text>
  <text x="1236" y="442.7" font-family="Helvetica" font-size="10" font-weight="normal" font-style="normal" fill="#000000" fill-opacity="1">10 ns</text>
  <path d="M 50 333 L 1230 333" fill="none" stroke-width="0.75" stroke="#000000" stroke-opacity="0.49804" stroke-linecap="butt" stroke-linejoin="round"/>
  <text x="16" y="334.7" font-family="Helvetica" font-size="10" font-weight="normal" font-style="normal" fill="#000000" fill-opacity="1">100 ns</text>
  <text x="1236" y="334.7" font-family="Helvetica" font-size="10" font-weight="normal" font-style="normal" fill="#000000" fill-opacity="1">100 ns</text>
  <path d="M 50 225 L 1230 225" fill="none" stroke-width="0.75" stroke="#000000" stroke-opacity="0.49804" stroke-linecap="butt" stroke-linejoin="round"/>
  <text x="26" y="226.7" font-family="Helvetica" font-size="10" font-weight="normal" font-style="normal" fill="#000000" fill-opacity="1">1 µs</text>
  <text x="1236" y="226.7" font-family="Helvetica" font-size="10" font-weight="normal" font-style="normal" fill="#000000" fill-opacity="1">1 µs</text>
  <path d="M 50 117 L 1230 117" fill="none" stroke-width="0.75" stroke="#000000" stroke-opacity="0.49804" stroke-linecap="butt" stroke-linejoin="round"/>
  <text x="21" y="118.7" font-family="Helvetica" font-size="10" font-weight="normal" font-style="normal" fill="#000000" fill-opacity="1">10 µs</text>
  <text x="1236" y="118.7" font-family="Helvetica" font-size="10" font-weight="normal" font-style="normal" fill="#000000" fill-opacity="1">10 µs</text>
  <path d="M 50 9 L 1230 9" fill="none" stroke-width="0.75" stroke="#000000" stroke-opacity="0.49804" stroke-linecap="butt" stroke-linejoin="round"/>
  <text x="15" y="10.7" font-family="Helvetica" font-size="10" font-weight="normal" font-style="normal" fill="#000000" fill-opacity="1">100 µs</text>
  <text x="1236" y="10.7" font-family="Helvetica" font-size="10" font-weight="normal" font-style="normal" fill="#000000" fill-opacity="1">100 µs</text>
  <path d="M 50 408.49 L 1230 408.49" fill="none" stroke-width="0.5" stroke="#000000" stroke-opacity="0.25882" stroke-linecap="butt" stroke-linejoin="round" stroke-dasharray="6 3" stroke-dashoffset="0"/>
  <path d="M 50 375.98 L 1230 375.98" fill="none" stroke-width="0.5" stroke="#000000" stroke-opacity="0.25882" stroke-linecap="butt" stroke-linejoin="round" stroke-dasharray="6 3" stroke-dashoffset="0"/>
  <path d="M 50 343.47 L 1230 343.47" fill="none" stroke-width="0.5" stroke="#000000" stroke-opacity="0.25882" stroke-linecap="butt" stroke-linejoin="round" stroke-dasharray="6 3" stroke-dashoffset="0"/>
  <path d="M 50 310.96 L 1230 310.96" fill="none" stroke-width="0.5" stroke="#000000" stroke-opacity="0.25882" stroke-linecap="butt" stroke-linejoin="round" stroke-dasharray="6 3" stroke-dashoffset="0"/>
  <path d="M 50 278.44 L 1230 278.44" fill="none" stroke-width="0.5" stroke="#000000" stroke-opacity="0.25882" stroke-linecap="butt" stroke-linejoin="round" stroke-dasharray="6 3" stroke-dashoffset="0"/>
  <path d="M 50 245.93 L 1230 245.93" fill="none" stroke-width="0.5" stroke="#000000" stroke-opacity="0.25882" stroke-linecap="butt" stroke-linejoin="round" stroke-dasharray="6 3" stroke-dashoffset="0"/>
  <path d="M 50 213.42 L 1230 213.42" fill="none" stroke-width="0.5" stroke="#000000" stroke-opacity="0.25882" stroke-linecap="butt" stroke-linejoin="round" stroke-dasharray="6 3" stroke-dashoffset="0"/>
  <path d="M 50 180.91 L 1230 180.91" fill="none" stroke-width="0.5" stroke="#000000" stroke-opacity="0.25882" stroke-linecap="butt" stroke-linejoin="round" stroke-dasharray="6 3" stroke-dashoffset="0"/>
  <path d="M 50 148.4 L 1230 148.4" fill="none" stroke-width="0.5" stroke="#000000" stroke-opacity="0.25882" stroke-linecap="butt" stroke-linejoin="round" stroke-dasharray="6 3" stroke-dashoffset="0"/>
  <path d="M 50 115.89 L 1230 115.89" fill="none" stroke-width="0.5" stroke="#000000" stroke-opacity="0.25882" stroke-linecap="butt" stroke-linejoin="round" stroke-dasharray="6 3" stroke-dashoffset="0"/>
  <path d="M 50 83.376 L 1230 83.376" fill="none" stroke-width="0.5" stroke="#000000" stroke-opacity="0.25882" stroke-linecap="butt" stroke-linejoin="round" stroke-dasharray="6 3" stroke-dashoffset="0"/>
  <path d="M 50 50.865 L 1230 50.865" fill="none" stroke-width="0.5" stroke="#000000" stroke-opacity="0.25882" stroke-linecap="butt" stroke-linejoin="round" stroke-dasharray="6 3" stroke-dashoffset="0"/>
  <path d="M 50 18.354 L 1230 18.354" fill="none" stroke-width="0.5" stroke="#000000" stroke-opacity="0.25882" stroke-linecap="butt" stroke-linejoin="round" stroke-dasharray="6 3" stroke-dashoffset="0"/>
  <path d="M 74 33 L 74 88 L 290 88 L 290 33 z" fill="#FFFFFF" fill-opacity="1.0" stroke="none"/>
  <clipPath id="clip-0">
    <path d="M 50 9 L 50 441 L 1230 441 L 1230 9 z"/>
  </clipPath>
  <g clip-path="url(#clip-0)">
    <path d="M 50 299.12L 109 320.21L 143.51 329.35L 168 334.76L 186.99 335.8L 202.51 337L 215.63 327.1L 227 329.54L 245.99 330.95L 261.51 334.01L 274.63 336.07L 286 329.24L 304.99 330.23L 320.51 330.6L 333.63 330.81L 345 331.86L 363.99 333.48L 379.51 322.99L 392.63 330.1L 404 326.98L 422.99 327.4L 438.51 325.29L 451.63 329.13L 463 328.28L 481.99 325.35L 497.51 327.06L 510.63 325.17L 522 325.48L 540.99 325.44L 556.51 325.78L 569.63 322.96L 581 319.67L 599.99 321.79L 615.51 319.93L 628.63 320.97L 640 318.07L 658.99 315.51L 674.51 319.36L 687.63 317.64L 699 319.99L 717.99 304.74L 733.51 315.44L 746.63 307.9L 758 315.8L 776.99 308.69L 792.51 309.34L 805.63 307.79L 817 309.5L 835.99 306.91L 851.51 305.87L 864.63 304.4L 876 310.04L 894.99 306.62L 910.51 307.19L 923.63 307.48L 935 302.28L 953.99 302.13L 969.51 303.55L 982.63 298.17L 994 304.63L 1013 299.64L 1028.5 299.87L 1041.6 299.47L 1053 301.64L 1072 301.04L 1087.5 298.62L 1100.6 299.32L 1112 299.68L 1131 296.44L 1146.5 294.76L 1159.6 295.63L 1171 296.84L 1190 295.01L 1205.5 292.64L 1218.6 292.85L 1230 293.62L 1230 298.36L 1218.6 295.75L 1205.5 296.23L 1190 295.95L 1171 297.88L 1159.6 299.21L 1146.5 298.78L 1131 297.34L 1112 301.34L 1100.6 300.83L 1087.5 302.54L 1072 302.62L 1053 302.27L 1041.6 303.87L 1028.5 304.05L 1013 301.63L 994 305.45L 982.63 305.46L 969.51 305.69L 953.99 306.8L 935 308.7L 923.63 308.58L 910.51 308.21L 894.99 308.41L 876 310.85L 864.63 310.02L 851.51 311.51L 835.99 311.98L 817 313.24L 805.63 315.31L 792.51 313.24L 776.99 315.97L 758 317L 746.63 318.26L 733.51 315.47L 717.99 318.47L 699 320.2L 687.63 320.44L 674.51 320.67L 658.99 319.77L 640 321.96L 628.63 324.91L 615.51 324.57L 599.99 323.73L 581 328.83L 569.63 329.28L 556.51 326.08L 540.99 326.14L 522 328.24L 510.63 327.89L 497.51 331.18L 481.99 330.16L 463 329.02L 451.63 329.44L 438.51 334.11L 422.99 330.87L 404 336.03L 392.63 332.68L 379.51 333.67L 363.99 333.5L 345 333.23L 333.63 333.91L 320.51 333.33L 304.99 332.82L 286 332.68L 274.63 337.53L 261.51 336.03L 245.99 333.75L 227 331.72L 215.63 330.08L 202.51 340.09L 186.99 338.16L 168 335.15L 143.51 330.4L 109 323.08L 50 300.78" fill="#007AFF" fill-opacity="0.30196078431372547" stroke="none"/>
    <path d="M 50 353.83L 109 381.72L 143.51 373.92L 168 385.41L 186.99 378.65L 202.51 387.04L 215.63 390.59L 227 396.78L 245.99 396.42L 261.51 402.56L 274.63 408.64L 286 413.85L 304.99 408.9L 320.51 413.63L 333.63 419.46L 345 423.04L 363.99 422.36L 379.51 423.79L 392.63 428.13L 404 429.14L 422.99 428.77L 438.51 431.46L 451.63 431.03L 463 429.7L 481.99 413.5L 497.51 421.45L 510.63 418.25L 522 414.38L 540.99 390.55L 556.51 400.37L 569.63 388.65L 581 387.51L 599.99 373.53L 615.51 364.73L 628.63 358.55L 640 357.04L 658.99 345.59L 674.51 338.92L 687.63 330.72L 699 324.6L 717.99 315.52L 733.51 307.5L 746.63 298.77L 758 294.17L 776.99 284.29L 792.51 275.62L 805.63 267.98L 817 261.26L 835.99 251.23L 851.51 242.58L 864.63 230.5L 876 227.45L 894.99 213.88L 910.51 200.64L 923.63 193L 935 185.27L 953.99 171.94L 969.51 162.17L 982.63 156.2L 994 149.42L 1013 139.21L 1028.5 129.84L 1041.6 122.36L 1053 115.7L 1072 106.8L 1072 106.8L 1053 117.04L 1041.6 123.79L 1028.5 131.08L 1013 139.66L 994 150.25L 982.63 156.83L 969.51 163.65L 953.99 174.01L 935 185.48L 923.63 193.05L 910.51 201.87L 894.99 213.93L 876 229.4L 864.63 235.69L 851.51 242.81L 835.99 251.7L 817 262.24L 805.63 268.4L 792.51 275.81L 776.99 284.3L 758 294.65L 746.63 300.7L 733.51 307.82L 717.99 317.05L 699 327.25L 687.63 334.24L 674.51 340.02L 658.99 350.38L 640 358.65L 628.63 360.17L 615.51 368.38L 599.99 380.26L 581 389.92L 569.63 394.95L 556.51 400.42L 540.99 407.48L 522 414.7L 510.63 418.62L 497.51 422.62L 481.99 427.87L 463 430.3L 451.63 431.35L 438.51 431.69L 422.99 431.28L 404 433.56L 392.63 429.1L 379.51 428.62L 363.99 422.8L 345 424.66L 333.63 421.89L 320.51 417.43L 304.99 411.52L 286 413.85L 274.63 408.91L 261.51 403.26L 245.99 396.71L 227 396.96L 215.63 394.79L 202.51 387.04L 186.99 380.06L 168 385.42L 143.51 374.22L 109 382.24L 50 354.43" fill="#FF3B30" fill-opacity="0.30196078431372547" stroke="none"/>
    <path d="M 50 300.34L 109 322.32L 143.51 330.13L 168 335.05L 186.99 337.53L 202.51 339.26L 215.63 329.28L 227 331.14L 245.99 333L 261.51 335.49L 274.63 337.15L 286 331.76L 304.99 332.13L 320.51 332.6L 333.63 333.08L 345 332.87L 363.99 333.49L 379.51 330.64L 392.63 331.99L 404 333.49L 422.99 329.94L 438.51 331.64L 451.63 329.36L 463 328.82L 481.99 328.85L 497.51 330.07L 510.63 327.17L 522 327.51L 540.99 325.96L 556.51 326L 569.63 327.54L 581 326.26L 599.99 323.22L 615.51 323.31L 628.63 323.85L 640 320.91L 658.99 318.62L 674.51 320.32L 687.63 319.7L 699 320.15L 717.99 314.48L 733.51 315.47L 746.63 315.33L 758 316.68L 776.99 313.95L 792.51 312.19L 805.63 313.23L 817 312.23L 835.99 310.6L 851.51 309.97L 864.63 308.48L 876 310.63L 894.99 307.93L 910.51 307.94L 923.63 308.29L 935 306.94L 953.99 305.53L 969.51 305.12L 982.63 303.44L 994 305.23L 1013 301.1L 1028.5 302.92L 1041.6 302.68L 1053 302.1L 1072 302.2L 1087.5 301.48L 1100.6 300.43L 1112 300.9L 1131 297.1L 1146.5 297.7L 1159.6 298.25L 1171 297.61L 1190 295.7L 1205.5 295.27L 1218.6 294.97L 1230 297.08" fill="none" stroke-width="4" stroke="#007AFF" stroke-opacity="1" stroke-linecap="round" stroke-linejoin="round"/>
    <path d="M 50 354.27L 109 382.1L 143.51 374.14L 168 385.42L 186.99 379.69L 202.51 387.04L 215.63 393.65L 227 396.91L 245.99 396.64L 261.51 403.07L 274.63 408.84L 286 413.85L 304.99 410.82L 320.51 416.41L 333.63 421.24L 345 424.23L 363.99 422.69L 379.51 427.31L 392.63 428.85L 404 432.36L 422.99 430.61L 438.51 431.63L 451.63 431.27L 463 430.14L 481.99 423.67L 497.51 422.31L 510.63 418.52L 522 414.61L 540.99 402.44L 556.51 400.4L 569.63 393.22L 581 389.27L 599.99 378.41L 615.51 367.4L 628.63 359.74L 640 358.22L 658.99 349.08L 674.51 339.73L 687.63 333.3L 699 326.54L 717.99 316.64L 733.51 307.74L 746.63 300.19L 758 294.52L 776.99 284.3L 792.51 275.76L 805.63 268.29L 817 261.98L 835.99 251.57L 851.51 242.75L 864.63 234.28L 876 228.88L 894.99 213.92L 910.51 201.55L 923.63 193.03L 935 185.42L 953.99 173.46L 969.51 163.26L 982.63 156.67L 994 150.03L 1013 139.54L 1028.5 130.75L 1041.6 123.41L 1053 116.68L 1072 106.8" fill="none" stroke-width="4" stroke="#FF3B30" stroke-opacity="1" stroke-linecap="round" stroke-linejoin="round"/>
    <path d="M 50 300.34L 109 322.32L 143.51 330.13L 168 335.05L 186.99 337.53L 202.51 339.26L 215.63 329.28L 227 331.14L 245.99 333L 261.51 335.49L 274.63 337.15L 286 331.76L 304.99 332.13L 320.51 332.6L 333.63 333.08L 345 332.87L 363.99 333.49L 379.51 330.64L 392.63 331.99L 404 333.49L 422.99 329.94L 438.51 331.64L 451.63 329.36L 463 328.82L 481.99 328.85L 497.51 330.07L 510.63 327.17L 522 327.51L 540.99 325.96L 556.51 326L 569.63 327.54L 581 326.26L 599.99 323.22L 615.51 323.31L 628.63 323.85L 640 320.91L 658.99 318.62L 674.51 320.32L 687.63 319.7L 699 320.15L 717.99 314.48L 733.51 315.47L 746.63 315.33L 758 316.68L 776.99 313.95L 792.51 312.19L 805.63 313.23L 817 312.23L 835.99 310.6L 851.51 309.97L 864.63 308.48L 876 310.63L 894.99 307.93L 910.51 307.94L 923.63 308.29L 935 306.94L 953.99 305.53L 969.51 305.12L 982.63 303.44L 994 305.23L 1013 301.1L 1028.5 302.92L 1041.6 302.68L 1053 302.1L 1072 302.2L 1087.5 301.48L 1100.6 300.43L 1112 300.9L 1131 297.1L 1146.5 297.7L 1159.6 298.25L 1171 297.61L 1190 295.7L 1205.5 295.27L 1218.6 294.97L 1230 297.08" fill="none" stroke-width="0.5" stroke="#000000" stroke-opacity="0.30196" stroke-linecap="round" stroke-linejoin="round"/>
    <path d="M 50 354.27L 109 382.1L 143.51 374.14L 168 385.42L 186.99 379.69L 202.51 387.04L 215.63 393.65L 227 396.91L 245.99 396.64L 261.51 403.07L 274.63 408.84L 286 413.85L 304.99 410.82L 320.51 416.41L 333.63 421.24L 345 424.23L 363.99 422.69L 379.51 427.31L 392.63 428.85L 404 432.36L 422.99 430.61L 438.51 431.63L 451.63 431.27L 463 430.14L 481.99 423.67L 497.51 422.31L 510.63 418.52L 522 414.61L 540.99 402.44L 556.51 400.4L 569.63 393.22L 581 389.27L 599.99 378.41L 615.51 367.4L 628.63 359.74L 640 358.22L 658.99 349.08L 674.51 339.73L 687.63 333.3L 699 326.54L 717.99 316.64L 733.51 307.74L 746.63 300.19L 758 294.52L 776.99 284.3L 792.51 275.76L 805.63 268.29L 817 261.98L 835.99 251.57L 851.51 242.75L 864.63 234.28L 876 228.88L 894.99 213.92L 910.51 201.55L 923.63 193.03L 935 185.42L 953.99 173.46L 969.51 163.26L 982.63 156.67L 994 150.03L 1013 139.54L 1028.5 130.75L 1041.6 123.41L 1053 116.68L 1072 106.8" fill="none" stroke-width="0.5" stroke="#000000" stroke-opacity="0.30196" stroke-linecap="round" stroke-linejoin="round"/>
  </g>
  <path d="M 74 33 L 74 88 L 290 88 L 290 33 z" fill="#FFFFFF" fill-opacity="0.7019607843137254" stroke-width="0.5" stroke="#000000" stroke-opacity="1" stroke-linecap="round" stroke-linejoin="round"/>
  <path d="M 88 52 L 108 52" fill="none" stroke-width="4" stroke="#FF3B30" stroke-opacity="1" stroke-linecap="round" stroke-linejoin="round"/>
  <path d="M 88 52 L 108 52" fill="none" stroke-width="0.5" stroke="#000000" stroke-opacity="0.30196" stroke-linecap="round" stroke-linejoin="round"/>
  <text x="119" y="56.17" font-family="Menlo" font-size="12" font-weight="normal" font-style="normal" fill="#000000" fill-opacity="1">Array&lt;Int&gt; prepend</text>
  <path d="M 88 69 L 108 69" fill="none" stroke-width="4" stroke="#007AFF" stroke-opacity="1" stroke-linecap="round" stroke-linejoin="round"/>
  <path d="M 88 69 L 108 69" fill="none" stroke-width="0.5" stroke="#000000" stroke-opacity="0.30196" stroke-linecap="round" stroke-linejoin="round"/>
  <text x="119" y="73.17" font-family="Menlo" font-size="12" font-weight="normal" font-style="normal" fill="#000000" fill-opacity="1">TreeArray&lt;Int&gt; prepend</text>
  <path d="M 50 9 L 50 441 L 1230 441 L 1230 9 z" fill="none" stroke-width="0.5" stroke="#000000" stroke-opacity="1" stroke-linecap="round" stroke-linejoin="round"/>
</svg>
