<!DOCTYPE svg PUBLIC "-//W3C//DTD SVG 1.1//EN" "http://www.w3.org/Graphics/SVG/1.1/DTD/svg11.dtd">
<svg width="1280.0px" height="480.0px" viewBox="0.0 0.0 1280.0 480.0" xmlns="http://www.w3.org/2000/svg" xmlns:xlink="http://www.w3.org/1999/xlink" version="1.1">
  <path d="M 0 0 L 0 480 L 1280 480 L 1280 0 z" fill="#FFFFFF" fill-opacity="1.0" stroke="none"/>
  <text x="50" y="468.7" font-family="Helvetica" font-size="10" font-weight="normal" font-style="normal" fill="#000000" fill-opacity="1">Average per-element processing time over input size (bands: min, mean, mean + 2stddev)</text>
  <a xlink:href="https://github.com/apple/swift-collections-benchmark"><text x="1107" y="468.7" font-family="Helvetica" font-size="10" font-weight="normal" font-style="normal" fill="#000000" fill-opacity="1">swift-collections-benchmark</text></a>
  <path d="M 50 9 L 50 441" fill="none" stroke-width="0.75" stroke="#000000" stroke-opacity="0.49804" stroke-linecap="butt" stroke-linejoin="round"/>
  <text x="47" y="453.7" font-family="Helvetica" font-size="10" font-weight="normal" font-style="normal" fill="#000000" fill-opacity="1">1</text>
  <path d="M 109 9 L 109 441" fill="none" stroke-width="0.75" stroke="#000000" stroke-opacity="0.49804" stroke-linecap="butt" stroke-linejoin="round"/>
  <text x="106" y="453.7" font-family="Helvetica" font-size="10" font-weight="normal" font-style="normal" fill="#000000" fill-opacity="1">2</text>
  <path d="M 168 9 L 168 441" fill="none" stroke-width="0.75" stroke="#000000" stroke-opacity="0.49804" stroke-linecap="butt" stroke-linejoin="round"/>
  <text x="165" y="453.7" font-family="Helvetica" font-size="10" font-weight="normal" font-style="normal" fill="#000000" fill-opacity="1">4</text>
  <path d="M 227 9 L 227 441" fill="none" stroke-width="0.75" stroke="#000000" stroke-opacity="0.49804" stroke-linecap="butt" stroke-linejoin="round"/>
  <text x="224" y="453.7" font-family="Helvetica" font-size="10" font-weight="normal" font-style="normal" fill="#000000" fill-opacity="1">8</text>
  <path d="M 286 9 L 286 441" fill="none" stroke-width="0.75" stroke="#000000" stroke-opacity="0.49804" stroke-linecap="butt" stroke-linejoin="round"/>
  <text x="280" y="453.7" font-family="Helvetica" font-size="10" font-weight="normal" font-style="normal" fill="#000000" fill-opacity="1">16</text>
  <path d="M 345 9 L 345 441" fill="none" stroke-width="0.75" stroke="#000000" stroke-opacity="0.49804" stroke-linecap="butt" stroke-linejoin="round"/>
  <text x="339" y="453.7" font-family="Helvetica" font-size="10" font-weight="normal" font-style="normal" fill="#000000" fill-opacity="1">32</text>
  <path d="M 404 9 L 404 441" fill="none" stroke-width="0.75" stroke="#000000" stroke-opacity="0.49804" stroke-linecap="butt" stroke-linejoin="round"/>
  <text x="398" y="453.7" font-family="Helvetica" font-size="10" font-weight="normal" font-style="normal" fill="#000000" fill-opacity="1">64</text>
  <path d="M 463 9 L 463 441" fill="none" stroke-width="0.75" stroke="#000000" stroke-opacity="0.49804" stroke-linecap="butt" stroke-linejoin="round"/>
  <text x="454.5" y="453.7" font-family="Helvetica" font-size="10" font-weight="normal" font-style="normal" fill="#000000" fill-opacity="1">128</text>
  <path d="M 522 9 L 522 441" fill="none" stroke-width="0.75" stroke="#000000" stroke-opacity="0.49804" stroke-linecap="butt" stroke-linejoin="round"/>
  <text x="513.5" y="453.7" font-family="Helvetica" font-size="10" font-weight="normal" font-style="normal" fill="#000000" fill-opacity="1">256</text>
  <path d="M 581 9 L 581 441" fill="none" stroke-width="0.75" stroke="#000000" stroke-opacity="0.49804" stroke-linecap="butt" stroke-linejoin="round"/>
  <text x="572.5" y="453.7" font-family="Helvetica" font-size="10" font-weight="normal" font-style="normal" fill="#000000" fill-opacity="1">512</text>
  <path d="M 640 9 L 640 441" fill="none" stroke-width="0.75" stroke="#000000" stroke-opacity="0.49804" stroke-linecap="butt" stroke-linejoin="round"/>
  <text x="634.5" y="453.7" font-family="Helvetica" font-size="10" font-weight="normal" font-style="normal" fill="#000000" fill-opacity="1">1k</text>
  <path d="M 699 9 L 699 441" fill="none" stroke-width="0.75" stroke="#000000" stroke-opacity="0.49804" stroke-linecap="butt" stroke-linejoin="round"/>
  <text x="693.5" y="453.7" font-family="Helvetica" font-size="10" font-weight="normal" font-style="normal" fill="#000000" fill-opacity="1">2k</text>
  <path d="M 758 9 L 758 441" fill="none" stroke-width="0.75" stroke="#000000" stroke-opacity="0.49804" stroke-linecap="butt" stroke-linejoin="round"/>
  <text x="752.5" y="453.7" font-family="Helvetica" font-size="10" font-weight="normal" font-style="normal" fill="#000000" fill-opacity="1">4k</text>
  <path d="M 817 9 L 817 441" fill="none" stroke-width="0.75" stroke="#000000" stroke-opacity="0.49804" stroke-linecap="butt" stroke-linejoin="round"/>
  <text x="811.5" y="453.7" font-family="Helvetica" font-size="10" font-weight="normal" font-style="normal" fill="#000000" fill-opacity="1">8k</text>
  <path d="M 876 9 L 876 441" fill="none" stroke-width="0.75" stroke="#000000" stroke-opacity="0.49804" stroke-linecap="butt" stroke-linejoin="round"/>
  <text x="867.5" y="453.7" font-family="Helvetica" font-size="10" font-weight="normal" font-style="normal" fill="#000000" fill-opacity="1">16k</text>
  <path d="M 935 9 L 935 441" fill="none" stroke-width="0.75" stroke="#000000" stroke-opacity="0.49804" stroke-linecap="butt" stroke-linejoin="round"/>
  <text x="926.5" y="453.7" font-family="Helvetica" font-size="10" font-weight="normal" font-style="normal" fill="#000000" fill-opacity="1">32k</text>
  <path d="M 994 9 L 994 441" fill="none" stroke-width="0.75" stroke="#000000" stroke-opacity="0.49804" stroke-linecap="butt" stroke-linejoin="round"/>
  <text x="985.5" y="453.7" font-family="Helvetica" font-size="10" font-weight="normal" font-style="normal" fill="#000000" fill-opacity="1">64k</text>
  <path d="M 1053 9 L 1053 441" fill="none" stroke-width="0.75" stroke="#000000" stroke-opacity="0.49804" stroke-linecap="butt" stroke-linejoin="round"/>
  <text x="1042" y="453.7" font-family="Helvetica" font-size="10" font-weight="normal" font-style="normal" fill="#000000" fill-opacity="1">128k</text>
  <path d="M 1112 9 L 1112 441" fill="none" stroke-width="0.75" stroke="#000000" stroke-opacity="0.49804" stroke-linecap="butt" stroke-linejoin="round"/>
  <text x="1101" y="453.7" font-family="Helvetica" font-size="10" font-weight="normal" font-style="normal" fill="#000000" fill-opacity="1">256k</text>
  <path d="M 1171 9 L 1171 441" fill="none" stroke-width="0.75" stroke="#000000" stroke-opacity="0.49804" stroke-linecap="butt" stroke-linejoin="round"/>
  <text x="1160" y="453.7" font-family="Helvetica" font-size="10" font-weight="normal" font-style="normal" fill="#000000" fill-opacity="1">512k</text>
  <path d="M 1230 9 L 1230 441" fill="none" stroke-width="0.75" stroke="#000000" stroke-opacity="0.49804" stroke-linecap="butt" stroke-linejoin="round"/>
  <text x="1223" y="453.7" font-family="Helvetica" font-size="10" font-weight="normal" font-style="normal" fill="#000000" fill-opacity="1">1M</text>
  <path d="M 50 441 L 1230 441" fill="none" stroke-width="0.75" stroke="#000000" stroke-opacity="0.49804" stroke-linecap="butt" stroke-linejoin="round"/>
  <text x="21" y="442.7" font-family="Helvetica" font-size="10" font-weight="normal" font-style="normal" fill="#000000" fill-opacity="1">10 ns</text>
  <text x="1236" y="442.7" font-family="Helvetica" font-size="10" font-weight="normal" font-style="normal" fill="#000000" fill-opacity="1">10 ns</text>
  <path d="M 50 333 L 1230 333" fill="none" stroke-width="0.75" stroke="#000000" stroke-opacity="0.49804" stroke-linecap="butt" stroke-linejoin="round"/>
  <text x="16" y="334.7" font-family="Helvetica" font-size="10" font-weight="normal" font-style="normal" fill="#000000" fill-opacity="1">100 ns</text>
  <text x="1236" y="334.7" font-family="Helvetica" font-size="10" font-weight="normal" font-style="normal" fill="#000000" fill-opacity="1">100 ns</text>
  <path d="M 50 225 L 1230 225" fill="none" stroke-width="0.75" stroke="#000000" stroke-opacity="0.49804" stroke-linecap="butt" stroke-linejoin="round"/>
  <text x="26" y="226.7" font-family="Helvetica" font-size="10" font-weight="normal" font-style="normal" fill="#000000" fill-opacity="1">1 µs</text>
  <text x="1236" y="226.7" font-family="Helvetica" font-size="10" font-weight="normal" font-style="normal" fill="#000000" fill-opacity="1">1 µs</text>
  <path d="M 50 117 L 1230 117" fill="none" stroke-width="0.75" stroke="#000000" stroke-opacity="0.49804" stroke-linecap="butt" stroke-linejoin="round"/>
  <text x="21" y="118.7" font-family="Helvetica" font-size="10" font-weight="normal" font-style="normal" fill="#000000" fill-opacity="1">10 µs</text>
  <text x="1236" y="118.7" font-family="Helvetica" font-size="10" font-weight="normal" font-style="normal" fill="#000000" fill-opacity="1">10 µs</text>
  <path d="M 50 9 L 1230 9" fill="none" stroke-width="0.75" stroke="#000000" stroke-opacity="0.49804" stroke-linecap="butt" stroke-linejoin="round"/>
  <text x="15" y="10.7" font-family="Helvetica" font-size="10" font-weight="normal" font-style="normal" fill="#000000" fill-opacity="1">100 µs</text>
  <text x="1236" y="10.7" font-family="Helvetica" font-size="10" font-weight="normal" font-style="normal" fill="#000000" fill-opacity="1">100 µs</text>
  <path d="M 50 408.49 L 1230 408.49" fill="none" stroke-width="0.5" stroke="#000000" stroke-opacity="0.25882" stroke-linecap="butt" stroke-linejoin="round" stroke-dasharray="6 3" stroke-dashoffset="0"/>
  <path d="M 50 375.98 L 1230 375.98" fill="none" stroke-width="0.5" stroke="#000000" stroke-opacity="0.25882" stroke-linecap="butt" stroke-linejoin="round" stroke-dasharray="6 3" stroke-dashoffset="0"/>
  <path d="M 50 343.47 L 1230 343.47" fill="none" stroke-width="0.5" stroke="#000000" stroke-opacity="0.25882" stroke-linecap="butt" stroke-linejoin="round" stroke-dasharray="6 3" stroke-dashoffset="0"/>
  <path d="M 50 310.96 L 1230 310.96" fill="none" stroke-width="0.5" stroke="#000000" stroke-opacity="0.25882" stroke-linecap="butt" stroke-linejoin="round" stroke-dasharray="6 3" stroke-dashoffset="0"/>
  <path d="M 50 278.44 L 1230 278.44" fill="none" stroke-width="0.5" stroke="#000000" stroke-opacity="0.25882" stroke-linecap="butt" stroke-linejoin="round" stroke-dasharray="6 3" stroke-dashoffset="0"/>
  <path d="M 50 245.93 L 1230 245.93" fill="none" stroke-width="0.5" stroke="#000000" stroke-opacity="0.25882" stroke-linecap="butt" stroke-linejoin="round" stroke-dasharray="6 3" stroke-dashoffset="0"/>
  <path d="M 50 213.42 L 1230 213.42" fill="none" stroke-width="0.5" stroke="#000000" stroke-opacity="0.25882" stroke-linecap="butt" stroke-linejoin="round" stroke-dasharray="6 3" stroke-dashoffset="0"/>
  <path d="M 50 180.91 L 1230 180.91" fill="none" stroke-width="0.5" stroke="#000000" stroke-opacity="0.25882" stroke-linecap="butt" stroke-linejoin="round" stroke-dasharray="6 3" stroke-dashoffset="0"/>
  <path d="M 50 148.4 L 1230 148.4" fill="none" stroke-width="0.5" stroke="#000000" stroke-opacity="0.25882" stroke-linecap="butt" stroke-linejoin="round" stroke-dasharray="6 3" stroke-dashoffset="0"/>
  <path d="M 50 115.89 L 1230 115.89" fill="none" stroke-width="0.5" stroke="#000000" stroke-opacity="0.25882" stroke-linecap="butt" stroke-linejoin="round" stroke-dasharray="6 3" stroke-dashoffset="0"/>
  <path d="M 50 83.376 L 1230 83.376" fill="none" stroke-width="0.5" stroke="#000000" stroke-opacity="0.25882" stroke-linecap="butt" stroke-linejoin="round" stroke-dasharray="6 3" stroke-dashoffset="0"/>
  <path d="M 50 50.865 L 1230 50.865" fill="none" stroke-width="0.5" stroke="#000000" stroke-opacity="0.25882" stroke-linecap="butt" stroke-linejoin="round" stroke-dasharray="6 3" stroke-dashoffset="0"/>
  <path d="M 50 18.354 L 1230 18.354" fill="none" stroke-width="0.5" stroke="#000000" stroke-opacity="0.25882" stroke-linecap="butt" stroke-linejoin="round" stroke-dasharray="6 3" stroke-dashoffset="0"/>
  <path d="M 74 33 L 74 88 L 290 88 L 290 33 z" fill="#FFFFFF" fill-opacity="1.0" stroke="none"/>
  <clipPath id="clip-0">
    <path d="M 50 9 L 50 441 L 1230 441 L 1230 9 z"/>
  </clipPath>
  <g clip-path="url(#clip-0)">
    <path d="M 50 306.69L 109 320.97L 143.51 328.54L 168 332.25L 186.99 333.01L 202.51 334.4L 215.63 335.51L 227 315.49L 245.99 321.47L 261.51 322.11L 274.63 320.9L 286 324.42L 304.99 315.22L 320.51 316.76L 333.63 318.65L 345 318.7L 363.99 320.59L 379.51 313.76L 392.63 312.9L 404 315.57L 422.99 317.27L 438.51 308.49L 451.63 310.22L 463 313.19L 481.99 312.67L 497.51 313.62L 510.63 306.78L 522 307.95L 540.99 311.97L 556.51 314.82L 569.63 304.61L 581 304.55L 599.99 304.59L 615.51 307.82L 628.63 309.5L 640 307.73L 658.99 308.41L 674.51 305.47L 687.63 304.86L 699 305.5L 717.99 307.45L 733.51 307.2L 746.63 299.09L 758 295.63L 776.99 300.62L 792.51 296.31L 805.63 299.42L 817 297.62L 835.99 297.75L 851.51 299.45L 864.63 299.87L 876 293.4L 894.99 292.91L 910.51 293.16L 923.63 296.51L 935 287.38L 953.99 290.14L 969.51 286.89L 982.63 289.76L 994 288.56L 1013 285.17L 1028.5 291.34L 1041.6 286.31L 1053 284.8L 1072 284.08L 1087.5 287.74L 1100.6 285.24L 1112 278.92L 1131 285.52L 1146.5 283.73L 1159.6 287.29L 1171 283.01L 1190 280.38L 1205.5 287.15L 1218.6 286.14L 1230 279.89L 1230 283.16L 1218.6 286.72L 1205.5 287.41L 1190 284.66L 1171 285L 1159.6 287.82L 1146.5 289.15L 1131 288.05L 1112 286.9L 1100.6 292.72L 1087.5 291.79L 1072 289.87L 1053 288.85L 1041.6 295.53L 1028.5 293.31L 1013 293.72L 994 290.67L 982.63 296.59L 969.51 295.24L 953.99 295.18L 935 294.71L 923.63 301.03L 910.51 298.57L 894.99 297.2L 876 296.58L 864.63 301.23L 851.51 302.23L 835.99 300.23L 817 298.01L 805.63 305.81L 792.51 305.32L 776.99 302.7L 758 302.44L 746.63 301.63L 733.51 308.19L 717.99 309.83L 699 306.46L 687.63 305.41L 674.51 305.97L 658.99 313.47L 640 312.98L 628.63 312.8L 615.51 309.92L 599.99 311.45L 581 308.02L 569.63 308.16L 556.51 316.43L 540.99 314.27L 522 310.35L 510.63 309.67L 497.51 315.97L 481.99 314.95L 463 313.75L 451.63 312.5L 438.51 310.87L 422.99 320.25L 404 316.79L 392.63 315.92L 379.51 314.12L 363.99 322.61L 345 321.55L 333.63 320.84L 320.51 320.22L 304.99 318.97L 286 327.86L 274.63 329.76L 261.51 326.16L 245.99 324.09L 227 324.55L 215.63 336.66L 202.51 336.1L 186.99 335.94L 168 333.94L 143.51 331.46L 109 325.69L 50 307.77" fill="#007AFF" fill-opacity="0.30196078431372547" stroke="none"/>
    <path d="M 50 354.12L 109 381.44L 143.51 374.06L 168 383.27L 186.99 379.84L 202.51 384.72L 215.63 392.26L 227 396.97L 245.99 398.02L 261.51 403.11L 274.63 408.98L 286 413.2L 304.99 409.71L 320.51 415.53L 333.63 420.24L 345 424.15L 363.99 421.01L 379.51 426.34L 392.63 429.81L 404 430.81L 422.99 429.72L 438.51 414.66L 451.63 406.43L 463 401.2L 481.99 426.97L 497.51 422.13L 510.63 410.48L 522 414.32L 540.99 400.09L 556.51 400.21L 569.63 388.93L 581 389.87L 599.99 371.24L 615.51 366.86L 628.63 357.36L 640 356.27L 658.99 342.07L 674.51 338.19L 687.63 332.5L 699 323.65L 717.99 314.96L 733.51 307.91L 746.63 300.23L 758 294.41L 776.99 283.95L 792.51 275.61L 805.63 267.75L 817 261.94L 835.99 249.69L 851.51 241.35L 864.63 233.13L 876 225.38L 894.99 213.87L 910.51 202.14L 923.63 192.97L 935 185.65L 953.99 172.68L 969.51 164.48L 982.63 156.6L 994 149.8L 1013 138.71L 1028.5 129.56L 1041.6 122.96L 1053 115.78L 1072 106.72L 1072 106.72L 1053 117.28L 1041.6 123.58L 1028.5 130.75L 1013 139.58L 994 150.16L 982.63 157.06L 969.51 164.59L 953.99 174.04L 935 185.71L 923.63 193.17L 910.51 202.25L 894.99 214.1L 876 229.43L 864.63 235.7L 851.51 243.13L 835.99 251.67L 817 262.33L 805.63 268.63L 792.51 275.89L 776.99 284.49L 758 294.87L 746.63 300.78L 733.51 308.7L 717.99 317.03L 699 327.49L 687.63 332.55L 674.51 339.56L 658.99 349.12L 640 360.34L 628.63 366.42L 615.51 371.23L 599.99 380.44L 581 390.15L 569.63 395.09L 556.51 400.5L 540.99 405.9L 522 414.57L 510.63 418.25L 497.51 422.75L 481.99 427.69L 463 430.41L 451.63 431.01L 438.51 431.74L 422.99 431.14L 404 432.2L 392.63 430.34L 379.51 426.84L 363.99 422.31L 345 424.23L 333.63 422.17L 320.51 416.17L 304.99 410.48L 286 413.85L 274.63 408.98L 261.51 403.26L 245.99 398.02L 227 397.15L 215.63 392.45L 202.51 386.83L 186.99 379.85L 168 387.56L 143.51 374.06L 109 381.96L 50 354.12" fill="#FF3B30" fill-opacity="0.30196078431372547" stroke="none"/>
    <path d="M 50 307.48L 109 324.41L 143.51 330.68L 168 333.49L 186.99 335.16L 202.51 335.65L 215.63 336.36L 227 322.01L 245.99 323.39L 261.51 325.07L 274.63 327.28L 286 326.94L 304.99 317.96L 320.51 319.29L 333.63 320.26L 345 320.79L 363.99 322.07L 379.51 314.02L 392.63 315.12L 404 316.47L 422.99 319.45L 438.51 310.23L 451.63 311.89L 463 313.6L 481.99 314.34L 497.51 315.35L 510.63 308.9L 522 309.71L 540.99 313.66L 556.51 316.01L 569.63 307.21L 581 307.09L 599.99 309.56L 615.51 309.36L 628.63 311.91L 640 311.55L 658.99 312.09L 674.51 305.84L 687.63 305.27L 699 306.21L 717.99 309.19L 733.51 307.93L 746.63 300.96L 758 300.56L 776.99 302.15L 792.51 302.8L 805.63 304.06L 817 297.9L 835.99 299.57L 851.51 301.49L 864.63 300.87L 876 295.73L 894.99 296.04L 910.51 297.09L 923.63 299.81L 935 292.68L 953.99 293.81L 969.51 292.91L 982.63 294.7L 994 290.11L 1013 291.33L 1028.5 292.79L 1041.6 292.94L 1053 287.76L 1072 288.28L 1087.5 290.7L 1100.6 290.65L 1112 284.68L 1131 287.37L 1146.5 287.68L 1159.6 287.68L 1171 284.47L 1190 283.51L 1205.5 287.34L 1218.6 286.57L 1230 282.28" fill="none" stroke-width="4" stroke="#007AFF" stroke-opacity="1" stroke-linecap="round" stroke-linejoin="round"/>
    <path d="M 50 354.12L 109 381.82L 143.51 374.06L 168 386.4L 186.99 379.85L 202.51 386.27L 215.63 392.4L 227 397.1L 245.99 398.02L 261.51 403.22L 274.63 408.98L 286 413.68L 304.99 410.28L 320.51 416L 333.63 421.66L 345 424.21L 363.99 421.97L 379.51 426.71L 392.63 430.2L 404 431.83L 422.99 430.77L 438.51 426.64L 451.63 423.25L 463 420.87L 481.99 427.5L 497.51 422.59L 510.63 416.1L 522 414.51L 540.99 404.31L 556.51 400.43L 569.63 393.4L 581 390.08L 599.99 377.86L 615.51 370.05L 628.63 363.88L 640 359.24L 658.99 347.17L 674.51 339.2L 687.63 332.54L 699 326.46L 717.99 316.48L 733.51 308.49L 746.63 300.63L 758 294.75L 776.99 284.35L 792.51 275.81L 805.63 268.4L 817 262.23L 835.99 251.14L 851.51 242.66L 864.63 235.01L 876 228.34L 894.99 214.04L 910.51 202.22L 923.63 193.12L 935 185.69L 953.99 173.68L 969.51 164.56L 982.63 156.94L 994 150.06L 1013 139.35L 1028.5 130.44L 1041.6 123.42L 1053 116.89L 1072 106.72" fill="none" stroke-width="4" stroke="#FF3B30" stroke-opacity="1" stroke-linecap="round" stroke-linejoin="round"/>
    <path d="M 50 307.48L 109 324.41L 143.51 330.68L 168 333.49L 186.99 335.16L 202.51 335.65L 215.63 336.36L 227 322.01L 245.99 323.39L 261.51 325.07L 274.63 327.28L 286 326.94L 304.99 317.96L 320.51 319.29L 333.63 320.26L 345 320.79L 363.99 322.07L 379.51 314.02L 392.63 315.12L 404 316.47L 422.99 319.45L 438.51 310.23L 451.63 311.89L 463 313.6L 481.99 314.34L 497.51 315.35L 510.63 308.9L 522 309.71L 540.99 313.66L 556.51 316.01L 569.63 307.21L 581 307.09L 599.99 309.56L 615.51 309.36L 628.63 311.91L 640 311.55L 658.99 312.09L 674.51 305.84L 687.63 305.27L 699 306.21L 717.99 309.19L 733.51 307.93L 746.63 300.96L 758 300.56L 776.99 302.15L 792.51 302.8L 805.63 304.06L 817 297.9L 835.99 299.57L 851.51 301.49L 864.63 300.87L 876 295.73L 894.99 296.04L 910.51 297.09L 923.63 299.81L 935 292.68L 953.99 293.81L 969.51 292.91L 982.63 294.7L 994 290.11L 1013 291.33L 1028.5 292.79L 1041.6 292.94L 1053 287.76L 1072 288.28L 1087.5 290.7L 1100.6 290.65L 1112 284.68L 1131 287.37L 1146.5 287.68L 1159.6 287.68L 1171 284.47L 1190 283.51L 1205.5 287.34L 1218.6 286.57L 1230 282.28" fill="none" stroke-width="0.5" stroke="#000000" stroke-opacity="0.30196" stroke-linecap="round" stroke-linejoin="round"/>
    <path d="M 50 354.12L 109 381.82L 143.51 374.06L 168 386.4L 186.99 379.85L 202.51 386.27L 215.63 392.4L 227 397.1L 245.99 398.02L 261.51 403.22L 274.63 408.98L 286 413.68L 304.99 410.28L 320.51 416L 333.63 421.66L 345 424.21L 363.99 421.97L 379.51 426.71L 392.63 430.2L 404 431.83L 422.99 430.77L 438.51 426.64L 451.63 423.25L 463 420.87L 481.99 427.5L 497.51 422.59L 510.63 416.1L 522 414.51L 540.99 404.31L 556.51 400.43L 569.63 393.4L 581 390.08L 599.99 377.86L 615.51 370.05L 628.63 363.88L 640 359.24L 658.99 347.17L 674.51 339.2L 687.63 332.54L 699 326.46L 717.99 316.48L 733.51 308.49L 746.63 300.63L 758 294.75L 776.99 284.35L 792.51 275.81L 805.63 268.4L 817 262.23L 835.99 251.14L 851.51 242.66L 864.63 235.01L 876 228.34L 894.99 214.04L 910.51 202.22L 923.63 193.12L 935 185.69L 953.99 173.68L 969.51 164.56L 982.63 156.94L 994 150.06L 1013 139.35L 1028.5 130.44L 1041.6 123.42L 1053 116.89L 1072 106.72" fill="none" stroke-width="0.5" stroke="#000000" stroke-opacity="0.30196" stroke-linecap="round" stroke-linejoin="round"/>
  </g>
  <path d="M 74 33 L 74 88 L 290 88 L 290 33 z" fill="#FFFFFF" fill-opacity="0.7019607843137254" stroke-width="0.5" stroke="#000000" stroke-opacity="1" stroke-linecap="round" stroke-linejoin="round"/>
  <path d="M 88 52 L 108 52" fill="none" stroke-width="4" stroke="#FF3B30" stroke-opacity="1" stroke-linecap="round" stroke-linejoin="round"/>
  <path d="M 88 52 L 108 52" fill="none" stroke-width="0.5" stroke="#000000" stroke-opacity="0.30196" stroke-linecap="round" stroke-linejoin="round"/>
  <text x="119" y="56.17" font-family="Menlo" font-size="12" font-weight="normal" font-style="normal" fill="#000000" fill-opacity="1">Array&lt;Int&gt; prepend</text>
  <path d="M 88 69 L 108 69" fill="none" stroke-width="4" stroke="#007AFF" stroke-opacity="1" stroke-linecap="round" stroke-linejoin="round"/>
  <path d="M 88 69 L 108 69" fill="none" stroke-width="0.5" stroke="#000000" stroke-opacity="0.30196" stroke-linecap="round" stroke-linejoin="round"/>
  <text x="119" y="73.17" font-family="Menlo" font-size="12" font-weight="normal" font-style="normal" fill="#000000" fill-opacity="1">TreeArray&lt;Int&gt; prepend</text>
  <path d="M 50 9 L 50 441 L 1230 441 L 1230 9 z" fill="none" stroke-width="0.5" stroke="#000000" stroke-opacity="1" stroke-linecap="round" stroke-linejoin="round"/>
</svg>
