<!DOCTYPE svg PUBLIC "-//W3C//DTD SVG 1.1//EN" "http://www.w3.org/Graphics/SVG/1.1/DTD/svg11.dtd">
<svg width="1280.0px" height="480.0px" viewBox="0.0 0.0 1280.0 480.0" xmlns="http://www.w3.org/2000/svg" xmlns:xlink="http://www.w3.org/1999/xlink" version="1.1">
  <path d="M 0 0 L 0 480 L 1280 480 L 1280 0 z" fill="#FFFFFF" fill-opacity="1.0" stroke="none"/>
  <text x="50" y="468.7" font-family="Helvetica" font-size="10" font-weight="normal" font-style="normal" fill="#000000" fill-opacity="1">Average per-element processing time over input size (bands: min, mean, mean + 2stddev)</text>
  <a xlink:href="https://github.com/apple/swift-collections-benchmark"><text x="1107" y="468.7" font-family="Helvetica" font-size="10" font-weight="normal" font-style="normal" fill="#000000" fill-opacity="1">swift-collections-benchmark</text></a>
  <path d="M 50 9 L 50 441" fill="none" stroke-width="0.75" stroke="#000000" stroke-opacity="0.49804" stroke-linecap="butt" stroke-linejoin="round"/>
  <text x="47" y="453.7" font-family="Helvetica" font-size="10" font-weight="normal" font-style="normal" fill="#000000" fill-opacity="1">1</text>
  <path d="M 109 9 L 109 441" fill="none" stroke-width="0.75" stroke="#000000" stroke-opacity="0.49804" stroke-linecap="butt" stroke-linejoin="round"/>
  <text x="106" y="453.7" font-family="Helvetica" font-size="10" font-weight="normal" font-style="normal" fill="#000000" fill-opacity="1">2</text>
  <path d="M 168 9 L 168 441" fill="none" stroke-width="0.75" stroke="#000000" stroke-opacity="0.49804" stroke-linecap="butt" stroke-linejoin="round"/>
  <text x="165" y="453.7" font-family="Helvetica" font-size="10" font-weight="normal" font-style="normal" fill="#000000" fill-opacity="1">4</text>
  <path d="M 227 9 L 227 441" fill="none" stroke-width="0.75" stroke="#000000" stroke-opacity="0.49804" stroke-linecap="butt" stroke-linejoin="round"/>
  <text x="224" y="453.7" font-family="Helvetica" font-size="10" font-weight="normal" font-style="normal" fill="#000000" fill-opacity="1">8</text>
  <path d="M 286 9 L 286 441" fill="none" stroke-width="0.75" stroke="#000000" stroke-opacity="0.49804" stroke-linecap="butt" stroke-linejoin="round"/>
  <text x="280" y="453.7" font-family="Helvetica" font-size="10" font-weight="normal" font-style="normal" fill="#000000" fill-opacity="1">16</text>
  <path d="M 345 9 L 345 441" fill="none" stroke-width="0.75" stroke="#000000" stroke-opacity="0.49804" stroke-linecap="butt" stroke-linejoin="round"/>
  <text x="339" y="453.7" font-family="Helvetica" font-size="10" font-weight="normal" font-style="normal" fill="#000000" fill-opacity="1">32</text>
  <path d="M 404 9 L 404 441" fill="none" stroke-width="0.75" stroke="#000000" stroke-opacity="0.49804" stroke-linecap="butt" stroke-linejoin="round"/>
  <text x="398" y="453.7" font-family="Helvetica" font-size="10" font-weight="normal" font-style="normal" fill="#000000" fill-opacity="1">64</text>
  <path d="M 463 9 L 463 441" fill="none" stroke-width="0.75" stroke="#000000" stroke-opacity="0.49804" stroke-linecap="butt" stroke-linejoin="round"/>
  <text x="454.5" y="453.7" font-family="Helvetica" font-size="10" font-weight="normal" font-style="normal" fill="#000000" fill-opacity="1">128</text>
  <path d="M 522 9 L 522 441" fill="none" stroke-width="0.75" stroke="#000000" stroke-opacity="0.49804" stroke-linecap="butt" stroke-linejoin="round"/>
  <text x="513.5" y="453.7" font-family="Helvetica" font-size="10" font-weight="normal" font-style="normal" fill="#000000" fill-opacity="1">256</text>
  <path d="M 581 9 L 581 441" fill="none" stroke-width="0.75" stroke="#000000" stroke-opacity="0.49804" stroke-linecap="butt" stroke-linejoin="round"/>
  <text x="572.5" y="453.7" font-family="Helvetica" font-size="10" font-weight="normal" font-style="normal" fill="#000000" fill-opacity="1">512</text>
  <path d="M 640 9 L 640 441" fill="none" stroke-width="0.75" stroke="#000000" stroke-opacity="0.49804" stroke-linecap="butt" stroke-linejoin="round"/>
  <text x="634.5" y="453.7" font-family="Helvetica" font-size="10" font-weight="normal" font-style="normal" fill="#000000" fill-opacity="1">1k</text>
  <path d="M 699 9 L 699 441" fill="none" stroke-width="0.75" stroke="#000000" stroke-opacity="0.49804" stroke-linecap="butt" stroke-linejoin="round"/>
  <text x="693.5" y="453.7" font-family="Helvetica" font-size="10" font-weight="normal" font-style="normal" fill="#000000" fill-opacity="1">2k</text>
  <path d="M 758 9 L 758 441" fill="none" stroke-width="0.75" stroke="#000000" stroke-opacity="0.49804" stroke-linecap="butt" stroke-linejoin="round"/>
  <text x="752.5" y="453.7" font-family="Helvetica" font-size="10" font-weight="normal" font-style="normal" fill="#000000" fill-opacity="1">4k</text>
  <path d="M 817 9 L 817 441" fill="none" stroke-width="0.75" stroke="#000000" stroke-opacity="0.49804" stroke-linecap="butt" stroke-linejoin="round"/>
  <text x="811.5" y="453.7" font-family="Helvetica" font-size="10" font-weight="normal" font-style="normal" fill="#000000" fill-opacity="1">8k</text>
  <path d="M 876 9 L 876 441" fill="none" stroke-width="0.75" stroke="#000000" stroke-opacity="0.49804" stroke-linecap="butt" stroke-linejoin="round"/>
  <text x="867.5" y="453.7" font-family="Helvetica" font-size="10" font-weight="normal" font-style="normal" fill="#000000" fill-opacity="1">16k</text>
  <path d="M 935 9 L 935 441" fill="none" stroke-width="0.75" stroke="#000000" stroke-opacity="0.49804" stroke-linecap="butt" stroke-linejoin="round"/>
  <text x="926.5" y="453.7" font-family="Helvetica" font-size="10" font-weight="normal" font-style="normal" fill="#000000" fill-opacity="1">32k</text>
  <path d="M 994 9 L 994 441" fill="none" stroke-width="0.75" stroke="#000000" stroke-opacity="0.49804" stroke-linecap="butt" stroke-linejoin="round"/>
  <text x="985.5" y="453.7" font-family="Helvetica" font-size="10" font-weight="normal" font-style="normal" fill="#000000" fill-opacity="1">64k</text>
  <path d="M 1053 9 L 1053 441" fill="none" stroke-width="0.75" stroke="#000000" stroke-opacity="0.49804" stroke-linecap="butt" stroke-linejoin="round"/>
  <text x="1042" y="453.7" font-family="Helvetica" font-size="10" font-weight="normal" font-style="normal" fill="#000000" fill-opacity="1">128k</text>
  <path d="M 1112 9 L 1112 441" fill="none" stroke-width="0.75" stroke="#000000" stroke-opacity="0.49804" stroke-linecap="butt" stroke-linejoin="round"/>
  <text x="1101" y="453.7" font-family="Helvetica" font-size="10" font-weight="normal" font-style="normal" fill="#000000" fill-opacity="1">256k</text>
  <path d="M 1171 9 L 1171 441" fill="none" stroke-width="0.75" stroke="#000000" stroke-opacity="0.49804" stroke-linecap="butt" stroke-linejoin="round"/>
  <text x="1160" y="453.7" font-family="Helvetica" font-size="10" font-weight="normal" font-style="normal" fill="#000000" fill-opacity="1">512k</text>
  <path d="M 1230 9 L 1230 441" fill="none" stroke-width="0.75" stroke="#000000" stroke-opacity="0.49804" stroke-linecap="butt" stroke-linejoin="round"/>
  <text x="1223" y="453.7" font-family="Helvetica" font-size="10" font-weight="normal" font-style="normal" fill="#000000" fill-opacity="1">1M</text>
  <path d="M 50 441 L 1230 441" fill="none" stroke-width="0.75" stroke="#000000" stroke-opacity="0.49804" stroke-linecap="butt" stroke-linejoin="round"/>
  <text x="21" y="442.7" font-family="Helvetica" font-size="10" font-weight="normal" font-style="normal" fill="#000000" fill-opacity="1">10 ns</text>
  <text x="1236" y="442.7" font-family="Helvetica" font-size="10" font-weight="normal" font-style="normal" fill="#000000" fill-opacity="1">10 ns</text>
  <path d="M 50 333 L 1230 333" fill="none" stroke-width="0.75" stroke="#000000" stroke-opacity="0.49804" stroke-linecap="butt" stroke-linejoin="round"/>
  <text x="16" y="334.7" font-family="Helvetica" font-size="10" font-weight="normal" font-style="normal" fill="#000000" fill-opacity="1">100 ns</text>
  <text x="1236" y="334.7" font-family="Helvetica" font-size="10" font-weight="normal" font-style="normal" fill="#000000" fill-opacity="1">100 ns</text>
  <path d="M 50 225 L 1230 225" fill="none" stroke-width="0.75" stroke="#000000" stroke-opacity="0.49804" stroke-linecap="butt" stroke-linejoin="round"/>
  <text x="26" y="226.7" font-family="Helvetica" font-size="10" font-weight="normal" font-style="normal" fill="#000000" fill-opacity="1">1 µs</text>
  <text x="1236" y="226.7" font-family="Helvetica" font-size="10" font-weight="normal" font-style="normal" fill="#000000" fill-opacity="1">1 µs</text>
  <path d="M 50 117 L 1230 117" fill="none" stroke-width="0.75" stroke="#000000" stroke-opacity="0.49804" stroke-linecap="butt" stroke-linejoin="round"/>
  <text x="21" y="118.7" font-family="Helvetica" font-size="10" font-weight="normal" font-style="normal" fill="#000000" fill-opacity="1">10 µs</text>
  <text x="1236" y="118.7" font-family="Helvetica" font-size="10" font-weight="normal" font-style="normal" fill="#000000" fill-opacity="1">10 µs</text>
  <path d="M 50 9 L 1230 9" fill="none" stroke-width="0.75" stroke="#000000" stroke-opacity="0.49804" stroke-linecap="butt" stroke-linejoin="round"/>
  <text x="15" y="10.7" font-family="Helvetica" font-size="10" font-weight="normal" font-style="normal" fill="#000000" fill-opacity="1">100 µs</text>
  <text x="1236" y="10.7" font-family="Helvetica" font-size="10" font-weight="normal" font-style="normal" fill="#000000" fill-opacity="1">100 µs</text>
  <path d="M 50 408.49 L 1230 408.49" fill="none" stroke-width="0.5" stroke="#000000" stroke-opacity="0.25882" stroke-linecap="butt" stroke-linejoin="round" stroke-dasharray="6 3" stroke-dashoffset="0"/>
  <path d="M 50 375.98 L 1230 375.98" fill="none" stroke-width="0.5" stroke="#000000" stroke-opacity="0.25882" stroke-linecap="butt" stroke-linejoin="round" stroke-dasharray="6 3" stroke-dashoffset="0"/>
  <path d="M 50 343.47 L 1230 343.47" fill="none" stroke-width="0.5" stroke="#000000" stroke-opacity="0.25882" stroke-linecap="butt" stroke-linejoin="round" stroke-dasharray="6 3" stroke-dashoffset="0"/>
  <path d="M 50 310.96 L 1230 310.96" fill="none" stroke-width="0.5" stroke="#000000" stroke-opacity="0.25882" stroke-linecap="butt" stroke-linejoin="round" stroke-dasharray="6 3" stroke-dashoffset="0"/>
  <path d="M 50 278.44 L 1230 278.44" fill="none" stroke-width="0.5" stroke="#000000" stroke-opacity="0.25882" stroke-linecap="butt" stroke-linejoin="round" stroke-dasharray="6 3" stroke-dashoffset="0"/>
  <path d="M 50 245.93 L 1230 245.93" fill="none" stroke-width="0.5" stroke="#000000" stroke-opacity="0.25882" stroke-linecap="butt" stroke-linejoin="round" stroke-dasharray="6 3" stroke-dashoffset="0"/>
  <path d="M 50 213.42 L 1230 213.42" fill="none" stroke-width="0.5" stroke="#000000" stroke-opacity="0.25882" stroke-linecap="butt" stroke-linejoin="round" stroke-dasharray="6 3" stroke-dashoffset="0"/>
  <path d="M 50 180.91 L 1230 180.91" fill="none" stroke-width="0.5" stroke="#000000" stroke-opacity="0.25882" stroke-linecap="butt" stroke-linejoin="round" stroke-dasharray="6 3" stroke-dashoffset="0"/>
  <path d="M 50 148.4 L 1230 148.4" fill="none" stroke-width="0.5" stroke="#000000" stroke-opacity="0.25882" stroke-linecap="butt" stroke-linejoin="round" stroke-dasharray="6 3" stroke-dashoffset="0"/>
  <path d="M 50 115.89 L 1230 115.89" fill="none" stroke-width="0.5" stroke="#000000" stroke-opacity="0.25882" stroke-linecap="butt" stroke-linejoin="round" stroke-dasharray="6 3" stroke-dashoffset="0"/>
  <path d="M 50 83.376 L 1230 83.376" fill="none" stroke-width="0.5" stroke="#000000" stroke-opacity="0.25882" stroke-linecap="butt" stroke-linejoin="round" stroke-dasharray="6 3" stroke-dashoffset="0"/>
  <path d="M 50 50.865 L 1230 50.865" fill="none" stroke-width="0.5" stroke="#000000" stroke-opacity="0.25882" stroke-linecap="butt" stroke-linejoin="round" stroke-dasharray="6 3" stroke-dashoffset="0"/>
  <path d="M 50 18.354 L 1230 18.354" fill="none" stroke-width="0.5" stroke="#000000" stroke-opacity="0.25882" stroke-linecap="butt" stroke-linejoin="round" stroke-dasharray="6 3" stroke-dashoffset="0"/>
  <path d="M 74 33 L 74 88 L 290 88 L 290 33 z" fill="#FFFFFF" fill-opacity="1.0" stroke="none"/>
  <clipPath id="clip-0">
    <path d="M 50 9 L 50 441 L 1230 441 L 1230 9 z"/>
  </clipPath>
  <g clip-path="url(#clip-0)">
    <path d="M 50 306.53L 109 321.88L 143.51 330.16L 168 333.55L 186.99 332.37L 202.51 333.74L 215.63 334.68L 227 318.61L 245.99 321.13L 261.51 323.18L 274.63 325.66L 286 327.47L 304.99 317.08L 320.51 316.72L 333.63 318.32L 345 318.93L 363.99 319.53L 379.51 312.18L 392.63 313.24L 404 314.5L 422.99 315.63L 438.51 308.13L 451.63 312.04L 463 310.13L 481.99 314.9L 497.51 316.65L 510.63 308.71L 522 310.51L 540.99 312.34L 556.51 313.17L 569.63 304.48L 581 306.78L 599.99 308.76L 615.51 306.52L 628.63 308.11L 640 308.51L 658.99 309.33L 674.51 304.53L 687.63 306.54L 699 305.23L 717.99 307.6L 733.51 307.33L 746.63 301.73L 758 301.25L 776.99 302.84L 792.51 298.39L 805.63 302.95L 817 297.9L 835.99 297.72L 851.51 298.47L 864.63 298.11L 876 294.8L 894.99 295.58L 910.51 297.38L 923.63 297.86L 935 291.93L 953.99 293.94L 969.51 294.8L 982.63 295.17L 994 287.62L 1013 291.59L 1028.5 291.88L 1041.6 292.55L 1053 287.43L 1072 287.51L 1087.5 289.67L 1100.6 291.54L 1112 284.08L 1131 288.54L 1146.5 285.18L 1159.6 289.98L 1171 281.23L 1190 284.11L 1205.5 287.29L 1218.6 287.51L 1230 277.62L 1230 282.75L 1218.6 287.64L 1205.5 288.35L 1190 284.52L 1171 284.09L 1159.6 290.83L 1146.5 288.03L 1131 288.73L 1112 286.69L 1100.6 292.06L 1087.5 291.99L 1072 291.8L 1053 290.55L 1041.6 295.77L 1028.5 293.35L 1013 292.1L 994 292.1L 982.63 296.55L 969.51 295.51L 953.99 295.9L 935 293.67L 923.63 300.63L 910.51 298.87L 894.99 297.51L 876 296.76L 864.63 302.46L 851.51 301.73L 835.99 302.32L 817 298.45L 805.63 305.7L 792.51 305.12L 776.99 304.21L 758 302.52L 746.63 304.87L 733.51 308.13L 717.99 308.45L 699 306.84L 687.63 306.7L 674.51 308.59L 658.99 314.21L 640 313.14L 628.63 312.62L 615.51 314.08L 599.99 310.68L 581 308.43L 569.63 310.56L 556.51 313.83L 540.99 312.66L 522 312.16L 510.63 313.2L 497.51 316.95L 481.99 315.69L 463 313.86L 451.63 313.05L 438.51 311.42L 422.99 319.11L 404 317.47L 392.63 316.32L 379.51 314.98L 363.99 325.77L 345 321.91L 333.63 321.06L 320.51 320.14L 304.99 319.04L 286 328.8L 274.63 327.39L 261.51 326.29L 245.99 324.25L 227 321.89L 215.63 336.84L 202.51 336.48L 186.99 335.82L 168 333.74L 143.51 333.2L 109 324.61L 50 309.16" fill="#007AFF" fill-opacity="0.30196078431372547" stroke="none"/>
    <path d="M 50 354.12L 109 381.44L 143.51 374.06L 168 383.27L 186.99 379.84L 202.51 384.72L 215.63 392.26L 227 396.97L 245.99 398.02L 261.51 403.11L 274.63 408.98L 286 413.2L 304.99 409.71L 320.51 415.53L 333.63 420.24L 345 424.15L 363.99 421.01L 379.51 426.34L 392.63 429.81L 404 430.81L 422.99 429.72L 438.51 414.66L 451.63 406.43L 463 401.2L 481.99 426.97L 497.51 422.13L 510.63 410.48L 522 414.32L 540.99 400.09L 556.51 400.21L 569.63 388.93L 581 389.87L 599.99 371.24L 615.51 366.86L 628.63 357.36L 640 356.27L 658.99 342.07L 674.51 338.19L 687.63 332.5L 699 323.65L 717.99 314.96L 733.51 307.91L 746.63 300.23L 758 294.41L 776.99 283.95L 792.51 275.61L 805.63 267.75L 817 261.94L 835.99 249.69L 851.51 241.35L 864.63 233.13L 876 225.38L 894.99 213.87L 910.51 202.14L 923.63 192.97L 935 185.65L 953.99 172.68L 969.51 164.48L 982.63 156.6L 994 149.8L 1013 138.71L 1028.5 129.56L 1041.6 122.96L 1053 115.78L 1072 106.72L 1072 106.72L 1053 117.28L 1041.6 123.58L 1028.5 130.75L 1013 139.58L 994 150.16L 982.63 157.06L 969.51 164.59L 953.99 174.04L 935 185.71L 923.63 193.17L 910.51 202.25L 894.99 214.1L 876 229.43L 864.63 235.7L 851.51 243.13L 835.99 251.67L 817 262.33L 805.63 268.63L 792.51 275.89L 776.99 284.49L 758 294.87L 746.63 300.78L 733.51 308.7L 717.99 317.03L 699 327.49L 687.63 332.55L 674.51 339.56L 658.99 349.12L 640 360.34L 628.63 366.42L 615.51 371.23L 599.99 380.44L 581 390.15L 569.63 395.09L 556.51 400.5L 540.99 405.9L 522 414.57L 510.63 418.25L 497.51 422.75L 481.99 427.69L 463 430.41L 451.63 431.01L 438.51 431.74L 422.99 431.14L 404 432.2L 392.63 430.34L 379.51 426.84L 363.99 422.31L 345 424.23L 333.63 422.17L 320.51 416.17L 304.99 410.48L 286 413.85L 274.63 408.98L 261.51 403.26L 245.99 398.02L 227 397.15L 215.63 392.45L 202.51 386.83L 186.99 379.85L 168 387.56L 143.51 374.06L 109 381.96L 50 354.12" fill="#FF3B30" fill-opacity="0.30196078431372547" stroke="none"/>
    <path d="M 50 308.46L 109 323.88L 143.51 332.38L 168 333.69L 186.99 334.89L 202.51 335.75L 215.63 336.27L 227 321.01L 245.99 323.42L 261.51 325.46L 274.63 326.94L 286 328.45L 304.99 318.52L 320.51 319.22L 333.63 320.33L 345 321.11L 363.99 324.06L 379.51 314.23L 392.63 315.5L 404 316.67L 422.99 318.17L 438.51 310.54L 451.63 312.78L 463 312.86L 481.99 315.48L 497.51 316.87L 510.63 311.98L 522 311.73L 540.99 312.57L 556.51 313.65L 569.63 308.89L 581 307.99L 599.99 310.17L 615.51 311.98L 628.63 311.4L 640 311.89L 658.99 312.88L 674.51 307.5L 687.63 306.66L 699 306.42L 717.99 308.23L 733.51 307.92L 746.63 304.03L 758 302.19L 776.99 303.85L 792.51 303.27L 805.63 304.97L 817 298.31L 835.99 301.08L 851.51 300.85L 864.63 301.28L 876 296.24L 894.99 297L 910.51 298.48L 923.63 299.89L 935 293.21L 953.99 295.38L 969.51 295.32L 982.63 296.19L 994 290.88L 1013 291.97L 1028.5 292.96L 1041.6 294.91L 1053 289.71L 1072 290.64L 1087.5 291.37L 1100.6 291.92L 1112 285.99L 1131 288.68L 1146.5 287.27L 1159.6 290.61L 1171 283.32L 1190 284.42L 1205.5 288.07L 1218.6 287.61L 1230 281.35" fill="none" stroke-width="4" stroke="#007AFF" stroke-opacity="1" stroke-linecap="round" stroke-linejoin="round"/>
    <path d="M 50 354.12L 109 381.82L 143.51 374.06L 168 386.4L 186.99 379.85L 202.51 386.27L 215.63 392.4L 227 397.1L 245.99 398.02L 261.51 403.22L 274.63 408.98L 286 413.68L 304.99 410.28L 320.51 416L 333.63 421.66L 345 424.21L 363.99 421.97L 379.51 426.71L 392.63 430.2L 404 431.83L 422.99 430.77L 438.51 426.64L 451.63 423.25L 463 420.87L 481.99 427.5L 497.51 422.59L 510.63 416.1L 522 414.51L 540.99 404.31L 556.51 400.43L 569.63 393.4L 581 390.08L 599.99 377.86L 615.51 370.05L 628.63 363.88L 640 359.24L 658.99 347.17L 674.51 339.2L 687.63 332.54L 699 326.46L 717.99 316.48L 733.51 308.49L 746.63 300.63L 758 294.75L 776.99 284.35L 792.51 275.81L 805.63 268.4L 817 262.23L 835.99 251.14L 851.51 242.66L 864.63 235.01L 876 228.34L 894.99 214.04L 910.51 202.22L 923.63 193.12L 935 185.69L 953.99 173.68L 969.51 164.56L 982.63 156.94L 994 150.06L 1013 139.35L 1028.5 130.44L 1041.6 123.42L 1053 116.89L 1072 106.72" fill="none" stroke-width="4" stroke="#FF3B30" stroke-opacity="1" stroke-linecap="round" stroke-linejoin="round"/>
    <path d="M 50 308.46L 109 323.88L 143.51 332.38L 168 333.69L 186.99 334.89L 202.51 335.75L 215.63 336.27L 227 321.01L 245.99 323.42L 261.51 325.46L 274.63 326.94L 286 328.45L 304.99 318.52L 320.51 319.22L 333.63 320.33L 345 321.11L 363.99 324.06L 379.51 314.23L 392.63 315.5L 404 316.67L 422.99 318.17L 438.51 310.54L 451.63 312.78L 463 312.86L 481.99 315.48L 497.51 316.87L 510.63 311.98L 522 311.73L 540.99 312.57L 556.51 313.65L 569.63 308.89L 581 307.99L 599.99 310.17L 615.51 311.98L 628.63 311.4L 640 311.89L 658.99 312.88L 674.51 307.5L 687.63 306.66L 699 306.42L 717.99 308.23L 733.51 307.92L 746.63 304.03L 758 302.19L 776.99 303.85L 792.51 303.27L 805.63 304.97L 817 298.31L 835.99 301.08L 851.51 300.85L 864.63 301.28L 876 296.24L 894.99 297L 910.51 298.48L 923.63 299.89L 935 293.21L 953.99 295.38L 969.51 295.32L 982.63 296.19L 994 290.88L 1013 291.97L 1028.5 292.96L 1041.6 294.91L 1053 289.71L 1072 290.64L 1087.5 291.37L 1100.6 291.92L 1112 285.99L 1131 288.68L 1146.5 287.27L 1159.6 290.61L 1171 283.32L 1190 284.42L 1205.5 288.07L 1218.6 287.61L 1230 281.35" fill="none" stroke-width="0.5" stroke="#000000" stroke-opacity="0.30196" stroke-linecap="round" stroke-linejoin="round"/>
    <path d="M 50 354.12L 109 381.82L 143.51 374.06L 168 386.4L 186.99 379.85L 202.51 386.27L 215.63 392.4L 227 397.1L 245.99 398.02L 261.51 403.22L 274.63 408.98L 286 413.68L 304.99 410.28L 320.51 416L 333.63 421.66L 345 424.21L 363.99 421.97L 379.51 426.71L 392.63 430.2L 404 431.83L 422.99 430.77L 438.51 426.64L 451.63 423.25L 463 420.87L 481.99 427.5L 497.51 422.59L 510.63 416.1L 522 414.51L 540.99 404.31L 556.51 400.43L 569.63 393.4L 581 390.08L 599.99 377.86L 615.51 370.05L 628.63 363.88L 640 359.24L 658.99 347.17L 674.51 339.2L 687.63 332.54L 699 326.46L 717.99 316.48L 733.51 308.49L 746.63 300.63L 758 294.75L 776.99 284.35L 792.51 275.81L 805.63 268.4L 817 262.23L 835.99 251.14L 851.51 242.66L 864.63 235.01L 876 228.34L 894.99 214.04L 910.51 202.22L 923.63 193.12L 935 185.69L 953.99 173.68L 969.51 164.56L 982.63 156.94L 994 150.06L 1013 139.35L 1028.5 130.44L 1041.6 123.42L 1053 116.89L 1072 106.72" fill="none" stroke-width="0.5" stroke="#000000" stroke-opacity="0.30196" stroke-linecap="round" stroke-linejoin="round"/>
  </g>
  <path d="M 74 33 L 74 88 L 290 88 L 290 33 z" fill="#FFFFFF" fill-opacity="0.7019607843137254" stroke-width="0.5" stroke="#000000" stroke-opacity="1" stroke-linecap="round" stroke-linejoin="round"/>
  <path d="M 88 52 L 108 52" fill="none" stroke-width="4" stroke="#FF3B30" stroke-opacity="1" stroke-linecap="round" stroke-linejoin="round"/>
  <path d="M 88 52 L 108 52" fill="none" stroke-width="0.5" stroke="#000000" stroke-opacity="0.30196" stroke-linecap="round" stroke-linejoin="round"/>
  <text x="119" y="56.17" font-family="Menlo" font-size="12" font-weight="normal" font-style="normal" fill="#000000" fill-opacity="1">Array&lt;Int&gt; prepend</text>
  <path d="M 88 69 L 108 69" fill="none" stroke-width="4" stroke="#007AFF" stroke-opacity="1" stroke-linecap="round" stroke-linejoin="round"/>
  <path d="M 88 69 L 108 69" fill="none" stroke-width="0.5" stroke="#000000" stroke-opacity="0.30196" stroke-linecap="round" stroke-linejoin="round"/>
  <text x="119" y="73.17" font-family="Menlo" font-size="12" font-weight="normal" font-style="normal" fill="#000000" fill-opacity="1">TreeArray&lt;Int&gt; prepend</text>
  <path d="M 50 9 L 50 441 L 1230 441 L 1230 9 z" fill="none" stroke-width="0.5" stroke="#000000" stroke-opacity="1" stroke-linecap="round" stroke-linejoin="round"/>
</svg>
