<!DOCTYPE svg PUBLIC "-//W3C//DTD SVG 1.1//EN" "http://www.w3.org/Graphics/SVG/1.1/DTD/svg11.dtd">
<svg width="1280.0px" height="480.0px" viewBox="0.0 0.0 1280.0 480.0" xmlns="http://www.w3.org/2000/svg" xmlns:xlink="http://www.w3.org/1999/xlink" version="1.1">
  <path d="M 0 0 L 0 480 L 1280 480 L 1280 0 z" fill="#FFFFFF" fill-opacity="1.0" stroke="none"/>
  <text x="50" y="468.7" font-family="Helvetica" font-size="10" font-weight="normal" font-style="normal" fill="#000000" fill-opacity="1">Average per-element processing time over input size (bands: min, mean, mean + 2stddev)</text>
  <a xlink:href="https://github.com/apple/swift-collections-benchmark"><text x="1107" y="468.7" font-family="Helvetica" font-size="10" font-weight="normal" font-style="normal" fill="#000000" fill-opacity="1">swift-collections-benchmark</text></a>
  <path d="M 50 9 L 50 441" fill="none" stroke-width="0.75" stroke="#000000" stroke-opacity="0.49804" stroke-linecap="butt" stroke-linejoin="round"/>
  <text x="47" y="453.7" font-family="Helvetica" font-size="10" font-weight="normal" font-style="normal" fill="#000000" fill-opacity="1">1</text>
  <path d="M 109 9 L 109 441" fill="none" stroke-width="0.75" stroke="#000000" stroke-opacity="0.49804" stroke-linecap="butt" stroke-linejoin="round"/>
  <text x="106" y="453.7" font-family="Helvetica" font-size="10" font-weight="normal" font-style="normal" fill="#000000" fill-opacity="1">2</text>
  <path d="M 168 9 L 168 441" fill="none" stroke-width="0.75" stroke="#000000" stroke-opacity="0.49804" stroke-linecap="butt" stroke-linejoin="round"/>
  <text x="165" y="453.7" font-family="Helvetica" font-size="10" font-weight="normal" font-style="normal" fill="#000000" fill-opacity="1">4</text>
  <path d="M 227 9 L 227 441" fill="none" stroke-width="0.75" stroke="#000000" stroke-opacity="0.49804" stroke-linecap="butt" stroke-linejoin="round"/>
  <text x="224" y="453.7" font-family="Helvetica" font-size="10" font-weight="normal" font-style="normal" fill="#000000" fill-opacity="1">8</text>
  <path d="M 286 9 L 286 441" fill="none" stroke-width="0.75" stroke="#000000" stroke-opacity="0.49804" stroke-linecap="butt" stroke-linejoin="round"/>
  <text x="280" y="453.7" font-family="Helvetica" font-size="10" font-weight="normal" font-style="normal" fill="#000000" fill-opacity="1">16</text>
  <path d="M 345 9 L 345 441" fill="none" stroke-width="0.75" stroke="#000000" stroke-opacity="0.49804" stroke-linecap="butt" stroke-linejoin="round"/>
  <text x="339" y="453.7" font-family="Helvetica" font-size="10" font-weight="normal" font-style="normal" fill="#000000" fill-opacity="1">32</text>
  <path d="M 404 9 L 404 441" fill="none" stroke-width="0.75" stroke="#000000" stroke-opacity="0.49804" stroke-linecap="butt" stroke-linejoin="round"/>
  <text x="398" y="453.7" font-family="Helvetica" font-size="10" font-weight="normal" font-style="normal" fill="#000000" fill-opacity="1">64</text>
  <path d="M 463 9 L 463 441" fill="none" stroke-width="0.75" stroke="#000000" stroke-opacity="0.49804" stroke-linecap="butt" stroke-linejoin="round"/>
  <text x="454.5" y="453.7" font-family="Helvetica" font-size="10" font-weight="normal" font-style="normal" fill="#000000" fill-opacity="1">128</text>
  <path d="M 522 9 L 522 441" fill="none" stroke-width="0.75" stroke="#000000" stroke-opacity="0.49804" stroke-linecap="butt" stroke-linejoin="round"/>
  <text x="513.5" y="453.7" font-family="Helvetica" font-size="10" font-weight="normal" font-style="normal" fill="#000000" fill-opacity="1">256</text>
  <path d="M 581 9 L 581 441" fill="none" stroke-width="0.75" stroke="#000000" stroke-opacity="0.49804" stroke-linecap="butt" stroke-linejoin="round"/>
  <text x="572.5" y="453.7" font-family="Helvetica" font-size="10" font-weight="normal" font-style="normal" fill="#000000" fill-opacity="1">512</text>
  <path d="M 640 9 L 640 441" fill="none" stroke-width="0.75" stroke="#000000" stroke-opacity="0.49804" stroke-linecap="butt" stroke-linejoin="round"/>
  <text x="634.5" y="453.7" font-family="Helvetica" font-size="10" font-weight="normal" font-style="normal" fill="#000000" fill-opacity="1">1k</text>
  <path d="M 699 9 L 699 441" fill="none" stroke-width="0.75" stroke="#000000" stroke-opacity="0.49804" stroke-linecap="butt" stroke-linejoin="round"/>
  <text x="693.5" y="453.7" font-family="Helvetica" font-size="10" font-weight="normal" font-style="normal" fill="#000000" fill-opacity="1">2k</text>
  <path d="M 758 9 L 758 441" fill="none" stroke-width="0.75" stroke="#000000" stroke-opacity="0.49804" stroke-linecap="butt" stroke-linejoin="round"/>
  <text x="752.5" y="453.7" font-family="Helvetica" font-size="10" font-weight="normal" font-style="normal" fill="#000000" fill-opacity="1">4k</text>
  <path d="M 817 9 L 817 441" fill="none" stroke-width="0.75" stroke="#000000" stroke-opacity="0.49804" stroke-linecap="butt" stroke-linejoin="round"/>
  <text x="811.5" y="453.7" font-family="Helvetica" font-size="10" font-weight="normal" font-style="normal" fill="#000000" fill-opacity="1">8k</text>
  <path d="M 876 9 L 876 441" fill="none" stroke-width="0.75" stroke="#000000" stroke-opacity="0.49804" stroke-linecap="butt" stroke-linejoin="round"/>
  <text x="867.5" y="453.7" font-family="Helvetica" font-size="10" font-weight="normal" font-style="normal" fill="#000000" fill-opacity="1">16k</text>
  <path d="M 935 9 L 935 441" fill="none" stroke-width="0.75" stroke="#000000" stroke-opacity="0.49804" stroke-linecap="butt" stroke-linejoin="round"/>
  <text x="926.5" y="453.7" font-family="Helvetica" font-size="10" font-weight="normal" font-style="normal" fill="#000000" fill-opacity="1">32k</text>
  <path d="M 994 9 L 994 441" fill="none" stroke-width="0.75" stroke="#000000" stroke-opacity="0.49804" stroke-linecap="butt" stroke-linejoin="round"/>
  <text x="985.5" y="453.7" font-family="Helvetica" font-size="10" font-weight="normal" font-style="normal" fill="#000000" fill-opacity="1">64k</text>
  <path d="M 1053 9 L 1053 441" fill="none" stroke-width="0.75" stroke="#000000" stroke-opacity="0.49804" stroke-linecap="butt" stroke-linejoin="round"/>
  <text x="1042" y="453.7" font-family="Helvetica" font-size="10" font-weight="normal" font-style="normal" fill="#000000" fill-opacity="1">128k</text>
  <path d="M 1112 9 L 1112 441" fill="none" stroke-width="0.75" stroke="#000000" stroke-opacity="0.49804" stroke-linecap="butt" stroke-linejoin="round"/>
  <text x="1101" y="453.7" font-family="Helvetica" font-size="10" font-weight="normal" font-style="normal" fill="#000000" fill-opacity="1">256k</text>
  <path d="M 1171 9 L 1171 441" fill="none" stroke-width="0.75" stroke="#000000" stroke-opacity="0.49804" stroke-linecap="butt" stroke-linejoin="round"/>
  <text x="1160" y="453.7" font-family="Helvetica" font-size="10" font-weight="normal" font-style="normal" fill="#000000" fill-opacity="1">512k</text>
  <path d="M 1230 9 L 1230 441" fill="none" stroke-width="0.75" stroke="#000000" stroke-opacity="0.49804" stroke-linecap="butt" stroke-linejoin="round"/>
  <text x="1223" y="453.7" font-family="Helvetica" font-size="10" font-weight="normal" font-style="normal" fill="#000000" fill-opacity="1">1M</text>
  <path d="M 50 441 L 1230 441" fill="none" stroke-width="0.75" stroke="#000000" stroke-opacity="0.49804" stroke-linecap="butt" stroke-linejoin="round"/>
  <text x="21" y="442.7" font-family="Helvetica" font-size="10" font-weight="normal" font-style="normal" fill="#000000" fill-opacity="1">10 ns</text>
  <text x="1236" y="442.7" font-family="Helvetica" font-size="10" font-weight="normal" font-style="normal" fill="#000000" fill-opacity="1">10 ns</text>
  <path d="M 50 333 L 1230 333" fill="none" stroke-width="0.75" stroke="#000000" stroke-opacity="0.49804" stroke-linecap="butt" stroke-linejoin="round"/>
  <text x="16" y="334.7" font-family="Helvetica" font-size="10" font-weight="normal" font-style="normal" fill="#000000" fill-opacity="1">100 ns</text>
  <text x="1236" y="334.7" font-family="Helvetica" font-size="10" font-weight="normal" font-style="normal" fill="#000000" fill-opacity="1">100 ns</text>
  <path d="M 50 225 L 1230 225" fill="none" stroke-width="0.75" stroke="#000000" stroke-opacity="0.49804" stroke-linecap="butt" stroke-linejoin="round"/>
  <text x="26" y="226.7" font-family="Helvetica" font-size="10" font-weight="normal" font-style="normal" fill="#000000" fill-opacity="1">1 µs</text>
  <text x="1236" y="226.7" font-family="Helvetica" font-size="10" font-weight="normal" font-style="normal" fill="#000000" fill-opacity="1">1 µs</text>
  <path d="M 50 117 L 1230 117" fill="none" stroke-width="0.75" stroke="#000000" stroke-opacity="0.49804" stroke-linecap="butt" stroke-linejoin="round"/>
  <text x="21" y="118.7" font-family="Helvetica" font-size="10" font-weight="normal" font-style="normal" fill="#000000" fill-opacity="1">10 µs</text>
  <text x="1236" y="118.7" font-family="Helvetica" font-size="10" font-weight="normal" font-style="normal" fill="#000000" fill-opacity="1">10 µs</text>
  <path d="M 50 9 L 1230 9" fill="none" stroke-width="0.75" stroke="#000000" stroke-opacity="0.49804" stroke-linecap="butt" stroke-linejoin="round"/>
  <text x="15" y="10.7" font-family="Helvetica" font-size="10" font-weight="normal" font-style="normal" fill="#000000" fill-opacity="1">100 µs</text>
  <text x="1236" y="10.7" font-family="Helvetica" font-size="10" font-weight="normal" font-style="normal" fill="#000000" fill-opacity="1">100 µs</text>
  <path d="M 50 408.49 L 1230 408.49" fill="none" stroke-width="0.5" stroke="#000000" stroke-opacity="0.25882" stroke-linecap="butt" stroke-linejoin="round" stroke-dasharray="6 3" stroke-dashoffset="0"/>
  <path d="M 50 375.98 L 1230 375.98" fill="none" stroke-width="0.5" stroke="#000000" stroke-opacity="0.25882" stroke-linecap="butt" stroke-linejoin="round" stroke-dasharray="6 3" stroke-dashoffset="0"/>
  <path d="M 50 343.47 L 1230 343.47" fill="none" stroke-width="0.5" stroke="#000000" stroke-opacity="0.25882" stroke-linecap="butt" stroke-linejoin="round" stroke-dasharray="6 3" stroke-dashoffset="0"/>
  <path d="M 50 310.96 L 1230 310.96" fill="none" stroke-width="0.5" stroke="#000000" stroke-opacity="0.25882" stroke-linecap="butt" stroke-linejoin="round" stroke-dasharray="6 3" stroke-dashoffset="0"/>
  <path d="M 50 278.44 L 1230 278.44" fill="none" stroke-width="0.5" stroke="#000000" stroke-opacity="0.25882" stroke-linecap="butt" stroke-linejoin="round" stroke-dasharray="6 3" stroke-dashoffset="0"/>
  <path d="M 50 245.93 L 1230 245.93" fill="none" stroke-width="0.5" stroke="#000000" stroke-opacity="0.25882" stroke-linecap="butt" stroke-linejoin="round" stroke-dasharray="6 3" stroke-dashoffset="0"/>
  <path d="M 50 213.42 L 1230 213.42" fill="none" stroke-width="0.5" stroke="#000000" stroke-opacity="0.25882" stroke-linecap="butt" stroke-linejoin="round" stroke-dasharray="6 3" stroke-dashoffset="0"/>
  <path d="M 50 180.91 L 1230 180.91" fill="none" stroke-width="0.5" stroke="#000000" stroke-opacity="0.25882" stroke-linecap="butt" stroke-linejoin="round" stroke-dasharray="6 3" stroke-dashoffset="0"/>
  <path d="M 50 148.4 L 1230 148.4" fill="none" stroke-width="0.5" stroke="#000000" stroke-opacity="0.25882" stroke-linecap="butt" stroke-linejoin="round" stroke-dasharray="6 3" stroke-dashoffset="0"/>
  <path d="M 50 115.89 L 1230 115.89" fill="none" stroke-width="0.5" stroke="#000000" stroke-opacity="0.25882" stroke-linecap="butt" stroke-linejoin="round" stroke-dasharray="6 3" stroke-dashoffset="0"/>
  <path d="M 50 83.376 L 1230 83.376" fill="none" stroke-width="0.5" stroke="#000000" stroke-opacity="0.25882" stroke-linecap="butt" stroke-linejoin="round" stroke-dasharray="6 3" stroke-dashoffset="0"/>
  <path d="M 50 50.865 L 1230 50.865" fill="none" stroke-width="0.5" stroke="#000000" stroke-opacity="0.25882" stroke-linecap="butt" stroke-linejoin="round" stroke-dasharray="6 3" stroke-dashoffset="0"/>
  <path d="M 50 18.354 L 1230 18.354" fill="none" stroke-width="0.5" stroke="#000000" stroke-opacity="0.25882" stroke-linecap="butt" stroke-linejoin="round" stroke-dasharray="6 3" stroke-dashoffset="0"/>
  <path d="M 74 33 L 74 88 L 290 88 L 290 33 z" fill="#FFFFFF" fill-opacity="1.0" stroke="none"/>
  <clipPath id="clip-0">
    <path d="M 50 9 L 50 441 L 1230 441 L 1230 9 z"/>
  </clipPath>
  <g clip-path="url(#clip-0)">
    <path d="M 50 303.66L 109 323.51L 143.51 330.63L 168 334.55L 186.99 338.46L 202.51 341.46L 215.63 330.47L 227 331.83L 245.99 333.54L 261.51 332.3L 274.63 335.79L 286 332.01L 304.99 332.01L 320.51 332.75L 333.63 330.85L 345 331.05L 363.99 330.05L 379.51 329.14L 392.63 331.51L 404 330.85L 422.99 329.97L 438.51 328.1L 451.63 329.63L 463 329.3L 481.99 325.12L 497.51 326.07L 510.63 326.72L 522 325.52L 540.99 321.9L 556.51 323.61L 569.63 322.58L 581 320.54L 599.99 322.66L 615.51 320.03L 628.63 314.8L 640 317.1L 658.99 317.86L 674.51 317.64L 687.63 318.03L 699 315.77L 717.99 317.22L 733.51 314.33L 746.63 312.39L 758 307.29L 776.99 309.07L 792.51 302.94L 805.63 303.67L 817 307.23L 835.99 304.94L 851.51 302.09L 864.63 303.57L 876 301.26L 894.99 297.68L 910.51 304.09L 923.63 304.98L 935 299.67L 953.99 299.17L 969.51 293.23L 982.63 300.86L 994 301.52L 1013 296.4L 1028.5 298.01L 1041.6 298.84L 1053 301.35L 1072 296.83L 1087.5 293.34L 1100.6 297.32L 1112 295.66L 1131 296.27L 1146.5 287.76L 1159.6 291.87L 1171 294.14L 1190 291.62L 1205.5 292.41L 1218.6 291.78L 1230 291.29L 1230 293.54L 1218.6 294.72L 1205.5 296.44L 1190 295.16L 1171 298.14L 1159.6 295.67L 1146.5 297.04L 1131 296.94L 1112 300.18L 1100.6 299.38L 1087.5 300.98L 1072 301.41L 1053 302.6L 1041.6 301.22L 1028.5 302.29L 1013 303.5L 994 304.13L 982.63 304.14L 969.51 305.55L 953.99 304.98L 935 308.11L 923.63 305.63L 910.51 305.67L 894.99 307.59L 876 306.96L 864.63 307.88L 851.51 310.05L 835.99 309.07L 817 313.31L 805.63 310.84L 792.51 312.55L 776.99 314.31L 758 317.07L 746.63 317.78L 733.51 317L 717.99 318.44L 699 317.18L 687.63 320.46L 674.51 319.72L 658.99 320.74L 640 324.43L 628.63 321.49L 615.51 322.66L 599.99 324.3L 581 327.29L 569.63 324.03L 556.51 326.17L 540.99 326.19L 522 329.78L 510.63 327.38L 497.51 329.36L 481.99 331.91L 463 329.72L 451.63 330.09L 438.51 329.8L 422.99 330.16L 404 332.88L 392.63 332.06L 379.51 332.67L 363.99 331.25L 345 334.11L 333.63 335.28L 320.51 332.81L 304.99 332.78L 286 332.1L 274.63 336.76L 261.51 338.71L 245.99 336.03L 227 332.1L 215.63 331.03L 202.51 342.14L 186.99 340.35L 168 338.38L 143.51 334.32L 109 326.02L 50 304.68" fill="#007AFF" fill-opacity="0.30196078431372547" stroke="none"/>
    <path d="M 50 354.12L 109 381.44L 143.51 374.06L 168 383.27L 186.99 379.84L 202.51 384.72L 215.63 392.26L 227 396.97L 245.99 398.02L 261.51 403.11L 274.63 408.98L 286 413.2L 304.99 409.71L 320.51 415.53L 333.63 420.24L 345 424.15L 363.99 421.01L 379.51 426.34L 392.63 429.81L 404 430.81L 422.99 429.72L 438.51 414.66L 451.63 406.43L 463 401.2L 481.99 426.97L 497.51 422.13L 510.63 410.48L 522 414.32L 540.99 400.09L 556.51 400.21L 569.63 388.93L 581 389.87L 599.99 371.24L 615.51 366.86L 628.63 357.36L 640 356.27L 658.99 342.07L 674.51 338.19L 687.63 332.5L 699 323.65L 717.99 314.96L 733.51 307.91L 746.63 300.23L 758 294.41L 776.99 283.95L 792.51 275.61L 805.63 267.75L 817 261.94L 835.99 249.69L 851.51 241.35L 864.63 233.13L 876 225.38L 894.99 213.87L 910.51 202.14L 923.63 192.97L 935 185.65L 953.99 172.68L 969.51 164.48L 982.63 156.6L 994 149.8L 1013 138.71L 1028.5 129.56L 1041.6 122.96L 1053 115.78L 1072 106.72L 1072 106.72L 1053 117.28L 1041.6 123.58L 1028.5 130.75L 1013 139.58L 994 150.16L 982.63 157.06L 969.51 164.59L 953.99 174.04L 935 185.71L 923.63 193.17L 910.51 202.25L 894.99 214.1L 876 229.43L 864.63 235.7L 851.51 243.13L 835.99 251.67L 817 262.33L 805.63 268.63L 792.51 275.89L 776.99 284.49L 758 294.87L 746.63 300.78L 733.51 308.7L 717.99 317.03L 699 327.49L 687.63 332.55L 674.51 339.56L 658.99 349.12L 640 360.34L 628.63 366.42L 615.51 371.23L 599.99 380.44L 581 390.15L 569.63 395.09L 556.51 400.5L 540.99 405.9L 522 414.57L 510.63 418.25L 497.51 422.75L 481.99 427.69L 463 430.41L 451.63 431.01L 438.51 431.74L 422.99 431.14L 404 432.2L 392.63 430.34L 379.51 426.84L 363.99 422.31L 345 424.23L 333.63 422.17L 320.51 416.17L 304.99 410.48L 286 413.85L 274.63 408.98L 261.51 403.26L 245.99 398.02L 227 397.15L 215.63 392.45L 202.51 386.83L 186.99 379.85L 168 387.56L 143.51 374.06L 109 381.96L 50 354.12" fill="#FF3B30" fill-opacity="0.30196078431372547" stroke="none"/>
    <path d="M 50 304.41L 109 325.35L 143.51 333.33L 168 337.35L 186.99 339.85L 202.51 341.96L 215.63 330.88L 227 332.03L 245.99 335.36L 261.51 336.95L 274.63 336.51L 286 332.08L 304.99 332.58L 320.51 332.8L 333.63 334.08L 345 333.29L 363.99 330.93L 379.51 331.73L 392.63 331.91L 404 332.34L 422.99 330.11L 438.51 329.35L 451.63 329.97L 463 329.61L 481.99 330.04L 497.51 328.48L 510.63 327.21L 522 328.63L 540.99 325.03L 556.51 325.49L 569.63 323.64L 581 325.43L 599.99 323.87L 615.51 321.96L 628.63 319.65L 640 322.4L 658.99 319.97L 674.51 319.17L 687.63 319.81L 699 316.81L 717.99 318.12L 733.51 316.29L 746.63 316.31L 758 314.31L 776.99 312.88L 792.51 309.84L 805.63 308.86L 817 311.64L 835.99 307.96L 851.51 307.83L 864.63 306.72L 876 305.4L 894.99 304.79L 910.51 305.25L 923.63 305.46L 935 305.75L 953.99 303.39L 969.51 302L 982.63 303.26L 994 303.44L 1013 301.54L 1028.5 301.13L 1041.6 300.58L 1053 302.27L 1072 300.17L 1087.5 298.86L 1100.6 298.84L 1112 298.96L 1131 296.76L 1146.5 294.43L 1159.6 294.65L 1171 297.07L 1190 294.21L 1205.5 295.36L 1218.6 293.93L 1230 292.94" fill="none" stroke-width="4" stroke="#007AFF" stroke-opacity="1" stroke-linecap="round" stroke-linejoin="round"/>
    <path d="M 50 354.12L 109 381.82L 143.51 374.06L 168 386.4L 186.99 379.85L 202.51 386.27L 215.63 392.4L 227 397.1L 245.99 398.02L 261.51 403.22L 274.63 408.98L 286 413.68L 304.99 410.28L 320.51 416L 333.63 421.66L 345 424.21L 363.99 421.97L 379.51 426.71L 392.63 430.2L 404 431.83L 422.99 430.77L 438.51 426.64L 451.63 423.25L 463 420.87L 481.99 427.5L 497.51 422.59L 510.63 416.1L 522 414.51L 540.99 404.31L 556.51 400.43L 569.63 393.4L 581 390.08L 599.99 377.86L 615.51 370.05L 628.63 363.88L 640 359.24L 658.99 347.17L 674.51 339.2L 687.63 332.54L 699 326.46L 717.99 316.48L 733.51 308.49L 746.63 300.63L 758 294.75L 776.99 284.35L 792.51 275.81L 805.63 268.4L 817 262.23L 835.99 251.14L 851.51 242.66L 864.63 235.01L 876 228.34L 894.99 214.04L 910.51 202.22L 923.63 193.12L 935 185.69L 953.99 173.68L 969.51 164.56L 982.63 156.94L 994 150.06L 1013 139.35L 1028.5 130.44L 1041.6 123.42L 1053 116.89L 1072 106.72" fill="none" stroke-width="4" stroke="#FF3B30" stroke-opacity="1" stroke-linecap="round" stroke-linejoin="round"/>
    <path d="M 50 304.41L 109 325.35L 143.51 333.33L 168 337.35L 186.99 339.85L 202.51 341.96L 215.63 330.88L 227 332.03L 245.99 335.36L 261.51 336.95L 274.63 336.51L 286 332.08L 304.99 332.58L 320.51 332.8L 333.63 334.08L 345 333.29L 363.99 330.93L 379.51 331.73L 392.63 331.91L 404 332.34L 422.99 330.11L 438.51 329.35L 451.63 329.97L 463 329.61L 481.99 330.04L 497.51 328.48L 510.63 327.21L 522 328.63L 540.99 325.03L 556.51 325.49L 569.63 323.64L 581 325.43L 599.99 323.87L 615.51 321.96L 628.63 319.65L 640 322.4L 658.99 319.97L 674.51 319.17L 687.63 319.81L 699 316.81L 717.99 318.12L 733.51 316.29L 746.63 316.31L 758 314.31L 776.99 312.88L 792.51 309.84L 805.63 308.86L 817 311.64L 835.99 307.96L 851.51 307.83L 864.63 306.72L 876 305.4L 894.99 304.79L 910.51 305.25L 923.63 305.46L 935 305.75L 953.99 303.39L 969.51 302L 982.63 303.26L 994 303.44L 1013 301.54L 1028.5 301.13L 1041.6 300.58L 1053 302.27L 1072 300.17L 1087.5 298.86L 1100.6 298.84L 1112 298.96L 1131 296.76L 1146.5 294.43L 1159.6 294.65L 1171 297.07L 1190 294.21L 1205.5 295.36L 1218.6 293.93L 1230 292.94" fill="none" stroke-width="0.5" stroke="#000000" stroke-opacity="0.30196" stroke-linecap="round" stroke-linejoin="round"/>
    <path d="M 50 354.12L 109 381.82L 143.51 374.06L 168 386.4L 186.99 379.85L 202.51 386.27L 215.63 392.4L 227 397.1L 245.99 398.02L 261.51 403.22L 274.63 408.98L 286 413.68L 304.99 410.28L 320.51 416L 333.63 421.66L 345 424.21L 363.99 421.97L 379.51 426.71L 392.63 430.2L 404 431.83L 422.99 430.77L 438.51 426.64L 451.63 423.25L 463 420.87L 481.99 427.5L 497.51 422.59L 510.63 416.1L 522 414.51L 540.99 404.31L 556.51 400.43L 569.63 393.4L 581 390.08L 599.99 377.86L 615.51 370.05L 628.63 363.88L 640 359.24L 658.99 347.17L 674.51 339.2L 687.63 332.54L 699 326.46L 717.99 316.48L 733.51 308.49L 746.63 300.63L 758 294.75L 776.99 284.35L 792.51 275.81L 805.63 268.4L 817 262.23L 835.99 251.14L 851.51 242.66L 864.63 235.01L 876 228.34L 894.99 214.04L 910.51 202.22L 923.63 193.12L 935 185.69L 953.99 173.68L 969.51 164.56L 982.63 156.94L 994 150.06L 1013 139.35L 1028.5 130.44L 1041.6 123.42L 1053 116.89L 1072 106.72" fill="none" stroke-width="0.5" stroke="#000000" stroke-opacity="0.30196" stroke-linecap="round" stroke-linejoin="round"/>
  </g>
  <path d="M 74 33 L 74 88 L 290 88 L 290 33 z" fill="#FFFFFF" fill-opacity="0.7019607843137254" stroke-width="0.5" stroke="#000000" stroke-opacity="1" stroke-linecap="round" stroke-linejoin="round"/>
  <path d="M 88 52 L 108 52" fill="none" stroke-width="4" stroke="#FF3B30" stroke-opacity="1" stroke-linecap="round" stroke-linejoin="round"/>
  <path d="M 88 52 L 108 52" fill="none" stroke-width="0.5" stroke="#000000" stroke-opacity="0.30196" stroke-linecap="round" stroke-linejoin="round"/>
  <text x="119" y="56.17" font-family="Menlo" font-size="12" font-weight="normal" font-style="normal" fill="#000000" fill-opacity="1">Array&lt;Int&gt; prepend</text>
  <path d="M 88 69 L 108 69" fill="none" stroke-width="4" stroke="#007AFF" stroke-opacity="1" stroke-linecap="round" stroke-linejoin="round"/>
  <path d="M 88 69 L 108 69" fill="none" stroke-width="0.5" stroke="#000000" stroke-opacity="0.30196" stroke-linecap="round" stroke-linejoin="round"/>
  <text x="119" y="73.17" font-family="Menlo" font-size="12" font-weight="normal" font-style="normal" fill="#000000" fill-opacity="1">TreeArray&lt;Int&gt; prepend</text>
  <path d="M 50 9 L 50 441 L 1230 441 L 1230 9 z" fill="none" stroke-width="0.5" stroke="#000000" stroke-opacity="1" stroke-linecap="round" stroke-linejoin="round"/>
</svg>
