<!DOCTYPE svg PUBLIC "-//W3C//DTD SVG 1.1//EN" "http://www.w3.org/Graphics/SVG/1.1/DTD/svg11.dtd">
<svg width="1280.0px" height="480.0px" viewBox="0.0 0.0 1280.0 480.0" xmlns="http://www.w3.org/2000/svg" xmlns:xlink="http://www.w3.org/1999/xlink" version="1.1">
  <path d="M 0 0 L 0 480 L 1280 480 L 1280 0 z" fill="#FFFFFF" fill-opacity="1.0" stroke="none"/>
  <text x="50" y="468.7" font-family="Helvetica" font-size="10" font-weight="normal" font-style="normal" fill="#000000" fill-opacity="1">Average per-element processing time over input size (bands: min, mean, mean + 2stddev)</text>
  <a xlink:href="https://github.com/apple/swift-collections-benchmark"><text x="1107" y="468.7" font-family="Helvetica" font-size="10" font-weight="normal" font-style="normal" fill="#000000" fill-opacity="1">swift-collections-benchmark</text></a>
  <path d="M 50 9 L 50 441" fill="none" stroke-width="0.75" stroke="#000000" stroke-opacity="0.49804" stroke-linecap="butt" stroke-linejoin="round"/>
  <text x="47" y="453.7" font-family="Helvetica" font-size="10" font-weight="normal" font-style="normal" fill="#000000" fill-opacity="1">1</text>
  <path d="M 115.56 9 L 115.56 441" fill="none" stroke-width="0.75" stroke="#000000" stroke-opacity="0.49804" stroke-linecap="butt" stroke-linejoin="round"/>
  <text x="112.56" y="453.7" font-family="Helvetica" font-size="10" font-weight="normal" font-style="normal" fill="#000000" fill-opacity="1">2</text>
  <path d="M 181.11 9 L 181.11 441" fill="none" stroke-width="0.75" stroke="#000000" stroke-opacity="0.49804" stroke-linecap="butt" stroke-linejoin="round"/>
  <text x="178.11" y="453.7" font-family="Helvetica" font-size="10" font-weight="normal" font-style="normal" fill="#000000" fill-opacity="1">4</text>
  <path d="M 246.67 9 L 246.67 441" fill="none" stroke-width="0.75" stroke="#000000" stroke-opacity="0.49804" stroke-linecap="butt" stroke-linejoin="round"/>
  <text x="243.67" y="453.7" font-family="Helvetica" font-size="10" font-weight="normal" font-style="normal" fill="#000000" fill-opacity="1">8</text>
  <path d="M 312.22 9 L 312.22 441" fill="none" stroke-width="0.75" stroke="#000000" stroke-opacity="0.49804" stroke-linecap="butt" stroke-linejoin="round"/>
  <text x="306.22" y="453.7" font-family="Helvetica" font-size="10" font-weight="normal" font-style="normal" fill="#000000" fill-opacity="1">16</text>
  <path d="M 377.78 9 L 377.78 441" fill="none" stroke-width="0.75" stroke="#000000" stroke-opacity="0.49804" stroke-linecap="butt" stroke-linejoin="round"/>
  <text x="371.78" y="453.7" font-family="Helvetica" font-size="10" font-weight="normal" font-style="normal" fill="#000000" fill-opacity="1">32</text>
  <path d="M 443.33 9 L 443.33 441" fill="none" stroke-width="0.75" stroke="#000000" stroke-opacity="0.49804" stroke-linecap="butt" stroke-linejoin="round"/>
  <text x="437.33" y="453.7" font-family="Helvetica" font-size="10" font-weight="normal" font-style="normal" fill="#000000" fill-opacity="1">64</text>
  <path d="M 508.89 9 L 508.89 441" fill="none" stroke-width="0.75" stroke="#000000" stroke-opacity="0.49804" stroke-linecap="butt" stroke-linejoin="round"/>
  <text x="500.39" y="453.7" font-family="Helvetica" font-size="10" font-weight="normal" font-style="normal" fill="#000000" fill-opacity="1">128</text>
  <path d="M 574.44 9 L 574.44 441" fill="none" stroke-width="0.75" stroke="#000000" stroke-opacity="0.49804" stroke-linecap="butt" stroke-linejoin="round"/>
  <text x="565.94" y="453.7" font-family="Helvetica" font-size="10" font-weight="normal" font-style="normal" fill="#000000" fill-opacity="1">256</text>
  <path d="M 640 9 L 640 441" fill="none" stroke-width="0.75" stroke="#000000" stroke-opacity="0.49804" stroke-linecap="butt" stroke-linejoin="round"/>
  <text x="631.5" y="453.7" font-family="Helvetica" font-size="10" font-weight="normal" font-style="normal" fill="#000000" fill-opacity="1">512</text>
  <path d="M 705.56 9 L 705.56 441" fill="none" stroke-width="0.75" stroke="#000000" stroke-opacity="0.49804" stroke-linecap="butt" stroke-linejoin="round"/>
  <text x="700.06" y="453.7" font-family="Helvetica" font-size="10" font-weight="normal" font-style="normal" fill="#000000" fill-opacity="1">1k</text>
  <path d="M 771.11 9 L 771.11 441" fill="none" stroke-width="0.75" stroke="#000000" stroke-opacity="0.49804" stroke-linecap="butt" stroke-linejoin="round"/>
  <text x="765.61" y="453.7" font-family="Helvetica" font-size="10" font-weight="normal" font-style="normal" fill="#000000" fill-opacity="1">2k</text>
  <path d="M 836.67 9 L 836.67 441" fill="none" stroke-width="0.75" stroke="#000000" stroke-opacity="0.49804" stroke-linecap="butt" stroke-linejoin="round"/>
  <text x="831.17" y="453.7" font-family="Helvetica" font-size="10" font-weight="normal" font-style="normal" fill="#000000" fill-opacity="1">4k</text>
  <path d="M 902.22 9 L 902.22 441" fill="none" stroke-width="0.75" stroke="#000000" stroke-opacity="0.49804" stroke-linecap="butt" stroke-linejoin="round"/>
  <text x="896.72" y="453.7" font-family="Helvetica" font-size="10" font-weight="normal" font-style="normal" fill="#000000" fill-opacity="1">8k</text>
  <path d="M 967.78 9 L 967.78 441" fill="none" stroke-width="0.75" stroke="#000000" stroke-opacity="0.49804" stroke-linecap="butt" stroke-linejoin="round"/>
  <text x="959.28" y="453.7" font-family="Helvetica" font-size="10" font-weight="normal" font-style="normal" fill="#000000" fill-opacity="1">16k</text>
  <path d="M 1033.3 9 L 1033.3 441" fill="none" stroke-width="0.75" stroke="#000000" stroke-opacity="0.49804" stroke-linecap="butt" stroke-linejoin="round"/>
  <text x="1024.8" y="453.7" font-family="Helvetica" font-size="10" font-weight="normal" font-style="normal" fill="#000000" fill-opacity="1">32k</text>
  <path d="M 1098.9 9 L 1098.9 441" fill="none" stroke-width="0.75" stroke="#000000" stroke-opacity="0.49804" stroke-linecap="butt" stroke-linejoin="round"/>
  <text x="1090.4" y="453.7" font-family="Helvetica" font-size="10" font-weight="normal" font-style="normal" fill="#000000" fill-opacity="1">64k</text>
  <path d="M 1164.4 9 L 1164.4 441" fill="none" stroke-width="0.75" stroke="#000000" stroke-opacity="0.49804" stroke-linecap="butt" stroke-linejoin="round"/>
  <text x="1153.4" y="453.7" font-family="Helvetica" font-size="10" font-weight="normal" font-style="normal" fill="#000000" fill-opacity="1">128k</text>
  <path d="M 1230 9 L 1230 441" fill="none" stroke-width="0.75" stroke="#000000" stroke-opacity="0.49804" stroke-linecap="butt" stroke-linejoin="round"/>
  <text x="1219" y="453.7" font-family="Helvetica" font-size="10" font-weight="normal" font-style="normal" fill="#000000" fill-opacity="1">256k</text>
  <path d="M 50 441 L 1230 441" fill="none" stroke-width="0.75" stroke="#000000" stroke-opacity="0.49804" stroke-linecap="butt" stroke-linejoin="round"/>
  <text x="21" y="442.7" font-family="Helvetica" font-size="10" font-weight="normal" font-style="normal" fill="#000000" fill-opacity="1">10 ns</text>
  <text x="1236" y="442.7" font-family="Helvetica" font-size="10" font-weight="normal" font-style="normal" fill="#000000" fill-opacity="1">10 ns</text>
  <path d="M 50 333 L 1230 333" fill="none" stroke-width="0.75" stroke="#000000" stroke-opacity="0.49804" stroke-linecap="butt" stroke-linejoin="round"/>
  <text x="16" y="334.7" font-family="Helvetica" font-size="10" font-weight="normal" font-style="normal" fill="#000000" fill-opacity="1">100 ns</text>
  <text x="1236" y="334.7" font-family="Helvetica" font-size="10" font-weight="normal" font-style="normal" fill="#000000" fill-opacity="1">100 ns</text>
  <path d="M 50 225 L 1230 225" fill="none" stroke-width="0.75" stroke="#000000" stroke-opacity="0.49804" stroke-linecap="butt" stroke-linejoin="round"/>
  <text x="26" y="226.7" font-family="Helvetica" font-size="10" font-weight="normal" font-style="normal" fill="#000000" fill-opacity="1">1 µs</text>
  <text x="1236" y="226.7" font-family="Helvetica" font-size="10" font-weight="normal" font-style="normal" fill="#000000" fill-opacity="1">1 µs</text>
  <path d="M 50 117 L 1230 117" fill="none" stroke-width="0.75" stroke="#000000" stroke-opacity="0.49804" stroke-linecap="butt" stroke-linejoin="round"/>
  <text x="21" y="118.7" font-family="Helvetica" font-size="10" font-weight="normal" font-style="normal" fill="#000000" fill-opacity="1">10 µs</text>
  <text x="1236" y="118.7" font-family="Helvetica" font-size="10" font-weight="normal" font-style="normal" fill="#000000" fill-opacity="1">10 µs</text>
  <path d="M 50 9 L 1230 9" fill="none" stroke-width="0.75" stroke="#000000" stroke-opacity="0.49804" stroke-linecap="butt" stroke-linejoin="round"/>
  <text x="15" y="10.7" font-family="Helvetica" font-size="10" font-weight="normal" font-style="normal" fill="#000000" fill-opacity="1">100 µs</text>
  <text x="1236" y="10.7" font-family="Helvetica" font-size="10" font-weight="normal" font-style="normal" fill="#000000" fill-opacity="1">100 µs</text>
  <path d="M 50 408.49 L 1230 408.49" fill="none" stroke-width="0.5" stroke="#000000" stroke-opacity="0.25882" stroke-linecap="butt" stroke-linejoin="round" stroke-dasharray="6 3" stroke-dashoffset="0"/>
  <path d="M 50 375.98 L 1230 375.98" fill="none" stroke-width="0.5" stroke="#000000" stroke-opacity="0.25882" stroke-linecap="butt" stroke-linejoin="round" stroke-dasharray="6 3" stroke-dashoffset="0"/>
  <path d="M 50 343.47 L 1230 343.47" fill="none" stroke-width="0.5" stroke="#000000" stroke-opacity="0.25882" stroke-linecap="butt" stroke-linejoin="round" stroke-dasharray="6 3" stroke-dashoffset="0"/>
  <path d="M 50 310.96 L 1230 310.96" fill="none" stroke-width="0.5" stroke="#000000" stroke-opacity="0.25882" stroke-linecap="butt" stroke-linejoin="round" stroke-dasharray="6 3" stroke-dashoffset="0"/>
  <path d="M 50 278.44 L 1230 278.44" fill="none" stroke-width="0.5" stroke="#000000" stroke-opacity="0.25882" stroke-linecap="butt" stroke-linejoin="round" stroke-dasharray="6 3" stroke-dashoffset="0"/>
  <path d="M 50 245.93 L 1230 245.93" fill="none" stroke-width="0.5" stroke="#000000" stroke-opacity="0.25882" stroke-linecap="butt" stroke-linejoin="round" stroke-dasharray="6 3" stroke-dashoffset="0"/>
  <path d="M 50 213.42 L 1230 213.42" fill="none" stroke-width="0.5" stroke="#000000" stroke-opacity="0.25882" stroke-linecap="butt" stroke-linejoin="round" stroke-dasharray="6 3" stroke-dashoffset="0"/>
  <path d="M 50 180.91 L 1230 180.91" fill="none" stroke-width="0.5" stroke="#000000" stroke-opacity="0.25882" stroke-linecap="butt" stroke-linejoin="round" stroke-dasharray="6 3" stroke-dashoffset="0"/>
  <path d="M 50 148.4 L 1230 148.4" fill="none" stroke-width="0.5" stroke="#000000" stroke-opacity="0.25882" stroke-linecap="butt" stroke-linejoin="round" stroke-dasharray="6 3" stroke-dashoffset="0"/>
  <path d="M 50 115.89 L 1230 115.89" fill="none" stroke-width="0.5" stroke="#000000" stroke-opacity="0.25882" stroke-linecap="butt" stroke-linejoin="round" stroke-dasharray="6 3" stroke-dashoffset="0"/>
  <path d="M 50 83.376 L 1230 83.376" fill="none" stroke-width="0.5" stroke="#000000" stroke-opacity="0.25882" stroke-linecap="butt" stroke-linejoin="round" stroke-dasharray="6 3" stroke-dashoffset="0"/>
  <path d="M 50 50.865 L 1230 50.865" fill="none" stroke-width="0.5" stroke="#000000" stroke-opacity="0.25882" stroke-linecap="butt" stroke-linejoin="round" stroke-dasharray="6 3" stroke-dashoffset="0"/>
  <path d="M 50 18.354 L 1230 18.354" fill="none" stroke-width="0.5" stroke="#000000" stroke-opacity="0.25882" stroke-linecap="butt" stroke-linejoin="round" stroke-dasharray="6 3" stroke-dashoffset="0"/>
  <path d="M 74 33 L 74 88 L 290 88 L 290 33 z" fill="#FFFFFF" fill-opacity="1.0" stroke="none"/>
  <clipPath id="clip-0">
    <path d="M 50 9 L 50 441 L 1230 441 L 1230 9 z"/>
  </clipPath>
  <g clip-path="url(#clip-0)">
    <path d="M 50 305L 115.56 323.96L 153.9 333.92L 181.11 338.76L 202.22 340.03L 219.46 341.67L 234.04 330.82L 246.67 333.47L 267.77 334.51L 285.01 335.65L 299.59 336.94L 312.22 332.77L 333.33 333L 350.57 333.09L 365.15 335.28L 377.78 333.59L 398.88 331.84L 416.13 332.15L 430.7 332.5L 443.33 332.53L 464.44 331.24L 481.68 331.68L 496.26 330.06L 508.89 330.32L 529.99 329.17L 547.24 328.25L 561.82 328.13L 574.44 327.87L 595.55 326.99L 612.79 329.36L 627.37 325.16L 640 328.21L 661.1 323.55L 678.35 323L 692.93 321.5L 705.56 323.54L 726.66 319.37L 743.9 318.36L 758.48 316.45L 771.11 317.21L 792.22 316.39L 809.46 320.03L 824.04 315.67L 836.67 314.48L 857.77 313.46L 875.01 312.55L 889.59 312.42L 902.22 312.06L 923.33 308.22L 940.57 308.76L 955.15 310L 967.78 309.59L 988.88 308.38L 1006.1 306.27L 1020.7 307.34L 1033.3 306.95L 1054.4 304.12L 1071.7 307.03L 1071.7 307.03L 1054.4 304.12L 1033.3 306.95L 1020.7 307.34L 1006.1 306.27L 988.88 308.38L 967.78 309.59L 955.15 310L 940.57 308.76L 923.33 308.22L 902.22 312.06L 889.59 312.42L 875.01 312.55L 857.77 313.46L 836.67 314.48L 824.04 315.67L 809.46 320.03L 792.22 316.39L 771.11 317.21L 758.48 316.45L 743.9 318.36L 726.66 319.37L 705.56 323.54L 692.93 321.5L 678.35 323L 661.1 323.55L 640 328.21L 627.37 325.16L 612.79 329.36L 595.55 326.99L 574.44 327.87L 561.82 328.13L 547.24 328.25L 529.99 329.17L 508.89 330.32L 496.26 330.06L 481.68 331.68L 464.44 331.24L 443.33 332.53L 430.7 332.5L 416.13 332.15L 398.88 331.84L 377.78 333.59L 365.15 335.28L 350.57 333.09L 333.33 333L 312.22 332.77L 299.59 336.94L 285.01 335.65L 267.77 334.51L 246.67 333.47L 234.04 330.82L 219.46 341.67L 202.22 340.03L 181.11 338.76L 153.9 333.92L 115.56 323.96L 50 305" fill="#007AFF" fill-opacity="0.30196078431372547" stroke="none"/>
    <path d="M 50 353.83L 115.56 381.72L 153.9 373.92L 181.11 385.41L 202.22 378.65L 219.46 387.04L 234.04 390.59L 246.67 396.78L 267.77 396.42L 285.01 402.56L 299.59 408.64L 312.22 413.85L 333.33 408.9L 350.57 413.63L 365.15 419.46L 377.78 423.04L 398.88 422.36L 416.13 423.79L 430.7 428.13L 443.33 429.14L 464.44 428.77L 481.68 431.46L 496.26 431.03L 508.89 429.7L 529.99 413.5L 547.24 421.45L 561.82 418.25L 574.44 414.38L 595.55 390.55L 612.79 400.37L 627.37 388.65L 640 387.51L 661.1 373.53L 678.35 364.73L 692.93 358.55L 705.56 357.04L 726.66 345.59L 743.9 338.92L 758.48 330.72L 771.11 324.6L 792.22 315.52L 809.46 307.5L 824.04 298.77L 836.67 294.17L 857.77 284.29L 875.01 275.62L 889.59 267.98L 902.22 261.26L 923.33 251.23L 940.57 242.58L 955.15 230.5L 967.78 227.45L 988.88 213.88L 1006.1 200.64L 1020.7 193L 1033.3 185.27L 1054.4 171.94L 1071.7 162.17L 1086.3 156.2L 1098.9 149.42L 1120 139.21L 1137.2 129.84L 1151.8 122.36L 1164.4 115.7L 1185.5 106.8L 1185.5 106.8L 1164.4 117.04L 1151.8 123.79L 1137.2 131.08L 1120 139.66L 1098.9 150.25L 1086.3 156.83L 1071.7 163.65L 1054.4 174.01L 1033.3 185.48L 1020.7 193.05L 1006.1 201.87L 988.88 213.93L 967.78 229.4L 955.15 235.69L 940.57 242.81L 923.33 251.7L 902.22 262.24L 889.59 268.4L 875.01 275.81L 857.77 284.3L 836.67 294.65L 824.04 300.7L 809.46 307.82L 792.22 317.05L 771.11 327.25L 758.48 334.24L 743.9 340.02L 726.66 350.38L 705.56 358.65L 692.93 360.17L 678.35 368.38L 661.1 380.26L 640 389.92L 627.37 394.95L 612.79 400.42L 595.55 407.48L 574.44 414.7L 561.82 418.62L 547.24 422.62L 529.99 427.87L 508.89 430.3L 496.26 431.35L 481.68 431.69L 464.44 431.28L 443.33 433.56L 430.7 429.1L 416.13 428.62L 398.88 422.8L 377.78 424.66L 365.15 421.89L 350.57 417.43L 333.33 411.52L 312.22 413.85L 299.59 408.91L 285.01 403.26L 267.77 396.71L 246.67 396.96L 234.04 394.79L 219.46 387.04L 202.22 380.06L 181.11 385.42L 153.9 374.22L 115.56 382.24L 50 354.43" fill="#FF3B30" fill-opacity="0.30196078431372547" stroke="none"/>
    <path d="M 50 305L 115.56 323.96L 153.9 333.92L 181.11 338.76L 202.22 340.03L 219.46 341.67L 234.04 330.82L 246.67 333.47L 267.77 334.51L 285.01 335.65L 299.59 336.94L 312.22 332.77L 333.33 333L 350.57 333.09L 365.15 335.28L 377.78 333.59L 398.88 331.84L 416.13 332.15L 430.7 332.5L 443.33 332.53L 464.44 331.24L 481.68 331.68L 496.26 330.06L 508.89 330.32L 529.99 329.17L 547.24 328.25L 561.82 328.13L 574.44 327.87L 595.55 326.99L 612.79 329.36L 627.37 325.16L 640 328.21L 661.1 323.55L 678.35 323L 692.93 321.5L 705.56 323.54L 726.66 319.37L 743.9 318.36L 758.48 316.45L 771.11 317.21L 792.22 316.39L 809.46 320.03L 824.04 315.67L 836.67 314.48L 857.77 313.46L 875.01 312.55L 889.59 312.42L 902.22 312.06L 923.33 308.22L 940.57 308.76L 955.15 310L 967.78 309.59L 988.88 308.38L 1006.1 306.27L 1020.7 307.34L 1033.3 306.95L 1054.4 304.12L 1071.7 307.03" fill="none" stroke-width="4" stroke="#007AFF" stroke-opacity="1" stroke-linecap="round" stroke-linejoin="round"/>
    <path d="M 50 354.27L 115.56 382.1L 153.9 374.14L 181.11 385.42L 202.22 379.69L 219.46 387.04L 234.04 393.65L 246.67 396.91L 267.77 396.64L 285.01 403.07L 299.59 408.84L 312.22 413.85L 333.33 410.82L 350.57 416.41L 365.15 421.24L 377.78 424.23L 398.88 422.69L 416.13 427.31L 430.7 428.85L 443.33 432.36L 464.44 430.61L 481.68 431.63L 496.26 431.27L 508.89 430.14L 529.99 423.67L 547.24 422.31L 561.82 418.52L 574.44 414.61L 595.55 402.44L 612.79 400.4L 627.37 393.22L 640 389.27L 661.1 378.41L 678.35 367.4L 692.93 359.74L 705.56 358.22L 726.66 349.08L 743.9 339.73L 758.48 333.3L 771.11 326.54L 792.22 316.64L 809.46 307.74L 824.04 300.19L 836.67 294.52L 857.77 284.3L 875.01 275.76L 889.59 268.29L 902.22 261.98L 923.33 251.57L 940.57 242.75L 955.15 234.28L 967.78 228.88L 988.88 213.92L 1006.1 201.55L 1020.7 193.03L 1033.3 185.42L 1054.4 173.46L 1071.7 163.26L 1086.3 156.67L 1098.9 150.03L 1120 139.54L 1137.2 130.75L 1151.8 123.41L 1164.4 116.68L 1185.5 106.8" fill="none" stroke-width="4" stroke="#FF3B30" stroke-opacity="1" stroke-linecap="round" stroke-linejoin="round"/>
    <path d="M 50 305L 115.56 323.96L 153.9 333.92L 181.11 338.76L 202.22 340.03L 219.46 341.67L 234.04 330.82L 246.67 333.47L 267.77 334.51L 285.01 335.65L 299.59 336.94L 312.22 332.77L 333.33 333L 350.57 333.09L 365.15 335.28L 377.78 333.59L 398.88 331.84L 416.13 332.15L 430.7 332.5L 443.33 332.53L 464.44 331.24L 481.68 331.68L 496.26 330.06L 508.89 330.32L 529.99 329.17L 547.24 328.25L 561.82 328.13L 574.44 327.87L 595.55 326.99L 612.79 329.36L 627.37 325.16L 640 328.21L 661.1 323.55L 678.35 323L 692.93 321.5L 705.56 323.54L 726.66 319.37L 743.9 318.36L 758.48 316.45L 771.11 317.21L 792.22 316.39L 809.46 320.03L 824.04 315.67L 836.67 314.48L 857.77 313.46L 875.01 312.55L 889.59 312.42L 902.22 312.06L 923.33 308.22L 940.57 308.76L 955.15 310L 967.78 309.59L 988.88 308.38L 1006.1 306.27L 1020.7 307.34L 1033.3 306.95L 1054.4 304.12L 1071.7 307.03" fill="none" stroke-width="0.5" stroke="#000000" stroke-opacity="0.30196" stroke-linecap="round" stroke-linejoin="round"/>
    <path d="M 50 354.27L 115.56 382.1L 153.9 374.14L 181.11 385.42L 202.22 379.69L 219.46 387.04L 234.04 393.65L 246.67 396.91L 267.77 396.64L 285.01 403.07L 299.59 408.84L 312.22 413.85L 333.33 410.82L 350.57 416.41L 365.15 421.24L 377.78 424.23L 398.88 422.69L 416.13 427.31L 430.7 428.85L 443.33 432.36L 464.44 430.61L 481.68 431.63L 496.26 431.27L 508.89 430.14L 529.99 423.67L 547.24 422.31L 561.82 418.52L 574.44 414.61L 595.55 402.44L 612.79 400.4L 627.37 393.22L 640 389.27L 661.1 378.41L 678.35 367.4L 692.93 359.74L 705.56 358.22L 726.66 349.08L 743.9 339.73L 758.48 333.3L 771.11 326.54L 792.22 316.64L 809.46 307.74L 824.04 300.19L 836.67 294.52L 857.77 284.3L 875.01 275.76L 889.59 268.29L 902.22 261.98L 923.33 251.57L 940.57 242.75L 955.15 234.28L 967.78 228.88L 988.88 213.92L 1006.1 201.55L 1020.7 193.03L 1033.3 185.42L 1054.4 173.46L 1071.7 163.26L 1086.3 156.67L 1098.9 150.03L 1120 139.54L 1137.2 130.75L 1151.8 123.41L 1164.4 116.68L 1185.5 106.8" fill="none" stroke-width="0.5" stroke="#000000" stroke-opacity="0.30196" stroke-linecap="round" stroke-linejoin="round"/>
  </g>
  <path d="M 74 33 L 74 88 L 290 88 L 290 33 z" fill="#FFFFFF" fill-opacity="0.7019607843137254" stroke-width="0.5" stroke="#000000" stroke-opacity="1" stroke-linecap="round" stroke-linejoin="round"/>
  <path d="M 88 52 L 108 52" fill="none" stroke-width="4" stroke="#FF3B30" stroke-opacity="1" stroke-linecap="round" stroke-linejoin="round"/>
  <path d="M 88 52 L 108 52" fill="none" stroke-width="0.5" stroke="#000000" stroke-opacity="0.30196" stroke-linecap="round" stroke-linejoin="round"/>
  <text x="119" y="56.17" font-family="Menlo" font-size="12" font-weight="normal" font-style="normal" fill="#000000" fill-opacity="1">Array&lt;Int&gt; prepend</text>
  <path d="M 88 69 L 108 69" fill="none" stroke-width="4" stroke="#007AFF" stroke-opacity="1" stroke-linecap="round" stroke-linejoin="round"/>
  <path d="M 88 69 L 108 69" fill="none" stroke-width="0.5" stroke="#000000" stroke-opacity="0.30196" stroke-linecap="round" stroke-linejoin="round"/>
  <text x="119" y="73.17" font-family="Menlo" font-size="12" font-weight="normal" font-style="normal" fill="#000000" fill-opacity="1">TreeArray&lt;Int&gt; prepend</text>
  <path d="M 50 9 L 50 441 L 1230 441 L 1230 9 z" fill="none" stroke-width="0.5" stroke="#000000" stroke-opacity="1" stroke-linecap="round" stroke-linejoin="round"/>
</svg>
