<!DOCTYPE svg PUBLIC "-//W3C//DTD SVG 1.1//EN" "http://www.w3.org/Graphics/SVG/1.1/DTD/svg11.dtd">
<svg width="1280.0px" height="480.0px" viewBox="0.0 0.0 1280.0 480.0" xmlns="http://www.w3.org/2000/svg" xmlns:xlink="http://www.w3.org/1999/xlink" version="1.1">
  <path d="M 0 0 L 0 480 L 1280 480 L 1280 0 z" fill="#FFFFFF" fill-opacity="1.0" stroke="none"/>
  <text x="50" y="468.7" font-family="Helvetica" font-size="10" font-weight="normal" font-style="normal" fill="#000000" fill-opacity="1">Average per-element processing time over input size (bands: min, mean, mean + 2stddev)</text>
  <a xlink:href="https://github.com/apple/swift-collections-benchmark"><text x="1107" y="468.7" font-family="Helvetica" font-size="10" font-weight="normal" font-style="normal" fill="#000000" fill-opacity="1">swift-collections-benchmark</text></a>
  <path d="M 50 9 L 50 441" fill="none" stroke-width="0.75" stroke="#000000" stroke-opacity="0.49804" stroke-linecap="butt" stroke-linejoin="round"/>
  <text x="47" y="453.7" font-family="Helvetica" font-size="10" font-weight="normal" font-style="normal" fill="#000000" fill-opacity="1">1</text>
  <path d="M 109 9 L 109 441" fill="none" stroke-width="0.75" stroke="#000000" stroke-opacity="0.49804" stroke-linecap="butt" stroke-linejoin="round"/>
  <text x="106" y="453.7" font-family="Helvetica" font-size="10" font-weight="normal" font-style="normal" fill="#000000" fill-opacity="1">2</text>
  <path d="M 168 9 L 168 441" fill="none" stroke-width="0.75" stroke="#000000" stroke-opacity="0.49804" stroke-linecap="butt" stroke-linejoin="round"/>
  <text x="165" y="453.7" font-family="Helvetica" font-size="10" font-weight="normal" font-style="normal" fill="#000000" fill-opacity="1">4</text>
  <path d="M 227 9 L 227 441" fill="none" stroke-width="0.75" stroke="#000000" stroke-opacity="0.49804" stroke-linecap="butt" stroke-linejoin="round"/>
  <text x="224" y="453.7" font-family="Helvetica" font-size="10" font-weight="normal" font-style="normal" fill="#000000" fill-opacity="1">8</text>
  <path d="M 286 9 L 286 441" fill="none" stroke-width="0.75" stroke="#000000" stroke-opacity="0.49804" stroke-linecap="butt" stroke-linejoin="round"/>
  <text x="280" y="453.7" font-family="Helvetica" font-size="10" font-weight="normal" font-style="normal" fill="#000000" fill-opacity="1">16</text>
  <path d="M 345 9 L 345 441" fill="none" stroke-width="0.75" stroke="#000000" stroke-opacity="0.49804" stroke-linecap="butt" stroke-linejoin="round"/>
  <text x="339" y="453.7" font-family="Helvetica" font-size="10" font-weight="normal" font-style="normal" fill="#000000" fill-opacity="1">32</text>
  <path d="M 404 9 L 404 441" fill="none" stroke-width="0.75" stroke="#000000" stroke-opacity="0.49804" stroke-linecap="butt" stroke-linejoin="round"/>
  <text x="398" y="453.7" font-family="Helvetica" font-size="10" font-weight="normal" font-style="normal" fill="#000000" fill-opacity="1">64</text>
  <path d="M 463 9 L 463 441" fill="none" stroke-width="0.75" stroke="#000000" stroke-opacity="0.49804" stroke-linecap="butt" stroke-linejoin="round"/>
  <text x="454.5" y="453.7" font-family="Helvetica" font-size="10" font-weight="normal" font-style="normal" fill="#000000" fill-opacity="1">128</text>
  <path d="M 522 9 L 522 441" fill="none" stroke-width="0.75" stroke="#000000" stroke-opacity="0.49804" stroke-linecap="butt" stroke-linejoin="round"/>
  <text x="513.5" y="453.7" font-family="Helvetica" font-size="10" font-weight="normal" font-style="normal" fill="#000000" fill-opacity="1">256</text>
  <path d="M 581 9 L 581 441" fill="none" stroke-width="0.75" stroke="#000000" stroke-opacity="0.49804" stroke-linecap="butt" stroke-linejoin="round"/>
  <text x="572.5" y="453.7" font-family="Helvetica" font-size="10" font-weight="normal" font-style="normal" fill="#000000" fill-opacity="1">512</text>
  <path d="M 640 9 L 640 441" fill="none" stroke-width="0.75" stroke="#000000" stroke-opacity="0.49804" stroke-linecap="butt" stroke-linejoin="round"/>
  <text x="634.5" y="453.7" font-family="Helvetica" font-size="10" font-weight="normal" font-style="normal" fill="#000000" fill-opacity="1">1k</text>
  <path d="M 699 9 L 699 441" fill="none" stroke-width="0.75" stroke="#000000" stroke-opacity="0.49804" stroke-linecap="butt" stroke-linejoin="round"/>
  <text x="693.5" y="453.7" font-family="Helvetica" font-size="10" font-weight="normal" font-style="normal" fill="#000000" fill-opacity="1">2k</text>
  <path d="M 758 9 L 758 441" fill="none" stroke-width="0.75" stroke="#000000" stroke-opacity="0.49804" stroke-linecap="butt" stroke-linejoin="round"/>
  <text x="752.5" y="453.7" font-family="Helvetica" font-size="10" font-weight="normal" font-style="normal" fill="#000000" fill-opacity="1">4k</text>
  <path d="M 817 9 L 817 441" fill="none" stroke-width="0.75" stroke="#000000" stroke-opacity="0.49804" stroke-linecap="butt" stroke-linejoin="round"/>
  <text x="811.5" y="453.7" font-family="Helvetica" font-size="10" font-weight="normal" font-style="normal" fill="#000000" fill-opacity="1">8k</text>
  <path d="M 876 9 L 876 441" fill="none" stroke-width="0.75" stroke="#000000" stroke-opacity="0.49804" stroke-linecap="butt" stroke-linejoin="round"/>
  <text x="867.5" y="453.7" font-family="Helvetica" font-size="10" font-weight="normal" font-style="normal" fill="#000000" fill-opacity="1">16k</text>
  <path d="M 935 9 L 935 441" fill="none" stroke-width="0.75" stroke="#000000" stroke-opacity="0.49804" stroke-linecap="butt" stroke-linejoin="round"/>
  <text x="926.5" y="453.7" font-family="Helvetica" font-size="10" font-weight="normal" font-style="normal" fill="#000000" fill-opacity="1">32k</text>
  <path d="M 994 9 L 994 441" fill="none" stroke-width="0.75" stroke="#000000" stroke-opacity="0.49804" stroke-linecap="butt" stroke-linejoin="round"/>
  <text x="985.5" y="453.7" font-family="Helvetica" font-size="10" font-weight="normal" font-style="normal" fill="#000000" fill-opacity="1">64k</text>
  <path d="M 1053 9 L 1053 441" fill="none" stroke-width="0.75" stroke="#000000" stroke-opacity="0.49804" stroke-linecap="butt" stroke-linejoin="round"/>
  <text x="1042" y="453.7" font-family="Helvetica" font-size="10" font-weight="normal" font-style="normal" fill="#000000" fill-opacity="1">128k</text>
  <path d="M 1112 9 L 1112 441" fill="none" stroke-width="0.75" stroke="#000000" stroke-opacity="0.49804" stroke-linecap="butt" stroke-linejoin="round"/>
  <text x="1101" y="453.7" font-family="Helvetica" font-size="10" font-weight="normal" font-style="normal" fill="#000000" fill-opacity="1">256k</text>
  <path d="M 1171 9 L 1171 441" fill="none" stroke-width="0.75" stroke="#000000" stroke-opacity="0.49804" stroke-linecap="butt" stroke-linejoin="round"/>
  <text x="1160" y="453.7" font-family="Helvetica" font-size="10" font-weight="normal" font-style="normal" fill="#000000" fill-opacity="1">512k</text>
  <path d="M 1230 9 L 1230 441" fill="none" stroke-width="0.75" stroke="#000000" stroke-opacity="0.49804" stroke-linecap="butt" stroke-linejoin="round"/>
  <text x="1223" y="453.7" font-family="Helvetica" font-size="10" font-weight="normal" font-style="normal" fill="#000000" fill-opacity="1">1M</text>
  <path d="M 50 441 L 1230 441" fill="none" stroke-width="0.75" stroke="#000000" stroke-opacity="0.49804" stroke-linecap="butt" stroke-linejoin="round"/>
  <text x="27" y="442.7" font-family="Helvetica" font-size="10" font-weight="normal" font-style="normal" fill="#000000" fill-opacity="1">1 ns</text>
  <text x="1236" y="442.7" font-family="Helvetica" font-size="10" font-weight="normal" font-style="normal" fill="#000000" fill-opacity="1">1 ns</text>
  <path d="M 50 354.6 L 1230 354.6" fill="none" stroke-width="0.75" stroke="#000000" stroke-opacity="0.49804" stroke-linecap="butt" stroke-linejoin="round"/>
  <text x="21" y="356.3" font-family="Helvetica" font-size="10" font-weight="normal" font-style="normal" fill="#000000" fill-opacity="1">10 ns</text>
  <text x="1236" y="356.3" font-family="Helvetica" font-size="10" font-weight="normal" font-style="normal" fill="#000000" fill-opacity="1">10 ns</text>
  <path d="M 50 268.2 L 1230 268.2" fill="none" stroke-width="0.75" stroke="#000000" stroke-opacity="0.49804" stroke-linecap="butt" stroke-linejoin="round"/>
  <text x="16" y="269.9" font-family="Helvetica" font-size="10" font-weight="normal" font-style="normal" fill="#000000" fill-opacity="1">100 ns</text>
  <text x="1236" y="269.9" font-family="Helvetica" font-size="10" font-weight="normal" font-style="normal" fill="#000000" fill-opacity="1">100 ns</text>
  <path d="M 50 181.8 L 1230 181.8" fill="none" stroke-width="0.75" stroke="#000000" stroke-opacity="0.49804" stroke-linecap="butt" stroke-linejoin="round"/>
  <text x="26" y="183.5" font-family="Helvetica" font-size="10" font-weight="normal" font-style="normal" fill="#000000" fill-opacity="1">1 µs</text>
  <text x="1236" y="183.5" font-family="Helvetica" font-size="10" font-weight="normal" font-style="normal" fill="#000000" fill-opacity="1">1 µs</text>
  <path d="M 50 95.4 L 1230 95.4" fill="none" stroke-width="0.75" stroke="#000000" stroke-opacity="0.49804" stroke-linecap="butt" stroke-linejoin="round"/>
  <text x="21" y="97.1" font-family="Helvetica" font-size="10" font-weight="normal" font-style="normal" fill="#000000" fill-opacity="1">10 µs</text>
  <text x="1236" y="97.1" font-family="Helvetica" font-size="10" font-weight="normal" font-style="normal" fill="#000000" fill-opacity="1">10 µs</text>
  <path d="M 50 9 L 1230 9" fill="none" stroke-width="0.75" stroke="#000000" stroke-opacity="0.49804" stroke-linecap="butt" stroke-linejoin="round"/>
  <text x="15" y="10.7" font-family="Helvetica" font-size="10" font-weight="normal" font-style="normal" fill="#000000" fill-opacity="1">100 µs</text>
  <text x="1236" y="10.7" font-family="Helvetica" font-size="10" font-weight="normal" font-style="normal" fill="#000000" fill-opacity="1">100 µs</text>
  <path d="M 50 414.99 L 1230 414.99" fill="none" stroke-width="0.5" stroke="#000000" stroke-opacity="0.25882" stroke-linecap="butt" stroke-linejoin="round" stroke-dasharray="6 3" stroke-dashoffset="0"/>
  <path d="M 50 388.98 L 1230 388.98" fill="none" stroke-width="0.5" stroke="#000000" stroke-opacity="0.25882" stroke-linecap="butt" stroke-linejoin="round" stroke-dasharray="6 3" stroke-dashoffset="0"/>
  <path d="M 50 362.97 L 1230 362.97" fill="none" stroke-width="0.5" stroke="#000000" stroke-opacity="0.25882" stroke-linecap="butt" stroke-linejoin="round" stroke-dasharray="6 3" stroke-dashoffset="0"/>
  <path d="M 50 336.96 L 1230 336.96" fill="none" stroke-width="0.5" stroke="#000000" stroke-opacity="0.25882" stroke-linecap="butt" stroke-linejoin="round" stroke-dasharray="6 3" stroke-dashoffset="0"/>
  <path d="M 50 310.96 L 1230 310.96" fill="none" stroke-width="0.5" stroke="#000000" stroke-opacity="0.25882" stroke-linecap="butt" stroke-linejoin="round" stroke-dasharray="6 3" stroke-dashoffset="0"/>
  <path d="M 50 284.95 L 1230 284.95" fill="none" stroke-width="0.5" stroke="#000000" stroke-opacity="0.25882" stroke-linecap="butt" stroke-linejoin="round" stroke-dasharray="6 3" stroke-dashoffset="0"/>
  <path d="M 50 258.94 L 1230 258.94" fill="none" stroke-width="0.5" stroke="#000000" stroke-opacity="0.25882" stroke-linecap="butt" stroke-linejoin="round" stroke-dasharray="6 3" stroke-dashoffset="0"/>
  <path d="M 50 232.93 L 1230 232.93" fill="none" stroke-width="0.5" stroke="#000000" stroke-opacity="0.25882" stroke-linecap="butt" stroke-linejoin="round" stroke-dasharray="6 3" stroke-dashoffset="0"/>
  <path d="M 50 206.92 L 1230 206.92" fill="none" stroke-width="0.5" stroke="#000000" stroke-opacity="0.25882" stroke-linecap="butt" stroke-linejoin="round" stroke-dasharray="6 3" stroke-dashoffset="0"/>
  <path d="M 50 180.91 L 1230 180.91" fill="none" stroke-width="0.5" stroke="#000000" stroke-opacity="0.25882" stroke-linecap="butt" stroke-linejoin="round" stroke-dasharray="6 3" stroke-dashoffset="0"/>
  <path d="M 50 154.9 L 1230 154.9" fill="none" stroke-width="0.5" stroke="#000000" stroke-opacity="0.25882" stroke-linecap="butt" stroke-linejoin="round" stroke-dasharray="6 3" stroke-dashoffset="0"/>
  <path d="M 50 128.89 L 1230 128.89" fill="none" stroke-width="0.5" stroke="#000000" stroke-opacity="0.25882" stroke-linecap="butt" stroke-linejoin="round" stroke-dasharray="6 3" stroke-dashoffset="0"/>
  <path d="M 50 102.88 L 1230 102.88" fill="none" stroke-width="0.5" stroke="#000000" stroke-opacity="0.25882" stroke-linecap="butt" stroke-linejoin="round" stroke-dasharray="6 3" stroke-dashoffset="0"/>
  <path d="M 50 76.874 L 1230 76.874" fill="none" stroke-width="0.5" stroke="#000000" stroke-opacity="0.25882" stroke-linecap="butt" stroke-linejoin="round" stroke-dasharray="6 3" stroke-dashoffset="0"/>
  <path d="M 50 50.865 L 1230 50.865" fill="none" stroke-width="0.5" stroke="#000000" stroke-opacity="0.25882" stroke-linecap="butt" stroke-linejoin="round" stroke-dasharray="6 3" stroke-dashoffset="0"/>
  <path d="M 50 24.856 L 1230 24.856" fill="none" stroke-width="0.5" stroke="#000000" stroke-opacity="0.25882" stroke-linecap="butt" stroke-linejoin="round" stroke-dasharray="6 3" stroke-dashoffset="0"/>
  <path d="M 74 33 L 74 105 L 435 105 L 435 33 z" fill="#FFFFFF" fill-opacity="1.0" stroke="none"/>
  <clipPath id="clip-0">
    <path d="M 50 9 L 50 441 L 1230 441 L 1230 9 z"/>
  </clipPath>
  <g clip-path="url(#clip-0)">
    <path d="M 50 274.56L 109 298.16L 143.51 307.82L 168 321.5L 186.99 328.59L 202.51 333.61L 215.63 338.36L 227 341.95L 245.99 346.11L 261.51 348.99L 274.63 354.15L 286 354.8L 304.99 361.45L 320.51 362.22L 333.63 360.43L 345 363.99L 363.99 367.82L 379.51 369.61L 392.63 372.1L 404 373.56L 422.99 376.54L 438.51 377.89L 451.63 378.82L 463 382.44L 481.99 383.62L 497.51 384.45L 510.63 385L 522 385.45L 540.99 386.08L 556.51 386.52L 569.63 386.84L 581 387.05L 599.99 387.34L 615.51 387.61L 628.63 387.77L 640 387.87L 658.99 388.05L 674.51 388.16L 687.63 387.97L 699 388.3L 717.99 388.36L 733.51 388.44L 746.63 388.35L 758 388.25L 776.99 388.49L 792.51 388.05L 805.63 388.59L 817 388.54L 835.99 388.55L 851.51 388.05L 864.63 388.24L 876 388.62L 894.99 388.05L 910.51 388.52L 923.63 388.66L 935 388.64L 953.99 388.61L 969.51 388.68L 982.63 388.39L 994 388.59L 1013 387.86L 1028.5 387.97L 1041.6 388.6L 1053 388.67L 1072 387.07L 1087.5 385.36L 1100.6 385.15L 1112 384.9L 1131 384.94L 1146.5 384.67L 1159.6 382.6L 1171 383.94L 1190 385.06L 1205.5 382.89L 1218.6 384.97L 1230 388.43L 1230 388.6L 1218.6 385.16L 1205.5 385.04L 1190 385.15L 1171 386.05L 1159.6 385.17L 1146.5 385.15L 1131 386.36L 1112 385.18L 1100.6 385.44L 1087.5 385.55L 1072 388.7L 1053 388.7L 1041.6 388.69L 1028.5 388.7L 1013 388.67L 994 388.69L 982.63 388.7L 969.51 388.68L 953.99 388.63L 935 388.68L 923.63 388.67L 910.51 388.67L 894.99 388.61L 876 388.66L 864.63 388.65L 851.51 388.62L 835.99 388.58L 817 388.6L 805.63 388.6L 792.51 388.54L 776.99 388.49L 758 388.5L 746.63 388.47L 733.51 388.44L 717.99 388.39L 699 388.3L 687.63 388.24L 674.51 388.16L 658.99 388.05L 640 387.88L 628.63 387.77L 615.51 387.61L 599.99 387.45L 581 387.06L 569.63 386.84L 556.51 386.52L 540.99 386.1L 522 385.49L 510.63 385.03L 497.51 384.45L 481.99 383.66L 463 382.49L 451.63 379.99L 438.51 378.24L 422.99 376.54L 404 374.74L 392.63 373.05L 379.51 371.62L 363.99 367.82L 345 364.11L 333.63 363.01L 320.51 368.21L 304.99 361.63L 286 357.13L 274.63 354.16L 261.51 353.07L 245.99 346.35L 227 341.95L 215.63 338.36L 202.51 333.9L 186.99 328.59L 168 321.82L 143.51 316.41L 109 298.16L 50 274.85" fill="#28CD41" fill-opacity="0.30196078431372547" stroke="none"/>
    <path d="M 50 243.14L 109 258.08L 143.51 264.49L 168 267.48L 186.99 269.54L 202.51 270.25L 215.63 271.08L 227 258.58L 245.99 265.49L 261.51 266.7L 274.63 266.5L 286 267.42L 304.99 267.3L 320.51 268.23L 333.63 266.9L 345 267.99L 363.99 267.57L 379.51 266.72L 392.63 266.42L 404 265.81L 422.99 264.67L 438.51 263.44L 451.63 263.61L 463 264.32L 481.99 261L 497.51 260.88L 510.63 262.07L 522 258.27L 540.99 258.45L 556.51 259.57L 569.63 258.78L 581 258.38L 599.99 258.23L 615.51 256.8L 628.63 255.7L 640 257.11L 658.99 255.84L 674.51 253.62L 687.63 253.56L 699 252.98L 717.99 253.35L 733.51 251.87L 746.63 251.49L 758 250.8L 776.99 250.58L 792.51 248.65L 805.63 250.55L 817 247.16L 835.99 248.98L 851.51 249.05L 864.63 247.3L 876 247.83L 894.99 246.01L 910.51 246.52L 923.63 245.95L 935 245L 953.99 242.37L 969.51 244.79L 982.63 245.7L 994 243.57L 1013 243.78L 1028.5 242.72L 1041.6 243.44L 1053 242.26L 1072 239.28L 1087.5 239.77L 1100.6 241.42L 1112 241.15L 1131 240.35L 1146.5 240.61L 1159.6 239.44L 1171 237.23L 1190 239.34L 1205.5 236.07L 1218.6 237.06L 1230 236.21L 1230 237.6L 1218.6 237.21L 1205.5 238.97L 1190 239.54L 1171 239.43L 1159.6 239.47L 1146.5 241.01L 1131 241.11L 1112 241.39L 1100.6 242.32L 1087.5 242.61L 1072 243.23L 1053 242.44L 1041.6 243.94L 1028.5 242.86L 1013 244.95L 994 244.46L 982.63 246.44L 969.51 246.43L 953.99 246.21L 935 247.31L 923.63 246.1L 910.51 247.81L 894.99 248.75L 876 249.07L 864.63 249.16L 851.51 249.45L 835.99 250.97L 817 253.32L 805.63 251.69L 792.51 250.41L 776.99 251.58L 758 254.87L 746.63 253.02L 733.51 254.55L 717.99 254.44L 699 255.41L 687.63 255.02L 674.51 257.67L 658.99 256.61L 640 258.21L 628.63 257.42L 615.51 256.86L 599.99 258.33L 581 261.91L 569.63 260.02L 556.51 261.87L 540.99 262.21L 522 266.15L 510.63 266.27L 497.51 263.59L 481.99 264.66L 463 265.17L 451.63 264.33L 438.51 265.44L 422.99 265.28L 404 265.96L 392.63 266.94L 379.51 266.84L 363.99 268.02L 345 268.19L 333.63 270.62L 320.51 268.71L 304.99 269.23L 286 267.82L 274.63 267.56L 261.51 267.13L 245.99 266.97L 227 259.97L 215.63 271.13L 202.51 271.15L 186.99 269.6L 168 268.67L 143.51 266.72L 109 260.08L 50 246.85" fill="#007AFF" fill-opacity="0.30196078431372547" stroke="none"/>
    <path d="M 50 286.88L 109 311.1L 143.51 323.26L 168 331.86L 186.99 336.85L 202.51 341.44L 215.63 347.15L 227 350.18L 245.99 356.36L 261.51 360.38L 274.63 363.66L 286 366.99L 304.99 371.99L 320.51 374.06L 333.63 375.6L 345 367.75L 363.99 368.44L 379.51 369.44L 392.63 369.99L 404 369.95L 422.99 367.22L 438.51 346.73L 451.63 361.38L 463 329.22L 481.99 322.82L 497.51 349.18L 510.63 344.15L 522 327.43L 540.99 325.16L 556.51 326.15L 569.63 320.22L 581 316.18L 599.99 298.29L 615.51 300.49L 628.63 290.63L 640 288.47L 658.99 274.33L 674.51 269.62L 687.63 265.62L 699 262.87L 717.99 254.65L 733.51 247.84L 746.63 240.15L 758 238.02L 776.99 229.54L 792.51 222.61L 805.63 216.78L 817 211.73L 835.99 201.67L 851.51 195.51L 864.63 189.49L 876 183L 894.99 172.82L 910.51 163.64L 923.63 156.01L 935 149.97L 953.99 140.82L 969.51 133.4L 982.63 126.77L 994 121.1L 1013 112.88L 1028.5 105.92L 1041.6 99.698L 1053 95.359L 1072 86.23L 1072 87.243L 1053 95.653L 1041.6 100.69L 1028.5 106.44L 1013 113.45L 994 122.12L 982.63 127.48L 969.51 133.42L 953.99 141.05L 935 150.26L 923.63 156.33L 910.51 163.74L 894.99 173.32L 876 185.38L 864.63 190.38L 851.51 196.38L 835.99 203.28L 817 211.75L 805.63 216.81L 792.51 222.7L 776.99 229.56L 758 238.16L 746.63 241.85L 733.51 248.86L 717.99 254.69L 699 264.55L 687.63 267.9L 674.51 274.44L 658.99 281.11L 640 290.01L 628.63 295.68L 615.51 301.45L 599.99 307.99L 581 316.26L 569.63 320.89L 556.51 326.4L 540.99 331.43L 522 339.87L 510.63 344.22L 497.51 349.24L 481.99 354.61L 463 359.58L 451.63 361.86L 438.51 365.07L 422.99 367.43L 404 370.52L 392.63 370.24L 379.51 370.85L 363.99 371.13L 345 367.75L 333.63 375.6L 320.51 374.27L 304.99 371.99L 286 366.99L 274.63 363.93L 261.51 360.67L 245.99 356.36L 227 350.18L 215.63 347.5L 202.51 343.61L 186.99 338.77L 168 331.86L 143.51 323.26L 109 311.1L 50 287.37" fill="#FF3B30" fill-opacity="0.30196078431372547" stroke="none"/>
    <path d="M 50 274.78L 109 298.16L 143.51 313.97L 168 321.73L 186.99 328.59L 202.51 333.83L 215.63 338.36L 227 341.95L 245.99 346.29L 261.51 351.96L 274.63 354.16L 286 356.5L 304.99 361.58L 320.51 366.55L 333.63 362.32L 345 364.08L 363.99 367.82L 379.51 371.08L 392.63 372.8L 404 374.43L 422.99 376.54L 438.51 378.15L 451.63 379.68L 463 382.47L 481.99 383.65L 497.51 384.45L 510.63 385.03L 522 385.48L 540.99 386.1L 556.51 386.52L 569.63 386.84L 581 387.06L 599.99 387.42L 615.51 387.61L 628.63 387.77L 640 387.88L 658.99 388.05L 674.51 388.16L 687.63 388.17L 699 388.3L 717.99 388.38L 733.51 388.44L 746.63 388.44L 758 388.44L 776.99 388.49L 792.51 388.41L 805.63 388.59L 817 388.59L 835.99 388.57L 851.51 388.47L 864.63 388.54L 876 388.65L 894.99 388.47L 910.51 388.63L 923.63 388.67L 935 388.67L 953.99 388.63L 969.51 388.68L 982.63 388.62L 994 388.66L 1013 388.45L 1028.5 388.51L 1041.6 388.67L 1053 388.69L 1072 388.26L 1087.5 385.5L 1100.6 385.36L 1112 385.11L 1131 385.98L 1146.5 385.02L 1159.6 384.48L 1171 385.49L 1190 385.13L 1205.5 384.46L 1218.6 385.11L 1230 388.55" fill="none" stroke-width="4" stroke="#28CD41" stroke-opacity="1" stroke-linecap="round" stroke-linejoin="round"/>
    <path d="M 50 245.84L 109 259.55L 143.51 266.12L 168 268.36L 186.99 269.59L 202.51 270.91L 215.63 271.11L 227 259.6L 245.99 266.58L 261.51 267.02L 274.63 267.28L 286 267.71L 304.99 268.72L 320.51 268.59L 333.63 269.61L 345 268.13L 363.99 267.9L 379.51 266.81L 392.63 266.81L 404 265.92L 422.99 265.12L 438.51 264.9L 451.63 264.14L 463 264.95L 481.99 263.67L 497.51 262.86L 510.63 265.12L 522 263.92L 540.99 261.19L 556.51 261.25L 569.63 259.69L 581 260.96L 599.99 258.31L 615.51 256.84L 628.63 256.96L 640 257.92L 658.99 256.41L 674.51 256.57L 687.63 254.63L 699 254.76L 717.99 254.15L 733.51 253.83L 746.63 252.62L 758 253.76L 776.99 251.32L 792.51 249.94L 805.63 251.39L 817 251.61L 835.99 250.44L 851.51 249.34L 864.63 248.66L 876 248.75L 894.99 248.01L 910.51 247.47L 923.63 246.06L 935 246.69L 953.99 245.17L 969.51 246L 982.63 246.24L 994 244.22L 1013 244.64L 1028.5 242.82L 1041.6 243.81L 1053 242.39L 1072 242.15L 1087.5 241.85L 1100.6 242.09L 1112 241.32L 1131 240.91L 1146.5 240.9L 1159.6 239.46L 1171 238.84L 1190 239.49L 1205.5 238.19L 1218.6 237.17L 1230 237.23" fill="none" stroke-width="4" stroke="#007AFF" stroke-opacity="1" stroke-linecap="round" stroke-linejoin="round"/>
    <path d="M 50 287.24L 109 311.1L 143.51 323.26L 168 331.86L 186.99 338.25L 202.51 343.03L 215.63 347.41L 227 350.18L 245.99 356.36L 261.51 360.59L 274.63 363.86L 286 366.99L 304.99 371.99L 320.51 374.21L 333.63 375.6L 345 367.75L 363.99 370.41L 379.51 370.48L 392.63 370.17L 404 370.37L 422.99 367.37L 438.51 359.35L 451.63 361.74L 463 349.01L 481.99 343.4L 497.51 349.23L 510.63 344.2L 522 336.2L 540.99 329.69L 556.51 326.33L 569.63 320.71L 581 316.24L 599.99 305.2L 615.51 301.2L 628.63 294.29L 640 289.6L 658.99 279.22L 674.51 273.12L 687.63 267.29L 699 264.11L 717.99 254.68L 733.51 248.59L 746.63 241.4L 758 238.12L 776.99 229.56L 792.51 222.67L 805.63 216.81L 817 211.75L 835.99 202.85L 851.51 196.15L 864.63 190.14L 876 184.75L 894.99 173.19L 910.51 163.72L 923.63 156.24L 935 150.18L 953.99 140.99L 969.51 133.41L 982.63 127.3L 994 121.85L 1013 113.3L 1028.5 106.3L 1041.6 100.43L 1053 95.576L 1072 86.976" fill="none" stroke-width="4" stroke="#FF3B30" stroke-opacity="1" stroke-linecap="round" stroke-linejoin="round"/>
    <path d="M 50 274.78L 109 298.16L 143.51 313.97L 168 321.73L 186.99 328.59L 202.51 333.83L 215.63 338.36L 227 341.95L 245.99 346.29L 261.51 351.96L 274.63 354.16L 286 356.5L 304.99 361.58L 320.51 366.55L 333.63 362.32L 345 364.08L 363.99 367.82L 379.51 371.08L 392.63 372.8L 404 374.43L 422.99 376.54L 438.51 378.15L 451.63 379.68L 463 382.47L 481.99 383.65L 497.51 384.45L 510.63 385.03L 522 385.48L 540.99 386.1L 556.51 386.52L 569.63 386.84L 581 387.06L 599.99 387.42L 615.51 387.61L 628.63 387.77L 640 387.88L 658.99 388.05L 674.51 388.16L 687.63 388.17L 699 388.3L 717.99 388.38L 733.51 388.44L 746.63 388.44L 758 388.44L 776.99 388.49L 792.51 388.41L 805.63 388.59L 817 388.59L 835.99 388.57L 851.51 388.47L 864.63 388.54L 876 388.65L 894.99 388.47L 910.51 388.63L 923.63 388.67L 935 388.67L 953.99 388.63L 969.51 388.68L 982.63 388.62L 994 388.66L 1013 388.45L 1028.5 388.51L 1041.6 388.67L 1053 388.69L 1072 388.26L 1087.5 385.5L 1100.6 385.36L 1112 385.11L 1131 385.98L 1146.5 385.02L 1159.6 384.48L 1171 385.49L 1190 385.13L 1205.5 384.46L 1218.6 385.11L 1230 388.55" fill="none" stroke-width="0.5" stroke="#000000" stroke-opacity="0.30196" stroke-linecap="round" stroke-linejoin="round"/>
    <path d="M 50 245.84L 109 259.55L 143.51 266.12L 168 268.36L 186.99 269.59L 202.51 270.91L 215.63 271.11L 227 259.6L 245.99 266.58L 261.51 267.02L 274.63 267.28L 286 267.71L 304.99 268.72L 320.51 268.59L 333.63 269.61L 345 268.13L 363.99 267.9L 379.51 266.81L 392.63 266.81L 404 265.92L 422.99 265.12L 438.51 264.9L 451.63 264.14L 463 264.95L 481.99 263.67L 497.51 262.86L 510.63 265.12L 522 263.92L 540.99 261.19L 556.51 261.25L 569.63 259.69L 581 260.96L 599.99 258.31L 615.51 256.84L 628.63 256.96L 640 257.92L 658.99 256.41L 674.51 256.57L 687.63 254.63L 699 254.76L 717.99 254.15L 733.51 253.83L 746.63 252.62L 758 253.76L 776.99 251.32L 792.51 249.94L 805.63 251.39L 817 251.61L 835.99 250.44L 851.51 249.34L 864.63 248.66L 876 248.75L 894.99 248.01L 910.51 247.47L 923.63 246.06L 935 246.69L 953.99 245.17L 969.51 246L 982.63 246.24L 994 244.22L 1013 244.64L 1028.5 242.82L 1041.6 243.81L 1053 242.39L 1072 242.15L 1087.5 241.85L 1100.6 242.09L 1112 241.32L 1131 240.91L 1146.5 240.9L 1159.6 239.46L 1171 238.84L 1190 239.49L 1205.5 238.19L 1218.6 237.17L 1230 237.23" fill="none" stroke-width="0.5" stroke="#000000" stroke-opacity="0.30196" stroke-linecap="round" stroke-linejoin="round"/>
    <path d="M 50 287.24L 109 311.1L 143.51 323.26L 168 331.86L 186.99 338.25L 202.51 343.03L 215.63 347.41L 227 350.18L 245.99 356.36L 261.51 360.59L 274.63 363.86L 286 366.99L 304.99 371.99L 320.51 374.21L 333.63 375.6L 345 367.75L 363.99 370.41L 379.51 370.48L 392.63 370.17L 404 370.37L 422.99 367.37L 438.51 359.35L 451.63 361.74L 463 349.01L 481.99 343.4L 497.51 349.23L 510.63 344.2L 522 336.2L 540.99 329.69L 556.51 326.33L 569.63 320.71L 581 316.24L 599.99 305.2L 615.51 301.2L 628.63 294.29L 640 289.6L 658.99 279.22L 674.51 273.12L 687.63 267.29L 699 264.11L 717.99 254.68L 733.51 248.59L 746.63 241.4L 758 238.12L 776.99 229.56L 792.51 222.67L 805.63 216.81L 817 211.75L 835.99 202.85L 851.51 196.15L 864.63 190.14L 876 184.75L 894.99 173.19L 910.51 163.72L 923.63 156.24L 935 150.18L 953.99 140.99L 969.51 133.41L 982.63 127.3L 994 121.85L 1013 113.3L 1028.5 106.3L 1041.6 100.43L 1053 95.576L 1072 86.976" fill="none" stroke-width="0.5" stroke="#000000" stroke-opacity="0.30196" stroke-linecap="round" stroke-linejoin="round"/>
  </g>
  <path d="M 74 33 L 74 105 L 435 105 L 435 33 z" fill="#FFFFFF" fill-opacity="0.7019607843137254" stroke-width="0.5" stroke="#000000" stroke-opacity="1" stroke-linecap="round" stroke-linejoin="round"/>
  <path d="M 88 52 L 108 52" fill="none" stroke-width="4" stroke="#FF3B30" stroke-opacity="1" stroke-linecap="round" stroke-linejoin="round"/>
  <path d="M 88 52 L 108 52" fill="none" stroke-width="0.5" stroke="#000000" stroke-opacity="0.30196" stroke-linecap="round" stroke-linejoin="round"/>
  <text x="119" y="56.17" font-family="Menlo" font-size="12" font-weight="normal" font-style="normal" fill="#000000" fill-opacity="1">Array&lt;Int&gt; prepend, reserving capacity</text>
  <path d="M 88 69 L 108 69" fill="none" stroke-width="4" stroke="#007AFF" stroke-opacity="1" stroke-linecap="round" stroke-linejoin="round"/>
  <path d="M 88 69 L 108 69" fill="none" stroke-width="0.5" stroke="#000000" stroke-opacity="0.30196" stroke-linecap="round" stroke-linejoin="round"/>
  <text x="119" y="73.17" font-family="Menlo" font-size="12" font-weight="normal" font-style="normal" fill="#000000" fill-opacity="1">TreeArray&lt;Int&gt; prepend, reserving capacity</text>
  <path d="M 88 86 L 108 86" fill="none" stroke-width="4" stroke="#28CD41" stroke-opacity="1" stroke-linecap="round" stroke-linejoin="round"/>
  <path d="M 88 86 L 108 86" fill="none" stroke-width="0.5" stroke="#000000" stroke-opacity="0.30196" stroke-linecap="round" stroke-linejoin="round"/>
  <text x="119" y="90.17" font-family="Menlo" font-size="12" font-weight="normal" font-style="normal" fill="#000000" fill-opacity="1">Deque&lt;Int&gt; prepend, reserving capacity</text>
  <path d="M 50 9 L 50 441 L 1230 441 L 1230 9 z" fill="none" stroke-width="0.5" stroke="#000000" stroke-opacity="1" stroke-linecap="round" stroke-linejoin="round"/>
</svg>
