<!DOCTYPE svg PUBLIC "-//W3C//DTD SVG 1.1//EN" "http://www.w3.org/Graphics/SVG/1.1/DTD/svg11.dtd">
<svg width="1280.0px" height="480.0px" viewBox="0.0 0.0 1280.0 480.0" xmlns="http://www.w3.org/2000/svg" xmlns:xlink="http://www.w3.org/1999/xlink" version="1.1">
  <path d="M 0 0 L 0 480 L 1280 480 L 1280 0 z" fill="#FFFFFF" fill-opacity="1.0" stroke="none"/>
  <text x="50" y="468.7" font-family="Helvetica" font-size="10" font-weight="normal" font-style="normal" fill="#000000" fill-opacity="1">Average per-element processing time over input size (bands: min, mean, mean + 2stddev)</text>
  <a xlink:href="https://github.com/apple/swift-collections-benchmark"><text x="1107" y="468.7" font-family="Helvetica" font-size="10" font-weight="normal" font-style="normal" fill="#000000" fill-opacity="1">swift-collections-benchmark</text></a>
  <path d="M 50 9 L 50 441" fill="none" stroke-width="0.75" stroke="#000000" stroke-opacity="0.49804" stroke-linecap="butt" stroke-linejoin="round"/>
  <text x="47" y="453.7" font-family="Helvetica" font-size="10" font-weight="normal" font-style="normal" fill="#000000" fill-opacity="1">1</text>
  <path d="M 109 9 L 109 441" fill="none" stroke-width="0.75" stroke="#000000" stroke-opacity="0.49804" stroke-linecap="butt" stroke-linejoin="round"/>
  <text x="106" y="453.7" font-family="Helvetica" font-size="10" font-weight="normal" font-style="normal" fill="#000000" fill-opacity="1">2</text>
  <path d="M 168 9 L 168 441" fill="none" stroke-width="0.75" stroke="#000000" stroke-opacity="0.49804" stroke-linecap="butt" stroke-linejoin="round"/>
  <text x="165" y="453.7" font-family="Helvetica" font-size="10" font-weight="normal" font-style="normal" fill="#000000" fill-opacity="1">4</text>
  <path d="M 227 9 L 227 441" fill="none" stroke-width="0.75" stroke="#000000" stroke-opacity="0.49804" stroke-linecap="butt" stroke-linejoin="round"/>
  <text x="224" y="453.7" font-family="Helvetica" font-size="10" font-weight="normal" font-style="normal" fill="#000000" fill-opacity="1">8</text>
  <path d="M 286 9 L 286 441" fill="none" stroke-width="0.75" stroke="#000000" stroke-opacity="0.49804" stroke-linecap="butt" stroke-linejoin="round"/>
  <text x="280" y="453.7" font-family="Helvetica" font-size="10" font-weight="normal" font-style="normal" fill="#000000" fill-opacity="1">16</text>
  <path d="M 345 9 L 345 441" fill="none" stroke-width="0.75" stroke="#000000" stroke-opacity="0.49804" stroke-linecap="butt" stroke-linejoin="round"/>
  <text x="339" y="453.7" font-family="Helvetica" font-size="10" font-weight="normal" font-style="normal" fill="#000000" fill-opacity="1">32</text>
  <path d="M 404 9 L 404 441" fill="none" stroke-width="0.75" stroke="#000000" stroke-opacity="0.49804" stroke-linecap="butt" stroke-linejoin="round"/>
  <text x="398" y="453.7" font-family="Helvetica" font-size="10" font-weight="normal" font-style="normal" fill="#000000" fill-opacity="1">64</text>
  <path d="M 463 9 L 463 441" fill="none" stroke-width="0.75" stroke="#000000" stroke-opacity="0.49804" stroke-linecap="butt" stroke-linejoin="round"/>
  <text x="454.5" y="453.7" font-family="Helvetica" font-size="10" font-weight="normal" font-style="normal" fill="#000000" fill-opacity="1">128</text>
  <path d="M 522 9 L 522 441" fill="none" stroke-width="0.75" stroke="#000000" stroke-opacity="0.49804" stroke-linecap="butt" stroke-linejoin="round"/>
  <text x="513.5" y="453.7" font-family="Helvetica" font-size="10" font-weight="normal" font-style="normal" fill="#000000" fill-opacity="1">256</text>
  <path d="M 581 9 L 581 441" fill="none" stroke-width="0.75" stroke="#000000" stroke-opacity="0.49804" stroke-linecap="butt" stroke-linejoin="round"/>
  <text x="572.5" y="453.7" font-family="Helvetica" font-size="10" font-weight="normal" font-style="normal" fill="#000000" fill-opacity="1">512</text>
  <path d="M 640 9 L 640 441" fill="none" stroke-width="0.75" stroke="#000000" stroke-opacity="0.49804" stroke-linecap="butt" stroke-linejoin="round"/>
  <text x="634.5" y="453.7" font-family="Helvetica" font-size="10" font-weight="normal" font-style="normal" fill="#000000" fill-opacity="1">1k</text>
  <path d="M 699 9 L 699 441" fill="none" stroke-width="0.75" stroke="#000000" stroke-opacity="0.49804" stroke-linecap="butt" stroke-linejoin="round"/>
  <text x="693.5" y="453.7" font-family="Helvetica" font-size="10" font-weight="normal" font-style="normal" fill="#000000" fill-opacity="1">2k</text>
  <path d="M 758 9 L 758 441" fill="none" stroke-width="0.75" stroke="#000000" stroke-opacity="0.49804" stroke-linecap="butt" stroke-linejoin="round"/>
  <text x="752.5" y="453.7" font-family="Helvetica" font-size="10" font-weight="normal" font-style="normal" fill="#000000" fill-opacity="1">4k</text>
  <path d="M 817 9 L 817 441" fill="none" stroke-width="0.75" stroke="#000000" stroke-opacity="0.49804" stroke-linecap="butt" stroke-linejoin="round"/>
  <text x="811.5" y="453.7" font-family="Helvetica" font-size="10" font-weight="normal" font-style="normal" fill="#000000" fill-opacity="1">8k</text>
  <path d="M 876 9 L 876 441" fill="none" stroke-width="0.75" stroke="#000000" stroke-opacity="0.49804" stroke-linecap="butt" stroke-linejoin="round"/>
  <text x="867.5" y="453.7" font-family="Helvetica" font-size="10" font-weight="normal" font-style="normal" fill="#000000" fill-opacity="1">16k</text>
  <path d="M 935 9 L 935 441" fill="none" stroke-width="0.75" stroke="#000000" stroke-opacity="0.49804" stroke-linecap="butt" stroke-linejoin="round"/>
  <text x="926.5" y="453.7" font-family="Helvetica" font-size="10" font-weight="normal" font-style="normal" fill="#000000" fill-opacity="1">32k</text>
  <path d="M 994 9 L 994 441" fill="none" stroke-width="0.75" stroke="#000000" stroke-opacity="0.49804" stroke-linecap="butt" stroke-linejoin="round"/>
  <text x="985.5" y="453.7" font-family="Helvetica" font-size="10" font-weight="normal" font-style="normal" fill="#000000" fill-opacity="1">64k</text>
  <path d="M 1053 9 L 1053 441" fill="none" stroke-width="0.75" stroke="#000000" stroke-opacity="0.49804" stroke-linecap="butt" stroke-linejoin="round"/>
  <text x="1042" y="453.7" font-family="Helvetica" font-size="10" font-weight="normal" font-style="normal" fill="#000000" fill-opacity="1">128k</text>
  <path d="M 1112 9 L 1112 441" fill="none" stroke-width="0.75" stroke="#000000" stroke-opacity="0.49804" stroke-linecap="butt" stroke-linejoin="round"/>
  <text x="1101" y="453.7" font-family="Helvetica" font-size="10" font-weight="normal" font-style="normal" fill="#000000" fill-opacity="1">256k</text>
  <path d="M 1171 9 L 1171 441" fill="none" stroke-width="0.75" stroke="#000000" stroke-opacity="0.49804" stroke-linecap="butt" stroke-linejoin="round"/>
  <text x="1160" y="453.7" font-family="Helvetica" font-size="10" font-weight="normal" font-style="normal" fill="#000000" fill-opacity="1">512k</text>
  <path d="M 1230 9 L 1230 441" fill="none" stroke-width="0.75" stroke="#000000" stroke-opacity="0.49804" stroke-linecap="butt" stroke-linejoin="round"/>
  <text x="1223" y="453.7" font-family="Helvetica" font-size="10" font-weight="normal" font-style="normal" fill="#000000" fill-opacity="1">1M</text>
  <path d="M 50 441 L 1230 441" fill="none" stroke-width="0.75" stroke="#000000" stroke-opacity="0.49804" stroke-linecap="butt" stroke-linejoin="round"/>
  <text x="27" y="442.7" font-family="Helvetica" font-size="10" font-weight="normal" font-style="normal" fill="#000000" fill-opacity="1">1 ns</text>
  <text x="1236" y="442.7" font-family="Helvetica" font-size="10" font-weight="normal" font-style="normal" fill="#000000" fill-opacity="1">1 ns</text>
  <path d="M 50 354.6 L 1230 354.6" fill="none" stroke-width="0.75" stroke="#000000" stroke-opacity="0.49804" stroke-linecap="butt" stroke-linejoin="round"/>
  <text x="21" y="356.3" font-family="Helvetica" font-size="10" font-weight="normal" font-style="normal" fill="#000000" fill-opacity="1">10 ns</text>
  <text x="1236" y="356.3" font-family="Helvetica" font-size="10" font-weight="normal" font-style="normal" fill="#000000" fill-opacity="1">10 ns</text>
  <path d="M 50 268.2 L 1230 268.2" fill="none" stroke-width="0.75" stroke="#000000" stroke-opacity="0.49804" stroke-linecap="butt" stroke-linejoin="round"/>
  <text x="16" y="269.9" font-family="Helvetica" font-size="10" font-weight="normal" font-style="normal" fill="#000000" fill-opacity="1">100 ns</text>
  <text x="1236" y="269.9" font-family="Helvetica" font-size="10" font-weight="normal" font-style="normal" fill="#000000" fill-opacity="1">100 ns</text>
  <path d="M 50 181.8 L 1230 181.8" fill="none" stroke-width="0.75" stroke="#000000" stroke-opacity="0.49804" stroke-linecap="butt" stroke-linejoin="round"/>
  <text x="26" y="183.5" font-family="Helvetica" font-size="10" font-weight="normal" font-style="normal" fill="#000000" fill-opacity="1">1 µs</text>
  <text x="1236" y="183.5" font-family="Helvetica" font-size="10" font-weight="normal" font-style="normal" fill="#000000" fill-opacity="1">1 µs</text>
  <path d="M 50 95.4 L 1230 95.4" fill="none" stroke-width="0.75" stroke="#000000" stroke-opacity="0.49804" stroke-linecap="butt" stroke-linejoin="round"/>
  <text x="21" y="97.1" font-family="Helvetica" font-size="10" font-weight="normal" font-style="normal" fill="#000000" fill-opacity="1">10 µs</text>
  <text x="1236" y="97.1" font-family="Helvetica" font-size="10" font-weight="normal" font-style="normal" fill="#000000" fill-opacity="1">10 µs</text>
  <path d="M 50 9 L 1230 9" fill="none" stroke-width="0.75" stroke="#000000" stroke-opacity="0.49804" stroke-linecap="butt" stroke-linejoin="round"/>
  <text x="15" y="10.7" font-family="Helvetica" font-size="10" font-weight="normal" font-style="normal" fill="#000000" fill-opacity="1">100 µs</text>
  <text x="1236" y="10.7" font-family="Helvetica" font-size="10" font-weight="normal" font-style="normal" fill="#000000" fill-opacity="1">100 µs</text>
  <path d="M 50 414.99 L 1230 414.99" fill="none" stroke-width="0.5" stroke="#000000" stroke-opacity="0.25882" stroke-linecap="butt" stroke-linejoin="round" stroke-dasharray="6 3" stroke-dashoffset="0"/>
  <path d="M 50 388.98 L 1230 388.98" fill="none" stroke-width="0.5" stroke="#000000" stroke-opacity="0.25882" stroke-linecap="butt" stroke-linejoin="round" stroke-dasharray="6 3" stroke-dashoffset="0"/>
  <path d="M 50 362.97 L 1230 362.97" fill="none" stroke-width="0.5" stroke="#000000" stroke-opacity="0.25882" stroke-linecap="butt" stroke-linejoin="round" stroke-dasharray="6 3" stroke-dashoffset="0"/>
  <path d="M 50 336.96 L 1230 336.96" fill="none" stroke-width="0.5" stroke="#000000" stroke-opacity="0.25882" stroke-linecap="butt" stroke-linejoin="round" stroke-dasharray="6 3" stroke-dashoffset="0"/>
  <path d="M 50 310.96 L 1230 310.96" fill="none" stroke-width="0.5" stroke="#000000" stroke-opacity="0.25882" stroke-linecap="butt" stroke-linejoin="round" stroke-dasharray="6 3" stroke-dashoffset="0"/>
  <path d="M 50 284.95 L 1230 284.95" fill="none" stroke-width="0.5" stroke="#000000" stroke-opacity="0.25882" stroke-linecap="butt" stroke-linejoin="round" stroke-dasharray="6 3" stroke-dashoffset="0"/>
  <path d="M 50 258.94 L 1230 258.94" fill="none" stroke-width="0.5" stroke="#000000" stroke-opacity="0.25882" stroke-linecap="butt" stroke-linejoin="round" stroke-dasharray="6 3" stroke-dashoffset="0"/>
  <path d="M 50 232.93 L 1230 232.93" fill="none" stroke-width="0.5" stroke="#000000" stroke-opacity="0.25882" stroke-linecap="butt" stroke-linejoin="round" stroke-dasharray="6 3" stroke-dashoffset="0"/>
  <path d="M 50 206.92 L 1230 206.92" fill="none" stroke-width="0.5" stroke="#000000" stroke-opacity="0.25882" stroke-linecap="butt" stroke-linejoin="round" stroke-dasharray="6 3" stroke-dashoffset="0"/>
  <path d="M 50 180.91 L 1230 180.91" fill="none" stroke-width="0.5" stroke="#000000" stroke-opacity="0.25882" stroke-linecap="butt" stroke-linejoin="round" stroke-dasharray="6 3" stroke-dashoffset="0"/>
  <path d="M 50 154.9 L 1230 154.9" fill="none" stroke-width="0.5" stroke="#000000" stroke-opacity="0.25882" stroke-linecap="butt" stroke-linejoin="round" stroke-dasharray="6 3" stroke-dashoffset="0"/>
  <path d="M 50 128.89 L 1230 128.89" fill="none" stroke-width="0.5" stroke="#000000" stroke-opacity="0.25882" stroke-linecap="butt" stroke-linejoin="round" stroke-dasharray="6 3" stroke-dashoffset="0"/>
  <path d="M 50 102.88 L 1230 102.88" fill="none" stroke-width="0.5" stroke="#000000" stroke-opacity="0.25882" stroke-linecap="butt" stroke-linejoin="round" stroke-dasharray="6 3" stroke-dashoffset="0"/>
  <path d="M 50 76.874 L 1230 76.874" fill="none" stroke-width="0.5" stroke="#000000" stroke-opacity="0.25882" stroke-linecap="butt" stroke-linejoin="round" stroke-dasharray="6 3" stroke-dashoffset="0"/>
  <path d="M 50 50.865 L 1230 50.865" fill="none" stroke-width="0.5" stroke="#000000" stroke-opacity="0.25882" stroke-linecap="butt" stroke-linejoin="round" stroke-dasharray="6 3" stroke-dashoffset="0"/>
  <path d="M 50 24.856 L 1230 24.856" fill="none" stroke-width="0.5" stroke="#000000" stroke-opacity="0.25882" stroke-linecap="butt" stroke-linejoin="round" stroke-dasharray="6 3" stroke-dashoffset="0"/>
  <path d="M 74 33 L 74 105 L 435 105 L 435 33 z" fill="#FFFFFF" fill-opacity="1.0" stroke="none"/>
  <clipPath id="clip-0">
    <path d="M 50 9 L 50 441 L 1230 441 L 1230 9 z"/>
  </clipPath>
  <g clip-path="url(#clip-0)">
    <path d="M 50 274.56L 109 298.16L 143.51 307.82L 168 321.5L 186.99 328.59L 202.51 333.61L 215.63 338.36L 227 341.95L 245.99 346.11L 261.51 348.99L 274.63 354.15L 286 354.8L 304.99 361.45L 320.51 362.22L 333.63 360.43L 345 363.99L 363.99 367.82L 379.51 369.61L 392.63 372.1L 404 373.56L 422.99 376.54L 438.51 377.89L 451.63 378.82L 463 382.44L 481.99 383.62L 497.51 384.45L 510.63 385L 522 385.45L 540.99 386.08L 556.51 386.52L 569.63 386.84L 581 387.05L 599.99 387.34L 615.51 387.61L 628.63 387.77L 640 387.87L 658.99 388.05L 674.51 388.16L 687.63 387.97L 699 388.3L 717.99 388.36L 733.51 388.44L 746.63 388.35L 758 388.25L 776.99 388.49L 792.51 388.05L 805.63 388.59L 817 388.54L 835.99 388.55L 851.51 388.05L 864.63 388.24L 876 388.62L 894.99 388.05L 910.51 388.52L 923.63 388.66L 935 388.64L 953.99 388.61L 969.51 388.68L 982.63 388.39L 994 388.59L 1013 387.86L 1028.5 387.97L 1041.6 388.6L 1053 388.67L 1072 387.07L 1087.5 385.36L 1100.6 385.15L 1112 384.9L 1131 384.94L 1146.5 384.67L 1159.6 382.6L 1171 383.94L 1190 385.06L 1205.5 382.89L 1218.6 384.97L 1230 388.43L 1230 388.6L 1218.6 385.16L 1205.5 385.04L 1190 385.15L 1171 386.05L 1159.6 385.17L 1146.5 385.15L 1131 386.36L 1112 385.18L 1100.6 385.44L 1087.5 385.55L 1072 388.7L 1053 388.7L 1041.6 388.69L 1028.5 388.7L 1013 388.67L 994 388.69L 982.63 388.7L 969.51 388.68L 953.99 388.63L 935 388.68L 923.63 388.67L 910.51 388.67L 894.99 388.61L 876 388.66L 864.63 388.65L 851.51 388.62L 835.99 388.58L 817 388.6L 805.63 388.6L 792.51 388.54L 776.99 388.49L 758 388.5L 746.63 388.47L 733.51 388.44L 717.99 388.39L 699 388.3L 687.63 388.24L 674.51 388.16L 658.99 388.05L 640 387.88L 628.63 387.77L 615.51 387.61L 599.99 387.45L 581 387.06L 569.63 386.84L 556.51 386.52L 540.99 386.1L 522 385.49L 510.63 385.03L 497.51 384.45L 481.99 383.66L 463 382.49L 451.63 379.99L 438.51 378.24L 422.99 376.54L 404 374.74L 392.63 373.05L 379.51 371.62L 363.99 367.82L 345 364.11L 333.63 363.01L 320.51 368.21L 304.99 361.63L 286 357.13L 274.63 354.16L 261.51 353.07L 245.99 346.35L 227 341.95L 215.63 338.36L 202.51 333.9L 186.99 328.59L 168 321.82L 143.51 316.41L 109 298.16L 50 274.85" fill="#28CD41" fill-opacity="0.30196078431372547" stroke="none"/>
    <path d="M 50 243.21L 109 259.27L 143.51 265.59L 168 267.05L 186.99 269.03L 202.51 269.64L 215.63 270.58L 227 258.42L 245.99 265.45L 261.51 266.11L 274.63 266.93L 286 267.05L 304.99 268.32L 320.51 267.63L 333.63 267.5L 345 265.75L 363.99 266.62L 379.51 265.85L 392.63 265.57L 404 264.85L 422.99 266.88L 438.51 263.09L 451.63 263.02L 463 261.99L 481.99 260.07L 497.51 261.81L 510.63 260.25L 522 260.18L 540.99 259.86L 556.51 258.58L 569.63 257.12L 581 255.88L 599.99 257.15L 615.51 256.55L 628.63 255.27L 640 254.39L 658.99 254.1L 674.51 254.22L 687.63 254.31L 699 251.55L 717.99 252.62L 733.51 251.65L 746.63 249.44L 758 250.29L 776.99 248.7L 792.51 247.74L 805.63 249.48L 817 248.81L 835.99 244.39L 851.51 247.92L 864.63 246.08L 876 248.93L 894.99 246.87L 910.51 247.96L 923.63 247.6L 935 246.44L 953.99 244.2L 969.51 243.9L 982.63 240.8L 994 240.24L 1013 238.31L 1028.5 242.9L 1041.6 239.66L 1053 242.2L 1072 239.66L 1087.5 240.67L 1100.6 236.65L 1112 236.85L 1131 239.07L 1146.5 239.51L 1159.6 238.75L 1171 238.46L 1190 236.63L 1205.5 236.81L 1218.6 233.22L 1230 235.33L 1230 238.62L 1218.6 236.36L 1205.5 237.26L 1190 239.03L 1171 238.93L 1159.6 239.02L 1146.5 239.97L 1131 239.1L 1112 241.78L 1100.6 242.1L 1087.5 240.67L 1072 241.75L 1053 242.42L 1041.6 244.14L 1028.5 243.5L 1013 245.04L 994 245.23L 982.63 244.86L 969.51 246.05L 953.99 246.32L 935 248.68L 923.63 248.2L 910.51 248.34L 894.99 247.95L 876 249.43L 864.63 248.85L 851.51 249.12L 835.99 251.85L 817 250.28L 805.63 250.42L 792.51 252.03L 776.99 251.64L 758 251.35L 746.63 255.92L 733.51 253.97L 717.99 253.83L 699 256.13L 687.63 255.79L 674.51 254.45L 658.99 257.3L 640 256.98L 628.63 257.21L 615.51 257.58L 599.99 257.89L 581 260.67L 569.63 261.48L 556.51 260.52L 540.99 260.29L 522 261.83L 510.63 265.09L 497.51 262L 481.99 264.39L 463 264.39L 451.63 266.94L 438.51 264.99L 422.99 267.23L 404 265.31L 392.63 265.83L 379.51 266.05L 363.99 266.76L 345 270.11L 333.63 268.07L 320.51 268.05L 304.99 268.49L 286 267.1L 274.63 267.26L 261.51 266.47L 245.99 266.32L 227 258.92L 215.63 270.62L 202.51 270.43L 186.99 269.28L 168 268L 143.51 265.68L 109 260.59L 50 246.76" fill="#007AFF" fill-opacity="0.30196078431372547" stroke="none"/>
    <path d="M 50 286.88L 109 311.1L 143.51 323.26L 168 331.86L 186.99 336.85L 202.51 341.44L 215.63 347.15L 227 350.18L 245.99 356.36L 261.51 360.38L 274.63 363.66L 286 366.99L 304.99 371.99L 320.51 374.06L 333.63 375.6L 345 367.75L 363.99 368.44L 379.51 369.44L 392.63 369.99L 404 369.95L 422.99 367.22L 438.51 346.73L 451.63 361.38L 463 329.22L 481.99 322.82L 497.51 349.18L 510.63 344.15L 522 327.43L 540.99 325.16L 556.51 326.15L 569.63 320.22L 581 316.18L 599.99 298.29L 615.51 300.49L 628.63 290.63L 640 288.47L 658.99 274.33L 674.51 269.62L 687.63 265.62L 699 262.87L 717.99 254.65L 733.51 247.84L 746.63 240.15L 758 238.02L 776.99 229.54L 792.51 222.61L 805.63 216.78L 817 211.73L 835.99 201.67L 851.51 195.51L 864.63 189.49L 876 183L 894.99 172.82L 910.51 163.64L 923.63 156.01L 935 149.97L 953.99 140.82L 969.51 133.4L 982.63 126.77L 994 121.1L 1013 112.88L 1028.5 105.92L 1041.6 99.698L 1053 95.359L 1072 86.23L 1072 87.243L 1053 95.653L 1041.6 100.69L 1028.5 106.44L 1013 113.45L 994 122.12L 982.63 127.48L 969.51 133.42L 953.99 141.05L 935 150.26L 923.63 156.33L 910.51 163.74L 894.99 173.32L 876 185.38L 864.63 190.38L 851.51 196.38L 835.99 203.28L 817 211.75L 805.63 216.81L 792.51 222.7L 776.99 229.56L 758 238.16L 746.63 241.85L 733.51 248.86L 717.99 254.69L 699 264.55L 687.63 267.9L 674.51 274.44L 658.99 281.11L 640 290.01L 628.63 295.68L 615.51 301.45L 599.99 307.99L 581 316.26L 569.63 320.89L 556.51 326.4L 540.99 331.43L 522 339.87L 510.63 344.22L 497.51 349.24L 481.99 354.61L 463 359.58L 451.63 361.86L 438.51 365.07L 422.99 367.43L 404 370.52L 392.63 370.24L 379.51 370.85L 363.99 371.13L 345 367.75L 333.63 375.6L 320.51 374.27L 304.99 371.99L 286 366.99L 274.63 363.93L 261.51 360.67L 245.99 356.36L 227 350.18L 215.63 347.5L 202.51 343.61L 186.99 338.77L 168 331.86L 143.51 323.26L 109 311.1L 50 287.37" fill="#FF3B30" fill-opacity="0.30196078431372547" stroke="none"/>
    <path d="M 50 274.78L 109 298.16L 143.51 313.97L 168 321.73L 186.99 328.59L 202.51 333.83L 215.63 338.36L 227 341.95L 245.99 346.29L 261.51 351.96L 274.63 354.16L 286 356.5L 304.99 361.58L 320.51 366.55L 333.63 362.32L 345 364.08L 363.99 367.82L 379.51 371.08L 392.63 372.8L 404 374.43L 422.99 376.54L 438.51 378.15L 451.63 379.68L 463 382.47L 481.99 383.65L 497.51 384.45L 510.63 385.03L 522 385.48L 540.99 386.1L 556.51 386.52L 569.63 386.84L 581 387.06L 599.99 387.42L 615.51 387.61L 628.63 387.77L 640 387.88L 658.99 388.05L 674.51 388.16L 687.63 388.17L 699 388.3L 717.99 388.38L 733.51 388.44L 746.63 388.44L 758 388.44L 776.99 388.49L 792.51 388.41L 805.63 388.59L 817 388.59L 835.99 388.57L 851.51 388.47L 864.63 388.54L 876 388.65L 894.99 388.47L 910.51 388.63L 923.63 388.67L 935 388.67L 953.99 388.63L 969.51 388.68L 982.63 388.62L 994 388.66L 1013 388.45L 1028.5 388.51L 1041.6 388.67L 1053 388.69L 1072 388.26L 1087.5 385.5L 1100.6 385.36L 1112 385.11L 1131 385.98L 1146.5 385.02L 1159.6 384.48L 1171 385.49L 1190 385.13L 1205.5 384.46L 1218.6 385.11L 1230 388.55" fill="none" stroke-width="4" stroke="#28CD41" stroke-opacity="1" stroke-linecap="round" stroke-linejoin="round"/>
    <path d="M 50 245.8L 109 260.24L 143.51 265.66L 168 267.75L 186.99 269.21L 202.51 270.22L 215.63 270.61L 227 258.79L 245.99 266.09L 261.51 266.38L 274.63 267.18L 286 267.09L 304.99 268.45L 320.51 267.94L 333.63 267.92L 345 268.92L 363.99 266.72L 379.51 266L 392.63 265.76L 404 265.19L 422.99 267.14L 438.51 264.48L 451.63 265.87L 463 263.75L 481.99 263.21L 497.51 261.95L 510.63 263.77L 522 261.4L 540.99 260.18L 556.51 260L 569.63 260.29L 581 259.35L 599.99 257.7L 615.51 257.31L 628.63 256.69L 640 256.29L 658.99 256.43L 674.51 254.39L 687.63 255.4L 699 254.87L 717.99 253.51L 733.51 253.35L 746.63 254.12L 758 251.07L 776.99 250.85L 792.51 250.86L 805.63 250.18L 817 249.89L 835.99 249.75L 851.51 248.8L 864.63 248.11L 876 249.3L 894.99 247.66L 910.51 248.24L 923.63 248.05L 935 248.08L 953.99 245.75L 969.51 245.48L 982.63 243.76L 994 243.86L 1013 243.16L 1028.5 243.35L 1041.6 242.91L 1053 242.36L 1072 241.19L 1087.5 240.67L 1100.6 240.6L 1112 240.43L 1131 239.09L 1146.5 239.85L 1159.6 238.95L 1171 238.81L 1190 238.39L 1205.5 237.14L 1218.6 235.52L 1230 237.73" fill="none" stroke-width="4" stroke="#007AFF" stroke-opacity="1" stroke-linecap="round" stroke-linejoin="round"/>
    <path d="M 50 287.24L 109 311.1L 143.51 323.26L 168 331.86L 186.99 338.25L 202.51 343.03L 215.63 347.41L 227 350.18L 245.99 356.36L 261.51 360.59L 274.63 363.86L 286 366.99L 304.99 371.99L 320.51 374.21L 333.63 375.6L 345 367.75L 363.99 370.41L 379.51 370.48L 392.63 370.17L 404 370.37L 422.99 367.37L 438.51 359.35L 451.63 361.74L 463 349.01L 481.99 343.4L 497.51 349.23L 510.63 344.2L 522 336.2L 540.99 329.69L 556.51 326.33L 569.63 320.71L 581 316.24L 599.99 305.2L 615.51 301.2L 628.63 294.29L 640 289.6L 658.99 279.22L 674.51 273.12L 687.63 267.29L 699 264.11L 717.99 254.68L 733.51 248.59L 746.63 241.4L 758 238.12L 776.99 229.56L 792.51 222.67L 805.63 216.81L 817 211.75L 835.99 202.85L 851.51 196.15L 864.63 190.14L 876 184.75L 894.99 173.19L 910.51 163.72L 923.63 156.24L 935 150.18L 953.99 140.99L 969.51 133.41L 982.63 127.3L 994 121.85L 1013 113.3L 1028.5 106.3L 1041.6 100.43L 1053 95.576L 1072 86.976" fill="none" stroke-width="4" stroke="#FF3B30" stroke-opacity="1" stroke-linecap="round" stroke-linejoin="round"/>
    <path d="M 50 274.78L 109 298.16L 143.51 313.97L 168 321.73L 186.99 328.59L 202.51 333.83L 215.63 338.36L 227 341.95L 245.99 346.29L 261.51 351.96L 274.63 354.16L 286 356.5L 304.99 361.58L 320.51 366.55L 333.63 362.32L 345 364.08L 363.99 367.82L 379.51 371.08L 392.63 372.8L 404 374.43L 422.99 376.54L 438.51 378.15L 451.63 379.68L 463 382.47L 481.99 383.65L 497.51 384.45L 510.63 385.03L 522 385.48L 540.99 386.1L 556.51 386.52L 569.63 386.84L 581 387.06L 599.99 387.42L 615.51 387.61L 628.63 387.77L 640 387.88L 658.99 388.05L 674.51 388.16L 687.63 388.17L 699 388.3L 717.99 388.38L 733.51 388.44L 746.63 388.44L 758 388.44L 776.99 388.49L 792.51 388.41L 805.63 388.59L 817 388.59L 835.99 388.57L 851.51 388.47L 864.63 388.54L 876 388.65L 894.99 388.47L 910.51 388.63L 923.63 388.67L 935 388.67L 953.99 388.63L 969.51 388.68L 982.63 388.62L 994 388.66L 1013 388.45L 1028.5 388.51L 1041.6 388.67L 1053 388.69L 1072 388.26L 1087.5 385.5L 1100.6 385.36L 1112 385.11L 1131 385.98L 1146.5 385.02L 1159.6 384.48L 1171 385.49L 1190 385.13L 1205.5 384.46L 1218.6 385.11L 1230 388.55" fill="none" stroke-width="0.5" stroke="#000000" stroke-opacity="0.30196" stroke-linecap="round" stroke-linejoin="round"/>
    <path d="M 50 245.8L 109 260.24L 143.51 265.66L 168 267.75L 186.99 269.21L 202.51 270.22L 215.63 270.61L 227 258.79L 245.99 266.09L 261.51 266.38L 274.63 267.18L 286 267.09L 304.99 268.45L 320.51 267.94L 333.63 267.92L 345 268.92L 363.99 266.72L 379.51 266L 392.63 265.76L 404 265.19L 422.99 267.14L 438.51 264.48L 451.63 265.87L 463 263.75L 481.99 263.21L 497.51 261.95L 510.63 263.77L 522 261.4L 540.99 260.18L 556.51 260L 569.63 260.29L 581 259.35L 599.99 257.7L 615.51 257.31L 628.63 256.69L 640 256.29L 658.99 256.43L 674.51 254.39L 687.63 255.4L 699 254.87L 717.99 253.51L 733.51 253.35L 746.63 254.12L 758 251.07L 776.99 250.85L 792.51 250.86L 805.63 250.18L 817 249.89L 835.99 249.75L 851.51 248.8L 864.63 248.11L 876 249.3L 894.99 247.66L 910.51 248.24L 923.63 248.05L 935 248.08L 953.99 245.75L 969.51 245.48L 982.63 243.76L 994 243.86L 1013 243.16L 1028.5 243.35L 1041.6 242.91L 1053 242.36L 1072 241.19L 1087.5 240.67L 1100.6 240.6L 1112 240.43L 1131 239.09L 1146.5 239.85L 1159.6 238.95L 1171 238.81L 1190 238.39L 1205.5 237.14L 1218.6 235.52L 1230 237.73" fill="none" stroke-width="0.5" stroke="#000000" stroke-opacity="0.30196" stroke-linecap="round" stroke-linejoin="round"/>
    <path d="M 50 287.24L 109 311.1L 143.51 323.26L 168 331.86L 186.99 338.25L 202.51 343.03L 215.63 347.41L 227 350.18L 245.99 356.36L 261.51 360.59L 274.63 363.86L 286 366.99L 304.99 371.99L 320.51 374.21L 333.63 375.6L 345 367.75L 363.99 370.41L 379.51 370.48L 392.63 370.17L 404 370.37L 422.99 367.37L 438.51 359.35L 451.63 361.74L 463 349.01L 481.99 343.4L 497.51 349.23L 510.63 344.2L 522 336.2L 540.99 329.69L 556.51 326.33L 569.63 320.71L 581 316.24L 599.99 305.2L 615.51 301.2L 628.63 294.29L 640 289.6L 658.99 279.22L 674.51 273.12L 687.63 267.29L 699 264.11L 717.99 254.68L 733.51 248.59L 746.63 241.4L 758 238.12L 776.99 229.56L 792.51 222.67L 805.63 216.81L 817 211.75L 835.99 202.85L 851.51 196.15L 864.63 190.14L 876 184.75L 894.99 173.19L 910.51 163.72L 923.63 156.24L 935 150.18L 953.99 140.99L 969.51 133.41L 982.63 127.3L 994 121.85L 1013 113.3L 1028.5 106.3L 1041.6 100.43L 1053 95.576L 1072 86.976" fill="none" stroke-width="0.5" stroke="#000000" stroke-opacity="0.30196" stroke-linecap="round" stroke-linejoin="round"/>
  </g>
  <path d="M 74 33 L 74 105 L 435 105 L 435 33 z" fill="#FFFFFF" fill-opacity="0.7019607843137254" stroke-width="0.5" stroke="#000000" stroke-opacity="1" stroke-linecap="round" stroke-linejoin="round"/>
  <path d="M 88 52 L 108 52" fill="none" stroke-width="4" stroke="#FF3B30" stroke-opacity="1" stroke-linecap="round" stroke-linejoin="round"/>
  <path d="M 88 52 L 108 52" fill="none" stroke-width="0.5" stroke="#000000" stroke-opacity="0.30196" stroke-linecap="round" stroke-linejoin="round"/>
  <text x="119" y="56.17" font-family="Menlo" font-size="12" font-weight="normal" font-style="normal" fill="#000000" fill-opacity="1">Array&lt;Int&gt; prepend, reserving capacity</text>
  <path d="M 88 69 L 108 69" fill="none" stroke-width="4" stroke="#007AFF" stroke-opacity="1" stroke-linecap="round" stroke-linejoin="round"/>
  <path d="M 88 69 L 108 69" fill="none" stroke-width="0.5" stroke="#000000" stroke-opacity="0.30196" stroke-linecap="round" stroke-linejoin="round"/>
  <text x="119" y="73.17" font-family="Menlo" font-size="12" font-weight="normal" font-style="normal" fill="#000000" fill-opacity="1">TreeArray&lt;Int&gt; prepend, reserving capacity</text>
  <path d="M 88 86 L 108 86" fill="none" stroke-width="4" stroke="#28CD41" stroke-opacity="1" stroke-linecap="round" stroke-linejoin="round"/>
  <path d="M 88 86 L 108 86" fill="none" stroke-width="0.5" stroke="#000000" stroke-opacity="0.30196" stroke-linecap="round" stroke-linejoin="round"/>
  <text x="119" y="90.17" font-family="Menlo" font-size="12" font-weight="normal" font-style="normal" fill="#000000" fill-opacity="1">Deque&lt;Int&gt; prepend, reserving capacity</text>
  <path d="M 50 9 L 50 441 L 1230 441 L 1230 9 z" fill="none" stroke-width="0.5" stroke="#000000" stroke-opacity="1" stroke-linecap="round" stroke-linejoin="round"/>
</svg>
