<!DOCTYPE svg PUBLIC "-//W3C//DTD SVG 1.1//EN" "http://www.w3.org/Graphics/SVG/1.1/DTD/svg11.dtd">
<svg width="1280.0px" height="480.0px" viewBox="0.0 0.0 1280.0 480.0" xmlns="http://www.w3.org/2000/svg" xmlns:xlink="http://www.w3.org/1999/xlink" version="1.1">
  <path d="M 0 0 L 0 480 L 1280 480 L 1280 0 z" fill="#FFFFFF" fill-opacity="1.0" stroke="none"/>
  <text x="50" y="468.7" font-family="Helvetica" font-size="10" font-weight="normal" font-style="normal" fill="#000000" fill-opacity="1">Average per-element processing time over input size (bands: min, mean, mean + 2stddev)</text>
  <a xlink:href="https://github.com/apple/swift-collections-benchmark"><text x="1107" y="468.7" font-family="Helvetica" font-size="10" font-weight="normal" font-style="normal" fill="#000000" fill-opacity="1">swift-collections-benchmark</text></a>
  <path d="M 50 9 L 50 441" fill="none" stroke-width="0.75" stroke="#000000" stroke-opacity="0.49804" stroke-linecap="butt" stroke-linejoin="round"/>
  <text x="47" y="453.7" font-family="Helvetica" font-size="10" font-weight="normal" font-style="normal" fill="#000000" fill-opacity="1">1</text>
  <path d="M 109 9 L 109 441" fill="none" stroke-width="0.75" stroke="#000000" stroke-opacity="0.49804" stroke-linecap="butt" stroke-linejoin="round"/>
  <text x="106" y="453.7" font-family="Helvetica" font-size="10" font-weight="normal" font-style="normal" fill="#000000" fill-opacity="1">2</text>
  <path d="M 168 9 L 168 441" fill="none" stroke-width="0.75" stroke="#000000" stroke-opacity="0.49804" stroke-linecap="butt" stroke-linejoin="round"/>
  <text x="165" y="453.7" font-family="Helvetica" font-size="10" font-weight="normal" font-style="normal" fill="#000000" fill-opacity="1">4</text>
  <path d="M 227 9 L 227 441" fill="none" stroke-width="0.75" stroke="#000000" stroke-opacity="0.49804" stroke-linecap="butt" stroke-linejoin="round"/>
  <text x="224" y="453.7" font-family="Helvetica" font-size="10" font-weight="normal" font-style="normal" fill="#000000" fill-opacity="1">8</text>
  <path d="M 286 9 L 286 441" fill="none" stroke-width="0.75" stroke="#000000" stroke-opacity="0.49804" stroke-linecap="butt" stroke-linejoin="round"/>
  <text x="280" y="453.7" font-family="Helvetica" font-size="10" font-weight="normal" font-style="normal" fill="#000000" fill-opacity="1">16</text>
  <path d="M 345 9 L 345 441" fill="none" stroke-width="0.75" stroke="#000000" stroke-opacity="0.49804" stroke-linecap="butt" stroke-linejoin="round"/>
  <text x="339" y="453.7" font-family="Helvetica" font-size="10" font-weight="normal" font-style="normal" fill="#000000" fill-opacity="1">32</text>
  <path d="M 404 9 L 404 441" fill="none" stroke-width="0.75" stroke="#000000" stroke-opacity="0.49804" stroke-linecap="butt" stroke-linejoin="round"/>
  <text x="398" y="453.7" font-family="Helvetica" font-size="10" font-weight="normal" font-style="normal" fill="#000000" fill-opacity="1">64</text>
  <path d="M 463 9 L 463 441" fill="none" stroke-width="0.75" stroke="#000000" stroke-opacity="0.49804" stroke-linecap="butt" stroke-linejoin="round"/>
  <text x="454.5" y="453.7" font-family="Helvetica" font-size="10" font-weight="normal" font-style="normal" fill="#000000" fill-opacity="1">128</text>
  <path d="M 522 9 L 522 441" fill="none" stroke-width="0.75" stroke="#000000" stroke-opacity="0.49804" stroke-linecap="butt" stroke-linejoin="round"/>
  <text x="513.5" y="453.7" font-family="Helvetica" font-size="10" font-weight="normal" font-style="normal" fill="#000000" fill-opacity="1">256</text>
  <path d="M 581 9 L 581 441" fill="none" stroke-width="0.75" stroke="#000000" stroke-opacity="0.49804" stroke-linecap="butt" stroke-linejoin="round"/>
  <text x="572.5" y="453.7" font-family="Helvetica" font-size="10" font-weight="normal" font-style="normal" fill="#000000" fill-opacity="1">512</text>
  <path d="M 640 9 L 640 441" fill="none" stroke-width="0.75" stroke="#000000" stroke-opacity="0.49804" stroke-linecap="butt" stroke-linejoin="round"/>
  <text x="634.5" y="453.7" font-family="Helvetica" font-size="10" font-weight="normal" font-style="normal" fill="#000000" fill-opacity="1">1k</text>
  <path d="M 699 9 L 699 441" fill="none" stroke-width="0.75" stroke="#000000" stroke-opacity="0.49804" stroke-linecap="butt" stroke-linejoin="round"/>
  <text x="693.5" y="453.7" font-family="Helvetica" font-size="10" font-weight="normal" font-style="normal" fill="#000000" fill-opacity="1">2k</text>
  <path d="M 758 9 L 758 441" fill="none" stroke-width="0.75" stroke="#000000" stroke-opacity="0.49804" stroke-linecap="butt" stroke-linejoin="round"/>
  <text x="752.5" y="453.7" font-family="Helvetica" font-size="10" font-weight="normal" font-style="normal" fill="#000000" fill-opacity="1">4k</text>
  <path d="M 817 9 L 817 441" fill="none" stroke-width="0.75" stroke="#000000" stroke-opacity="0.49804" stroke-linecap="butt" stroke-linejoin="round"/>
  <text x="811.5" y="453.7" font-family="Helvetica" font-size="10" font-weight="normal" font-style="normal" fill="#000000" fill-opacity="1">8k</text>
  <path d="M 876 9 L 876 441" fill="none" stroke-width="0.75" stroke="#000000" stroke-opacity="0.49804" stroke-linecap="butt" stroke-linejoin="round"/>
  <text x="867.5" y="453.7" font-family="Helvetica" font-size="10" font-weight="normal" font-style="normal" fill="#000000" fill-opacity="1">16k</text>
  <path d="M 935 9 L 935 441" fill="none" stroke-width="0.75" stroke="#000000" stroke-opacity="0.49804" stroke-linecap="butt" stroke-linejoin="round"/>
  <text x="926.5" y="453.7" font-family="Helvetica" font-size="10" font-weight="normal" font-style="normal" fill="#000000" fill-opacity="1">32k</text>
  <path d="M 994 9 L 994 441" fill="none" stroke-width="0.75" stroke="#000000" stroke-opacity="0.49804" stroke-linecap="butt" stroke-linejoin="round"/>
  <text x="985.5" y="453.7" font-family="Helvetica" font-size="10" font-weight="normal" font-style="normal" fill="#000000" fill-opacity="1">64k</text>
  <path d="M 1053 9 L 1053 441" fill="none" stroke-width="0.75" stroke="#000000" stroke-opacity="0.49804" stroke-linecap="butt" stroke-linejoin="round"/>
  <text x="1042" y="453.7" font-family="Helvetica" font-size="10" font-weight="normal" font-style="normal" fill="#000000" fill-opacity="1">128k</text>
  <path d="M 1112 9 L 1112 441" fill="none" stroke-width="0.75" stroke="#000000" stroke-opacity="0.49804" stroke-linecap="butt" stroke-linejoin="round"/>
  <text x="1101" y="453.7" font-family="Helvetica" font-size="10" font-weight="normal" font-style="normal" fill="#000000" fill-opacity="1">256k</text>
  <path d="M 1171 9 L 1171 441" fill="none" stroke-width="0.75" stroke="#000000" stroke-opacity="0.49804" stroke-linecap="butt" stroke-linejoin="round"/>
  <text x="1160" y="453.7" font-family="Helvetica" font-size="10" font-weight="normal" font-style="normal" fill="#000000" fill-opacity="1">512k</text>
  <path d="M 1230 9 L 1230 441" fill="none" stroke-width="0.75" stroke="#000000" stroke-opacity="0.49804" stroke-linecap="butt" stroke-linejoin="round"/>
  <text x="1223" y="453.7" font-family="Helvetica" font-size="10" font-weight="normal" font-style="normal" fill="#000000" fill-opacity="1">1M</text>
  <path d="M 50 441 L 1230 441" fill="none" stroke-width="0.75" stroke="#000000" stroke-opacity="0.49804" stroke-linecap="butt" stroke-linejoin="round"/>
  <text x="27" y="442.7" font-family="Helvetica" font-size="10" font-weight="normal" font-style="normal" fill="#000000" fill-opacity="1">1 ns</text>
  <text x="1236" y="442.7" font-family="Helvetica" font-size="10" font-weight="normal" font-style="normal" fill="#000000" fill-opacity="1">1 ns</text>
  <path d="M 50 354.6 L 1230 354.6" fill="none" stroke-width="0.75" stroke="#000000" stroke-opacity="0.49804" stroke-linecap="butt" stroke-linejoin="round"/>
  <text x="21" y="356.3" font-family="Helvetica" font-size="10" font-weight="normal" font-style="normal" fill="#000000" fill-opacity="1">10 ns</text>
  <text x="1236" y="356.3" font-family="Helvetica" font-size="10" font-weight="normal" font-style="normal" fill="#000000" fill-opacity="1">10 ns</text>
  <path d="M 50 268.2 L 1230 268.2" fill="none" stroke-width="0.75" stroke="#000000" stroke-opacity="0.49804" stroke-linecap="butt" stroke-linejoin="round"/>
  <text x="16" y="269.9" font-family="Helvetica" font-size="10" font-weight="normal" font-style="normal" fill="#000000" fill-opacity="1">100 ns</text>
  <text x="1236" y="269.9" font-family="Helvetica" font-size="10" font-weight="normal" font-style="normal" fill="#000000" fill-opacity="1">100 ns</text>
  <path d="M 50 181.8 L 1230 181.8" fill="none" stroke-width="0.75" stroke="#000000" stroke-opacity="0.49804" stroke-linecap="butt" stroke-linejoin="round"/>
  <text x="26" y="183.5" font-family="Helvetica" font-size="10" font-weight="normal" font-style="normal" fill="#000000" fill-opacity="1">1 µs</text>
  <text x="1236" y="183.5" font-family="Helvetica" font-size="10" font-weight="normal" font-style="normal" fill="#000000" fill-opacity="1">1 µs</text>
  <path d="M 50 95.4 L 1230 95.4" fill="none" stroke-width="0.75" stroke="#000000" stroke-opacity="0.49804" stroke-linecap="butt" stroke-linejoin="round"/>
  <text x="21" y="97.1" font-family="Helvetica" font-size="10" font-weight="normal" font-style="normal" fill="#000000" fill-opacity="1">10 µs</text>
  <text x="1236" y="97.1" font-family="Helvetica" font-size="10" font-weight="normal" font-style="normal" fill="#000000" fill-opacity="1">10 µs</text>
  <path d="M 50 9 L 1230 9" fill="none" stroke-width="0.75" stroke="#000000" stroke-opacity="0.49804" stroke-linecap="butt" stroke-linejoin="round"/>
  <text x="15" y="10.7" font-family="Helvetica" font-size="10" font-weight="normal" font-style="normal" fill="#000000" fill-opacity="1">100 µs</text>
  <text x="1236" y="10.7" font-family="Helvetica" font-size="10" font-weight="normal" font-style="normal" fill="#000000" fill-opacity="1">100 µs</text>
  <path d="M 50 414.99 L 1230 414.99" fill="none" stroke-width="0.5" stroke="#000000" stroke-opacity="0.25882" stroke-linecap="butt" stroke-linejoin="round" stroke-dasharray="6 3" stroke-dashoffset="0"/>
  <path d="M 50 388.98 L 1230 388.98" fill="none" stroke-width="0.5" stroke="#000000" stroke-opacity="0.25882" stroke-linecap="butt" stroke-linejoin="round" stroke-dasharray="6 3" stroke-dashoffset="0"/>
  <path d="M 50 362.97 L 1230 362.97" fill="none" stroke-width="0.5" stroke="#000000" stroke-opacity="0.25882" stroke-linecap="butt" stroke-linejoin="round" stroke-dasharray="6 3" stroke-dashoffset="0"/>
  <path d="M 50 336.96 L 1230 336.96" fill="none" stroke-width="0.5" stroke="#000000" stroke-opacity="0.25882" stroke-linecap="butt" stroke-linejoin="round" stroke-dasharray="6 3" stroke-dashoffset="0"/>
  <path d="M 50 310.96 L 1230 310.96" fill="none" stroke-width="0.5" stroke="#000000" stroke-opacity="0.25882" stroke-linecap="butt" stroke-linejoin="round" stroke-dasharray="6 3" stroke-dashoffset="0"/>
  <path d="M 50 284.95 L 1230 284.95" fill="none" stroke-width="0.5" stroke="#000000" stroke-opacity="0.25882" stroke-linecap="butt" stroke-linejoin="round" stroke-dasharray="6 3" stroke-dashoffset="0"/>
  <path d="M 50 258.94 L 1230 258.94" fill="none" stroke-width="0.5" stroke="#000000" stroke-opacity="0.25882" stroke-linecap="butt" stroke-linejoin="round" stroke-dasharray="6 3" stroke-dashoffset="0"/>
  <path d="M 50 232.93 L 1230 232.93" fill="none" stroke-width="0.5" stroke="#000000" stroke-opacity="0.25882" stroke-linecap="butt" stroke-linejoin="round" stroke-dasharray="6 3" stroke-dashoffset="0"/>
  <path d="M 50 206.92 L 1230 206.92" fill="none" stroke-width="0.5" stroke="#000000" stroke-opacity="0.25882" stroke-linecap="butt" stroke-linejoin="round" stroke-dasharray="6 3" stroke-dashoffset="0"/>
  <path d="M 50 180.91 L 1230 180.91" fill="none" stroke-width="0.5" stroke="#000000" stroke-opacity="0.25882" stroke-linecap="butt" stroke-linejoin="round" stroke-dasharray="6 3" stroke-dashoffset="0"/>
  <path d="M 50 154.9 L 1230 154.9" fill="none" stroke-width="0.5" stroke="#000000" stroke-opacity="0.25882" stroke-linecap="butt" stroke-linejoin="round" stroke-dasharray="6 3" stroke-dashoffset="0"/>
  <path d="M 50 128.89 L 1230 128.89" fill="none" stroke-width="0.5" stroke="#000000" stroke-opacity="0.25882" stroke-linecap="butt" stroke-linejoin="round" stroke-dasharray="6 3" stroke-dashoffset="0"/>
  <path d="M 50 102.88 L 1230 102.88" fill="none" stroke-width="0.5" stroke="#000000" stroke-opacity="0.25882" stroke-linecap="butt" stroke-linejoin="round" stroke-dasharray="6 3" stroke-dashoffset="0"/>
  <path d="M 50 76.874 L 1230 76.874" fill="none" stroke-width="0.5" stroke="#000000" stroke-opacity="0.25882" stroke-linecap="butt" stroke-linejoin="round" stroke-dasharray="6 3" stroke-dashoffset="0"/>
  <path d="M 50 50.865 L 1230 50.865" fill="none" stroke-width="0.5" stroke="#000000" stroke-opacity="0.25882" stroke-linecap="butt" stroke-linejoin="round" stroke-dasharray="6 3" stroke-dashoffset="0"/>
  <path d="M 50 24.856 L 1230 24.856" fill="none" stroke-width="0.5" stroke="#000000" stroke-opacity="0.25882" stroke-linecap="butt" stroke-linejoin="round" stroke-dasharray="6 3" stroke-dashoffset="0"/>
  <path d="M 74 33 L 74 88 L 435 88 L 435 33 z" fill="#FFFFFF" fill-opacity="1.0" stroke="none"/>
  <clipPath id="clip-0">
    <path d="M 50 9 L 50 441 L 1230 441 L 1230 9 z"/>
  </clipPath>
  <g clip-path="url(#clip-0)">
    <path d="M 50 244.27L 109 256.86L 143.51 260.29L 168 266.33L 186.99 267.25L 202.51 268.31L 215.63 269.76L 227 255.97L 245.99 263.97L 261.51 264.11L 274.63 263.44L 286 264.07L 304.99 266.11L 320.51 266.05L 333.63 265.8L 345 266.66L 363.99 264.22L 379.51 265.21L 392.63 263.27L 404 265L 422.99 264.02L 438.51 261.49L 451.63 263.39L 463 260.42L 481.99 259.81L 497.51 261.14L 510.63 260.65L 522 260.41L 540.99 257.65L 556.51 256.2L 569.63 256.73L 581 256.09L 599.99 253.87L 615.51 255.48L 628.63 254.13L 640 255.55L 658.99 256.15L 674.51 253.56L 687.63 251.06L 699 251.82L 717.99 251L 733.51 252.5L 746.63 250.35L 758 252.3L 776.99 250.53L 792.51 250.09L 805.63 247.11L 817 248.65L 835.99 248.52L 851.51 246.39L 864.63 248.19L 876 246.89L 894.99 246.86L 910.51 245.71L 923.63 244.86L 935 240.62L 953.99 246.83L 969.51 241.69L 982.63 241.57L 994 242.59L 1013 239.21L 1028.5 240.78L 1041.6 241.69L 1053 241.59L 1072 240.91L 1087.5 242.18L 1100.6 235.75L 1112 238.18L 1131 240.75L 1146.5 237.37L 1159.6 238.84L 1171 236.86L 1190 238.06L 1205.5 238.17L 1218.6 236.53L 1230 237.17L 1230 237.73L 1218.6 237.87L 1205.5 238.35L 1190 239.88L 1171 239.22L 1159.6 241.39L 1146.5 240.42L 1131 240.81L 1112 241.35L 1100.6 241.55L 1087.5 242.35L 1072 242.32L 1053 241.65L 1041.6 242.28L 1028.5 242.85L 1013 244.17L 994 244.21L 982.63 245.79L 969.51 245.22L 953.99 246.96L 935 246.1L 923.63 246.17L 910.51 247.23L 894.99 247.89L 876 248.13L 864.63 248.3L 851.51 249.12L 835.99 248.76L 817 251.15L 805.63 250.95L 792.51 251.81L 776.99 251.45L 758 252.76L 746.63 253.12L 733.51 252.78L 717.99 253.48L 699 253.99L 687.63 255.42L 674.51 257.58L 658.99 256.73L 640 256.22L 628.63 256.39L 615.51 257.77L 599.99 259.19L 581 259.01L 569.63 259.36L 556.51 260.76L 540.99 260.43L 522 260.89L 510.63 261.54L 497.51 261.9L 481.99 262.67L 463 266.55L 451.63 263.71L 438.51 264.17L 422.99 265.38L 404 265.6L 392.63 265.68L 379.51 267.3L 363.99 266.64L 345 267.29L 333.63 267.74L 320.51 268.04L 304.99 268.21L 286 267.76L 274.63 267.77L 261.51 266.61L 245.99 266.15L 227 258.66L 215.63 270.41L 202.51 269.74L 186.99 269.41L 168 267.93L 143.51 269.34L 109 260.46L 50 245.88" fill="#007AFF" fill-opacity="0.30196078431372547" stroke="none"/>
    <path d="M 50 286.88L 109 311.1L 143.51 323.26L 168 331.86L 186.99 336.85L 202.51 341.44L 215.63 347.15L 227 350.18L 245.99 356.36L 261.51 360.38L 274.63 363.66L 286 366.99L 304.99 371.99L 320.51 374.06L 333.63 375.6L 345 367.75L 363.99 368.44L 379.51 369.44L 392.63 369.99L 404 369.95L 422.99 367.22L 438.51 346.73L 451.63 361.38L 463 329.22L 481.99 322.82L 497.51 349.18L 510.63 344.15L 522 327.43L 540.99 325.16L 556.51 326.15L 569.63 320.22L 581 316.18L 599.99 298.29L 615.51 300.49L 628.63 290.63L 640 288.47L 658.99 274.33L 674.51 269.62L 687.63 265.62L 699 262.87L 717.99 254.65L 733.51 247.84L 746.63 240.15L 758 238.02L 776.99 229.54L 792.51 222.61L 805.63 216.78L 817 211.73L 835.99 201.67L 851.51 195.51L 864.63 189.49L 876 183L 894.99 172.82L 910.51 163.64L 923.63 156.01L 935 149.97L 953.99 140.82L 969.51 133.4L 982.63 126.77L 994 121.1L 1013 112.88L 1028.5 105.92L 1041.6 99.698L 1053 95.359L 1072 86.23L 1072 87.243L 1053 95.653L 1041.6 100.69L 1028.5 106.44L 1013 113.45L 994 122.12L 982.63 127.48L 969.51 133.42L 953.99 141.05L 935 150.26L 923.63 156.33L 910.51 163.74L 894.99 173.32L 876 185.38L 864.63 190.38L 851.51 196.38L 835.99 203.28L 817 211.75L 805.63 216.81L 792.51 222.7L 776.99 229.56L 758 238.16L 746.63 241.85L 733.51 248.86L 717.99 254.69L 699 264.55L 687.63 267.9L 674.51 274.44L 658.99 281.11L 640 290.01L 628.63 295.68L 615.51 301.45L 599.99 307.99L 581 316.26L 569.63 320.89L 556.51 326.4L 540.99 331.43L 522 339.87L 510.63 344.22L 497.51 349.24L 481.99 354.61L 463 359.58L 451.63 361.86L 438.51 365.07L 422.99 367.43L 404 370.52L 392.63 370.24L 379.51 370.85L 363.99 371.13L 345 367.75L 333.63 375.6L 320.51 374.27L 304.99 371.99L 286 366.99L 274.63 363.93L 261.51 360.67L 245.99 356.36L 227 350.18L 215.63 347.5L 202.51 343.61L 186.99 338.77L 168 331.86L 143.51 323.26L 109 311.1L 50 287.37" fill="#FF3B30" fill-opacity="0.30196078431372547" stroke="none"/>
    <path d="M 50 245.46L 109 259.48L 143.51 266.76L 168 267.5L 186.99 268.83L 202.51 269.36L 215.63 270.24L 227 257.94L 245.99 265.57L 261.51 265.94L 274.63 266.59L 286 266.76L 304.99 267.65L 320.51 267.51L 333.63 267.23L 345 267.12L 363.99 266L 379.51 266.74L 392.63 265.04L 404 265.44L 422.99 265.02L 438.51 263.45L 451.63 263.62L 463 264.85L 481.99 261.9L 497.51 261.7L 510.63 261.31L 522 260.76L 540.99 259.69L 556.51 259.52L 569.63 258.65L 581 258.22L 599.99 257.72L 615.51 257.16L 628.63 255.78L 640 256.04L 658.99 256.58L 674.51 256.48L 687.63 254.23L 699 253.41L 717.99 252.81L 733.51 252.71L 746.63 252.38L 758 252.64L 776.99 251.21L 792.51 251.35L 805.63 249.91L 817 250.48L 835.99 248.7L 851.51 248.39L 864.63 248.27L 876 247.8L 894.99 247.62L 910.51 246.83L 923.63 245.82L 935 244.59L 953.99 246.93L 969.51 244.27L 982.63 244.64L 994 243.78L 1013 242.81L 1028.5 242.3L 1041.6 242.12L 1053 241.63L 1072 241.94L 1087.5 242.31L 1100.6 239.95L 1112 240.5L 1131 240.8L 1146.5 239.6L 1159.6 240.71L 1171 238.59L 1190 239.4L 1205.5 238.3L 1218.6 237.51L 1230 237.59" fill="none" stroke-width="4" stroke="#007AFF" stroke-opacity="1" stroke-linecap="round" stroke-linejoin="round"/>
    <path d="M 50 287.24L 109 311.1L 143.51 323.26L 168 331.86L 186.99 338.25L 202.51 343.03L 215.63 347.41L 227 350.18L 245.99 356.36L 261.51 360.59L 274.63 363.86L 286 366.99L 304.99 371.99L 320.51 374.21L 333.63 375.6L 345 367.75L 363.99 370.41L 379.51 370.48L 392.63 370.17L 404 370.37L 422.99 367.37L 438.51 359.35L 451.63 361.74L 463 349.01L 481.99 343.4L 497.51 349.23L 510.63 344.2L 522 336.2L 540.99 329.69L 556.51 326.33L 569.63 320.71L 581 316.24L 599.99 305.2L 615.51 301.2L 628.63 294.29L 640 289.6L 658.99 279.22L 674.51 273.12L 687.63 267.29L 699 264.11L 717.99 254.68L 733.51 248.59L 746.63 241.4L 758 238.12L 776.99 229.56L 792.51 222.67L 805.63 216.81L 817 211.75L 835.99 202.85L 851.51 196.15L 864.63 190.14L 876 184.75L 894.99 173.19L 910.51 163.72L 923.63 156.24L 935 150.18L 953.99 140.99L 969.51 133.41L 982.63 127.3L 994 121.85L 1013 113.3L 1028.5 106.3L 1041.6 100.43L 1053 95.576L 1072 86.976" fill="none" stroke-width="4" stroke="#FF3B30" stroke-opacity="1" stroke-linecap="round" stroke-linejoin="round"/>
    <path d="M 50 245.46L 109 259.48L 143.51 266.76L 168 267.5L 186.99 268.83L 202.51 269.36L 215.63 270.24L 227 257.94L 245.99 265.57L 261.51 265.94L 274.63 266.59L 286 266.76L 304.99 267.65L 320.51 267.51L 333.63 267.23L 345 267.12L 363.99 266L 379.51 266.74L 392.63 265.04L 404 265.44L 422.99 265.02L 438.51 263.45L 451.63 263.62L 463 264.85L 481.99 261.9L 497.51 261.7L 510.63 261.31L 522 260.76L 540.99 259.69L 556.51 259.52L 569.63 258.65L 581 258.22L 599.99 257.72L 615.51 257.16L 628.63 255.78L 640 256.04L 658.99 256.58L 674.51 256.48L 687.63 254.23L 699 253.41L 717.99 252.81L 733.51 252.71L 746.63 252.38L 758 252.64L 776.99 251.21L 792.51 251.35L 805.63 249.91L 817 250.48L 835.99 248.7L 851.51 248.39L 864.63 248.27L 876 247.8L 894.99 247.62L 910.51 246.83L 923.63 245.82L 935 244.59L 953.99 246.93L 969.51 244.27L 982.63 244.64L 994 243.78L 1013 242.81L 1028.5 242.3L 1041.6 242.12L 1053 241.63L 1072 241.94L 1087.5 242.31L 1100.6 239.95L 1112 240.5L 1131 240.8L 1146.5 239.6L 1159.6 240.71L 1171 238.59L 1190 239.4L 1205.5 238.3L 1218.6 237.51L 1230 237.59" fill="none" stroke-width="0.5" stroke="#000000" stroke-opacity="0.30196" stroke-linecap="round" stroke-linejoin="round"/>
    <path d="M 50 287.24L 109 311.1L 143.51 323.26L 168 331.86L 186.99 338.25L 202.51 343.03L 215.63 347.41L 227 350.18L 245.99 356.36L 261.51 360.59L 274.63 363.86L 286 366.99L 304.99 371.99L 320.51 374.21L 333.63 375.6L 345 367.75L 363.99 370.41L 379.51 370.48L 392.63 370.17L 404 370.37L 422.99 367.37L 438.51 359.35L 451.63 361.74L 463 349.01L 481.99 343.4L 497.51 349.23L 510.63 344.2L 522 336.2L 540.99 329.69L 556.51 326.33L 569.63 320.71L 581 316.24L 599.99 305.2L 615.51 301.2L 628.63 294.29L 640 289.6L 658.99 279.22L 674.51 273.12L 687.63 267.29L 699 264.11L 717.99 254.68L 733.51 248.59L 746.63 241.4L 758 238.12L 776.99 229.56L 792.51 222.67L 805.63 216.81L 817 211.75L 835.99 202.85L 851.51 196.15L 864.63 190.14L 876 184.75L 894.99 173.19L 910.51 163.72L 923.63 156.24L 935 150.18L 953.99 140.99L 969.51 133.41L 982.63 127.3L 994 121.85L 1013 113.3L 1028.5 106.3L 1041.6 100.43L 1053 95.576L 1072 86.976" fill="none" stroke-width="0.5" stroke="#000000" stroke-opacity="0.30196" stroke-linecap="round" stroke-linejoin="round"/>
  </g>
  <path d="M 74 33 L 74 88 L 435 88 L 435 33 z" fill="#FFFFFF" fill-opacity="0.7019607843137254" stroke-width="0.5" stroke="#000000" stroke-opacity="1" stroke-linecap="round" stroke-linejoin="round"/>
  <path d="M 88 52 L 108 52" fill="none" stroke-width="4" stroke="#FF3B30" stroke-opacity="1" stroke-linecap="round" stroke-linejoin="round"/>
  <path d="M 88 52 L 108 52" fill="none" stroke-width="0.5" stroke="#000000" stroke-opacity="0.30196" stroke-linecap="round" stroke-linejoin="round"/>
  <text x="119" y="56.17" font-family="Menlo" font-size="12" font-weight="normal" font-style="normal" fill="#000000" fill-opacity="1">Array&lt;Int&gt; prepend, reserving capacity</text>
  <path d="M 88 69 L 108 69" fill="none" stroke-width="4" stroke="#007AFF" stroke-opacity="1" stroke-linecap="round" stroke-linejoin="round"/>
  <path d="M 88 69 L 108 69" fill="none" stroke-width="0.5" stroke="#000000" stroke-opacity="0.30196" stroke-linecap="round" stroke-linejoin="round"/>
  <text x="119" y="73.17" font-family="Menlo" font-size="12" font-weight="normal" font-style="normal" fill="#000000" fill-opacity="1">TreeArray&lt;Int&gt; prepend, reserving capacity</text>
  <path d="M 50 9 L 50 441 L 1230 441 L 1230 9 z" fill="none" stroke-width="0.5" stroke="#000000" stroke-opacity="1" stroke-linecap="round" stroke-linejoin="round"/>
</svg>
