<!DOCTYPE svg PUBLIC "-//W3C//DTD SVG 1.1//EN" "http://www.w3.org/Graphics/SVG/1.1/DTD/svg11.dtd">
<svg width="1280.0px" height="480.0px" viewBox="0.0 0.0 1280.0 480.0" xmlns="http://www.w3.org/2000/svg" xmlns:xlink="http://www.w3.org/1999/xlink" version="1.1">
  <path d="M 0 0 L 0 480 L 1280 480 L 1280 0 z" fill="#FFFFFF" fill-opacity="1.0" stroke="none"/>
  <text x="50" y="468.7" font-family="Helvetica" font-size="10" font-weight="normal" font-style="normal" fill="#000000" fill-opacity="1">Average per-element processing time over input size (bands: min, mean, mean + 2stddev)</text>
  <a xlink:href="https://github.com/apple/swift-collections-benchmark"><text x="1107" y="468.7" font-family="Helvetica" font-size="10" font-weight="normal" font-style="normal" fill="#000000" fill-opacity="1">swift-collections-benchmark</text></a>
  <path d="M 50 9 L 50 441" fill="none" stroke-width="0.75" stroke="#000000" stroke-opacity="0.49804" stroke-linecap="butt" stroke-linejoin="round"/>
  <text x="47" y="453.7" font-family="Helvetica" font-size="10" font-weight="normal" font-style="normal" fill="#000000" fill-opacity="1">1</text>
  <path d="M 115.56 9 L 115.56 441" fill="none" stroke-width="0.75" stroke="#000000" stroke-opacity="0.49804" stroke-linecap="butt" stroke-linejoin="round"/>
  <text x="112.56" y="453.7" font-family="Helvetica" font-size="10" font-weight="normal" font-style="normal" fill="#000000" fill-opacity="1">2</text>
  <path d="M 181.11 9 L 181.11 441" fill="none" stroke-width="0.75" stroke="#000000" stroke-opacity="0.49804" stroke-linecap="butt" stroke-linejoin="round"/>
  <text x="178.11" y="453.7" font-family="Helvetica" font-size="10" font-weight="normal" font-style="normal" fill="#000000" fill-opacity="1">4</text>
  <path d="M 246.67 9 L 246.67 441" fill="none" stroke-width="0.75" stroke="#000000" stroke-opacity="0.49804" stroke-linecap="butt" stroke-linejoin="round"/>
  <text x="243.67" y="453.7" font-family="Helvetica" font-size="10" font-weight="normal" font-style="normal" fill="#000000" fill-opacity="1">8</text>
  <path d="M 312.22 9 L 312.22 441" fill="none" stroke-width="0.75" stroke="#000000" stroke-opacity="0.49804" stroke-linecap="butt" stroke-linejoin="round"/>
  <text x="306.22" y="453.7" font-family="Helvetica" font-size="10" font-weight="normal" font-style="normal" fill="#000000" fill-opacity="1">16</text>
  <path d="M 377.78 9 L 377.78 441" fill="none" stroke-width="0.75" stroke="#000000" stroke-opacity="0.49804" stroke-linecap="butt" stroke-linejoin="round"/>
  <text x="371.78" y="453.7" font-family="Helvetica" font-size="10" font-weight="normal" font-style="normal" fill="#000000" fill-opacity="1">32</text>
  <path d="M 443.33 9 L 443.33 441" fill="none" stroke-width="0.75" stroke="#000000" stroke-opacity="0.49804" stroke-linecap="butt" stroke-linejoin="round"/>
  <text x="437.33" y="453.7" font-family="Helvetica" font-size="10" font-weight="normal" font-style="normal" fill="#000000" fill-opacity="1">64</text>
  <path d="M 508.89 9 L 508.89 441" fill="none" stroke-width="0.75" stroke="#000000" stroke-opacity="0.49804" stroke-linecap="butt" stroke-linejoin="round"/>
  <text x="500.39" y="453.7" font-family="Helvetica" font-size="10" font-weight="normal" font-style="normal" fill="#000000" fill-opacity="1">128</text>
  <path d="M 574.44 9 L 574.44 441" fill="none" stroke-width="0.75" stroke="#000000" stroke-opacity="0.49804" stroke-linecap="butt" stroke-linejoin="round"/>
  <text x="565.94" y="453.7" font-family="Helvetica" font-size="10" font-weight="normal" font-style="normal" fill="#000000" fill-opacity="1">256</text>
  <path d="M 640 9 L 640 441" fill="none" stroke-width="0.75" stroke="#000000" stroke-opacity="0.49804" stroke-linecap="butt" stroke-linejoin="round"/>
  <text x="631.5" y="453.7" font-family="Helvetica" font-size="10" font-weight="normal" font-style="normal" fill="#000000" fill-opacity="1">512</text>
  <path d="M 705.56 9 L 705.56 441" fill="none" stroke-width="0.75" stroke="#000000" stroke-opacity="0.49804" stroke-linecap="butt" stroke-linejoin="round"/>
  <text x="700.06" y="453.7" font-family="Helvetica" font-size="10" font-weight="normal" font-style="normal" fill="#000000" fill-opacity="1">1k</text>
  <path d="M 771.11 9 L 771.11 441" fill="none" stroke-width="0.75" stroke="#000000" stroke-opacity="0.49804" stroke-linecap="butt" stroke-linejoin="round"/>
  <text x="765.61" y="453.7" font-family="Helvetica" font-size="10" font-weight="normal" font-style="normal" fill="#000000" fill-opacity="1">2k</text>
  <path d="M 836.67 9 L 836.67 441" fill="none" stroke-width="0.75" stroke="#000000" stroke-opacity="0.49804" stroke-linecap="butt" stroke-linejoin="round"/>
  <text x="831.17" y="453.7" font-family="Helvetica" font-size="10" font-weight="normal" font-style="normal" fill="#000000" fill-opacity="1">4k</text>
  <path d="M 902.22 9 L 902.22 441" fill="none" stroke-width="0.75" stroke="#000000" stroke-opacity="0.49804" stroke-linecap="butt" stroke-linejoin="round"/>
  <text x="896.72" y="453.7" font-family="Helvetica" font-size="10" font-weight="normal" font-style="normal" fill="#000000" fill-opacity="1">8k</text>
  <path d="M 967.78 9 L 967.78 441" fill="none" stroke-width="0.75" stroke="#000000" stroke-opacity="0.49804" stroke-linecap="butt" stroke-linejoin="round"/>
  <text x="959.28" y="453.7" font-family="Helvetica" font-size="10" font-weight="normal" font-style="normal" fill="#000000" fill-opacity="1">16k</text>
  <path d="M 1033.3 9 L 1033.3 441" fill="none" stroke-width="0.75" stroke="#000000" stroke-opacity="0.49804" stroke-linecap="butt" stroke-linejoin="round"/>
  <text x="1024.8" y="453.7" font-family="Helvetica" font-size="10" font-weight="normal" font-style="normal" fill="#000000" fill-opacity="1">32k</text>
  <path d="M 1098.9 9 L 1098.9 441" fill="none" stroke-width="0.75" stroke="#000000" stroke-opacity="0.49804" stroke-linecap="butt" stroke-linejoin="round"/>
  <text x="1090.4" y="453.7" font-family="Helvetica" font-size="10" font-weight="normal" font-style="normal" fill="#000000" fill-opacity="1">64k</text>
  <path d="M 1164.4 9 L 1164.4 441" fill="none" stroke-width="0.75" stroke="#000000" stroke-opacity="0.49804" stroke-linecap="butt" stroke-linejoin="round"/>
  <text x="1153.4" y="453.7" font-family="Helvetica" font-size="10" font-weight="normal" font-style="normal" fill="#000000" fill-opacity="1">128k</text>
  <path d="M 1230 9 L 1230 441" fill="none" stroke-width="0.75" stroke="#000000" stroke-opacity="0.49804" stroke-linecap="butt" stroke-linejoin="round"/>
  <text x="1219" y="453.7" font-family="Helvetica" font-size="10" font-weight="normal" font-style="normal" fill="#000000" fill-opacity="1">256k</text>
  <path d="M 50 441 L 1230 441" fill="none" stroke-width="0.75" stroke="#000000" stroke-opacity="0.49804" stroke-linecap="butt" stroke-linejoin="round"/>
  <text x="27" y="442.7" font-family="Helvetica" font-size="10" font-weight="normal" font-style="normal" fill="#000000" fill-opacity="1">1 ns</text>
  <text x="1236" y="442.7" font-family="Helvetica" font-size="10" font-weight="normal" font-style="normal" fill="#000000" fill-opacity="1">1 ns</text>
  <path d="M 50 354.6 L 1230 354.6" fill="none" stroke-width="0.75" stroke="#000000" stroke-opacity="0.49804" stroke-linecap="butt" stroke-linejoin="round"/>
  <text x="21" y="356.3" font-family="Helvetica" font-size="10" font-weight="normal" font-style="normal" fill="#000000" fill-opacity="1">10 ns</text>
  <text x="1236" y="356.3" font-family="Helvetica" font-size="10" font-weight="normal" font-style="normal" fill="#000000" fill-opacity="1">10 ns</text>
  <path d="M 50 268.2 L 1230 268.2" fill="none" stroke-width="0.75" stroke="#000000" stroke-opacity="0.49804" stroke-linecap="butt" stroke-linejoin="round"/>
  <text x="16" y="269.9" font-family="Helvetica" font-size="10" font-weight="normal" font-style="normal" fill="#000000" fill-opacity="1">100 ns</text>
  <text x="1236" y="269.9" font-family="Helvetica" font-size="10" font-weight="normal" font-style="normal" fill="#000000" fill-opacity="1">100 ns</text>
  <path d="M 50 181.8 L 1230 181.8" fill="none" stroke-width="0.75" stroke="#000000" stroke-opacity="0.49804" stroke-linecap="butt" stroke-linejoin="round"/>
  <text x="26" y="183.5" font-family="Helvetica" font-size="10" font-weight="normal" font-style="normal" fill="#000000" fill-opacity="1">1 µs</text>
  <text x="1236" y="183.5" font-family="Helvetica" font-size="10" font-weight="normal" font-style="normal" fill="#000000" fill-opacity="1">1 µs</text>
  <path d="M 50 95.4 L 1230 95.4" fill="none" stroke-width="0.75" stroke="#000000" stroke-opacity="0.49804" stroke-linecap="butt" stroke-linejoin="round"/>
  <text x="21" y="97.1" font-family="Helvetica" font-size="10" font-weight="normal" font-style="normal" fill="#000000" fill-opacity="1">10 µs</text>
  <text x="1236" y="97.1" font-family="Helvetica" font-size="10" font-weight="normal" font-style="normal" fill="#000000" fill-opacity="1">10 µs</text>
  <path d="M 50 9 L 1230 9" fill="none" stroke-width="0.75" stroke="#000000" stroke-opacity="0.49804" stroke-linecap="butt" stroke-linejoin="round"/>
  <text x="15" y="10.7" font-family="Helvetica" font-size="10" font-weight="normal" font-style="normal" fill="#000000" fill-opacity="1">100 µs</text>
  <text x="1236" y="10.7" font-family="Helvetica" font-size="10" font-weight="normal" font-style="normal" fill="#000000" fill-opacity="1">100 µs</text>
  <path d="M 50 414.99 L 1230 414.99" fill="none" stroke-width="0.5" stroke="#000000" stroke-opacity="0.25882" stroke-linecap="butt" stroke-linejoin="round" stroke-dasharray="6 3" stroke-dashoffset="0"/>
  <path d="M 50 388.98 L 1230 388.98" fill="none" stroke-width="0.5" stroke="#000000" stroke-opacity="0.25882" stroke-linecap="butt" stroke-linejoin="round" stroke-dasharray="6 3" stroke-dashoffset="0"/>
  <path d="M 50 362.97 L 1230 362.97" fill="none" stroke-width="0.5" stroke="#000000" stroke-opacity="0.25882" stroke-linecap="butt" stroke-linejoin="round" stroke-dasharray="6 3" stroke-dashoffset="0"/>
  <path d="M 50 336.96 L 1230 336.96" fill="none" stroke-width="0.5" stroke="#000000" stroke-opacity="0.25882" stroke-linecap="butt" stroke-linejoin="round" stroke-dasharray="6 3" stroke-dashoffset="0"/>
  <path d="M 50 310.96 L 1230 310.96" fill="none" stroke-width="0.5" stroke="#000000" stroke-opacity="0.25882" stroke-linecap="butt" stroke-linejoin="round" stroke-dasharray="6 3" stroke-dashoffset="0"/>
  <path d="M 50 284.95 L 1230 284.95" fill="none" stroke-width="0.5" stroke="#000000" stroke-opacity="0.25882" stroke-linecap="butt" stroke-linejoin="round" stroke-dasharray="6 3" stroke-dashoffset="0"/>
  <path d="M 50 258.94 L 1230 258.94" fill="none" stroke-width="0.5" stroke="#000000" stroke-opacity="0.25882" stroke-linecap="butt" stroke-linejoin="round" stroke-dasharray="6 3" stroke-dashoffset="0"/>
  <path d="M 50 232.93 L 1230 232.93" fill="none" stroke-width="0.5" stroke="#000000" stroke-opacity="0.25882" stroke-linecap="butt" stroke-linejoin="round" stroke-dasharray="6 3" stroke-dashoffset="0"/>
  <path d="M 50 206.92 L 1230 206.92" fill="none" stroke-width="0.5" stroke="#000000" stroke-opacity="0.25882" stroke-linecap="butt" stroke-linejoin="round" stroke-dasharray="6 3" stroke-dashoffset="0"/>
  <path d="M 50 180.91 L 1230 180.91" fill="none" stroke-width="0.5" stroke="#000000" stroke-opacity="0.25882" stroke-linecap="butt" stroke-linejoin="round" stroke-dasharray="6 3" stroke-dashoffset="0"/>
  <path d="M 50 154.9 L 1230 154.9" fill="none" stroke-width="0.5" stroke="#000000" stroke-opacity="0.25882" stroke-linecap="butt" stroke-linejoin="round" stroke-dasharray="6 3" stroke-dashoffset="0"/>
  <path d="M 50 128.89 L 1230 128.89" fill="none" stroke-width="0.5" stroke="#000000" stroke-opacity="0.25882" stroke-linecap="butt" stroke-linejoin="round" stroke-dasharray="6 3" stroke-dashoffset="0"/>
  <path d="M 50 102.88 L 1230 102.88" fill="none" stroke-width="0.5" stroke="#000000" stroke-opacity="0.25882" stroke-linecap="butt" stroke-linejoin="round" stroke-dasharray="6 3" stroke-dashoffset="0"/>
  <path d="M 50 76.874 L 1230 76.874" fill="none" stroke-width="0.5" stroke="#000000" stroke-opacity="0.25882" stroke-linecap="butt" stroke-linejoin="round" stroke-dasharray="6 3" stroke-dashoffset="0"/>
  <path d="M 50 50.865 L 1230 50.865" fill="none" stroke-width="0.5" stroke="#000000" stroke-opacity="0.25882" stroke-linecap="butt" stroke-linejoin="round" stroke-dasharray="6 3" stroke-dashoffset="0"/>
  <path d="M 50 24.856 L 1230 24.856" fill="none" stroke-width="0.5" stroke="#000000" stroke-opacity="0.25882" stroke-linecap="butt" stroke-linejoin="round" stroke-dasharray="6 3" stroke-dashoffset="0"/>
  <path d="M 74 33 L 74 88 L 435 88 L 435 33 z" fill="#FFFFFF" fill-opacity="1.0" stroke="none"/>
  <clipPath id="clip-0">
    <path d="M 50 9 L 50 441 L 1230 441 L 1230 9 z"/>
  </clipPath>
  <g clip-path="url(#clip-0)">
    <path d="M 50 244.7L 115.56 259.45L 153.9 267.68L 181.11 271.81L 202.22 272.85L 219.46 274.21L 234.04 266.05L 246.67 268.62L 267.77 268.4L 285.01 269.27L 299.59 270.48L 312.22 271.8L 333.33 272.21L 350.57 272.46L 365.15 272.28L 377.78 272.35L 398.88 271.89L 416.13 271.3L 430.7 272.45L 443.33 270.8L 464.44 269.75L 481.68 269.29L 496.26 268.42L 508.89 267.88L 529.99 267.75L 547.24 267.46L 561.82 268.38L 574.44 265.34L 595.55 263.29L 612.79 262.92L 627.37 262.35L 640 262.38L 661.1 261.98L 678.35 260.42L 692.93 260.36L 705.56 263.59L 726.66 258.71L 743.9 258.33L 758.48 257.08L 771.11 258.08L 792.22 255.9L 809.46 255.7L 824.04 254.48L 836.67 256.39L 857.77 252.94L 875.01 253.01L 889.59 253.48L 902.22 252.03L 923.33 252.18L 940.57 252.77L 955.15 252.1L 967.78 250.34L 988.88 250.04L 1006.1 249.18L 1020.7 246.85L 1033.3 248.88L 1054.4 249.5L 1071.7 247.75L 1071.7 247.75L 1054.4 249.5L 1033.3 248.88L 1020.7 246.85L 1006.1 249.18L 988.88 250.04L 967.78 250.34L 955.15 252.1L 940.57 252.77L 923.33 252.18L 902.22 252.03L 889.59 253.48L 875.01 253.01L 857.77 252.94L 836.67 256.39L 824.04 254.48L 809.46 255.7L 792.22 255.9L 771.11 258.08L 758.48 257.08L 743.9 258.33L 726.66 258.71L 705.56 263.59L 692.93 260.36L 678.35 260.42L 661.1 261.98L 640 262.38L 627.37 262.35L 612.79 262.92L 595.55 263.29L 574.44 265.34L 561.82 268.38L 547.24 267.46L 529.99 267.75L 508.89 267.88L 496.26 268.42L 481.68 269.29L 464.44 269.75L 443.33 270.8L 430.7 272.45L 416.13 271.3L 398.88 271.89L 377.78 272.35L 365.15 272.28L 350.57 272.46L 333.33 272.21L 312.22 271.8L 299.59 270.48L 285.01 269.27L 267.77 268.4L 246.67 268.62L 234.04 266.05L 219.46 274.21L 202.22 272.85L 181.11 271.81L 153.9 267.68L 115.56 259.45L 50 244.7" fill="#007AFF" fill-opacity="0.30196078431372547" stroke="none"/>
    <path d="M 50 287.11L 115.56 311.1L 153.9 323.06L 181.11 332.06L 202.22 337.81L 219.46 343.81L 234.04 346.71L 246.67 347.92L 267.77 356.05L 285.01 360.67L 299.59 363.66L 312.22 366.99L 333.33 372.11L 350.57 372.82L 365.15 375.41L 377.78 364.42L 398.88 367.89L 416.13 368.63L 430.7 368.77L 443.33 368.95L 464.44 367.55L 481.68 364.18L 496.26 361.14L 508.89 360.62L 529.99 354.27L 547.24 349.16L 561.82 335.58L 574.44 339.77L 595.55 316.51L 612.79 326.42L 627.37 320.94L 640 307.85L 661.1 307.08L 678.35 292.06L 692.93 286.15L 705.56 290.48L 726.66 281.76L 743.9 270.1L 758.48 261.99L 771.11 261.44L 792.22 254.39L 809.46 246.47L 824.04 241.37L 836.67 238.05L 857.77 228.6L 875.01 222.35L 889.59 215.51L 902.22 211.26L 923.33 201.5L 940.57 194.7L 955.15 186.65L 967.78 181.97L 988.88 172.76L 1006.1 161.48L 1020.7 156.2L 1033.3 150L 1054.4 139.63L 1071.7 131.68L 1086.3 126.93L 1098.9 120.6L 1120 113.13L 1137.2 105.68L 1151.8 100.39L 1164.4 95.356L 1185.5 86.432L 1185.5 86.91L 1164.4 95.741L 1151.8 100.75L 1137.2 106.69L 1120 113.47L 1098.9 122.11L 1086.3 127.3L 1071.7 132.56L 1054.4 139.95L 1033.3 150.39L 1020.7 156.35L 1006.1 163.52L 988.88 172.98L 967.78 185.39L 955.15 190.43L 940.57 196.28L 923.33 203.2L 902.22 211.61L 889.59 216.76L 875.01 222.68L 857.77 229.54L 836.67 238.18L 824.04 241.79L 809.46 247.87L 792.22 254.92L 771.11 262.75L 758.48 269.89L 743.9 271.03L 726.66 282.55L 705.56 290.59L 692.93 291.08L 678.35 299L 661.1 307.96L 640 315.22L 627.37 321.06L 612.79 326.47L 595.55 332.64L 574.44 339.86L 561.82 344.15L 547.24 349.26L 529.99 355L 508.89 360.64L 496.26 362.27L 481.68 365.24L 464.44 367.76L 443.33 369.92L 430.7 370.28L 416.13 371.16L 398.88 370.76L 377.78 370.33L 365.15 375.6L 350.57 374.27L 333.33 372.11L 312.22 366.99L 299.59 363.93L 285.01 360.67L 267.77 356.36L 246.67 353.22L 234.04 347.98L 219.46 343.81L 202.22 338.97L 181.11 332.07L 153.9 323.48L 115.56 311.1L 50 287.11" fill="#FF3B30" fill-opacity="0.30196078431372547" stroke="none"/>
    <path d="M 50 244.7L 115.56 259.45L 153.9 267.68L 181.11 271.81L 202.22 272.85L 219.46 274.21L 234.04 266.05L 246.67 268.62L 267.77 268.4L 285.01 269.27L 299.59 270.48L 312.22 271.8L 333.33 272.21L 350.57 272.46L 365.15 272.28L 377.78 272.35L 398.88 271.89L 416.13 271.3L 430.7 272.45L 443.33 270.8L 464.44 269.75L 481.68 269.29L 496.26 268.42L 508.89 267.88L 529.99 267.75L 547.24 267.46L 561.82 268.38L 574.44 265.34L 595.55 263.29L 612.79 262.92L 627.37 262.35L 640 262.38L 661.1 261.98L 678.35 260.42L 692.93 260.36L 705.56 263.59L 726.66 258.71L 743.9 258.33L 758.48 257.08L 771.11 258.08L 792.22 255.9L 809.46 255.7L 824.04 254.48L 836.67 256.39L 857.77 252.94L 875.01 253.01L 889.59 253.48L 902.22 252.03L 923.33 252.18L 940.57 252.77L 955.15 252.1L 967.78 250.34L 988.88 250.04L 1006.1 249.18L 1020.7 246.85L 1033.3 248.88L 1054.4 249.5L 1071.7 247.75" fill="none" stroke-width="4" stroke="#007AFF" stroke-opacity="1" stroke-linecap="round" stroke-linejoin="round"/>
    <path d="M 50 287.11L 115.56 311.1L 153.9 323.37L 181.11 332.07L 202.22 338.66L 219.46 343.81L 234.04 347.65L 246.67 351.76L 267.77 356.28L 285.01 360.67L 299.59 363.86L 312.22 366.99L 333.33 372.11L 350.57 373.89L 365.15 375.55L 377.78 368.69L 398.88 369.99L 416.13 370.48L 430.7 369.88L 443.33 369.67L 464.44 367.71L 481.68 364.96L 496.26 361.97L 508.89 360.64L 529.99 354.81L 547.24 349.23L 561.82 341.72L 574.44 339.84L 595.55 327.72L 612.79 326.45L 627.37 321.03L 640 313.15L 661.1 307.73L 678.35 297.06L 692.93 289.73L 705.56 290.56L 726.66 282.34L 743.9 270.78L 758.48 267.66L 771.11 262.41L 792.22 254.78L 809.46 247.5L 824.04 241.68L 836.67 238.15L 857.77 229.29L 875.01 222.6L 889.59 216.43L 902.22 211.52L 923.33 202.75L 940.57 195.86L 955.15 189.41L 967.78 184.47L 988.88 172.92L 1006.1 162.97L 1020.7 156.31L 1033.3 150.29L 1054.4 139.86L 1071.7 132.33L 1086.3 127.2L 1098.9 121.71L 1120 113.38L 1137.2 106.42L 1151.8 100.65L 1164.4 95.64L 1185.5 86.785" fill="none" stroke-width="4" stroke="#FF3B30" stroke-opacity="1" stroke-linecap="round" stroke-linejoin="round"/>
    <path d="M 50 244.7L 115.56 259.45L 153.9 267.68L 181.11 271.81L 202.22 272.85L 219.46 274.21L 234.04 266.05L 246.67 268.62L 267.77 268.4L 285.01 269.27L 299.59 270.48L 312.22 271.8L 333.33 272.21L 350.57 272.46L 365.15 272.28L 377.78 272.35L 398.88 271.89L 416.13 271.3L 430.7 272.45L 443.33 270.8L 464.44 269.75L 481.68 269.29L 496.26 268.42L 508.89 267.88L 529.99 267.75L 547.24 267.46L 561.82 268.38L 574.44 265.34L 595.55 263.29L 612.79 262.92L 627.37 262.35L 640 262.38L 661.1 261.98L 678.35 260.42L 692.93 260.36L 705.56 263.59L 726.66 258.71L 743.9 258.33L 758.48 257.08L 771.11 258.08L 792.22 255.9L 809.46 255.7L 824.04 254.48L 836.67 256.39L 857.77 252.94L 875.01 253.01L 889.59 253.48L 902.22 252.03L 923.33 252.18L 940.57 252.77L 955.15 252.1L 967.78 250.34L 988.88 250.04L 1006.1 249.18L 1020.7 246.85L 1033.3 248.88L 1054.4 249.5L 1071.7 247.75" fill="none" stroke-width="0.5" stroke="#000000" stroke-opacity="0.30196" stroke-linecap="round" stroke-linejoin="round"/>
    <path d="M 50 287.11L 115.56 311.1L 153.9 323.37L 181.11 332.07L 202.22 338.66L 219.46 343.81L 234.04 347.65L 246.67 351.76L 267.77 356.28L 285.01 360.67L 299.59 363.86L 312.22 366.99L 333.33 372.11L 350.57 373.89L 365.15 375.55L 377.78 368.69L 398.88 369.99L 416.13 370.48L 430.7 369.88L 443.33 369.67L 464.44 367.71L 481.68 364.96L 496.26 361.97L 508.89 360.64L 529.99 354.81L 547.24 349.23L 561.82 341.72L 574.44 339.84L 595.55 327.72L 612.79 326.45L 627.37 321.03L 640 313.15L 661.1 307.73L 678.35 297.06L 692.93 289.73L 705.56 290.56L 726.66 282.34L 743.9 270.78L 758.48 267.66L 771.11 262.41L 792.22 254.78L 809.46 247.5L 824.04 241.68L 836.67 238.15L 857.77 229.29L 875.01 222.6L 889.59 216.43L 902.22 211.52L 923.33 202.75L 940.57 195.86L 955.15 189.41L 967.78 184.47L 988.88 172.92L 1006.1 162.97L 1020.7 156.31L 1033.3 150.29L 1054.4 139.86L 1071.7 132.33L 1086.3 127.2L 1098.9 121.71L 1120 113.38L 1137.2 106.42L 1151.8 100.65L 1164.4 95.64L 1185.5 86.785" fill="none" stroke-width="0.5" stroke="#000000" stroke-opacity="0.30196" stroke-linecap="round" stroke-linejoin="round"/>
  </g>
  <path d="M 74 33 L 74 88 L 435 88 L 435 33 z" fill="#FFFFFF" fill-opacity="0.7019607843137254" stroke-width="0.5" stroke="#000000" stroke-opacity="1" stroke-linecap="round" stroke-linejoin="round"/>
  <path d="M 88 52 L 108 52" fill="none" stroke-width="4" stroke="#FF3B30" stroke-opacity="1" stroke-linecap="round" stroke-linejoin="round"/>
  <path d="M 88 52 L 108 52" fill="none" stroke-width="0.5" stroke="#000000" stroke-opacity="0.30196" stroke-linecap="round" stroke-linejoin="round"/>
  <text x="119" y="56.17" font-family="Menlo" font-size="12" font-weight="normal" font-style="normal" fill="#000000" fill-opacity="1">Array&lt;Int&gt; prepend, reserving capacity</text>
  <path d="M 88 69 L 108 69" fill="none" stroke-width="4" stroke="#007AFF" stroke-opacity="1" stroke-linecap="round" stroke-linejoin="round"/>
  <path d="M 88 69 L 108 69" fill="none" stroke-width="0.5" stroke="#000000" stroke-opacity="0.30196" stroke-linecap="round" stroke-linejoin="round"/>
  <text x="119" y="73.17" font-family="Menlo" font-size="12" font-weight="normal" font-style="normal" fill="#000000" fill-opacity="1">TreeArray&lt;Int&gt; prepend, reserving capacity</text>
  <path d="M 50 9 L 50 441 L 1230 441 L 1230 9 z" fill="none" stroke-width="0.5" stroke="#000000" stroke-opacity="1" stroke-linecap="round" stroke-linejoin="round"/>
</svg>
