<!DOCTYPE svg PUBLIC "-//W3C//DTD SVG 1.1//EN" "http://www.w3.org/Graphics/SVG/1.1/DTD/svg11.dtd">
<svg width="1280.0px" height="480.0px" viewBox="0.0 0.0 1280.0 480.0" xmlns="http://www.w3.org/2000/svg" xmlns:xlink="http://www.w3.org/1999/xlink" version="1.1">
  <path d="M 0 0 L 0 480 L 1280 480 L 1280 0 z" fill="#FFFFFF" fill-opacity="1.0" stroke="none"/>
  <text x="50" y="468.7" font-family="Helvetica" font-size="10" font-weight="normal" font-style="normal" fill="#000000" fill-opacity="1">Average per-element processing time over input size (bands: min, mean, mean + 2stddev)</text>
  <a xlink:href="https://github.com/apple/swift-collections-benchmark"><text x="1107" y="468.7" font-family="Helvetica" font-size="10" font-weight="normal" font-style="normal" fill="#000000" fill-opacity="1">swift-collections-benchmark</text></a>
  <path d="M 50 9 L 50 441" fill="none" stroke-width="0.75" stroke="#000000" stroke-opacity="0.49804" stroke-linecap="butt" stroke-linejoin="round"/>
  <text x="47" y="453.7" font-family="Helvetica" font-size="10" font-weight="normal" font-style="normal" fill="#000000" fill-opacity="1">1</text>
  <path d="M 109 9 L 109 441" fill="none" stroke-width="0.75" stroke="#000000" stroke-opacity="0.49804" stroke-linecap="butt" stroke-linejoin="round"/>
  <text x="106" y="453.7" font-family="Helvetica" font-size="10" font-weight="normal" font-style="normal" fill="#000000" fill-opacity="1">2</text>
  <path d="M 168 9 L 168 441" fill="none" stroke-width="0.75" stroke="#000000" stroke-opacity="0.49804" stroke-linecap="butt" stroke-linejoin="round"/>
  <text x="165" y="453.7" font-family="Helvetica" font-size="10" font-weight="normal" font-style="normal" fill="#000000" fill-opacity="1">4</text>
  <path d="M 227 9 L 227 441" fill="none" stroke-width="0.75" stroke="#000000" stroke-opacity="0.49804" stroke-linecap="butt" stroke-linejoin="round"/>
  <text x="224" y="453.7" font-family="Helvetica" font-size="10" font-weight="normal" font-style="normal" fill="#000000" fill-opacity="1">8</text>
  <path d="M 286 9 L 286 441" fill="none" stroke-width="0.75" stroke="#000000" stroke-opacity="0.49804" stroke-linecap="butt" stroke-linejoin="round"/>
  <text x="280" y="453.7" font-family="Helvetica" font-size="10" font-weight="normal" font-style="normal" fill="#000000" fill-opacity="1">16</text>
  <path d="M 345 9 L 345 441" fill="none" stroke-width="0.75" stroke="#000000" stroke-opacity="0.49804" stroke-linecap="butt" stroke-linejoin="round"/>
  <text x="339" y="453.7" font-family="Helvetica" font-size="10" font-weight="normal" font-style="normal" fill="#000000" fill-opacity="1">32</text>
  <path d="M 404 9 L 404 441" fill="none" stroke-width="0.75" stroke="#000000" stroke-opacity="0.49804" stroke-linecap="butt" stroke-linejoin="round"/>
  <text x="398" y="453.7" font-family="Helvetica" font-size="10" font-weight="normal" font-style="normal" fill="#000000" fill-opacity="1">64</text>
  <path d="M 463 9 L 463 441" fill="none" stroke-width="0.75" stroke="#000000" stroke-opacity="0.49804" stroke-linecap="butt" stroke-linejoin="round"/>
  <text x="454.5" y="453.7" font-family="Helvetica" font-size="10" font-weight="normal" font-style="normal" fill="#000000" fill-opacity="1">128</text>
  <path d="M 522 9 L 522 441" fill="none" stroke-width="0.75" stroke="#000000" stroke-opacity="0.49804" stroke-linecap="butt" stroke-linejoin="round"/>
  <text x="513.5" y="453.7" font-family="Helvetica" font-size="10" font-weight="normal" font-style="normal" fill="#000000" fill-opacity="1">256</text>
  <path d="M 581 9 L 581 441" fill="none" stroke-width="0.75" stroke="#000000" stroke-opacity="0.49804" stroke-linecap="butt" stroke-linejoin="round"/>
  <text x="572.5" y="453.7" font-family="Helvetica" font-size="10" font-weight="normal" font-style="normal" fill="#000000" fill-opacity="1">512</text>
  <path d="M 640 9 L 640 441" fill="none" stroke-width="0.75" stroke="#000000" stroke-opacity="0.49804" stroke-linecap="butt" stroke-linejoin="round"/>
  <text x="634.5" y="453.7" font-family="Helvetica" font-size="10" font-weight="normal" font-style="normal" fill="#000000" fill-opacity="1">1k</text>
  <path d="M 699 9 L 699 441" fill="none" stroke-width="0.75" stroke="#000000" stroke-opacity="0.49804" stroke-linecap="butt" stroke-linejoin="round"/>
  <text x="693.5" y="453.7" font-family="Helvetica" font-size="10" font-weight="normal" font-style="normal" fill="#000000" fill-opacity="1">2k</text>
  <path d="M 758 9 L 758 441" fill="none" stroke-width="0.75" stroke="#000000" stroke-opacity="0.49804" stroke-linecap="butt" stroke-linejoin="round"/>
  <text x="752.5" y="453.7" font-family="Helvetica" font-size="10" font-weight="normal" font-style="normal" fill="#000000" fill-opacity="1">4k</text>
  <path d="M 817 9 L 817 441" fill="none" stroke-width="0.75" stroke="#000000" stroke-opacity="0.49804" stroke-linecap="butt" stroke-linejoin="round"/>
  <text x="811.5" y="453.7" font-family="Helvetica" font-size="10" font-weight="normal" font-style="normal" fill="#000000" fill-opacity="1">8k</text>
  <path d="M 876 9 L 876 441" fill="none" stroke-width="0.75" stroke="#000000" stroke-opacity="0.49804" stroke-linecap="butt" stroke-linejoin="round"/>
  <text x="867.5" y="453.7" font-family="Helvetica" font-size="10" font-weight="normal" font-style="normal" fill="#000000" fill-opacity="1">16k</text>
  <path d="M 935 9 L 935 441" fill="none" stroke-width="0.75" stroke="#000000" stroke-opacity="0.49804" stroke-linecap="butt" stroke-linejoin="round"/>
  <text x="926.5" y="453.7" font-family="Helvetica" font-size="10" font-weight="normal" font-style="normal" fill="#000000" fill-opacity="1">32k</text>
  <path d="M 994 9 L 994 441" fill="none" stroke-width="0.75" stroke="#000000" stroke-opacity="0.49804" stroke-linecap="butt" stroke-linejoin="round"/>
  <text x="985.5" y="453.7" font-family="Helvetica" font-size="10" font-weight="normal" font-style="normal" fill="#000000" fill-opacity="1">64k</text>
  <path d="M 1053 9 L 1053 441" fill="none" stroke-width="0.75" stroke="#000000" stroke-opacity="0.49804" stroke-linecap="butt" stroke-linejoin="round"/>
  <text x="1042" y="453.7" font-family="Helvetica" font-size="10" font-weight="normal" font-style="normal" fill="#000000" fill-opacity="1">128k</text>
  <path d="M 1112 9 L 1112 441" fill="none" stroke-width="0.75" stroke="#000000" stroke-opacity="0.49804" stroke-linecap="butt" stroke-linejoin="round"/>
  <text x="1101" y="453.7" font-family="Helvetica" font-size="10" font-weight="normal" font-style="normal" fill="#000000" fill-opacity="1">256k</text>
  <path d="M 1171 9 L 1171 441" fill="none" stroke-width="0.75" stroke="#000000" stroke-opacity="0.49804" stroke-linecap="butt" stroke-linejoin="round"/>
  <text x="1160" y="453.7" font-family="Helvetica" font-size="10" font-weight="normal" font-style="normal" fill="#000000" fill-opacity="1">512k</text>
  <path d="M 1230 9 L 1230 441" fill="none" stroke-width="0.75" stroke="#000000" stroke-opacity="0.49804" stroke-linecap="butt" stroke-linejoin="round"/>
  <text x="1223" y="453.7" font-family="Helvetica" font-size="10" font-weight="normal" font-style="normal" fill="#000000" fill-opacity="1">1M</text>
  <path d="M 50 441 L 1230 441" fill="none" stroke-width="0.75" stroke="#000000" stroke-opacity="0.49804" stroke-linecap="butt" stroke-linejoin="round"/>
  <text x="27" y="442.7" font-family="Helvetica" font-size="10" font-weight="normal" font-style="normal" fill="#000000" fill-opacity="1">1 ns</text>
  <text x="1236" y="442.7" font-family="Helvetica" font-size="10" font-weight="normal" font-style="normal" fill="#000000" fill-opacity="1">1 ns</text>
  <path d="M 50 354.6 L 1230 354.6" fill="none" stroke-width="0.75" stroke="#000000" stroke-opacity="0.49804" stroke-linecap="butt" stroke-linejoin="round"/>
  <text x="21" y="356.3" font-family="Helvetica" font-size="10" font-weight="normal" font-style="normal" fill="#000000" fill-opacity="1">10 ns</text>
  <text x="1236" y="356.3" font-family="Helvetica" font-size="10" font-weight="normal" font-style="normal" fill="#000000" fill-opacity="1">10 ns</text>
  <path d="M 50 268.2 L 1230 268.2" fill="none" stroke-width="0.75" stroke="#000000" stroke-opacity="0.49804" stroke-linecap="butt" stroke-linejoin="round"/>
  <text x="16" y="269.9" font-family="Helvetica" font-size="10" font-weight="normal" font-style="normal" fill="#000000" fill-opacity="1">100 ns</text>
  <text x="1236" y="269.9" font-family="Helvetica" font-size="10" font-weight="normal" font-style="normal" fill="#000000" fill-opacity="1">100 ns</text>
  <path d="M 50 181.8 L 1230 181.8" fill="none" stroke-width="0.75" stroke="#000000" stroke-opacity="0.49804" stroke-linecap="butt" stroke-linejoin="round"/>
  <text x="26" y="183.5" font-family="Helvetica" font-size="10" font-weight="normal" font-style="normal" fill="#000000" fill-opacity="1">1 µs</text>
  <text x="1236" y="183.5" font-family="Helvetica" font-size="10" font-weight="normal" font-style="normal" fill="#000000" fill-opacity="1">1 µs</text>
  <path d="M 50 95.4 L 1230 95.4" fill="none" stroke-width="0.75" stroke="#000000" stroke-opacity="0.49804" stroke-linecap="butt" stroke-linejoin="round"/>
  <text x="21" y="97.1" font-family="Helvetica" font-size="10" font-weight="normal" font-style="normal" fill="#000000" fill-opacity="1">10 µs</text>
  <text x="1236" y="97.1" font-family="Helvetica" font-size="10" font-weight="normal" font-style="normal" fill="#000000" fill-opacity="1">10 µs</text>
  <path d="M 50 9 L 1230 9" fill="none" stroke-width="0.75" stroke="#000000" stroke-opacity="0.49804" stroke-linecap="butt" stroke-linejoin="round"/>
  <text x="15" y="10.7" font-family="Helvetica" font-size="10" font-weight="normal" font-style="normal" fill="#000000" fill-opacity="1">100 µs</text>
  <text x="1236" y="10.7" font-family="Helvetica" font-size="10" font-weight="normal" font-style="normal" fill="#000000" fill-opacity="1">100 µs</text>
  <path d="M 50 414.99 L 1230 414.99" fill="none" stroke-width="0.5" stroke="#000000" stroke-opacity="0.25882" stroke-linecap="butt" stroke-linejoin="round" stroke-dasharray="6 3" stroke-dashoffset="0"/>
  <path d="M 50 388.98 L 1230 388.98" fill="none" stroke-width="0.5" stroke="#000000" stroke-opacity="0.25882" stroke-linecap="butt" stroke-linejoin="round" stroke-dasharray="6 3" stroke-dashoffset="0"/>
  <path d="M 50 362.97 L 1230 362.97" fill="none" stroke-width="0.5" stroke="#000000" stroke-opacity="0.25882" stroke-linecap="butt" stroke-linejoin="round" stroke-dasharray="6 3" stroke-dashoffset="0"/>
  <path d="M 50 336.96 L 1230 336.96" fill="none" stroke-width="0.5" stroke="#000000" stroke-opacity="0.25882" stroke-linecap="butt" stroke-linejoin="round" stroke-dasharray="6 3" stroke-dashoffset="0"/>
  <path d="M 50 310.96 L 1230 310.96" fill="none" stroke-width="0.5" stroke="#000000" stroke-opacity="0.25882" stroke-linecap="butt" stroke-linejoin="round" stroke-dasharray="6 3" stroke-dashoffset="0"/>
  <path d="M 50 284.95 L 1230 284.95" fill="none" stroke-width="0.5" stroke="#000000" stroke-opacity="0.25882" stroke-linecap="butt" stroke-linejoin="round" stroke-dasharray="6 3" stroke-dashoffset="0"/>
  <path d="M 50 258.94 L 1230 258.94" fill="none" stroke-width="0.5" stroke="#000000" stroke-opacity="0.25882" stroke-linecap="butt" stroke-linejoin="round" stroke-dasharray="6 3" stroke-dashoffset="0"/>
  <path d="M 50 232.93 L 1230 232.93" fill="none" stroke-width="0.5" stroke="#000000" stroke-opacity="0.25882" stroke-linecap="butt" stroke-linejoin="round" stroke-dasharray="6 3" stroke-dashoffset="0"/>
  <path d="M 50 206.92 L 1230 206.92" fill="none" stroke-width="0.5" stroke="#000000" stroke-opacity="0.25882" stroke-linecap="butt" stroke-linejoin="round" stroke-dasharray="6 3" stroke-dashoffset="0"/>
  <path d="M 50 180.91 L 1230 180.91" fill="none" stroke-width="0.5" stroke="#000000" stroke-opacity="0.25882" stroke-linecap="butt" stroke-linejoin="round" stroke-dasharray="6 3" stroke-dashoffset="0"/>
  <path d="M 50 154.9 L 1230 154.9" fill="none" stroke-width="0.5" stroke="#000000" stroke-opacity="0.25882" stroke-linecap="butt" stroke-linejoin="round" stroke-dasharray="6 3" stroke-dashoffset="0"/>
  <path d="M 50 128.89 L 1230 128.89" fill="none" stroke-width="0.5" stroke="#000000" stroke-opacity="0.25882" stroke-linecap="butt" stroke-linejoin="round" stroke-dasharray="6 3" stroke-dashoffset="0"/>
  <path d="M 50 102.88 L 1230 102.88" fill="none" stroke-width="0.5" stroke="#000000" stroke-opacity="0.25882" stroke-linecap="butt" stroke-linejoin="round" stroke-dasharray="6 3" stroke-dashoffset="0"/>
  <path d="M 50 76.874 L 1230 76.874" fill="none" stroke-width="0.5" stroke="#000000" stroke-opacity="0.25882" stroke-linecap="butt" stroke-linejoin="round" stroke-dasharray="6 3" stroke-dashoffset="0"/>
  <path d="M 50 50.865 L 1230 50.865" fill="none" stroke-width="0.5" stroke="#000000" stroke-opacity="0.25882" stroke-linecap="butt" stroke-linejoin="round" stroke-dasharray="6 3" stroke-dashoffset="0"/>
  <path d="M 50 24.856 L 1230 24.856" fill="none" stroke-width="0.5" stroke="#000000" stroke-opacity="0.25882" stroke-linecap="butt" stroke-linejoin="round" stroke-dasharray="6 3" stroke-dashoffset="0"/>
  <path d="M 74 33 L 74 88 L 435 88 L 435 33 z" fill="#FFFFFF" fill-opacity="1.0" stroke="none"/>
  <clipPath id="clip-0">
    <path d="M 50 9 L 50 441 L 1230 441 L 1230 9 z"/>
  </clipPath>
  <g clip-path="url(#clip-0)">
    <path d="M 50 244.62L 109 259.2L 143.51 263.42L 168 265.86L 186.99 266.58L 202.51 267.88L 215.63 268.35L 227 255.64L 245.99 264.38L 261.51 264.83L 274.63 264.46L 286 266.8L 304.99 266.52L 320.51 266.26L 333.63 265.8L 345 266.64L 363.99 264.65L 379.51 264.31L 392.63 263.67L 404 263.01L 422.99 262.4L 438.51 259.64L 451.63 263.58L 463 263.88L 481.99 261.87L 497.51 261.48L 510.63 259.42L 522 260.72L 540.99 259.76L 556.51 258.74L 569.63 257.98L 581 255.81L 599.99 255.51L 615.51 256.07L 628.63 255.75L 640 255.61L 658.99 254.02L 674.51 254.69L 687.63 251.32L 699 253.53L 717.99 252.79L 733.51 252.49L 746.63 252.32L 758 251.68L 776.99 249.71L 792.51 250.67L 805.63 248.36L 817 248.77L 835.99 246.18L 851.51 248.25L 864.63 246.44L 876 245.86L 894.99 243.4L 910.51 245.88L 923.63 247.84L 935 246.24L 953.99 244.48L 969.51 243.22L 982.63 244.18L 994 243.86L 1013 236.81L 1028.5 241.76L 1041.6 239.43L 1053 242.21L 1072 241.03L 1087.5 236L 1100.6 242.09L 1112 241.15L 1131 239.57L 1146.5 238.29L 1159.6 236.36L 1171 238.38L 1190 238.66L 1205.5 236.66L 1218.6 236.43L 1230 234.31L 1230 239.18L 1218.6 236.99L 1205.5 238.19L 1190 239.04L 1171 239.32L 1159.6 240.75L 1146.5 238.79L 1131 240.36L 1112 241.61L 1100.6 243.03L 1087.5 242.33L 1072 242.43L 1053 244.1L 1041.6 243.03L 1028.5 245.48L 1013 244.93L 994 245.28L 982.63 245.26L 969.51 246.14L 953.99 247.03L 935 248.65L 923.63 248.06L 910.51 247.76L 894.99 249.63L 876 248.03L 864.63 249.38L 851.51 249.6L 835.99 250.67L 817 250.28L 805.63 251.99L 792.51 251.56L 776.99 253.42L 758 252.13L 746.63 252.38L 733.51 254.03L 717.99 255.61L 699 253.84L 687.63 257.37L 674.51 255.03L 658.99 255.09L 640 256.47L 628.63 257.09L 615.51 257.35L 599.99 260.78L 581 260.69L 569.63 258.79L 556.51 260.22L 540.99 260.15L 522 260.92L 510.63 263.71L 497.51 262.81L 481.99 263.61L 463 264.73L 451.63 263.74L 438.51 266.83L 422.99 264.97L 404 265.23L 392.63 265.61L 379.51 266.06L 363.99 266.67L 345 267.3L 333.63 267.7L 320.51 268.29L 304.99 268.21L 286 267.27L 274.63 267.01L 261.51 266.74L 245.99 266.32L 227 259.83L 215.63 270.79L 202.51 270.07L 186.99 269.44L 168 267.5L 143.51 265.78L 109 260.52L 50 246.76" fill="#007AFF" fill-opacity="0.30196078431372547" stroke="none"/>
    <path d="M 50 286.88L 109 311.1L 143.51 323.26L 168 331.86L 186.99 336.85L 202.51 341.44L 215.63 347.15L 227 350.18L 245.99 356.36L 261.51 360.38L 274.63 363.66L 286 366.99L 304.99 371.99L 320.51 374.06L 333.63 375.6L 345 367.75L 363.99 368.44L 379.51 369.44L 392.63 369.99L 404 369.95L 422.99 367.22L 438.51 346.73L 451.63 361.38L 463 329.22L 481.99 322.82L 497.51 349.18L 510.63 344.15L 522 327.43L 540.99 325.16L 556.51 326.15L 569.63 320.22L 581 316.18L 599.99 298.29L 615.51 300.49L 628.63 290.63L 640 288.47L 658.99 274.33L 674.51 269.62L 687.63 265.62L 699 262.87L 717.99 254.65L 733.51 247.84L 746.63 240.15L 758 238.02L 776.99 229.54L 792.51 222.61L 805.63 216.78L 817 211.73L 835.99 201.67L 851.51 195.51L 864.63 189.49L 876 183L 894.99 172.82L 910.51 163.64L 923.63 156.01L 935 149.97L 953.99 140.82L 969.51 133.4L 982.63 126.77L 994 121.1L 1013 112.88L 1028.5 105.92L 1041.6 99.698L 1053 95.359L 1072 86.23L 1072 87.243L 1053 95.653L 1041.6 100.69L 1028.5 106.44L 1013 113.45L 994 122.12L 982.63 127.48L 969.51 133.42L 953.99 141.05L 935 150.26L 923.63 156.33L 910.51 163.74L 894.99 173.32L 876 185.38L 864.63 190.38L 851.51 196.38L 835.99 203.28L 817 211.75L 805.63 216.81L 792.51 222.7L 776.99 229.56L 758 238.16L 746.63 241.85L 733.51 248.86L 717.99 254.69L 699 264.55L 687.63 267.9L 674.51 274.44L 658.99 281.11L 640 290.01L 628.63 295.68L 615.51 301.45L 599.99 307.99L 581 316.26L 569.63 320.89L 556.51 326.4L 540.99 331.43L 522 339.87L 510.63 344.22L 497.51 349.24L 481.99 354.61L 463 359.58L 451.63 361.86L 438.51 365.07L 422.99 367.43L 404 370.52L 392.63 370.24L 379.51 370.85L 363.99 371.13L 345 367.75L 333.63 375.6L 320.51 374.27L 304.99 371.99L 286 366.99L 274.63 363.93L 261.51 360.67L 245.99 356.36L 227 350.18L 215.63 347.5L 202.51 343.61L 186.99 338.77L 168 331.86L 143.51 323.26L 109 311.1L 50 287.37" fill="#FF3B30" fill-opacity="0.30196078431372547" stroke="none"/>
    <path d="M 50 246.19L 109 260.17L 143.51 265.15L 168 267.07L 186.99 268.67L 202.51 269.49L 215.63 270.14L 227 258.69L 245.99 265.81L 261.51 266.23L 274.63 266.33L 286 267.15L 304.99 267.76L 320.51 267.75L 333.63 267.19L 345 267.12L 363.99 266.13L 379.51 265.6L 392.63 265.09L 404 264.64L 422.99 264.28L 438.51 264.81L 451.63 263.7L 463 264.5L 481.99 263.14L 497.51 262.46L 510.63 262.54L 522 260.87L 540.99 260.05L 556.51 259.83L 569.63 258.57L 581 259.35L 599.99 259.33L 615.51 257.01L 628.63 256.74L 640 256.24L 658.99 254.8L 674.51 254.94L 687.63 255.69L 699 253.76L 717.99 254.85L 733.51 253.62L 746.63 252.36L 758 252.01L 776.99 252.41L 792.51 251.33L 805.63 251.01L 817 249.88L 835.99 249.44L 851.51 249.24L 864.63 248.59L 876 247.45L 894.99 247.9L 910.51 247.26L 923.63 248L 935 248.01L 953.99 246.35L 969.51 245.35L 982.63 244.97L 994 244.9L 1013 242.63L 1028.5 244.47L 1041.6 242.06L 1053 243.6L 1072 242.06L 1087.5 240.57L 1100.6 242.78L 1112 241.49L 1131 240.15L 1146.5 238.66L 1159.6 239.55L 1171 239.07L 1190 238.94L 1205.5 237.78L 1218.6 236.84L 1230 237.85" fill="none" stroke-width="4" stroke="#007AFF" stroke-opacity="1" stroke-linecap="round" stroke-linejoin="round"/>
    <path d="M 50 287.24L 109 311.1L 143.51 323.26L 168 331.86L 186.99 338.25L 202.51 343.03L 215.63 347.41L 227 350.18L 245.99 356.36L 261.51 360.59L 274.63 363.86L 286 366.99L 304.99 371.99L 320.51 374.21L 333.63 375.6L 345 367.75L 363.99 370.41L 379.51 370.48L 392.63 370.17L 404 370.37L 422.99 367.37L 438.51 359.35L 451.63 361.74L 463 349.01L 481.99 343.4L 497.51 349.23L 510.63 344.2L 522 336.2L 540.99 329.69L 556.51 326.33L 569.63 320.71L 581 316.24L 599.99 305.2L 615.51 301.2L 628.63 294.29L 640 289.6L 658.99 279.22L 674.51 273.12L 687.63 267.29L 699 264.11L 717.99 254.68L 733.51 248.59L 746.63 241.4L 758 238.12L 776.99 229.56L 792.51 222.67L 805.63 216.81L 817 211.75L 835.99 202.85L 851.51 196.15L 864.63 190.14L 876 184.75L 894.99 173.19L 910.51 163.72L 923.63 156.24L 935 150.18L 953.99 140.99L 969.51 133.41L 982.63 127.3L 994 121.85L 1013 113.3L 1028.5 106.3L 1041.6 100.43L 1053 95.576L 1072 86.976" fill="none" stroke-width="4" stroke="#FF3B30" stroke-opacity="1" stroke-linecap="round" stroke-linejoin="round"/>
    <path d="M 50 246.19L 109 260.17L 143.51 265.15L 168 267.07L 186.99 268.67L 202.51 269.49L 215.63 270.14L 227 258.69L 245.99 265.81L 261.51 266.23L 274.63 266.33L 286 267.15L 304.99 267.76L 320.51 267.75L 333.63 267.19L 345 267.12L 363.99 266.13L 379.51 265.6L 392.63 265.09L 404 264.64L 422.99 264.28L 438.51 264.81L 451.63 263.7L 463 264.5L 481.99 263.14L 497.51 262.46L 510.63 262.54L 522 260.87L 540.99 260.05L 556.51 259.83L 569.63 258.57L 581 259.35L 599.99 259.33L 615.51 257.01L 628.63 256.74L 640 256.24L 658.99 254.8L 674.51 254.94L 687.63 255.69L 699 253.76L 717.99 254.85L 733.51 253.62L 746.63 252.36L 758 252.01L 776.99 252.41L 792.51 251.33L 805.63 251.01L 817 249.88L 835.99 249.44L 851.51 249.24L 864.63 248.59L 876 247.45L 894.99 247.9L 910.51 247.26L 923.63 248L 935 248.01L 953.99 246.35L 969.51 245.35L 982.63 244.97L 994 244.9L 1013 242.63L 1028.5 244.47L 1041.6 242.06L 1053 243.6L 1072 242.06L 1087.5 240.57L 1100.6 242.78L 1112 241.49L 1131 240.15L 1146.5 238.66L 1159.6 239.55L 1171 239.07L 1190 238.94L 1205.5 237.78L 1218.6 236.84L 1230 237.85" fill="none" stroke-width="0.5" stroke="#000000" stroke-opacity="0.30196" stroke-linecap="round" stroke-linejoin="round"/>
    <path d="M 50 287.24L 109 311.1L 143.51 323.26L 168 331.86L 186.99 338.25L 202.51 343.03L 215.63 347.41L 227 350.18L 245.99 356.36L 261.51 360.59L 274.63 363.86L 286 366.99L 304.99 371.99L 320.51 374.21L 333.63 375.6L 345 367.75L 363.99 370.41L 379.51 370.48L 392.63 370.17L 404 370.37L 422.99 367.37L 438.51 359.35L 451.63 361.74L 463 349.01L 481.99 343.4L 497.51 349.23L 510.63 344.2L 522 336.2L 540.99 329.69L 556.51 326.33L 569.63 320.71L 581 316.24L 599.99 305.2L 615.51 301.2L 628.63 294.29L 640 289.6L 658.99 279.22L 674.51 273.12L 687.63 267.29L 699 264.11L 717.99 254.68L 733.51 248.59L 746.63 241.4L 758 238.12L 776.99 229.56L 792.51 222.67L 805.63 216.81L 817 211.75L 835.99 202.85L 851.51 196.15L 864.63 190.14L 876 184.75L 894.99 173.19L 910.51 163.72L 923.63 156.24L 935 150.18L 953.99 140.99L 969.51 133.41L 982.63 127.3L 994 121.85L 1013 113.3L 1028.5 106.3L 1041.6 100.43L 1053 95.576L 1072 86.976" fill="none" stroke-width="0.5" stroke="#000000" stroke-opacity="0.30196" stroke-linecap="round" stroke-linejoin="round"/>
  </g>
  <path d="M 74 33 L 74 88 L 435 88 L 435 33 z" fill="#FFFFFF" fill-opacity="0.7019607843137254" stroke-width="0.5" stroke="#000000" stroke-opacity="1" stroke-linecap="round" stroke-linejoin="round"/>
  <path d="M 88 52 L 108 52" fill="none" stroke-width="4" stroke="#FF3B30" stroke-opacity="1" stroke-linecap="round" stroke-linejoin="round"/>
  <path d="M 88 52 L 108 52" fill="none" stroke-width="0.5" stroke="#000000" stroke-opacity="0.30196" stroke-linecap="round" stroke-linejoin="round"/>
  <text x="119" y="56.17" font-family="Menlo" font-size="12" font-weight="normal" font-style="normal" fill="#000000" fill-opacity="1">Array&lt;Int&gt; prepend, reserving capacity</text>
  <path d="M 88 69 L 108 69" fill="none" stroke-width="4" stroke="#007AFF" stroke-opacity="1" stroke-linecap="round" stroke-linejoin="round"/>
  <path d="M 88 69 L 108 69" fill="none" stroke-width="0.5" stroke="#000000" stroke-opacity="0.30196" stroke-linecap="round" stroke-linejoin="round"/>
  <text x="119" y="73.17" font-family="Menlo" font-size="12" font-weight="normal" font-style="normal" fill="#000000" fill-opacity="1">TreeArray&lt;Int&gt; prepend, reserving capacity</text>
  <path d="M 50 9 L 50 441 L 1230 441 L 1230 9 z" fill="none" stroke-width="0.5" stroke="#000000" stroke-opacity="1" stroke-linecap="round" stroke-linejoin="round"/>
</svg>
