<!DOCTYPE svg PUBLIC "-//W3C//DTD SVG 1.1//EN" "http://www.w3.org/Graphics/SVG/1.1/DTD/svg11.dtd">
<svg width="1280.0px" height="480.0px" viewBox="0.0 0.0 1280.0 480.0" xmlns="http://www.w3.org/2000/svg" xmlns:xlink="http://www.w3.org/1999/xlink" version="1.1">
  <path d="M 0 0 L 0 480 L 1280 480 L 1280 0 z" fill="#FFFFFF" fill-opacity="1.0" stroke="none"/>
  <text x="50" y="468.7" font-family="Helvetica" font-size="10" font-weight="normal" font-style="normal" fill="#000000" fill-opacity="1">Average per-element processing time over input size (bands: min, mean, mean + 2stddev)</text>
  <a xlink:href="https://github.com/apple/swift-collections-benchmark"><text x="1107" y="468.7" font-family="Helvetica" font-size="10" font-weight="normal" font-style="normal" fill="#000000" fill-opacity="1">swift-collections-benchmark</text></a>
  <path d="M 50 9 L 50 441" fill="none" stroke-width="0.75" stroke="#000000" stroke-opacity="0.49804" stroke-linecap="butt" stroke-linejoin="round"/>
  <text x="47" y="453.7" font-family="Helvetica" font-size="10" font-weight="normal" font-style="normal" fill="#000000" fill-opacity="1">1</text>
  <path d="M 109 9 L 109 441" fill="none" stroke-width="0.75" stroke="#000000" stroke-opacity="0.49804" stroke-linecap="butt" stroke-linejoin="round"/>
  <text x="106" y="453.7" font-family="Helvetica" font-size="10" font-weight="normal" font-style="normal" fill="#000000" fill-opacity="1">2</text>
  <path d="M 168 9 L 168 441" fill="none" stroke-width="0.75" stroke="#000000" stroke-opacity="0.49804" stroke-linecap="butt" stroke-linejoin="round"/>
  <text x="165" y="453.7" font-family="Helvetica" font-size="10" font-weight="normal" font-style="normal" fill="#000000" fill-opacity="1">4</text>
  <path d="M 227 9 L 227 441" fill="none" stroke-width="0.75" stroke="#000000" stroke-opacity="0.49804" stroke-linecap="butt" stroke-linejoin="round"/>
  <text x="224" y="453.7" font-family="Helvetica" font-size="10" font-weight="normal" font-style="normal" fill="#000000" fill-opacity="1">8</text>
  <path d="M 286 9 L 286 441" fill="none" stroke-width="0.75" stroke="#000000" stroke-opacity="0.49804" stroke-linecap="butt" stroke-linejoin="round"/>
  <text x="280" y="453.7" font-family="Helvetica" font-size="10" font-weight="normal" font-style="normal" fill="#000000" fill-opacity="1">16</text>
  <path d="M 345 9 L 345 441" fill="none" stroke-width="0.75" stroke="#000000" stroke-opacity="0.49804" stroke-linecap="butt" stroke-linejoin="round"/>
  <text x="339" y="453.7" font-family="Helvetica" font-size="10" font-weight="normal" font-style="normal" fill="#000000" fill-opacity="1">32</text>
  <path d="M 404 9 L 404 441" fill="none" stroke-width="0.75" stroke="#000000" stroke-opacity="0.49804" stroke-linecap="butt" stroke-linejoin="round"/>
  <text x="398" y="453.7" font-family="Helvetica" font-size="10" font-weight="normal" font-style="normal" fill="#000000" fill-opacity="1">64</text>
  <path d="M 463 9 L 463 441" fill="none" stroke-width="0.75" stroke="#000000" stroke-opacity="0.49804" stroke-linecap="butt" stroke-linejoin="round"/>
  <text x="454.5" y="453.7" font-family="Helvetica" font-size="10" font-weight="normal" font-style="normal" fill="#000000" fill-opacity="1">128</text>
  <path d="M 522 9 L 522 441" fill="none" stroke-width="0.75" stroke="#000000" stroke-opacity="0.49804" stroke-linecap="butt" stroke-linejoin="round"/>
  <text x="513.5" y="453.7" font-family="Helvetica" font-size="10" font-weight="normal" font-style="normal" fill="#000000" fill-opacity="1">256</text>
  <path d="M 581 9 L 581 441" fill="none" stroke-width="0.75" stroke="#000000" stroke-opacity="0.49804" stroke-linecap="butt" stroke-linejoin="round"/>
  <text x="572.5" y="453.7" font-family="Helvetica" font-size="10" font-weight="normal" font-style="normal" fill="#000000" fill-opacity="1">512</text>
  <path d="M 640 9 L 640 441" fill="none" stroke-width="0.75" stroke="#000000" stroke-opacity="0.49804" stroke-linecap="butt" stroke-linejoin="round"/>
  <text x="634.5" y="453.7" font-family="Helvetica" font-size="10" font-weight="normal" font-style="normal" fill="#000000" fill-opacity="1">1k</text>
  <path d="M 699 9 L 699 441" fill="none" stroke-width="0.75" stroke="#000000" stroke-opacity="0.49804" stroke-linecap="butt" stroke-linejoin="round"/>
  <text x="693.5" y="453.7" font-family="Helvetica" font-size="10" font-weight="normal" font-style="normal" fill="#000000" fill-opacity="1">2k</text>
  <path d="M 758 9 L 758 441" fill="none" stroke-width="0.75" stroke="#000000" stroke-opacity="0.49804" stroke-linecap="butt" stroke-linejoin="round"/>
  <text x="752.5" y="453.7" font-family="Helvetica" font-size="10" font-weight="normal" font-style="normal" fill="#000000" fill-opacity="1">4k</text>
  <path d="M 817 9 L 817 441" fill="none" stroke-width="0.75" stroke="#000000" stroke-opacity="0.49804" stroke-linecap="butt" stroke-linejoin="round"/>
  <text x="811.5" y="453.7" font-family="Helvetica" font-size="10" font-weight="normal" font-style="normal" fill="#000000" fill-opacity="1">8k</text>
  <path d="M 876 9 L 876 441" fill="none" stroke-width="0.75" stroke="#000000" stroke-opacity="0.49804" stroke-linecap="butt" stroke-linejoin="round"/>
  <text x="867.5" y="453.7" font-family="Helvetica" font-size="10" font-weight="normal" font-style="normal" fill="#000000" fill-opacity="1">16k</text>
  <path d="M 935 9 L 935 441" fill="none" stroke-width="0.75" stroke="#000000" stroke-opacity="0.49804" stroke-linecap="butt" stroke-linejoin="round"/>
  <text x="926.5" y="453.7" font-family="Helvetica" font-size="10" font-weight="normal" font-style="normal" fill="#000000" fill-opacity="1">32k</text>
  <path d="M 994 9 L 994 441" fill="none" stroke-width="0.75" stroke="#000000" stroke-opacity="0.49804" stroke-linecap="butt" stroke-linejoin="round"/>
  <text x="985.5" y="453.7" font-family="Helvetica" font-size="10" font-weight="normal" font-style="normal" fill="#000000" fill-opacity="1">64k</text>
  <path d="M 1053 9 L 1053 441" fill="none" stroke-width="0.75" stroke="#000000" stroke-opacity="0.49804" stroke-linecap="butt" stroke-linejoin="round"/>
  <text x="1042" y="453.7" font-family="Helvetica" font-size="10" font-weight="normal" font-style="normal" fill="#000000" fill-opacity="1">128k</text>
  <path d="M 1112 9 L 1112 441" fill="none" stroke-width="0.75" stroke="#000000" stroke-opacity="0.49804" stroke-linecap="butt" stroke-linejoin="round"/>
  <text x="1101" y="453.7" font-family="Helvetica" font-size="10" font-weight="normal" font-style="normal" fill="#000000" fill-opacity="1">256k</text>
  <path d="M 1171 9 L 1171 441" fill="none" stroke-width="0.75" stroke="#000000" stroke-opacity="0.49804" stroke-linecap="butt" stroke-linejoin="round"/>
  <text x="1160" y="453.7" font-family="Helvetica" font-size="10" font-weight="normal" font-style="normal" fill="#000000" fill-opacity="1">512k</text>
  <path d="M 1230 9 L 1230 441" fill="none" stroke-width="0.75" stroke="#000000" stroke-opacity="0.49804" stroke-linecap="butt" stroke-linejoin="round"/>
  <text x="1223" y="453.7" font-family="Helvetica" font-size="10" font-weight="normal" font-style="normal" fill="#000000" fill-opacity="1">1M</text>
  <path d="M 50 441 L 1230 441" fill="none" stroke-width="0.75" stroke="#000000" stroke-opacity="0.49804" stroke-linecap="butt" stroke-linejoin="round"/>
  <text x="27" y="442.7" font-family="Helvetica" font-size="10" font-weight="normal" font-style="normal" fill="#000000" fill-opacity="1">1 ns</text>
  <text x="1236" y="442.7" font-family="Helvetica" font-size="10" font-weight="normal" font-style="normal" fill="#000000" fill-opacity="1">1 ns</text>
  <path d="M 50 354.6 L 1230 354.6" fill="none" stroke-width="0.75" stroke="#000000" stroke-opacity="0.49804" stroke-linecap="butt" stroke-linejoin="round"/>
  <text x="21" y="356.3" font-family="Helvetica" font-size="10" font-weight="normal" font-style="normal" fill="#000000" fill-opacity="1">10 ns</text>
  <text x="1236" y="356.3" font-family="Helvetica" font-size="10" font-weight="normal" font-style="normal" fill="#000000" fill-opacity="1">10 ns</text>
  <path d="M 50 268.2 L 1230 268.2" fill="none" stroke-width="0.75" stroke="#000000" stroke-opacity="0.49804" stroke-linecap="butt" stroke-linejoin="round"/>
  <text x="16" y="269.9" font-family="Helvetica" font-size="10" font-weight="normal" font-style="normal" fill="#000000" fill-opacity="1">100 ns</text>
  <text x="1236" y="269.9" font-family="Helvetica" font-size="10" font-weight="normal" font-style="normal" fill="#000000" fill-opacity="1">100 ns</text>
  <path d="M 50 181.8 L 1230 181.8" fill="none" stroke-width="0.75" stroke="#000000" stroke-opacity="0.49804" stroke-linecap="butt" stroke-linejoin="round"/>
  <text x="26" y="183.5" font-family="Helvetica" font-size="10" font-weight="normal" font-style="normal" fill="#000000" fill-opacity="1">1 µs</text>
  <text x="1236" y="183.5" font-family="Helvetica" font-size="10" font-weight="normal" font-style="normal" fill="#000000" fill-opacity="1">1 µs</text>
  <path d="M 50 95.4 L 1230 95.4" fill="none" stroke-width="0.75" stroke="#000000" stroke-opacity="0.49804" stroke-linecap="butt" stroke-linejoin="round"/>
  <text x="21" y="97.1" font-family="Helvetica" font-size="10" font-weight="normal" font-style="normal" fill="#000000" fill-opacity="1">10 µs</text>
  <text x="1236" y="97.1" font-family="Helvetica" font-size="10" font-weight="normal" font-style="normal" fill="#000000" fill-opacity="1">10 µs</text>
  <path d="M 50 9 L 1230 9" fill="none" stroke-width="0.75" stroke="#000000" stroke-opacity="0.49804" stroke-linecap="butt" stroke-linejoin="round"/>
  <text x="15" y="10.7" font-family="Helvetica" font-size="10" font-weight="normal" font-style="normal" fill="#000000" fill-opacity="1">100 µs</text>
  <text x="1236" y="10.7" font-family="Helvetica" font-size="10" font-weight="normal" font-style="normal" fill="#000000" fill-opacity="1">100 µs</text>
  <path d="M 50 414.99 L 1230 414.99" fill="none" stroke-width="0.5" stroke="#000000" stroke-opacity="0.25882" stroke-linecap="butt" stroke-linejoin="round" stroke-dasharray="6 3" stroke-dashoffset="0"/>
  <path d="M 50 388.98 L 1230 388.98" fill="none" stroke-width="0.5" stroke="#000000" stroke-opacity="0.25882" stroke-linecap="butt" stroke-linejoin="round" stroke-dasharray="6 3" stroke-dashoffset="0"/>
  <path d="M 50 362.97 L 1230 362.97" fill="none" stroke-width="0.5" stroke="#000000" stroke-opacity="0.25882" stroke-linecap="butt" stroke-linejoin="round" stroke-dasharray="6 3" stroke-dashoffset="0"/>
  <path d="M 50 336.96 L 1230 336.96" fill="none" stroke-width="0.5" stroke="#000000" stroke-opacity="0.25882" stroke-linecap="butt" stroke-linejoin="round" stroke-dasharray="6 3" stroke-dashoffset="0"/>
  <path d="M 50 310.96 L 1230 310.96" fill="none" stroke-width="0.5" stroke="#000000" stroke-opacity="0.25882" stroke-linecap="butt" stroke-linejoin="round" stroke-dasharray="6 3" stroke-dashoffset="0"/>
  <path d="M 50 284.95 L 1230 284.95" fill="none" stroke-width="0.5" stroke="#000000" stroke-opacity="0.25882" stroke-linecap="butt" stroke-linejoin="round" stroke-dasharray="6 3" stroke-dashoffset="0"/>
  <path d="M 50 258.94 L 1230 258.94" fill="none" stroke-width="0.5" stroke="#000000" stroke-opacity="0.25882" stroke-linecap="butt" stroke-linejoin="round" stroke-dasharray="6 3" stroke-dashoffset="0"/>
  <path d="M 50 232.93 L 1230 232.93" fill="none" stroke-width="0.5" stroke="#000000" stroke-opacity="0.25882" stroke-linecap="butt" stroke-linejoin="round" stroke-dasharray="6 3" stroke-dashoffset="0"/>
  <path d="M 50 206.92 L 1230 206.92" fill="none" stroke-width="0.5" stroke="#000000" stroke-opacity="0.25882" stroke-linecap="butt" stroke-linejoin="round" stroke-dasharray="6 3" stroke-dashoffset="0"/>
  <path d="M 50 180.91 L 1230 180.91" fill="none" stroke-width="0.5" stroke="#000000" stroke-opacity="0.25882" stroke-linecap="butt" stroke-linejoin="round" stroke-dasharray="6 3" stroke-dashoffset="0"/>
  <path d="M 50 154.9 L 1230 154.9" fill="none" stroke-width="0.5" stroke="#000000" stroke-opacity="0.25882" stroke-linecap="butt" stroke-linejoin="round" stroke-dasharray="6 3" stroke-dashoffset="0"/>
  <path d="M 50 128.89 L 1230 128.89" fill="none" stroke-width="0.5" stroke="#000000" stroke-opacity="0.25882" stroke-linecap="butt" stroke-linejoin="round" stroke-dasharray="6 3" stroke-dashoffset="0"/>
  <path d="M 50 102.88 L 1230 102.88" fill="none" stroke-width="0.5" stroke="#000000" stroke-opacity="0.25882" stroke-linecap="butt" stroke-linejoin="round" stroke-dasharray="6 3" stroke-dashoffset="0"/>
  <path d="M 50 76.874 L 1230 76.874" fill="none" stroke-width="0.5" stroke="#000000" stroke-opacity="0.25882" stroke-linecap="butt" stroke-linejoin="round" stroke-dasharray="6 3" stroke-dashoffset="0"/>
  <path d="M 50 50.865 L 1230 50.865" fill="none" stroke-width="0.5" stroke="#000000" stroke-opacity="0.25882" stroke-linecap="butt" stroke-linejoin="round" stroke-dasharray="6 3" stroke-dashoffset="0"/>
  <path d="M 50 24.856 L 1230 24.856" fill="none" stroke-width="0.5" stroke="#000000" stroke-opacity="0.25882" stroke-linecap="butt" stroke-linejoin="round" stroke-dasharray="6 3" stroke-dashoffset="0"/>
  <path d="M 74 33 L 74 88 L 435 88 L 435 33 z" fill="#FFFFFF" fill-opacity="1.0" stroke="none"/>
  <clipPath id="clip-0">
    <path d="M 50 9 L 50 441 L 1230 441 L 1230 9 z"/>
  </clipPath>
  <g clip-path="url(#clip-0)">
    <path d="M 50 239.64L 109 256.29L 143.51 264L 168 267.67L 186.99 270.49L 202.51 270.83L 215.63 262.85L 227 266.61L 245.99 265.71L 261.51 267.98L 274.63 268.58L 286 269.65L 304.99 270.88L 320.51 270.42L 333.63 268.94L 345 270.19L 363.99 272.76L 379.51 268.76L 392.63 269.06L 404 268.8L 422.99 266.04L 438.51 266.75L 451.63 266.03L 463 266.59L 481.99 268.98L 497.51 266.22L 510.63 265.28L 522 264.05L 540.99 262.18L 556.51 261.83L 569.63 262.22L 581 262.37L 599.99 260.17L 615.51 261.73L 628.63 260.38L 640 259.02L 658.99 258.05L 674.51 253.89L 687.63 254.89L 699 256.57L 717.99 257.61L 733.51 256.02L 746.63 253.61L 758 252.23L 776.99 252.63L 792.51 252.5L 805.63 250.08L 817 250.61L 835.99 250.84L 851.51 250.78L 864.63 251.41L 876 249.93L 894.99 248.27L 910.51 250.01L 923.63 248.14L 935 250.11L 953.99 245.49L 969.51 248.14L 982.63 245.15L 994 243.01L 1013 243.6L 1028.5 242.22L 1041.6 243.48L 1053 243.61L 1072 240.9L 1087.5 241.47L 1100.6 242.47L 1112 240.2L 1131 241.5L 1146.5 240.16L 1159.6 241.17L 1171 240.24L 1190 238.58L 1205.5 238.46L 1218.6 235.8L 1230 234.95L 1230 240.01L 1218.6 240.34L 1205.5 239.78L 1190 240.15L 1171 241.57L 1159.6 242.68L 1146.5 242.75L 1131 241.96L 1112 241.58L 1100.6 243.21L 1087.5 244.32L 1072 244.02L 1053 245.64L 1041.6 245.41L 1028.5 246.56L 1013 245.95L 994 248.96L 982.63 248.11L 969.51 249.4L 953.99 249.06L 935 250.35L 923.63 250.56L 910.51 250.25L 894.99 251.04L 876 250.13L 864.63 252.78L 851.51 251.75L 835.99 252.92L 817 254.23L 805.63 254.29L 792.51 253.99L 776.99 254.24L 758 256.33L 746.63 257.53L 733.51 256.59L 717.99 258.91L 699 259.03L 687.63 257.82L 674.51 260.24L 658.99 259.02L 640 260.38L 628.63 261.37L 615.51 261.99L 599.99 263.41L 581 264.42L 569.63 262.28L 556.51 264.21L 540.99 264.44L 522 266.55L 510.63 266.83L 497.51 267.14L 481.99 271.04L 463 268.11L 451.63 269.74L 438.51 269.21L 422.99 270.62L 404 270.5L 392.63 270.87L 379.51 271.25L 363.99 272.77L 345 272.03L 333.63 273.72L 320.51 272.35L 304.99 272.13L 286 271.58L 274.63 269.56L 261.51 269.28L 245.99 267.58L 227 266.67L 215.63 265.22L 202.51 272.97L 186.99 271.4L 168 268.87L 143.51 264.81L 109 258.54L 50 239.92" fill="#007AFF" fill-opacity="0.30196078431372547" stroke="none"/>
    <path d="M 50 287.11L 109 311.1L 143.51 323.06L 168 332.06L 186.99 337.81L 202.51 343.81L 215.63 346.71L 227 347.92L 245.99 356.05L 261.51 360.67L 274.63 363.66L 286 366.99L 304.99 372.11L 320.51 372.82L 333.63 375.41L 345 364.42L 363.99 367.89L 379.51 368.63L 392.63 368.77L 404 368.95L 422.99 367.55L 438.51 364.18L 451.63 361.14L 463 360.62L 481.99 354.27L 497.51 349.16L 510.63 335.58L 522 339.77L 540.99 316.51L 556.51 326.42L 569.63 320.94L 581 307.85L 599.99 307.08L 615.51 292.06L 628.63 286.15L 640 290.48L 658.99 281.76L 674.51 270.1L 687.63 261.99L 699 261.44L 717.99 254.39L 733.51 246.47L 746.63 241.37L 758 238.05L 776.99 228.6L 792.51 222.35L 805.63 215.51L 817 211.26L 835.99 201.5L 851.51 194.7L 864.63 186.65L 876 181.97L 894.99 172.76L 910.51 161.48L 923.63 156.2L 935 150L 953.99 139.63L 969.51 131.68L 982.63 126.93L 994 120.6L 1013 113.13L 1028.5 105.68L 1041.6 100.39L 1053 95.356L 1072 86.432L 1072 86.91L 1053 95.741L 1041.6 100.75L 1028.5 106.69L 1013 113.47L 994 122.11L 982.63 127.3L 969.51 132.56L 953.99 139.95L 935 150.39L 923.63 156.35L 910.51 163.52L 894.99 172.98L 876 185.39L 864.63 190.43L 851.51 196.28L 835.99 203.2L 817 211.61L 805.63 216.76L 792.51 222.68L 776.99 229.54L 758 238.18L 746.63 241.79L 733.51 247.87L 717.99 254.92L 699 262.75L 687.63 269.89L 674.51 271.03L 658.99 282.55L 640 290.59L 628.63 291.08L 615.51 299L 599.99 307.96L 581 315.22L 569.63 321.06L 556.51 326.47L 540.99 332.64L 522 339.86L 510.63 344.15L 497.51 349.26L 481.99 355L 463 360.64L 451.63 362.27L 438.51 365.24L 422.99 367.76L 404 369.92L 392.63 370.28L 379.51 371.16L 363.99 370.76L 345 370.33L 333.63 375.6L 320.51 374.27L 304.99 372.11L 286 366.99L 274.63 363.93L 261.51 360.67L 245.99 356.36L 227 353.22L 215.63 347.98L 202.51 343.81L 186.99 338.97L 168 332.07L 143.51 323.48L 109 311.1L 50 287.11" fill="#FF3B30" fill-opacity="0.30196078431372547" stroke="none"/>
    <path d="M 50 239.84L 109 257.94L 143.51 264.6L 168 268.55L 186.99 271.16L 202.51 272.4L 215.63 264.58L 227 266.65L 245.99 267.08L 261.51 268.93L 274.63 269.3L 286 271.07L 304.99 271.8L 320.51 271.84L 333.63 272.41L 345 271.54L 363.99 272.77L 379.51 270.58L 392.63 270.39L 404 270.05L 422.99 269.37L 438.51 268.55L 451.63 268.73L 463 267.71L 481.99 270.49L 497.51 266.9L 510.63 266.42L 522 265.88L 540.99 263.83L 556.51 263.57L 569.63 262.27L 581 263.87L 599.99 262.54L 615.51 261.92L 628.63 261.1L 640 260.02L 658.99 258.77L 674.51 258.48L 687.63 257.03L 699 258.37L 717.99 258.57L 733.51 256.44L 746.63 256.47L 758 255.22L 776.99 253.82L 792.51 253.59L 805.63 253.14L 817 253.25L 835.99 252.36L 851.51 251.5L 864.63 252.42L 876 250.08L 894.99 250.29L 910.51 250.19L 923.63 249.91L 935 250.29L 953.99 248.09L 969.51 249.07L 982.63 247.31L 994 247.31L 1013 245.32L 1028.5 245.37L 1041.6 244.9L 1053 245.09L 1072 243.18L 1087.5 243.55L 1100.6 243.02L 1112 241.22L 1131 241.84L 1146.5 242.06L 1159.6 242.28L 1171 241.22L 1190 239.73L 1205.5 239.43L 1218.6 239.1L 1230 238.62" fill="none" stroke-width="4" stroke="#007AFF" stroke-opacity="1" stroke-linecap="round" stroke-linejoin="round"/>
    <path d="M 50 287.11L 109 311.1L 143.51 323.37L 168 332.07L 186.99 338.66L 202.51 343.81L 215.63 347.65L 227 351.76L 245.99 356.28L 261.51 360.67L 274.63 363.86L 286 366.99L 304.99 372.11L 320.51 373.89L 333.63 375.55L 345 368.69L 363.99 369.99L 379.51 370.48L 392.63 369.88L 404 369.67L 422.99 367.71L 438.51 364.96L 451.63 361.97L 463 360.64L 481.99 354.81L 497.51 349.23L 510.63 341.72L 522 339.84L 540.99 327.72L 556.51 326.45L 569.63 321.03L 581 313.15L 599.99 307.73L 615.51 297.06L 628.63 289.73L 640 290.56L 658.99 282.34L 674.51 270.78L 687.63 267.66L 699 262.41L 717.99 254.78L 733.51 247.5L 746.63 241.68L 758 238.15L 776.99 229.29L 792.51 222.6L 805.63 216.43L 817 211.52L 835.99 202.75L 851.51 195.86L 864.63 189.41L 876 184.47L 894.99 172.92L 910.51 162.97L 923.63 156.31L 935 150.29L 953.99 139.86L 969.51 132.33L 982.63 127.2L 994 121.71L 1013 113.38L 1028.5 106.42L 1041.6 100.65L 1053 95.64L 1072 86.785" fill="none" stroke-width="4" stroke="#FF3B30" stroke-opacity="1" stroke-linecap="round" stroke-linejoin="round"/>
    <path d="M 50 239.84L 109 257.94L 143.51 264.6L 168 268.55L 186.99 271.16L 202.51 272.4L 215.63 264.58L 227 266.65L 245.99 267.08L 261.51 268.93L 274.63 269.3L 286 271.07L 304.99 271.8L 320.51 271.84L 333.63 272.41L 345 271.54L 363.99 272.77L 379.51 270.58L 392.63 270.39L 404 270.05L 422.99 269.37L 438.51 268.55L 451.63 268.73L 463 267.71L 481.99 270.49L 497.51 266.9L 510.63 266.42L 522 265.88L 540.99 263.83L 556.51 263.57L 569.63 262.27L 581 263.87L 599.99 262.54L 615.51 261.92L 628.63 261.1L 640 260.02L 658.99 258.77L 674.51 258.48L 687.63 257.03L 699 258.37L 717.99 258.57L 733.51 256.44L 746.63 256.47L 758 255.22L 776.99 253.82L 792.51 253.59L 805.63 253.14L 817 253.25L 835.99 252.36L 851.51 251.5L 864.63 252.42L 876 250.08L 894.99 250.29L 910.51 250.19L 923.63 249.91L 935 250.29L 953.99 248.09L 969.51 249.07L 982.63 247.31L 994 247.31L 1013 245.32L 1028.5 245.37L 1041.6 244.9L 1053 245.09L 1072 243.18L 1087.5 243.55L 1100.6 243.02L 1112 241.22L 1131 241.84L 1146.5 242.06L 1159.6 242.28L 1171 241.22L 1190 239.73L 1205.5 239.43L 1218.6 239.1L 1230 238.62" fill="none" stroke-width="0.5" stroke="#000000" stroke-opacity="0.30196" stroke-linecap="round" stroke-linejoin="round"/>
    <path d="M 50 287.11L 109 311.1L 143.51 323.37L 168 332.07L 186.99 338.66L 202.51 343.81L 215.63 347.65L 227 351.76L 245.99 356.28L 261.51 360.67L 274.63 363.86L 286 366.99L 304.99 372.11L 320.51 373.89L 333.63 375.55L 345 368.69L 363.99 369.99L 379.51 370.48L 392.63 369.88L 404 369.67L 422.99 367.71L 438.51 364.96L 451.63 361.97L 463 360.64L 481.99 354.81L 497.51 349.23L 510.63 341.72L 522 339.84L 540.99 327.72L 556.51 326.45L 569.63 321.03L 581 313.15L 599.99 307.73L 615.51 297.06L 628.63 289.73L 640 290.56L 658.99 282.34L 674.51 270.78L 687.63 267.66L 699 262.41L 717.99 254.78L 733.51 247.5L 746.63 241.68L 758 238.15L 776.99 229.29L 792.51 222.6L 805.63 216.43L 817 211.52L 835.99 202.75L 851.51 195.86L 864.63 189.41L 876 184.47L 894.99 172.92L 910.51 162.97L 923.63 156.31L 935 150.29L 953.99 139.86L 969.51 132.33L 982.63 127.2L 994 121.71L 1013 113.38L 1028.5 106.42L 1041.6 100.65L 1053 95.64L 1072 86.785" fill="none" stroke-width="0.5" stroke="#000000" stroke-opacity="0.30196" stroke-linecap="round" stroke-linejoin="round"/>
  </g>
  <path d="M 74 33 L 74 88 L 435 88 L 435 33 z" fill="#FFFFFF" fill-opacity="0.7019607843137254" stroke-width="0.5" stroke="#000000" stroke-opacity="1" stroke-linecap="round" stroke-linejoin="round"/>
  <path d="M 88 52 L 108 52" fill="none" stroke-width="4" stroke="#FF3B30" stroke-opacity="1" stroke-linecap="round" stroke-linejoin="round"/>
  <path d="M 88 52 L 108 52" fill="none" stroke-width="0.5" stroke="#000000" stroke-opacity="0.30196" stroke-linecap="round" stroke-linejoin="round"/>
  <text x="119" y="56.17" font-family="Menlo" font-size="12" font-weight="normal" font-style="normal" fill="#000000" fill-opacity="1">Array&lt;Int&gt; prepend, reserving capacity</text>
  <path d="M 88 69 L 108 69" fill="none" stroke-width="4" stroke="#007AFF" stroke-opacity="1" stroke-linecap="round" stroke-linejoin="round"/>
  <path d="M 88 69 L 108 69" fill="none" stroke-width="0.5" stroke="#000000" stroke-opacity="0.30196" stroke-linecap="round" stroke-linejoin="round"/>
  <text x="119" y="73.17" font-family="Menlo" font-size="12" font-weight="normal" font-style="normal" fill="#000000" fill-opacity="1">TreeArray&lt;Int&gt; prepend, reserving capacity</text>
  <path d="M 50 9 L 50 441 L 1230 441 L 1230 9 z" fill="none" stroke-width="0.5" stroke="#000000" stroke-opacity="1" stroke-linecap="round" stroke-linejoin="round"/>
</svg>
