<!DOCTYPE svg PUBLIC "-//W3C//DTD SVG 1.1//EN" "http://www.w3.org/Graphics/SVG/1.1/DTD/svg11.dtd">
<svg width="1280.0px" height="480.0px" viewBox="0.0 0.0 1280.0 480.0" xmlns="http://www.w3.org/2000/svg" xmlns:xlink="http://www.w3.org/1999/xlink" version="1.1">
  <path d="M 0 0 L 0 480 L 1280 480 L 1280 0 z" fill="#FFFFFF" fill-opacity="1.0" stroke="none"/>
  <text x="50" y="468.7" font-family="Helvetica" font-size="10" font-weight="normal" font-style="normal" fill="#000000" fill-opacity="1">Average per-element processing time over input size (bands: min, mean, mean + 2stddev)</text>
  <a xlink:href="https://github.com/apple/swift-collections-benchmark"><text x="1107" y="468.7" font-family="Helvetica" font-size="10" font-weight="normal" font-style="normal" fill="#000000" fill-opacity="1">swift-collections-benchmark</text></a>
  <path d="M 50 9 L 50 441" fill="none" stroke-width="0.75" stroke="#000000" stroke-opacity="0.49804" stroke-linecap="butt" stroke-linejoin="round"/>
  <text x="47" y="453.7" font-family="Helvetica" font-size="10" font-weight="normal" font-style="normal" fill="#000000" fill-opacity="1">1</text>
  <path d="M 109 9 L 109 441" fill="none" stroke-width="0.75" stroke="#000000" stroke-opacity="0.49804" stroke-linecap="butt" stroke-linejoin="round"/>
  <text x="106" y="453.7" font-family="Helvetica" font-size="10" font-weight="normal" font-style="normal" fill="#000000" fill-opacity="1">2</text>
  <path d="M 168 9 L 168 441" fill="none" stroke-width="0.75" stroke="#000000" stroke-opacity="0.49804" stroke-linecap="butt" stroke-linejoin="round"/>
  <text x="165" y="453.7" font-family="Helvetica" font-size="10" font-weight="normal" font-style="normal" fill="#000000" fill-opacity="1">4</text>
  <path d="M 227 9 L 227 441" fill="none" stroke-width="0.75" stroke="#000000" stroke-opacity="0.49804" stroke-linecap="butt" stroke-linejoin="round"/>
  <text x="224" y="453.7" font-family="Helvetica" font-size="10" font-weight="normal" font-style="normal" fill="#000000" fill-opacity="1">8</text>
  <path d="M 286 9 L 286 441" fill="none" stroke-width="0.75" stroke="#000000" stroke-opacity="0.49804" stroke-linecap="butt" stroke-linejoin="round"/>
  <text x="280" y="453.7" font-family="Helvetica" font-size="10" font-weight="normal" font-style="normal" fill="#000000" fill-opacity="1">16</text>
  <path d="M 345 9 L 345 441" fill="none" stroke-width="0.75" stroke="#000000" stroke-opacity="0.49804" stroke-linecap="butt" stroke-linejoin="round"/>
  <text x="339" y="453.7" font-family="Helvetica" font-size="10" font-weight="normal" font-style="normal" fill="#000000" fill-opacity="1">32</text>
  <path d="M 404 9 L 404 441" fill="none" stroke-width="0.75" stroke="#000000" stroke-opacity="0.49804" stroke-linecap="butt" stroke-linejoin="round"/>
  <text x="398" y="453.7" font-family="Helvetica" font-size="10" font-weight="normal" font-style="normal" fill="#000000" fill-opacity="1">64</text>
  <path d="M 463 9 L 463 441" fill="none" stroke-width="0.75" stroke="#000000" stroke-opacity="0.49804" stroke-linecap="butt" stroke-linejoin="round"/>
  <text x="454.5" y="453.7" font-family="Helvetica" font-size="10" font-weight="normal" font-style="normal" fill="#000000" fill-opacity="1">128</text>
  <path d="M 522 9 L 522 441" fill="none" stroke-width="0.75" stroke="#000000" stroke-opacity="0.49804" stroke-linecap="butt" stroke-linejoin="round"/>
  <text x="513.5" y="453.7" font-family="Helvetica" font-size="10" font-weight="normal" font-style="normal" fill="#000000" fill-opacity="1">256</text>
  <path d="M 581 9 L 581 441" fill="none" stroke-width="0.75" stroke="#000000" stroke-opacity="0.49804" stroke-linecap="butt" stroke-linejoin="round"/>
  <text x="572.5" y="453.7" font-family="Helvetica" font-size="10" font-weight="normal" font-style="normal" fill="#000000" fill-opacity="1">512</text>
  <path d="M 640 9 L 640 441" fill="none" stroke-width="0.75" stroke="#000000" stroke-opacity="0.49804" stroke-linecap="butt" stroke-linejoin="round"/>
  <text x="634.5" y="453.7" font-family="Helvetica" font-size="10" font-weight="normal" font-style="normal" fill="#000000" fill-opacity="1">1k</text>
  <path d="M 699 9 L 699 441" fill="none" stroke-width="0.75" stroke="#000000" stroke-opacity="0.49804" stroke-linecap="butt" stroke-linejoin="round"/>
  <text x="693.5" y="453.7" font-family="Helvetica" font-size="10" font-weight="normal" font-style="normal" fill="#000000" fill-opacity="1">2k</text>
  <path d="M 758 9 L 758 441" fill="none" stroke-width="0.75" stroke="#000000" stroke-opacity="0.49804" stroke-linecap="butt" stroke-linejoin="round"/>
  <text x="752.5" y="453.7" font-family="Helvetica" font-size="10" font-weight="normal" font-style="normal" fill="#000000" fill-opacity="1">4k</text>
  <path d="M 817 9 L 817 441" fill="none" stroke-width="0.75" stroke="#000000" stroke-opacity="0.49804" stroke-linecap="butt" stroke-linejoin="round"/>
  <text x="811.5" y="453.7" font-family="Helvetica" font-size="10" font-weight="normal" font-style="normal" fill="#000000" fill-opacity="1">8k</text>
  <path d="M 876 9 L 876 441" fill="none" stroke-width="0.75" stroke="#000000" stroke-opacity="0.49804" stroke-linecap="butt" stroke-linejoin="round"/>
  <text x="867.5" y="453.7" font-family="Helvetica" font-size="10" font-weight="normal" font-style="normal" fill="#000000" fill-opacity="1">16k</text>
  <path d="M 935 9 L 935 441" fill="none" stroke-width="0.75" stroke="#000000" stroke-opacity="0.49804" stroke-linecap="butt" stroke-linejoin="round"/>
  <text x="926.5" y="453.7" font-family="Helvetica" font-size="10" font-weight="normal" font-style="normal" fill="#000000" fill-opacity="1">32k</text>
  <path d="M 994 9 L 994 441" fill="none" stroke-width="0.75" stroke="#000000" stroke-opacity="0.49804" stroke-linecap="butt" stroke-linejoin="round"/>
  <text x="985.5" y="453.7" font-family="Helvetica" font-size="10" font-weight="normal" font-style="normal" fill="#000000" fill-opacity="1">64k</text>
  <path d="M 1053 9 L 1053 441" fill="none" stroke-width="0.75" stroke="#000000" stroke-opacity="0.49804" stroke-linecap="butt" stroke-linejoin="round"/>
  <text x="1042" y="453.7" font-family="Helvetica" font-size="10" font-weight="normal" font-style="normal" fill="#000000" fill-opacity="1">128k</text>
  <path d="M 1112 9 L 1112 441" fill="none" stroke-width="0.75" stroke="#000000" stroke-opacity="0.49804" stroke-linecap="butt" stroke-linejoin="round"/>
  <text x="1101" y="453.7" font-family="Helvetica" font-size="10" font-weight="normal" font-style="normal" fill="#000000" fill-opacity="1">256k</text>
  <path d="M 1171 9 L 1171 441" fill="none" stroke-width="0.75" stroke="#000000" stroke-opacity="0.49804" stroke-linecap="butt" stroke-linejoin="round"/>
  <text x="1160" y="453.7" font-family="Helvetica" font-size="10" font-weight="normal" font-style="normal" fill="#000000" fill-opacity="1">512k</text>
  <path d="M 1230 9 L 1230 441" fill="none" stroke-width="0.75" stroke="#000000" stroke-opacity="0.49804" stroke-linecap="butt" stroke-linejoin="round"/>
  <text x="1223" y="453.7" font-family="Helvetica" font-size="10" font-weight="normal" font-style="normal" fill="#000000" fill-opacity="1">1M</text>
  <path d="M 50 441 L 1230 441" fill="none" stroke-width="0.75" stroke="#000000" stroke-opacity="0.49804" stroke-linecap="butt" stroke-linejoin="round"/>
  <text x="27" y="442.7" font-family="Helvetica" font-size="10" font-weight="normal" font-style="normal" fill="#000000" fill-opacity="1">1 ns</text>
  <text x="1236" y="442.7" font-family="Helvetica" font-size="10" font-weight="normal" font-style="normal" fill="#000000" fill-opacity="1">1 ns</text>
  <path d="M 50 354.6 L 1230 354.6" fill="none" stroke-width="0.75" stroke="#000000" stroke-opacity="0.49804" stroke-linecap="butt" stroke-linejoin="round"/>
  <text x="21" y="356.3" font-family="Helvetica" font-size="10" font-weight="normal" font-style="normal" fill="#000000" fill-opacity="1">10 ns</text>
  <text x="1236" y="356.3" font-family="Helvetica" font-size="10" font-weight="normal" font-style="normal" fill="#000000" fill-opacity="1">10 ns</text>
  <path d="M 50 268.2 L 1230 268.2" fill="none" stroke-width="0.75" stroke="#000000" stroke-opacity="0.49804" stroke-linecap="butt" stroke-linejoin="round"/>
  <text x="16" y="269.9" font-family="Helvetica" font-size="10" font-weight="normal" font-style="normal" fill="#000000" fill-opacity="1">100 ns</text>
  <text x="1236" y="269.9" font-family="Helvetica" font-size="10" font-weight="normal" font-style="normal" fill="#000000" fill-opacity="1">100 ns</text>
  <path d="M 50 181.8 L 1230 181.8" fill="none" stroke-width="0.75" stroke="#000000" stroke-opacity="0.49804" stroke-linecap="butt" stroke-linejoin="round"/>
  <text x="26" y="183.5" font-family="Helvetica" font-size="10" font-weight="normal" font-style="normal" fill="#000000" fill-opacity="1">1 µs</text>
  <text x="1236" y="183.5" font-family="Helvetica" font-size="10" font-weight="normal" font-style="normal" fill="#000000" fill-opacity="1">1 µs</text>
  <path d="M 50 95.4 L 1230 95.4" fill="none" stroke-width="0.75" stroke="#000000" stroke-opacity="0.49804" stroke-linecap="butt" stroke-linejoin="round"/>
  <text x="21" y="97.1" font-family="Helvetica" font-size="10" font-weight="normal" font-style="normal" fill="#000000" fill-opacity="1">10 µs</text>
  <text x="1236" y="97.1" font-family="Helvetica" font-size="10" font-weight="normal" font-style="normal" fill="#000000" fill-opacity="1">10 µs</text>
  <path d="M 50 9 L 1230 9" fill="none" stroke-width="0.75" stroke="#000000" stroke-opacity="0.49804" stroke-linecap="butt" stroke-linejoin="round"/>
  <text x="15" y="10.7" font-family="Helvetica" font-size="10" font-weight="normal" font-style="normal" fill="#000000" fill-opacity="1">100 µs</text>
  <text x="1236" y="10.7" font-family="Helvetica" font-size="10" font-weight="normal" font-style="normal" fill="#000000" fill-opacity="1">100 µs</text>
  <path d="M 50 414.99 L 1230 414.99" fill="none" stroke-width="0.5" stroke="#000000" stroke-opacity="0.25882" stroke-linecap="butt" stroke-linejoin="round" stroke-dasharray="6 3" stroke-dashoffset="0"/>
  <path d="M 50 388.98 L 1230 388.98" fill="none" stroke-width="0.5" stroke="#000000" stroke-opacity="0.25882" stroke-linecap="butt" stroke-linejoin="round" stroke-dasharray="6 3" stroke-dashoffset="0"/>
  <path d="M 50 362.97 L 1230 362.97" fill="none" stroke-width="0.5" stroke="#000000" stroke-opacity="0.25882" stroke-linecap="butt" stroke-linejoin="round" stroke-dasharray="6 3" stroke-dashoffset="0"/>
  <path d="M 50 336.96 L 1230 336.96" fill="none" stroke-width="0.5" stroke="#000000" stroke-opacity="0.25882" stroke-linecap="butt" stroke-linejoin="round" stroke-dasharray="6 3" stroke-dashoffset="0"/>
  <path d="M 50 310.96 L 1230 310.96" fill="none" stroke-width="0.5" stroke="#000000" stroke-opacity="0.25882" stroke-linecap="butt" stroke-linejoin="round" stroke-dasharray="6 3" stroke-dashoffset="0"/>
  <path d="M 50 284.95 L 1230 284.95" fill="none" stroke-width="0.5" stroke="#000000" stroke-opacity="0.25882" stroke-linecap="butt" stroke-linejoin="round" stroke-dasharray="6 3" stroke-dashoffset="0"/>
  <path d="M 50 258.94 L 1230 258.94" fill="none" stroke-width="0.5" stroke="#000000" stroke-opacity="0.25882" stroke-linecap="butt" stroke-linejoin="round" stroke-dasharray="6 3" stroke-dashoffset="0"/>
  <path d="M 50 232.93 L 1230 232.93" fill="none" stroke-width="0.5" stroke="#000000" stroke-opacity="0.25882" stroke-linecap="butt" stroke-linejoin="round" stroke-dasharray="6 3" stroke-dashoffset="0"/>
  <path d="M 50 206.92 L 1230 206.92" fill="none" stroke-width="0.5" stroke="#000000" stroke-opacity="0.25882" stroke-linecap="butt" stroke-linejoin="round" stroke-dasharray="6 3" stroke-dashoffset="0"/>
  <path d="M 50 180.91 L 1230 180.91" fill="none" stroke-width="0.5" stroke="#000000" stroke-opacity="0.25882" stroke-linecap="butt" stroke-linejoin="round" stroke-dasharray="6 3" stroke-dashoffset="0"/>
  <path d="M 50 154.9 L 1230 154.9" fill="none" stroke-width="0.5" stroke="#000000" stroke-opacity="0.25882" stroke-linecap="butt" stroke-linejoin="round" stroke-dasharray="6 3" stroke-dashoffset="0"/>
  <path d="M 50 128.89 L 1230 128.89" fill="none" stroke-width="0.5" stroke="#000000" stroke-opacity="0.25882" stroke-linecap="butt" stroke-linejoin="round" stroke-dasharray="6 3" stroke-dashoffset="0"/>
  <path d="M 50 102.88 L 1230 102.88" fill="none" stroke-width="0.5" stroke="#000000" stroke-opacity="0.25882" stroke-linecap="butt" stroke-linejoin="round" stroke-dasharray="6 3" stroke-dashoffset="0"/>
  <path d="M 50 76.874 L 1230 76.874" fill="none" stroke-width="0.5" stroke="#000000" stroke-opacity="0.25882" stroke-linecap="butt" stroke-linejoin="round" stroke-dasharray="6 3" stroke-dashoffset="0"/>
  <path d="M 50 50.865 L 1230 50.865" fill="none" stroke-width="0.5" stroke="#000000" stroke-opacity="0.25882" stroke-linecap="butt" stroke-linejoin="round" stroke-dasharray="6 3" stroke-dashoffset="0"/>
  <path d="M 50 24.856 L 1230 24.856" fill="none" stroke-width="0.5" stroke="#000000" stroke-opacity="0.25882" stroke-linecap="butt" stroke-linejoin="round" stroke-dasharray="6 3" stroke-dashoffset="0"/>
  <path d="M 74 33 L 74 88 L 290 88 L 290 33 z" fill="#FFFFFF" fill-opacity="1.0" stroke="none"/>
  <clipPath id="clip-0">
    <path d="M 50 9 L 50 441 L 1230 441 L 1230 9 z"/>
  </clipPath>
  <g clip-path="url(#clip-0)">
    <path d="M 50 240.46L 109 256.74L 143.51 263.87L 168 266.68L 186.99 268.57L 202.51 268.97L 215.63 261.9L 227 264.18L 245.99 264.24L 261.51 265.93L 274.63 266.82L 286 267.7L 304.99 269.4L 320.51 268.53L 333.63 267.63L 345 268.42L 363.99 268.39L 379.51 269.36L 392.63 267.5L 404 266.67L 422.99 265.19L 438.51 262.85L 451.63 265.76L 463 263.66L 481.99 263.94L 497.51 263.21L 510.63 263.31L 522 262.44L 540.99 262.6L 556.51 260.47L 569.63 259.59L 581 256.94L 599.99 259.79L 615.51 256.59L 628.63 256.4L 640 253.77L 658.99 257.53L 674.51 252.72L 687.63 255.43L 699 256.53L 717.99 254.07L 733.51 253.53L 746.63 251.97L 758 253.55L 776.99 252.78L 792.51 250.55L 805.63 252.07L 817 250.01L 835.99 250.58L 851.51 250.6L 864.63 249.96L 876 249.81L 894.99 248.92L 910.51 247.52L 923.63 246.59L 935 247.92L 953.99 246.14L 969.51 245.23L 982.63 245.97L 994 244.32L 1013 241.73L 1028.5 244.1L 1041.6 242.17L 1053 243.61L 1072 242.45L 1087.5 242.1L 1100.6 241.6L 1112 238.34L 1131 240.34L 1146.5 238.19L 1159.6 239.26L 1171 238.72L 1190 239.18L 1205.5 238.18L 1218.6 238.25L 1230 238.49L 1230 239.36L 1218.6 238.71L 1205.5 238.42L 1190 239.51L 1171 239.46L 1159.6 241.05L 1146.5 241L 1131 241.28L 1112 242.83L 1100.6 242.43L 1087.5 242.46L 1072 243.16L 1053 243.86L 1041.6 245.27L 1028.5 244.47L 1013 245.6L 994 246.06L 982.63 246.07L 969.51 246.71L 953.99 246.58L 935 248.38L 923.63 248.19L 910.51 248.42L 894.99 250.24L 876 249.98L 864.63 250.24L 851.51 251.52L 835.99 251.87L 817 252.94L 805.63 252.37L 792.51 252.27L 776.99 253.1L 758 254L 746.63 255.32L 733.51 254.79L 717.99 254.8L 699 257.19L 687.63 256.24L 674.51 257.16L 658.99 258.18L 640 259.96L 628.63 258.86L 615.51 259.68L 599.99 262.5L 581 261.18L 569.63 260.41L 556.51 261.71L 540.99 263.05L 522 263.12L 510.63 264.27L 497.51 265.14L 481.99 265.64L 463 266.62L 451.63 266.37L 438.51 270.97L 422.99 268.83L 404 268.88L 392.63 269.04L 379.51 269.59L 363.99 269.63L 345 270.16L 333.63 270.7L 320.51 270.37L 304.99 270.26L 286 269.63L 274.63 267.27L 261.51 266.67L 245.99 266.29L 227 265.27L 215.63 263.94L 202.51 271.61L 186.99 270.49L 168 270.62L 143.51 264.96L 109 257.41L 50 240.63" fill="#007AFF" fill-opacity="0.30196078431372547" stroke="none"/>
    <path d="M 50 291.2L 109 313.91L 143.51 327.82L 168 335.91L 186.99 344.76L 202.51 348.84L 215.63 352.93L 227 357.02L 245.99 363.19L 261.51 368.85L 274.63 372.59L 286 376.19L 304.99 380.14L 320.51 382.23L 333.63 381.85L 345 376.62L 363.99 374.82L 379.51 378.75L 392.63 379.41L 404 378.18L 422.99 378.52L 438.51 377.78L 451.63 376.11L 463 377.23L 481.99 372.16L 497.51 368L 510.63 363.44L 522 360.02L 540.99 353.27L 556.51 348.59L 569.63 344.11L 581 337.76L 599.99 331.51L 615.51 317.18L 628.63 312.58L 640 315.44L 658.99 306.38L 674.51 296.76L 687.63 288.06L 699 287.29L 717.99 279.73L 733.51 272.8L 746.63 267.87L 758 264.16L 776.99 254.57L 792.51 248.67L 805.63 241.12L 817 237.72L 835.99 228.4L 851.51 221.18L 864.63 214.41L 876 209.67L 894.99 198.88L 910.51 187.97L 923.63 182.24L 935 174.94L 953.99 164.85L 969.51 157.64L 982.63 152.28L 994 147.16L 1013 138.95L 1028.5 131.39L 1041.6 126.12L 1053 121.38L 1072 112.65L 1087.5 105.63L 1100.6 99.907L 1112 94.699L 1112 95.019L 1100.6 100.36L 1087.5 105.98L 1072 113.14L 1053 121.77L 1041.6 126.52L 1028.5 132.72L 1013 139.57L 994 147.96L 982.63 153.15L 969.51 158.74L 953.99 166.22L 935 176.43L 923.63 182.32L 910.51 189.54L 894.99 199.19L 876 211.39L 864.63 216.49L 851.51 222.31L 835.99 229.12L 817 237.81L 805.63 242.79L 792.51 248.73L 776.99 255.59L 758 264.18L 746.63 268.01L 733.51 273.81L 717.99 281.01L 699 288.98L 687.63 295.93L 674.51 297.53L 658.99 308.38L 640 316.29L 628.63 316.6L 615.51 324.71L 599.99 332.61L 581 340.28L 569.63 344.13L 556.51 348.73L 540.99 353.86L 522 360.02L 510.63 363.8L 497.51 368.18L 481.99 372.46L 463 377.45L 451.63 377.07L 438.51 378.24L 422.99 379.3L 404 379.79L 392.63 379.62L 379.51 379.84L 363.99 379.14L 345 376.82L 333.63 384.36L 320.51 382.75L 304.99 380.14L 286 376.19L 274.63 372.6L 261.51 368.85L 245.99 363.56L 227 357.02L 215.63 354.6L 202.51 349.27L 186.99 344.76L 168 335.91L 143.51 327.82L 109 313.91L 50 291.2" fill="#FF3B30" fill-opacity="0.30196078431372547" stroke="none"/>
    <path d="M 50 240.58L 109 257.23L 143.51 264.67L 168 269.55L 186.99 269.98L 202.51 270.9L 215.63 263.4L 227 264.98L 245.99 265.75L 261.51 266.47L 274.63 267.15L 286 269.12L 304.99 270.04L 320.51 269.88L 333.63 269.87L 345 269.7L 363.99 269.3L 379.51 269.53L 392.63 268.63L 404 268.29L 422.99 267.84L 438.51 268.67L 451.63 266.21L 463 265.82L 481.99 265.19L 497.51 264.62L 510.63 264.01L 522 262.94L 540.99 262.93L 556.51 261.39L 569.63 260.19L 581 260.03L 599.99 261.77L 615.51 258.85L 628.63 258.2L 640 258.24L 658.99 258.01L 674.51 255.94L 687.63 256.03L 699 257.01L 717.99 254.61L 733.51 254.46L 746.63 254.41L 758 253.88L 776.99 253.02L 792.51 251.82L 805.63 252.29L 817 252.15L 835.99 251.53L 851.51 251.28L 864.63 250.17L 876 249.94L 894.99 249.89L 910.51 248.18L 923.63 247.76L 935 248.26L 953.99 246.47L 969.51 246.31L 982.63 246.04L 994 245.6L 1013 244.55L 1028.5 244.37L 1041.6 244.43L 1053 243.79L 1072 242.97L 1087.5 242.37L 1100.6 242.21L 1112 241.6L 1131 241.03L 1146.5 240.25L 1159.6 240.57L 1171 239.26L 1190 239.43L 1205.5 238.36L 1218.6 238.59L 1230 239.13" fill="none" stroke-width="4" stroke="#007AFF" stroke-opacity="1" stroke-linecap="round" stroke-linejoin="round"/>
    <path d="M 50 291.2L 109 313.91L 143.51 327.82L 168 335.91L 186.99 344.76L 202.51 349.16L 215.63 354.16L 227 357.02L 245.99 363.47L 261.51 368.85L 274.63 372.6L 286 376.19L 304.99 380.14L 320.51 382.62L 333.63 383.69L 345 376.77L 363.99 377.96L 379.51 379.55L 392.63 379.56L 404 379.36L 422.99 379.1L 438.51 378.12L 451.63 376.82L 463 377.39L 481.99 372.38L 497.51 368.13L 510.63 363.71L 522 360.02L 540.99 353.71L 556.51 348.7L 569.63 344.12L 581 339.6L 599.99 332.32L 615.51 322.6L 628.63 315.51L 640 316.06L 658.99 307.84L 674.51 297.33L 687.63 293.71L 699 288.53L 717.99 280.67L 733.51 273.55L 746.63 267.97L 758 264.17L 776.99 255.32L 792.51 248.71L 805.63 242.34L 817 237.79L 835.99 228.93L 851.51 222.01L 864.63 215.94L 876 210.93L 894.99 199.11L 910.51 189.12L 923.63 182.3L 935 176.03L 953.99 165.86L 969.51 158.45L 982.63 152.92L 994 147.75L 1013 139.41L 1028.5 132.37L 1041.6 126.41L 1053 121.67L 1072 113.01L 1087.5 105.89L 1100.6 100.24L 1112 94.935" fill="none" stroke-width="4" stroke="#FF3B30" stroke-opacity="1" stroke-linecap="round" stroke-linejoin="round"/>
    <path d="M 50 240.58L 109 257.23L 143.51 264.67L 168 269.55L 186.99 269.98L 202.51 270.9L 215.63 263.4L 227 264.98L 245.99 265.75L 261.51 266.47L 274.63 267.15L 286 269.12L 304.99 270.04L 320.51 269.88L 333.63 269.87L 345 269.7L 363.99 269.3L 379.51 269.53L 392.63 268.63L 404 268.29L 422.99 267.84L 438.51 268.67L 451.63 266.21L 463 265.82L 481.99 265.19L 497.51 264.62L 510.63 264.01L 522 262.94L 540.99 262.93L 556.51 261.39L 569.63 260.19L 581 260.03L 599.99 261.77L 615.51 258.85L 628.63 258.2L 640 258.24L 658.99 258.01L 674.51 255.94L 687.63 256.03L 699 257.01L 717.99 254.61L 733.51 254.46L 746.63 254.41L 758 253.88L 776.99 253.02L 792.51 251.82L 805.63 252.29L 817 252.15L 835.99 251.53L 851.51 251.28L 864.63 250.17L 876 249.94L 894.99 249.89L 910.51 248.18L 923.63 247.76L 935 248.26L 953.99 246.47L 969.51 246.31L 982.63 246.04L 994 245.6L 1013 244.55L 1028.5 244.37L 1041.6 244.43L 1053 243.79L 1072 242.97L 1087.5 242.37L 1100.6 242.21L 1112 241.6L 1131 241.03L 1146.5 240.25L 1159.6 240.57L 1171 239.26L 1190 239.43L 1205.5 238.36L 1218.6 238.59L 1230 239.13" fill="none" stroke-width="0.5" stroke="#000000" stroke-opacity="0.30196" stroke-linecap="round" stroke-linejoin="round"/>
    <path d="M 50 291.2L 109 313.91L 143.51 327.82L 168 335.91L 186.99 344.76L 202.51 349.16L 215.63 354.16L 227 357.02L 245.99 363.47L 261.51 368.85L 274.63 372.6L 286 376.19L 304.99 380.14L 320.51 382.62L 333.63 383.69L 345 376.77L 363.99 377.96L 379.51 379.55L 392.63 379.56L 404 379.36L 422.99 379.1L 438.51 378.12L 451.63 376.82L 463 377.39L 481.99 372.38L 497.51 368.13L 510.63 363.71L 522 360.02L 540.99 353.71L 556.51 348.7L 569.63 344.12L 581 339.6L 599.99 332.32L 615.51 322.6L 628.63 315.51L 640 316.06L 658.99 307.84L 674.51 297.33L 687.63 293.71L 699 288.53L 717.99 280.67L 733.51 273.55L 746.63 267.97L 758 264.17L 776.99 255.32L 792.51 248.71L 805.63 242.34L 817 237.79L 835.99 228.93L 851.51 222.01L 864.63 215.94L 876 210.93L 894.99 199.11L 910.51 189.12L 923.63 182.3L 935 176.03L 953.99 165.86L 969.51 158.45L 982.63 152.92L 994 147.75L 1013 139.41L 1028.5 132.37L 1041.6 126.41L 1053 121.67L 1072 113.01L 1087.5 105.89L 1100.6 100.24L 1112 94.935" fill="none" stroke-width="0.5" stroke="#000000" stroke-opacity="0.30196" stroke-linecap="round" stroke-linejoin="round"/>
  </g>
  <path d="M 74 33 L 74 88 L 290 88 L 290 33 z" fill="#FFFFFF" fill-opacity="0.7019607843137254" stroke-width="0.5" stroke="#000000" stroke-opacity="1" stroke-linecap="round" stroke-linejoin="round"/>
  <path d="M 88 52 L 108 52" fill="none" stroke-width="4" stroke="#FF3B30" stroke-opacity="1" stroke-linecap="round" stroke-linejoin="round"/>
  <path d="M 88 52 L 108 52" fill="none" stroke-width="0.5" stroke="#000000" stroke-opacity="0.30196" stroke-linecap="round" stroke-linejoin="round"/>
  <text x="119" y="56.17" font-family="Menlo" font-size="12" font-weight="normal" font-style="normal" fill="#000000" fill-opacity="1">Array&lt;Int&gt; kalimba</text>
  <path d="M 88 69 L 108 69" fill="none" stroke-width="4" stroke="#007AFF" stroke-opacity="1" stroke-linecap="round" stroke-linejoin="round"/>
  <path d="M 88 69 L 108 69" fill="none" stroke-width="0.5" stroke="#000000" stroke-opacity="0.30196" stroke-linecap="round" stroke-linejoin="round"/>
  <text x="119" y="73.17" font-family="Menlo" font-size="12" font-weight="normal" font-style="normal" fill="#000000" fill-opacity="1">TreeArray&lt;Int&gt; kalimba</text>
  <path d="M 50 9 L 50 441 L 1230 441 L 1230 9 z" fill="none" stroke-width="0.5" stroke="#000000" stroke-opacity="1" stroke-linecap="round" stroke-linejoin="round"/>
</svg>
