<!DOCTYPE svg PUBLIC "-//W3C//DTD SVG 1.1//EN" "http://www.w3.org/Graphics/SVG/1.1/DTD/svg11.dtd">
<svg width="1280.0px" height="480.0px" viewBox="0.0 0.0 1280.0 480.0" xmlns="http://www.w3.org/2000/svg" xmlns:xlink="http://www.w3.org/1999/xlink" version="1.1">
  <path d="M 0 0 L 0 480 L 1280 480 L 1280 0 z" fill="#FFFFFF" fill-opacity="1.0" stroke="none"/>
  <text x="50" y="468.7" font-family="Helvetica" font-size="10" font-weight="normal" font-style="normal" fill="#000000" fill-opacity="1">Average per-element processing time over input size (bands: min, mean, mean + 2stddev)</text>
  <a xlink:href="https://github.com/apple/swift-collections-benchmark"><text x="1107" y="468.7" font-family="Helvetica" font-size="10" font-weight="normal" font-style="normal" fill="#000000" fill-opacity="1">swift-collections-benchmark</text></a>
  <path d="M 50 9 L 50 441" fill="none" stroke-width="0.75" stroke="#000000" stroke-opacity="0.49804" stroke-linecap="butt" stroke-linejoin="round"/>
  <text x="47" y="453.7" font-family="Helvetica" font-size="10" font-weight="normal" font-style="normal" fill="#000000" fill-opacity="1">1</text>
  <path d="M 109 9 L 109 441" fill="none" stroke-width="0.75" stroke="#000000" stroke-opacity="0.49804" stroke-linecap="butt" stroke-linejoin="round"/>
  <text x="106" y="453.7" font-family="Helvetica" font-size="10" font-weight="normal" font-style="normal" fill="#000000" fill-opacity="1">2</text>
  <path d="M 168 9 L 168 441" fill="none" stroke-width="0.75" stroke="#000000" stroke-opacity="0.49804" stroke-linecap="butt" stroke-linejoin="round"/>
  <text x="165" y="453.7" font-family="Helvetica" font-size="10" font-weight="normal" font-style="normal" fill="#000000" fill-opacity="1">4</text>
  <path d="M 227 9 L 227 441" fill="none" stroke-width="0.75" stroke="#000000" stroke-opacity="0.49804" stroke-linecap="butt" stroke-linejoin="round"/>
  <text x="224" y="453.7" font-family="Helvetica" font-size="10" font-weight="normal" font-style="normal" fill="#000000" fill-opacity="1">8</text>
  <path d="M 286 9 L 286 441" fill="none" stroke-width="0.75" stroke="#000000" stroke-opacity="0.49804" stroke-linecap="butt" stroke-linejoin="round"/>
  <text x="280" y="453.7" font-family="Helvetica" font-size="10" font-weight="normal" font-style="normal" fill="#000000" fill-opacity="1">16</text>
  <path d="M 345 9 L 345 441" fill="none" stroke-width="0.75" stroke="#000000" stroke-opacity="0.49804" stroke-linecap="butt" stroke-linejoin="round"/>
  <text x="339" y="453.7" font-family="Helvetica" font-size="10" font-weight="normal" font-style="normal" fill="#000000" fill-opacity="1">32</text>
  <path d="M 404 9 L 404 441" fill="none" stroke-width="0.75" stroke="#000000" stroke-opacity="0.49804" stroke-linecap="butt" stroke-linejoin="round"/>
  <text x="398" y="453.7" font-family="Helvetica" font-size="10" font-weight="normal" font-style="normal" fill="#000000" fill-opacity="1">64</text>
  <path d="M 463 9 L 463 441" fill="none" stroke-width="0.75" stroke="#000000" stroke-opacity="0.49804" stroke-linecap="butt" stroke-linejoin="round"/>
  <text x="454.5" y="453.7" font-family="Helvetica" font-size="10" font-weight="normal" font-style="normal" fill="#000000" fill-opacity="1">128</text>
  <path d="M 522 9 L 522 441" fill="none" stroke-width="0.75" stroke="#000000" stroke-opacity="0.49804" stroke-linecap="butt" stroke-linejoin="round"/>
  <text x="513.5" y="453.7" font-family="Helvetica" font-size="10" font-weight="normal" font-style="normal" fill="#000000" fill-opacity="1">256</text>
  <path d="M 581 9 L 581 441" fill="none" stroke-width="0.75" stroke="#000000" stroke-opacity="0.49804" stroke-linecap="butt" stroke-linejoin="round"/>
  <text x="572.5" y="453.7" font-family="Helvetica" font-size="10" font-weight="normal" font-style="normal" fill="#000000" fill-opacity="1">512</text>
  <path d="M 640 9 L 640 441" fill="none" stroke-width="0.75" stroke="#000000" stroke-opacity="0.49804" stroke-linecap="butt" stroke-linejoin="round"/>
  <text x="634.5" y="453.7" font-family="Helvetica" font-size="10" font-weight="normal" font-style="normal" fill="#000000" fill-opacity="1">1k</text>
  <path d="M 699 9 L 699 441" fill="none" stroke-width="0.75" stroke="#000000" stroke-opacity="0.49804" stroke-linecap="butt" stroke-linejoin="round"/>
  <text x="693.5" y="453.7" font-family="Helvetica" font-size="10" font-weight="normal" font-style="normal" fill="#000000" fill-opacity="1">2k</text>
  <path d="M 758 9 L 758 441" fill="none" stroke-width="0.75" stroke="#000000" stroke-opacity="0.49804" stroke-linecap="butt" stroke-linejoin="round"/>
  <text x="752.5" y="453.7" font-family="Helvetica" font-size="10" font-weight="normal" font-style="normal" fill="#000000" fill-opacity="1">4k</text>
  <path d="M 817 9 L 817 441" fill="none" stroke-width="0.75" stroke="#000000" stroke-opacity="0.49804" stroke-linecap="butt" stroke-linejoin="round"/>
  <text x="811.5" y="453.7" font-family="Helvetica" font-size="10" font-weight="normal" font-style="normal" fill="#000000" fill-opacity="1">8k</text>
  <path d="M 876 9 L 876 441" fill="none" stroke-width="0.75" stroke="#000000" stroke-opacity="0.49804" stroke-linecap="butt" stroke-linejoin="round"/>
  <text x="867.5" y="453.7" font-family="Helvetica" font-size="10" font-weight="normal" font-style="normal" fill="#000000" fill-opacity="1">16k</text>
  <path d="M 935 9 L 935 441" fill="none" stroke-width="0.75" stroke="#000000" stroke-opacity="0.49804" stroke-linecap="butt" stroke-linejoin="round"/>
  <text x="926.5" y="453.7" font-family="Helvetica" font-size="10" font-weight="normal" font-style="normal" fill="#000000" fill-opacity="1">32k</text>
  <path d="M 994 9 L 994 441" fill="none" stroke-width="0.75" stroke="#000000" stroke-opacity="0.49804" stroke-linecap="butt" stroke-linejoin="round"/>
  <text x="985.5" y="453.7" font-family="Helvetica" font-size="10" font-weight="normal" font-style="normal" fill="#000000" fill-opacity="1">64k</text>
  <path d="M 1053 9 L 1053 441" fill="none" stroke-width="0.75" stroke="#000000" stroke-opacity="0.49804" stroke-linecap="butt" stroke-linejoin="round"/>
  <text x="1042" y="453.7" font-family="Helvetica" font-size="10" font-weight="normal" font-style="normal" fill="#000000" fill-opacity="1">128k</text>
  <path d="M 1112 9 L 1112 441" fill="none" stroke-width="0.75" stroke="#000000" stroke-opacity="0.49804" stroke-linecap="butt" stroke-linejoin="round"/>
  <text x="1101" y="453.7" font-family="Helvetica" font-size="10" font-weight="normal" font-style="normal" fill="#000000" fill-opacity="1">256k</text>
  <path d="M 1171 9 L 1171 441" fill="none" stroke-width="0.75" stroke="#000000" stroke-opacity="0.49804" stroke-linecap="butt" stroke-linejoin="round"/>
  <text x="1160" y="453.7" font-family="Helvetica" font-size="10" font-weight="normal" font-style="normal" fill="#000000" fill-opacity="1">512k</text>
  <path d="M 1230 9 L 1230 441" fill="none" stroke-width="0.75" stroke="#000000" stroke-opacity="0.49804" stroke-linecap="butt" stroke-linejoin="round"/>
  <text x="1223" y="453.7" font-family="Helvetica" font-size="10" font-weight="normal" font-style="normal" fill="#000000" fill-opacity="1">1M</text>
  <path d="M 50 441 L 1230 441" fill="none" stroke-width="0.75" stroke="#000000" stroke-opacity="0.49804" stroke-linecap="butt" stroke-linejoin="round"/>
  <text x="27" y="442.7" font-family="Helvetica" font-size="10" font-weight="normal" font-style="normal" fill="#000000" fill-opacity="1">1 ns</text>
  <text x="1236" y="442.7" font-family="Helvetica" font-size="10" font-weight="normal" font-style="normal" fill="#000000" fill-opacity="1">1 ns</text>
  <path d="M 50 354.6 L 1230 354.6" fill="none" stroke-width="0.75" stroke="#000000" stroke-opacity="0.49804" stroke-linecap="butt" stroke-linejoin="round"/>
  <text x="21" y="356.3" font-family="Helvetica" font-size="10" font-weight="normal" font-style="normal" fill="#000000" fill-opacity="1">10 ns</text>
  <text x="1236" y="356.3" font-family="Helvetica" font-size="10" font-weight="normal" font-style="normal" fill="#000000" fill-opacity="1">10 ns</text>
  <path d="M 50 268.2 L 1230 268.2" fill="none" stroke-width="0.75" stroke="#000000" stroke-opacity="0.49804" stroke-linecap="butt" stroke-linejoin="round"/>
  <text x="16" y="269.9" font-family="Helvetica" font-size="10" font-weight="normal" font-style="normal" fill="#000000" fill-opacity="1">100 ns</text>
  <text x="1236" y="269.9" font-family="Helvetica" font-size="10" font-weight="normal" font-style="normal" fill="#000000" fill-opacity="1">100 ns</text>
  <path d="M 50 181.8 L 1230 181.8" fill="none" stroke-width="0.75" stroke="#000000" stroke-opacity="0.49804" stroke-linecap="butt" stroke-linejoin="round"/>
  <text x="26" y="183.5" font-family="Helvetica" font-size="10" font-weight="normal" font-style="normal" fill="#000000" fill-opacity="1">1 µs</text>
  <text x="1236" y="183.5" font-family="Helvetica" font-size="10" font-weight="normal" font-style="normal" fill="#000000" fill-opacity="1">1 µs</text>
  <path d="M 50 95.4 L 1230 95.4" fill="none" stroke-width="0.75" stroke="#000000" stroke-opacity="0.49804" stroke-linecap="butt" stroke-linejoin="round"/>
  <text x="21" y="97.1" font-family="Helvetica" font-size="10" font-weight="normal" font-style="normal" fill="#000000" fill-opacity="1">10 µs</text>
  <text x="1236" y="97.1" font-family="Helvetica" font-size="10" font-weight="normal" font-style="normal" fill="#000000" fill-opacity="1">10 µs</text>
  <path d="M 50 9 L 1230 9" fill="none" stroke-width="0.75" stroke="#000000" stroke-opacity="0.49804" stroke-linecap="butt" stroke-linejoin="round"/>
  <text x="15" y="10.7" font-family="Helvetica" font-size="10" font-weight="normal" font-style="normal" fill="#000000" fill-opacity="1">100 µs</text>
  <text x="1236" y="10.7" font-family="Helvetica" font-size="10" font-weight="normal" font-style="normal" fill="#000000" fill-opacity="1">100 µs</text>
  <path d="M 50 414.99 L 1230 414.99" fill="none" stroke-width="0.5" stroke="#000000" stroke-opacity="0.25882" stroke-linecap="butt" stroke-linejoin="round" stroke-dasharray="6 3" stroke-dashoffset="0"/>
  <path d="M 50 388.98 L 1230 388.98" fill="none" stroke-width="0.5" stroke="#000000" stroke-opacity="0.25882" stroke-linecap="butt" stroke-linejoin="round" stroke-dasharray="6 3" stroke-dashoffset="0"/>
  <path d="M 50 362.97 L 1230 362.97" fill="none" stroke-width="0.5" stroke="#000000" stroke-opacity="0.25882" stroke-linecap="butt" stroke-linejoin="round" stroke-dasharray="6 3" stroke-dashoffset="0"/>
  <path d="M 50 336.96 L 1230 336.96" fill="none" stroke-width="0.5" stroke="#000000" stroke-opacity="0.25882" stroke-linecap="butt" stroke-linejoin="round" stroke-dasharray="6 3" stroke-dashoffset="0"/>
  <path d="M 50 310.96 L 1230 310.96" fill="none" stroke-width="0.5" stroke="#000000" stroke-opacity="0.25882" stroke-linecap="butt" stroke-linejoin="round" stroke-dasharray="6 3" stroke-dashoffset="0"/>
  <path d="M 50 284.95 L 1230 284.95" fill="none" stroke-width="0.5" stroke="#000000" stroke-opacity="0.25882" stroke-linecap="butt" stroke-linejoin="round" stroke-dasharray="6 3" stroke-dashoffset="0"/>
  <path d="M 50 258.94 L 1230 258.94" fill="none" stroke-width="0.5" stroke="#000000" stroke-opacity="0.25882" stroke-linecap="butt" stroke-linejoin="round" stroke-dasharray="6 3" stroke-dashoffset="0"/>
  <path d="M 50 232.93 L 1230 232.93" fill="none" stroke-width="0.5" stroke="#000000" stroke-opacity="0.25882" stroke-linecap="butt" stroke-linejoin="round" stroke-dasharray="6 3" stroke-dashoffset="0"/>
  <path d="M 50 206.92 L 1230 206.92" fill="none" stroke-width="0.5" stroke="#000000" stroke-opacity="0.25882" stroke-linecap="butt" stroke-linejoin="round" stroke-dasharray="6 3" stroke-dashoffset="0"/>
  <path d="M 50 180.91 L 1230 180.91" fill="none" stroke-width="0.5" stroke="#000000" stroke-opacity="0.25882" stroke-linecap="butt" stroke-linejoin="round" stroke-dasharray="6 3" stroke-dashoffset="0"/>
  <path d="M 50 154.9 L 1230 154.9" fill="none" stroke-width="0.5" stroke="#000000" stroke-opacity="0.25882" stroke-linecap="butt" stroke-linejoin="round" stroke-dasharray="6 3" stroke-dashoffset="0"/>
  <path d="M 50 128.89 L 1230 128.89" fill="none" stroke-width="0.5" stroke="#000000" stroke-opacity="0.25882" stroke-linecap="butt" stroke-linejoin="round" stroke-dasharray="6 3" stroke-dashoffset="0"/>
  <path d="M 50 102.88 L 1230 102.88" fill="none" stroke-width="0.5" stroke="#000000" stroke-opacity="0.25882" stroke-linecap="butt" stroke-linejoin="round" stroke-dasharray="6 3" stroke-dashoffset="0"/>
  <path d="M 50 76.874 L 1230 76.874" fill="none" stroke-width="0.5" stroke="#000000" stroke-opacity="0.25882" stroke-linecap="butt" stroke-linejoin="round" stroke-dasharray="6 3" stroke-dashoffset="0"/>
  <path d="M 50 50.865 L 1230 50.865" fill="none" stroke-width="0.5" stroke="#000000" stroke-opacity="0.25882" stroke-linecap="butt" stroke-linejoin="round" stroke-dasharray="6 3" stroke-dashoffset="0"/>
  <path d="M 50 24.856 L 1230 24.856" fill="none" stroke-width="0.5" stroke="#000000" stroke-opacity="0.25882" stroke-linecap="butt" stroke-linejoin="round" stroke-dasharray="6 3" stroke-dashoffset="0"/>
  <path d="M 74 33 L 74 88 L 290 88 L 290 33 z" fill="#FFFFFF" fill-opacity="1.0" stroke="none"/>
  <clipPath id="clip-0">
    <path d="M 50 9 L 50 441 L 1230 441 L 1230 9 z"/>
  </clipPath>
  <g clip-path="url(#clip-0)">
    <path d="M 50 244.87L 109 259.83L 143.51 263.72L 168 265.57L 186.99 265.49L 202.51 266.4L 215.63 267.17L 227 254.99L 245.99 262.67L 261.51 261.19L 274.63 261.3L 286 263.97L 304.99 264.79L 320.51 263.52L 333.63 263.27L 345 262.88L 363.99 261.39L 379.51 261.46L 392.63 263.1L 404 262.48L 422.99 260.89L 438.51 259.78L 451.63 261.44L 463 261.03L 481.99 260.27L 497.51 259.78L 510.63 259.64L 522 258.47L 540.99 258.48L 556.51 257.7L 569.63 255.91L 581 256.39L 599.99 255.97L 615.51 254.76L 628.63 254.84L 640 253.11L 658.99 253.84L 674.51 252.57L 687.63 251L 699 252.13L 717.99 251.92L 733.51 251.72L 746.63 249.93L 758 249.54L 776.99 249.42L 792.51 249.18L 805.63 247.49L 817 246.93L 835.99 247.24L 851.51 246.32L 864.63 246.76L 876 246.06L 894.99 245L 910.51 245.55L 923.63 246.72L 935 243.8L 953.99 243.35L 969.51 241.4L 982.63 242.16L 994 241.87L 1013 241.51L 1028.5 242.48L 1041.6 240.18L 1053 240.14L 1072 240.89L 1087.5 238.9L 1100.6 239.05L 1112 238.46L 1131 236.81L 1146.5 236.51L 1159.6 234.07L 1171 236.53L 1190 236.96L 1205.5 236.14L 1218.6 235.32L 1230 234.44L 1230 236.84L 1218.6 237.37L 1205.5 237.04L 1190 238.4L 1171 237.6L 1159.6 238.76L 1146.5 238.16L 1131 238.8L 1112 239.98L 1100.6 240.99L 1087.5 240.24L 1072 242.07L 1053 241.64L 1041.6 243.24L 1028.5 242.58L 1013 242.58L 994 243.23L 982.63 243.28L 969.51 244.21L 953.99 245.53L 935 245.08L 923.63 246.74L 910.51 246.39L 894.99 246L 876 246.53L 864.63 247.2L 851.51 247.81L 835.99 248.27L 817 249.64L 805.63 249.32L 792.51 249.5L 776.99 249.89L 758 250.48L 746.63 251.07L 733.51 252.44L 717.99 252.48L 699 252.33L 687.63 255.01L 674.51 253.7L 658.99 254.19L 640 254.6L 628.63 255L 615.51 256.32L 599.99 257.17L 581 258.72L 569.63 257.76L 556.51 257.74L 540.99 258.71L 522 260.77L 510.63 259.89L 497.51 260.19L 481.99 260.62L 463 261.22L 451.63 261.54L 438.51 262.67L 422.99 262.51L 404 262.88L 392.63 263.34L 379.51 263.79L 363.99 265.19L 345 264.76L 333.63 264.97L 320.51 265.69L 304.99 266.67L 286 265.75L 274.63 265.61L 261.51 265.44L 245.99 264.2L 227 257.58L 215.63 268.83L 202.51 269.25L 186.99 268.99L 168 267.35L 143.51 265.53L 109 259.83L 50 247.02" fill="#007AFF" fill-opacity="0.30196078431372547" stroke="none"/>
    <path d="M 50 290.92L 109 313.91L 143.51 327.82L 168 335.91L 186.99 343.84L 202.51 346.94L 215.63 353.72L 227 357.02L 245.99 363.56L 261.51 368.85L 274.63 372.43L 286 373.97L 304.99 380.16L 320.51 382.36L 333.63 383.68L 345 374.21L 363.99 376.7L 379.51 376.51L 392.63 378.95L 404 379.79L 422.99 378.41L 438.51 369.31L 451.63 375.79L 463 375.19L 481.99 352.03L 497.51 368L 510.63 363.48L 522 353.33L 540.99 347.55L 556.51 348.67L 569.63 344.18L 581 340.01L 599.99 323.26L 615.51 326.41L 628.63 321.1L 640 313.55L 658.99 301.47L 674.51 294.78L 687.63 291.33L 699 288.34L 717.99 280.74L 733.51 274.09L 746.63 267.28L 758 264.12L 776.99 255.59L 792.51 248.75L 805.63 242.81L 817 237.8L 835.99 228.49L 851.51 221.36L 864.63 214.9L 876 210.55L 894.99 198.86L 910.51 188.58L 923.63 182.25L 935 175.66L 953.99 166.43L 969.51 159.47L 982.63 151.93L 994 148.13L 1013 139.04L 1028.5 132.22L 1041.6 126L 1053 121.54L 1072 112.9L 1087.5 106.05L 1100.6 99.551L 1112 93.498L 1131 86.809L 1131 86.809L 1112 95.432L 1100.6 100.53L 1087.5 106.26L 1072 113.18L 1053 121.56L 1041.6 126.64L 1028.5 132.26L 1013 139.43L 994 148.19L 982.63 153.55L 969.51 159.58L 953.99 166.48L 935 176.4L 923.63 182.38L 910.51 189.59L 894.99 198.95L 876 211.47L 864.63 216.53L 851.51 222.41L 835.99 229.3L 817 237.82L 805.63 242.85L 792.51 248.75L 776.99 255.62L 758 264.18L 746.63 267.93L 733.51 274.71L 717.99 280.75L 699 290.79L 687.63 293.93L 674.51 301.17L 658.99 307.07L 640 315.71L 628.63 321.12L 615.51 326.67L 599.99 332.78L 581 340.13L 569.63 344.2L 556.51 348.73L 540.99 353.69L 522 360.14L 510.63 363.8L 497.51 368.25L 481.99 372.28L 463 377.4L 451.63 376.74L 438.51 378.46L 422.99 378.48L 404 379.88L 392.63 379.1L 379.51 378.46L 363.99 378.93L 345 375.33L 333.63 384.86L 320.51 382.89L 304.99 380.46L 286 378.78L 274.63 372.78L 261.51 368.85L 245.99 363.56L 227 357.02L 215.63 353.72L 202.51 349.04L 186.99 344.76L 168 335.91L 143.51 327.82L 109 313.91L 50 290.92" fill="#FF3B30" fill-opacity="0.30196078431372547" stroke="none"/>
    <path d="M 50 246.45L 109 259.83L 143.51 265.05L 168 266.88L 186.99 268.04L 202.51 268.49L 215.63 268.39L 227 256.89L 245.99 263.79L 261.51 264.28L 274.63 264.44L 286 265.28L 304.99 266.17L 320.51 265.11L 333.63 264.52L 345 264.26L 363.99 264.16L 379.51 263.17L 392.63 263.28L 404 262.78L 422.99 262.08L 438.51 261.89L 451.63 261.51L 463 261.17L 481.99 260.53L 497.51 260.08L 510.63 259.82L 522 260.15L 540.99 258.65L 556.51 257.73L 569.63 257.27L 581 258.1L 599.99 256.85L 615.51 255.9L 628.63 254.96L 640 254.21L 658.99 254.1L 674.51 253.4L 687.63 253.92L 699 252.28L 717.99 252.33L 733.51 252.25L 746.63 250.77L 758 250.23L 776.99 249.77L 792.51 249.42L 805.63 248.83L 817 248.91L 835.99 248L 851.51 247.42L 864.63 247.08L 876 246.41L 894.99 245.73L 910.51 246.17L 923.63 246.73L 935 244.74L 953.99 244.95L 969.51 243.46L 982.63 242.99L 994 242.87L 1013 242.3L 1028.5 242.56L 1041.6 242.41L 1053 241.25L 1072 241.76L 1087.5 239.89L 1100.6 240.47L 1112 239.58L 1131 238.27L 1146.5 237.73L 1159.6 237.48L 1171 237.32L 1190 238.02L 1205.5 236.8L 1218.6 236.82L 1230 236.2" fill="none" stroke-width="4" stroke="#007AFF" stroke-opacity="1" stroke-linecap="round" stroke-linejoin="round"/>
    <path d="M 50 290.92L 109 313.91L 143.51 327.82L 168 335.91L 186.99 344.51L 202.51 348.48L 215.63 353.72L 227 357.02L 245.99 363.56L 261.51 368.85L 274.63 372.68L 286 377.46L 304.99 380.38L 320.51 382.75L 333.63 384.55L 345 375.04L 363.99 378.33L 379.51 377.94L 392.63 379.06L 404 379.86L 422.99 378.46L 438.51 375.84L 451.63 376.49L 463 376.81L 481.99 365.85L 497.51 368.18L 510.63 363.72L 522 358.24L 540.99 351.99L 556.51 348.71L 569.63 344.19L 581 340.1L 599.99 330.05L 615.51 326.6L 628.63 321.12L 640 315.13L 658.99 305.52L 674.51 299.4L 687.63 293.23L 699 290.13L 717.99 280.74L 733.51 274.55L 746.63 267.76L 758 264.16L 776.99 255.61L 792.51 248.75L 805.63 242.84L 817 237.81L 835.99 229.09L 851.51 222.13L 864.63 216.1L 876 211.22L 894.99 198.92L 910.51 189.33L 923.63 182.34L 935 176.2L 953.99 166.47L 969.51 159.55L 982.63 153.12L 994 148.18L 1013 139.33L 1028.5 132.25L 1041.6 126.47L 1053 121.55L 1072 113.11L 1087.5 106.21L 1100.6 100.27L 1112 94.917L 1131 86.809" fill="none" stroke-width="4" stroke="#FF3B30" stroke-opacity="1" stroke-linecap="round" stroke-linejoin="round"/>
    <path d="M 50 246.45L 109 259.83L 143.51 265.05L 168 266.88L 186.99 268.04L 202.51 268.49L 215.63 268.39L 227 256.89L 245.99 263.79L 261.51 264.28L 274.63 264.44L 286 265.28L 304.99 266.17L 320.51 265.11L 333.63 264.52L 345 264.26L 363.99 264.16L 379.51 263.17L 392.63 263.28L 404 262.78L 422.99 262.08L 438.51 261.89L 451.63 261.51L 463 261.17L 481.99 260.53L 497.51 260.08L 510.63 259.82L 522 260.15L 540.99 258.65L 556.51 257.73L 569.63 257.27L 581 258.1L 599.99 256.85L 615.51 255.9L 628.63 254.96L 640 254.21L 658.99 254.1L 674.51 253.4L 687.63 253.92L 699 252.28L 717.99 252.33L 733.51 252.25L 746.63 250.77L 758 250.23L 776.99 249.77L 792.51 249.42L 805.63 248.83L 817 248.91L 835.99 248L 851.51 247.42L 864.63 247.08L 876 246.41L 894.99 245.73L 910.51 246.17L 923.63 246.73L 935 244.74L 953.99 244.95L 969.51 243.46L 982.63 242.99L 994 242.87L 1013 242.3L 1028.5 242.56L 1041.6 242.41L 1053 241.25L 1072 241.76L 1087.5 239.89L 1100.6 240.47L 1112 239.58L 1131 238.27L 1146.5 237.73L 1159.6 237.48L 1171 237.32L 1190 238.02L 1205.5 236.8L 1218.6 236.82L 1230 236.2" fill="none" stroke-width="0.5" stroke="#000000" stroke-opacity="0.30196" stroke-linecap="round" stroke-linejoin="round"/>
    <path d="M 50 290.92L 109 313.91L 143.51 327.82L 168 335.91L 186.99 344.51L 202.51 348.48L 215.63 353.72L 227 357.02L 245.99 363.56L 261.51 368.85L 274.63 372.68L 286 377.46L 304.99 380.38L 320.51 382.75L 333.63 384.55L 345 375.04L 363.99 378.33L 379.51 377.94L 392.63 379.06L 404 379.86L 422.99 378.46L 438.51 375.84L 451.63 376.49L 463 376.81L 481.99 365.85L 497.51 368.18L 510.63 363.72L 522 358.24L 540.99 351.99L 556.51 348.71L 569.63 344.19L 581 340.1L 599.99 330.05L 615.51 326.6L 628.63 321.12L 640 315.13L 658.99 305.52L 674.51 299.4L 687.63 293.23L 699 290.13L 717.99 280.74L 733.51 274.55L 746.63 267.76L 758 264.16L 776.99 255.61L 792.51 248.75L 805.63 242.84L 817 237.81L 835.99 229.09L 851.51 222.13L 864.63 216.1L 876 211.22L 894.99 198.92L 910.51 189.33L 923.63 182.34L 935 176.2L 953.99 166.47L 969.51 159.55L 982.63 153.12L 994 148.18L 1013 139.33L 1028.5 132.25L 1041.6 126.47L 1053 121.55L 1072 113.11L 1087.5 106.21L 1100.6 100.27L 1112 94.917L 1131 86.809" fill="none" stroke-width="0.5" stroke="#000000" stroke-opacity="0.30196" stroke-linecap="round" stroke-linejoin="round"/>
  </g>
  <path d="M 74 33 L 74 88 L 290 88 L 290 33 z" fill="#FFFFFF" fill-opacity="0.7019607843137254" stroke-width="0.5" stroke="#000000" stroke-opacity="1" stroke-linecap="round" stroke-linejoin="round"/>
  <path d="M 88 52 L 108 52" fill="none" stroke-width="4" stroke="#FF3B30" stroke-opacity="1" stroke-linecap="round" stroke-linejoin="round"/>
  <path d="M 88 52 L 108 52" fill="none" stroke-width="0.5" stroke="#000000" stroke-opacity="0.30196" stroke-linecap="round" stroke-linejoin="round"/>
  <text x="119" y="56.17" font-family="Menlo" font-size="12" font-weight="normal" font-style="normal" fill="#000000" fill-opacity="1">Array&lt;Int&gt; kalimba</text>
  <path d="M 88 69 L 108 69" fill="none" stroke-width="4" stroke="#007AFF" stroke-opacity="1" stroke-linecap="round" stroke-linejoin="round"/>
  <path d="M 88 69 L 108 69" fill="none" stroke-width="0.5" stroke="#000000" stroke-opacity="0.30196" stroke-linecap="round" stroke-linejoin="round"/>
  <text x="119" y="73.17" font-family="Menlo" font-size="12" font-weight="normal" font-style="normal" fill="#000000" fill-opacity="1">TreeArray&lt;Int&gt; kalimba</text>
  <path d="M 50 9 L 50 441 L 1230 441 L 1230 9 z" fill="none" stroke-width="0.5" stroke="#000000" stroke-opacity="1" stroke-linecap="round" stroke-linejoin="round"/>
</svg>
