<!DOCTYPE svg PUBLIC "-//W3C//DTD SVG 1.1//EN" "http://www.w3.org/Graphics/SVG/1.1/DTD/svg11.dtd">
<svg width="1280.0px" height="480.0px" viewBox="0.0 0.0 1280.0 480.0" xmlns="http://www.w3.org/2000/svg" xmlns:xlink="http://www.w3.org/1999/xlink" version="1.1">
  <path d="M 0 0 L 0 480 L 1280 480 L 1280 0 z" fill="#FFFFFF" fill-opacity="1.0" stroke="none"/>
  <text x="50" y="468.7" font-family="Helvetica" font-size="10" font-weight="normal" font-style="normal" fill="#000000" fill-opacity="1">Average per-element processing time over input size (bands: min, mean, mean + 2stddev)</text>
  <a xlink:href="https://github.com/apple/swift-collections-benchmark"><text x="1107" y="468.7" font-family="Helvetica" font-size="10" font-weight="normal" font-style="normal" fill="#000000" fill-opacity="1">swift-collections-benchmark</text></a>
  <path d="M 50 9 L 50 441" fill="none" stroke-width="0.75" stroke="#000000" stroke-opacity="0.49804" stroke-linecap="butt" stroke-linejoin="round"/>
  <text x="47" y="453.7" font-family="Helvetica" font-size="10" font-weight="normal" font-style="normal" fill="#000000" fill-opacity="1">1</text>
  <path d="M 109 9 L 109 441" fill="none" stroke-width="0.75" stroke="#000000" stroke-opacity="0.49804" stroke-linecap="butt" stroke-linejoin="round"/>
  <text x="106" y="453.7" font-family="Helvetica" font-size="10" font-weight="normal" font-style="normal" fill="#000000" fill-opacity="1">2</text>
  <path d="M 168 9 L 168 441" fill="none" stroke-width="0.75" stroke="#000000" stroke-opacity="0.49804" stroke-linecap="butt" stroke-linejoin="round"/>
  <text x="165" y="453.7" font-family="Helvetica" font-size="10" font-weight="normal" font-style="normal" fill="#000000" fill-opacity="1">4</text>
  <path d="M 227 9 L 227 441" fill="none" stroke-width="0.75" stroke="#000000" stroke-opacity="0.49804" stroke-linecap="butt" stroke-linejoin="round"/>
  <text x="224" y="453.7" font-family="Helvetica" font-size="10" font-weight="normal" font-style="normal" fill="#000000" fill-opacity="1">8</text>
  <path d="M 286 9 L 286 441" fill="none" stroke-width="0.75" stroke="#000000" stroke-opacity="0.49804" stroke-linecap="butt" stroke-linejoin="round"/>
  <text x="280" y="453.7" font-family="Helvetica" font-size="10" font-weight="normal" font-style="normal" fill="#000000" fill-opacity="1">16</text>
  <path d="M 345 9 L 345 441" fill="none" stroke-width="0.75" stroke="#000000" stroke-opacity="0.49804" stroke-linecap="butt" stroke-linejoin="round"/>
  <text x="339" y="453.7" font-family="Helvetica" font-size="10" font-weight="normal" font-style="normal" fill="#000000" fill-opacity="1">32</text>
  <path d="M 404 9 L 404 441" fill="none" stroke-width="0.75" stroke="#000000" stroke-opacity="0.49804" stroke-linecap="butt" stroke-linejoin="round"/>
  <text x="398" y="453.7" font-family="Helvetica" font-size="10" font-weight="normal" font-style="normal" fill="#000000" fill-opacity="1">64</text>
  <path d="M 463 9 L 463 441" fill="none" stroke-width="0.75" stroke="#000000" stroke-opacity="0.49804" stroke-linecap="butt" stroke-linejoin="round"/>
  <text x="454.5" y="453.7" font-family="Helvetica" font-size="10" font-weight="normal" font-style="normal" fill="#000000" fill-opacity="1">128</text>
  <path d="M 522 9 L 522 441" fill="none" stroke-width="0.75" stroke="#000000" stroke-opacity="0.49804" stroke-linecap="butt" stroke-linejoin="round"/>
  <text x="513.5" y="453.7" font-family="Helvetica" font-size="10" font-weight="normal" font-style="normal" fill="#000000" fill-opacity="1">256</text>
  <path d="M 581 9 L 581 441" fill="none" stroke-width="0.75" stroke="#000000" stroke-opacity="0.49804" stroke-linecap="butt" stroke-linejoin="round"/>
  <text x="572.5" y="453.7" font-family="Helvetica" font-size="10" font-weight="normal" font-style="normal" fill="#000000" fill-opacity="1">512</text>
  <path d="M 640 9 L 640 441" fill="none" stroke-width="0.75" stroke="#000000" stroke-opacity="0.49804" stroke-linecap="butt" stroke-linejoin="round"/>
  <text x="634.5" y="453.7" font-family="Helvetica" font-size="10" font-weight="normal" font-style="normal" fill="#000000" fill-opacity="1">1k</text>
  <path d="M 699 9 L 699 441" fill="none" stroke-width="0.75" stroke="#000000" stroke-opacity="0.49804" stroke-linecap="butt" stroke-linejoin="round"/>
  <text x="693.5" y="453.7" font-family="Helvetica" font-size="10" font-weight="normal" font-style="normal" fill="#000000" fill-opacity="1">2k</text>
  <path d="M 758 9 L 758 441" fill="none" stroke-width="0.75" stroke="#000000" stroke-opacity="0.49804" stroke-linecap="butt" stroke-linejoin="round"/>
  <text x="752.5" y="453.7" font-family="Helvetica" font-size="10" font-weight="normal" font-style="normal" fill="#000000" fill-opacity="1">4k</text>
  <path d="M 817 9 L 817 441" fill="none" stroke-width="0.75" stroke="#000000" stroke-opacity="0.49804" stroke-linecap="butt" stroke-linejoin="round"/>
  <text x="811.5" y="453.7" font-family="Helvetica" font-size="10" font-weight="normal" font-style="normal" fill="#000000" fill-opacity="1">8k</text>
  <path d="M 876 9 L 876 441" fill="none" stroke-width="0.75" stroke="#000000" stroke-opacity="0.49804" stroke-linecap="butt" stroke-linejoin="round"/>
  <text x="867.5" y="453.7" font-family="Helvetica" font-size="10" font-weight="normal" font-style="normal" fill="#000000" fill-opacity="1">16k</text>
  <path d="M 935 9 L 935 441" fill="none" stroke-width="0.75" stroke="#000000" stroke-opacity="0.49804" stroke-linecap="butt" stroke-linejoin="round"/>
  <text x="926.5" y="453.7" font-family="Helvetica" font-size="10" font-weight="normal" font-style="normal" fill="#000000" fill-opacity="1">32k</text>
  <path d="M 994 9 L 994 441" fill="none" stroke-width="0.75" stroke="#000000" stroke-opacity="0.49804" stroke-linecap="butt" stroke-linejoin="round"/>
  <text x="985.5" y="453.7" font-family="Helvetica" font-size="10" font-weight="normal" font-style="normal" fill="#000000" fill-opacity="1">64k</text>
  <path d="M 1053 9 L 1053 441" fill="none" stroke-width="0.75" stroke="#000000" stroke-opacity="0.49804" stroke-linecap="butt" stroke-linejoin="round"/>
  <text x="1042" y="453.7" font-family="Helvetica" font-size="10" font-weight="normal" font-style="normal" fill="#000000" fill-opacity="1">128k</text>
  <path d="M 1112 9 L 1112 441" fill="none" stroke-width="0.75" stroke="#000000" stroke-opacity="0.49804" stroke-linecap="butt" stroke-linejoin="round"/>
  <text x="1101" y="453.7" font-family="Helvetica" font-size="10" font-weight="normal" font-style="normal" fill="#000000" fill-opacity="1">256k</text>
  <path d="M 1171 9 L 1171 441" fill="none" stroke-width="0.75" stroke="#000000" stroke-opacity="0.49804" stroke-linecap="butt" stroke-linejoin="round"/>
  <text x="1160" y="453.7" font-family="Helvetica" font-size="10" font-weight="normal" font-style="normal" fill="#000000" fill-opacity="1">512k</text>
  <path d="M 1230 9 L 1230 441" fill="none" stroke-width="0.75" stroke="#000000" stroke-opacity="0.49804" stroke-linecap="butt" stroke-linejoin="round"/>
  <text x="1223" y="453.7" font-family="Helvetica" font-size="10" font-weight="normal" font-style="normal" fill="#000000" fill-opacity="1">1M</text>
  <path d="M 50 441 L 1230 441" fill="none" stroke-width="0.75" stroke="#000000" stroke-opacity="0.49804" stroke-linecap="butt" stroke-linejoin="round"/>
  <text x="27" y="442.7" font-family="Helvetica" font-size="10" font-weight="normal" font-style="normal" fill="#000000" fill-opacity="1">1 ns</text>
  <text x="1236" y="442.7" font-family="Helvetica" font-size="10" font-weight="normal" font-style="normal" fill="#000000" fill-opacity="1">1 ns</text>
  <path d="M 50 354.6 L 1230 354.6" fill="none" stroke-width="0.75" stroke="#000000" stroke-opacity="0.49804" stroke-linecap="butt" stroke-linejoin="round"/>
  <text x="21" y="356.3" font-family="Helvetica" font-size="10" font-weight="normal" font-style="normal" fill="#000000" fill-opacity="1">10 ns</text>
  <text x="1236" y="356.3" font-family="Helvetica" font-size="10" font-weight="normal" font-style="normal" fill="#000000" fill-opacity="1">10 ns</text>
  <path d="M 50 268.2 L 1230 268.2" fill="none" stroke-width="0.75" stroke="#000000" stroke-opacity="0.49804" stroke-linecap="butt" stroke-linejoin="round"/>
  <text x="16" y="269.9" font-family="Helvetica" font-size="10" font-weight="normal" font-style="normal" fill="#000000" fill-opacity="1">100 ns</text>
  <text x="1236" y="269.9" font-family="Helvetica" font-size="10" font-weight="normal" font-style="normal" fill="#000000" fill-opacity="1">100 ns</text>
  <path d="M 50 181.8 L 1230 181.8" fill="none" stroke-width="0.75" stroke="#000000" stroke-opacity="0.49804" stroke-linecap="butt" stroke-linejoin="round"/>
  <text x="26" y="183.5" font-family="Helvetica" font-size="10" font-weight="normal" font-style="normal" fill="#000000" fill-opacity="1">1 µs</text>
  <text x="1236" y="183.5" font-family="Helvetica" font-size="10" font-weight="normal" font-style="normal" fill="#000000" fill-opacity="1">1 µs</text>
  <path d="M 50 95.4 L 1230 95.4" fill="none" stroke-width="0.75" stroke="#000000" stroke-opacity="0.49804" stroke-linecap="butt" stroke-linejoin="round"/>
  <text x="21" y="97.1" font-family="Helvetica" font-size="10" font-weight="normal" font-style="normal" fill="#000000" fill-opacity="1">10 µs</text>
  <text x="1236" y="97.1" font-family="Helvetica" font-size="10" font-weight="normal" font-style="normal" fill="#000000" fill-opacity="1">10 µs</text>
  <path d="M 50 9 L 1230 9" fill="none" stroke-width="0.75" stroke="#000000" stroke-opacity="0.49804" stroke-linecap="butt" stroke-linejoin="round"/>
  <text x="15" y="10.7" font-family="Helvetica" font-size="10" font-weight="normal" font-style="normal" fill="#000000" fill-opacity="1">100 µs</text>
  <text x="1236" y="10.7" font-family="Helvetica" font-size="10" font-weight="normal" font-style="normal" fill="#000000" fill-opacity="1">100 µs</text>
  <path d="M 50 414.99 L 1230 414.99" fill="none" stroke-width="0.5" stroke="#000000" stroke-opacity="0.25882" stroke-linecap="butt" stroke-linejoin="round" stroke-dasharray="6 3" stroke-dashoffset="0"/>
  <path d="M 50 388.98 L 1230 388.98" fill="none" stroke-width="0.5" stroke="#000000" stroke-opacity="0.25882" stroke-linecap="butt" stroke-linejoin="round" stroke-dasharray="6 3" stroke-dashoffset="0"/>
  <path d="M 50 362.97 L 1230 362.97" fill="none" stroke-width="0.5" stroke="#000000" stroke-opacity="0.25882" stroke-linecap="butt" stroke-linejoin="round" stroke-dasharray="6 3" stroke-dashoffset="0"/>
  <path d="M 50 336.96 L 1230 336.96" fill="none" stroke-width="0.5" stroke="#000000" stroke-opacity="0.25882" stroke-linecap="butt" stroke-linejoin="round" stroke-dasharray="6 3" stroke-dashoffset="0"/>
  <path d="M 50 310.96 L 1230 310.96" fill="none" stroke-width="0.5" stroke="#000000" stroke-opacity="0.25882" stroke-linecap="butt" stroke-linejoin="round" stroke-dasharray="6 3" stroke-dashoffset="0"/>
  <path d="M 50 284.95 L 1230 284.95" fill="none" stroke-width="0.5" stroke="#000000" stroke-opacity="0.25882" stroke-linecap="butt" stroke-linejoin="round" stroke-dasharray="6 3" stroke-dashoffset="0"/>
  <path d="M 50 258.94 L 1230 258.94" fill="none" stroke-width="0.5" stroke="#000000" stroke-opacity="0.25882" stroke-linecap="butt" stroke-linejoin="round" stroke-dasharray="6 3" stroke-dashoffset="0"/>
  <path d="M 50 232.93 L 1230 232.93" fill="none" stroke-width="0.5" stroke="#000000" stroke-opacity="0.25882" stroke-linecap="butt" stroke-linejoin="round" stroke-dasharray="6 3" stroke-dashoffset="0"/>
  <path d="M 50 206.92 L 1230 206.92" fill="none" stroke-width="0.5" stroke="#000000" stroke-opacity="0.25882" stroke-linecap="butt" stroke-linejoin="round" stroke-dasharray="6 3" stroke-dashoffset="0"/>
  <path d="M 50 180.91 L 1230 180.91" fill="none" stroke-width="0.5" stroke="#000000" stroke-opacity="0.25882" stroke-linecap="butt" stroke-linejoin="round" stroke-dasharray="6 3" stroke-dashoffset="0"/>
  <path d="M 50 154.9 L 1230 154.9" fill="none" stroke-width="0.5" stroke="#000000" stroke-opacity="0.25882" stroke-linecap="butt" stroke-linejoin="round" stroke-dasharray="6 3" stroke-dashoffset="0"/>
  <path d="M 50 128.89 L 1230 128.89" fill="none" stroke-width="0.5" stroke="#000000" stroke-opacity="0.25882" stroke-linecap="butt" stroke-linejoin="round" stroke-dasharray="6 3" stroke-dashoffset="0"/>
  <path d="M 50 102.88 L 1230 102.88" fill="none" stroke-width="0.5" stroke="#000000" stroke-opacity="0.25882" stroke-linecap="butt" stroke-linejoin="round" stroke-dasharray="6 3" stroke-dashoffset="0"/>
  <path d="M 50 76.874 L 1230 76.874" fill="none" stroke-width="0.5" stroke="#000000" stroke-opacity="0.25882" stroke-linecap="butt" stroke-linejoin="round" stroke-dasharray="6 3" stroke-dashoffset="0"/>
  <path d="M 50 50.865 L 1230 50.865" fill="none" stroke-width="0.5" stroke="#000000" stroke-opacity="0.25882" stroke-linecap="butt" stroke-linejoin="round" stroke-dasharray="6 3" stroke-dashoffset="0"/>
  <path d="M 50 24.856 L 1230 24.856" fill="none" stroke-width="0.5" stroke="#000000" stroke-opacity="0.25882" stroke-linecap="butt" stroke-linejoin="round" stroke-dasharray="6 3" stroke-dashoffset="0"/>
  <path d="M 74 33 L 74 88 L 290 88 L 290 33 z" fill="#FFFFFF" fill-opacity="1.0" stroke="none"/>
  <clipPath id="clip-0">
    <path d="M 50 9 L 50 441 L 1230 441 L 1230 9 z"/>
  </clipPath>
  <g clip-path="url(#clip-0)">
    <path d="M 50 242L 109 258.81L 143.51 263.33L 168 268.62L 186.99 270.88L 202.51 271.33L 215.63 263.74L 227 265.19L 245.99 266.29L 261.51 266.26L 274.63 267.74L 286 268.95L 304.99 269.18L 320.51 269.51L 333.63 268.86L 345 268.14L 363.99 267.69L 379.51 265.79L 392.63 267.5L 404 266.94L 422.99 264.63L 438.51 266.01L 451.63 264.67L 463 263.52L 481.99 263.84L 497.51 263.4L 510.63 260.88L 522 262.24L 540.99 259.63L 556.51 259.72L 569.63 259.62L 581 258.34L 599.99 257.42L 615.51 256.4L 628.63 255.28L 640 256.15L 658.99 256.05L 674.51 254.91L 687.63 253.88L 699 253.65L 717.99 252.29L 733.51 253.16L 746.63 251.73L 758 252.18L 776.99 248.16L 792.51 250.31L 805.63 248.89L 817 248.63L 835.99 247.82L 851.51 244.73L 864.63 246.91L 876 244.58L 894.99 241.99L 910.51 241.79L 923.63 244.03L 935 245.12L 953.99 242.01L 969.51 240.87L 982.63 243.66L 994 240.91L 1013 240.8L 1028.5 240.09L 1041.6 240.06L 1053 241.66L 1072 237.79L 1087.5 237.26L 1100.6 238.47L 1112 238.1L 1131 237.99L 1146.5 236.8L 1159.6 237.15L 1171 234.75L 1190 235.66L 1205.5 234.21L 1218.6 235.35L 1230 233.02L 1230 236.74L 1218.6 235.6L 1205.5 236.19L 1190 236.89L 1171 238.09L 1159.6 238.81L 1146.5 238.93L 1131 238.44L 1112 239.57L 1100.6 240.41L 1087.5 241.65L 1072 241.67L 1053 241.78L 1041.6 241.52L 1028.5 242.36L 1013 243.74L 994 242.66L 982.63 243.76L 969.51 244.93L 953.99 244.98L 935 246.21L 923.63 246.13L 910.51 244.71L 894.99 247.36L 876 245.66L 864.63 246.98L 851.51 249.42L 835.99 249.35L 817 252.36L 805.63 249.66L 792.51 251.1L 776.99 251.64L 758 252.36L 746.63 253.55L 733.51 254.33L 717.99 254.12L 699 254.69L 687.63 257.23L 674.51 255.11L 658.99 256.68L 640 258.01L 628.63 257.7L 615.51 257.72L 599.99 258.48L 581 258.91L 569.63 260.7L 556.51 260.24L 540.99 261.02L 522 262.75L 510.63 265.09L 497.51 263.65L 481.99 264.45L 463 266.47L 451.63 266.67L 438.51 266.18L 422.99 268.2L 404 268.59L 392.63 268.2L 379.51 271.68L 363.99 268.75L 345 269.31L 333.63 269.45L 320.51 269.93L 304.99 269.81L 286 269.29L 274.63 268.36L 261.51 267.95L 245.99 266.46L 227 265.78L 215.63 265.61L 202.51 273.33L 186.99 272.12L 168 270.96L 143.51 267.99L 109 260.84L 50 243.06" fill="#007AFF" fill-opacity="0.30196078431372547" stroke="none"/>
    <path d="M 50 290.92L 109 313.91L 143.51 327.82L 168 335.91L 186.99 343.84L 202.51 346.94L 215.63 353.72L 227 357.02L 245.99 363.56L 261.51 368.85L 274.63 372.43L 286 373.97L 304.99 380.16L 320.51 382.36L 333.63 383.68L 345 374.21L 363.99 376.7L 379.51 376.51L 392.63 378.95L 404 379.79L 422.99 378.41L 438.51 369.31L 451.63 375.79L 463 375.19L 481.99 352.03L 497.51 368L 510.63 363.48L 522 353.33L 540.99 347.55L 556.51 348.67L 569.63 344.18L 581 340.01L 599.99 323.26L 615.51 326.41L 628.63 321.1L 640 313.55L 658.99 301.47L 674.51 294.78L 687.63 291.33L 699 288.34L 717.99 280.74L 733.51 274.09L 746.63 267.28L 758 264.12L 776.99 255.59L 792.51 248.75L 805.63 242.81L 817 237.8L 835.99 228.49L 851.51 221.36L 864.63 214.9L 876 210.55L 894.99 198.86L 910.51 188.58L 923.63 182.25L 935 175.66L 953.99 166.43L 969.51 159.47L 982.63 151.93L 994 148.13L 1013 139.04L 1028.5 132.22L 1041.6 126L 1053 121.54L 1072 112.9L 1087.5 106.05L 1100.6 99.551L 1112 93.498L 1131 86.809L 1131 86.809L 1112 95.432L 1100.6 100.53L 1087.5 106.26L 1072 113.18L 1053 121.56L 1041.6 126.64L 1028.5 132.26L 1013 139.43L 994 148.19L 982.63 153.55L 969.51 159.58L 953.99 166.48L 935 176.4L 923.63 182.38L 910.51 189.59L 894.99 198.95L 876 211.47L 864.63 216.53L 851.51 222.41L 835.99 229.3L 817 237.82L 805.63 242.85L 792.51 248.75L 776.99 255.62L 758 264.18L 746.63 267.93L 733.51 274.71L 717.99 280.75L 699 290.79L 687.63 293.93L 674.51 301.17L 658.99 307.07L 640 315.71L 628.63 321.12L 615.51 326.67L 599.99 332.78L 581 340.13L 569.63 344.2L 556.51 348.73L 540.99 353.69L 522 360.14L 510.63 363.8L 497.51 368.25L 481.99 372.28L 463 377.4L 451.63 376.74L 438.51 378.46L 422.99 378.48L 404 379.88L 392.63 379.1L 379.51 378.46L 363.99 378.93L 345 375.33L 333.63 384.86L 320.51 382.89L 304.99 380.46L 286 378.78L 274.63 372.78L 261.51 368.85L 245.99 363.56L 227 357.02L 215.63 353.72L 202.51 349.04L 186.99 344.76L 168 335.91L 143.51 327.82L 109 313.91L 50 290.92" fill="#FF3B30" fill-opacity="0.30196078431372547" stroke="none"/>
    <path d="M 50 242.78L 109 260.3L 143.51 266.72L 168 270.33L 186.99 271.79L 202.51 272.8L 215.63 265.11L 227 265.62L 245.99 266.41L 261.51 267.5L 274.63 268.19L 286 269.2L 304.99 269.64L 320.51 269.82L 333.63 269.3L 345 269L 363.99 268.47L 379.51 270.05L 392.63 268.01L 404 268.15L 422.99 267.23L 438.51 266.13L 451.63 266.14L 463 265.68L 481.99 264.29L 497.51 263.58L 510.63 263.95L 522 262.62L 540.99 260.65L 556.51 260.11L 569.63 260.42L 581 258.76L 599.99 258.2L 615.51 257.37L 628.63 257.05L 640 257.52L 658.99 256.51L 674.51 255.06L 687.63 256.33L 699 254.41L 717.99 253.63L 733.51 254.02L 746.63 253.07L 758 252.31L 776.99 250.7L 792.51 250.89L 805.63 249.45L 817 251.35L 835.99 248.94L 851.51 248.13L 864.63 246.96L 876 245.38L 894.99 245.88L 910.51 243.93L 923.63 245.57L 935 245.92L 953.99 244.18L 969.51 243.83L 982.63 243.74L 994 242.19L 1013 242.95L 1028.5 241.76L 1041.6 241.13L 1053 241.75L 1072 240.61L 1087.5 240.46L 1100.6 239.9L 1112 239.18L 1131 238.32L 1146.5 238.36L 1159.6 238.37L 1171 237.19L 1190 236.56L 1205.5 235.66L 1218.6 235.54L 1230 235.73" fill="none" stroke-width="4" stroke="#007AFF" stroke-opacity="1" stroke-linecap="round" stroke-linejoin="round"/>
    <path d="M 50 290.92L 109 313.91L 143.51 327.82L 168 335.91L 186.99 344.51L 202.51 348.48L 215.63 353.72L 227 357.02L 245.99 363.56L 261.51 368.85L 274.63 372.68L 286 377.46L 304.99 380.38L 320.51 382.75L 333.63 384.55L 345 375.04L 363.99 378.33L 379.51 377.94L 392.63 379.06L 404 379.86L 422.99 378.46L 438.51 375.84L 451.63 376.49L 463 376.81L 481.99 365.85L 497.51 368.18L 510.63 363.72L 522 358.24L 540.99 351.99L 556.51 348.71L 569.63 344.19L 581 340.1L 599.99 330.05L 615.51 326.6L 628.63 321.12L 640 315.13L 658.99 305.52L 674.51 299.4L 687.63 293.23L 699 290.13L 717.99 280.74L 733.51 274.55L 746.63 267.76L 758 264.16L 776.99 255.61L 792.51 248.75L 805.63 242.84L 817 237.81L 835.99 229.09L 851.51 222.13L 864.63 216.1L 876 211.22L 894.99 198.92L 910.51 189.33L 923.63 182.34L 935 176.2L 953.99 166.47L 969.51 159.55L 982.63 153.12L 994 148.18L 1013 139.33L 1028.5 132.25L 1041.6 126.47L 1053 121.55L 1072 113.11L 1087.5 106.21L 1100.6 100.27L 1112 94.917L 1131 86.809" fill="none" stroke-width="4" stroke="#FF3B30" stroke-opacity="1" stroke-linecap="round" stroke-linejoin="round"/>
    <path d="M 50 242.78L 109 260.3L 143.51 266.72L 168 270.33L 186.99 271.79L 202.51 272.8L 215.63 265.11L 227 265.62L 245.99 266.41L 261.51 267.5L 274.63 268.19L 286 269.2L 304.99 269.64L 320.51 269.82L 333.63 269.3L 345 269L 363.99 268.47L 379.51 270.05L 392.63 268.01L 404 268.15L 422.99 267.23L 438.51 266.13L 451.63 266.14L 463 265.68L 481.99 264.29L 497.51 263.58L 510.63 263.95L 522 262.62L 540.99 260.65L 556.51 260.11L 569.63 260.42L 581 258.76L 599.99 258.2L 615.51 257.37L 628.63 257.05L 640 257.52L 658.99 256.51L 674.51 255.06L 687.63 256.33L 699 254.41L 717.99 253.63L 733.51 254.02L 746.63 253.07L 758 252.31L 776.99 250.7L 792.51 250.89L 805.63 249.45L 817 251.35L 835.99 248.94L 851.51 248.13L 864.63 246.96L 876 245.38L 894.99 245.88L 910.51 243.93L 923.63 245.57L 935 245.92L 953.99 244.18L 969.51 243.83L 982.63 243.74L 994 242.19L 1013 242.95L 1028.5 241.76L 1041.6 241.13L 1053 241.75L 1072 240.61L 1087.5 240.46L 1100.6 239.9L 1112 239.18L 1131 238.32L 1146.5 238.36L 1159.6 238.37L 1171 237.19L 1190 236.56L 1205.5 235.66L 1218.6 235.54L 1230 235.73" fill="none" stroke-width="0.5" stroke="#000000" stroke-opacity="0.30196" stroke-linecap="round" stroke-linejoin="round"/>
    <path d="M 50 290.92L 109 313.91L 143.51 327.82L 168 335.91L 186.99 344.51L 202.51 348.48L 215.63 353.72L 227 357.02L 245.99 363.56L 261.51 368.85L 274.63 372.68L 286 377.46L 304.99 380.38L 320.51 382.75L 333.63 384.55L 345 375.04L 363.99 378.33L 379.51 377.94L 392.63 379.06L 404 379.86L 422.99 378.46L 438.51 375.84L 451.63 376.49L 463 376.81L 481.99 365.85L 497.51 368.18L 510.63 363.72L 522 358.24L 540.99 351.99L 556.51 348.71L 569.63 344.19L 581 340.1L 599.99 330.05L 615.51 326.6L 628.63 321.12L 640 315.13L 658.99 305.52L 674.51 299.4L 687.63 293.23L 699 290.13L 717.99 280.74L 733.51 274.55L 746.63 267.76L 758 264.16L 776.99 255.61L 792.51 248.75L 805.63 242.84L 817 237.81L 835.99 229.09L 851.51 222.13L 864.63 216.1L 876 211.22L 894.99 198.92L 910.51 189.33L 923.63 182.34L 935 176.2L 953.99 166.47L 969.51 159.55L 982.63 153.12L 994 148.18L 1013 139.33L 1028.5 132.25L 1041.6 126.47L 1053 121.55L 1072 113.11L 1087.5 106.21L 1100.6 100.27L 1112 94.917L 1131 86.809" fill="none" stroke-width="0.5" stroke="#000000" stroke-opacity="0.30196" stroke-linecap="round" stroke-linejoin="round"/>
  </g>
  <path d="M 74 33 L 74 88 L 290 88 L 290 33 z" fill="#FFFFFF" fill-opacity="0.7019607843137254" stroke-width="0.5" stroke="#000000" stroke-opacity="1" stroke-linecap="round" stroke-linejoin="round"/>
  <path d="M 88 52 L 108 52" fill="none" stroke-width="4" stroke="#FF3B30" stroke-opacity="1" stroke-linecap="round" stroke-linejoin="round"/>
  <path d="M 88 52 L 108 52" fill="none" stroke-width="0.5" stroke="#000000" stroke-opacity="0.30196" stroke-linecap="round" stroke-linejoin="round"/>
  <text x="119" y="56.17" font-family="Menlo" font-size="12" font-weight="normal" font-style="normal" fill="#000000" fill-opacity="1">Array&lt;Int&gt; kalimba</text>
  <path d="M 88 69 L 108 69" fill="none" stroke-width="4" stroke="#007AFF" stroke-opacity="1" stroke-linecap="round" stroke-linejoin="round"/>
  <path d="M 88 69 L 108 69" fill="none" stroke-width="0.5" stroke="#000000" stroke-opacity="0.30196" stroke-linecap="round" stroke-linejoin="round"/>
  <text x="119" y="73.17" font-family="Menlo" font-size="12" font-weight="normal" font-style="normal" fill="#000000" fill-opacity="1">TreeArray&lt;Int&gt; kalimba</text>
  <path d="M 50 9 L 50 441 L 1230 441 L 1230 9 z" fill="none" stroke-width="0.5" stroke="#000000" stroke-opacity="1" stroke-linecap="round" stroke-linejoin="round"/>
</svg>
