<!DOCTYPE svg PUBLIC "-//W3C//DTD SVG 1.1//EN" "http://www.w3.org/Graphics/SVG/1.1/DTD/svg11.dtd">
<svg width="1280.0px" height="480.0px" viewBox="0.0 0.0 1280.0 480.0" xmlns="http://www.w3.org/2000/svg" xmlns:xlink="http://www.w3.org/1999/xlink" version="1.1">
  <path d="M 0 0 L 0 480 L 1280 480 L 1280 0 z" fill="#FFFFFF" fill-opacity="1.0" stroke="none"/>
  <text x="50" y="468.7" font-family="Helvetica" font-size="10" font-weight="normal" font-style="normal" fill="#000000" fill-opacity="1">Average per-element processing time over input size (bands: min, mean, mean + 2stddev)</text>
  <a xlink:href="https://github.com/apple/swift-collections-benchmark"><text x="1107" y="468.7" font-family="Helvetica" font-size="10" font-weight="normal" font-style="normal" fill="#000000" fill-opacity="1">swift-collections-benchmark</text></a>
  <path d="M 50 9 L 50 441" fill="none" stroke-width="0.75" stroke="#000000" stroke-opacity="0.49804" stroke-linecap="butt" stroke-linejoin="round"/>
  <text x="47" y="453.7" font-family="Helvetica" font-size="10" font-weight="normal" font-style="normal" fill="#000000" fill-opacity="1">1</text>
  <path d="M 115.56 9 L 115.56 441" fill="none" stroke-width="0.75" stroke="#000000" stroke-opacity="0.49804" stroke-linecap="butt" stroke-linejoin="round"/>
  <text x="112.56" y="453.7" font-family="Helvetica" font-size="10" font-weight="normal" font-style="normal" fill="#000000" fill-opacity="1">2</text>
  <path d="M 181.11 9 L 181.11 441" fill="none" stroke-width="0.75" stroke="#000000" stroke-opacity="0.49804" stroke-linecap="butt" stroke-linejoin="round"/>
  <text x="178.11" y="453.7" font-family="Helvetica" font-size="10" font-weight="normal" font-style="normal" fill="#000000" fill-opacity="1">4</text>
  <path d="M 246.67 9 L 246.67 441" fill="none" stroke-width="0.75" stroke="#000000" stroke-opacity="0.49804" stroke-linecap="butt" stroke-linejoin="round"/>
  <text x="243.67" y="453.7" font-family="Helvetica" font-size="10" font-weight="normal" font-style="normal" fill="#000000" fill-opacity="1">8</text>
  <path d="M 312.22 9 L 312.22 441" fill="none" stroke-width="0.75" stroke="#000000" stroke-opacity="0.49804" stroke-linecap="butt" stroke-linejoin="round"/>
  <text x="306.22" y="453.7" font-family="Helvetica" font-size="10" font-weight="normal" font-style="normal" fill="#000000" fill-opacity="1">16</text>
  <path d="M 377.78 9 L 377.78 441" fill="none" stroke-width="0.75" stroke="#000000" stroke-opacity="0.49804" stroke-linecap="butt" stroke-linejoin="round"/>
  <text x="371.78" y="453.7" font-family="Helvetica" font-size="10" font-weight="normal" font-style="normal" fill="#000000" fill-opacity="1">32</text>
  <path d="M 443.33 9 L 443.33 441" fill="none" stroke-width="0.75" stroke="#000000" stroke-opacity="0.49804" stroke-linecap="butt" stroke-linejoin="round"/>
  <text x="437.33" y="453.7" font-family="Helvetica" font-size="10" font-weight="normal" font-style="normal" fill="#000000" fill-opacity="1">64</text>
  <path d="M 508.89 9 L 508.89 441" fill="none" stroke-width="0.75" stroke="#000000" stroke-opacity="0.49804" stroke-linecap="butt" stroke-linejoin="round"/>
  <text x="500.39" y="453.7" font-family="Helvetica" font-size="10" font-weight="normal" font-style="normal" fill="#000000" fill-opacity="1">128</text>
  <path d="M 574.44 9 L 574.44 441" fill="none" stroke-width="0.75" stroke="#000000" stroke-opacity="0.49804" stroke-linecap="butt" stroke-linejoin="round"/>
  <text x="565.94" y="453.7" font-family="Helvetica" font-size="10" font-weight="normal" font-style="normal" fill="#000000" fill-opacity="1">256</text>
  <path d="M 640 9 L 640 441" fill="none" stroke-width="0.75" stroke="#000000" stroke-opacity="0.49804" stroke-linecap="butt" stroke-linejoin="round"/>
  <text x="631.5" y="453.7" font-family="Helvetica" font-size="10" font-weight="normal" font-style="normal" fill="#000000" fill-opacity="1">512</text>
  <path d="M 705.56 9 L 705.56 441" fill="none" stroke-width="0.75" stroke="#000000" stroke-opacity="0.49804" stroke-linecap="butt" stroke-linejoin="round"/>
  <text x="700.06" y="453.7" font-family="Helvetica" font-size="10" font-weight="normal" font-style="normal" fill="#000000" fill-opacity="1">1k</text>
  <path d="M 771.11 9 L 771.11 441" fill="none" stroke-width="0.75" stroke="#000000" stroke-opacity="0.49804" stroke-linecap="butt" stroke-linejoin="round"/>
  <text x="765.61" y="453.7" font-family="Helvetica" font-size="10" font-weight="normal" font-style="normal" fill="#000000" fill-opacity="1">2k</text>
  <path d="M 836.67 9 L 836.67 441" fill="none" stroke-width="0.75" stroke="#000000" stroke-opacity="0.49804" stroke-linecap="butt" stroke-linejoin="round"/>
  <text x="831.17" y="453.7" font-family="Helvetica" font-size="10" font-weight="normal" font-style="normal" fill="#000000" fill-opacity="1">4k</text>
  <path d="M 902.22 9 L 902.22 441" fill="none" stroke-width="0.75" stroke="#000000" stroke-opacity="0.49804" stroke-linecap="butt" stroke-linejoin="round"/>
  <text x="896.72" y="453.7" font-family="Helvetica" font-size="10" font-weight="normal" font-style="normal" fill="#000000" fill-opacity="1">8k</text>
  <path d="M 967.78 9 L 967.78 441" fill="none" stroke-width="0.75" stroke="#000000" stroke-opacity="0.49804" stroke-linecap="butt" stroke-linejoin="round"/>
  <text x="959.28" y="453.7" font-family="Helvetica" font-size="10" font-weight="normal" font-style="normal" fill="#000000" fill-opacity="1">16k</text>
  <path d="M 1033.3 9 L 1033.3 441" fill="none" stroke-width="0.75" stroke="#000000" stroke-opacity="0.49804" stroke-linecap="butt" stroke-linejoin="round"/>
  <text x="1024.8" y="453.7" font-family="Helvetica" font-size="10" font-weight="normal" font-style="normal" fill="#000000" fill-opacity="1">32k</text>
  <path d="M 1098.9 9 L 1098.9 441" fill="none" stroke-width="0.75" stroke="#000000" stroke-opacity="0.49804" stroke-linecap="butt" stroke-linejoin="round"/>
  <text x="1090.4" y="453.7" font-family="Helvetica" font-size="10" font-weight="normal" font-style="normal" fill="#000000" fill-opacity="1">64k</text>
  <path d="M 1164.4 9 L 1164.4 441" fill="none" stroke-width="0.75" stroke="#000000" stroke-opacity="0.49804" stroke-linecap="butt" stroke-linejoin="round"/>
  <text x="1153.4" y="453.7" font-family="Helvetica" font-size="10" font-weight="normal" font-style="normal" fill="#000000" fill-opacity="1">128k</text>
  <path d="M 1230 9 L 1230 441" fill="none" stroke-width="0.75" stroke="#000000" stroke-opacity="0.49804" stroke-linecap="butt" stroke-linejoin="round"/>
  <text x="1219" y="453.7" font-family="Helvetica" font-size="10" font-weight="normal" font-style="normal" fill="#000000" fill-opacity="1">256k</text>
  <path d="M 50 441 L 1230 441" fill="none" stroke-width="0.75" stroke="#000000" stroke-opacity="0.49804" stroke-linecap="butt" stroke-linejoin="round"/>
  <text x="27" y="442.7" font-family="Helvetica" font-size="10" font-weight="normal" font-style="normal" fill="#000000" fill-opacity="1">1 ns</text>
  <text x="1236" y="442.7" font-family="Helvetica" font-size="10" font-weight="normal" font-style="normal" fill="#000000" fill-opacity="1">1 ns</text>
  <path d="M 50 354.6 L 1230 354.6" fill="none" stroke-width="0.75" stroke="#000000" stroke-opacity="0.49804" stroke-linecap="butt" stroke-linejoin="round"/>
  <text x="21" y="356.3" font-family="Helvetica" font-size="10" font-weight="normal" font-style="normal" fill="#000000" fill-opacity="1">10 ns</text>
  <text x="1236" y="356.3" font-family="Helvetica" font-size="10" font-weight="normal" font-style="normal" fill="#000000" fill-opacity="1">10 ns</text>
  <path d="M 50 268.2 L 1230 268.2" fill="none" stroke-width="0.75" stroke="#000000" stroke-opacity="0.49804" stroke-linecap="butt" stroke-linejoin="round"/>
  <text x="16" y="269.9" font-family="Helvetica" font-size="10" font-weight="normal" font-style="normal" fill="#000000" fill-opacity="1">100 ns</text>
  <text x="1236" y="269.9" font-family="Helvetica" font-size="10" font-weight="normal" font-style="normal" fill="#000000" fill-opacity="1">100 ns</text>
  <path d="M 50 181.8 L 1230 181.8" fill="none" stroke-width="0.75" stroke="#000000" stroke-opacity="0.49804" stroke-linecap="butt" stroke-linejoin="round"/>
  <text x="26" y="183.5" font-family="Helvetica" font-size="10" font-weight="normal" font-style="normal" fill="#000000" fill-opacity="1">1 µs</text>
  <text x="1236" y="183.5" font-family="Helvetica" font-size="10" font-weight="normal" font-style="normal" fill="#000000" fill-opacity="1">1 µs</text>
  <path d="M 50 95.4 L 1230 95.4" fill="none" stroke-width="0.75" stroke="#000000" stroke-opacity="0.49804" stroke-linecap="butt" stroke-linejoin="round"/>
  <text x="21" y="97.1" font-family="Helvetica" font-size="10" font-weight="normal" font-style="normal" fill="#000000" fill-opacity="1">10 µs</text>
  <text x="1236" y="97.1" font-family="Helvetica" font-size="10" font-weight="normal" font-style="normal" fill="#000000" fill-opacity="1">10 µs</text>
  <path d="M 50 9 L 1230 9" fill="none" stroke-width="0.75" stroke="#000000" stroke-opacity="0.49804" stroke-linecap="butt" stroke-linejoin="round"/>
  <text x="15" y="10.7" font-family="Helvetica" font-size="10" font-weight="normal" font-style="normal" fill="#000000" fill-opacity="1">100 µs</text>
  <text x="1236" y="10.7" font-family="Helvetica" font-size="10" font-weight="normal" font-style="normal" fill="#000000" fill-opacity="1">100 µs</text>
  <path d="M 50 414.99 L 1230 414.99" fill="none" stroke-width="0.5" stroke="#000000" stroke-opacity="0.25882" stroke-linecap="butt" stroke-linejoin="round" stroke-dasharray="6 3" stroke-dashoffset="0"/>
  <path d="M 50 388.98 L 1230 388.98" fill="none" stroke-width="0.5" stroke="#000000" stroke-opacity="0.25882" stroke-linecap="butt" stroke-linejoin="round" stroke-dasharray="6 3" stroke-dashoffset="0"/>
  <path d="M 50 362.97 L 1230 362.97" fill="none" stroke-width="0.5" stroke="#000000" stroke-opacity="0.25882" stroke-linecap="butt" stroke-linejoin="round" stroke-dasharray="6 3" stroke-dashoffset="0"/>
  <path d="M 50 336.96 L 1230 336.96" fill="none" stroke-width="0.5" stroke="#000000" stroke-opacity="0.25882" stroke-linecap="butt" stroke-linejoin="round" stroke-dasharray="6 3" stroke-dashoffset="0"/>
  <path d="M 50 310.96 L 1230 310.96" fill="none" stroke-width="0.5" stroke="#000000" stroke-opacity="0.25882" stroke-linecap="butt" stroke-linejoin="round" stroke-dasharray="6 3" stroke-dashoffset="0"/>
  <path d="M 50 284.95 L 1230 284.95" fill="none" stroke-width="0.5" stroke="#000000" stroke-opacity="0.25882" stroke-linecap="butt" stroke-linejoin="round" stroke-dasharray="6 3" stroke-dashoffset="0"/>
  <path d="M 50 258.94 L 1230 258.94" fill="none" stroke-width="0.5" stroke="#000000" stroke-opacity="0.25882" stroke-linecap="butt" stroke-linejoin="round" stroke-dasharray="6 3" stroke-dashoffset="0"/>
  <path d="M 50 232.93 L 1230 232.93" fill="none" stroke-width="0.5" stroke="#000000" stroke-opacity="0.25882" stroke-linecap="butt" stroke-linejoin="round" stroke-dasharray="6 3" stroke-dashoffset="0"/>
  <path d="M 50 206.92 L 1230 206.92" fill="none" stroke-width="0.5" stroke="#000000" stroke-opacity="0.25882" stroke-linecap="butt" stroke-linejoin="round" stroke-dasharray="6 3" stroke-dashoffset="0"/>
  <path d="M 50 180.91 L 1230 180.91" fill="none" stroke-width="0.5" stroke="#000000" stroke-opacity="0.25882" stroke-linecap="butt" stroke-linejoin="round" stroke-dasharray="6 3" stroke-dashoffset="0"/>
  <path d="M 50 154.9 L 1230 154.9" fill="none" stroke-width="0.5" stroke="#000000" stroke-opacity="0.25882" stroke-linecap="butt" stroke-linejoin="round" stroke-dasharray="6 3" stroke-dashoffset="0"/>
  <path d="M 50 128.89 L 1230 128.89" fill="none" stroke-width="0.5" stroke="#000000" stroke-opacity="0.25882" stroke-linecap="butt" stroke-linejoin="round" stroke-dasharray="6 3" stroke-dashoffset="0"/>
  <path d="M 50 102.88 L 1230 102.88" fill="none" stroke-width="0.5" stroke="#000000" stroke-opacity="0.25882" stroke-linecap="butt" stroke-linejoin="round" stroke-dasharray="6 3" stroke-dashoffset="0"/>
  <path d="M 50 76.874 L 1230 76.874" fill="none" stroke-width="0.5" stroke="#000000" stroke-opacity="0.25882" stroke-linecap="butt" stroke-linejoin="round" stroke-dasharray="6 3" stroke-dashoffset="0"/>
  <path d="M 50 50.865 L 1230 50.865" fill="none" stroke-width="0.5" stroke="#000000" stroke-opacity="0.25882" stroke-linecap="butt" stroke-linejoin="round" stroke-dasharray="6 3" stroke-dashoffset="0"/>
  <path d="M 50 24.856 L 1230 24.856" fill="none" stroke-width="0.5" stroke="#000000" stroke-opacity="0.25882" stroke-linecap="butt" stroke-linejoin="round" stroke-dasharray="6 3" stroke-dashoffset="0"/>
  <path d="M 74 33 L 74 88 L 290 88 L 290 33 z" fill="#FFFFFF" fill-opacity="1.0" stroke="none"/>
  <clipPath id="clip-0">
    <path d="M 50 9 L 50 441 L 1230 441 L 1230 9 z"/>
  </clipPath>
  <g clip-path="url(#clip-0)">
    <path d="M 50 244.61L 115.56 259.02L 153.9 267.94L 181.11 271.38L 202.22 271.74L 219.46 272.83L 234.04 264.81L 246.67 266L 267.77 266.65L 285.01 267.81L 299.59 268.88L 312.22 269.83L 333.33 269.84L 350.57 272.05L 365.15 269.79L 377.78 269.87L 398.88 269.47L 416.13 268.92L 430.7 268.44L 443.33 268.06L 464.44 267.12L 481.68 266.81L 496.26 266.1L 508.89 265.74L 529.99 265.93L 547.24 266.36L 561.82 264.08L 574.44 263.31L 595.55 260.95L 612.79 260.78L 627.37 261.22L 640 260.94L 661.1 258.56L 678.35 258.38L 692.93 257.6L 705.56 258.85L 726.66 257.23L 743.9 256.39L 758.48 254.9L 771.11 254.08L 792.22 256.7L 809.46 254.5L 824.04 252.39L 836.67 252.49L 857.77 250.99L 875.01 250.27L 889.59 252.02L 902.22 250.37L 923.33 248.42L 940.57 249.12L 955.15 247.97L 967.78 246.86L 988.88 246.68L 1006.1 246.91L 1020.7 246.27L 1033.3 245.63L 1054.4 245.62L 1071.7 244.63L 1071.7 244.63L 1054.4 245.62L 1033.3 245.63L 1020.7 246.27L 1006.1 246.91L 988.88 246.68L 967.78 246.86L 955.15 247.97L 940.57 249.12L 923.33 248.42L 902.22 250.37L 889.59 252.02L 875.01 250.27L 857.77 250.99L 836.67 252.49L 824.04 252.39L 809.46 254.5L 792.22 256.7L 771.11 254.08L 758.48 254.9L 743.9 256.39L 726.66 257.23L 705.56 258.85L 692.93 257.6L 678.35 258.38L 661.1 258.56L 640 260.94L 627.37 261.22L 612.79 260.78L 595.55 260.95L 574.44 263.31L 561.82 264.08L 547.24 266.36L 529.99 265.93L 508.89 265.74L 496.26 266.1L 481.68 266.81L 464.44 267.12L 443.33 268.06L 430.7 268.44L 416.13 268.92L 398.88 269.47L 377.78 269.87L 365.15 269.79L 350.57 272.05L 333.33 269.84L 312.22 269.83L 299.59 268.88L 285.01 267.81L 267.77 266.65L 246.67 266L 234.04 264.81L 219.46 272.83L 202.22 271.74L 181.11 271.38L 153.9 267.94L 115.56 259.02L 50 244.61" fill="#007AFF" fill-opacity="0.30196078431372547" stroke="none"/>
    <path d="M 50 291.2L 115.56 313.91L 153.9 327.82L 181.11 335.91L 202.22 344.76L 219.46 348.84L 234.04 352.93L 246.67 357.02L 267.77 363.19L 285.01 368.85L 299.59 372.59L 312.22 376.19L 333.33 380.14L 350.57 382.23L 365.15 381.85L 377.78 376.62L 398.88 374.82L 416.13 378.75L 430.7 379.41L 443.33 378.18L 464.44 378.52L 481.68 377.78L 496.26 376.11L 508.89 377.23L 529.99 372.16L 547.24 368L 561.82 363.44L 574.44 360.02L 595.55 353.27L 612.79 348.59L 627.37 344.11L 640 337.76L 661.1 331.51L 678.35 317.18L 692.93 312.58L 705.56 315.44L 726.66 306.38L 743.9 296.76L 758.48 288.06L 771.11 287.29L 792.22 279.73L 809.46 272.8L 824.04 267.87L 836.67 264.16L 857.77 254.57L 875.01 248.67L 889.59 241.12L 902.22 237.72L 923.33 228.4L 940.57 221.18L 955.15 214.41L 967.78 209.67L 988.88 198.88L 1006.1 187.97L 1020.7 182.24L 1033.3 174.94L 1054.4 164.85L 1071.7 157.64L 1086.3 152.28L 1098.9 147.16L 1120 138.95L 1137.2 131.39L 1151.8 126.12L 1164.4 121.38L 1185.5 112.65L 1202.8 105.63L 1217.4 99.907L 1230 94.699L 1230 95.019L 1217.4 100.36L 1202.8 105.98L 1185.5 113.14L 1164.4 121.77L 1151.8 126.52L 1137.2 132.72L 1120 139.57L 1098.9 147.96L 1086.3 153.15L 1071.7 158.74L 1054.4 166.22L 1033.3 176.43L 1020.7 182.32L 1006.1 189.54L 988.88 199.19L 967.78 211.39L 955.15 216.49L 940.57 222.31L 923.33 229.12L 902.22 237.81L 889.59 242.79L 875.01 248.73L 857.77 255.59L 836.67 264.18L 824.04 268.01L 809.46 273.81L 792.22 281.01L 771.11 288.98L 758.48 295.93L 743.9 297.53L 726.66 308.38L 705.56 316.29L 692.93 316.6L 678.35 324.71L 661.1 332.61L 640 340.28L 627.37 344.13L 612.79 348.73L 595.55 353.86L 574.44 360.02L 561.82 363.8L 547.24 368.18L 529.99 372.46L 508.89 377.45L 496.26 377.07L 481.68 378.24L 464.44 379.3L 443.33 379.79L 430.7 379.62L 416.13 379.84L 398.88 379.14L 377.78 376.82L 365.15 384.36L 350.57 382.75L 333.33 380.14L 312.22 376.19L 299.59 372.6L 285.01 368.85L 267.77 363.56L 246.67 357.02L 234.04 354.6L 219.46 349.27L 202.22 344.76L 181.11 335.91L 153.9 327.82L 115.56 313.91L 50 291.2" fill="#FF3B30" fill-opacity="0.30196078431372547" stroke="none"/>
    <path d="M 50 244.61L 115.56 259.02L 153.9 267.94L 181.11 271.38L 202.22 271.74L 219.46 272.83L 234.04 264.81L 246.67 266L 267.77 266.65L 285.01 267.81L 299.59 268.88L 312.22 269.83L 333.33 269.84L 350.57 272.05L 365.15 269.79L 377.78 269.87L 398.88 269.47L 416.13 268.92L 430.7 268.44L 443.33 268.06L 464.44 267.12L 481.68 266.81L 496.26 266.1L 508.89 265.74L 529.99 265.93L 547.24 266.36L 561.82 264.08L 574.44 263.31L 595.55 260.95L 612.79 260.78L 627.37 261.22L 640 260.94L 661.1 258.56L 678.35 258.38L 692.93 257.6L 705.56 258.85L 726.66 257.23L 743.9 256.39L 758.48 254.9L 771.11 254.08L 792.22 256.7L 809.46 254.5L 824.04 252.39L 836.67 252.49L 857.77 250.99L 875.01 250.27L 889.59 252.02L 902.22 250.37L 923.33 248.42L 940.57 249.12L 955.15 247.97L 967.78 246.86L 988.88 246.68L 1006.1 246.91L 1020.7 246.27L 1033.3 245.63L 1054.4 245.62L 1071.7 244.63" fill="none" stroke-width="4" stroke="#007AFF" stroke-opacity="1" stroke-linecap="round" stroke-linejoin="round"/>
    <path d="M 50 291.2L 115.56 313.91L 153.9 327.82L 181.11 335.91L 202.22 344.76L 219.46 349.16L 234.04 354.16L 246.67 357.02L 267.77 363.47L 285.01 368.85L 299.59 372.6L 312.22 376.19L 333.33 380.14L 350.57 382.62L 365.15 383.69L 377.78 376.77L 398.88 377.96L 416.13 379.55L 430.7 379.56L 443.33 379.36L 464.44 379.1L 481.68 378.12L 496.26 376.82L 508.89 377.39L 529.99 372.38L 547.24 368.13L 561.82 363.71L 574.44 360.02L 595.55 353.71L 612.79 348.7L 627.37 344.12L 640 339.6L 661.1 332.32L 678.35 322.6L 692.93 315.51L 705.56 316.06L 726.66 307.84L 743.9 297.33L 758.48 293.71L 771.11 288.53L 792.22 280.67L 809.46 273.55L 824.04 267.97L 836.67 264.17L 857.77 255.32L 875.01 248.71L 889.59 242.34L 902.22 237.79L 923.33 228.93L 940.57 222.01L 955.15 215.94L 967.78 210.93L 988.88 199.11L 1006.1 189.12L 1020.7 182.3L 1033.3 176.03L 1054.4 165.86L 1071.7 158.45L 1086.3 152.92L 1098.9 147.75L 1120 139.41L 1137.2 132.37L 1151.8 126.41L 1164.4 121.67L 1185.5 113.01L 1202.8 105.89L 1217.4 100.24L 1230 94.935" fill="none" stroke-width="4" stroke="#FF3B30" stroke-opacity="1" stroke-linecap="round" stroke-linejoin="round"/>
    <path d="M 50 244.61L 115.56 259.02L 153.9 267.94L 181.11 271.38L 202.22 271.74L 219.46 272.83L 234.04 264.81L 246.67 266L 267.77 266.65L 285.01 267.81L 299.59 268.88L 312.22 269.83L 333.33 269.84L 350.57 272.05L 365.15 269.79L 377.78 269.87L 398.88 269.47L 416.13 268.92L 430.7 268.44L 443.33 268.06L 464.44 267.12L 481.68 266.81L 496.26 266.1L 508.89 265.74L 529.99 265.93L 547.24 266.36L 561.82 264.08L 574.44 263.31L 595.55 260.95L 612.79 260.78L 627.37 261.22L 640 260.94L 661.1 258.56L 678.35 258.38L 692.93 257.6L 705.56 258.85L 726.66 257.23L 743.9 256.39L 758.48 254.9L 771.11 254.08L 792.22 256.7L 809.46 254.5L 824.04 252.39L 836.67 252.49L 857.77 250.99L 875.01 250.27L 889.59 252.02L 902.22 250.37L 923.33 248.42L 940.57 249.12L 955.15 247.97L 967.78 246.86L 988.88 246.68L 1006.1 246.91L 1020.7 246.27L 1033.3 245.63L 1054.4 245.62L 1071.7 244.63" fill="none" stroke-width="0.5" stroke="#000000" stroke-opacity="0.30196" stroke-linecap="round" stroke-linejoin="round"/>
    <path d="M 50 291.2L 115.56 313.91L 153.9 327.82L 181.11 335.91L 202.22 344.76L 219.46 349.16L 234.04 354.16L 246.67 357.02L 267.77 363.47L 285.01 368.85L 299.59 372.6L 312.22 376.19L 333.33 380.14L 350.57 382.62L 365.15 383.69L 377.78 376.77L 398.88 377.96L 416.13 379.55L 430.7 379.56L 443.33 379.36L 464.44 379.1L 481.68 378.12L 496.26 376.82L 508.89 377.39L 529.99 372.38L 547.24 368.13L 561.82 363.71L 574.44 360.02L 595.55 353.71L 612.79 348.7L 627.37 344.12L 640 339.6L 661.1 332.32L 678.35 322.6L 692.93 315.51L 705.56 316.06L 726.66 307.84L 743.9 297.33L 758.48 293.71L 771.11 288.53L 792.22 280.67L 809.46 273.55L 824.04 267.97L 836.67 264.17L 857.77 255.32L 875.01 248.71L 889.59 242.34L 902.22 237.79L 923.33 228.93L 940.57 222.01L 955.15 215.94L 967.78 210.93L 988.88 199.11L 1006.1 189.12L 1020.7 182.3L 1033.3 176.03L 1054.4 165.86L 1071.7 158.45L 1086.3 152.92L 1098.9 147.75L 1120 139.41L 1137.2 132.37L 1151.8 126.41L 1164.4 121.67L 1185.5 113.01L 1202.8 105.89L 1217.4 100.24L 1230 94.935" fill="none" stroke-width="0.5" stroke="#000000" stroke-opacity="0.30196" stroke-linecap="round" stroke-linejoin="round"/>
  </g>
  <path d="M 74 33 L 74 88 L 290 88 L 290 33 z" fill="#FFFFFF" fill-opacity="0.7019607843137254" stroke-width="0.5" stroke="#000000" stroke-opacity="1" stroke-linecap="round" stroke-linejoin="round"/>
  <path d="M 88 52 L 108 52" fill="none" stroke-width="4" stroke="#FF3B30" stroke-opacity="1" stroke-linecap="round" stroke-linejoin="round"/>
  <path d="M 88 52 L 108 52" fill="none" stroke-width="0.5" stroke="#000000" stroke-opacity="0.30196" stroke-linecap="round" stroke-linejoin="round"/>
  <text x="119" y="56.17" font-family="Menlo" font-size="12" font-weight="normal" font-style="normal" fill="#000000" fill-opacity="1">Array&lt;Int&gt; kalimba</text>
  <path d="M 88 69 L 108 69" fill="none" stroke-width="4" stroke="#007AFF" stroke-opacity="1" stroke-linecap="round" stroke-linejoin="round"/>
  <path d="M 88 69 L 108 69" fill="none" stroke-width="0.5" stroke="#000000" stroke-opacity="0.30196" stroke-linecap="round" stroke-linejoin="round"/>
  <text x="119" y="73.17" font-family="Menlo" font-size="12" font-weight="normal" font-style="normal" fill="#000000" fill-opacity="1">TreeArray&lt;Int&gt; kalimba</text>
  <path d="M 50 9 L 50 441 L 1230 441 L 1230 9 z" fill="none" stroke-width="0.5" stroke="#000000" stroke-opacity="1" stroke-linecap="round" stroke-linejoin="round"/>
</svg>
