<!DOCTYPE svg PUBLIC "-//W3C//DTD SVG 1.1//EN" "http://www.w3.org/Graphics/SVG/1.1/DTD/svg11.dtd">
<svg width="1280.0px" height="480.0px" viewBox="0.0 0.0 1280.0 480.0" xmlns="http://www.w3.org/2000/svg" xmlns:xlink="http://www.w3.org/1999/xlink" version="1.1">
  <path d="M 0 0 L 0 480 L 1280 480 L 1280 0 z" fill="#FFFFFF" fill-opacity="1.0" stroke="none"/>
  <text x="50" y="468.7" font-family="Helvetica" font-size="10" font-weight="normal" font-style="normal" fill="#000000" fill-opacity="1">Average per-element processing time over input size (bands: min, mean, mean + 2stddev)</text>
  <a xlink:href="https://github.com/apple/swift-collections-benchmark"><text x="1107" y="468.7" font-family="Helvetica" font-size="10" font-weight="normal" font-style="normal" fill="#000000" fill-opacity="1">swift-collections-benchmark</text></a>
  <path d="M 50 9 L 50 441" fill="none" stroke-width="0.75" stroke="#000000" stroke-opacity="0.49804" stroke-linecap="butt" stroke-linejoin="round"/>
  <text x="47" y="453.7" font-family="Helvetica" font-size="10" font-weight="normal" font-style="normal" fill="#000000" fill-opacity="1">1</text>
  <path d="M 109 9 L 109 441" fill="none" stroke-width="0.75" stroke="#000000" stroke-opacity="0.49804" stroke-linecap="butt" stroke-linejoin="round"/>
  <text x="106" y="453.7" font-family="Helvetica" font-size="10" font-weight="normal" font-style="normal" fill="#000000" fill-opacity="1">2</text>
  <path d="M 168 9 L 168 441" fill="none" stroke-width="0.75" stroke="#000000" stroke-opacity="0.49804" stroke-linecap="butt" stroke-linejoin="round"/>
  <text x="165" y="453.7" font-family="Helvetica" font-size="10" font-weight="normal" font-style="normal" fill="#000000" fill-opacity="1">4</text>
  <path d="M 227 9 L 227 441" fill="none" stroke-width="0.75" stroke="#000000" stroke-opacity="0.49804" stroke-linecap="butt" stroke-linejoin="round"/>
  <text x="224" y="453.7" font-family="Helvetica" font-size="10" font-weight="normal" font-style="normal" fill="#000000" fill-opacity="1">8</text>
  <path d="M 286 9 L 286 441" fill="none" stroke-width="0.75" stroke="#000000" stroke-opacity="0.49804" stroke-linecap="butt" stroke-linejoin="round"/>
  <text x="280" y="453.7" font-family="Helvetica" font-size="10" font-weight="normal" font-style="normal" fill="#000000" fill-opacity="1">16</text>
  <path d="M 345 9 L 345 441" fill="none" stroke-width="0.75" stroke="#000000" stroke-opacity="0.49804" stroke-linecap="butt" stroke-linejoin="round"/>
  <text x="339" y="453.7" font-family="Helvetica" font-size="10" font-weight="normal" font-style="normal" fill="#000000" fill-opacity="1">32</text>
  <path d="M 404 9 L 404 441" fill="none" stroke-width="0.75" stroke="#000000" stroke-opacity="0.49804" stroke-linecap="butt" stroke-linejoin="round"/>
  <text x="398" y="453.7" font-family="Helvetica" font-size="10" font-weight="normal" font-style="normal" fill="#000000" fill-opacity="1">64</text>
  <path d="M 463 9 L 463 441" fill="none" stroke-width="0.75" stroke="#000000" stroke-opacity="0.49804" stroke-linecap="butt" stroke-linejoin="round"/>
  <text x="454.5" y="453.7" font-family="Helvetica" font-size="10" font-weight="normal" font-style="normal" fill="#000000" fill-opacity="1">128</text>
  <path d="M 522 9 L 522 441" fill="none" stroke-width="0.75" stroke="#000000" stroke-opacity="0.49804" stroke-linecap="butt" stroke-linejoin="round"/>
  <text x="513.5" y="453.7" font-family="Helvetica" font-size="10" font-weight="normal" font-style="normal" fill="#000000" fill-opacity="1">256</text>
  <path d="M 581 9 L 581 441" fill="none" stroke-width="0.75" stroke="#000000" stroke-opacity="0.49804" stroke-linecap="butt" stroke-linejoin="round"/>
  <text x="572.5" y="453.7" font-family="Helvetica" font-size="10" font-weight="normal" font-style="normal" fill="#000000" fill-opacity="1">512</text>
  <path d="M 640 9 L 640 441" fill="none" stroke-width="0.75" stroke="#000000" stroke-opacity="0.49804" stroke-linecap="butt" stroke-linejoin="round"/>
  <text x="634.5" y="453.7" font-family="Helvetica" font-size="10" font-weight="normal" font-style="normal" fill="#000000" fill-opacity="1">1k</text>
  <path d="M 699 9 L 699 441" fill="none" stroke-width="0.75" stroke="#000000" stroke-opacity="0.49804" stroke-linecap="butt" stroke-linejoin="round"/>
  <text x="693.5" y="453.7" font-family="Helvetica" font-size="10" font-weight="normal" font-style="normal" fill="#000000" fill-opacity="1">2k</text>
  <path d="M 758 9 L 758 441" fill="none" stroke-width="0.75" stroke="#000000" stroke-opacity="0.49804" stroke-linecap="butt" stroke-linejoin="round"/>
  <text x="752.5" y="453.7" font-family="Helvetica" font-size="10" font-weight="normal" font-style="normal" fill="#000000" fill-opacity="1">4k</text>
  <path d="M 817 9 L 817 441" fill="none" stroke-width="0.75" stroke="#000000" stroke-opacity="0.49804" stroke-linecap="butt" stroke-linejoin="round"/>
  <text x="811.5" y="453.7" font-family="Helvetica" font-size="10" font-weight="normal" font-style="normal" fill="#000000" fill-opacity="1">8k</text>
  <path d="M 876 9 L 876 441" fill="none" stroke-width="0.75" stroke="#000000" stroke-opacity="0.49804" stroke-linecap="butt" stroke-linejoin="round"/>
  <text x="867.5" y="453.7" font-family="Helvetica" font-size="10" font-weight="normal" font-style="normal" fill="#000000" fill-opacity="1">16k</text>
  <path d="M 935 9 L 935 441" fill="none" stroke-width="0.75" stroke="#000000" stroke-opacity="0.49804" stroke-linecap="butt" stroke-linejoin="round"/>
  <text x="926.5" y="453.7" font-family="Helvetica" font-size="10" font-weight="normal" font-style="normal" fill="#000000" fill-opacity="1">32k</text>
  <path d="M 994 9 L 994 441" fill="none" stroke-width="0.75" stroke="#000000" stroke-opacity="0.49804" stroke-linecap="butt" stroke-linejoin="round"/>
  <text x="985.5" y="453.7" font-family="Helvetica" font-size="10" font-weight="normal" font-style="normal" fill="#000000" fill-opacity="1">64k</text>
  <path d="M 1053 9 L 1053 441" fill="none" stroke-width="0.75" stroke="#000000" stroke-opacity="0.49804" stroke-linecap="butt" stroke-linejoin="round"/>
  <text x="1042" y="453.7" font-family="Helvetica" font-size="10" font-weight="normal" font-style="normal" fill="#000000" fill-opacity="1">128k</text>
  <path d="M 1112 9 L 1112 441" fill="none" stroke-width="0.75" stroke="#000000" stroke-opacity="0.49804" stroke-linecap="butt" stroke-linejoin="round"/>
  <text x="1101" y="453.7" font-family="Helvetica" font-size="10" font-weight="normal" font-style="normal" fill="#000000" fill-opacity="1">256k</text>
  <path d="M 1171 9 L 1171 441" fill="none" stroke-width="0.75" stroke="#000000" stroke-opacity="0.49804" stroke-linecap="butt" stroke-linejoin="round"/>
  <text x="1160" y="453.7" font-family="Helvetica" font-size="10" font-weight="normal" font-style="normal" fill="#000000" fill-opacity="1">512k</text>
  <path d="M 1230 9 L 1230 441" fill="none" stroke-width="0.75" stroke="#000000" stroke-opacity="0.49804" stroke-linecap="butt" stroke-linejoin="round"/>
  <text x="1223" y="453.7" font-family="Helvetica" font-size="10" font-weight="normal" font-style="normal" fill="#000000" fill-opacity="1">1M</text>
  <path d="M 50 441 L 1230 441" fill="none" stroke-width="0.75" stroke="#000000" stroke-opacity="0.49804" stroke-linecap="butt" stroke-linejoin="round"/>
  <text x="27" y="442.7" font-family="Helvetica" font-size="10" font-weight="normal" font-style="normal" fill="#000000" fill-opacity="1">1 ns</text>
  <text x="1236" y="442.7" font-family="Helvetica" font-size="10" font-weight="normal" font-style="normal" fill="#000000" fill-opacity="1">1 ns</text>
  <path d="M 50 354.6 L 1230 354.6" fill="none" stroke-width="0.75" stroke="#000000" stroke-opacity="0.49804" stroke-linecap="butt" stroke-linejoin="round"/>
  <text x="21" y="356.3" font-family="Helvetica" font-size="10" font-weight="normal" font-style="normal" fill="#000000" fill-opacity="1">10 ns</text>
  <text x="1236" y="356.3" font-family="Helvetica" font-size="10" font-weight="normal" font-style="normal" fill="#000000" fill-opacity="1">10 ns</text>
  <path d="M 50 268.2 L 1230 268.2" fill="none" stroke-width="0.75" stroke="#000000" stroke-opacity="0.49804" stroke-linecap="butt" stroke-linejoin="round"/>
  <text x="16" y="269.9" font-family="Helvetica" font-size="10" font-weight="normal" font-style="normal" fill="#000000" fill-opacity="1">100 ns</text>
  <text x="1236" y="269.9" font-family="Helvetica" font-size="10" font-weight="normal" font-style="normal" fill="#000000" fill-opacity="1">100 ns</text>
  <path d="M 50 181.8 L 1230 181.8" fill="none" stroke-width="0.75" stroke="#000000" stroke-opacity="0.49804" stroke-linecap="butt" stroke-linejoin="round"/>
  <text x="26" y="183.5" font-family="Helvetica" font-size="10" font-weight="normal" font-style="normal" fill="#000000" fill-opacity="1">1 µs</text>
  <text x="1236" y="183.5" font-family="Helvetica" font-size="10" font-weight="normal" font-style="normal" fill="#000000" fill-opacity="1">1 µs</text>
  <path d="M 50 95.4 L 1230 95.4" fill="none" stroke-width="0.75" stroke="#000000" stroke-opacity="0.49804" stroke-linecap="butt" stroke-linejoin="round"/>
  <text x="21" y="97.1" font-family="Helvetica" font-size="10" font-weight="normal" font-style="normal" fill="#000000" fill-opacity="1">10 µs</text>
  <text x="1236" y="97.1" font-family="Helvetica" font-size="10" font-weight="normal" font-style="normal" fill="#000000" fill-opacity="1">10 µs</text>
  <path d="M 50 9 L 1230 9" fill="none" stroke-width="0.75" stroke="#000000" stroke-opacity="0.49804" stroke-linecap="butt" stroke-linejoin="round"/>
  <text x="15" y="10.7" font-family="Helvetica" font-size="10" font-weight="normal" font-style="normal" fill="#000000" fill-opacity="1">100 µs</text>
  <text x="1236" y="10.7" font-family="Helvetica" font-size="10" font-weight="normal" font-style="normal" fill="#000000" fill-opacity="1">100 µs</text>
  <path d="M 50 414.99 L 1230 414.99" fill="none" stroke-width="0.5" stroke="#000000" stroke-opacity="0.25882" stroke-linecap="butt" stroke-linejoin="round" stroke-dasharray="6 3" stroke-dashoffset="0"/>
  <path d="M 50 388.98 L 1230 388.98" fill="none" stroke-width="0.5" stroke="#000000" stroke-opacity="0.25882" stroke-linecap="butt" stroke-linejoin="round" stroke-dasharray="6 3" stroke-dashoffset="0"/>
  <path d="M 50 362.97 L 1230 362.97" fill="none" stroke-width="0.5" stroke="#000000" stroke-opacity="0.25882" stroke-linecap="butt" stroke-linejoin="round" stroke-dasharray="6 3" stroke-dashoffset="0"/>
  <path d="M 50 336.96 L 1230 336.96" fill="none" stroke-width="0.5" stroke="#000000" stroke-opacity="0.25882" stroke-linecap="butt" stroke-linejoin="round" stroke-dasharray="6 3" stroke-dashoffset="0"/>
  <path d="M 50 310.96 L 1230 310.96" fill="none" stroke-width="0.5" stroke="#000000" stroke-opacity="0.25882" stroke-linecap="butt" stroke-linejoin="round" stroke-dasharray="6 3" stroke-dashoffset="0"/>
  <path d="M 50 284.95 L 1230 284.95" fill="none" stroke-width="0.5" stroke="#000000" stroke-opacity="0.25882" stroke-linecap="butt" stroke-linejoin="round" stroke-dasharray="6 3" stroke-dashoffset="0"/>
  <path d="M 50 258.94 L 1230 258.94" fill="none" stroke-width="0.5" stroke="#000000" stroke-opacity="0.25882" stroke-linecap="butt" stroke-linejoin="round" stroke-dasharray="6 3" stroke-dashoffset="0"/>
  <path d="M 50 232.93 L 1230 232.93" fill="none" stroke-width="0.5" stroke="#000000" stroke-opacity="0.25882" stroke-linecap="butt" stroke-linejoin="round" stroke-dasharray="6 3" stroke-dashoffset="0"/>
  <path d="M 50 206.92 L 1230 206.92" fill="none" stroke-width="0.5" stroke="#000000" stroke-opacity="0.25882" stroke-linecap="butt" stroke-linejoin="round" stroke-dasharray="6 3" stroke-dashoffset="0"/>
  <path d="M 50 180.91 L 1230 180.91" fill="none" stroke-width="0.5" stroke="#000000" stroke-opacity="0.25882" stroke-linecap="butt" stroke-linejoin="round" stroke-dasharray="6 3" stroke-dashoffset="0"/>
  <path d="M 50 154.9 L 1230 154.9" fill="none" stroke-width="0.5" stroke="#000000" stroke-opacity="0.25882" stroke-linecap="butt" stroke-linejoin="round" stroke-dasharray="6 3" stroke-dashoffset="0"/>
  <path d="M 50 128.89 L 1230 128.89" fill="none" stroke-width="0.5" stroke="#000000" stroke-opacity="0.25882" stroke-linecap="butt" stroke-linejoin="round" stroke-dasharray="6 3" stroke-dashoffset="0"/>
  <path d="M 50 102.88 L 1230 102.88" fill="none" stroke-width="0.5" stroke="#000000" stroke-opacity="0.25882" stroke-linecap="butt" stroke-linejoin="round" stroke-dasharray="6 3" stroke-dashoffset="0"/>
  <path d="M 50 76.874 L 1230 76.874" fill="none" stroke-width="0.5" stroke="#000000" stroke-opacity="0.25882" stroke-linecap="butt" stroke-linejoin="round" stroke-dasharray="6 3" stroke-dashoffset="0"/>
  <path d="M 50 50.865 L 1230 50.865" fill="none" stroke-width="0.5" stroke="#000000" stroke-opacity="0.25882" stroke-linecap="butt" stroke-linejoin="round" stroke-dasharray="6 3" stroke-dashoffset="0"/>
  <path d="M 50 24.856 L 1230 24.856" fill="none" stroke-width="0.5" stroke="#000000" stroke-opacity="0.25882" stroke-linecap="butt" stroke-linejoin="round" stroke-dasharray="6 3" stroke-dashoffset="0"/>
  <path d="M 74 33 L 74 105 L 290 105 L 290 33 z" fill="#FFFFFF" fill-opacity="1.0" stroke="none"/>
  <clipPath id="clip-0">
    <path d="M 50 9 L 50 441 L 1230 441 L 1230 9 z"/>
  </clipPath>
  <g clip-path="url(#clip-0)">
    <path d="M 50 275.99L 109 298.34L 143.51 312.01L 168 321.83L 186.99 329.06L 202.51 334.37L 215.63 339.24L 227 343.08L 245.99 348.96L 261.51 353.71L 274.63 353.72L 286 357.21L 304.99 364.07L 320.51 367.82L 333.63 362.86L 345 366.92L 363.99 370.95L 379.51 373.07L 392.63 375.62L 404 346.69L 422.99 380.62L 438.51 382.46L 451.63 383.7L 463 385.49L 481.99 388.91L 497.51 389.87L 510.63 390.58L 522 390.81L 540.99 391.88L 556.51 392.37L 569.63 392.72L 581 392.99L 599.99 393.4L 615.51 393.61L 628.63 393.84L 640 393.98L 658.99 394.17L 674.51 394.31L 687.63 394.34L 699 394.2L 717.99 394.57L 733.51 394.64L 746.63 394.67L 758 393.92L 776.99 394.78L 792.51 394.37L 805.63 394.8L 817 394.75L 835.99 394.47L 851.51 394.76L 864.63 394.81L 876 394.79L 894.99 394.69L 910.51 393.34L 923.63 394.92L 935 394.67L 953.99 394.73L 969.51 394.92L 982.63 394.8L 994 394.84L 1013 394.46L 1028.5 392.67L 1041.6 394.47L 1053 394.67L 1072 394.74L 1087.5 391.71L 1100.6 391.68L 1112 391.63L 1131 391.94L 1146.5 390.47L 1159.6 390.95L 1171 390.19L 1190 390.37L 1205.5 391.2L 1218.6 390.63L 1230 391.8L 1230 394.69L 1218.6 391.6L 1205.5 391.26L 1190 391.73L 1171 390.82L 1159.6 391.39L 1146.5 391.74L 1131 392.25L 1112 391.68L 1100.6 391.92L 1087.5 391.86L 1072 394.83L 1053 394.81L 1041.6 394.75L 1028.5 394.82L 1013 394.72L 994 394.85L 982.63 394.92L 969.51 394.94L 953.99 394.88L 935 394.94L 923.63 394.92L 910.51 394.89L 894.99 394.87L 876 394.86L 864.63 394.82L 851.51 394.8L 835.99 394.7L 817 394.79L 805.63 394.82L 792.51 394.82L 776.99 394.78L 758 394.73L 746.63 394.69L 733.51 394.66L 717.99 394.59L 699 394.49L 687.63 394.42L 674.51 394.32L 658.99 394.19L 640 393.99L 628.63 393.85L 615.51 393.71L 599.99 393.4L 581 393.01L 569.63 392.74L 556.51 392.37L 540.99 391.88L 522 391.48L 510.63 390.61L 497.51 389.91L 481.99 388.96L 463 387.57L 451.63 384.52L 438.51 382.72L 422.99 380.84L 404 378.66L 392.63 377.14L 379.51 375.28L 363.99 371.07L 345 366.92L 333.63 365.77L 320.51 367.82L 304.99 364.27L 286 359.28L 274.63 358.85L 261.51 353.96L 245.99 349.22L 227 343.08L 215.63 339.24L 202.51 334.66L 186.99 329.06L 168 322.14L 143.51 312.01L 109 298.34L 50 275.99" fill="#28CD41" fill-opacity="0.30196078431372547" stroke="none"/>
    <path d="M 50 243.78L 109 258.57L 143.51 264.78L 168 267.27L 186.99 268.56L 202.51 269.02L 215.63 269.23L 227 257.45L 245.99 263.76L 261.51 264.39L 274.63 264.54L 286 264.81L 304.99 265.66L 320.51 265.7L 333.63 265.6L 345 262.52L 363.99 264.9L 379.51 264.3L 392.63 263.88L 404 263.02L 422.99 262.66L 438.51 262.16L 451.63 261.59L 463 261.57L 481.99 260.33L 497.51 260.1L 510.63 259.61L 522 257.34L 540.99 255.98L 556.51 257.72L 569.63 257.1L 581 257.06L 599.99 254.7L 615.51 253.52L 628.63 254.21L 640 254.72L 658.99 253.96L 674.51 252.37L 687.63 252.16L 699 250.54L 717.99 250.56L 733.51 251.83L 746.63 249.87L 758 249.09L 776.99 249.21L 792.51 249.34L 805.63 248.3L 817 247.93L 835.99 248.14L 851.51 247.32L 864.63 246.73L 876 245.43L 894.99 246.31L 910.51 245.55L 923.63 246.09L 935 244.18L 953.99 243.44L 969.51 242.65L 982.63 244.01L 994 243.75L 1013 240.71L 1028.5 241.42L 1041.6 240.9L 1053 240.62L 1072 240.14L 1087.5 240.88L 1100.6 238.59L 1112 239.79L 1131 235.11L 1146.5 238.05L 1159.6 236.48L 1171 237.08L 1190 236.42L 1205.5 236.95L 1218.6 234.7L 1230 234.96L 1230 236.11L 1218.6 236.96L 1205.5 237.13L 1190 238.33L 1171 238.26L 1159.6 238.38L 1146.5 238.06L 1131 239.58L 1112 239.8L 1100.6 240.4L 1087.5 240.91L 1072 241.73L 1053 242.84L 1041.6 242.83L 1028.5 242.44L 1013 243.47L 994 244.27L 982.63 244.15L 969.51 244.43L 953.99 244.74L 935 245.48L 923.63 246.44L 910.51 246.24L 894.99 246.41L 876 246.43L 864.63 248.16L 851.51 249.31L 835.99 248.88L 817 248.32L 805.63 250.69L 792.51 249.78L 776.99 251.11L 758 250.74L 746.63 251.13L 733.51 251.94L 717.99 252.73L 699 254.36L 687.63 254.76L 674.51 254.49L 658.99 253.98L 640 254.77L 628.63 254.88L 615.51 257.49L 599.99 257.76L 581 257.09L 569.63 258.08L 556.51 258.58L 540.99 262.04L 522 261.63L 510.63 259.94L 497.51 260.18L 481.99 261.32L 463 261.69L 451.63 261.89L 438.51 262.38L 422.99 263.05L 404 263.56L 392.63 264.03L 379.51 264.35L 363.99 264.94L 345 268.59L 333.63 265.63L 320.51 266.03L 304.99 266.35L 286 265.34L 274.63 264.85L 261.51 264.71L 245.99 264.78L 227 258.82L 215.63 269.5L 202.51 269.58L 186.99 268.8L 168 268.58L 143.51 266.82L 109 262.21L 50 247.38" fill="#007AFF" fill-opacity="0.30196078431372547" stroke="none"/>
    <path d="M 50 290.92L 109 313.91L 143.51 327.82L 168 335.91L 186.99 343.84L 202.51 346.94L 215.63 353.72L 227 357.02L 245.99 363.56L 261.51 368.85L 274.63 372.43L 286 373.97L 304.99 380.16L 320.51 382.36L 333.63 383.68L 345 374.21L 363.99 376.7L 379.51 376.51L 392.63 378.95L 404 379.79L 422.99 378.41L 438.51 369.31L 451.63 375.79L 463 375.19L 481.99 352.03L 497.51 368L 510.63 363.48L 522 353.33L 540.99 347.55L 556.51 348.67L 569.63 344.18L 581 340.01L 599.99 323.26L 615.51 326.41L 628.63 321.1L 640 313.55L 658.99 301.47L 674.51 294.78L 687.63 291.33L 699 288.34L 717.99 280.74L 733.51 274.09L 746.63 267.28L 758 264.12L 776.99 255.59L 792.51 248.75L 805.63 242.81L 817 237.8L 835.99 228.49L 851.51 221.36L 864.63 214.9L 876 210.55L 894.99 198.86L 910.51 188.58L 923.63 182.25L 935 175.66L 953.99 166.43L 969.51 159.47L 982.63 151.93L 994 148.13L 1013 139.04L 1028.5 132.22L 1041.6 126L 1053 121.54L 1072 112.9L 1087.5 106.05L 1100.6 99.551L 1112 93.498L 1131 86.809L 1131 86.809L 1112 95.432L 1100.6 100.53L 1087.5 106.26L 1072 113.18L 1053 121.56L 1041.6 126.64L 1028.5 132.26L 1013 139.43L 994 148.19L 982.63 153.55L 969.51 159.58L 953.99 166.48L 935 176.4L 923.63 182.38L 910.51 189.59L 894.99 198.95L 876 211.47L 864.63 216.53L 851.51 222.41L 835.99 229.3L 817 237.82L 805.63 242.85L 792.51 248.75L 776.99 255.62L 758 264.18L 746.63 267.93L 733.51 274.71L 717.99 280.75L 699 290.79L 687.63 293.93L 674.51 301.17L 658.99 307.07L 640 315.71L 628.63 321.12L 615.51 326.67L 599.99 332.78L 581 340.13L 569.63 344.2L 556.51 348.73L 540.99 353.69L 522 360.14L 510.63 363.8L 497.51 368.25L 481.99 372.28L 463 377.4L 451.63 376.74L 438.51 378.46L 422.99 378.48L 404 379.88L 392.63 379.1L 379.51 378.46L 363.99 378.93L 345 375.33L 333.63 384.86L 320.51 382.89L 304.99 380.46L 286 378.78L 274.63 372.78L 261.51 368.85L 245.99 363.56L 227 357.02L 215.63 353.72L 202.51 349.04L 186.99 344.76L 168 335.91L 143.51 327.82L 109 313.91L 50 290.92" fill="#FF3B30" fill-opacity="0.30196078431372547" stroke="none"/>
    <path d="M 50 275.99L 109 298.34L 143.51 312.01L 168 322.06L 186.99 329.06L 202.51 334.58L 215.63 339.24L 227 343.08L 245.99 349.15L 261.51 353.89L 274.63 357.44L 286 358.73L 304.99 364.22L 320.51 367.82L 333.63 364.99L 345 366.92L 363.99 371.04L 379.51 374.69L 392.63 376.74L 404 367.37L 422.99 380.79L 438.51 382.65L 451.63 384.3L 463 387.01L 481.99 388.95L 497.51 389.9L 510.63 390.6L 522 391.3L 540.99 391.88L 556.51 392.37L 569.63 392.73L 581 393L 599.99 393.4L 615.51 393.69L 628.63 393.85L 640 393.98L 658.99 394.18L 674.51 394.32L 687.63 394.4L 699 394.41L 717.99 394.58L 733.51 394.65L 746.63 394.69L 758 394.52L 776.99 394.78L 792.51 394.7L 805.63 394.81L 817 394.78L 835.99 394.64L 851.51 394.79L 864.63 394.82L 876 394.84L 894.99 394.82L 910.51 394.48L 923.63 394.92L 935 394.87L 953.99 394.84L 969.51 394.94L 982.63 394.89L 994 394.85L 1013 394.65L 1028.5 394.25L 1041.6 394.68L 1053 394.78L 1072 394.81L 1087.5 391.82L 1100.6 391.86L 1112 391.67L 1131 392.17L 1146.5 391.4L 1159.6 391.27L 1171 390.66L 1190 391.37L 1205.5 391.24L 1218.6 391.34L 1230 393.92" fill="none" stroke-width="4" stroke="#28CD41" stroke-opacity="1" stroke-linecap="round" stroke-linejoin="round"/>
    <path d="M 50 246.41L 109 261.23L 143.51 266.28L 168 268.23L 186.99 268.74L 202.51 269.43L 215.63 269.43L 227 258.46L 245.99 264.51L 261.51 264.62L 274.63 264.77L 286 265.2L 304.99 266.17L 320.51 265.94L 333.63 265.62L 345 266.91L 363.99 264.93L 379.51 264.34L 392.63 263.99L 404 263.42L 422.99 262.94L 438.51 262.32L 451.63 261.81L 463 261.66L 481.99 261.06L 497.51 260.16L 510.63 259.85L 522 260.46L 540.99 260.36L 556.51 258.35L 569.63 257.82L 581 257.08L 599.99 256.93L 615.51 256.41L 628.63 254.7L 640 254.76L 658.99 253.98L 674.51 253.92L 687.63 254.06L 699 253.32L 717.99 252.15L 733.51 251.91L 746.63 250.8L 758 250.3L 776.99 250.61L 792.51 249.66L 805.63 250.05L 817 248.22L 835.99 248.69L 851.51 248.78L 864.63 247.78L 876 246.16L 894.99 246.38L 910.51 246.06L 923.63 246.35L 935 245.14L 953.99 244.4L 969.51 243.96L 982.63 244.12L 994 244.13L 1013 242.73L 1028.5 242.17L 1041.6 242.32L 1053 242.25L 1072 241.31L 1087.5 240.9L 1100.6 239.92L 1112 239.8L 1131 238.36L 1146.5 238.06L 1159.6 237.87L 1171 237.95L 1190 237.82L 1205.5 237.08L 1218.6 236.35L 1230 235.8" fill="none" stroke-width="4" stroke="#007AFF" stroke-opacity="1" stroke-linecap="round" stroke-linejoin="round"/>
    <path d="M 50 290.92L 109 313.91L 143.51 327.82L 168 335.91L 186.99 344.51L 202.51 348.48L 215.63 353.72L 227 357.02L 245.99 363.56L 261.51 368.85L 274.63 372.68L 286 377.46L 304.99 380.38L 320.51 382.75L 333.63 384.55L 345 375.04L 363.99 378.33L 379.51 377.94L 392.63 379.06L 404 379.86L 422.99 378.46L 438.51 375.84L 451.63 376.49L 463 376.81L 481.99 365.85L 497.51 368.18L 510.63 363.72L 522 358.24L 540.99 351.99L 556.51 348.71L 569.63 344.19L 581 340.1L 599.99 330.05L 615.51 326.6L 628.63 321.12L 640 315.13L 658.99 305.52L 674.51 299.4L 687.63 293.23L 699 290.13L 717.99 280.74L 733.51 274.55L 746.63 267.76L 758 264.16L 776.99 255.61L 792.51 248.75L 805.63 242.84L 817 237.81L 835.99 229.09L 851.51 222.13L 864.63 216.1L 876 211.22L 894.99 198.92L 910.51 189.33L 923.63 182.34L 935 176.2L 953.99 166.47L 969.51 159.55L 982.63 153.12L 994 148.18L 1013 139.33L 1028.5 132.25L 1041.6 126.47L 1053 121.55L 1072 113.11L 1087.5 106.21L 1100.6 100.27L 1112 94.917L 1131 86.809" fill="none" stroke-width="4" stroke="#FF3B30" stroke-opacity="1" stroke-linecap="round" stroke-linejoin="round"/>
    <path d="M 50 275.99L 109 298.34L 143.51 312.01L 168 322.06L 186.99 329.06L 202.51 334.58L 215.63 339.24L 227 343.08L 245.99 349.15L 261.51 353.89L 274.63 357.44L 286 358.73L 304.99 364.22L 320.51 367.82L 333.63 364.99L 345 366.92L 363.99 371.04L 379.51 374.69L 392.63 376.74L 404 367.37L 422.99 380.79L 438.51 382.65L 451.63 384.3L 463 387.01L 481.99 388.95L 497.51 389.9L 510.63 390.6L 522 391.3L 540.99 391.88L 556.51 392.37L 569.63 392.73L 581 393L 599.99 393.4L 615.51 393.69L 628.63 393.85L 640 393.98L 658.99 394.18L 674.51 394.32L 687.63 394.4L 699 394.41L 717.99 394.58L 733.51 394.65L 746.63 394.69L 758 394.52L 776.99 394.78L 792.51 394.7L 805.63 394.81L 817 394.78L 835.99 394.64L 851.51 394.79L 864.63 394.82L 876 394.84L 894.99 394.82L 910.51 394.48L 923.63 394.92L 935 394.87L 953.99 394.84L 969.51 394.94L 982.63 394.89L 994 394.85L 1013 394.65L 1028.5 394.25L 1041.6 394.68L 1053 394.78L 1072 394.81L 1087.5 391.82L 1100.6 391.86L 1112 391.67L 1131 392.17L 1146.5 391.4L 1159.6 391.27L 1171 390.66L 1190 391.37L 1205.5 391.24L 1218.6 391.34L 1230 393.92" fill="none" stroke-width="0.5" stroke="#000000" stroke-opacity="0.30196" stroke-linecap="round" stroke-linejoin="round"/>
    <path d="M 50 246.41L 109 261.23L 143.51 266.28L 168 268.23L 186.99 268.74L 202.51 269.43L 215.63 269.43L 227 258.46L 245.99 264.51L 261.51 264.62L 274.63 264.77L 286 265.2L 304.99 266.17L 320.51 265.94L 333.63 265.62L 345 266.91L 363.99 264.93L 379.51 264.34L 392.63 263.99L 404 263.42L 422.99 262.94L 438.51 262.32L 451.63 261.81L 463 261.66L 481.99 261.06L 497.51 260.16L 510.63 259.85L 522 260.46L 540.99 260.36L 556.51 258.35L 569.63 257.82L 581 257.08L 599.99 256.93L 615.51 256.41L 628.63 254.7L 640 254.76L 658.99 253.98L 674.51 253.92L 687.63 254.06L 699 253.32L 717.99 252.15L 733.51 251.91L 746.63 250.8L 758 250.3L 776.99 250.61L 792.51 249.66L 805.63 250.05L 817 248.22L 835.99 248.69L 851.51 248.78L 864.63 247.78L 876 246.16L 894.99 246.38L 910.51 246.06L 923.63 246.35L 935 245.14L 953.99 244.4L 969.51 243.96L 982.63 244.12L 994 244.13L 1013 242.73L 1028.5 242.17L 1041.6 242.32L 1053 242.25L 1072 241.31L 1087.5 240.9L 1100.6 239.92L 1112 239.8L 1131 238.36L 1146.5 238.06L 1159.6 237.87L 1171 237.95L 1190 237.82L 1205.5 237.08L 1218.6 236.35L 1230 235.8" fill="none" stroke-width="0.5" stroke="#000000" stroke-opacity="0.30196" stroke-linecap="round" stroke-linejoin="round"/>
    <path d="M 50 290.92L 109 313.91L 143.51 327.82L 168 335.91L 186.99 344.51L 202.51 348.48L 215.63 353.72L 227 357.02L 245.99 363.56L 261.51 368.85L 274.63 372.68L 286 377.46L 304.99 380.38L 320.51 382.75L 333.63 384.55L 345 375.04L 363.99 378.33L 379.51 377.94L 392.63 379.06L 404 379.86L 422.99 378.46L 438.51 375.84L 451.63 376.49L 463 376.81L 481.99 365.85L 497.51 368.18L 510.63 363.72L 522 358.24L 540.99 351.99L 556.51 348.71L 569.63 344.19L 581 340.1L 599.99 330.05L 615.51 326.6L 628.63 321.12L 640 315.13L 658.99 305.52L 674.51 299.4L 687.63 293.23L 699 290.13L 717.99 280.74L 733.51 274.55L 746.63 267.76L 758 264.16L 776.99 255.61L 792.51 248.75L 805.63 242.84L 817 237.81L 835.99 229.09L 851.51 222.13L 864.63 216.1L 876 211.22L 894.99 198.92L 910.51 189.33L 923.63 182.34L 935 176.2L 953.99 166.47L 969.51 159.55L 982.63 153.12L 994 148.18L 1013 139.33L 1028.5 132.25L 1041.6 126.47L 1053 121.55L 1072 113.11L 1087.5 106.21L 1100.6 100.27L 1112 94.917L 1131 86.809" fill="none" stroke-width="0.5" stroke="#000000" stroke-opacity="0.30196" stroke-linecap="round" stroke-linejoin="round"/>
  </g>
  <path d="M 74 33 L 74 105 L 290 105 L 290 33 z" fill="#FFFFFF" fill-opacity="0.7019607843137254" stroke-width="0.5" stroke="#000000" stroke-opacity="1" stroke-linecap="round" stroke-linejoin="round"/>
  <path d="M 88 52 L 108 52" fill="none" stroke-width="4" stroke="#FF3B30" stroke-opacity="1" stroke-linecap="round" stroke-linejoin="round"/>
  <path d="M 88 52 L 108 52" fill="none" stroke-width="0.5" stroke="#000000" stroke-opacity="0.30196" stroke-linecap="round" stroke-linejoin="round"/>
  <text x="119" y="56.17" font-family="Menlo" font-size="12" font-weight="normal" font-style="normal" fill="#000000" fill-opacity="1">Array&lt;Int&gt; kalimba</text>
  <path d="M 88 69 L 108 69" fill="none" stroke-width="4" stroke="#007AFF" stroke-opacity="1" stroke-linecap="round" stroke-linejoin="round"/>
  <path d="M 88 69 L 108 69" fill="none" stroke-width="0.5" stroke="#000000" stroke-opacity="0.30196" stroke-linecap="round" stroke-linejoin="round"/>
  <text x="119" y="73.17" font-family="Menlo" font-size="12" font-weight="normal" font-style="normal" fill="#000000" fill-opacity="1">TreeArray&lt;Int&gt; kalimba</text>
  <path d="M 88 86 L 108 86" fill="none" stroke-width="4" stroke="#28CD41" stroke-opacity="1" stroke-linecap="round" stroke-linejoin="round"/>
  <path d="M 88 86 L 108 86" fill="none" stroke-width="0.5" stroke="#000000" stroke-opacity="0.30196" stroke-linecap="round" stroke-linejoin="round"/>
  <text x="119" y="90.17" font-family="Menlo" font-size="12" font-weight="normal" font-style="normal" fill="#000000" fill-opacity="1">Deque&lt;Int&gt; kalimba</text>
  <path d="M 50 9 L 50 441 L 1230 441 L 1230 9 z" fill="none" stroke-width="0.5" stroke="#000000" stroke-opacity="1" stroke-linecap="round" stroke-linejoin="round"/>
</svg>
