<!DOCTYPE svg PUBLIC "-//W3C//DTD SVG 1.1//EN" "http://www.w3.org/Graphics/SVG/1.1/DTD/svg11.dtd">
<svg width="1280.0px" height="480.0px" viewBox="0.0 0.0 1280.0 480.0" xmlns="http://www.w3.org/2000/svg" xmlns:xlink="http://www.w3.org/1999/xlink" version="1.1">
  <path d="M 0 0 L 0 480 L 1280 480 L 1280 0 z" fill="#FFFFFF" fill-opacity="1.0" stroke="none"/>
  <text x="50" y="468.7" font-family="Helvetica" font-size="10" font-weight="normal" font-style="normal" fill="#000000" fill-opacity="1">Average per-element processing time over input size (bands: min, mean, mean + 2stddev)</text>
  <a xlink:href="https://github.com/apple/swift-collections-benchmark"><text x="1107" y="468.7" font-family="Helvetica" font-size="10" font-weight="normal" font-style="normal" fill="#000000" fill-opacity="1">swift-collections-benchmark</text></a>
  <path d="M 50 9 L 50 441" fill="none" stroke-width="0.75" stroke="#000000" stroke-opacity="0.49804" stroke-linecap="butt" stroke-linejoin="round"/>
  <text x="47" y="453.7" font-family="Helvetica" font-size="10" font-weight="normal" font-style="normal" fill="#000000" fill-opacity="1">1</text>
  <path d="M 109 9 L 109 441" fill="none" stroke-width="0.75" stroke="#000000" stroke-opacity="0.49804" stroke-linecap="butt" stroke-linejoin="round"/>
  <text x="106" y="453.7" font-family="Helvetica" font-size="10" font-weight="normal" font-style="normal" fill="#000000" fill-opacity="1">2</text>
  <path d="M 168 9 L 168 441" fill="none" stroke-width="0.75" stroke="#000000" stroke-opacity="0.49804" stroke-linecap="butt" stroke-linejoin="round"/>
  <text x="165" y="453.7" font-family="Helvetica" font-size="10" font-weight="normal" font-style="normal" fill="#000000" fill-opacity="1">4</text>
  <path d="M 227 9 L 227 441" fill="none" stroke-width="0.75" stroke="#000000" stroke-opacity="0.49804" stroke-linecap="butt" stroke-linejoin="round"/>
  <text x="224" y="453.7" font-family="Helvetica" font-size="10" font-weight="normal" font-style="normal" fill="#000000" fill-opacity="1">8</text>
  <path d="M 286 9 L 286 441" fill="none" stroke-width="0.75" stroke="#000000" stroke-opacity="0.49804" stroke-linecap="butt" stroke-linejoin="round"/>
  <text x="280" y="453.7" font-family="Helvetica" font-size="10" font-weight="normal" font-style="normal" fill="#000000" fill-opacity="1">16</text>
  <path d="M 345 9 L 345 441" fill="none" stroke-width="0.75" stroke="#000000" stroke-opacity="0.49804" stroke-linecap="butt" stroke-linejoin="round"/>
  <text x="339" y="453.7" font-family="Helvetica" font-size="10" font-weight="normal" font-style="normal" fill="#000000" fill-opacity="1">32</text>
  <path d="M 404 9 L 404 441" fill="none" stroke-width="0.75" stroke="#000000" stroke-opacity="0.49804" stroke-linecap="butt" stroke-linejoin="round"/>
  <text x="398" y="453.7" font-family="Helvetica" font-size="10" font-weight="normal" font-style="normal" fill="#000000" fill-opacity="1">64</text>
  <path d="M 463 9 L 463 441" fill="none" stroke-width="0.75" stroke="#000000" stroke-opacity="0.49804" stroke-linecap="butt" stroke-linejoin="round"/>
  <text x="454.5" y="453.7" font-family="Helvetica" font-size="10" font-weight="normal" font-style="normal" fill="#000000" fill-opacity="1">128</text>
  <path d="M 522 9 L 522 441" fill="none" stroke-width="0.75" stroke="#000000" stroke-opacity="0.49804" stroke-linecap="butt" stroke-linejoin="round"/>
  <text x="513.5" y="453.7" font-family="Helvetica" font-size="10" font-weight="normal" font-style="normal" fill="#000000" fill-opacity="1">256</text>
  <path d="M 581 9 L 581 441" fill="none" stroke-width="0.75" stroke="#000000" stroke-opacity="0.49804" stroke-linecap="butt" stroke-linejoin="round"/>
  <text x="572.5" y="453.7" font-family="Helvetica" font-size="10" font-weight="normal" font-style="normal" fill="#000000" fill-opacity="1">512</text>
  <path d="M 640 9 L 640 441" fill="none" stroke-width="0.75" stroke="#000000" stroke-opacity="0.49804" stroke-linecap="butt" stroke-linejoin="round"/>
  <text x="634.5" y="453.7" font-family="Helvetica" font-size="10" font-weight="normal" font-style="normal" fill="#000000" fill-opacity="1">1k</text>
  <path d="M 699 9 L 699 441" fill="none" stroke-width="0.75" stroke="#000000" stroke-opacity="0.49804" stroke-linecap="butt" stroke-linejoin="round"/>
  <text x="693.5" y="453.7" font-family="Helvetica" font-size="10" font-weight="normal" font-style="normal" fill="#000000" fill-opacity="1">2k</text>
  <path d="M 758 9 L 758 441" fill="none" stroke-width="0.75" stroke="#000000" stroke-opacity="0.49804" stroke-linecap="butt" stroke-linejoin="round"/>
  <text x="752.5" y="453.7" font-family="Helvetica" font-size="10" font-weight="normal" font-style="normal" fill="#000000" fill-opacity="1">4k</text>
  <path d="M 817 9 L 817 441" fill="none" stroke-width="0.75" stroke="#000000" stroke-opacity="0.49804" stroke-linecap="butt" stroke-linejoin="round"/>
  <text x="811.5" y="453.7" font-family="Helvetica" font-size="10" font-weight="normal" font-style="normal" fill="#000000" fill-opacity="1">8k</text>
  <path d="M 876 9 L 876 441" fill="none" stroke-width="0.75" stroke="#000000" stroke-opacity="0.49804" stroke-linecap="butt" stroke-linejoin="round"/>
  <text x="867.5" y="453.7" font-family="Helvetica" font-size="10" font-weight="normal" font-style="normal" fill="#000000" fill-opacity="1">16k</text>
  <path d="M 935 9 L 935 441" fill="none" stroke-width="0.75" stroke="#000000" stroke-opacity="0.49804" stroke-linecap="butt" stroke-linejoin="round"/>
  <text x="926.5" y="453.7" font-family="Helvetica" font-size="10" font-weight="normal" font-style="normal" fill="#000000" fill-opacity="1">32k</text>
  <path d="M 994 9 L 994 441" fill="none" stroke-width="0.75" stroke="#000000" stroke-opacity="0.49804" stroke-linecap="butt" stroke-linejoin="round"/>
  <text x="985.5" y="453.7" font-family="Helvetica" font-size="10" font-weight="normal" font-style="normal" fill="#000000" fill-opacity="1">64k</text>
  <path d="M 1053 9 L 1053 441" fill="none" stroke-width="0.75" stroke="#000000" stroke-opacity="0.49804" stroke-linecap="butt" stroke-linejoin="round"/>
  <text x="1042" y="453.7" font-family="Helvetica" font-size="10" font-weight="normal" font-style="normal" fill="#000000" fill-opacity="1">128k</text>
  <path d="M 1112 9 L 1112 441" fill="none" stroke-width="0.75" stroke="#000000" stroke-opacity="0.49804" stroke-linecap="butt" stroke-linejoin="round"/>
  <text x="1101" y="453.7" font-family="Helvetica" font-size="10" font-weight="normal" font-style="normal" fill="#000000" fill-opacity="1">256k</text>
  <path d="M 1171 9 L 1171 441" fill="none" stroke-width="0.75" stroke="#000000" stroke-opacity="0.49804" stroke-linecap="butt" stroke-linejoin="round"/>
  <text x="1160" y="453.7" font-family="Helvetica" font-size="10" font-weight="normal" font-style="normal" fill="#000000" fill-opacity="1">512k</text>
  <path d="M 1230 9 L 1230 441" fill="none" stroke-width="0.75" stroke="#000000" stroke-opacity="0.49804" stroke-linecap="butt" stroke-linejoin="round"/>
  <text x="1223" y="453.7" font-family="Helvetica" font-size="10" font-weight="normal" font-style="normal" fill="#000000" fill-opacity="1">1M</text>
  <path d="M 50 441 L 1230 441" fill="none" stroke-width="0.75" stroke="#000000" stroke-opacity="0.49804" stroke-linecap="butt" stroke-linejoin="round"/>
  <text x="27" y="442.7" font-family="Helvetica" font-size="10" font-weight="normal" font-style="normal" fill="#000000" fill-opacity="1">1 ns</text>
  <text x="1236" y="442.7" font-family="Helvetica" font-size="10" font-weight="normal" font-style="normal" fill="#000000" fill-opacity="1">1 ns</text>
  <path d="M 50 354.6 L 1230 354.6" fill="none" stroke-width="0.75" stroke="#000000" stroke-opacity="0.49804" stroke-linecap="butt" stroke-linejoin="round"/>
  <text x="21" y="356.3" font-family="Helvetica" font-size="10" font-weight="normal" font-style="normal" fill="#000000" fill-opacity="1">10 ns</text>
  <text x="1236" y="356.3" font-family="Helvetica" font-size="10" font-weight="normal" font-style="normal" fill="#000000" fill-opacity="1">10 ns</text>
  <path d="M 50 268.2 L 1230 268.2" fill="none" stroke-width="0.75" stroke="#000000" stroke-opacity="0.49804" stroke-linecap="butt" stroke-linejoin="round"/>
  <text x="16" y="269.9" font-family="Helvetica" font-size="10" font-weight="normal" font-style="normal" fill="#000000" fill-opacity="1">100 ns</text>
  <text x="1236" y="269.9" font-family="Helvetica" font-size="10" font-weight="normal" font-style="normal" fill="#000000" fill-opacity="1">100 ns</text>
  <path d="M 50 181.8 L 1230 181.8" fill="none" stroke-width="0.75" stroke="#000000" stroke-opacity="0.49804" stroke-linecap="butt" stroke-linejoin="round"/>
  <text x="26" y="183.5" font-family="Helvetica" font-size="10" font-weight="normal" font-style="normal" fill="#000000" fill-opacity="1">1 µs</text>
  <text x="1236" y="183.5" font-family="Helvetica" font-size="10" font-weight="normal" font-style="normal" fill="#000000" fill-opacity="1">1 µs</text>
  <path d="M 50 95.4 L 1230 95.4" fill="none" stroke-width="0.75" stroke="#000000" stroke-opacity="0.49804" stroke-linecap="butt" stroke-linejoin="round"/>
  <text x="21" y="97.1" font-family="Helvetica" font-size="10" font-weight="normal" font-style="normal" fill="#000000" fill-opacity="1">10 µs</text>
  <text x="1236" y="97.1" font-family="Helvetica" font-size="10" font-weight="normal" font-style="normal" fill="#000000" fill-opacity="1">10 µs</text>
  <path d="M 50 9 L 1230 9" fill="none" stroke-width="0.75" stroke="#000000" stroke-opacity="0.49804" stroke-linecap="butt" stroke-linejoin="round"/>
  <text x="15" y="10.7" font-family="Helvetica" font-size="10" font-weight="normal" font-style="normal" fill="#000000" fill-opacity="1">100 µs</text>
  <text x="1236" y="10.7" font-family="Helvetica" font-size="10" font-weight="normal" font-style="normal" fill="#000000" fill-opacity="1">100 µs</text>
  <path d="M 50 414.99 L 1230 414.99" fill="none" stroke-width="0.5" stroke="#000000" stroke-opacity="0.25882" stroke-linecap="butt" stroke-linejoin="round" stroke-dasharray="6 3" stroke-dashoffset="0"/>
  <path d="M 50 388.98 L 1230 388.98" fill="none" stroke-width="0.5" stroke="#000000" stroke-opacity="0.25882" stroke-linecap="butt" stroke-linejoin="round" stroke-dasharray="6 3" stroke-dashoffset="0"/>
  <path d="M 50 362.97 L 1230 362.97" fill="none" stroke-width="0.5" stroke="#000000" stroke-opacity="0.25882" stroke-linecap="butt" stroke-linejoin="round" stroke-dasharray="6 3" stroke-dashoffset="0"/>
  <path d="M 50 336.96 L 1230 336.96" fill="none" stroke-width="0.5" stroke="#000000" stroke-opacity="0.25882" stroke-linecap="butt" stroke-linejoin="round" stroke-dasharray="6 3" stroke-dashoffset="0"/>
  <path d="M 50 310.96 L 1230 310.96" fill="none" stroke-width="0.5" stroke="#000000" stroke-opacity="0.25882" stroke-linecap="butt" stroke-linejoin="round" stroke-dasharray="6 3" stroke-dashoffset="0"/>
  <path d="M 50 284.95 L 1230 284.95" fill="none" stroke-width="0.5" stroke="#000000" stroke-opacity="0.25882" stroke-linecap="butt" stroke-linejoin="round" stroke-dasharray="6 3" stroke-dashoffset="0"/>
  <path d="M 50 258.94 L 1230 258.94" fill="none" stroke-width="0.5" stroke="#000000" stroke-opacity="0.25882" stroke-linecap="butt" stroke-linejoin="round" stroke-dasharray="6 3" stroke-dashoffset="0"/>
  <path d="M 50 232.93 L 1230 232.93" fill="none" stroke-width="0.5" stroke="#000000" stroke-opacity="0.25882" stroke-linecap="butt" stroke-linejoin="round" stroke-dasharray="6 3" stroke-dashoffset="0"/>
  <path d="M 50 206.92 L 1230 206.92" fill="none" stroke-width="0.5" stroke="#000000" stroke-opacity="0.25882" stroke-linecap="butt" stroke-linejoin="round" stroke-dasharray="6 3" stroke-dashoffset="0"/>
  <path d="M 50 180.91 L 1230 180.91" fill="none" stroke-width="0.5" stroke="#000000" stroke-opacity="0.25882" stroke-linecap="butt" stroke-linejoin="round" stroke-dasharray="6 3" stroke-dashoffset="0"/>
  <path d="M 50 154.9 L 1230 154.9" fill="none" stroke-width="0.5" stroke="#000000" stroke-opacity="0.25882" stroke-linecap="butt" stroke-linejoin="round" stroke-dasharray="6 3" stroke-dashoffset="0"/>
  <path d="M 50 128.89 L 1230 128.89" fill="none" stroke-width="0.5" stroke="#000000" stroke-opacity="0.25882" stroke-linecap="butt" stroke-linejoin="round" stroke-dasharray="6 3" stroke-dashoffset="0"/>
  <path d="M 50 102.88 L 1230 102.88" fill="none" stroke-width="0.5" stroke="#000000" stroke-opacity="0.25882" stroke-linecap="butt" stroke-linejoin="round" stroke-dasharray="6 3" stroke-dashoffset="0"/>
  <path d="M 50 76.874 L 1230 76.874" fill="none" stroke-width="0.5" stroke="#000000" stroke-opacity="0.25882" stroke-linecap="butt" stroke-linejoin="round" stroke-dasharray="6 3" stroke-dashoffset="0"/>
  <path d="M 50 50.865 L 1230 50.865" fill="none" stroke-width="0.5" stroke="#000000" stroke-opacity="0.25882" stroke-linecap="butt" stroke-linejoin="round" stroke-dasharray="6 3" stroke-dashoffset="0"/>
  <path d="M 50 24.856 L 1230 24.856" fill="none" stroke-width="0.5" stroke="#000000" stroke-opacity="0.25882" stroke-linecap="butt" stroke-linejoin="round" stroke-dasharray="6 3" stroke-dashoffset="0"/>
  <path d="M 74 33 L 74 88 L 290 88 L 290 33 z" fill="#FFFFFF" fill-opacity="1.0" stroke="none"/>
  <clipPath id="clip-0">
    <path d="M 50 9 L 50 441 L 1230 441 L 1230 9 z"/>
  </clipPath>
  <g clip-path="url(#clip-0)">
    <path d="M 50 241.79L 109 259.27L 143.51 264.76L 168 269.21L 186.99 270.76L 202.51 272.3L 215.63 264.52L 227 265.76L 245.99 266.66L 261.51 267.27L 274.63 267.73L 286 269.13L 304.99 269.22L 320.51 269.3L 333.63 269.1L 345 268.63L 363.99 267.3L 379.51 267.99L 392.63 267.3L 404 267.1L 422.99 266.76L 438.51 262.68L 451.63 265.16L 463 263.39L 481.99 264.19L 497.51 262.51L 510.63 262.48L 522 261.42L 540.99 259.95L 556.51 259.31L 569.63 259.82L 581 258.57L 599.99 259.07L 615.51 258.16L 628.63 257.4L 640 256.89L 658.99 254.52L 674.51 254.85L 687.63 254.79L 699 253.01L 717.99 253.53L 733.51 254.11L 746.63 251.73L 758 251.8L 776.99 251.38L 792.51 250.31L 805.63 249.57L 817 248.95L 835.99 248.01L 851.51 246.94L 864.63 248.8L 876 245.97L 894.99 245.05L 910.51 247.5L 923.63 245.21L 935 245.47L 953.99 241.97L 969.51 243.08L 982.63 242.98L 994 244.28L 1013 241.97L 1028.5 241.17L 1041.6 240.17L 1053 241.42L 1072 238.6L 1087.5 238.79L 1100.6 238.82L 1112 236.67L 1131 237.58L 1146.5 237.48L 1159.6 235.79L 1171 237.3L 1190 236.01L 1205.5 235.57L 1218.6 236.38L 1230 233.12L 1230 237.33L 1218.6 236.88L 1205.5 238.02L 1190 237.26L 1171 238.26L 1159.6 239.76L 1146.5 239.89L 1131 239.8L 1112 240.38L 1100.6 240.9L 1087.5 241.67L 1072 241.64L 1053 241.65L 1041.6 240.94L 1028.5 242.96L 1013 244.17L 994 245.52L 982.63 244.5L 969.51 245.36L 953.99 247.51L 935 245.8L 923.63 246.66L 910.51 247.78L 894.99 247.25L 876 248.62L 864.63 249.03L 851.51 249.72L 835.99 251.52L 817 251.38L 805.63 250.2L 792.51 251.67L 776.99 251.87L 758 253.34L 746.63 253.13L 733.51 255.24L 717.99 254.52L 699 255.64L 687.63 255.59L 674.51 255.12L 658.99 257.73L 640 257.2L 628.63 257.49L 615.51 259.28L 599.99 260.64L 581 259.61L 569.63 259.84L 556.51 261.56L 540.99 262.08L 522 263.52L 510.63 262.83L 497.51 263.59L 481.99 264.22L 463 266.47L 451.63 266.4L 438.51 269.93L 422.99 266.77L 404 267.57L 392.63 268.19L 379.51 268.34L 363.99 270.62L 345 269.5L 333.63 269.5L 320.51 269.35L 304.99 269.33L 286 269.38L 274.63 268.41L 261.51 267.36L 245.99 266.66L 227 265.83L 215.63 264.56L 202.51 272.41L 186.99 271.67L 168 270.62L 143.51 267.99L 109 259.39L 50 245.03" fill="#007AFF" fill-opacity="0.30196078431372547" stroke="none"/>
    <path d="M 50 290.92L 109 313.91L 143.51 327.82L 168 335.91L 186.99 343.84L 202.51 346.94L 215.63 353.72L 227 357.02L 245.99 363.56L 261.51 368.85L 274.63 372.43L 286 373.97L 304.99 380.16L 320.51 382.36L 333.63 383.68L 345 374.21L 363.99 376.7L 379.51 376.51L 392.63 378.95L 404 379.79L 422.99 378.41L 438.51 369.31L 451.63 375.79L 463 375.19L 481.99 352.03L 497.51 368L 510.63 363.48L 522 353.33L 540.99 347.55L 556.51 348.67L 569.63 344.18L 581 340.01L 599.99 323.26L 615.51 326.41L 628.63 321.1L 640 313.55L 658.99 301.47L 674.51 294.78L 687.63 291.33L 699 288.34L 717.99 280.74L 733.51 274.09L 746.63 267.28L 758 264.12L 776.99 255.59L 792.51 248.75L 805.63 242.81L 817 237.8L 835.99 228.49L 851.51 221.36L 864.63 214.9L 876 210.55L 894.99 198.86L 910.51 188.58L 923.63 182.25L 935 175.66L 953.99 166.43L 969.51 159.47L 982.63 151.93L 994 148.13L 1013 139.04L 1028.5 132.22L 1041.6 126L 1053 121.54L 1072 112.9L 1087.5 106.05L 1100.6 99.551L 1112 93.498L 1131 86.809L 1131 86.809L 1112 95.432L 1100.6 100.53L 1087.5 106.26L 1072 113.18L 1053 121.56L 1041.6 126.64L 1028.5 132.26L 1013 139.43L 994 148.19L 982.63 153.55L 969.51 159.58L 953.99 166.48L 935 176.4L 923.63 182.38L 910.51 189.59L 894.99 198.95L 876 211.47L 864.63 216.53L 851.51 222.41L 835.99 229.3L 817 237.82L 805.63 242.85L 792.51 248.75L 776.99 255.62L 758 264.18L 746.63 267.93L 733.51 274.71L 717.99 280.75L 699 290.79L 687.63 293.93L 674.51 301.17L 658.99 307.07L 640 315.71L 628.63 321.12L 615.51 326.67L 599.99 332.78L 581 340.13L 569.63 344.2L 556.51 348.73L 540.99 353.69L 522 360.14L 510.63 363.8L 497.51 368.25L 481.99 372.28L 463 377.4L 451.63 376.74L 438.51 378.46L 422.99 378.48L 404 379.88L 392.63 379.1L 379.51 378.46L 363.99 378.93L 345 375.33L 333.63 384.86L 320.51 382.89L 304.99 380.46L 286 378.78L 274.63 372.78L 261.51 368.85L 245.99 363.56L 227 357.02L 215.63 353.72L 202.51 349.04L 186.99 344.76L 168 335.91L 143.51 327.82L 109 313.91L 50 290.92" fill="#FF3B30" fill-opacity="0.30196078431372547" stroke="none"/>
    <path d="M 50 244.16L 109 259.36L 143.51 267.12L 168 270.25L 186.99 271.43L 202.51 272.39L 215.63 264.55L 227 265.81L 245.99 266.66L 261.51 267.34L 274.63 268.23L 286 269.32L 304.99 269.3L 320.51 269.34L 333.63 269.39L 345 269.27L 363.99 269.73L 379.51 268.25L 392.63 267.96L 404 267.45L 422.99 266.76L 438.51 267.9L 451.63 266.07L 463 265.64L 481.99 264.21L 497.51 263.3L 510.63 262.74L 522 262.96L 540.99 261.51L 556.51 260.96L 569.63 259.83L 581 259.33L 599.99 260.22L 615.51 258.98L 628.63 257.47L 640 257.12L 658.99 256.86L 674.51 255.05L 687.63 255.38L 699 254.94L 717.99 254.26L 733.51 254.94L 746.63 252.76L 758 252.93L 776.99 251.74L 792.51 251.31L 805.63 250.04L 817 250.73L 835.99 250.57L 851.51 248.97L 864.63 248.97L 876 247.91L 894.99 246.66L 910.51 247.7L 923.63 246.28L 935 245.71L 953.99 245.98L 969.51 244.75L 982.63 244.09L 994 245.19L 1013 243.58L 1028.5 242.48L 1041.6 240.74L 1053 241.59L 1072 240.82L 1087.5 240.9L 1100.6 240.34L 1112 239.37L 1131 239.21L 1146.5 239.24L 1159.6 238.68L 1171 238.01L 1190 236.93L 1205.5 237.37L 1218.6 236.75L 1230 236.18" fill="none" stroke-width="4" stroke="#007AFF" stroke-opacity="1" stroke-linecap="round" stroke-linejoin="round"/>
    <path d="M 50 290.92L 109 313.91L 143.51 327.82L 168 335.91L 186.99 344.51L 202.51 348.48L 215.63 353.72L 227 357.02L 245.99 363.56L 261.51 368.85L 274.63 372.68L 286 377.46L 304.99 380.38L 320.51 382.75L 333.63 384.55L 345 375.04L 363.99 378.33L 379.51 377.94L 392.63 379.06L 404 379.86L 422.99 378.46L 438.51 375.84L 451.63 376.49L 463 376.81L 481.99 365.85L 497.51 368.18L 510.63 363.72L 522 358.24L 540.99 351.99L 556.51 348.71L 569.63 344.19L 581 340.1L 599.99 330.05L 615.51 326.6L 628.63 321.12L 640 315.13L 658.99 305.52L 674.51 299.4L 687.63 293.23L 699 290.13L 717.99 280.74L 733.51 274.55L 746.63 267.76L 758 264.16L 776.99 255.61L 792.51 248.75L 805.63 242.84L 817 237.81L 835.99 229.09L 851.51 222.13L 864.63 216.1L 876 211.22L 894.99 198.92L 910.51 189.33L 923.63 182.34L 935 176.2L 953.99 166.47L 969.51 159.55L 982.63 153.12L 994 148.18L 1013 139.33L 1028.5 132.25L 1041.6 126.47L 1053 121.55L 1072 113.11L 1087.5 106.21L 1100.6 100.27L 1112 94.917L 1131 86.809" fill="none" stroke-width="4" stroke="#FF3B30" stroke-opacity="1" stroke-linecap="round" stroke-linejoin="round"/>
    <path d="M 50 244.16L 109 259.36L 143.51 267.12L 168 270.25L 186.99 271.43L 202.51 272.39L 215.63 264.55L 227 265.81L 245.99 266.66L 261.51 267.34L 274.63 268.23L 286 269.32L 304.99 269.3L 320.51 269.34L 333.63 269.39L 345 269.27L 363.99 269.73L 379.51 268.25L 392.63 267.96L 404 267.45L 422.99 266.76L 438.51 267.9L 451.63 266.07L 463 265.64L 481.99 264.21L 497.51 263.3L 510.63 262.74L 522 262.96L 540.99 261.51L 556.51 260.96L 569.63 259.83L 581 259.33L 599.99 260.22L 615.51 258.98L 628.63 257.47L 640 257.12L 658.99 256.86L 674.51 255.05L 687.63 255.38L 699 254.94L 717.99 254.26L 733.51 254.94L 746.63 252.76L 758 252.93L 776.99 251.74L 792.51 251.31L 805.63 250.04L 817 250.73L 835.99 250.57L 851.51 248.97L 864.63 248.97L 876 247.91L 894.99 246.66L 910.51 247.7L 923.63 246.28L 935 245.71L 953.99 245.98L 969.51 244.75L 982.63 244.09L 994 245.19L 1013 243.58L 1028.5 242.48L 1041.6 240.74L 1053 241.59L 1072 240.82L 1087.5 240.9L 1100.6 240.34L 1112 239.37L 1131 239.21L 1146.5 239.24L 1159.6 238.68L 1171 238.01L 1190 236.93L 1205.5 237.37L 1218.6 236.75L 1230 236.18" fill="none" stroke-width="0.5" stroke="#000000" stroke-opacity="0.30196" stroke-linecap="round" stroke-linejoin="round"/>
    <path d="M 50 290.92L 109 313.91L 143.51 327.82L 168 335.91L 186.99 344.51L 202.51 348.48L 215.63 353.72L 227 357.02L 245.99 363.56L 261.51 368.85L 274.63 372.68L 286 377.46L 304.99 380.38L 320.51 382.75L 333.63 384.55L 345 375.04L 363.99 378.33L 379.51 377.94L 392.63 379.06L 404 379.86L 422.99 378.46L 438.51 375.84L 451.63 376.49L 463 376.81L 481.99 365.85L 497.51 368.18L 510.63 363.72L 522 358.24L 540.99 351.99L 556.51 348.71L 569.63 344.19L 581 340.1L 599.99 330.05L 615.51 326.6L 628.63 321.12L 640 315.13L 658.99 305.52L 674.51 299.4L 687.63 293.23L 699 290.13L 717.99 280.74L 733.51 274.55L 746.63 267.76L 758 264.16L 776.99 255.61L 792.51 248.75L 805.63 242.84L 817 237.81L 835.99 229.09L 851.51 222.13L 864.63 216.1L 876 211.22L 894.99 198.92L 910.51 189.33L 923.63 182.34L 935 176.2L 953.99 166.47L 969.51 159.55L 982.63 153.12L 994 148.18L 1013 139.33L 1028.5 132.25L 1041.6 126.47L 1053 121.55L 1072 113.11L 1087.5 106.21L 1100.6 100.27L 1112 94.917L 1131 86.809" fill="none" stroke-width="0.5" stroke="#000000" stroke-opacity="0.30196" stroke-linecap="round" stroke-linejoin="round"/>
  </g>
  <path d="M 74 33 L 74 88 L 290 88 L 290 33 z" fill="#FFFFFF" fill-opacity="0.7019607843137254" stroke-width="0.5" stroke="#000000" stroke-opacity="1" stroke-linecap="round" stroke-linejoin="round"/>
  <path d="M 88 52 L 108 52" fill="none" stroke-width="4" stroke="#FF3B30" stroke-opacity="1" stroke-linecap="round" stroke-linejoin="round"/>
  <path d="M 88 52 L 108 52" fill="none" stroke-width="0.5" stroke="#000000" stroke-opacity="0.30196" stroke-linecap="round" stroke-linejoin="round"/>
  <text x="119" y="56.17" font-family="Menlo" font-size="12" font-weight="normal" font-style="normal" fill="#000000" fill-opacity="1">Array&lt;Int&gt; kalimba</text>
  <path d="M 88 69 L 108 69" fill="none" stroke-width="4" stroke="#007AFF" stroke-opacity="1" stroke-linecap="round" stroke-linejoin="round"/>
  <path d="M 88 69 L 108 69" fill="none" stroke-width="0.5" stroke="#000000" stroke-opacity="0.30196" stroke-linecap="round" stroke-linejoin="round"/>
  <text x="119" y="73.17" font-family="Menlo" font-size="12" font-weight="normal" font-style="normal" fill="#000000" fill-opacity="1">TreeArray&lt;Int&gt; kalimba</text>
  <path d="M 50 9 L 50 441 L 1230 441 L 1230 9 z" fill="none" stroke-width="0.5" stroke="#000000" stroke-opacity="1" stroke-linecap="round" stroke-linejoin="round"/>
</svg>
