<!DOCTYPE svg PUBLIC "-//W3C//DTD SVG 1.1//EN" "http://www.w3.org/Graphics/SVG/1.1/DTD/svg11.dtd">
<svg width="1280.0px" height="480.0px" viewBox="0.0 0.0 1280.0 480.0" xmlns="http://www.w3.org/2000/svg" xmlns:xlink="http://www.w3.org/1999/xlink" version="1.1">
  <path d="M 0 0 L 0 480 L 1280 480 L 1280 0 z" fill="#FFFFFF" fill-opacity="1.0" stroke="none"/>
  <text x="50" y="468.7" font-family="Helvetica" font-size="10" font-weight="normal" font-style="normal" fill="#000000" fill-opacity="1">Average per-element processing time over input size (bands: min, mean, mean + 2stddev)</text>
  <a xlink:href="https://github.com/apple/swift-collections-benchmark"><text x="1107" y="468.7" font-family="Helvetica" font-size="10" font-weight="normal" font-style="normal" fill="#000000" fill-opacity="1">swift-collections-benchmark</text></a>
  <path d="M 50 9 L 50 441" fill="none" stroke-width="0.75" stroke="#000000" stroke-opacity="0.49804" stroke-linecap="butt" stroke-linejoin="round"/>
  <text x="47" y="453.7" font-family="Helvetica" font-size="10" font-weight="normal" font-style="normal" fill="#000000" fill-opacity="1">1</text>
  <path d="M 109 9 L 109 441" fill="none" stroke-width="0.75" stroke="#000000" stroke-opacity="0.49804" stroke-linecap="butt" stroke-linejoin="round"/>
  <text x="106" y="453.7" font-family="Helvetica" font-size="10" font-weight="normal" font-style="normal" fill="#000000" fill-opacity="1">2</text>
  <path d="M 168 9 L 168 441" fill="none" stroke-width="0.75" stroke="#000000" stroke-opacity="0.49804" stroke-linecap="butt" stroke-linejoin="round"/>
  <text x="165" y="453.7" font-family="Helvetica" font-size="10" font-weight="normal" font-style="normal" fill="#000000" fill-opacity="1">4</text>
  <path d="M 227 9 L 227 441" fill="none" stroke-width="0.75" stroke="#000000" stroke-opacity="0.49804" stroke-linecap="butt" stroke-linejoin="round"/>
  <text x="224" y="453.7" font-family="Helvetica" font-size="10" font-weight="normal" font-style="normal" fill="#000000" fill-opacity="1">8</text>
  <path d="M 286 9 L 286 441" fill="none" stroke-width="0.75" stroke="#000000" stroke-opacity="0.49804" stroke-linecap="butt" stroke-linejoin="round"/>
  <text x="280" y="453.7" font-family="Helvetica" font-size="10" font-weight="normal" font-style="normal" fill="#000000" fill-opacity="1">16</text>
  <path d="M 345 9 L 345 441" fill="none" stroke-width="0.75" stroke="#000000" stroke-opacity="0.49804" stroke-linecap="butt" stroke-linejoin="round"/>
  <text x="339" y="453.7" font-family="Helvetica" font-size="10" font-weight="normal" font-style="normal" fill="#000000" fill-opacity="1">32</text>
  <path d="M 404 9 L 404 441" fill="none" stroke-width="0.75" stroke="#000000" stroke-opacity="0.49804" stroke-linecap="butt" stroke-linejoin="round"/>
  <text x="398" y="453.7" font-family="Helvetica" font-size="10" font-weight="normal" font-style="normal" fill="#000000" fill-opacity="1">64</text>
  <path d="M 463 9 L 463 441" fill="none" stroke-width="0.75" stroke="#000000" stroke-opacity="0.49804" stroke-linecap="butt" stroke-linejoin="round"/>
  <text x="454.5" y="453.7" font-family="Helvetica" font-size="10" font-weight="normal" font-style="normal" fill="#000000" fill-opacity="1">128</text>
  <path d="M 522 9 L 522 441" fill="none" stroke-width="0.75" stroke="#000000" stroke-opacity="0.49804" stroke-linecap="butt" stroke-linejoin="round"/>
  <text x="513.5" y="453.7" font-family="Helvetica" font-size="10" font-weight="normal" font-style="normal" fill="#000000" fill-opacity="1">256</text>
  <path d="M 581 9 L 581 441" fill="none" stroke-width="0.75" stroke="#000000" stroke-opacity="0.49804" stroke-linecap="butt" stroke-linejoin="round"/>
  <text x="572.5" y="453.7" font-family="Helvetica" font-size="10" font-weight="normal" font-style="normal" fill="#000000" fill-opacity="1">512</text>
  <path d="M 640 9 L 640 441" fill="none" stroke-width="0.75" stroke="#000000" stroke-opacity="0.49804" stroke-linecap="butt" stroke-linejoin="round"/>
  <text x="634.5" y="453.7" font-family="Helvetica" font-size="10" font-weight="normal" font-style="normal" fill="#000000" fill-opacity="1">1k</text>
  <path d="M 699 9 L 699 441" fill="none" stroke-width="0.75" stroke="#000000" stroke-opacity="0.49804" stroke-linecap="butt" stroke-linejoin="round"/>
  <text x="693.5" y="453.7" font-family="Helvetica" font-size="10" font-weight="normal" font-style="normal" fill="#000000" fill-opacity="1">2k</text>
  <path d="M 758 9 L 758 441" fill="none" stroke-width="0.75" stroke="#000000" stroke-opacity="0.49804" stroke-linecap="butt" stroke-linejoin="round"/>
  <text x="752.5" y="453.7" font-family="Helvetica" font-size="10" font-weight="normal" font-style="normal" fill="#000000" fill-opacity="1">4k</text>
  <path d="M 817 9 L 817 441" fill="none" stroke-width="0.75" stroke="#000000" stroke-opacity="0.49804" stroke-linecap="butt" stroke-linejoin="round"/>
  <text x="811.5" y="453.7" font-family="Helvetica" font-size="10" font-weight="normal" font-style="normal" fill="#000000" fill-opacity="1">8k</text>
  <path d="M 876 9 L 876 441" fill="none" stroke-width="0.75" stroke="#000000" stroke-opacity="0.49804" stroke-linecap="butt" stroke-linejoin="round"/>
  <text x="867.5" y="453.7" font-family="Helvetica" font-size="10" font-weight="normal" font-style="normal" fill="#000000" fill-opacity="1">16k</text>
  <path d="M 935 9 L 935 441" fill="none" stroke-width="0.75" stroke="#000000" stroke-opacity="0.49804" stroke-linecap="butt" stroke-linejoin="round"/>
  <text x="926.5" y="453.7" font-family="Helvetica" font-size="10" font-weight="normal" font-style="normal" fill="#000000" fill-opacity="1">32k</text>
  <path d="M 994 9 L 994 441" fill="none" stroke-width="0.75" stroke="#000000" stroke-opacity="0.49804" stroke-linecap="butt" stroke-linejoin="round"/>
  <text x="985.5" y="453.7" font-family="Helvetica" font-size="10" font-weight="normal" font-style="normal" fill="#000000" fill-opacity="1">64k</text>
  <path d="M 1053 9 L 1053 441" fill="none" stroke-width="0.75" stroke="#000000" stroke-opacity="0.49804" stroke-linecap="butt" stroke-linejoin="round"/>
  <text x="1042" y="453.7" font-family="Helvetica" font-size="10" font-weight="normal" font-style="normal" fill="#000000" fill-opacity="1">128k</text>
  <path d="M 1112 9 L 1112 441" fill="none" stroke-width="0.75" stroke="#000000" stroke-opacity="0.49804" stroke-linecap="butt" stroke-linejoin="round"/>
  <text x="1101" y="453.7" font-family="Helvetica" font-size="10" font-weight="normal" font-style="normal" fill="#000000" fill-opacity="1">256k</text>
  <path d="M 1171 9 L 1171 441" fill="none" stroke-width="0.75" stroke="#000000" stroke-opacity="0.49804" stroke-linecap="butt" stroke-linejoin="round"/>
  <text x="1160" y="453.7" font-family="Helvetica" font-size="10" font-weight="normal" font-style="normal" fill="#000000" fill-opacity="1">512k</text>
  <path d="M 1230 9 L 1230 441" fill="none" stroke-width="0.75" stroke="#000000" stroke-opacity="0.49804" stroke-linecap="butt" stroke-linejoin="round"/>
  <text x="1223" y="453.7" font-family="Helvetica" font-size="10" font-weight="normal" font-style="normal" fill="#000000" fill-opacity="1">1M</text>
  <path d="M 50 441 L 1230 441" fill="none" stroke-width="0.75" stroke="#000000" stroke-opacity="0.49804" stroke-linecap="butt" stroke-linejoin="round"/>
  <text x="27" y="442.7" font-family="Helvetica" font-size="10" font-weight="normal" font-style="normal" fill="#000000" fill-opacity="1">1 ns</text>
  <text x="1236" y="442.7" font-family="Helvetica" font-size="10" font-weight="normal" font-style="normal" fill="#000000" fill-opacity="1">1 ns</text>
  <path d="M 50 354.6 L 1230 354.6" fill="none" stroke-width="0.75" stroke="#000000" stroke-opacity="0.49804" stroke-linecap="butt" stroke-linejoin="round"/>
  <text x="21" y="356.3" font-family="Helvetica" font-size="10" font-weight="normal" font-style="normal" fill="#000000" fill-opacity="1">10 ns</text>
  <text x="1236" y="356.3" font-family="Helvetica" font-size="10" font-weight="normal" font-style="normal" fill="#000000" fill-opacity="1">10 ns</text>
  <path d="M 50 268.2 L 1230 268.2" fill="none" stroke-width="0.75" stroke="#000000" stroke-opacity="0.49804" stroke-linecap="butt" stroke-linejoin="round"/>
  <text x="16" y="269.9" font-family="Helvetica" font-size="10" font-weight="normal" font-style="normal" fill="#000000" fill-opacity="1">100 ns</text>
  <text x="1236" y="269.9" font-family="Helvetica" font-size="10" font-weight="normal" font-style="normal" fill="#000000" fill-opacity="1">100 ns</text>
  <path d="M 50 181.8 L 1230 181.8" fill="none" stroke-width="0.75" stroke="#000000" stroke-opacity="0.49804" stroke-linecap="butt" stroke-linejoin="round"/>
  <text x="26" y="183.5" font-family="Helvetica" font-size="10" font-weight="normal" font-style="normal" fill="#000000" fill-opacity="1">1 µs</text>
  <text x="1236" y="183.5" font-family="Helvetica" font-size="10" font-weight="normal" font-style="normal" fill="#000000" fill-opacity="1">1 µs</text>
  <path d="M 50 95.4 L 1230 95.4" fill="none" stroke-width="0.75" stroke="#000000" stroke-opacity="0.49804" stroke-linecap="butt" stroke-linejoin="round"/>
  <text x="21" y="97.1" font-family="Helvetica" font-size="10" font-weight="normal" font-style="normal" fill="#000000" fill-opacity="1">10 µs</text>
  <text x="1236" y="97.1" font-family="Helvetica" font-size="10" font-weight="normal" font-style="normal" fill="#000000" fill-opacity="1">10 µs</text>
  <path d="M 50 9 L 1230 9" fill="none" stroke-width="0.75" stroke="#000000" stroke-opacity="0.49804" stroke-linecap="butt" stroke-linejoin="round"/>
  <text x="15" y="10.7" font-family="Helvetica" font-size="10" font-weight="normal" font-style="normal" fill="#000000" fill-opacity="1">100 µs</text>
  <text x="1236" y="10.7" font-family="Helvetica" font-size="10" font-weight="normal" font-style="normal" fill="#000000" fill-opacity="1">100 µs</text>
  <path d="M 50 414.99 L 1230 414.99" fill="none" stroke-width="0.5" stroke="#000000" stroke-opacity="0.25882" stroke-linecap="butt" stroke-linejoin="round" stroke-dasharray="6 3" stroke-dashoffset="0"/>
  <path d="M 50 388.98 L 1230 388.98" fill="none" stroke-width="0.5" stroke="#000000" stroke-opacity="0.25882" stroke-linecap="butt" stroke-linejoin="round" stroke-dasharray="6 3" stroke-dashoffset="0"/>
  <path d="M 50 362.97 L 1230 362.97" fill="none" stroke-width="0.5" stroke="#000000" stroke-opacity="0.25882" stroke-linecap="butt" stroke-linejoin="round" stroke-dasharray="6 3" stroke-dashoffset="0"/>
  <path d="M 50 336.96 L 1230 336.96" fill="none" stroke-width="0.5" stroke="#000000" stroke-opacity="0.25882" stroke-linecap="butt" stroke-linejoin="round" stroke-dasharray="6 3" stroke-dashoffset="0"/>
  <path d="M 50 310.96 L 1230 310.96" fill="none" stroke-width="0.5" stroke="#000000" stroke-opacity="0.25882" stroke-linecap="butt" stroke-linejoin="round" stroke-dasharray="6 3" stroke-dashoffset="0"/>
  <path d="M 50 284.95 L 1230 284.95" fill="none" stroke-width="0.5" stroke="#000000" stroke-opacity="0.25882" stroke-linecap="butt" stroke-linejoin="round" stroke-dasharray="6 3" stroke-dashoffset="0"/>
  <path d="M 50 258.94 L 1230 258.94" fill="none" stroke-width="0.5" stroke="#000000" stroke-opacity="0.25882" stroke-linecap="butt" stroke-linejoin="round" stroke-dasharray="6 3" stroke-dashoffset="0"/>
  <path d="M 50 232.93 L 1230 232.93" fill="none" stroke-width="0.5" stroke="#000000" stroke-opacity="0.25882" stroke-linecap="butt" stroke-linejoin="round" stroke-dasharray="6 3" stroke-dashoffset="0"/>
  <path d="M 50 206.92 L 1230 206.92" fill="none" stroke-width="0.5" stroke="#000000" stroke-opacity="0.25882" stroke-linecap="butt" stroke-linejoin="round" stroke-dasharray="6 3" stroke-dashoffset="0"/>
  <path d="M 50 180.91 L 1230 180.91" fill="none" stroke-width="0.5" stroke="#000000" stroke-opacity="0.25882" stroke-linecap="butt" stroke-linejoin="round" stroke-dasharray="6 3" stroke-dashoffset="0"/>
  <path d="M 50 154.9 L 1230 154.9" fill="none" stroke-width="0.5" stroke="#000000" stroke-opacity="0.25882" stroke-linecap="butt" stroke-linejoin="round" stroke-dasharray="6 3" stroke-dashoffset="0"/>
  <path d="M 50 128.89 L 1230 128.89" fill="none" stroke-width="0.5" stroke="#000000" stroke-opacity="0.25882" stroke-linecap="butt" stroke-linejoin="round" stroke-dasharray="6 3" stroke-dashoffset="0"/>
  <path d="M 50 102.88 L 1230 102.88" fill="none" stroke-width="0.5" stroke="#000000" stroke-opacity="0.25882" stroke-linecap="butt" stroke-linejoin="round" stroke-dasharray="6 3" stroke-dashoffset="0"/>
  <path d="M 50 76.874 L 1230 76.874" fill="none" stroke-width="0.5" stroke="#000000" stroke-opacity="0.25882" stroke-linecap="butt" stroke-linejoin="round" stroke-dasharray="6 3" stroke-dashoffset="0"/>
  <path d="M 50 50.865 L 1230 50.865" fill="none" stroke-width="0.5" stroke="#000000" stroke-opacity="0.25882" stroke-linecap="butt" stroke-linejoin="round" stroke-dasharray="6 3" stroke-dashoffset="0"/>
  <path d="M 50 24.856 L 1230 24.856" fill="none" stroke-width="0.5" stroke="#000000" stroke-opacity="0.25882" stroke-linecap="butt" stroke-linejoin="round" stroke-dasharray="6 3" stroke-dashoffset="0"/>
  <path d="M 74 33 L 74 88 L 290 88 L 290 33 z" fill="#FFFFFF" fill-opacity="1.0" stroke="none"/>
  <clipPath id="clip-0">
    <path d="M 50 9 L 50 441 L 1230 441 L 1230 9 z"/>
  </clipPath>
  <g clip-path="url(#clip-0)">
    <path d="M 50 242.33L 109 257.83L 143.51 265.44L 168 269.94L 186.99 270.51L 202.51 270.61L 215.63 263.81L 227 266.01L 245.99 266.44L 261.51 267.84L 274.63 268.18L 286 269.7L 304.99 269.69L 320.51 269.9L 333.63 269.91L 345 268.74L 363.99 268.62L 379.51 268.84L 392.63 268.05L 404 267.73L 422.99 266.33L 438.51 265.69L 451.63 266.15L 463 265.34L 481.99 264.56L 497.51 262.93L 510.63 263.45L 522 262.57L 540.99 260.1L 556.51 260.44L 569.63 258.81L 581 256.87L 599.99 256.81L 615.51 257.55L 628.63 254.66L 640 255.74L 658.99 253.87L 674.51 254.84L 687.63 253.16L 699 253.59L 717.99 252.66L 733.51 253.94L 746.63 252.31L 758 250.85L 776.99 250.68L 792.51 250.16L 805.63 250.51L 817 250.41L 835.99 243.53L 851.51 247.47L 864.63 246.93L 876 242.82L 894.99 240.96L 910.51 240.78L 923.63 246.58L 935 243.79L 953.99 242.25L 969.51 243.82L 982.63 240L 994 242.99L 1013 239.69L 1028.5 238.97L 1041.6 236.46L 1053 239.71L 1072 241.31L 1087.5 238.98L 1100.6 238.33L 1112 237.8L 1131 236.23L 1146.5 237.03L 1159.6 237.41L 1171 235.75L 1190 235.28L 1205.5 234.73L 1218.6 235.3L 1230 234.85L 1230 236.64L 1218.6 237.09L 1205.5 237.42L 1190 236.84L 1171 237.45L 1159.6 237.88L 1146.5 238.56L 1131 239.84L 1112 239.98L 1100.6 240.1L 1087.5 240.15L 1072 241.88L 1053 241.15L 1041.6 241.42L 1028.5 242.49L 1013 242.72L 994 243.41L 982.63 244.94L 969.51 244.55L 953.99 245.98L 935 246.62L 923.63 247.23L 910.51 247.32L 894.99 248.71L 876 245.94L 864.63 247L 851.51 249.04L 835.99 251.07L 817 251.7L 805.63 251.01L 792.51 253.1L 776.99 251.93L 758 252.88L 746.63 253.24L 733.51 254.13L 717.99 255.03L 699 254.35L 687.63 258.08L 674.51 255.39L 658.99 257.63L 640 257.97L 628.63 259.9L 615.51 257.78L 599.99 259.28L 581 262.35L 569.63 261.05L 556.51 260.59L 540.99 261.67L 522 262.81L 510.63 263.52L 497.51 263.77L 481.99 264.7L 463 265.49L 451.63 266.4L 438.51 266.76L 422.99 268.01L 404 268.35L 392.63 268.37L 379.51 269.11L 363.99 269.39L 345 270.62L 333.63 269.98L 320.51 270.03L 304.99 270.17L 286 269.78L 274.63 268.63L 261.51 267.91L 245.99 267.02L 227 266.37L 215.63 264.5L 202.51 273.66L 186.99 271.67L 168 270.41L 143.51 267.73L 109 260.91L 50 243.71" fill="#007AFF" fill-opacity="0.30196078431372547" stroke="none"/>
    <path d="M 50 291.2L 109 313.91L 143.51 327.82L 168 335.91L 186.99 344.76L 202.51 348.84L 215.63 352.93L 227 357.02L 245.99 363.19L 261.51 368.85L 274.63 372.59L 286 376.19L 304.99 380.14L 320.51 382.23L 333.63 381.85L 345 376.62L 363.99 374.82L 379.51 378.75L 392.63 379.41L 404 378.18L 422.99 378.52L 438.51 377.78L 451.63 376.11L 463 377.23L 481.99 372.16L 497.51 368L 510.63 363.44L 522 360.02L 540.99 353.27L 556.51 348.59L 569.63 344.11L 581 337.76L 599.99 331.51L 615.51 317.18L 628.63 312.58L 640 315.44L 658.99 306.38L 674.51 296.76L 687.63 288.06L 699 287.29L 717.99 279.73L 733.51 272.8L 746.63 267.87L 758 264.16L 776.99 254.57L 792.51 248.67L 805.63 241.12L 817 237.72L 835.99 228.4L 851.51 221.18L 864.63 214.41L 876 209.67L 894.99 198.88L 910.51 187.97L 923.63 182.24L 935 174.94L 953.99 164.85L 969.51 157.64L 982.63 152.28L 994 147.16L 1013 138.95L 1028.5 131.39L 1041.6 126.12L 1053 121.38L 1072 112.65L 1087.5 105.63L 1100.6 99.907L 1112 94.699L 1112 95.019L 1100.6 100.36L 1087.5 105.98L 1072 113.14L 1053 121.77L 1041.6 126.52L 1028.5 132.72L 1013 139.57L 994 147.96L 982.63 153.15L 969.51 158.74L 953.99 166.22L 935 176.43L 923.63 182.32L 910.51 189.54L 894.99 199.19L 876 211.39L 864.63 216.49L 851.51 222.31L 835.99 229.12L 817 237.81L 805.63 242.79L 792.51 248.73L 776.99 255.59L 758 264.18L 746.63 268.01L 733.51 273.81L 717.99 281.01L 699 288.98L 687.63 295.93L 674.51 297.53L 658.99 308.38L 640 316.29L 628.63 316.6L 615.51 324.71L 599.99 332.61L 581 340.28L 569.63 344.13L 556.51 348.73L 540.99 353.86L 522 360.02L 510.63 363.8L 497.51 368.18L 481.99 372.46L 463 377.45L 451.63 377.07L 438.51 378.24L 422.99 379.3L 404 379.79L 392.63 379.62L 379.51 379.84L 363.99 379.14L 345 376.82L 333.63 384.36L 320.51 382.75L 304.99 380.14L 286 376.19L 274.63 372.6L 261.51 368.85L 245.99 363.56L 227 357.02L 215.63 354.6L 202.51 349.27L 186.99 344.76L 168 335.91L 143.51 327.82L 109 313.91L 50 291.2" fill="#FF3B30" fill-opacity="0.30196078431372547" stroke="none"/>
    <path d="M 50 243.34L 109 260.08L 143.51 267.12L 168 270.29L 186.99 271.36L 202.51 272.84L 215.63 264.32L 227 266.28L 245.99 266.86L 261.51 267.9L 274.63 268.51L 286 269.76L 304.99 270.05L 320.51 270L 333.63 269.96L 345 270.12L 363.99 269.19L 379.51 269.04L 392.63 268.28L 404 268.18L 422.99 267.56L 438.51 266.48L 451.63 266.33L 463 265.45L 481.99 264.66L 497.51 263.55L 510.63 263.5L 522 262.75L 540.99 261.25L 556.51 260.55L 569.63 260.45L 581 260.84L 599.99 258.62L 615.51 257.72L 628.63 258.46L 640 257.37L 658.99 256.61L 674.51 255.25L 687.63 256.73L 699 254.15L 717.99 254.39L 733.51 254.08L 746.63 253L 758 252.34L 776.99 251.6L 792.51 252.31L 805.63 250.88L 817 251.36L 835.99 248.95L 851.51 248.62L 864.63 246.99L 876 245.1L 894.99 246.52L 910.51 245.5L 923.63 247.06L 935 245.86L 953.99 244.97L 969.51 244.35L 982.63 243.59L 994 243.3L 1013 241.91L 1028.5 241.54L 1041.6 240.06L 1053 240.77L 1072 241.73L 1087.5 239.84L 1100.6 239.63L 1112 239.4L 1131 238.86L 1146.5 238.15L 1159.6 237.75L 1171 237L 1190 236.42L 1205.5 236.7L 1218.6 236.61L 1230 236.17" fill="none" stroke-width="4" stroke="#007AFF" stroke-opacity="1" stroke-linecap="round" stroke-linejoin="round"/>
    <path d="M 50 291.2L 109 313.91L 143.51 327.82L 168 335.91L 186.99 344.76L 202.51 349.16L 215.63 354.16L 227 357.02L 245.99 363.47L 261.51 368.85L 274.63 372.6L 286 376.19L 304.99 380.14L 320.51 382.62L 333.63 383.69L 345 376.77L 363.99 377.96L 379.51 379.55L 392.63 379.56L 404 379.36L 422.99 379.1L 438.51 378.12L 451.63 376.82L 463 377.39L 481.99 372.38L 497.51 368.13L 510.63 363.71L 522 360.02L 540.99 353.71L 556.51 348.7L 569.63 344.12L 581 339.6L 599.99 332.32L 615.51 322.6L 628.63 315.51L 640 316.06L 658.99 307.84L 674.51 297.33L 687.63 293.71L 699 288.53L 717.99 280.67L 733.51 273.55L 746.63 267.97L 758 264.17L 776.99 255.32L 792.51 248.71L 805.63 242.34L 817 237.79L 835.99 228.93L 851.51 222.01L 864.63 215.94L 876 210.93L 894.99 199.11L 910.51 189.12L 923.63 182.3L 935 176.03L 953.99 165.86L 969.51 158.45L 982.63 152.92L 994 147.75L 1013 139.41L 1028.5 132.37L 1041.6 126.41L 1053 121.67L 1072 113.01L 1087.5 105.89L 1100.6 100.24L 1112 94.935" fill="none" stroke-width="4" stroke="#FF3B30" stroke-opacity="1" stroke-linecap="round" stroke-linejoin="round"/>
    <path d="M 50 243.34L 109 260.08L 143.51 267.12L 168 270.29L 186.99 271.36L 202.51 272.84L 215.63 264.32L 227 266.28L 245.99 266.86L 261.51 267.9L 274.63 268.51L 286 269.76L 304.99 270.05L 320.51 270L 333.63 269.96L 345 270.12L 363.99 269.19L 379.51 269.04L 392.63 268.28L 404 268.18L 422.99 267.56L 438.51 266.48L 451.63 266.33L 463 265.45L 481.99 264.66L 497.51 263.55L 510.63 263.5L 522 262.75L 540.99 261.25L 556.51 260.55L 569.63 260.45L 581 260.84L 599.99 258.62L 615.51 257.72L 628.63 258.46L 640 257.37L 658.99 256.61L 674.51 255.25L 687.63 256.73L 699 254.15L 717.99 254.39L 733.51 254.08L 746.63 253L 758 252.34L 776.99 251.6L 792.51 252.31L 805.63 250.88L 817 251.36L 835.99 248.95L 851.51 248.62L 864.63 246.99L 876 245.1L 894.99 246.52L 910.51 245.5L 923.63 247.06L 935 245.86L 953.99 244.97L 969.51 244.35L 982.63 243.59L 994 243.3L 1013 241.91L 1028.5 241.54L 1041.6 240.06L 1053 240.77L 1072 241.73L 1087.5 239.84L 1100.6 239.63L 1112 239.4L 1131 238.86L 1146.5 238.15L 1159.6 237.75L 1171 237L 1190 236.42L 1205.5 236.7L 1218.6 236.61L 1230 236.17" fill="none" stroke-width="0.5" stroke="#000000" stroke-opacity="0.30196" stroke-linecap="round" stroke-linejoin="round"/>
    <path d="M 50 291.2L 109 313.91L 143.51 327.82L 168 335.91L 186.99 344.76L 202.51 349.16L 215.63 354.16L 227 357.02L 245.99 363.47L 261.51 368.85L 274.63 372.6L 286 376.19L 304.99 380.14L 320.51 382.62L 333.63 383.69L 345 376.77L 363.99 377.96L 379.51 379.55L 392.63 379.56L 404 379.36L 422.99 379.1L 438.51 378.12L 451.63 376.82L 463 377.39L 481.99 372.38L 497.51 368.13L 510.63 363.71L 522 360.02L 540.99 353.71L 556.51 348.7L 569.63 344.12L 581 339.6L 599.99 332.32L 615.51 322.6L 628.63 315.51L 640 316.06L 658.99 307.84L 674.51 297.33L 687.63 293.71L 699 288.53L 717.99 280.67L 733.51 273.55L 746.63 267.97L 758 264.17L 776.99 255.32L 792.51 248.71L 805.63 242.34L 817 237.79L 835.99 228.93L 851.51 222.01L 864.63 215.94L 876 210.93L 894.99 199.11L 910.51 189.12L 923.63 182.3L 935 176.03L 953.99 165.86L 969.51 158.45L 982.63 152.92L 994 147.75L 1013 139.41L 1028.5 132.37L 1041.6 126.41L 1053 121.67L 1072 113.01L 1087.5 105.89L 1100.6 100.24L 1112 94.935" fill="none" stroke-width="0.5" stroke="#000000" stroke-opacity="0.30196" stroke-linecap="round" stroke-linejoin="round"/>
  </g>
  <path d="M 74 33 L 74 88 L 290 88 L 290 33 z" fill="#FFFFFF" fill-opacity="0.7019607843137254" stroke-width="0.5" stroke="#000000" stroke-opacity="1" stroke-linecap="round" stroke-linejoin="round"/>
  <path d="M 88 52 L 108 52" fill="none" stroke-width="4" stroke="#FF3B30" stroke-opacity="1" stroke-linecap="round" stroke-linejoin="round"/>
  <path d="M 88 52 L 108 52" fill="none" stroke-width="0.5" stroke="#000000" stroke-opacity="0.30196" stroke-linecap="round" stroke-linejoin="round"/>
  <text x="119" y="56.17" font-family="Menlo" font-size="12" font-weight="normal" font-style="normal" fill="#000000" fill-opacity="1">Array&lt;Int&gt; kalimba</text>
  <path d="M 88 69 L 108 69" fill="none" stroke-width="4" stroke="#007AFF" stroke-opacity="1" stroke-linecap="round" stroke-linejoin="round"/>
  <path d="M 88 69 L 108 69" fill="none" stroke-width="0.5" stroke="#000000" stroke-opacity="0.30196" stroke-linecap="round" stroke-linejoin="round"/>
  <text x="119" y="73.17" font-family="Menlo" font-size="12" font-weight="normal" font-style="normal" fill="#000000" fill-opacity="1">TreeArray&lt;Int&gt; kalimba</text>
  <path d="M 50 9 L 50 441 L 1230 441 L 1230 9 z" fill="none" stroke-width="0.5" stroke="#000000" stroke-opacity="1" stroke-linecap="round" stroke-linejoin="round"/>
</svg>
