<!DOCTYPE svg PUBLIC "-//W3C//DTD SVG 1.1//EN" "http://www.w3.org/Graphics/SVG/1.1/DTD/svg11.dtd">
<svg width="1280.0px" height="480.0px" viewBox="0.0 0.0 1280.0 480.0" xmlns="http://www.w3.org/2000/svg" xmlns:xlink="http://www.w3.org/1999/xlink" version="1.1">
  <path d="M 0 0 L 0 480 L 1280 480 L 1280 0 z" fill="#FFFFFF" fill-opacity="1.0" stroke="none"/>
  <text x="50" y="468.7" font-family="Helvetica" font-size="10" font-weight="normal" font-style="normal" fill="#000000" fill-opacity="1">Average per-element processing time over input size (bands: min, mean, mean + 2stddev)</text>
  <a xlink:href="https://github.com/apple/swift-collections-benchmark"><text x="1107" y="468.7" font-family="Helvetica" font-size="10" font-weight="normal" font-style="normal" fill="#000000" fill-opacity="1">swift-collections-benchmark</text></a>
  <path d="M 50 9 L 50 441" fill="none" stroke-width="0.75" stroke="#000000" stroke-opacity="0.49804" stroke-linecap="butt" stroke-linejoin="round"/>
  <text x="47" y="453.7" font-family="Helvetica" font-size="10" font-weight="normal" font-style="normal" fill="#000000" fill-opacity="1">1</text>
  <path d="M 109 9 L 109 441" fill="none" stroke-width="0.75" stroke="#000000" stroke-opacity="0.49804" stroke-linecap="butt" stroke-linejoin="round"/>
  <text x="106" y="453.7" font-family="Helvetica" font-size="10" font-weight="normal" font-style="normal" fill="#000000" fill-opacity="1">2</text>
  <path d="M 168 9 L 168 441" fill="none" stroke-width="0.75" stroke="#000000" stroke-opacity="0.49804" stroke-linecap="butt" stroke-linejoin="round"/>
  <text x="165" y="453.7" font-family="Helvetica" font-size="10" font-weight="normal" font-style="normal" fill="#000000" fill-opacity="1">4</text>
  <path d="M 227 9 L 227 441" fill="none" stroke-width="0.75" stroke="#000000" stroke-opacity="0.49804" stroke-linecap="butt" stroke-linejoin="round"/>
  <text x="224" y="453.7" font-family="Helvetica" font-size="10" font-weight="normal" font-style="normal" fill="#000000" fill-opacity="1">8</text>
  <path d="M 286 9 L 286 441" fill="none" stroke-width="0.75" stroke="#000000" stroke-opacity="0.49804" stroke-linecap="butt" stroke-linejoin="round"/>
  <text x="280" y="453.7" font-family="Helvetica" font-size="10" font-weight="normal" font-style="normal" fill="#000000" fill-opacity="1">16</text>
  <path d="M 345 9 L 345 441" fill="none" stroke-width="0.75" stroke="#000000" stroke-opacity="0.49804" stroke-linecap="butt" stroke-linejoin="round"/>
  <text x="339" y="453.7" font-family="Helvetica" font-size="10" font-weight="normal" font-style="normal" fill="#000000" fill-opacity="1">32</text>
  <path d="M 404 9 L 404 441" fill="none" stroke-width="0.75" stroke="#000000" stroke-opacity="0.49804" stroke-linecap="butt" stroke-linejoin="round"/>
  <text x="398" y="453.7" font-family="Helvetica" font-size="10" font-weight="normal" font-style="normal" fill="#000000" fill-opacity="1">64</text>
  <path d="M 463 9 L 463 441" fill="none" stroke-width="0.75" stroke="#000000" stroke-opacity="0.49804" stroke-linecap="butt" stroke-linejoin="round"/>
  <text x="454.5" y="453.7" font-family="Helvetica" font-size="10" font-weight="normal" font-style="normal" fill="#000000" fill-opacity="1">128</text>
  <path d="M 522 9 L 522 441" fill="none" stroke-width="0.75" stroke="#000000" stroke-opacity="0.49804" stroke-linecap="butt" stroke-linejoin="round"/>
  <text x="513.5" y="453.7" font-family="Helvetica" font-size="10" font-weight="normal" font-style="normal" fill="#000000" fill-opacity="1">256</text>
  <path d="M 581 9 L 581 441" fill="none" stroke-width="0.75" stroke="#000000" stroke-opacity="0.49804" stroke-linecap="butt" stroke-linejoin="round"/>
  <text x="572.5" y="453.7" font-family="Helvetica" font-size="10" font-weight="normal" font-style="normal" fill="#000000" fill-opacity="1">512</text>
  <path d="M 640 9 L 640 441" fill="none" stroke-width="0.75" stroke="#000000" stroke-opacity="0.49804" stroke-linecap="butt" stroke-linejoin="round"/>
  <text x="634.5" y="453.7" font-family="Helvetica" font-size="10" font-weight="normal" font-style="normal" fill="#000000" fill-opacity="1">1k</text>
  <path d="M 699 9 L 699 441" fill="none" stroke-width="0.75" stroke="#000000" stroke-opacity="0.49804" stroke-linecap="butt" stroke-linejoin="round"/>
  <text x="693.5" y="453.7" font-family="Helvetica" font-size="10" font-weight="normal" font-style="normal" fill="#000000" fill-opacity="1">2k</text>
  <path d="M 758 9 L 758 441" fill="none" stroke-width="0.75" stroke="#000000" stroke-opacity="0.49804" stroke-linecap="butt" stroke-linejoin="round"/>
  <text x="752.5" y="453.7" font-family="Helvetica" font-size="10" font-weight="normal" font-style="normal" fill="#000000" fill-opacity="1">4k</text>
  <path d="M 817 9 L 817 441" fill="none" stroke-width="0.75" stroke="#000000" stroke-opacity="0.49804" stroke-linecap="butt" stroke-linejoin="round"/>
  <text x="811.5" y="453.7" font-family="Helvetica" font-size="10" font-weight="normal" font-style="normal" fill="#000000" fill-opacity="1">8k</text>
  <path d="M 876 9 L 876 441" fill="none" stroke-width="0.75" stroke="#000000" stroke-opacity="0.49804" stroke-linecap="butt" stroke-linejoin="round"/>
  <text x="867.5" y="453.7" font-family="Helvetica" font-size="10" font-weight="normal" font-style="normal" fill="#000000" fill-opacity="1">16k</text>
  <path d="M 935 9 L 935 441" fill="none" stroke-width="0.75" stroke="#000000" stroke-opacity="0.49804" stroke-linecap="butt" stroke-linejoin="round"/>
  <text x="926.5" y="453.7" font-family="Helvetica" font-size="10" font-weight="normal" font-style="normal" fill="#000000" fill-opacity="1">32k</text>
  <path d="M 994 9 L 994 441" fill="none" stroke-width="0.75" stroke="#000000" stroke-opacity="0.49804" stroke-linecap="butt" stroke-linejoin="round"/>
  <text x="985.5" y="453.7" font-family="Helvetica" font-size="10" font-weight="normal" font-style="normal" fill="#000000" fill-opacity="1">64k</text>
  <path d="M 1053 9 L 1053 441" fill="none" stroke-width="0.75" stroke="#000000" stroke-opacity="0.49804" stroke-linecap="butt" stroke-linejoin="round"/>
  <text x="1042" y="453.7" font-family="Helvetica" font-size="10" font-weight="normal" font-style="normal" fill="#000000" fill-opacity="1">128k</text>
  <path d="M 1112 9 L 1112 441" fill="none" stroke-width="0.75" stroke="#000000" stroke-opacity="0.49804" stroke-linecap="butt" stroke-linejoin="round"/>
  <text x="1101" y="453.7" font-family="Helvetica" font-size="10" font-weight="normal" font-style="normal" fill="#000000" fill-opacity="1">256k</text>
  <path d="M 1171 9 L 1171 441" fill="none" stroke-width="0.75" stroke="#000000" stroke-opacity="0.49804" stroke-linecap="butt" stroke-linejoin="round"/>
  <text x="1160" y="453.7" font-family="Helvetica" font-size="10" font-weight="normal" font-style="normal" fill="#000000" fill-opacity="1">512k</text>
  <path d="M 1230 9 L 1230 441" fill="none" stroke-width="0.75" stroke="#000000" stroke-opacity="0.49804" stroke-linecap="butt" stroke-linejoin="round"/>
  <text x="1223" y="453.7" font-family="Helvetica" font-size="10" font-weight="normal" font-style="normal" fill="#000000" fill-opacity="1">1M</text>
  <path d="M 50 441 L 1230 441" fill="none" stroke-width="0.75" stroke="#000000" stroke-opacity="0.49804" stroke-linecap="butt" stroke-linejoin="round"/>
  <text x="27" y="442.7" font-family="Helvetica" font-size="10" font-weight="normal" font-style="normal" fill="#000000" fill-opacity="1">1 ns</text>
  <text x="1236" y="442.7" font-family="Helvetica" font-size="10" font-weight="normal" font-style="normal" fill="#000000" fill-opacity="1">1 ns</text>
  <path d="M 50 354.6 L 1230 354.6" fill="none" stroke-width="0.75" stroke="#000000" stroke-opacity="0.49804" stroke-linecap="butt" stroke-linejoin="round"/>
  <text x="21" y="356.3" font-family="Helvetica" font-size="10" font-weight="normal" font-style="normal" fill="#000000" fill-opacity="1">10 ns</text>
  <text x="1236" y="356.3" font-family="Helvetica" font-size="10" font-weight="normal" font-style="normal" fill="#000000" fill-opacity="1">10 ns</text>
  <path d="M 50 268.2 L 1230 268.2" fill="none" stroke-width="0.75" stroke="#000000" stroke-opacity="0.49804" stroke-linecap="butt" stroke-linejoin="round"/>
  <text x="16" y="269.9" font-family="Helvetica" font-size="10" font-weight="normal" font-style="normal" fill="#000000" fill-opacity="1">100 ns</text>
  <text x="1236" y="269.9" font-family="Helvetica" font-size="10" font-weight="normal" font-style="normal" fill="#000000" fill-opacity="1">100 ns</text>
  <path d="M 50 181.8 L 1230 181.8" fill="none" stroke-width="0.75" stroke="#000000" stroke-opacity="0.49804" stroke-linecap="butt" stroke-linejoin="round"/>
  <text x="26" y="183.5" font-family="Helvetica" font-size="10" font-weight="normal" font-style="normal" fill="#000000" fill-opacity="1">1 µs</text>
  <text x="1236" y="183.5" font-family="Helvetica" font-size="10" font-weight="normal" font-style="normal" fill="#000000" fill-opacity="1">1 µs</text>
  <path d="M 50 95.4 L 1230 95.4" fill="none" stroke-width="0.75" stroke="#000000" stroke-opacity="0.49804" stroke-linecap="butt" stroke-linejoin="round"/>
  <text x="21" y="97.1" font-family="Helvetica" font-size="10" font-weight="normal" font-style="normal" fill="#000000" fill-opacity="1">10 µs</text>
  <text x="1236" y="97.1" font-family="Helvetica" font-size="10" font-weight="normal" font-style="normal" fill="#000000" fill-opacity="1">10 µs</text>
  <path d="M 50 9 L 1230 9" fill="none" stroke-width="0.75" stroke="#000000" stroke-opacity="0.49804" stroke-linecap="butt" stroke-linejoin="round"/>
  <text x="15" y="10.7" font-family="Helvetica" font-size="10" font-weight="normal" font-style="normal" fill="#000000" fill-opacity="1">100 µs</text>
  <text x="1236" y="10.7" font-family="Helvetica" font-size="10" font-weight="normal" font-style="normal" fill="#000000" fill-opacity="1">100 µs</text>
  <path d="M 50 414.99 L 1230 414.99" fill="none" stroke-width="0.5" stroke="#000000" stroke-opacity="0.25882" stroke-linecap="butt" stroke-linejoin="round" stroke-dasharray="6 3" stroke-dashoffset="0"/>
  <path d="M 50 388.98 L 1230 388.98" fill="none" stroke-width="0.5" stroke="#000000" stroke-opacity="0.25882" stroke-linecap="butt" stroke-linejoin="round" stroke-dasharray="6 3" stroke-dashoffset="0"/>
  <path d="M 50 362.97 L 1230 362.97" fill="none" stroke-width="0.5" stroke="#000000" stroke-opacity="0.25882" stroke-linecap="butt" stroke-linejoin="round" stroke-dasharray="6 3" stroke-dashoffset="0"/>
  <path d="M 50 336.96 L 1230 336.96" fill="none" stroke-width="0.5" stroke="#000000" stroke-opacity="0.25882" stroke-linecap="butt" stroke-linejoin="round" stroke-dasharray="6 3" stroke-dashoffset="0"/>
  <path d="M 50 310.96 L 1230 310.96" fill="none" stroke-width="0.5" stroke="#000000" stroke-opacity="0.25882" stroke-linecap="butt" stroke-linejoin="round" stroke-dasharray="6 3" stroke-dashoffset="0"/>
  <path d="M 50 284.95 L 1230 284.95" fill="none" stroke-width="0.5" stroke="#000000" stroke-opacity="0.25882" stroke-linecap="butt" stroke-linejoin="round" stroke-dasharray="6 3" stroke-dashoffset="0"/>
  <path d="M 50 258.94 L 1230 258.94" fill="none" stroke-width="0.5" stroke="#000000" stroke-opacity="0.25882" stroke-linecap="butt" stroke-linejoin="round" stroke-dasharray="6 3" stroke-dashoffset="0"/>
  <path d="M 50 232.93 L 1230 232.93" fill="none" stroke-width="0.5" stroke="#000000" stroke-opacity="0.25882" stroke-linecap="butt" stroke-linejoin="round" stroke-dasharray="6 3" stroke-dashoffset="0"/>
  <path d="M 50 206.92 L 1230 206.92" fill="none" stroke-width="0.5" stroke="#000000" stroke-opacity="0.25882" stroke-linecap="butt" stroke-linejoin="round" stroke-dasharray="6 3" stroke-dashoffset="0"/>
  <path d="M 50 180.91 L 1230 180.91" fill="none" stroke-width="0.5" stroke="#000000" stroke-opacity="0.25882" stroke-linecap="butt" stroke-linejoin="round" stroke-dasharray="6 3" stroke-dashoffset="0"/>
  <path d="M 50 154.9 L 1230 154.9" fill="none" stroke-width="0.5" stroke="#000000" stroke-opacity="0.25882" stroke-linecap="butt" stroke-linejoin="round" stroke-dasharray="6 3" stroke-dashoffset="0"/>
  <path d="M 50 128.89 L 1230 128.89" fill="none" stroke-width="0.5" stroke="#000000" stroke-opacity="0.25882" stroke-linecap="butt" stroke-linejoin="round" stroke-dasharray="6 3" stroke-dashoffset="0"/>
  <path d="M 50 102.88 L 1230 102.88" fill="none" stroke-width="0.5" stroke="#000000" stroke-opacity="0.25882" stroke-linecap="butt" stroke-linejoin="round" stroke-dasharray="6 3" stroke-dashoffset="0"/>
  <path d="M 50 76.874 L 1230 76.874" fill="none" stroke-width="0.5" stroke="#000000" stroke-opacity="0.25882" stroke-linecap="butt" stroke-linejoin="round" stroke-dasharray="6 3" stroke-dashoffset="0"/>
  <path d="M 50 50.865 L 1230 50.865" fill="none" stroke-width="0.5" stroke="#000000" stroke-opacity="0.25882" stroke-linecap="butt" stroke-linejoin="round" stroke-dasharray="6 3" stroke-dashoffset="0"/>
  <path d="M 50 24.856 L 1230 24.856" fill="none" stroke-width="0.5" stroke="#000000" stroke-opacity="0.25882" stroke-linecap="butt" stroke-linejoin="round" stroke-dasharray="6 3" stroke-dashoffset="0"/>
  <path d="M 74 33 L 74 88 L 290 88 L 290 33 z" fill="#FFFFFF" fill-opacity="1.0" stroke="none"/>
  <clipPath id="clip-0">
    <path d="M 50 9 L 50 441 L 1230 441 L 1230 9 z"/>
  </clipPath>
  <g clip-path="url(#clip-0)">
    <path d="M 50 243.23L 109 259.33L 143.51 264.69L 168 266.83L 186.99 267.93L 202.51 268.21L 215.63 268.67L 227 256.79L 245.99 263.22L 261.51 264.23L 274.63 264.56L 286 264.62L 304.99 265.76L 320.51 265.18L 333.63 265.01L 345 264.53L 363.99 264.03L 379.51 263.74L 392.63 263.25L 404 262.92L 422.99 262.18L 438.51 261.83L 451.63 260.93L 463 261.15L 481.99 258.09L 497.51 259.91L 510.63 259.24L 522 258.95L 540.99 258.07L 556.51 257.59L 569.63 257.47L 581 256.38L 599.99 254.67L 615.51 255.31L 628.63 254.88L 640 254.07L 658.99 251.56L 674.51 252.87L 687.63 252.33L 699 252.3L 717.99 250.29L 733.51 250.04L 746.63 250.75L 758 249.98L 776.99 249.68L 792.51 246.59L 805.63 247.12L 817 248.02L 835.99 246.19L 851.51 247.39L 864.63 246.86L 876 246.03L 894.99 245.05L 910.51 244.88L 923.63 244.76L 935 243.22L 953.99 244.02L 969.51 243.36L 982.63 242.41L 994 240.59L 1013 242.53L 1028.5 240.77L 1041.6 241.19L 1053 238.78L 1072 240.19L 1087.5 237.96L 1100.6 238.15L 1112 236.62L 1131 236.96L 1146.5 237.43L 1159.6 235.92L 1171 236.96L 1190 236.32L 1205.5 235.83L 1218.6 235.11L 1230 234.25L 1230 235.58L 1218.6 236.37L 1205.5 236.13L 1190 237.59L 1171 237.47L 1159.6 238.83L 1146.5 238.43L 1131 238.31L 1112 238.85L 1100.6 239.92L 1087.5 240.19L 1072 240.57L 1053 242.77L 1041.6 241.77L 1028.5 242.65L 1013 242.54L 994 244.72L 982.63 242.77L 969.51 244.64L 953.99 245.36L 935 245.39L 923.63 246.07L 910.51 246.94L 894.99 247.06L 876 246.86L 864.63 248L 851.51 247.63L 835.99 248.31L 817 248.97L 805.63 251.03L 792.51 251.22L 776.99 250.34L 758 250.2L 746.63 251.92L 733.51 251.64L 717.99 252.97L 699 252.46L 687.63 252.97L 674.51 253.64L 658.99 256.46L 640 254.07L 628.63 255.73L 615.51 256.43L 599.99 256.86L 581 257.44L 569.63 258.11L 556.51 257.9L 540.99 259.02L 522 259.55L 510.63 259.61L 497.51 260.22L 481.99 263.01L 463 261.34L 451.63 262.61L 438.51 262.01L 422.99 262.57L 404 263.03L 392.63 263.34L 379.51 264.02L 363.99 264.13L 345 265.12L 333.63 265.44L 320.51 265.81L 304.99 266.14L 286 264.82L 274.63 264.64L 261.51 264.28L 245.99 264.31L 227 257.68L 215.63 268.92L 202.51 269.12L 186.99 268.89L 168 268L 143.51 266.27L 109 260.65L 50 247.11" fill="#007AFF" fill-opacity="0.30196078431372547" stroke="none"/>
    <path d="M 50 290.92L 109 313.91L 143.51 327.82L 168 335.91L 186.99 343.84L 202.51 346.94L 215.63 353.72L 227 357.02L 245.99 363.56L 261.51 368.85L 274.63 372.43L 286 373.97L 304.99 380.16L 320.51 382.36L 333.63 383.68L 345 374.21L 363.99 376.7L 379.51 376.51L 392.63 378.95L 404 379.79L 422.99 378.41L 438.51 369.31L 451.63 375.79L 463 375.19L 481.99 352.03L 497.51 368L 510.63 363.48L 522 353.33L 540.99 347.55L 556.51 348.67L 569.63 344.18L 581 340.01L 599.99 323.26L 615.51 326.41L 628.63 321.1L 640 313.55L 658.99 301.47L 674.51 294.78L 687.63 291.33L 699 288.34L 717.99 280.74L 733.51 274.09L 746.63 267.28L 758 264.12L 776.99 255.59L 792.51 248.75L 805.63 242.81L 817 237.8L 835.99 228.49L 851.51 221.36L 864.63 214.9L 876 210.55L 894.99 198.86L 910.51 188.58L 923.63 182.25L 935 175.66L 953.99 166.43L 969.51 159.47L 982.63 151.93L 994 148.13L 1013 139.04L 1028.5 132.22L 1041.6 126L 1053 121.54L 1072 112.9L 1087.5 106.05L 1100.6 99.551L 1112 93.498L 1131 86.809L 1131 86.809L 1112 95.432L 1100.6 100.53L 1087.5 106.26L 1072 113.18L 1053 121.56L 1041.6 126.64L 1028.5 132.26L 1013 139.43L 994 148.19L 982.63 153.55L 969.51 159.58L 953.99 166.48L 935 176.4L 923.63 182.38L 910.51 189.59L 894.99 198.95L 876 211.47L 864.63 216.53L 851.51 222.41L 835.99 229.3L 817 237.82L 805.63 242.85L 792.51 248.75L 776.99 255.62L 758 264.18L 746.63 267.93L 733.51 274.71L 717.99 280.75L 699 290.79L 687.63 293.93L 674.51 301.17L 658.99 307.07L 640 315.71L 628.63 321.12L 615.51 326.67L 599.99 332.78L 581 340.13L 569.63 344.2L 556.51 348.73L 540.99 353.69L 522 360.14L 510.63 363.8L 497.51 368.25L 481.99 372.28L 463 377.4L 451.63 376.74L 438.51 378.46L 422.99 378.48L 404 379.88L 392.63 379.1L 379.51 378.46L 363.99 378.93L 345 375.33L 333.63 384.86L 320.51 382.89L 304.99 380.46L 286 378.78L 274.63 372.78L 261.51 368.85L 245.99 363.56L 227 357.02L 215.63 353.72L 202.51 349.04L 186.99 344.76L 168 335.91L 143.51 327.82L 109 313.91L 50 290.92" fill="#FF3B30" fill-opacity="0.30196078431372547" stroke="none"/>
    <path d="M 50 246.06L 109 260.3L 143.51 265.85L 168 267.69L 186.99 268.64L 202.51 268.88L 215.63 268.85L 227 257.45L 245.99 264.02L 261.51 264.27L 274.63 264.62L 286 264.77L 304.99 266.04L 320.51 265.65L 333.63 265.33L 345 264.97L 363.99 264.1L 379.51 263.95L 392.63 263.32L 404 263L 422.99 262.47L 438.51 261.97L 451.63 262.16L 463 261.29L 481.99 261.66L 497.51 260.14L 510.63 259.51L 522 259.39L 540.99 258.77L 556.51 257.82L 569.63 257.94L 581 257.16L 599.99 256.28L 615.51 256.14L 628.63 255.51L 640 254.07L 658.99 255.11L 674.51 253.44L 687.63 252.8L 699 252.41L 717.99 252.25L 733.51 251.22L 746.63 251.61L 758 250.14L 776.99 250.16L 792.51 249.96L 805.63 249.97L 817 248.72L 835.99 247.75L 851.51 247.57L 864.63 247.7L 876 246.64L 894.99 246.52L 910.51 246.39L 923.63 245.72L 935 244.81L 953.99 245L 969.51 244.3L 982.63 242.67L 994 243.6L 1013 242.54L 1028.5 242.15L 1041.6 241.61L 1053 241.68L 1072 240.47L 1087.5 239.6L 1100.6 239.45L 1112 238.26L 1131 237.96L 1146.5 238.17L 1159.6 238.05L 1171 237.33L 1190 237.25L 1205.5 236.05L 1218.6 236.04L 1230 235.23" fill="none" stroke-width="4" stroke="#007AFF" stroke-opacity="1" stroke-linecap="round" stroke-linejoin="round"/>
    <path d="M 50 290.92L 109 313.91L 143.51 327.82L 168 335.91L 186.99 344.51L 202.51 348.48L 215.63 353.72L 227 357.02L 245.99 363.56L 261.51 368.85L 274.63 372.68L 286 377.46L 304.99 380.38L 320.51 382.75L 333.63 384.55L 345 375.04L 363.99 378.33L 379.51 377.94L 392.63 379.06L 404 379.86L 422.99 378.46L 438.51 375.84L 451.63 376.49L 463 376.81L 481.99 365.85L 497.51 368.18L 510.63 363.72L 522 358.24L 540.99 351.99L 556.51 348.71L 569.63 344.19L 581 340.1L 599.99 330.05L 615.51 326.6L 628.63 321.12L 640 315.13L 658.99 305.52L 674.51 299.4L 687.63 293.23L 699 290.13L 717.99 280.74L 733.51 274.55L 746.63 267.76L 758 264.16L 776.99 255.61L 792.51 248.75L 805.63 242.84L 817 237.81L 835.99 229.09L 851.51 222.13L 864.63 216.1L 876 211.22L 894.99 198.92L 910.51 189.33L 923.63 182.34L 935 176.2L 953.99 166.47L 969.51 159.55L 982.63 153.12L 994 148.18L 1013 139.33L 1028.5 132.25L 1041.6 126.47L 1053 121.55L 1072 113.11L 1087.5 106.21L 1100.6 100.27L 1112 94.917L 1131 86.809" fill="none" stroke-width="4" stroke="#FF3B30" stroke-opacity="1" stroke-linecap="round" stroke-linejoin="round"/>
    <path d="M 50 246.06L 109 260.3L 143.51 265.85L 168 267.69L 186.99 268.64L 202.51 268.88L 215.63 268.85L 227 257.45L 245.99 264.02L 261.51 264.27L 274.63 264.62L 286 264.77L 304.99 266.04L 320.51 265.65L 333.63 265.33L 345 264.97L 363.99 264.1L 379.51 263.95L 392.63 263.32L 404 263L 422.99 262.47L 438.51 261.97L 451.63 262.16L 463 261.29L 481.99 261.66L 497.51 260.14L 510.63 259.51L 522 259.39L 540.99 258.77L 556.51 257.82L 569.63 257.94L 581 257.16L 599.99 256.28L 615.51 256.14L 628.63 255.51L 640 254.07L 658.99 255.11L 674.51 253.44L 687.63 252.8L 699 252.41L 717.99 252.25L 733.51 251.22L 746.63 251.61L 758 250.14L 776.99 250.16L 792.51 249.96L 805.63 249.97L 817 248.72L 835.99 247.75L 851.51 247.57L 864.63 247.7L 876 246.64L 894.99 246.52L 910.51 246.39L 923.63 245.72L 935 244.81L 953.99 245L 969.51 244.3L 982.63 242.67L 994 243.6L 1013 242.54L 1028.5 242.15L 1041.6 241.61L 1053 241.68L 1072 240.47L 1087.5 239.6L 1100.6 239.45L 1112 238.26L 1131 237.96L 1146.5 238.17L 1159.6 238.05L 1171 237.33L 1190 237.25L 1205.5 236.05L 1218.6 236.04L 1230 235.23" fill="none" stroke-width="0.5" stroke="#000000" stroke-opacity="0.30196" stroke-linecap="round" stroke-linejoin="round"/>
    <path d="M 50 290.92L 109 313.91L 143.51 327.82L 168 335.91L 186.99 344.51L 202.51 348.48L 215.63 353.72L 227 357.02L 245.99 363.56L 261.51 368.85L 274.63 372.68L 286 377.46L 304.99 380.38L 320.51 382.75L 333.63 384.55L 345 375.04L 363.99 378.33L 379.51 377.94L 392.63 379.06L 404 379.86L 422.99 378.46L 438.51 375.84L 451.63 376.49L 463 376.81L 481.99 365.85L 497.51 368.18L 510.63 363.72L 522 358.24L 540.99 351.99L 556.51 348.71L 569.63 344.19L 581 340.1L 599.99 330.05L 615.51 326.6L 628.63 321.12L 640 315.13L 658.99 305.52L 674.51 299.4L 687.63 293.23L 699 290.13L 717.99 280.74L 733.51 274.55L 746.63 267.76L 758 264.16L 776.99 255.61L 792.51 248.75L 805.63 242.84L 817 237.81L 835.99 229.09L 851.51 222.13L 864.63 216.1L 876 211.22L 894.99 198.92L 910.51 189.33L 923.63 182.34L 935 176.2L 953.99 166.47L 969.51 159.55L 982.63 153.12L 994 148.18L 1013 139.33L 1028.5 132.25L 1041.6 126.47L 1053 121.55L 1072 113.11L 1087.5 106.21L 1100.6 100.27L 1112 94.917L 1131 86.809" fill="none" stroke-width="0.5" stroke="#000000" stroke-opacity="0.30196" stroke-linecap="round" stroke-linejoin="round"/>
  </g>
  <path d="M 74 33 L 74 88 L 290 88 L 290 33 z" fill="#FFFFFF" fill-opacity="0.7019607843137254" stroke-width="0.5" stroke="#000000" stroke-opacity="1" stroke-linecap="round" stroke-linejoin="round"/>
  <path d="M 88 52 L 108 52" fill="none" stroke-width="4" stroke="#FF3B30" stroke-opacity="1" stroke-linecap="round" stroke-linejoin="round"/>
  <path d="M 88 52 L 108 52" fill="none" stroke-width="0.5" stroke="#000000" stroke-opacity="0.30196" stroke-linecap="round" stroke-linejoin="round"/>
  <text x="119" y="56.17" font-family="Menlo" font-size="12" font-weight="normal" font-style="normal" fill="#000000" fill-opacity="1">Array&lt;Int&gt; kalimba</text>
  <path d="M 88 69 L 108 69" fill="none" stroke-width="4" stroke="#007AFF" stroke-opacity="1" stroke-linecap="round" stroke-linejoin="round"/>
  <path d="M 88 69 L 108 69" fill="none" stroke-width="0.5" stroke="#000000" stroke-opacity="0.30196" stroke-linecap="round" stroke-linejoin="round"/>
  <text x="119" y="73.17" font-family="Menlo" font-size="12" font-weight="normal" font-style="normal" fill="#000000" fill-opacity="1">TreeArray&lt;Int&gt; kalimba</text>
  <path d="M 50 9 L 50 441 L 1230 441 L 1230 9 z" fill="none" stroke-width="0.5" stroke="#000000" stroke-opacity="1" stroke-linecap="round" stroke-linejoin="round"/>
</svg>
