<!DOCTYPE svg PUBLIC "-//W3C//DTD SVG 1.1//EN" "http://www.w3.org/Graphics/SVG/1.1/DTD/svg11.dtd">
<svg width="1280.0px" height="480.0px" viewBox="0.0 0.0 1280.0 480.0" xmlns="http://www.w3.org/2000/svg" xmlns:xlink="http://www.w3.org/1999/xlink" version="1.1">
  <path d="M 0 0 L 0 480 L 1280 480 L 1280 0 z" fill="#FFFFFF" fill-opacity="1.0" stroke="none"/>
  <text x="50" y="468.7" font-family="Helvetica" font-size="10" font-weight="normal" font-style="normal" fill="#000000" fill-opacity="1">Average per-element processing time over input size (bands: min, mean, mean + 2stddev)</text>
  <a xlink:href="https://github.com/apple/swift-collections-benchmark"><text x="1107" y="468.7" font-family="Helvetica" font-size="10" font-weight="normal" font-style="normal" fill="#000000" fill-opacity="1">swift-collections-benchmark</text></a>
  <path d="M 50 9 L 50 441" fill="none" stroke-width="0.75" stroke="#000000" stroke-opacity="0.49804" stroke-linecap="butt" stroke-linejoin="round"/>
  <text x="47" y="453.7" font-family="Helvetica" font-size="10" font-weight="normal" font-style="normal" fill="#000000" fill-opacity="1">1</text>
  <path d="M 109 9 L 109 441" fill="none" stroke-width="0.75" stroke="#000000" stroke-opacity="0.49804" stroke-linecap="butt" stroke-linejoin="round"/>
  <text x="106" y="453.7" font-family="Helvetica" font-size="10" font-weight="normal" font-style="normal" fill="#000000" fill-opacity="1">2</text>
  <path d="M 168 9 L 168 441" fill="none" stroke-width="0.75" stroke="#000000" stroke-opacity="0.49804" stroke-linecap="butt" stroke-linejoin="round"/>
  <text x="165" y="453.7" font-family="Helvetica" font-size="10" font-weight="normal" font-style="normal" fill="#000000" fill-opacity="1">4</text>
  <path d="M 227 9 L 227 441" fill="none" stroke-width="0.75" stroke="#000000" stroke-opacity="0.49804" stroke-linecap="butt" stroke-linejoin="round"/>
  <text x="224" y="453.7" font-family="Helvetica" font-size="10" font-weight="normal" font-style="normal" fill="#000000" fill-opacity="1">8</text>
  <path d="M 286 9 L 286 441" fill="none" stroke-width="0.75" stroke="#000000" stroke-opacity="0.49804" stroke-linecap="butt" stroke-linejoin="round"/>
  <text x="280" y="453.7" font-family="Helvetica" font-size="10" font-weight="normal" font-style="normal" fill="#000000" fill-opacity="1">16</text>
  <path d="M 345 9 L 345 441" fill="none" stroke-width="0.75" stroke="#000000" stroke-opacity="0.49804" stroke-linecap="butt" stroke-linejoin="round"/>
  <text x="339" y="453.7" font-family="Helvetica" font-size="10" font-weight="normal" font-style="normal" fill="#000000" fill-opacity="1">32</text>
  <path d="M 404 9 L 404 441" fill="none" stroke-width="0.75" stroke="#000000" stroke-opacity="0.49804" stroke-linecap="butt" stroke-linejoin="round"/>
  <text x="398" y="453.7" font-family="Helvetica" font-size="10" font-weight="normal" font-style="normal" fill="#000000" fill-opacity="1">64</text>
  <path d="M 463 9 L 463 441" fill="none" stroke-width="0.75" stroke="#000000" stroke-opacity="0.49804" stroke-linecap="butt" stroke-linejoin="round"/>
  <text x="454.5" y="453.7" font-family="Helvetica" font-size="10" font-weight="normal" font-style="normal" fill="#000000" fill-opacity="1">128</text>
  <path d="M 522 9 L 522 441" fill="none" stroke-width="0.75" stroke="#000000" stroke-opacity="0.49804" stroke-linecap="butt" stroke-linejoin="round"/>
  <text x="513.5" y="453.7" font-family="Helvetica" font-size="10" font-weight="normal" font-style="normal" fill="#000000" fill-opacity="1">256</text>
  <path d="M 581 9 L 581 441" fill="none" stroke-width="0.75" stroke="#000000" stroke-opacity="0.49804" stroke-linecap="butt" stroke-linejoin="round"/>
  <text x="572.5" y="453.7" font-family="Helvetica" font-size="10" font-weight="normal" font-style="normal" fill="#000000" fill-opacity="1">512</text>
  <path d="M 640 9 L 640 441" fill="none" stroke-width="0.75" stroke="#000000" stroke-opacity="0.49804" stroke-linecap="butt" stroke-linejoin="round"/>
  <text x="634.5" y="453.7" font-family="Helvetica" font-size="10" font-weight="normal" font-style="normal" fill="#000000" fill-opacity="1">1k</text>
  <path d="M 699 9 L 699 441" fill="none" stroke-width="0.75" stroke="#000000" stroke-opacity="0.49804" stroke-linecap="butt" stroke-linejoin="round"/>
  <text x="693.5" y="453.7" font-family="Helvetica" font-size="10" font-weight="normal" font-style="normal" fill="#000000" fill-opacity="1">2k</text>
  <path d="M 758 9 L 758 441" fill="none" stroke-width="0.75" stroke="#000000" stroke-opacity="0.49804" stroke-linecap="butt" stroke-linejoin="round"/>
  <text x="752.5" y="453.7" font-family="Helvetica" font-size="10" font-weight="normal" font-style="normal" fill="#000000" fill-opacity="1">4k</text>
  <path d="M 817 9 L 817 441" fill="none" stroke-width="0.75" stroke="#000000" stroke-opacity="0.49804" stroke-linecap="butt" stroke-linejoin="round"/>
  <text x="811.5" y="453.7" font-family="Helvetica" font-size="10" font-weight="normal" font-style="normal" fill="#000000" fill-opacity="1">8k</text>
  <path d="M 876 9 L 876 441" fill="none" stroke-width="0.75" stroke="#000000" stroke-opacity="0.49804" stroke-linecap="butt" stroke-linejoin="round"/>
  <text x="867.5" y="453.7" font-family="Helvetica" font-size="10" font-weight="normal" font-style="normal" fill="#000000" fill-opacity="1">16k</text>
  <path d="M 935 9 L 935 441" fill="none" stroke-width="0.75" stroke="#000000" stroke-opacity="0.49804" stroke-linecap="butt" stroke-linejoin="round"/>
  <text x="926.5" y="453.7" font-family="Helvetica" font-size="10" font-weight="normal" font-style="normal" fill="#000000" fill-opacity="1">32k</text>
  <path d="M 994 9 L 994 441" fill="none" stroke-width="0.75" stroke="#000000" stroke-opacity="0.49804" stroke-linecap="butt" stroke-linejoin="round"/>
  <text x="985.5" y="453.7" font-family="Helvetica" font-size="10" font-weight="normal" font-style="normal" fill="#000000" fill-opacity="1">64k</text>
  <path d="M 1053 9 L 1053 441" fill="none" stroke-width="0.75" stroke="#000000" stroke-opacity="0.49804" stroke-linecap="butt" stroke-linejoin="round"/>
  <text x="1042" y="453.7" font-family="Helvetica" font-size="10" font-weight="normal" font-style="normal" fill="#000000" fill-opacity="1">128k</text>
  <path d="M 1112 9 L 1112 441" fill="none" stroke-width="0.75" stroke="#000000" stroke-opacity="0.49804" stroke-linecap="butt" stroke-linejoin="round"/>
  <text x="1101" y="453.7" font-family="Helvetica" font-size="10" font-weight="normal" font-style="normal" fill="#000000" fill-opacity="1">256k</text>
  <path d="M 1171 9 L 1171 441" fill="none" stroke-width="0.75" stroke="#000000" stroke-opacity="0.49804" stroke-linecap="butt" stroke-linejoin="round"/>
  <text x="1160" y="453.7" font-family="Helvetica" font-size="10" font-weight="normal" font-style="normal" fill="#000000" fill-opacity="1">512k</text>
  <path d="M 1230 9 L 1230 441" fill="none" stroke-width="0.75" stroke="#000000" stroke-opacity="0.49804" stroke-linecap="butt" stroke-linejoin="round"/>
  <text x="1223" y="453.7" font-family="Helvetica" font-size="10" font-weight="normal" font-style="normal" fill="#000000" fill-opacity="1">1M</text>
  <path d="M 50 441 L 1230 441" fill="none" stroke-width="0.75" stroke="#000000" stroke-opacity="0.49804" stroke-linecap="butt" stroke-linejoin="round"/>
  <text x="27" y="442.7" font-family="Helvetica" font-size="10" font-weight="normal" font-style="normal" fill="#000000" fill-opacity="1">1 ns</text>
  <text x="1236" y="442.7" font-family="Helvetica" font-size="10" font-weight="normal" font-style="normal" fill="#000000" fill-opacity="1">1 ns</text>
  <path d="M 50 297 L 1230 297" fill="none" stroke-width="0.75" stroke="#000000" stroke-opacity="0.49804" stroke-linecap="butt" stroke-linejoin="round"/>
  <text x="21" y="298.7" font-family="Helvetica" font-size="10" font-weight="normal" font-style="normal" fill="#000000" fill-opacity="1">10 ns</text>
  <text x="1236" y="298.7" font-family="Helvetica" font-size="10" font-weight="normal" font-style="normal" fill="#000000" fill-opacity="1">10 ns</text>
  <path d="M 50 153 L 1230 153" fill="none" stroke-width="0.75" stroke="#000000" stroke-opacity="0.49804" stroke-linecap="butt" stroke-linejoin="round"/>
  <text x="16" y="154.7" font-family="Helvetica" font-size="10" font-weight="normal" font-style="normal" fill="#000000" fill-opacity="1">100 ns</text>
  <text x="1236" y="154.7" font-family="Helvetica" font-size="10" font-weight="normal" font-style="normal" fill="#000000" fill-opacity="1">100 ns</text>
  <path d="M 50 9 L 1230 9" fill="none" stroke-width="0.75" stroke="#000000" stroke-opacity="0.49804" stroke-linecap="butt" stroke-linejoin="round"/>
  <text x="26" y="10.7" font-family="Helvetica" font-size="10" font-weight="normal" font-style="normal" fill="#000000" fill-opacity="1">1 µs</text>
  <text x="1236" y="10.7" font-family="Helvetica" font-size="10" font-weight="normal" font-style="normal" fill="#000000" fill-opacity="1">1 µs</text>
  <path d="M 50 397.65 L 1230 397.65" fill="none" stroke-width="0.5" stroke="#000000" stroke-opacity="0.25882" stroke-linecap="butt" stroke-linejoin="round" stroke-dasharray="6 3" stroke-dashoffset="0"/>
  <path d="M 50 354.3 L 1230 354.3" fill="none" stroke-width="0.5" stroke="#000000" stroke-opacity="0.25882" stroke-linecap="butt" stroke-linejoin="round" stroke-dasharray="6 3" stroke-dashoffset="0"/>
  <path d="M 50 310.96 L 1230 310.96" fill="none" stroke-width="0.5" stroke="#000000" stroke-opacity="0.25882" stroke-linecap="butt" stroke-linejoin="round" stroke-dasharray="6 3" stroke-dashoffset="0"/>
  <path d="M 50 267.61 L 1230 267.61" fill="none" stroke-width="0.5" stroke="#000000" stroke-opacity="0.25882" stroke-linecap="butt" stroke-linejoin="round" stroke-dasharray="6 3" stroke-dashoffset="0"/>
  <path d="M 50 224.26 L 1230 224.26" fill="none" stroke-width="0.5" stroke="#000000" stroke-opacity="0.25882" stroke-linecap="butt" stroke-linejoin="round" stroke-dasharray="6 3" stroke-dashoffset="0"/>
  <path d="M 50 180.91 L 1230 180.91" fill="none" stroke-width="0.5" stroke="#000000" stroke-opacity="0.25882" stroke-linecap="butt" stroke-linejoin="round" stroke-dasharray="6 3" stroke-dashoffset="0"/>
  <path d="M 50 137.56 L 1230 137.56" fill="none" stroke-width="0.5" stroke="#000000" stroke-opacity="0.25882" stroke-linecap="butt" stroke-linejoin="round" stroke-dasharray="6 3" stroke-dashoffset="0"/>
  <path d="M 50 94.213 L 1230 94.213" fill="none" stroke-width="0.5" stroke="#000000" stroke-opacity="0.25882" stroke-linecap="butt" stroke-linejoin="round" stroke-dasharray="6 3" stroke-dashoffset="0"/>
  <path d="M 50 50.865 L 1230 50.865" fill="none" stroke-width="0.5" stroke="#000000" stroke-opacity="0.25882" stroke-linecap="butt" stroke-linejoin="round" stroke-dasharray="6 3" stroke-dashoffset="0"/>
  <path d="M 74 33 L 74 88 L 327 88 L 327 33 z" fill="#FFFFFF" fill-opacity="1.0" stroke="none"/>
  <clipPath id="clip-0">
    <path d="M 50 9 L 50 441 L 1230 441 L 1230 9 z"/>
  </clipPath>
  <g clip-path="url(#clip-0)">
    <path d="M 50 71.617L 109 102.93L 143.51 112.16L 168 120.25L 186.99 122.91L 202.51 128.29L 215.63 128.3L 227 119.73L 245.99 124.91L 261.51 127.45L 274.63 128.59L 286 120.35L 304.99 124.84L 320.51 127.25L 333.63 127.58L 345 127.54L 363.99 127.07L 379.51 127.15L 392.63 126.83L 404 127.07L 422.99 126.08L 438.51 125.9L 451.63 125.35L 463 125.28L 481.99 123.95L 497.51 124.58L 510.63 123.32L 522 123.61L 540.99 120.73L 556.51 121.8L 569.63 120.97L 581 120.58L 599.99 119.53L 615.51 117.52L 628.63 117.6L 640 117.74L 658.99 115.84L 674.51 101.43L 687.63 114.51L 699 109.98L 717.99 104.33L 733.51 112.67L 746.63 110.4L 758 103.34L 776.99 105.98L 792.51 108.78L 805.63 104.08L 817 102.44L 835.99 108.69L 851.51 105.39L 864.63 105.64L 876 106.72L 894.99 104.27L 910.51 102.38L 923.63 102.28L 935 101.27L 953.99 102.14L 969.51 99.206L 982.63 96.298L 994 98.674L 1013 99.471L 1028.5 97.426L 1041.6 97.85L 1053 97.547L 1072 94.507L 1087.5 91.629L 1100.6 93.631L 1112 95.58L 1131 91.637L 1146.5 92.289L 1159.6 87.083L 1171 92.47L 1190 89.954L 1205.5 84.47L 1218.6 82.629L 1230 89.652L 1230 90.219L 1218.6 92.467L 1205.5 91.606L 1190 90.681L 1171 93.974L 1159.6 93.409L 1146.5 93.977L 1131 92.693L 1112 95.852L 1100.6 95.954L 1087.5 97.8L 1072 98.392L 1053 99.089L 1041.6 100.37L 1028.5 99.572L 1013 100.04L 994 101.31L 982.63 101.49L 969.51 102.99L 953.99 103.6L 935 105.55L 923.63 105.99L 910.51 107.95L 894.99 106.44L 876 106.74L 864.63 107.32L 851.51 109.28L 835.99 108.79L 817 108.85L 805.63 109.31L 792.51 110.06L 776.99 111.89L 758 112.1L 746.63 112.22L 733.51 112.77L 717.99 112.82L 699 115.87L 687.63 115.66L 674.51 116.43L 658.99 117.48L 640 117.83L 628.63 118.21L 615.51 122.2L 599.99 119.93L 581 120.72L 569.63 121.93L 556.51 122.58L 540.99 125.09L 522 123.63L 510.63 124.13L 497.51 124.58L 481.99 126.14L 463 125.52L 451.63 125.74L 438.51 126.6L 422.99 126.49L 404 127.09L 392.63 127.39L 379.51 127.74L 363.99 127.59L 345 127.65L 333.63 127.77L 320.51 128.66L 304.99 128.52L 286 121.66L 274.63 128.83L 261.51 127.61L 245.99 127.64L 227 120.07L 215.63 128.44L 202.51 129.7L 186.99 125.49L 168 125.09L 143.51 114.9L 109 104.41L 50 71.888" fill="#007AFF" fill-opacity="0.30196078431372547" stroke="none"/>
    <path d="M 50 144.04L 109 191.13L 143.51 214.6L 168 230.75L 186.99 222.55L 202.51 253.82L 215.63 263.4L 227 273.21L 245.99 287.6L 261.51 297.88L 274.63 306.25L 286 314.39L 304.99 326.18L 320.51 335.57L 333.63 344L 345 331.43L 363.99 338.15L 379.51 348.86L 392.63 353.92L 404 352.44L 422.99 360.17L 438.51 366.07L 451.63 368.88L 463 378.95L 481.99 385.75L 497.51 389.6L 510.63 392.32L 522 395.45L 540.99 399.07L 556.51 402.5L 569.63 400.54L 581 405.73L 599.99 406.08L 615.51 407.38L 628.63 408.54L 640 409.46L 658.99 410.15L 674.51 411.77L 687.63 412.34L 699 412.42L 717.99 413.43L 733.51 413.73L 746.63 413.89L 758 414.01L 776.99 414.29L 792.51 414.76L 805.63 413.54L 817 354.99L 835.99 411.91L 851.51 411.81L 864.63 410.89L 876 398.42L 894.99 411.27L 910.51 411.83L 923.63 357.31L 935 387.45L 953.99 398.05L 969.51 402.12L 982.63 409.93L 994 407.8L 1013 403.59L 1028.5 381.05L 1041.6 408.48L 1053 407.5L 1072 402.99L 1087.5 392.02L 1100.6 387.14L 1112 388.73L 1131 389.24L 1146.5 387.44L 1159.6 387.2L 1171 388.82L 1190 388.8L 1205.5 386.04L 1218.6 382.84L 1230 401.65L 1230 402.82L 1218.6 388.21L 1205.5 386.83L 1190 389.81L 1171 390.29L 1159.6 392.7L 1146.5 395.43L 1131 396.67L 1112 398.43L 1100.6 394.47L 1087.5 393.15L 1072 406.15L 1053 407.9L 1041.6 408.9L 1028.5 412.31L 1013 411.84L 994 410.79L 982.63 412.47L 969.51 411.54L 953.99 412.26L 935 412.19L 923.63 412.16L 910.51 411.97L 894.99 411.88L 876 411.25L 864.63 411.32L 851.51 412.52L 835.99 413.53L 817 415.06L 805.63 415.18L 792.51 414.96L 776.99 414.62L 758 414.2L 746.63 414.06L 733.51 413.86L 717.99 413.47L 699 412.67L 687.63 412.41L 674.51 411.79L 658.99 411.79L 640 409.65L 628.63 408.81L 615.51 408.45L 599.99 406.35L 581 405.84L 569.63 405.33L 556.51 402.71L 540.99 401.34L 522 398.27L 510.63 393.66L 497.51 390.76L 481.99 385.75L 463 381.3L 451.63 369.45L 438.51 367.02L 422.99 361.73L 404 352.44L 392.63 354.14L 379.51 349.15L 363.99 343.42L 345 331.69L 333.63 344.38L 320.51 336.36L 304.99 326.19L 286 315.21L 274.63 307.07L 261.51 297.88L 245.99 288.04L 227 273.63L 215.63 265.95L 202.51 257.69L 186.99 224.1L 168 231.18L 143.51 215.04L 109 191.58L 50 144.04" fill="#FF3B30" fill-opacity="0.30196078431372547" stroke="none"/>
    <path d="M 50 71.817L 109 104.02L 143.51 114.18L 168 123.79L 186.99 124.81L 202.51 129.33L 215.63 128.4L 227 119.98L 245.99 126.92L 261.51 127.57L 274.63 128.77L 286 121.32L 304.99 127.54L 320.51 128.29L 333.63 127.72L 345 127.62L 363.99 127.45L 379.51 127.59L 392.63 127.24L 404 127.09L 422.99 126.38L 438.51 126.42L 451.63 125.64L 463 125.46L 481.99 125.56L 497.51 124.58L 510.63 123.92L 522 123.63L 540.99 123.92L 556.51 122.37L 569.63 121.68L 581 120.68L 599.99 119.82L 615.51 120.95L 628.63 118.05L 640 117.8L 658.99 117.05L 674.51 112.16L 687.63 115.36L 699 114.28L 717.99 110.49L 733.51 112.74L 746.63 111.74L 758 109.69L 776.99 110.29L 792.51 109.73L 805.63 107.9L 817 107.11L 835.99 108.77L 851.51 108.24L 864.63 106.88L 876 106.74L 894.99 105.86L 910.51 106.45L 923.63 105L 935 104.41L 953.99 103.22L 969.51 101.98L 982.63 100.09L 994 100.61L 1013 99.894L 1028.5 99.004L 1041.6 99.701L 1053 98.683L 1072 97.353L 1087.5 96.128L 1100.6 95.339L 1112 95.781L 1131 92.415L 1146.5 93.532L 1159.6 91.694L 1171 93.578L 1190 90.491L 1205.5 89.662L 1218.6 89.744L 1230 90.07" fill="none" stroke-width="4" stroke="#007AFF" stroke-opacity="1" stroke-linecap="round" stroke-linejoin="round"/>
    <path d="M 50 144.04L 109 191.46L 143.51 214.92L 168 231.07L 186.99 223.69L 202.51 256.65L 215.63 265.28L 227 273.52L 245.99 287.92L 261.51 297.88L 274.63 306.86L 286 314.99L 304.99 326.19L 320.51 336.15L 333.63 344.28L 345 331.62L 363.99 342L 379.51 349.07L 392.63 354.08L 404 352.44L 422.99 361.32L 438.51 366.77L 451.63 369.3L 463 380.68L 481.99 385.75L 497.51 390.45L 510.63 393.31L 522 397.52L 540.99 400.74L 556.51 402.65L 569.63 404.04L 581 405.81L 599.99 406.28L 615.51 408.16L 628.63 408.74L 640 409.6L 658.99 411.36L 674.51 411.78L 687.63 412.4L 699 412.6L 717.99 413.46L 733.51 413.83L 746.63 414.02L 758 414.15L 776.99 414.53L 792.51 414.91L 805.63 414.75L 817 393.07L 835.99 413.11L 851.51 412.34L 864.63 411.21L 876 407.64L 894.99 411.72L 910.51 411.93L 923.63 392.62L 935 404.72L 953.99 408.22L 969.51 408.94L 982.63 411.8L 994 410L 1013 409.58L 1028.5 402.53L 1041.6 408.79L 1053 407.8L 1072 405.31L 1087.5 392.85L 1100.6 392.47L 1112 395.75L 1131 394.64L 1146.5 393.24L 1159.6 391.21L 1171 389.91L 1190 389.54L 1205.5 386.63L 1218.6 386.76L 1230 402.51" fill="none" stroke-width="4" stroke="#FF3B30" stroke-opacity="1" stroke-linecap="round" stroke-linejoin="round"/>
    <path d="M 50 71.817L 109 104.02L 143.51 114.18L 168 123.79L 186.99 124.81L 202.51 129.33L 215.63 128.4L 227 119.98L 245.99 126.92L 261.51 127.57L 274.63 128.77L 286 121.32L 304.99 127.54L 320.51 128.29L 333.63 127.72L 345 127.62L 363.99 127.45L 379.51 127.59L 392.63 127.24L 404 127.09L 422.99 126.38L 438.51 126.42L 451.63 125.64L 463 125.46L 481.99 125.56L 497.51 124.58L 510.63 123.92L 522 123.63L 540.99 123.92L 556.51 122.37L 569.63 121.68L 581 120.68L 599.99 119.82L 615.51 120.95L 628.63 118.05L 640 117.8L 658.99 117.05L 674.51 112.16L 687.63 115.36L 699 114.28L 717.99 110.49L 733.51 112.74L 746.63 111.74L 758 109.69L 776.99 110.29L 792.51 109.73L 805.63 107.9L 817 107.11L 835.99 108.77L 851.51 108.24L 864.63 106.88L 876 106.74L 894.99 105.86L 910.51 106.45L 923.63 105L 935 104.41L 953.99 103.22L 969.51 101.98L 982.63 100.09L 994 100.61L 1013 99.894L 1028.5 99.004L 1041.6 99.701L 1053 98.683L 1072 97.353L 1087.5 96.128L 1100.6 95.339L 1112 95.781L 1131 92.415L 1146.5 93.532L 1159.6 91.694L 1171 93.578L 1190 90.491L 1205.5 89.662L 1218.6 89.744L 1230 90.07" fill="none" stroke-width="0.5" stroke="#000000" stroke-opacity="0.30196" stroke-linecap="round" stroke-linejoin="round"/>
    <path d="M 50 144.04L 109 191.46L 143.51 214.92L 168 231.07L 186.99 223.69L 202.51 256.65L 215.63 265.28L 227 273.52L 245.99 287.92L 261.51 297.88L 274.63 306.86L 286 314.99L 304.99 326.19L 320.51 336.15L 333.63 344.28L 345 331.62L 363.99 342L 379.51 349.07L 392.63 354.08L 404 352.44L 422.99 361.32L 438.51 366.77L 451.63 369.3L 463 380.68L 481.99 385.75L 497.51 390.45L 510.63 393.31L 522 397.52L 540.99 400.74L 556.51 402.65L 569.63 404.04L 581 405.81L 599.99 406.28L 615.51 408.16L 628.63 408.74L 640 409.6L 658.99 411.36L 674.51 411.78L 687.63 412.4L 699 412.6L 717.99 413.46L 733.51 413.83L 746.63 414.02L 758 414.15L 776.99 414.53L 792.51 414.91L 805.63 414.75L 817 393.07L 835.99 413.11L 851.51 412.34L 864.63 411.21L 876 407.64L 894.99 411.72L 910.51 411.93L 923.63 392.62L 935 404.72L 953.99 408.22L 969.51 408.94L 982.63 411.8L 994 410L 1013 409.58L 1028.5 402.53L 1041.6 408.79L 1053 407.8L 1072 405.31L 1087.5 392.85L 1100.6 392.47L 1112 395.75L 1131 394.64L 1146.5 393.24L 1159.6 391.21L 1171 389.91L 1190 389.54L 1205.5 386.63L 1218.6 386.76L 1230 402.51" fill="none" stroke-width="0.5" stroke="#000000" stroke-opacity="0.30196" stroke-linecap="round" stroke-linejoin="round"/>
  </g>
  <path d="M 74 33 L 74 88 L 327 88 L 327 33 z" fill="#FFFFFF" fill-opacity="0.7019607843137254" stroke-width="0.5" stroke="#000000" stroke-opacity="1" stroke-linecap="round" stroke-linejoin="round"/>
  <path d="M 88 52 L 108 52" fill="none" stroke-width="4" stroke="#FF3B30" stroke-opacity="1" stroke-linecap="round" stroke-linejoin="round"/>
  <path d="M 88 52 L 108 52" fill="none" stroke-width="0.5" stroke="#000000" stroke-opacity="0.30196" stroke-linecap="round" stroke-linejoin="round"/>
  <text x="119" y="56.17" font-family="Menlo" font-size="12" font-weight="normal" font-style="normal" fill="#000000" fill-opacity="1">Array&lt;Int&gt; kalimba fast</text>
  <path d="M 88 69 L 108 69" fill="none" stroke-width="4" stroke="#007AFF" stroke-opacity="1" stroke-linecap="round" stroke-linejoin="round"/>
  <path d="M 88 69 L 108 69" fill="none" stroke-width="0.5" stroke="#000000" stroke-opacity="0.30196" stroke-linecap="round" stroke-linejoin="round"/>
  <text x="119" y="73.17" font-family="Menlo" font-size="12" font-weight="normal" font-style="normal" fill="#000000" fill-opacity="1">TreeArray&lt;Int&gt; kalimba fast</text>
  <path d="M 50 9 L 50 441 L 1230 441 L 1230 9 z" fill="none" stroke-width="0.5" stroke="#000000" stroke-opacity="1" stroke-linecap="round" stroke-linejoin="round"/>
</svg>
