<!DOCTYPE svg PUBLIC "-//W3C//DTD SVG 1.1//EN" "http://www.w3.org/Graphics/SVG/1.1/DTD/svg11.dtd">
<svg width="1280.0px" height="480.0px" viewBox="0.0 0.0 1280.0 480.0" xmlns="http://www.w3.org/2000/svg" xmlns:xlink="http://www.w3.org/1999/xlink" version="1.1">
  <path d="M 0 0 L 0 480 L 1280 480 L 1280 0 z" fill="#FFFFFF" fill-opacity="1.0" stroke="none"/>
  <text x="50" y="468.7" font-family="Helvetica" font-size="10" font-weight="normal" font-style="normal" fill="#000000" fill-opacity="1">Average per-element processing time over input size (bands: min, mean, mean + 2stddev)</text>
  <a xlink:href="https://github.com/apple/swift-collections-benchmark"><text x="1107" y="468.7" font-family="Helvetica" font-size="10" font-weight="normal" font-style="normal" fill="#000000" fill-opacity="1">swift-collections-benchmark</text></a>
  <path d="M 50 9 L 50 441" fill="none" stroke-width="0.75" stroke="#000000" stroke-opacity="0.49804" stroke-linecap="butt" stroke-linejoin="round"/>
  <text x="47" y="453.7" font-family="Helvetica" font-size="10" font-weight="normal" font-style="normal" fill="#000000" fill-opacity="1">1</text>
  <path d="M 109 9 L 109 441" fill="none" stroke-width="0.75" stroke="#000000" stroke-opacity="0.49804" stroke-linecap="butt" stroke-linejoin="round"/>
  <text x="106" y="453.7" font-family="Helvetica" font-size="10" font-weight="normal" font-style="normal" fill="#000000" fill-opacity="1">2</text>
  <path d="M 168 9 L 168 441" fill="none" stroke-width="0.75" stroke="#000000" stroke-opacity="0.49804" stroke-linecap="butt" stroke-linejoin="round"/>
  <text x="165" y="453.7" font-family="Helvetica" font-size="10" font-weight="normal" font-style="normal" fill="#000000" fill-opacity="1">4</text>
  <path d="M 227 9 L 227 441" fill="none" stroke-width="0.75" stroke="#000000" stroke-opacity="0.49804" stroke-linecap="butt" stroke-linejoin="round"/>
  <text x="224" y="453.7" font-family="Helvetica" font-size="10" font-weight="normal" font-style="normal" fill="#000000" fill-opacity="1">8</text>
  <path d="M 286 9 L 286 441" fill="none" stroke-width="0.75" stroke="#000000" stroke-opacity="0.49804" stroke-linecap="butt" stroke-linejoin="round"/>
  <text x="280" y="453.7" font-family="Helvetica" font-size="10" font-weight="normal" font-style="normal" fill="#000000" fill-opacity="1">16</text>
  <path d="M 345 9 L 345 441" fill="none" stroke-width="0.75" stroke="#000000" stroke-opacity="0.49804" stroke-linecap="butt" stroke-linejoin="round"/>
  <text x="339" y="453.7" font-family="Helvetica" font-size="10" font-weight="normal" font-style="normal" fill="#000000" fill-opacity="1">32</text>
  <path d="M 404 9 L 404 441" fill="none" stroke-width="0.75" stroke="#000000" stroke-opacity="0.49804" stroke-linecap="butt" stroke-linejoin="round"/>
  <text x="398" y="453.7" font-family="Helvetica" font-size="10" font-weight="normal" font-style="normal" fill="#000000" fill-opacity="1">64</text>
  <path d="M 463 9 L 463 441" fill="none" stroke-width="0.75" stroke="#000000" stroke-opacity="0.49804" stroke-linecap="butt" stroke-linejoin="round"/>
  <text x="454.5" y="453.7" font-family="Helvetica" font-size="10" font-weight="normal" font-style="normal" fill="#000000" fill-opacity="1">128</text>
  <path d="M 522 9 L 522 441" fill="none" stroke-width="0.75" stroke="#000000" stroke-opacity="0.49804" stroke-linecap="butt" stroke-linejoin="round"/>
  <text x="513.5" y="453.7" font-family="Helvetica" font-size="10" font-weight="normal" font-style="normal" fill="#000000" fill-opacity="1">256</text>
  <path d="M 581 9 L 581 441" fill="none" stroke-width="0.75" stroke="#000000" stroke-opacity="0.49804" stroke-linecap="butt" stroke-linejoin="round"/>
  <text x="572.5" y="453.7" font-family="Helvetica" font-size="10" font-weight="normal" font-style="normal" fill="#000000" fill-opacity="1">512</text>
  <path d="M 640 9 L 640 441" fill="none" stroke-width="0.75" stroke="#000000" stroke-opacity="0.49804" stroke-linecap="butt" stroke-linejoin="round"/>
  <text x="634.5" y="453.7" font-family="Helvetica" font-size="10" font-weight="normal" font-style="normal" fill="#000000" fill-opacity="1">1k</text>
  <path d="M 699 9 L 699 441" fill="none" stroke-width="0.75" stroke="#000000" stroke-opacity="0.49804" stroke-linecap="butt" stroke-linejoin="round"/>
  <text x="693.5" y="453.7" font-family="Helvetica" font-size="10" font-weight="normal" font-style="normal" fill="#000000" fill-opacity="1">2k</text>
  <path d="M 758 9 L 758 441" fill="none" stroke-width="0.75" stroke="#000000" stroke-opacity="0.49804" stroke-linecap="butt" stroke-linejoin="round"/>
  <text x="752.5" y="453.7" font-family="Helvetica" font-size="10" font-weight="normal" font-style="normal" fill="#000000" fill-opacity="1">4k</text>
  <path d="M 817 9 L 817 441" fill="none" stroke-width="0.75" stroke="#000000" stroke-opacity="0.49804" stroke-linecap="butt" stroke-linejoin="round"/>
  <text x="811.5" y="453.7" font-family="Helvetica" font-size="10" font-weight="normal" font-style="normal" fill="#000000" fill-opacity="1">8k</text>
  <path d="M 876 9 L 876 441" fill="none" stroke-width="0.75" stroke="#000000" stroke-opacity="0.49804" stroke-linecap="butt" stroke-linejoin="round"/>
  <text x="867.5" y="453.7" font-family="Helvetica" font-size="10" font-weight="normal" font-style="normal" fill="#000000" fill-opacity="1">16k</text>
  <path d="M 935 9 L 935 441" fill="none" stroke-width="0.75" stroke="#000000" stroke-opacity="0.49804" stroke-linecap="butt" stroke-linejoin="round"/>
  <text x="926.5" y="453.7" font-family="Helvetica" font-size="10" font-weight="normal" font-style="normal" fill="#000000" fill-opacity="1">32k</text>
  <path d="M 994 9 L 994 441" fill="none" stroke-width="0.75" stroke="#000000" stroke-opacity="0.49804" stroke-linecap="butt" stroke-linejoin="round"/>
  <text x="985.5" y="453.7" font-family="Helvetica" font-size="10" font-weight="normal" font-style="normal" fill="#000000" fill-opacity="1">64k</text>
  <path d="M 1053 9 L 1053 441" fill="none" stroke-width="0.75" stroke="#000000" stroke-opacity="0.49804" stroke-linecap="butt" stroke-linejoin="round"/>
  <text x="1042" y="453.7" font-family="Helvetica" font-size="10" font-weight="normal" font-style="normal" fill="#000000" fill-opacity="1">128k</text>
  <path d="M 1112 9 L 1112 441" fill="none" stroke-width="0.75" stroke="#000000" stroke-opacity="0.49804" stroke-linecap="butt" stroke-linejoin="round"/>
  <text x="1101" y="453.7" font-family="Helvetica" font-size="10" font-weight="normal" font-style="normal" fill="#000000" fill-opacity="1">256k</text>
  <path d="M 1171 9 L 1171 441" fill="none" stroke-width="0.75" stroke="#000000" stroke-opacity="0.49804" stroke-linecap="butt" stroke-linejoin="round"/>
  <text x="1160" y="453.7" font-family="Helvetica" font-size="10" font-weight="normal" font-style="normal" fill="#000000" fill-opacity="1">512k</text>
  <path d="M 1230 9 L 1230 441" fill="none" stroke-width="0.75" stroke="#000000" stroke-opacity="0.49804" stroke-linecap="butt" stroke-linejoin="round"/>
  <text x="1223" y="453.7" font-family="Helvetica" font-size="10" font-weight="normal" font-style="normal" fill="#000000" fill-opacity="1">1M</text>
  <path d="M 50 441 L 1230 441" fill="none" stroke-width="0.75" stroke="#000000" stroke-opacity="0.49804" stroke-linecap="butt" stroke-linejoin="round"/>
  <text x="27" y="442.7" font-family="Helvetica" font-size="10" font-weight="normal" font-style="normal" fill="#000000" fill-opacity="1">1 ns</text>
  <text x="1236" y="442.7" font-family="Helvetica" font-size="10" font-weight="normal" font-style="normal" fill="#000000" fill-opacity="1">1 ns</text>
  <path d="M 50 297 L 1230 297" fill="none" stroke-width="0.75" stroke="#000000" stroke-opacity="0.49804" stroke-linecap="butt" stroke-linejoin="round"/>
  <text x="21" y="298.7" font-family="Helvetica" font-size="10" font-weight="normal" font-style="normal" fill="#000000" fill-opacity="1">10 ns</text>
  <text x="1236" y="298.7" font-family="Helvetica" font-size="10" font-weight="normal" font-style="normal" fill="#000000" fill-opacity="1">10 ns</text>
  <path d="M 50 153 L 1230 153" fill="none" stroke-width="0.75" stroke="#000000" stroke-opacity="0.49804" stroke-linecap="butt" stroke-linejoin="round"/>
  <text x="16" y="154.7" font-family="Helvetica" font-size="10" font-weight="normal" font-style="normal" fill="#000000" fill-opacity="1">100 ns</text>
  <text x="1236" y="154.7" font-family="Helvetica" font-size="10" font-weight="normal" font-style="normal" fill="#000000" fill-opacity="1">100 ns</text>
  <path d="M 50 9 L 1230 9" fill="none" stroke-width="0.75" stroke="#000000" stroke-opacity="0.49804" stroke-linecap="butt" stroke-linejoin="round"/>
  <text x="26" y="10.7" font-family="Helvetica" font-size="10" font-weight="normal" font-style="normal" fill="#000000" fill-opacity="1">1 µs</text>
  <text x="1236" y="10.7" font-family="Helvetica" font-size="10" font-weight="normal" font-style="normal" fill="#000000" fill-opacity="1">1 µs</text>
  <path d="M 50 397.65 L 1230 397.65" fill="none" stroke-width="0.5" stroke="#000000" stroke-opacity="0.25882" stroke-linecap="butt" stroke-linejoin="round" stroke-dasharray="6 3" stroke-dashoffset="0"/>
  <path d="M 50 354.3 L 1230 354.3" fill="none" stroke-width="0.5" stroke="#000000" stroke-opacity="0.25882" stroke-linecap="butt" stroke-linejoin="round" stroke-dasharray="6 3" stroke-dashoffset="0"/>
  <path d="M 50 310.96 L 1230 310.96" fill="none" stroke-width="0.5" stroke="#000000" stroke-opacity="0.25882" stroke-linecap="butt" stroke-linejoin="round" stroke-dasharray="6 3" stroke-dashoffset="0"/>
  <path d="M 50 267.61 L 1230 267.61" fill="none" stroke-width="0.5" stroke="#000000" stroke-opacity="0.25882" stroke-linecap="butt" stroke-linejoin="round" stroke-dasharray="6 3" stroke-dashoffset="0"/>
  <path d="M 50 224.26 L 1230 224.26" fill="none" stroke-width="0.5" stroke="#000000" stroke-opacity="0.25882" stroke-linecap="butt" stroke-linejoin="round" stroke-dasharray="6 3" stroke-dashoffset="0"/>
  <path d="M 50 180.91 L 1230 180.91" fill="none" stroke-width="0.5" stroke="#000000" stroke-opacity="0.25882" stroke-linecap="butt" stroke-linejoin="round" stroke-dasharray="6 3" stroke-dashoffset="0"/>
  <path d="M 50 137.56 L 1230 137.56" fill="none" stroke-width="0.5" stroke="#000000" stroke-opacity="0.25882" stroke-linecap="butt" stroke-linejoin="round" stroke-dasharray="6 3" stroke-dashoffset="0"/>
  <path d="M 50 94.213 L 1230 94.213" fill="none" stroke-width="0.5" stroke="#000000" stroke-opacity="0.25882" stroke-linecap="butt" stroke-linejoin="round" stroke-dasharray="6 3" stroke-dashoffset="0"/>
  <path d="M 50 50.865 L 1230 50.865" fill="none" stroke-width="0.5" stroke="#000000" stroke-opacity="0.25882" stroke-linecap="butt" stroke-linejoin="round" stroke-dasharray="6 3" stroke-dashoffset="0"/>
  <path d="M 74 33 L 74 88 L 327 88 L 327 33 z" fill="#FFFFFF" fill-opacity="1.0" stroke="none"/>
  <clipPath id="clip-0">
    <path d="M 50 9 L 50 441 L 1230 441 L 1230 9 z"/>
  </clipPath>
  <g clip-path="url(#clip-0)">
    <path d="M 50 71.828L 109 102.74L 143.51 113.75L 168 122.13L 186.99 124.12L 202.51 127.97L 215.63 126.31L 227 120.28L 245.99 126.34L 261.51 127.55L 274.63 128.07L 286 122.15L 304.99 126.69L 320.51 127.39L 333.63 127.26L 345 128.41L 363.99 127.89L 379.51 128.65L 392.63 129.46L 404 127.24L 422.99 127.25L 438.51 126.37L 451.63 124.92L 463 125.88L 481.99 122.93L 497.51 122.46L 510.63 123.29L 522 123.77L 540.99 123.15L 556.51 122.02L 569.63 121.61L 581 119.95L 599.99 120.58L 615.51 117.83L 628.63 117.43L 640 115.71L 658.99 116.46L 674.51 94.429L 687.63 96.287L 699 115.47L 717.99 112.38L 733.51 111.1L 746.63 111.6L 758 112.05L 776.99 109.62L 792.51 109.86L 805.63 108.1L 817 103.78L 835.99 107.86L 851.51 107.01L 864.63 107.31L 876 105.45L 894.99 105L 910.51 105.19L 923.63 101.14L 935 103.91L 953.99 103.39L 969.51 99.296L 982.63 101.07L 994 101.12L 1013 100.78L 1028.5 96.706L 1041.6 94.898L 1053 98.298L 1072 97.308L 1087.5 95.347L 1100.6 93.709L 1112 95.598L 1131 94.177L 1146.5 92.812L 1159.6 91.021L 1171 90.508L 1190 91.632L 1205.5 90L 1218.6 89.634L 1230 89.39L 1230 90.408L 1218.6 92.365L 1205.5 93.327L 1190 92.679L 1171 93.395L 1159.6 92.376L 1146.5 95.155L 1131 94.263L 1112 95.957L 1100.6 96.883L 1087.5 96.933L 1072 98.734L 1053 99.413L 1041.6 99.475L 1028.5 101.45L 1013 101.85L 994 101.52L 982.63 102.3L 969.51 102L 953.99 105.19L 935 104.63L 923.63 106.51L 910.51 106.85L 894.99 106.06L 876 107.52L 864.63 108.23L 851.51 108.13L 835.99 108.65L 817 111.74L 805.63 111.13L 792.51 111.37L 776.99 111.82L 758 112.23L 746.63 112.32L 733.51 113.51L 717.99 115.77L 699 115.62L 687.63 116.36L 674.51 115.96L 658.99 117.57L 640 119.28L 628.63 118.62L 615.51 119.68L 599.99 121.47L 581 122.91L 569.63 122.36L 556.51 122.61L 540.99 124.52L 522 123.87L 510.63 125.16L 497.51 127.93L 481.99 128.41L 463 127.01L 451.63 128.46L 438.51 127.2L 422.99 127.48L 404 128.11L 392.63 130.69L 379.51 128.69L 363.99 128.77L 345 128.42L 333.63 128.57L 320.51 128.66L 304.99 127.33L 286 122.25L 274.63 128.77L 261.51 128.14L 245.99 126.69L 227 121.21L 215.63 130.69L 202.51 129.49L 186.99 124.56L 168 125.09L 143.51 115.19L 109 105.13L 50 72.1" fill="#007AFF" fill-opacity="0.30196078431372547" stroke="none"/>
    <path d="M 50 144.04L 109 191.13L 143.51 214.6L 168 230.75L 186.99 222.55L 202.51 253.82L 215.63 263.4L 227 273.21L 245.99 287.6L 261.51 297.88L 274.63 306.25L 286 314.39L 304.99 326.18L 320.51 335.57L 333.63 344L 345 331.43L 363.99 338.15L 379.51 348.86L 392.63 353.92L 404 352.44L 422.99 360.17L 438.51 366.07L 451.63 368.88L 463 378.95L 481.99 385.75L 497.51 389.6L 510.63 392.32L 522 395.45L 540.99 399.07L 556.51 402.5L 569.63 400.54L 581 405.73L 599.99 406.08L 615.51 407.38L 628.63 408.54L 640 409.46L 658.99 410.15L 674.51 411.77L 687.63 412.34L 699 412.42L 717.99 413.43L 733.51 413.73L 746.63 413.89L 758 414.01L 776.99 414.29L 792.51 414.76L 805.63 413.54L 817 354.99L 835.99 411.91L 851.51 411.81L 864.63 410.89L 876 398.42L 894.99 411.27L 910.51 411.83L 923.63 357.31L 935 387.45L 953.99 398.05L 969.51 402.12L 982.63 409.93L 994 407.8L 1013 403.59L 1028.5 381.05L 1041.6 408.48L 1053 407.5L 1072 402.99L 1087.5 392.02L 1100.6 387.14L 1112 388.73L 1131 389.24L 1146.5 387.44L 1159.6 387.2L 1171 388.82L 1190 388.8L 1205.5 386.04L 1218.6 382.84L 1230 401.65L 1230 402.82L 1218.6 388.21L 1205.5 386.83L 1190 389.81L 1171 390.29L 1159.6 392.7L 1146.5 395.43L 1131 396.67L 1112 398.43L 1100.6 394.47L 1087.5 393.15L 1072 406.15L 1053 407.9L 1041.6 408.9L 1028.5 412.31L 1013 411.84L 994 410.79L 982.63 412.47L 969.51 411.54L 953.99 412.26L 935 412.19L 923.63 412.16L 910.51 411.97L 894.99 411.88L 876 411.25L 864.63 411.32L 851.51 412.52L 835.99 413.53L 817 415.06L 805.63 415.18L 792.51 414.96L 776.99 414.62L 758 414.2L 746.63 414.06L 733.51 413.86L 717.99 413.47L 699 412.67L 687.63 412.41L 674.51 411.79L 658.99 411.79L 640 409.65L 628.63 408.81L 615.51 408.45L 599.99 406.35L 581 405.84L 569.63 405.33L 556.51 402.71L 540.99 401.34L 522 398.27L 510.63 393.66L 497.51 390.76L 481.99 385.75L 463 381.3L 451.63 369.45L 438.51 367.02L 422.99 361.73L 404 352.44L 392.63 354.14L 379.51 349.15L 363.99 343.42L 345 331.69L 333.63 344.38L 320.51 336.36L 304.99 326.19L 286 315.21L 274.63 307.07L 261.51 297.88L 245.99 288.04L 227 273.63L 215.63 265.95L 202.51 257.69L 186.99 224.1L 168 231.18L 143.51 215.04L 109 191.58L 50 144.04" fill="#FF3B30" fill-opacity="0.30196078431372547" stroke="none"/>
    <path d="M 50 72.029L 109 104.5L 143.51 114.81L 168 124.3L 186.99 124.44L 202.51 129.09L 215.63 129.52L 227 120.97L 245.99 126.6L 261.51 127.98L 274.63 128.59L 286 122.22L 304.99 127.16L 320.51 128.32L 333.63 128.23L 345 128.42L 363.99 128.54L 379.51 128.68L 392.63 130.37L 404 127.88L 422.99 127.42L 438.51 126.98L 451.63 127.51L 463 126.71L 481.99 126.93L 497.51 126.46L 510.63 124.67L 522 123.84L 540.99 124.16L 556.51 122.46L 569.63 122.16L 581 122.12L 599.99 121.24L 615.51 119.19L 628.63 118.31L 640 118.32L 658.99 117.28L 674.51 109.58L 687.63 110.46L 699 115.58L 717.99 114.87L 733.51 112.87L 746.63 112.13L 758 112.18L 776.99 111.24L 792.51 110.97L 805.63 110.32L 817 109.56L 835.99 108.44L 851.51 107.84L 864.63 107.99L 876 106.97L 894.99 105.78L 910.51 106.41L 923.63 105.06L 935 104.44L 953.99 104.71L 969.51 101.28L 982.63 101.97L 994 101.42L 1013 101.57L 1028.5 100.18L 1041.6 98.246L 1053 99.12L 1072 98.358L 1087.5 96.515L 1100.6 96.038L 1112 95.863L 1131 94.24L 1146.5 94.534L 1159.6 92.019L 1171 92.628L 1190 92.404L 1205.5 92.441L 1218.6 91.64L 1230 90.14" fill="none" stroke-width="4" stroke="#007AFF" stroke-opacity="1" stroke-linecap="round" stroke-linejoin="round"/>
    <path d="M 50 144.04L 109 191.46L 143.51 214.92L 168 231.07L 186.99 223.69L 202.51 256.65L 215.63 265.28L 227 273.52L 245.99 287.92L 261.51 297.88L 274.63 306.86L 286 314.99L 304.99 326.19L 320.51 336.15L 333.63 344.28L 345 331.62L 363.99 342L 379.51 349.07L 392.63 354.08L 404 352.44L 422.99 361.32L 438.51 366.77L 451.63 369.3L 463 380.68L 481.99 385.75L 497.51 390.45L 510.63 393.31L 522 397.52L 540.99 400.74L 556.51 402.65L 569.63 404.04L 581 405.81L 599.99 406.28L 615.51 408.16L 628.63 408.74L 640 409.6L 658.99 411.36L 674.51 411.78L 687.63 412.4L 699 412.6L 717.99 413.46L 733.51 413.83L 746.63 414.02L 758 414.15L 776.99 414.53L 792.51 414.91L 805.63 414.75L 817 393.07L 835.99 413.11L 851.51 412.34L 864.63 411.21L 876 407.64L 894.99 411.72L 910.51 411.93L 923.63 392.62L 935 404.72L 953.99 408.22L 969.51 408.94L 982.63 411.8L 994 410L 1013 409.58L 1028.5 402.53L 1041.6 408.79L 1053 407.8L 1072 405.31L 1087.5 392.85L 1100.6 392.47L 1112 395.75L 1131 394.64L 1146.5 393.24L 1159.6 391.21L 1171 389.91L 1190 389.54L 1205.5 386.63L 1218.6 386.76L 1230 402.51" fill="none" stroke-width="4" stroke="#FF3B30" stroke-opacity="1" stroke-linecap="round" stroke-linejoin="round"/>
    <path d="M 50 72.029L 109 104.5L 143.51 114.81L 168 124.3L 186.99 124.44L 202.51 129.09L 215.63 129.52L 227 120.97L 245.99 126.6L 261.51 127.98L 274.63 128.59L 286 122.22L 304.99 127.16L 320.51 128.32L 333.63 128.23L 345 128.42L 363.99 128.54L 379.51 128.68L 392.63 130.37L 404 127.88L 422.99 127.42L 438.51 126.98L 451.63 127.51L 463 126.71L 481.99 126.93L 497.51 126.46L 510.63 124.67L 522 123.84L 540.99 124.16L 556.51 122.46L 569.63 122.16L 581 122.12L 599.99 121.24L 615.51 119.19L 628.63 118.31L 640 118.32L 658.99 117.28L 674.51 109.58L 687.63 110.46L 699 115.58L 717.99 114.87L 733.51 112.87L 746.63 112.13L 758 112.18L 776.99 111.24L 792.51 110.97L 805.63 110.32L 817 109.56L 835.99 108.44L 851.51 107.84L 864.63 107.99L 876 106.97L 894.99 105.78L 910.51 106.41L 923.63 105.06L 935 104.44L 953.99 104.71L 969.51 101.28L 982.63 101.97L 994 101.42L 1013 101.57L 1028.5 100.18L 1041.6 98.246L 1053 99.12L 1072 98.358L 1087.5 96.515L 1100.6 96.038L 1112 95.863L 1131 94.24L 1146.5 94.534L 1159.6 92.019L 1171 92.628L 1190 92.404L 1205.5 92.441L 1218.6 91.64L 1230 90.14" fill="none" stroke-width="0.5" stroke="#000000" stroke-opacity="0.30196" stroke-linecap="round" stroke-linejoin="round"/>
    <path d="M 50 144.04L 109 191.46L 143.51 214.92L 168 231.07L 186.99 223.69L 202.51 256.65L 215.63 265.28L 227 273.52L 245.99 287.92L 261.51 297.88L 274.63 306.86L 286 314.99L 304.99 326.19L 320.51 336.15L 333.63 344.28L 345 331.62L 363.99 342L 379.51 349.07L 392.63 354.08L 404 352.44L 422.99 361.32L 438.51 366.77L 451.63 369.3L 463 380.68L 481.99 385.75L 497.51 390.45L 510.63 393.31L 522 397.52L 540.99 400.74L 556.51 402.65L 569.63 404.04L 581 405.81L 599.99 406.28L 615.51 408.16L 628.63 408.74L 640 409.6L 658.99 411.36L 674.51 411.78L 687.63 412.4L 699 412.6L 717.99 413.46L 733.51 413.83L 746.63 414.02L 758 414.15L 776.99 414.53L 792.51 414.91L 805.63 414.75L 817 393.07L 835.99 413.11L 851.51 412.34L 864.63 411.21L 876 407.64L 894.99 411.72L 910.51 411.93L 923.63 392.62L 935 404.72L 953.99 408.22L 969.51 408.94L 982.63 411.8L 994 410L 1013 409.58L 1028.5 402.53L 1041.6 408.79L 1053 407.8L 1072 405.31L 1087.5 392.85L 1100.6 392.47L 1112 395.75L 1131 394.64L 1146.5 393.24L 1159.6 391.21L 1171 389.91L 1190 389.54L 1205.5 386.63L 1218.6 386.76L 1230 402.51" fill="none" stroke-width="0.5" stroke="#000000" stroke-opacity="0.30196" stroke-linecap="round" stroke-linejoin="round"/>
  </g>
  <path d="M 74 33 L 74 88 L 327 88 L 327 33 z" fill="#FFFFFF" fill-opacity="0.7019607843137254" stroke-width="0.5" stroke="#000000" stroke-opacity="1" stroke-linecap="round" stroke-linejoin="round"/>
  <path d="M 88 52 L 108 52" fill="none" stroke-width="4" stroke="#FF3B30" stroke-opacity="1" stroke-linecap="round" stroke-linejoin="round"/>
  <path d="M 88 52 L 108 52" fill="none" stroke-width="0.5" stroke="#000000" stroke-opacity="0.30196" stroke-linecap="round" stroke-linejoin="round"/>
  <text x="119" y="56.17" font-family="Menlo" font-size="12" font-weight="normal" font-style="normal" fill="#000000" fill-opacity="1">Array&lt;Int&gt; kalimba fast</text>
  <path d="M 88 69 L 108 69" fill="none" stroke-width="4" stroke="#007AFF" stroke-opacity="1" stroke-linecap="round" stroke-linejoin="round"/>
  <path d="M 88 69 L 108 69" fill="none" stroke-width="0.5" stroke="#000000" stroke-opacity="0.30196" stroke-linecap="round" stroke-linejoin="round"/>
  <text x="119" y="73.17" font-family="Menlo" font-size="12" font-weight="normal" font-style="normal" fill="#000000" fill-opacity="1">TreeArray&lt;Int&gt; kalimba fast</text>
  <path d="M 50 9 L 50 441 L 1230 441 L 1230 9 z" fill="none" stroke-width="0.5" stroke="#000000" stroke-opacity="1" stroke-linecap="round" stroke-linejoin="round"/>
</svg>
