<!DOCTYPE svg PUBLIC "-//W3C//DTD SVG 1.1//EN" "http://www.w3.org/Graphics/SVG/1.1/DTD/svg11.dtd">
<svg width="1280.0px" height="480.0px" viewBox="0.0 0.0 1280.0 480.0" xmlns="http://www.w3.org/2000/svg" xmlns:xlink="http://www.w3.org/1999/xlink" version="1.1">
  <path d="M 0 0 L 0 480 L 1280 480 L 1280 0 z" fill="#FFFFFF" fill-opacity="1.0" stroke="none"/>
  <text x="50" y="468.7" font-family="Helvetica" font-size="10" font-weight="normal" font-style="normal" fill="#000000" fill-opacity="1">Average per-element processing time over input size (bands: min, mean, mean + 2stddev)</text>
  <a xlink:href="https://github.com/apple/swift-collections-benchmark"><text x="1107" y="468.7" font-family="Helvetica" font-size="10" font-weight="normal" font-style="normal" fill="#000000" fill-opacity="1">swift-collections-benchmark</text></a>
  <path d="M 50 9 L 50 441" fill="none" stroke-width="0.75" stroke="#000000" stroke-opacity="0.49804" stroke-linecap="butt" stroke-linejoin="round"/>
  <text x="47" y="453.7" font-family="Helvetica" font-size="10" font-weight="normal" font-style="normal" fill="#000000" fill-opacity="1">1</text>
  <path d="M 109 9 L 109 441" fill="none" stroke-width="0.75" stroke="#000000" stroke-opacity="0.49804" stroke-linecap="butt" stroke-linejoin="round"/>
  <text x="106" y="453.7" font-family="Helvetica" font-size="10" font-weight="normal" font-style="normal" fill="#000000" fill-opacity="1">2</text>
  <path d="M 168 9 L 168 441" fill="none" stroke-width="0.75" stroke="#000000" stroke-opacity="0.49804" stroke-linecap="butt" stroke-linejoin="round"/>
  <text x="165" y="453.7" font-family="Helvetica" font-size="10" font-weight="normal" font-style="normal" fill="#000000" fill-opacity="1">4</text>
  <path d="M 227 9 L 227 441" fill="none" stroke-width="0.75" stroke="#000000" stroke-opacity="0.49804" stroke-linecap="butt" stroke-linejoin="round"/>
  <text x="224" y="453.7" font-family="Helvetica" font-size="10" font-weight="normal" font-style="normal" fill="#000000" fill-opacity="1">8</text>
  <path d="M 286 9 L 286 441" fill="none" stroke-width="0.75" stroke="#000000" stroke-opacity="0.49804" stroke-linecap="butt" stroke-linejoin="round"/>
  <text x="280" y="453.7" font-family="Helvetica" font-size="10" font-weight="normal" font-style="normal" fill="#000000" fill-opacity="1">16</text>
  <path d="M 345 9 L 345 441" fill="none" stroke-width="0.75" stroke="#000000" stroke-opacity="0.49804" stroke-linecap="butt" stroke-linejoin="round"/>
  <text x="339" y="453.7" font-family="Helvetica" font-size="10" font-weight="normal" font-style="normal" fill="#000000" fill-opacity="1">32</text>
  <path d="M 404 9 L 404 441" fill="none" stroke-width="0.75" stroke="#000000" stroke-opacity="0.49804" stroke-linecap="butt" stroke-linejoin="round"/>
  <text x="398" y="453.7" font-family="Helvetica" font-size="10" font-weight="normal" font-style="normal" fill="#000000" fill-opacity="1">64</text>
  <path d="M 463 9 L 463 441" fill="none" stroke-width="0.75" stroke="#000000" stroke-opacity="0.49804" stroke-linecap="butt" stroke-linejoin="round"/>
  <text x="454.5" y="453.7" font-family="Helvetica" font-size="10" font-weight="normal" font-style="normal" fill="#000000" fill-opacity="1">128</text>
  <path d="M 522 9 L 522 441" fill="none" stroke-width="0.75" stroke="#000000" stroke-opacity="0.49804" stroke-linecap="butt" stroke-linejoin="round"/>
  <text x="513.5" y="453.7" font-family="Helvetica" font-size="10" font-weight="normal" font-style="normal" fill="#000000" fill-opacity="1">256</text>
  <path d="M 581 9 L 581 441" fill="none" stroke-width="0.75" stroke="#000000" stroke-opacity="0.49804" stroke-linecap="butt" stroke-linejoin="round"/>
  <text x="572.5" y="453.7" font-family="Helvetica" font-size="10" font-weight="normal" font-style="normal" fill="#000000" fill-opacity="1">512</text>
  <path d="M 640 9 L 640 441" fill="none" stroke-width="0.75" stroke="#000000" stroke-opacity="0.49804" stroke-linecap="butt" stroke-linejoin="round"/>
  <text x="634.5" y="453.7" font-family="Helvetica" font-size="10" font-weight="normal" font-style="normal" fill="#000000" fill-opacity="1">1k</text>
  <path d="M 699 9 L 699 441" fill="none" stroke-width="0.75" stroke="#000000" stroke-opacity="0.49804" stroke-linecap="butt" stroke-linejoin="round"/>
  <text x="693.5" y="453.7" font-family="Helvetica" font-size="10" font-weight="normal" font-style="normal" fill="#000000" fill-opacity="1">2k</text>
  <path d="M 758 9 L 758 441" fill="none" stroke-width="0.75" stroke="#000000" stroke-opacity="0.49804" stroke-linecap="butt" stroke-linejoin="round"/>
  <text x="752.5" y="453.7" font-family="Helvetica" font-size="10" font-weight="normal" font-style="normal" fill="#000000" fill-opacity="1">4k</text>
  <path d="M 817 9 L 817 441" fill="none" stroke-width="0.75" stroke="#000000" stroke-opacity="0.49804" stroke-linecap="butt" stroke-linejoin="round"/>
  <text x="811.5" y="453.7" font-family="Helvetica" font-size="10" font-weight="normal" font-style="normal" fill="#000000" fill-opacity="1">8k</text>
  <path d="M 876 9 L 876 441" fill="none" stroke-width="0.75" stroke="#000000" stroke-opacity="0.49804" stroke-linecap="butt" stroke-linejoin="round"/>
  <text x="867.5" y="453.7" font-family="Helvetica" font-size="10" font-weight="normal" font-style="normal" fill="#000000" fill-opacity="1">16k</text>
  <path d="M 935 9 L 935 441" fill="none" stroke-width="0.75" stroke="#000000" stroke-opacity="0.49804" stroke-linecap="butt" stroke-linejoin="round"/>
  <text x="926.5" y="453.7" font-family="Helvetica" font-size="10" font-weight="normal" font-style="normal" fill="#000000" fill-opacity="1">32k</text>
  <path d="M 994 9 L 994 441" fill="none" stroke-width="0.75" stroke="#000000" stroke-opacity="0.49804" stroke-linecap="butt" stroke-linejoin="round"/>
  <text x="985.5" y="453.7" font-family="Helvetica" font-size="10" font-weight="normal" font-style="normal" fill="#000000" fill-opacity="1">64k</text>
  <path d="M 1053 9 L 1053 441" fill="none" stroke-width="0.75" stroke="#000000" stroke-opacity="0.49804" stroke-linecap="butt" stroke-linejoin="round"/>
  <text x="1042" y="453.7" font-family="Helvetica" font-size="10" font-weight="normal" font-style="normal" fill="#000000" fill-opacity="1">128k</text>
  <path d="M 1112 9 L 1112 441" fill="none" stroke-width="0.75" stroke="#000000" stroke-opacity="0.49804" stroke-linecap="butt" stroke-linejoin="round"/>
  <text x="1101" y="453.7" font-family="Helvetica" font-size="10" font-weight="normal" font-style="normal" fill="#000000" fill-opacity="1">256k</text>
  <path d="M 1171 9 L 1171 441" fill="none" stroke-width="0.75" stroke="#000000" stroke-opacity="0.49804" stroke-linecap="butt" stroke-linejoin="round"/>
  <text x="1160" y="453.7" font-family="Helvetica" font-size="10" font-weight="normal" font-style="normal" fill="#000000" fill-opacity="1">512k</text>
  <path d="M 1230 9 L 1230 441" fill="none" stroke-width="0.75" stroke="#000000" stroke-opacity="0.49804" stroke-linecap="butt" stroke-linejoin="round"/>
  <text x="1223" y="453.7" font-family="Helvetica" font-size="10" font-weight="normal" font-style="normal" fill="#000000" fill-opacity="1">1M</text>
  <path d="M 50 441 L 1230 441" fill="none" stroke-width="0.75" stroke="#000000" stroke-opacity="0.49804" stroke-linecap="butt" stroke-linejoin="round"/>
  <text x="27" y="442.7" font-family="Helvetica" font-size="10" font-weight="normal" font-style="normal" fill="#000000" fill-opacity="1">1 ns</text>
  <text x="1236" y="442.7" font-family="Helvetica" font-size="10" font-weight="normal" font-style="normal" fill="#000000" fill-opacity="1">1 ns</text>
  <path d="M 50 297 L 1230 297" fill="none" stroke-width="0.75" stroke="#000000" stroke-opacity="0.49804" stroke-linecap="butt" stroke-linejoin="round"/>
  <text x="21" y="298.7" font-family="Helvetica" font-size="10" font-weight="normal" font-style="normal" fill="#000000" fill-opacity="1">10 ns</text>
  <text x="1236" y="298.7" font-family="Helvetica" font-size="10" font-weight="normal" font-style="normal" fill="#000000" fill-opacity="1">10 ns</text>
  <path d="M 50 153 L 1230 153" fill="none" stroke-width="0.75" stroke="#000000" stroke-opacity="0.49804" stroke-linecap="butt" stroke-linejoin="round"/>
  <text x="16" y="154.7" font-family="Helvetica" font-size="10" font-weight="normal" font-style="normal" fill="#000000" fill-opacity="1">100 ns</text>
  <text x="1236" y="154.7" font-family="Helvetica" font-size="10" font-weight="normal" font-style="normal" fill="#000000" fill-opacity="1">100 ns</text>
  <path d="M 50 9 L 1230 9" fill="none" stroke-width="0.75" stroke="#000000" stroke-opacity="0.49804" stroke-linecap="butt" stroke-linejoin="round"/>
  <text x="26" y="10.7" font-family="Helvetica" font-size="10" font-weight="normal" font-style="normal" fill="#000000" fill-opacity="1">1 µs</text>
  <text x="1236" y="10.7" font-family="Helvetica" font-size="10" font-weight="normal" font-style="normal" fill="#000000" fill-opacity="1">1 µs</text>
  <path d="M 50 397.65 L 1230 397.65" fill="none" stroke-width="0.5" stroke="#000000" stroke-opacity="0.25882" stroke-linecap="butt" stroke-linejoin="round" stroke-dasharray="6 3" stroke-dashoffset="0"/>
  <path d="M 50 354.3 L 1230 354.3" fill="none" stroke-width="0.5" stroke="#000000" stroke-opacity="0.25882" stroke-linecap="butt" stroke-linejoin="round" stroke-dasharray="6 3" stroke-dashoffset="0"/>
  <path d="M 50 310.96 L 1230 310.96" fill="none" stroke-width="0.5" stroke="#000000" stroke-opacity="0.25882" stroke-linecap="butt" stroke-linejoin="round" stroke-dasharray="6 3" stroke-dashoffset="0"/>
  <path d="M 50 267.61 L 1230 267.61" fill="none" stroke-width="0.5" stroke="#000000" stroke-opacity="0.25882" stroke-linecap="butt" stroke-linejoin="round" stroke-dasharray="6 3" stroke-dashoffset="0"/>
  <path d="M 50 224.26 L 1230 224.26" fill="none" stroke-width="0.5" stroke="#000000" stroke-opacity="0.25882" stroke-linecap="butt" stroke-linejoin="round" stroke-dasharray="6 3" stroke-dashoffset="0"/>
  <path d="M 50 180.91 L 1230 180.91" fill="none" stroke-width="0.5" stroke="#000000" stroke-opacity="0.25882" stroke-linecap="butt" stroke-linejoin="round" stroke-dasharray="6 3" stroke-dashoffset="0"/>
  <path d="M 50 137.56 L 1230 137.56" fill="none" stroke-width="0.5" stroke="#000000" stroke-opacity="0.25882" stroke-linecap="butt" stroke-linejoin="round" stroke-dasharray="6 3" stroke-dashoffset="0"/>
  <path d="M 50 94.213 L 1230 94.213" fill="none" stroke-width="0.5" stroke="#000000" stroke-opacity="0.25882" stroke-linecap="butt" stroke-linejoin="round" stroke-dasharray="6 3" stroke-dashoffset="0"/>
  <path d="M 50 50.865 L 1230 50.865" fill="none" stroke-width="0.5" stroke="#000000" stroke-opacity="0.25882" stroke-linecap="butt" stroke-linejoin="round" stroke-dasharray="6 3" stroke-dashoffset="0"/>
  <path d="M 74 33 L 74 88 L 327 88 L 327 33 z" fill="#FFFFFF" fill-opacity="1.0" stroke="none"/>
  <clipPath id="clip-0">
    <path d="M 50 9 L 50 441 L 1230 441 L 1230 9 z"/>
  </clipPath>
  <g clip-path="url(#clip-0)">
    <path d="M 50 67.621L 109 98.994L 143.51 109.44L 168 118.39L 186.99 120.53L 202.51 125.54L 215.63 125.57L 227 115.35L 245.99 122.6L 261.51 123.3L 274.63 128.39L 286 120.46L 304.99 123.75L 320.51 125.71L 333.63 124.15L 345 124.53L 363.99 124.16L 379.51 124.17L 392.63 122.86L 404 123.44L 422.99 123.34L 438.51 125.74L 451.63 125.37L 463 128.05L 481.99 124.53L 497.51 124.78L 510.63 124.28L 522 122.66L 540.99 120.39L 556.51 120.56L 569.63 114.54L 581 120.3L 599.99 117.79L 615.51 118.76L 628.63 116.27L 640 115.75L 658.99 115.51L 674.51 114.61L 687.63 97.749L 699 113.54L 717.99 99.939L 733.51 110.58L 746.63 111.41L 758 108.31L 776.99 109.21L 792.51 110.28L 805.63 108.92L 817 102.25L 835.99 107.63L 851.51 108.12L 864.63 107.2L 876 104.19L 894.99 105L 910.51 104.31L 923.63 101.6L 935 103.55L 953.99 103.2L 969.51 100.32L 982.63 97.054L 994 98.7L 1013 99.057L 1028.5 98.372L 1041.6 96.375L 1053 97.375L 1072 97.491L 1087.5 95.863L 1100.6 95.658L 1112 93.828L 1131 91.421L 1146.5 91.866L 1159.6 90.655L 1171 90.978L 1190 89.761L 1205.5 88.672L 1218.6 90.02L 1230 89.445L 1230 90.046L 1218.6 91.053L 1205.5 91.881L 1190 91.86L 1171 92.556L 1159.6 92.762L 1146.5 93.87L 1131 95.503L 1112 96.582L 1100.6 96.141L 1087.5 96.17L 1072 98.097L 1053 98.539L 1041.6 101.41L 1028.5 99.167L 1013 100.16L 994 102.88L 982.63 101.27L 969.51 101.81L 953.99 103.25L 935 104.45L 923.63 105.88L 910.51 106.98L 894.99 106.33L 876 108.27L 864.63 108.27L 851.51 109.21L 835.99 109.5L 817 109.99L 805.63 109.28L 792.51 111.48L 776.99 110.89L 758 112.54L 746.63 113.52L 733.51 113.65L 717.99 113.84L 699 115.68L 687.63 115.31L 674.51 115.94L 658.99 117.16L 640 118.54L 628.63 118.91L 615.51 120.16L 599.99 122.06L 581 120.81L 569.63 122.22L 556.51 123.59L 540.99 124.42L 522 124.18L 510.63 124.42L 497.51 125.61L 481.99 125.82L 463 128.57L 451.63 125.73L 438.51 126.21L 422.99 126.81L 404 127.12L 392.63 128.77L 379.51 127.4L 363.99 128.12L 345 127.79L 333.63 128L 320.51 127.35L 304.99 126.82L 286 122.08L 274.63 128.44L 261.51 127.72L 245.99 126.38L 227 120.51L 215.63 128.34L 202.51 128.96L 186.99 124.89L 168 123.16L 143.51 113.55L 109 104.95L 50 72.244" fill="#007AFF" fill-opacity="0.30196078431372547" stroke="none"/>
    <path d="M 50 144.04L 109 191.13L 143.51 214.6L 168 230.75L 186.99 222.55L 202.51 253.82L 215.63 263.4L 227 273.21L 245.99 287.6L 261.51 297.88L 274.63 306.25L 286 314.39L 304.99 326.18L 320.51 335.57L 333.63 344L 345 331.43L 363.99 338.15L 379.51 348.86L 392.63 353.92L 404 352.44L 422.99 360.17L 438.51 366.07L 451.63 368.88L 463 378.95L 481.99 385.75L 497.51 389.6L 510.63 392.32L 522 395.45L 540.99 399.07L 556.51 402.5L 569.63 400.54L 581 405.73L 599.99 406.08L 615.51 407.38L 628.63 408.54L 640 409.46L 658.99 410.15L 674.51 411.77L 687.63 412.34L 699 412.42L 717.99 413.43L 733.51 413.73L 746.63 413.89L 758 414.01L 776.99 414.29L 792.51 414.76L 805.63 413.54L 817 354.99L 835.99 411.91L 851.51 411.81L 864.63 410.89L 876 398.42L 894.99 411.27L 910.51 411.83L 923.63 357.31L 935 387.45L 953.99 398.05L 969.51 402.12L 982.63 409.93L 994 407.8L 1013 403.59L 1028.5 381.05L 1041.6 408.48L 1053 407.5L 1072 402.99L 1087.5 392.02L 1100.6 387.14L 1112 388.73L 1131 389.24L 1146.5 387.44L 1159.6 387.2L 1171 388.82L 1190 388.8L 1205.5 386.04L 1218.6 382.84L 1230 401.65L 1230 402.82L 1218.6 388.21L 1205.5 386.83L 1190 389.81L 1171 390.29L 1159.6 392.7L 1146.5 395.43L 1131 396.67L 1112 398.43L 1100.6 394.47L 1087.5 393.15L 1072 406.15L 1053 407.9L 1041.6 408.9L 1028.5 412.31L 1013 411.84L 994 410.79L 982.63 412.47L 969.51 411.54L 953.99 412.26L 935 412.19L 923.63 412.16L 910.51 411.97L 894.99 411.88L 876 411.25L 864.63 411.32L 851.51 412.52L 835.99 413.53L 817 415.06L 805.63 415.18L 792.51 414.96L 776.99 414.62L 758 414.2L 746.63 414.06L 733.51 413.86L 717.99 413.47L 699 412.67L 687.63 412.41L 674.51 411.79L 658.99 411.79L 640 409.65L 628.63 408.81L 615.51 408.45L 599.99 406.35L 581 405.84L 569.63 405.33L 556.51 402.71L 540.99 401.34L 522 398.27L 510.63 393.66L 497.51 390.76L 481.99 385.75L 463 381.3L 451.63 369.45L 438.51 367.02L 422.99 361.73L 404 352.44L 392.63 354.14L 379.51 349.15L 363.99 343.42L 345 331.69L 333.63 344.38L 320.51 336.36L 304.99 326.19L 286 315.21L 274.63 307.07L 261.51 297.88L 245.99 288.04L 227 273.63L 215.63 265.95L 202.51 257.69L 186.99 224.1L 168 231.18L 143.51 215.04L 109 191.58L 50 144.04" fill="#FF3B30" fill-opacity="0.30196078431372547" stroke="none"/>
    <path d="M 50 71.003L 109 103.34L 143.51 112.45L 168 121.88L 186.99 123.72L 202.51 128.05L 215.63 127.61L 227 119.12L 245.99 125.37L 261.51 126.53L 274.63 128.43L 286 121.65L 304.99 126.01L 320.51 126.92L 333.63 126.97L 345 126.92L 363.99 127.06L 379.51 126.54L 392.63 127.17L 404 126.14L 422.99 125.89L 438.51 126.08L 451.63 125.63L 463 128.44L 481.99 125.48L 497.51 125.4L 510.63 124.39L 522 123.78L 540.99 123.34L 556.51 122.78L 569.63 120.12L 581 120.68L 599.99 120.92L 615.51 119.79L 628.63 118.21L 640 117.8L 658.99 116.72L 674.51 115.59L 687.63 110.23L 699 115.12L 717.99 109.9L 733.51 112.83L 746.63 112.96L 758 111.41L 776.99 110.45L 792.51 111.17L 805.63 109.19L 817 107.88L 835.99 109L 851.51 108.92L 864.63 107.99L 876 107.18L 894.99 105.98L 910.51 106.27L 923.63 104.73L 935 104.21L 953.99 103.24L 969.51 101.42L 982.63 100.14L 994 101.76L 1013 99.87L 1028.5 98.958L 1041.6 100.06L 1053 98.233L 1072 97.938L 1087.5 96.09L 1100.6 96.015L 1112 95.851L 1131 94.411L 1146.5 93.34L 1159.6 92.205L 1171 92.14L 1190 91.305L 1205.5 91.027L 1218.6 90.781L 1230 89.888" fill="none" stroke-width="4" stroke="#007AFF" stroke-opacity="1" stroke-linecap="round" stroke-linejoin="round"/>
    <path d="M 50 144.04L 109 191.46L 143.51 214.92L 168 231.07L 186.99 223.69L 202.51 256.65L 215.63 265.28L 227 273.52L 245.99 287.92L 261.51 297.88L 274.63 306.86L 286 314.99L 304.99 326.19L 320.51 336.15L 333.63 344.28L 345 331.62L 363.99 342L 379.51 349.07L 392.63 354.08L 404 352.44L 422.99 361.32L 438.51 366.77L 451.63 369.3L 463 380.68L 481.99 385.75L 497.51 390.45L 510.63 393.31L 522 397.52L 540.99 400.74L 556.51 402.65L 569.63 404.04L 581 405.81L 599.99 406.28L 615.51 408.16L 628.63 408.74L 640 409.6L 658.99 411.36L 674.51 411.78L 687.63 412.4L 699 412.6L 717.99 413.46L 733.51 413.83L 746.63 414.02L 758 414.15L 776.99 414.53L 792.51 414.91L 805.63 414.75L 817 393.07L 835.99 413.11L 851.51 412.34L 864.63 411.21L 876 407.64L 894.99 411.72L 910.51 411.93L 923.63 392.62L 935 404.72L 953.99 408.22L 969.51 408.94L 982.63 411.8L 994 410L 1013 409.58L 1028.5 402.53L 1041.6 408.79L 1053 407.8L 1072 405.31L 1087.5 392.85L 1100.6 392.47L 1112 395.75L 1131 394.64L 1146.5 393.24L 1159.6 391.21L 1171 389.91L 1190 389.54L 1205.5 386.63L 1218.6 386.76L 1230 402.51" fill="none" stroke-width="4" stroke="#FF3B30" stroke-opacity="1" stroke-linecap="round" stroke-linejoin="round"/>
    <path d="M 50 71.003L 109 103.34L 143.51 112.45L 168 121.88L 186.99 123.72L 202.51 128.05L 215.63 127.61L 227 119.12L 245.99 125.37L 261.51 126.53L 274.63 128.43L 286 121.65L 304.99 126.01L 320.51 126.92L 333.63 126.97L 345 126.92L 363.99 127.06L 379.51 126.54L 392.63 127.17L 404 126.14L 422.99 125.89L 438.51 126.08L 451.63 125.63L 463 128.44L 481.99 125.48L 497.51 125.4L 510.63 124.39L 522 123.78L 540.99 123.34L 556.51 122.78L 569.63 120.12L 581 120.68L 599.99 120.92L 615.51 119.79L 628.63 118.21L 640 117.8L 658.99 116.72L 674.51 115.59L 687.63 110.23L 699 115.12L 717.99 109.9L 733.51 112.83L 746.63 112.96L 758 111.41L 776.99 110.45L 792.51 111.17L 805.63 109.19L 817 107.88L 835.99 109L 851.51 108.92L 864.63 107.99L 876 107.18L 894.99 105.98L 910.51 106.27L 923.63 104.73L 935 104.21L 953.99 103.24L 969.51 101.42L 982.63 100.14L 994 101.76L 1013 99.87L 1028.5 98.958L 1041.6 100.06L 1053 98.233L 1072 97.938L 1087.5 96.09L 1100.6 96.015L 1112 95.851L 1131 94.411L 1146.5 93.34L 1159.6 92.205L 1171 92.14L 1190 91.305L 1205.5 91.027L 1218.6 90.781L 1230 89.888" fill="none" stroke-width="0.5" stroke="#000000" stroke-opacity="0.30196" stroke-linecap="round" stroke-linejoin="round"/>
    <path d="M 50 144.04L 109 191.46L 143.51 214.92L 168 231.07L 186.99 223.69L 202.51 256.65L 215.63 265.28L 227 273.52L 245.99 287.92L 261.51 297.88L 274.63 306.86L 286 314.99L 304.99 326.19L 320.51 336.15L 333.63 344.28L 345 331.62L 363.99 342L 379.51 349.07L 392.63 354.08L 404 352.44L 422.99 361.32L 438.51 366.77L 451.63 369.3L 463 380.68L 481.99 385.75L 497.51 390.45L 510.63 393.31L 522 397.52L 540.99 400.74L 556.51 402.65L 569.63 404.04L 581 405.81L 599.99 406.28L 615.51 408.16L 628.63 408.74L 640 409.6L 658.99 411.36L 674.51 411.78L 687.63 412.4L 699 412.6L 717.99 413.46L 733.51 413.83L 746.63 414.02L 758 414.15L 776.99 414.53L 792.51 414.91L 805.63 414.75L 817 393.07L 835.99 413.11L 851.51 412.34L 864.63 411.21L 876 407.64L 894.99 411.72L 910.51 411.93L 923.63 392.62L 935 404.72L 953.99 408.22L 969.51 408.94L 982.63 411.8L 994 410L 1013 409.58L 1028.5 402.53L 1041.6 408.79L 1053 407.8L 1072 405.31L 1087.5 392.85L 1100.6 392.47L 1112 395.75L 1131 394.64L 1146.5 393.24L 1159.6 391.21L 1171 389.91L 1190 389.54L 1205.5 386.63L 1218.6 386.76L 1230 402.51" fill="none" stroke-width="0.5" stroke="#000000" stroke-opacity="0.30196" stroke-linecap="round" stroke-linejoin="round"/>
  </g>
  <path d="M 74 33 L 74 88 L 327 88 L 327 33 z" fill="#FFFFFF" fill-opacity="0.7019607843137254" stroke-width="0.5" stroke="#000000" stroke-opacity="1" stroke-linecap="round" stroke-linejoin="round"/>
  <path d="M 88 52 L 108 52" fill="none" stroke-width="4" stroke="#FF3B30" stroke-opacity="1" stroke-linecap="round" stroke-linejoin="round"/>
  <path d="M 88 52 L 108 52" fill="none" stroke-width="0.5" stroke="#000000" stroke-opacity="0.30196" stroke-linecap="round" stroke-linejoin="round"/>
  <text x="119" y="56.17" font-family="Menlo" font-size="12" font-weight="normal" font-style="normal" fill="#000000" fill-opacity="1">Array&lt;Int&gt; kalimba fast</text>
  <path d="M 88 69 L 108 69" fill="none" stroke-width="4" stroke="#007AFF" stroke-opacity="1" stroke-linecap="round" stroke-linejoin="round"/>
  <path d="M 88 69 L 108 69" fill="none" stroke-width="0.5" stroke="#000000" stroke-opacity="0.30196" stroke-linecap="round" stroke-linejoin="round"/>
  <text x="119" y="73.17" font-family="Menlo" font-size="12" font-weight="normal" font-style="normal" fill="#000000" fill-opacity="1">TreeArray&lt;Int&gt; kalimba fast</text>
  <path d="M 50 9 L 50 441 L 1230 441 L 1230 9 z" fill="none" stroke-width="0.5" stroke="#000000" stroke-opacity="1" stroke-linecap="round" stroke-linejoin="round"/>
</svg>
