<!DOCTYPE svg PUBLIC "-//W3C//DTD SVG 1.1//EN" "http://www.w3.org/Graphics/SVG/1.1/DTD/svg11.dtd">
<svg width="1280.0px" height="480.0px" viewBox="0.0 0.0 1280.0 480.0" xmlns="http://www.w3.org/2000/svg" xmlns:xlink="http://www.w3.org/1999/xlink" version="1.1">
  <path d="M 0 0 L 0 480 L 1280 480 L 1280 0 z" fill="#FFFFFF" fill-opacity="1.0" stroke="none"/>
  <text x="50" y="468.7" font-family="Helvetica" font-size="10" font-weight="normal" font-style="normal" fill="#000000" fill-opacity="1">Average per-element processing time over input size (bands: min, mean, mean + 2stddev)</text>
  <a xlink:href="https://github.com/apple/swift-collections-benchmark"><text x="1107" y="468.7" font-family="Helvetica" font-size="10" font-weight="normal" font-style="normal" fill="#000000" fill-opacity="1">swift-collections-benchmark</text></a>
  <path d="M 50 9 L 50 441" fill="none" stroke-width="0.75" stroke="#000000" stroke-opacity="0.49804" stroke-linecap="butt" stroke-linejoin="round"/>
  <text x="47" y="453.7" font-family="Helvetica" font-size="10" font-weight="normal" font-style="normal" fill="#000000" fill-opacity="1">1</text>
  <path d="M 109 9 L 109 441" fill="none" stroke-width="0.75" stroke="#000000" stroke-opacity="0.49804" stroke-linecap="butt" stroke-linejoin="round"/>
  <text x="106" y="453.7" font-family="Helvetica" font-size="10" font-weight="normal" font-style="normal" fill="#000000" fill-opacity="1">2</text>
  <path d="M 168 9 L 168 441" fill="none" stroke-width="0.75" stroke="#000000" stroke-opacity="0.49804" stroke-linecap="butt" stroke-linejoin="round"/>
  <text x="165" y="453.7" font-family="Helvetica" font-size="10" font-weight="normal" font-style="normal" fill="#000000" fill-opacity="1">4</text>
  <path d="M 227 9 L 227 441" fill="none" stroke-width="0.75" stroke="#000000" stroke-opacity="0.49804" stroke-linecap="butt" stroke-linejoin="round"/>
  <text x="224" y="453.7" font-family="Helvetica" font-size="10" font-weight="normal" font-style="normal" fill="#000000" fill-opacity="1">8</text>
  <path d="M 286 9 L 286 441" fill="none" stroke-width="0.75" stroke="#000000" stroke-opacity="0.49804" stroke-linecap="butt" stroke-linejoin="round"/>
  <text x="280" y="453.7" font-family="Helvetica" font-size="10" font-weight="normal" font-style="normal" fill="#000000" fill-opacity="1">16</text>
  <path d="M 345 9 L 345 441" fill="none" stroke-width="0.75" stroke="#000000" stroke-opacity="0.49804" stroke-linecap="butt" stroke-linejoin="round"/>
  <text x="339" y="453.7" font-family="Helvetica" font-size="10" font-weight="normal" font-style="normal" fill="#000000" fill-opacity="1">32</text>
  <path d="M 404 9 L 404 441" fill="none" stroke-width="0.75" stroke="#000000" stroke-opacity="0.49804" stroke-linecap="butt" stroke-linejoin="round"/>
  <text x="398" y="453.7" font-family="Helvetica" font-size="10" font-weight="normal" font-style="normal" fill="#000000" fill-opacity="1">64</text>
  <path d="M 463 9 L 463 441" fill="none" stroke-width="0.75" stroke="#000000" stroke-opacity="0.49804" stroke-linecap="butt" stroke-linejoin="round"/>
  <text x="454.5" y="453.7" font-family="Helvetica" font-size="10" font-weight="normal" font-style="normal" fill="#000000" fill-opacity="1">128</text>
  <path d="M 522 9 L 522 441" fill="none" stroke-width="0.75" stroke="#000000" stroke-opacity="0.49804" stroke-linecap="butt" stroke-linejoin="round"/>
  <text x="513.5" y="453.7" font-family="Helvetica" font-size="10" font-weight="normal" font-style="normal" fill="#000000" fill-opacity="1">256</text>
  <path d="M 581 9 L 581 441" fill="none" stroke-width="0.75" stroke="#000000" stroke-opacity="0.49804" stroke-linecap="butt" stroke-linejoin="round"/>
  <text x="572.5" y="453.7" font-family="Helvetica" font-size="10" font-weight="normal" font-style="normal" fill="#000000" fill-opacity="1">512</text>
  <path d="M 640 9 L 640 441" fill="none" stroke-width="0.75" stroke="#000000" stroke-opacity="0.49804" stroke-linecap="butt" stroke-linejoin="round"/>
  <text x="634.5" y="453.7" font-family="Helvetica" font-size="10" font-weight="normal" font-style="normal" fill="#000000" fill-opacity="1">1k</text>
  <path d="M 699 9 L 699 441" fill="none" stroke-width="0.75" stroke="#000000" stroke-opacity="0.49804" stroke-linecap="butt" stroke-linejoin="round"/>
  <text x="693.5" y="453.7" font-family="Helvetica" font-size="10" font-weight="normal" font-style="normal" fill="#000000" fill-opacity="1">2k</text>
  <path d="M 758 9 L 758 441" fill="none" stroke-width="0.75" stroke="#000000" stroke-opacity="0.49804" stroke-linecap="butt" stroke-linejoin="round"/>
  <text x="752.5" y="453.7" font-family="Helvetica" font-size="10" font-weight="normal" font-style="normal" fill="#000000" fill-opacity="1">4k</text>
  <path d="M 817 9 L 817 441" fill="none" stroke-width="0.75" stroke="#000000" stroke-opacity="0.49804" stroke-linecap="butt" stroke-linejoin="round"/>
  <text x="811.5" y="453.7" font-family="Helvetica" font-size="10" font-weight="normal" font-style="normal" fill="#000000" fill-opacity="1">8k</text>
  <path d="M 876 9 L 876 441" fill="none" stroke-width="0.75" stroke="#000000" stroke-opacity="0.49804" stroke-linecap="butt" stroke-linejoin="round"/>
  <text x="867.5" y="453.7" font-family="Helvetica" font-size="10" font-weight="normal" font-style="normal" fill="#000000" fill-opacity="1">16k</text>
  <path d="M 935 9 L 935 441" fill="none" stroke-width="0.75" stroke="#000000" stroke-opacity="0.49804" stroke-linecap="butt" stroke-linejoin="round"/>
  <text x="926.5" y="453.7" font-family="Helvetica" font-size="10" font-weight="normal" font-style="normal" fill="#000000" fill-opacity="1">32k</text>
  <path d="M 994 9 L 994 441" fill="none" stroke-width="0.75" stroke="#000000" stroke-opacity="0.49804" stroke-linecap="butt" stroke-linejoin="round"/>
  <text x="985.5" y="453.7" font-family="Helvetica" font-size="10" font-weight="normal" font-style="normal" fill="#000000" fill-opacity="1">64k</text>
  <path d="M 1053 9 L 1053 441" fill="none" stroke-width="0.75" stroke="#000000" stroke-opacity="0.49804" stroke-linecap="butt" stroke-linejoin="round"/>
  <text x="1042" y="453.7" font-family="Helvetica" font-size="10" font-weight="normal" font-style="normal" fill="#000000" fill-opacity="1">128k</text>
  <path d="M 1112 9 L 1112 441" fill="none" stroke-width="0.75" stroke="#000000" stroke-opacity="0.49804" stroke-linecap="butt" stroke-linejoin="round"/>
  <text x="1101" y="453.7" font-family="Helvetica" font-size="10" font-weight="normal" font-style="normal" fill="#000000" fill-opacity="1">256k</text>
  <path d="M 1171 9 L 1171 441" fill="none" stroke-width="0.75" stroke="#000000" stroke-opacity="0.49804" stroke-linecap="butt" stroke-linejoin="round"/>
  <text x="1160" y="453.7" font-family="Helvetica" font-size="10" font-weight="normal" font-style="normal" fill="#000000" fill-opacity="1">512k</text>
  <path d="M 1230 9 L 1230 441" fill="none" stroke-width="0.75" stroke="#000000" stroke-opacity="0.49804" stroke-linecap="butt" stroke-linejoin="round"/>
  <text x="1223" y="453.7" font-family="Helvetica" font-size="10" font-weight="normal" font-style="normal" fill="#000000" fill-opacity="1">1M</text>
  <path d="M 50 441 L 1230 441" fill="none" stroke-width="0.75" stroke="#000000" stroke-opacity="0.49804" stroke-linecap="butt" stroke-linejoin="round"/>
  <text x="27" y="442.7" font-family="Helvetica" font-size="10" font-weight="normal" font-style="normal" fill="#000000" fill-opacity="1">1 ns</text>
  <text x="1236" y="442.7" font-family="Helvetica" font-size="10" font-weight="normal" font-style="normal" fill="#000000" fill-opacity="1">1 ns</text>
  <path d="M 50 297 L 1230 297" fill="none" stroke-width="0.75" stroke="#000000" stroke-opacity="0.49804" stroke-linecap="butt" stroke-linejoin="round"/>
  <text x="21" y="298.7" font-family="Helvetica" font-size="10" font-weight="normal" font-style="normal" fill="#000000" fill-opacity="1">10 ns</text>
  <text x="1236" y="298.7" font-family="Helvetica" font-size="10" font-weight="normal" font-style="normal" fill="#000000" fill-opacity="1">10 ns</text>
  <path d="M 50 153 L 1230 153" fill="none" stroke-width="0.75" stroke="#000000" stroke-opacity="0.49804" stroke-linecap="butt" stroke-linejoin="round"/>
  <text x="16" y="154.7" font-family="Helvetica" font-size="10" font-weight="normal" font-style="normal" fill="#000000" fill-opacity="1">100 ns</text>
  <text x="1236" y="154.7" font-family="Helvetica" font-size="10" font-weight="normal" font-style="normal" fill="#000000" fill-opacity="1">100 ns</text>
  <path d="M 50 9 L 1230 9" fill="none" stroke-width="0.75" stroke="#000000" stroke-opacity="0.49804" stroke-linecap="butt" stroke-linejoin="round"/>
  <text x="26" y="10.7" font-family="Helvetica" font-size="10" font-weight="normal" font-style="normal" fill="#000000" fill-opacity="1">1 µs</text>
  <text x="1236" y="10.7" font-family="Helvetica" font-size="10" font-weight="normal" font-style="normal" fill="#000000" fill-opacity="1">1 µs</text>
  <path d="M 50 397.65 L 1230 397.65" fill="none" stroke-width="0.5" stroke="#000000" stroke-opacity="0.25882" stroke-linecap="butt" stroke-linejoin="round" stroke-dasharray="6 3" stroke-dashoffset="0"/>
  <path d="M 50 354.3 L 1230 354.3" fill="none" stroke-width="0.5" stroke="#000000" stroke-opacity="0.25882" stroke-linecap="butt" stroke-linejoin="round" stroke-dasharray="6 3" stroke-dashoffset="0"/>
  <path d="M 50 310.96 L 1230 310.96" fill="none" stroke-width="0.5" stroke="#000000" stroke-opacity="0.25882" stroke-linecap="butt" stroke-linejoin="round" stroke-dasharray="6 3" stroke-dashoffset="0"/>
  <path d="M 50 267.61 L 1230 267.61" fill="none" stroke-width="0.5" stroke="#000000" stroke-opacity="0.25882" stroke-linecap="butt" stroke-linejoin="round" stroke-dasharray="6 3" stroke-dashoffset="0"/>
  <path d="M 50 224.26 L 1230 224.26" fill="none" stroke-width="0.5" stroke="#000000" stroke-opacity="0.25882" stroke-linecap="butt" stroke-linejoin="round" stroke-dasharray="6 3" stroke-dashoffset="0"/>
  <path d="M 50 180.91 L 1230 180.91" fill="none" stroke-width="0.5" stroke="#000000" stroke-opacity="0.25882" stroke-linecap="butt" stroke-linejoin="round" stroke-dasharray="6 3" stroke-dashoffset="0"/>
  <path d="M 50 137.56 L 1230 137.56" fill="none" stroke-width="0.5" stroke="#000000" stroke-opacity="0.25882" stroke-linecap="butt" stroke-linejoin="round" stroke-dasharray="6 3" stroke-dashoffset="0"/>
  <path d="M 50 94.213 L 1230 94.213" fill="none" stroke-width="0.5" stroke="#000000" stroke-opacity="0.25882" stroke-linecap="butt" stroke-linejoin="round" stroke-dasharray="6 3" stroke-dashoffset="0"/>
  <path d="M 50 50.865 L 1230 50.865" fill="none" stroke-width="0.5" stroke="#000000" stroke-opacity="0.25882" stroke-linecap="butt" stroke-linejoin="round" stroke-dasharray="6 3" stroke-dashoffset="0"/>
  <path d="M 74 33 L 74 88 L 327 88 L 327 33 z" fill="#FFFFFF" fill-opacity="1.0" stroke="none"/>
  <clipPath id="clip-0">
    <path d="M 50 9 L 50 441 L 1230 441 L 1230 9 z"/>
  </clipPath>
  <g clip-path="url(#clip-0)">
    <path d="M 50 53.001L 109 89.785L 143.51 102.79L 168 112.56L 186.99 114.5L 202.51 118.85L 215.63 112.32L 227 117.45L 245.99 120.28L 261.51 122.53L 274.63 117.59L 286 118.69L 304.99 117.81L 320.51 118.44L 333.63 117.84L 345 118.11L 363.99 116.4L 379.51 112.95L 392.63 113.83L 404 113.23L 422.99 114.27L 438.51 111.01L 451.63 109.99L 463 109.17L 481.99 108.1L 497.51 105.24L 510.63 105.35L 522 106.61L 540.99 105.83L 556.51 102.56L 569.63 102.01L 581 99.916L 599.99 96.869L 615.51 80.218L 628.63 97.307L 640 80.586L 658.99 97.214L 674.51 92.161L 687.63 93.446L 699 93.204L 717.99 92.345L 733.51 92.571L 746.63 92.414L 758 88.859L 776.99 87.677L 792.51 88.41L 805.63 82.127L 817 80.507L 835.99 81.467L 851.51 84.56L 864.63 81.678L 876 80.323L 894.99 78.106L 910.51 79.779L 923.63 78.303L 935 79.388L 953.99 72.498L 969.51 71.074L 982.63 76.474L 994 77.314L 1013 70.603L 1028.5 69.703L 1041.6 65.663L 1053 67.24L 1072 69.676L 1087.5 64.156L 1100.6 66.13L 1112 66.581L 1131 65.994L 1146.5 65.087L 1159.6 62.044L 1171 63.812L 1190 63.052L 1205.5 61.142L 1218.6 63.835L 1230 60.369L 1230 64.347L 1218.6 63.926L 1205.5 63.323L 1190 64.18L 1171 66.59L 1159.6 68.775L 1146.5 68.426L 1131 68.804L 1112 69.501L 1100.6 70.077L 1087.5 73.384L 1072 70.755L 1053 72.027L 1041.6 73.044L 1028.5 74.687L 1013 74.407L 994 77.668L 982.63 76.798L 969.51 78.476L 953.99 80.586L 935 79.97L 923.63 82.768L 910.51 80.743L 894.99 82.572L 876 81.67L 864.63 83.677L 851.51 84.698L 835.99 85.756L 817 88.091L 805.63 88.766L 792.51 89.987L 776.99 91.094L 758 90.543L 746.63 93.781L 733.51 94.066L 717.99 94.057L 699 93.861L 687.63 94.25L 674.51 98.592L 658.99 98.163L 640 102.71L 628.63 101.72L 615.51 100.1L 599.99 101.21L 581 104.66L 569.63 105.5L 556.51 107.69L 540.99 105.9L 522 108.33L 510.63 111.67L 497.51 110.79L 481.99 111.97L 463 114.23L 451.63 115.7L 438.51 113.27L 422.99 114.94L 404 117.49L 392.63 116.46L 379.51 121.38L 363.99 118.23L 345 118.87L 333.63 119.95L 320.51 118.8L 304.99 119.13L 286 118.76L 274.63 118.12L 261.51 125.09L 245.99 121.45L 227 119.13L 215.63 113.41L 202.51 122.32L 186.99 115.69L 168 113.48L 143.51 103.03L 109 90.884L 50 53.506" fill="#007AFF" fill-opacity="0.30196078431372547" stroke="none"/>
    <path d="M 50 142.46L 109 190.88L 143.51 214.15L 168 231.17L 186.99 223.29L 202.51 257.45L 215.63 264.89L 227 259.44L 245.99 287.38L 261.51 297.25L 274.63 305.69L 286 314.38L 304.99 325.02L 320.51 336.36L 333.63 340.84L 345 327.6L 363.99 337.55L 379.51 348.32L 392.63 352.89L 404 351.36L 422.99 361.35L 438.51 366.91L 451.63 370.75L 463 381.38L 481.99 383.98L 497.51 389.1L 510.63 389.67L 522 395.82L 540.99 401.18L 556.51 401.28L 569.63 402.5L 581 401.55L 599.99 403.98L 615.51 405.67L 628.63 408.74L 640 409.17L 658.99 410.89L 674.51 411.41L 687.63 412.36L 699 412.5L 717.99 413.29L 733.51 413.62L 746.63 413.98L 758 414.14L 776.99 414.59L 792.51 414.95L 805.63 415.15L 817 397.47L 835.99 357.13L 851.51 405.59L 864.63 408.98L 876 411.32L 894.99 411.4L 910.51 407.27L 923.63 412.02L 935 391.75L 953.99 403.65L 969.51 382.62L 982.63 410.56L 994 410.22L 1013 410.91L 1028.5 411.95L 1041.6 401.95L 1053 411.27L 1072 400.52L 1087.5 387.12L 1100.6 385.82L 1112 392.25L 1131 390.27L 1146.5 388.14L 1159.6 387.67L 1171 393.39L 1190 390.21L 1205.5 388.35L 1218.6 389.89L 1230 397.38L 1230 402.98L 1218.6 391.35L 1205.5 391.83L 1190 392.88L 1171 393.86L 1159.6 392.66L 1146.5 394.14L 1131 398.18L 1112 392.34L 1100.6 393.7L 1087.5 400.85L 1072 408.79L 1053 411.99L 1041.6 412.4L 1028.5 412.06L 1013 412.21L 994 412.11L 982.63 411.87L 969.51 410.56L 953.99 410.48L 935 412.44L 923.63 412.05L 910.51 411.63L 894.99 411.72L 876 411.42L 864.63 411.42L 851.51 412.65L 835.99 413.52L 817 415.13L 805.63 415.28L 792.51 415L 776.99 414.8L 758 414.2L 746.63 413.98L 733.51 413.79L 717.99 413.34L 699 412.79L 687.63 412.38L 674.51 411.75L 658.99 410.89L 640 410.05L 628.63 408.74L 615.51 407.88L 599.99 406.31L 581 406.57L 569.63 405.26L 556.51 402.6L 540.99 401.34L 522 397.74L 510.63 393.61L 497.51 390.82L 481.99 387.59L 463 381.54L 451.63 371.32L 438.51 368.03L 422.99 363.12L 404 353.43L 392.63 355.79L 379.51 350.97L 363.99 343.56L 345 337.8L 333.63 343.79L 320.51 336.36L 304.99 326.6L 286 315.21L 274.63 307.69L 261.51 298.1L 245.99 287.81L 227 294.7L 215.63 266.18L 202.51 257.46L 186.99 223.29L 168 231.18L 143.51 215.04L 109 191.34L 50 146.29" fill="#FF3B30" fill-opacity="0.30196078431372547" stroke="none"/>
    <path d="M 50 53.374L 109 90.595L 143.51 102.97L 168 113.24L 186.99 115.38L 202.51 121.39L 215.63 113.12L 227 118.69L 245.99 121.14L 261.51 124.41L 274.63 117.98L 286 118.74L 304.99 118.78L 320.51 118.7L 333.63 119.39L 345 118.67L 363.99 117.74L 379.51 119.07L 392.63 115.76L 404 116.35L 422.99 114.76L 438.51 112.67L 451.63 114.16L 463 112.87L 481.99 110.94L 497.51 109.29L 510.63 109.96L 522 107.88L 540.99 105.88L 556.51 106.31L 569.63 104.57L 581 103.38L 599.99 100.05L 615.51 94.269L 628.63 100.54L 640 96.137L 658.99 97.914L 674.51 96.848L 687.63 94.039L 699 93.689L 717.99 93.605L 733.51 93.672L 746.63 93.421L 758 90.099L 776.99 90.184L 792.51 89.571L 805.63 86.963L 817 86.02L 835.99 84.607L 851.51 84.662L 864.63 83.149L 876 81.315L 894.99 81.374L 910.51 80.49L 923.63 81.571L 935 79.818L 953.99 78.37L 969.51 76.456L 982.63 76.713L 994 77.576L 1013 73.391L 1028.5 73.346L 1041.6 71.03L 1053 70.741L 1072 70.471L 1087.5 70.839L 1100.6 69.022L 1112 68.725L 1131 68.058L 1146.5 67.537L 1159.6 66.945L 1171 65.853L 1190 63.883L 1205.5 62.746L 1218.6 63.902L 1230 63.283" fill="none" stroke-width="4" stroke="#007AFF" stroke-opacity="1" stroke-linecap="round" stroke-linejoin="round"/>
    <path d="M 50 145.26L 109 191.22L 143.51 214.81L 168 231.18L 186.99 223.29L 202.51 257.46L 215.63 265.84L 227 283.41L 245.99 287.7L 261.51 297.88L 274.63 307.16L 286 314.99L 304.99 326.19L 320.51 336.36L 333.63 343.01L 345 334.97L 363.99 341.93L 379.51 350.27L 392.63 355.02L 404 352.89L 422.99 362.65L 438.51 367.73L 451.63 371.17L 463 381.5L 481.99 386.63L 497.51 390.36L 510.63 392.56L 522 397.24L 540.99 401.3L 556.51 402.25L 569.63 404.53L 581 405.22L 599.99 405.69L 615.51 407.3L 628.63 408.74L 640 409.82L 658.99 410.89L 674.51 411.66L 687.63 412.37L 699 412.71L 717.99 413.32L 733.51 413.74L 746.63 413.98L 758 414.19L 776.99 414.75L 792.51 414.99L 805.63 415.25L 817 410.02L 835.99 393.27L 851.51 410.73L 864.63 410.77L 876 411.4L 894.99 411.64L 910.51 410.46L 923.63 412.04L 935 406.34L 953.99 408.62L 969.51 401.98L 982.63 411.52L 994 411.61L 1013 411.87L 1028.5 412.03L 1041.6 409.49L 1053 411.8L 1072 406.52L 1087.5 396.96L 1100.6 391.54L 1112 392.31L 1131 396.02L 1146.5 392.52L 1159.6 391.32L 1171 393.74L 1190 392.18L 1205.5 390.9L 1218.6 390.96L 1230 401.47" fill="none" stroke-width="4" stroke="#FF3B30" stroke-opacity="1" stroke-linecap="round" stroke-linejoin="round"/>
    <path d="M 50 53.374L 109 90.595L 143.51 102.97L 168 113.24L 186.99 115.38L 202.51 121.39L 215.63 113.12L 227 118.69L 245.99 121.14L 261.51 124.41L 274.63 117.98L 286 118.74L 304.99 118.78L 320.51 118.7L 333.63 119.39L 345 118.67L 363.99 117.74L 379.51 119.07L 392.63 115.76L 404 116.35L 422.99 114.76L 438.51 112.67L 451.63 114.16L 463 112.87L 481.99 110.94L 497.51 109.29L 510.63 109.96L 522 107.88L 540.99 105.88L 556.51 106.31L 569.63 104.57L 581 103.38L 599.99 100.05L 615.51 94.269L 628.63 100.54L 640 96.137L 658.99 97.914L 674.51 96.848L 687.63 94.039L 699 93.689L 717.99 93.605L 733.51 93.672L 746.63 93.421L 758 90.099L 776.99 90.184L 792.51 89.571L 805.63 86.963L 817 86.02L 835.99 84.607L 851.51 84.662L 864.63 83.149L 876 81.315L 894.99 81.374L 910.51 80.49L 923.63 81.571L 935 79.818L 953.99 78.37L 969.51 76.456L 982.63 76.713L 994 77.576L 1013 73.391L 1028.5 73.346L 1041.6 71.03L 1053 70.741L 1072 70.471L 1087.5 70.839L 1100.6 69.022L 1112 68.725L 1131 68.058L 1146.5 67.537L 1159.6 66.945L 1171 65.853L 1190 63.883L 1205.5 62.746L 1218.6 63.902L 1230 63.283" fill="none" stroke-width="0.5" stroke="#000000" stroke-opacity="0.30196" stroke-linecap="round" stroke-linejoin="round"/>
    <path d="M 50 145.26L 109 191.22L 143.51 214.81L 168 231.18L 186.99 223.29L 202.51 257.46L 215.63 265.84L 227 283.41L 245.99 287.7L 261.51 297.88L 274.63 307.16L 286 314.99L 304.99 326.19L 320.51 336.36L 333.63 343.01L 345 334.97L 363.99 341.93L 379.51 350.27L 392.63 355.02L 404 352.89L 422.99 362.65L 438.51 367.73L 451.63 371.17L 463 381.5L 481.99 386.63L 497.51 390.36L 510.63 392.56L 522 397.24L 540.99 401.3L 556.51 402.25L 569.63 404.53L 581 405.22L 599.99 405.69L 615.51 407.3L 628.63 408.74L 640 409.82L 658.99 410.89L 674.51 411.66L 687.63 412.37L 699 412.71L 717.99 413.32L 733.51 413.74L 746.63 413.98L 758 414.19L 776.99 414.75L 792.51 414.99L 805.63 415.25L 817 410.02L 835.99 393.27L 851.51 410.73L 864.63 410.77L 876 411.4L 894.99 411.64L 910.51 410.46L 923.63 412.04L 935 406.34L 953.99 408.62L 969.51 401.98L 982.63 411.52L 994 411.61L 1013 411.87L 1028.5 412.03L 1041.6 409.49L 1053 411.8L 1072 406.52L 1087.5 396.96L 1100.6 391.54L 1112 392.31L 1131 396.02L 1146.5 392.52L 1159.6 391.32L 1171 393.74L 1190 392.18L 1205.5 390.9L 1218.6 390.96L 1230 401.47" fill="none" stroke-width="0.5" stroke="#000000" stroke-opacity="0.30196" stroke-linecap="round" stroke-linejoin="round"/>
  </g>
  <path d="M 74 33 L 74 88 L 327 88 L 327 33 z" fill="#FFFFFF" fill-opacity="0.7019607843137254" stroke-width="0.5" stroke="#000000" stroke-opacity="1" stroke-linecap="round" stroke-linejoin="round"/>
  <path d="M 88 52 L 108 52" fill="none" stroke-width="4" stroke="#FF3B30" stroke-opacity="1" stroke-linecap="round" stroke-linejoin="round"/>
  <path d="M 88 52 L 108 52" fill="none" stroke-width="0.5" stroke="#000000" stroke-opacity="0.30196" stroke-linecap="round" stroke-linejoin="round"/>
  <text x="119" y="56.17" font-family="Menlo" font-size="12" font-weight="normal" font-style="normal" fill="#000000" fill-opacity="1">Array&lt;Int&gt; kalimba fast</text>
  <path d="M 88 69 L 108 69" fill="none" stroke-width="4" stroke="#007AFF" stroke-opacity="1" stroke-linecap="round" stroke-linejoin="round"/>
  <path d="M 88 69 L 108 69" fill="none" stroke-width="0.5" stroke="#000000" stroke-opacity="0.30196" stroke-linecap="round" stroke-linejoin="round"/>
  <text x="119" y="73.17" font-family="Menlo" font-size="12" font-weight="normal" font-style="normal" fill="#000000" fill-opacity="1">TreeArray&lt;Int&gt; kalimba fast</text>
  <path d="M 50 9 L 50 441 L 1230 441 L 1230 9 z" fill="none" stroke-width="0.5" stroke="#000000" stroke-opacity="1" stroke-linecap="round" stroke-linejoin="round"/>
</svg>
