<!DOCTYPE svg PUBLIC "-//W3C//DTD SVG 1.1//EN" "http://www.w3.org/Graphics/SVG/1.1/DTD/svg11.dtd">
<svg width="1280.0px" height="480.0px" viewBox="0.0 0.0 1280.0 480.0" xmlns="http://www.w3.org/2000/svg" xmlns:xlink="http://www.w3.org/1999/xlink" version="1.1">
  <path d="M 0 0 L 0 480 L 1280 480 L 1280 0 z" fill="#FFFFFF" fill-opacity="1.0" stroke="none"/>
  <text x="50" y="468.7" font-family="Helvetica" font-size="10" font-weight="normal" font-style="normal" fill="#000000" fill-opacity="1">Average per-element processing time over input size (bands: min, mean, mean + 2stddev)</text>
  <a xlink:href="https://github.com/apple/swift-collections-benchmark"><text x="1107" y="468.7" font-family="Helvetica" font-size="10" font-weight="normal" font-style="normal" fill="#000000" fill-opacity="1">swift-collections-benchmark</text></a>
  <path d="M 50 9 L 50 441" fill="none" stroke-width="0.75" stroke="#000000" stroke-opacity="0.49804" stroke-linecap="butt" stroke-linejoin="round"/>
  <text x="47" y="453.7" font-family="Helvetica" font-size="10" font-weight="normal" font-style="normal" fill="#000000" fill-opacity="1">1</text>
  <path d="M 109 9 L 109 441" fill="none" stroke-width="0.75" stroke="#000000" stroke-opacity="0.49804" stroke-linecap="butt" stroke-linejoin="round"/>
  <text x="106" y="453.7" font-family="Helvetica" font-size="10" font-weight="normal" font-style="normal" fill="#000000" fill-opacity="1">2</text>
  <path d="M 168 9 L 168 441" fill="none" stroke-width="0.75" stroke="#000000" stroke-opacity="0.49804" stroke-linecap="butt" stroke-linejoin="round"/>
  <text x="165" y="453.7" font-family="Helvetica" font-size="10" font-weight="normal" font-style="normal" fill="#000000" fill-opacity="1">4</text>
  <path d="M 227 9 L 227 441" fill="none" stroke-width="0.75" stroke="#000000" stroke-opacity="0.49804" stroke-linecap="butt" stroke-linejoin="round"/>
  <text x="224" y="453.7" font-family="Helvetica" font-size="10" font-weight="normal" font-style="normal" fill="#000000" fill-opacity="1">8</text>
  <path d="M 286 9 L 286 441" fill="none" stroke-width="0.75" stroke="#000000" stroke-opacity="0.49804" stroke-linecap="butt" stroke-linejoin="round"/>
  <text x="280" y="453.7" font-family="Helvetica" font-size="10" font-weight="normal" font-style="normal" fill="#000000" fill-opacity="1">16</text>
  <path d="M 345 9 L 345 441" fill="none" stroke-width="0.75" stroke="#000000" stroke-opacity="0.49804" stroke-linecap="butt" stroke-linejoin="round"/>
  <text x="339" y="453.7" font-family="Helvetica" font-size="10" font-weight="normal" font-style="normal" fill="#000000" fill-opacity="1">32</text>
  <path d="M 404 9 L 404 441" fill="none" stroke-width="0.75" stroke="#000000" stroke-opacity="0.49804" stroke-linecap="butt" stroke-linejoin="round"/>
  <text x="398" y="453.7" font-family="Helvetica" font-size="10" font-weight="normal" font-style="normal" fill="#000000" fill-opacity="1">64</text>
  <path d="M 463 9 L 463 441" fill="none" stroke-width="0.75" stroke="#000000" stroke-opacity="0.49804" stroke-linecap="butt" stroke-linejoin="round"/>
  <text x="454.5" y="453.7" font-family="Helvetica" font-size="10" font-weight="normal" font-style="normal" fill="#000000" fill-opacity="1">128</text>
  <path d="M 522 9 L 522 441" fill="none" stroke-width="0.75" stroke="#000000" stroke-opacity="0.49804" stroke-linecap="butt" stroke-linejoin="round"/>
  <text x="513.5" y="453.7" font-family="Helvetica" font-size="10" font-weight="normal" font-style="normal" fill="#000000" fill-opacity="1">256</text>
  <path d="M 581 9 L 581 441" fill="none" stroke-width="0.75" stroke="#000000" stroke-opacity="0.49804" stroke-linecap="butt" stroke-linejoin="round"/>
  <text x="572.5" y="453.7" font-family="Helvetica" font-size="10" font-weight="normal" font-style="normal" fill="#000000" fill-opacity="1">512</text>
  <path d="M 640 9 L 640 441" fill="none" stroke-width="0.75" stroke="#000000" stroke-opacity="0.49804" stroke-linecap="butt" stroke-linejoin="round"/>
  <text x="634.5" y="453.7" font-family="Helvetica" font-size="10" font-weight="normal" font-style="normal" fill="#000000" fill-opacity="1">1k</text>
  <path d="M 699 9 L 699 441" fill="none" stroke-width="0.75" stroke="#000000" stroke-opacity="0.49804" stroke-linecap="butt" stroke-linejoin="round"/>
  <text x="693.5" y="453.7" font-family="Helvetica" font-size="10" font-weight="normal" font-style="normal" fill="#000000" fill-opacity="1">2k</text>
  <path d="M 758 9 L 758 441" fill="none" stroke-width="0.75" stroke="#000000" stroke-opacity="0.49804" stroke-linecap="butt" stroke-linejoin="round"/>
  <text x="752.5" y="453.7" font-family="Helvetica" font-size="10" font-weight="normal" font-style="normal" fill="#000000" fill-opacity="1">4k</text>
  <path d="M 817 9 L 817 441" fill="none" stroke-width="0.75" stroke="#000000" stroke-opacity="0.49804" stroke-linecap="butt" stroke-linejoin="round"/>
  <text x="811.5" y="453.7" font-family="Helvetica" font-size="10" font-weight="normal" font-style="normal" fill="#000000" fill-opacity="1">8k</text>
  <path d="M 876 9 L 876 441" fill="none" stroke-width="0.75" stroke="#000000" stroke-opacity="0.49804" stroke-linecap="butt" stroke-linejoin="round"/>
  <text x="867.5" y="453.7" font-family="Helvetica" font-size="10" font-weight="normal" font-style="normal" fill="#000000" fill-opacity="1">16k</text>
  <path d="M 935 9 L 935 441" fill="none" stroke-width="0.75" stroke="#000000" stroke-opacity="0.49804" stroke-linecap="butt" stroke-linejoin="round"/>
  <text x="926.5" y="453.7" font-family="Helvetica" font-size="10" font-weight="normal" font-style="normal" fill="#000000" fill-opacity="1">32k</text>
  <path d="M 994 9 L 994 441" fill="none" stroke-width="0.75" stroke="#000000" stroke-opacity="0.49804" stroke-linecap="butt" stroke-linejoin="round"/>
  <text x="985.5" y="453.7" font-family="Helvetica" font-size="10" font-weight="normal" font-style="normal" fill="#000000" fill-opacity="1">64k</text>
  <path d="M 1053 9 L 1053 441" fill="none" stroke-width="0.75" stroke="#000000" stroke-opacity="0.49804" stroke-linecap="butt" stroke-linejoin="round"/>
  <text x="1042" y="453.7" font-family="Helvetica" font-size="10" font-weight="normal" font-style="normal" fill="#000000" fill-opacity="1">128k</text>
  <path d="M 1112 9 L 1112 441" fill="none" stroke-width="0.75" stroke="#000000" stroke-opacity="0.49804" stroke-linecap="butt" stroke-linejoin="round"/>
  <text x="1101" y="453.7" font-family="Helvetica" font-size="10" font-weight="normal" font-style="normal" fill="#000000" fill-opacity="1">256k</text>
  <path d="M 1171 9 L 1171 441" fill="none" stroke-width="0.75" stroke="#000000" stroke-opacity="0.49804" stroke-linecap="butt" stroke-linejoin="round"/>
  <text x="1160" y="453.7" font-family="Helvetica" font-size="10" font-weight="normal" font-style="normal" fill="#000000" fill-opacity="1">512k</text>
  <path d="M 1230 9 L 1230 441" fill="none" stroke-width="0.75" stroke="#000000" stroke-opacity="0.49804" stroke-linecap="butt" stroke-linejoin="round"/>
  <text x="1223" y="453.7" font-family="Helvetica" font-size="10" font-weight="normal" font-style="normal" fill="#000000" fill-opacity="1">1M</text>
  <path d="M 50 441 L 1230 441" fill="none" stroke-width="0.75" stroke="#000000" stroke-opacity="0.49804" stroke-linecap="butt" stroke-linejoin="round"/>
  <text x="27" y="442.7" font-family="Helvetica" font-size="10" font-weight="normal" font-style="normal" fill="#000000" fill-opacity="1">1 ns</text>
  <text x="1236" y="442.7" font-family="Helvetica" font-size="10" font-weight="normal" font-style="normal" fill="#000000" fill-opacity="1">1 ns</text>
  <path d="M 50 297 L 1230 297" fill="none" stroke-width="0.75" stroke="#000000" stroke-opacity="0.49804" stroke-linecap="butt" stroke-linejoin="round"/>
  <text x="21" y="298.7" font-family="Helvetica" font-size="10" font-weight="normal" font-style="normal" fill="#000000" fill-opacity="1">10 ns</text>
  <text x="1236" y="298.7" font-family="Helvetica" font-size="10" font-weight="normal" font-style="normal" fill="#000000" fill-opacity="1">10 ns</text>
  <path d="M 50 153 L 1230 153" fill="none" stroke-width="0.75" stroke="#000000" stroke-opacity="0.49804" stroke-linecap="butt" stroke-linejoin="round"/>
  <text x="16" y="154.7" font-family="Helvetica" font-size="10" font-weight="normal" font-style="normal" fill="#000000" fill-opacity="1">100 ns</text>
  <text x="1236" y="154.7" font-family="Helvetica" font-size="10" font-weight="normal" font-style="normal" fill="#000000" fill-opacity="1">100 ns</text>
  <path d="M 50 9 L 1230 9" fill="none" stroke-width="0.75" stroke="#000000" stroke-opacity="0.49804" stroke-linecap="butt" stroke-linejoin="round"/>
  <text x="26" y="10.7" font-family="Helvetica" font-size="10" font-weight="normal" font-style="normal" fill="#000000" fill-opacity="1">1 µs</text>
  <text x="1236" y="10.7" font-family="Helvetica" font-size="10" font-weight="normal" font-style="normal" fill="#000000" fill-opacity="1">1 µs</text>
  <path d="M 50 397.65 L 1230 397.65" fill="none" stroke-width="0.5" stroke="#000000" stroke-opacity="0.25882" stroke-linecap="butt" stroke-linejoin="round" stroke-dasharray="6 3" stroke-dashoffset="0"/>
  <path d="M 50 354.3 L 1230 354.3" fill="none" stroke-width="0.5" stroke="#000000" stroke-opacity="0.25882" stroke-linecap="butt" stroke-linejoin="round" stroke-dasharray="6 3" stroke-dashoffset="0"/>
  <path d="M 50 310.96 L 1230 310.96" fill="none" stroke-width="0.5" stroke="#000000" stroke-opacity="0.25882" stroke-linecap="butt" stroke-linejoin="round" stroke-dasharray="6 3" stroke-dashoffset="0"/>
  <path d="M 50 267.61 L 1230 267.61" fill="none" stroke-width="0.5" stroke="#000000" stroke-opacity="0.25882" stroke-linecap="butt" stroke-linejoin="round" stroke-dasharray="6 3" stroke-dashoffset="0"/>
  <path d="M 50 224.26 L 1230 224.26" fill="none" stroke-width="0.5" stroke="#000000" stroke-opacity="0.25882" stroke-linecap="butt" stroke-linejoin="round" stroke-dasharray="6 3" stroke-dashoffset="0"/>
  <path d="M 50 180.91 L 1230 180.91" fill="none" stroke-width="0.5" stroke="#000000" stroke-opacity="0.25882" stroke-linecap="butt" stroke-linejoin="round" stroke-dasharray="6 3" stroke-dashoffset="0"/>
  <path d="M 50 137.56 L 1230 137.56" fill="none" stroke-width="0.5" stroke="#000000" stroke-opacity="0.25882" stroke-linecap="butt" stroke-linejoin="round" stroke-dasharray="6 3" stroke-dashoffset="0"/>
  <path d="M 50 94.213 L 1230 94.213" fill="none" stroke-width="0.5" stroke="#000000" stroke-opacity="0.25882" stroke-linecap="butt" stroke-linejoin="round" stroke-dasharray="6 3" stroke-dashoffset="0"/>
  <path d="M 50 50.865 L 1230 50.865" fill="none" stroke-width="0.5" stroke="#000000" stroke-opacity="0.25882" stroke-linecap="butt" stroke-linejoin="round" stroke-dasharray="6 3" stroke-dashoffset="0"/>
  <path d="M 74 33 L 74 88 L 327 88 L 327 33 z" fill="#FFFFFF" fill-opacity="1.0" stroke="none"/>
  <clipPath id="clip-0">
    <path d="M 50 9 L 50 441 L 1230 441 L 1230 9 z"/>
  </clipPath>
  <g clip-path="url(#clip-0)">
    <path d="M 50 59.24L 109 88.58L 143.51 98.789L 168 111.31L 186.99 111.67L 202.51 116.87L 215.63 116.89L 227 108.72L 245.99 112.91L 261.51 113.03L 274.63 114.69L 286 107.1L 304.99 112L 320.51 112.69L 333.63 112.95L 345 112.93L 363.99 112.61L 379.51 110.81L 392.63 111.88L 404 111.46L 422.99 107.43L 438.51 108.75L 451.63 108.63L 463 105.86L 481.99 108.74L 497.51 104.47L 510.63 104.99L 522 101.04L 540.99 103.61L 556.51 103.49L 569.63 103.2L 581 103.74L 599.99 100.39L 615.51 97.16L 628.63 100.61L 640 99.232L 658.99 96.176L 674.51 94.759L 687.63 88.514L 699 89.638L 717.99 91.28L 733.51 94.978L 746.63 93.007L 758 93.305L 776.99 92.889L 792.51 89.432L 805.63 92.695L 817 89.106L 835.99 89.358L 851.51 87.417L 864.63 88.383L 876 88.02L 894.99 84.623L 910.51 86.301L 923.63 81.835L 935 80.824L 953.99 84.561L 969.51 75.829L 982.63 78.822L 994 80.36L 1013 80.082L 1028.5 75.867L 1041.6 77.09L 1053 78.568L 1072 76.006L 1087.5 75.387L 1100.6 71.75L 1112 72.285L 1131 69.8L 1146.5 70.755L 1159.6 73.5L 1171 72.753L 1190 69.961L 1205.5 71.124L 1218.6 70.004L 1230 68.07L 1230 71.888L 1218.6 73.072L 1205.5 72.357L 1190 73.323L 1171 75.103L 1159.6 75.388L 1146.5 76.765L 1131 77.697L 1112 77.58L 1100.6 79.022L 1087.5 77.975L 1072 78.701L 1053 79.993L 1041.6 79.961L 1028.5 81.427L 1013 82.467L 994 84.549L 982.63 84.331L 969.51 84.924L 953.99 84.678L 935 86.162L 923.63 88.494L 910.51 88.103L 894.99 88.621L 876 89.598L 864.63 89.141L 851.51 91.79L 835.99 90.332L 817 93.527L 805.63 93.06L 792.51 92.134L 776.99 93.197L 758 95.094L 746.63 94.555L 733.51 96.399L 717.99 95.68L 699 96.491L 687.63 97.105L 674.51 99.516L 658.99 100.51L 640 104.93L 628.63 101.91L 615.51 102.91L 599.99 104.38L 581 104.98L 569.63 107.41L 556.51 106.6L 540.99 107.85L 522 107.72L 510.63 109.57L 497.51 112.33L 481.99 110.49L 463 113.9L 451.63 111.79L 438.51 112.75L 422.99 116.35L 404 113.9L 392.63 114.01L 379.51 115.86L 363.99 116.9L 345 116.16L 333.63 116.1L 320.51 116.36L 304.99 116.16L 286 112.88L 274.63 118.45L 261.51 118.53L 245.99 117.26L 227 112.13L 215.63 118.88L 202.51 118.95L 186.99 114.95L 168 113.86L 143.51 102.91L 109 95.54L 50 62.207" fill="#007AFF" fill-opacity="0.30196078431372547" stroke="none"/>
    <path d="M 50 144.04L 109 191.13L 143.51 214.6L 168 230.75L 186.99 222.55L 202.51 253.82L 215.63 263.4L 227 273.21L 245.99 287.6L 261.51 297.88L 274.63 306.25L 286 314.39L 304.99 326.18L 320.51 335.57L 333.63 344L 345 331.43L 363.99 338.15L 379.51 348.86L 392.63 353.92L 404 352.44L 422.99 360.17L 438.51 366.07L 451.63 368.88L 463 378.95L 481.99 385.75L 497.51 389.6L 510.63 392.32L 522 395.45L 540.99 399.07L 556.51 402.5L 569.63 400.54L 581 405.73L 599.99 406.08L 615.51 407.38L 628.63 408.54L 640 409.46L 658.99 410.15L 674.51 411.77L 687.63 412.34L 699 412.42L 717.99 413.43L 733.51 413.73L 746.63 413.89L 758 414.01L 776.99 414.29L 792.51 414.76L 805.63 413.54L 817 354.99L 835.99 411.91L 851.51 411.81L 864.63 410.89L 876 398.42L 894.99 411.27L 910.51 411.83L 923.63 357.31L 935 387.45L 953.99 398.05L 969.51 402.12L 982.63 409.93L 994 407.8L 1013 403.59L 1028.5 381.05L 1041.6 408.48L 1053 407.5L 1072 402.99L 1087.5 392.02L 1100.6 387.14L 1112 388.73L 1131 389.24L 1146.5 387.44L 1159.6 387.2L 1171 388.82L 1190 388.8L 1205.5 386.04L 1218.6 382.84L 1230 401.65L 1230 402.82L 1218.6 388.21L 1205.5 386.83L 1190 389.81L 1171 390.29L 1159.6 392.7L 1146.5 395.43L 1131 396.67L 1112 398.43L 1100.6 394.47L 1087.5 393.15L 1072 406.15L 1053 407.9L 1041.6 408.9L 1028.5 412.31L 1013 411.84L 994 410.79L 982.63 412.47L 969.51 411.54L 953.99 412.26L 935 412.19L 923.63 412.16L 910.51 411.97L 894.99 411.88L 876 411.25L 864.63 411.32L 851.51 412.52L 835.99 413.53L 817 415.06L 805.63 415.18L 792.51 414.96L 776.99 414.62L 758 414.2L 746.63 414.06L 733.51 413.86L 717.99 413.47L 699 412.67L 687.63 412.41L 674.51 411.79L 658.99 411.79L 640 409.65L 628.63 408.81L 615.51 408.45L 599.99 406.35L 581 405.84L 569.63 405.33L 556.51 402.71L 540.99 401.34L 522 398.27L 510.63 393.66L 497.51 390.76L 481.99 385.75L 463 381.3L 451.63 369.45L 438.51 367.02L 422.99 361.73L 404 352.44L 392.63 354.14L 379.51 349.15L 363.99 343.42L 345 331.69L 333.63 344.38L 320.51 336.36L 304.99 326.19L 286 315.21L 274.63 307.07L 261.51 297.88L 245.99 288.04L 227 273.63L 215.63 265.95L 202.51 257.69L 186.99 224.1L 168 231.18L 143.51 215.04L 109 191.58L 50 144.04" fill="#FF3B30" fill-opacity="0.30196078431372547" stroke="none"/>
    <path d="M 50 61.418L 109 93.646L 143.51 101.8L 168 113.19L 186.99 114.08L 202.51 118.4L 215.63 118.35L 227 111.22L 245.99 116.1L 261.51 117.04L 274.63 117.45L 286 111.31L 304.99 115.05L 320.51 115.38L 333.63 115.26L 345 115.3L 363.99 115.75L 379.51 114.5L 392.63 113.45L 404 113.25L 422.99 113.89L 438.51 111.68L 451.63 110.95L 463 111.7L 481.99 110.03L 497.51 110.18L 510.63 108.35L 522 105.91L 540.99 106.71L 556.51 105.77L 569.63 106.28L 581 104.65L 599.99 103.32L 615.51 101.35L 628.63 101.57L 640 103.39L 658.99 99.349L 674.51 98.238L 687.63 94.745L 699 94.627L 717.99 94.501L 733.51 96.025L 746.63 94.147L 758 94.622L 776.99 93.116L 792.51 91.417L 805.63 92.965L 817 92.342L 835.99 90.076L 851.51 90.618L 864.63 88.942L 876 89.182L 894.99 87.552L 910.51 87.627L 923.63 86.685L 935 84.723L 953.99 84.647L 969.51 82.418L 982.63 82.845L 994 83.427L 1013 81.836L 1028.5 79.926L 1041.6 79.198L 1053 79.618L 1072 77.986L 1087.5 77.288L 1100.6 77.039L 1112 76.153L 1131 75.536L 1146.5 75.139L 1159.6 74.889L 1171 74.48L 1190 72.427L 1205.5 72.033L 1218.6 72.256L 1230 70.868" fill="none" stroke-width="4" stroke="#007AFF" stroke-opacity="1" stroke-linecap="round" stroke-linejoin="round"/>
    <path d="M 50 144.04L 109 191.46L 143.51 214.92L 168 231.07L 186.99 223.69L 202.51 256.65L 215.63 265.28L 227 273.52L 245.99 287.92L 261.51 297.88L 274.63 306.86L 286 314.99L 304.99 326.19L 320.51 336.15L 333.63 344.28L 345 331.62L 363.99 342L 379.51 349.07L 392.63 354.08L 404 352.44L 422.99 361.32L 438.51 366.77L 451.63 369.3L 463 380.68L 481.99 385.75L 497.51 390.45L 510.63 393.31L 522 397.52L 540.99 400.74L 556.51 402.65L 569.63 404.04L 581 405.81L 599.99 406.28L 615.51 408.16L 628.63 408.74L 640 409.6L 658.99 411.36L 674.51 411.78L 687.63 412.4L 699 412.6L 717.99 413.46L 733.51 413.83L 746.63 414.02L 758 414.15L 776.99 414.53L 792.51 414.91L 805.63 414.75L 817 393.07L 835.99 413.11L 851.51 412.34L 864.63 411.21L 876 407.64L 894.99 411.72L 910.51 411.93L 923.63 392.62L 935 404.72L 953.99 408.22L 969.51 408.94L 982.63 411.8L 994 410L 1013 409.58L 1028.5 402.53L 1041.6 408.79L 1053 407.8L 1072 405.31L 1087.5 392.85L 1100.6 392.47L 1112 395.75L 1131 394.64L 1146.5 393.24L 1159.6 391.21L 1171 389.91L 1190 389.54L 1205.5 386.63L 1218.6 386.76L 1230 402.51" fill="none" stroke-width="4" stroke="#FF3B30" stroke-opacity="1" stroke-linecap="round" stroke-linejoin="round"/>
    <path d="M 50 61.418L 109 93.646L 143.51 101.8L 168 113.19L 186.99 114.08L 202.51 118.4L 215.63 118.35L 227 111.22L 245.99 116.1L 261.51 117.04L 274.63 117.45L 286 111.31L 304.99 115.05L 320.51 115.38L 333.63 115.26L 345 115.3L 363.99 115.75L 379.51 114.5L 392.63 113.45L 404 113.25L 422.99 113.89L 438.51 111.68L 451.63 110.95L 463 111.7L 481.99 110.03L 497.51 110.18L 510.63 108.35L 522 105.91L 540.99 106.71L 556.51 105.77L 569.63 106.28L 581 104.65L 599.99 103.32L 615.51 101.35L 628.63 101.57L 640 103.39L 658.99 99.349L 674.51 98.238L 687.63 94.745L 699 94.627L 717.99 94.501L 733.51 96.025L 746.63 94.147L 758 94.622L 776.99 93.116L 792.51 91.417L 805.63 92.965L 817 92.342L 835.99 90.076L 851.51 90.618L 864.63 88.942L 876 89.182L 894.99 87.552L 910.51 87.627L 923.63 86.685L 935 84.723L 953.99 84.647L 969.51 82.418L 982.63 82.845L 994 83.427L 1013 81.836L 1028.5 79.926L 1041.6 79.198L 1053 79.618L 1072 77.986L 1087.5 77.288L 1100.6 77.039L 1112 76.153L 1131 75.536L 1146.5 75.139L 1159.6 74.889L 1171 74.48L 1190 72.427L 1205.5 72.033L 1218.6 72.256L 1230 70.868" fill="none" stroke-width="0.5" stroke="#000000" stroke-opacity="0.30196" stroke-linecap="round" stroke-linejoin="round"/>
    <path d="M 50 144.04L 109 191.46L 143.51 214.92L 168 231.07L 186.99 223.69L 202.51 256.65L 215.63 265.28L 227 273.52L 245.99 287.92L 261.51 297.88L 274.63 306.86L 286 314.99L 304.99 326.19L 320.51 336.15L 333.63 344.28L 345 331.62L 363.99 342L 379.51 349.07L 392.63 354.08L 404 352.44L 422.99 361.32L 438.51 366.77L 451.63 369.3L 463 380.68L 481.99 385.75L 497.51 390.45L 510.63 393.31L 522 397.52L 540.99 400.74L 556.51 402.65L 569.63 404.04L 581 405.81L 599.99 406.28L 615.51 408.16L 628.63 408.74L 640 409.6L 658.99 411.36L 674.51 411.78L 687.63 412.4L 699 412.6L 717.99 413.46L 733.51 413.83L 746.63 414.02L 758 414.15L 776.99 414.53L 792.51 414.91L 805.63 414.75L 817 393.07L 835.99 413.11L 851.51 412.34L 864.63 411.21L 876 407.64L 894.99 411.72L 910.51 411.93L 923.63 392.62L 935 404.72L 953.99 408.22L 969.51 408.94L 982.63 411.8L 994 410L 1013 409.58L 1028.5 402.53L 1041.6 408.79L 1053 407.8L 1072 405.31L 1087.5 392.85L 1100.6 392.47L 1112 395.75L 1131 394.64L 1146.5 393.24L 1159.6 391.21L 1171 389.91L 1190 389.54L 1205.5 386.63L 1218.6 386.76L 1230 402.51" fill="none" stroke-width="0.5" stroke="#000000" stroke-opacity="0.30196" stroke-linecap="round" stroke-linejoin="round"/>
  </g>
  <path d="M 74 33 L 74 88 L 327 88 L 327 33 z" fill="#FFFFFF" fill-opacity="0.7019607843137254" stroke-width="0.5" stroke="#000000" stroke-opacity="1" stroke-linecap="round" stroke-linejoin="round"/>
  <path d="M 88 52 L 108 52" fill="none" stroke-width="4" stroke="#FF3B30" stroke-opacity="1" stroke-linecap="round" stroke-linejoin="round"/>
  <path d="M 88 52 L 108 52" fill="none" stroke-width="0.5" stroke="#000000" stroke-opacity="0.30196" stroke-linecap="round" stroke-linejoin="round"/>
  <text x="119" y="56.17" font-family="Menlo" font-size="12" font-weight="normal" font-style="normal" fill="#000000" fill-opacity="1">Array&lt;Int&gt; kalimba fast</text>
  <path d="M 88 69 L 108 69" fill="none" stroke-width="4" stroke="#007AFF" stroke-opacity="1" stroke-linecap="round" stroke-linejoin="round"/>
  <path d="M 88 69 L 108 69" fill="none" stroke-width="0.5" stroke="#000000" stroke-opacity="0.30196" stroke-linecap="round" stroke-linejoin="round"/>
  <text x="119" y="73.17" font-family="Menlo" font-size="12" font-weight="normal" font-style="normal" fill="#000000" fill-opacity="1">TreeArray&lt;Int&gt; kalimba fast</text>
  <path d="M 50 9 L 50 441 L 1230 441 L 1230 9 z" fill="none" stroke-width="0.5" stroke="#000000" stroke-opacity="1" stroke-linecap="round" stroke-linejoin="round"/>
</svg>
