<!DOCTYPE svg PUBLIC "-//W3C//DTD SVG 1.1//EN" "http://www.w3.org/Graphics/SVG/1.1/DTD/svg11.dtd">
<svg width="1280.0px" height="480.0px" viewBox="0.0 0.0 1280.0 480.0" xmlns="http://www.w3.org/2000/svg" xmlns:xlink="http://www.w3.org/1999/xlink" version="1.1">
  <path d="M 0 0 L 0 480 L 1280 480 L 1280 0 z" fill="#FFFFFF" fill-opacity="1.0" stroke="none"/>
  <text x="50" y="468.7" font-family="Helvetica" font-size="10" font-weight="normal" font-style="normal" fill="#000000" fill-opacity="1">Average per-element processing time over input size (bands: min, mean, mean + 2stddev)</text>
  <a xlink:href="https://github.com/apple/swift-collections-benchmark"><text x="1107" y="468.7" font-family="Helvetica" font-size="10" font-weight="normal" font-style="normal" fill="#000000" fill-opacity="1">swift-collections-benchmark</text></a>
  <path d="M 50 9 L 50 441" fill="none" stroke-width="0.75" stroke="#000000" stroke-opacity="0.49804" stroke-linecap="butt" stroke-linejoin="round"/>
  <text x="47" y="453.7" font-family="Helvetica" font-size="10" font-weight="normal" font-style="normal" fill="#000000" fill-opacity="1">1</text>
  <path d="M 109 9 L 109 441" fill="none" stroke-width="0.75" stroke="#000000" stroke-opacity="0.49804" stroke-linecap="butt" stroke-linejoin="round"/>
  <text x="106" y="453.7" font-family="Helvetica" font-size="10" font-weight="normal" font-style="normal" fill="#000000" fill-opacity="1">2</text>
  <path d="M 168 9 L 168 441" fill="none" stroke-width="0.75" stroke="#000000" stroke-opacity="0.49804" stroke-linecap="butt" stroke-linejoin="round"/>
  <text x="165" y="453.7" font-family="Helvetica" font-size="10" font-weight="normal" font-style="normal" fill="#000000" fill-opacity="1">4</text>
  <path d="M 227 9 L 227 441" fill="none" stroke-width="0.75" stroke="#000000" stroke-opacity="0.49804" stroke-linecap="butt" stroke-linejoin="round"/>
  <text x="224" y="453.7" font-family="Helvetica" font-size="10" font-weight="normal" font-style="normal" fill="#000000" fill-opacity="1">8</text>
  <path d="M 286 9 L 286 441" fill="none" stroke-width="0.75" stroke="#000000" stroke-opacity="0.49804" stroke-linecap="butt" stroke-linejoin="round"/>
  <text x="280" y="453.7" font-family="Helvetica" font-size="10" font-weight="normal" font-style="normal" fill="#000000" fill-opacity="1">16</text>
  <path d="M 345 9 L 345 441" fill="none" stroke-width="0.75" stroke="#000000" stroke-opacity="0.49804" stroke-linecap="butt" stroke-linejoin="round"/>
  <text x="339" y="453.7" font-family="Helvetica" font-size="10" font-weight="normal" font-style="normal" fill="#000000" fill-opacity="1">32</text>
  <path d="M 404 9 L 404 441" fill="none" stroke-width="0.75" stroke="#000000" stroke-opacity="0.49804" stroke-linecap="butt" stroke-linejoin="round"/>
  <text x="398" y="453.7" font-family="Helvetica" font-size="10" font-weight="normal" font-style="normal" fill="#000000" fill-opacity="1">64</text>
  <path d="M 463 9 L 463 441" fill="none" stroke-width="0.75" stroke="#000000" stroke-opacity="0.49804" stroke-linecap="butt" stroke-linejoin="round"/>
  <text x="454.5" y="453.7" font-family="Helvetica" font-size="10" font-weight="normal" font-style="normal" fill="#000000" fill-opacity="1">128</text>
  <path d="M 522 9 L 522 441" fill="none" stroke-width="0.75" stroke="#000000" stroke-opacity="0.49804" stroke-linecap="butt" stroke-linejoin="round"/>
  <text x="513.5" y="453.7" font-family="Helvetica" font-size="10" font-weight="normal" font-style="normal" fill="#000000" fill-opacity="1">256</text>
  <path d="M 581 9 L 581 441" fill="none" stroke-width="0.75" stroke="#000000" stroke-opacity="0.49804" stroke-linecap="butt" stroke-linejoin="round"/>
  <text x="572.5" y="453.7" font-family="Helvetica" font-size="10" font-weight="normal" font-style="normal" fill="#000000" fill-opacity="1">512</text>
  <path d="M 640 9 L 640 441" fill="none" stroke-width="0.75" stroke="#000000" stroke-opacity="0.49804" stroke-linecap="butt" stroke-linejoin="round"/>
  <text x="634.5" y="453.7" font-family="Helvetica" font-size="10" font-weight="normal" font-style="normal" fill="#000000" fill-opacity="1">1k</text>
  <path d="M 699 9 L 699 441" fill="none" stroke-width="0.75" stroke="#000000" stroke-opacity="0.49804" stroke-linecap="butt" stroke-linejoin="round"/>
  <text x="693.5" y="453.7" font-family="Helvetica" font-size="10" font-weight="normal" font-style="normal" fill="#000000" fill-opacity="1">2k</text>
  <path d="M 758 9 L 758 441" fill="none" stroke-width="0.75" stroke="#000000" stroke-opacity="0.49804" stroke-linecap="butt" stroke-linejoin="round"/>
  <text x="752.5" y="453.7" font-family="Helvetica" font-size="10" font-weight="normal" font-style="normal" fill="#000000" fill-opacity="1">4k</text>
  <path d="M 817 9 L 817 441" fill="none" stroke-width="0.75" stroke="#000000" stroke-opacity="0.49804" stroke-linecap="butt" stroke-linejoin="round"/>
  <text x="811.5" y="453.7" font-family="Helvetica" font-size="10" font-weight="normal" font-style="normal" fill="#000000" fill-opacity="1">8k</text>
  <path d="M 876 9 L 876 441" fill="none" stroke-width="0.75" stroke="#000000" stroke-opacity="0.49804" stroke-linecap="butt" stroke-linejoin="round"/>
  <text x="867.5" y="453.7" font-family="Helvetica" font-size="10" font-weight="normal" font-style="normal" fill="#000000" fill-opacity="1">16k</text>
  <path d="M 935 9 L 935 441" fill="none" stroke-width="0.75" stroke="#000000" stroke-opacity="0.49804" stroke-linecap="butt" stroke-linejoin="round"/>
  <text x="926.5" y="453.7" font-family="Helvetica" font-size="10" font-weight="normal" font-style="normal" fill="#000000" fill-opacity="1">32k</text>
  <path d="M 994 9 L 994 441" fill="none" stroke-width="0.75" stroke="#000000" stroke-opacity="0.49804" stroke-linecap="butt" stroke-linejoin="round"/>
  <text x="985.5" y="453.7" font-family="Helvetica" font-size="10" font-weight="normal" font-style="normal" fill="#000000" fill-opacity="1">64k</text>
  <path d="M 1053 9 L 1053 441" fill="none" stroke-width="0.75" stroke="#000000" stroke-opacity="0.49804" stroke-linecap="butt" stroke-linejoin="round"/>
  <text x="1042" y="453.7" font-family="Helvetica" font-size="10" font-weight="normal" font-style="normal" fill="#000000" fill-opacity="1">128k</text>
  <path d="M 1112 9 L 1112 441" fill="none" stroke-width="0.75" stroke="#000000" stroke-opacity="0.49804" stroke-linecap="butt" stroke-linejoin="round"/>
  <text x="1101" y="453.7" font-family="Helvetica" font-size="10" font-weight="normal" font-style="normal" fill="#000000" fill-opacity="1">256k</text>
  <path d="M 1171 9 L 1171 441" fill="none" stroke-width="0.75" stroke="#000000" stroke-opacity="0.49804" stroke-linecap="butt" stroke-linejoin="round"/>
  <text x="1160" y="453.7" font-family="Helvetica" font-size="10" font-weight="normal" font-style="normal" fill="#000000" fill-opacity="1">512k</text>
  <path d="M 1230 9 L 1230 441" fill="none" stroke-width="0.75" stroke="#000000" stroke-opacity="0.49804" stroke-linecap="butt" stroke-linejoin="round"/>
  <text x="1223" y="453.7" font-family="Helvetica" font-size="10" font-weight="normal" font-style="normal" fill="#000000" fill-opacity="1">1M</text>
  <path d="M 50 441 L 1230 441" fill="none" stroke-width="0.75" stroke="#000000" stroke-opacity="0.49804" stroke-linecap="butt" stroke-linejoin="round"/>
  <text x="27" y="442.7" font-family="Helvetica" font-size="10" font-weight="normal" font-style="normal" fill="#000000" fill-opacity="1">1 ns</text>
  <text x="1236" y="442.7" font-family="Helvetica" font-size="10" font-weight="normal" font-style="normal" fill="#000000" fill-opacity="1">1 ns</text>
  <path d="M 50 297 L 1230 297" fill="none" stroke-width="0.75" stroke="#000000" stroke-opacity="0.49804" stroke-linecap="butt" stroke-linejoin="round"/>
  <text x="21" y="298.7" font-family="Helvetica" font-size="10" font-weight="normal" font-style="normal" fill="#000000" fill-opacity="1">10 ns</text>
  <text x="1236" y="298.7" font-family="Helvetica" font-size="10" font-weight="normal" font-style="normal" fill="#000000" fill-opacity="1">10 ns</text>
  <path d="M 50 153 L 1230 153" fill="none" stroke-width="0.75" stroke="#000000" stroke-opacity="0.49804" stroke-linecap="butt" stroke-linejoin="round"/>
  <text x="16" y="154.7" font-family="Helvetica" font-size="10" font-weight="normal" font-style="normal" fill="#000000" fill-opacity="1">100 ns</text>
  <text x="1236" y="154.7" font-family="Helvetica" font-size="10" font-weight="normal" font-style="normal" fill="#000000" fill-opacity="1">100 ns</text>
  <path d="M 50 9 L 1230 9" fill="none" stroke-width="0.75" stroke="#000000" stroke-opacity="0.49804" stroke-linecap="butt" stroke-linejoin="round"/>
  <text x="26" y="10.7" font-family="Helvetica" font-size="10" font-weight="normal" font-style="normal" fill="#000000" fill-opacity="1">1 µs</text>
  <text x="1236" y="10.7" font-family="Helvetica" font-size="10" font-weight="normal" font-style="normal" fill="#000000" fill-opacity="1">1 µs</text>
  <path d="M 50 397.65 L 1230 397.65" fill="none" stroke-width="0.5" stroke="#000000" stroke-opacity="0.25882" stroke-linecap="butt" stroke-linejoin="round" stroke-dasharray="6 3" stroke-dashoffset="0"/>
  <path d="M 50 354.3 L 1230 354.3" fill="none" stroke-width="0.5" stroke="#000000" stroke-opacity="0.25882" stroke-linecap="butt" stroke-linejoin="round" stroke-dasharray="6 3" stroke-dashoffset="0"/>
  <path d="M 50 310.96 L 1230 310.96" fill="none" stroke-width="0.5" stroke="#000000" stroke-opacity="0.25882" stroke-linecap="butt" stroke-linejoin="round" stroke-dasharray="6 3" stroke-dashoffset="0"/>
  <path d="M 50 267.61 L 1230 267.61" fill="none" stroke-width="0.5" stroke="#000000" stroke-opacity="0.25882" stroke-linecap="butt" stroke-linejoin="round" stroke-dasharray="6 3" stroke-dashoffset="0"/>
  <path d="M 50 224.26 L 1230 224.26" fill="none" stroke-width="0.5" stroke="#000000" stroke-opacity="0.25882" stroke-linecap="butt" stroke-linejoin="round" stroke-dasharray="6 3" stroke-dashoffset="0"/>
  <path d="M 50 180.91 L 1230 180.91" fill="none" stroke-width="0.5" stroke="#000000" stroke-opacity="0.25882" stroke-linecap="butt" stroke-linejoin="round" stroke-dasharray="6 3" stroke-dashoffset="0"/>
  <path d="M 50 137.56 L 1230 137.56" fill="none" stroke-width="0.5" stroke="#000000" stroke-opacity="0.25882" stroke-linecap="butt" stroke-linejoin="round" stroke-dasharray="6 3" stroke-dashoffset="0"/>
  <path d="M 50 94.213 L 1230 94.213" fill="none" stroke-width="0.5" stroke="#000000" stroke-opacity="0.25882" stroke-linecap="butt" stroke-linejoin="round" stroke-dasharray="6 3" stroke-dashoffset="0"/>
  <path d="M 50 50.865 L 1230 50.865" fill="none" stroke-width="0.5" stroke="#000000" stroke-opacity="0.25882" stroke-linecap="butt" stroke-linejoin="round" stroke-dasharray="6 3" stroke-dashoffset="0"/>
  <path d="M 74 33 L 74 88 L 327 88 L 327 33 z" fill="#FFFFFF" fill-opacity="1.0" stroke="none"/>
  <clipPath id="clip-0">
    <path d="M 50 9 L 50 441 L 1230 441 L 1230 9 z"/>
  </clipPath>
  <g clip-path="url(#clip-0)">
    <path d="M 50 55.635L 109 90.821L 143.51 103.73L 168 113.11L 186.99 116.31L 202.51 122.06L 215.63 114.08L 227 118.8L 245.99 120.91L 261.51 121.85L 274.63 118.12L 286 119.07L 304.99 120.17L 320.51 121.08L 333.63 120.51L 345 120.89L 363.99 120.31L 379.51 121L 392.63 120.72L 404 121.27L 422.99 120.14L 438.51 116.62L 451.63 116.61L 463 115.49L 481.99 116.46L 497.51 112.67L 510.63 110.94L 522 110.86L 540.99 106.21L 556.51 107.48L 569.63 106.08L 581 108.3L 599.99 109.27L 615.51 82.587L 628.63 104.88L 640 104.06L 658.99 87.535L 674.51 90.434L 687.63 100.52L 699 100.25L 717.99 100.18L 733.51 96.184L 746.63 96.753L 758 96.437L 776.99 94.333L 792.51 88.474L 805.63 86.237L 817 91.675L 835.99 90.48L 851.51 87.508L 864.63 86.058L 876 85.896L 894.99 82.422L 910.51 83.638L 923.63 86.136L 935 78.878L 953.99 81.197L 969.51 76.033L 982.63 76.541L 994 78.075L 1013 80.988L 1028.5 77.254L 1041.6 76.891L 1053 74.353L 1072 77.729L 1087.5 77.326L 1100.6 76.161L 1112 74.148L 1131 75.879L 1146.5 73.709L 1159.6 72.433L 1171 71.916L 1190 70.48L 1205.5 70.637L 1218.6 71.337L 1230 69.878L 1230 70.322L 1218.6 72.535L 1205.5 71.701L 1190 71.963L 1171 75.157L 1159.6 74.1L 1146.5 74.927L 1131 76.356L 1112 75.394L 1100.6 77.347L 1087.5 79.364L 1072 79.966L 1053 80.961L 1041.6 79.566L 1028.5 81.606L 1013 83.305L 994 85.144L 982.63 86.383L 969.51 84.729L 953.99 84.446L 935 89.639L 923.63 87.16L 910.51 87.215L 894.99 90.248L 876 89.184L 864.63 87.971L 851.51 92.69L 835.99 90.85L 817 94.089L 805.63 97.21L 792.51 94.017L 776.99 94.731L 758 99.152L 746.63 99.677L 733.51 101.2L 717.99 101.2L 699 100.93L 687.63 104.11L 674.51 102.06L 658.99 104.48L 640 105.3L 628.63 106.58L 615.51 107.1L 599.99 109.73L 581 108.62L 569.63 109.37L 556.51 111.32L 540.99 114.47L 522 115.69L 510.63 119.06L 497.51 118.66L 481.99 116.94L 463 120.2L 451.63 118.64L 438.51 123.04L 422.99 120.23L 404 121.46L 392.63 121.48L 379.51 121.95L 363.99 122.37L 345 122.79L 333.63 122.94L 320.51 121.57L 304.99 120.61L 286 119.97L 274.63 118.23L 261.51 122.97L 245.99 121.83L 227 120.37L 215.63 114.85L 202.51 122.93L 186.99 117.32L 168 114.77L 143.51 104.65L 109 92.695L 50 56.162" fill="#007AFF" fill-opacity="0.30196078431372547" stroke="none"/>
    <path d="M 50 144.04L 109 191.13L 143.51 214.6L 168 230.75L 186.99 222.55L 202.51 253.82L 215.63 263.4L 227 273.21L 245.99 287.6L 261.51 297.88L 274.63 306.25L 286 314.39L 304.99 326.18L 320.51 335.57L 333.63 344L 345 331.43L 363.99 338.15L 379.51 348.86L 392.63 353.92L 404 352.44L 422.99 360.17L 438.51 366.07L 451.63 368.88L 463 378.95L 481.99 385.75L 497.51 389.6L 510.63 392.32L 522 395.45L 540.99 399.07L 556.51 402.5L 569.63 400.54L 581 405.73L 599.99 406.08L 615.51 407.38L 628.63 408.54L 640 409.46L 658.99 410.15L 674.51 411.77L 687.63 412.34L 699 412.42L 717.99 413.43L 733.51 413.73L 746.63 413.89L 758 414.01L 776.99 414.29L 792.51 414.76L 805.63 413.54L 817 354.99L 835.99 411.91L 851.51 411.81L 864.63 410.89L 876 398.42L 894.99 411.27L 910.51 411.83L 923.63 357.31L 935 387.45L 953.99 398.05L 969.51 402.12L 982.63 409.93L 994 407.8L 1013 403.59L 1028.5 381.05L 1041.6 408.48L 1053 407.5L 1072 402.99L 1087.5 392.02L 1100.6 387.14L 1112 388.73L 1131 389.24L 1146.5 387.44L 1159.6 387.2L 1171 388.82L 1190 388.8L 1205.5 386.04L 1218.6 382.84L 1230 401.65L 1230 402.82L 1218.6 388.21L 1205.5 386.83L 1190 389.81L 1171 390.29L 1159.6 392.7L 1146.5 395.43L 1131 396.67L 1112 398.43L 1100.6 394.47L 1087.5 393.15L 1072 406.15L 1053 407.9L 1041.6 408.9L 1028.5 412.31L 1013 411.84L 994 410.79L 982.63 412.47L 969.51 411.54L 953.99 412.26L 935 412.19L 923.63 412.16L 910.51 411.97L 894.99 411.88L 876 411.25L 864.63 411.32L 851.51 412.52L 835.99 413.53L 817 415.06L 805.63 415.18L 792.51 414.96L 776.99 414.62L 758 414.2L 746.63 414.06L 733.51 413.86L 717.99 413.47L 699 412.67L 687.63 412.41L 674.51 411.79L 658.99 411.79L 640 409.65L 628.63 408.81L 615.51 408.45L 599.99 406.35L 581 405.84L 569.63 405.33L 556.51 402.71L 540.99 401.34L 522 398.27L 510.63 393.66L 497.51 390.76L 481.99 385.75L 463 381.3L 451.63 369.45L 438.51 367.02L 422.99 361.73L 404 352.44L 392.63 354.14L 379.51 349.15L 363.99 343.42L 345 331.69L 333.63 344.38L 320.51 336.36L 304.99 326.19L 286 315.21L 274.63 307.07L 261.51 297.88L 245.99 288.04L 227 273.63L 215.63 265.95L 202.51 257.69L 186.99 224.1L 168 231.18L 143.51 215.04L 109 191.58L 50 144.04" fill="#FF3B30" fill-opacity="0.30196078431372547" stroke="none"/>
    <path d="M 50 56.024L 109 92.2L 143.51 104.41L 168 114.33L 186.99 117.06L 202.51 122.7L 215.63 114.65L 227 119.96L 245.99 121.59L 261.51 122.68L 274.63 118.2L 286 119.73L 304.99 120.49L 320.51 121.44L 333.63 122.3L 345 122.29L 363.99 121.83L 379.51 121.7L 392.63 121.28L 404 121.41L 422.99 120.21L 438.51 121.3L 451.63 118.11L 463 118.94L 481.99 116.82L 497.51 117.04L 510.63 116.84L 522 114.39L 540.99 112.21L 556.51 110.29L 569.63 108.5L 581 108.54L 599.99 109.61L 615.51 99.714L 628.63 106.13L 640 104.98L 658.99 99.59L 674.51 98.807L 687.63 103.15L 699 100.75L 717.99 100.93L 733.51 99.849L 746.63 98.9L 758 98.431L 776.99 94.627L 792.51 92.521L 805.63 94.153L 817 93.449L 835.99 90.753L 851.51 91.295L 864.63 87.466L 876 88.308L 894.99 88.107L 910.51 86.261L 923.63 86.891L 935 86.645L 953.99 83.581L 969.51 82.339L 982.63 83.659L 994 83.219L 1013 82.692L 1028.5 80.439L 1041.6 78.856L 1053 79.167L 1072 79.374L 1087.5 78.826L 1100.6 77.035L 1112 75.066L 1131 76.231L 1146.5 74.606L 1159.6 73.66L 1171 74.294L 1190 71.572L 1205.5 71.421L 1218.6 72.22L 1230 70.206" fill="none" stroke-width="4" stroke="#007AFF" stroke-opacity="1" stroke-linecap="round" stroke-linejoin="round"/>
    <path d="M 50 144.04L 109 191.46L 143.51 214.92L 168 231.07L 186.99 223.69L 202.51 256.65L 215.63 265.28L 227 273.52L 245.99 287.92L 261.51 297.88L 274.63 306.86L 286 314.99L 304.99 326.19L 320.51 336.15L 333.63 344.28L 345 331.62L 363.99 342L 379.51 349.07L 392.63 354.08L 404 352.44L 422.99 361.32L 438.51 366.77L 451.63 369.3L 463 380.68L 481.99 385.75L 497.51 390.45L 510.63 393.31L 522 397.52L 540.99 400.74L 556.51 402.65L 569.63 404.04L 581 405.81L 599.99 406.28L 615.51 408.16L 628.63 408.74L 640 409.6L 658.99 411.36L 674.51 411.78L 687.63 412.4L 699 412.6L 717.99 413.46L 733.51 413.83L 746.63 414.02L 758 414.15L 776.99 414.53L 792.51 414.91L 805.63 414.75L 817 393.07L 835.99 413.11L 851.51 412.34L 864.63 411.21L 876 407.64L 894.99 411.72L 910.51 411.93L 923.63 392.62L 935 404.72L 953.99 408.22L 969.51 408.94L 982.63 411.8L 994 410L 1013 409.58L 1028.5 402.53L 1041.6 408.79L 1053 407.8L 1072 405.31L 1087.5 392.85L 1100.6 392.47L 1112 395.75L 1131 394.64L 1146.5 393.24L 1159.6 391.21L 1171 389.91L 1190 389.54L 1205.5 386.63L 1218.6 386.76L 1230 402.51" fill="none" stroke-width="4" stroke="#FF3B30" stroke-opacity="1" stroke-linecap="round" stroke-linejoin="round"/>
    <path d="M 50 56.024L 109 92.2L 143.51 104.41L 168 114.33L 186.99 117.06L 202.51 122.7L 215.63 114.65L 227 119.96L 245.99 121.59L 261.51 122.68L 274.63 118.2L 286 119.73L 304.99 120.49L 320.51 121.44L 333.63 122.3L 345 122.29L 363.99 121.83L 379.51 121.7L 392.63 121.28L 404 121.41L 422.99 120.21L 438.51 121.3L 451.63 118.11L 463 118.94L 481.99 116.82L 497.51 117.04L 510.63 116.84L 522 114.39L 540.99 112.21L 556.51 110.29L 569.63 108.5L 581 108.54L 599.99 109.61L 615.51 99.714L 628.63 106.13L 640 104.98L 658.99 99.59L 674.51 98.807L 687.63 103.15L 699 100.75L 717.99 100.93L 733.51 99.849L 746.63 98.9L 758 98.431L 776.99 94.627L 792.51 92.521L 805.63 94.153L 817 93.449L 835.99 90.753L 851.51 91.295L 864.63 87.466L 876 88.308L 894.99 88.107L 910.51 86.261L 923.63 86.891L 935 86.645L 953.99 83.581L 969.51 82.339L 982.63 83.659L 994 83.219L 1013 82.692L 1028.5 80.439L 1041.6 78.856L 1053 79.167L 1072 79.374L 1087.5 78.826L 1100.6 77.035L 1112 75.066L 1131 76.231L 1146.5 74.606L 1159.6 73.66L 1171 74.294L 1190 71.572L 1205.5 71.421L 1218.6 72.22L 1230 70.206" fill="none" stroke-width="0.5" stroke="#000000" stroke-opacity="0.30196" stroke-linecap="round" stroke-linejoin="round"/>
    <path d="M 50 144.04L 109 191.46L 143.51 214.92L 168 231.07L 186.99 223.69L 202.51 256.65L 215.63 265.28L 227 273.52L 245.99 287.92L 261.51 297.88L 274.63 306.86L 286 314.99L 304.99 326.19L 320.51 336.15L 333.63 344.28L 345 331.62L 363.99 342L 379.51 349.07L 392.63 354.08L 404 352.44L 422.99 361.32L 438.51 366.77L 451.63 369.3L 463 380.68L 481.99 385.75L 497.51 390.45L 510.63 393.31L 522 397.52L 540.99 400.74L 556.51 402.65L 569.63 404.04L 581 405.81L 599.99 406.28L 615.51 408.16L 628.63 408.74L 640 409.6L 658.99 411.36L 674.51 411.78L 687.63 412.4L 699 412.6L 717.99 413.46L 733.51 413.83L 746.63 414.02L 758 414.15L 776.99 414.53L 792.51 414.91L 805.63 414.75L 817 393.07L 835.99 413.11L 851.51 412.34L 864.63 411.21L 876 407.64L 894.99 411.72L 910.51 411.93L 923.63 392.62L 935 404.72L 953.99 408.22L 969.51 408.94L 982.63 411.8L 994 410L 1013 409.58L 1028.5 402.53L 1041.6 408.79L 1053 407.8L 1072 405.31L 1087.5 392.85L 1100.6 392.47L 1112 395.75L 1131 394.64L 1146.5 393.24L 1159.6 391.21L 1171 389.91L 1190 389.54L 1205.5 386.63L 1218.6 386.76L 1230 402.51" fill="none" stroke-width="0.5" stroke="#000000" stroke-opacity="0.30196" stroke-linecap="round" stroke-linejoin="round"/>
  </g>
  <path d="M 74 33 L 74 88 L 327 88 L 327 33 z" fill="#FFFFFF" fill-opacity="0.7019607843137254" stroke-width="0.5" stroke="#000000" stroke-opacity="1" stroke-linecap="round" stroke-linejoin="round"/>
  <path d="M 88 52 L 108 52" fill="none" stroke-width="4" stroke="#FF3B30" stroke-opacity="1" stroke-linecap="round" stroke-linejoin="round"/>
  <path d="M 88 52 L 108 52" fill="none" stroke-width="0.5" stroke="#000000" stroke-opacity="0.30196" stroke-linecap="round" stroke-linejoin="round"/>
  <text x="119" y="56.17" font-family="Menlo" font-size="12" font-weight="normal" font-style="normal" fill="#000000" fill-opacity="1">Array&lt;Int&gt; kalimba fast</text>
  <path d="M 88 69 L 108 69" fill="none" stroke-width="4" stroke="#007AFF" stroke-opacity="1" stroke-linecap="round" stroke-linejoin="round"/>
  <path d="M 88 69 L 108 69" fill="none" stroke-width="0.5" stroke="#000000" stroke-opacity="0.30196" stroke-linecap="round" stroke-linejoin="round"/>
  <text x="119" y="73.17" font-family="Menlo" font-size="12" font-weight="normal" font-style="normal" fill="#000000" fill-opacity="1">TreeArray&lt;Int&gt; kalimba fast</text>
  <path d="M 50 9 L 50 441 L 1230 441 L 1230 9 z" fill="none" stroke-width="0.5" stroke="#000000" stroke-opacity="1" stroke-linecap="round" stroke-linejoin="round"/>
</svg>
