<!DOCTYPE svg PUBLIC "-//W3C//DTD SVG 1.1//EN" "http://www.w3.org/Graphics/SVG/1.1/DTD/svg11.dtd">
<svg width="1280.0px" height="480.0px" viewBox="0.0 0.0 1280.0 480.0" xmlns="http://www.w3.org/2000/svg" xmlns:xlink="http://www.w3.org/1999/xlink" version="1.1">
  <path d="M 0 0 L 0 480 L 1280 480 L 1280 0 z" fill="#FFFFFF" fill-opacity="1.0" stroke="none"/>
  <text x="50" y="468.7" font-family="Helvetica" font-size="10" font-weight="normal" font-style="normal" fill="#000000" fill-opacity="1">Average per-element processing time over input size (bands: min, mean, mean + 2stddev)</text>
  <a xlink:href="https://github.com/apple/swift-collections-benchmark"><text x="1107" y="468.7" font-family="Helvetica" font-size="10" font-weight="normal" font-style="normal" fill="#000000" fill-opacity="1">swift-collections-benchmark</text></a>
  <path d="M 50 9 L 50 441" fill="none" stroke-width="0.75" stroke="#000000" stroke-opacity="0.49804" stroke-linecap="butt" stroke-linejoin="round"/>
  <text x="47" y="453.7" font-family="Helvetica" font-size="10" font-weight="normal" font-style="normal" fill="#000000" fill-opacity="1">1</text>
  <path d="M 109 9 L 109 441" fill="none" stroke-width="0.75" stroke="#000000" stroke-opacity="0.49804" stroke-linecap="butt" stroke-linejoin="round"/>
  <text x="106" y="453.7" font-family="Helvetica" font-size="10" font-weight="normal" font-style="normal" fill="#000000" fill-opacity="1">2</text>
  <path d="M 168 9 L 168 441" fill="none" stroke-width="0.75" stroke="#000000" stroke-opacity="0.49804" stroke-linecap="butt" stroke-linejoin="round"/>
  <text x="165" y="453.7" font-family="Helvetica" font-size="10" font-weight="normal" font-style="normal" fill="#000000" fill-opacity="1">4</text>
  <path d="M 227 9 L 227 441" fill="none" stroke-width="0.75" stroke="#000000" stroke-opacity="0.49804" stroke-linecap="butt" stroke-linejoin="round"/>
  <text x="224" y="453.7" font-family="Helvetica" font-size="10" font-weight="normal" font-style="normal" fill="#000000" fill-opacity="1">8</text>
  <path d="M 286 9 L 286 441" fill="none" stroke-width="0.75" stroke="#000000" stroke-opacity="0.49804" stroke-linecap="butt" stroke-linejoin="round"/>
  <text x="280" y="453.7" font-family="Helvetica" font-size="10" font-weight="normal" font-style="normal" fill="#000000" fill-opacity="1">16</text>
  <path d="M 345 9 L 345 441" fill="none" stroke-width="0.75" stroke="#000000" stroke-opacity="0.49804" stroke-linecap="butt" stroke-linejoin="round"/>
  <text x="339" y="453.7" font-family="Helvetica" font-size="10" font-weight="normal" font-style="normal" fill="#000000" fill-opacity="1">32</text>
  <path d="M 404 9 L 404 441" fill="none" stroke-width="0.75" stroke="#000000" stroke-opacity="0.49804" stroke-linecap="butt" stroke-linejoin="round"/>
  <text x="398" y="453.7" font-family="Helvetica" font-size="10" font-weight="normal" font-style="normal" fill="#000000" fill-opacity="1">64</text>
  <path d="M 463 9 L 463 441" fill="none" stroke-width="0.75" stroke="#000000" stroke-opacity="0.49804" stroke-linecap="butt" stroke-linejoin="round"/>
  <text x="454.5" y="453.7" font-family="Helvetica" font-size="10" font-weight="normal" font-style="normal" fill="#000000" fill-opacity="1">128</text>
  <path d="M 522 9 L 522 441" fill="none" stroke-width="0.75" stroke="#000000" stroke-opacity="0.49804" stroke-linecap="butt" stroke-linejoin="round"/>
  <text x="513.5" y="453.7" font-family="Helvetica" font-size="10" font-weight="normal" font-style="normal" fill="#000000" fill-opacity="1">256</text>
  <path d="M 581 9 L 581 441" fill="none" stroke-width="0.75" stroke="#000000" stroke-opacity="0.49804" stroke-linecap="butt" stroke-linejoin="round"/>
  <text x="572.5" y="453.7" font-family="Helvetica" font-size="10" font-weight="normal" font-style="normal" fill="#000000" fill-opacity="1">512</text>
  <path d="M 640 9 L 640 441" fill="none" stroke-width="0.75" stroke="#000000" stroke-opacity="0.49804" stroke-linecap="butt" stroke-linejoin="round"/>
  <text x="634.5" y="453.7" font-family="Helvetica" font-size="10" font-weight="normal" font-style="normal" fill="#000000" fill-opacity="1">1k</text>
  <path d="M 699 9 L 699 441" fill="none" stroke-width="0.75" stroke="#000000" stroke-opacity="0.49804" stroke-linecap="butt" stroke-linejoin="round"/>
  <text x="693.5" y="453.7" font-family="Helvetica" font-size="10" font-weight="normal" font-style="normal" fill="#000000" fill-opacity="1">2k</text>
  <path d="M 758 9 L 758 441" fill="none" stroke-width="0.75" stroke="#000000" stroke-opacity="0.49804" stroke-linecap="butt" stroke-linejoin="round"/>
  <text x="752.5" y="453.7" font-family="Helvetica" font-size="10" font-weight="normal" font-style="normal" fill="#000000" fill-opacity="1">4k</text>
  <path d="M 817 9 L 817 441" fill="none" stroke-width="0.75" stroke="#000000" stroke-opacity="0.49804" stroke-linecap="butt" stroke-linejoin="round"/>
  <text x="811.5" y="453.7" font-family="Helvetica" font-size="10" font-weight="normal" font-style="normal" fill="#000000" fill-opacity="1">8k</text>
  <path d="M 876 9 L 876 441" fill="none" stroke-width="0.75" stroke="#000000" stroke-opacity="0.49804" stroke-linecap="butt" stroke-linejoin="round"/>
  <text x="867.5" y="453.7" font-family="Helvetica" font-size="10" font-weight="normal" font-style="normal" fill="#000000" fill-opacity="1">16k</text>
  <path d="M 935 9 L 935 441" fill="none" stroke-width="0.75" stroke="#000000" stroke-opacity="0.49804" stroke-linecap="butt" stroke-linejoin="round"/>
  <text x="926.5" y="453.7" font-family="Helvetica" font-size="10" font-weight="normal" font-style="normal" fill="#000000" fill-opacity="1">32k</text>
  <path d="M 994 9 L 994 441" fill="none" stroke-width="0.75" stroke="#000000" stroke-opacity="0.49804" stroke-linecap="butt" stroke-linejoin="round"/>
  <text x="985.5" y="453.7" font-family="Helvetica" font-size="10" font-weight="normal" font-style="normal" fill="#000000" fill-opacity="1">64k</text>
  <path d="M 1053 9 L 1053 441" fill="none" stroke-width="0.75" stroke="#000000" stroke-opacity="0.49804" stroke-linecap="butt" stroke-linejoin="round"/>
  <text x="1042" y="453.7" font-family="Helvetica" font-size="10" font-weight="normal" font-style="normal" fill="#000000" fill-opacity="1">128k</text>
  <path d="M 1112 9 L 1112 441" fill="none" stroke-width="0.75" stroke="#000000" stroke-opacity="0.49804" stroke-linecap="butt" stroke-linejoin="round"/>
  <text x="1101" y="453.7" font-family="Helvetica" font-size="10" font-weight="normal" font-style="normal" fill="#000000" fill-opacity="1">256k</text>
  <path d="M 1171 9 L 1171 441" fill="none" stroke-width="0.75" stroke="#000000" stroke-opacity="0.49804" stroke-linecap="butt" stroke-linejoin="round"/>
  <text x="1160" y="453.7" font-family="Helvetica" font-size="10" font-weight="normal" font-style="normal" fill="#000000" fill-opacity="1">512k</text>
  <path d="M 1230 9 L 1230 441" fill="none" stroke-width="0.75" stroke="#000000" stroke-opacity="0.49804" stroke-linecap="butt" stroke-linejoin="round"/>
  <text x="1223" y="453.7" font-family="Helvetica" font-size="10" font-weight="normal" font-style="normal" fill="#000000" fill-opacity="1">1M</text>
  <path d="M 50 441 L 1230 441" fill="none" stroke-width="0.75" stroke="#000000" stroke-opacity="0.49804" stroke-linecap="butt" stroke-linejoin="round"/>
  <text x="21" y="442.7" font-family="Helvetica" font-size="10" font-weight="normal" font-style="normal" fill="#000000" fill-opacity="1">10 ns</text>
  <text x="1236" y="442.7" font-family="Helvetica" font-size="10" font-weight="normal" font-style="normal" fill="#000000" fill-opacity="1">10 ns</text>
  <path d="M 50 333 L 1230 333" fill="none" stroke-width="0.75" stroke="#000000" stroke-opacity="0.49804" stroke-linecap="butt" stroke-linejoin="round"/>
  <text x="16" y="334.7" font-family="Helvetica" font-size="10" font-weight="normal" font-style="normal" fill="#000000" fill-opacity="1">100 ns</text>
  <text x="1236" y="334.7" font-family="Helvetica" font-size="10" font-weight="normal" font-style="normal" fill="#000000" fill-opacity="1">100 ns</text>
  <path d="M 50 225 L 1230 225" fill="none" stroke-width="0.75" stroke="#000000" stroke-opacity="0.49804" stroke-linecap="butt" stroke-linejoin="round"/>
  <text x="26" y="226.7" font-family="Helvetica" font-size="10" font-weight="normal" font-style="normal" fill="#000000" fill-opacity="1">1 µs</text>
  <text x="1236" y="226.7" font-family="Helvetica" font-size="10" font-weight="normal" font-style="normal" fill="#000000" fill-opacity="1">1 µs</text>
  <path d="M 50 117 L 1230 117" fill="none" stroke-width="0.75" stroke="#000000" stroke-opacity="0.49804" stroke-linecap="butt" stroke-linejoin="round"/>
  <text x="21" y="118.7" font-family="Helvetica" font-size="10" font-weight="normal" font-style="normal" fill="#000000" fill-opacity="1">10 µs</text>
  <text x="1236" y="118.7" font-family="Helvetica" font-size="10" font-weight="normal" font-style="normal" fill="#000000" fill-opacity="1">10 µs</text>
  <path d="M 50 9 L 1230 9" fill="none" stroke-width="0.75" stroke="#000000" stroke-opacity="0.49804" stroke-linecap="butt" stroke-linejoin="round"/>
  <text x="15" y="10.7" font-family="Helvetica" font-size="10" font-weight="normal" font-style="normal" fill="#000000" fill-opacity="1">100 µs</text>
  <text x="1236" y="10.7" font-family="Helvetica" font-size="10" font-weight="normal" font-style="normal" fill="#000000" fill-opacity="1">100 µs</text>
  <path d="M 50 408.49 L 1230 408.49" fill="none" stroke-width="0.5" stroke="#000000" stroke-opacity="0.25882" stroke-linecap="butt" stroke-linejoin="round" stroke-dasharray="6 3" stroke-dashoffset="0"/>
  <path d="M 50 375.98 L 1230 375.98" fill="none" stroke-width="0.5" stroke="#000000" stroke-opacity="0.25882" stroke-linecap="butt" stroke-linejoin="round" stroke-dasharray="6 3" stroke-dashoffset="0"/>
  <path d="M 50 343.47 L 1230 343.47" fill="none" stroke-width="0.5" stroke="#000000" stroke-opacity="0.25882" stroke-linecap="butt" stroke-linejoin="round" stroke-dasharray="6 3" stroke-dashoffset="0"/>
  <path d="M 50 310.96 L 1230 310.96" fill="none" stroke-width="0.5" stroke="#000000" stroke-opacity="0.25882" stroke-linecap="butt" stroke-linejoin="round" stroke-dasharray="6 3" stroke-dashoffset="0"/>
  <path d="M 50 278.44 L 1230 278.44" fill="none" stroke-width="0.5" stroke="#000000" stroke-opacity="0.25882" stroke-linecap="butt" stroke-linejoin="round" stroke-dasharray="6 3" stroke-dashoffset="0"/>
  <path d="M 50 245.93 L 1230 245.93" fill="none" stroke-width="0.5" stroke="#000000" stroke-opacity="0.25882" stroke-linecap="butt" stroke-linejoin="round" stroke-dasharray="6 3" stroke-dashoffset="0"/>
  <path d="M 50 213.42 L 1230 213.42" fill="none" stroke-width="0.5" stroke="#000000" stroke-opacity="0.25882" stroke-linecap="butt" stroke-linejoin="round" stroke-dasharray="6 3" stroke-dashoffset="0"/>
  <path d="M 50 180.91 L 1230 180.91" fill="none" stroke-width="0.5" stroke="#000000" stroke-opacity="0.25882" stroke-linecap="butt" stroke-linejoin="round" stroke-dasharray="6 3" stroke-dashoffset="0"/>
  <path d="M 50 148.4 L 1230 148.4" fill="none" stroke-width="0.5" stroke="#000000" stroke-opacity="0.25882" stroke-linecap="butt" stroke-linejoin="round" stroke-dasharray="6 3" stroke-dashoffset="0"/>
  <path d="M 50 115.89 L 1230 115.89" fill="none" stroke-width="0.5" stroke="#000000" stroke-opacity="0.25882" stroke-linecap="butt" stroke-linejoin="round" stroke-dasharray="6 3" stroke-dashoffset="0"/>
  <path d="M 50 83.376 L 1230 83.376" fill="none" stroke-width="0.5" stroke="#000000" stroke-opacity="0.25882" stroke-linecap="butt" stroke-linejoin="round" stroke-dasharray="6 3" stroke-dashoffset="0"/>
  <path d="M 50 50.865 L 1230 50.865" fill="none" stroke-width="0.5" stroke="#000000" stroke-opacity="0.25882" stroke-linecap="butt" stroke-linejoin="round" stroke-dasharray="6 3" stroke-dashoffset="0"/>
  <path d="M 50 18.354 L 1230 18.354" fill="none" stroke-width="0.5" stroke="#000000" stroke-opacity="0.25882" stroke-linecap="butt" stroke-linejoin="round" stroke-dasharray="6 3" stroke-dashoffset="0"/>
  <path d="M 74 33 L 74 88 L 363 88 L 363 33 z" fill="#FFFFFF" fill-opacity="1.0" stroke="none"/>
  <clipPath id="clip-0">
    <path d="M 50 9 L 50 441 L 1230 441 L 1230 9 z"/>
  </clipPath>
  <g clip-path="url(#clip-0)">
    <path d="M 50 372.68L 109 342.74L 143.51 360.22L 168 331.97L 186.99 346.49L 202.51 334.71L 215.63 322.78L 227 326.78L 245.99 317.01L 261.51 323.95L 274.63 320.54L 286 311.68L 304.99 318.75L 320.51 312.23L 333.63 313.5L 345 308.38L 363.99 307.1L 379.51 307.5L 392.63 306.86L 404 305.52L 422.99 303.29L 438.51 301.45L 451.63 294.6L 463 297.17L 481.99 297.85L 497.51 294.8L 510.63 292.54L 522 289.78L 540.99 284.47L 556.51 290.52L 569.63 286.94L 581 285.13L 599.99 286.2L 615.51 282.4L 628.63 281.47L 640 283.07L 658.99 281.84L 674.51 279.51L 687.63 280.07L 699 277.8L 717.99 274.28L 733.51 275.79L 746.63 274.8L 758 272.88L 776.99 271.53L 792.51 266.32L 805.63 267.65L 817 265.79L 835.99 263.18L 851.51 263.9L 864.63 262.05L 876 260.18L 894.99 256.25L 910.51 257.05L 923.63 257.58L 935 249.97L 953.99 247.4L 969.51 253.29L 982.63 246.05L 994 242.46L 1013 250.65L 1028.5 244.79L 1041.6 246.7L 1053 247.63L 1072 242.14L 1087.5 242.57L 1100.6 241.03L 1112 240.53L 1131 236.36L 1146.5 233.43L 1159.6 219.79L 1171 229.32L 1190 221.63L 1205.5 215.21L 1218.6 216.82L 1230 211.16L 1230 217.39L 1218.6 220.35L 1205.5 224.7L 1190 226.93L 1171 230.79L 1159.6 231.48L 1146.5 234.8L 1131 237.84L 1112 241.74L 1100.6 242.24L 1087.5 244.15L 1072 244.71L 1053 248.11L 1041.6 248.52L 1028.5 250.34L 1013 251.41L 994 253.15L 982.63 252.28L 969.51 255.31L 953.99 253.94L 935 258.48L 923.63 257.74L 910.51 260.16L 894.99 261.42L 876 262.76L 864.63 263.83L 851.51 264.03L 835.99 264.75L 817 269.15L 805.63 268.38L 792.51 270.6L 776.99 271.79L 758 273.61L 746.63 275.3L 733.51 275.88L 717.99 277.07L 699 278.77L 687.63 280.41L 674.51 280.68L 658.99 281.99L 640 283.5L 628.63 284.82L 615.51 286.19L 599.99 286.68L 581 288.37L 569.63 289.67L 556.51 291.2L 540.99 292.07L 522 295.66L 510.63 296.21L 497.51 295.41L 481.99 298.63L 463 301.29L 451.63 302.96L 438.51 302.66L 422.99 304.04L 404 305.86L 392.63 308.42L 379.51 310.78L 363.99 308.74L 345 309.78L 333.63 315.31L 320.51 316.43L 304.99 318.79L 286 321.56L 274.63 324.81L 261.51 326.61L 245.99 325.76L 227 331.1L 215.63 327.21L 202.51 341.55L 186.99 346.49L 168 355.04L 143.51 360.76L 109 373.69L 50 374.82" fill="#007AFF" fill-opacity="0.30196078431372547" stroke="none"/>
    <path d="M 50 373.69L 109 406.2L 143.51 393.27L 168 374.99L 186.99 398.02L 202.51 383.28L 215.63 400.22L 227 406.48L 245.99 406.22L 261.51 406.57L 274.63 413.8L 286 420.07L 304.99 411.52L 320.51 403.5L 333.63 414.14L 345 424.18L 363.99 420.07L 379.51 425.64L 392.63 427.3L 404 407.44L 422.99 421.95L 438.51 428.79L 451.63 426.25L 463 426.45L 481.99 425.18L 497.51 427.05L 510.63 423.03L 522 419.62L 540.99 413.01L 556.51 406.03L 569.63 402.38L 581 403.1L 599.99 392.02L 615.51 385.01L 628.63 386.01L 640 379.93L 658.99 369.6L 674.51 365.09L 687.63 360.63L 699 354.12L 717.99 345.65L 733.51 338.63L 746.63 329.78L 758 325.8L 776.99 315.33L 792.51 306.41L 805.63 299.48L 817 293.81L 835.99 282.37L 851.51 273.9L 864.63 267.2L 876 260.48L 894.99 249.64L 910.51 239.45L 923.63 229.77L 935 222.79L 953.99 209.87L 969.51 199.58L 982.63 191.35L 994 184.37L 1013 173.45L 1028.5 164.35L 1041.6 156.57L 1053 149.95L 1072 139.25L 1087.5 130.13L 1100.6 123.55L 1112 115.63L 1131 106.33L 1131 106.33L 1112 117.32L 1100.6 123.75L 1087.5 130.95L 1072 139.56L 1053 150.44L 1041.6 157.04L 1028.5 164.67L 1013 173.62L 994 184.82L 982.63 192.07L 969.51 200.25L 953.99 210.03L 935 222.95L 923.63 230.44L 910.51 239.89L 894.99 250.2L 876 261.41L 864.63 267.69L 851.51 274.92L 835.99 283.88L 817 293.87L 805.63 299.85L 792.51 307.11L 776.99 316.77L 758 326.33L 746.63 332.71L 733.51 338.76L 717.99 347.03L 699 355.14L 687.63 361.43L 674.51 369.44L 658.99 374.43L 640 384.2L 628.63 388.26L 615.51 394.29L 599.99 398.64L 581 404.43L 569.63 406.99L 556.51 410.39L 540.99 417.04L 522 420.56L 510.63 425.38L 497.51 427.09L 481.99 428.63L 463 428.61L 451.63 431.38L 438.51 431.84L 422.99 428.6L 404 433.56L 392.63 427.3L 379.51 425.64L 363.99 420.07L 345 424.18L 333.63 422.43L 320.51 420.07L 304.99 411.52L 286 420.07L 274.63 413.8L 261.51 406.57L 245.99 406.65L 227 406.48L 215.63 400.22L 202.51 406.57L 186.99 398.02L 168 406.76L 143.51 393.27L 109 406.2L 50 373.69" fill="#FF3B30" fill-opacity="0.30196078431372547" stroke="none"/>
    <path d="M 50 374.25L 109 363.45L 143.51 360.62L 168 347.84L 186.99 346.49L 202.51 339.67L 215.63 326.01L 227 329.94L 245.99 323.31L 261.51 325.9L 274.63 323.66L 286 318.77L 304.99 318.78L 320.51 315.3L 333.63 314.83L 345 309.41L 363.99 308.31L 379.51 309.9L 392.63 308.01L 404 305.77L 422.99 303.84L 438.51 302.34L 451.63 300.63L 463 300.18L 481.99 298.43L 497.51 295.25L 510.63 295.22L 522 294.05L 540.99 289.96L 556.51 291.02L 569.63 288.94L 581 287.5L 599.99 286.55L 615.51 285.17L 628.63 283.92L 640 283.38L 658.99 281.95L 674.51 280.37L 687.63 280.32L 699 278.52L 717.99 276.32L 733.51 275.86L 746.63 275.17L 758 273.42L 776.99 271.72L 792.51 269.44L 805.63 268.19L 817 268.25L 835.99 264.34L 851.51 263.99L 864.63 263.36L 876 262.07L 894.99 260.01L 910.51 259.32L 923.63 257.7L 935 256.11L 953.99 252.15L 969.51 254.77L 982.63 250.57L 994 250.11L 1013 251.21L 1028.5 248.82L 1041.6 248.04L 1053 247.99L 1072 244.03L 1087.5 243.74L 1100.6 241.93L 1112 241.42L 1131 237.45L 1146.5 234.44L 1159.6 228.13L 1171 230.4L 1190 225.49L 1205.5 222.03L 1218.6 219.4L 1230 215.68" fill="none" stroke-width="4" stroke="#007AFF" stroke-opacity="1" stroke-linecap="round" stroke-linejoin="round"/>
    <path d="M 50 373.69L 109 406.2L 143.51 393.27L 168 396.18L 186.99 398.02L 202.51 399.29L 215.63 400.22L 227 406.48L 245.99 406.54L 261.51 406.57L 274.63 413.8L 286 420.07L 304.99 411.52L 320.51 415.14L 333.63 420.12L 345 424.18L 363.99 420.07L 379.51 425.64L 392.63 427.3L 404 425.22L 422.99 426.77L 438.51 431.02L 451.63 429.98L 463 428.04L 481.99 427.7L 497.51 427.08L 510.63 424.76L 522 420.31L 540.99 415.96L 556.51 409.21L 569.63 405.74L 581 404.08L 599.99 396.82L 615.51 391.68L 628.63 387.66L 640 383.05L 658.99 373.12L 674.51 368.27L 687.63 361.22L 699 354.87L 717.99 346.66L 733.51 338.73L 746.63 331.93L 758 326.19L 776.99 316.39L 792.51 306.93L 805.63 299.75L 817 293.85L 835.99 283.48L 851.51 274.65L 864.63 267.56L 876 261.17L 894.99 250.06L 910.51 239.77L 923.63 230.26L 935 222.91L 953.99 209.99L 969.51 200.07L 982.63 191.88L 994 184.7L 1013 173.58L 1028.5 164.59L 1041.6 156.92L 1053 150.31L 1072 139.48L 1087.5 130.74L 1100.6 123.7L 1112 116.88L 1131 106.33" fill="none" stroke-width="4" stroke="#FF3B30" stroke-opacity="1" stroke-linecap="round" stroke-linejoin="round"/>
    <path d="M 50 374.25L 109 363.45L 143.51 360.62L 168 347.84L 186.99 346.49L 202.51 339.67L 215.63 326.01L 227 329.94L 245.99 323.31L 261.51 325.9L 274.63 323.66L 286 318.77L 304.99 318.78L 320.51 315.3L 333.63 314.83L 345 309.41L 363.99 308.31L 379.51 309.9L 392.63 308.01L 404 305.77L 422.99 303.84L 438.51 302.34L 451.63 300.63L 463 300.18L 481.99 298.43L 497.51 295.25L 510.63 295.22L 522 294.05L 540.99 289.96L 556.51 291.02L 569.63 288.94L 581 287.5L 599.99 286.55L 615.51 285.17L 628.63 283.92L 640 283.38L 658.99 281.95L 674.51 280.37L 687.63 280.32L 699 278.52L 717.99 276.32L 733.51 275.86L 746.63 275.17L 758 273.42L 776.99 271.72L 792.51 269.44L 805.63 268.19L 817 268.25L 835.99 264.34L 851.51 263.99L 864.63 263.36L 876 262.07L 894.99 260.01L 910.51 259.32L 923.63 257.7L 935 256.11L 953.99 252.15L 969.51 254.77L 982.63 250.57L 994 250.11L 1013 251.21L 1028.5 248.82L 1041.6 248.04L 1053 247.99L 1072 244.03L 1087.5 243.74L 1100.6 241.93L 1112 241.42L 1131 237.45L 1146.5 234.44L 1159.6 228.13L 1171 230.4L 1190 225.49L 1205.5 222.03L 1218.6 219.4L 1230 215.68" fill="none" stroke-width="0.5" stroke="#000000" stroke-opacity="0.30196" stroke-linecap="round" stroke-linejoin="round"/>
    <path d="M 50 373.69L 109 406.2L 143.51 393.27L 168 396.18L 186.99 398.02L 202.51 399.29L 215.63 400.22L 227 406.48L 245.99 406.54L 261.51 406.57L 274.63 413.8L 286 420.07L 304.99 411.52L 320.51 415.14L 333.63 420.12L 345 424.18L 363.99 420.07L 379.51 425.64L 392.63 427.3L 404 425.22L 422.99 426.77L 438.51 431.02L 451.63 429.98L 463 428.04L 481.99 427.7L 497.51 427.08L 510.63 424.76L 522 420.31L 540.99 415.96L 556.51 409.21L 569.63 405.74L 581 404.08L 599.99 396.82L 615.51 391.68L 628.63 387.66L 640 383.05L 658.99 373.12L 674.51 368.27L 687.63 361.22L 699 354.87L 717.99 346.66L 733.51 338.73L 746.63 331.93L 758 326.19L 776.99 316.39L 792.51 306.93L 805.63 299.75L 817 293.85L 835.99 283.48L 851.51 274.65L 864.63 267.56L 876 261.17L 894.99 250.06L 910.51 239.77L 923.63 230.26L 935 222.91L 953.99 209.99L 969.51 200.07L 982.63 191.88L 994 184.7L 1013 173.58L 1028.5 164.59L 1041.6 156.92L 1053 150.31L 1072 139.48L 1087.5 130.74L 1100.6 123.7L 1112 116.88L 1131 106.33" fill="none" stroke-width="0.5" stroke="#000000" stroke-opacity="0.30196" stroke-linecap="round" stroke-linejoin="round"/>
  </g>
  <path d="M 74 33 L 74 88 L 363 88 L 363 33 z" fill="#FFFFFF" fill-opacity="0.7019607843137254" stroke-width="0.5" stroke="#000000" stroke-opacity="1" stroke-linecap="round" stroke-linejoin="round"/>
  <path d="M 88 52 L 108 52" fill="none" stroke-width="4" stroke="#FF3B30" stroke-opacity="1" stroke-linecap="round" stroke-linejoin="round"/>
  <path d="M 88 52 L 108 52" fill="none" stroke-width="0.5" stroke="#000000" stroke-opacity="0.30196" stroke-linecap="round" stroke-linejoin="round"/>
  <text x="119" y="56.17" font-family="Menlo" font-size="12" font-weight="normal" font-style="normal" fill="#000000" fill-opacity="1">Array&lt;Int&gt; random insertions</text>
  <path d="M 88 69 L 108 69" fill="none" stroke-width="4" stroke="#007AFF" stroke-opacity="1" stroke-linecap="round" stroke-linejoin="round"/>
  <path d="M 88 69 L 108 69" fill="none" stroke-width="0.5" stroke="#000000" stroke-opacity="0.30196" stroke-linecap="round" stroke-linejoin="round"/>
  <text x="119" y="73.17" font-family="Menlo" font-size="12" font-weight="normal" font-style="normal" fill="#000000" fill-opacity="1">TreeArray&lt;Int&gt; random insertions</text>
  <path d="M 50 9 L 50 441 L 1230 441 L 1230 9 z" fill="none" stroke-width="0.5" stroke="#000000" stroke-opacity="1" stroke-linecap="round" stroke-linejoin="round"/>
</svg>
