<!DOCTYPE svg PUBLIC "-//W3C//DTD SVG 1.1//EN" "http://www.w3.org/Graphics/SVG/1.1/DTD/svg11.dtd">
<svg width="1280.0px" height="480.0px" viewBox="0.0 0.0 1280.0 480.0" xmlns="http://www.w3.org/2000/svg" xmlns:xlink="http://www.w3.org/1999/xlink" version="1.1">
  <path d="M 0 0 L 0 480 L 1280 480 L 1280 0 z" fill="#FFFFFF" fill-opacity="1.0" stroke="none"/>
  <text x="50" y="468.7" font-family="Helvetica" font-size="10" font-weight="normal" font-style="normal" fill="#000000" fill-opacity="1">Average per-element processing time over input size (bands: min, mean, mean + 2stddev)</text>
  <a xlink:href="https://github.com/apple/swift-collections-benchmark"><text x="1107" y="468.7" font-family="Helvetica" font-size="10" font-weight="normal" font-style="normal" fill="#000000" fill-opacity="1">swift-collections-benchmark</text></a>
  <path d="M 50 9 L 50 441" fill="none" stroke-width="0.75" stroke="#000000" stroke-opacity="0.49804" stroke-linecap="butt" stroke-linejoin="round"/>
  <text x="47" y="453.7" font-family="Helvetica" font-size="10" font-weight="normal" font-style="normal" fill="#000000" fill-opacity="1">1</text>
  <path d="M 109 9 L 109 441" fill="none" stroke-width="0.75" stroke="#000000" stroke-opacity="0.49804" stroke-linecap="butt" stroke-linejoin="round"/>
  <text x="106" y="453.7" font-family="Helvetica" font-size="10" font-weight="normal" font-style="normal" fill="#000000" fill-opacity="1">2</text>
  <path d="M 168 9 L 168 441" fill="none" stroke-width="0.75" stroke="#000000" stroke-opacity="0.49804" stroke-linecap="butt" stroke-linejoin="round"/>
  <text x="165" y="453.7" font-family="Helvetica" font-size="10" font-weight="normal" font-style="normal" fill="#000000" fill-opacity="1">4</text>
  <path d="M 227 9 L 227 441" fill="none" stroke-width="0.75" stroke="#000000" stroke-opacity="0.49804" stroke-linecap="butt" stroke-linejoin="round"/>
  <text x="224" y="453.7" font-family="Helvetica" font-size="10" font-weight="normal" font-style="normal" fill="#000000" fill-opacity="1">8</text>
  <path d="M 286 9 L 286 441" fill="none" stroke-width="0.75" stroke="#000000" stroke-opacity="0.49804" stroke-linecap="butt" stroke-linejoin="round"/>
  <text x="280" y="453.7" font-family="Helvetica" font-size="10" font-weight="normal" font-style="normal" fill="#000000" fill-opacity="1">16</text>
  <path d="M 345 9 L 345 441" fill="none" stroke-width="0.75" stroke="#000000" stroke-opacity="0.49804" stroke-linecap="butt" stroke-linejoin="round"/>
  <text x="339" y="453.7" font-family="Helvetica" font-size="10" font-weight="normal" font-style="normal" fill="#000000" fill-opacity="1">32</text>
  <path d="M 404 9 L 404 441" fill="none" stroke-width="0.75" stroke="#000000" stroke-opacity="0.49804" stroke-linecap="butt" stroke-linejoin="round"/>
  <text x="398" y="453.7" font-family="Helvetica" font-size="10" font-weight="normal" font-style="normal" fill="#000000" fill-opacity="1">64</text>
  <path d="M 463 9 L 463 441" fill="none" stroke-width="0.75" stroke="#000000" stroke-opacity="0.49804" stroke-linecap="butt" stroke-linejoin="round"/>
  <text x="454.5" y="453.7" font-family="Helvetica" font-size="10" font-weight="normal" font-style="normal" fill="#000000" fill-opacity="1">128</text>
  <path d="M 522 9 L 522 441" fill="none" stroke-width="0.75" stroke="#000000" stroke-opacity="0.49804" stroke-linecap="butt" stroke-linejoin="round"/>
  <text x="513.5" y="453.7" font-family="Helvetica" font-size="10" font-weight="normal" font-style="normal" fill="#000000" fill-opacity="1">256</text>
  <path d="M 581 9 L 581 441" fill="none" stroke-width="0.75" stroke="#000000" stroke-opacity="0.49804" stroke-linecap="butt" stroke-linejoin="round"/>
  <text x="572.5" y="453.7" font-family="Helvetica" font-size="10" font-weight="normal" font-style="normal" fill="#000000" fill-opacity="1">512</text>
  <path d="M 640 9 L 640 441" fill="none" stroke-width="0.75" stroke="#000000" stroke-opacity="0.49804" stroke-linecap="butt" stroke-linejoin="round"/>
  <text x="634.5" y="453.7" font-family="Helvetica" font-size="10" font-weight="normal" font-style="normal" fill="#000000" fill-opacity="1">1k</text>
  <path d="M 699 9 L 699 441" fill="none" stroke-width="0.75" stroke="#000000" stroke-opacity="0.49804" stroke-linecap="butt" stroke-linejoin="round"/>
  <text x="693.5" y="453.7" font-family="Helvetica" font-size="10" font-weight="normal" font-style="normal" fill="#000000" fill-opacity="1">2k</text>
  <path d="M 758 9 L 758 441" fill="none" stroke-width="0.75" stroke="#000000" stroke-opacity="0.49804" stroke-linecap="butt" stroke-linejoin="round"/>
  <text x="752.5" y="453.7" font-family="Helvetica" font-size="10" font-weight="normal" font-style="normal" fill="#000000" fill-opacity="1">4k</text>
  <path d="M 817 9 L 817 441" fill="none" stroke-width="0.75" stroke="#000000" stroke-opacity="0.49804" stroke-linecap="butt" stroke-linejoin="round"/>
  <text x="811.5" y="453.7" font-family="Helvetica" font-size="10" font-weight="normal" font-style="normal" fill="#000000" fill-opacity="1">8k</text>
  <path d="M 876 9 L 876 441" fill="none" stroke-width="0.75" stroke="#000000" stroke-opacity="0.49804" stroke-linecap="butt" stroke-linejoin="round"/>
  <text x="867.5" y="453.7" font-family="Helvetica" font-size="10" font-weight="normal" font-style="normal" fill="#000000" fill-opacity="1">16k</text>
  <path d="M 935 9 L 935 441" fill="none" stroke-width="0.75" stroke="#000000" stroke-opacity="0.49804" stroke-linecap="butt" stroke-linejoin="round"/>
  <text x="926.5" y="453.7" font-family="Helvetica" font-size="10" font-weight="normal" font-style="normal" fill="#000000" fill-opacity="1">32k</text>
  <path d="M 994 9 L 994 441" fill="none" stroke-width="0.75" stroke="#000000" stroke-opacity="0.49804" stroke-linecap="butt" stroke-linejoin="round"/>
  <text x="985.5" y="453.7" font-family="Helvetica" font-size="10" font-weight="normal" font-style="normal" fill="#000000" fill-opacity="1">64k</text>
  <path d="M 1053 9 L 1053 441" fill="none" stroke-width="0.75" stroke="#000000" stroke-opacity="0.49804" stroke-linecap="butt" stroke-linejoin="round"/>
  <text x="1042" y="453.7" font-family="Helvetica" font-size="10" font-weight="normal" font-style="normal" fill="#000000" fill-opacity="1">128k</text>
  <path d="M 1112 9 L 1112 441" fill="none" stroke-width="0.75" stroke="#000000" stroke-opacity="0.49804" stroke-linecap="butt" stroke-linejoin="round"/>
  <text x="1101" y="453.7" font-family="Helvetica" font-size="10" font-weight="normal" font-style="normal" fill="#000000" fill-opacity="1">256k</text>
  <path d="M 1171 9 L 1171 441" fill="none" stroke-width="0.75" stroke="#000000" stroke-opacity="0.49804" stroke-linecap="butt" stroke-linejoin="round"/>
  <text x="1160" y="453.7" font-family="Helvetica" font-size="10" font-weight="normal" font-style="normal" fill="#000000" fill-opacity="1">512k</text>
  <path d="M 1230 9 L 1230 441" fill="none" stroke-width="0.75" stroke="#000000" stroke-opacity="0.49804" stroke-linecap="butt" stroke-linejoin="round"/>
  <text x="1223" y="453.7" font-family="Helvetica" font-size="10" font-weight="normal" font-style="normal" fill="#000000" fill-opacity="1">1M</text>
  <path d="M 50 441 L 1230 441" fill="none" stroke-width="0.75" stroke="#000000" stroke-opacity="0.49804" stroke-linecap="butt" stroke-linejoin="round"/>
  <text x="21" y="442.7" font-family="Helvetica" font-size="10" font-weight="normal" font-style="normal" fill="#000000" fill-opacity="1">10 ns</text>
  <text x="1236" y="442.7" font-family="Helvetica" font-size="10" font-weight="normal" font-style="normal" fill="#000000" fill-opacity="1">10 ns</text>
  <path d="M 50 333 L 1230 333" fill="none" stroke-width="0.75" stroke="#000000" stroke-opacity="0.49804" stroke-linecap="butt" stroke-linejoin="round"/>
  <text x="16" y="334.7" font-family="Helvetica" font-size="10" font-weight="normal" font-style="normal" fill="#000000" fill-opacity="1">100 ns</text>
  <text x="1236" y="334.7" font-family="Helvetica" font-size="10" font-weight="normal" font-style="normal" fill="#000000" fill-opacity="1">100 ns</text>
  <path d="M 50 225 L 1230 225" fill="none" stroke-width="0.75" stroke="#000000" stroke-opacity="0.49804" stroke-linecap="butt" stroke-linejoin="round"/>
  <text x="26" y="226.7" font-family="Helvetica" font-size="10" font-weight="normal" font-style="normal" fill="#000000" fill-opacity="1">1 µs</text>
  <text x="1236" y="226.7" font-family="Helvetica" font-size="10" font-weight="normal" font-style="normal" fill="#000000" fill-opacity="1">1 µs</text>
  <path d="M 50 117 L 1230 117" fill="none" stroke-width="0.75" stroke="#000000" stroke-opacity="0.49804" stroke-linecap="butt" stroke-linejoin="round"/>
  <text x="21" y="118.7" font-family="Helvetica" font-size="10" font-weight="normal" font-style="normal" fill="#000000" fill-opacity="1">10 µs</text>
  <text x="1236" y="118.7" font-family="Helvetica" font-size="10" font-weight="normal" font-style="normal" fill="#000000" fill-opacity="1">10 µs</text>
  <path d="M 50 9 L 1230 9" fill="none" stroke-width="0.75" stroke="#000000" stroke-opacity="0.49804" stroke-linecap="butt" stroke-linejoin="round"/>
  <text x="15" y="10.7" font-family="Helvetica" font-size="10" font-weight="normal" font-style="normal" fill="#000000" fill-opacity="1">100 µs</text>
  <text x="1236" y="10.7" font-family="Helvetica" font-size="10" font-weight="normal" font-style="normal" fill="#000000" fill-opacity="1">100 µs</text>
  <path d="M 50 408.49 L 1230 408.49" fill="none" stroke-width="0.5" stroke="#000000" stroke-opacity="0.25882" stroke-linecap="butt" stroke-linejoin="round" stroke-dasharray="6 3" stroke-dashoffset="0"/>
  <path d="M 50 375.98 L 1230 375.98" fill="none" stroke-width="0.5" stroke="#000000" stroke-opacity="0.25882" stroke-linecap="butt" stroke-linejoin="round" stroke-dasharray="6 3" stroke-dashoffset="0"/>
  <path d="M 50 343.47 L 1230 343.47" fill="none" stroke-width="0.5" stroke="#000000" stroke-opacity="0.25882" stroke-linecap="butt" stroke-linejoin="round" stroke-dasharray="6 3" stroke-dashoffset="0"/>
  <path d="M 50 310.96 L 1230 310.96" fill="none" stroke-width="0.5" stroke="#000000" stroke-opacity="0.25882" stroke-linecap="butt" stroke-linejoin="round" stroke-dasharray="6 3" stroke-dashoffset="0"/>
  <path d="M 50 278.44 L 1230 278.44" fill="none" stroke-width="0.5" stroke="#000000" stroke-opacity="0.25882" stroke-linecap="butt" stroke-linejoin="round" stroke-dasharray="6 3" stroke-dashoffset="0"/>
  <path d="M 50 245.93 L 1230 245.93" fill="none" stroke-width="0.5" stroke="#000000" stroke-opacity="0.25882" stroke-linecap="butt" stroke-linejoin="round" stroke-dasharray="6 3" stroke-dashoffset="0"/>
  <path d="M 50 213.42 L 1230 213.42" fill="none" stroke-width="0.5" stroke="#000000" stroke-opacity="0.25882" stroke-linecap="butt" stroke-linejoin="round" stroke-dasharray="6 3" stroke-dashoffset="0"/>
  <path d="M 50 180.91 L 1230 180.91" fill="none" stroke-width="0.5" stroke="#000000" stroke-opacity="0.25882" stroke-linecap="butt" stroke-linejoin="round" stroke-dasharray="6 3" stroke-dashoffset="0"/>
  <path d="M 50 148.4 L 1230 148.4" fill="none" stroke-width="0.5" stroke="#000000" stroke-opacity="0.25882" stroke-linecap="butt" stroke-linejoin="round" stroke-dasharray="6 3" stroke-dashoffset="0"/>
  <path d="M 50 115.89 L 1230 115.89" fill="none" stroke-width="0.5" stroke="#000000" stroke-opacity="0.25882" stroke-linecap="butt" stroke-linejoin="round" stroke-dasharray="6 3" stroke-dashoffset="0"/>
  <path d="M 50 83.376 L 1230 83.376" fill="none" stroke-width="0.5" stroke="#000000" stroke-opacity="0.25882" stroke-linecap="butt" stroke-linejoin="round" stroke-dasharray="6 3" stroke-dashoffset="0"/>
  <path d="M 50 50.865 L 1230 50.865" fill="none" stroke-width="0.5" stroke="#000000" stroke-opacity="0.25882" stroke-linecap="butt" stroke-linejoin="round" stroke-dasharray="6 3" stroke-dashoffset="0"/>
  <path d="M 50 18.354 L 1230 18.354" fill="none" stroke-width="0.5" stroke="#000000" stroke-opacity="0.25882" stroke-linecap="butt" stroke-linejoin="round" stroke-dasharray="6 3" stroke-dashoffset="0"/>
  <path d="M 74 33 L 74 88 L 363 88 L 363 33 z" fill="#FFFFFF" fill-opacity="1.0" stroke="none"/>
  <clipPath id="clip-0">
    <path d="M 50 9 L 50 441 L 1230 441 L 1230 9 z"/>
  </clipPath>
  <g clip-path="url(#clip-0)">
    <path d="M 50 374.82L 109 373.69L 143.51 342.41L 168 341.97L 186.99 341.92L 202.51 331.62L 215.63 324.99L 227 328.8L 245.99 324.41L 261.51 328.16L 274.63 318.61L 286 315.45L 304.99 312.87L 320.51 307.53L 333.63 302.69L 345 313.7L 363.99 302.29L 379.51 305.3L 392.63 306.28L 404 304.45L 422.99 301.55L 438.51 293.87L 451.63 299.86L 463 299.33L 481.99 296.89L 497.51 294.22L 510.63 294.2L 522 293.93L 540.99 290.56L 556.51 290.34L 569.63 285.86L 581 288.06L 599.99 286.31L 615.51 285.02L 628.63 283.47L 640 282.03L 658.99 280.47L 674.51 278.86L 687.63 277.8L 699 277.96L 717.99 275.74L 733.51 274.77L 746.63 273.15L 758 271.64L 776.99 270.47L 792.51 269.96L 805.63 269.29L 817 267.5L 835.99 264.63L 851.51 263.1L 864.63 259.49L 876 256.84L 894.99 254.48L 910.51 258.87L 923.63 258.65L 935 257.27L 953.99 255.44L 969.51 248.23L 982.63 249.46L 994 252.83L 1013 247.55L 1028.5 244.85L 1041.6 243.38L 1053 245.24L 1072 243.79L 1087.5 227.75L 1100.6 239.86L 1112 240.79L 1131 237.51L 1146.5 227.57L 1159.6 219.4L 1171 224.57L 1190 211.14L 1205.5 216.23L 1218.6 217.28L 1230 214.52L 1230 217.67L 1218.6 219.72L 1205.5 224.08L 1190 227.13L 1171 231.74L 1159.6 232.75L 1146.5 228.28L 1131 238.16L 1112 241.45L 1100.6 241.05L 1087.5 243.34L 1072 245.4L 1053 247.96L 1041.6 249.35L 1028.5 250.33L 1013 251.29L 994 253.64L 982.63 253.46L 969.51 254.95L 953.99 256.08L 935 258.22L 923.63 259.08L 910.51 259.19L 894.99 260.21L 876 261.58L 864.63 264.54L 851.51 265.29L 835.99 265.72L 817 267.88L 805.63 269.53L 792.51 271.69L 776.99 272.2L 758 274.15L 746.63 274.29L 733.51 275.23L 717.99 277.74L 699 279.35L 687.63 279.56L 674.51 280.27L 658.99 281.17L 640 283.39L 628.63 284.41L 615.51 286.63L 599.99 286.7L 581 288.68L 569.63 291.44L 556.51 290.97L 540.99 293.23L 522 294.5L 510.63 296.37L 497.51 297.04L 481.99 299.11L 463 299.76L 451.63 302.05L 438.51 300.98L 422.99 306.06L 404 307.07L 392.63 308.21L 379.51 310.78L 363.99 309.63L 345 314.47L 333.63 320.36L 320.51 317.6L 304.99 316.67L 286 318.77L 274.63 327.24L 261.51 331.09L 245.99 331.07L 227 328.8L 215.63 329.76L 202.51 345.56L 186.99 352.06L 168 355.04L 143.51 360.48L 109 373.69L 50 374.82" fill="#007AFF" fill-opacity="0.30196078431372547" stroke="none"/>
    <path d="M 50 373.69L 109 405.19L 143.51 393.27L 168 405.69L 186.99 384.18L 202.51 383.28L 215.63 390.51L 227 406.22L 245.99 391.32L 261.51 406.57L 274.63 400.73L 286 406.99L 304.99 411.52L 320.51 415.09L 333.63 417.72L 345 420.31L 363.99 423.18L 379.51 420.29L 392.63 427.3L 404 422.43L 422.99 430.53L 438.51 424.43L 451.63 426.14L 463 426.55L 481.99 427.93L 497.51 424.23L 510.63 422.99L 522 417.01L 540.99 414.95L 556.51 409.47L 569.63 405.42L 581 401.47L 599.99 378.29L 615.51 390.64L 628.63 387.08L 640 380.39L 658.99 369.61L 674.51 366.95L 687.63 359.56L 699 354.58L 717.99 340.75L 733.51 336.21L 746.63 331.03L 758 323.4L 776.99 315.37L 792.51 306.01L 805.63 299.31L 817 292.66L 835.99 281.58L 851.51 274.33L 864.63 264.49L 876 260.12L 894.99 249.8L 910.51 239.09L 923.63 230.4L 935 220.23L 953.99 207.16L 969.51 198.27L 982.63 190.44L 994 184.54L 1013 173.11L 1028.5 164.4L 1041.6 155.51L 1053 149.81L 1072 138.89L 1087.5 129.97L 1100.6 122.61L 1112 116.31L 1131 106.58L 1131 106.58L 1112 117.01L 1100.6 123.17L 1087.5 131.11L 1072 139.82L 1053 150.47L 1041.6 156.65L 1028.5 164.69L 1013 173.56L 994 185.07L 982.63 191.52L 969.51 200L 953.99 210.08L 935 222.82L 923.63 230.82L 910.51 239.45L 894.99 250.01L 876 261.56L 864.63 267.68L 851.51 274.88L 835.99 283.13L 817 294.59L 805.63 299.75L 792.51 307.57L 776.99 316.26L 758 325.5L 746.63 332.41L 733.51 338.06L 717.99 347.76L 699 356.87L 687.63 362.09L 674.51 369.11L 658.99 375.67L 640 382.96L 628.63 387.35L 615.51 391.99L 599.99 398.27L 581 403.73L 569.63 407.42L 556.51 412.56L 540.99 416.31L 522 422.58L 510.63 424.15L 497.51 425.59L 481.99 433.56L 463 431.03L 451.63 428.6L 438.51 430.22L 422.99 430.53L 404 431.01L 392.63 427.3L 379.51 425.64L 363.99 423.33L 345 428.58L 333.63 417.92L 320.51 415.09L 304.99 411.52L 286 420.07L 274.63 413.8L 261.51 406.57L 245.99 406.65L 227 406.76L 215.63 413.8L 202.51 406.57L 186.99 384.72L 168 406.76L 143.51 393.27L 109 407.33L 50 373.69" fill="#FF3B30" fill-opacity="0.30196078431372547" stroke="none"/>
    <path d="M 50 374.82L 109 373.69L 143.51 355.04L 168 351.26L 186.99 349.2L 202.51 341.5L 215.63 328.47L 227 328.8L 245.99 329.24L 261.51 330.3L 274.63 324.83L 286 317.88L 304.99 315.65L 320.51 314.75L 333.63 315.07L 345 314.27L 363.99 307.6L 379.51 309.28L 392.63 307.7L 404 306.37L 422.99 304.84L 438.51 299.02L 451.63 301.47L 463 299.65L 481.99 298.52L 497.51 296.29L 510.63 295.79L 522 294.35L 540.99 292.52L 556.51 290.8L 569.63 289.92L 581 288.52L 599.99 286.6L 615.51 286.2L 628.63 284.17L 640 283.03L 658.99 280.99L 674.51 279.9L 687.63 279.09L 699 278.98L 717.99 277.21L 733.51 275.11L 746.63 273.99L 758 273.48L 776.99 271.74L 792.51 271.23L 805.63 269.47L 817 267.78L 835.99 265.43L 851.51 264.71L 864.63 263.17L 876 260.29L 894.99 258.65L 910.51 259.11L 923.63 258.97L 935 257.97L 953.99 255.91L 969.51 253.1L 982.63 252.39L 994 253.43L 1013 250.29L 1028.5 248.83L 1041.6 247.71L 1053 247.24L 1072 244.98L 1087.5 238.75L 1100.6 240.74L 1112 241.27L 1131 237.99L 1146.5 228.1L 1159.6 228.88L 1171 229.76L 1190 222.4L 1205.5 221.9L 1218.6 219.07L 1230 216.82" fill="none" stroke-width="4" stroke="#007AFF" stroke-opacity="1" stroke-linecap="round" stroke-linejoin="round"/>
    <path d="M 50 373.69L 109 406.76L 143.51 393.27L 168 406.48L 186.99 384.58L 202.51 399.29L 215.63 406.52L 227 406.62L 245.99 402.14L 261.51 406.57L 274.63 410.02L 286 416.28L 304.99 411.52L 320.51 415.09L 333.63 417.87L 345 426.28L 363.99 423.29L 379.51 424.18L 392.63 427.3L 404 428.61L 422.99 430.53L 438.51 428.64L 451.63 427.94L 463 429.82L 481.99 432.02L 497.51 425.23L 510.63 423.85L 522 421.06L 540.99 415.95L 556.51 411.73L 569.63 406.89L 581 403.13L 599.99 392.17L 615.51 391.64L 628.63 387.28L 640 382.28L 658.99 374.01L 674.51 368.54L 687.63 361.42L 699 356.26L 717.99 345.83L 733.51 337.57L 746.63 332.05L 758 324.94L 776.99 316.03L 792.51 307.15L 805.63 299.64L 817 294.08L 835.99 282.72L 851.51 274.74L 864.63 266.83L 876 261.18L 894.99 249.95L 910.51 239.36L 923.63 230.71L 935 222.13L 953.99 209.3L 969.51 199.54L 982.63 191.24L 994 184.93L 1013 173.44L 1028.5 164.61L 1041.6 156.35L 1053 150.3L 1072 139.57L 1087.5 130.81L 1100.6 123.02L 1112 116.82L 1131 106.58" fill="none" stroke-width="4" stroke="#FF3B30" stroke-opacity="1" stroke-linecap="round" stroke-linejoin="round"/>
    <path d="M 50 374.82L 109 373.69L 143.51 355.04L 168 351.26L 186.99 349.2L 202.51 341.5L 215.63 328.47L 227 328.8L 245.99 329.24L 261.51 330.3L 274.63 324.83L 286 317.88L 304.99 315.65L 320.51 314.75L 333.63 315.07L 345 314.27L 363.99 307.6L 379.51 309.28L 392.63 307.7L 404 306.37L 422.99 304.84L 438.51 299.02L 451.63 301.47L 463 299.65L 481.99 298.52L 497.51 296.29L 510.63 295.79L 522 294.35L 540.99 292.52L 556.51 290.8L 569.63 289.92L 581 288.52L 599.99 286.6L 615.51 286.2L 628.63 284.17L 640 283.03L 658.99 280.99L 674.51 279.9L 687.63 279.09L 699 278.98L 717.99 277.21L 733.51 275.11L 746.63 273.99L 758 273.48L 776.99 271.74L 792.51 271.23L 805.63 269.47L 817 267.78L 835.99 265.43L 851.51 264.71L 864.63 263.17L 876 260.29L 894.99 258.65L 910.51 259.11L 923.63 258.97L 935 257.97L 953.99 255.91L 969.51 253.1L 982.63 252.39L 994 253.43L 1013 250.29L 1028.5 248.83L 1041.6 247.71L 1053 247.24L 1072 244.98L 1087.5 238.75L 1100.6 240.74L 1112 241.27L 1131 237.99L 1146.5 228.1L 1159.6 228.88L 1171 229.76L 1190 222.4L 1205.5 221.9L 1218.6 219.07L 1230 216.82" fill="none" stroke-width="0.5" stroke="#000000" stroke-opacity="0.30196" stroke-linecap="round" stroke-linejoin="round"/>
    <path d="M 50 373.69L 109 406.76L 143.51 393.27L 168 406.48L 186.99 384.58L 202.51 399.29L 215.63 406.52L 227 406.62L 245.99 402.14L 261.51 406.57L 274.63 410.02L 286 416.28L 304.99 411.52L 320.51 415.09L 333.63 417.87L 345 426.28L 363.99 423.29L 379.51 424.18L 392.63 427.3L 404 428.61L 422.99 430.53L 438.51 428.64L 451.63 427.94L 463 429.82L 481.99 432.02L 497.51 425.23L 510.63 423.85L 522 421.06L 540.99 415.95L 556.51 411.73L 569.63 406.89L 581 403.13L 599.99 392.17L 615.51 391.64L 628.63 387.28L 640 382.28L 658.99 374.01L 674.51 368.54L 687.63 361.42L 699 356.26L 717.99 345.83L 733.51 337.57L 746.63 332.05L 758 324.94L 776.99 316.03L 792.51 307.15L 805.63 299.64L 817 294.08L 835.99 282.72L 851.51 274.74L 864.63 266.83L 876 261.18L 894.99 249.95L 910.51 239.36L 923.63 230.71L 935 222.13L 953.99 209.3L 969.51 199.54L 982.63 191.24L 994 184.93L 1013 173.44L 1028.5 164.61L 1041.6 156.35L 1053 150.3L 1072 139.57L 1087.5 130.81L 1100.6 123.02L 1112 116.82L 1131 106.58" fill="none" stroke-width="0.5" stroke="#000000" stroke-opacity="0.30196" stroke-linecap="round" stroke-linejoin="round"/>
  </g>
  <path d="M 74 33 L 74 88 L 363 88 L 363 33 z" fill="#FFFFFF" fill-opacity="0.7019607843137254" stroke-width="0.5" stroke="#000000" stroke-opacity="1" stroke-linecap="round" stroke-linejoin="round"/>
  <path d="M 88 52 L 108 52" fill="none" stroke-width="4" stroke="#FF3B30" stroke-opacity="1" stroke-linecap="round" stroke-linejoin="round"/>
  <path d="M 88 52 L 108 52" fill="none" stroke-width="0.5" stroke="#000000" stroke-opacity="0.30196" stroke-linecap="round" stroke-linejoin="round"/>
  <text x="119" y="56.17" font-family="Menlo" font-size="12" font-weight="normal" font-style="normal" fill="#000000" fill-opacity="1">Array&lt;Int&gt; random insertions</text>
  <path d="M 88 69 L 108 69" fill="none" stroke-width="4" stroke="#007AFF" stroke-opacity="1" stroke-linecap="round" stroke-linejoin="round"/>
  <path d="M 88 69 L 108 69" fill="none" stroke-width="0.5" stroke="#000000" stroke-opacity="0.30196" stroke-linecap="round" stroke-linejoin="round"/>
  <text x="119" y="73.17" font-family="Menlo" font-size="12" font-weight="normal" font-style="normal" fill="#000000" fill-opacity="1">TreeArray&lt;Int&gt; random insertions</text>
  <path d="M 50 9 L 50 441 L 1230 441 L 1230 9 z" fill="none" stroke-width="0.5" stroke="#000000" stroke-opacity="1" stroke-linecap="round" stroke-linejoin="round"/>
</svg>
