<!DOCTYPE svg PUBLIC "-//W3C//DTD SVG 1.1//EN" "http://www.w3.org/Graphics/SVG/1.1/DTD/svg11.dtd">
<svg width="1280.0px" height="480.0px" viewBox="0.0 0.0 1280.0 480.0" xmlns="http://www.w3.org/2000/svg" xmlns:xlink="http://www.w3.org/1999/xlink" version="1.1">
  <path d="M 0 0 L 0 480 L 1280 480 L 1280 0 z" fill="#FFFFFF" fill-opacity="1.0" stroke="none"/>
  <text x="50" y="468.7" font-family="Helvetica" font-size="10" font-weight="normal" font-style="normal" fill="#000000" fill-opacity="1">Average per-element processing time over input size (bands: min, mean, mean + 2stddev)</text>
  <a xlink:href="https://github.com/apple/swift-collections-benchmark"><text x="1107" y="468.7" font-family="Helvetica" font-size="10" font-weight="normal" font-style="normal" fill="#000000" fill-opacity="1">swift-collections-benchmark</text></a>
  <path d="M 50 9 L 50 441" fill="none" stroke-width="0.75" stroke="#000000" stroke-opacity="0.49804" stroke-linecap="butt" stroke-linejoin="round"/>
  <text x="47" y="453.7" font-family="Helvetica" font-size="10" font-weight="normal" font-style="normal" fill="#000000" fill-opacity="1">1</text>
  <path d="M 109 9 L 109 441" fill="none" stroke-width="0.75" stroke="#000000" stroke-opacity="0.49804" stroke-linecap="butt" stroke-linejoin="round"/>
  <text x="106" y="453.7" font-family="Helvetica" font-size="10" font-weight="normal" font-style="normal" fill="#000000" fill-opacity="1">2</text>
  <path d="M 168 9 L 168 441" fill="none" stroke-width="0.75" stroke="#000000" stroke-opacity="0.49804" stroke-linecap="butt" stroke-linejoin="round"/>
  <text x="165" y="453.7" font-family="Helvetica" font-size="10" font-weight="normal" font-style="normal" fill="#000000" fill-opacity="1">4</text>
  <path d="M 227 9 L 227 441" fill="none" stroke-width="0.75" stroke="#000000" stroke-opacity="0.49804" stroke-linecap="butt" stroke-linejoin="round"/>
  <text x="224" y="453.7" font-family="Helvetica" font-size="10" font-weight="normal" font-style="normal" fill="#000000" fill-opacity="1">8</text>
  <path d="M 286 9 L 286 441" fill="none" stroke-width="0.75" stroke="#000000" stroke-opacity="0.49804" stroke-linecap="butt" stroke-linejoin="round"/>
  <text x="280" y="453.7" font-family="Helvetica" font-size="10" font-weight="normal" font-style="normal" fill="#000000" fill-opacity="1">16</text>
  <path d="M 345 9 L 345 441" fill="none" stroke-width="0.75" stroke="#000000" stroke-opacity="0.49804" stroke-linecap="butt" stroke-linejoin="round"/>
  <text x="339" y="453.7" font-family="Helvetica" font-size="10" font-weight="normal" font-style="normal" fill="#000000" fill-opacity="1">32</text>
  <path d="M 404 9 L 404 441" fill="none" stroke-width="0.75" stroke="#000000" stroke-opacity="0.49804" stroke-linecap="butt" stroke-linejoin="round"/>
  <text x="398" y="453.7" font-family="Helvetica" font-size="10" font-weight="normal" font-style="normal" fill="#000000" fill-opacity="1">64</text>
  <path d="M 463 9 L 463 441" fill="none" stroke-width="0.75" stroke="#000000" stroke-opacity="0.49804" stroke-linecap="butt" stroke-linejoin="round"/>
  <text x="454.5" y="453.7" font-family="Helvetica" font-size="10" font-weight="normal" font-style="normal" fill="#000000" fill-opacity="1">128</text>
  <path d="M 522 9 L 522 441" fill="none" stroke-width="0.75" stroke="#000000" stroke-opacity="0.49804" stroke-linecap="butt" stroke-linejoin="round"/>
  <text x="513.5" y="453.7" font-family="Helvetica" font-size="10" font-weight="normal" font-style="normal" fill="#000000" fill-opacity="1">256</text>
  <path d="M 581 9 L 581 441" fill="none" stroke-width="0.75" stroke="#000000" stroke-opacity="0.49804" stroke-linecap="butt" stroke-linejoin="round"/>
  <text x="572.5" y="453.7" font-family="Helvetica" font-size="10" font-weight="normal" font-style="normal" fill="#000000" fill-opacity="1">512</text>
  <path d="M 640 9 L 640 441" fill="none" stroke-width="0.75" stroke="#000000" stroke-opacity="0.49804" stroke-linecap="butt" stroke-linejoin="round"/>
  <text x="634.5" y="453.7" font-family="Helvetica" font-size="10" font-weight="normal" font-style="normal" fill="#000000" fill-opacity="1">1k</text>
  <path d="M 699 9 L 699 441" fill="none" stroke-width="0.75" stroke="#000000" stroke-opacity="0.49804" stroke-linecap="butt" stroke-linejoin="round"/>
  <text x="693.5" y="453.7" font-family="Helvetica" font-size="10" font-weight="normal" font-style="normal" fill="#000000" fill-opacity="1">2k</text>
  <path d="M 758 9 L 758 441" fill="none" stroke-width="0.75" stroke="#000000" stroke-opacity="0.49804" stroke-linecap="butt" stroke-linejoin="round"/>
  <text x="752.5" y="453.7" font-family="Helvetica" font-size="10" font-weight="normal" font-style="normal" fill="#000000" fill-opacity="1">4k</text>
  <path d="M 817 9 L 817 441" fill="none" stroke-width="0.75" stroke="#000000" stroke-opacity="0.49804" stroke-linecap="butt" stroke-linejoin="round"/>
  <text x="811.5" y="453.7" font-family="Helvetica" font-size="10" font-weight="normal" font-style="normal" fill="#000000" fill-opacity="1">8k</text>
  <path d="M 876 9 L 876 441" fill="none" stroke-width="0.75" stroke="#000000" stroke-opacity="0.49804" stroke-linecap="butt" stroke-linejoin="round"/>
  <text x="867.5" y="453.7" font-family="Helvetica" font-size="10" font-weight="normal" font-style="normal" fill="#000000" fill-opacity="1">16k</text>
  <path d="M 935 9 L 935 441" fill="none" stroke-width="0.75" stroke="#000000" stroke-opacity="0.49804" stroke-linecap="butt" stroke-linejoin="round"/>
  <text x="926.5" y="453.7" font-family="Helvetica" font-size="10" font-weight="normal" font-style="normal" fill="#000000" fill-opacity="1">32k</text>
  <path d="M 994 9 L 994 441" fill="none" stroke-width="0.75" stroke="#000000" stroke-opacity="0.49804" stroke-linecap="butt" stroke-linejoin="round"/>
  <text x="985.5" y="453.7" font-family="Helvetica" font-size="10" font-weight="normal" font-style="normal" fill="#000000" fill-opacity="1">64k</text>
  <path d="M 1053 9 L 1053 441" fill="none" stroke-width="0.75" stroke="#000000" stroke-opacity="0.49804" stroke-linecap="butt" stroke-linejoin="round"/>
  <text x="1042" y="453.7" font-family="Helvetica" font-size="10" font-weight="normal" font-style="normal" fill="#000000" fill-opacity="1">128k</text>
  <path d="M 1112 9 L 1112 441" fill="none" stroke-width="0.75" stroke="#000000" stroke-opacity="0.49804" stroke-linecap="butt" stroke-linejoin="round"/>
  <text x="1101" y="453.7" font-family="Helvetica" font-size="10" font-weight="normal" font-style="normal" fill="#000000" fill-opacity="1">256k</text>
  <path d="M 1171 9 L 1171 441" fill="none" stroke-width="0.75" stroke="#000000" stroke-opacity="0.49804" stroke-linecap="butt" stroke-linejoin="round"/>
  <text x="1160" y="453.7" font-family="Helvetica" font-size="10" font-weight="normal" font-style="normal" fill="#000000" fill-opacity="1">512k</text>
  <path d="M 1230 9 L 1230 441" fill="none" stroke-width="0.75" stroke="#000000" stroke-opacity="0.49804" stroke-linecap="butt" stroke-linejoin="round"/>
  <text x="1223" y="453.7" font-family="Helvetica" font-size="10" font-weight="normal" font-style="normal" fill="#000000" fill-opacity="1">1M</text>
  <path d="M 50 441 L 1230 441" fill="none" stroke-width="0.75" stroke="#000000" stroke-opacity="0.49804" stroke-linecap="butt" stroke-linejoin="round"/>
  <text x="21" y="442.7" font-family="Helvetica" font-size="10" font-weight="normal" font-style="normal" fill="#000000" fill-opacity="1">10 ns</text>
  <text x="1236" y="442.7" font-family="Helvetica" font-size="10" font-weight="normal" font-style="normal" fill="#000000" fill-opacity="1">10 ns</text>
  <path d="M 50 333 L 1230 333" fill="none" stroke-width="0.75" stroke="#000000" stroke-opacity="0.49804" stroke-linecap="butt" stroke-linejoin="round"/>
  <text x="16" y="334.7" font-family="Helvetica" font-size="10" font-weight="normal" font-style="normal" fill="#000000" fill-opacity="1">100 ns</text>
  <text x="1236" y="334.7" font-family="Helvetica" font-size="10" font-weight="normal" font-style="normal" fill="#000000" fill-opacity="1">100 ns</text>
  <path d="M 50 225 L 1230 225" fill="none" stroke-width="0.75" stroke="#000000" stroke-opacity="0.49804" stroke-linecap="butt" stroke-linejoin="round"/>
  <text x="26" y="226.7" font-family="Helvetica" font-size="10" font-weight="normal" font-style="normal" fill="#000000" fill-opacity="1">1 µs</text>
  <text x="1236" y="226.7" font-family="Helvetica" font-size="10" font-weight="normal" font-style="normal" fill="#000000" fill-opacity="1">1 µs</text>
  <path d="M 50 117 L 1230 117" fill="none" stroke-width="0.75" stroke="#000000" stroke-opacity="0.49804" stroke-linecap="butt" stroke-linejoin="round"/>
  <text x="21" y="118.7" font-family="Helvetica" font-size="10" font-weight="normal" font-style="normal" fill="#000000" fill-opacity="1">10 µs</text>
  <text x="1236" y="118.7" font-family="Helvetica" font-size="10" font-weight="normal" font-style="normal" fill="#000000" fill-opacity="1">10 µs</text>
  <path d="M 50 9 L 1230 9" fill="none" stroke-width="0.75" stroke="#000000" stroke-opacity="0.49804" stroke-linecap="butt" stroke-linejoin="round"/>
  <text x="15" y="10.7" font-family="Helvetica" font-size="10" font-weight="normal" font-style="normal" fill="#000000" fill-opacity="1">100 µs</text>
  <text x="1236" y="10.7" font-family="Helvetica" font-size="10" font-weight="normal" font-style="normal" fill="#000000" fill-opacity="1">100 µs</text>
  <path d="M 50 408.49 L 1230 408.49" fill="none" stroke-width="0.5" stroke="#000000" stroke-opacity="0.25882" stroke-linecap="butt" stroke-linejoin="round" stroke-dasharray="6 3" stroke-dashoffset="0"/>
  <path d="M 50 375.98 L 1230 375.98" fill="none" stroke-width="0.5" stroke="#000000" stroke-opacity="0.25882" stroke-linecap="butt" stroke-linejoin="round" stroke-dasharray="6 3" stroke-dashoffset="0"/>
  <path d="M 50 343.47 L 1230 343.47" fill="none" stroke-width="0.5" stroke="#000000" stroke-opacity="0.25882" stroke-linecap="butt" stroke-linejoin="round" stroke-dasharray="6 3" stroke-dashoffset="0"/>
  <path d="M 50 310.96 L 1230 310.96" fill="none" stroke-width="0.5" stroke="#000000" stroke-opacity="0.25882" stroke-linecap="butt" stroke-linejoin="round" stroke-dasharray="6 3" stroke-dashoffset="0"/>
  <path d="M 50 278.44 L 1230 278.44" fill="none" stroke-width="0.5" stroke="#000000" stroke-opacity="0.25882" stroke-linecap="butt" stroke-linejoin="round" stroke-dasharray="6 3" stroke-dashoffset="0"/>
  <path d="M 50 245.93 L 1230 245.93" fill="none" stroke-width="0.5" stroke="#000000" stroke-opacity="0.25882" stroke-linecap="butt" stroke-linejoin="round" stroke-dasharray="6 3" stroke-dashoffset="0"/>
  <path d="M 50 213.42 L 1230 213.42" fill="none" stroke-width="0.5" stroke="#000000" stroke-opacity="0.25882" stroke-linecap="butt" stroke-linejoin="round" stroke-dasharray="6 3" stroke-dashoffset="0"/>
  <path d="M 50 180.91 L 1230 180.91" fill="none" stroke-width="0.5" stroke="#000000" stroke-opacity="0.25882" stroke-linecap="butt" stroke-linejoin="round" stroke-dasharray="6 3" stroke-dashoffset="0"/>
  <path d="M 50 148.4 L 1230 148.4" fill="none" stroke-width="0.5" stroke="#000000" stroke-opacity="0.25882" stroke-linecap="butt" stroke-linejoin="round" stroke-dasharray="6 3" stroke-dashoffset="0"/>
  <path d="M 50 115.89 L 1230 115.89" fill="none" stroke-width="0.5" stroke="#000000" stroke-opacity="0.25882" stroke-linecap="butt" stroke-linejoin="round" stroke-dasharray="6 3" stroke-dashoffset="0"/>
  <path d="M 50 83.376 L 1230 83.376" fill="none" stroke-width="0.5" stroke="#000000" stroke-opacity="0.25882" stroke-linecap="butt" stroke-linejoin="round" stroke-dasharray="6 3" stroke-dashoffset="0"/>
  <path d="M 50 50.865 L 1230 50.865" fill="none" stroke-width="0.5" stroke="#000000" stroke-opacity="0.25882" stroke-linecap="butt" stroke-linejoin="round" stroke-dasharray="6 3" stroke-dashoffset="0"/>
  <path d="M 50 18.354 L 1230 18.354" fill="none" stroke-width="0.5" stroke="#000000" stroke-opacity="0.25882" stroke-linecap="butt" stroke-linejoin="round" stroke-dasharray="6 3" stroke-dashoffset="0"/>
  <path d="M 74 33 L 74 88 L 363 88 L 363 33 z" fill="#FFFFFF" fill-opacity="1.0" stroke="none"/>
  <clipPath id="clip-0">
    <path d="M 50 9 L 50 441 L 1230 441 L 1230 9 z"/>
  </clipPath>
  <g clip-path="url(#clip-0)">
    <path d="M 50 372.68L 109 374.25L 143.51 360.48L 168 355.04L 186.99 346.49L 202.51 355.04L 215.63 323.45L 227 322.7L 245.99 325.76L 261.51 320.19L 274.63 320.54L 286 319L 304.99 310.32L 320.51 311.1L 333.63 301.14L 345 307.47L 363.99 302.91L 379.51 297.19L 392.63 301.57L 404 299.27L 422.99 299.51L 438.51 294.87L 451.63 294.67L 463 296.27L 481.99 295.64L 497.51 292.86L 510.63 287.44L 522 289.45L 540.99 288.84L 556.51 291.56L 569.63 285.37L 581 284.63L 599.99 286.74L 615.51 282.96L 628.63 284.41L 640 284.67L 658.99 282.76L 674.51 278.84L 687.63 278.81L 699 278.87L 717.99 278.07L 733.51 277.31L 746.63 273.39L 758 273.06L 776.99 270.61L 792.51 269.75L 805.63 271.06L 817 268.05L 835.99 266.93L 851.51 264.66L 864.63 264.77L 876 261.07L 894.99 261.81L 910.51 261.35L 923.63 260.75L 935 257.44L 953.99 256.05L 969.51 256.97L 982.63 256.01L 994 252.92L 1013 252.22L 1028.5 252.24L 1041.6 250.81L 1053 247.13L 1072 247.01L 1087.5 245.51L 1100.6 244.5L 1112 237.59L 1131 239.36L 1146.5 228.72L 1159.6 231.58L 1171 222.87L 1190 225.48L 1205.5 227.07L 1218.6 217.9L 1230 210.79L 1230 219.57L 1218.6 224.55L 1205.5 227.16L 1190 227.58L 1171 230.18L 1159.6 232.83L 1146.5 238.07L 1131 239.88L 1112 241.4L 1100.6 245.97L 1087.5 246.59L 1072 247.05L 1053 247.69L 1041.6 251.92L 1028.5 252.25L 1013 252.79L 994 252.95L 982.63 257.17L 969.51 257.3L 953.99 258.03L 935 257.83L 923.63 261.04L 910.51 261.9L 894.99 262.25L 876 262.72L 864.63 266.42L 851.51 267.64L 835.99 267.96L 817 268.89L 805.63 271.41L 792.51 272.15L 776.99 273.14L 758 273.47L 746.63 273.63L 733.51 278.57L 717.99 278.29L 699 280.13L 687.63 279.8L 674.51 279.46L 658.99 284.6L 640 284.76L 628.63 285.73L 615.51 287.33L 599.99 286.85L 581 286.14L 569.63 285.71L 556.51 291.76L 540.99 291.46L 522 291.7L 510.63 291.26L 497.51 295.5L 481.99 298.69L 463 297.49L 451.63 297.09L 438.51 295.91L 422.99 304.84L 404 305.34L 392.63 302.96L 379.51 305.51L 363.99 313.33L 345 313.25L 333.63 314.36L 320.51 312.07L 304.99 312.7L 286 324.52L 274.63 324.81L 261.51 325.24L 245.99 325.76L 227 326.65L 215.63 352.9L 202.51 355.04L 186.99 346.49L 168 355.04L 143.51 360.48L 109 374.25L 50 374.82" fill="#007AFF" fill-opacity="0.30196078431372547" stroke="none"/>
    <path d="M 50 373.69L 109 406.2L 143.51 393.27L 168 374.99L 186.99 398.02L 202.51 383.28L 215.63 400.22L 227 406.48L 245.99 406.22L 261.51 406.57L 274.63 413.8L 286 420.07L 304.99 411.52L 320.51 403.5L 333.63 414.14L 345 424.18L 363.99 420.07L 379.51 425.64L 392.63 427.3L 404 407.44L 422.99 421.95L 438.51 428.79L 451.63 426.25L 463 426.45L 481.99 425.18L 497.51 427.05L 510.63 423.03L 522 419.62L 540.99 413.01L 556.51 406.03L 569.63 402.38L 581 403.1L 599.99 392.02L 615.51 385.01L 628.63 386.01L 640 379.93L 658.99 369.6L 674.51 365.09L 687.63 360.63L 699 354.12L 717.99 345.65L 733.51 338.63L 746.63 329.78L 758 325.8L 776.99 315.33L 792.51 306.41L 805.63 299.48L 817 293.81L 835.99 282.37L 851.51 273.9L 864.63 267.2L 876 260.48L 894.99 249.64L 910.51 239.45L 923.63 229.77L 935 222.79L 953.99 209.87L 969.51 199.58L 982.63 191.35L 994 184.37L 1013 173.45L 1028.5 164.35L 1041.6 156.57L 1053 149.95L 1072 139.25L 1087.5 130.13L 1100.6 123.55L 1112 115.63L 1131 106.33L 1131 106.33L 1112 117.32L 1100.6 123.75L 1087.5 130.95L 1072 139.56L 1053 150.44L 1041.6 157.04L 1028.5 164.67L 1013 173.62L 994 184.82L 982.63 192.07L 969.51 200.25L 953.99 210.03L 935 222.95L 923.63 230.44L 910.51 239.89L 894.99 250.2L 876 261.41L 864.63 267.69L 851.51 274.92L 835.99 283.88L 817 293.87L 805.63 299.85L 792.51 307.11L 776.99 316.77L 758 326.33L 746.63 332.71L 733.51 338.76L 717.99 347.03L 699 355.14L 687.63 361.43L 674.51 369.44L 658.99 374.43L 640 384.2L 628.63 388.26L 615.51 394.29L 599.99 398.64L 581 404.43L 569.63 406.99L 556.51 410.39L 540.99 417.04L 522 420.56L 510.63 425.38L 497.51 427.09L 481.99 428.63L 463 428.61L 451.63 431.38L 438.51 431.84L 422.99 428.6L 404 433.56L 392.63 427.3L 379.51 425.64L 363.99 420.07L 345 424.18L 333.63 422.43L 320.51 420.07L 304.99 411.52L 286 420.07L 274.63 413.8L 261.51 406.57L 245.99 406.65L 227 406.48L 215.63 400.22L 202.51 406.57L 186.99 398.02L 168 406.76L 143.51 393.27L 109 406.2L 50 373.69" fill="#FF3B30" fill-opacity="0.30196078431372547" stroke="none"/>
    <path d="M 50 374.25L 109 374.25L 143.51 360.48L 168 355.04L 186.99 346.49L 202.51 355.04L 215.63 343.26L 227 325.59L 245.99 325.76L 261.51 323.87L 274.63 323.66L 286 323.02L 304.99 312.07L 320.51 311.81L 333.63 310.53L 345 311.68L 363.99 310.38L 379.51 303.19L 392.63 302.59L 404 303.68L 422.99 303.38L 438.51 295.64L 451.63 296.45L 463 297.17L 481.99 297.88L 497.51 294.8L 510.63 290.23L 522 291.1L 540.99 290.76L 556.51 291.71L 569.63 285.62L 581 285.74L 599.99 286.82L 615.51 286.15L 628.63 285.38L 640 284.74L 658.99 284.11L 674.51 279.3L 687.63 279.54L 699 279.8L 717.99 278.23L 733.51 278.23L 746.63 273.57L 758 273.36L 776.99 272.47L 792.51 271.51L 805.63 271.32L 817 268.67L 835.99 267.69L 851.51 266.84L 864.63 265.98L 876 262.28L 894.99 262.14L 910.51 261.75L 923.63 260.96L 935 257.73L 953.99 257.5L 969.51 257.21L 982.63 256.86L 994 252.94L 1013 252.64L 1028.5 252.24L 1041.6 251.63L 1053 247.54L 1072 247.04L 1087.5 246.31L 1100.6 245.58L 1112 240.37L 1131 239.74L 1146.5 235.44L 1159.6 232.5L 1171 228.16L 1190 227.02L 1205.5 227.14L 1218.6 222.72L 1230 217.11" fill="none" stroke-width="4" stroke="#007AFF" stroke-opacity="1" stroke-linecap="round" stroke-linejoin="round"/>
    <path d="M 50 373.69L 109 406.2L 143.51 393.27L 168 396.18L 186.99 398.02L 202.51 399.29L 215.63 400.22L 227 406.48L 245.99 406.54L 261.51 406.57L 274.63 413.8L 286 420.07L 304.99 411.52L 320.51 415.14L 333.63 420.12L 345 424.18L 363.99 420.07L 379.51 425.64L 392.63 427.3L 404 425.22L 422.99 426.77L 438.51 431.02L 451.63 429.98L 463 428.04L 481.99 427.7L 497.51 427.08L 510.63 424.76L 522 420.31L 540.99 415.96L 556.51 409.21L 569.63 405.74L 581 404.08L 599.99 396.82L 615.51 391.68L 628.63 387.66L 640 383.05L 658.99 373.12L 674.51 368.27L 687.63 361.22L 699 354.87L 717.99 346.66L 733.51 338.73L 746.63 331.93L 758 326.19L 776.99 316.39L 792.51 306.93L 805.63 299.75L 817 293.85L 835.99 283.48L 851.51 274.65L 864.63 267.56L 876 261.17L 894.99 250.06L 910.51 239.77L 923.63 230.26L 935 222.91L 953.99 209.99L 969.51 200.07L 982.63 191.88L 994 184.7L 1013 173.58L 1028.5 164.59L 1041.6 156.92L 1053 150.31L 1072 139.48L 1087.5 130.74L 1100.6 123.7L 1112 116.88L 1131 106.33" fill="none" stroke-width="4" stroke="#FF3B30" stroke-opacity="1" stroke-linecap="round" stroke-linejoin="round"/>
    <path d="M 50 374.25L 109 374.25L 143.51 360.48L 168 355.04L 186.99 346.49L 202.51 355.04L 215.63 343.26L 227 325.59L 245.99 325.76L 261.51 323.87L 274.63 323.66L 286 323.02L 304.99 312.07L 320.51 311.81L 333.63 310.53L 345 311.68L 363.99 310.38L 379.51 303.19L 392.63 302.59L 404 303.68L 422.99 303.38L 438.51 295.64L 451.63 296.45L 463 297.17L 481.99 297.88L 497.51 294.8L 510.63 290.23L 522 291.1L 540.99 290.76L 556.51 291.71L 569.63 285.62L 581 285.74L 599.99 286.82L 615.51 286.15L 628.63 285.38L 640 284.74L 658.99 284.11L 674.51 279.3L 687.63 279.54L 699 279.8L 717.99 278.23L 733.51 278.23L 746.63 273.57L 758 273.36L 776.99 272.47L 792.51 271.51L 805.63 271.32L 817 268.67L 835.99 267.69L 851.51 266.84L 864.63 265.98L 876 262.28L 894.99 262.14L 910.51 261.75L 923.63 260.96L 935 257.73L 953.99 257.5L 969.51 257.21L 982.63 256.86L 994 252.94L 1013 252.64L 1028.5 252.24L 1041.6 251.63L 1053 247.54L 1072 247.04L 1087.5 246.31L 1100.6 245.58L 1112 240.37L 1131 239.74L 1146.5 235.44L 1159.6 232.5L 1171 228.16L 1190 227.02L 1205.5 227.14L 1218.6 222.72L 1230 217.11" fill="none" stroke-width="0.5" stroke="#000000" stroke-opacity="0.30196" stroke-linecap="round" stroke-linejoin="round"/>
    <path d="M 50 373.69L 109 406.2L 143.51 393.27L 168 396.18L 186.99 398.02L 202.51 399.29L 215.63 400.22L 227 406.48L 245.99 406.54L 261.51 406.57L 274.63 413.8L 286 420.07L 304.99 411.52L 320.51 415.14L 333.63 420.12L 345 424.18L 363.99 420.07L 379.51 425.64L 392.63 427.3L 404 425.22L 422.99 426.77L 438.51 431.02L 451.63 429.98L 463 428.04L 481.99 427.7L 497.51 427.08L 510.63 424.76L 522 420.31L 540.99 415.96L 556.51 409.21L 569.63 405.74L 581 404.08L 599.99 396.82L 615.51 391.68L 628.63 387.66L 640 383.05L 658.99 373.12L 674.51 368.27L 687.63 361.22L 699 354.87L 717.99 346.66L 733.51 338.73L 746.63 331.93L 758 326.19L 776.99 316.39L 792.51 306.93L 805.63 299.75L 817 293.85L 835.99 283.48L 851.51 274.65L 864.63 267.56L 876 261.17L 894.99 250.06L 910.51 239.77L 923.63 230.26L 935 222.91L 953.99 209.99L 969.51 200.07L 982.63 191.88L 994 184.7L 1013 173.58L 1028.5 164.59L 1041.6 156.92L 1053 150.31L 1072 139.48L 1087.5 130.74L 1100.6 123.7L 1112 116.88L 1131 106.33" fill="none" stroke-width="0.5" stroke="#000000" stroke-opacity="0.30196" stroke-linecap="round" stroke-linejoin="round"/>
  </g>
  <path d="M 74 33 L 74 88 L 363 88 L 363 33 z" fill="#FFFFFF" fill-opacity="0.7019607843137254" stroke-width="0.5" stroke="#000000" stroke-opacity="1" stroke-linecap="round" stroke-linejoin="round"/>
  <path d="M 88 52 L 108 52" fill="none" stroke-width="4" stroke="#FF3B30" stroke-opacity="1" stroke-linecap="round" stroke-linejoin="round"/>
  <path d="M 88 52 L 108 52" fill="none" stroke-width="0.5" stroke="#000000" stroke-opacity="0.30196" stroke-linecap="round" stroke-linejoin="round"/>
  <text x="119" y="56.17" font-family="Menlo" font-size="12" font-weight="normal" font-style="normal" fill="#000000" fill-opacity="1">Array&lt;Int&gt; random insertions</text>
  <path d="M 88 69 L 108 69" fill="none" stroke-width="4" stroke="#007AFF" stroke-opacity="1" stroke-linecap="round" stroke-linejoin="round"/>
  <path d="M 88 69 L 108 69" fill="none" stroke-width="0.5" stroke="#000000" stroke-opacity="0.30196" stroke-linecap="round" stroke-linejoin="round"/>
  <text x="119" y="73.17" font-family="Menlo" font-size="12" font-weight="normal" font-style="normal" fill="#000000" fill-opacity="1">TreeArray&lt;Int&gt; random insertions</text>
  <path d="M 50 9 L 50 441 L 1230 441 L 1230 9 z" fill="none" stroke-width="0.5" stroke="#000000" stroke-opacity="1" stroke-linecap="round" stroke-linejoin="round"/>
</svg>
