<!DOCTYPE svg PUBLIC "-//W3C//DTD SVG 1.1//EN" "http://www.w3.org/Graphics/SVG/1.1/DTD/svg11.dtd">
<svg width="1280.0px" height="480.0px" viewBox="0.0 0.0 1280.0 480.0" xmlns="http://www.w3.org/2000/svg" xmlns:xlink="http://www.w3.org/1999/xlink" version="1.1">
  <path d="M 0 0 L 0 480 L 1280 480 L 1280 0 z" fill="#FFFFFF" fill-opacity="1.0" stroke="none"/>
  <text x="50" y="468.7" font-family="Helvetica" font-size="10" font-weight="normal" font-style="normal" fill="#000000" fill-opacity="1">Average per-element processing time over input size (bands: min, mean, mean + 2stddev)</text>
  <a xlink:href="https://github.com/apple/swift-collections-benchmark"><text x="1107" y="468.7" font-family="Helvetica" font-size="10" font-weight="normal" font-style="normal" fill="#000000" fill-opacity="1">swift-collections-benchmark</text></a>
  <path d="M 50 9 L 50 441" fill="none" stroke-width="0.75" stroke="#000000" stroke-opacity="0.49804" stroke-linecap="butt" stroke-linejoin="round"/>
  <text x="47" y="453.7" font-family="Helvetica" font-size="10" font-weight="normal" font-style="normal" fill="#000000" fill-opacity="1">1</text>
  <path d="M 112.11 9 L 112.11 441" fill="none" stroke-width="0.75" stroke="#000000" stroke-opacity="0.49804" stroke-linecap="butt" stroke-linejoin="round"/>
  <text x="109.11" y="453.7" font-family="Helvetica" font-size="10" font-weight="normal" font-style="normal" fill="#000000" fill-opacity="1">2</text>
  <path d="M 174.21 9 L 174.21 441" fill="none" stroke-width="0.75" stroke="#000000" stroke-opacity="0.49804" stroke-linecap="butt" stroke-linejoin="round"/>
  <text x="171.21" y="453.7" font-family="Helvetica" font-size="10" font-weight="normal" font-style="normal" fill="#000000" fill-opacity="1">4</text>
  <path d="M 236.32 9 L 236.32 441" fill="none" stroke-width="0.75" stroke="#000000" stroke-opacity="0.49804" stroke-linecap="butt" stroke-linejoin="round"/>
  <text x="233.32" y="453.7" font-family="Helvetica" font-size="10" font-weight="normal" font-style="normal" fill="#000000" fill-opacity="1">8</text>
  <path d="M 298.42 9 L 298.42 441" fill="none" stroke-width="0.75" stroke="#000000" stroke-opacity="0.49804" stroke-linecap="butt" stroke-linejoin="round"/>
  <text x="292.42" y="453.7" font-family="Helvetica" font-size="10" font-weight="normal" font-style="normal" fill="#000000" fill-opacity="1">16</text>
  <path d="M 360.53 9 L 360.53 441" fill="none" stroke-width="0.75" stroke="#000000" stroke-opacity="0.49804" stroke-linecap="butt" stroke-linejoin="round"/>
  <text x="354.53" y="453.7" font-family="Helvetica" font-size="10" font-weight="normal" font-style="normal" fill="#000000" fill-opacity="1">32</text>
  <path d="M 422.63 9 L 422.63 441" fill="none" stroke-width="0.75" stroke="#000000" stroke-opacity="0.49804" stroke-linecap="butt" stroke-linejoin="round"/>
  <text x="416.63" y="453.7" font-family="Helvetica" font-size="10" font-weight="normal" font-style="normal" fill="#000000" fill-opacity="1">64</text>
  <path d="M 484.74 9 L 484.74 441" fill="none" stroke-width="0.75" stroke="#000000" stroke-opacity="0.49804" stroke-linecap="butt" stroke-linejoin="round"/>
  <text x="476.24" y="453.7" font-family="Helvetica" font-size="10" font-weight="normal" font-style="normal" fill="#000000" fill-opacity="1">128</text>
  <path d="M 546.84 9 L 546.84 441" fill="none" stroke-width="0.75" stroke="#000000" stroke-opacity="0.49804" stroke-linecap="butt" stroke-linejoin="round"/>
  <text x="538.34" y="453.7" font-family="Helvetica" font-size="10" font-weight="normal" font-style="normal" fill="#000000" fill-opacity="1">256</text>
  <path d="M 608.95 9 L 608.95 441" fill="none" stroke-width="0.75" stroke="#000000" stroke-opacity="0.49804" stroke-linecap="butt" stroke-linejoin="round"/>
  <text x="600.45" y="453.7" font-family="Helvetica" font-size="10" font-weight="normal" font-style="normal" fill="#000000" fill-opacity="1">512</text>
  <path d="M 671.05 9 L 671.05 441" fill="none" stroke-width="0.75" stroke="#000000" stroke-opacity="0.49804" stroke-linecap="butt" stroke-linejoin="round"/>
  <text x="665.55" y="453.7" font-family="Helvetica" font-size="10" font-weight="normal" font-style="normal" fill="#000000" fill-opacity="1">1k</text>
  <path d="M 733.16 9 L 733.16 441" fill="none" stroke-width="0.75" stroke="#000000" stroke-opacity="0.49804" stroke-linecap="butt" stroke-linejoin="round"/>
  <text x="727.66" y="453.7" font-family="Helvetica" font-size="10" font-weight="normal" font-style="normal" fill="#000000" fill-opacity="1">2k</text>
  <path d="M 795.26 9 L 795.26 441" fill="none" stroke-width="0.75" stroke="#000000" stroke-opacity="0.49804" stroke-linecap="butt" stroke-linejoin="round"/>
  <text x="789.76" y="453.7" font-family="Helvetica" font-size="10" font-weight="normal" font-style="normal" fill="#000000" fill-opacity="1">4k</text>
  <path d="M 857.37 9 L 857.37 441" fill="none" stroke-width="0.75" stroke="#000000" stroke-opacity="0.49804" stroke-linecap="butt" stroke-linejoin="round"/>
  <text x="851.87" y="453.7" font-family="Helvetica" font-size="10" font-weight="normal" font-style="normal" fill="#000000" fill-opacity="1">8k</text>
  <path d="M 919.47 9 L 919.47 441" fill="none" stroke-width="0.75" stroke="#000000" stroke-opacity="0.49804" stroke-linecap="butt" stroke-linejoin="round"/>
  <text x="910.97" y="453.7" font-family="Helvetica" font-size="10" font-weight="normal" font-style="normal" fill="#000000" fill-opacity="1">16k</text>
  <path d="M 981.58 9 L 981.58 441" fill="none" stroke-width="0.75" stroke="#000000" stroke-opacity="0.49804" stroke-linecap="butt" stroke-linejoin="round"/>
  <text x="973.08" y="453.7" font-family="Helvetica" font-size="10" font-weight="normal" font-style="normal" fill="#000000" fill-opacity="1">32k</text>
  <path d="M 1043.7 9 L 1043.7 441" fill="none" stroke-width="0.75" stroke="#000000" stroke-opacity="0.49804" stroke-linecap="butt" stroke-linejoin="round"/>
  <text x="1035.2" y="453.7" font-family="Helvetica" font-size="10" font-weight="normal" font-style="normal" fill="#000000" fill-opacity="1">64k</text>
  <path d="M 1105.8 9 L 1105.8 441" fill="none" stroke-width="0.75" stroke="#000000" stroke-opacity="0.49804" stroke-linecap="butt" stroke-linejoin="round"/>
  <text x="1094.8" y="453.7" font-family="Helvetica" font-size="10" font-weight="normal" font-style="normal" fill="#000000" fill-opacity="1">128k</text>
  <path d="M 1167.9 9 L 1167.9 441" fill="none" stroke-width="0.75" stroke="#000000" stroke-opacity="0.49804" stroke-linecap="butt" stroke-linejoin="round"/>
  <text x="1156.9" y="453.7" font-family="Helvetica" font-size="10" font-weight="normal" font-style="normal" fill="#000000" fill-opacity="1">256k</text>
  <path d="M 1230 9 L 1230 441" fill="none" stroke-width="0.75" stroke="#000000" stroke-opacity="0.49804" stroke-linecap="butt" stroke-linejoin="round"/>
  <text x="1219" y="453.7" font-family="Helvetica" font-size="10" font-weight="normal" font-style="normal" fill="#000000" fill-opacity="1">512k</text>
  <path d="M 50 441 L 1230 441" fill="none" stroke-width="0.75" stroke="#000000" stroke-opacity="0.49804" stroke-linecap="butt" stroke-linejoin="round"/>
  <text x="21" y="442.7" font-family="Helvetica" font-size="10" font-weight="normal" font-style="normal" fill="#000000" fill-opacity="1">10 ns</text>
  <text x="1236" y="442.7" font-family="Helvetica" font-size="10" font-weight="normal" font-style="normal" fill="#000000" fill-opacity="1">10 ns</text>
  <path d="M 50 333 L 1230 333" fill="none" stroke-width="0.75" stroke="#000000" stroke-opacity="0.49804" stroke-linecap="butt" stroke-linejoin="round"/>
  <text x="16" y="334.7" font-family="Helvetica" font-size="10" font-weight="normal" font-style="normal" fill="#000000" fill-opacity="1">100 ns</text>
  <text x="1236" y="334.7" font-family="Helvetica" font-size="10" font-weight="normal" font-style="normal" fill="#000000" fill-opacity="1">100 ns</text>
  <path d="M 50 225 L 1230 225" fill="none" stroke-width="0.75" stroke="#000000" stroke-opacity="0.49804" stroke-linecap="butt" stroke-linejoin="round"/>
  <text x="26" y="226.7" font-family="Helvetica" font-size="10" font-weight="normal" font-style="normal" fill="#000000" fill-opacity="1">1 µs</text>
  <text x="1236" y="226.7" font-family="Helvetica" font-size="10" font-weight="normal" font-style="normal" fill="#000000" fill-opacity="1">1 µs</text>
  <path d="M 50 117 L 1230 117" fill="none" stroke-width="0.75" stroke="#000000" stroke-opacity="0.49804" stroke-linecap="butt" stroke-linejoin="round"/>
  <text x="21" y="118.7" font-family="Helvetica" font-size="10" font-weight="normal" font-style="normal" fill="#000000" fill-opacity="1">10 µs</text>
  <text x="1236" y="118.7" font-family="Helvetica" font-size="10" font-weight="normal" font-style="normal" fill="#000000" fill-opacity="1">10 µs</text>
  <path d="M 50 9 L 1230 9" fill="none" stroke-width="0.75" stroke="#000000" stroke-opacity="0.49804" stroke-linecap="butt" stroke-linejoin="round"/>
  <text x="15" y="10.7" font-family="Helvetica" font-size="10" font-weight="normal" font-style="normal" fill="#000000" fill-opacity="1">100 µs</text>
  <text x="1236" y="10.7" font-family="Helvetica" font-size="10" font-weight="normal" font-style="normal" fill="#000000" fill-opacity="1">100 µs</text>
  <path d="M 50 408.49 L 1230 408.49" fill="none" stroke-width="0.5" stroke="#000000" stroke-opacity="0.25882" stroke-linecap="butt" stroke-linejoin="round" stroke-dasharray="6 3" stroke-dashoffset="0"/>
  <path d="M 50 375.98 L 1230 375.98" fill="none" stroke-width="0.5" stroke="#000000" stroke-opacity="0.25882" stroke-linecap="butt" stroke-linejoin="round" stroke-dasharray="6 3" stroke-dashoffset="0"/>
  <path d="M 50 343.47 L 1230 343.47" fill="none" stroke-width="0.5" stroke="#000000" stroke-opacity="0.25882" stroke-linecap="butt" stroke-linejoin="round" stroke-dasharray="6 3" stroke-dashoffset="0"/>
  <path d="M 50 310.96 L 1230 310.96" fill="none" stroke-width="0.5" stroke="#000000" stroke-opacity="0.25882" stroke-linecap="butt" stroke-linejoin="round" stroke-dasharray="6 3" stroke-dashoffset="0"/>
  <path d="M 50 278.44 L 1230 278.44" fill="none" stroke-width="0.5" stroke="#000000" stroke-opacity="0.25882" stroke-linecap="butt" stroke-linejoin="round" stroke-dasharray="6 3" stroke-dashoffset="0"/>
  <path d="M 50 245.93 L 1230 245.93" fill="none" stroke-width="0.5" stroke="#000000" stroke-opacity="0.25882" stroke-linecap="butt" stroke-linejoin="round" stroke-dasharray="6 3" stroke-dashoffset="0"/>
  <path d="M 50 213.42 L 1230 213.42" fill="none" stroke-width="0.5" stroke="#000000" stroke-opacity="0.25882" stroke-linecap="butt" stroke-linejoin="round" stroke-dasharray="6 3" stroke-dashoffset="0"/>
  <path d="M 50 180.91 L 1230 180.91" fill="none" stroke-width="0.5" stroke="#000000" stroke-opacity="0.25882" stroke-linecap="butt" stroke-linejoin="round" stroke-dasharray="6 3" stroke-dashoffset="0"/>
  <path d="M 50 148.4 L 1230 148.4" fill="none" stroke-width="0.5" stroke="#000000" stroke-opacity="0.25882" stroke-linecap="butt" stroke-linejoin="round" stroke-dasharray="6 3" stroke-dashoffset="0"/>
  <path d="M 50 115.89 L 1230 115.89" fill="none" stroke-width="0.5" stroke="#000000" stroke-opacity="0.25882" stroke-linecap="butt" stroke-linejoin="round" stroke-dasharray="6 3" stroke-dashoffset="0"/>
  <path d="M 50 83.376 L 1230 83.376" fill="none" stroke-width="0.5" stroke="#000000" stroke-opacity="0.25882" stroke-linecap="butt" stroke-linejoin="round" stroke-dasharray="6 3" stroke-dashoffset="0"/>
  <path d="M 50 50.865 L 1230 50.865" fill="none" stroke-width="0.5" stroke="#000000" stroke-opacity="0.25882" stroke-linecap="butt" stroke-linejoin="round" stroke-dasharray="6 3" stroke-dashoffset="0"/>
  <path d="M 50 18.354 L 1230 18.354" fill="none" stroke-width="0.5" stroke="#000000" stroke-opacity="0.25882" stroke-linecap="butt" stroke-linejoin="round" stroke-dasharray="6 3" stroke-dashoffset="0"/>
  <path d="M 74 33 L 74 88 L 363 88 L 363 33 z" fill="#FFFFFF" fill-opacity="1.0" stroke="none"/>
  <clipPath id="clip-0">
    <path d="M 50 9 L 50 441 L 1230 441 L 1230 9 z"/>
  </clipPath>
  <g clip-path="url(#clip-0)">
    <path d="M 50 374.82L 112.11 374.25L 148.43 350.18L 174.21 347.92L 194.2 346.49L 210.54 345.56L 224.35 332.4L 236.32 324.55L 256.31 329.26L 272.65 326.61L 286.46 331.06L 298.42 320.63L 318.41 316.67L 334.75 318.18L 348.56 315.79L 360.53 312.85L 380.52 310.23L 396.86 306.2L 410.67 308.21L 422.63 307.6L 442.63 301.1L 458.96 300.98L 472.77 300.8L 484.74 300.52L 504.73 299.58L 521.07 296.85L 534.88 293.99L 546.84 294.57L 566.84 291.31L 583.17 289.08L 596.98 288.88L 608.95 288.39L 628.94 283.04L 645.28 285.12L 659.09 285.24L 671.05 283.88L 691.05 281.06L 707.38 279.83L 721.19 279.65L 733.16 278.13L 753.15 276.42L 769.49 276.17L 783.3 274.93L 795.26 273.75L 815.26 271.19L 831.59 270.7L 845.4 269.23L 857.37 268L 877.36 264.87L 893.7 263.85L 907.51 264.78L 919.47 263.17L 939.47 261.25L 955.8 259.8L 969.61 259.08L 981.58 258.61L 1001.6 255.97L 1017.9 255.52L 1017.9 255.52L 1001.6 255.97L 981.58 258.61L 969.61 259.08L 955.8 259.8L 939.47 261.25L 919.47 263.17L 907.51 264.78L 893.7 263.85L 877.36 264.87L 857.37 268L 845.4 269.23L 831.59 270.7L 815.26 271.19L 795.26 273.75L 783.3 274.93L 769.49 276.17L 753.15 276.42L 733.16 278.13L 721.19 279.65L 707.38 279.83L 691.05 281.06L 671.05 283.88L 659.09 285.24L 645.28 285.12L 628.94 283.04L 608.95 288.39L 596.98 288.88L 583.17 289.08L 566.84 291.31L 546.84 294.57L 534.88 293.99L 521.07 296.85L 504.73 299.58L 484.74 300.52L 472.77 300.8L 458.96 300.98L 442.63 301.1L 422.63 307.6L 410.67 308.21L 396.86 306.2L 380.52 310.23L 360.53 312.85L 348.56 315.79L 334.75 318.18L 318.41 316.67L 298.42 320.63L 286.46 331.06L 272.65 326.61L 256.31 329.26L 236.32 324.55L 224.35 332.4L 210.54 345.56L 194.2 346.49L 174.21 347.92L 148.43 350.18L 112.11 374.25L 50 374.82" fill="#007AFF" fill-opacity="0.30196078431372547" stroke="none"/>
    <path d="M 50 373.69L 112.11 405.19L 148.43 393.27L 174.21 405.69L 194.2 384.18L 210.54 383.28L 224.35 390.51L 236.32 406.22L 256.31 391.32L 272.65 406.57L 286.46 400.73L 298.42 406.99L 318.41 411.52L 334.75 415.09L 348.56 417.72L 360.53 420.31L 380.52 423.18L 396.86 420.29L 410.67 427.3L 422.63 422.43L 442.63 430.53L 458.96 424.43L 472.77 426.14L 484.74 426.55L 504.73 427.93L 521.07 424.23L 534.88 422.99L 546.84 417.01L 566.84 414.95L 583.17 409.47L 596.98 405.42L 608.95 401.47L 628.94 378.29L 645.28 390.64L 659.09 387.08L 671.05 380.39L 691.05 369.61L 707.38 366.95L 721.19 359.56L 733.16 354.58L 753.15 340.75L 769.49 336.21L 783.3 331.03L 795.26 323.4L 815.26 315.37L 831.59 306.01L 845.4 299.31L 857.37 292.66L 877.36 281.58L 893.7 274.33L 907.51 264.49L 919.47 260.12L 939.47 249.8L 955.8 239.09L 969.61 230.4L 981.58 220.23L 1001.6 207.16L 1017.9 198.27L 1031.7 190.44L 1043.7 184.54L 1063.7 173.11L 1080 164.4L 1093.8 155.51L 1105.8 149.81L 1125.8 138.89L 1142.1 129.97L 1155.9 122.61L 1167.9 116.31L 1187.9 106.58L 1187.9 106.58L 1167.9 117.01L 1155.9 123.17L 1142.1 131.11L 1125.8 139.82L 1105.8 150.47L 1093.8 156.65L 1080 164.69L 1063.7 173.56L 1043.7 185.07L 1031.7 191.52L 1017.9 200L 1001.6 210.08L 981.58 222.82L 969.61 230.82L 955.8 239.45L 939.47 250.01L 919.47 261.56L 907.51 267.68L 893.7 274.88L 877.36 283.13L 857.37 294.59L 845.4 299.75L 831.59 307.57L 815.26 316.26L 795.26 325.5L 783.3 332.41L 769.49 338.06L 753.15 347.76L 733.16 356.87L 721.19 362.09L 707.38 369.11L 691.05 375.67L 671.05 382.96L 659.09 387.35L 645.28 391.99L 628.94 398.27L 608.95 403.73L 596.98 407.42L 583.17 412.56L 566.84 416.31L 546.84 422.58L 534.88 424.15L 521.07 425.59L 504.73 433.56L 484.74 431.03L 472.77 428.6L 458.96 430.22L 442.63 430.53L 422.63 431.01L 410.67 427.3L 396.86 425.64L 380.52 423.33L 360.53 428.58L 348.56 417.92L 334.75 415.09L 318.41 411.52L 298.42 420.07L 286.46 413.8L 272.65 406.57L 256.31 406.65L 236.32 406.76L 224.35 413.8L 210.54 406.57L 194.2 384.72L 174.21 406.76L 148.43 393.27L 112.11 407.33L 50 373.69" fill="#FF3B30" fill-opacity="0.30196078431372547" stroke="none"/>
    <path d="M 50 374.82L 112.11 374.25L 148.43 350.18L 174.21 347.92L 194.2 346.49L 210.54 345.56L 224.35 332.4L 236.32 324.55L 256.31 329.26L 272.65 326.61L 286.46 331.06L 298.42 320.63L 318.41 316.67L 334.75 318.18L 348.56 315.79L 360.53 312.85L 380.52 310.23L 396.86 306.2L 410.67 308.21L 422.63 307.6L 442.63 301.1L 458.96 300.98L 472.77 300.8L 484.74 300.52L 504.73 299.58L 521.07 296.85L 534.88 293.99L 546.84 294.57L 566.84 291.31L 583.17 289.08L 596.98 288.88L 608.95 288.39L 628.94 283.04L 645.28 285.12L 659.09 285.24L 671.05 283.88L 691.05 281.06L 707.38 279.83L 721.19 279.65L 733.16 278.13L 753.15 276.42L 769.49 276.17L 783.3 274.93L 795.26 273.75L 815.26 271.19L 831.59 270.7L 845.4 269.23L 857.37 268L 877.36 264.87L 893.7 263.85L 907.51 264.78L 919.47 263.17L 939.47 261.25L 955.8 259.8L 969.61 259.08L 981.58 258.61L 1001.6 255.97L 1017.9 255.52" fill="none" stroke-width="4" stroke="#007AFF" stroke-opacity="1" stroke-linecap="round" stroke-linejoin="round"/>
    <path d="M 50 373.69L 112.11 406.76L 148.43 393.27L 174.21 406.48L 194.2 384.58L 210.54 399.29L 224.35 406.52L 236.32 406.62L 256.31 402.14L 272.65 406.57L 286.46 410.02L 298.42 416.28L 318.41 411.52L 334.75 415.09L 348.56 417.87L 360.53 426.28L 380.52 423.29L 396.86 424.18L 410.67 427.3L 422.63 428.61L 442.63 430.53L 458.96 428.64L 472.77 427.94L 484.74 429.82L 504.73 432.02L 521.07 425.23L 534.88 423.85L 546.84 421.06L 566.84 415.95L 583.17 411.73L 596.98 406.89L 608.95 403.13L 628.94 392.17L 645.28 391.64L 659.09 387.28L 671.05 382.28L 691.05 374.01L 707.38 368.54L 721.19 361.42L 733.16 356.26L 753.15 345.83L 769.49 337.57L 783.3 332.05L 795.26 324.94L 815.26 316.03L 831.59 307.15L 845.4 299.64L 857.37 294.08L 877.36 282.72L 893.7 274.74L 907.51 266.83L 919.47 261.18L 939.47 249.95L 955.8 239.36L 969.61 230.71L 981.58 222.13L 1001.6 209.3L 1017.9 199.54L 1031.7 191.24L 1043.7 184.93L 1063.7 173.44L 1080 164.61L 1093.8 156.35L 1105.8 150.3L 1125.8 139.57L 1142.1 130.81L 1155.9 123.02L 1167.9 116.82L 1187.9 106.58" fill="none" stroke-width="4" stroke="#FF3B30" stroke-opacity="1" stroke-linecap="round" stroke-linejoin="round"/>
    <path d="M 50 374.82L 112.11 374.25L 148.43 350.18L 174.21 347.92L 194.2 346.49L 210.54 345.56L 224.35 332.4L 236.32 324.55L 256.31 329.26L 272.65 326.61L 286.46 331.06L 298.42 320.63L 318.41 316.67L 334.75 318.18L 348.56 315.79L 360.53 312.85L 380.52 310.23L 396.86 306.2L 410.67 308.21L 422.63 307.6L 442.63 301.1L 458.96 300.98L 472.77 300.8L 484.74 300.52L 504.73 299.58L 521.07 296.85L 534.88 293.99L 546.84 294.57L 566.84 291.31L 583.17 289.08L 596.98 288.88L 608.95 288.39L 628.94 283.04L 645.28 285.12L 659.09 285.24L 671.05 283.88L 691.05 281.06L 707.38 279.83L 721.19 279.65L 733.16 278.13L 753.15 276.42L 769.49 276.17L 783.3 274.93L 795.26 273.75L 815.26 271.19L 831.59 270.7L 845.4 269.23L 857.37 268L 877.36 264.87L 893.7 263.85L 907.51 264.78L 919.47 263.17L 939.47 261.25L 955.8 259.8L 969.61 259.08L 981.58 258.61L 1001.6 255.97L 1017.9 255.52" fill="none" stroke-width="0.5" stroke="#000000" stroke-opacity="0.30196" stroke-linecap="round" stroke-linejoin="round"/>
    <path d="M 50 373.69L 112.11 406.76L 148.43 393.27L 174.21 406.48L 194.2 384.58L 210.54 399.29L 224.35 406.52L 236.32 406.62L 256.31 402.14L 272.65 406.57L 286.46 410.02L 298.42 416.28L 318.41 411.52L 334.75 415.09L 348.56 417.87L 360.53 426.28L 380.52 423.29L 396.86 424.18L 410.67 427.3L 422.63 428.61L 442.63 430.53L 458.96 428.64L 472.77 427.94L 484.74 429.82L 504.73 432.02L 521.07 425.23L 534.88 423.85L 546.84 421.06L 566.84 415.95L 583.17 411.73L 596.98 406.89L 608.95 403.13L 628.94 392.17L 645.28 391.64L 659.09 387.28L 671.05 382.28L 691.05 374.01L 707.38 368.54L 721.19 361.42L 733.16 356.26L 753.15 345.83L 769.49 337.57L 783.3 332.05L 795.26 324.94L 815.26 316.03L 831.59 307.15L 845.4 299.64L 857.37 294.08L 877.36 282.72L 893.7 274.74L 907.51 266.83L 919.47 261.18L 939.47 249.95L 955.8 239.36L 969.61 230.71L 981.58 222.13L 1001.6 209.3L 1017.9 199.54L 1031.7 191.24L 1043.7 184.93L 1063.7 173.44L 1080 164.61L 1093.8 156.35L 1105.8 150.3L 1125.8 139.57L 1142.1 130.81L 1155.9 123.02L 1167.9 116.82L 1187.9 106.58" fill="none" stroke-width="0.5" stroke="#000000" stroke-opacity="0.30196" stroke-linecap="round" stroke-linejoin="round"/>
  </g>
  <path d="M 74 33 L 74 88 L 363 88 L 363 33 z" fill="#FFFFFF" fill-opacity="0.7019607843137254" stroke-width="0.5" stroke="#000000" stroke-opacity="1" stroke-linecap="round" stroke-linejoin="round"/>
  <path d="M 88 52 L 108 52" fill="none" stroke-width="4" stroke="#FF3B30" stroke-opacity="1" stroke-linecap="round" stroke-linejoin="round"/>
  <path d="M 88 52 L 108 52" fill="none" stroke-width="0.5" stroke="#000000" stroke-opacity="0.30196" stroke-linecap="round" stroke-linejoin="round"/>
  <text x="119" y="56.17" font-family="Menlo" font-size="12" font-weight="normal" font-style="normal" fill="#000000" fill-opacity="1">Array&lt;Int&gt; random insertions</text>
  <path d="M 88 69 L 108 69" fill="none" stroke-width="4" stroke="#007AFF" stroke-opacity="1" stroke-linecap="round" stroke-linejoin="round"/>
  <path d="M 88 69 L 108 69" fill="none" stroke-width="0.5" stroke="#000000" stroke-opacity="0.30196" stroke-linecap="round" stroke-linejoin="round"/>
  <text x="119" y="73.17" font-family="Menlo" font-size="12" font-weight="normal" font-style="normal" fill="#000000" fill-opacity="1">TreeArray&lt;Int&gt; random insertions</text>
  <path d="M 50 9 L 50 441 L 1230 441 L 1230 9 z" fill="none" stroke-width="0.5" stroke="#000000" stroke-opacity="1" stroke-linecap="round" stroke-linejoin="round"/>
</svg>
