<!DOCTYPE svg PUBLIC "-//W3C//DTD SVG 1.1//EN" "http://www.w3.org/Graphics/SVG/1.1/DTD/svg11.dtd">
<svg width="1280.0px" height="480.0px" viewBox="0.0 0.0 1280.0 480.0" xmlns="http://www.w3.org/2000/svg" xmlns:xlink="http://www.w3.org/1999/xlink" version="1.1">
  <path d="M 0 0 L 0 480 L 1280 480 L 1280 0 z" fill="#FFFFFF" fill-opacity="1.0" stroke="none"/>
  <text x="50" y="468.7" font-family="Helvetica" font-size="10" font-weight="normal" font-style="normal" fill="#000000" fill-opacity="1">Average per-element processing time over input size (bands: min, mean, mean + 2stddev)</text>
  <a xlink:href="https://github.com/apple/swift-collections-benchmark"><text x="1107" y="468.7" font-family="Helvetica" font-size="10" font-weight="normal" font-style="normal" fill="#000000" fill-opacity="1">swift-collections-benchmark</text></a>
  <path d="M 50 9 L 50 441" fill="none" stroke-width="0.75" stroke="#000000" stroke-opacity="0.49804" stroke-linecap="butt" stroke-linejoin="round"/>
  <text x="47" y="453.7" font-family="Helvetica" font-size="10" font-weight="normal" font-style="normal" fill="#000000" fill-opacity="1">1</text>
  <path d="M 109 9 L 109 441" fill="none" stroke-width="0.75" stroke="#000000" stroke-opacity="0.49804" stroke-linecap="butt" stroke-linejoin="round"/>
  <text x="106" y="453.7" font-family="Helvetica" font-size="10" font-weight="normal" font-style="normal" fill="#000000" fill-opacity="1">2</text>
  <path d="M 168 9 L 168 441" fill="none" stroke-width="0.75" stroke="#000000" stroke-opacity="0.49804" stroke-linecap="butt" stroke-linejoin="round"/>
  <text x="165" y="453.7" font-family="Helvetica" font-size="10" font-weight="normal" font-style="normal" fill="#000000" fill-opacity="1">4</text>
  <path d="M 227 9 L 227 441" fill="none" stroke-width="0.75" stroke="#000000" stroke-opacity="0.49804" stroke-linecap="butt" stroke-linejoin="round"/>
  <text x="224" y="453.7" font-family="Helvetica" font-size="10" font-weight="normal" font-style="normal" fill="#000000" fill-opacity="1">8</text>
  <path d="M 286 9 L 286 441" fill="none" stroke-width="0.75" stroke="#000000" stroke-opacity="0.49804" stroke-linecap="butt" stroke-linejoin="round"/>
  <text x="280" y="453.7" font-family="Helvetica" font-size="10" font-weight="normal" font-style="normal" fill="#000000" fill-opacity="1">16</text>
  <path d="M 345 9 L 345 441" fill="none" stroke-width="0.75" stroke="#000000" stroke-opacity="0.49804" stroke-linecap="butt" stroke-linejoin="round"/>
  <text x="339" y="453.7" font-family="Helvetica" font-size="10" font-weight="normal" font-style="normal" fill="#000000" fill-opacity="1">32</text>
  <path d="M 404 9 L 404 441" fill="none" stroke-width="0.75" stroke="#000000" stroke-opacity="0.49804" stroke-linecap="butt" stroke-linejoin="round"/>
  <text x="398" y="453.7" font-family="Helvetica" font-size="10" font-weight="normal" font-style="normal" fill="#000000" fill-opacity="1">64</text>
  <path d="M 463 9 L 463 441" fill="none" stroke-width="0.75" stroke="#000000" stroke-opacity="0.49804" stroke-linecap="butt" stroke-linejoin="round"/>
  <text x="454.5" y="453.7" font-family="Helvetica" font-size="10" font-weight="normal" font-style="normal" fill="#000000" fill-opacity="1">128</text>
  <path d="M 522 9 L 522 441" fill="none" stroke-width="0.75" stroke="#000000" stroke-opacity="0.49804" stroke-linecap="butt" stroke-linejoin="round"/>
  <text x="513.5" y="453.7" font-family="Helvetica" font-size="10" font-weight="normal" font-style="normal" fill="#000000" fill-opacity="1">256</text>
  <path d="M 581 9 L 581 441" fill="none" stroke-width="0.75" stroke="#000000" stroke-opacity="0.49804" stroke-linecap="butt" stroke-linejoin="round"/>
  <text x="572.5" y="453.7" font-family="Helvetica" font-size="10" font-weight="normal" font-style="normal" fill="#000000" fill-opacity="1">512</text>
  <path d="M 640 9 L 640 441" fill="none" stroke-width="0.75" stroke="#000000" stroke-opacity="0.49804" stroke-linecap="butt" stroke-linejoin="round"/>
  <text x="634.5" y="453.7" font-family="Helvetica" font-size="10" font-weight="normal" font-style="normal" fill="#000000" fill-opacity="1">1k</text>
  <path d="M 699 9 L 699 441" fill="none" stroke-width="0.75" stroke="#000000" stroke-opacity="0.49804" stroke-linecap="butt" stroke-linejoin="round"/>
  <text x="693.5" y="453.7" font-family="Helvetica" font-size="10" font-weight="normal" font-style="normal" fill="#000000" fill-opacity="1">2k</text>
  <path d="M 758 9 L 758 441" fill="none" stroke-width="0.75" stroke="#000000" stroke-opacity="0.49804" stroke-linecap="butt" stroke-linejoin="round"/>
  <text x="752.5" y="453.7" font-family="Helvetica" font-size="10" font-weight="normal" font-style="normal" fill="#000000" fill-opacity="1">4k</text>
  <path d="M 817 9 L 817 441" fill="none" stroke-width="0.75" stroke="#000000" stroke-opacity="0.49804" stroke-linecap="butt" stroke-linejoin="round"/>
  <text x="811.5" y="453.7" font-family="Helvetica" font-size="10" font-weight="normal" font-style="normal" fill="#000000" fill-opacity="1">8k</text>
  <path d="M 876 9 L 876 441" fill="none" stroke-width="0.75" stroke="#000000" stroke-opacity="0.49804" stroke-linecap="butt" stroke-linejoin="round"/>
  <text x="867.5" y="453.7" font-family="Helvetica" font-size="10" font-weight="normal" font-style="normal" fill="#000000" fill-opacity="1">16k</text>
  <path d="M 935 9 L 935 441" fill="none" stroke-width="0.75" stroke="#000000" stroke-opacity="0.49804" stroke-linecap="butt" stroke-linejoin="round"/>
  <text x="926.5" y="453.7" font-family="Helvetica" font-size="10" font-weight="normal" font-style="normal" fill="#000000" fill-opacity="1">32k</text>
  <path d="M 994 9 L 994 441" fill="none" stroke-width="0.75" stroke="#000000" stroke-opacity="0.49804" stroke-linecap="butt" stroke-linejoin="round"/>
  <text x="985.5" y="453.7" font-family="Helvetica" font-size="10" font-weight="normal" font-style="normal" fill="#000000" fill-opacity="1">64k</text>
  <path d="M 1053 9 L 1053 441" fill="none" stroke-width="0.75" stroke="#000000" stroke-opacity="0.49804" stroke-linecap="butt" stroke-linejoin="round"/>
  <text x="1042" y="453.7" font-family="Helvetica" font-size="10" font-weight="normal" font-style="normal" fill="#000000" fill-opacity="1">128k</text>
  <path d="M 1112 9 L 1112 441" fill="none" stroke-width="0.75" stroke="#000000" stroke-opacity="0.49804" stroke-linecap="butt" stroke-linejoin="round"/>
  <text x="1101" y="453.7" font-family="Helvetica" font-size="10" font-weight="normal" font-style="normal" fill="#000000" fill-opacity="1">256k</text>
  <path d="M 1171 9 L 1171 441" fill="none" stroke-width="0.75" stroke="#000000" stroke-opacity="0.49804" stroke-linecap="butt" stroke-linejoin="round"/>
  <text x="1160" y="453.7" font-family="Helvetica" font-size="10" font-weight="normal" font-style="normal" fill="#000000" fill-opacity="1">512k</text>
  <path d="M 1230 9 L 1230 441" fill="none" stroke-width="0.75" stroke="#000000" stroke-opacity="0.49804" stroke-linecap="butt" stroke-linejoin="round"/>
  <text x="1223" y="453.7" font-family="Helvetica" font-size="10" font-weight="normal" font-style="normal" fill="#000000" fill-opacity="1">1M</text>
  <path d="M 50 441 L 1230 441" fill="none" stroke-width="0.75" stroke="#000000" stroke-opacity="0.49804" stroke-linecap="butt" stroke-linejoin="round"/>
  <text x="21" y="442.7" font-family="Helvetica" font-size="10" font-weight="normal" font-style="normal" fill="#000000" fill-opacity="1">10 ns</text>
  <text x="1236" y="442.7" font-family="Helvetica" font-size="10" font-weight="normal" font-style="normal" fill="#000000" fill-opacity="1">10 ns</text>
  <path d="M 50 333 L 1230 333" fill="none" stroke-width="0.75" stroke="#000000" stroke-opacity="0.49804" stroke-linecap="butt" stroke-linejoin="round"/>
  <text x="16" y="334.7" font-family="Helvetica" font-size="10" font-weight="normal" font-style="normal" fill="#000000" fill-opacity="1">100 ns</text>
  <text x="1236" y="334.7" font-family="Helvetica" font-size="10" font-weight="normal" font-style="normal" fill="#000000" fill-opacity="1">100 ns</text>
  <path d="M 50 225 L 1230 225" fill="none" stroke-width="0.75" stroke="#000000" stroke-opacity="0.49804" stroke-linecap="butt" stroke-linejoin="round"/>
  <text x="26" y="226.7" font-family="Helvetica" font-size="10" font-weight="normal" font-style="normal" fill="#000000" fill-opacity="1">1 µs</text>
  <text x="1236" y="226.7" font-family="Helvetica" font-size="10" font-weight="normal" font-style="normal" fill="#000000" fill-opacity="1">1 µs</text>
  <path d="M 50 117 L 1230 117" fill="none" stroke-width="0.75" stroke="#000000" stroke-opacity="0.49804" stroke-linecap="butt" stroke-linejoin="round"/>
  <text x="21" y="118.7" font-family="Helvetica" font-size="10" font-weight="normal" font-style="normal" fill="#000000" fill-opacity="1">10 µs</text>
  <text x="1236" y="118.7" font-family="Helvetica" font-size="10" font-weight="normal" font-style="normal" fill="#000000" fill-opacity="1">10 µs</text>
  <path d="M 50 9 L 1230 9" fill="none" stroke-width="0.75" stroke="#000000" stroke-opacity="0.49804" stroke-linecap="butt" stroke-linejoin="round"/>
  <text x="15" y="10.7" font-family="Helvetica" font-size="10" font-weight="normal" font-style="normal" fill="#000000" fill-opacity="1">100 µs</text>
  <text x="1236" y="10.7" font-family="Helvetica" font-size="10" font-weight="normal" font-style="normal" fill="#000000" fill-opacity="1">100 µs</text>
  <path d="M 50 408.49 L 1230 408.49" fill="none" stroke-width="0.5" stroke="#000000" stroke-opacity="0.25882" stroke-linecap="butt" stroke-linejoin="round" stroke-dasharray="6 3" stroke-dashoffset="0"/>
  <path d="M 50 375.98 L 1230 375.98" fill="none" stroke-width="0.5" stroke="#000000" stroke-opacity="0.25882" stroke-linecap="butt" stroke-linejoin="round" stroke-dasharray="6 3" stroke-dashoffset="0"/>
  <path d="M 50 343.47 L 1230 343.47" fill="none" stroke-width="0.5" stroke="#000000" stroke-opacity="0.25882" stroke-linecap="butt" stroke-linejoin="round" stroke-dasharray="6 3" stroke-dashoffset="0"/>
  <path d="M 50 310.96 L 1230 310.96" fill="none" stroke-width="0.5" stroke="#000000" stroke-opacity="0.25882" stroke-linecap="butt" stroke-linejoin="round" stroke-dasharray="6 3" stroke-dashoffset="0"/>
  <path d="M 50 278.44 L 1230 278.44" fill="none" stroke-width="0.5" stroke="#000000" stroke-opacity="0.25882" stroke-linecap="butt" stroke-linejoin="round" stroke-dasharray="6 3" stroke-dashoffset="0"/>
  <path d="M 50 245.93 L 1230 245.93" fill="none" stroke-width="0.5" stroke="#000000" stroke-opacity="0.25882" stroke-linecap="butt" stroke-linejoin="round" stroke-dasharray="6 3" stroke-dashoffset="0"/>
  <path d="M 50 213.42 L 1230 213.42" fill="none" stroke-width="0.5" stroke="#000000" stroke-opacity="0.25882" stroke-linecap="butt" stroke-linejoin="round" stroke-dasharray="6 3" stroke-dashoffset="0"/>
  <path d="M 50 180.91 L 1230 180.91" fill="none" stroke-width="0.5" stroke="#000000" stroke-opacity="0.25882" stroke-linecap="butt" stroke-linejoin="round" stroke-dasharray="6 3" stroke-dashoffset="0"/>
  <path d="M 50 148.4 L 1230 148.4" fill="none" stroke-width="0.5" stroke="#000000" stroke-opacity="0.25882" stroke-linecap="butt" stroke-linejoin="round" stroke-dasharray="6 3" stroke-dashoffset="0"/>
  <path d="M 50 115.89 L 1230 115.89" fill="none" stroke-width="0.5" stroke="#000000" stroke-opacity="0.25882" stroke-linecap="butt" stroke-linejoin="round" stroke-dasharray="6 3" stroke-dashoffset="0"/>
  <path d="M 50 83.376 L 1230 83.376" fill="none" stroke-width="0.5" stroke="#000000" stroke-opacity="0.25882" stroke-linecap="butt" stroke-linejoin="round" stroke-dasharray="6 3" stroke-dashoffset="0"/>
  <path d="M 50 50.865 L 1230 50.865" fill="none" stroke-width="0.5" stroke="#000000" stroke-opacity="0.25882" stroke-linecap="butt" stroke-linejoin="round" stroke-dasharray="6 3" stroke-dashoffset="0"/>
  <path d="M 50 18.354 L 1230 18.354" fill="none" stroke-width="0.5" stroke="#000000" stroke-opacity="0.25882" stroke-linecap="butt" stroke-linejoin="round" stroke-dasharray="6 3" stroke-dashoffset="0"/>
  <path d="M 74 33 L 74 105 L 363 105 L 363 33 z" fill="#FFFFFF" fill-opacity="1.0" stroke="none"/>
  <clipPath id="clip-0">
    <path d="M 50 9 L 50 441 L 1230 441 L 1230 9 z"/>
  </clipPath>
  <g clip-path="url(#clip-0)">
    <path d="M 50 373.69L 109 373.18L 143.51 374.06L 168 355.04L 186.99 365.51L 202.51 355.26L 215.63 367.85L 227 363.46L 245.99 362.04L 261.51 363.79L 274.63 373.94L 286 368.54L 304.99 366.02L 320.51 366.96L 333.63 375.77L 345 374.23L 363.99 373.04L 379.51 375.23L 392.63 371.79L 404 377.85L 422.99 379.71L 438.51 378.77L 451.63 379.92L 463 379.54L 481.99 380.38L 497.51 379.84L 510.63 380.85L 522 380.19L 540.99 379.89L 556.51 377.46L 569.63 377.64L 581 375.97L 599.99 374.04L 615.51 374.09L 628.63 371.98L 640 371.75L 658.99 369.06L 674.51 365.84L 687.63 357.07L 699 359.69L 717.99 354.78L 733.51 350.45L 746.63 346.89L 758 342.61L 776.99 335.48L 792.51 329.73L 805.63 323.24L 817 319.44L 835.99 310.62L 851.51 302.9L 864.63 297L 876 291.5L 894.99 280.81L 910.51 272.13L 923.63 263.37L 935 255.98L 953.99 243.97L 969.51 233.75L 982.63 225.32L 994 218.33L 1013 206.27L 1028.5 196.83L 1041.6 189.42L 1053 182.64L 1072 171.69L 1087.5 163.52L 1100.6 156.1L 1112 149.89L 1131 139.18L 1146.5 130.4L 1159.6 121.93L 1171 115.45L 1190 106.55L 1190 106.55L 1171 117.11L 1159.6 123.42L 1146.5 130.62L 1131 139.23L 1112 149.96L 1100.6 156.31L 1087.5 163.55L 1072 172.02L 1053 183.42L 1041.6 189.92L 1028.5 197.53L 1013 206.8L 994 218.61L 982.63 225.97L 969.51 234.4L 953.99 244.24L 935 256.86L 923.63 264.15L 910.51 272.27L 894.99 281.29L 876 291.54L 864.63 297.07L 851.51 303.91L 835.99 311.23L 817 319.51L 805.63 325.21L 792.51 330.23L 776.99 336.04L 758 344.03L 746.63 347.64L 733.51 351.79L 717.99 356.72L 699 360.67L 687.63 363.53L 674.51 366.34L 658.99 369.06L 640 372.09L 628.63 373.44L 615.51 374.55L 599.99 376.93L 581 378.99L 569.63 379.85L 556.51 379.77L 540.99 381.17L 522 381.82L 510.63 381.78L 497.51 381.46L 481.99 381.69L 463 380.32L 451.63 381.79L 438.51 380.88L 422.99 381L 404 377.88L 392.63 376.65L 379.51 379.21L 363.99 375.25L 345 377.09L 333.63 375.77L 320.51 370.32L 304.99 379L 286 368.54L 274.63 374.09L 261.51 370.28L 245.99 369.63L 227 363.67L 215.63 367.85L 202.51 366.94L 186.99 365.51L 168 355.04L 143.51 374.06L 109 374.25L 50 373.69" fill="#28CD41" fill-opacity="0.30196078431372547" stroke="none"/>
    <path d="M 50 372.68L 109 342.48L 143.51 360.22L 168 348.34L 186.99 346.82L 202.51 338.08L 215.63 352.7L 227 322.83L 245.99 315.74L 261.51 320.4L 274.63 321.75L 286 316.53L 304.99 308.01L 320.51 311.53L 333.63 310.37L 345 304.6L 363.99 313.02L 379.51 299.22L 392.63 300.61L 404 301.59L 422.99 297.37L 438.51 294.53L 451.63 292.33L 463 295.51L 481.99 295.05L 497.51 293.06L 510.63 291.18L 522 290.83L 540.99 289.85L 556.51 288.15L 569.63 284.06L 581 284.71L 599.99 284.88L 615.51 285.17L 628.63 284L 640 284.72L 658.99 284.05L 674.51 279L 687.63 279.19L 699 277.79L 717.99 278.09L 733.51 278.23L 746.63 273.38L 758 273.18L 776.99 271.84L 792.51 272.38L 805.63 269.99L 817 265.06L 835.99 267.32L 851.51 266.76L 864.63 266.38L 876 260.45L 894.99 261.77L 910.51 261.39L 923.63 260.74L 935 257.99L 953.99 256.96L 969.51 255.4L 982.63 256.82L 994 252.77L 1013 251.85L 1028.5 251.74L 1041.6 250.92L 1053 246.44L 1072 246.86L 1087.5 245.03L 1100.6 244.49L 1112 236.54L 1131 235.17L 1146.5 235.46L 1159.6 235.42L 1171 229.49L 1190 221.11L 1205.5 225.97L 1218.6 224.49L 1230 217.5L 1230 217.97L 1218.6 224.96L 1205.5 226.34L 1190 228.45L 1171 231.23L 1159.6 236.43L 1146.5 238.41L 1131 238.97L 1112 241.05L 1100.6 245.82L 1087.5 246.72L 1072 247.47L 1053 248.55L 1041.6 252.01L 1028.5 252L 1013 252.95L 994 253.36L 982.63 257.17L 969.51 257.91L 953.99 257.92L 935 258.07L 923.63 261.62L 910.51 261.61L 894.99 261.89L 876 262.96L 864.63 267.03L 851.51 267.28L 835.99 268.27L 817 268.45L 805.63 272.29L 792.51 272.75L 776.99 273.71L 758 273.85L 746.63 274.15L 733.51 278.27L 717.99 278.9L 699 279.23L 687.63 279.88L 674.51 279.65L 658.99 284.93L 640 285.76L 628.63 284.92L 615.51 285.75L 599.99 284.92L 581 286.35L 569.63 287.23L 556.51 290.58L 540.99 291.99L 522 291.73L 510.63 291.8L 497.51 297.32L 481.99 297.07L 463 298.21L 451.63 297.99L 438.51 296.1L 422.99 304.43L 404 305L 392.63 304.08L 379.51 305.29L 363.99 313.02L 345 315.3L 333.63 312.07L 320.51 311.56L 304.99 311.46L 286 325.56L 274.63 328.47L 261.51 331.09L 245.99 327.48L 227 331.1L 215.63 352.9L 202.51 345.67L 186.99 358.23L 168 363.67L 143.51 360.76L 109 374.25L 50 374.82" fill="#007AFF" fill-opacity="0.30196078431372547" stroke="none"/>
    <path d="M 50 373.69L 109 406.2L 143.51 393.27L 168 374.99L 186.99 398.02L 202.51 383.28L 215.63 400.22L 227 406.48L 245.99 406.22L 261.51 406.57L 274.63 413.8L 286 420.07L 304.99 411.52L 320.51 403.5L 333.63 414.14L 345 424.18L 363.99 420.07L 379.51 425.64L 392.63 427.3L 404 407.44L 422.99 421.95L 438.51 428.79L 451.63 426.25L 463 426.45L 481.99 425.18L 497.51 427.05L 510.63 423.03L 522 419.62L 540.99 413.01L 556.51 406.03L 569.63 402.38L 581 403.1L 599.99 392.02L 615.51 385.01L 628.63 386.01L 640 379.93L 658.99 369.6L 674.51 365.09L 687.63 360.63L 699 354.12L 717.99 345.65L 733.51 338.63L 746.63 329.78L 758 325.8L 776.99 315.33L 792.51 306.41L 805.63 299.48L 817 293.81L 835.99 282.37L 851.51 273.9L 864.63 267.2L 876 260.48L 894.99 249.64L 910.51 239.45L 923.63 229.77L 935 222.79L 953.99 209.87L 969.51 199.58L 982.63 191.35L 994 184.37L 1013 173.45L 1028.5 164.35L 1041.6 156.57L 1053 149.95L 1072 139.25L 1087.5 130.13L 1100.6 123.55L 1112 115.63L 1131 106.33L 1131 106.33L 1112 117.32L 1100.6 123.75L 1087.5 130.95L 1072 139.56L 1053 150.44L 1041.6 157.04L 1028.5 164.67L 1013 173.62L 994 184.82L 982.63 192.07L 969.51 200.25L 953.99 210.03L 935 222.95L 923.63 230.44L 910.51 239.89L 894.99 250.2L 876 261.41L 864.63 267.69L 851.51 274.92L 835.99 283.88L 817 293.87L 805.63 299.85L 792.51 307.11L 776.99 316.77L 758 326.33L 746.63 332.71L 733.51 338.76L 717.99 347.03L 699 355.14L 687.63 361.43L 674.51 369.44L 658.99 374.43L 640 384.2L 628.63 388.26L 615.51 394.29L 599.99 398.64L 581 404.43L 569.63 406.99L 556.51 410.39L 540.99 417.04L 522 420.56L 510.63 425.38L 497.51 427.09L 481.99 428.63L 463 428.61L 451.63 431.38L 438.51 431.84L 422.99 428.6L 404 433.56L 392.63 427.3L 379.51 425.64L 363.99 420.07L 345 424.18L 333.63 422.43L 320.51 420.07L 304.99 411.52L 286 420.07L 274.63 413.8L 261.51 406.57L 245.99 406.65L 227 406.48L 215.63 400.22L 202.51 406.57L 186.99 398.02L 168 406.76L 143.51 393.27L 109 406.2L 50 373.69" fill="#FF3B30" fill-opacity="0.30196078431372547" stroke="none"/>
    <path d="M 50 373.69L 109 373.97L 143.51 374.06L 168 355.04L 186.99 365.51L 202.51 363.6L 215.63 367.85L 227 363.62L 245.99 367.52L 261.51 368.5L 274.63 374.05L 286 368.54L 304.99 375.25L 320.51 369.42L 333.63 375.77L 345 376.33L 363.99 374.66L 379.51 378.14L 392.63 375.33L 404 377.88L 422.99 380.66L 438.51 380.32L 451.63 381.29L 463 380.12L 481.99 381.34L 497.51 381.03L 510.63 381.54L 522 381.39L 540.99 380.83L 556.51 379.15L 569.63 379.26L 581 378.18L 599.99 376.16L 615.51 374.43L 628.63 373.05L 640 372L 658.99 369.06L 674.51 366.21L 687.63 361.76L 699 360.41L 717.99 356.21L 733.51 351.44L 746.63 347.45L 758 343.65L 776.99 335.89L 792.51 330.1L 805.63 324.69L 817 319.49L 835.99 311.07L 851.51 303.64L 864.63 297.05L 876 291.53L 894.99 281.16L 910.51 272.23L 923.63 263.95L 935 256.63L 953.99 244.17L 969.51 234.23L 982.63 225.8L 994 218.54L 1013 206.66L 1028.5 197.35L 1041.6 189.79L 1053 183.22L 1072 171.94L 1087.5 163.54L 1100.6 156.25L 1112 149.94L 1131 139.22L 1146.5 130.56L 1159.6 123.02L 1171 116.67L 1190 106.55" fill="none" stroke-width="4" stroke="#28CD41" stroke-opacity="1" stroke-linecap="round" stroke-linejoin="round"/>
    <path d="M 50 374.25L 109 363.67L 143.51 360.62L 168 359.16L 186.99 354.97L 202.51 343.56L 215.63 352.85L 227 328.8L 245.99 324.12L 261.51 328.05L 274.63 326.62L 286 323.03L 304.99 310.53L 320.51 311.55L 333.63 311.62L 345 312.26L 363.99 313.02L 379.51 303.63L 392.63 303.15L 404 304.09L 422.99 302.48L 438.51 295.69L 451.63 296.44L 463 297.49L 481.99 296.54L 497.51 296.17L 510.63 291.64L 522 291.5L 540.99 291.42L 556.51 289.93L 569.63 286.38L 581 285.92L 599.99 284.91L 615.51 285.6L 628.63 284.68L 640 285.49L 658.99 284.7L 674.51 279.48L 687.63 279.7L 699 278.85L 717.99 278.69L 733.51 278.26L 746.63 273.95L 758 273.68L 776.99 273.22L 792.51 272.65L 805.63 271.68L 817 267.54L 835.99 268.02L 851.51 267.14L 864.63 266.86L 876 262.29L 894.99 261.85L 910.51 261.55L 923.63 261.39L 935 258.05L 953.99 257.67L 969.51 257.24L 982.63 257.08L 994 253.2L 1013 252.66L 1028.5 251.93L 1041.6 251.72L 1053 247.99L 1072 247.31L 1087.5 246.27L 1100.6 245.47L 1112 239.83L 1131 237.95L 1146.5 237.62L 1159.6 236.16L 1171 230.77L 1190 226.42L 1205.5 226.24L 1218.6 224.83L 1230 217.85" fill="none" stroke-width="4" stroke="#007AFF" stroke-opacity="1" stroke-linecap="round" stroke-linejoin="round"/>
    <path d="M 50 373.69L 109 406.2L 143.51 393.27L 168 396.18L 186.99 398.02L 202.51 399.29L 215.63 400.22L 227 406.48L 245.99 406.54L 261.51 406.57L 274.63 413.8L 286 420.07L 304.99 411.52L 320.51 415.14L 333.63 420.12L 345 424.18L 363.99 420.07L 379.51 425.64L 392.63 427.3L 404 425.22L 422.99 426.77L 438.51 431.02L 451.63 429.98L 463 428.04L 481.99 427.7L 497.51 427.08L 510.63 424.76L 522 420.31L 540.99 415.96L 556.51 409.21L 569.63 405.74L 581 404.08L 599.99 396.82L 615.51 391.68L 628.63 387.66L 640 383.05L 658.99 373.12L 674.51 368.27L 687.63 361.22L 699 354.87L 717.99 346.66L 733.51 338.73L 746.63 331.93L 758 326.19L 776.99 316.39L 792.51 306.93L 805.63 299.75L 817 293.85L 835.99 283.48L 851.51 274.65L 864.63 267.56L 876 261.17L 894.99 250.06L 910.51 239.77L 923.63 230.26L 935 222.91L 953.99 209.99L 969.51 200.07L 982.63 191.88L 994 184.7L 1013 173.58L 1028.5 164.59L 1041.6 156.92L 1053 150.31L 1072 139.48L 1087.5 130.74L 1100.6 123.7L 1112 116.88L 1131 106.33" fill="none" stroke-width="4" stroke="#FF3B30" stroke-opacity="1" stroke-linecap="round" stroke-linejoin="round"/>
    <path d="M 50 373.69L 109 373.97L 143.51 374.06L 168 355.04L 186.99 365.51L 202.51 363.6L 215.63 367.85L 227 363.62L 245.99 367.52L 261.51 368.5L 274.63 374.05L 286 368.54L 304.99 375.25L 320.51 369.42L 333.63 375.77L 345 376.33L 363.99 374.66L 379.51 378.14L 392.63 375.33L 404 377.88L 422.99 380.66L 438.51 380.32L 451.63 381.29L 463 380.12L 481.99 381.34L 497.51 381.03L 510.63 381.54L 522 381.39L 540.99 380.83L 556.51 379.15L 569.63 379.26L 581 378.18L 599.99 376.16L 615.51 374.43L 628.63 373.05L 640 372L 658.99 369.06L 674.51 366.21L 687.63 361.76L 699 360.41L 717.99 356.21L 733.51 351.44L 746.63 347.45L 758 343.65L 776.99 335.89L 792.51 330.1L 805.63 324.69L 817 319.49L 835.99 311.07L 851.51 303.64L 864.63 297.05L 876 291.53L 894.99 281.16L 910.51 272.23L 923.63 263.95L 935 256.63L 953.99 244.17L 969.51 234.23L 982.63 225.8L 994 218.54L 1013 206.66L 1028.5 197.35L 1041.6 189.79L 1053 183.22L 1072 171.94L 1087.5 163.54L 1100.6 156.25L 1112 149.94L 1131 139.22L 1146.5 130.56L 1159.6 123.02L 1171 116.67L 1190 106.55" fill="none" stroke-width="0.5" stroke="#000000" stroke-opacity="0.30196" stroke-linecap="round" stroke-linejoin="round"/>
    <path d="M 50 374.25L 109 363.67L 143.51 360.62L 168 359.16L 186.99 354.97L 202.51 343.56L 215.63 352.85L 227 328.8L 245.99 324.12L 261.51 328.05L 274.63 326.62L 286 323.03L 304.99 310.53L 320.51 311.55L 333.63 311.62L 345 312.26L 363.99 313.02L 379.51 303.63L 392.63 303.15L 404 304.09L 422.99 302.48L 438.51 295.69L 451.63 296.44L 463 297.49L 481.99 296.54L 497.51 296.17L 510.63 291.64L 522 291.5L 540.99 291.42L 556.51 289.93L 569.63 286.38L 581 285.92L 599.99 284.91L 615.51 285.6L 628.63 284.68L 640 285.49L 658.99 284.7L 674.51 279.48L 687.63 279.7L 699 278.85L 717.99 278.69L 733.51 278.26L 746.63 273.95L 758 273.68L 776.99 273.22L 792.51 272.65L 805.63 271.68L 817 267.54L 835.99 268.02L 851.51 267.14L 864.63 266.86L 876 262.29L 894.99 261.85L 910.51 261.55L 923.63 261.39L 935 258.05L 953.99 257.67L 969.51 257.24L 982.63 257.08L 994 253.2L 1013 252.66L 1028.5 251.93L 1041.6 251.72L 1053 247.99L 1072 247.31L 1087.5 246.27L 1100.6 245.47L 1112 239.83L 1131 237.95L 1146.5 237.62L 1159.6 236.16L 1171 230.77L 1190 226.42L 1205.5 226.24L 1218.6 224.83L 1230 217.85" fill="none" stroke-width="0.5" stroke="#000000" stroke-opacity="0.30196" stroke-linecap="round" stroke-linejoin="round"/>
    <path d="M 50 373.69L 109 406.2L 143.51 393.27L 168 396.18L 186.99 398.02L 202.51 399.29L 215.63 400.22L 227 406.48L 245.99 406.54L 261.51 406.57L 274.63 413.8L 286 420.07L 304.99 411.52L 320.51 415.14L 333.63 420.12L 345 424.18L 363.99 420.07L 379.51 425.64L 392.63 427.3L 404 425.22L 422.99 426.77L 438.51 431.02L 451.63 429.98L 463 428.04L 481.99 427.7L 497.51 427.08L 510.63 424.76L 522 420.31L 540.99 415.96L 556.51 409.21L 569.63 405.74L 581 404.08L 599.99 396.82L 615.51 391.68L 628.63 387.66L 640 383.05L 658.99 373.12L 674.51 368.27L 687.63 361.22L 699 354.87L 717.99 346.66L 733.51 338.73L 746.63 331.93L 758 326.19L 776.99 316.39L 792.51 306.93L 805.63 299.75L 817 293.85L 835.99 283.48L 851.51 274.65L 864.63 267.56L 876 261.17L 894.99 250.06L 910.51 239.77L 923.63 230.26L 935 222.91L 953.99 209.99L 969.51 200.07L 982.63 191.88L 994 184.7L 1013 173.58L 1028.5 164.59L 1041.6 156.92L 1053 150.31L 1072 139.48L 1087.5 130.74L 1100.6 123.7L 1112 116.88L 1131 106.33" fill="none" stroke-width="0.5" stroke="#000000" stroke-opacity="0.30196" stroke-linecap="round" stroke-linejoin="round"/>
  </g>
  <path d="M 74 33 L 74 105 L 363 105 L 363 33 z" fill="#FFFFFF" fill-opacity="0.7019607843137254" stroke-width="0.5" stroke="#000000" stroke-opacity="1" stroke-linecap="round" stroke-linejoin="round"/>
  <path d="M 88 52 L 108 52" fill="none" stroke-width="4" stroke="#FF3B30" stroke-opacity="1" stroke-linecap="round" stroke-linejoin="round"/>
  <path d="M 88 52 L 108 52" fill="none" stroke-width="0.5" stroke="#000000" stroke-opacity="0.30196" stroke-linecap="round" stroke-linejoin="round"/>
  <text x="119" y="56.17" font-family="Menlo" font-size="12" font-weight="normal" font-style="normal" fill="#000000" fill-opacity="1">Array&lt;Int&gt; random insertions</text>
  <path d="M 88 69 L 108 69" fill="none" stroke-width="4" stroke="#007AFF" stroke-opacity="1" stroke-linecap="round" stroke-linejoin="round"/>
  <path d="M 88 69 L 108 69" fill="none" stroke-width="0.5" stroke="#000000" stroke-opacity="0.30196" stroke-linecap="round" stroke-linejoin="round"/>
  <text x="119" y="73.17" font-family="Menlo" font-size="12" font-weight="normal" font-style="normal" fill="#000000" fill-opacity="1">TreeArray&lt;Int&gt; random insertions</text>
  <path d="M 88 86 L 108 86" fill="none" stroke-width="4" stroke="#28CD41" stroke-opacity="1" stroke-linecap="round" stroke-linejoin="round"/>
  <path d="M 88 86 L 108 86" fill="none" stroke-width="0.5" stroke="#000000" stroke-opacity="0.30196" stroke-linecap="round" stroke-linejoin="round"/>
  <text x="119" y="90.17" font-family="Menlo" font-size="12" font-weight="normal" font-style="normal" fill="#000000" fill-opacity="1">Deque&lt;Int&gt; random insertions</text>
  <path d="M 50 9 L 50 441 L 1230 441 L 1230 9 z" fill="none" stroke-width="0.5" stroke="#000000" stroke-opacity="1" stroke-linecap="round" stroke-linejoin="round"/>
</svg>
