<!DOCTYPE svg PUBLIC "-//W3C//DTD SVG 1.1//EN" "http://www.w3.org/Graphics/SVG/1.1/DTD/svg11.dtd">
<svg width="1280.0px" height="480.0px" viewBox="0.0 0.0 1280.0 480.0" xmlns="http://www.w3.org/2000/svg" xmlns:xlink="http://www.w3.org/1999/xlink" version="1.1">
  <path d="M 0 0 L 0 480 L 1280 480 L 1280 0 z" fill="#FFFFFF" fill-opacity="1.0" stroke="none"/>
  <text x="50" y="468.7" font-family="Helvetica" font-size="10" font-weight="normal" font-style="normal" fill="#000000" fill-opacity="1">Average per-element processing time over input size (bands: min, mean, mean + 2stddev)</text>
  <a xlink:href="https://github.com/apple/swift-collections-benchmark"><text x="1107" y="468.7" font-family="Helvetica" font-size="10" font-weight="normal" font-style="normal" fill="#000000" fill-opacity="1">swift-collections-benchmark</text></a>
  <path d="M 50 9 L 50 441" fill="none" stroke-width="0.75" stroke="#000000" stroke-opacity="0.49804" stroke-linecap="butt" stroke-linejoin="round"/>
  <text x="47" y="453.7" font-family="Helvetica" font-size="10" font-weight="normal" font-style="normal" fill="#000000" fill-opacity="1">1</text>
  <path d="M 109 9 L 109 441" fill="none" stroke-width="0.75" stroke="#000000" stroke-opacity="0.49804" stroke-linecap="butt" stroke-linejoin="round"/>
  <text x="106" y="453.7" font-family="Helvetica" font-size="10" font-weight="normal" font-style="normal" fill="#000000" fill-opacity="1">2</text>
  <path d="M 168 9 L 168 441" fill="none" stroke-width="0.75" stroke="#000000" stroke-opacity="0.49804" stroke-linecap="butt" stroke-linejoin="round"/>
  <text x="165" y="453.7" font-family="Helvetica" font-size="10" font-weight="normal" font-style="normal" fill="#000000" fill-opacity="1">4</text>
  <path d="M 227 9 L 227 441" fill="none" stroke-width="0.75" stroke="#000000" stroke-opacity="0.49804" stroke-linecap="butt" stroke-linejoin="round"/>
  <text x="224" y="453.7" font-family="Helvetica" font-size="10" font-weight="normal" font-style="normal" fill="#000000" fill-opacity="1">8</text>
  <path d="M 286 9 L 286 441" fill="none" stroke-width="0.75" stroke="#000000" stroke-opacity="0.49804" stroke-linecap="butt" stroke-linejoin="round"/>
  <text x="280" y="453.7" font-family="Helvetica" font-size="10" font-weight="normal" font-style="normal" fill="#000000" fill-opacity="1">16</text>
  <path d="M 345 9 L 345 441" fill="none" stroke-width="0.75" stroke="#000000" stroke-opacity="0.49804" stroke-linecap="butt" stroke-linejoin="round"/>
  <text x="339" y="453.7" font-family="Helvetica" font-size="10" font-weight="normal" font-style="normal" fill="#000000" fill-opacity="1">32</text>
  <path d="M 404 9 L 404 441" fill="none" stroke-width="0.75" stroke="#000000" stroke-opacity="0.49804" stroke-linecap="butt" stroke-linejoin="round"/>
  <text x="398" y="453.7" font-family="Helvetica" font-size="10" font-weight="normal" font-style="normal" fill="#000000" fill-opacity="1">64</text>
  <path d="M 463 9 L 463 441" fill="none" stroke-width="0.75" stroke="#000000" stroke-opacity="0.49804" stroke-linecap="butt" stroke-linejoin="round"/>
  <text x="454.5" y="453.7" font-family="Helvetica" font-size="10" font-weight="normal" font-style="normal" fill="#000000" fill-opacity="1">128</text>
  <path d="M 522 9 L 522 441" fill="none" stroke-width="0.75" stroke="#000000" stroke-opacity="0.49804" stroke-linecap="butt" stroke-linejoin="round"/>
  <text x="513.5" y="453.7" font-family="Helvetica" font-size="10" font-weight="normal" font-style="normal" fill="#000000" fill-opacity="1">256</text>
  <path d="M 581 9 L 581 441" fill="none" stroke-width="0.75" stroke="#000000" stroke-opacity="0.49804" stroke-linecap="butt" stroke-linejoin="round"/>
  <text x="572.5" y="453.7" font-family="Helvetica" font-size="10" font-weight="normal" font-style="normal" fill="#000000" fill-opacity="1">512</text>
  <path d="M 640 9 L 640 441" fill="none" stroke-width="0.75" stroke="#000000" stroke-opacity="0.49804" stroke-linecap="butt" stroke-linejoin="round"/>
  <text x="634.5" y="453.7" font-family="Helvetica" font-size="10" font-weight="normal" font-style="normal" fill="#000000" fill-opacity="1">1k</text>
  <path d="M 699 9 L 699 441" fill="none" stroke-width="0.75" stroke="#000000" stroke-opacity="0.49804" stroke-linecap="butt" stroke-linejoin="round"/>
  <text x="693.5" y="453.7" font-family="Helvetica" font-size="10" font-weight="normal" font-style="normal" fill="#000000" fill-opacity="1">2k</text>
  <path d="M 758 9 L 758 441" fill="none" stroke-width="0.75" stroke="#000000" stroke-opacity="0.49804" stroke-linecap="butt" stroke-linejoin="round"/>
  <text x="752.5" y="453.7" font-family="Helvetica" font-size="10" font-weight="normal" font-style="normal" fill="#000000" fill-opacity="1">4k</text>
  <path d="M 817 9 L 817 441" fill="none" stroke-width="0.75" stroke="#000000" stroke-opacity="0.49804" stroke-linecap="butt" stroke-linejoin="round"/>
  <text x="811.5" y="453.7" font-family="Helvetica" font-size="10" font-weight="normal" font-style="normal" fill="#000000" fill-opacity="1">8k</text>
  <path d="M 876 9 L 876 441" fill="none" stroke-width="0.75" stroke="#000000" stroke-opacity="0.49804" stroke-linecap="butt" stroke-linejoin="round"/>
  <text x="867.5" y="453.7" font-family="Helvetica" font-size="10" font-weight="normal" font-style="normal" fill="#000000" fill-opacity="1">16k</text>
  <path d="M 935 9 L 935 441" fill="none" stroke-width="0.75" stroke="#000000" stroke-opacity="0.49804" stroke-linecap="butt" stroke-linejoin="round"/>
  <text x="926.5" y="453.7" font-family="Helvetica" font-size="10" font-weight="normal" font-style="normal" fill="#000000" fill-opacity="1">32k</text>
  <path d="M 994 9 L 994 441" fill="none" stroke-width="0.75" stroke="#000000" stroke-opacity="0.49804" stroke-linecap="butt" stroke-linejoin="round"/>
  <text x="985.5" y="453.7" font-family="Helvetica" font-size="10" font-weight="normal" font-style="normal" fill="#000000" fill-opacity="1">64k</text>
  <path d="M 1053 9 L 1053 441" fill="none" stroke-width="0.75" stroke="#000000" stroke-opacity="0.49804" stroke-linecap="butt" stroke-linejoin="round"/>
  <text x="1042" y="453.7" font-family="Helvetica" font-size="10" font-weight="normal" font-style="normal" fill="#000000" fill-opacity="1">128k</text>
  <path d="M 1112 9 L 1112 441" fill="none" stroke-width="0.75" stroke="#000000" stroke-opacity="0.49804" stroke-linecap="butt" stroke-linejoin="round"/>
  <text x="1101" y="453.7" font-family="Helvetica" font-size="10" font-weight="normal" font-style="normal" fill="#000000" fill-opacity="1">256k</text>
  <path d="M 1171 9 L 1171 441" fill="none" stroke-width="0.75" stroke="#000000" stroke-opacity="0.49804" stroke-linecap="butt" stroke-linejoin="round"/>
  <text x="1160" y="453.7" font-family="Helvetica" font-size="10" font-weight="normal" font-style="normal" fill="#000000" fill-opacity="1">512k</text>
  <path d="M 1230 9 L 1230 441" fill="none" stroke-width="0.75" stroke="#000000" stroke-opacity="0.49804" stroke-linecap="butt" stroke-linejoin="round"/>
  <text x="1223" y="453.7" font-family="Helvetica" font-size="10" font-weight="normal" font-style="normal" fill="#000000" fill-opacity="1">1M</text>
  <path d="M 50 441 L 1230 441" fill="none" stroke-width="0.75" stroke="#000000" stroke-opacity="0.49804" stroke-linecap="butt" stroke-linejoin="round"/>
  <text x="21" y="442.7" font-family="Helvetica" font-size="10" font-weight="normal" font-style="normal" fill="#000000" fill-opacity="1">10 ns</text>
  <text x="1236" y="442.7" font-family="Helvetica" font-size="10" font-weight="normal" font-style="normal" fill="#000000" fill-opacity="1">10 ns</text>
  <path d="M 50 333 L 1230 333" fill="none" stroke-width="0.75" stroke="#000000" stroke-opacity="0.49804" stroke-linecap="butt" stroke-linejoin="round"/>
  <text x="16" y="334.7" font-family="Helvetica" font-size="10" font-weight="normal" font-style="normal" fill="#000000" fill-opacity="1">100 ns</text>
  <text x="1236" y="334.7" font-family="Helvetica" font-size="10" font-weight="normal" font-style="normal" fill="#000000" fill-opacity="1">100 ns</text>
  <path d="M 50 225 L 1230 225" fill="none" stroke-width="0.75" stroke="#000000" stroke-opacity="0.49804" stroke-linecap="butt" stroke-linejoin="round"/>
  <text x="26" y="226.7" font-family="Helvetica" font-size="10" font-weight="normal" font-style="normal" fill="#000000" fill-opacity="1">1 µs</text>
  <text x="1236" y="226.7" font-family="Helvetica" font-size="10" font-weight="normal" font-style="normal" fill="#000000" fill-opacity="1">1 µs</text>
  <path d="M 50 117 L 1230 117" fill="none" stroke-width="0.75" stroke="#000000" stroke-opacity="0.49804" stroke-linecap="butt" stroke-linejoin="round"/>
  <text x="21" y="118.7" font-family="Helvetica" font-size="10" font-weight="normal" font-style="normal" fill="#000000" fill-opacity="1">10 µs</text>
  <text x="1236" y="118.7" font-family="Helvetica" font-size="10" font-weight="normal" font-style="normal" fill="#000000" fill-opacity="1">10 µs</text>
  <path d="M 50 9 L 1230 9" fill="none" stroke-width="0.75" stroke="#000000" stroke-opacity="0.49804" stroke-linecap="butt" stroke-linejoin="round"/>
  <text x="15" y="10.7" font-family="Helvetica" font-size="10" font-weight="normal" font-style="normal" fill="#000000" fill-opacity="1">100 µs</text>
  <text x="1236" y="10.7" font-family="Helvetica" font-size="10" font-weight="normal" font-style="normal" fill="#000000" fill-opacity="1">100 µs</text>
  <path d="M 50 408.49 L 1230 408.49" fill="none" stroke-width="0.5" stroke="#000000" stroke-opacity="0.25882" stroke-linecap="butt" stroke-linejoin="round" stroke-dasharray="6 3" stroke-dashoffset="0"/>
  <path d="M 50 375.98 L 1230 375.98" fill="none" stroke-width="0.5" stroke="#000000" stroke-opacity="0.25882" stroke-linecap="butt" stroke-linejoin="round" stroke-dasharray="6 3" stroke-dashoffset="0"/>
  <path d="M 50 343.47 L 1230 343.47" fill="none" stroke-width="0.5" stroke="#000000" stroke-opacity="0.25882" stroke-linecap="butt" stroke-linejoin="round" stroke-dasharray="6 3" stroke-dashoffset="0"/>
  <path d="M 50 310.96 L 1230 310.96" fill="none" stroke-width="0.5" stroke="#000000" stroke-opacity="0.25882" stroke-linecap="butt" stroke-linejoin="round" stroke-dasharray="6 3" stroke-dashoffset="0"/>
  <path d="M 50 278.44 L 1230 278.44" fill="none" stroke-width="0.5" stroke="#000000" stroke-opacity="0.25882" stroke-linecap="butt" stroke-linejoin="round" stroke-dasharray="6 3" stroke-dashoffset="0"/>
  <path d="M 50 245.93 L 1230 245.93" fill="none" stroke-width="0.5" stroke="#000000" stroke-opacity="0.25882" stroke-linecap="butt" stroke-linejoin="round" stroke-dasharray="6 3" stroke-dashoffset="0"/>
  <path d="M 50 213.42 L 1230 213.42" fill="none" stroke-width="0.5" stroke="#000000" stroke-opacity="0.25882" stroke-linecap="butt" stroke-linejoin="round" stroke-dasharray="6 3" stroke-dashoffset="0"/>
  <path d="M 50 180.91 L 1230 180.91" fill="none" stroke-width="0.5" stroke="#000000" stroke-opacity="0.25882" stroke-linecap="butt" stroke-linejoin="round" stroke-dasharray="6 3" stroke-dashoffset="0"/>
  <path d="M 50 148.4 L 1230 148.4" fill="none" stroke-width="0.5" stroke="#000000" stroke-opacity="0.25882" stroke-linecap="butt" stroke-linejoin="round" stroke-dasharray="6 3" stroke-dashoffset="0"/>
  <path d="M 50 115.89 L 1230 115.89" fill="none" stroke-width="0.5" stroke="#000000" stroke-opacity="0.25882" stroke-linecap="butt" stroke-linejoin="round" stroke-dasharray="6 3" stroke-dashoffset="0"/>
  <path d="M 50 83.376 L 1230 83.376" fill="none" stroke-width="0.5" stroke="#000000" stroke-opacity="0.25882" stroke-linecap="butt" stroke-linejoin="round" stroke-dasharray="6 3" stroke-dashoffset="0"/>
  <path d="M 50 50.865 L 1230 50.865" fill="none" stroke-width="0.5" stroke="#000000" stroke-opacity="0.25882" stroke-linecap="butt" stroke-linejoin="round" stroke-dasharray="6 3" stroke-dashoffset="0"/>
  <path d="M 50 18.354 L 1230 18.354" fill="none" stroke-width="0.5" stroke="#000000" stroke-opacity="0.25882" stroke-linecap="butt" stroke-linejoin="round" stroke-dasharray="6 3" stroke-dashoffset="0"/>
  <path d="M 74 33 L 74 88 L 363 88 L 363 33 z" fill="#FFFFFF" fill-opacity="1.0" stroke="none"/>
  <clipPath id="clip-0">
    <path d="M 50 9 L 50 441 L 1230 441 L 1230 9 z"/>
  </clipPath>
  <g clip-path="url(#clip-0)">
    <path d="M 50 374.82L 109 373.18L 143.51 350.77L 168 355.04L 186.99 358.23L 202.51 338.48L 215.63 338.66L 227 317.46L 245.99 319.74L 261.51 324.07L 274.63 323.74L 286 321.75L 304.99 312.16L 320.51 312.65L 333.63 312.65L 345 311.91L 363.99 313.36L 379.51 302.75L 392.63 300.4L 404 302.56L 422.99 298.41L 438.51 295.48L 451.63 295.55L 463 292.57L 481.99 296.09L 497.51 296.05L 510.63 289.11L 522 289.8L 540.99 289.25L 556.51 290.26L 569.63 285.02L 581 284.04L 599.99 284.73L 615.51 284.82L 628.63 281.58L 640 281.61L 658.99 281.23L 674.51 278.58L 687.63 278.39L 699 278.68L 717.99 278.13L 733.51 276.61L 746.63 273.73L 758 272.05L 776.99 269.23L 792.51 271.51L 805.63 270.92L 817 266.44L 835.99 265.65L 851.51 266.01L 864.63 265.45L 876 261.36L 894.99 258.09L 910.51 257.77L 923.63 259.18L 935 257.05L 953.99 255.95L 969.51 254.27L 982.63 254.48L 994 252.19L 1013 250.03L 1028.5 251.77L 1041.6 250.82L 1053 247.49L 1072 243.84L 1087.5 242.48L 1100.6 242.41L 1112 240.03L 1131 238.42L 1146.5 235.42L 1159.6 230.89L 1171 223.34L 1190 227.93L 1205.5 220.23L 1218.6 214.15L 1230 206.01L 1230 217.68L 1218.6 224.83L 1205.5 221.97L 1190 228.19L 1171 230.21L 1159.6 235.86L 1146.5 237.91L 1131 238.89L 1112 240.11L 1100.6 245.42L 1087.5 246.28L 1072 247L 1053 247.61L 1041.6 251.16L 1028.5 251.79L 1013 251.88L 994 252.89L 982.63 256.59L 969.51 257.05L 953.99 257.61L 935 257.24L 923.63 261.22L 910.51 261.19L 894.99 262.02L 876 262.15L 864.63 265.77L 851.51 266.16L 835.99 267.93L 817 268.01L 805.63 272.29L 792.51 271.88L 776.99 273.17L 758 273.62L 746.63 273.75L 733.51 278.58L 717.99 279.27L 699 279.11L 687.63 279.75L 674.51 280.05L 658.99 284.03L 640 284.7L 628.63 284.27L 615.51 285.37L 599.99 286L 581 285.93L 569.63 286L 556.51 290.58L 540.99 291.09L 522 291.57L 510.63 291.8L 497.51 297.94L 481.99 298.05L 463 297.92L 451.63 296.93L 438.51 296.01L 422.99 302.87L 404 306.37L 392.63 303.15L 379.51 304.84L 363.99 313.98L 345 317.45L 333.63 315.3L 320.51 313.66L 304.99 314.64L 286 325.56L 274.63 326.01L 261.51 329.57L 245.99 325.8L 227 328.8L 215.63 345L 202.51 355.04L 186.99 358.23L 168 355.04L 143.51 374.06L 109 374.25L 50 374.82" fill="#007AFF" fill-opacity="0.30196078431372547" stroke="none"/>
    <path d="M 50 373.69L 109 406.2L 143.51 393.27L 168 374.99L 186.99 398.02L 202.51 383.28L 215.63 400.22L 227 406.48L 245.99 406.22L 261.51 406.57L 274.63 413.8L 286 420.07L 304.99 411.52L 320.51 403.5L 333.63 414.14L 345 424.18L 363.99 420.07L 379.51 425.64L 392.63 427.3L 404 407.44L 422.99 421.95L 438.51 428.79L 451.63 426.25L 463 426.45L 481.99 425.18L 497.51 427.05L 510.63 423.03L 522 419.62L 540.99 413.01L 556.51 406.03L 569.63 402.38L 581 403.1L 599.99 392.02L 615.51 385.01L 628.63 386.01L 640 379.93L 658.99 369.6L 674.51 365.09L 687.63 360.63L 699 354.12L 717.99 345.65L 733.51 338.63L 746.63 329.78L 758 325.8L 776.99 315.33L 792.51 306.41L 805.63 299.48L 817 293.81L 835.99 282.37L 851.51 273.9L 864.63 267.2L 876 260.48L 894.99 249.64L 910.51 239.45L 923.63 229.77L 935 222.79L 953.99 209.87L 969.51 199.58L 982.63 191.35L 994 184.37L 1013 173.45L 1028.5 164.35L 1041.6 156.57L 1053 149.95L 1072 139.25L 1087.5 130.13L 1100.6 123.55L 1112 115.63L 1131 106.33L 1131 106.33L 1112 117.32L 1100.6 123.75L 1087.5 130.95L 1072 139.56L 1053 150.44L 1041.6 157.04L 1028.5 164.67L 1013 173.62L 994 184.82L 982.63 192.07L 969.51 200.25L 953.99 210.03L 935 222.95L 923.63 230.44L 910.51 239.89L 894.99 250.2L 876 261.41L 864.63 267.69L 851.51 274.92L 835.99 283.88L 817 293.87L 805.63 299.85L 792.51 307.11L 776.99 316.77L 758 326.33L 746.63 332.71L 733.51 338.76L 717.99 347.03L 699 355.14L 687.63 361.43L 674.51 369.44L 658.99 374.43L 640 384.2L 628.63 388.26L 615.51 394.29L 599.99 398.64L 581 404.43L 569.63 406.99L 556.51 410.39L 540.99 417.04L 522 420.56L 510.63 425.38L 497.51 427.09L 481.99 428.63L 463 428.61L 451.63 431.38L 438.51 431.84L 422.99 428.6L 404 433.56L 392.63 427.3L 379.51 425.64L 363.99 420.07L 345 424.18L 333.63 422.43L 320.51 420.07L 304.99 411.52L 286 420.07L 274.63 413.8L 261.51 406.57L 245.99 406.65L 227 406.48L 215.63 400.22L 202.51 406.57L 186.99 398.02L 168 406.76L 143.51 393.27L 109 406.2L 50 373.69" fill="#FF3B30" fill-opacity="0.30196078431372547" stroke="none"/>
    <path d="M 50 374.82L 109 373.97L 143.51 366.78L 168 355.04L 186.99 358.23L 202.51 350.12L 215.63 343.26L 227 325.56L 245.99 324.14L 261.51 328.07L 274.63 325.41L 286 324.53L 304.99 313.98L 320.51 313.39L 333.63 314.59L 345 315.94L 363.99 313.82L 379.51 304.28L 392.63 302.41L 404 305.35L 422.99 301.66L 438.51 295.87L 451.63 296.56L 463 296.46L 481.99 297.53L 497.51 297.44L 510.63 291.08L 522 291.1L 540.99 290.6L 556.51 290.49L 569.63 285.74L 581 285.43L 599.99 285.66L 615.51 285.22L 628.63 283.55L 640 283.87L 658.99 283.28L 674.51 279.66L 687.63 279.39L 699 279L 717.99 278.97L 733.51 278.05L 746.63 273.74L 758 273.2L 776.99 272.11L 792.51 271.78L 805.63 271.93L 817 267.6L 835.99 267.32L 851.51 266.12L 864.63 265.68L 876 261.94L 894.99 260.96L 910.51 260.27L 923.63 260.68L 935 257.19L 953.99 257.17L 969.51 256.31L 982.63 256.03L 994 252.7L 1013 251.39L 1028.5 251.78L 1041.6 251.07L 1053 247.58L 1072 246.15L 1087.5 245.26L 1100.6 244.62L 1112 240.09L 1131 238.76L 1146.5 237.24L 1159.6 234.51L 1171 228.32L 1190 228.12L 1205.5 221.51L 1218.6 221.8L 1230 214.34" fill="none" stroke-width="4" stroke="#007AFF" stroke-opacity="1" stroke-linecap="round" stroke-linejoin="round"/>
    <path d="M 50 373.69L 109 406.2L 143.51 393.27L 168 396.18L 186.99 398.02L 202.51 399.29L 215.63 400.22L 227 406.48L 245.99 406.54L 261.51 406.57L 274.63 413.8L 286 420.07L 304.99 411.52L 320.51 415.14L 333.63 420.12L 345 424.18L 363.99 420.07L 379.51 425.64L 392.63 427.3L 404 425.22L 422.99 426.77L 438.51 431.02L 451.63 429.98L 463 428.04L 481.99 427.7L 497.51 427.08L 510.63 424.76L 522 420.31L 540.99 415.96L 556.51 409.21L 569.63 405.74L 581 404.08L 599.99 396.82L 615.51 391.68L 628.63 387.66L 640 383.05L 658.99 373.12L 674.51 368.27L 687.63 361.22L 699 354.87L 717.99 346.66L 733.51 338.73L 746.63 331.93L 758 326.19L 776.99 316.39L 792.51 306.93L 805.63 299.75L 817 293.85L 835.99 283.48L 851.51 274.65L 864.63 267.56L 876 261.17L 894.99 250.06L 910.51 239.77L 923.63 230.26L 935 222.91L 953.99 209.99L 969.51 200.07L 982.63 191.88L 994 184.7L 1013 173.58L 1028.5 164.59L 1041.6 156.92L 1053 150.31L 1072 139.48L 1087.5 130.74L 1100.6 123.7L 1112 116.88L 1131 106.33" fill="none" stroke-width="4" stroke="#FF3B30" stroke-opacity="1" stroke-linecap="round" stroke-linejoin="round"/>
    <path d="M 50 374.82L 109 373.97L 143.51 366.78L 168 355.04L 186.99 358.23L 202.51 350.12L 215.63 343.26L 227 325.56L 245.99 324.14L 261.51 328.07L 274.63 325.41L 286 324.53L 304.99 313.98L 320.51 313.39L 333.63 314.59L 345 315.94L 363.99 313.82L 379.51 304.28L 392.63 302.41L 404 305.35L 422.99 301.66L 438.51 295.87L 451.63 296.56L 463 296.46L 481.99 297.53L 497.51 297.44L 510.63 291.08L 522 291.1L 540.99 290.6L 556.51 290.49L 569.63 285.74L 581 285.43L 599.99 285.66L 615.51 285.22L 628.63 283.55L 640 283.87L 658.99 283.28L 674.51 279.66L 687.63 279.39L 699 279L 717.99 278.97L 733.51 278.05L 746.63 273.74L 758 273.2L 776.99 272.11L 792.51 271.78L 805.63 271.93L 817 267.6L 835.99 267.32L 851.51 266.12L 864.63 265.68L 876 261.94L 894.99 260.96L 910.51 260.27L 923.63 260.68L 935 257.19L 953.99 257.17L 969.51 256.31L 982.63 256.03L 994 252.7L 1013 251.39L 1028.5 251.78L 1041.6 251.07L 1053 247.58L 1072 246.15L 1087.5 245.26L 1100.6 244.62L 1112 240.09L 1131 238.76L 1146.5 237.24L 1159.6 234.51L 1171 228.32L 1190 228.12L 1205.5 221.51L 1218.6 221.8L 1230 214.34" fill="none" stroke-width="0.5" stroke="#000000" stroke-opacity="0.30196" stroke-linecap="round" stroke-linejoin="round"/>
    <path d="M 50 373.69L 109 406.2L 143.51 393.27L 168 396.18L 186.99 398.02L 202.51 399.29L 215.63 400.22L 227 406.48L 245.99 406.54L 261.51 406.57L 274.63 413.8L 286 420.07L 304.99 411.52L 320.51 415.14L 333.63 420.12L 345 424.18L 363.99 420.07L 379.51 425.64L 392.63 427.3L 404 425.22L 422.99 426.77L 438.51 431.02L 451.63 429.98L 463 428.04L 481.99 427.7L 497.51 427.08L 510.63 424.76L 522 420.31L 540.99 415.96L 556.51 409.21L 569.63 405.74L 581 404.08L 599.99 396.82L 615.51 391.68L 628.63 387.66L 640 383.05L 658.99 373.12L 674.51 368.27L 687.63 361.22L 699 354.87L 717.99 346.66L 733.51 338.73L 746.63 331.93L 758 326.19L 776.99 316.39L 792.51 306.93L 805.63 299.75L 817 293.85L 835.99 283.48L 851.51 274.65L 864.63 267.56L 876 261.17L 894.99 250.06L 910.51 239.77L 923.63 230.26L 935 222.91L 953.99 209.99L 969.51 200.07L 982.63 191.88L 994 184.7L 1013 173.58L 1028.5 164.59L 1041.6 156.92L 1053 150.31L 1072 139.48L 1087.5 130.74L 1100.6 123.7L 1112 116.88L 1131 106.33" fill="none" stroke-width="0.5" stroke="#000000" stroke-opacity="0.30196" stroke-linecap="round" stroke-linejoin="round"/>
  </g>
  <path d="M 74 33 L 74 88 L 363 88 L 363 33 z" fill="#FFFFFF" fill-opacity="0.7019607843137254" stroke-width="0.5" stroke="#000000" stroke-opacity="1" stroke-linecap="round" stroke-linejoin="round"/>
  <path d="M 88 52 L 108 52" fill="none" stroke-width="4" stroke="#FF3B30" stroke-opacity="1" stroke-linecap="round" stroke-linejoin="round"/>
  <path d="M 88 52 L 108 52" fill="none" stroke-width="0.5" stroke="#000000" stroke-opacity="0.30196" stroke-linecap="round" stroke-linejoin="round"/>
  <text x="119" y="56.17" font-family="Menlo" font-size="12" font-weight="normal" font-style="normal" fill="#000000" fill-opacity="1">Array&lt;Int&gt; random insertions</text>
  <path d="M 88 69 L 108 69" fill="none" stroke-width="4" stroke="#007AFF" stroke-opacity="1" stroke-linecap="round" stroke-linejoin="round"/>
  <path d="M 88 69 L 108 69" fill="none" stroke-width="0.5" stroke="#000000" stroke-opacity="0.30196" stroke-linecap="round" stroke-linejoin="round"/>
  <text x="119" y="73.17" font-family="Menlo" font-size="12" font-weight="normal" font-style="normal" fill="#000000" fill-opacity="1">TreeArray&lt;Int&gt; random insertions</text>
  <path d="M 50 9 L 50 441 L 1230 441 L 1230 9 z" fill="none" stroke-width="0.5" stroke="#000000" stroke-opacity="1" stroke-linecap="round" stroke-linejoin="round"/>
</svg>
