<!DOCTYPE svg PUBLIC "-//W3C//DTD SVG 1.1//EN" "http://www.w3.org/Graphics/SVG/1.1/DTD/svg11.dtd">
<svg width="1280.0px" height="480.0px" viewBox="0.0 0.0 1280.0 480.0" xmlns="http://www.w3.org/2000/svg" xmlns:xlink="http://www.w3.org/1999/xlink" version="1.1">
  <path d="M 0 0 L 0 480 L 1280 480 L 1280 0 z" fill="#FFFFFF" fill-opacity="1.0" stroke="none"/>
  <text x="50" y="468.7" font-family="Helvetica" font-size="10" font-weight="normal" font-style="normal" fill="#000000" fill-opacity="1">Average per-element processing time over input size (bands: min, mean, mean + 2stddev)</text>
  <a xlink:href="https://github.com/apple/swift-collections-benchmark"><text x="1107" y="468.7" font-family="Helvetica" font-size="10" font-weight="normal" font-style="normal" fill="#000000" fill-opacity="1">swift-collections-benchmark</text></a>
  <path d="M 50 9 L 50 441" fill="none" stroke-width="0.75" stroke="#000000" stroke-opacity="0.49804" stroke-linecap="butt" stroke-linejoin="round"/>
  <text x="47" y="453.7" font-family="Helvetica" font-size="10" font-weight="normal" font-style="normal" fill="#000000" fill-opacity="1">1</text>
  <path d="M 109 9 L 109 441" fill="none" stroke-width="0.75" stroke="#000000" stroke-opacity="0.49804" stroke-linecap="butt" stroke-linejoin="round"/>
  <text x="106" y="453.7" font-family="Helvetica" font-size="10" font-weight="normal" font-style="normal" fill="#000000" fill-opacity="1">2</text>
  <path d="M 168 9 L 168 441" fill="none" stroke-width="0.75" stroke="#000000" stroke-opacity="0.49804" stroke-linecap="butt" stroke-linejoin="round"/>
  <text x="165" y="453.7" font-family="Helvetica" font-size="10" font-weight="normal" font-style="normal" fill="#000000" fill-opacity="1">4</text>
  <path d="M 227 9 L 227 441" fill="none" stroke-width="0.75" stroke="#000000" stroke-opacity="0.49804" stroke-linecap="butt" stroke-linejoin="round"/>
  <text x="224" y="453.7" font-family="Helvetica" font-size="10" font-weight="normal" font-style="normal" fill="#000000" fill-opacity="1">8</text>
  <path d="M 286 9 L 286 441" fill="none" stroke-width="0.75" stroke="#000000" stroke-opacity="0.49804" stroke-linecap="butt" stroke-linejoin="round"/>
  <text x="280" y="453.7" font-family="Helvetica" font-size="10" font-weight="normal" font-style="normal" fill="#000000" fill-opacity="1">16</text>
  <path d="M 345 9 L 345 441" fill="none" stroke-width="0.75" stroke="#000000" stroke-opacity="0.49804" stroke-linecap="butt" stroke-linejoin="round"/>
  <text x="339" y="453.7" font-family="Helvetica" font-size="10" font-weight="normal" font-style="normal" fill="#000000" fill-opacity="1">32</text>
  <path d="M 404 9 L 404 441" fill="none" stroke-width="0.75" stroke="#000000" stroke-opacity="0.49804" stroke-linecap="butt" stroke-linejoin="round"/>
  <text x="398" y="453.7" font-family="Helvetica" font-size="10" font-weight="normal" font-style="normal" fill="#000000" fill-opacity="1">64</text>
  <path d="M 463 9 L 463 441" fill="none" stroke-width="0.75" stroke="#000000" stroke-opacity="0.49804" stroke-linecap="butt" stroke-linejoin="round"/>
  <text x="454.5" y="453.7" font-family="Helvetica" font-size="10" font-weight="normal" font-style="normal" fill="#000000" fill-opacity="1">128</text>
  <path d="M 522 9 L 522 441" fill="none" stroke-width="0.75" stroke="#000000" stroke-opacity="0.49804" stroke-linecap="butt" stroke-linejoin="round"/>
  <text x="513.5" y="453.7" font-family="Helvetica" font-size="10" font-weight="normal" font-style="normal" fill="#000000" fill-opacity="1">256</text>
  <path d="M 581 9 L 581 441" fill="none" stroke-width="0.75" stroke="#000000" stroke-opacity="0.49804" stroke-linecap="butt" stroke-linejoin="round"/>
  <text x="572.5" y="453.7" font-family="Helvetica" font-size="10" font-weight="normal" font-style="normal" fill="#000000" fill-opacity="1">512</text>
  <path d="M 640 9 L 640 441" fill="none" stroke-width="0.75" stroke="#000000" stroke-opacity="0.49804" stroke-linecap="butt" stroke-linejoin="round"/>
  <text x="634.5" y="453.7" font-family="Helvetica" font-size="10" font-weight="normal" font-style="normal" fill="#000000" fill-opacity="1">1k</text>
  <path d="M 699 9 L 699 441" fill="none" stroke-width="0.75" stroke="#000000" stroke-opacity="0.49804" stroke-linecap="butt" stroke-linejoin="round"/>
  <text x="693.5" y="453.7" font-family="Helvetica" font-size="10" font-weight="normal" font-style="normal" fill="#000000" fill-opacity="1">2k</text>
  <path d="M 758 9 L 758 441" fill="none" stroke-width="0.75" stroke="#000000" stroke-opacity="0.49804" stroke-linecap="butt" stroke-linejoin="round"/>
  <text x="752.5" y="453.7" font-family="Helvetica" font-size="10" font-weight="normal" font-style="normal" fill="#000000" fill-opacity="1">4k</text>
  <path d="M 817 9 L 817 441" fill="none" stroke-width="0.75" stroke="#000000" stroke-opacity="0.49804" stroke-linecap="butt" stroke-linejoin="round"/>
  <text x="811.5" y="453.7" font-family="Helvetica" font-size="10" font-weight="normal" font-style="normal" fill="#000000" fill-opacity="1">8k</text>
  <path d="M 876 9 L 876 441" fill="none" stroke-width="0.75" stroke="#000000" stroke-opacity="0.49804" stroke-linecap="butt" stroke-linejoin="round"/>
  <text x="867.5" y="453.7" font-family="Helvetica" font-size="10" font-weight="normal" font-style="normal" fill="#000000" fill-opacity="1">16k</text>
  <path d="M 935 9 L 935 441" fill="none" stroke-width="0.75" stroke="#000000" stroke-opacity="0.49804" stroke-linecap="butt" stroke-linejoin="round"/>
  <text x="926.5" y="453.7" font-family="Helvetica" font-size="10" font-weight="normal" font-style="normal" fill="#000000" fill-opacity="1">32k</text>
  <path d="M 994 9 L 994 441" fill="none" stroke-width="0.75" stroke="#000000" stroke-opacity="0.49804" stroke-linecap="butt" stroke-linejoin="round"/>
  <text x="985.5" y="453.7" font-family="Helvetica" font-size="10" font-weight="normal" font-style="normal" fill="#000000" fill-opacity="1">64k</text>
  <path d="M 1053 9 L 1053 441" fill="none" stroke-width="0.75" stroke="#000000" stroke-opacity="0.49804" stroke-linecap="butt" stroke-linejoin="round"/>
  <text x="1042" y="453.7" font-family="Helvetica" font-size="10" font-weight="normal" font-style="normal" fill="#000000" fill-opacity="1">128k</text>
  <path d="M 1112 9 L 1112 441" fill="none" stroke-width="0.75" stroke="#000000" stroke-opacity="0.49804" stroke-linecap="butt" stroke-linejoin="round"/>
  <text x="1101" y="453.7" font-family="Helvetica" font-size="10" font-weight="normal" font-style="normal" fill="#000000" fill-opacity="1">256k</text>
  <path d="M 1171 9 L 1171 441" fill="none" stroke-width="0.75" stroke="#000000" stroke-opacity="0.49804" stroke-linecap="butt" stroke-linejoin="round"/>
  <text x="1160" y="453.7" font-family="Helvetica" font-size="10" font-weight="normal" font-style="normal" fill="#000000" fill-opacity="1">512k</text>
  <path d="M 1230 9 L 1230 441" fill="none" stroke-width="0.75" stroke="#000000" stroke-opacity="0.49804" stroke-linecap="butt" stroke-linejoin="round"/>
  <text x="1223" y="453.7" font-family="Helvetica" font-size="10" font-weight="normal" font-style="normal" fill="#000000" fill-opacity="1">1M</text>
  <path d="M 50 441 L 1230 441" fill="none" stroke-width="0.75" stroke="#000000" stroke-opacity="0.49804" stroke-linecap="butt" stroke-linejoin="round"/>
  <text x="27" y="442.7" font-family="Helvetica" font-size="10" font-weight="normal" font-style="normal" fill="#000000" fill-opacity="1">1 ns</text>
  <text x="1236" y="442.7" font-family="Helvetica" font-size="10" font-weight="normal" font-style="normal" fill="#000000" fill-opacity="1">1 ns</text>
  <path d="M 50 354.6 L 1230 354.6" fill="none" stroke-width="0.75" stroke="#000000" stroke-opacity="0.49804" stroke-linecap="butt" stroke-linejoin="round"/>
  <text x="21" y="356.3" font-family="Helvetica" font-size="10" font-weight="normal" font-style="normal" fill="#000000" fill-opacity="1">10 ns</text>
  <text x="1236" y="356.3" font-family="Helvetica" font-size="10" font-weight="normal" font-style="normal" fill="#000000" fill-opacity="1">10 ns</text>
  <path d="M 50 268.2 L 1230 268.2" fill="none" stroke-width="0.75" stroke="#000000" stroke-opacity="0.49804" stroke-linecap="butt" stroke-linejoin="round"/>
  <text x="16" y="269.9" font-family="Helvetica" font-size="10" font-weight="normal" font-style="normal" fill="#000000" fill-opacity="1">100 ns</text>
  <text x="1236" y="269.9" font-family="Helvetica" font-size="10" font-weight="normal" font-style="normal" fill="#000000" fill-opacity="1">100 ns</text>
  <path d="M 50 181.8 L 1230 181.8" fill="none" stroke-width="0.75" stroke="#000000" stroke-opacity="0.49804" stroke-linecap="butt" stroke-linejoin="round"/>
  <text x="26" y="183.5" font-family="Helvetica" font-size="10" font-weight="normal" font-style="normal" fill="#000000" fill-opacity="1">1 µs</text>
  <text x="1236" y="183.5" font-family="Helvetica" font-size="10" font-weight="normal" font-style="normal" fill="#000000" fill-opacity="1">1 µs</text>
  <path d="M 50 95.4 L 1230 95.4" fill="none" stroke-width="0.75" stroke="#000000" stroke-opacity="0.49804" stroke-linecap="butt" stroke-linejoin="round"/>
  <text x="21" y="97.1" font-family="Helvetica" font-size="10" font-weight="normal" font-style="normal" fill="#000000" fill-opacity="1">10 µs</text>
  <text x="1236" y="97.1" font-family="Helvetica" font-size="10" font-weight="normal" font-style="normal" fill="#000000" fill-opacity="1">10 µs</text>
  <path d="M 50 9 L 1230 9" fill="none" stroke-width="0.75" stroke="#000000" stroke-opacity="0.49804" stroke-linecap="butt" stroke-linejoin="round"/>
  <text x="15" y="10.7" font-family="Helvetica" font-size="10" font-weight="normal" font-style="normal" fill="#000000" fill-opacity="1">100 µs</text>
  <text x="1236" y="10.7" font-family="Helvetica" font-size="10" font-weight="normal" font-style="normal" fill="#000000" fill-opacity="1">100 µs</text>
  <path d="M 50 414.99 L 1230 414.99" fill="none" stroke-width="0.5" stroke="#000000" stroke-opacity="0.25882" stroke-linecap="butt" stroke-linejoin="round" stroke-dasharray="6 3" stroke-dashoffset="0"/>
  <path d="M 50 388.98 L 1230 388.98" fill="none" stroke-width="0.5" stroke="#000000" stroke-opacity="0.25882" stroke-linecap="butt" stroke-linejoin="round" stroke-dasharray="6 3" stroke-dashoffset="0"/>
  <path d="M 50 362.97 L 1230 362.97" fill="none" stroke-width="0.5" stroke="#000000" stroke-opacity="0.25882" stroke-linecap="butt" stroke-linejoin="round" stroke-dasharray="6 3" stroke-dashoffset="0"/>
  <path d="M 50 336.96 L 1230 336.96" fill="none" stroke-width="0.5" stroke="#000000" stroke-opacity="0.25882" stroke-linecap="butt" stroke-linejoin="round" stroke-dasharray="6 3" stroke-dashoffset="0"/>
  <path d="M 50 310.96 L 1230 310.96" fill="none" stroke-width="0.5" stroke="#000000" stroke-opacity="0.25882" stroke-linecap="butt" stroke-linejoin="round" stroke-dasharray="6 3" stroke-dashoffset="0"/>
  <path d="M 50 284.95 L 1230 284.95" fill="none" stroke-width="0.5" stroke="#000000" stroke-opacity="0.25882" stroke-linecap="butt" stroke-linejoin="round" stroke-dasharray="6 3" stroke-dashoffset="0"/>
  <path d="M 50 258.94 L 1230 258.94" fill="none" stroke-width="0.5" stroke="#000000" stroke-opacity="0.25882" stroke-linecap="butt" stroke-linejoin="round" stroke-dasharray="6 3" stroke-dashoffset="0"/>
  <path d="M 50 232.93 L 1230 232.93" fill="none" stroke-width="0.5" stroke="#000000" stroke-opacity="0.25882" stroke-linecap="butt" stroke-linejoin="round" stroke-dasharray="6 3" stroke-dashoffset="0"/>
  <path d="M 50 206.92 L 1230 206.92" fill="none" stroke-width="0.5" stroke="#000000" stroke-opacity="0.25882" stroke-linecap="butt" stroke-linejoin="round" stroke-dasharray="6 3" stroke-dashoffset="0"/>
  <path d="M 50 180.91 L 1230 180.91" fill="none" stroke-width="0.5" stroke="#000000" stroke-opacity="0.25882" stroke-linecap="butt" stroke-linejoin="round" stroke-dasharray="6 3" stroke-dashoffset="0"/>
  <path d="M 50 154.9 L 1230 154.9" fill="none" stroke-width="0.5" stroke="#000000" stroke-opacity="0.25882" stroke-linecap="butt" stroke-linejoin="round" stroke-dasharray="6 3" stroke-dashoffset="0"/>
  <path d="M 50 128.89 L 1230 128.89" fill="none" stroke-width="0.5" stroke="#000000" stroke-opacity="0.25882" stroke-linecap="butt" stroke-linejoin="round" stroke-dasharray="6 3" stroke-dashoffset="0"/>
  <path d="M 50 102.88 L 1230 102.88" fill="none" stroke-width="0.5" stroke="#000000" stroke-opacity="0.25882" stroke-linecap="butt" stroke-linejoin="round" stroke-dasharray="6 3" stroke-dashoffset="0"/>
  <path d="M 50 76.874 L 1230 76.874" fill="none" stroke-width="0.5" stroke="#000000" stroke-opacity="0.25882" stroke-linecap="butt" stroke-linejoin="round" stroke-dasharray="6 3" stroke-dashoffset="0"/>
  <path d="M 50 50.865 L 1230 50.865" fill="none" stroke-width="0.5" stroke="#000000" stroke-opacity="0.25882" stroke-linecap="butt" stroke-linejoin="round" stroke-dasharray="6 3" stroke-dashoffset="0"/>
  <path d="M 50 24.856 L 1230 24.856" fill="none" stroke-width="0.5" stroke="#000000" stroke-opacity="0.25882" stroke-linecap="butt" stroke-linejoin="round" stroke-dasharray="6 3" stroke-dashoffset="0"/>
  <path d="M 74 33 L 74 88 L 507 88 L 507 33 z" fill="#FFFFFF" fill-opacity="1.0" stroke="none"/>
  <clipPath id="clip-0">
    <path d="M 50 9 L 50 441 L 1230 441 L 1230 9 z"/>
  </clipPath>
  <g clip-path="url(#clip-0)">
    <path d="M 50 299.94L 109 275.78L 143.51 270.27L 168 285.84L 186.99 283.45L 202.51 267.32L 215.63 261.79L 227 266.68L 245.99 263.93L 261.51 258.17L 274.63 258.31L 286 260.83L 304.99 258.82L 320.51 257.84L 333.63 256.11L 345 257.18L 363.99 255.13L 379.51 251.99L 392.63 250.96L 404 248.21L 422.99 247.27L 438.51 243.9L 451.63 243.19L 463 243.63L 481.99 240.03L 497.51 237.99L 510.63 239.18L 522 238.47L 540.99 236.51L 556.51 233.18L 569.63 235.42L 581 233.41L 599.99 229.99L 615.51 229.91L 628.63 229.68L 640 226.15L 658.99 227.92L 674.51 226.34L 687.63 225.49L 699 224.36L 717.99 222.21L 733.51 222.17L 746.63 220.68L 758 219.76L 776.99 219.7L 792.51 217.03L 805.63 216.02L 817 216.67L 835.99 213.78L 851.51 212.06L 864.63 212.74L 876 209.47L 894.99 207.81L 910.51 209.05L 923.63 209.75L 935 208.41L 953.99 204.52L 969.51 201.29L 982.63 204.25L 994 202.51L 1013 202.44L 1028.5 196.49L 1041.6 200.97L 1053 199.79L 1072 197.4L 1087.5 184.98L 1100.6 194.72L 1112 194.73L 1131 191.29L 1146.5 188.5L 1159.6 186.71L 1171 169.4L 1190 172.24L 1205.5 179.86L 1218.6 175.19L 1230 173.79L 1230 174.99L 1218.6 179.82L 1205.5 181.77L 1190 181.11L 1171 184.74L 1159.6 188.6L 1146.5 191.56L 1131 192.12L 1112 195.73L 1100.6 195.5L 1087.5 197.89L 1072 199.33L 1053 199.93L 1041.6 202.2L 1028.5 202.96L 1013 202.86L 994 204.62L 982.63 205.62L 969.51 207.22L 953.99 208.29L 935 208.86L 923.63 209.91L 910.51 210.29L 894.99 211.08L 876 211.55L 864.63 213.15L 851.51 214.57L 835.99 214.7L 817 216.79L 805.63 217.94L 792.51 218.32L 776.99 220.28L 758 221.16L 746.63 222.4L 733.51 222.79L 717.99 224.41L 699 225.17L 687.63 225.73L 674.51 226.57L 658.99 228.08L 640 229.63L 628.63 230.19L 615.51 230.82L 599.99 232.4L 581 233.9L 569.63 235.47L 556.51 235.09L 540.99 236.95L 522 238.58L 510.63 239.25L 497.51 238.9L 481.99 242.58L 463 244.74L 451.63 245.75L 438.51 245.4L 422.99 248.8L 404 249.33L 392.63 251.63L 379.51 254.49L 363.99 255.13L 345 257.18L 333.63 258.51L 320.51 258.8L 304.99 263.78L 286 265.75L 274.63 263.59L 261.51 266.67L 245.99 266.66L 227 266.68L 215.63 265.61L 202.51 285.84L 186.99 283.45L 168 285.84L 143.51 301.05L 109 301.2L 50 301.66" fill="#007AFF" fill-opacity="0.30196078431372547" stroke="none"/>
    <path d="M 50 299.94L 109 325.95L 143.51 342.88L 168 351.96L 186.99 361.14L 202.51 367.18L 215.63 372.96L 227 377.97L 245.99 386.34L 261.51 368.43L 274.63 373.36L 286 363.86L 304.99 372.24L 320.51 360.44L 333.63 359.54L 345 370.42L 363.99 366.54L 379.51 360.21L 392.63 365.75L 404 363.86L 422.99 359.32L 438.51 351.88L 451.63 344.18L 463 351.17L 481.99 354.16L 497.51 350.2L 510.63 348.65L 522 341.66L 540.99 339.51L 556.51 337.08L 569.63 332.29L 581 327.53L 599.99 312.2L 615.51 314.33L 628.63 309.09L 640 309L 658.99 302.67L 674.51 295.33L 687.63 291.93L 699 287.07L 717.99 276.52L 733.51 271.64L 746.63 265.75L 758 260.9L 776.99 254.15L 792.51 247.09L 805.63 241.71L 817 236.59L 835.99 226.87L 851.51 221.12L 864.63 213.3L 876 210.2L 894.99 201.57L 910.51 193.07L 923.63 186.32L 935 178.48L 953.99 167.67L 969.51 161.49L 982.63 155.21L 994 149.24L 1013 140.48L 1028.5 133.23L 1041.6 126.31L 1053 121.87L 1072 113.36L 1087.5 106.53L 1100.6 100.17L 1112 94.594L 1112 95.137L 1100.6 100.36L 1087.5 106.55L 1072 113.5L 1053 122.19L 1041.6 127.18L 1028.5 133.45L 1013 140.54L 994 149.83L 982.63 155.31L 969.51 161.86L 953.99 169.95L 935 179.98L 923.63 186.43L 910.51 193.71L 894.99 202.02L 876 211.15L 864.63 216.07L 851.51 221.84L 835.99 227.9L 817 237.6L 805.63 241.81L 792.51 248.08L 776.99 255.08L 758 262.74L 746.63 267.81L 733.51 273L 717.99 280.35L 699 287.78L 687.63 292L 674.51 296.85L 658.99 303.44L 640 309.43L 628.63 313.85L 615.51 319.16L 599.99 321.01L 581 328.1L 569.63 333.04L 556.51 337.08L 540.99 340.78L 522 344.23L 510.63 348.65L 497.51 353.07L 481.99 358.09L 463 360.87L 451.63 358.85L 438.51 361.87L 422.99 363.86L 404 363.86L 392.63 365.75L 379.51 368.32L 363.99 366.54L 345 370.76L 333.63 373.99L 320.51 379.08L 304.99 372.24L 286 363.86L 274.63 374.22L 261.51 368.43L 245.99 388.06L 227 379.68L 215.63 374.67L 202.51 368.89L 186.99 361.14L 168 353.67L 143.51 342.88L 109 327.66L 50 301.66" fill="#FF3B30" fill-opacity="0.30196078431372547" stroke="none"/>
    <path d="M 50 301.2L 109 292.74L 143.51 290.29L 168 285.84L 186.99 283.45L 202.51 280.05L 215.63 264.57L 227 266.68L 245.99 265.93L 261.51 264.26L 274.63 262.14L 286 264.4L 304.99 262.42L 320.51 258.55L 333.63 257.87L 345 257.18L 363.99 255.13L 379.51 253.82L 392.63 251.45L 404 249.03L 422.99 248.39L 438.51 245.01L 451.63 245.06L 463 244.45L 481.99 241.9L 497.51 238.66L 510.63 239.23L 522 238.55L 540.99 236.84L 556.51 234.58L 569.63 235.46L 581 233.78L 599.99 231.76L 615.51 230.58L 628.63 230.06L 640 228.69L 658.99 228.03L 674.51 226.51L 687.63 225.66L 699 224.96L 717.99 223.83L 733.51 222.63L 746.63 221.95L 758 220.79L 776.99 220.13L 792.51 217.98L 805.63 217.43L 817 216.76L 835.99 214.45L 851.51 213.9L 864.63 213.04L 876 210.99L 894.99 210.2L 910.51 209.96L 923.63 209.87L 935 208.74L 953.99 207.27L 969.51 205.58L 982.63 205.26L 994 204.05L 1013 202.75L 1028.5 201.16L 1041.6 201.87L 1053 199.89L 1072 198.82L 1087.5 194.07L 1100.6 195.29L 1112 195.46L 1131 191.91L 1146.5 190.74L 1159.6 188.1L 1171 180.09L 1190 178.58L 1205.5 181.26L 1218.6 178.55L 1230 174.67" fill="none" stroke-width="4" stroke="#007AFF" stroke-opacity="1" stroke-linecap="round" stroke-linejoin="round"/>
    <path d="M 50 301.2L 109 327.21L 143.51 342.88L 168 353.22L 186.99 361.14L 202.51 368.43L 215.63 374.22L 227 379.23L 245.99 387.6L 261.51 368.43L 274.63 373.99L 286 363.86L 304.99 372.24L 320.51 373.25L 333.63 369.65L 345 370.67L 363.99 366.54L 379.51 366.03L 392.63 365.75L 404 363.86L 422.99 362.62L 438.51 358.99L 451.63 354.43L 463 358.08L 481.99 357.02L 497.51 352.3L 510.63 348.65L 522 343.54L 540.99 340.44L 556.51 337.08L 569.63 332.84L 581 327.95L 599.99 318.5L 615.51 317.84L 628.63 312.55L 640 309.32L 658.99 303.24L 674.51 296.45L 687.63 291.98L 699 287.59L 717.99 279.31L 733.51 272.64L 746.63 267.26L 758 262.25L 776.99 254.84L 792.51 247.82L 805.63 241.78L 817 237.34L 835.99 227.63L 851.51 221.65L 864.63 215.33L 876 210.9L 894.99 201.91L 910.51 193.54L 923.63 186.4L 935 179.58L 953.99 169.34L 969.51 161.76L 982.63 155.28L 994 149.67L 1013 140.52L 1028.5 133.39L 1041.6 126.95L 1053 122.1L 1072 113.46L 1087.5 106.55L 1100.6 100.31L 1112 94.994" fill="none" stroke-width="4" stroke="#FF3B30" stroke-opacity="1" stroke-linecap="round" stroke-linejoin="round"/>
    <path d="M 50 301.2L 109 292.74L 143.51 290.29L 168 285.84L 186.99 283.45L 202.51 280.05L 215.63 264.57L 227 266.68L 245.99 265.93L 261.51 264.26L 274.63 262.14L 286 264.4L 304.99 262.42L 320.51 258.55L 333.63 257.87L 345 257.18L 363.99 255.13L 379.51 253.82L 392.63 251.45L 404 249.03L 422.99 248.39L 438.51 245.01L 451.63 245.06L 463 244.45L 481.99 241.9L 497.51 238.66L 510.63 239.23L 522 238.55L 540.99 236.84L 556.51 234.58L 569.63 235.46L 581 233.78L 599.99 231.76L 615.51 230.58L 628.63 230.06L 640 228.69L 658.99 228.03L 674.51 226.51L 687.63 225.66L 699 224.96L 717.99 223.83L 733.51 222.63L 746.63 221.95L 758 220.79L 776.99 220.13L 792.51 217.98L 805.63 217.43L 817 216.76L 835.99 214.45L 851.51 213.9L 864.63 213.04L 876 210.99L 894.99 210.2L 910.51 209.96L 923.63 209.87L 935 208.74L 953.99 207.27L 969.51 205.58L 982.63 205.26L 994 204.05L 1013 202.75L 1028.5 201.16L 1041.6 201.87L 1053 199.89L 1072 198.82L 1087.5 194.07L 1100.6 195.29L 1112 195.46L 1131 191.91L 1146.5 190.74L 1159.6 188.1L 1171 180.09L 1190 178.58L 1205.5 181.26L 1218.6 178.55L 1230 174.67" fill="none" stroke-width="0.5" stroke="#000000" stroke-opacity="0.30196" stroke-linecap="round" stroke-linejoin="round"/>
    <path d="M 50 301.2L 109 327.21L 143.51 342.88L 168 353.22L 186.99 361.14L 202.51 368.43L 215.63 374.22L 227 379.23L 245.99 387.6L 261.51 368.43L 274.63 373.99L 286 363.86L 304.99 372.24L 320.51 373.25L 333.63 369.65L 345 370.67L 363.99 366.54L 379.51 366.03L 392.63 365.75L 404 363.86L 422.99 362.62L 438.51 358.99L 451.63 354.43L 463 358.08L 481.99 357.02L 497.51 352.3L 510.63 348.65L 522 343.54L 540.99 340.44L 556.51 337.08L 569.63 332.84L 581 327.95L 599.99 318.5L 615.51 317.84L 628.63 312.55L 640 309.32L 658.99 303.24L 674.51 296.45L 687.63 291.98L 699 287.59L 717.99 279.31L 733.51 272.64L 746.63 267.26L 758 262.25L 776.99 254.84L 792.51 247.82L 805.63 241.78L 817 237.34L 835.99 227.63L 851.51 221.65L 864.63 215.33L 876 210.9L 894.99 201.91L 910.51 193.54L 923.63 186.4L 935 179.58L 953.99 169.34L 969.51 161.76L 982.63 155.28L 994 149.67L 1013 140.52L 1028.5 133.39L 1041.6 126.95L 1053 122.1L 1072 113.46L 1087.5 106.55L 1100.6 100.31L 1112 94.994" fill="none" stroke-width="0.5" stroke="#000000" stroke-opacity="0.30196" stroke-linecap="round" stroke-linejoin="round"/>
  </g>
  <path d="M 74 33 L 74 88 L 507 88 L 507 33 z" fill="#FFFFFF" fill-opacity="0.7019607843137254" stroke-width="0.5" stroke="#000000" stroke-opacity="1" stroke-linecap="round" stroke-linejoin="round"/>
  <path d="M 88 52 L 108 52" fill="none" stroke-width="4" stroke="#FF3B30" stroke-opacity="1" stroke-linecap="round" stroke-linejoin="round"/>
  <path d="M 88 52 L 108 52" fill="none" stroke-width="0.5" stroke="#000000" stroke-opacity="0.30196" stroke-linecap="round" stroke-linejoin="round"/>
  <text x="119" y="56.17" font-family="Menlo" font-size="12" font-weight="normal" font-style="normal" fill="#000000" fill-opacity="1">Array&lt;Int&gt; random insertions, reserving capacity</text>
  <path d="M 88 69 L 108 69" fill="none" stroke-width="4" stroke="#007AFF" stroke-opacity="1" stroke-linecap="round" stroke-linejoin="round"/>
  <path d="M 88 69 L 108 69" fill="none" stroke-width="0.5" stroke="#000000" stroke-opacity="0.30196" stroke-linecap="round" stroke-linejoin="round"/>
  <text x="119" y="73.17" font-family="Menlo" font-size="12" font-weight="normal" font-style="normal" fill="#000000" fill-opacity="1">TreeArray&lt;Int&gt; random insertions, reserving capacity</text>
  <path d="M 50 9 L 50 441 L 1230 441 L 1230 9 z" fill="none" stroke-width="0.5" stroke="#000000" stroke-opacity="1" stroke-linecap="round" stroke-linejoin="round"/>
</svg>
