<!DOCTYPE svg PUBLIC "-//W3C//DTD SVG 1.1//EN" "http://www.w3.org/Graphics/SVG/1.1/DTD/svg11.dtd">
<svg width="1280.0px" height="480.0px" viewBox="0.0 0.0 1280.0 480.0" xmlns="http://www.w3.org/2000/svg" xmlns:xlink="http://www.w3.org/1999/xlink" version="1.1">
  <path d="M 0 0 L 0 480 L 1280 480 L 1280 0 z" fill="#FFFFFF" fill-opacity="1.0" stroke="none"/>
  <text x="50" y="468.7" font-family="Helvetica" font-size="10" font-weight="normal" font-style="normal" fill="#000000" fill-opacity="1">Average per-element processing time over input size (bands: min, mean, mean + 2stddev)</text>
  <a xlink:href="https://github.com/apple/swift-collections-benchmark"><text x="1107" y="468.7" font-family="Helvetica" font-size="10" font-weight="normal" font-style="normal" fill="#000000" fill-opacity="1">swift-collections-benchmark</text></a>
  <path d="M 50 9 L 50 441" fill="none" stroke-width="0.75" stroke="#000000" stroke-opacity="0.49804" stroke-linecap="butt" stroke-linejoin="round"/>
  <text x="47" y="453.7" font-family="Helvetica" font-size="10" font-weight="normal" font-style="normal" fill="#000000" fill-opacity="1">1</text>
  <path d="M 109 9 L 109 441" fill="none" stroke-width="0.75" stroke="#000000" stroke-opacity="0.49804" stroke-linecap="butt" stroke-linejoin="round"/>
  <text x="106" y="453.7" font-family="Helvetica" font-size="10" font-weight="normal" font-style="normal" fill="#000000" fill-opacity="1">2</text>
  <path d="M 168 9 L 168 441" fill="none" stroke-width="0.75" stroke="#000000" stroke-opacity="0.49804" stroke-linecap="butt" stroke-linejoin="round"/>
  <text x="165" y="453.7" font-family="Helvetica" font-size="10" font-weight="normal" font-style="normal" fill="#000000" fill-opacity="1">4</text>
  <path d="M 227 9 L 227 441" fill="none" stroke-width="0.75" stroke="#000000" stroke-opacity="0.49804" stroke-linecap="butt" stroke-linejoin="round"/>
  <text x="224" y="453.7" font-family="Helvetica" font-size="10" font-weight="normal" font-style="normal" fill="#000000" fill-opacity="1">8</text>
  <path d="M 286 9 L 286 441" fill="none" stroke-width="0.75" stroke="#000000" stroke-opacity="0.49804" stroke-linecap="butt" stroke-linejoin="round"/>
  <text x="280" y="453.7" font-family="Helvetica" font-size="10" font-weight="normal" font-style="normal" fill="#000000" fill-opacity="1">16</text>
  <path d="M 345 9 L 345 441" fill="none" stroke-width="0.75" stroke="#000000" stroke-opacity="0.49804" stroke-linecap="butt" stroke-linejoin="round"/>
  <text x="339" y="453.7" font-family="Helvetica" font-size="10" font-weight="normal" font-style="normal" fill="#000000" fill-opacity="1">32</text>
  <path d="M 404 9 L 404 441" fill="none" stroke-width="0.75" stroke="#000000" stroke-opacity="0.49804" stroke-linecap="butt" stroke-linejoin="round"/>
  <text x="398" y="453.7" font-family="Helvetica" font-size="10" font-weight="normal" font-style="normal" fill="#000000" fill-opacity="1">64</text>
  <path d="M 463 9 L 463 441" fill="none" stroke-width="0.75" stroke="#000000" stroke-opacity="0.49804" stroke-linecap="butt" stroke-linejoin="round"/>
  <text x="454.5" y="453.7" font-family="Helvetica" font-size="10" font-weight="normal" font-style="normal" fill="#000000" fill-opacity="1">128</text>
  <path d="M 522 9 L 522 441" fill="none" stroke-width="0.75" stroke="#000000" stroke-opacity="0.49804" stroke-linecap="butt" stroke-linejoin="round"/>
  <text x="513.5" y="453.7" font-family="Helvetica" font-size="10" font-weight="normal" font-style="normal" fill="#000000" fill-opacity="1">256</text>
  <path d="M 581 9 L 581 441" fill="none" stroke-width="0.75" stroke="#000000" stroke-opacity="0.49804" stroke-linecap="butt" stroke-linejoin="round"/>
  <text x="572.5" y="453.7" font-family="Helvetica" font-size="10" font-weight="normal" font-style="normal" fill="#000000" fill-opacity="1">512</text>
  <path d="M 640 9 L 640 441" fill="none" stroke-width="0.75" stroke="#000000" stroke-opacity="0.49804" stroke-linecap="butt" stroke-linejoin="round"/>
  <text x="634.5" y="453.7" font-family="Helvetica" font-size="10" font-weight="normal" font-style="normal" fill="#000000" fill-opacity="1">1k</text>
  <path d="M 699 9 L 699 441" fill="none" stroke-width="0.75" stroke="#000000" stroke-opacity="0.49804" stroke-linecap="butt" stroke-linejoin="round"/>
  <text x="693.5" y="453.7" font-family="Helvetica" font-size="10" font-weight="normal" font-style="normal" fill="#000000" fill-opacity="1">2k</text>
  <path d="M 758 9 L 758 441" fill="none" stroke-width="0.75" stroke="#000000" stroke-opacity="0.49804" stroke-linecap="butt" stroke-linejoin="round"/>
  <text x="752.5" y="453.7" font-family="Helvetica" font-size="10" font-weight="normal" font-style="normal" fill="#000000" fill-opacity="1">4k</text>
  <path d="M 817 9 L 817 441" fill="none" stroke-width="0.75" stroke="#000000" stroke-opacity="0.49804" stroke-linecap="butt" stroke-linejoin="round"/>
  <text x="811.5" y="453.7" font-family="Helvetica" font-size="10" font-weight="normal" font-style="normal" fill="#000000" fill-opacity="1">8k</text>
  <path d="M 876 9 L 876 441" fill="none" stroke-width="0.75" stroke="#000000" stroke-opacity="0.49804" stroke-linecap="butt" stroke-linejoin="round"/>
  <text x="867.5" y="453.7" font-family="Helvetica" font-size="10" font-weight="normal" font-style="normal" fill="#000000" fill-opacity="1">16k</text>
  <path d="M 935 9 L 935 441" fill="none" stroke-width="0.75" stroke="#000000" stroke-opacity="0.49804" stroke-linecap="butt" stroke-linejoin="round"/>
  <text x="926.5" y="453.7" font-family="Helvetica" font-size="10" font-weight="normal" font-style="normal" fill="#000000" fill-opacity="1">32k</text>
  <path d="M 994 9 L 994 441" fill="none" stroke-width="0.75" stroke="#000000" stroke-opacity="0.49804" stroke-linecap="butt" stroke-linejoin="round"/>
  <text x="985.5" y="453.7" font-family="Helvetica" font-size="10" font-weight="normal" font-style="normal" fill="#000000" fill-opacity="1">64k</text>
  <path d="M 1053 9 L 1053 441" fill="none" stroke-width="0.75" stroke="#000000" stroke-opacity="0.49804" stroke-linecap="butt" stroke-linejoin="round"/>
  <text x="1042" y="453.7" font-family="Helvetica" font-size="10" font-weight="normal" font-style="normal" fill="#000000" fill-opacity="1">128k</text>
  <path d="M 1112 9 L 1112 441" fill="none" stroke-width="0.75" stroke="#000000" stroke-opacity="0.49804" stroke-linecap="butt" stroke-linejoin="round"/>
  <text x="1101" y="453.7" font-family="Helvetica" font-size="10" font-weight="normal" font-style="normal" fill="#000000" fill-opacity="1">256k</text>
  <path d="M 1171 9 L 1171 441" fill="none" stroke-width="0.75" stroke="#000000" stroke-opacity="0.49804" stroke-linecap="butt" stroke-linejoin="round"/>
  <text x="1160" y="453.7" font-family="Helvetica" font-size="10" font-weight="normal" font-style="normal" fill="#000000" fill-opacity="1">512k</text>
  <path d="M 1230 9 L 1230 441" fill="none" stroke-width="0.75" stroke="#000000" stroke-opacity="0.49804" stroke-linecap="butt" stroke-linejoin="round"/>
  <text x="1223" y="453.7" font-family="Helvetica" font-size="10" font-weight="normal" font-style="normal" fill="#000000" fill-opacity="1">1M</text>
  <path d="M 50 441 L 1230 441" fill="none" stroke-width="0.75" stroke="#000000" stroke-opacity="0.49804" stroke-linecap="butt" stroke-linejoin="round"/>
  <text x="27" y="442.7" font-family="Helvetica" font-size="10" font-weight="normal" font-style="normal" fill="#000000" fill-opacity="1">1 ns</text>
  <text x="1236" y="442.7" font-family="Helvetica" font-size="10" font-weight="normal" font-style="normal" fill="#000000" fill-opacity="1">1 ns</text>
  <path d="M 50 354.6 L 1230 354.6" fill="none" stroke-width="0.75" stroke="#000000" stroke-opacity="0.49804" stroke-linecap="butt" stroke-linejoin="round"/>
  <text x="21" y="356.3" font-family="Helvetica" font-size="10" font-weight="normal" font-style="normal" fill="#000000" fill-opacity="1">10 ns</text>
  <text x="1236" y="356.3" font-family="Helvetica" font-size="10" font-weight="normal" font-style="normal" fill="#000000" fill-opacity="1">10 ns</text>
  <path d="M 50 268.2 L 1230 268.2" fill="none" stroke-width="0.75" stroke="#000000" stroke-opacity="0.49804" stroke-linecap="butt" stroke-linejoin="round"/>
  <text x="16" y="269.9" font-family="Helvetica" font-size="10" font-weight="normal" font-style="normal" fill="#000000" fill-opacity="1">100 ns</text>
  <text x="1236" y="269.9" font-family="Helvetica" font-size="10" font-weight="normal" font-style="normal" fill="#000000" fill-opacity="1">100 ns</text>
  <path d="M 50 181.8 L 1230 181.8" fill="none" stroke-width="0.75" stroke="#000000" stroke-opacity="0.49804" stroke-linecap="butt" stroke-linejoin="round"/>
  <text x="26" y="183.5" font-family="Helvetica" font-size="10" font-weight="normal" font-style="normal" fill="#000000" fill-opacity="1">1 µs</text>
  <text x="1236" y="183.5" font-family="Helvetica" font-size="10" font-weight="normal" font-style="normal" fill="#000000" fill-opacity="1">1 µs</text>
  <path d="M 50 95.4 L 1230 95.4" fill="none" stroke-width="0.75" stroke="#000000" stroke-opacity="0.49804" stroke-linecap="butt" stroke-linejoin="round"/>
  <text x="21" y="97.1" font-family="Helvetica" font-size="10" font-weight="normal" font-style="normal" fill="#000000" fill-opacity="1">10 µs</text>
  <text x="1236" y="97.1" font-family="Helvetica" font-size="10" font-weight="normal" font-style="normal" fill="#000000" fill-opacity="1">10 µs</text>
  <path d="M 50 9 L 1230 9" fill="none" stroke-width="0.75" stroke="#000000" stroke-opacity="0.49804" stroke-linecap="butt" stroke-linejoin="round"/>
  <text x="15" y="10.7" font-family="Helvetica" font-size="10" font-weight="normal" font-style="normal" fill="#000000" fill-opacity="1">100 µs</text>
  <text x="1236" y="10.7" font-family="Helvetica" font-size="10" font-weight="normal" font-style="normal" fill="#000000" fill-opacity="1">100 µs</text>
  <path d="M 50 414.99 L 1230 414.99" fill="none" stroke-width="0.5" stroke="#000000" stroke-opacity="0.25882" stroke-linecap="butt" stroke-linejoin="round" stroke-dasharray="6 3" stroke-dashoffset="0"/>
  <path d="M 50 388.98 L 1230 388.98" fill="none" stroke-width="0.5" stroke="#000000" stroke-opacity="0.25882" stroke-linecap="butt" stroke-linejoin="round" stroke-dasharray="6 3" stroke-dashoffset="0"/>
  <path d="M 50 362.97 L 1230 362.97" fill="none" stroke-width="0.5" stroke="#000000" stroke-opacity="0.25882" stroke-linecap="butt" stroke-linejoin="round" stroke-dasharray="6 3" stroke-dashoffset="0"/>
  <path d="M 50 336.96 L 1230 336.96" fill="none" stroke-width="0.5" stroke="#000000" stroke-opacity="0.25882" stroke-linecap="butt" stroke-linejoin="round" stroke-dasharray="6 3" stroke-dashoffset="0"/>
  <path d="M 50 310.96 L 1230 310.96" fill="none" stroke-width="0.5" stroke="#000000" stroke-opacity="0.25882" stroke-linecap="butt" stroke-linejoin="round" stroke-dasharray="6 3" stroke-dashoffset="0"/>
  <path d="M 50 284.95 L 1230 284.95" fill="none" stroke-width="0.5" stroke="#000000" stroke-opacity="0.25882" stroke-linecap="butt" stroke-linejoin="round" stroke-dasharray="6 3" stroke-dashoffset="0"/>
  <path d="M 50 258.94 L 1230 258.94" fill="none" stroke-width="0.5" stroke="#000000" stroke-opacity="0.25882" stroke-linecap="butt" stroke-linejoin="round" stroke-dasharray="6 3" stroke-dashoffset="0"/>
  <path d="M 50 232.93 L 1230 232.93" fill="none" stroke-width="0.5" stroke="#000000" stroke-opacity="0.25882" stroke-linecap="butt" stroke-linejoin="round" stroke-dasharray="6 3" stroke-dashoffset="0"/>
  <path d="M 50 206.92 L 1230 206.92" fill="none" stroke-width="0.5" stroke="#000000" stroke-opacity="0.25882" stroke-linecap="butt" stroke-linejoin="round" stroke-dasharray="6 3" stroke-dashoffset="0"/>
  <path d="M 50 180.91 L 1230 180.91" fill="none" stroke-width="0.5" stroke="#000000" stroke-opacity="0.25882" stroke-linecap="butt" stroke-linejoin="round" stroke-dasharray="6 3" stroke-dashoffset="0"/>
  <path d="M 50 154.9 L 1230 154.9" fill="none" stroke-width="0.5" stroke="#000000" stroke-opacity="0.25882" stroke-linecap="butt" stroke-linejoin="round" stroke-dasharray="6 3" stroke-dashoffset="0"/>
  <path d="M 50 128.89 L 1230 128.89" fill="none" stroke-width="0.5" stroke="#000000" stroke-opacity="0.25882" stroke-linecap="butt" stroke-linejoin="round" stroke-dasharray="6 3" stroke-dashoffset="0"/>
  <path d="M 50 102.88 L 1230 102.88" fill="none" stroke-width="0.5" stroke="#000000" stroke-opacity="0.25882" stroke-linecap="butt" stroke-linejoin="round" stroke-dasharray="6 3" stroke-dashoffset="0"/>
  <path d="M 50 76.874 L 1230 76.874" fill="none" stroke-width="0.5" stroke="#000000" stroke-opacity="0.25882" stroke-linecap="butt" stroke-linejoin="round" stroke-dasharray="6 3" stroke-dashoffset="0"/>
  <path d="M 50 50.865 L 1230 50.865" fill="none" stroke-width="0.5" stroke="#000000" stroke-opacity="0.25882" stroke-linecap="butt" stroke-linejoin="round" stroke-dasharray="6 3" stroke-dashoffset="0"/>
  <path d="M 50 24.856 L 1230 24.856" fill="none" stroke-width="0.5" stroke="#000000" stroke-opacity="0.25882" stroke-linecap="butt" stroke-linejoin="round" stroke-dasharray="6 3" stroke-dashoffset="0"/>
  <path d="M 74 33 L 74 88 L 507 88 L 507 33 z" fill="#FFFFFF" fill-opacity="1.0" stroke="none"/>
  <clipPath id="clip-0">
    <path d="M 50 9 L 50 441 L 1230 441 L 1230 9 z"/>
  </clipPath>
  <g clip-path="url(#clip-0)">
    <path d="M 50 301.66L 109 275.78L 143.51 289.98L 168 285.84L 186.99 278.99L 202.51 278.25L 215.63 263.78L 227 266.6L 245.99 263.9L 261.51 260.96L 274.63 260.9L 286 262.28L 304.99 259.26L 320.51 258.48L 333.63 256.86L 345 256.56L 363.99 252.16L 379.51 249.91L 392.63 245.85L 404 247.67L 422.99 242.79L 438.51 242.26L 451.63 242.67L 463 241.8L 481.99 239.36L 497.51 239.1L 510.63 239.15L 522 236.38L 540.99 236.41L 556.51 234.22L 569.63 231.94L 581 232.26L 599.99 229.29L 615.51 229L 628.63 229.12L 640 228.03L 658.99 226.93L 674.51 226.05L 687.63 225.74L 699 223.01L 717.99 224.11L 733.51 222.53L 746.63 221.37L 758 220.23L 776.99 218.57L 792.51 218.19L 805.63 216.98L 817 215.03L 835.99 215.34L 851.51 213.9L 864.63 212.62L 876 212.29L 894.99 211.26L 910.51 209.26L 923.63 208.57L 935 208.62L 953.99 206.84L 969.51 206.41L 982.63 205.16L 994 204.97L 1013 203.69L 1028.5 202.44L 1041.6 198.92L 1053 200.89L 1072 198.97L 1087.5 197.8L 1100.6 195.93L 1112 195.69L 1131 193.2L 1146.5 190.57L 1159.6 189.57L 1171 187.16L 1190 185.02L 1205.5 181.15L 1218.6 180.72L 1230 177.37L 1230 178.1L 1218.6 180.75L 1205.5 183.19L 1190 185.16L 1171 187.63L 1159.6 189.7L 1146.5 191.99L 1131 193.87L 1112 195.72L 1100.6 197.39L 1087.5 198.64L 1072 199.72L 1053 200.91L 1041.6 202.18L 1028.5 202.8L 1013 203.89L 994 205.37L 982.63 205.89L 969.51 206.94L 953.99 207.52L 935 209.03L 923.63 210.1L 910.51 210.72L 894.99 211.29L 876 212.71L 864.63 213.89L 851.51 214.67L 835.99 215.62L 817 216.52L 805.63 217.8L 792.51 218.31L 776.99 219.96L 758 221.14L 746.63 222.08L 733.51 223.49L 717.99 224.51L 699 225.87L 687.63 226.09L 674.51 227.31L 658.99 228.13L 640 229.5L 628.63 230.12L 615.51 231.03L 599.99 231.21L 581 233.82L 569.63 234.62L 556.51 235.18L 540.99 237.51L 522 237.86L 510.63 240.59L 497.51 241.01L 481.99 241.32L 463 244.81L 451.63 244.61L 438.51 244.18L 422.99 247.65L 404 249.32L 392.63 254.05L 379.51 251.87L 363.99 256.83L 345 258.67L 333.63 257.66L 320.51 262.52L 304.99 260.46L 286 263.97L 274.63 264.57L 261.51 263.09L 245.99 266.69L 227 266.68L 215.63 267.72L 202.51 278.25L 186.99 278.99L 168 285.84L 143.51 290.41L 109 301.2L 50 301.66" fill="#007AFF" fill-opacity="0.30196078431372547" stroke="none"/>
    <path d="M 50 300.75L 109 327.66L 143.51 341.17L 168 352.77L 186.99 361.14L 202.51 367.98L 215.63 374.67L 227 377.97L 245.99 347.61L 261.51 367.58L 274.63 374.22L 286 363.86L 304.99 353.95L 320.51 368L 333.63 365.75L 345 370.76L 363.99 366.29L 379.51 368.32L 392.63 365.58L 404 363.86L 422.99 363.86L 438.51 358.27L 451.63 357.44L 463 353.28L 481.99 354.96L 497.51 348.21L 510.63 346.02L 522 333.56L 540.99 338.34L 556.51 330.34L 569.63 331.55L 581 327.58L 599.99 319.15L 615.51 318.43L 628.63 307.5L 640 306.08L 658.99 299.3L 674.51 294L 687.63 287.92L 699 285.33L 717.99 278.97L 733.51 271.83L 746.63 267.14L 758 262.73L 776.99 254.29L 792.51 247.05L 805.63 241.66L 817 237L 835.99 227.57L 851.51 221.32L 864.63 215.38L 876 208.36L 894.99 201.57L 910.51 193.26L 923.63 185.3L 935 180.09L 953.99 168.41L 969.51 161.75L 982.63 154.82L 994 148.94L 1013 140.43L 1028.5 133.27L 1041.6 126.87L 1053 121.91L 1072 113.48L 1087.5 105.99L 1100.6 100.34L 1112 94.422L 1131 86.914L 1131 86.914L 1112 95.601L 1100.6 100.84L 1087.5 106.48L 1072 113.49L 1053 122.2L 1041.6 127.49L 1028.5 133.72L 1013 140.7L 994 149.68L 982.63 155.48L 969.51 162.12L 953.99 169.87L 935 180.15L 923.63 186.2L 910.51 193.76L 894.99 201.93L 876 210.91L 864.63 216.15L 851.51 221.81L 835.99 229.06L 817 237.06L 805.63 241.75L 792.51 247.71L 776.99 255.52L 758 263.19L 746.63 267.63L 733.51 273.26L 717.99 279.43L 699 288.28L 687.63 293.61L 674.51 297.44L 658.99 301.67L 640 310.5L 628.63 314.15L 615.51 319.64L 599.99 321.21L 581 329.32L 569.63 332.65L 556.51 336.07L 540.99 342.15L 522 346.13L 510.63 351.75L 497.51 353.85L 481.99 355L 463 358.07L 451.63 360.46L 438.51 361.82L 422.99 363.86L 404 363.86L 392.63 365.75L 379.51 368.32L 363.99 366.54L 345 370.76L 333.63 365.75L 320.51 368.43L 304.99 372.24L 286 363.86L 274.63 374.22L 261.51 368.43L 245.99 387.15L 227 379.68L 215.63 374.67L 202.51 367.98L 186.99 361.14L 168 352.77L 143.51 342.88L 109 327.66L 50 300.75" fill="#FF3B30" fill-opacity="0.30196078431372547" stroke="none"/>
    <path d="M 50 301.66L 109 292.74L 143.51 290.29L 168 285.84L 186.99 278.99L 202.51 278.25L 215.63 266.65L 227 266.66L 245.99 265.94L 261.51 262.52L 274.63 263.58L 286 263.52L 304.99 260.14L 320.51 261.42L 333.63 257.45L 345 258.11L 363.99 255.55L 379.51 251.35L 392.63 251.73L 404 248.89L 422.99 246.32L 438.51 243.67L 451.63 244.09L 463 244L 481.99 240.8L 497.51 240.5L 510.63 240.21L 522 237.47L 540.99 237.22L 556.51 234.93L 569.63 233.9L 581 233.41L 599.99 230.7L 615.51 230.49L 628.63 229.85L 640 229.11L 658.99 227.81L 674.51 226.97L 687.63 226L 699 225.1L 717.99 224.4L 733.51 223.24L 746.63 221.89L 758 220.9L 776.99 219.6L 792.51 218.28L 805.63 217.59L 817 216.13L 835.99 215.55L 851.51 214.47L 864.63 213.55L 876 212.6L 894.99 211.28L 910.51 210.33L 923.63 209.7L 935 208.92L 953.99 207.34L 969.51 206.8L 982.63 205.7L 994 205.27L 1013 203.84L 1028.5 202.71L 1041.6 201.3L 1053 200.91L 1072 199.52L 1087.5 198.42L 1100.6 197.01L 1112 195.72L 1131 193.69L 1146.5 191.61L 1159.6 189.66L 1171 187.5L 1190 185.12L 1205.5 182.65L 1218.6 180.75L 1230 177.9" fill="none" stroke-width="4" stroke="#007AFF" stroke-opacity="1" stroke-linecap="round" stroke-linejoin="round"/>
    <path d="M 50 300.75L 109 327.66L 143.51 342.42L 168 352.77L 186.99 361.14L 202.51 367.98L 215.63 374.67L 227 379.23L 245.99 372.24L 261.51 368.21L 274.63 374.22L 286 363.86L 304.99 366.54L 320.51 368.32L 333.63 365.75L 345 370.76L 363.99 366.47L 379.51 368.32L 392.63 365.71L 404 363.86L 422.99 363.86L 438.51 360.86L 451.63 359.65L 463 356.76L 481.99 354.99L 497.51 352.29L 510.63 350.17L 522 342.42L 540.99 341.12L 556.51 334.49L 569.63 332.36L 581 328.86L 599.99 320.66L 615.51 319.32L 628.63 312.29L 640 309.3L 658.99 301.04L 674.51 296.51L 687.63 292.04L 699 287.49L 717.99 279.31L 733.51 272.88L 746.63 267.5L 758 263.07L 776.99 255.2L 792.51 247.53L 805.63 241.73L 817 237.04L 835.99 228.67L 851.51 221.68L 864.63 215.94L 876 210.23L 894.99 201.84L 910.51 193.63L 923.63 185.96L 935 180.13L 953.99 169.48L 969.51 162.02L 982.63 155.31L 994 149.49L 1013 140.63L 1028.5 133.6L 1041.6 127.33L 1053 122.12L 1072 113.49L 1087.5 106.35L 1100.6 100.71L 1112 95.289L 1131 86.914" fill="none" stroke-width="4" stroke="#FF3B30" stroke-opacity="1" stroke-linecap="round" stroke-linejoin="round"/>
    <path d="M 50 301.66L 109 292.74L 143.51 290.29L 168 285.84L 186.99 278.99L 202.51 278.25L 215.63 266.65L 227 266.66L 245.99 265.94L 261.51 262.52L 274.63 263.58L 286 263.52L 304.99 260.14L 320.51 261.42L 333.63 257.45L 345 258.11L 363.99 255.55L 379.51 251.35L 392.63 251.73L 404 248.89L 422.99 246.32L 438.51 243.67L 451.63 244.09L 463 244L 481.99 240.8L 497.51 240.5L 510.63 240.21L 522 237.47L 540.99 237.22L 556.51 234.93L 569.63 233.9L 581 233.41L 599.99 230.7L 615.51 230.49L 628.63 229.85L 640 229.11L 658.99 227.81L 674.51 226.97L 687.63 226L 699 225.1L 717.99 224.4L 733.51 223.24L 746.63 221.89L 758 220.9L 776.99 219.6L 792.51 218.28L 805.63 217.59L 817 216.13L 835.99 215.55L 851.51 214.47L 864.63 213.55L 876 212.6L 894.99 211.28L 910.51 210.33L 923.63 209.7L 935 208.92L 953.99 207.34L 969.51 206.8L 982.63 205.7L 994 205.27L 1013 203.84L 1028.5 202.71L 1041.6 201.3L 1053 200.91L 1072 199.52L 1087.5 198.42L 1100.6 197.01L 1112 195.72L 1131 193.69L 1146.5 191.61L 1159.6 189.66L 1171 187.5L 1190 185.12L 1205.5 182.65L 1218.6 180.75L 1230 177.9" fill="none" stroke-width="0.5" stroke="#000000" stroke-opacity="0.30196" stroke-linecap="round" stroke-linejoin="round"/>
    <path d="M 50 300.75L 109 327.66L 143.51 342.42L 168 352.77L 186.99 361.14L 202.51 367.98L 215.63 374.67L 227 379.23L 245.99 372.24L 261.51 368.21L 274.63 374.22L 286 363.86L 304.99 366.54L 320.51 368.32L 333.63 365.75L 345 370.76L 363.99 366.47L 379.51 368.32L 392.63 365.71L 404 363.86L 422.99 363.86L 438.51 360.86L 451.63 359.65L 463 356.76L 481.99 354.99L 497.51 352.29L 510.63 350.17L 522 342.42L 540.99 341.12L 556.51 334.49L 569.63 332.36L 581 328.86L 599.99 320.66L 615.51 319.32L 628.63 312.29L 640 309.3L 658.99 301.04L 674.51 296.51L 687.63 292.04L 699 287.49L 717.99 279.31L 733.51 272.88L 746.63 267.5L 758 263.07L 776.99 255.2L 792.51 247.53L 805.63 241.73L 817 237.04L 835.99 228.67L 851.51 221.68L 864.63 215.94L 876 210.23L 894.99 201.84L 910.51 193.63L 923.63 185.96L 935 180.13L 953.99 169.48L 969.51 162.02L 982.63 155.31L 994 149.49L 1013 140.63L 1028.5 133.6L 1041.6 127.33L 1053 122.12L 1072 113.49L 1087.5 106.35L 1100.6 100.71L 1112 95.289L 1131 86.914" fill="none" stroke-width="0.5" stroke="#000000" stroke-opacity="0.30196" stroke-linecap="round" stroke-linejoin="round"/>
  </g>
  <path d="M 74 33 L 74 88 L 507 88 L 507 33 z" fill="#FFFFFF" fill-opacity="0.7019607843137254" stroke-width="0.5" stroke="#000000" stroke-opacity="1" stroke-linecap="round" stroke-linejoin="round"/>
  <path d="M 88 52 L 108 52" fill="none" stroke-width="4" stroke="#FF3B30" stroke-opacity="1" stroke-linecap="round" stroke-linejoin="round"/>
  <path d="M 88 52 L 108 52" fill="none" stroke-width="0.5" stroke="#000000" stroke-opacity="0.30196" stroke-linecap="round" stroke-linejoin="round"/>
  <text x="119" y="56.17" font-family="Menlo" font-size="12" font-weight="normal" font-style="normal" fill="#000000" fill-opacity="1">Array&lt;Int&gt; random insertions, reserving capacity</text>
  <path d="M 88 69 L 108 69" fill="none" stroke-width="4" stroke="#007AFF" stroke-opacity="1" stroke-linecap="round" stroke-linejoin="round"/>
  <path d="M 88 69 L 108 69" fill="none" stroke-width="0.5" stroke="#000000" stroke-opacity="0.30196" stroke-linecap="round" stroke-linejoin="round"/>
  <text x="119" y="73.17" font-family="Menlo" font-size="12" font-weight="normal" font-style="normal" fill="#000000" fill-opacity="1">TreeArray&lt;Int&gt; random insertions, reserving capacity</text>
  <path d="M 50 9 L 50 441 L 1230 441 L 1230 9 z" fill="none" stroke-width="0.5" stroke="#000000" stroke-opacity="1" stroke-linecap="round" stroke-linejoin="round"/>
</svg>
