<!DOCTYPE svg PUBLIC "-//W3C//DTD SVG 1.1//EN" "http://www.w3.org/Graphics/SVG/1.1/DTD/svg11.dtd">
<svg width="1280.0px" height="480.0px" viewBox="0.0 0.0 1280.0 480.0" xmlns="http://www.w3.org/2000/svg" xmlns:xlink="http://www.w3.org/1999/xlink" version="1.1">
  <path d="M 0 0 L 0 480 L 1280 480 L 1280 0 z" fill="#FFFFFF" fill-opacity="1.0" stroke="none"/>
  <text x="50" y="468.7" font-family="Helvetica" font-size="10" font-weight="normal" font-style="normal" fill="#000000" fill-opacity="1">Average per-element processing time over input size (bands: min, mean, mean + 2stddev)</text>
  <a xlink:href="https://github.com/apple/swift-collections-benchmark"><text x="1107" y="468.7" font-family="Helvetica" font-size="10" font-weight="normal" font-style="normal" fill="#000000" fill-opacity="1">swift-collections-benchmark</text></a>
  <path d="M 50 9 L 50 441" fill="none" stroke-width="0.75" stroke="#000000" stroke-opacity="0.49804" stroke-linecap="butt" stroke-linejoin="round"/>
  <text x="47" y="453.7" font-family="Helvetica" font-size="10" font-weight="normal" font-style="normal" fill="#000000" fill-opacity="1">1</text>
  <path d="M 115.56 9 L 115.56 441" fill="none" stroke-width="0.75" stroke="#000000" stroke-opacity="0.49804" stroke-linecap="butt" stroke-linejoin="round"/>
  <text x="112.56" y="453.7" font-family="Helvetica" font-size="10" font-weight="normal" font-style="normal" fill="#000000" fill-opacity="1">2</text>
  <path d="M 181.11 9 L 181.11 441" fill="none" stroke-width="0.75" stroke="#000000" stroke-opacity="0.49804" stroke-linecap="butt" stroke-linejoin="round"/>
  <text x="178.11" y="453.7" font-family="Helvetica" font-size="10" font-weight="normal" font-style="normal" fill="#000000" fill-opacity="1">4</text>
  <path d="M 246.67 9 L 246.67 441" fill="none" stroke-width="0.75" stroke="#000000" stroke-opacity="0.49804" stroke-linecap="butt" stroke-linejoin="round"/>
  <text x="243.67" y="453.7" font-family="Helvetica" font-size="10" font-weight="normal" font-style="normal" fill="#000000" fill-opacity="1">8</text>
  <path d="M 312.22 9 L 312.22 441" fill="none" stroke-width="0.75" stroke="#000000" stroke-opacity="0.49804" stroke-linecap="butt" stroke-linejoin="round"/>
  <text x="306.22" y="453.7" font-family="Helvetica" font-size="10" font-weight="normal" font-style="normal" fill="#000000" fill-opacity="1">16</text>
  <path d="M 377.78 9 L 377.78 441" fill="none" stroke-width="0.75" stroke="#000000" stroke-opacity="0.49804" stroke-linecap="butt" stroke-linejoin="round"/>
  <text x="371.78" y="453.7" font-family="Helvetica" font-size="10" font-weight="normal" font-style="normal" fill="#000000" fill-opacity="1">32</text>
  <path d="M 443.33 9 L 443.33 441" fill="none" stroke-width="0.75" stroke="#000000" stroke-opacity="0.49804" stroke-linecap="butt" stroke-linejoin="round"/>
  <text x="437.33" y="453.7" font-family="Helvetica" font-size="10" font-weight="normal" font-style="normal" fill="#000000" fill-opacity="1">64</text>
  <path d="M 508.89 9 L 508.89 441" fill="none" stroke-width="0.75" stroke="#000000" stroke-opacity="0.49804" stroke-linecap="butt" stroke-linejoin="round"/>
  <text x="500.39" y="453.7" font-family="Helvetica" font-size="10" font-weight="normal" font-style="normal" fill="#000000" fill-opacity="1">128</text>
  <path d="M 574.44 9 L 574.44 441" fill="none" stroke-width="0.75" stroke="#000000" stroke-opacity="0.49804" stroke-linecap="butt" stroke-linejoin="round"/>
  <text x="565.94" y="453.7" font-family="Helvetica" font-size="10" font-weight="normal" font-style="normal" fill="#000000" fill-opacity="1">256</text>
  <path d="M 640 9 L 640 441" fill="none" stroke-width="0.75" stroke="#000000" stroke-opacity="0.49804" stroke-linecap="butt" stroke-linejoin="round"/>
  <text x="631.5" y="453.7" font-family="Helvetica" font-size="10" font-weight="normal" font-style="normal" fill="#000000" fill-opacity="1">512</text>
  <path d="M 705.56 9 L 705.56 441" fill="none" stroke-width="0.75" stroke="#000000" stroke-opacity="0.49804" stroke-linecap="butt" stroke-linejoin="round"/>
  <text x="700.06" y="453.7" font-family="Helvetica" font-size="10" font-weight="normal" font-style="normal" fill="#000000" fill-opacity="1">1k</text>
  <path d="M 771.11 9 L 771.11 441" fill="none" stroke-width="0.75" stroke="#000000" stroke-opacity="0.49804" stroke-linecap="butt" stroke-linejoin="round"/>
  <text x="765.61" y="453.7" font-family="Helvetica" font-size="10" font-weight="normal" font-style="normal" fill="#000000" fill-opacity="1">2k</text>
  <path d="M 836.67 9 L 836.67 441" fill="none" stroke-width="0.75" stroke="#000000" stroke-opacity="0.49804" stroke-linecap="butt" stroke-linejoin="round"/>
  <text x="831.17" y="453.7" font-family="Helvetica" font-size="10" font-weight="normal" font-style="normal" fill="#000000" fill-opacity="1">4k</text>
  <path d="M 902.22 9 L 902.22 441" fill="none" stroke-width="0.75" stroke="#000000" stroke-opacity="0.49804" stroke-linecap="butt" stroke-linejoin="round"/>
  <text x="896.72" y="453.7" font-family="Helvetica" font-size="10" font-weight="normal" font-style="normal" fill="#000000" fill-opacity="1">8k</text>
  <path d="M 967.78 9 L 967.78 441" fill="none" stroke-width="0.75" stroke="#000000" stroke-opacity="0.49804" stroke-linecap="butt" stroke-linejoin="round"/>
  <text x="959.28" y="453.7" font-family="Helvetica" font-size="10" font-weight="normal" font-style="normal" fill="#000000" fill-opacity="1">16k</text>
  <path d="M 1033.3 9 L 1033.3 441" fill="none" stroke-width="0.75" stroke="#000000" stroke-opacity="0.49804" stroke-linecap="butt" stroke-linejoin="round"/>
  <text x="1024.8" y="453.7" font-family="Helvetica" font-size="10" font-weight="normal" font-style="normal" fill="#000000" fill-opacity="1">32k</text>
  <path d="M 1098.9 9 L 1098.9 441" fill="none" stroke-width="0.75" stroke="#000000" stroke-opacity="0.49804" stroke-linecap="butt" stroke-linejoin="round"/>
  <text x="1090.4" y="453.7" font-family="Helvetica" font-size="10" font-weight="normal" font-style="normal" fill="#000000" fill-opacity="1">64k</text>
  <path d="M 1164.4 9 L 1164.4 441" fill="none" stroke-width="0.75" stroke="#000000" stroke-opacity="0.49804" stroke-linecap="butt" stroke-linejoin="round"/>
  <text x="1153.4" y="453.7" font-family="Helvetica" font-size="10" font-weight="normal" font-style="normal" fill="#000000" fill-opacity="1">128k</text>
  <path d="M 1230 9 L 1230 441" fill="none" stroke-width="0.75" stroke="#000000" stroke-opacity="0.49804" stroke-linecap="butt" stroke-linejoin="round"/>
  <text x="1219" y="453.7" font-family="Helvetica" font-size="10" font-weight="normal" font-style="normal" fill="#000000" fill-opacity="1">256k</text>
  <path d="M 50 441 L 1230 441" fill="none" stroke-width="0.75" stroke="#000000" stroke-opacity="0.49804" stroke-linecap="butt" stroke-linejoin="round"/>
  <text x="27" y="442.7" font-family="Helvetica" font-size="10" font-weight="normal" font-style="normal" fill="#000000" fill-opacity="1">1 ns</text>
  <text x="1236" y="442.7" font-family="Helvetica" font-size="10" font-weight="normal" font-style="normal" fill="#000000" fill-opacity="1">1 ns</text>
  <path d="M 50 354.6 L 1230 354.6" fill="none" stroke-width="0.75" stroke="#000000" stroke-opacity="0.49804" stroke-linecap="butt" stroke-linejoin="round"/>
  <text x="21" y="356.3" font-family="Helvetica" font-size="10" font-weight="normal" font-style="normal" fill="#000000" fill-opacity="1">10 ns</text>
  <text x="1236" y="356.3" font-family="Helvetica" font-size="10" font-weight="normal" font-style="normal" fill="#000000" fill-opacity="1">10 ns</text>
  <path d="M 50 268.2 L 1230 268.2" fill="none" stroke-width="0.75" stroke="#000000" stroke-opacity="0.49804" stroke-linecap="butt" stroke-linejoin="round"/>
  <text x="16" y="269.9" font-family="Helvetica" font-size="10" font-weight="normal" font-style="normal" fill="#000000" fill-opacity="1">100 ns</text>
  <text x="1236" y="269.9" font-family="Helvetica" font-size="10" font-weight="normal" font-style="normal" fill="#000000" fill-opacity="1">100 ns</text>
  <path d="M 50 181.8 L 1230 181.8" fill="none" stroke-width="0.75" stroke="#000000" stroke-opacity="0.49804" stroke-linecap="butt" stroke-linejoin="round"/>
  <text x="26" y="183.5" font-family="Helvetica" font-size="10" font-weight="normal" font-style="normal" fill="#000000" fill-opacity="1">1 µs</text>
  <text x="1236" y="183.5" font-family="Helvetica" font-size="10" font-weight="normal" font-style="normal" fill="#000000" fill-opacity="1">1 µs</text>
  <path d="M 50 95.4 L 1230 95.4" fill="none" stroke-width="0.75" stroke="#000000" stroke-opacity="0.49804" stroke-linecap="butt" stroke-linejoin="round"/>
  <text x="21" y="97.1" font-family="Helvetica" font-size="10" font-weight="normal" font-style="normal" fill="#000000" fill-opacity="1">10 µs</text>
  <text x="1236" y="97.1" font-family="Helvetica" font-size="10" font-weight="normal" font-style="normal" fill="#000000" fill-opacity="1">10 µs</text>
  <path d="M 50 9 L 1230 9" fill="none" stroke-width="0.75" stroke="#000000" stroke-opacity="0.49804" stroke-linecap="butt" stroke-linejoin="round"/>
  <text x="15" y="10.7" font-family="Helvetica" font-size="10" font-weight="normal" font-style="normal" fill="#000000" fill-opacity="1">100 µs</text>
  <text x="1236" y="10.7" font-family="Helvetica" font-size="10" font-weight="normal" font-style="normal" fill="#000000" fill-opacity="1">100 µs</text>
  <path d="M 50 414.99 L 1230 414.99" fill="none" stroke-width="0.5" stroke="#000000" stroke-opacity="0.25882" stroke-linecap="butt" stroke-linejoin="round" stroke-dasharray="6 3" stroke-dashoffset="0"/>
  <path d="M 50 388.98 L 1230 388.98" fill="none" stroke-width="0.5" stroke="#000000" stroke-opacity="0.25882" stroke-linecap="butt" stroke-linejoin="round" stroke-dasharray="6 3" stroke-dashoffset="0"/>
  <path d="M 50 362.97 L 1230 362.97" fill="none" stroke-width="0.5" stroke="#000000" stroke-opacity="0.25882" stroke-linecap="butt" stroke-linejoin="round" stroke-dasharray="6 3" stroke-dashoffset="0"/>
  <path d="M 50 336.96 L 1230 336.96" fill="none" stroke-width="0.5" stroke="#000000" stroke-opacity="0.25882" stroke-linecap="butt" stroke-linejoin="round" stroke-dasharray="6 3" stroke-dashoffset="0"/>
  <path d="M 50 310.96 L 1230 310.96" fill="none" stroke-width="0.5" stroke="#000000" stroke-opacity="0.25882" stroke-linecap="butt" stroke-linejoin="round" stroke-dasharray="6 3" stroke-dashoffset="0"/>
  <path d="M 50 284.95 L 1230 284.95" fill="none" stroke-width="0.5" stroke="#000000" stroke-opacity="0.25882" stroke-linecap="butt" stroke-linejoin="round" stroke-dasharray="6 3" stroke-dashoffset="0"/>
  <path d="M 50 258.94 L 1230 258.94" fill="none" stroke-width="0.5" stroke="#000000" stroke-opacity="0.25882" stroke-linecap="butt" stroke-linejoin="round" stroke-dasharray="6 3" stroke-dashoffset="0"/>
  <path d="M 50 232.93 L 1230 232.93" fill="none" stroke-width="0.5" stroke="#000000" stroke-opacity="0.25882" stroke-linecap="butt" stroke-linejoin="round" stroke-dasharray="6 3" stroke-dashoffset="0"/>
  <path d="M 50 206.92 L 1230 206.92" fill="none" stroke-width="0.5" stroke="#000000" stroke-opacity="0.25882" stroke-linecap="butt" stroke-linejoin="round" stroke-dasharray="6 3" stroke-dashoffset="0"/>
  <path d="M 50 180.91 L 1230 180.91" fill="none" stroke-width="0.5" stroke="#000000" stroke-opacity="0.25882" stroke-linecap="butt" stroke-linejoin="round" stroke-dasharray="6 3" stroke-dashoffset="0"/>
  <path d="M 50 154.9 L 1230 154.9" fill="none" stroke-width="0.5" stroke="#000000" stroke-opacity="0.25882" stroke-linecap="butt" stroke-linejoin="round" stroke-dasharray="6 3" stroke-dashoffset="0"/>
  <path d="M 50 128.89 L 1230 128.89" fill="none" stroke-width="0.5" stroke="#000000" stroke-opacity="0.25882" stroke-linecap="butt" stroke-linejoin="round" stroke-dasharray="6 3" stroke-dashoffset="0"/>
  <path d="M 50 102.88 L 1230 102.88" fill="none" stroke-width="0.5" stroke="#000000" stroke-opacity="0.25882" stroke-linecap="butt" stroke-linejoin="round" stroke-dasharray="6 3" stroke-dashoffset="0"/>
  <path d="M 50 76.874 L 1230 76.874" fill="none" stroke-width="0.5" stroke="#000000" stroke-opacity="0.25882" stroke-linecap="butt" stroke-linejoin="round" stroke-dasharray="6 3" stroke-dashoffset="0"/>
  <path d="M 50 50.865 L 1230 50.865" fill="none" stroke-width="0.5" stroke="#000000" stroke-opacity="0.25882" stroke-linecap="butt" stroke-linejoin="round" stroke-dasharray="6 3" stroke-dashoffset="0"/>
  <path d="M 50 24.856 L 1230 24.856" fill="none" stroke-width="0.5" stroke="#000000" stroke-opacity="0.25882" stroke-linecap="butt" stroke-linejoin="round" stroke-dasharray="6 3" stroke-dashoffset="0"/>
  <path d="M 74 33 L 74 88 L 507 88 L 507 33 z" fill="#FFFFFF" fill-opacity="1.0" stroke="none"/>
  <clipPath id="clip-0">
    <path d="M 50 9 L 50 441 L 1230 441 L 1230 9 z"/>
  </clipPath>
  <g clip-path="url(#clip-0)">
    <path d="M 50 300.75L 115.56 285.84L 153.9 290.41L 181.11 285.84L 202.22 283.34L 219.46 278.33L 234.04 270.07L 246.67 266.68L 267.77 268.2L 285.01 264.23L 299.59 265.61L 312.22 264.84L 333.33 259.83L 350.57 263.09L 365.15 256.82L 377.78 256.46L 398.88 256.54L 416.13 252.73L 430.7 252.36L 443.33 250.83L 464.44 246.1L 481.68 244.87L 496.26 244.24L 508.89 245.2L 529.99 241.71L 547.24 240.7L 561.82 240L 574.44 239.31L 595.55 237.3L 612.79 234.81L 627.37 234.58L 640 233.87L 661.1 230.3L 678.35 230.81L 692.93 228.92L 705.56 230.09L 726.66 227.65L 743.9 227.2L 758.48 225.25L 771.11 225.14L 792.22 223.67L 809.46 220.71L 824.04 221.61L 836.67 220.87L 857.77 219.15L 875.01 218.56L 889.59 217.01L 902.22 216.78L 923.33 215.44L 940.57 214.13L 955.15 213.68L 967.78 212.64L 988.88 210.91L 1006.1 210.78L 1020.7 209.08L 1033.3 209.21L 1054.4 207.64L 1071.7 206.59L 1071.7 206.59L 1054.4 207.64L 1033.3 209.21L 1020.7 209.08L 1006.1 210.78L 988.88 210.91L 967.78 212.64L 955.15 213.68L 940.57 214.13L 923.33 215.44L 902.22 216.78L 889.59 217.01L 875.01 218.56L 857.77 219.15L 836.67 220.87L 824.04 221.61L 809.46 220.71L 792.22 223.67L 771.11 225.14L 758.48 225.25L 743.9 227.2L 726.66 227.65L 705.56 230.09L 692.93 228.92L 678.35 230.81L 661.1 230.3L 640 233.87L 627.37 234.58L 612.79 234.81L 595.55 237.3L 574.44 239.31L 561.82 240L 547.24 240.7L 529.99 241.71L 508.89 245.2L 496.26 244.24L 481.68 244.87L 464.44 246.1L 443.33 250.83L 430.7 252.36L 416.13 252.73L 398.88 256.54L 377.78 256.46L 365.15 256.82L 350.57 263.09L 333.33 259.83L 312.22 264.84L 299.59 265.61L 285.01 264.23L 267.77 268.2L 246.67 266.68L 234.04 270.07L 219.46 278.33L 202.22 283.34L 181.11 285.84L 153.9 290.41L 115.56 285.84L 50 300.75" fill="#007AFF" fill-opacity="0.30196078431372547" stroke="none"/>
    <path d="M 50 299.94L 115.56 325.95L 153.9 342.88L 181.11 351.96L 202.22 361.14L 219.46 367.18L 234.04 372.96L 246.67 377.97L 267.77 386.34L 285.01 368.43L 299.59 373.36L 312.22 363.86L 333.33 372.24L 350.57 360.44L 365.15 359.54L 377.78 370.42L 398.88 366.54L 416.13 360.21L 430.7 365.75L 443.33 363.86L 464.44 359.32L 481.68 351.88L 496.26 344.18L 508.89 351.17L 529.99 354.16L 547.24 350.2L 561.82 348.65L 574.44 341.66L 595.55 339.51L 612.79 337.08L 627.37 332.29L 640 327.53L 661.1 312.2L 678.35 314.33L 692.93 309.09L 705.56 309L 726.66 302.67L 743.9 295.33L 758.48 291.93L 771.11 287.07L 792.22 276.52L 809.46 271.64L 824.04 265.75L 836.67 260.9L 857.77 254.15L 875.01 247.09L 889.59 241.71L 902.22 236.59L 923.33 226.87L 940.57 221.12L 955.15 213.3L 967.78 210.2L 988.88 201.57L 1006.1 193.07L 1020.7 186.32L 1033.3 178.48L 1054.4 167.67L 1071.7 161.49L 1086.3 155.21L 1098.9 149.24L 1120 140.48L 1137.2 133.23L 1151.8 126.31L 1164.4 121.87L 1185.5 113.36L 1202.8 106.53L 1217.4 100.17L 1230 94.594L 1230 95.137L 1217.4 100.36L 1202.8 106.55L 1185.5 113.5L 1164.4 122.19L 1151.8 127.18L 1137.2 133.45L 1120 140.54L 1098.9 149.83L 1086.3 155.31L 1071.7 161.86L 1054.4 169.95L 1033.3 179.98L 1020.7 186.43L 1006.1 193.71L 988.88 202.02L 967.78 211.15L 955.15 216.07L 940.57 221.84L 923.33 227.9L 902.22 237.6L 889.59 241.81L 875.01 248.08L 857.77 255.08L 836.67 262.74L 824.04 267.81L 809.46 273L 792.22 280.35L 771.11 287.78L 758.48 292L 743.9 296.85L 726.66 303.44L 705.56 309.43L 692.93 313.85L 678.35 319.16L 661.1 321.01L 640 328.1L 627.37 333.04L 612.79 337.08L 595.55 340.78L 574.44 344.23L 561.82 348.65L 547.24 353.07L 529.99 358.09L 508.89 360.87L 496.26 358.85L 481.68 361.87L 464.44 363.86L 443.33 363.86L 430.7 365.75L 416.13 368.32L 398.88 366.54L 377.78 370.76L 365.15 373.99L 350.57 379.08L 333.33 372.24L 312.22 363.86L 299.59 374.22L 285.01 368.43L 267.77 388.06L 246.67 379.68L 234.04 374.67L 219.46 368.89L 202.22 361.14L 181.11 353.67L 153.9 342.88L 115.56 327.66L 50 301.66" fill="#FF3B30" fill-opacity="0.30196078431372547" stroke="none"/>
    <path d="M 50 300.75L 115.56 285.84L 153.9 290.41L 181.11 285.84L 202.22 283.34L 219.46 278.33L 234.04 270.07L 246.67 266.68L 267.77 268.2L 285.01 264.23L 299.59 265.61L 312.22 264.84L 333.33 259.83L 350.57 263.09L 365.15 256.82L 377.78 256.46L 398.88 256.54L 416.13 252.73L 430.7 252.36L 443.33 250.83L 464.44 246.1L 481.68 244.87L 496.26 244.24L 508.89 245.2L 529.99 241.71L 547.24 240.7L 561.82 240L 574.44 239.31L 595.55 237.3L 612.79 234.81L 627.37 234.58L 640 233.87L 661.1 230.3L 678.35 230.81L 692.93 228.92L 705.56 230.09L 726.66 227.65L 743.9 227.2L 758.48 225.25L 771.11 225.14L 792.22 223.67L 809.46 220.71L 824.04 221.61L 836.67 220.87L 857.77 219.15L 875.01 218.56L 889.59 217.01L 902.22 216.78L 923.33 215.44L 940.57 214.13L 955.15 213.68L 967.78 212.64L 988.88 210.91L 1006.1 210.78L 1020.7 209.08L 1033.3 209.21L 1054.4 207.64L 1071.7 206.59" fill="none" stroke-width="4" stroke="#007AFF" stroke-opacity="1" stroke-linecap="round" stroke-linejoin="round"/>
    <path d="M 50 301.2L 115.56 327.21L 153.9 342.88L 181.11 353.22L 202.22 361.14L 219.46 368.43L 234.04 374.22L 246.67 379.23L 267.77 387.6L 285.01 368.43L 299.59 373.99L 312.22 363.86L 333.33 372.24L 350.57 373.25L 365.15 369.65L 377.78 370.67L 398.88 366.54L 416.13 366.03L 430.7 365.75L 443.33 363.86L 464.44 362.62L 481.68 358.99L 496.26 354.43L 508.89 358.08L 529.99 357.02L 547.24 352.3L 561.82 348.65L 574.44 343.54L 595.55 340.44L 612.79 337.08L 627.37 332.84L 640 327.95L 661.1 318.5L 678.35 317.84L 692.93 312.55L 705.56 309.32L 726.66 303.24L 743.9 296.45L 758.48 291.98L 771.11 287.59L 792.22 279.31L 809.46 272.64L 824.04 267.26L 836.67 262.25L 857.77 254.84L 875.01 247.82L 889.59 241.78L 902.22 237.34L 923.33 227.63L 940.57 221.65L 955.15 215.33L 967.78 210.9L 988.88 201.91L 1006.1 193.54L 1020.7 186.4L 1033.3 179.58L 1054.4 169.34L 1071.7 161.76L 1086.3 155.28L 1098.9 149.67L 1120 140.52L 1137.2 133.39L 1151.8 126.95L 1164.4 122.1L 1185.5 113.46L 1202.8 106.55L 1217.4 100.31L 1230 94.994" fill="none" stroke-width="4" stroke="#FF3B30" stroke-opacity="1" stroke-linecap="round" stroke-linejoin="round"/>
    <path d="M 50 300.75L 115.56 285.84L 153.9 290.41L 181.11 285.84L 202.22 283.34L 219.46 278.33L 234.04 270.07L 246.67 266.68L 267.77 268.2L 285.01 264.23L 299.59 265.61L 312.22 264.84L 333.33 259.83L 350.57 263.09L 365.15 256.82L 377.78 256.46L 398.88 256.54L 416.13 252.73L 430.7 252.36L 443.33 250.83L 464.44 246.1L 481.68 244.87L 496.26 244.24L 508.89 245.2L 529.99 241.71L 547.24 240.7L 561.82 240L 574.44 239.31L 595.55 237.3L 612.79 234.81L 627.37 234.58L 640 233.87L 661.1 230.3L 678.35 230.81L 692.93 228.92L 705.56 230.09L 726.66 227.65L 743.9 227.2L 758.48 225.25L 771.11 225.14L 792.22 223.67L 809.46 220.71L 824.04 221.61L 836.67 220.87L 857.77 219.15L 875.01 218.56L 889.59 217.01L 902.22 216.78L 923.33 215.44L 940.57 214.13L 955.15 213.68L 967.78 212.64L 988.88 210.91L 1006.1 210.78L 1020.7 209.08L 1033.3 209.21L 1054.4 207.64L 1071.7 206.59" fill="none" stroke-width="0.5" stroke="#000000" stroke-opacity="0.30196" stroke-linecap="round" stroke-linejoin="round"/>
    <path d="M 50 301.2L 115.56 327.21L 153.9 342.88L 181.11 353.22L 202.22 361.14L 219.46 368.43L 234.04 374.22L 246.67 379.23L 267.77 387.6L 285.01 368.43L 299.59 373.99L 312.22 363.86L 333.33 372.24L 350.57 373.25L 365.15 369.65L 377.78 370.67L 398.88 366.54L 416.13 366.03L 430.7 365.75L 443.33 363.86L 464.44 362.62L 481.68 358.99L 496.26 354.43L 508.89 358.08L 529.99 357.02L 547.24 352.3L 561.82 348.65L 574.44 343.54L 595.55 340.44L 612.79 337.08L 627.37 332.84L 640 327.95L 661.1 318.5L 678.35 317.84L 692.93 312.55L 705.56 309.32L 726.66 303.24L 743.9 296.45L 758.48 291.98L 771.11 287.59L 792.22 279.31L 809.46 272.64L 824.04 267.26L 836.67 262.25L 857.77 254.84L 875.01 247.82L 889.59 241.78L 902.22 237.34L 923.33 227.63L 940.57 221.65L 955.15 215.33L 967.78 210.9L 988.88 201.91L 1006.1 193.54L 1020.7 186.4L 1033.3 179.58L 1054.4 169.34L 1071.7 161.76L 1086.3 155.28L 1098.9 149.67L 1120 140.52L 1137.2 133.39L 1151.8 126.95L 1164.4 122.1L 1185.5 113.46L 1202.8 106.55L 1217.4 100.31L 1230 94.994" fill="none" stroke-width="0.5" stroke="#000000" stroke-opacity="0.30196" stroke-linecap="round" stroke-linejoin="round"/>
  </g>
  <path d="M 74 33 L 74 88 L 507 88 L 507 33 z" fill="#FFFFFF" fill-opacity="0.7019607843137254" stroke-width="0.5" stroke="#000000" stroke-opacity="1" stroke-linecap="round" stroke-linejoin="round"/>
  <path d="M 88 52 L 108 52" fill="none" stroke-width="4" stroke="#FF3B30" stroke-opacity="1" stroke-linecap="round" stroke-linejoin="round"/>
  <path d="M 88 52 L 108 52" fill="none" stroke-width="0.5" stroke="#000000" stroke-opacity="0.30196" stroke-linecap="round" stroke-linejoin="round"/>
  <text x="119" y="56.17" font-family="Menlo" font-size="12" font-weight="normal" font-style="normal" fill="#000000" fill-opacity="1">Array&lt;Int&gt; random insertions, reserving capacity</text>
  <path d="M 88 69 L 108 69" fill="none" stroke-width="4" stroke="#007AFF" stroke-opacity="1" stroke-linecap="round" stroke-linejoin="round"/>
  <path d="M 88 69 L 108 69" fill="none" stroke-width="0.5" stroke="#000000" stroke-opacity="0.30196" stroke-linecap="round" stroke-linejoin="round"/>
  <text x="119" y="73.17" font-family="Menlo" font-size="12" font-weight="normal" font-style="normal" fill="#000000" fill-opacity="1">TreeArray&lt;Int&gt; random insertions, reserving capacity</text>
  <path d="M 50 9 L 50 441 L 1230 441 L 1230 9 z" fill="none" stroke-width="0.5" stroke="#000000" stroke-opacity="1" stroke-linecap="round" stroke-linejoin="round"/>
</svg>
