<!DOCTYPE svg PUBLIC "-//W3C//DTD SVG 1.1//EN" "http://www.w3.org/Graphics/SVG/1.1/DTD/svg11.dtd">
<svg width="1280.0px" height="480.0px" viewBox="0.0 0.0 1280.0 480.0" xmlns="http://www.w3.org/2000/svg" xmlns:xlink="http://www.w3.org/1999/xlink" version="1.1">
  <path d="M 0 0 L 0 480 L 1280 480 L 1280 0 z" fill="#FFFFFF" fill-opacity="1.0" stroke="none"/>
  <text x="50" y="468.7" font-family="Helvetica" font-size="10" font-weight="normal" font-style="normal" fill="#000000" fill-opacity="1">Average per-element processing time over input size (bands: min, mean, mean + 2stddev)</text>
  <a xlink:href="https://github.com/apple/swift-collections-benchmark"><text x="1107" y="468.7" font-family="Helvetica" font-size="10" font-weight="normal" font-style="normal" fill="#000000" fill-opacity="1">swift-collections-benchmark</text></a>
  <path d="M 50 9 L 50 441" fill="none" stroke-width="0.75" stroke="#000000" stroke-opacity="0.49804" stroke-linecap="butt" stroke-linejoin="round"/>
  <text x="47" y="453.7" font-family="Helvetica" font-size="10" font-weight="normal" font-style="normal" fill="#000000" fill-opacity="1">1</text>
  <path d="M 109 9 L 109 441" fill="none" stroke-width="0.75" stroke="#000000" stroke-opacity="0.49804" stroke-linecap="butt" stroke-linejoin="round"/>
  <text x="106" y="453.7" font-family="Helvetica" font-size="10" font-weight="normal" font-style="normal" fill="#000000" fill-opacity="1">2</text>
  <path d="M 168 9 L 168 441" fill="none" stroke-width="0.75" stroke="#000000" stroke-opacity="0.49804" stroke-linecap="butt" stroke-linejoin="round"/>
  <text x="165" y="453.7" font-family="Helvetica" font-size="10" font-weight="normal" font-style="normal" fill="#000000" fill-opacity="1">4</text>
  <path d="M 227 9 L 227 441" fill="none" stroke-width="0.75" stroke="#000000" stroke-opacity="0.49804" stroke-linecap="butt" stroke-linejoin="round"/>
  <text x="224" y="453.7" font-family="Helvetica" font-size="10" font-weight="normal" font-style="normal" fill="#000000" fill-opacity="1">8</text>
  <path d="M 286 9 L 286 441" fill="none" stroke-width="0.75" stroke="#000000" stroke-opacity="0.49804" stroke-linecap="butt" stroke-linejoin="round"/>
  <text x="280" y="453.7" font-family="Helvetica" font-size="10" font-weight="normal" font-style="normal" fill="#000000" fill-opacity="1">16</text>
  <path d="M 345 9 L 345 441" fill="none" stroke-width="0.75" stroke="#000000" stroke-opacity="0.49804" stroke-linecap="butt" stroke-linejoin="round"/>
  <text x="339" y="453.7" font-family="Helvetica" font-size="10" font-weight="normal" font-style="normal" fill="#000000" fill-opacity="1">32</text>
  <path d="M 404 9 L 404 441" fill="none" stroke-width="0.75" stroke="#000000" stroke-opacity="0.49804" stroke-linecap="butt" stroke-linejoin="round"/>
  <text x="398" y="453.7" font-family="Helvetica" font-size="10" font-weight="normal" font-style="normal" fill="#000000" fill-opacity="1">64</text>
  <path d="M 463 9 L 463 441" fill="none" stroke-width="0.75" stroke="#000000" stroke-opacity="0.49804" stroke-linecap="butt" stroke-linejoin="round"/>
  <text x="454.5" y="453.7" font-family="Helvetica" font-size="10" font-weight="normal" font-style="normal" fill="#000000" fill-opacity="1">128</text>
  <path d="M 522 9 L 522 441" fill="none" stroke-width="0.75" stroke="#000000" stroke-opacity="0.49804" stroke-linecap="butt" stroke-linejoin="round"/>
  <text x="513.5" y="453.7" font-family="Helvetica" font-size="10" font-weight="normal" font-style="normal" fill="#000000" fill-opacity="1">256</text>
  <path d="M 581 9 L 581 441" fill="none" stroke-width="0.75" stroke="#000000" stroke-opacity="0.49804" stroke-linecap="butt" stroke-linejoin="round"/>
  <text x="572.5" y="453.7" font-family="Helvetica" font-size="10" font-weight="normal" font-style="normal" fill="#000000" fill-opacity="1">512</text>
  <path d="M 640 9 L 640 441" fill="none" stroke-width="0.75" stroke="#000000" stroke-opacity="0.49804" stroke-linecap="butt" stroke-linejoin="round"/>
  <text x="634.5" y="453.7" font-family="Helvetica" font-size="10" font-weight="normal" font-style="normal" fill="#000000" fill-opacity="1">1k</text>
  <path d="M 699 9 L 699 441" fill="none" stroke-width="0.75" stroke="#000000" stroke-opacity="0.49804" stroke-linecap="butt" stroke-linejoin="round"/>
  <text x="693.5" y="453.7" font-family="Helvetica" font-size="10" font-weight="normal" font-style="normal" fill="#000000" fill-opacity="1">2k</text>
  <path d="M 758 9 L 758 441" fill="none" stroke-width="0.75" stroke="#000000" stroke-opacity="0.49804" stroke-linecap="butt" stroke-linejoin="round"/>
  <text x="752.5" y="453.7" font-family="Helvetica" font-size="10" font-weight="normal" font-style="normal" fill="#000000" fill-opacity="1">4k</text>
  <path d="M 817 9 L 817 441" fill="none" stroke-width="0.75" stroke="#000000" stroke-opacity="0.49804" stroke-linecap="butt" stroke-linejoin="round"/>
  <text x="811.5" y="453.7" font-family="Helvetica" font-size="10" font-weight="normal" font-style="normal" fill="#000000" fill-opacity="1">8k</text>
  <path d="M 876 9 L 876 441" fill="none" stroke-width="0.75" stroke="#000000" stroke-opacity="0.49804" stroke-linecap="butt" stroke-linejoin="round"/>
  <text x="867.5" y="453.7" font-family="Helvetica" font-size="10" font-weight="normal" font-style="normal" fill="#000000" fill-opacity="1">16k</text>
  <path d="M 935 9 L 935 441" fill="none" stroke-width="0.75" stroke="#000000" stroke-opacity="0.49804" stroke-linecap="butt" stroke-linejoin="round"/>
  <text x="926.5" y="453.7" font-family="Helvetica" font-size="10" font-weight="normal" font-style="normal" fill="#000000" fill-opacity="1">32k</text>
  <path d="M 994 9 L 994 441" fill="none" stroke-width="0.75" stroke="#000000" stroke-opacity="0.49804" stroke-linecap="butt" stroke-linejoin="round"/>
  <text x="985.5" y="453.7" font-family="Helvetica" font-size="10" font-weight="normal" font-style="normal" fill="#000000" fill-opacity="1">64k</text>
  <path d="M 1053 9 L 1053 441" fill="none" stroke-width="0.75" stroke="#000000" stroke-opacity="0.49804" stroke-linecap="butt" stroke-linejoin="round"/>
  <text x="1042" y="453.7" font-family="Helvetica" font-size="10" font-weight="normal" font-style="normal" fill="#000000" fill-opacity="1">128k</text>
  <path d="M 1112 9 L 1112 441" fill="none" stroke-width="0.75" stroke="#000000" stroke-opacity="0.49804" stroke-linecap="butt" stroke-linejoin="round"/>
  <text x="1101" y="453.7" font-family="Helvetica" font-size="10" font-weight="normal" font-style="normal" fill="#000000" fill-opacity="1">256k</text>
  <path d="M 1171 9 L 1171 441" fill="none" stroke-width="0.75" stroke="#000000" stroke-opacity="0.49804" stroke-linecap="butt" stroke-linejoin="round"/>
  <text x="1160" y="453.7" font-family="Helvetica" font-size="10" font-weight="normal" font-style="normal" fill="#000000" fill-opacity="1">512k</text>
  <path d="M 1230 9 L 1230 441" fill="none" stroke-width="0.75" stroke="#000000" stroke-opacity="0.49804" stroke-linecap="butt" stroke-linejoin="round"/>
  <text x="1223" y="453.7" font-family="Helvetica" font-size="10" font-weight="normal" font-style="normal" fill="#000000" fill-opacity="1">1M</text>
  <path d="M 50 441 L 1230 441" fill="none" stroke-width="0.75" stroke="#000000" stroke-opacity="0.49804" stroke-linecap="butt" stroke-linejoin="round"/>
  <text x="27" y="442.7" font-family="Helvetica" font-size="10" font-weight="normal" font-style="normal" fill="#000000" fill-opacity="1">1 ns</text>
  <text x="1236" y="442.7" font-family="Helvetica" font-size="10" font-weight="normal" font-style="normal" fill="#000000" fill-opacity="1">1 ns</text>
  <path d="M 50 354.6 L 1230 354.6" fill="none" stroke-width="0.75" stroke="#000000" stroke-opacity="0.49804" stroke-linecap="butt" stroke-linejoin="round"/>
  <text x="21" y="356.3" font-family="Helvetica" font-size="10" font-weight="normal" font-style="normal" fill="#000000" fill-opacity="1">10 ns</text>
  <text x="1236" y="356.3" font-family="Helvetica" font-size="10" font-weight="normal" font-style="normal" fill="#000000" fill-opacity="1">10 ns</text>
  <path d="M 50 268.2 L 1230 268.2" fill="none" stroke-width="0.75" stroke="#000000" stroke-opacity="0.49804" stroke-linecap="butt" stroke-linejoin="round"/>
  <text x="16" y="269.9" font-family="Helvetica" font-size="10" font-weight="normal" font-style="normal" fill="#000000" fill-opacity="1">100 ns</text>
  <text x="1236" y="269.9" font-family="Helvetica" font-size="10" font-weight="normal" font-style="normal" fill="#000000" fill-opacity="1">100 ns</text>
  <path d="M 50 181.8 L 1230 181.8" fill="none" stroke-width="0.75" stroke="#000000" stroke-opacity="0.49804" stroke-linecap="butt" stroke-linejoin="round"/>
  <text x="26" y="183.5" font-family="Helvetica" font-size="10" font-weight="normal" font-style="normal" fill="#000000" fill-opacity="1">1 µs</text>
  <text x="1236" y="183.5" font-family="Helvetica" font-size="10" font-weight="normal" font-style="normal" fill="#000000" fill-opacity="1">1 µs</text>
  <path d="M 50 95.4 L 1230 95.4" fill="none" stroke-width="0.75" stroke="#000000" stroke-opacity="0.49804" stroke-linecap="butt" stroke-linejoin="round"/>
  <text x="21" y="97.1" font-family="Helvetica" font-size="10" font-weight="normal" font-style="normal" fill="#000000" fill-opacity="1">10 µs</text>
  <text x="1236" y="97.1" font-family="Helvetica" font-size="10" font-weight="normal" font-style="normal" fill="#000000" fill-opacity="1">10 µs</text>
  <path d="M 50 9 L 1230 9" fill="none" stroke-width="0.75" stroke="#000000" stroke-opacity="0.49804" stroke-linecap="butt" stroke-linejoin="round"/>
  <text x="15" y="10.7" font-family="Helvetica" font-size="10" font-weight="normal" font-style="normal" fill="#000000" fill-opacity="1">100 µs</text>
  <text x="1236" y="10.7" font-family="Helvetica" font-size="10" font-weight="normal" font-style="normal" fill="#000000" fill-opacity="1">100 µs</text>
  <path d="M 50 414.99 L 1230 414.99" fill="none" stroke-width="0.5" stroke="#000000" stroke-opacity="0.25882" stroke-linecap="butt" stroke-linejoin="round" stroke-dasharray="6 3" stroke-dashoffset="0"/>
  <path d="M 50 388.98 L 1230 388.98" fill="none" stroke-width="0.5" stroke="#000000" stroke-opacity="0.25882" stroke-linecap="butt" stroke-linejoin="round" stroke-dasharray="6 3" stroke-dashoffset="0"/>
  <path d="M 50 362.97 L 1230 362.97" fill="none" stroke-width="0.5" stroke="#000000" stroke-opacity="0.25882" stroke-linecap="butt" stroke-linejoin="round" stroke-dasharray="6 3" stroke-dashoffset="0"/>
  <path d="M 50 336.96 L 1230 336.96" fill="none" stroke-width="0.5" stroke="#000000" stroke-opacity="0.25882" stroke-linecap="butt" stroke-linejoin="round" stroke-dasharray="6 3" stroke-dashoffset="0"/>
  <path d="M 50 310.96 L 1230 310.96" fill="none" stroke-width="0.5" stroke="#000000" stroke-opacity="0.25882" stroke-linecap="butt" stroke-linejoin="round" stroke-dasharray="6 3" stroke-dashoffset="0"/>
  <path d="M 50 284.95 L 1230 284.95" fill="none" stroke-width="0.5" stroke="#000000" stroke-opacity="0.25882" stroke-linecap="butt" stroke-linejoin="round" stroke-dasharray="6 3" stroke-dashoffset="0"/>
  <path d="M 50 258.94 L 1230 258.94" fill="none" stroke-width="0.5" stroke="#000000" stroke-opacity="0.25882" stroke-linecap="butt" stroke-linejoin="round" stroke-dasharray="6 3" stroke-dashoffset="0"/>
  <path d="M 50 232.93 L 1230 232.93" fill="none" stroke-width="0.5" stroke="#000000" stroke-opacity="0.25882" stroke-linecap="butt" stroke-linejoin="round" stroke-dasharray="6 3" stroke-dashoffset="0"/>
  <path d="M 50 206.92 L 1230 206.92" fill="none" stroke-width="0.5" stroke="#000000" stroke-opacity="0.25882" stroke-linecap="butt" stroke-linejoin="round" stroke-dasharray="6 3" stroke-dashoffset="0"/>
  <path d="M 50 180.91 L 1230 180.91" fill="none" stroke-width="0.5" stroke="#000000" stroke-opacity="0.25882" stroke-linecap="butt" stroke-linejoin="round" stroke-dasharray="6 3" stroke-dashoffset="0"/>
  <path d="M 50 154.9 L 1230 154.9" fill="none" stroke-width="0.5" stroke="#000000" stroke-opacity="0.25882" stroke-linecap="butt" stroke-linejoin="round" stroke-dasharray="6 3" stroke-dashoffset="0"/>
  <path d="M 50 128.89 L 1230 128.89" fill="none" stroke-width="0.5" stroke="#000000" stroke-opacity="0.25882" stroke-linecap="butt" stroke-linejoin="round" stroke-dasharray="6 3" stroke-dashoffset="0"/>
  <path d="M 50 102.88 L 1230 102.88" fill="none" stroke-width="0.5" stroke="#000000" stroke-opacity="0.25882" stroke-linecap="butt" stroke-linejoin="round" stroke-dasharray="6 3" stroke-dashoffset="0"/>
  <path d="M 50 76.874 L 1230 76.874" fill="none" stroke-width="0.5" stroke="#000000" stroke-opacity="0.25882" stroke-linecap="butt" stroke-linejoin="round" stroke-dasharray="6 3" stroke-dashoffset="0"/>
  <path d="M 50 50.865 L 1230 50.865" fill="none" stroke-width="0.5" stroke="#000000" stroke-opacity="0.25882" stroke-linecap="butt" stroke-linejoin="round" stroke-dasharray="6 3" stroke-dashoffset="0"/>
  <path d="M 50 24.856 L 1230 24.856" fill="none" stroke-width="0.5" stroke="#000000" stroke-opacity="0.25882" stroke-linecap="butt" stroke-linejoin="round" stroke-dasharray="6 3" stroke-dashoffset="0"/>
  <path d="M 74 33 L 74 88 L 507 88 L 507 33 z" fill="#FFFFFF" fill-opacity="1.0" stroke="none"/>
  <clipPath id="clip-0">
    <path d="M 50 9 L 50 441 L 1230 441 L 1230 9 z"/>
  </clipPath>
  <g clip-path="url(#clip-0)">
    <path d="M 50 299.94L 109 275.78L 143.51 290.41L 168 292.74L 186.99 279.16L 202.51 282.26L 215.63 281.02L 227 258.58L 245.99 271.64L 261.51 266.99L 274.63 270.11L 286 266.84L 304.99 262.67L 320.51 262.06L 333.63 254L 345 257.65L 363.99 251.97L 379.51 248.8L 392.63 252.06L 404 250.43L 422.99 250.55L 438.51 247.76L 451.63 246.94L 463 247.75L 481.99 242.53L 497.51 242.79L 510.63 241.62L 522 240.6L 540.99 237.02L 556.51 236.5L 569.63 237.52L 581 235.19L 599.99 234.91L 615.51 232.09L 628.63 232.26L 640 231.54L 658.99 230.6L 674.51 230.16L 687.63 228.54L 699 228.36L 717.99 226.7L 733.51 224.27L 746.63 225.17L 758 223.73L 776.99 222.3L 792.51 222L 805.63 220.54L 817 219.77L 835.99 219.1L 851.51 218.07L 864.63 216.6L 876 216.83L 894.99 215.74L 910.51 213.85L 923.63 212.87L 935 211.4L 953.99 211.05L 969.51 209.83L 982.63 209.22L 994 208.45L 1013 206.51L 1028.5 205.61L 1041.6 204.84L 1053 204.35L 1072 202.39L 1087.5 202.12L 1100.6 200.72L 1112 198.47L 1131 196.41L 1146.5 193.08L 1159.6 186.75L 1171 185.28L 1190 185.04L 1205.5 186.78L 1218.6 171.74L 1230 175.51L 1230 181.29L 1218.6 185.05L 1205.5 186.83L 1190 189.46L 1171 192.09L 1159.6 192.16L 1146.5 195.2L 1131 198.7L 1112 200.2L 1100.6 201.23L 1087.5 202.2L 1072 203.74L 1053 204.66L 1041.6 205.75L 1028.5 206.72L 1013 207.87L 994 208.54L 982.63 209.71L 969.51 211.05L 953.99 211.42L 935 212.61L 923.63 213.89L 910.51 214.33L 894.99 216.05L 876 216.96L 864.63 217.39L 851.51 218.41L 835.99 219.83L 817 220.78L 805.63 221.44L 792.51 223.13L 776.99 224.09L 758 225.04L 746.63 225.66L 733.51 226.94L 717.99 228.43L 699 229.26L 687.63 230.33L 674.51 230.71L 658.99 232.03L 640 233.67L 628.63 234.03L 615.51 234.72L 599.99 235.78L 581 236.62L 569.63 237.6L 556.51 240.6L 540.99 240.61L 522 242.55L 510.63 244.21L 497.51 243.58L 481.99 245.88L 463 248.16L 451.63 247.39L 438.51 249.43L 422.99 252.47L 404 255.41L 392.63 253.48L 379.51 257.55L 363.99 258.3L 345 259.83L 333.63 262.13L 320.51 264.26L 304.99 268.2L 286 270.62L 274.63 272.45L 261.51 275.04L 245.99 275.01L 227 264.84L 215.63 287.64L 202.51 290.18L 186.99 288.51L 168 292.74L 143.51 290.41L 109 301.2L 50 301.66" fill="#007AFF" fill-opacity="0.30196078431372547" stroke="none"/>
    <path d="M 50 300.75L 109 327.66L 143.51 341.17L 168 352.77L 186.99 361.14L 202.51 367.98L 215.63 374.67L 227 377.97L 245.99 347.61L 261.51 367.58L 274.63 374.22L 286 363.86L 304.99 353.95L 320.51 368L 333.63 365.75L 345 370.76L 363.99 366.29L 379.51 368.32L 392.63 365.58L 404 363.86L 422.99 363.86L 438.51 358.27L 451.63 357.44L 463 353.28L 481.99 354.96L 497.51 348.21L 510.63 346.02L 522 333.56L 540.99 338.34L 556.51 330.34L 569.63 331.55L 581 327.58L 599.99 319.15L 615.51 318.43L 628.63 307.5L 640 306.08L 658.99 299.3L 674.51 294L 687.63 287.92L 699 285.33L 717.99 278.97L 733.51 271.83L 746.63 267.14L 758 262.73L 776.99 254.29L 792.51 247.05L 805.63 241.66L 817 237L 835.99 227.57L 851.51 221.32L 864.63 215.38L 876 208.36L 894.99 201.57L 910.51 193.26L 923.63 185.3L 935 180.09L 953.99 168.41L 969.51 161.75L 982.63 154.82L 994 148.94L 1013 140.43L 1028.5 133.27L 1041.6 126.87L 1053 121.91L 1072 113.48L 1087.5 105.99L 1100.6 100.34L 1112 94.422L 1131 86.914L 1131 86.914L 1112 95.601L 1100.6 100.84L 1087.5 106.48L 1072 113.49L 1053 122.2L 1041.6 127.49L 1028.5 133.72L 1013 140.7L 994 149.68L 982.63 155.48L 969.51 162.12L 953.99 169.87L 935 180.15L 923.63 186.2L 910.51 193.76L 894.99 201.93L 876 210.91L 864.63 216.15L 851.51 221.81L 835.99 229.06L 817 237.06L 805.63 241.75L 792.51 247.71L 776.99 255.52L 758 263.19L 746.63 267.63L 733.51 273.26L 717.99 279.43L 699 288.28L 687.63 293.61L 674.51 297.44L 658.99 301.67L 640 310.5L 628.63 314.15L 615.51 319.64L 599.99 321.21L 581 329.32L 569.63 332.65L 556.51 336.07L 540.99 342.15L 522 346.13L 510.63 351.75L 497.51 353.85L 481.99 355L 463 358.07L 451.63 360.46L 438.51 361.82L 422.99 363.86L 404 363.86L 392.63 365.75L 379.51 368.32L 363.99 366.54L 345 370.76L 333.63 365.75L 320.51 368.43L 304.99 372.24L 286 363.86L 274.63 374.22L 261.51 368.43L 245.99 387.15L 227 379.68L 215.63 374.67L 202.51 367.98L 186.99 361.14L 168 352.77L 143.51 342.88L 109 327.66L 50 300.75" fill="#FF3B30" fill-opacity="0.30196078431372547" stroke="none"/>
    <path d="M 50 301.2L 109 292.74L 143.51 290.41L 168 292.74L 186.99 285.84L 202.51 287.95L 215.63 285.79L 227 263.1L 245.99 274.1L 261.51 272.77L 274.63 271.83L 286 269.6L 304.99 266.67L 320.51 263.67L 333.63 259.83L 345 259.25L 363.99 256.54L 379.51 255.06L 392.63 253.1L 404 254.04L 422.99 251.96L 438.51 248.98L 451.63 247.27L 463 248.06L 481.99 244.98L 497.51 243.37L 510.63 243.51L 522 242.03L 540.99 239.64L 556.51 239.49L 569.63 237.58L 581 236.24L 599.99 235.55L 615.51 234.02L 628.63 233.56L 640 233.1L 658.99 231.65L 674.51 230.57L 687.63 229.85L 699 229.02L 717.99 227.97L 733.51 226.22L 746.63 225.53L 758 224.69L 776.99 223.61L 792.51 222.83L 805.63 221.2L 817 220.52L 835.99 219.64L 851.51 218.32L 864.63 217.18L 876 216.93L 894.99 215.96L 910.51 214.2L 923.63 213.62L 935 212.29L 953.99 211.32L 969.51 210.73L 982.63 209.58L 994 208.52L 1013 207.51L 1028.5 206.43L 1041.6 205.51L 1053 204.58L 1072 203.38L 1087.5 202.18L 1100.6 201.1L 1112 199.74L 1131 198.09L 1146.5 194.64L 1159.6 190.67L 1171 190.19L 1190 188.25L 1205.5 186.82L 1218.6 181.09L 1230 179.7" fill="none" stroke-width="4" stroke="#007AFF" stroke-opacity="1" stroke-linecap="round" stroke-linejoin="round"/>
    <path d="M 50 300.75L 109 327.66L 143.51 342.42L 168 352.77L 186.99 361.14L 202.51 367.98L 215.63 374.67L 227 379.23L 245.99 372.24L 261.51 368.21L 274.63 374.22L 286 363.86L 304.99 366.54L 320.51 368.32L 333.63 365.75L 345 370.76L 363.99 366.47L 379.51 368.32L 392.63 365.71L 404 363.86L 422.99 363.86L 438.51 360.86L 451.63 359.65L 463 356.76L 481.99 354.99L 497.51 352.29L 510.63 350.17L 522 342.42L 540.99 341.12L 556.51 334.49L 569.63 332.36L 581 328.86L 599.99 320.66L 615.51 319.32L 628.63 312.29L 640 309.3L 658.99 301.04L 674.51 296.51L 687.63 292.04L 699 287.49L 717.99 279.31L 733.51 272.88L 746.63 267.5L 758 263.07L 776.99 255.2L 792.51 247.53L 805.63 241.73L 817 237.04L 835.99 228.67L 851.51 221.68L 864.63 215.94L 876 210.23L 894.99 201.84L 910.51 193.63L 923.63 185.96L 935 180.13L 953.99 169.48L 969.51 162.02L 982.63 155.31L 994 149.49L 1013 140.63L 1028.5 133.6L 1041.6 127.33L 1053 122.12L 1072 113.49L 1087.5 106.35L 1100.6 100.71L 1112 95.289L 1131 86.914" fill="none" stroke-width="4" stroke="#FF3B30" stroke-opacity="1" stroke-linecap="round" stroke-linejoin="round"/>
    <path d="M 50 301.2L 109 292.74L 143.51 290.41L 168 292.74L 186.99 285.84L 202.51 287.95L 215.63 285.79L 227 263.1L 245.99 274.1L 261.51 272.77L 274.63 271.83L 286 269.6L 304.99 266.67L 320.51 263.67L 333.63 259.83L 345 259.25L 363.99 256.54L 379.51 255.06L 392.63 253.1L 404 254.04L 422.99 251.96L 438.51 248.98L 451.63 247.27L 463 248.06L 481.99 244.98L 497.51 243.37L 510.63 243.51L 522 242.03L 540.99 239.64L 556.51 239.49L 569.63 237.58L 581 236.24L 599.99 235.55L 615.51 234.02L 628.63 233.56L 640 233.1L 658.99 231.65L 674.51 230.57L 687.63 229.85L 699 229.02L 717.99 227.97L 733.51 226.22L 746.63 225.53L 758 224.69L 776.99 223.61L 792.51 222.83L 805.63 221.2L 817 220.52L 835.99 219.64L 851.51 218.32L 864.63 217.18L 876 216.93L 894.99 215.96L 910.51 214.2L 923.63 213.62L 935 212.29L 953.99 211.32L 969.51 210.73L 982.63 209.58L 994 208.52L 1013 207.51L 1028.5 206.43L 1041.6 205.51L 1053 204.58L 1072 203.38L 1087.5 202.18L 1100.6 201.1L 1112 199.74L 1131 198.09L 1146.5 194.64L 1159.6 190.67L 1171 190.19L 1190 188.25L 1205.5 186.82L 1218.6 181.09L 1230 179.7" fill="none" stroke-width="0.5" stroke="#000000" stroke-opacity="0.30196" stroke-linecap="round" stroke-linejoin="round"/>
    <path d="M 50 300.75L 109 327.66L 143.51 342.42L 168 352.77L 186.99 361.14L 202.51 367.98L 215.63 374.67L 227 379.23L 245.99 372.24L 261.51 368.21L 274.63 374.22L 286 363.86L 304.99 366.54L 320.51 368.32L 333.63 365.75L 345 370.76L 363.99 366.47L 379.51 368.32L 392.63 365.71L 404 363.86L 422.99 363.86L 438.51 360.86L 451.63 359.65L 463 356.76L 481.99 354.99L 497.51 352.29L 510.63 350.17L 522 342.42L 540.99 341.12L 556.51 334.49L 569.63 332.36L 581 328.86L 599.99 320.66L 615.51 319.32L 628.63 312.29L 640 309.3L 658.99 301.04L 674.51 296.51L 687.63 292.04L 699 287.49L 717.99 279.31L 733.51 272.88L 746.63 267.5L 758 263.07L 776.99 255.2L 792.51 247.53L 805.63 241.73L 817 237.04L 835.99 228.67L 851.51 221.68L 864.63 215.94L 876 210.23L 894.99 201.84L 910.51 193.63L 923.63 185.96L 935 180.13L 953.99 169.48L 969.51 162.02L 982.63 155.31L 994 149.49L 1013 140.63L 1028.5 133.6L 1041.6 127.33L 1053 122.12L 1072 113.49L 1087.5 106.35L 1100.6 100.71L 1112 95.289L 1131 86.914" fill="none" stroke-width="0.5" stroke="#000000" stroke-opacity="0.30196" stroke-linecap="round" stroke-linejoin="round"/>
  </g>
  <path d="M 74 33 L 74 88 L 507 88 L 507 33 z" fill="#FFFFFF" fill-opacity="0.7019607843137254" stroke-width="0.5" stroke="#000000" stroke-opacity="1" stroke-linecap="round" stroke-linejoin="round"/>
  <path d="M 88 52 L 108 52" fill="none" stroke-width="4" stroke="#FF3B30" stroke-opacity="1" stroke-linecap="round" stroke-linejoin="round"/>
  <path d="M 88 52 L 108 52" fill="none" stroke-width="0.5" stroke="#000000" stroke-opacity="0.30196" stroke-linecap="round" stroke-linejoin="round"/>
  <text x="119" y="56.17" font-family="Menlo" font-size="12" font-weight="normal" font-style="normal" fill="#000000" fill-opacity="1">Array&lt;Int&gt; random insertions, reserving capacity</text>
  <path d="M 88 69 L 108 69" fill="none" stroke-width="4" stroke="#007AFF" stroke-opacity="1" stroke-linecap="round" stroke-linejoin="round"/>
  <path d="M 88 69 L 108 69" fill="none" stroke-width="0.5" stroke="#000000" stroke-opacity="0.30196" stroke-linecap="round" stroke-linejoin="round"/>
  <text x="119" y="73.17" font-family="Menlo" font-size="12" font-weight="normal" font-style="normal" fill="#000000" fill-opacity="1">TreeArray&lt;Int&gt; random insertions, reserving capacity</text>
  <path d="M 50 9 L 50 441 L 1230 441 L 1230 9 z" fill="none" stroke-width="0.5" stroke="#000000" stroke-opacity="1" stroke-linecap="round" stroke-linejoin="round"/>
</svg>
