<!DOCTYPE svg PUBLIC "-//W3C//DTD SVG 1.1//EN" "http://www.w3.org/Graphics/SVG/1.1/DTD/svg11.dtd">
<svg width="1280.0px" height="480.0px" viewBox="0.0 0.0 1280.0 480.0" xmlns="http://www.w3.org/2000/svg" xmlns:xlink="http://www.w3.org/1999/xlink" version="1.1">
  <path d="M 0 0 L 0 480 L 1280 480 L 1280 0 z" fill="#FFFFFF" fill-opacity="1.0" stroke="none"/>
  <text x="50" y="468.7" font-family="Helvetica" font-size="10" font-weight="normal" font-style="normal" fill="#000000" fill-opacity="1">Average per-element processing time over input size (bands: min, mean, mean + 2stddev)</text>
  <a xlink:href="https://github.com/apple/swift-collections-benchmark"><text x="1107" y="468.7" font-family="Helvetica" font-size="10" font-weight="normal" font-style="normal" fill="#000000" fill-opacity="1">swift-collections-benchmark</text></a>
  <path d="M 50 9 L 50 441" fill="none" stroke-width="0.75" stroke="#000000" stroke-opacity="0.49804" stroke-linecap="butt" stroke-linejoin="round"/>
  <text x="47" y="453.7" font-family="Helvetica" font-size="10" font-weight="normal" font-style="normal" fill="#000000" fill-opacity="1">1</text>
  <path d="M 109 9 L 109 441" fill="none" stroke-width="0.75" stroke="#000000" stroke-opacity="0.49804" stroke-linecap="butt" stroke-linejoin="round"/>
  <text x="106" y="453.7" font-family="Helvetica" font-size="10" font-weight="normal" font-style="normal" fill="#000000" fill-opacity="1">2</text>
  <path d="M 168 9 L 168 441" fill="none" stroke-width="0.75" stroke="#000000" stroke-opacity="0.49804" stroke-linecap="butt" stroke-linejoin="round"/>
  <text x="165" y="453.7" font-family="Helvetica" font-size="10" font-weight="normal" font-style="normal" fill="#000000" fill-opacity="1">4</text>
  <path d="M 227 9 L 227 441" fill="none" stroke-width="0.75" stroke="#000000" stroke-opacity="0.49804" stroke-linecap="butt" stroke-linejoin="round"/>
  <text x="224" y="453.7" font-family="Helvetica" font-size="10" font-weight="normal" font-style="normal" fill="#000000" fill-opacity="1">8</text>
  <path d="M 286 9 L 286 441" fill="none" stroke-width="0.75" stroke="#000000" stroke-opacity="0.49804" stroke-linecap="butt" stroke-linejoin="round"/>
  <text x="280" y="453.7" font-family="Helvetica" font-size="10" font-weight="normal" font-style="normal" fill="#000000" fill-opacity="1">16</text>
  <path d="M 345 9 L 345 441" fill="none" stroke-width="0.75" stroke="#000000" stroke-opacity="0.49804" stroke-linecap="butt" stroke-linejoin="round"/>
  <text x="339" y="453.7" font-family="Helvetica" font-size="10" font-weight="normal" font-style="normal" fill="#000000" fill-opacity="1">32</text>
  <path d="M 404 9 L 404 441" fill="none" stroke-width="0.75" stroke="#000000" stroke-opacity="0.49804" stroke-linecap="butt" stroke-linejoin="round"/>
  <text x="398" y="453.7" font-family="Helvetica" font-size="10" font-weight="normal" font-style="normal" fill="#000000" fill-opacity="1">64</text>
  <path d="M 463 9 L 463 441" fill="none" stroke-width="0.75" stroke="#000000" stroke-opacity="0.49804" stroke-linecap="butt" stroke-linejoin="round"/>
  <text x="454.5" y="453.7" font-family="Helvetica" font-size="10" font-weight="normal" font-style="normal" fill="#000000" fill-opacity="1">128</text>
  <path d="M 522 9 L 522 441" fill="none" stroke-width="0.75" stroke="#000000" stroke-opacity="0.49804" stroke-linecap="butt" stroke-linejoin="round"/>
  <text x="513.5" y="453.7" font-family="Helvetica" font-size="10" font-weight="normal" font-style="normal" fill="#000000" fill-opacity="1">256</text>
  <path d="M 581 9 L 581 441" fill="none" stroke-width="0.75" stroke="#000000" stroke-opacity="0.49804" stroke-linecap="butt" stroke-linejoin="round"/>
  <text x="572.5" y="453.7" font-family="Helvetica" font-size="10" font-weight="normal" font-style="normal" fill="#000000" fill-opacity="1">512</text>
  <path d="M 640 9 L 640 441" fill="none" stroke-width="0.75" stroke="#000000" stroke-opacity="0.49804" stroke-linecap="butt" stroke-linejoin="round"/>
  <text x="634.5" y="453.7" font-family="Helvetica" font-size="10" font-weight="normal" font-style="normal" fill="#000000" fill-opacity="1">1k</text>
  <path d="M 699 9 L 699 441" fill="none" stroke-width="0.75" stroke="#000000" stroke-opacity="0.49804" stroke-linecap="butt" stroke-linejoin="round"/>
  <text x="693.5" y="453.7" font-family="Helvetica" font-size="10" font-weight="normal" font-style="normal" fill="#000000" fill-opacity="1">2k</text>
  <path d="M 758 9 L 758 441" fill="none" stroke-width="0.75" stroke="#000000" stroke-opacity="0.49804" stroke-linecap="butt" stroke-linejoin="round"/>
  <text x="752.5" y="453.7" font-family="Helvetica" font-size="10" font-weight="normal" font-style="normal" fill="#000000" fill-opacity="1">4k</text>
  <path d="M 817 9 L 817 441" fill="none" stroke-width="0.75" stroke="#000000" stroke-opacity="0.49804" stroke-linecap="butt" stroke-linejoin="round"/>
  <text x="811.5" y="453.7" font-family="Helvetica" font-size="10" font-weight="normal" font-style="normal" fill="#000000" fill-opacity="1">8k</text>
  <path d="M 876 9 L 876 441" fill="none" stroke-width="0.75" stroke="#000000" stroke-opacity="0.49804" stroke-linecap="butt" stroke-linejoin="round"/>
  <text x="867.5" y="453.7" font-family="Helvetica" font-size="10" font-weight="normal" font-style="normal" fill="#000000" fill-opacity="1">16k</text>
  <path d="M 935 9 L 935 441" fill="none" stroke-width="0.75" stroke="#000000" stroke-opacity="0.49804" stroke-linecap="butt" stroke-linejoin="round"/>
  <text x="926.5" y="453.7" font-family="Helvetica" font-size="10" font-weight="normal" font-style="normal" fill="#000000" fill-opacity="1">32k</text>
  <path d="M 994 9 L 994 441" fill="none" stroke-width="0.75" stroke="#000000" stroke-opacity="0.49804" stroke-linecap="butt" stroke-linejoin="round"/>
  <text x="985.5" y="453.7" font-family="Helvetica" font-size="10" font-weight="normal" font-style="normal" fill="#000000" fill-opacity="1">64k</text>
  <path d="M 1053 9 L 1053 441" fill="none" stroke-width="0.75" stroke="#000000" stroke-opacity="0.49804" stroke-linecap="butt" stroke-linejoin="round"/>
  <text x="1042" y="453.7" font-family="Helvetica" font-size="10" font-weight="normal" font-style="normal" fill="#000000" fill-opacity="1">128k</text>
  <path d="M 1112 9 L 1112 441" fill="none" stroke-width="0.75" stroke="#000000" stroke-opacity="0.49804" stroke-linecap="butt" stroke-linejoin="round"/>
  <text x="1101" y="453.7" font-family="Helvetica" font-size="10" font-weight="normal" font-style="normal" fill="#000000" fill-opacity="1">256k</text>
  <path d="M 1171 9 L 1171 441" fill="none" stroke-width="0.75" stroke="#000000" stroke-opacity="0.49804" stroke-linecap="butt" stroke-linejoin="round"/>
  <text x="1160" y="453.7" font-family="Helvetica" font-size="10" font-weight="normal" font-style="normal" fill="#000000" fill-opacity="1">512k</text>
  <path d="M 1230 9 L 1230 441" fill="none" stroke-width="0.75" stroke="#000000" stroke-opacity="0.49804" stroke-linecap="butt" stroke-linejoin="round"/>
  <text x="1223" y="453.7" font-family="Helvetica" font-size="10" font-weight="normal" font-style="normal" fill="#000000" fill-opacity="1">1M</text>
  <path d="M 50 441 L 1230 441" fill="none" stroke-width="0.75" stroke="#000000" stroke-opacity="0.49804" stroke-linecap="butt" stroke-linejoin="round"/>
  <text x="27" y="442.7" font-family="Helvetica" font-size="10" font-weight="normal" font-style="normal" fill="#000000" fill-opacity="1">1 ns</text>
  <text x="1236" y="442.7" font-family="Helvetica" font-size="10" font-weight="normal" font-style="normal" fill="#000000" fill-opacity="1">1 ns</text>
  <path d="M 50 354.6 L 1230 354.6" fill="none" stroke-width="0.75" stroke="#000000" stroke-opacity="0.49804" stroke-linecap="butt" stroke-linejoin="round"/>
  <text x="21" y="356.3" font-family="Helvetica" font-size="10" font-weight="normal" font-style="normal" fill="#000000" fill-opacity="1">10 ns</text>
  <text x="1236" y="356.3" font-family="Helvetica" font-size="10" font-weight="normal" font-style="normal" fill="#000000" fill-opacity="1">10 ns</text>
  <path d="M 50 268.2 L 1230 268.2" fill="none" stroke-width="0.75" stroke="#000000" stroke-opacity="0.49804" stroke-linecap="butt" stroke-linejoin="round"/>
  <text x="16" y="269.9" font-family="Helvetica" font-size="10" font-weight="normal" font-style="normal" fill="#000000" fill-opacity="1">100 ns</text>
  <text x="1236" y="269.9" font-family="Helvetica" font-size="10" font-weight="normal" font-style="normal" fill="#000000" fill-opacity="1">100 ns</text>
  <path d="M 50 181.8 L 1230 181.8" fill="none" stroke-width="0.75" stroke="#000000" stroke-opacity="0.49804" stroke-linecap="butt" stroke-linejoin="round"/>
  <text x="26" y="183.5" font-family="Helvetica" font-size="10" font-weight="normal" font-style="normal" fill="#000000" fill-opacity="1">1 µs</text>
  <text x="1236" y="183.5" font-family="Helvetica" font-size="10" font-weight="normal" font-style="normal" fill="#000000" fill-opacity="1">1 µs</text>
  <path d="M 50 95.4 L 1230 95.4" fill="none" stroke-width="0.75" stroke="#000000" stroke-opacity="0.49804" stroke-linecap="butt" stroke-linejoin="round"/>
  <text x="21" y="97.1" font-family="Helvetica" font-size="10" font-weight="normal" font-style="normal" fill="#000000" fill-opacity="1">10 µs</text>
  <text x="1236" y="97.1" font-family="Helvetica" font-size="10" font-weight="normal" font-style="normal" fill="#000000" fill-opacity="1">10 µs</text>
  <path d="M 50 9 L 1230 9" fill="none" stroke-width="0.75" stroke="#000000" stroke-opacity="0.49804" stroke-linecap="butt" stroke-linejoin="round"/>
  <text x="15" y="10.7" font-family="Helvetica" font-size="10" font-weight="normal" font-style="normal" fill="#000000" fill-opacity="1">100 µs</text>
  <text x="1236" y="10.7" font-family="Helvetica" font-size="10" font-weight="normal" font-style="normal" fill="#000000" fill-opacity="1">100 µs</text>
  <path d="M 50 414.99 L 1230 414.99" fill="none" stroke-width="0.5" stroke="#000000" stroke-opacity="0.25882" stroke-linecap="butt" stroke-linejoin="round" stroke-dasharray="6 3" stroke-dashoffset="0"/>
  <path d="M 50 388.98 L 1230 388.98" fill="none" stroke-width="0.5" stroke="#000000" stroke-opacity="0.25882" stroke-linecap="butt" stroke-linejoin="round" stroke-dasharray="6 3" stroke-dashoffset="0"/>
  <path d="M 50 362.97 L 1230 362.97" fill="none" stroke-width="0.5" stroke="#000000" stroke-opacity="0.25882" stroke-linecap="butt" stroke-linejoin="round" stroke-dasharray="6 3" stroke-dashoffset="0"/>
  <path d="M 50 336.96 L 1230 336.96" fill="none" stroke-width="0.5" stroke="#000000" stroke-opacity="0.25882" stroke-linecap="butt" stroke-linejoin="round" stroke-dasharray="6 3" stroke-dashoffset="0"/>
  <path d="M 50 310.96 L 1230 310.96" fill="none" stroke-width="0.5" stroke="#000000" stroke-opacity="0.25882" stroke-linecap="butt" stroke-linejoin="round" stroke-dasharray="6 3" stroke-dashoffset="0"/>
  <path d="M 50 284.95 L 1230 284.95" fill="none" stroke-width="0.5" stroke="#000000" stroke-opacity="0.25882" stroke-linecap="butt" stroke-linejoin="round" stroke-dasharray="6 3" stroke-dashoffset="0"/>
  <path d="M 50 258.94 L 1230 258.94" fill="none" stroke-width="0.5" stroke="#000000" stroke-opacity="0.25882" stroke-linecap="butt" stroke-linejoin="round" stroke-dasharray="6 3" stroke-dashoffset="0"/>
  <path d="M 50 232.93 L 1230 232.93" fill="none" stroke-width="0.5" stroke="#000000" stroke-opacity="0.25882" stroke-linecap="butt" stroke-linejoin="round" stroke-dasharray="6 3" stroke-dashoffset="0"/>
  <path d="M 50 206.92 L 1230 206.92" fill="none" stroke-width="0.5" stroke="#000000" stroke-opacity="0.25882" stroke-linecap="butt" stroke-linejoin="round" stroke-dasharray="6 3" stroke-dashoffset="0"/>
  <path d="M 50 180.91 L 1230 180.91" fill="none" stroke-width="0.5" stroke="#000000" stroke-opacity="0.25882" stroke-linecap="butt" stroke-linejoin="round" stroke-dasharray="6 3" stroke-dashoffset="0"/>
  <path d="M 50 154.9 L 1230 154.9" fill="none" stroke-width="0.5" stroke="#000000" stroke-opacity="0.25882" stroke-linecap="butt" stroke-linejoin="round" stroke-dasharray="6 3" stroke-dashoffset="0"/>
  <path d="M 50 128.89 L 1230 128.89" fill="none" stroke-width="0.5" stroke="#000000" stroke-opacity="0.25882" stroke-linecap="butt" stroke-linejoin="round" stroke-dasharray="6 3" stroke-dashoffset="0"/>
  <path d="M 50 102.88 L 1230 102.88" fill="none" stroke-width="0.5" stroke="#000000" stroke-opacity="0.25882" stroke-linecap="butt" stroke-linejoin="round" stroke-dasharray="6 3" stroke-dashoffset="0"/>
  <path d="M 50 76.874 L 1230 76.874" fill="none" stroke-width="0.5" stroke="#000000" stroke-opacity="0.25882" stroke-linecap="butt" stroke-linejoin="round" stroke-dasharray="6 3" stroke-dashoffset="0"/>
  <path d="M 50 50.865 L 1230 50.865" fill="none" stroke-width="0.5" stroke="#000000" stroke-opacity="0.25882" stroke-linecap="butt" stroke-linejoin="round" stroke-dasharray="6 3" stroke-dashoffset="0"/>
  <path d="M 50 24.856 L 1230 24.856" fill="none" stroke-width="0.5" stroke="#000000" stroke-opacity="0.25882" stroke-linecap="butt" stroke-linejoin="round" stroke-dasharray="6 3" stroke-dashoffset="0"/>
  <path d="M 74 33 L 74 105 L 507 105 L 507 33 z" fill="#FFFFFF" fill-opacity="1.0" stroke="none"/>
  <clipPath id="clip-0">
    <path d="M 50 9 L 50 441 L 1230 441 L 1230 9 z"/>
  </clipPath>
  <g clip-path="url(#clip-0)">
    <path d="M 50 301.66L 109 327.66L 143.51 342.88L 168 327.21L 186.99 335.58L 202.51 328.44L 215.63 323L 227 319.57L 245.99 335.58L 261.51 321.82L 274.63 327.6L 286 332.03L 304.99 320.83L 320.51 316.71L 333.63 324.47L 345 320.81L 363.99 323.43L 379.51 321.38L 392.63 318.81L 404 317.05L 422.99 318.74L 438.51 318.78L 451.63 318.19L 463 317.75L 481.99 313.64L 497.51 315.75L 510.63 314.48L 522 315.56L 540.99 313.5L 556.51 312.4L 569.63 311.22L 581 309.81L 599.99 307.99L 615.51 306.35L 628.63 305.87L 640 304.56L 658.99 301.77L 674.51 298.81L 687.63 296.14L 699 293.05L 717.99 288.51L 733.51 283.56L 746.63 280.2L 758 278.36L 776.99 272.21L 792.51 266.67L 805.63 261.19L 817 257.35L 835.99 250.51L 851.51 244.12L 864.63 239.33L 876 234.23L 894.99 226.09L 910.51 218.32L 923.63 212.49L 935 206.17L 953.99 197.09L 969.51 189.14L 982.63 182.3L 994 176.64L 1013 167.05L 1028.5 159.81L 1041.6 153.54L 1053 148.24L 1072 139.6L 1087.5 132.71L 1100.6 126.64L 1112 121.76L 1131 112.68L 1146.5 105.99L 1159.6 99.561L 1171 94.865L 1190 87.118L 1190 87.118L 1171 95.538L 1159.6 100.6L 1146.5 106.4L 1131 113.28L 1112 121.89L 1100.6 126.91L 1087.5 132.78L 1072 139.83L 1053 148.53L 1041.6 153.8L 1028.5 159.95L 1013 167.48L 994 176.91L 982.63 182.76L 969.51 189.42L 953.99 197.3L 935 207.32L 923.63 213.06L 910.51 219.51L 894.99 226.71L 876 234.76L 864.63 239.37L 851.51 244.93L 835.99 250.93L 817 258.29L 805.63 262.6L 792.51 267.06L 776.99 272.32L 758 279.76L 746.63 282.14L 733.51 285.88L 717.99 289.63L 699 294.11L 687.63 296.43L 674.51 299.12L 658.99 302L 640 304.87L 628.63 305.97L 615.51 307.89L 599.99 309.64L 581 311.07L 569.63 312.07L 556.51 313.17L 540.99 314.77L 522 315.97L 510.63 316.86L 497.51 317.45L 481.99 318.31L 463 317.77L 451.63 319.23L 438.51 321.28L 422.99 320.22L 404 320.6L 392.63 320.89L 379.51 324.07L 363.99 323.51L 345 324.75L 333.63 324.47L 320.51 327.06L 304.99 335.47L 286 332.03L 274.63 339.56L 261.51 333.78L 245.99 335.58L 227 337.85L 215.63 347.76L 202.51 367.98L 186.99 335.58L 168 327.21L 143.51 342.88L 109 327.66L 50 301.66" fill="#28CD41" fill-opacity="0.30196078431372547" stroke="none"/>
    <path d="M 50 301.66L 109 301.2L 143.51 301.05L 168 292.74L 186.99 283.45L 202.51 275.58L 215.63 275.46L 227 263.41L 245.99 268.7L 261.51 269.51L 274.63 272.5L 286 268.66L 304.99 263.28L 320.51 260.96L 333.63 261.66L 345 260.66L 363.99 257.19L 379.51 255.23L 392.63 252.7L 404 251.89L 422.99 247.94L 438.51 249.04L 451.63 246.79L 463 245.96L 481.99 243.3L 497.51 244.06L 510.63 241.97L 522 242.1L 540.99 239.36L 556.51 236.3L 569.63 237.61L 581 235.96L 599.99 234.97L 615.51 233.78L 628.63 232.73L 640 231.53L 658.99 229.57L 674.51 229.59L 687.63 228.65L 699 228.22L 717.99 227.39L 733.51 225.91L 746.63 225.14L 758 223.98L 776.99 223.05L 792.51 222.12L 805.63 220.48L 817 220.46L 835.99 219.44L 851.51 218.29L 864.63 217.09L 876 216.08L 894.99 215L 910.51 213.12L 923.63 213.05L 935 212.59L 953.99 211.18L 969.51 210.18L 982.63 209.4L 994 208.43L 1013 207.01L 1028.5 206.27L 1041.6 204.39L 1053 204.07L 1072 203.09L 1087.5 201.08L 1100.6 200.42L 1112 199.68L 1131 195.55L 1146.5 193.21L 1159.6 189.78L 1171 187.56L 1190 186.92L 1205.5 185.23L 1218.6 182.14L 1230 176.48L 1230 181.69L 1218.6 184.14L 1205.5 186.52L 1190 188.94L 1171 191.44L 1159.6 193.89L 1146.5 195.62L 1131 197.85L 1112 200.08L 1100.6 201.19L 1087.5 202.22L 1072 203.39L 1053 204.54L 1041.6 205.94L 1028.5 206.59L 1013 207.92L 994 208.61L 982.63 209.55L 969.51 210.39L 953.99 211.46L 935 212.69L 923.63 214.24L 910.51 214.36L 894.99 215.59L 876 216.54L 864.63 217.15L 851.51 218.93L 835.99 219.63L 817 221.02L 805.63 222.36L 792.51 222.41L 776.99 223.88L 758 224.8L 746.63 226.16L 733.51 227.2L 717.99 227.74L 699 228.84L 687.63 229.85L 674.51 230.05L 658.99 232.21L 640 232.49L 628.63 233.68L 615.51 233.98L 599.99 236.08L 581 236.71L 569.63 238.06L 556.51 238.38L 540.99 239.62L 522 242.15L 510.63 242.44L 497.51 244.22L 481.99 244.98L 463 246.48L 451.63 249.45L 438.51 249.23L 422.99 252.09L 404 254.72L 392.63 256.41L 379.51 256.58L 363.99 258.9L 345 261.42L 333.63 261.66L 320.51 263.09L 304.99 267.44L 286 270.62L 274.63 275.06L 261.51 275.04L 245.99 283.4L 227 270.62L 215.63 287.73L 202.51 290.18L 186.99 283.45L 168 292.74L 143.51 301.05L 109 301.2L 50 301.66" fill="#007AFF" fill-opacity="0.30196078431372547" stroke="none"/>
    <path d="M 50 300.75L 109 327.66L 143.51 341.17L 168 352.77L 186.99 361.14L 202.51 367.98L 215.63 374.67L 227 377.97L 245.99 347.61L 261.51 367.58L 274.63 374.22L 286 363.86L 304.99 353.95L 320.51 368L 333.63 365.75L 345 370.76L 363.99 366.29L 379.51 368.32L 392.63 365.58L 404 363.86L 422.99 363.86L 438.51 358.27L 451.63 357.44L 463 353.28L 481.99 354.96L 497.51 348.21L 510.63 346.02L 522 333.56L 540.99 338.34L 556.51 330.34L 569.63 331.55L 581 327.58L 599.99 319.15L 615.51 318.43L 628.63 307.5L 640 306.08L 658.99 299.3L 674.51 294L 687.63 287.92L 699 285.33L 717.99 278.97L 733.51 271.83L 746.63 267.14L 758 262.73L 776.99 254.29L 792.51 247.05L 805.63 241.66L 817 237L 835.99 227.57L 851.51 221.32L 864.63 215.38L 876 208.36L 894.99 201.57L 910.51 193.26L 923.63 185.3L 935 180.09L 953.99 168.41L 969.51 161.75L 982.63 154.82L 994 148.94L 1013 140.43L 1028.5 133.27L 1041.6 126.87L 1053 121.91L 1072 113.48L 1087.5 105.99L 1100.6 100.34L 1112 94.422L 1131 86.914L 1131 86.914L 1112 95.601L 1100.6 100.84L 1087.5 106.48L 1072 113.49L 1053 122.2L 1041.6 127.49L 1028.5 133.72L 1013 140.7L 994 149.68L 982.63 155.48L 969.51 162.12L 953.99 169.87L 935 180.15L 923.63 186.2L 910.51 193.76L 894.99 201.93L 876 210.91L 864.63 216.15L 851.51 221.81L 835.99 229.06L 817 237.06L 805.63 241.75L 792.51 247.71L 776.99 255.52L 758 263.19L 746.63 267.63L 733.51 273.26L 717.99 279.43L 699 288.28L 687.63 293.61L 674.51 297.44L 658.99 301.67L 640 310.5L 628.63 314.15L 615.51 319.64L 599.99 321.21L 581 329.32L 569.63 332.65L 556.51 336.07L 540.99 342.15L 522 346.13L 510.63 351.75L 497.51 353.85L 481.99 355L 463 358.07L 451.63 360.46L 438.51 361.82L 422.99 363.86L 404 363.86L 392.63 365.75L 379.51 368.32L 363.99 366.54L 345 370.76L 333.63 365.75L 320.51 368.43L 304.99 372.24L 286 363.86L 274.63 374.22L 261.51 368.43L 245.99 387.15L 227 379.68L 215.63 374.67L 202.51 367.98L 186.99 361.14L 168 352.77L 143.51 342.88L 109 327.66L 50 300.75" fill="#FF3B30" fill-opacity="0.30196078431372547" stroke="none"/>
    <path d="M 50 301.66L 109 327.66L 143.51 342.88L 168 327.21L 186.99 335.58L 202.51 353.07L 215.63 339.56L 227 332.16L 245.99 335.58L 261.51 330.27L 274.63 336.05L 286 332.03L 304.99 331.06L 320.51 324.07L 333.63 324.47L 345 323.68L 363.99 323.49L 379.51 323.35L 392.63 320.34L 404 319.64L 422.99 319.83L 438.51 320.61L 451.63 318.95L 463 317.76L 481.99 317.03L 497.51 317L 510.63 316.22L 522 315.86L 540.99 314.44L 556.51 312.97L 569.63 311.84L 581 310.74L 599.99 309.2L 615.51 307.48L 628.63 305.94L 640 304.78L 658.99 301.94L 674.51 299.04L 687.63 296.35L 699 293.83L 717.99 289.33L 733.51 285.26L 746.63 281.62L 758 279.39L 776.99 272.29L 792.51 266.96L 805.63 262.22L 817 258.04L 835.99 250.82L 851.51 244.71L 864.63 239.36L 876 234.62L 894.99 226.55L 910.51 219.2L 923.63 212.91L 935 207.02L 953.99 197.25L 969.51 189.35L 982.63 182.64L 994 176.84L 1013 167.37L 1028.5 159.91L 1041.6 153.73L 1053 148.46L 1072 139.77L 1087.5 132.76L 1100.6 126.84L 1112 121.86L 1131 113.13L 1146.5 106.29L 1159.6 100.32L 1171 95.361L 1190 87.118" fill="none" stroke-width="4" stroke="#28CD41" stroke-opacity="1" stroke-linecap="round" stroke-linejoin="round"/>
    <path d="M 50 301.66L 109 301.2L 143.51 301.05L 168 292.74L 186.99 283.45L 202.51 285.79L 215.63 284.12L 227 268.6L 245.99 278.97L 261.51 273.52L 274.63 274.38L 286 270.1L 304.99 266.31L 320.51 262.52L 333.63 261.66L 345 261.22L 363.99 258.45L 379.51 256.23L 392.63 255.41L 404 253.96L 422.99 250.96L 438.51 249.18L 451.63 248.74L 463 246.35L 481.99 244.53L 497.51 244.18L 510.63 242.32L 522 242.14L 540.99 239.55L 556.51 237.83L 569.63 237.94L 581 236.51L 599.99 235.79L 615.51 233.93L 628.63 233.43L 640 232.24L 658.99 231.5L 674.51 229.93L 687.63 229.54L 699 228.68L 717.99 227.65L 733.51 226.86L 746.63 225.89L 758 224.58L 776.99 223.66L 792.51 222.33L 805.63 221.86L 817 220.88L 835.99 219.58L 851.51 218.76L 864.63 217.14L 876 216.42L 894.99 215.43L 910.51 214.03L 923.63 213.92L 935 212.67L 953.99 211.39L 969.51 210.33L 982.63 209.51L 994 208.57L 1013 207.68L 1028.5 206.5L 1041.6 205.53L 1053 204.42L 1072 203.31L 1087.5 201.92L 1100.6 200.99L 1112 199.98L 1131 197.24L 1146.5 194.97L 1159.6 192.77L 1171 190.39L 1190 188.41L 1205.5 186.18L 1218.6 183.61L 1230 180.26" fill="none" stroke-width="4" stroke="#007AFF" stroke-opacity="1" stroke-linecap="round" stroke-linejoin="round"/>
    <path d="M 50 300.75L 109 327.66L 143.51 342.42L 168 352.77L 186.99 361.14L 202.51 367.98L 215.63 374.67L 227 379.23L 245.99 372.24L 261.51 368.21L 274.63 374.22L 286 363.86L 304.99 366.54L 320.51 368.32L 333.63 365.75L 345 370.76L 363.99 366.47L 379.51 368.32L 392.63 365.71L 404 363.86L 422.99 363.86L 438.51 360.86L 451.63 359.65L 463 356.76L 481.99 354.99L 497.51 352.29L 510.63 350.17L 522 342.42L 540.99 341.12L 556.51 334.49L 569.63 332.36L 581 328.86L 599.99 320.66L 615.51 319.32L 628.63 312.29L 640 309.3L 658.99 301.04L 674.51 296.51L 687.63 292.04L 699 287.49L 717.99 279.31L 733.51 272.88L 746.63 267.5L 758 263.07L 776.99 255.2L 792.51 247.53L 805.63 241.73L 817 237.04L 835.99 228.67L 851.51 221.68L 864.63 215.94L 876 210.23L 894.99 201.84L 910.51 193.63L 923.63 185.96L 935 180.13L 953.99 169.48L 969.51 162.02L 982.63 155.31L 994 149.49L 1013 140.63L 1028.5 133.6L 1041.6 127.33L 1053 122.12L 1072 113.49L 1087.5 106.35L 1100.6 100.71L 1112 95.289L 1131 86.914" fill="none" stroke-width="4" stroke="#FF3B30" stroke-opacity="1" stroke-linecap="round" stroke-linejoin="round"/>
    <path d="M 50 301.66L 109 327.66L 143.51 342.88L 168 327.21L 186.99 335.58L 202.51 353.07L 215.63 339.56L 227 332.16L 245.99 335.58L 261.51 330.27L 274.63 336.05L 286 332.03L 304.99 331.06L 320.51 324.07L 333.63 324.47L 345 323.68L 363.99 323.49L 379.51 323.35L 392.63 320.34L 404 319.64L 422.99 319.83L 438.51 320.61L 451.63 318.95L 463 317.76L 481.99 317.03L 497.51 317L 510.63 316.22L 522 315.86L 540.99 314.44L 556.51 312.97L 569.63 311.84L 581 310.74L 599.99 309.2L 615.51 307.48L 628.63 305.94L 640 304.78L 658.99 301.94L 674.51 299.04L 687.63 296.35L 699 293.83L 717.99 289.33L 733.51 285.26L 746.63 281.62L 758 279.39L 776.99 272.29L 792.51 266.96L 805.63 262.22L 817 258.04L 835.99 250.82L 851.51 244.71L 864.63 239.36L 876 234.62L 894.99 226.55L 910.51 219.2L 923.63 212.91L 935 207.02L 953.99 197.25L 969.51 189.35L 982.63 182.64L 994 176.84L 1013 167.37L 1028.5 159.91L 1041.6 153.73L 1053 148.46L 1072 139.77L 1087.5 132.76L 1100.6 126.84L 1112 121.86L 1131 113.13L 1146.5 106.29L 1159.6 100.32L 1171 95.361L 1190 87.118" fill="none" stroke-width="0.5" stroke="#000000" stroke-opacity="0.30196" stroke-linecap="round" stroke-linejoin="round"/>
    <path d="M 50 301.66L 109 301.2L 143.51 301.05L 168 292.74L 186.99 283.45L 202.51 285.79L 215.63 284.12L 227 268.6L 245.99 278.97L 261.51 273.52L 274.63 274.38L 286 270.1L 304.99 266.31L 320.51 262.52L 333.63 261.66L 345 261.22L 363.99 258.45L 379.51 256.23L 392.63 255.41L 404 253.96L 422.99 250.96L 438.51 249.18L 451.63 248.74L 463 246.35L 481.99 244.53L 497.51 244.18L 510.63 242.32L 522 242.14L 540.99 239.55L 556.51 237.83L 569.63 237.94L 581 236.51L 599.99 235.79L 615.51 233.93L 628.63 233.43L 640 232.24L 658.99 231.5L 674.51 229.93L 687.63 229.54L 699 228.68L 717.99 227.65L 733.51 226.86L 746.63 225.89L 758 224.58L 776.99 223.66L 792.51 222.33L 805.63 221.86L 817 220.88L 835.99 219.58L 851.51 218.76L 864.63 217.14L 876 216.42L 894.99 215.43L 910.51 214.03L 923.63 213.92L 935 212.67L 953.99 211.39L 969.51 210.33L 982.63 209.51L 994 208.57L 1013 207.68L 1028.5 206.5L 1041.6 205.53L 1053 204.42L 1072 203.31L 1087.5 201.92L 1100.6 200.99L 1112 199.98L 1131 197.24L 1146.5 194.97L 1159.6 192.77L 1171 190.39L 1190 188.41L 1205.5 186.18L 1218.6 183.61L 1230 180.26" fill="none" stroke-width="0.5" stroke="#000000" stroke-opacity="0.30196" stroke-linecap="round" stroke-linejoin="round"/>
    <path d="M 50 300.75L 109 327.66L 143.51 342.42L 168 352.77L 186.99 361.14L 202.51 367.98L 215.63 374.67L 227 379.23L 245.99 372.24L 261.51 368.21L 274.63 374.22L 286 363.86L 304.99 366.54L 320.51 368.32L 333.63 365.75L 345 370.76L 363.99 366.47L 379.51 368.32L 392.63 365.71L 404 363.86L 422.99 363.86L 438.51 360.86L 451.63 359.65L 463 356.76L 481.99 354.99L 497.51 352.29L 510.63 350.17L 522 342.42L 540.99 341.12L 556.51 334.49L 569.63 332.36L 581 328.86L 599.99 320.66L 615.51 319.32L 628.63 312.29L 640 309.3L 658.99 301.04L 674.51 296.51L 687.63 292.04L 699 287.49L 717.99 279.31L 733.51 272.88L 746.63 267.5L 758 263.07L 776.99 255.2L 792.51 247.53L 805.63 241.73L 817 237.04L 835.99 228.67L 851.51 221.68L 864.63 215.94L 876 210.23L 894.99 201.84L 910.51 193.63L 923.63 185.96L 935 180.13L 953.99 169.48L 969.51 162.02L 982.63 155.31L 994 149.49L 1013 140.63L 1028.5 133.6L 1041.6 127.33L 1053 122.12L 1072 113.49L 1087.5 106.35L 1100.6 100.71L 1112 95.289L 1131 86.914" fill="none" stroke-width="0.5" stroke="#000000" stroke-opacity="0.30196" stroke-linecap="round" stroke-linejoin="round"/>
  </g>
  <path d="M 74 33 L 74 105 L 507 105 L 507 33 z" fill="#FFFFFF" fill-opacity="0.7019607843137254" stroke-width="0.5" stroke="#000000" stroke-opacity="1" stroke-linecap="round" stroke-linejoin="round"/>
  <path d="M 88 52 L 108 52" fill="none" stroke-width="4" stroke="#FF3B30" stroke-opacity="1" stroke-linecap="round" stroke-linejoin="round"/>
  <path d="M 88 52 L 108 52" fill="none" stroke-width="0.5" stroke="#000000" stroke-opacity="0.30196" stroke-linecap="round" stroke-linejoin="round"/>
  <text x="119" y="56.17" font-family="Menlo" font-size="12" font-weight="normal" font-style="normal" fill="#000000" fill-opacity="1">Array&lt;Int&gt; random insertions, reserving capacity</text>
  <path d="M 88 69 L 108 69" fill="none" stroke-width="4" stroke="#007AFF" stroke-opacity="1" stroke-linecap="round" stroke-linejoin="round"/>
  <path d="M 88 69 L 108 69" fill="none" stroke-width="0.5" stroke="#000000" stroke-opacity="0.30196" stroke-linecap="round" stroke-linejoin="round"/>
  <text x="119" y="73.17" font-family="Menlo" font-size="12" font-weight="normal" font-style="normal" fill="#000000" fill-opacity="1">TreeArray&lt;Int&gt; random insertions, reserving capacity</text>
  <path d="M 88 86 L 108 86" fill="none" stroke-width="4" stroke="#28CD41" stroke-opacity="1" stroke-linecap="round" stroke-linejoin="round"/>
  <path d="M 88 86 L 108 86" fill="none" stroke-width="0.5" stroke="#000000" stroke-opacity="0.30196" stroke-linecap="round" stroke-linejoin="round"/>
  <text x="119" y="90.17" font-family="Menlo" font-size="12" font-weight="normal" font-style="normal" fill="#000000" fill-opacity="1">Deque&lt;Int&gt; random insertions, reserving capacity</text>
  <path d="M 50 9 L 50 441 L 1230 441 L 1230 9 z" fill="none" stroke-width="0.5" stroke="#000000" stroke-opacity="1" stroke-linecap="round" stroke-linejoin="round"/>
</svg>
