<!DOCTYPE svg PUBLIC "-//W3C//DTD SVG 1.1//EN" "http://www.w3.org/Graphics/SVG/1.1/DTD/svg11.dtd">
<svg width="1280.0px" height="480.0px" viewBox="0.0 0.0 1280.0 480.0" xmlns="http://www.w3.org/2000/svg" xmlns:xlink="http://www.w3.org/1999/xlink" version="1.1">
  <path d="M 0 0 L 0 480 L 1280 480 L 1280 0 z" fill="#FFFFFF" fill-opacity="1.0" stroke="none"/>
  <text x="50" y="468.7" font-family="Helvetica" font-size="10" font-weight="normal" font-style="normal" fill="#000000" fill-opacity="1">Average per-element processing time over input size (bands: min, mean, mean + 2stddev)</text>
  <a xlink:href="https://github.com/apple/swift-collections-benchmark"><text x="1107" y="468.7" font-family="Helvetica" font-size="10" font-weight="normal" font-style="normal" fill="#000000" fill-opacity="1">swift-collections-benchmark</text></a>
  <path d="M 50 9 L 50 441" fill="none" stroke-width="0.75" stroke="#000000" stroke-opacity="0.49804" stroke-linecap="butt" stroke-linejoin="round"/>
  <text x="47" y="453.7" font-family="Helvetica" font-size="10" font-weight="normal" font-style="normal" fill="#000000" fill-opacity="1">1</text>
  <path d="M 109 9 L 109 441" fill="none" stroke-width="0.75" stroke="#000000" stroke-opacity="0.49804" stroke-linecap="butt" stroke-linejoin="round"/>
  <text x="106" y="453.7" font-family="Helvetica" font-size="10" font-weight="normal" font-style="normal" fill="#000000" fill-opacity="1">2</text>
  <path d="M 168 9 L 168 441" fill="none" stroke-width="0.75" stroke="#000000" stroke-opacity="0.49804" stroke-linecap="butt" stroke-linejoin="round"/>
  <text x="165" y="453.7" font-family="Helvetica" font-size="10" font-weight="normal" font-style="normal" fill="#000000" fill-opacity="1">4</text>
  <path d="M 227 9 L 227 441" fill="none" stroke-width="0.75" stroke="#000000" stroke-opacity="0.49804" stroke-linecap="butt" stroke-linejoin="round"/>
  <text x="224" y="453.7" font-family="Helvetica" font-size="10" font-weight="normal" font-style="normal" fill="#000000" fill-opacity="1">8</text>
  <path d="M 286 9 L 286 441" fill="none" stroke-width="0.75" stroke="#000000" stroke-opacity="0.49804" stroke-linecap="butt" stroke-linejoin="round"/>
  <text x="280" y="453.7" font-family="Helvetica" font-size="10" font-weight="normal" font-style="normal" fill="#000000" fill-opacity="1">16</text>
  <path d="M 345 9 L 345 441" fill="none" stroke-width="0.75" stroke="#000000" stroke-opacity="0.49804" stroke-linecap="butt" stroke-linejoin="round"/>
  <text x="339" y="453.7" font-family="Helvetica" font-size="10" font-weight="normal" font-style="normal" fill="#000000" fill-opacity="1">32</text>
  <path d="M 404 9 L 404 441" fill="none" stroke-width="0.75" stroke="#000000" stroke-opacity="0.49804" stroke-linecap="butt" stroke-linejoin="round"/>
  <text x="398" y="453.7" font-family="Helvetica" font-size="10" font-weight="normal" font-style="normal" fill="#000000" fill-opacity="1">64</text>
  <path d="M 463 9 L 463 441" fill="none" stroke-width="0.75" stroke="#000000" stroke-opacity="0.49804" stroke-linecap="butt" stroke-linejoin="round"/>
  <text x="454.5" y="453.7" font-family="Helvetica" font-size="10" font-weight="normal" font-style="normal" fill="#000000" fill-opacity="1">128</text>
  <path d="M 522 9 L 522 441" fill="none" stroke-width="0.75" stroke="#000000" stroke-opacity="0.49804" stroke-linecap="butt" stroke-linejoin="round"/>
  <text x="513.5" y="453.7" font-family="Helvetica" font-size="10" font-weight="normal" font-style="normal" fill="#000000" fill-opacity="1">256</text>
  <path d="M 581 9 L 581 441" fill="none" stroke-width="0.75" stroke="#000000" stroke-opacity="0.49804" stroke-linecap="butt" stroke-linejoin="round"/>
  <text x="572.5" y="453.7" font-family="Helvetica" font-size="10" font-weight="normal" font-style="normal" fill="#000000" fill-opacity="1">512</text>
  <path d="M 640 9 L 640 441" fill="none" stroke-width="0.75" stroke="#000000" stroke-opacity="0.49804" stroke-linecap="butt" stroke-linejoin="round"/>
  <text x="634.5" y="453.7" font-family="Helvetica" font-size="10" font-weight="normal" font-style="normal" fill="#000000" fill-opacity="1">1k</text>
  <path d="M 699 9 L 699 441" fill="none" stroke-width="0.75" stroke="#000000" stroke-opacity="0.49804" stroke-linecap="butt" stroke-linejoin="round"/>
  <text x="693.5" y="453.7" font-family="Helvetica" font-size="10" font-weight="normal" font-style="normal" fill="#000000" fill-opacity="1">2k</text>
  <path d="M 758 9 L 758 441" fill="none" stroke-width="0.75" stroke="#000000" stroke-opacity="0.49804" stroke-linecap="butt" stroke-linejoin="round"/>
  <text x="752.5" y="453.7" font-family="Helvetica" font-size="10" font-weight="normal" font-style="normal" fill="#000000" fill-opacity="1">4k</text>
  <path d="M 817 9 L 817 441" fill="none" stroke-width="0.75" stroke="#000000" stroke-opacity="0.49804" stroke-linecap="butt" stroke-linejoin="round"/>
  <text x="811.5" y="453.7" font-family="Helvetica" font-size="10" font-weight="normal" font-style="normal" fill="#000000" fill-opacity="1">8k</text>
  <path d="M 876 9 L 876 441" fill="none" stroke-width="0.75" stroke="#000000" stroke-opacity="0.49804" stroke-linecap="butt" stroke-linejoin="round"/>
  <text x="867.5" y="453.7" font-family="Helvetica" font-size="10" font-weight="normal" font-style="normal" fill="#000000" fill-opacity="1">16k</text>
  <path d="M 935 9 L 935 441" fill="none" stroke-width="0.75" stroke="#000000" stroke-opacity="0.49804" stroke-linecap="butt" stroke-linejoin="round"/>
  <text x="926.5" y="453.7" font-family="Helvetica" font-size="10" font-weight="normal" font-style="normal" fill="#000000" fill-opacity="1">32k</text>
  <path d="M 994 9 L 994 441" fill="none" stroke-width="0.75" stroke="#000000" stroke-opacity="0.49804" stroke-linecap="butt" stroke-linejoin="round"/>
  <text x="985.5" y="453.7" font-family="Helvetica" font-size="10" font-weight="normal" font-style="normal" fill="#000000" fill-opacity="1">64k</text>
  <path d="M 1053 9 L 1053 441" fill="none" stroke-width="0.75" stroke="#000000" stroke-opacity="0.49804" stroke-linecap="butt" stroke-linejoin="round"/>
  <text x="1042" y="453.7" font-family="Helvetica" font-size="10" font-weight="normal" font-style="normal" fill="#000000" fill-opacity="1">128k</text>
  <path d="M 1112 9 L 1112 441" fill="none" stroke-width="0.75" stroke="#000000" stroke-opacity="0.49804" stroke-linecap="butt" stroke-linejoin="round"/>
  <text x="1101" y="453.7" font-family="Helvetica" font-size="10" font-weight="normal" font-style="normal" fill="#000000" fill-opacity="1">256k</text>
  <path d="M 1171 9 L 1171 441" fill="none" stroke-width="0.75" stroke="#000000" stroke-opacity="0.49804" stroke-linecap="butt" stroke-linejoin="round"/>
  <text x="1160" y="453.7" font-family="Helvetica" font-size="10" font-weight="normal" font-style="normal" fill="#000000" fill-opacity="1">512k</text>
  <path d="M 1230 9 L 1230 441" fill="none" stroke-width="0.75" stroke="#000000" stroke-opacity="0.49804" stroke-linecap="butt" stroke-linejoin="round"/>
  <text x="1223" y="453.7" font-family="Helvetica" font-size="10" font-weight="normal" font-style="normal" fill="#000000" fill-opacity="1">1M</text>
  <path d="M 50 441 L 1230 441" fill="none" stroke-width="0.75" stroke="#000000" stroke-opacity="0.49804" stroke-linecap="butt" stroke-linejoin="round"/>
  <text x="27" y="442.7" font-family="Helvetica" font-size="10" font-weight="normal" font-style="normal" fill="#000000" fill-opacity="1">1 ns</text>
  <text x="1236" y="442.7" font-family="Helvetica" font-size="10" font-weight="normal" font-style="normal" fill="#000000" fill-opacity="1">1 ns</text>
  <path d="M 50 354.6 L 1230 354.6" fill="none" stroke-width="0.75" stroke="#000000" stroke-opacity="0.49804" stroke-linecap="butt" stroke-linejoin="round"/>
  <text x="21" y="356.3" font-family="Helvetica" font-size="10" font-weight="normal" font-style="normal" fill="#000000" fill-opacity="1">10 ns</text>
  <text x="1236" y="356.3" font-family="Helvetica" font-size="10" font-weight="normal" font-style="normal" fill="#000000" fill-opacity="1">10 ns</text>
  <path d="M 50 268.2 L 1230 268.2" fill="none" stroke-width="0.75" stroke="#000000" stroke-opacity="0.49804" stroke-linecap="butt" stroke-linejoin="round"/>
  <text x="16" y="269.9" font-family="Helvetica" font-size="10" font-weight="normal" font-style="normal" fill="#000000" fill-opacity="1">100 ns</text>
  <text x="1236" y="269.9" font-family="Helvetica" font-size="10" font-weight="normal" font-style="normal" fill="#000000" fill-opacity="1">100 ns</text>
  <path d="M 50 181.8 L 1230 181.8" fill="none" stroke-width="0.75" stroke="#000000" stroke-opacity="0.49804" stroke-linecap="butt" stroke-linejoin="round"/>
  <text x="26" y="183.5" font-family="Helvetica" font-size="10" font-weight="normal" font-style="normal" fill="#000000" fill-opacity="1">1 µs</text>
  <text x="1236" y="183.5" font-family="Helvetica" font-size="10" font-weight="normal" font-style="normal" fill="#000000" fill-opacity="1">1 µs</text>
  <path d="M 50 95.4 L 1230 95.4" fill="none" stroke-width="0.75" stroke="#000000" stroke-opacity="0.49804" stroke-linecap="butt" stroke-linejoin="round"/>
  <text x="21" y="97.1" font-family="Helvetica" font-size="10" font-weight="normal" font-style="normal" fill="#000000" fill-opacity="1">10 µs</text>
  <text x="1236" y="97.1" font-family="Helvetica" font-size="10" font-weight="normal" font-style="normal" fill="#000000" fill-opacity="1">10 µs</text>
  <path d="M 50 9 L 1230 9" fill="none" stroke-width="0.75" stroke="#000000" stroke-opacity="0.49804" stroke-linecap="butt" stroke-linejoin="round"/>
  <text x="15" y="10.7" font-family="Helvetica" font-size="10" font-weight="normal" font-style="normal" fill="#000000" fill-opacity="1">100 µs</text>
  <text x="1236" y="10.7" font-family="Helvetica" font-size="10" font-weight="normal" font-style="normal" fill="#000000" fill-opacity="1">100 µs</text>
  <path d="M 50 414.99 L 1230 414.99" fill="none" stroke-width="0.5" stroke="#000000" stroke-opacity="0.25882" stroke-linecap="butt" stroke-linejoin="round" stroke-dasharray="6 3" stroke-dashoffset="0"/>
  <path d="M 50 388.98 L 1230 388.98" fill="none" stroke-width="0.5" stroke="#000000" stroke-opacity="0.25882" stroke-linecap="butt" stroke-linejoin="round" stroke-dasharray="6 3" stroke-dashoffset="0"/>
  <path d="M 50 362.97 L 1230 362.97" fill="none" stroke-width="0.5" stroke="#000000" stroke-opacity="0.25882" stroke-linecap="butt" stroke-linejoin="round" stroke-dasharray="6 3" stroke-dashoffset="0"/>
  <path d="M 50 336.96 L 1230 336.96" fill="none" stroke-width="0.5" stroke="#000000" stroke-opacity="0.25882" stroke-linecap="butt" stroke-linejoin="round" stroke-dasharray="6 3" stroke-dashoffset="0"/>
  <path d="M 50 310.96 L 1230 310.96" fill="none" stroke-width="0.5" stroke="#000000" stroke-opacity="0.25882" stroke-linecap="butt" stroke-linejoin="round" stroke-dasharray="6 3" stroke-dashoffset="0"/>
  <path d="M 50 284.95 L 1230 284.95" fill="none" stroke-width="0.5" stroke="#000000" stroke-opacity="0.25882" stroke-linecap="butt" stroke-linejoin="round" stroke-dasharray="6 3" stroke-dashoffset="0"/>
  <path d="M 50 258.94 L 1230 258.94" fill="none" stroke-width="0.5" stroke="#000000" stroke-opacity="0.25882" stroke-linecap="butt" stroke-linejoin="round" stroke-dasharray="6 3" stroke-dashoffset="0"/>
  <path d="M 50 232.93 L 1230 232.93" fill="none" stroke-width="0.5" stroke="#000000" stroke-opacity="0.25882" stroke-linecap="butt" stroke-linejoin="round" stroke-dasharray="6 3" stroke-dashoffset="0"/>
  <path d="M 50 206.92 L 1230 206.92" fill="none" stroke-width="0.5" stroke="#000000" stroke-opacity="0.25882" stroke-linecap="butt" stroke-linejoin="round" stroke-dasharray="6 3" stroke-dashoffset="0"/>
  <path d="M 50 180.91 L 1230 180.91" fill="none" stroke-width="0.5" stroke="#000000" stroke-opacity="0.25882" stroke-linecap="butt" stroke-linejoin="round" stroke-dasharray="6 3" stroke-dashoffset="0"/>
  <path d="M 50 154.9 L 1230 154.9" fill="none" stroke-width="0.5" stroke="#000000" stroke-opacity="0.25882" stroke-linecap="butt" stroke-linejoin="round" stroke-dasharray="6 3" stroke-dashoffset="0"/>
  <path d="M 50 128.89 L 1230 128.89" fill="none" stroke-width="0.5" stroke="#000000" stroke-opacity="0.25882" stroke-linecap="butt" stroke-linejoin="round" stroke-dasharray="6 3" stroke-dashoffset="0"/>
  <path d="M 50 102.88 L 1230 102.88" fill="none" stroke-width="0.5" stroke="#000000" stroke-opacity="0.25882" stroke-linecap="butt" stroke-linejoin="round" stroke-dasharray="6 3" stroke-dashoffset="0"/>
  <path d="M 50 76.874 L 1230 76.874" fill="none" stroke-width="0.5" stroke="#000000" stroke-opacity="0.25882" stroke-linecap="butt" stroke-linejoin="round" stroke-dasharray="6 3" stroke-dashoffset="0"/>
  <path d="M 50 50.865 L 1230 50.865" fill="none" stroke-width="0.5" stroke="#000000" stroke-opacity="0.25882" stroke-linecap="butt" stroke-linejoin="round" stroke-dasharray="6 3" stroke-dashoffset="0"/>
  <path d="M 50 24.856 L 1230 24.856" fill="none" stroke-width="0.5" stroke="#000000" stroke-opacity="0.25882" stroke-linecap="butt" stroke-linejoin="round" stroke-dasharray="6 3" stroke-dashoffset="0"/>
  <path d="M 74 33 L 74 88 L 507 88 L 507 33 z" fill="#FFFFFF" fill-opacity="1.0" stroke="none"/>
  <clipPath id="clip-0">
    <path d="M 50 9 L 50 441 L 1230 441 L 1230 9 z"/>
  </clipPath>
  <g clip-path="url(#clip-0)">
    <path d="M 50 301.66L 109 301.2L 143.51 282.77L 168 280.47L 186.99 288.26L 202.51 282.26L 215.63 280.83L 227 263.23L 245.99 275.06L 261.51 264.74L 274.63 268.01L 286 268.71L 304.99 264.53L 320.51 259.57L 333.63 259.66L 345 261.56L 363.99 258.9L 379.51 254.46L 392.63 250.6L 404 252.14L 422.99 251.34L 438.51 248.79L 451.63 246.5L 463 247.39L 481.99 244.7L 497.51 243.66L 510.63 241.92L 522 241.26L 540.99 240.41L 556.51 236.25L 569.63 236.64L 581 235.6L 599.99 233.31L 615.51 231.59L 628.63 229.3L 640 231.14L 658.99 229.63L 674.51 229.01L 687.63 229.21L 699 228.41L 717.99 226.73L 733.51 225.7L 746.63 224.62L 758 224.66L 776.99 222.51L 792.51 221.94L 805.63 220.4L 817 220.28L 835.99 218.44L 851.51 217.48L 864.63 216.03L 876 216.78L 894.99 213.92L 910.51 212.49L 923.63 212.85L 935 212.19L 953.99 210.58L 969.51 210.12L 982.63 208.45L 994 208.03L 1013 206.75L 1028.5 205.72L 1041.6 205.3L 1053 203.6L 1072 202.72L 1087.5 201.65L 1100.6 199.95L 1112 198.58L 1131 196.97L 1146.5 193.49L 1159.6 190.29L 1171 187.25L 1190 184.4L 1205.5 179.78L 1218.6 177.8L 1230 178.95L 1230 181.03L 1218.6 184.33L 1205.5 186.81L 1190 188.92L 1171 190.96L 1159.6 190.56L 1146.5 195.04L 1131 197.13L 1112 199.4L 1100.6 200.44L 1087.5 201.83L 1072 202.97L 1053 204.54L 1041.6 205.35L 1028.5 206.05L 1013 207.38L 994 208.8L 982.63 209.74L 969.51 210.12L 953.99 211.28L 935 212.21L 923.63 213.66L 910.51 214.02L 894.99 215.77L 876 216.78L 864.63 217.48L 851.51 218.25L 835.99 219.5L 817 220.93L 805.63 221.89L 792.51 222.54L 776.99 223.89L 758 224.91L 746.63 226.25L 733.51 227.08L 717.99 228.3L 699 229.95L 687.63 229.45L 674.51 231.55L 658.99 232.1L 640 234.01L 628.63 231.33L 615.51 235.19L 599.99 236.02L 581 237.38L 569.63 238.75L 556.51 239.41L 540.99 240.68L 522 242.19L 510.63 242.8L 497.51 245.4L 481.99 245.4L 463 249.03L 451.63 247.72L 438.51 249.92L 422.99 251.58L 404 253.38L 392.63 255.21L 379.51 259.05L 363.99 258.9L 345 264.84L 333.63 266.13L 320.51 266.04L 304.99 265.93L 286 270.62L 274.63 275.06L 261.51 278.33L 245.99 275.06L 227 266.68L 215.63 280.83L 202.51 290.18L 186.99 288.51L 168 292.74L 143.51 301.05L 109 301.2L 50 301.66" fill="#007AFF" fill-opacity="0.30196078431372547" stroke="none"/>
    <path d="M 50 300.75L 109 327.66L 143.51 341.17L 168 352.77L 186.99 361.14L 202.51 367.98L 215.63 374.67L 227 377.97L 245.99 347.61L 261.51 367.58L 274.63 374.22L 286 363.86L 304.99 353.95L 320.51 368L 333.63 365.75L 345 370.76L 363.99 366.29L 379.51 368.32L 392.63 365.58L 404 363.86L 422.99 363.86L 438.51 358.27L 451.63 357.44L 463 353.28L 481.99 354.96L 497.51 348.21L 510.63 346.02L 522 333.56L 540.99 338.34L 556.51 330.34L 569.63 331.55L 581 327.58L 599.99 319.15L 615.51 318.43L 628.63 307.5L 640 306.08L 658.99 299.3L 674.51 294L 687.63 287.92L 699 285.33L 717.99 278.97L 733.51 271.83L 746.63 267.14L 758 262.73L 776.99 254.29L 792.51 247.05L 805.63 241.66L 817 237L 835.99 227.57L 851.51 221.32L 864.63 215.38L 876 208.36L 894.99 201.57L 910.51 193.26L 923.63 185.3L 935 180.09L 953.99 168.41L 969.51 161.75L 982.63 154.82L 994 148.94L 1013 140.43L 1028.5 133.27L 1041.6 126.87L 1053 121.91L 1072 113.48L 1087.5 105.99L 1100.6 100.34L 1112 94.422L 1131 86.914L 1131 86.914L 1112 95.601L 1100.6 100.84L 1087.5 106.48L 1072 113.49L 1053 122.2L 1041.6 127.49L 1028.5 133.72L 1013 140.7L 994 149.68L 982.63 155.48L 969.51 162.12L 953.99 169.87L 935 180.15L 923.63 186.2L 910.51 193.76L 894.99 201.93L 876 210.91L 864.63 216.15L 851.51 221.81L 835.99 229.06L 817 237.06L 805.63 241.75L 792.51 247.71L 776.99 255.52L 758 263.19L 746.63 267.63L 733.51 273.26L 717.99 279.43L 699 288.28L 687.63 293.61L 674.51 297.44L 658.99 301.67L 640 310.5L 628.63 314.15L 615.51 319.64L 599.99 321.21L 581 329.32L 569.63 332.65L 556.51 336.07L 540.99 342.15L 522 346.13L 510.63 351.75L 497.51 353.85L 481.99 355L 463 358.07L 451.63 360.46L 438.51 361.82L 422.99 363.86L 404 363.86L 392.63 365.75L 379.51 368.32L 363.99 366.54L 345 370.76L 333.63 365.75L 320.51 368.43L 304.99 372.24L 286 363.86L 274.63 374.22L 261.51 368.43L 245.99 387.15L 227 379.68L 215.63 374.67L 202.51 367.98L 186.99 361.14L 168 352.77L 143.51 342.88L 109 327.66L 50 300.75" fill="#FF3B30" fill-opacity="0.30196078431372547" stroke="none"/>
    <path d="M 50 301.66L 109 301.2L 143.51 295.35L 168 289.13L 186.99 288.45L 202.51 287.95L 215.63 280.83L 227 265.75L 245.99 275.06L 261.51 274.28L 274.63 273.09L 286 270.11L 304.99 265.56L 320.51 264.24L 333.63 264.33L 345 263.95L 363.99 258.9L 379.51 257.8L 392.63 253.95L 404 253.05L 422.99 251.52L 438.51 249.62L 451.63 247.39L 463 248.6L 481.99 245.22L 497.51 244.94L 510.63 242.57L 522 241.94L 540.99 240.61L 556.51 238.56L 569.63 238.19L 581 236.9L 599.99 235.29L 615.51 234.22L 628.63 230.79L 640 233.24L 658.99 231.44L 674.51 230.87L 687.63 229.39L 699 229.54L 717.99 227.89L 733.51 226.71L 746.63 225.82L 758 224.84L 776.99 223.53L 792.51 222.38L 805.63 221.49L 817 220.76L 835.99 219.22L 851.51 218.05L 864.63 217.09L 876 216.78L 894.99 215.27L 910.51 213.61L 923.63 213.44L 935 212.21L 953.99 211.1L 969.51 210.12L 982.63 209.4L 994 208.6L 1013 207.21L 1028.5 205.96L 1041.6 205.34L 1053 204.29L 1072 202.9L 1087.5 201.78L 1100.6 200.31L 1112 199.19L 1131 197.09L 1146.5 194.63L 1159.6 190.48L 1171 189.96L 1190 187.69L 1205.5 184.85L 1218.6 182.51L 1230 180.48" fill="none" stroke-width="4" stroke="#007AFF" stroke-opacity="1" stroke-linecap="round" stroke-linejoin="round"/>
    <path d="M 50 300.75L 109 327.66L 143.51 342.42L 168 352.77L 186.99 361.14L 202.51 367.98L 215.63 374.67L 227 379.23L 245.99 372.24L 261.51 368.21L 274.63 374.22L 286 363.86L 304.99 366.54L 320.51 368.32L 333.63 365.75L 345 370.76L 363.99 366.47L 379.51 368.32L 392.63 365.71L 404 363.86L 422.99 363.86L 438.51 360.86L 451.63 359.65L 463 356.76L 481.99 354.99L 497.51 352.29L 510.63 350.17L 522 342.42L 540.99 341.12L 556.51 334.49L 569.63 332.36L 581 328.86L 599.99 320.66L 615.51 319.32L 628.63 312.29L 640 309.3L 658.99 301.04L 674.51 296.51L 687.63 292.04L 699 287.49L 717.99 279.31L 733.51 272.88L 746.63 267.5L 758 263.07L 776.99 255.2L 792.51 247.53L 805.63 241.73L 817 237.04L 835.99 228.67L 851.51 221.68L 864.63 215.94L 876 210.23L 894.99 201.84L 910.51 193.63L 923.63 185.96L 935 180.13L 953.99 169.48L 969.51 162.02L 982.63 155.31L 994 149.49L 1013 140.63L 1028.5 133.6L 1041.6 127.33L 1053 122.12L 1072 113.49L 1087.5 106.35L 1100.6 100.71L 1112 95.289L 1131 86.914" fill="none" stroke-width="4" stroke="#FF3B30" stroke-opacity="1" stroke-linecap="round" stroke-linejoin="round"/>
    <path d="M 50 301.66L 109 301.2L 143.51 295.35L 168 289.13L 186.99 288.45L 202.51 287.95L 215.63 280.83L 227 265.75L 245.99 275.06L 261.51 274.28L 274.63 273.09L 286 270.11L 304.99 265.56L 320.51 264.24L 333.63 264.33L 345 263.95L 363.99 258.9L 379.51 257.8L 392.63 253.95L 404 253.05L 422.99 251.52L 438.51 249.62L 451.63 247.39L 463 248.6L 481.99 245.22L 497.51 244.94L 510.63 242.57L 522 241.94L 540.99 240.61L 556.51 238.56L 569.63 238.19L 581 236.9L 599.99 235.29L 615.51 234.22L 628.63 230.79L 640 233.24L 658.99 231.44L 674.51 230.87L 687.63 229.39L 699 229.54L 717.99 227.89L 733.51 226.71L 746.63 225.82L 758 224.84L 776.99 223.53L 792.51 222.38L 805.63 221.49L 817 220.76L 835.99 219.22L 851.51 218.05L 864.63 217.09L 876 216.78L 894.99 215.27L 910.51 213.61L 923.63 213.44L 935 212.21L 953.99 211.1L 969.51 210.12L 982.63 209.4L 994 208.6L 1013 207.21L 1028.5 205.96L 1041.6 205.34L 1053 204.29L 1072 202.9L 1087.5 201.78L 1100.6 200.31L 1112 199.19L 1131 197.09L 1146.5 194.63L 1159.6 190.48L 1171 189.96L 1190 187.69L 1205.5 184.85L 1218.6 182.51L 1230 180.48" fill="none" stroke-width="0.5" stroke="#000000" stroke-opacity="0.30196" stroke-linecap="round" stroke-linejoin="round"/>
    <path d="M 50 300.75L 109 327.66L 143.51 342.42L 168 352.77L 186.99 361.14L 202.51 367.98L 215.63 374.67L 227 379.23L 245.99 372.24L 261.51 368.21L 274.63 374.22L 286 363.86L 304.99 366.54L 320.51 368.32L 333.63 365.75L 345 370.76L 363.99 366.47L 379.51 368.32L 392.63 365.71L 404 363.86L 422.99 363.86L 438.51 360.86L 451.63 359.65L 463 356.76L 481.99 354.99L 497.51 352.29L 510.63 350.17L 522 342.42L 540.99 341.12L 556.51 334.49L 569.63 332.36L 581 328.86L 599.99 320.66L 615.51 319.32L 628.63 312.29L 640 309.3L 658.99 301.04L 674.51 296.51L 687.63 292.04L 699 287.49L 717.99 279.31L 733.51 272.88L 746.63 267.5L 758 263.07L 776.99 255.2L 792.51 247.53L 805.63 241.73L 817 237.04L 835.99 228.67L 851.51 221.68L 864.63 215.94L 876 210.23L 894.99 201.84L 910.51 193.63L 923.63 185.96L 935 180.13L 953.99 169.48L 969.51 162.02L 982.63 155.31L 994 149.49L 1013 140.63L 1028.5 133.6L 1041.6 127.33L 1053 122.12L 1072 113.49L 1087.5 106.35L 1100.6 100.71L 1112 95.289L 1131 86.914" fill="none" stroke-width="0.5" stroke="#000000" stroke-opacity="0.30196" stroke-linecap="round" stroke-linejoin="round"/>
  </g>
  <path d="M 74 33 L 74 88 L 507 88 L 507 33 z" fill="#FFFFFF" fill-opacity="0.7019607843137254" stroke-width="0.5" stroke="#000000" stroke-opacity="1" stroke-linecap="round" stroke-linejoin="round"/>
  <path d="M 88 52 L 108 52" fill="none" stroke-width="4" stroke="#FF3B30" stroke-opacity="1" stroke-linecap="round" stroke-linejoin="round"/>
  <path d="M 88 52 L 108 52" fill="none" stroke-width="0.5" stroke="#000000" stroke-opacity="0.30196" stroke-linecap="round" stroke-linejoin="round"/>
  <text x="119" y="56.17" font-family="Menlo" font-size="12" font-weight="normal" font-style="normal" fill="#000000" fill-opacity="1">Array&lt;Int&gt; random insertions, reserving capacity</text>
  <path d="M 88 69 L 108 69" fill="none" stroke-width="4" stroke="#007AFF" stroke-opacity="1" stroke-linecap="round" stroke-linejoin="round"/>
  <path d="M 88 69 L 108 69" fill="none" stroke-width="0.5" stroke="#000000" stroke-opacity="0.30196" stroke-linecap="round" stroke-linejoin="round"/>
  <text x="119" y="73.17" font-family="Menlo" font-size="12" font-weight="normal" font-style="normal" fill="#000000" fill-opacity="1">TreeArray&lt;Int&gt; random insertions, reserving capacity</text>
  <path d="M 50 9 L 50 441 L 1230 441 L 1230 9 z" fill="none" stroke-width="0.5" stroke="#000000" stroke-opacity="1" stroke-linecap="round" stroke-linejoin="round"/>
</svg>
