<!DOCTYPE svg PUBLIC "-//W3C//DTD SVG 1.1//EN" "http://www.w3.org/Graphics/SVG/1.1/DTD/svg11.dtd">
<svg width="1280.0px" height="480.0px" viewBox="0.0 0.0 1280.0 480.0" xmlns="http://www.w3.org/2000/svg" xmlns:xlink="http://www.w3.org/1999/xlink" version="1.1">
  <path d="M 0 0 L 0 480 L 1280 480 L 1280 0 z" fill="#FFFFFF" fill-opacity="1.0" stroke="none"/>
  <text x="50" y="468.7" font-family="Helvetica" font-size="10" font-weight="normal" font-style="normal" fill="#000000" fill-opacity="1">Average per-element processing time over input size (bands: min, mean, mean + 2stddev)</text>
  <a xlink:href="https://github.com/apple/swift-collections-benchmark"><text x="1107" y="468.7" font-family="Helvetica" font-size="10" font-weight="normal" font-style="normal" fill="#000000" fill-opacity="1">swift-collections-benchmark</text></a>
  <path d="M 50 9 L 50 441" fill="none" stroke-width="0.75" stroke="#000000" stroke-opacity="0.49804" stroke-linecap="butt" stroke-linejoin="round"/>
  <text x="47" y="453.7" font-family="Helvetica" font-size="10" font-weight="normal" font-style="normal" fill="#000000" fill-opacity="1">1</text>
  <path d="M 109 9 L 109 441" fill="none" stroke-width="0.75" stroke="#000000" stroke-opacity="0.49804" stroke-linecap="butt" stroke-linejoin="round"/>
  <text x="106" y="453.7" font-family="Helvetica" font-size="10" font-weight="normal" font-style="normal" fill="#000000" fill-opacity="1">2</text>
  <path d="M 168 9 L 168 441" fill="none" stroke-width="0.75" stroke="#000000" stroke-opacity="0.49804" stroke-linecap="butt" stroke-linejoin="round"/>
  <text x="165" y="453.7" font-family="Helvetica" font-size="10" font-weight="normal" font-style="normal" fill="#000000" fill-opacity="1">4</text>
  <path d="M 227 9 L 227 441" fill="none" stroke-width="0.75" stroke="#000000" stroke-opacity="0.49804" stroke-linecap="butt" stroke-linejoin="round"/>
  <text x="224" y="453.7" font-family="Helvetica" font-size="10" font-weight="normal" font-style="normal" fill="#000000" fill-opacity="1">8</text>
  <path d="M 286 9 L 286 441" fill="none" stroke-width="0.75" stroke="#000000" stroke-opacity="0.49804" stroke-linecap="butt" stroke-linejoin="round"/>
  <text x="280" y="453.7" font-family="Helvetica" font-size="10" font-weight="normal" font-style="normal" fill="#000000" fill-opacity="1">16</text>
  <path d="M 345 9 L 345 441" fill="none" stroke-width="0.75" stroke="#000000" stroke-opacity="0.49804" stroke-linecap="butt" stroke-linejoin="round"/>
  <text x="339" y="453.7" font-family="Helvetica" font-size="10" font-weight="normal" font-style="normal" fill="#000000" fill-opacity="1">32</text>
  <path d="M 404 9 L 404 441" fill="none" stroke-width="0.75" stroke="#000000" stroke-opacity="0.49804" stroke-linecap="butt" stroke-linejoin="round"/>
  <text x="398" y="453.7" font-family="Helvetica" font-size="10" font-weight="normal" font-style="normal" fill="#000000" fill-opacity="1">64</text>
  <path d="M 463 9 L 463 441" fill="none" stroke-width="0.75" stroke="#000000" stroke-opacity="0.49804" stroke-linecap="butt" stroke-linejoin="round"/>
  <text x="454.5" y="453.7" font-family="Helvetica" font-size="10" font-weight="normal" font-style="normal" fill="#000000" fill-opacity="1">128</text>
  <path d="M 522 9 L 522 441" fill="none" stroke-width="0.75" stroke="#000000" stroke-opacity="0.49804" stroke-linecap="butt" stroke-linejoin="round"/>
  <text x="513.5" y="453.7" font-family="Helvetica" font-size="10" font-weight="normal" font-style="normal" fill="#000000" fill-opacity="1">256</text>
  <path d="M 581 9 L 581 441" fill="none" stroke-width="0.75" stroke="#000000" stroke-opacity="0.49804" stroke-linecap="butt" stroke-linejoin="round"/>
  <text x="572.5" y="453.7" font-family="Helvetica" font-size="10" font-weight="normal" font-style="normal" fill="#000000" fill-opacity="1">512</text>
  <path d="M 640 9 L 640 441" fill="none" stroke-width="0.75" stroke="#000000" stroke-opacity="0.49804" stroke-linecap="butt" stroke-linejoin="round"/>
  <text x="634.5" y="453.7" font-family="Helvetica" font-size="10" font-weight="normal" font-style="normal" fill="#000000" fill-opacity="1">1k</text>
  <path d="M 699 9 L 699 441" fill="none" stroke-width="0.75" stroke="#000000" stroke-opacity="0.49804" stroke-linecap="butt" stroke-linejoin="round"/>
  <text x="693.5" y="453.7" font-family="Helvetica" font-size="10" font-weight="normal" font-style="normal" fill="#000000" fill-opacity="1">2k</text>
  <path d="M 758 9 L 758 441" fill="none" stroke-width="0.75" stroke="#000000" stroke-opacity="0.49804" stroke-linecap="butt" stroke-linejoin="round"/>
  <text x="752.5" y="453.7" font-family="Helvetica" font-size="10" font-weight="normal" font-style="normal" fill="#000000" fill-opacity="1">4k</text>
  <path d="M 817 9 L 817 441" fill="none" stroke-width="0.75" stroke="#000000" stroke-opacity="0.49804" stroke-linecap="butt" stroke-linejoin="round"/>
  <text x="811.5" y="453.7" font-family="Helvetica" font-size="10" font-weight="normal" font-style="normal" fill="#000000" fill-opacity="1">8k</text>
  <path d="M 876 9 L 876 441" fill="none" stroke-width="0.75" stroke="#000000" stroke-opacity="0.49804" stroke-linecap="butt" stroke-linejoin="round"/>
  <text x="867.5" y="453.7" font-family="Helvetica" font-size="10" font-weight="normal" font-style="normal" fill="#000000" fill-opacity="1">16k</text>
  <path d="M 935 9 L 935 441" fill="none" stroke-width="0.75" stroke="#000000" stroke-opacity="0.49804" stroke-linecap="butt" stroke-linejoin="round"/>
  <text x="926.5" y="453.7" font-family="Helvetica" font-size="10" font-weight="normal" font-style="normal" fill="#000000" fill-opacity="1">32k</text>
  <path d="M 994 9 L 994 441" fill="none" stroke-width="0.75" stroke="#000000" stroke-opacity="0.49804" stroke-linecap="butt" stroke-linejoin="round"/>
  <text x="985.5" y="453.7" font-family="Helvetica" font-size="10" font-weight="normal" font-style="normal" fill="#000000" fill-opacity="1">64k</text>
  <path d="M 1053 9 L 1053 441" fill="none" stroke-width="0.75" stroke="#000000" stroke-opacity="0.49804" stroke-linecap="butt" stroke-linejoin="round"/>
  <text x="1042" y="453.7" font-family="Helvetica" font-size="10" font-weight="normal" font-style="normal" fill="#000000" fill-opacity="1">128k</text>
  <path d="M 1112 9 L 1112 441" fill="none" stroke-width="0.75" stroke="#000000" stroke-opacity="0.49804" stroke-linecap="butt" stroke-linejoin="round"/>
  <text x="1101" y="453.7" font-family="Helvetica" font-size="10" font-weight="normal" font-style="normal" fill="#000000" fill-opacity="1">256k</text>
  <path d="M 1171 9 L 1171 441" fill="none" stroke-width="0.75" stroke="#000000" stroke-opacity="0.49804" stroke-linecap="butt" stroke-linejoin="round"/>
  <text x="1160" y="453.7" font-family="Helvetica" font-size="10" font-weight="normal" font-style="normal" fill="#000000" fill-opacity="1">512k</text>
  <path d="M 1230 9 L 1230 441" fill="none" stroke-width="0.75" stroke="#000000" stroke-opacity="0.49804" stroke-linecap="butt" stroke-linejoin="round"/>
  <text x="1223" y="453.7" font-family="Helvetica" font-size="10" font-weight="normal" font-style="normal" fill="#000000" fill-opacity="1">1M</text>
  <path d="M 50 441 L 1230 441" fill="none" stroke-width="0.75" stroke="#000000" stroke-opacity="0.49804" stroke-linecap="butt" stroke-linejoin="round"/>
  <text x="27" y="442.7" font-family="Helvetica" font-size="10" font-weight="normal" font-style="normal" fill="#000000" fill-opacity="1">1 ns</text>
  <text x="1236" y="442.7" font-family="Helvetica" font-size="10" font-weight="normal" font-style="normal" fill="#000000" fill-opacity="1">1 ns</text>
  <path d="M 50 354.6 L 1230 354.6" fill="none" stroke-width="0.75" stroke="#000000" stroke-opacity="0.49804" stroke-linecap="butt" stroke-linejoin="round"/>
  <text x="21" y="356.3" font-family="Helvetica" font-size="10" font-weight="normal" font-style="normal" fill="#000000" fill-opacity="1">10 ns</text>
  <text x="1236" y="356.3" font-family="Helvetica" font-size="10" font-weight="normal" font-style="normal" fill="#000000" fill-opacity="1">10 ns</text>
  <path d="M 50 268.2 L 1230 268.2" fill="none" stroke-width="0.75" stroke="#000000" stroke-opacity="0.49804" stroke-linecap="butt" stroke-linejoin="round"/>
  <text x="16" y="269.9" font-family="Helvetica" font-size="10" font-weight="normal" font-style="normal" fill="#000000" fill-opacity="1">100 ns</text>
  <text x="1236" y="269.9" font-family="Helvetica" font-size="10" font-weight="normal" font-style="normal" fill="#000000" fill-opacity="1">100 ns</text>
  <path d="M 50 181.8 L 1230 181.8" fill="none" stroke-width="0.75" stroke="#000000" stroke-opacity="0.49804" stroke-linecap="butt" stroke-linejoin="round"/>
  <text x="26" y="183.5" font-family="Helvetica" font-size="10" font-weight="normal" font-style="normal" fill="#000000" fill-opacity="1">1 µs</text>
  <text x="1236" y="183.5" font-family="Helvetica" font-size="10" font-weight="normal" font-style="normal" fill="#000000" fill-opacity="1">1 µs</text>
  <path d="M 50 95.4 L 1230 95.4" fill="none" stroke-width="0.75" stroke="#000000" stroke-opacity="0.49804" stroke-linecap="butt" stroke-linejoin="round"/>
  <text x="21" y="97.1" font-family="Helvetica" font-size="10" font-weight="normal" font-style="normal" fill="#000000" fill-opacity="1">10 µs</text>
  <text x="1236" y="97.1" font-family="Helvetica" font-size="10" font-weight="normal" font-style="normal" fill="#000000" fill-opacity="1">10 µs</text>
  <path d="M 50 9 L 1230 9" fill="none" stroke-width="0.75" stroke="#000000" stroke-opacity="0.49804" stroke-linecap="butt" stroke-linejoin="round"/>
  <text x="15" y="10.7" font-family="Helvetica" font-size="10" font-weight="normal" font-style="normal" fill="#000000" fill-opacity="1">100 µs</text>
  <text x="1236" y="10.7" font-family="Helvetica" font-size="10" font-weight="normal" font-style="normal" fill="#000000" fill-opacity="1">100 µs</text>
  <path d="M 50 414.99 L 1230 414.99" fill="none" stroke-width="0.5" stroke="#000000" stroke-opacity="0.25882" stroke-linecap="butt" stroke-linejoin="round" stroke-dasharray="6 3" stroke-dashoffset="0"/>
  <path d="M 50 388.98 L 1230 388.98" fill="none" stroke-width="0.5" stroke="#000000" stroke-opacity="0.25882" stroke-linecap="butt" stroke-linejoin="round" stroke-dasharray="6 3" stroke-dashoffset="0"/>
  <path d="M 50 362.97 L 1230 362.97" fill="none" stroke-width="0.5" stroke="#000000" stroke-opacity="0.25882" stroke-linecap="butt" stroke-linejoin="round" stroke-dasharray="6 3" stroke-dashoffset="0"/>
  <path d="M 50 336.96 L 1230 336.96" fill="none" stroke-width="0.5" stroke="#000000" stroke-opacity="0.25882" stroke-linecap="butt" stroke-linejoin="round" stroke-dasharray="6 3" stroke-dashoffset="0"/>
  <path d="M 50 310.96 L 1230 310.96" fill="none" stroke-width="0.5" stroke="#000000" stroke-opacity="0.25882" stroke-linecap="butt" stroke-linejoin="round" stroke-dasharray="6 3" stroke-dashoffset="0"/>
  <path d="M 50 284.95 L 1230 284.95" fill="none" stroke-width="0.5" stroke="#000000" stroke-opacity="0.25882" stroke-linecap="butt" stroke-linejoin="round" stroke-dasharray="6 3" stroke-dashoffset="0"/>
  <path d="M 50 258.94 L 1230 258.94" fill="none" stroke-width="0.5" stroke="#000000" stroke-opacity="0.25882" stroke-linecap="butt" stroke-linejoin="round" stroke-dasharray="6 3" stroke-dashoffset="0"/>
  <path d="M 50 232.93 L 1230 232.93" fill="none" stroke-width="0.5" stroke="#000000" stroke-opacity="0.25882" stroke-linecap="butt" stroke-linejoin="round" stroke-dasharray="6 3" stroke-dashoffset="0"/>
  <path d="M 50 206.92 L 1230 206.92" fill="none" stroke-width="0.5" stroke="#000000" stroke-opacity="0.25882" stroke-linecap="butt" stroke-linejoin="round" stroke-dasharray="6 3" stroke-dashoffset="0"/>
  <path d="M 50 180.91 L 1230 180.91" fill="none" stroke-width="0.5" stroke="#000000" stroke-opacity="0.25882" stroke-linecap="butt" stroke-linejoin="round" stroke-dasharray="6 3" stroke-dashoffset="0"/>
  <path d="M 50 154.9 L 1230 154.9" fill="none" stroke-width="0.5" stroke="#000000" stroke-opacity="0.25882" stroke-linecap="butt" stroke-linejoin="round" stroke-dasharray="6 3" stroke-dashoffset="0"/>
  <path d="M 50 128.89 L 1230 128.89" fill="none" stroke-width="0.5" stroke="#000000" stroke-opacity="0.25882" stroke-linecap="butt" stroke-linejoin="round" stroke-dasharray="6 3" stroke-dashoffset="0"/>
  <path d="M 50 102.88 L 1230 102.88" fill="none" stroke-width="0.5" stroke="#000000" stroke-opacity="0.25882" stroke-linecap="butt" stroke-linejoin="round" stroke-dasharray="6 3" stroke-dashoffset="0"/>
  <path d="M 50 76.874 L 1230 76.874" fill="none" stroke-width="0.5" stroke="#000000" stroke-opacity="0.25882" stroke-linecap="butt" stroke-linejoin="round" stroke-dasharray="6 3" stroke-dashoffset="0"/>
  <path d="M 50 50.865 L 1230 50.865" fill="none" stroke-width="0.5" stroke="#000000" stroke-opacity="0.25882" stroke-linecap="butt" stroke-linejoin="round" stroke-dasharray="6 3" stroke-dashoffset="0"/>
  <path d="M 50 24.856 L 1230 24.856" fill="none" stroke-width="0.5" stroke="#000000" stroke-opacity="0.25882" stroke-linecap="butt" stroke-linejoin="round" stroke-dasharray="6 3" stroke-dashoffset="0"/>
  <path d="M 74 33 L 74 88 L 507 88 L 507 33 z" fill="#FFFFFF" fill-opacity="1.0" stroke="none"/>
  <clipPath id="clip-0">
    <path d="M 50 9 L 50 441 L 1230 441 L 1230 9 z"/>
  </clipPath>
  <g clip-path="url(#clip-0)">
    <path d="M 50 299.94L 109 300.35L 143.51 290.41L 168 285.84L 186.99 275.42L 202.51 272.33L 215.63 265.84L 227 257.37L 245.99 256.77L 261.51 257.18L 274.63 261.73L 286 257.15L 304.99 256.4L 320.51 259.35L 333.63 255.78L 345 256.5L 363.99 253.32L 379.51 253.82L 392.63 248.5L 404 248.73L 422.99 246.97L 438.51 245.46L 451.63 243.89L 463 244.62L 481.99 237.23L 497.51 240.15L 510.63 234.2L 522 238.53L 540.99 233.56L 556.51 231.93L 569.63 223.99L 581 232.15L 599.99 228.27L 615.51 229.3L 628.63 227.07L 640 226.84L 658.99 227.2L 674.51 224.95L 687.63 223.95L 699 224.63L 717.99 224.02L 733.51 222.29L 746.63 220.82L 758 220.65L 776.99 218.26L 792.51 215.85L 805.63 217.44L 817 216.39L 835.99 210.93L 851.51 211.58L 864.63 211.88L 876 209.4L 894.99 205.85L 910.51 206.18L 923.63 205.82L 935 203.73L 953.99 202.36L 969.51 205.95L 982.63 199.59L 994 194.16L 1013 203.38L 1028.5 198.03L 1041.6 199.15L 1053 198.57L 1072 184.44L 1087.5 188.01L 1100.6 187.44L 1112 195.55L 1131 191.91L 1146.5 188.58L 1159.6 186.2L 1171 183.28L 1190 180.95L 1205.5 178.68L 1218.6 175.19L 1230 173.27L 1230 177.02L 1218.6 179.66L 1205.5 181.22L 1190 181.69L 1171 187.68L 1159.6 188.43L 1146.5 191.78L 1131 193.95L 1112 195.97L 1100.6 196.38L 1087.5 197.89L 1072 199.74L 1053 200.79L 1041.6 201.88L 1028.5 203.18L 1013 203.62L 994 205.47L 982.63 205.54L 969.51 206.19L 953.99 207.77L 935 209.12L 923.63 209.72L 910.51 210.18L 894.99 210.17L 876 211.7L 864.63 213.37L 851.51 215.02L 835.99 214.77L 817 216.82L 805.63 217.65L 792.51 218.71L 776.99 219.48L 758 221.76L 746.63 222.59L 733.51 222.55L 717.99 224.27L 699 225.13L 687.63 226.51L 674.51 226.98L 658.99 228.41L 640 228.97L 628.63 228.67L 615.51 230.04L 599.99 232.59L 581 233.13L 569.63 232.57L 556.51 236.66L 540.99 234.77L 522 239.39L 510.63 239.47L 497.51 240.89L 481.99 242.68L 463 244.74L 451.63 244.17L 438.51 246.66L 422.99 249.15L 404 251.93L 392.63 251.45L 379.51 253.82L 363.99 254.86L 345 257.19L 333.63 259.83L 320.51 260.36L 304.99 259.83L 286 264.84L 274.63 263.59L 261.51 265.43L 245.99 269.81L 227 270.62L 215.63 270.01L 202.51 278.25L 186.99 283.34L 168 285.84L 143.51 290.41L 109 301.2L 50 301.66" fill="#007AFF" fill-opacity="0.30196078431372547" stroke="none"/>
    <path d="M 50 300.75L 109 327.66L 143.51 341.17L 168 352.77L 186.99 361.14L 202.51 367.98L 215.63 374.67L 227 377.97L 245.99 347.61L 261.51 367.58L 274.63 374.22L 286 363.86L 304.99 353.95L 320.51 368L 333.63 365.75L 345 370.76L 363.99 366.29L 379.51 368.32L 392.63 365.58L 404 363.86L 422.99 363.86L 438.51 358.27L 451.63 357.44L 463 353.28L 481.99 354.96L 497.51 348.21L 510.63 346.02L 522 333.56L 540.99 338.34L 556.51 330.34L 569.63 331.55L 581 327.58L 599.99 319.15L 615.51 318.43L 628.63 307.5L 640 306.08L 658.99 299.3L 674.51 294L 687.63 287.92L 699 285.33L 717.99 278.97L 733.51 271.83L 746.63 267.14L 758 262.73L 776.99 254.29L 792.51 247.05L 805.63 241.66L 817 237L 835.99 227.57L 851.51 221.32L 864.63 215.38L 876 208.36L 894.99 201.57L 910.51 193.26L 923.63 185.3L 935 180.09L 953.99 168.41L 969.51 161.75L 982.63 154.82L 994 148.94L 1013 140.43L 1028.5 133.27L 1041.6 126.87L 1053 121.91L 1072 113.48L 1087.5 105.99L 1100.6 100.34L 1112 94.422L 1131 86.914L 1131 86.914L 1112 95.601L 1100.6 100.84L 1087.5 106.48L 1072 113.49L 1053 122.2L 1041.6 127.49L 1028.5 133.72L 1013 140.7L 994 149.68L 982.63 155.48L 969.51 162.12L 953.99 169.87L 935 180.15L 923.63 186.2L 910.51 193.76L 894.99 201.93L 876 210.91L 864.63 216.15L 851.51 221.81L 835.99 229.06L 817 237.06L 805.63 241.75L 792.51 247.71L 776.99 255.52L 758 263.19L 746.63 267.63L 733.51 273.26L 717.99 279.43L 699 288.28L 687.63 293.61L 674.51 297.44L 658.99 301.67L 640 310.5L 628.63 314.15L 615.51 319.64L 599.99 321.21L 581 329.32L 569.63 332.65L 556.51 336.07L 540.99 342.15L 522 346.13L 510.63 351.75L 497.51 353.85L 481.99 355L 463 358.07L 451.63 360.46L 438.51 361.82L 422.99 363.86L 404 363.86L 392.63 365.75L 379.51 368.32L 363.99 366.54L 345 370.76L 333.63 365.75L 320.51 368.43L 304.99 372.24L 286 363.86L 274.63 374.22L 261.51 368.43L 245.99 387.15L 227 379.68L 215.63 374.67L 202.51 367.98L 186.99 361.14L 168 352.77L 143.51 342.88L 109 327.66L 50 300.75" fill="#FF3B30" fill-opacity="0.30196078431372547" stroke="none"/>
    <path d="M 50 301.2L 109 300.98L 143.51 290.41L 168 285.84L 186.99 281.1L 202.51 276.61L 215.63 268.88L 227 266.68L 245.99 265.94L 261.51 263.09L 274.63 263.1L 286 262.67L 304.99 258.9L 320.51 260.09L 333.63 258.73L 345 257.01L 363.99 254.45L 379.51 253.82L 392.63 250.66L 404 251.06L 422.99 248.57L 438.51 246.35L 451.63 244.1L 463 244.71L 481.99 241.18L 497.51 240.7L 510.63 238.02L 522 239.17L 540.99 234.45L 556.51 235.36L 569.63 230.13L 581 232.87L 599.99 231.41L 615.51 229.85L 628.63 228.25L 640 228.4L 658.99 228.09L 674.51 226.44L 687.63 225.83L 699 225L 717.99 224.2L 733.51 222.48L 746.63 222.12L 758 221.47L 776.99 219.16L 792.51 217.94L 805.63 217.6L 817 216.7L 835.99 213.73L 851.51 214.09L 864.63 212.98L 876 211.08L 894.99 209L 910.51 209.09L 923.63 208.66L 935 207.64L 953.99 206.28L 969.51 206.13L 982.63 203.89L 994 202.17L 1013 203.56L 1028.5 201.77L 1041.6 201.15L 1053 200.2L 1072 195.11L 1087.5 195.05L 1100.6 193.83L 1112 195.86L 1131 193.4L 1146.5 190.91L 1159.6 187.84L 1171 186.48L 1190 181.49L 1205.5 180.54L 1218.6 178.44L 1230 176.01" fill="none" stroke-width="4" stroke="#007AFF" stroke-opacity="1" stroke-linecap="round" stroke-linejoin="round"/>
    <path d="M 50 300.75L 109 327.66L 143.51 342.42L 168 352.77L 186.99 361.14L 202.51 367.98L 215.63 374.67L 227 379.23L 245.99 372.24L 261.51 368.21L 274.63 374.22L 286 363.86L 304.99 366.54L 320.51 368.32L 333.63 365.75L 345 370.76L 363.99 366.47L 379.51 368.32L 392.63 365.71L 404 363.86L 422.99 363.86L 438.51 360.86L 451.63 359.65L 463 356.76L 481.99 354.99L 497.51 352.29L 510.63 350.17L 522 342.42L 540.99 341.12L 556.51 334.49L 569.63 332.36L 581 328.86L 599.99 320.66L 615.51 319.32L 628.63 312.29L 640 309.3L 658.99 301.04L 674.51 296.51L 687.63 292.04L 699 287.49L 717.99 279.31L 733.51 272.88L 746.63 267.5L 758 263.07L 776.99 255.2L 792.51 247.53L 805.63 241.73L 817 237.04L 835.99 228.67L 851.51 221.68L 864.63 215.94L 876 210.23L 894.99 201.84L 910.51 193.63L 923.63 185.96L 935 180.13L 953.99 169.48L 969.51 162.02L 982.63 155.31L 994 149.49L 1013 140.63L 1028.5 133.6L 1041.6 127.33L 1053 122.12L 1072 113.49L 1087.5 106.35L 1100.6 100.71L 1112 95.289L 1131 86.914" fill="none" stroke-width="4" stroke="#FF3B30" stroke-opacity="1" stroke-linecap="round" stroke-linejoin="round"/>
    <path d="M 50 301.2L 109 300.98L 143.51 290.41L 168 285.84L 186.99 281.1L 202.51 276.61L 215.63 268.88L 227 266.68L 245.99 265.94L 261.51 263.09L 274.63 263.1L 286 262.67L 304.99 258.9L 320.51 260.09L 333.63 258.73L 345 257.01L 363.99 254.45L 379.51 253.82L 392.63 250.66L 404 251.06L 422.99 248.57L 438.51 246.35L 451.63 244.1L 463 244.71L 481.99 241.18L 497.51 240.7L 510.63 238.02L 522 239.17L 540.99 234.45L 556.51 235.36L 569.63 230.13L 581 232.87L 599.99 231.41L 615.51 229.85L 628.63 228.25L 640 228.4L 658.99 228.09L 674.51 226.44L 687.63 225.83L 699 225L 717.99 224.2L 733.51 222.48L 746.63 222.12L 758 221.47L 776.99 219.16L 792.51 217.94L 805.63 217.6L 817 216.7L 835.99 213.73L 851.51 214.09L 864.63 212.98L 876 211.08L 894.99 209L 910.51 209.09L 923.63 208.66L 935 207.64L 953.99 206.28L 969.51 206.13L 982.63 203.89L 994 202.17L 1013 203.56L 1028.5 201.77L 1041.6 201.15L 1053 200.2L 1072 195.11L 1087.5 195.05L 1100.6 193.83L 1112 195.86L 1131 193.4L 1146.5 190.91L 1159.6 187.84L 1171 186.48L 1190 181.49L 1205.5 180.54L 1218.6 178.44L 1230 176.01" fill="none" stroke-width="0.5" stroke="#000000" stroke-opacity="0.30196" stroke-linecap="round" stroke-linejoin="round"/>
    <path d="M 50 300.75L 109 327.66L 143.51 342.42L 168 352.77L 186.99 361.14L 202.51 367.98L 215.63 374.67L 227 379.23L 245.99 372.24L 261.51 368.21L 274.63 374.22L 286 363.86L 304.99 366.54L 320.51 368.32L 333.63 365.75L 345 370.76L 363.99 366.47L 379.51 368.32L 392.63 365.71L 404 363.86L 422.99 363.86L 438.51 360.86L 451.63 359.65L 463 356.76L 481.99 354.99L 497.51 352.29L 510.63 350.17L 522 342.42L 540.99 341.12L 556.51 334.49L 569.63 332.36L 581 328.86L 599.99 320.66L 615.51 319.32L 628.63 312.29L 640 309.3L 658.99 301.04L 674.51 296.51L 687.63 292.04L 699 287.49L 717.99 279.31L 733.51 272.88L 746.63 267.5L 758 263.07L 776.99 255.2L 792.51 247.53L 805.63 241.73L 817 237.04L 835.99 228.67L 851.51 221.68L 864.63 215.94L 876 210.23L 894.99 201.84L 910.51 193.63L 923.63 185.96L 935 180.13L 953.99 169.48L 969.51 162.02L 982.63 155.31L 994 149.49L 1013 140.63L 1028.5 133.6L 1041.6 127.33L 1053 122.12L 1072 113.49L 1087.5 106.35L 1100.6 100.71L 1112 95.289L 1131 86.914" fill="none" stroke-width="0.5" stroke="#000000" stroke-opacity="0.30196" stroke-linecap="round" stroke-linejoin="round"/>
  </g>
  <path d="M 74 33 L 74 88 L 507 88 L 507 33 z" fill="#FFFFFF" fill-opacity="0.7019607843137254" stroke-width="0.5" stroke="#000000" stroke-opacity="1" stroke-linecap="round" stroke-linejoin="round"/>
  <path d="M 88 52 L 108 52" fill="none" stroke-width="4" stroke="#FF3B30" stroke-opacity="1" stroke-linecap="round" stroke-linejoin="round"/>
  <path d="M 88 52 L 108 52" fill="none" stroke-width="0.5" stroke="#000000" stroke-opacity="0.30196" stroke-linecap="round" stroke-linejoin="round"/>
  <text x="119" y="56.17" font-family="Menlo" font-size="12" font-weight="normal" font-style="normal" fill="#000000" fill-opacity="1">Array&lt;Int&gt; random insertions, reserving capacity</text>
  <path d="M 88 69 L 108 69" fill="none" stroke-width="4" stroke="#007AFF" stroke-opacity="1" stroke-linecap="round" stroke-linejoin="round"/>
  <path d="M 88 69 L 108 69" fill="none" stroke-width="0.5" stroke="#000000" stroke-opacity="0.30196" stroke-linecap="round" stroke-linejoin="round"/>
  <text x="119" y="73.17" font-family="Menlo" font-size="12" font-weight="normal" font-style="normal" fill="#000000" fill-opacity="1">TreeArray&lt;Int&gt; random insertions, reserving capacity</text>
  <path d="M 50 9 L 50 441 L 1230 441 L 1230 9 z" fill="none" stroke-width="0.5" stroke="#000000" stroke-opacity="1" stroke-linecap="round" stroke-linejoin="round"/>
</svg>
