<!DOCTYPE svg PUBLIC "-//W3C//DTD SVG 1.1//EN" "http://www.w3.org/Graphics/SVG/1.1/DTD/svg11.dtd">
<svg width="1280.0px" height="480.0px" viewBox="0.0 0.0 1280.0 480.0" xmlns="http://www.w3.org/2000/svg" xmlns:xlink="http://www.w3.org/1999/xlink" version="1.1">
  <path d="M 0 0 L 0 480 L 1280 480 L 1280 0 z" fill="#FFFFFF" fill-opacity="1.0" stroke="none"/>
  <text x="50" y="468.7" font-family="Helvetica" font-size="10" font-weight="normal" font-style="normal" fill="#000000" fill-opacity="1">Average per-element processing time over input size (bands: min, mean, mean + 2stddev)</text>
  <a xlink:href="https://github.com/apple/swift-collections-benchmark"><text x="1107" y="468.7" font-family="Helvetica" font-size="10" font-weight="normal" font-style="normal" fill="#000000" fill-opacity="1">swift-collections-benchmark</text></a>
  <path d="M 50 9 L 50 441" fill="none" stroke-width="0.75" stroke="#000000" stroke-opacity="0.49804" stroke-linecap="butt" stroke-linejoin="round"/>
  <text x="47" y="453.7" font-family="Helvetica" font-size="10" font-weight="normal" font-style="normal" fill="#000000" fill-opacity="1">1</text>
  <path d="M 109 9 L 109 441" fill="none" stroke-width="0.75" stroke="#000000" stroke-opacity="0.49804" stroke-linecap="butt" stroke-linejoin="round"/>
  <text x="106" y="453.7" font-family="Helvetica" font-size="10" font-weight="normal" font-style="normal" fill="#000000" fill-opacity="1">2</text>
  <path d="M 168 9 L 168 441" fill="none" stroke-width="0.75" stroke="#000000" stroke-opacity="0.49804" stroke-linecap="butt" stroke-linejoin="round"/>
  <text x="165" y="453.7" font-family="Helvetica" font-size="10" font-weight="normal" font-style="normal" fill="#000000" fill-opacity="1">4</text>
  <path d="M 227 9 L 227 441" fill="none" stroke-width="0.75" stroke="#000000" stroke-opacity="0.49804" stroke-linecap="butt" stroke-linejoin="round"/>
  <text x="224" y="453.7" font-family="Helvetica" font-size="10" font-weight="normal" font-style="normal" fill="#000000" fill-opacity="1">8</text>
  <path d="M 286 9 L 286 441" fill="none" stroke-width="0.75" stroke="#000000" stroke-opacity="0.49804" stroke-linecap="butt" stroke-linejoin="round"/>
  <text x="280" y="453.7" font-family="Helvetica" font-size="10" font-weight="normal" font-style="normal" fill="#000000" fill-opacity="1">16</text>
  <path d="M 345 9 L 345 441" fill="none" stroke-width="0.75" stroke="#000000" stroke-opacity="0.49804" stroke-linecap="butt" stroke-linejoin="round"/>
  <text x="339" y="453.7" font-family="Helvetica" font-size="10" font-weight="normal" font-style="normal" fill="#000000" fill-opacity="1">32</text>
  <path d="M 404 9 L 404 441" fill="none" stroke-width="0.75" stroke="#000000" stroke-opacity="0.49804" stroke-linecap="butt" stroke-linejoin="round"/>
  <text x="398" y="453.7" font-family="Helvetica" font-size="10" font-weight="normal" font-style="normal" fill="#000000" fill-opacity="1">64</text>
  <path d="M 463 9 L 463 441" fill="none" stroke-width="0.75" stroke="#000000" stroke-opacity="0.49804" stroke-linecap="butt" stroke-linejoin="round"/>
  <text x="454.5" y="453.7" font-family="Helvetica" font-size="10" font-weight="normal" font-style="normal" fill="#000000" fill-opacity="1">128</text>
  <path d="M 522 9 L 522 441" fill="none" stroke-width="0.75" stroke="#000000" stroke-opacity="0.49804" stroke-linecap="butt" stroke-linejoin="round"/>
  <text x="513.5" y="453.7" font-family="Helvetica" font-size="10" font-weight="normal" font-style="normal" fill="#000000" fill-opacity="1">256</text>
  <path d="M 581 9 L 581 441" fill="none" stroke-width="0.75" stroke="#000000" stroke-opacity="0.49804" stroke-linecap="butt" stroke-linejoin="round"/>
  <text x="572.5" y="453.7" font-family="Helvetica" font-size="10" font-weight="normal" font-style="normal" fill="#000000" fill-opacity="1">512</text>
  <path d="M 640 9 L 640 441" fill="none" stroke-width="0.75" stroke="#000000" stroke-opacity="0.49804" stroke-linecap="butt" stroke-linejoin="round"/>
  <text x="634.5" y="453.7" font-family="Helvetica" font-size="10" font-weight="normal" font-style="normal" fill="#000000" fill-opacity="1">1k</text>
  <path d="M 699 9 L 699 441" fill="none" stroke-width="0.75" stroke="#000000" stroke-opacity="0.49804" stroke-linecap="butt" stroke-linejoin="round"/>
  <text x="693.5" y="453.7" font-family="Helvetica" font-size="10" font-weight="normal" font-style="normal" fill="#000000" fill-opacity="1">2k</text>
  <path d="M 758 9 L 758 441" fill="none" stroke-width="0.75" stroke="#000000" stroke-opacity="0.49804" stroke-linecap="butt" stroke-linejoin="round"/>
  <text x="752.5" y="453.7" font-family="Helvetica" font-size="10" font-weight="normal" font-style="normal" fill="#000000" fill-opacity="1">4k</text>
  <path d="M 817 9 L 817 441" fill="none" stroke-width="0.75" stroke="#000000" stroke-opacity="0.49804" stroke-linecap="butt" stroke-linejoin="round"/>
  <text x="811.5" y="453.7" font-family="Helvetica" font-size="10" font-weight="normal" font-style="normal" fill="#000000" fill-opacity="1">8k</text>
  <path d="M 876 9 L 876 441" fill="none" stroke-width="0.75" stroke="#000000" stroke-opacity="0.49804" stroke-linecap="butt" stroke-linejoin="round"/>
  <text x="867.5" y="453.7" font-family="Helvetica" font-size="10" font-weight="normal" font-style="normal" fill="#000000" fill-opacity="1">16k</text>
  <path d="M 935 9 L 935 441" fill="none" stroke-width="0.75" stroke="#000000" stroke-opacity="0.49804" stroke-linecap="butt" stroke-linejoin="round"/>
  <text x="926.5" y="453.7" font-family="Helvetica" font-size="10" font-weight="normal" font-style="normal" fill="#000000" fill-opacity="1">32k</text>
  <path d="M 994 9 L 994 441" fill="none" stroke-width="0.75" stroke="#000000" stroke-opacity="0.49804" stroke-linecap="butt" stroke-linejoin="round"/>
  <text x="985.5" y="453.7" font-family="Helvetica" font-size="10" font-weight="normal" font-style="normal" fill="#000000" fill-opacity="1">64k</text>
  <path d="M 1053 9 L 1053 441" fill="none" stroke-width="0.75" stroke="#000000" stroke-opacity="0.49804" stroke-linecap="butt" stroke-linejoin="round"/>
  <text x="1042" y="453.7" font-family="Helvetica" font-size="10" font-weight="normal" font-style="normal" fill="#000000" fill-opacity="1">128k</text>
  <path d="M 1112 9 L 1112 441" fill="none" stroke-width="0.75" stroke="#000000" stroke-opacity="0.49804" stroke-linecap="butt" stroke-linejoin="round"/>
  <text x="1101" y="453.7" font-family="Helvetica" font-size="10" font-weight="normal" font-style="normal" fill="#000000" fill-opacity="1">256k</text>
  <path d="M 1171 9 L 1171 441" fill="none" stroke-width="0.75" stroke="#000000" stroke-opacity="0.49804" stroke-linecap="butt" stroke-linejoin="round"/>
  <text x="1160" y="453.7" font-family="Helvetica" font-size="10" font-weight="normal" font-style="normal" fill="#000000" fill-opacity="1">512k</text>
  <path d="M 1230 9 L 1230 441" fill="none" stroke-width="0.75" stroke="#000000" stroke-opacity="0.49804" stroke-linecap="butt" stroke-linejoin="round"/>
  <text x="1223" y="453.7" font-family="Helvetica" font-size="10" font-weight="normal" font-style="normal" fill="#000000" fill-opacity="1">1M</text>
  <path d="M 50 441 L 1230 441" fill="none" stroke-width="0.75" stroke="#000000" stroke-opacity="0.49804" stroke-linecap="butt" stroke-linejoin="round"/>
  <text x="27" y="442.7" font-family="Helvetica" font-size="10" font-weight="normal" font-style="normal" fill="#000000" fill-opacity="1">1 ns</text>
  <text x="1236" y="442.7" font-family="Helvetica" font-size="10" font-weight="normal" font-style="normal" fill="#000000" fill-opacity="1">1 ns</text>
  <path d="M 50 297 L 1230 297" fill="none" stroke-width="0.75" stroke="#000000" stroke-opacity="0.49804" stroke-linecap="butt" stroke-linejoin="round"/>
  <text x="21" y="298.7" font-family="Helvetica" font-size="10" font-weight="normal" font-style="normal" fill="#000000" fill-opacity="1">10 ns</text>
  <text x="1236" y="298.7" font-family="Helvetica" font-size="10" font-weight="normal" font-style="normal" fill="#000000" fill-opacity="1">10 ns</text>
  <path d="M 50 153 L 1230 153" fill="none" stroke-width="0.75" stroke="#000000" stroke-opacity="0.49804" stroke-linecap="butt" stroke-linejoin="round"/>
  <text x="16" y="154.7" font-family="Helvetica" font-size="10" font-weight="normal" font-style="normal" fill="#000000" fill-opacity="1">100 ns</text>
  <text x="1236" y="154.7" font-family="Helvetica" font-size="10" font-weight="normal" font-style="normal" fill="#000000" fill-opacity="1">100 ns</text>
  <path d="M 50 9 L 1230 9" fill="none" stroke-width="0.75" stroke="#000000" stroke-opacity="0.49804" stroke-linecap="butt" stroke-linejoin="round"/>
  <text x="26" y="10.7" font-family="Helvetica" font-size="10" font-weight="normal" font-style="normal" fill="#000000" fill-opacity="1">1 µs</text>
  <text x="1236" y="10.7" font-family="Helvetica" font-size="10" font-weight="normal" font-style="normal" fill="#000000" fill-opacity="1">1 µs</text>
  <path d="M 50 397.65 L 1230 397.65" fill="none" stroke-width="0.5" stroke="#000000" stroke-opacity="0.25882" stroke-linecap="butt" stroke-linejoin="round" stroke-dasharray="6 3" stroke-dashoffset="0"/>
  <path d="M 50 354.3 L 1230 354.3" fill="none" stroke-width="0.5" stroke="#000000" stroke-opacity="0.25882" stroke-linecap="butt" stroke-linejoin="round" stroke-dasharray="6 3" stroke-dashoffset="0"/>
  <path d="M 50 310.96 L 1230 310.96" fill="none" stroke-width="0.5" stroke="#000000" stroke-opacity="0.25882" stroke-linecap="butt" stroke-linejoin="round" stroke-dasharray="6 3" stroke-dashoffset="0"/>
  <path d="M 50 267.61 L 1230 267.61" fill="none" stroke-width="0.5" stroke="#000000" stroke-opacity="0.25882" stroke-linecap="butt" stroke-linejoin="round" stroke-dasharray="6 3" stroke-dashoffset="0"/>
  <path d="M 50 224.26 L 1230 224.26" fill="none" stroke-width="0.5" stroke="#000000" stroke-opacity="0.25882" stroke-linecap="butt" stroke-linejoin="round" stroke-dasharray="6 3" stroke-dashoffset="0"/>
  <path d="M 50 180.91 L 1230 180.91" fill="none" stroke-width="0.5" stroke="#000000" stroke-opacity="0.25882" stroke-linecap="butt" stroke-linejoin="round" stroke-dasharray="6 3" stroke-dashoffset="0"/>
  <path d="M 50 137.56 L 1230 137.56" fill="none" stroke-width="0.5" stroke="#000000" stroke-opacity="0.25882" stroke-linecap="butt" stroke-linejoin="round" stroke-dasharray="6 3" stroke-dashoffset="0"/>
  <path d="M 50 94.213 L 1230 94.213" fill="none" stroke-width="0.5" stroke="#000000" stroke-opacity="0.25882" stroke-linecap="butt" stroke-linejoin="round" stroke-dasharray="6 3" stroke-dashoffset="0"/>
  <path d="M 50 50.865 L 1230 50.865" fill="none" stroke-width="0.5" stroke="#000000" stroke-opacity="0.25882" stroke-linecap="butt" stroke-linejoin="round" stroke-dasharray="6 3" stroke-dashoffset="0"/>
  <path d="M 74 33 L 74 122 L 399 122 L 399 33 z" fill="#FFFFFF" fill-opacity="1.0" stroke="none"/>
  <clipPath id="clip-0">
    <path d="M 50 9 L 50 441 L 1230 441 L 1230 9 z"/>
  </clipPath>
  <g clip-path="url(#clip-0)">
    <path d="M 50 207.25L 109 252.11L 143.51 274.61L 168 295.46L 186.99 306.56L 202.51 319.31L 215.63 328.95L 227 335.95L 245.99 349.91L 261.51 361.31L 274.63 373.8L 286 380.65L 304.99 396.11L 320.51 407.51L 333.63 349.26L 345 423.99L 363.99 395.35L 379.51 364.39L 392.63 374.03L 404 399.13L 422.99 394.63L 438.51 382.28L 451.63 381.85L 463 399.13L 481.99 388.34L 497.51 392.65L 510.63 386.16L 522 386L 540.99 388.41L 556.51 384.53L 569.63 386.47L 581 383.86L 599.99 401.27L 615.51 384.56L 628.63 390.9L 640 383.83L 658.99 402.34L 674.51 391.77L 687.63 400.7L 699 384.81L 717.99 402.34L 733.51 401.8L 746.63 382.75L 758 383.36L 776.99 383.07L 792.51 383.19L 805.63 383.29L 817 383.23L 835.99 391.43L 851.51 391.22L 864.63 391.69L 876 389.45L 894.99 391.54L 910.51 381.36L 923.63 391.41L 935 383.11L 953.99 402.21L 969.51 383.21L 982.63 385.84L 994 383.16L 1013 387.78L 1028.5 383.88L 1041.6 391.5L 1053 391.69L 1072 402.23L 1087.5 389.29L 1100.6 386.15L 1112 402.23L 1131 383.11L 1146.5 380L 1159.6 390.23L 1171 382.5L 1190 383.68L 1205.5 383.08L 1218.6 389.4L 1230 383.69L 1230 401.97L 1218.6 402.23L 1205.5 402.23L 1190 401.36L 1171 402.23L 1159.6 392.93L 1146.5 402.23L 1131 402.23L 1112 402.23L 1100.6 397.97L 1087.5 402.23L 1072 402.23L 1053 397.34L 1041.6 391.52L 1028.5 401.22L 1013 402.22L 994 402.24L 982.63 398.49L 969.51 402.22L 953.99 402.27L 935 402.22L 923.63 391.64L 910.51 402.14L 894.99 391.65L 876 391.62L 864.63 391.69L 851.51 391.77L 835.99 391.65L 817 402.31L 805.63 402.19L 792.51 402.25L 776.99 402.34L 758 402.48L 746.63 402.58L 733.51 401.8L 717.99 402.34L 699 401.8L 687.63 402.19L 674.51 391.77L 658.99 402.34L 640 401.79L 628.63 393.47L 615.51 402.69L 599.99 401.27L 581 401.75L 569.63 402.14L 556.51 402.74L 540.99 403.49L 522 404.62L 510.63 396.27L 497.51 392.65L 481.99 403.59L 463 399.13L 451.63 402.29L 438.51 406.38L 422.99 395.35L 404 399.13L 392.63 416.39L 379.51 406.75L 363.99 395.35L 345 423.99L 333.63 417.15L 320.51 407.51L 304.99 396.11L 286 380.65L 274.63 373.8L 261.51 364.16L 245.99 352.76L 227 338.8L 215.63 328.95L 202.51 319.31L 186.99 309.41L 168 295.46L 143.51 277.46L 109 252.11L 50 207.25" fill="#FFCC00" fill-opacity="0.30196078431372547" stroke="none"/>
    <path d="M 50 205.91L 109 249.25L 143.51 277.46L 168 293.95L 186.99 306.56L 202.51 319.31L 215.63 327.6L 227 335.95L 245.99 349.91L 261.51 361.31L 274.63 370.95L 286 379.3L 304.99 394.6L 320.51 404.66L 333.63 415.64L 345 422.65L 363.99 393.92L 379.51 381.14L 392.63 390.78L 404 399.13L 422.99 394.63L 438.51 392.65L 451.63 390.78L 463 399.13L 481.99 394.8L 497.51 387.25L 510.63 386.16L 522 399.13L 540.99 395.41L 556.51 392.43L 569.63 402.21L 581 385.72L 599.99 383.42L 615.51 383.19L 628.63 392.05L 640 384.76L 658.99 400.26L 674.51 391.06L 687.63 383.54L 699 385.72L 717.99 401.79L 733.51 402.23L 746.63 401.43L 758 391.48L 776.99 383.24L 792.51 391.2L 805.63 383.28L 817 391.62L 835.99 391.53L 851.51 401.92L 864.63 391.6L 876 383.98L 894.99 383.25L 910.51 389.27L 923.63 391.4L 935 389.51L 953.99 391.48L 969.51 383.15L 982.63 391.52L 994 402L 1013 402.21L 1028.5 402.2L 1041.6 383.15L 1053 385.89L 1072 383.52L 1087.5 402.13L 1100.6 391.5L 1112 401.53L 1131 388.11L 1146.5 399.98L 1159.6 384.71L 1171 389.39L 1190 401.94L 1205.5 388.84L 1218.6 396.09L 1230 391.1L 1230 393.08L 1218.6 402.23L 1205.5 394.38L 1190 402.23L 1171 397.45L 1159.6 402.23L 1146.5 402.23L 1131 395.46L 1112 402.21L 1100.6 391.53L 1087.5 402.23L 1072 401.64L 1053 398.38L 1041.6 402.22L 1028.5 402.22L 1013 402.24L 994 402.24L 982.63 391.56L 969.51 402.19L 953.99 391.54L 935 393.87L 923.63 391.56L 910.51 391.53L 894.99 402.21L 876 401.04L 864.63 391.6L 851.51 402.14L 835.99 391.54L 817 391.63L 805.63 402.18L 792.51 391.57L 776.99 402.07L 758 391.48L 746.63 402.18L 733.51 402.25L 717.99 401.79L 699 399.13L 687.63 401.41L 674.51 392.55L 658.99 402.34L 640 400.46L 628.63 392.11L 615.51 400.87L 599.99 401.22L 581 399.13L 569.63 402.21L 556.51 392.57L 540.99 403.49L 522 399.13L 510.63 396.27L 497.51 399.13L 481.99 395.16L 463 399.13L 451.63 390.78L 438.51 392.65L 422.99 395.35L 404 399.13L 392.63 390.78L 379.51 381.14L 363.99 395.35L 345 425.5L 333.63 415.64L 320.51 407.51L 304.99 394.6L 286 382.15L 274.63 373.8L 261.51 364.16L 245.99 352.76L 227 338.8L 215.63 330.45L 202.51 319.31L 186.99 309.41L 168 293.95L 143.51 277.46L 109 252.11L 50 208.76" fill="#28CD41" fill-opacity="0.30196078431372547" stroke="none"/>
    <path d="M 50 205.91L 109 182.39L 143.51 175.33L 168 182.39L 186.99 178.06L 202.51 159.78L 215.63 160.71L 227 164.8L 245.99 158.84L 261.51 162.05L 274.63 162.59L 286 164.54L 304.99 157.55L 320.51 163.1L 333.63 158.04L 345 157.35L 363.99 158.04L 379.51 157.19L 392.63 154.3L 404 154.04L 422.99 155.5L 438.51 154.7L 451.63 156.22L 463 154.26L 481.99 152.52L 497.51 152.88L 510.63 152.13L 522 151.2L 540.99 147.83L 556.51 150.64L 569.63 149.82L 581 147.41L 599.99 150.69L 615.51 146.96L 628.63 147.74L 640 147.26L 658.99 141.92L 674.51 145.94L 687.63 144.46L 699 143.62L 717.99 142.3L 733.51 144.06L 746.63 142.57L 758 143.01L 776.99 139.39L 792.51 141.09L 805.63 141.49L 817 135.43L 835.99 136.76L 851.51 138.36L 864.63 134.8L 876 137.13L 894.99 134.48L 910.51 133.89L 923.63 134.05L 935 136.46L 953.99 135.72L 969.51 133.67L 982.63 131.49L 994 134.64L 1013 131.58L 1028.5 132.1L 1041.6 127.96L 1053 128.74L 1072 130.07L 1087.5 130.09L 1100.6 130.88L 1112 129.19L 1131 129.75L 1146.5 128.23L 1159.6 125.83L 1171 125.61L 1190 124.11L 1205.5 125.15L 1218.6 125.21L 1230 124.39L 1230 126.27L 1218.6 127.99L 1205.5 125.94L 1190 128.22L 1171 128.75L 1159.6 128.61L 1146.5 129.56L 1131 129.85L 1112 130.63L 1100.6 130.9L 1087.5 131.1L 1072 131.53L 1053 131.61L 1041.6 133.24L 1028.5 133.93L 1013 133.33L 994 134.82L 982.63 135.15L 969.51 135.89L 953.99 135.76L 935 136.5L 923.63 136.2L 910.51 136.93L 894.99 138.4L 876 138.2L 864.63 140.11L 851.51 139.12L 835.99 141.78L 817 140.68L 805.63 142.7L 792.51 141.98L 776.99 143.87L 758 143.3L 746.63 144.39L 733.51 144.44L 717.99 144.39L 699 145.97L 687.63 146.43L 674.51 147.74L 658.99 148.09L 640 148.29L 628.63 149.39L 615.51 151.86L 599.99 150.76L 581 152.03L 569.63 150.78L 556.51 152.03L 540.99 152.76L 522 152.74L 510.63 154.36L 497.51 153.93L 481.99 156.34L 463 158.8L 451.63 160.09L 438.51 159.7L 422.99 159.52L 404 163.44L 392.63 158.03L 379.51 160.61L 363.99 165.18L 345 164.39L 333.63 158.04L 320.51 163.1L 304.99 169.26L 286 168.44L 274.63 171.47L 261.51 167.09L 245.99 170.99L 227 172.68L 215.63 179.53L 202.51 169.89L 186.99 178.42L 168 182.39L 143.51 175.9L 109 182.39L 50 208.76" fill="#007AFF" fill-opacity="0.30196078431372547" stroke="none"/>
    <path d="M 50 208.76L 109 252.11L 143.51 275.96L 168 292.6L 186.99 307.9L 202.51 317.96L 215.63 327.6L 227 335.95L 245.99 352.76L 261.51 364.16L 274.63 370.95L 286 380.65L 304.99 393.25L 320.51 339.62L 333.63 414.3L 345 423.99L 363.99 372.04L 379.51 405.33L 392.63 374.03L 404 399.13L 422.99 395.35L 438.51 382.28L 451.63 402.29L 463 399.13L 481.99 395.16L 497.51 399.13L 510.63 396.27L 522 399.13L 540.99 394.98L 556.51 395.81L 569.63 391.07L 581 391.97L 599.99 391.45L 615.51 395.77L 628.63 394.82L 640 395.34L 658.99 393.26L 674.51 393.39L 687.63 394.82L 699 393.6L 717.99 394.61L 733.51 394.53L 746.63 394.47L 758 394.43L 776.99 394.16L 792.51 394.33L 805.63 394.14L 817 394.43L 835.99 394.14L 851.51 394.24L 864.63 394.22L 876 390.5L 894.99 394.26L 910.51 394.23L 923.63 392.23L 935 394.18L 953.99 392.21L 969.51 394.38L 982.63 394.2L 994 392.06L 1013 394.28L 1028.5 394.34L 1041.6 394.25L 1053 394.2L 1072 394.23L 1087.5 392.5L 1100.6 392.16L 1112 392.12L 1131 390.75L 1146.5 394.09L 1159.6 393.98L 1171 394.25L 1190 389.37L 1205.5 391.55L 1218.6 393.8L 1230 393.56L 1230 394.17L 1218.6 394.35L 1205.5 394.25L 1190 394.35L 1171 394.25L 1159.6 394.24L 1146.5 394.36L 1131 394.26L 1112 394.36L 1100.6 394.25L 1087.5 393.94L 1072 394.32L 1053 394.36L 1041.6 394.25L 1028.5 394.37L 1013 394.28L 994 394.26L 982.63 394.32L 969.51 394.38L 953.99 394.31L 935 394.39L 923.63 394.34L 910.51 394.33L 894.99 394.37L 876 394.28L 864.63 394.39L 851.51 394.43L 835.99 394.37L 817 394.43L 805.63 394.48L 792.51 394.33L 776.99 394.61L 758 394.43L 746.63 394.47L 733.51 394.53L 717.99 394.61L 699 394.73L 687.63 394.82L 674.51 394.94L 658.99 395.11L 640 395.34L 628.63 394.82L 615.51 395.77L 599.99 395.11L 581 396.62L 569.63 396.2L 556.51 395.81L 540.99 395.16L 522 399.13L 510.63 396.27L 497.51 399.13L 481.99 395.16L 463 399.13L 451.63 402.29L 438.51 406.38L 422.99 395.35L 404 399.13L 392.63 416.39L 379.51 406.75L 363.99 437.95L 345 423.99L 333.63 417.15L 320.51 407.51L 304.99 396.11L 286 380.65L 274.63 373.8L 261.51 364.16L 245.99 352.76L 227 338.8L 215.63 330.45L 202.51 320.81L 186.99 307.9L 168 295.46L 143.51 275.96L 109 252.11L 50 208.76" fill="#FF3B30" fill-opacity="0.30196078431372547" stroke="none"/>
    <path d="M 50 207.25L 109 252.11L 143.51 276.71L 168 295.46L 186.99 308.65L 202.51 319.31L 215.63 328.95L 227 338.05L 245.99 352L 261.51 363.4L 274.63 373.8L 286 380.65L 304.99 396.11L 320.51 407.51L 333.63 391.29L 345 423.99L 363.99 395.35L 379.51 392.65L 392.63 402.29L 404 399.13L 422.99 395.16L 438.51 399.13L 451.63 396.27L 463 399.13L 481.99 399.24L 497.51 392.65L 510.63 393.47L 522 399.2L 540.99 399.18L 556.51 397.45L 569.63 397.65L 581 396.56L 599.99 401.27L 615.51 397.43L 628.63 392.79L 640 396.58L 658.99 402.34L 674.51 391.77L 687.63 401.8L 699 396.9L 717.99 402.34L 733.51 401.8L 746.63 396.76L 758 396.9L 776.99 396.71L 792.51 396.69L 805.63 396.67L 817 396.74L 835.99 391.6L 851.51 391.62L 864.63 391.69L 876 391.05L 894.99 391.62L 910.51 396.01L 923.63 391.58L 935 396.64L 953.99 402.26L 969.51 396.67L 982.63 394.93L 994 396.67L 1013 398.12L 1028.5 396.21L 1041.6 391.52L 1053 395.81L 1072 402.23L 1087.5 398.58L 1100.6 394.66L 1112 402.23L 1131 396.65L 1146.5 395.62L 1159.6 392.21L 1171 396.44L 1190 396.24L 1205.5 396.64L 1218.6 398.62L 1230 396.65" fill="none" stroke-width="4" stroke="#FFCC00" stroke-opacity="1" stroke-linecap="round" stroke-linejoin="round"/>
    <path d="M 50 208L 109 251.35L 143.51 277.46L 168 293.95L 186.99 308.65L 202.51 319.31L 215.63 329.7L 227 338.05L 245.99 352L 261.51 363.4L 274.63 373.04L 286 381.39L 304.99 394.6L 320.51 406.75L 333.63 415.64L 345 424.74L 363.99 394.97L 379.51 381.14L 392.63 390.78L 404 399.13L 422.99 395.16L 438.51 392.65L 451.63 390.78L 463 399.13L 481.99 395.07L 497.51 395.81L 510.63 393.47L 522 399.13L 540.99 401.27L 556.51 392.53L 569.63 402.21L 581 395.34L 599.99 396.06L 615.51 395.75L 628.63 392.1L 640 395.96L 658.99 401.79L 674.51 392.16L 687.63 396.23L 699 395.34L 717.99 401.79L 733.51 402.25L 746.63 401.99L 758 391.48L 776.99 396.58L 792.51 391.48L 805.63 396.67L 817 391.62L 835.99 391.54L 851.51 402.08L 864.63 391.6L 876 396.11L 894.99 396.68L 910.51 390.93L 923.63 391.52L 935 392.7L 953.99 391.52L 969.51 396.63L 982.63 391.55L 994 402.18L 1013 402.23L 1028.5 402.22L 1041.6 396.65L 1053 394.87L 1072 396.38L 1087.5 402.2L 1100.6 391.52L 1112 402.03L 1131 393.46L 1146.5 401.64L 1159.6 397.16L 1171 395.24L 1190 402.15L 1205.5 392.89L 1218.6 400.57L 1230 392.55" fill="none" stroke-width="4" stroke="#28CD41" stroke-opacity="1" stroke-linecap="round" stroke-linejoin="round"/>
    <path d="M 50 208L 109 182.39L 143.51 175.75L 168 182.39L 186.99 178.33L 202.51 167.09L 215.63 174.04L 227 170.52L 245.99 167.58L 261.51 165.73L 274.63 169.03L 286 167.4L 304.99 165.99L 320.51 163.1L 333.63 158.04L 345 162.48L 363.99 163.24L 379.51 159.7L 392.63 157.04L 404 160.84L 422.99 158.44L 438.51 158.35L 451.63 159.05L 463 157.58L 481.99 155.32L 497.51 153.65L 510.63 153.77L 522 152.33L 540.99 151.43L 556.51 151.66L 569.63 150.53L 581 150.79L 599.99 150.74L 615.51 150.54L 628.63 148.96L 640 148.02L 658.99 146.42L 674.51 147.26L 687.63 145.91L 699 145.35L 717.99 143.84L 733.51 144.34L 746.63 143.91L 758 143.23L 776.99 142.67L 792.51 141.75L 805.63 142.39L 817 139.26L 835.99 140.43L 851.51 138.92L 864.63 138.68L 876 137.92L 894.99 137.35L 910.51 136.12L 923.63 135.63L 935 136.49L 953.99 135.75L 969.51 135.3L 982.63 134.17L 994 134.77L 1013 132.87L 1028.5 133.44L 1041.6 131.81L 1053 130.85L 1072 131.15L 1087.5 130.83L 1100.6 130.89L 1112 130.25L 1131 129.83L 1146.5 129.21L 1159.6 127.88L 1171 127.91L 1190 127.12L 1205.5 125.73L 1218.6 127.25L 1230 125.78" fill="none" stroke-width="4" stroke="#007AFF" stroke-opacity="1" stroke-linecap="round" stroke-linejoin="round"/>
    <path d="M 50 208.76L 109 252.11L 143.51 275.96L 168 294.7L 186.99 307.9L 202.51 320.05L 215.63 329.7L 227 338.05L 245.99 352.76L 261.51 364.16L 274.63 373.04L 286 380.65L 304.99 395.35L 320.51 381.65L 333.63 416.39L 345 423.99L 363.99 413.09L 379.51 406.38L 392.63 402.29L 404 399.13L 422.99 395.35L 438.51 399.13L 451.63 402.29L 463 399.13L 481.99 395.16L 497.51 399.13L 510.63 396.27L 522 399.13L 540.99 395.11L 556.51 395.81L 569.63 394.82L 581 395.37L 599.99 394.14L 615.51 395.77L 628.63 394.82L 640 395.34L 658.99 394.62L 674.51 394.53L 687.63 394.82L 699 394.43L 717.99 394.61L 733.51 394.53L 746.63 394.47L 758 394.43L 776.99 394.49L 792.51 394.33L 805.63 394.39L 817 394.43L 835.99 394.31L 851.51 394.38L 864.63 394.34L 876 393.27L 894.99 394.34L 910.51 394.3L 923.63 393.79L 935 394.34L 953.99 393.75L 969.51 394.38L 982.63 394.29L 994 393.68L 1013 394.28L 1028.5 394.36L 1041.6 394.25L 1053 394.32L 1072 394.29L 1087.5 393.56L 1100.6 393.7L 1112 393.77L 1131 393.32L 1146.5 394.29L 1159.6 394.17L 1171 394.25L 1190 393.01L 1205.5 393.54L 1218.6 394.21L 1230 394.01" fill="none" stroke-width="4" stroke="#FF3B30" stroke-opacity="1" stroke-linecap="round" stroke-linejoin="round"/>
    <path d="M 50 207.25L 109 252.11L 143.51 276.71L 168 295.46L 186.99 308.65L 202.51 319.31L 215.63 328.95L 227 338.05L 245.99 352L 261.51 363.4L 274.63 373.8L 286 380.65L 304.99 396.11L 320.51 407.51L 333.63 391.29L 345 423.99L 363.99 395.35L 379.51 392.65L 392.63 402.29L 404 399.13L 422.99 395.16L 438.51 399.13L 451.63 396.27L 463 399.13L 481.99 399.24L 497.51 392.65L 510.63 393.47L 522 399.2L 540.99 399.18L 556.51 397.45L 569.63 397.65L 581 396.56L 599.99 401.27L 615.51 397.43L 628.63 392.79L 640 396.58L 658.99 402.34L 674.51 391.77L 687.63 401.8L 699 396.9L 717.99 402.34L 733.51 401.8L 746.63 396.76L 758 396.9L 776.99 396.71L 792.51 396.69L 805.63 396.67L 817 396.74L 835.99 391.6L 851.51 391.62L 864.63 391.69L 876 391.05L 894.99 391.62L 910.51 396.01L 923.63 391.58L 935 396.64L 953.99 402.26L 969.51 396.67L 982.63 394.93L 994 396.67L 1013 398.12L 1028.5 396.21L 1041.6 391.52L 1053 395.81L 1072 402.23L 1087.5 398.58L 1100.6 394.66L 1112 402.23L 1131 396.65L 1146.5 395.62L 1159.6 392.21L 1171 396.44L 1190 396.24L 1205.5 396.64L 1218.6 398.62L 1230 396.65" fill="none" stroke-width="0.5" stroke="#000000" stroke-opacity="0.30196" stroke-linecap="round" stroke-linejoin="round"/>
    <path d="M 50 208L 109 251.35L 143.51 277.46L 168 293.95L 186.99 308.65L 202.51 319.31L 215.63 329.7L 227 338.05L 245.99 352L 261.51 363.4L 274.63 373.04L 286 381.39L 304.99 394.6L 320.51 406.75L 333.63 415.64L 345 424.74L 363.99 394.97L 379.51 381.14L 392.63 390.78L 404 399.13L 422.99 395.16L 438.51 392.65L 451.63 390.78L 463 399.13L 481.99 395.07L 497.51 395.81L 510.63 393.47L 522 399.13L 540.99 401.27L 556.51 392.53L 569.63 402.21L 581 395.34L 599.99 396.06L 615.51 395.75L 628.63 392.1L 640 395.96L 658.99 401.79L 674.51 392.16L 687.63 396.23L 699 395.34L 717.99 401.79L 733.51 402.25L 746.63 401.99L 758 391.48L 776.99 396.58L 792.51 391.48L 805.63 396.67L 817 391.62L 835.99 391.54L 851.51 402.08L 864.63 391.6L 876 396.11L 894.99 396.68L 910.51 390.93L 923.63 391.52L 935 392.7L 953.99 391.52L 969.51 396.63L 982.63 391.55L 994 402.18L 1013 402.23L 1028.5 402.22L 1041.6 396.65L 1053 394.87L 1072 396.38L 1087.5 402.2L 1100.6 391.52L 1112 402.03L 1131 393.46L 1146.5 401.64L 1159.6 397.16L 1171 395.24L 1190 402.15L 1205.5 392.89L 1218.6 400.57L 1230 392.55" fill="none" stroke-width="0.5" stroke="#000000" stroke-opacity="0.30196" stroke-linecap="round" stroke-linejoin="round"/>
    <path d="M 50 208L 109 182.39L 143.51 175.75L 168 182.39L 186.99 178.33L 202.51 167.09L 215.63 174.04L 227 170.52L 245.99 167.58L 261.51 165.73L 274.63 169.03L 286 167.4L 304.99 165.99L 320.51 163.1L 333.63 158.04L 345 162.48L 363.99 163.24L 379.51 159.7L 392.63 157.04L 404 160.84L 422.99 158.44L 438.51 158.35L 451.63 159.05L 463 157.58L 481.99 155.32L 497.51 153.65L 510.63 153.77L 522 152.33L 540.99 151.43L 556.51 151.66L 569.63 150.53L 581 150.79L 599.99 150.74L 615.51 150.54L 628.63 148.96L 640 148.02L 658.99 146.42L 674.51 147.26L 687.63 145.91L 699 145.35L 717.99 143.84L 733.51 144.34L 746.63 143.91L 758 143.23L 776.99 142.67L 792.51 141.75L 805.63 142.39L 817 139.26L 835.99 140.43L 851.51 138.92L 864.63 138.68L 876 137.92L 894.99 137.35L 910.51 136.12L 923.63 135.63L 935 136.49L 953.99 135.75L 969.51 135.3L 982.63 134.17L 994 134.77L 1013 132.87L 1028.5 133.44L 1041.6 131.81L 1053 130.85L 1072 131.15L 1087.5 130.83L 1100.6 130.89L 1112 130.25L 1131 129.83L 1146.5 129.21L 1159.6 127.88L 1171 127.91L 1190 127.12L 1205.5 125.73L 1218.6 127.25L 1230 125.78" fill="none" stroke-width="0.5" stroke="#000000" stroke-opacity="0.30196" stroke-linecap="round" stroke-linejoin="round"/>
    <path d="M 50 208.76L 109 252.11L 143.51 275.96L 168 294.7L 186.99 307.9L 202.51 320.05L 215.63 329.7L 227 338.05L 245.99 352.76L 261.51 364.16L 274.63 373.04L 286 380.65L 304.99 395.35L 320.51 381.65L 333.63 416.39L 345 423.99L 363.99 413.09L 379.51 406.38L 392.63 402.29L 404 399.13L 422.99 395.35L 438.51 399.13L 451.63 402.29L 463 399.13L 481.99 395.16L 497.51 399.13L 510.63 396.27L 522 399.13L 540.99 395.11L 556.51 395.81L 569.63 394.82L 581 395.37L 599.99 394.14L 615.51 395.77L 628.63 394.82L 640 395.34L 658.99 394.62L 674.51 394.53L 687.63 394.82L 699 394.43L 717.99 394.61L 733.51 394.53L 746.63 394.47L 758 394.43L 776.99 394.49L 792.51 394.33L 805.63 394.39L 817 394.43L 835.99 394.31L 851.51 394.38L 864.63 394.34L 876 393.27L 894.99 394.34L 910.51 394.3L 923.63 393.79L 935 394.34L 953.99 393.75L 969.51 394.38L 982.63 394.29L 994 393.68L 1013 394.28L 1028.5 394.36L 1041.6 394.25L 1053 394.32L 1072 394.29L 1087.5 393.56L 1100.6 393.7L 1112 393.77L 1131 393.32L 1146.5 394.29L 1159.6 394.17L 1171 394.25L 1190 393.01L 1205.5 393.54L 1218.6 394.21L 1230 394.01" fill="none" stroke-width="0.5" stroke="#000000" stroke-opacity="0.30196" stroke-linecap="round" stroke-linejoin="round"/>
  </g>
  <path d="M 74 33 L 74 122 L 399 122 L 399 33 z" fill="#FFFFFF" fill-opacity="0.7019607843137254" stroke-width="0.5" stroke="#000000" stroke-opacity="1" stroke-linecap="round" stroke-linejoin="round"/>
  <path d="M 88 52 L 108 52" fill="none" stroke-width="4" stroke="#FF3B30" stroke-opacity="1" stroke-linecap="round" stroke-linejoin="round"/>
  <path d="M 88 52 L 108 52" fill="none" stroke-width="0.5" stroke="#000000" stroke-opacity="0.30196" stroke-linecap="round" stroke-linejoin="round"/>
  <text x="119" y="56.17" font-family="Menlo" font-size="12" font-weight="normal" font-style="normal" fill="#000000" fill-opacity="1">Array&lt;Int&gt; removeLast</text>
  <path d="M 88 69 L 108 69" fill="none" stroke-width="4" stroke="#007AFF" stroke-opacity="1" stroke-linecap="round" stroke-linejoin="round"/>
  <path d="M 88 69 L 108 69" fill="none" stroke-width="0.5" stroke="#000000" stroke-opacity="0.30196" stroke-linecap="round" stroke-linejoin="round"/>
  <text x="119" y="73.17" font-family="Menlo" font-size="12" font-weight="normal" font-style="normal" fill="#000000" fill-opacity="1">TreeArray&lt;Int&gt; removeLast</text>
  <path d="M 88 86 L 108 86" fill="none" stroke-width="4" stroke="#28CD41" stroke-opacity="1" stroke-linecap="round" stroke-linejoin="round"/>
  <path d="M 88 86 L 108 86" fill="none" stroke-width="0.5" stroke="#000000" stroke-opacity="0.30196" stroke-linecap="round" stroke-linejoin="round"/>
  <text x="119" y="90.17" font-family="Menlo" font-size="12" font-weight="normal" font-style="normal" fill="#000000" fill-opacity="1">Deque&lt;Int&gt; removeLast (contiguous)</text>
  <path d="M 88 103 L 108 103" fill="none" stroke-width="4" stroke="#FFCC00" stroke-opacity="1" stroke-linecap="round" stroke-linejoin="round"/>
  <path d="M 88 103 L 108 103" fill="none" stroke-width="0.5" stroke="#000000" stroke-opacity="0.30196" stroke-linecap="round" stroke-linejoin="round"/>
  <text x="119" y="107.17" font-family="Menlo" font-size="12" font-weight="normal" font-style="normal" fill="#000000" fill-opacity="1">Deque&lt;Int&gt; removeLast (discontiguous)</text>
  <path d="M 50 9 L 50 441 L 1230 441 L 1230 9 z" fill="none" stroke-width="0.5" stroke="#000000" stroke-opacity="1" stroke-linecap="round" stroke-linejoin="round"/>
</svg>
