<!DOCTYPE svg PUBLIC "-//W3C//DTD SVG 1.1//EN" "http://www.w3.org/Graphics/SVG/1.1/DTD/svg11.dtd">
<svg width="1280.0px" height="480.0px" viewBox="0.0 0.0 1280.0 480.0" xmlns="http://www.w3.org/2000/svg" xmlns:xlink="http://www.w3.org/1999/xlink" version="1.1">
  <path d="M 0 0 L 0 480 L 1280 480 L 1280 0 z" fill="#FFFFFF" fill-opacity="1.0" stroke="none"/>
  <text x="50" y="468.7" font-family="Helvetica" font-size="10" font-weight="normal" font-style="normal" fill="#000000" fill-opacity="1">Average per-element processing time over input size (bands: min, mean, mean + 2stddev)</text>
  <a xlink:href="https://github.com/apple/swift-collections-benchmark"><text x="1107" y="468.7" font-family="Helvetica" font-size="10" font-weight="normal" font-style="normal" fill="#000000" fill-opacity="1">swift-collections-benchmark</text></a>
  <path d="M 50 9 L 50 441" fill="none" stroke-width="0.75" stroke="#000000" stroke-opacity="0.49804" stroke-linecap="butt" stroke-linejoin="round"/>
  <text x="47" y="453.7" font-family="Helvetica" font-size="10" font-weight="normal" font-style="normal" fill="#000000" fill-opacity="1">1</text>
  <path d="M 109 9 L 109 441" fill="none" stroke-width="0.75" stroke="#000000" stroke-opacity="0.49804" stroke-linecap="butt" stroke-linejoin="round"/>
  <text x="106" y="453.7" font-family="Helvetica" font-size="10" font-weight="normal" font-style="normal" fill="#000000" fill-opacity="1">2</text>
  <path d="M 168 9 L 168 441" fill="none" stroke-width="0.75" stroke="#000000" stroke-opacity="0.49804" stroke-linecap="butt" stroke-linejoin="round"/>
  <text x="165" y="453.7" font-family="Helvetica" font-size="10" font-weight="normal" font-style="normal" fill="#000000" fill-opacity="1">4</text>
  <path d="M 227 9 L 227 441" fill="none" stroke-width="0.75" stroke="#000000" stroke-opacity="0.49804" stroke-linecap="butt" stroke-linejoin="round"/>
  <text x="224" y="453.7" font-family="Helvetica" font-size="10" font-weight="normal" font-style="normal" fill="#000000" fill-opacity="1">8</text>
  <path d="M 286 9 L 286 441" fill="none" stroke-width="0.75" stroke="#000000" stroke-opacity="0.49804" stroke-linecap="butt" stroke-linejoin="round"/>
  <text x="280" y="453.7" font-family="Helvetica" font-size="10" font-weight="normal" font-style="normal" fill="#000000" fill-opacity="1">16</text>
  <path d="M 345 9 L 345 441" fill="none" stroke-width="0.75" stroke="#000000" stroke-opacity="0.49804" stroke-linecap="butt" stroke-linejoin="round"/>
  <text x="339" y="453.7" font-family="Helvetica" font-size="10" font-weight="normal" font-style="normal" fill="#000000" fill-opacity="1">32</text>
  <path d="M 404 9 L 404 441" fill="none" stroke-width="0.75" stroke="#000000" stroke-opacity="0.49804" stroke-linecap="butt" stroke-linejoin="round"/>
  <text x="398" y="453.7" font-family="Helvetica" font-size="10" font-weight="normal" font-style="normal" fill="#000000" fill-opacity="1">64</text>
  <path d="M 463 9 L 463 441" fill="none" stroke-width="0.75" stroke="#000000" stroke-opacity="0.49804" stroke-linecap="butt" stroke-linejoin="round"/>
  <text x="454.5" y="453.7" font-family="Helvetica" font-size="10" font-weight="normal" font-style="normal" fill="#000000" fill-opacity="1">128</text>
  <path d="M 522 9 L 522 441" fill="none" stroke-width="0.75" stroke="#000000" stroke-opacity="0.49804" stroke-linecap="butt" stroke-linejoin="round"/>
  <text x="513.5" y="453.7" font-family="Helvetica" font-size="10" font-weight="normal" font-style="normal" fill="#000000" fill-opacity="1">256</text>
  <path d="M 581 9 L 581 441" fill="none" stroke-width="0.75" stroke="#000000" stroke-opacity="0.49804" stroke-linecap="butt" stroke-linejoin="round"/>
  <text x="572.5" y="453.7" font-family="Helvetica" font-size="10" font-weight="normal" font-style="normal" fill="#000000" fill-opacity="1">512</text>
  <path d="M 640 9 L 640 441" fill="none" stroke-width="0.75" stroke="#000000" stroke-opacity="0.49804" stroke-linecap="butt" stroke-linejoin="round"/>
  <text x="634.5" y="453.7" font-family="Helvetica" font-size="10" font-weight="normal" font-style="normal" fill="#000000" fill-opacity="1">1k</text>
  <path d="M 699 9 L 699 441" fill="none" stroke-width="0.75" stroke="#000000" stroke-opacity="0.49804" stroke-linecap="butt" stroke-linejoin="round"/>
  <text x="693.5" y="453.7" font-family="Helvetica" font-size="10" font-weight="normal" font-style="normal" fill="#000000" fill-opacity="1">2k</text>
  <path d="M 758 9 L 758 441" fill="none" stroke-width="0.75" stroke="#000000" stroke-opacity="0.49804" stroke-linecap="butt" stroke-linejoin="round"/>
  <text x="752.5" y="453.7" font-family="Helvetica" font-size="10" font-weight="normal" font-style="normal" fill="#000000" fill-opacity="1">4k</text>
  <path d="M 817 9 L 817 441" fill="none" stroke-width="0.75" stroke="#000000" stroke-opacity="0.49804" stroke-linecap="butt" stroke-linejoin="round"/>
  <text x="811.5" y="453.7" font-family="Helvetica" font-size="10" font-weight="normal" font-style="normal" fill="#000000" fill-opacity="1">8k</text>
  <path d="M 876 9 L 876 441" fill="none" stroke-width="0.75" stroke="#000000" stroke-opacity="0.49804" stroke-linecap="butt" stroke-linejoin="round"/>
  <text x="867.5" y="453.7" font-family="Helvetica" font-size="10" font-weight="normal" font-style="normal" fill="#000000" fill-opacity="1">16k</text>
  <path d="M 935 9 L 935 441" fill="none" stroke-width="0.75" stroke="#000000" stroke-opacity="0.49804" stroke-linecap="butt" stroke-linejoin="round"/>
  <text x="926.5" y="453.7" font-family="Helvetica" font-size="10" font-weight="normal" font-style="normal" fill="#000000" fill-opacity="1">32k</text>
  <path d="M 994 9 L 994 441" fill="none" stroke-width="0.75" stroke="#000000" stroke-opacity="0.49804" stroke-linecap="butt" stroke-linejoin="round"/>
  <text x="985.5" y="453.7" font-family="Helvetica" font-size="10" font-weight="normal" font-style="normal" fill="#000000" fill-opacity="1">64k</text>
  <path d="M 1053 9 L 1053 441" fill="none" stroke-width="0.75" stroke="#000000" stroke-opacity="0.49804" stroke-linecap="butt" stroke-linejoin="round"/>
  <text x="1042" y="453.7" font-family="Helvetica" font-size="10" font-weight="normal" font-style="normal" fill="#000000" fill-opacity="1">128k</text>
  <path d="M 1112 9 L 1112 441" fill="none" stroke-width="0.75" stroke="#000000" stroke-opacity="0.49804" stroke-linecap="butt" stroke-linejoin="round"/>
  <text x="1101" y="453.7" font-family="Helvetica" font-size="10" font-weight="normal" font-style="normal" fill="#000000" fill-opacity="1">256k</text>
  <path d="M 1171 9 L 1171 441" fill="none" stroke-width="0.75" stroke="#000000" stroke-opacity="0.49804" stroke-linecap="butt" stroke-linejoin="round"/>
  <text x="1160" y="453.7" font-family="Helvetica" font-size="10" font-weight="normal" font-style="normal" fill="#000000" fill-opacity="1">512k</text>
  <path d="M 1230 9 L 1230 441" fill="none" stroke-width="0.75" stroke="#000000" stroke-opacity="0.49804" stroke-linecap="butt" stroke-linejoin="round"/>
  <text x="1223" y="453.7" font-family="Helvetica" font-size="10" font-weight="normal" font-style="normal" fill="#000000" fill-opacity="1">1M</text>
  <path d="M 50 441 L 1230 441" fill="none" stroke-width="0.75" stroke="#000000" stroke-opacity="0.49804" stroke-linecap="butt" stroke-linejoin="round"/>
  <text x="27" y="442.7" font-family="Helvetica" font-size="10" font-weight="normal" font-style="normal" fill="#000000" fill-opacity="1">1 ns</text>
  <text x="1236" y="442.7" font-family="Helvetica" font-size="10" font-weight="normal" font-style="normal" fill="#000000" fill-opacity="1">1 ns</text>
  <path d="M 50 297 L 1230 297" fill="none" stroke-width="0.75" stroke="#000000" stroke-opacity="0.49804" stroke-linecap="butt" stroke-linejoin="round"/>
  <text x="21" y="298.7" font-family="Helvetica" font-size="10" font-weight="normal" font-style="normal" fill="#000000" fill-opacity="1">10 ns</text>
  <text x="1236" y="298.7" font-family="Helvetica" font-size="10" font-weight="normal" font-style="normal" fill="#000000" fill-opacity="1">10 ns</text>
  <path d="M 50 153 L 1230 153" fill="none" stroke-width="0.75" stroke="#000000" stroke-opacity="0.49804" stroke-linecap="butt" stroke-linejoin="round"/>
  <text x="16" y="154.7" font-family="Helvetica" font-size="10" font-weight="normal" font-style="normal" fill="#000000" fill-opacity="1">100 ns</text>
  <text x="1236" y="154.7" font-family="Helvetica" font-size="10" font-weight="normal" font-style="normal" fill="#000000" fill-opacity="1">100 ns</text>
  <path d="M 50 9 L 1230 9" fill="none" stroke-width="0.75" stroke="#000000" stroke-opacity="0.49804" stroke-linecap="butt" stroke-linejoin="round"/>
  <text x="26" y="10.7" font-family="Helvetica" font-size="10" font-weight="normal" font-style="normal" fill="#000000" fill-opacity="1">1 µs</text>
  <text x="1236" y="10.7" font-family="Helvetica" font-size="10" font-weight="normal" font-style="normal" fill="#000000" fill-opacity="1">1 µs</text>
  <path d="M 50 397.65 L 1230 397.65" fill="none" stroke-width="0.5" stroke="#000000" stroke-opacity="0.25882" stroke-linecap="butt" stroke-linejoin="round" stroke-dasharray="6 3" stroke-dashoffset="0"/>
  <path d="M 50 354.3 L 1230 354.3" fill="none" stroke-width="0.5" stroke="#000000" stroke-opacity="0.25882" stroke-linecap="butt" stroke-linejoin="round" stroke-dasharray="6 3" stroke-dashoffset="0"/>
  <path d="M 50 310.96 L 1230 310.96" fill="none" stroke-width="0.5" stroke="#000000" stroke-opacity="0.25882" stroke-linecap="butt" stroke-linejoin="round" stroke-dasharray="6 3" stroke-dashoffset="0"/>
  <path d="M 50 267.61 L 1230 267.61" fill="none" stroke-width="0.5" stroke="#000000" stroke-opacity="0.25882" stroke-linecap="butt" stroke-linejoin="round" stroke-dasharray="6 3" stroke-dashoffset="0"/>
  <path d="M 50 224.26 L 1230 224.26" fill="none" stroke-width="0.5" stroke="#000000" stroke-opacity="0.25882" stroke-linecap="butt" stroke-linejoin="round" stroke-dasharray="6 3" stroke-dashoffset="0"/>
  <path d="M 50 180.91 L 1230 180.91" fill="none" stroke-width="0.5" stroke="#000000" stroke-opacity="0.25882" stroke-linecap="butt" stroke-linejoin="round" stroke-dasharray="6 3" stroke-dashoffset="0"/>
  <path d="M 50 137.56 L 1230 137.56" fill="none" stroke-width="0.5" stroke="#000000" stroke-opacity="0.25882" stroke-linecap="butt" stroke-linejoin="round" stroke-dasharray="6 3" stroke-dashoffset="0"/>
  <path d="M 50 94.213 L 1230 94.213" fill="none" stroke-width="0.5" stroke="#000000" stroke-opacity="0.25882" stroke-linecap="butt" stroke-linejoin="round" stroke-dasharray="6 3" stroke-dashoffset="0"/>
  <path d="M 50 50.865 L 1230 50.865" fill="none" stroke-width="0.5" stroke="#000000" stroke-opacity="0.25882" stroke-linecap="butt" stroke-linejoin="round" stroke-dasharray="6 3" stroke-dashoffset="0"/>
  <path d="M 74 33 L 74 88 L 312 88 L 312 33 z" fill="#FFFFFF" fill-opacity="1.0" stroke="none"/>
  <clipPath id="clip-0">
    <path d="M 50 9 L 50 441 L 1230 441 L 1230 9 z"/>
  </clipPath>
  <g clip-path="url(#clip-0)">
    <path d="M 50 208.76L 109 206.58L 143.51 175.33L 168 165.32L 186.99 170.99L 202.51 169.89L 215.63 168.89L 227 164.8L 245.99 158.98L 261.51 157.49L 274.63 158.41L 286 162.48L 304.99 160.08L 320.51 161.94L 333.63 161.39L 345 159.87L 363.99 160.67L 379.51 157.81L 392.63 153.92L 404 156.31L 422.99 154.16L 438.51 156.06L 451.63 154.09L 463 154.28L 481.99 150.68L 497.51 150.46L 510.63 152.64L 522 153.89L 540.99 150.72L 556.51 151.99L 569.63 147.52L 581 152.13L 599.99 151.43L 615.51 145.89L 628.63 145.92L 640 147.32L 658.99 147.03L 674.51 144L 687.63 143.84L 699 143.35L 717.99 142.59L 733.51 142.09L 746.63 142.63L 758 139.2L 776.99 140.68L 792.51 141.07L 805.63 139.99L 817 139.83L 835.99 140.97L 851.51 135.11L 864.63 138.24L 876 133.96L 894.99 138.98L 910.51 136.52L 923.63 133.1L 935 137.44L 953.99 135.38L 969.51 131.16L 982.63 135.9L 994 132.71L 1013 133.05L 1028.5 133.69L 1041.6 130.57L 1053 128.17L 1072 129.68L 1087.5 127.8L 1100.6 127.64L 1112 128.28L 1131 129.85L 1146.5 128.13L 1159.6 122.74L 1171 125.17L 1190 123.5L 1205.5 124.08L 1218.6 121.51L 1230 125.16L 1230 125.7L 1218.6 127.58L 1205.5 125.98L 1190 126.05L 1171 128.14L 1159.6 128.23L 1146.5 128.4L 1131 130.31L 1112 129.21L 1100.6 131.24L 1087.5 130.83L 1072 131.41L 1053 133.43L 1041.6 132.04L 1028.5 133.96L 1013 133.83L 994 135.21L 982.63 136.05L 969.51 134.86L 953.99 135.99L 935 138.57L 923.63 137.11L 910.51 136.91L 894.99 140.42L 876 138.5L 864.63 139.58L 851.51 139.16L 835.99 141.09L 817 140.41L 805.63 143.95L 792.51 143.13L 776.99 143.36L 758 143.9L 746.63 146.06L 733.51 145.96L 717.99 146.32L 699 146.16L 687.63 147.17L 674.51 147.47L 658.99 147.21L 640 151.41L 628.63 146.92L 615.51 147.18L 599.99 151.51L 581 152.13L 569.63 152.84L 556.51 152.5L 540.99 153.33L 522 154.48L 510.63 153.3L 497.51 157.04L 481.99 156L 463 159.25L 451.63 158.8L 438.51 160L 422.99 158.09L 404 159.7L 392.63 159.56L 379.51 162.48L 363.99 162.11L 345 163.44L 333.63 167.83L 320.51 164.4L 304.99 165.99L 286 162.48L 274.63 166.68L 261.51 167.09L 245.99 170.99L 227 172.68L 215.63 169.11L 202.51 169.89L 186.99 170.99L 168 182.39L 143.51 175.9L 109 208L 50 208.76" fill="#007AFF" fill-opacity="0.30196078431372547" stroke="none"/>
    <path d="M 50 208.76L 109 252.11L 143.51 275.96L 168 292.6L 186.99 307.9L 202.51 317.96L 215.63 327.6L 227 335.95L 245.99 352.76L 261.51 364.16L 274.63 370.95L 286 380.65L 304.99 393.25L 320.51 339.62L 333.63 414.3L 345 423.99L 363.99 372.04L 379.51 405.33L 392.63 374.03L 404 399.13L 422.99 395.35L 438.51 382.28L 451.63 402.29L 463 399.13L 481.99 395.16L 497.51 399.13L 510.63 396.27L 522 399.13L 540.99 394.98L 556.51 395.81L 569.63 391.07L 581 391.97L 599.99 391.45L 615.51 395.77L 628.63 394.82L 640 395.34L 658.99 393.26L 674.51 393.39L 687.63 394.82L 699 393.6L 717.99 394.61L 733.51 394.53L 746.63 394.47L 758 394.43L 776.99 394.16L 792.51 394.33L 805.63 394.14L 817 394.43L 835.99 394.14L 851.51 394.24L 864.63 394.22L 876 390.5L 894.99 394.26L 910.51 394.23L 923.63 392.23L 935 394.18L 953.99 392.21L 969.51 394.38L 982.63 394.2L 994 392.06L 1013 394.28L 1028.5 394.34L 1041.6 394.25L 1053 394.2L 1072 394.23L 1087.5 392.5L 1100.6 392.16L 1112 392.12L 1131 390.75L 1146.5 394.09L 1159.6 393.98L 1171 394.25L 1190 389.37L 1205.5 391.55L 1218.6 393.8L 1230 393.56L 1230 394.17L 1218.6 394.35L 1205.5 394.25L 1190 394.35L 1171 394.25L 1159.6 394.24L 1146.5 394.36L 1131 394.26L 1112 394.36L 1100.6 394.25L 1087.5 393.94L 1072 394.32L 1053 394.36L 1041.6 394.25L 1028.5 394.37L 1013 394.28L 994 394.26L 982.63 394.32L 969.51 394.38L 953.99 394.31L 935 394.39L 923.63 394.34L 910.51 394.33L 894.99 394.37L 876 394.28L 864.63 394.39L 851.51 394.43L 835.99 394.37L 817 394.43L 805.63 394.48L 792.51 394.33L 776.99 394.61L 758 394.43L 746.63 394.47L 733.51 394.53L 717.99 394.61L 699 394.73L 687.63 394.82L 674.51 394.94L 658.99 395.11L 640 395.34L 628.63 394.82L 615.51 395.77L 599.99 395.11L 581 396.62L 569.63 396.2L 556.51 395.81L 540.99 395.16L 522 399.13L 510.63 396.27L 497.51 399.13L 481.99 395.16L 463 399.13L 451.63 402.29L 438.51 406.38L 422.99 395.35L 404 399.13L 392.63 416.39L 379.51 406.75L 363.99 437.95L 345 423.99L 333.63 417.15L 320.51 407.51L 304.99 396.11L 286 380.65L 274.63 373.8L 261.51 364.16L 245.99 352.76L 227 338.8L 215.63 330.45L 202.51 320.81L 186.99 307.9L 168 295.46L 143.51 275.96L 109 252.11L 50 208.76" fill="#FF3B30" fill-opacity="0.30196078431372547" stroke="none"/>
    <path d="M 50 208.76L 109 207.63L 143.51 175.75L 168 177.46L 186.99 170.99L 202.51 169.89L 215.63 169.06L 227 170.52L 245.99 167.62L 261.51 164.43L 274.63 164.41L 286 162.48L 304.99 164.39L 320.51 163.75L 333.63 166.08L 345 162.49L 363.99 161.73L 379.51 161.22L 392.63 158.04L 404 158.8L 422.99 157.04L 438.51 158.95L 451.63 157.54L 463 157.91L 481.99 154.57L 497.51 155.25L 510.63 153.13L 522 154.33L 540.99 152.63L 556.51 152.37L 569.63 151.4L 581 152.13L 599.99 151.49L 615.51 146.84L 628.63 146.66L 640 150.31L 658.99 147.16L 674.51 146.55L 687.63 146.28L 699 145.41L 717.99 145.32L 733.51 144.93L 746.63 145.15L 758 142.64L 776.99 142.65L 792.51 142.59L 805.63 142.89L 817 140.26L 835.99 141.06L 851.51 138.08L 864.63 139.23L 876 137.28L 894.99 140.04L 910.51 136.81L 923.63 136.04L 935 138.27L 953.99 135.83L 969.51 133.87L 982.63 136.01L 994 134.55L 1013 133.62L 1028.5 133.89L 1041.6 131.65L 1053 132.01L 1072 130.96L 1087.5 130.03L 1100.6 130.28L 1112 128.96L 1131 130.19L 1146.5 128.33L 1159.6 126.75L 1171 127.35L 1190 125.37L 1205.5 125.48L 1218.6 125.93L 1230 125.56" fill="none" stroke-width="4" stroke="#007AFF" stroke-opacity="1" stroke-linecap="round" stroke-linejoin="round"/>
    <path d="M 50 208.76L 109 252.11L 143.51 275.96L 168 294.7L 186.99 307.9L 202.51 320.05L 215.63 329.7L 227 338.05L 245.99 352.76L 261.51 364.16L 274.63 373.04L 286 380.65L 304.99 395.35L 320.51 381.65L 333.63 416.39L 345 423.99L 363.99 413.09L 379.51 406.38L 392.63 402.29L 404 399.13L 422.99 395.35L 438.51 399.13L 451.63 402.29L 463 399.13L 481.99 395.16L 497.51 399.13L 510.63 396.27L 522 399.13L 540.99 395.11L 556.51 395.81L 569.63 394.82L 581 395.37L 599.99 394.14L 615.51 395.77L 628.63 394.82L 640 395.34L 658.99 394.62L 674.51 394.53L 687.63 394.82L 699 394.43L 717.99 394.61L 733.51 394.53L 746.63 394.47L 758 394.43L 776.99 394.49L 792.51 394.33L 805.63 394.39L 817 394.43L 835.99 394.31L 851.51 394.38L 864.63 394.34L 876 393.27L 894.99 394.34L 910.51 394.3L 923.63 393.79L 935 394.34L 953.99 393.75L 969.51 394.38L 982.63 394.29L 994 393.68L 1013 394.28L 1028.5 394.36L 1041.6 394.25L 1053 394.32L 1072 394.29L 1087.5 393.56L 1100.6 393.7L 1112 393.77L 1131 393.32L 1146.5 394.29L 1159.6 394.17L 1171 394.25L 1190 393.01L 1205.5 393.54L 1218.6 394.21L 1230 394.01" fill="none" stroke-width="4" stroke="#FF3B30" stroke-opacity="1" stroke-linecap="round" stroke-linejoin="round"/>
    <path d="M 50 208.76L 109 207.63L 143.51 175.75L 168 177.46L 186.99 170.99L 202.51 169.89L 215.63 169.06L 227 170.52L 245.99 167.62L 261.51 164.43L 274.63 164.41L 286 162.48L 304.99 164.39L 320.51 163.75L 333.63 166.08L 345 162.49L 363.99 161.73L 379.51 161.22L 392.63 158.04L 404 158.8L 422.99 157.04L 438.51 158.95L 451.63 157.54L 463 157.91L 481.99 154.57L 497.51 155.25L 510.63 153.13L 522 154.33L 540.99 152.63L 556.51 152.37L 569.63 151.4L 581 152.13L 599.99 151.49L 615.51 146.84L 628.63 146.66L 640 150.31L 658.99 147.16L 674.51 146.55L 687.63 146.28L 699 145.41L 717.99 145.32L 733.51 144.93L 746.63 145.15L 758 142.64L 776.99 142.65L 792.51 142.59L 805.63 142.89L 817 140.26L 835.99 141.06L 851.51 138.08L 864.63 139.23L 876 137.28L 894.99 140.04L 910.51 136.81L 923.63 136.04L 935 138.27L 953.99 135.83L 969.51 133.87L 982.63 136.01L 994 134.55L 1013 133.62L 1028.5 133.89L 1041.6 131.65L 1053 132.01L 1072 130.96L 1087.5 130.03L 1100.6 130.28L 1112 128.96L 1131 130.19L 1146.5 128.33L 1159.6 126.75L 1171 127.35L 1190 125.37L 1205.5 125.48L 1218.6 125.93L 1230 125.56" fill="none" stroke-width="0.5" stroke="#000000" stroke-opacity="0.30196" stroke-linecap="round" stroke-linejoin="round"/>
    <path d="M 50 208.76L 109 252.11L 143.51 275.96L 168 294.7L 186.99 307.9L 202.51 320.05L 215.63 329.7L 227 338.05L 245.99 352.76L 261.51 364.16L 274.63 373.04L 286 380.65L 304.99 395.35L 320.51 381.65L 333.63 416.39L 345 423.99L 363.99 413.09L 379.51 406.38L 392.63 402.29L 404 399.13L 422.99 395.35L 438.51 399.13L 451.63 402.29L 463 399.13L 481.99 395.16L 497.51 399.13L 510.63 396.27L 522 399.13L 540.99 395.11L 556.51 395.81L 569.63 394.82L 581 395.37L 599.99 394.14L 615.51 395.77L 628.63 394.82L 640 395.34L 658.99 394.62L 674.51 394.53L 687.63 394.82L 699 394.43L 717.99 394.61L 733.51 394.53L 746.63 394.47L 758 394.43L 776.99 394.49L 792.51 394.33L 805.63 394.39L 817 394.43L 835.99 394.31L 851.51 394.38L 864.63 394.34L 876 393.27L 894.99 394.34L 910.51 394.3L 923.63 393.79L 935 394.34L 953.99 393.75L 969.51 394.38L 982.63 394.29L 994 393.68L 1013 394.28L 1028.5 394.36L 1041.6 394.25L 1053 394.32L 1072 394.29L 1087.5 393.56L 1100.6 393.7L 1112 393.77L 1131 393.32L 1146.5 394.29L 1159.6 394.17L 1171 394.25L 1190 393.01L 1205.5 393.54L 1218.6 394.21L 1230 394.01" fill="none" stroke-width="0.5" stroke="#000000" stroke-opacity="0.30196" stroke-linecap="round" stroke-linejoin="round"/>
  </g>
  <path d="M 74 33 L 74 88 L 312 88 L 312 33 z" fill="#FFFFFF" fill-opacity="0.7019607843137254" stroke-width="0.5" stroke="#000000" stroke-opacity="1" stroke-linecap="round" stroke-linejoin="round"/>
  <path d="M 88 52 L 108 52" fill="none" stroke-width="4" stroke="#FF3B30" stroke-opacity="1" stroke-linecap="round" stroke-linejoin="round"/>
  <path d="M 88 52 L 108 52" fill="none" stroke-width="0.5" stroke="#000000" stroke-opacity="0.30196" stroke-linecap="round" stroke-linejoin="round"/>
  <text x="119" y="56.17" font-family="Menlo" font-size="12" font-weight="normal" font-style="normal" fill="#000000" fill-opacity="1">Array&lt;Int&gt; removeLast</text>
  <path d="M 88 69 L 108 69" fill="none" stroke-width="4" stroke="#007AFF" stroke-opacity="1" stroke-linecap="round" stroke-linejoin="round"/>
  <path d="M 88 69 L 108 69" fill="none" stroke-width="0.5" stroke="#000000" stroke-opacity="0.30196" stroke-linecap="round" stroke-linejoin="round"/>
  <text x="119" y="73.17" font-family="Menlo" font-size="12" font-weight="normal" font-style="normal" fill="#000000" fill-opacity="1">TreeArray&lt;Int&gt; removeLast</text>
  <path d="M 50 9 L 50 441 L 1230 441 L 1230 9 z" fill="none" stroke-width="0.5" stroke="#000000" stroke-opacity="1" stroke-linecap="round" stroke-linejoin="round"/>
</svg>
