<!DOCTYPE svg PUBLIC "-//W3C//DTD SVG 1.1//EN" "http://www.w3.org/Graphics/SVG/1.1/DTD/svg11.dtd">
<svg width="1280.0px" height="480.0px" viewBox="0.0 0.0 1280.0 480.0" xmlns="http://www.w3.org/2000/svg" xmlns:xlink="http://www.w3.org/1999/xlink" version="1.1">
  <path d="M 0 0 L 0 480 L 1280 480 L 1280 0 z" fill="#FFFFFF" fill-opacity="1.0" stroke="none"/>
  <text x="50" y="468.7" font-family="Helvetica" font-size="10" font-weight="normal" font-style="normal" fill="#000000" fill-opacity="1">Average per-element processing time over input size (bands: min, mean, mean + 2stddev)</text>
  <a xlink:href="https://github.com/apple/swift-collections-benchmark"><text x="1107" y="468.7" font-family="Helvetica" font-size="10" font-weight="normal" font-style="normal" fill="#000000" fill-opacity="1">swift-collections-benchmark</text></a>
  <path d="M 50 9 L 50 441" fill="none" stroke-width="0.75" stroke="#000000" stroke-opacity="0.49804" stroke-linecap="butt" stroke-linejoin="round"/>
  <text x="47" y="453.7" font-family="Helvetica" font-size="10" font-weight="normal" font-style="normal" fill="#000000" fill-opacity="1">1</text>
  <path d="M 109 9 L 109 441" fill="none" stroke-width="0.75" stroke="#000000" stroke-opacity="0.49804" stroke-linecap="butt" stroke-linejoin="round"/>
  <text x="106" y="453.7" font-family="Helvetica" font-size="10" font-weight="normal" font-style="normal" fill="#000000" fill-opacity="1">2</text>
  <path d="M 168 9 L 168 441" fill="none" stroke-width="0.75" stroke="#000000" stroke-opacity="0.49804" stroke-linecap="butt" stroke-linejoin="round"/>
  <text x="165" y="453.7" font-family="Helvetica" font-size="10" font-weight="normal" font-style="normal" fill="#000000" fill-opacity="1">4</text>
  <path d="M 227 9 L 227 441" fill="none" stroke-width="0.75" stroke="#000000" stroke-opacity="0.49804" stroke-linecap="butt" stroke-linejoin="round"/>
  <text x="224" y="453.7" font-family="Helvetica" font-size="10" font-weight="normal" font-style="normal" fill="#000000" fill-opacity="1">8</text>
  <path d="M 286 9 L 286 441" fill="none" stroke-width="0.75" stroke="#000000" stroke-opacity="0.49804" stroke-linecap="butt" stroke-linejoin="round"/>
  <text x="280" y="453.7" font-family="Helvetica" font-size="10" font-weight="normal" font-style="normal" fill="#000000" fill-opacity="1">16</text>
  <path d="M 345 9 L 345 441" fill="none" stroke-width="0.75" stroke="#000000" stroke-opacity="0.49804" stroke-linecap="butt" stroke-linejoin="round"/>
  <text x="339" y="453.7" font-family="Helvetica" font-size="10" font-weight="normal" font-style="normal" fill="#000000" fill-opacity="1">32</text>
  <path d="M 404 9 L 404 441" fill="none" stroke-width="0.75" stroke="#000000" stroke-opacity="0.49804" stroke-linecap="butt" stroke-linejoin="round"/>
  <text x="398" y="453.7" font-family="Helvetica" font-size="10" font-weight="normal" font-style="normal" fill="#000000" fill-opacity="1">64</text>
  <path d="M 463 9 L 463 441" fill="none" stroke-width="0.75" stroke="#000000" stroke-opacity="0.49804" stroke-linecap="butt" stroke-linejoin="round"/>
  <text x="454.5" y="453.7" font-family="Helvetica" font-size="10" font-weight="normal" font-style="normal" fill="#000000" fill-opacity="1">128</text>
  <path d="M 522 9 L 522 441" fill="none" stroke-width="0.75" stroke="#000000" stroke-opacity="0.49804" stroke-linecap="butt" stroke-linejoin="round"/>
  <text x="513.5" y="453.7" font-family="Helvetica" font-size="10" font-weight="normal" font-style="normal" fill="#000000" fill-opacity="1">256</text>
  <path d="M 581 9 L 581 441" fill="none" stroke-width="0.75" stroke="#000000" stroke-opacity="0.49804" stroke-linecap="butt" stroke-linejoin="round"/>
  <text x="572.5" y="453.7" font-family="Helvetica" font-size="10" font-weight="normal" font-style="normal" fill="#000000" fill-opacity="1">512</text>
  <path d="M 640 9 L 640 441" fill="none" stroke-width="0.75" stroke="#000000" stroke-opacity="0.49804" stroke-linecap="butt" stroke-linejoin="round"/>
  <text x="634.5" y="453.7" font-family="Helvetica" font-size="10" font-weight="normal" font-style="normal" fill="#000000" fill-opacity="1">1k</text>
  <path d="M 699 9 L 699 441" fill="none" stroke-width="0.75" stroke="#000000" stroke-opacity="0.49804" stroke-linecap="butt" stroke-linejoin="round"/>
  <text x="693.5" y="453.7" font-family="Helvetica" font-size="10" font-weight="normal" font-style="normal" fill="#000000" fill-opacity="1">2k</text>
  <path d="M 758 9 L 758 441" fill="none" stroke-width="0.75" stroke="#000000" stroke-opacity="0.49804" stroke-linecap="butt" stroke-linejoin="round"/>
  <text x="752.5" y="453.7" font-family="Helvetica" font-size="10" font-weight="normal" font-style="normal" fill="#000000" fill-opacity="1">4k</text>
  <path d="M 817 9 L 817 441" fill="none" stroke-width="0.75" stroke="#000000" stroke-opacity="0.49804" stroke-linecap="butt" stroke-linejoin="round"/>
  <text x="811.5" y="453.7" font-family="Helvetica" font-size="10" font-weight="normal" font-style="normal" fill="#000000" fill-opacity="1">8k</text>
  <path d="M 876 9 L 876 441" fill="none" stroke-width="0.75" stroke="#000000" stroke-opacity="0.49804" stroke-linecap="butt" stroke-linejoin="round"/>
  <text x="867.5" y="453.7" font-family="Helvetica" font-size="10" font-weight="normal" font-style="normal" fill="#000000" fill-opacity="1">16k</text>
  <path d="M 935 9 L 935 441" fill="none" stroke-width="0.75" stroke="#000000" stroke-opacity="0.49804" stroke-linecap="butt" stroke-linejoin="round"/>
  <text x="926.5" y="453.7" font-family="Helvetica" font-size="10" font-weight="normal" font-style="normal" fill="#000000" fill-opacity="1">32k</text>
  <path d="M 994 9 L 994 441" fill="none" stroke-width="0.75" stroke="#000000" stroke-opacity="0.49804" stroke-linecap="butt" stroke-linejoin="round"/>
  <text x="985.5" y="453.7" font-family="Helvetica" font-size="10" font-weight="normal" font-style="normal" fill="#000000" fill-opacity="1">64k</text>
  <path d="M 1053 9 L 1053 441" fill="none" stroke-width="0.75" stroke="#000000" stroke-opacity="0.49804" stroke-linecap="butt" stroke-linejoin="round"/>
  <text x="1042" y="453.7" font-family="Helvetica" font-size="10" font-weight="normal" font-style="normal" fill="#000000" fill-opacity="1">128k</text>
  <path d="M 1112 9 L 1112 441" fill="none" stroke-width="0.75" stroke="#000000" stroke-opacity="0.49804" stroke-linecap="butt" stroke-linejoin="round"/>
  <text x="1101" y="453.7" font-family="Helvetica" font-size="10" font-weight="normal" font-style="normal" fill="#000000" fill-opacity="1">256k</text>
  <path d="M 1171 9 L 1171 441" fill="none" stroke-width="0.75" stroke="#000000" stroke-opacity="0.49804" stroke-linecap="butt" stroke-linejoin="round"/>
  <text x="1160" y="453.7" font-family="Helvetica" font-size="10" font-weight="normal" font-style="normal" fill="#000000" fill-opacity="1">512k</text>
  <path d="M 1230 9 L 1230 441" fill="none" stroke-width="0.75" stroke="#000000" stroke-opacity="0.49804" stroke-linecap="butt" stroke-linejoin="round"/>
  <text x="1223" y="453.7" font-family="Helvetica" font-size="10" font-weight="normal" font-style="normal" fill="#000000" fill-opacity="1">1M</text>
  <path d="M 50 441 L 1230 441" fill="none" stroke-width="0.75" stroke="#000000" stroke-opacity="0.49804" stroke-linecap="butt" stroke-linejoin="round"/>
  <text x="27" y="442.7" font-family="Helvetica" font-size="10" font-weight="normal" font-style="normal" fill="#000000" fill-opacity="1">1 ns</text>
  <text x="1236" y="442.7" font-family="Helvetica" font-size="10" font-weight="normal" font-style="normal" fill="#000000" fill-opacity="1">1 ns</text>
  <path d="M 50 297 L 1230 297" fill="none" stroke-width="0.75" stroke="#000000" stroke-opacity="0.49804" stroke-linecap="butt" stroke-linejoin="round"/>
  <text x="21" y="298.7" font-family="Helvetica" font-size="10" font-weight="normal" font-style="normal" fill="#000000" fill-opacity="1">10 ns</text>
  <text x="1236" y="298.7" font-family="Helvetica" font-size="10" font-weight="normal" font-style="normal" fill="#000000" fill-opacity="1">10 ns</text>
  <path d="M 50 153 L 1230 153" fill="none" stroke-width="0.75" stroke="#000000" stroke-opacity="0.49804" stroke-linecap="butt" stroke-linejoin="round"/>
  <text x="16" y="154.7" font-family="Helvetica" font-size="10" font-weight="normal" font-style="normal" fill="#000000" fill-opacity="1">100 ns</text>
  <text x="1236" y="154.7" font-family="Helvetica" font-size="10" font-weight="normal" font-style="normal" fill="#000000" fill-opacity="1">100 ns</text>
  <path d="M 50 9 L 1230 9" fill="none" stroke-width="0.75" stroke="#000000" stroke-opacity="0.49804" stroke-linecap="butt" stroke-linejoin="round"/>
  <text x="26" y="10.7" font-family="Helvetica" font-size="10" font-weight="normal" font-style="normal" fill="#000000" fill-opacity="1">1 µs</text>
  <text x="1236" y="10.7" font-family="Helvetica" font-size="10" font-weight="normal" font-style="normal" fill="#000000" fill-opacity="1">1 µs</text>
  <path d="M 50 397.65 L 1230 397.65" fill="none" stroke-width="0.5" stroke="#000000" stroke-opacity="0.25882" stroke-linecap="butt" stroke-linejoin="round" stroke-dasharray="6 3" stroke-dashoffset="0"/>
  <path d="M 50 354.3 L 1230 354.3" fill="none" stroke-width="0.5" stroke="#000000" stroke-opacity="0.25882" stroke-linecap="butt" stroke-linejoin="round" stroke-dasharray="6 3" stroke-dashoffset="0"/>
  <path d="M 50 310.96 L 1230 310.96" fill="none" stroke-width="0.5" stroke="#000000" stroke-opacity="0.25882" stroke-linecap="butt" stroke-linejoin="round" stroke-dasharray="6 3" stroke-dashoffset="0"/>
  <path d="M 50 267.61 L 1230 267.61" fill="none" stroke-width="0.5" stroke="#000000" stroke-opacity="0.25882" stroke-linecap="butt" stroke-linejoin="round" stroke-dasharray="6 3" stroke-dashoffset="0"/>
  <path d="M 50 224.26 L 1230 224.26" fill="none" stroke-width="0.5" stroke="#000000" stroke-opacity="0.25882" stroke-linecap="butt" stroke-linejoin="round" stroke-dasharray="6 3" stroke-dashoffset="0"/>
  <path d="M 50 180.91 L 1230 180.91" fill="none" stroke-width="0.5" stroke="#000000" stroke-opacity="0.25882" stroke-linecap="butt" stroke-linejoin="round" stroke-dasharray="6 3" stroke-dashoffset="0"/>
  <path d="M 50 137.56 L 1230 137.56" fill="none" stroke-width="0.5" stroke="#000000" stroke-opacity="0.25882" stroke-linecap="butt" stroke-linejoin="round" stroke-dasharray="6 3" stroke-dashoffset="0"/>
  <path d="M 50 94.213 L 1230 94.213" fill="none" stroke-width="0.5" stroke="#000000" stroke-opacity="0.25882" stroke-linecap="butt" stroke-linejoin="round" stroke-dasharray="6 3" stroke-dashoffset="0"/>
  <path d="M 50 50.865 L 1230 50.865" fill="none" stroke-width="0.5" stroke="#000000" stroke-opacity="0.25882" stroke-linecap="butt" stroke-linejoin="round" stroke-dasharray="6 3" stroke-dashoffset="0"/>
  <path d="M 74 33 L 74 88 L 312 88 L 312 33 z" fill="#FFFFFF" fill-opacity="1.0" stroke="none"/>
  <clipPath id="clip-0">
    <path d="M 50 9 L 50 441 L 1230 441 L 1230 9 z"/>
  </clipPath>
  <g clip-path="url(#clip-0)">
    <path d="M 50 205.91L 109 252.11L 143.51 191L 168 195.27L 186.99 221.58L 202.51 199.01L 215.63 192.79L 227 183.29L 245.99 207.56L 261.51 190.49L 274.63 192.41L 286 185.78L 304.99 191.36L 320.51 188.25L 333.63 195.59L 345 171.36L 363.99 185.7L 379.51 185.19L 392.63 181.32L 404 185.28L 422.99 181.34L 438.51 174.74L 451.63 169.08L 463 174.5L 481.99 176.82L 497.51 180.1L 510.63 171.52L 522 172.95L 540.99 174.61L 556.51 172.79L 569.63 171.03L 581 171.43L 599.99 167.56L 615.51 162.31L 628.63 166.83L 640 167.86L 658.99 165.52L 674.51 153.28L 687.63 163.74L 699 161.5L 717.99 157.61L 733.51 155.81L 746.63 156.56L 758 158.2L 776.99 156.02L 792.51 152.46L 805.63 153.22L 817 154.8L 835.99 147.98L 851.51 151.15L 864.63 150.6L 876 146.89L 894.99 149.14L 910.51 146.94L 923.63 149.08L 935 143.93L 953.99 146.97L 969.51 145.19L 982.63 145.73L 994 135.55L 1013 139.51L 1028.5 142.39L 1041.6 144.31L 1053 141.03L 1072 137.17L 1087.5 133.66L 1100.6 137.98L 1112 137.97L 1131 136.75L 1146.5 135.69L 1159.6 135.73L 1171 133.9L 1190 132.4L 1205.5 129.14L 1218.6 129.9L 1230 132.67L 1230 134.83L 1218.6 136.68L 1205.5 137.11L 1190 135.23L 1171 137.7L 1159.6 137.78L 1146.5 140.59L 1131 138.35L 1112 139.42L 1100.6 139.3L 1087.5 141.19L 1072 142.69L 1053 141.41L 1041.6 144.72L 1028.5 142.5L 1013 146.02L 994 147L 982.63 146.32L 969.51 146.17L 953.99 149.58L 935 147.97L 923.63 149.5L 910.51 150.22L 894.99 152.69L 876 152.12L 864.63 154.12L 851.51 153.79L 835.99 157.34L 817 155.92L 805.63 157.12L 792.51 156.67L 776.99 159.81L 758 160.15L 746.63 158.42L 733.51 164.21L 717.99 164.66L 699 164.59L 687.63 163.97L 674.51 168.74L 658.99 165.66L 640 169.49L 628.63 169.6L 615.51 170.6L 599.99 174.85L 581 174.38L 569.63 174.7L 556.51 175.9L 540.99 175.73L 522 177.39L 510.63 175.86L 497.51 181.32L 481.99 180.09L 463 182.72L 451.63 185.45L 438.51 186.9L 422.99 181.36L 404 190.74L 392.63 190.31L 379.51 188.8L 363.99 187.85L 345 193.82L 333.63 195.59L 320.51 195.88L 304.99 191.36L 286 203.99L 274.63 199.37L 261.51 207.75L 245.99 207.85L 227 207.63L 215.63 207.68L 202.51 218.95L 186.99 221.58L 168 225.74L 143.51 233.36L 109 252.11L 50 208.76" fill="#007AFF" fill-opacity="0.30196078431372547" stroke="none"/>
    <path d="M 50 205.91L 109 249.25L 143.51 277.46L 168 292.6L 186.99 307.9L 202.51 317.96L 215.63 327.6L 227 335.95L 245.99 351.25L 261.51 364.16L 274.63 373.8L 286 379.3L 304.99 393.25L 320.51 406L 333.63 414.3L 345 358.09L 363.99 395.35L 379.51 364.39L 392.63 374.03L 404 399.13L 422.99 382.62L 438.51 382.05L 451.63 381.85L 463 399.13L 481.99 388.49L 497.51 399.13L 510.63 386.16L 522 399.13L 540.99 395.16L 556.51 392.77L 569.63 396.14L 581 392.02L 599.99 391.49L 615.51 391.18L 628.63 393.55L 640 391.87L 658.99 395.11L 674.51 393.39L 687.63 390.95L 699 390.77L 717.99 394.61L 733.51 393.76L 746.63 394.17L 758 394.43L 776.99 394.16L 792.51 394.15L 805.63 393.98L 817 394.43L 835.99 392.32L 851.51 390.6L 864.63 394.31L 876 391.53L 894.99 394.37L 910.51 394.33L 923.63 394.18L 935 391.94L 953.99 390.75L 969.51 394.23L 982.63 394.2L 994 394.12L 1013 394.28L 1028.5 394.09L 1041.6 392L 1053 391.96L 1072 394.16L 1087.5 394.28L 1100.6 393.39L 1112 394.14L 1131 391.94L 1146.5 394.23L 1159.6 394.21L 1171 394L 1190 394.2L 1205.5 394.01L 1218.6 394.07L 1230 390.39L 1230 394.23L 1218.6 394.27L 1205.5 394.26L 1190 394.31L 1171 394.21L 1159.6 394.36L 1146.5 394.27L 1131 394.35L 1112 394.25L 1100.6 394.37L 1087.5 394.35L 1072 394.32L 1053 394.36L 1041.6 394.37L 1028.5 394.38L 1013 394.37L 994 394.37L 982.63 394.37L 969.51 394.33L 953.99 394.28L 935 394.28L 923.63 394.34L 910.51 394.33L 894.99 394.37L 876 394.35L 864.63 394.47L 851.51 394.33L 835.99 394.37L 817 394.43L 805.63 394.3L 792.51 394.53L 776.99 394.61L 758 394.43L 746.63 394.82L 733.51 394.53L 717.99 394.61L 699 394.13L 687.63 394.82L 674.51 394.94L 658.99 395.11L 640 394.15L 628.63 396.24L 615.51 394.13L 599.99 395.07L 581 396.56L 569.63 396.27L 556.51 399.13L 540.99 395.16L 522 399.13L 510.63 396.27L 497.51 399.13L 481.99 403.38L 463 399.13L 451.63 402.29L 438.51 406.75L 422.99 413.09L 404 399.13L 392.63 416.39L 379.51 406.75L 363.99 395.35L 345 423.99L 333.63 417.15L 320.51 406L 304.99 396.11L 286 382.15L 274.63 373.8L 261.51 364.16L 245.99 351.25L 227 338.8L 215.63 330.45L 202.51 320.81L 186.99 307.9L 168 295.46L 143.51 277.46L 109 252.11L 50 208.76" fill="#FF3B30" fill-opacity="0.30196078431372547" stroke="none"/>
    <path d="M 50 208L 109 252.11L 143.51 219.25L 168 216.24L 186.99 221.58L 202.51 213.1L 215.63 203.44L 227 200.3L 245.99 207.78L 261.51 202.76L 274.63 197.48L 286 198.7L 304.99 191.36L 320.51 193.8L 333.63 195.59L 345 187.13L 363.99 187.28L 379.51 187.83L 392.63 187.83L 404 189.27L 422.99 181.36L 438.51 183.49L 451.63 180.74L 463 180.47L 481.99 179.22L 497.51 181L 510.63 174.7L 522 176.2L 540.99 175.43L 556.51 175.07L 569.63 173.72L 581 173.6L 599.99 172.86L 615.51 168.33L 628.63 168.87L 640 169.06L 658.99 165.62L 674.51 164.32L 687.63 163.91L 699 163.76L 717.99 162.74L 733.51 161.9L 746.63 157.93L 758 159.63L 776.99 158.8L 792.51 155.54L 805.63 156.08L 817 155.62L 835.99 154.76L 851.51 153.09L 864.63 153.18L 876 150.71L 894.99 151.74L 910.51 149.34L 923.63 149.39L 935 146.89L 953.99 148.89L 969.51 145.91L 982.63 146.16L 994 143.8L 1013 144.26L 1028.5 142.47L 1041.6 144.61L 1053 141.31L 1072 141.2L 1087.5 139.14L 1100.6 138.96L 1112 139.04L 1131 137.93L 1146.5 139.27L 1159.6 137.24L 1171 136.69L 1190 134.48L 1205.5 134.93L 1218.6 134.84L 1230 134.26" fill="none" stroke-width="4" stroke="#007AFF" stroke-opacity="1" stroke-linecap="round" stroke-linejoin="round"/>
    <path d="M 50 208L 109 251.35L 143.51 277.46L 168 294.7L 186.99 307.9L 202.51 320.05L 215.63 329.7L 227 338.05L 245.99 351.25L 261.51 364.16L 274.63 373.8L 286 381.39L 304.99 395.35L 320.51 406L 333.63 416.39L 345 399.13L 363.99 395.35L 379.51 392.65L 392.63 402.29L 404 399.13L 422.99 403.59L 438.51 399.3L 451.63 396.27L 463 399.13L 481.99 399.13L 497.51 399.13L 510.63 393.47L 522 399.13L 540.99 395.16L 556.51 397.41L 569.63 396.24L 581 395.34L 599.99 394.11L 615.51 393.35L 628.63 395.52L 640 393.54L 658.99 395.11L 674.51 394.53L 687.63 393.79L 699 393.24L 717.99 394.61L 733.51 394.33L 746.63 394.65L 758 394.43L 776.99 394.49L 792.51 394.43L 805.63 394.22L 817 394.43L 835.99 393.83L 851.51 393.33L 864.63 394.43L 876 393.6L 894.99 394.37L 910.51 394.33L 923.63 394.3L 935 393.66L 953.99 393.34L 969.51 394.3L 982.63 394.32L 994 394.31L 1013 394.35L 1028.5 394.3L 1041.6 393.74L 1053 393.73L 1072 394.28L 1087.5 394.33L 1100.6 394.11L 1112 394.22L 1131 393.71L 1146.5 394.26L 1159.6 394.32L 1171 394.15L 1190 394.28L 1205.5 394.2L 1218.6 394.22L 1230 393.2" fill="none" stroke-width="4" stroke="#FF3B30" stroke-opacity="1" stroke-linecap="round" stroke-linejoin="round"/>
    <path d="M 50 208L 109 252.11L 143.51 219.25L 168 216.24L 186.99 221.58L 202.51 213.1L 215.63 203.44L 227 200.3L 245.99 207.78L 261.51 202.76L 274.63 197.48L 286 198.7L 304.99 191.36L 320.51 193.8L 333.63 195.59L 345 187.13L 363.99 187.28L 379.51 187.83L 392.63 187.83L 404 189.27L 422.99 181.36L 438.51 183.49L 451.63 180.74L 463 180.47L 481.99 179.22L 497.51 181L 510.63 174.7L 522 176.2L 540.99 175.43L 556.51 175.07L 569.63 173.72L 581 173.6L 599.99 172.86L 615.51 168.33L 628.63 168.87L 640 169.06L 658.99 165.62L 674.51 164.32L 687.63 163.91L 699 163.76L 717.99 162.74L 733.51 161.9L 746.63 157.93L 758 159.63L 776.99 158.8L 792.51 155.54L 805.63 156.08L 817 155.62L 835.99 154.76L 851.51 153.09L 864.63 153.18L 876 150.71L 894.99 151.74L 910.51 149.34L 923.63 149.39L 935 146.89L 953.99 148.89L 969.51 145.91L 982.63 146.16L 994 143.8L 1013 144.26L 1028.5 142.47L 1041.6 144.61L 1053 141.31L 1072 141.2L 1087.5 139.14L 1100.6 138.96L 1112 139.04L 1131 137.93L 1146.5 139.27L 1159.6 137.24L 1171 136.69L 1190 134.48L 1205.5 134.93L 1218.6 134.84L 1230 134.26" fill="none" stroke-width="0.5" stroke="#000000" stroke-opacity="0.30196" stroke-linecap="round" stroke-linejoin="round"/>
    <path d="M 50 208L 109 251.35L 143.51 277.46L 168 294.7L 186.99 307.9L 202.51 320.05L 215.63 329.7L 227 338.05L 245.99 351.25L 261.51 364.16L 274.63 373.8L 286 381.39L 304.99 395.35L 320.51 406L 333.63 416.39L 345 399.13L 363.99 395.35L 379.51 392.65L 392.63 402.29L 404 399.13L 422.99 403.59L 438.51 399.3L 451.63 396.27L 463 399.13L 481.99 399.13L 497.51 399.13L 510.63 393.47L 522 399.13L 540.99 395.16L 556.51 397.41L 569.63 396.24L 581 395.34L 599.99 394.11L 615.51 393.35L 628.63 395.52L 640 393.54L 658.99 395.11L 674.51 394.53L 687.63 393.79L 699 393.24L 717.99 394.61L 733.51 394.33L 746.63 394.65L 758 394.43L 776.99 394.49L 792.51 394.43L 805.63 394.22L 817 394.43L 835.99 393.83L 851.51 393.33L 864.63 394.43L 876 393.6L 894.99 394.37L 910.51 394.33L 923.63 394.3L 935 393.66L 953.99 393.34L 969.51 394.3L 982.63 394.32L 994 394.31L 1013 394.35L 1028.5 394.3L 1041.6 393.74L 1053 393.73L 1072 394.28L 1087.5 394.33L 1100.6 394.11L 1112 394.22L 1131 393.71L 1146.5 394.26L 1159.6 394.32L 1171 394.15L 1190 394.28L 1205.5 394.2L 1218.6 394.22L 1230 393.2" fill="none" stroke-width="0.5" stroke="#000000" stroke-opacity="0.30196" stroke-linecap="round" stroke-linejoin="round"/>
  </g>
  <path d="M 74 33 L 74 88 L 312 88 L 312 33 z" fill="#FFFFFF" fill-opacity="0.7019607843137254" stroke-width="0.5" stroke="#000000" stroke-opacity="1" stroke-linecap="round" stroke-linejoin="round"/>
  <path d="M 88 52 L 108 52" fill="none" stroke-width="4" stroke="#FF3B30" stroke-opacity="1" stroke-linecap="round" stroke-linejoin="round"/>
  <path d="M 88 52 L 108 52" fill="none" stroke-width="0.5" stroke="#000000" stroke-opacity="0.30196" stroke-linecap="round" stroke-linejoin="round"/>
  <text x="119" y="56.17" font-family="Menlo" font-size="12" font-weight="normal" font-style="normal" fill="#000000" fill-opacity="1">Array&lt;Int&gt; removeLast</text>
  <path d="M 88 69 L 108 69" fill="none" stroke-width="4" stroke="#007AFF" stroke-opacity="1" stroke-linecap="round" stroke-linejoin="round"/>
  <path d="M 88 69 L 108 69" fill="none" stroke-width="0.5" stroke="#000000" stroke-opacity="0.30196" stroke-linecap="round" stroke-linejoin="round"/>
  <text x="119" y="73.17" font-family="Menlo" font-size="12" font-weight="normal" font-style="normal" fill="#000000" fill-opacity="1">TreeArray&lt;Int&gt; removeLast</text>
  <path d="M 50 9 L 50 441 L 1230 441 L 1230 9 z" fill="none" stroke-width="0.5" stroke="#000000" stroke-opacity="1" stroke-linecap="round" stroke-linejoin="round"/>
</svg>
