<!DOCTYPE svg PUBLIC "-//W3C//DTD SVG 1.1//EN" "http://www.w3.org/Graphics/SVG/1.1/DTD/svg11.dtd">
<svg width="1280.0px" height="480.0px" viewBox="0.0 0.0 1280.0 480.0" xmlns="http://www.w3.org/2000/svg" xmlns:xlink="http://www.w3.org/1999/xlink" version="1.1">
  <path d="M 0 0 L 0 480 L 1280 480 L 1280 0 z" fill="#FFFFFF" fill-opacity="1.0" stroke="none"/>
  <text x="50" y="468.7" font-family="Helvetica" font-size="10" font-weight="normal" font-style="normal" fill="#000000" fill-opacity="1">Average per-element processing time over input size (bands: min, mean, mean + 2stddev)</text>
  <a xlink:href="https://github.com/apple/swift-collections-benchmark"><text x="1107" y="468.7" font-family="Helvetica" font-size="10" font-weight="normal" font-style="normal" fill="#000000" fill-opacity="1">swift-collections-benchmark</text></a>
  <path d="M 50 9 L 50 441" fill="none" stroke-width="0.75" stroke="#000000" stroke-opacity="0.49804" stroke-linecap="butt" stroke-linejoin="round"/>
  <text x="47" y="453.7" font-family="Helvetica" font-size="10" font-weight="normal" font-style="normal" fill="#000000" fill-opacity="1">1</text>
  <path d="M 109 9 L 109 441" fill="none" stroke-width="0.75" stroke="#000000" stroke-opacity="0.49804" stroke-linecap="butt" stroke-linejoin="round"/>
  <text x="106" y="453.7" font-family="Helvetica" font-size="10" font-weight="normal" font-style="normal" fill="#000000" fill-opacity="1">2</text>
  <path d="M 168 9 L 168 441" fill="none" stroke-width="0.75" stroke="#000000" stroke-opacity="0.49804" stroke-linecap="butt" stroke-linejoin="round"/>
  <text x="165" y="453.7" font-family="Helvetica" font-size="10" font-weight="normal" font-style="normal" fill="#000000" fill-opacity="1">4</text>
  <path d="M 227 9 L 227 441" fill="none" stroke-width="0.75" stroke="#000000" stroke-opacity="0.49804" stroke-linecap="butt" stroke-linejoin="round"/>
  <text x="224" y="453.7" font-family="Helvetica" font-size="10" font-weight="normal" font-style="normal" fill="#000000" fill-opacity="1">8</text>
  <path d="M 286 9 L 286 441" fill="none" stroke-width="0.75" stroke="#000000" stroke-opacity="0.49804" stroke-linecap="butt" stroke-linejoin="round"/>
  <text x="280" y="453.7" font-family="Helvetica" font-size="10" font-weight="normal" font-style="normal" fill="#000000" fill-opacity="1">16</text>
  <path d="M 345 9 L 345 441" fill="none" stroke-width="0.75" stroke="#000000" stroke-opacity="0.49804" stroke-linecap="butt" stroke-linejoin="round"/>
  <text x="339" y="453.7" font-family="Helvetica" font-size="10" font-weight="normal" font-style="normal" fill="#000000" fill-opacity="1">32</text>
  <path d="M 404 9 L 404 441" fill="none" stroke-width="0.75" stroke="#000000" stroke-opacity="0.49804" stroke-linecap="butt" stroke-linejoin="round"/>
  <text x="398" y="453.7" font-family="Helvetica" font-size="10" font-weight="normal" font-style="normal" fill="#000000" fill-opacity="1">64</text>
  <path d="M 463 9 L 463 441" fill="none" stroke-width="0.75" stroke="#000000" stroke-opacity="0.49804" stroke-linecap="butt" stroke-linejoin="round"/>
  <text x="454.5" y="453.7" font-family="Helvetica" font-size="10" font-weight="normal" font-style="normal" fill="#000000" fill-opacity="1">128</text>
  <path d="M 522 9 L 522 441" fill="none" stroke-width="0.75" stroke="#000000" stroke-opacity="0.49804" stroke-linecap="butt" stroke-linejoin="round"/>
  <text x="513.5" y="453.7" font-family="Helvetica" font-size="10" font-weight="normal" font-style="normal" fill="#000000" fill-opacity="1">256</text>
  <path d="M 581 9 L 581 441" fill="none" stroke-width="0.75" stroke="#000000" stroke-opacity="0.49804" stroke-linecap="butt" stroke-linejoin="round"/>
  <text x="572.5" y="453.7" font-family="Helvetica" font-size="10" font-weight="normal" font-style="normal" fill="#000000" fill-opacity="1">512</text>
  <path d="M 640 9 L 640 441" fill="none" stroke-width="0.75" stroke="#000000" stroke-opacity="0.49804" stroke-linecap="butt" stroke-linejoin="round"/>
  <text x="634.5" y="453.7" font-family="Helvetica" font-size="10" font-weight="normal" font-style="normal" fill="#000000" fill-opacity="1">1k</text>
  <path d="M 699 9 L 699 441" fill="none" stroke-width="0.75" stroke="#000000" stroke-opacity="0.49804" stroke-linecap="butt" stroke-linejoin="round"/>
  <text x="693.5" y="453.7" font-family="Helvetica" font-size="10" font-weight="normal" font-style="normal" fill="#000000" fill-opacity="1">2k</text>
  <path d="M 758 9 L 758 441" fill="none" stroke-width="0.75" stroke="#000000" stroke-opacity="0.49804" stroke-linecap="butt" stroke-linejoin="round"/>
  <text x="752.5" y="453.7" font-family="Helvetica" font-size="10" font-weight="normal" font-style="normal" fill="#000000" fill-opacity="1">4k</text>
  <path d="M 817 9 L 817 441" fill="none" stroke-width="0.75" stroke="#000000" stroke-opacity="0.49804" stroke-linecap="butt" stroke-linejoin="round"/>
  <text x="811.5" y="453.7" font-family="Helvetica" font-size="10" font-weight="normal" font-style="normal" fill="#000000" fill-opacity="1">8k</text>
  <path d="M 876 9 L 876 441" fill="none" stroke-width="0.75" stroke="#000000" stroke-opacity="0.49804" stroke-linecap="butt" stroke-linejoin="round"/>
  <text x="867.5" y="453.7" font-family="Helvetica" font-size="10" font-weight="normal" font-style="normal" fill="#000000" fill-opacity="1">16k</text>
  <path d="M 935 9 L 935 441" fill="none" stroke-width="0.75" stroke="#000000" stroke-opacity="0.49804" stroke-linecap="butt" stroke-linejoin="round"/>
  <text x="926.5" y="453.7" font-family="Helvetica" font-size="10" font-weight="normal" font-style="normal" fill="#000000" fill-opacity="1">32k</text>
  <path d="M 994 9 L 994 441" fill="none" stroke-width="0.75" stroke="#000000" stroke-opacity="0.49804" stroke-linecap="butt" stroke-linejoin="round"/>
  <text x="985.5" y="453.7" font-family="Helvetica" font-size="10" font-weight="normal" font-style="normal" fill="#000000" fill-opacity="1">64k</text>
  <path d="M 1053 9 L 1053 441" fill="none" stroke-width="0.75" stroke="#000000" stroke-opacity="0.49804" stroke-linecap="butt" stroke-linejoin="round"/>
  <text x="1042" y="453.7" font-family="Helvetica" font-size="10" font-weight="normal" font-style="normal" fill="#000000" fill-opacity="1">128k</text>
  <path d="M 1112 9 L 1112 441" fill="none" stroke-width="0.75" stroke="#000000" stroke-opacity="0.49804" stroke-linecap="butt" stroke-linejoin="round"/>
  <text x="1101" y="453.7" font-family="Helvetica" font-size="10" font-weight="normal" font-style="normal" fill="#000000" fill-opacity="1">256k</text>
  <path d="M 1171 9 L 1171 441" fill="none" stroke-width="0.75" stroke="#000000" stroke-opacity="0.49804" stroke-linecap="butt" stroke-linejoin="round"/>
  <text x="1160" y="453.7" font-family="Helvetica" font-size="10" font-weight="normal" font-style="normal" fill="#000000" fill-opacity="1">512k</text>
  <path d="M 1230 9 L 1230 441" fill="none" stroke-width="0.75" stroke="#000000" stroke-opacity="0.49804" stroke-linecap="butt" stroke-linejoin="round"/>
  <text x="1223" y="453.7" font-family="Helvetica" font-size="10" font-weight="normal" font-style="normal" fill="#000000" fill-opacity="1">1M</text>
  <path d="M 50 441 L 1230 441" fill="none" stroke-width="0.75" stroke="#000000" stroke-opacity="0.49804" stroke-linecap="butt" stroke-linejoin="round"/>
  <text x="27" y="442.7" font-family="Helvetica" font-size="10" font-weight="normal" font-style="normal" fill="#000000" fill-opacity="1">1 ns</text>
  <text x="1236" y="442.7" font-family="Helvetica" font-size="10" font-weight="normal" font-style="normal" fill="#000000" fill-opacity="1">1 ns</text>
  <path d="M 50 297 L 1230 297" fill="none" stroke-width="0.75" stroke="#000000" stroke-opacity="0.49804" stroke-linecap="butt" stroke-linejoin="round"/>
  <text x="21" y="298.7" font-family="Helvetica" font-size="10" font-weight="normal" font-style="normal" fill="#000000" fill-opacity="1">10 ns</text>
  <text x="1236" y="298.7" font-family="Helvetica" font-size="10" font-weight="normal" font-style="normal" fill="#000000" fill-opacity="1">10 ns</text>
  <path d="M 50 153 L 1230 153" fill="none" stroke-width="0.75" stroke="#000000" stroke-opacity="0.49804" stroke-linecap="butt" stroke-linejoin="round"/>
  <text x="16" y="154.7" font-family="Helvetica" font-size="10" font-weight="normal" font-style="normal" fill="#000000" fill-opacity="1">100 ns</text>
  <text x="1236" y="154.7" font-family="Helvetica" font-size="10" font-weight="normal" font-style="normal" fill="#000000" fill-opacity="1">100 ns</text>
  <path d="M 50 9 L 1230 9" fill="none" stroke-width="0.75" stroke="#000000" stroke-opacity="0.49804" stroke-linecap="butt" stroke-linejoin="round"/>
  <text x="26" y="10.7" font-family="Helvetica" font-size="10" font-weight="normal" font-style="normal" fill="#000000" fill-opacity="1">1 µs</text>
  <text x="1236" y="10.7" font-family="Helvetica" font-size="10" font-weight="normal" font-style="normal" fill="#000000" fill-opacity="1">1 µs</text>
  <path d="M 50 397.65 L 1230 397.65" fill="none" stroke-width="0.5" stroke="#000000" stroke-opacity="0.25882" stroke-linecap="butt" stroke-linejoin="round" stroke-dasharray="6 3" stroke-dashoffset="0"/>
  <path d="M 50 354.3 L 1230 354.3" fill="none" stroke-width="0.5" stroke="#000000" stroke-opacity="0.25882" stroke-linecap="butt" stroke-linejoin="round" stroke-dasharray="6 3" stroke-dashoffset="0"/>
  <path d="M 50 310.96 L 1230 310.96" fill="none" stroke-width="0.5" stroke="#000000" stroke-opacity="0.25882" stroke-linecap="butt" stroke-linejoin="round" stroke-dasharray="6 3" stroke-dashoffset="0"/>
  <path d="M 50 267.61 L 1230 267.61" fill="none" stroke-width="0.5" stroke="#000000" stroke-opacity="0.25882" stroke-linecap="butt" stroke-linejoin="round" stroke-dasharray="6 3" stroke-dashoffset="0"/>
  <path d="M 50 224.26 L 1230 224.26" fill="none" stroke-width="0.5" stroke="#000000" stroke-opacity="0.25882" stroke-linecap="butt" stroke-linejoin="round" stroke-dasharray="6 3" stroke-dashoffset="0"/>
  <path d="M 50 180.91 L 1230 180.91" fill="none" stroke-width="0.5" stroke="#000000" stroke-opacity="0.25882" stroke-linecap="butt" stroke-linejoin="round" stroke-dasharray="6 3" stroke-dashoffset="0"/>
  <path d="M 50 137.56 L 1230 137.56" fill="none" stroke-width="0.5" stroke="#000000" stroke-opacity="0.25882" stroke-linecap="butt" stroke-linejoin="round" stroke-dasharray="6 3" stroke-dashoffset="0"/>
  <path d="M 50 94.213 L 1230 94.213" fill="none" stroke-width="0.5" stroke="#000000" stroke-opacity="0.25882" stroke-linecap="butt" stroke-linejoin="round" stroke-dasharray="6 3" stroke-dashoffset="0"/>
  <path d="M 50 50.865 L 1230 50.865" fill="none" stroke-width="0.5" stroke="#000000" stroke-opacity="0.25882" stroke-linecap="butt" stroke-linejoin="round" stroke-dasharray="6 3" stroke-dashoffset="0"/>
  <path d="M 74 33 L 74 88 L 312 88 L 312 33 z" fill="#FFFFFF" fill-opacity="1.0" stroke="none"/>
  <clipPath id="clip-0">
    <path d="M 50 9 L 50 441 L 1230 441 L 1230 9 z"/>
  </clipPath>
  <g clip-path="url(#clip-0)">
    <path d="M 50 205.91L 109 249.25L 143.51 191L 168 207.28L 186.99 197.49L 202.51 190.31L 215.63 199.46L 227 183.53L 245.99 183.48L 261.51 176.71L 274.63 192.33L 286 193.82L 304.99 191.51L 320.51 190.11L 333.63 192.03L 345 176.76L 363.99 183.52L 379.51 178.74L 392.63 184.24L 404 183.91L 422.99 184.63L 438.51 180.82L 451.63 177.23L 463 178.11L 481.99 175.62L 497.51 175.65L 510.63 171.93L 522 175.49L 540.99 163.41L 556.51 171.17L 569.63 172.05L 581 165.8L 599.99 167.86L 615.51 169.06L 628.63 166.02L 640 165.94L 658.99 166.19L 674.51 164.54L 687.63 162.15L 699 159.28L 717.99 159.11L 733.51 151.81L 746.63 156.08L 758 156.9L 776.99 159.81L 792.51 147.29L 805.63 151.58L 817 152.11L 835.99 147.71L 851.51 150.61L 864.63 146.84L 876 145.36L 894.99 148.88L 910.51 145.83L 923.63 142.86L 935 143.47L 953.99 144.65L 969.51 141.63L 982.63 139.08L 994 141.32L 1013 136.7L 1028.5 143.04L 1041.6 141.58L 1053 142.11L 1072 136.91L 1087.5 134.14L 1100.6 140.43L 1112 138.19L 1131 137.35L 1146.5 136.32L 1159.6 138.3L 1171 128.02L 1190 133.61L 1205.5 131.91L 1218.6 132.94L 1230 130.36L 1230 134.82L 1218.6 136.46L 1205.5 134.12L 1190 136.01L 1171 138.11L 1159.6 138.97L 1146.5 138.38L 1131 140.36L 1112 139.2L 1100.6 141.1L 1087.5 142.42L 1072 141.93L 1053 143.15L 1041.6 145.71L 1028.5 146.13L 1013 143.71L 994 145.63L 982.63 145.82L 969.51 148.03L 953.99 150.4L 935 147.7L 923.63 149.16L 910.51 150.28L 894.99 149.5L 876 151.47L 864.63 153.09L 851.51 154.42L 835.99 153.66L 817 155.62L 805.63 154.68L 792.51 160.39L 776.99 160.66L 758 160.96L 746.63 158.83L 733.51 165.13L 717.99 161.43L 699 167.1L 687.63 164.18L 674.51 165.89L 658.99 168.1L 640 170.02L 628.63 169.83L 615.51 172.43L 599.99 171.21L 581 171.17L 569.63 172.36L 556.51 174.74L 540.99 177.15L 522 179.53L 510.63 182.77L 497.51 176.39L 481.99 184.24L 463 180.47L 451.63 182.03L 438.51 184.16L 422.99 187.84L 404 187.83L 392.63 192.03L 379.51 192.78L 363.99 185.6L 345 192.26L 333.63 192.03L 320.51 198.09L 304.99 196.35L 286 193.82L 274.63 199.46L 261.51 198.04L 245.99 214.34L 227 207.63L 215.63 199.46L 202.51 207.75L 186.99 221.58L 168 208L 143.51 233.36L 109 252.11L 50 208.76" fill="#007AFF" fill-opacity="0.30196078431372547" stroke="none"/>
    <path d="M 50 208.76L 109 252.11L 143.51 275.96L 168 292.6L 186.99 307.9L 202.51 317.96L 215.63 327.6L 227 335.95L 245.99 352.76L 261.51 364.16L 274.63 370.95L 286 380.65L 304.99 393.25L 320.51 339.62L 333.63 414.3L 345 423.99L 363.99 372.04L 379.51 405.33L 392.63 374.03L 404 399.13L 422.99 395.35L 438.51 382.28L 451.63 402.29L 463 399.13L 481.99 395.16L 497.51 399.13L 510.63 396.27L 522 399.13L 540.99 394.98L 556.51 395.81L 569.63 391.07L 581 391.97L 599.99 391.45L 615.51 395.77L 628.63 394.82L 640 395.34L 658.99 393.26L 674.51 393.39L 687.63 394.82L 699 393.6L 717.99 394.61L 733.51 394.53L 746.63 394.47L 758 394.43L 776.99 394.16L 792.51 394.33L 805.63 394.14L 817 394.43L 835.99 394.14L 851.51 394.24L 864.63 394.22L 876 390.5L 894.99 394.26L 910.51 394.23L 923.63 392.23L 935 394.18L 953.99 392.21L 969.51 394.38L 982.63 394.2L 994 392.06L 1013 394.28L 1028.5 394.34L 1041.6 394.25L 1053 394.2L 1072 394.23L 1087.5 392.5L 1100.6 392.16L 1112 392.12L 1131 390.75L 1146.5 394.09L 1159.6 393.98L 1171 394.25L 1190 389.37L 1205.5 391.55L 1218.6 393.8L 1230 393.56L 1230 394.17L 1218.6 394.35L 1205.5 394.25L 1190 394.35L 1171 394.25L 1159.6 394.24L 1146.5 394.36L 1131 394.26L 1112 394.36L 1100.6 394.25L 1087.5 393.94L 1072 394.32L 1053 394.36L 1041.6 394.25L 1028.5 394.37L 1013 394.28L 994 394.26L 982.63 394.32L 969.51 394.38L 953.99 394.31L 935 394.39L 923.63 394.34L 910.51 394.33L 894.99 394.37L 876 394.28L 864.63 394.39L 851.51 394.43L 835.99 394.37L 817 394.43L 805.63 394.48L 792.51 394.33L 776.99 394.61L 758 394.43L 746.63 394.47L 733.51 394.53L 717.99 394.61L 699 394.73L 687.63 394.82L 674.51 394.94L 658.99 395.11L 640 395.34L 628.63 394.82L 615.51 395.77L 599.99 395.11L 581 396.62L 569.63 396.2L 556.51 395.81L 540.99 395.16L 522 399.13L 510.63 396.27L 497.51 399.13L 481.99 395.16L 463 399.13L 451.63 402.29L 438.51 406.38L 422.99 395.35L 404 399.13L 392.63 416.39L 379.51 406.75L 363.99 437.95L 345 423.99L 333.63 417.15L 320.51 407.51L 304.99 396.11L 286 380.65L 274.63 373.8L 261.51 364.16L 245.99 352.76L 227 338.8L 215.63 330.45L 202.51 320.81L 186.99 307.9L 168 295.46L 143.51 275.96L 109 252.11L 50 208.76" fill="#FF3B30" fill-opacity="0.30196078431372547" stroke="none"/>
    <path d="M 50 208L 109 251.35L 143.51 219.25L 168 207.81L 186.99 214.34L 202.51 202.71L 215.63 199.46L 227 200.38L 245.99 204.7L 261.51 191.73L 274.63 197.52L 286 193.82L 304.99 195.05L 320.51 195.91L 333.63 192.03L 345 187.83L 363.99 185.05L 379.51 188.8L 392.63 189.9L 404 186.78L 422.99 186.99L 438.51 183.27L 451.63 180.74L 463 179.84L 481.99 181.87L 497.51 176.2L 510.63 179.75L 522 178.45L 540.99 173.26L 556.51 173.79L 569.63 172.28L 581 169.72L 599.99 170.32L 615.51 171.53L 628.63 168.81L 640 168.93L 658.99 167.6L 674.51 165.53L 687.63 163.64L 699 164.96L 717.99 160.82L 733.51 161.37L 746.63 158.1L 758 159.87L 776.99 160.44L 792.51 156.69L 805.63 153.86L 817 154.69L 835.99 152.05L 851.51 153.4L 864.63 151.4L 876 149.82L 894.99 149.34L 910.51 149.09L 923.63 147.46L 935 146.57L 953.99 148.85L 969.51 146.3L 982.63 143.99L 994 144.48L 1013 141.8L 1028.5 145.31L 1041.6 144.6L 1053 142.88L 1072 140.58L 1087.5 140.15L 1100.6 140.93L 1112 138.93L 1131 139.56L 1146.5 137.83L 1159.6 138.8L 1171 135.31L 1190 135.37L 1205.5 133.54L 1218.6 135.52L 1230 133.62" fill="none" stroke-width="4" stroke="#007AFF" stroke-opacity="1" stroke-linecap="round" stroke-linejoin="round"/>
    <path d="M 50 208.76L 109 252.11L 143.51 275.96L 168 294.7L 186.99 307.9L 202.51 320.05L 215.63 329.7L 227 338.05L 245.99 352.76L 261.51 364.16L 274.63 373.04L 286 380.65L 304.99 395.35L 320.51 381.65L 333.63 416.39L 345 423.99L 363.99 413.09L 379.51 406.38L 392.63 402.29L 404 399.13L 422.99 395.35L 438.51 399.13L 451.63 402.29L 463 399.13L 481.99 395.16L 497.51 399.13L 510.63 396.27L 522 399.13L 540.99 395.11L 556.51 395.81L 569.63 394.82L 581 395.37L 599.99 394.14L 615.51 395.77L 628.63 394.82L 640 395.34L 658.99 394.62L 674.51 394.53L 687.63 394.82L 699 394.43L 717.99 394.61L 733.51 394.53L 746.63 394.47L 758 394.43L 776.99 394.49L 792.51 394.33L 805.63 394.39L 817 394.43L 835.99 394.31L 851.51 394.38L 864.63 394.34L 876 393.27L 894.99 394.34L 910.51 394.3L 923.63 393.79L 935 394.34L 953.99 393.75L 969.51 394.38L 982.63 394.29L 994 393.68L 1013 394.28L 1028.5 394.36L 1041.6 394.25L 1053 394.32L 1072 394.29L 1087.5 393.56L 1100.6 393.7L 1112 393.77L 1131 393.32L 1146.5 394.29L 1159.6 394.17L 1171 394.25L 1190 393.01L 1205.5 393.54L 1218.6 394.21L 1230 394.01" fill="none" stroke-width="4" stroke="#FF3B30" stroke-opacity="1" stroke-linecap="round" stroke-linejoin="round"/>
    <path d="M 50 208L 109 251.35L 143.51 219.25L 168 207.81L 186.99 214.34L 202.51 202.71L 215.63 199.46L 227 200.38L 245.99 204.7L 261.51 191.73L 274.63 197.52L 286 193.82L 304.99 195.05L 320.51 195.91L 333.63 192.03L 345 187.83L 363.99 185.05L 379.51 188.8L 392.63 189.9L 404 186.78L 422.99 186.99L 438.51 183.27L 451.63 180.74L 463 179.84L 481.99 181.87L 497.51 176.2L 510.63 179.75L 522 178.45L 540.99 173.26L 556.51 173.79L 569.63 172.28L 581 169.72L 599.99 170.32L 615.51 171.53L 628.63 168.81L 640 168.93L 658.99 167.6L 674.51 165.53L 687.63 163.64L 699 164.96L 717.99 160.82L 733.51 161.37L 746.63 158.1L 758 159.87L 776.99 160.44L 792.51 156.69L 805.63 153.86L 817 154.69L 835.99 152.05L 851.51 153.4L 864.63 151.4L 876 149.82L 894.99 149.34L 910.51 149.09L 923.63 147.46L 935 146.57L 953.99 148.85L 969.51 146.3L 982.63 143.99L 994 144.48L 1013 141.8L 1028.5 145.31L 1041.6 144.6L 1053 142.88L 1072 140.58L 1087.5 140.15L 1100.6 140.93L 1112 138.93L 1131 139.56L 1146.5 137.83L 1159.6 138.8L 1171 135.31L 1190 135.37L 1205.5 133.54L 1218.6 135.52L 1230 133.62" fill="none" stroke-width="0.5" stroke="#000000" stroke-opacity="0.30196" stroke-linecap="round" stroke-linejoin="round"/>
    <path d="M 50 208.76L 109 252.11L 143.51 275.96L 168 294.7L 186.99 307.9L 202.51 320.05L 215.63 329.7L 227 338.05L 245.99 352.76L 261.51 364.16L 274.63 373.04L 286 380.65L 304.99 395.35L 320.51 381.65L 333.63 416.39L 345 423.99L 363.99 413.09L 379.51 406.38L 392.63 402.29L 404 399.13L 422.99 395.35L 438.51 399.13L 451.63 402.29L 463 399.13L 481.99 395.16L 497.51 399.13L 510.63 396.27L 522 399.13L 540.99 395.11L 556.51 395.81L 569.63 394.82L 581 395.37L 599.99 394.14L 615.51 395.77L 628.63 394.82L 640 395.34L 658.99 394.62L 674.51 394.53L 687.63 394.82L 699 394.43L 717.99 394.61L 733.51 394.53L 746.63 394.47L 758 394.43L 776.99 394.49L 792.51 394.33L 805.63 394.39L 817 394.43L 835.99 394.31L 851.51 394.38L 864.63 394.34L 876 393.27L 894.99 394.34L 910.51 394.3L 923.63 393.79L 935 394.34L 953.99 393.75L 969.51 394.38L 982.63 394.29L 994 393.68L 1013 394.28L 1028.5 394.36L 1041.6 394.25L 1053 394.32L 1072 394.29L 1087.5 393.56L 1100.6 393.7L 1112 393.77L 1131 393.32L 1146.5 394.29L 1159.6 394.17L 1171 394.25L 1190 393.01L 1205.5 393.54L 1218.6 394.21L 1230 394.01" fill="none" stroke-width="0.5" stroke="#000000" stroke-opacity="0.30196" stroke-linecap="round" stroke-linejoin="round"/>
  </g>
  <path d="M 74 33 L 74 88 L 312 88 L 312 33 z" fill="#FFFFFF" fill-opacity="0.7019607843137254" stroke-width="0.5" stroke="#000000" stroke-opacity="1" stroke-linecap="round" stroke-linejoin="round"/>
  <path d="M 88 52 L 108 52" fill="none" stroke-width="4" stroke="#FF3B30" stroke-opacity="1" stroke-linecap="round" stroke-linejoin="round"/>
  <path d="M 88 52 L 108 52" fill="none" stroke-width="0.5" stroke="#000000" stroke-opacity="0.30196" stroke-linecap="round" stroke-linejoin="round"/>
  <text x="119" y="56.17" font-family="Menlo" font-size="12" font-weight="normal" font-style="normal" fill="#000000" fill-opacity="1">Array&lt;Int&gt; removeLast</text>
  <path d="M 88 69 L 108 69" fill="none" stroke-width="4" stroke="#007AFF" stroke-opacity="1" stroke-linecap="round" stroke-linejoin="round"/>
  <path d="M 88 69 L 108 69" fill="none" stroke-width="0.5" stroke="#000000" stroke-opacity="0.30196" stroke-linecap="round" stroke-linejoin="round"/>
  <text x="119" y="73.17" font-family="Menlo" font-size="12" font-weight="normal" font-style="normal" fill="#000000" fill-opacity="1">TreeArray&lt;Int&gt; removeLast</text>
  <path d="M 50 9 L 50 441 L 1230 441 L 1230 9 z" fill="none" stroke-width="0.5" stroke="#000000" stroke-opacity="1" stroke-linecap="round" stroke-linejoin="round"/>
</svg>
