<!DOCTYPE svg PUBLIC "-//W3C//DTD SVG 1.1//EN" "http://www.w3.org/Graphics/SVG/1.1/DTD/svg11.dtd">
<svg width="1280.0px" height="480.0px" viewBox="0.0 0.0 1280.0 480.0" xmlns="http://www.w3.org/2000/svg" xmlns:xlink="http://www.w3.org/1999/xlink" version="1.1">
  <path d="M 0 0 L 0 480 L 1280 480 L 1280 0 z" fill="#FFFFFF" fill-opacity="1.0" stroke="none"/>
  <text x="50" y="468.7" font-family="Helvetica" font-size="10" font-weight="normal" font-style="normal" fill="#000000" fill-opacity="1">Average per-element processing time over input size (bands: min, mean, mean + 2stddev)</text>
  <a xlink:href="https://github.com/apple/swift-collections-benchmark"><text x="1107" y="468.7" font-family="Helvetica" font-size="10" font-weight="normal" font-style="normal" fill="#000000" fill-opacity="1">swift-collections-benchmark</text></a>
  <path d="M 50 9 L 50 441" fill="none" stroke-width="0.75" stroke="#000000" stroke-opacity="0.49804" stroke-linecap="butt" stroke-linejoin="round"/>
  <text x="47" y="453.7" font-family="Helvetica" font-size="10" font-weight="normal" font-style="normal" fill="#000000" fill-opacity="1">1</text>
  <path d="M 109 9 L 109 441" fill="none" stroke-width="0.75" stroke="#000000" stroke-opacity="0.49804" stroke-linecap="butt" stroke-linejoin="round"/>
  <text x="106" y="453.7" font-family="Helvetica" font-size="10" font-weight="normal" font-style="normal" fill="#000000" fill-opacity="1">2</text>
  <path d="M 168 9 L 168 441" fill="none" stroke-width="0.75" stroke="#000000" stroke-opacity="0.49804" stroke-linecap="butt" stroke-linejoin="round"/>
  <text x="165" y="453.7" font-family="Helvetica" font-size="10" font-weight="normal" font-style="normal" fill="#000000" fill-opacity="1">4</text>
  <path d="M 227 9 L 227 441" fill="none" stroke-width="0.75" stroke="#000000" stroke-opacity="0.49804" stroke-linecap="butt" stroke-linejoin="round"/>
  <text x="224" y="453.7" font-family="Helvetica" font-size="10" font-weight="normal" font-style="normal" fill="#000000" fill-opacity="1">8</text>
  <path d="M 286 9 L 286 441" fill="none" stroke-width="0.75" stroke="#000000" stroke-opacity="0.49804" stroke-linecap="butt" stroke-linejoin="round"/>
  <text x="280" y="453.7" font-family="Helvetica" font-size="10" font-weight="normal" font-style="normal" fill="#000000" fill-opacity="1">16</text>
  <path d="M 345 9 L 345 441" fill="none" stroke-width="0.75" stroke="#000000" stroke-opacity="0.49804" stroke-linecap="butt" stroke-linejoin="round"/>
  <text x="339" y="453.7" font-family="Helvetica" font-size="10" font-weight="normal" font-style="normal" fill="#000000" fill-opacity="1">32</text>
  <path d="M 404 9 L 404 441" fill="none" stroke-width="0.75" stroke="#000000" stroke-opacity="0.49804" stroke-linecap="butt" stroke-linejoin="round"/>
  <text x="398" y="453.7" font-family="Helvetica" font-size="10" font-weight="normal" font-style="normal" fill="#000000" fill-opacity="1">64</text>
  <path d="M 463 9 L 463 441" fill="none" stroke-width="0.75" stroke="#000000" stroke-opacity="0.49804" stroke-linecap="butt" stroke-linejoin="round"/>
  <text x="454.5" y="453.7" font-family="Helvetica" font-size="10" font-weight="normal" font-style="normal" fill="#000000" fill-opacity="1">128</text>
  <path d="M 522 9 L 522 441" fill="none" stroke-width="0.75" stroke="#000000" stroke-opacity="0.49804" stroke-linecap="butt" stroke-linejoin="round"/>
  <text x="513.5" y="453.7" font-family="Helvetica" font-size="10" font-weight="normal" font-style="normal" fill="#000000" fill-opacity="1">256</text>
  <path d="M 581 9 L 581 441" fill="none" stroke-width="0.75" stroke="#000000" stroke-opacity="0.49804" stroke-linecap="butt" stroke-linejoin="round"/>
  <text x="572.5" y="453.7" font-family="Helvetica" font-size="10" font-weight="normal" font-style="normal" fill="#000000" fill-opacity="1">512</text>
  <path d="M 640 9 L 640 441" fill="none" stroke-width="0.75" stroke="#000000" stroke-opacity="0.49804" stroke-linecap="butt" stroke-linejoin="round"/>
  <text x="634.5" y="453.7" font-family="Helvetica" font-size="10" font-weight="normal" font-style="normal" fill="#000000" fill-opacity="1">1k</text>
  <path d="M 699 9 L 699 441" fill="none" stroke-width="0.75" stroke="#000000" stroke-opacity="0.49804" stroke-linecap="butt" stroke-linejoin="round"/>
  <text x="693.5" y="453.7" font-family="Helvetica" font-size="10" font-weight="normal" font-style="normal" fill="#000000" fill-opacity="1">2k</text>
  <path d="M 758 9 L 758 441" fill="none" stroke-width="0.75" stroke="#000000" stroke-opacity="0.49804" stroke-linecap="butt" stroke-linejoin="round"/>
  <text x="752.5" y="453.7" font-family="Helvetica" font-size="10" font-weight="normal" font-style="normal" fill="#000000" fill-opacity="1">4k</text>
  <path d="M 817 9 L 817 441" fill="none" stroke-width="0.75" stroke="#000000" stroke-opacity="0.49804" stroke-linecap="butt" stroke-linejoin="round"/>
  <text x="811.5" y="453.7" font-family="Helvetica" font-size="10" font-weight="normal" font-style="normal" fill="#000000" fill-opacity="1">8k</text>
  <path d="M 876 9 L 876 441" fill="none" stroke-width="0.75" stroke="#000000" stroke-opacity="0.49804" stroke-linecap="butt" stroke-linejoin="round"/>
  <text x="867.5" y="453.7" font-family="Helvetica" font-size="10" font-weight="normal" font-style="normal" fill="#000000" fill-opacity="1">16k</text>
  <path d="M 935 9 L 935 441" fill="none" stroke-width="0.75" stroke="#000000" stroke-opacity="0.49804" stroke-linecap="butt" stroke-linejoin="round"/>
  <text x="926.5" y="453.7" font-family="Helvetica" font-size="10" font-weight="normal" font-style="normal" fill="#000000" fill-opacity="1">32k</text>
  <path d="M 994 9 L 994 441" fill="none" stroke-width="0.75" stroke="#000000" stroke-opacity="0.49804" stroke-linecap="butt" stroke-linejoin="round"/>
  <text x="985.5" y="453.7" font-family="Helvetica" font-size="10" font-weight="normal" font-style="normal" fill="#000000" fill-opacity="1">64k</text>
  <path d="M 1053 9 L 1053 441" fill="none" stroke-width="0.75" stroke="#000000" stroke-opacity="0.49804" stroke-linecap="butt" stroke-linejoin="round"/>
  <text x="1042" y="453.7" font-family="Helvetica" font-size="10" font-weight="normal" font-style="normal" fill="#000000" fill-opacity="1">128k</text>
  <path d="M 1112 9 L 1112 441" fill="none" stroke-width="0.75" stroke="#000000" stroke-opacity="0.49804" stroke-linecap="butt" stroke-linejoin="round"/>
  <text x="1101" y="453.7" font-family="Helvetica" font-size="10" font-weight="normal" font-style="normal" fill="#000000" fill-opacity="1">256k</text>
  <path d="M 1171 9 L 1171 441" fill="none" stroke-width="0.75" stroke="#000000" stroke-opacity="0.49804" stroke-linecap="butt" stroke-linejoin="round"/>
  <text x="1160" y="453.7" font-family="Helvetica" font-size="10" font-weight="normal" font-style="normal" fill="#000000" fill-opacity="1">512k</text>
  <path d="M 1230 9 L 1230 441" fill="none" stroke-width="0.75" stroke="#000000" stroke-opacity="0.49804" stroke-linecap="butt" stroke-linejoin="round"/>
  <text x="1223" y="453.7" font-family="Helvetica" font-size="10" font-weight="normal" font-style="normal" fill="#000000" fill-opacity="1">1M</text>
  <path d="M 50 441 L 1230 441" fill="none" stroke-width="0.75" stroke="#000000" stroke-opacity="0.49804" stroke-linecap="butt" stroke-linejoin="round"/>
  <text x="27" y="442.7" font-family="Helvetica" font-size="10" font-weight="normal" font-style="normal" fill="#000000" fill-opacity="1">1 ns</text>
  <text x="1236" y="442.7" font-family="Helvetica" font-size="10" font-weight="normal" font-style="normal" fill="#000000" fill-opacity="1">1 ns</text>
  <path d="M 50 297 L 1230 297" fill="none" stroke-width="0.75" stroke="#000000" stroke-opacity="0.49804" stroke-linecap="butt" stroke-linejoin="round"/>
  <text x="21" y="298.7" font-family="Helvetica" font-size="10" font-weight="normal" font-style="normal" fill="#000000" fill-opacity="1">10 ns</text>
  <text x="1236" y="298.7" font-family="Helvetica" font-size="10" font-weight="normal" font-style="normal" fill="#000000" fill-opacity="1">10 ns</text>
  <path d="M 50 153 L 1230 153" fill="none" stroke-width="0.75" stroke="#000000" stroke-opacity="0.49804" stroke-linecap="butt" stroke-linejoin="round"/>
  <text x="16" y="154.7" font-family="Helvetica" font-size="10" font-weight="normal" font-style="normal" fill="#000000" fill-opacity="1">100 ns</text>
  <text x="1236" y="154.7" font-family="Helvetica" font-size="10" font-weight="normal" font-style="normal" fill="#000000" fill-opacity="1">100 ns</text>
  <path d="M 50 9 L 1230 9" fill="none" stroke-width="0.75" stroke="#000000" stroke-opacity="0.49804" stroke-linecap="butt" stroke-linejoin="round"/>
  <text x="26" y="10.7" font-family="Helvetica" font-size="10" font-weight="normal" font-style="normal" fill="#000000" fill-opacity="1">1 µs</text>
  <text x="1236" y="10.7" font-family="Helvetica" font-size="10" font-weight="normal" font-style="normal" fill="#000000" fill-opacity="1">1 µs</text>
  <path d="M 50 397.65 L 1230 397.65" fill="none" stroke-width="0.5" stroke="#000000" stroke-opacity="0.25882" stroke-linecap="butt" stroke-linejoin="round" stroke-dasharray="6 3" stroke-dashoffset="0"/>
  <path d="M 50 354.3 L 1230 354.3" fill="none" stroke-width="0.5" stroke="#000000" stroke-opacity="0.25882" stroke-linecap="butt" stroke-linejoin="round" stroke-dasharray="6 3" stroke-dashoffset="0"/>
  <path d="M 50 310.96 L 1230 310.96" fill="none" stroke-width="0.5" stroke="#000000" stroke-opacity="0.25882" stroke-linecap="butt" stroke-linejoin="round" stroke-dasharray="6 3" stroke-dashoffset="0"/>
  <path d="M 50 267.61 L 1230 267.61" fill="none" stroke-width="0.5" stroke="#000000" stroke-opacity="0.25882" stroke-linecap="butt" stroke-linejoin="round" stroke-dasharray="6 3" stroke-dashoffset="0"/>
  <path d="M 50 224.26 L 1230 224.26" fill="none" stroke-width="0.5" stroke="#000000" stroke-opacity="0.25882" stroke-linecap="butt" stroke-linejoin="round" stroke-dasharray="6 3" stroke-dashoffset="0"/>
  <path d="M 50 180.91 L 1230 180.91" fill="none" stroke-width="0.5" stroke="#000000" stroke-opacity="0.25882" stroke-linecap="butt" stroke-linejoin="round" stroke-dasharray="6 3" stroke-dashoffset="0"/>
  <path d="M 50 137.56 L 1230 137.56" fill="none" stroke-width="0.5" stroke="#000000" stroke-opacity="0.25882" stroke-linecap="butt" stroke-linejoin="round" stroke-dasharray="6 3" stroke-dashoffset="0"/>
  <path d="M 50 94.213 L 1230 94.213" fill="none" stroke-width="0.5" stroke="#000000" stroke-opacity="0.25882" stroke-linecap="butt" stroke-linejoin="round" stroke-dasharray="6 3" stroke-dashoffset="0"/>
  <path d="M 50 50.865 L 1230 50.865" fill="none" stroke-width="0.5" stroke="#000000" stroke-opacity="0.25882" stroke-linecap="butt" stroke-linejoin="round" stroke-dasharray="6 3" stroke-dashoffset="0"/>
  <path d="M 74 33 L 74 88 L 312 88 L 312 33 z" fill="#FFFFFF" fill-opacity="1.0" stroke="none"/>
  <clipPath id="clip-0">
    <path d="M 50 9 L 50 441 L 1230 441 L 1230 9 z"/>
  </clipPath>
  <g clip-path="url(#clip-0)">
    <path d="M 50 207.25L 109 250.6L 143.51 233.36L 168 195.27L 186.99 207.85L 202.51 190.68L 215.63 180.38L 227 183.53L 245.99 175.55L 261.51 186.55L 274.63 183.16L 286 194.02L 304.99 185.41L 320.51 191.9L 333.63 195.79L 345 198.7L 363.99 189.28L 379.51 182.92L 392.63 188.63L 404 176.07L 422.99 185.22L 438.51 185.24L 451.63 171.86L 463 182.18L 481.99 180.37L 497.51 176.93L 510.63 166.56L 522 169.56L 540.99 168.18L 556.51 177.97L 569.63 178.19L 581 173.2L 599.99 167.96L 615.51 163.64L 628.63 161.92L 640 163.12L 658.99 164.27L 674.51 154.09L 687.63 150.64L 699 164.99L 717.99 162.87L 733.51 155.26L 746.63 160.98L 758 161.66L 776.99 159.02L 792.51 160.19L 805.63 154.56L 817 155.4L 835.99 158.26L 851.51 153.59L 864.63 155.28L 876 149.34L 894.99 153.09L 910.51 153.09L 923.63 149.11L 935 150.81L 953.99 149.05L 969.51 148.33L 982.63 148.57L 994 146.81L 1013 144.23L 1028.5 145.52L 1041.6 143.42L 1053 146.59L 1072 145.46L 1087.5 141.82L 1100.6 140.54L 1112 138.67L 1131 139.31L 1146.5 138.03L 1159.6 139.88L 1171 137.82L 1190 137.08L 1205.5 134.31L 1218.6 137.61L 1230 135.93L 1230 138.57L 1218.6 138.98L 1205.5 138.4L 1190 139.45L 1171 141.51L 1159.6 142.7L 1146.5 139.81L 1131 144.12L 1112 144.4L 1100.6 145.38L 1087.5 143.64L 1072 146.43L 1053 147.14L 1041.6 146.73L 1028.5 147.61L 1013 149.3L 994 150.33L 982.63 149.49L 969.51 148.95L 953.99 151.65L 935 151.01L 923.63 154.64L 910.51 153.55L 894.99 154.41L 876 153.4L 864.63 156.33L 851.51 157.02L 835.99 159.93L 817 160.4L 805.63 156.21L 792.51 160.21L 776.99 162.76L 758 163.02L 746.63 162.38L 733.51 166.78L 717.99 165.36L 699 167.92L 687.63 170.1L 674.51 170.47L 658.99 169.73L 640 169.26L 628.63 176.45L 615.51 175.56L 599.99 173.77L 581 175.54L 569.63 178.87L 556.51 179.74L 540.99 182.39L 522 184.72L 510.63 186.23L 497.51 185.05L 481.99 180.85L 463 184.72L 451.63 189.06L 438.51 189.76L 422.99 188.4L 404 187.13L 392.63 188.67L 379.51 195.93L 363.99 196.35L 345 198.7L 333.63 199.37L 320.51 195.93L 304.99 211.01L 286 200.38L 274.63 203.44L 261.51 202.82L 245.99 201.84L 227 207.63L 215.63 207.89L 202.51 207.75L 186.99 207.85L 168 225.74L 143.51 233.36L 109 250.6L 50 207.25" fill="#007AFF" fill-opacity="0.30196078431372547" stroke="none"/>
    <path d="M 50 205.91L 109 249.25L 143.51 277.46L 168 292.6L 186.99 307.9L 202.51 317.96L 215.63 327.6L 227 335.95L 245.99 351.25L 261.51 364.16L 274.63 373.8L 286 379.3L 304.99 393.25L 320.51 406L 333.63 414.3L 345 358.09L 363.99 395.35L 379.51 364.39L 392.63 374.03L 404 399.13L 422.99 382.62L 438.51 382.05L 451.63 381.85L 463 399.13L 481.99 388.49L 497.51 399.13L 510.63 386.16L 522 399.13L 540.99 395.16L 556.51 392.77L 569.63 396.14L 581 392.02L 599.99 391.49L 615.51 391.18L 628.63 393.55L 640 391.87L 658.99 395.11L 674.51 393.39L 687.63 390.95L 699 390.77L 717.99 394.61L 733.51 393.76L 746.63 394.17L 758 394.43L 776.99 394.16L 792.51 394.15L 805.63 393.98L 817 394.43L 835.99 392.32L 851.51 390.6L 864.63 394.31L 876 391.53L 894.99 394.37L 910.51 394.33L 923.63 394.18L 935 391.94L 953.99 390.75L 969.51 394.23L 982.63 394.2L 994 394.12L 1013 394.28L 1028.5 394.09L 1041.6 392L 1053 391.96L 1072 394.16L 1087.5 394.28L 1100.6 393.39L 1112 394.14L 1131 391.94L 1146.5 394.23L 1159.6 394.21L 1171 394L 1190 394.2L 1205.5 394.01L 1218.6 394.07L 1230 390.39L 1230 394.23L 1218.6 394.27L 1205.5 394.26L 1190 394.31L 1171 394.21L 1159.6 394.36L 1146.5 394.27L 1131 394.35L 1112 394.25L 1100.6 394.37L 1087.5 394.35L 1072 394.32L 1053 394.36L 1041.6 394.37L 1028.5 394.38L 1013 394.37L 994 394.37L 982.63 394.37L 969.51 394.33L 953.99 394.28L 935 394.28L 923.63 394.34L 910.51 394.33L 894.99 394.37L 876 394.35L 864.63 394.47L 851.51 394.33L 835.99 394.37L 817 394.43L 805.63 394.3L 792.51 394.53L 776.99 394.61L 758 394.43L 746.63 394.82L 733.51 394.53L 717.99 394.61L 699 394.13L 687.63 394.82L 674.51 394.94L 658.99 395.11L 640 394.15L 628.63 396.24L 615.51 394.13L 599.99 395.07L 581 396.56L 569.63 396.27L 556.51 399.13L 540.99 395.16L 522 399.13L 510.63 396.27L 497.51 399.13L 481.99 403.38L 463 399.13L 451.63 402.29L 438.51 406.75L 422.99 413.09L 404 399.13L 392.63 416.39L 379.51 406.75L 363.99 395.35L 345 423.99L 333.63 417.15L 320.51 406L 304.99 396.11L 286 382.15L 274.63 373.8L 261.51 364.16L 245.99 351.25L 227 338.8L 215.63 330.45L 202.51 320.81L 186.99 307.9L 168 295.46L 143.51 277.46L 109 252.11L 50 208.76" fill="#FF3B30" fill-opacity="0.30196078431372547" stroke="none"/>
    <path d="M 50 207.25L 109 250.6L 143.51 233.36L 168 216.24L 186.99 207.85L 202.51 202.82L 215.63 199.46L 227 200.38L 245.99 193.84L 261.51 198.15L 274.63 197.48L 286 198.66L 304.99 203.25L 320.51 194.85L 333.63 198.41L 345 198.7L 363.99 194.42L 379.51 192.26L 392.63 188.66L 404 184.05L 422.99 187.55L 438.51 188.55L 451.63 184.09L 463 184.04L 481.99 180.72L 497.51 182.83L 510.63 180.47L 522 180.39L 540.99 178.36L 556.51 179.27L 569.63 178.69L 581 174.92L 599.99 172.2L 615.51 172.22L 628.63 172.32L 640 167.6L 658.99 168.26L 674.51 165.76L 687.63 164.4L 699 167.14L 717.99 164.7L 733.51 163.56L 746.63 162.01L 758 162.66L 776.99 161.76L 792.51 160.21L 805.63 155.78L 817 159.05L 835.99 159.49L 851.51 156.1L 864.63 156.05L 876 152.32L 894.99 154.07L 910.51 153.43L 923.63 153.15L 935 150.96L 953.99 150.96L 969.51 148.79L 982.63 149.25L 994 149.39L 1013 147.94L 1028.5 147.06L 1041.6 145.84L 1053 147L 1072 146.18L 1087.5 143.16L 1100.6 144.08L 1112 142.85L 1131 142.83L 1146.5 139.34L 1159.6 141.95L 1171 140.52L 1190 138.82L 1205.5 137.31L 1218.6 138.62L 1230 137.87" fill="none" stroke-width="4" stroke="#007AFF" stroke-opacity="1" stroke-linecap="round" stroke-linejoin="round"/>
    <path d="M 50 208L 109 251.35L 143.51 277.46L 168 294.7L 186.99 307.9L 202.51 320.05L 215.63 329.7L 227 338.05L 245.99 351.25L 261.51 364.16L 274.63 373.8L 286 381.39L 304.99 395.35L 320.51 406L 333.63 416.39L 345 399.13L 363.99 395.35L 379.51 392.65L 392.63 402.29L 404 399.13L 422.99 403.59L 438.51 399.3L 451.63 396.27L 463 399.13L 481.99 399.13L 497.51 399.13L 510.63 393.47L 522 399.13L 540.99 395.16L 556.51 397.41L 569.63 396.24L 581 395.34L 599.99 394.11L 615.51 393.35L 628.63 395.52L 640 393.54L 658.99 395.11L 674.51 394.53L 687.63 393.79L 699 393.24L 717.99 394.61L 733.51 394.33L 746.63 394.65L 758 394.43L 776.99 394.49L 792.51 394.43L 805.63 394.22L 817 394.43L 835.99 393.83L 851.51 393.33L 864.63 394.43L 876 393.6L 894.99 394.37L 910.51 394.33L 923.63 394.3L 935 393.66L 953.99 393.34L 969.51 394.3L 982.63 394.32L 994 394.31L 1013 394.35L 1028.5 394.3L 1041.6 393.74L 1053 393.73L 1072 394.28L 1087.5 394.33L 1100.6 394.11L 1112 394.22L 1131 393.71L 1146.5 394.26L 1159.6 394.32L 1171 394.15L 1190 394.28L 1205.5 394.2L 1218.6 394.22L 1230 393.2" fill="none" stroke-width="4" stroke="#FF3B30" stroke-opacity="1" stroke-linecap="round" stroke-linejoin="round"/>
    <path d="M 50 207.25L 109 250.6L 143.51 233.36L 168 216.24L 186.99 207.85L 202.51 202.82L 215.63 199.46L 227 200.38L 245.99 193.84L 261.51 198.15L 274.63 197.48L 286 198.66L 304.99 203.25L 320.51 194.85L 333.63 198.41L 345 198.7L 363.99 194.42L 379.51 192.26L 392.63 188.66L 404 184.05L 422.99 187.55L 438.51 188.55L 451.63 184.09L 463 184.04L 481.99 180.72L 497.51 182.83L 510.63 180.47L 522 180.39L 540.99 178.36L 556.51 179.27L 569.63 178.69L 581 174.92L 599.99 172.2L 615.51 172.22L 628.63 172.32L 640 167.6L 658.99 168.26L 674.51 165.76L 687.63 164.4L 699 167.14L 717.99 164.7L 733.51 163.56L 746.63 162.01L 758 162.66L 776.99 161.76L 792.51 160.21L 805.63 155.78L 817 159.05L 835.99 159.49L 851.51 156.1L 864.63 156.05L 876 152.32L 894.99 154.07L 910.51 153.43L 923.63 153.15L 935 150.96L 953.99 150.96L 969.51 148.79L 982.63 149.25L 994 149.39L 1013 147.94L 1028.5 147.06L 1041.6 145.84L 1053 147L 1072 146.18L 1087.5 143.16L 1100.6 144.08L 1112 142.85L 1131 142.83L 1146.5 139.34L 1159.6 141.95L 1171 140.52L 1190 138.82L 1205.5 137.31L 1218.6 138.62L 1230 137.87" fill="none" stroke-width="0.5" stroke="#000000" stroke-opacity="0.30196" stroke-linecap="round" stroke-linejoin="round"/>
    <path d="M 50 208L 109 251.35L 143.51 277.46L 168 294.7L 186.99 307.9L 202.51 320.05L 215.63 329.7L 227 338.05L 245.99 351.25L 261.51 364.16L 274.63 373.8L 286 381.39L 304.99 395.35L 320.51 406L 333.63 416.39L 345 399.13L 363.99 395.35L 379.51 392.65L 392.63 402.29L 404 399.13L 422.99 403.59L 438.51 399.3L 451.63 396.27L 463 399.13L 481.99 399.13L 497.51 399.13L 510.63 393.47L 522 399.13L 540.99 395.16L 556.51 397.41L 569.63 396.24L 581 395.34L 599.99 394.11L 615.51 393.35L 628.63 395.52L 640 393.54L 658.99 395.11L 674.51 394.53L 687.63 393.79L 699 393.24L 717.99 394.61L 733.51 394.33L 746.63 394.65L 758 394.43L 776.99 394.49L 792.51 394.43L 805.63 394.22L 817 394.43L 835.99 393.83L 851.51 393.33L 864.63 394.43L 876 393.6L 894.99 394.37L 910.51 394.33L 923.63 394.3L 935 393.66L 953.99 393.34L 969.51 394.3L 982.63 394.32L 994 394.31L 1013 394.35L 1028.5 394.3L 1041.6 393.74L 1053 393.73L 1072 394.28L 1087.5 394.33L 1100.6 394.11L 1112 394.22L 1131 393.71L 1146.5 394.26L 1159.6 394.32L 1171 394.15L 1190 394.28L 1205.5 394.2L 1218.6 394.22L 1230 393.2" fill="none" stroke-width="0.5" stroke="#000000" stroke-opacity="0.30196" stroke-linecap="round" stroke-linejoin="round"/>
  </g>
  <path d="M 74 33 L 74 88 L 312 88 L 312 33 z" fill="#FFFFFF" fill-opacity="0.7019607843137254" stroke-width="0.5" stroke="#000000" stroke-opacity="1" stroke-linecap="round" stroke-linejoin="round"/>
  <path d="M 88 52 L 108 52" fill="none" stroke-width="4" stroke="#FF3B30" stroke-opacity="1" stroke-linecap="round" stroke-linejoin="round"/>
  <path d="M 88 52 L 108 52" fill="none" stroke-width="0.5" stroke="#000000" stroke-opacity="0.30196" stroke-linecap="round" stroke-linejoin="round"/>
  <text x="119" y="56.17" font-family="Menlo" font-size="12" font-weight="normal" font-style="normal" fill="#000000" fill-opacity="1">Array&lt;Int&gt; removeLast</text>
  <path d="M 88 69 L 108 69" fill="none" stroke-width="4" stroke="#007AFF" stroke-opacity="1" stroke-linecap="round" stroke-linejoin="round"/>
  <path d="M 88 69 L 108 69" fill="none" stroke-width="0.5" stroke="#000000" stroke-opacity="0.30196" stroke-linecap="round" stroke-linejoin="round"/>
  <text x="119" y="73.17" font-family="Menlo" font-size="12" font-weight="normal" font-style="normal" fill="#000000" fill-opacity="1">TreeArray&lt;Int&gt; removeLast</text>
  <path d="M 50 9 L 50 441 L 1230 441 L 1230 9 z" fill="none" stroke-width="0.5" stroke="#000000" stroke-opacity="1" stroke-linecap="round" stroke-linejoin="round"/>
</svg>
