<!DOCTYPE svg PUBLIC "-//W3C//DTD SVG 1.1//EN" "http://www.w3.org/Graphics/SVG/1.1/DTD/svg11.dtd">
<svg width="1280.0px" height="480.0px" viewBox="0.0 0.0 1280.0 480.0" xmlns="http://www.w3.org/2000/svg" xmlns:xlink="http://www.w3.org/1999/xlink" version="1.1">
  <path d="M 0 0 L 0 480 L 1280 480 L 1280 0 z" fill="#FFFFFF" fill-opacity="1.0" stroke="none"/>
  <text x="50" y="468.7" font-family="Helvetica" font-size="10" font-weight="normal" font-style="normal" fill="#000000" fill-opacity="1">Average per-element processing time over input size (bands: min, mean, mean + 2stddev)</text>
  <a xlink:href="https://github.com/apple/swift-collections-benchmark"><text x="1107" y="468.7" font-family="Helvetica" font-size="10" font-weight="normal" font-style="normal" fill="#000000" fill-opacity="1">swift-collections-benchmark</text></a>
  <path d="M 50 9 L 50 441" fill="none" stroke-width="0.75" stroke="#000000" stroke-opacity="0.49804" stroke-linecap="butt" stroke-linejoin="round"/>
  <text x="47" y="453.7" font-family="Helvetica" font-size="10" font-weight="normal" font-style="normal" fill="#000000" fill-opacity="1">1</text>
  <path d="M 109 9 L 109 441" fill="none" stroke-width="0.75" stroke="#000000" stroke-opacity="0.49804" stroke-linecap="butt" stroke-linejoin="round"/>
  <text x="106" y="453.7" font-family="Helvetica" font-size="10" font-weight="normal" font-style="normal" fill="#000000" fill-opacity="1">2</text>
  <path d="M 168 9 L 168 441" fill="none" stroke-width="0.75" stroke="#000000" stroke-opacity="0.49804" stroke-linecap="butt" stroke-linejoin="round"/>
  <text x="165" y="453.7" font-family="Helvetica" font-size="10" font-weight="normal" font-style="normal" fill="#000000" fill-opacity="1">4</text>
  <path d="M 227 9 L 227 441" fill="none" stroke-width="0.75" stroke="#000000" stroke-opacity="0.49804" stroke-linecap="butt" stroke-linejoin="round"/>
  <text x="224" y="453.7" font-family="Helvetica" font-size="10" font-weight="normal" font-style="normal" fill="#000000" fill-opacity="1">8</text>
  <path d="M 286 9 L 286 441" fill="none" stroke-width="0.75" stroke="#000000" stroke-opacity="0.49804" stroke-linecap="butt" stroke-linejoin="round"/>
  <text x="280" y="453.7" font-family="Helvetica" font-size="10" font-weight="normal" font-style="normal" fill="#000000" fill-opacity="1">16</text>
  <path d="M 345 9 L 345 441" fill="none" stroke-width="0.75" stroke="#000000" stroke-opacity="0.49804" stroke-linecap="butt" stroke-linejoin="round"/>
  <text x="339" y="453.7" font-family="Helvetica" font-size="10" font-weight="normal" font-style="normal" fill="#000000" fill-opacity="1">32</text>
  <path d="M 404 9 L 404 441" fill="none" stroke-width="0.75" stroke="#000000" stroke-opacity="0.49804" stroke-linecap="butt" stroke-linejoin="round"/>
  <text x="398" y="453.7" font-family="Helvetica" font-size="10" font-weight="normal" font-style="normal" fill="#000000" fill-opacity="1">64</text>
  <path d="M 463 9 L 463 441" fill="none" stroke-width="0.75" stroke="#000000" stroke-opacity="0.49804" stroke-linecap="butt" stroke-linejoin="round"/>
  <text x="454.5" y="453.7" font-family="Helvetica" font-size="10" font-weight="normal" font-style="normal" fill="#000000" fill-opacity="1">128</text>
  <path d="M 522 9 L 522 441" fill="none" stroke-width="0.75" stroke="#000000" stroke-opacity="0.49804" stroke-linecap="butt" stroke-linejoin="round"/>
  <text x="513.5" y="453.7" font-family="Helvetica" font-size="10" font-weight="normal" font-style="normal" fill="#000000" fill-opacity="1">256</text>
  <path d="M 581 9 L 581 441" fill="none" stroke-width="0.75" stroke="#000000" stroke-opacity="0.49804" stroke-linecap="butt" stroke-linejoin="round"/>
  <text x="572.5" y="453.7" font-family="Helvetica" font-size="10" font-weight="normal" font-style="normal" fill="#000000" fill-opacity="1">512</text>
  <path d="M 640 9 L 640 441" fill="none" stroke-width="0.75" stroke="#000000" stroke-opacity="0.49804" stroke-linecap="butt" stroke-linejoin="round"/>
  <text x="634.5" y="453.7" font-family="Helvetica" font-size="10" font-weight="normal" font-style="normal" fill="#000000" fill-opacity="1">1k</text>
  <path d="M 699 9 L 699 441" fill="none" stroke-width="0.75" stroke="#000000" stroke-opacity="0.49804" stroke-linecap="butt" stroke-linejoin="round"/>
  <text x="693.5" y="453.7" font-family="Helvetica" font-size="10" font-weight="normal" font-style="normal" fill="#000000" fill-opacity="1">2k</text>
  <path d="M 758 9 L 758 441" fill="none" stroke-width="0.75" stroke="#000000" stroke-opacity="0.49804" stroke-linecap="butt" stroke-linejoin="round"/>
  <text x="752.5" y="453.7" font-family="Helvetica" font-size="10" font-weight="normal" font-style="normal" fill="#000000" fill-opacity="1">4k</text>
  <path d="M 817 9 L 817 441" fill="none" stroke-width="0.75" stroke="#000000" stroke-opacity="0.49804" stroke-linecap="butt" stroke-linejoin="round"/>
  <text x="811.5" y="453.7" font-family="Helvetica" font-size="10" font-weight="normal" font-style="normal" fill="#000000" fill-opacity="1">8k</text>
  <path d="M 876 9 L 876 441" fill="none" stroke-width="0.75" stroke="#000000" stroke-opacity="0.49804" stroke-linecap="butt" stroke-linejoin="round"/>
  <text x="867.5" y="453.7" font-family="Helvetica" font-size="10" font-weight="normal" font-style="normal" fill="#000000" fill-opacity="1">16k</text>
  <path d="M 935 9 L 935 441" fill="none" stroke-width="0.75" stroke="#000000" stroke-opacity="0.49804" stroke-linecap="butt" stroke-linejoin="round"/>
  <text x="926.5" y="453.7" font-family="Helvetica" font-size="10" font-weight="normal" font-style="normal" fill="#000000" fill-opacity="1">32k</text>
  <path d="M 994 9 L 994 441" fill="none" stroke-width="0.75" stroke="#000000" stroke-opacity="0.49804" stroke-linecap="butt" stroke-linejoin="round"/>
  <text x="985.5" y="453.7" font-family="Helvetica" font-size="10" font-weight="normal" font-style="normal" fill="#000000" fill-opacity="1">64k</text>
  <path d="M 1053 9 L 1053 441" fill="none" stroke-width="0.75" stroke="#000000" stroke-opacity="0.49804" stroke-linecap="butt" stroke-linejoin="round"/>
  <text x="1042" y="453.7" font-family="Helvetica" font-size="10" font-weight="normal" font-style="normal" fill="#000000" fill-opacity="1">128k</text>
  <path d="M 1112 9 L 1112 441" fill="none" stroke-width="0.75" stroke="#000000" stroke-opacity="0.49804" stroke-linecap="butt" stroke-linejoin="round"/>
  <text x="1101" y="453.7" font-family="Helvetica" font-size="10" font-weight="normal" font-style="normal" fill="#000000" fill-opacity="1">256k</text>
  <path d="M 1171 9 L 1171 441" fill="none" stroke-width="0.75" stroke="#000000" stroke-opacity="0.49804" stroke-linecap="butt" stroke-linejoin="round"/>
  <text x="1160" y="453.7" font-family="Helvetica" font-size="10" font-weight="normal" font-style="normal" fill="#000000" fill-opacity="1">512k</text>
  <path d="M 1230 9 L 1230 441" fill="none" stroke-width="0.75" stroke="#000000" stroke-opacity="0.49804" stroke-linecap="butt" stroke-linejoin="round"/>
  <text x="1223" y="453.7" font-family="Helvetica" font-size="10" font-weight="normal" font-style="normal" fill="#000000" fill-opacity="1">1M</text>
  <path d="M 50 441 L 1230 441" fill="none" stroke-width="0.75" stroke="#000000" stroke-opacity="0.49804" stroke-linecap="butt" stroke-linejoin="round"/>
  <text x="27" y="442.7" font-family="Helvetica" font-size="10" font-weight="normal" font-style="normal" fill="#000000" fill-opacity="1">1 ns</text>
  <text x="1236" y="442.7" font-family="Helvetica" font-size="10" font-weight="normal" font-style="normal" fill="#000000" fill-opacity="1">1 ns</text>
  <path d="M 50 297 L 1230 297" fill="none" stroke-width="0.75" stroke="#000000" stroke-opacity="0.49804" stroke-linecap="butt" stroke-linejoin="round"/>
  <text x="21" y="298.7" font-family="Helvetica" font-size="10" font-weight="normal" font-style="normal" fill="#000000" fill-opacity="1">10 ns</text>
  <text x="1236" y="298.7" font-family="Helvetica" font-size="10" font-weight="normal" font-style="normal" fill="#000000" fill-opacity="1">10 ns</text>
  <path d="M 50 153 L 1230 153" fill="none" stroke-width="0.75" stroke="#000000" stroke-opacity="0.49804" stroke-linecap="butt" stroke-linejoin="round"/>
  <text x="16" y="154.7" font-family="Helvetica" font-size="10" font-weight="normal" font-style="normal" fill="#000000" fill-opacity="1">100 ns</text>
  <text x="1236" y="154.7" font-family="Helvetica" font-size="10" font-weight="normal" font-style="normal" fill="#000000" fill-opacity="1">100 ns</text>
  <path d="M 50 9 L 1230 9" fill="none" stroke-width="0.75" stroke="#000000" stroke-opacity="0.49804" stroke-linecap="butt" stroke-linejoin="round"/>
  <text x="26" y="10.7" font-family="Helvetica" font-size="10" font-weight="normal" font-style="normal" fill="#000000" fill-opacity="1">1 µs</text>
  <text x="1236" y="10.7" font-family="Helvetica" font-size="10" font-weight="normal" font-style="normal" fill="#000000" fill-opacity="1">1 µs</text>
  <path d="M 50 397.65 L 1230 397.65" fill="none" stroke-width="0.5" stroke="#000000" stroke-opacity="0.25882" stroke-linecap="butt" stroke-linejoin="round" stroke-dasharray="6 3" stroke-dashoffset="0"/>
  <path d="M 50 354.3 L 1230 354.3" fill="none" stroke-width="0.5" stroke="#000000" stroke-opacity="0.25882" stroke-linecap="butt" stroke-linejoin="round" stroke-dasharray="6 3" stroke-dashoffset="0"/>
  <path d="M 50 310.96 L 1230 310.96" fill="none" stroke-width="0.5" stroke="#000000" stroke-opacity="0.25882" stroke-linecap="butt" stroke-linejoin="round" stroke-dasharray="6 3" stroke-dashoffset="0"/>
  <path d="M 50 267.61 L 1230 267.61" fill="none" stroke-width="0.5" stroke="#000000" stroke-opacity="0.25882" stroke-linecap="butt" stroke-linejoin="round" stroke-dasharray="6 3" stroke-dashoffset="0"/>
  <path d="M 50 224.26 L 1230 224.26" fill="none" stroke-width="0.5" stroke="#000000" stroke-opacity="0.25882" stroke-linecap="butt" stroke-linejoin="round" stroke-dasharray="6 3" stroke-dashoffset="0"/>
  <path d="M 50 180.91 L 1230 180.91" fill="none" stroke-width="0.5" stroke="#000000" stroke-opacity="0.25882" stroke-linecap="butt" stroke-linejoin="round" stroke-dasharray="6 3" stroke-dashoffset="0"/>
  <path d="M 50 137.56 L 1230 137.56" fill="none" stroke-width="0.5" stroke="#000000" stroke-opacity="0.25882" stroke-linecap="butt" stroke-linejoin="round" stroke-dasharray="6 3" stroke-dashoffset="0"/>
  <path d="M 50 94.213 L 1230 94.213" fill="none" stroke-width="0.5" stroke="#000000" stroke-opacity="0.25882" stroke-linecap="butt" stroke-linejoin="round" stroke-dasharray="6 3" stroke-dashoffset="0"/>
  <path d="M 50 50.865 L 1230 50.865" fill="none" stroke-width="0.5" stroke="#000000" stroke-opacity="0.25882" stroke-linecap="butt" stroke-linejoin="round" stroke-dasharray="6 3" stroke-dashoffset="0"/>
  <path d="M 74 33 L 74 122 L 399 122 L 399 33 z" fill="#FFFFFF" fill-opacity="1.0" stroke="none"/>
  <clipPath id="clip-0">
    <path d="M 50 9 L 50 441 L 1230 441 L 1230 9 z"/>
  </clipPath>
  <g clip-path="url(#clip-0)">
    <path d="M 50 207.25L 109 252.11L 143.51 274.61L 168 295.46L 186.99 306.56L 202.51 319.31L 215.63 328.95L 227 335.95L 245.99 349.91L 261.51 361.31L 274.63 373.8L 286 380.65L 304.99 396.11L 320.51 407.51L 333.63 349.26L 345 423.99L 363.99 395.35L 379.51 364.39L 392.63 374.03L 404 399.13L 422.99 394.63L 438.51 382.28L 451.63 381.85L 463 399.13L 481.99 388.34L 497.51 392.65L 510.63 386.16L 522 386L 540.99 388.41L 556.51 384.53L 569.63 386.47L 581 383.86L 599.99 401.27L 615.51 384.56L 628.63 390.9L 640 383.83L 658.99 402.34L 674.51 391.77L 687.63 400.7L 699 384.81L 717.99 402.34L 733.51 401.8L 746.63 382.75L 758 383.36L 776.99 383.07L 792.51 383.19L 805.63 383.29L 817 383.23L 835.99 391.43L 851.51 391.22L 864.63 391.69L 876 389.45L 894.99 391.54L 910.51 381.36L 923.63 391.41L 935 383.11L 953.99 402.21L 969.51 383.21L 982.63 385.84L 994 383.16L 1013 387.78L 1028.5 383.88L 1041.6 391.5L 1053 391.69L 1072 402.23L 1087.5 389.29L 1100.6 386.15L 1112 402.23L 1131 383.11L 1146.5 380L 1159.6 390.23L 1171 382.5L 1190 383.68L 1205.5 383.08L 1218.6 389.4L 1230 383.69L 1230 401.97L 1218.6 402.23L 1205.5 402.23L 1190 401.36L 1171 402.23L 1159.6 392.93L 1146.5 402.23L 1131 402.23L 1112 402.23L 1100.6 397.97L 1087.5 402.23L 1072 402.23L 1053 397.34L 1041.6 391.52L 1028.5 401.22L 1013 402.22L 994 402.24L 982.63 398.49L 969.51 402.22L 953.99 402.27L 935 402.22L 923.63 391.64L 910.51 402.14L 894.99 391.65L 876 391.62L 864.63 391.69L 851.51 391.77L 835.99 391.65L 817 402.31L 805.63 402.19L 792.51 402.25L 776.99 402.34L 758 402.48L 746.63 402.58L 733.51 401.8L 717.99 402.34L 699 401.8L 687.63 402.19L 674.51 391.77L 658.99 402.34L 640 401.79L 628.63 393.47L 615.51 402.69L 599.99 401.27L 581 401.75L 569.63 402.14L 556.51 402.74L 540.99 403.49L 522 404.62L 510.63 396.27L 497.51 392.65L 481.99 403.59L 463 399.13L 451.63 402.29L 438.51 406.38L 422.99 395.35L 404 399.13L 392.63 416.39L 379.51 406.75L 363.99 395.35L 345 423.99L 333.63 417.15L 320.51 407.51L 304.99 396.11L 286 380.65L 274.63 373.8L 261.51 364.16L 245.99 352.76L 227 338.8L 215.63 328.95L 202.51 319.31L 186.99 309.41L 168 295.46L 143.51 277.46L 109 252.11L 50 207.25" fill="#FFCC00" fill-opacity="0.30196078431372547" stroke="none"/>
    <path d="M 50 205.91L 109 249.25L 143.51 277.46L 168 293.95L 186.99 306.56L 202.51 319.31L 215.63 327.6L 227 335.95L 245.99 349.91L 261.51 361.31L 274.63 370.95L 286 379.3L 304.99 394.6L 320.51 404.66L 333.63 415.64L 345 422.65L 363.99 393.92L 379.51 381.14L 392.63 390.78L 404 399.13L 422.99 394.63L 438.51 392.65L 451.63 390.78L 463 399.13L 481.99 394.8L 497.51 387.25L 510.63 386.16L 522 399.13L 540.99 395.41L 556.51 392.43L 569.63 402.21L 581 385.72L 599.99 383.42L 615.51 383.19L 628.63 392.05L 640 384.76L 658.99 400.26L 674.51 391.06L 687.63 383.54L 699 385.72L 717.99 401.79L 733.51 402.23L 746.63 401.43L 758 391.48L 776.99 383.24L 792.51 391.2L 805.63 383.28L 817 391.62L 835.99 391.53L 851.51 401.92L 864.63 391.6L 876 383.98L 894.99 383.25L 910.51 389.27L 923.63 391.4L 935 389.51L 953.99 391.48L 969.51 383.15L 982.63 391.52L 994 402L 1013 402.21L 1028.5 402.2L 1041.6 383.15L 1053 385.89L 1072 383.52L 1087.5 402.13L 1100.6 391.5L 1112 401.53L 1131 388.11L 1146.5 399.98L 1159.6 384.71L 1171 389.39L 1190 401.94L 1205.5 388.84L 1218.6 396.09L 1230 391.1L 1230 393.08L 1218.6 402.23L 1205.5 394.38L 1190 402.23L 1171 397.45L 1159.6 402.23L 1146.5 402.23L 1131 395.46L 1112 402.21L 1100.6 391.53L 1087.5 402.23L 1072 401.64L 1053 398.38L 1041.6 402.22L 1028.5 402.22L 1013 402.24L 994 402.24L 982.63 391.56L 969.51 402.19L 953.99 391.54L 935 393.87L 923.63 391.56L 910.51 391.53L 894.99 402.21L 876 401.04L 864.63 391.6L 851.51 402.14L 835.99 391.54L 817 391.63L 805.63 402.18L 792.51 391.57L 776.99 402.07L 758 391.48L 746.63 402.18L 733.51 402.25L 717.99 401.79L 699 399.13L 687.63 401.41L 674.51 392.55L 658.99 402.34L 640 400.46L 628.63 392.11L 615.51 400.87L 599.99 401.22L 581 399.13L 569.63 402.21L 556.51 392.57L 540.99 403.49L 522 399.13L 510.63 396.27L 497.51 399.13L 481.99 395.16L 463 399.13L 451.63 390.78L 438.51 392.65L 422.99 395.35L 404 399.13L 392.63 390.78L 379.51 381.14L 363.99 395.35L 345 425.5L 333.63 415.64L 320.51 407.51L 304.99 394.6L 286 382.15L 274.63 373.8L 261.51 364.16L 245.99 352.76L 227 338.8L 215.63 330.45L 202.51 319.31L 186.99 309.41L 168 293.95L 143.51 277.46L 109 252.11L 50 208.76" fill="#28CD41" fill-opacity="0.30196078431372547" stroke="none"/>
    <path d="M 50 208.76L 109 208L 143.51 165.31L 168 182.39L 186.99 165.03L 202.51 160.3L 215.63 160.71L 227 160.87L 245.99 164.77L 261.51 167.26L 274.63 164.63L 286 164.33L 304.99 151.1L 320.51 158.52L 333.63 161.21L 345 161.71L 363.99 162.19L 379.51 157.84L 392.63 154.07L 404 156.91L 422.99 157.22L 438.51 159.74L 451.63 159.86L 463 155.21L 481.99 157.04L 497.51 152.84L 510.63 152.94L 522 153.18L 540.99 150.3L 556.51 149.11L 569.63 152.31L 581 153.09L 599.99 150.55L 615.51 149.18L 628.63 146.85L 640 146.87L 658.99 145.36L 674.51 148.8L 687.63 145.51L 699 145.35L 717.99 145.46L 733.51 144.7L 746.63 141.23L 758 141.97L 776.99 141.5L 792.51 141.23L 805.63 139.68L 817 140.92L 835.99 139.07L 851.51 139.26L 864.63 138.62L 876 138.49L 894.99 136.53L 910.51 134.57L 923.63 137.35L 935 136.45L 953.99 134.93L 969.51 135.57L 982.63 134.79L 994 132.01L 1013 131.84L 1028.5 134.34L 1041.6 131.78L 1053 130.33L 1072 131.41L 1087.5 131.63L 1100.6 129.68L 1112 126.17L 1131 128.35L 1146.5 128.38L 1159.6 127.14L 1171 126.56L 1190 122.23L 1205.5 124.88L 1218.6 127.82L 1230 123.15L 1230 128.13L 1218.6 127.99L 1205.5 128.07L 1190 128.22L 1171 130.7L 1159.6 128.56L 1146.5 129.49L 1131 130.19L 1112 132.22L 1100.6 131.1L 1087.5 131.87L 1072 132.08L 1053 133.08L 1041.6 133.53L 1028.5 134.93L 1013 133.82L 994 135.48L 982.63 135.94L 969.51 137.85L 953.99 136.01L 935 137.7L 923.63 138.09L 910.51 139.95L 894.99 140.5L 876 139.68L 864.63 139.82L 851.51 140.42L 835.99 142.09L 817 141.73L 805.63 142.09L 792.51 141.83L 776.99 144.82L 758 144.15L 746.63 144.95L 733.51 145.63L 717.99 145.84L 699 145.84L 687.63 146.13L 674.51 148.92L 658.99 149.38L 640 150.84L 628.63 149.48L 615.51 150.48L 599.99 151.91L 581 153.09L 569.63 153.42L 556.51 150.97L 540.99 154.15L 522 156.39L 510.63 155.2L 497.51 156.03L 481.99 157.04L 463 157.26L 451.63 160.87L 438.51 160.92L 422.99 161.35L 404 163.92L 392.63 163.84L 379.51 162.48L 363.99 163.63L 345 165.39L 333.63 163.3L 320.51 165.73L 304.99 167.62L 286 164.42L 274.63 169L 261.51 172.75L 245.99 170.99L 227 168.44L 215.63 179.53L 202.51 182.39L 186.99 178.23L 168 182.39L 143.51 190.01L 109 208L 50 208.76" fill="#007AFF" fill-opacity="0.30196078431372547" stroke="none"/>
    <path d="M 50 208.76L 109 252.11L 143.51 275.96L 168 292.6L 186.99 307.9L 202.51 317.96L 215.63 327.6L 227 335.95L 245.99 352.76L 261.51 364.16L 274.63 370.95L 286 380.65L 304.99 393.25L 320.51 339.62L 333.63 414.3L 345 423.99L 363.99 372.04L 379.51 405.33L 392.63 374.03L 404 399.13L 422.99 395.35L 438.51 382.28L 451.63 402.29L 463 399.13L 481.99 395.16L 497.51 399.13L 510.63 396.27L 522 399.13L 540.99 394.98L 556.51 395.81L 569.63 391.07L 581 391.97L 599.99 391.45L 615.51 395.77L 628.63 394.82L 640 395.34L 658.99 393.26L 674.51 393.39L 687.63 394.82L 699 393.6L 717.99 394.61L 733.51 394.53L 746.63 394.47L 758 394.43L 776.99 394.16L 792.51 394.33L 805.63 394.14L 817 394.43L 835.99 394.14L 851.51 394.24L 864.63 394.22L 876 390.5L 894.99 394.26L 910.51 394.23L 923.63 392.23L 935 394.18L 953.99 392.21L 969.51 394.38L 982.63 394.2L 994 392.06L 1013 394.28L 1028.5 394.34L 1041.6 394.25L 1053 394.2L 1072 394.23L 1087.5 392.5L 1100.6 392.16L 1112 392.12L 1131 390.75L 1146.5 394.09L 1159.6 393.98L 1171 394.25L 1190 389.37L 1205.5 391.55L 1218.6 393.8L 1230 393.56L 1230 394.17L 1218.6 394.35L 1205.5 394.25L 1190 394.35L 1171 394.25L 1159.6 394.24L 1146.5 394.36L 1131 394.26L 1112 394.36L 1100.6 394.25L 1087.5 393.94L 1072 394.32L 1053 394.36L 1041.6 394.25L 1028.5 394.37L 1013 394.28L 994 394.26L 982.63 394.32L 969.51 394.38L 953.99 394.31L 935 394.39L 923.63 394.34L 910.51 394.33L 894.99 394.37L 876 394.28L 864.63 394.39L 851.51 394.43L 835.99 394.37L 817 394.43L 805.63 394.48L 792.51 394.33L 776.99 394.61L 758 394.43L 746.63 394.47L 733.51 394.53L 717.99 394.61L 699 394.73L 687.63 394.82L 674.51 394.94L 658.99 395.11L 640 395.34L 628.63 394.82L 615.51 395.77L 599.99 395.11L 581 396.62L 569.63 396.2L 556.51 395.81L 540.99 395.16L 522 399.13L 510.63 396.27L 497.51 399.13L 481.99 395.16L 463 399.13L 451.63 402.29L 438.51 406.38L 422.99 395.35L 404 399.13L 392.63 416.39L 379.51 406.75L 363.99 437.95L 345 423.99L 333.63 417.15L 320.51 407.51L 304.99 396.11L 286 380.65L 274.63 373.8L 261.51 364.16L 245.99 352.76L 227 338.8L 215.63 330.45L 202.51 320.81L 186.99 307.9L 168 295.46L 143.51 275.96L 109 252.11L 50 208.76" fill="#FF3B30" fill-opacity="0.30196078431372547" stroke="none"/>
    <path d="M 50 207.25L 109 252.11L 143.51 276.71L 168 295.46L 186.99 308.65L 202.51 319.31L 215.63 328.95L 227 338.05L 245.99 352L 261.51 363.4L 274.63 373.8L 286 380.65L 304.99 396.11L 320.51 407.51L 333.63 391.29L 345 423.99L 363.99 395.35L 379.51 392.65L 392.63 402.29L 404 399.13L 422.99 395.16L 438.51 399.13L 451.63 396.27L 463 399.13L 481.99 399.24L 497.51 392.65L 510.63 393.47L 522 399.2L 540.99 399.18L 556.51 397.45L 569.63 397.65L 581 396.56L 599.99 401.27L 615.51 397.43L 628.63 392.79L 640 396.58L 658.99 402.34L 674.51 391.77L 687.63 401.8L 699 396.9L 717.99 402.34L 733.51 401.8L 746.63 396.76L 758 396.9L 776.99 396.71L 792.51 396.69L 805.63 396.67L 817 396.74L 835.99 391.6L 851.51 391.62L 864.63 391.69L 876 391.05L 894.99 391.62L 910.51 396.01L 923.63 391.58L 935 396.64L 953.99 402.26L 969.51 396.67L 982.63 394.93L 994 396.67L 1013 398.12L 1028.5 396.21L 1041.6 391.52L 1053 395.81L 1072 402.23L 1087.5 398.58L 1100.6 394.66L 1112 402.23L 1131 396.65L 1146.5 395.62L 1159.6 392.21L 1171 396.44L 1190 396.24L 1205.5 396.64L 1218.6 398.62L 1230 396.65" fill="none" stroke-width="4" stroke="#FFCC00" stroke-opacity="1" stroke-linecap="round" stroke-linejoin="round"/>
    <path d="M 50 208L 109 251.35L 143.51 277.46L 168 293.95L 186.99 308.65L 202.51 319.31L 215.63 329.7L 227 338.05L 245.99 352L 261.51 363.4L 274.63 373.04L 286 381.39L 304.99 394.6L 320.51 406.75L 333.63 415.64L 345 424.74L 363.99 394.97L 379.51 381.14L 392.63 390.78L 404 399.13L 422.99 395.16L 438.51 392.65L 451.63 390.78L 463 399.13L 481.99 395.07L 497.51 395.81L 510.63 393.47L 522 399.13L 540.99 401.27L 556.51 392.53L 569.63 402.21L 581 395.34L 599.99 396.06L 615.51 395.75L 628.63 392.1L 640 395.96L 658.99 401.79L 674.51 392.16L 687.63 396.23L 699 395.34L 717.99 401.79L 733.51 402.25L 746.63 401.99L 758 391.48L 776.99 396.58L 792.51 391.48L 805.63 396.67L 817 391.62L 835.99 391.54L 851.51 402.08L 864.63 391.6L 876 396.11L 894.99 396.68L 910.51 390.93L 923.63 391.52L 935 392.7L 953.99 391.52L 969.51 396.63L 982.63 391.55L 994 402.18L 1013 402.23L 1028.5 402.22L 1041.6 396.65L 1053 394.87L 1072 396.38L 1087.5 402.2L 1100.6 391.52L 1112 402.03L 1131 393.46L 1146.5 401.64L 1159.6 397.16L 1171 395.24L 1190 402.15L 1205.5 392.89L 1218.6 400.57L 1230 392.55" fill="none" stroke-width="4" stroke="#28CD41" stroke-opacity="1" stroke-linecap="round" stroke-linejoin="round"/>
    <path d="M 50 208.76L 109 208L 143.51 182.56L 168 182.39L 186.99 174.51L 202.51 175.83L 215.63 174.04L 227 166.37L 245.99 169.3L 261.51 171.27L 274.63 167.83L 286 164.39L 304.99 162.87L 320.51 163.76L 333.63 162.74L 345 164.41L 363.99 163.25L 379.51 161.23L 392.63 161.13L 404 162.01L 422.99 160.24L 438.51 160.61L 451.63 160.61L 463 156.71L 481.99 157.04L 497.51 155.18L 510.63 154.6L 522 155.53L 540.99 153.12L 556.51 150.48L 569.63 153.13L 581 153.09L 599.99 151.55L 615.51 150.14L 628.63 148.78L 640 149.78L 658.99 148.31L 674.51 148.89L 687.63 145.97L 699 145.71L 717.99 145.74L 733.51 145.38L 746.63 143.96L 758 143.58L 776.99 143.94L 792.51 141.67L 805.63 141.45L 817 141.52L 835.99 141.28L 851.51 140.12L 864.63 139.51L 876 139.37L 894.99 139.44L 910.51 138.5L 923.63 137.9L 935 137.37L 953.99 135.73L 969.51 137.24L 982.63 135.64L 994 134.56L 1013 133.3L 1028.5 134.77L 1041.6 133.07L 1053 132.35L 1072 131.9L 1087.5 131.81L 1100.6 130.73L 1112 130.58L 1131 129.7L 1146.5 129.2L 1159.6 128.19L 1171 129.59L 1190 126.6L 1205.5 127.22L 1218.6 127.95L 1230 126.79" fill="none" stroke-width="4" stroke="#007AFF" stroke-opacity="1" stroke-linecap="round" stroke-linejoin="round"/>
    <path d="M 50 208.76L 109 252.11L 143.51 275.96L 168 294.7L 186.99 307.9L 202.51 320.05L 215.63 329.7L 227 338.05L 245.99 352.76L 261.51 364.16L 274.63 373.04L 286 380.65L 304.99 395.35L 320.51 381.65L 333.63 416.39L 345 423.99L 363.99 413.09L 379.51 406.38L 392.63 402.29L 404 399.13L 422.99 395.35L 438.51 399.13L 451.63 402.29L 463 399.13L 481.99 395.16L 497.51 399.13L 510.63 396.27L 522 399.13L 540.99 395.11L 556.51 395.81L 569.63 394.82L 581 395.37L 599.99 394.14L 615.51 395.77L 628.63 394.82L 640 395.34L 658.99 394.62L 674.51 394.53L 687.63 394.82L 699 394.43L 717.99 394.61L 733.51 394.53L 746.63 394.47L 758 394.43L 776.99 394.49L 792.51 394.33L 805.63 394.39L 817 394.43L 835.99 394.31L 851.51 394.38L 864.63 394.34L 876 393.27L 894.99 394.34L 910.51 394.3L 923.63 393.79L 935 394.34L 953.99 393.75L 969.51 394.38L 982.63 394.29L 994 393.68L 1013 394.28L 1028.5 394.36L 1041.6 394.25L 1053 394.32L 1072 394.29L 1087.5 393.56L 1100.6 393.7L 1112 393.77L 1131 393.32L 1146.5 394.29L 1159.6 394.17L 1171 394.25L 1190 393.01L 1205.5 393.54L 1218.6 394.21L 1230 394.01" fill="none" stroke-width="4" stroke="#FF3B30" stroke-opacity="1" stroke-linecap="round" stroke-linejoin="round"/>
    <path d="M 50 207.25L 109 252.11L 143.51 276.71L 168 295.46L 186.99 308.65L 202.51 319.31L 215.63 328.95L 227 338.05L 245.99 352L 261.51 363.4L 274.63 373.8L 286 380.65L 304.99 396.11L 320.51 407.51L 333.63 391.29L 345 423.99L 363.99 395.35L 379.51 392.65L 392.63 402.29L 404 399.13L 422.99 395.16L 438.51 399.13L 451.63 396.27L 463 399.13L 481.99 399.24L 497.51 392.65L 510.63 393.47L 522 399.2L 540.99 399.18L 556.51 397.45L 569.63 397.65L 581 396.56L 599.99 401.27L 615.51 397.43L 628.63 392.79L 640 396.58L 658.99 402.34L 674.51 391.77L 687.63 401.8L 699 396.9L 717.99 402.34L 733.51 401.8L 746.63 396.76L 758 396.9L 776.99 396.71L 792.51 396.69L 805.63 396.67L 817 396.74L 835.99 391.6L 851.51 391.62L 864.63 391.69L 876 391.05L 894.99 391.62L 910.51 396.01L 923.63 391.58L 935 396.64L 953.99 402.26L 969.51 396.67L 982.63 394.93L 994 396.67L 1013 398.12L 1028.5 396.21L 1041.6 391.52L 1053 395.81L 1072 402.23L 1087.5 398.58L 1100.6 394.66L 1112 402.23L 1131 396.65L 1146.5 395.62L 1159.6 392.21L 1171 396.44L 1190 396.24L 1205.5 396.64L 1218.6 398.62L 1230 396.65" fill="none" stroke-width="0.5" stroke="#000000" stroke-opacity="0.30196" stroke-linecap="round" stroke-linejoin="round"/>
    <path d="M 50 208L 109 251.35L 143.51 277.46L 168 293.95L 186.99 308.65L 202.51 319.31L 215.63 329.7L 227 338.05L 245.99 352L 261.51 363.4L 274.63 373.04L 286 381.39L 304.99 394.6L 320.51 406.75L 333.63 415.64L 345 424.74L 363.99 394.97L 379.51 381.14L 392.63 390.78L 404 399.13L 422.99 395.16L 438.51 392.65L 451.63 390.78L 463 399.13L 481.99 395.07L 497.51 395.81L 510.63 393.47L 522 399.13L 540.99 401.27L 556.51 392.53L 569.63 402.21L 581 395.34L 599.99 396.06L 615.51 395.75L 628.63 392.1L 640 395.96L 658.99 401.79L 674.51 392.16L 687.63 396.23L 699 395.34L 717.99 401.79L 733.51 402.25L 746.63 401.99L 758 391.48L 776.99 396.58L 792.51 391.48L 805.63 396.67L 817 391.62L 835.99 391.54L 851.51 402.08L 864.63 391.6L 876 396.11L 894.99 396.68L 910.51 390.93L 923.63 391.52L 935 392.7L 953.99 391.52L 969.51 396.63L 982.63 391.55L 994 402.18L 1013 402.23L 1028.5 402.22L 1041.6 396.65L 1053 394.87L 1072 396.38L 1087.5 402.2L 1100.6 391.52L 1112 402.03L 1131 393.46L 1146.5 401.64L 1159.6 397.16L 1171 395.24L 1190 402.15L 1205.5 392.89L 1218.6 400.57L 1230 392.55" fill="none" stroke-width="0.5" stroke="#000000" stroke-opacity="0.30196" stroke-linecap="round" stroke-linejoin="round"/>
    <path d="M 50 208.76L 109 208L 143.51 182.56L 168 182.39L 186.99 174.51L 202.51 175.83L 215.63 174.04L 227 166.37L 245.99 169.3L 261.51 171.27L 274.63 167.83L 286 164.39L 304.99 162.87L 320.51 163.76L 333.63 162.74L 345 164.41L 363.99 163.25L 379.51 161.23L 392.63 161.13L 404 162.01L 422.99 160.24L 438.51 160.61L 451.63 160.61L 463 156.71L 481.99 157.04L 497.51 155.18L 510.63 154.6L 522 155.53L 540.99 153.12L 556.51 150.48L 569.63 153.13L 581 153.09L 599.99 151.55L 615.51 150.14L 628.63 148.78L 640 149.78L 658.99 148.31L 674.51 148.89L 687.63 145.97L 699 145.71L 717.99 145.74L 733.51 145.38L 746.63 143.96L 758 143.58L 776.99 143.94L 792.51 141.67L 805.63 141.45L 817 141.52L 835.99 141.28L 851.51 140.12L 864.63 139.51L 876 139.37L 894.99 139.44L 910.51 138.5L 923.63 137.9L 935 137.37L 953.99 135.73L 969.51 137.24L 982.63 135.64L 994 134.56L 1013 133.3L 1028.5 134.77L 1041.6 133.07L 1053 132.35L 1072 131.9L 1087.5 131.81L 1100.6 130.73L 1112 130.58L 1131 129.7L 1146.5 129.2L 1159.6 128.19L 1171 129.59L 1190 126.6L 1205.5 127.22L 1218.6 127.95L 1230 126.79" fill="none" stroke-width="0.5" stroke="#000000" stroke-opacity="0.30196" stroke-linecap="round" stroke-linejoin="round"/>
    <path d="M 50 208.76L 109 252.11L 143.51 275.96L 168 294.7L 186.99 307.9L 202.51 320.05L 215.63 329.7L 227 338.05L 245.99 352.76L 261.51 364.16L 274.63 373.04L 286 380.65L 304.99 395.35L 320.51 381.65L 333.63 416.39L 345 423.99L 363.99 413.09L 379.51 406.38L 392.63 402.29L 404 399.13L 422.99 395.35L 438.51 399.13L 451.63 402.29L 463 399.13L 481.99 395.16L 497.51 399.13L 510.63 396.27L 522 399.13L 540.99 395.11L 556.51 395.81L 569.63 394.82L 581 395.37L 599.99 394.14L 615.51 395.77L 628.63 394.82L 640 395.34L 658.99 394.62L 674.51 394.53L 687.63 394.82L 699 394.43L 717.99 394.61L 733.51 394.53L 746.63 394.47L 758 394.43L 776.99 394.49L 792.51 394.33L 805.63 394.39L 817 394.43L 835.99 394.31L 851.51 394.38L 864.63 394.34L 876 393.27L 894.99 394.34L 910.51 394.3L 923.63 393.79L 935 394.34L 953.99 393.75L 969.51 394.38L 982.63 394.29L 994 393.68L 1013 394.28L 1028.5 394.36L 1041.6 394.25L 1053 394.32L 1072 394.29L 1087.5 393.56L 1100.6 393.7L 1112 393.77L 1131 393.32L 1146.5 394.29L 1159.6 394.17L 1171 394.25L 1190 393.01L 1205.5 393.54L 1218.6 394.21L 1230 394.01" fill="none" stroke-width="0.5" stroke="#000000" stroke-opacity="0.30196" stroke-linecap="round" stroke-linejoin="round"/>
  </g>
  <path d="M 74 33 L 74 122 L 399 122 L 399 33 z" fill="#FFFFFF" fill-opacity="0.7019607843137254" stroke-width="0.5" stroke="#000000" stroke-opacity="1" stroke-linecap="round" stroke-linejoin="round"/>
  <path d="M 88 52 L 108 52" fill="none" stroke-width="4" stroke="#FF3B30" stroke-opacity="1" stroke-linecap="round" stroke-linejoin="round"/>
  <path d="M 88 52 L 108 52" fill="none" stroke-width="0.5" stroke="#000000" stroke-opacity="0.30196" stroke-linecap="round" stroke-linejoin="round"/>
  <text x="119" y="56.17" font-family="Menlo" font-size="12" font-weight="normal" font-style="normal" fill="#000000" fill-opacity="1">Array&lt;Int&gt; removeLast</text>
  <path d="M 88 69 L 108 69" fill="none" stroke-width="4" stroke="#007AFF" stroke-opacity="1" stroke-linecap="round" stroke-linejoin="round"/>
  <path d="M 88 69 L 108 69" fill="none" stroke-width="0.5" stroke="#000000" stroke-opacity="0.30196" stroke-linecap="round" stroke-linejoin="round"/>
  <text x="119" y="73.17" font-family="Menlo" font-size="12" font-weight="normal" font-style="normal" fill="#000000" fill-opacity="1">TreeArray&lt;Int&gt; removeLast</text>
  <path d="M 88 86 L 108 86" fill="none" stroke-width="4" stroke="#28CD41" stroke-opacity="1" stroke-linecap="round" stroke-linejoin="round"/>
  <path d="M 88 86 L 108 86" fill="none" stroke-width="0.5" stroke="#000000" stroke-opacity="0.30196" stroke-linecap="round" stroke-linejoin="round"/>
  <text x="119" y="90.17" font-family="Menlo" font-size="12" font-weight="normal" font-style="normal" fill="#000000" fill-opacity="1">Deque&lt;Int&gt; removeLast (contiguous)</text>
  <path d="M 88 103 L 108 103" fill="none" stroke-width="4" stroke="#FFCC00" stroke-opacity="1" stroke-linecap="round" stroke-linejoin="round"/>
  <path d="M 88 103 L 108 103" fill="none" stroke-width="0.5" stroke="#000000" stroke-opacity="0.30196" stroke-linecap="round" stroke-linejoin="round"/>
  <text x="119" y="107.17" font-family="Menlo" font-size="12" font-weight="normal" font-style="normal" fill="#000000" fill-opacity="1">Deque&lt;Int&gt; removeLast (discontiguous)</text>
  <path d="M 50 9 L 50 441 L 1230 441 L 1230 9 z" fill="none" stroke-width="0.5" stroke="#000000" stroke-opacity="1" stroke-linecap="round" stroke-linejoin="round"/>
</svg>
