<!DOCTYPE svg PUBLIC "-//W3C//DTD SVG 1.1//EN" "http://www.w3.org/Graphics/SVG/1.1/DTD/svg11.dtd">
<svg width="1280.0px" height="480.0px" viewBox="0.0 0.0 1280.0 480.0" xmlns="http://www.w3.org/2000/svg" xmlns:xlink="http://www.w3.org/1999/xlink" version="1.1">
  <path d="M 0 0 L 0 480 L 1280 480 L 1280 0 z" fill="#FFFFFF" fill-opacity="1.0" stroke="none"/>
  <text x="50" y="468.7" font-family="Helvetica" font-size="10" font-weight="normal" font-style="normal" fill="#000000" fill-opacity="1">Average per-element processing time over input size (bands: min, mean, mean + 2stddev)</text>
  <a xlink:href="https://github.com/apple/swift-collections-benchmark"><text x="1107" y="468.7" font-family="Helvetica" font-size="10" font-weight="normal" font-style="normal" fill="#000000" fill-opacity="1">swift-collections-benchmark</text></a>
  <path d="M 50 9 L 50 441" fill="none" stroke-width="0.75" stroke="#000000" stroke-opacity="0.49804" stroke-linecap="butt" stroke-linejoin="round"/>
  <text x="47" y="453.7" font-family="Helvetica" font-size="10" font-weight="normal" font-style="normal" fill="#000000" fill-opacity="1">1</text>
  <path d="M 109 9 L 109 441" fill="none" stroke-width="0.75" stroke="#000000" stroke-opacity="0.49804" stroke-linecap="butt" stroke-linejoin="round"/>
  <text x="106" y="453.7" font-family="Helvetica" font-size="10" font-weight="normal" font-style="normal" fill="#000000" fill-opacity="1">2</text>
  <path d="M 168 9 L 168 441" fill="none" stroke-width="0.75" stroke="#000000" stroke-opacity="0.49804" stroke-linecap="butt" stroke-linejoin="round"/>
  <text x="165" y="453.7" font-family="Helvetica" font-size="10" font-weight="normal" font-style="normal" fill="#000000" fill-opacity="1">4</text>
  <path d="M 227 9 L 227 441" fill="none" stroke-width="0.75" stroke="#000000" stroke-opacity="0.49804" stroke-linecap="butt" stroke-linejoin="round"/>
  <text x="224" y="453.7" font-family="Helvetica" font-size="10" font-weight="normal" font-style="normal" fill="#000000" fill-opacity="1">8</text>
  <path d="M 286 9 L 286 441" fill="none" stroke-width="0.75" stroke="#000000" stroke-opacity="0.49804" stroke-linecap="butt" stroke-linejoin="round"/>
  <text x="280" y="453.7" font-family="Helvetica" font-size="10" font-weight="normal" font-style="normal" fill="#000000" fill-opacity="1">16</text>
  <path d="M 345 9 L 345 441" fill="none" stroke-width="0.75" stroke="#000000" stroke-opacity="0.49804" stroke-linecap="butt" stroke-linejoin="round"/>
  <text x="339" y="453.7" font-family="Helvetica" font-size="10" font-weight="normal" font-style="normal" fill="#000000" fill-opacity="1">32</text>
  <path d="M 404 9 L 404 441" fill="none" stroke-width="0.75" stroke="#000000" stroke-opacity="0.49804" stroke-linecap="butt" stroke-linejoin="round"/>
  <text x="398" y="453.7" font-family="Helvetica" font-size="10" font-weight="normal" font-style="normal" fill="#000000" fill-opacity="1">64</text>
  <path d="M 463 9 L 463 441" fill="none" stroke-width="0.75" stroke="#000000" stroke-opacity="0.49804" stroke-linecap="butt" stroke-linejoin="round"/>
  <text x="454.5" y="453.7" font-family="Helvetica" font-size="10" font-weight="normal" font-style="normal" fill="#000000" fill-opacity="1">128</text>
  <path d="M 522 9 L 522 441" fill="none" stroke-width="0.75" stroke="#000000" stroke-opacity="0.49804" stroke-linecap="butt" stroke-linejoin="round"/>
  <text x="513.5" y="453.7" font-family="Helvetica" font-size="10" font-weight="normal" font-style="normal" fill="#000000" fill-opacity="1">256</text>
  <path d="M 581 9 L 581 441" fill="none" stroke-width="0.75" stroke="#000000" stroke-opacity="0.49804" stroke-linecap="butt" stroke-linejoin="round"/>
  <text x="572.5" y="453.7" font-family="Helvetica" font-size="10" font-weight="normal" font-style="normal" fill="#000000" fill-opacity="1">512</text>
  <path d="M 640 9 L 640 441" fill="none" stroke-width="0.75" stroke="#000000" stroke-opacity="0.49804" stroke-linecap="butt" stroke-linejoin="round"/>
  <text x="634.5" y="453.7" font-family="Helvetica" font-size="10" font-weight="normal" font-style="normal" fill="#000000" fill-opacity="1">1k</text>
  <path d="M 699 9 L 699 441" fill="none" stroke-width="0.75" stroke="#000000" stroke-opacity="0.49804" stroke-linecap="butt" stroke-linejoin="round"/>
  <text x="693.5" y="453.7" font-family="Helvetica" font-size="10" font-weight="normal" font-style="normal" fill="#000000" fill-opacity="1">2k</text>
  <path d="M 758 9 L 758 441" fill="none" stroke-width="0.75" stroke="#000000" stroke-opacity="0.49804" stroke-linecap="butt" stroke-linejoin="round"/>
  <text x="752.5" y="453.7" font-family="Helvetica" font-size="10" font-weight="normal" font-style="normal" fill="#000000" fill-opacity="1">4k</text>
  <path d="M 817 9 L 817 441" fill="none" stroke-width="0.75" stroke="#000000" stroke-opacity="0.49804" stroke-linecap="butt" stroke-linejoin="round"/>
  <text x="811.5" y="453.7" font-family="Helvetica" font-size="10" font-weight="normal" font-style="normal" fill="#000000" fill-opacity="1">8k</text>
  <path d="M 876 9 L 876 441" fill="none" stroke-width="0.75" stroke="#000000" stroke-opacity="0.49804" stroke-linecap="butt" stroke-linejoin="round"/>
  <text x="867.5" y="453.7" font-family="Helvetica" font-size="10" font-weight="normal" font-style="normal" fill="#000000" fill-opacity="1">16k</text>
  <path d="M 935 9 L 935 441" fill="none" stroke-width="0.75" stroke="#000000" stroke-opacity="0.49804" stroke-linecap="butt" stroke-linejoin="round"/>
  <text x="926.5" y="453.7" font-family="Helvetica" font-size="10" font-weight="normal" font-style="normal" fill="#000000" fill-opacity="1">32k</text>
  <path d="M 994 9 L 994 441" fill="none" stroke-width="0.75" stroke="#000000" stroke-opacity="0.49804" stroke-linecap="butt" stroke-linejoin="round"/>
  <text x="985.5" y="453.7" font-family="Helvetica" font-size="10" font-weight="normal" font-style="normal" fill="#000000" fill-opacity="1">64k</text>
  <path d="M 1053 9 L 1053 441" fill="none" stroke-width="0.75" stroke="#000000" stroke-opacity="0.49804" stroke-linecap="butt" stroke-linejoin="round"/>
  <text x="1042" y="453.7" font-family="Helvetica" font-size="10" font-weight="normal" font-style="normal" fill="#000000" fill-opacity="1">128k</text>
  <path d="M 1112 9 L 1112 441" fill="none" stroke-width="0.75" stroke="#000000" stroke-opacity="0.49804" stroke-linecap="butt" stroke-linejoin="round"/>
  <text x="1101" y="453.7" font-family="Helvetica" font-size="10" font-weight="normal" font-style="normal" fill="#000000" fill-opacity="1">256k</text>
  <path d="M 1171 9 L 1171 441" fill="none" stroke-width="0.75" stroke="#000000" stroke-opacity="0.49804" stroke-linecap="butt" stroke-linejoin="round"/>
  <text x="1160" y="453.7" font-family="Helvetica" font-size="10" font-weight="normal" font-style="normal" fill="#000000" fill-opacity="1">512k</text>
  <path d="M 1230 9 L 1230 441" fill="none" stroke-width="0.75" stroke="#000000" stroke-opacity="0.49804" stroke-linecap="butt" stroke-linejoin="round"/>
  <text x="1223" y="453.7" font-family="Helvetica" font-size="10" font-weight="normal" font-style="normal" fill="#000000" fill-opacity="1">1M</text>
  <path d="M 50 441 L 1230 441" fill="none" stroke-width="0.75" stroke="#000000" stroke-opacity="0.49804" stroke-linecap="butt" stroke-linejoin="round"/>
  <text x="27" y="442.7" font-family="Helvetica" font-size="10" font-weight="normal" font-style="normal" fill="#000000" fill-opacity="1">1 ns</text>
  <text x="1236" y="442.7" font-family="Helvetica" font-size="10" font-weight="normal" font-style="normal" fill="#000000" fill-opacity="1">1 ns</text>
  <path d="M 50 297 L 1230 297" fill="none" stroke-width="0.75" stroke="#000000" stroke-opacity="0.49804" stroke-linecap="butt" stroke-linejoin="round"/>
  <text x="21" y="298.7" font-family="Helvetica" font-size="10" font-weight="normal" font-style="normal" fill="#000000" fill-opacity="1">10 ns</text>
  <text x="1236" y="298.7" font-family="Helvetica" font-size="10" font-weight="normal" font-style="normal" fill="#000000" fill-opacity="1">10 ns</text>
  <path d="M 50 153 L 1230 153" fill="none" stroke-width="0.75" stroke="#000000" stroke-opacity="0.49804" stroke-linecap="butt" stroke-linejoin="round"/>
  <text x="16" y="154.7" font-family="Helvetica" font-size="10" font-weight="normal" font-style="normal" fill="#000000" fill-opacity="1">100 ns</text>
  <text x="1236" y="154.7" font-family="Helvetica" font-size="10" font-weight="normal" font-style="normal" fill="#000000" fill-opacity="1">100 ns</text>
  <path d="M 50 9 L 1230 9" fill="none" stroke-width="0.75" stroke="#000000" stroke-opacity="0.49804" stroke-linecap="butt" stroke-linejoin="round"/>
  <text x="26" y="10.7" font-family="Helvetica" font-size="10" font-weight="normal" font-style="normal" fill="#000000" fill-opacity="1">1 µs</text>
  <text x="1236" y="10.7" font-family="Helvetica" font-size="10" font-weight="normal" font-style="normal" fill="#000000" fill-opacity="1">1 µs</text>
  <path d="M 50 397.65 L 1230 397.65" fill="none" stroke-width="0.5" stroke="#000000" stroke-opacity="0.25882" stroke-linecap="butt" stroke-linejoin="round" stroke-dasharray="6 3" stroke-dashoffset="0"/>
  <path d="M 50 354.3 L 1230 354.3" fill="none" stroke-width="0.5" stroke="#000000" stroke-opacity="0.25882" stroke-linecap="butt" stroke-linejoin="round" stroke-dasharray="6 3" stroke-dashoffset="0"/>
  <path d="M 50 310.96 L 1230 310.96" fill="none" stroke-width="0.5" stroke="#000000" stroke-opacity="0.25882" stroke-linecap="butt" stroke-linejoin="round" stroke-dasharray="6 3" stroke-dashoffset="0"/>
  <path d="M 50 267.61 L 1230 267.61" fill="none" stroke-width="0.5" stroke="#000000" stroke-opacity="0.25882" stroke-linecap="butt" stroke-linejoin="round" stroke-dasharray="6 3" stroke-dashoffset="0"/>
  <path d="M 50 224.26 L 1230 224.26" fill="none" stroke-width="0.5" stroke="#000000" stroke-opacity="0.25882" stroke-linecap="butt" stroke-linejoin="round" stroke-dasharray="6 3" stroke-dashoffset="0"/>
  <path d="M 50 180.91 L 1230 180.91" fill="none" stroke-width="0.5" stroke="#000000" stroke-opacity="0.25882" stroke-linecap="butt" stroke-linejoin="round" stroke-dasharray="6 3" stroke-dashoffset="0"/>
  <path d="M 50 137.56 L 1230 137.56" fill="none" stroke-width="0.5" stroke="#000000" stroke-opacity="0.25882" stroke-linecap="butt" stroke-linejoin="round" stroke-dasharray="6 3" stroke-dashoffset="0"/>
  <path d="M 50 94.213 L 1230 94.213" fill="none" stroke-width="0.5" stroke="#000000" stroke-opacity="0.25882" stroke-linecap="butt" stroke-linejoin="round" stroke-dasharray="6 3" stroke-dashoffset="0"/>
  <path d="M 50 50.865 L 1230 50.865" fill="none" stroke-width="0.5" stroke="#000000" stroke-opacity="0.25882" stroke-linecap="butt" stroke-linejoin="round" stroke-dasharray="6 3" stroke-dashoffset="0"/>
  <path d="M 74 33 L 74 88 L 312 88 L 312 33 z" fill="#FFFFFF" fill-opacity="1.0" stroke="none"/>
  <clipPath id="clip-0">
    <path d="M 50 9 L 50 441 L 1230 441 L 1230 9 z"/>
  </clipPath>
  <g clip-path="url(#clip-0)">
    <path d="M 50 207.25L 109 206.58L 143.51 190.01L 168 151.63L 186.99 159.11L 202.51 169.89L 215.63 149.59L 227 168.44L 245.99 164.77L 261.51 162.05L 274.63 162.36L 286 164.42L 304.99 161.51L 320.51 164.4L 333.63 161.33L 345 158.2L 363.99 150.48L 379.51 153.43L 392.63 149.89L 404 151.87L 422.99 155.71L 438.51 152.12L 451.63 151.5L 463 151.27L 481.99 146.65L 497.51 151.51L 510.63 152.39L 522 152.58L 540.99 151.09L 556.51 146.87L 569.63 148.46L 581 146.9L 599.99 145.16L 615.51 144.61L 628.63 146.96L 640 141.95L 658.99 146.87L 674.51 143.47L 687.63 142.18L 699 140.94L 717.99 142.78L 733.51 141.59L 746.63 138.05L 758 142.71L 776.99 140.65L 792.51 140.12L 805.63 140.55L 817 140.29L 835.99 139.75L 851.51 136.8L 864.63 139.2L 876 139.49L 894.99 131.65L 910.51 135.8L 923.63 131.65L 935 130.45L 953.99 133.13L 969.51 129.25L 982.63 132.56L 994 134.94L 1013 133.1L 1028.5 130.22L 1041.6 128.78L 1053 131.61L 1072 131.82L 1087.5 129.09L 1100.6 125.52L 1112 130.11L 1131 126.67L 1146.5 124.06L 1159.6 123.71L 1171 126.61L 1190 123.88L 1205.5 124.9L 1218.6 125.87L 1230 125.48L 1230 125.62L 1218.6 126.44L 1205.5 127.77L 1190 127.71L 1171 128.17L 1159.6 129.68L 1146.5 130.49L 1131 129.39L 1112 130.59L 1100.6 131.9L 1087.5 132.53L 1072 132.11L 1053 133.92L 1041.6 133.29L 1028.5 134.99L 1013 133.46L 994 135.45L 982.63 134.46L 969.51 136.08L 953.99 137.74L 935 138.11L 923.63 137.45L 910.51 135.97L 894.99 139.42L 876 140.77L 864.63 139.48L 851.51 140.26L 835.99 141.47L 817 142.76L 805.63 142.98L 792.51 143.08L 776.99 144.27L 758 146.07L 746.63 146.09L 733.51 145.25L 717.99 144.7L 699 147.26L 687.63 148.28L 674.51 147.74L 658.99 147.94L 640 149.67L 628.63 148.6L 615.51 150.19L 599.99 151L 581 151.38L 569.63 151.97L 556.51 154.9L 540.99 155.16L 522 155.96L 510.63 152.84L 497.51 157.91L 481.99 157.04L 463 156.82L 451.63 160.87L 438.51 160.3L 422.99 157.04L 404 157.48L 392.63 158.04L 379.51 161.23L 363.99 166.78L 345 165.39L 333.63 165.52L 320.51 164.4L 304.99 164.39L 286 164.42L 274.63 166.68L 261.51 167.09L 245.99 170.99L 227 168.44L 215.63 174.04L 202.51 169.89L 186.99 170.99L 168 182.39L 143.51 190.01L 109 208L 50 207.25" fill="#007AFF" fill-opacity="0.30196078431372547" stroke="none"/>
    <path d="M 50 208.76L 109 252.11L 143.51 275.96L 168 292.6L 186.99 307.9L 202.51 317.96L 215.63 327.6L 227 335.95L 245.99 352.76L 261.51 364.16L 274.63 370.95L 286 380.65L 304.99 393.25L 320.51 339.62L 333.63 414.3L 345 423.99L 363.99 372.04L 379.51 405.33L 392.63 374.03L 404 399.13L 422.99 395.35L 438.51 382.28L 451.63 402.29L 463 399.13L 481.99 395.16L 497.51 399.13L 510.63 396.27L 522 399.13L 540.99 394.98L 556.51 395.81L 569.63 391.07L 581 391.97L 599.99 391.45L 615.51 395.77L 628.63 394.82L 640 395.34L 658.99 393.26L 674.51 393.39L 687.63 394.82L 699 393.6L 717.99 394.61L 733.51 394.53L 746.63 394.47L 758 394.43L 776.99 394.16L 792.51 394.33L 805.63 394.14L 817 394.43L 835.99 394.14L 851.51 394.24L 864.63 394.22L 876 390.5L 894.99 394.26L 910.51 394.23L 923.63 392.23L 935 394.18L 953.99 392.21L 969.51 394.38L 982.63 394.2L 994 392.06L 1013 394.28L 1028.5 394.34L 1041.6 394.25L 1053 394.2L 1072 394.23L 1087.5 392.5L 1100.6 392.16L 1112 392.12L 1131 390.75L 1146.5 394.09L 1159.6 393.98L 1171 394.25L 1190 389.37L 1205.5 391.55L 1218.6 393.8L 1230 393.56L 1230 394.17L 1218.6 394.35L 1205.5 394.25L 1190 394.35L 1171 394.25L 1159.6 394.24L 1146.5 394.36L 1131 394.26L 1112 394.36L 1100.6 394.25L 1087.5 393.94L 1072 394.32L 1053 394.36L 1041.6 394.25L 1028.5 394.37L 1013 394.28L 994 394.26L 982.63 394.32L 969.51 394.38L 953.99 394.31L 935 394.39L 923.63 394.34L 910.51 394.33L 894.99 394.37L 876 394.28L 864.63 394.39L 851.51 394.43L 835.99 394.37L 817 394.43L 805.63 394.48L 792.51 394.33L 776.99 394.61L 758 394.43L 746.63 394.47L 733.51 394.53L 717.99 394.61L 699 394.73L 687.63 394.82L 674.51 394.94L 658.99 395.11L 640 395.34L 628.63 394.82L 615.51 395.77L 599.99 395.11L 581 396.62L 569.63 396.2L 556.51 395.81L 540.99 395.16L 522 399.13L 510.63 396.27L 497.51 399.13L 481.99 395.16L 463 399.13L 451.63 402.29L 438.51 406.38L 422.99 395.35L 404 399.13L 392.63 416.39L 379.51 406.75L 363.99 437.95L 345 423.99L 333.63 417.15L 320.51 407.51L 304.99 396.11L 286 380.65L 274.63 373.8L 261.51 364.16L 245.99 352.76L 227 338.8L 215.63 330.45L 202.51 320.81L 186.99 307.9L 168 295.46L 143.51 275.96L 109 252.11L 50 208.76" fill="#FF3B30" fill-opacity="0.30196078431372547" stroke="none"/>
    <path d="M 50 207.25L 109 207.63L 143.51 190.01L 168 172.79L 186.99 167.66L 202.51 169.89L 215.63 166.68L 227 168.44L 245.99 169.3L 261.51 165.73L 274.63 165.52L 286 164.42L 304.99 163.63L 320.51 164.4L 333.63 164.4L 345 163.43L 363.99 162.1L 379.51 159.1L 392.63 155.81L 404 155.96L 422.99 156.69L 438.51 158.06L 451.63 158.29L 463 155.32L 481.99 154.15L 497.51 156.17L 510.63 152.72L 522 155.06L 540.99 154.07L 556.51 152.7L 569.63 151.04L 581 150.18L 599.99 149.42L 615.51 148.68L 628.63 148.17L 640 147.56L 658.99 147.66L 674.51 146.59L 687.63 146.63L 699 145.54L 717.99 144.19L 733.51 144.28L 746.63 143.89L 758 145.18L 776.99 143.3L 792.51 142.3L 805.63 142.34L 817 142.1L 835.99 141.01L 851.51 139.34L 864.63 139.41L 876 140.43L 894.99 137.3L 910.51 135.92L 923.63 135.88L 935 136.02L 953.99 136.5L 969.51 134.22L 982.63 133.96L 994 135.32L 1013 133.37L 1028.5 133.71L 1041.6 132.08L 1053 133.31L 1072 132.04L 1087.5 131.61L 1100.6 130.17L 1112 130.47L 1131 128.67L 1146.5 128.75L 1159.6 128.06L 1171 127.76L 1190 126.68L 1205.5 127.01L 1218.6 126.29L 1230 125.58" fill="none" stroke-width="4" stroke="#007AFF" stroke-opacity="1" stroke-linecap="round" stroke-linejoin="round"/>
    <path d="M 50 208.76L 109 252.11L 143.51 275.96L 168 294.7L 186.99 307.9L 202.51 320.05L 215.63 329.7L 227 338.05L 245.99 352.76L 261.51 364.16L 274.63 373.04L 286 380.65L 304.99 395.35L 320.51 381.65L 333.63 416.39L 345 423.99L 363.99 413.09L 379.51 406.38L 392.63 402.29L 404 399.13L 422.99 395.35L 438.51 399.13L 451.63 402.29L 463 399.13L 481.99 395.16L 497.51 399.13L 510.63 396.27L 522 399.13L 540.99 395.11L 556.51 395.81L 569.63 394.82L 581 395.37L 599.99 394.14L 615.51 395.77L 628.63 394.82L 640 395.34L 658.99 394.62L 674.51 394.53L 687.63 394.82L 699 394.43L 717.99 394.61L 733.51 394.53L 746.63 394.47L 758 394.43L 776.99 394.49L 792.51 394.33L 805.63 394.39L 817 394.43L 835.99 394.31L 851.51 394.38L 864.63 394.34L 876 393.27L 894.99 394.34L 910.51 394.3L 923.63 393.79L 935 394.34L 953.99 393.75L 969.51 394.38L 982.63 394.29L 994 393.68L 1013 394.28L 1028.5 394.36L 1041.6 394.25L 1053 394.32L 1072 394.29L 1087.5 393.56L 1100.6 393.7L 1112 393.77L 1131 393.32L 1146.5 394.29L 1159.6 394.17L 1171 394.25L 1190 393.01L 1205.5 393.54L 1218.6 394.21L 1230 394.01" fill="none" stroke-width="4" stroke="#FF3B30" stroke-opacity="1" stroke-linecap="round" stroke-linejoin="round"/>
    <path d="M 50 207.25L 109 207.63L 143.51 190.01L 168 172.79L 186.99 167.66L 202.51 169.89L 215.63 166.68L 227 168.44L 245.99 169.3L 261.51 165.73L 274.63 165.52L 286 164.42L 304.99 163.63L 320.51 164.4L 333.63 164.4L 345 163.43L 363.99 162.1L 379.51 159.1L 392.63 155.81L 404 155.96L 422.99 156.69L 438.51 158.06L 451.63 158.29L 463 155.32L 481.99 154.15L 497.51 156.17L 510.63 152.72L 522 155.06L 540.99 154.07L 556.51 152.7L 569.63 151.04L 581 150.18L 599.99 149.42L 615.51 148.68L 628.63 148.17L 640 147.56L 658.99 147.66L 674.51 146.59L 687.63 146.63L 699 145.54L 717.99 144.19L 733.51 144.28L 746.63 143.89L 758 145.18L 776.99 143.3L 792.51 142.3L 805.63 142.34L 817 142.1L 835.99 141.01L 851.51 139.34L 864.63 139.41L 876 140.43L 894.99 137.3L 910.51 135.92L 923.63 135.88L 935 136.02L 953.99 136.5L 969.51 134.22L 982.63 133.96L 994 135.32L 1013 133.37L 1028.5 133.71L 1041.6 132.08L 1053 133.31L 1072 132.04L 1087.5 131.61L 1100.6 130.17L 1112 130.47L 1131 128.67L 1146.5 128.75L 1159.6 128.06L 1171 127.76L 1190 126.68L 1205.5 127.01L 1218.6 126.29L 1230 125.58" fill="none" stroke-width="0.5" stroke="#000000" stroke-opacity="0.30196" stroke-linecap="round" stroke-linejoin="round"/>
    <path d="M 50 208.76L 109 252.11L 143.51 275.96L 168 294.7L 186.99 307.9L 202.51 320.05L 215.63 329.7L 227 338.05L 245.99 352.76L 261.51 364.16L 274.63 373.04L 286 380.65L 304.99 395.35L 320.51 381.65L 333.63 416.39L 345 423.99L 363.99 413.09L 379.51 406.38L 392.63 402.29L 404 399.13L 422.99 395.35L 438.51 399.13L 451.63 402.29L 463 399.13L 481.99 395.16L 497.51 399.13L 510.63 396.27L 522 399.13L 540.99 395.11L 556.51 395.81L 569.63 394.82L 581 395.37L 599.99 394.14L 615.51 395.77L 628.63 394.82L 640 395.34L 658.99 394.62L 674.51 394.53L 687.63 394.82L 699 394.43L 717.99 394.61L 733.51 394.53L 746.63 394.47L 758 394.43L 776.99 394.49L 792.51 394.33L 805.63 394.39L 817 394.43L 835.99 394.31L 851.51 394.38L 864.63 394.34L 876 393.27L 894.99 394.34L 910.51 394.3L 923.63 393.79L 935 394.34L 953.99 393.75L 969.51 394.38L 982.63 394.29L 994 393.68L 1013 394.28L 1028.5 394.36L 1041.6 394.25L 1053 394.32L 1072 394.29L 1087.5 393.56L 1100.6 393.7L 1112 393.77L 1131 393.32L 1146.5 394.29L 1159.6 394.17L 1171 394.25L 1190 393.01L 1205.5 393.54L 1218.6 394.21L 1230 394.01" fill="none" stroke-width="0.5" stroke="#000000" stroke-opacity="0.30196" stroke-linecap="round" stroke-linejoin="round"/>
  </g>
  <path d="M 74 33 L 74 88 L 312 88 L 312 33 z" fill="#FFFFFF" fill-opacity="0.7019607843137254" stroke-width="0.5" stroke="#000000" stroke-opacity="1" stroke-linecap="round" stroke-linejoin="round"/>
  <path d="M 88 52 L 108 52" fill="none" stroke-width="4" stroke="#FF3B30" stroke-opacity="1" stroke-linecap="round" stroke-linejoin="round"/>
  <path d="M 88 52 L 108 52" fill="none" stroke-width="0.5" stroke="#000000" stroke-opacity="0.30196" stroke-linecap="round" stroke-linejoin="round"/>
  <text x="119" y="56.17" font-family="Menlo" font-size="12" font-weight="normal" font-style="normal" fill="#000000" fill-opacity="1">Array&lt;Int&gt; removeLast</text>
  <path d="M 88 69 L 108 69" fill="none" stroke-width="4" stroke="#007AFF" stroke-opacity="1" stroke-linecap="round" stroke-linejoin="round"/>
  <path d="M 88 69 L 108 69" fill="none" stroke-width="0.5" stroke="#000000" stroke-opacity="0.30196" stroke-linecap="round" stroke-linejoin="round"/>
  <text x="119" y="73.17" font-family="Menlo" font-size="12" font-weight="normal" font-style="normal" fill="#000000" fill-opacity="1">TreeArray&lt;Int&gt; removeLast</text>
  <path d="M 50 9 L 50 441 L 1230 441 L 1230 9 z" fill="none" stroke-width="0.5" stroke="#000000" stroke-opacity="1" stroke-linecap="round" stroke-linejoin="round"/>
</svg>
