<!DOCTYPE svg PUBLIC "-//W3C//DTD SVG 1.1//EN" "http://www.w3.org/Graphics/SVG/1.1/DTD/svg11.dtd">
<svg width="1280.0px" height="480.0px" viewBox="0.0 0.0 1280.0 480.0" xmlns="http://www.w3.org/2000/svg" xmlns:xlink="http://www.w3.org/1999/xlink" version="1.1">
  <path d="M 0 0 L 0 480 L 1280 480 L 1280 0 z" fill="#FFFFFF" fill-opacity="1.0" stroke="none"/>
  <text x="50" y="468.7" font-family="Helvetica" font-size="10" font-weight="normal" font-style="normal" fill="#000000" fill-opacity="1">Average per-element processing time over input size (bands: min, mean, mean + 2stddev)</text>
  <a xlink:href="https://github.com/apple/swift-collections-benchmark"><text x="1107" y="468.7" font-family="Helvetica" font-size="10" font-weight="normal" font-style="normal" fill="#000000" fill-opacity="1">swift-collections-benchmark</text></a>
  <path d="M 50 9 L 50 441" fill="none" stroke-width="0.75" stroke="#000000" stroke-opacity="0.49804" stroke-linecap="butt" stroke-linejoin="round"/>
  <text x="47" y="453.7" font-family="Helvetica" font-size="10" font-weight="normal" font-style="normal" fill="#000000" fill-opacity="1">1</text>
  <path d="M 109 9 L 109 441" fill="none" stroke-width="0.75" stroke="#000000" stroke-opacity="0.49804" stroke-linecap="butt" stroke-linejoin="round"/>
  <text x="106" y="453.7" font-family="Helvetica" font-size="10" font-weight="normal" font-style="normal" fill="#000000" fill-opacity="1">2</text>
  <path d="M 168 9 L 168 441" fill="none" stroke-width="0.75" stroke="#000000" stroke-opacity="0.49804" stroke-linecap="butt" stroke-linejoin="round"/>
  <text x="165" y="453.7" font-family="Helvetica" font-size="10" font-weight="normal" font-style="normal" fill="#000000" fill-opacity="1">4</text>
  <path d="M 227 9 L 227 441" fill="none" stroke-width="0.75" stroke="#000000" stroke-opacity="0.49804" stroke-linecap="butt" stroke-linejoin="round"/>
  <text x="224" y="453.7" font-family="Helvetica" font-size="10" font-weight="normal" font-style="normal" fill="#000000" fill-opacity="1">8</text>
  <path d="M 286 9 L 286 441" fill="none" stroke-width="0.75" stroke="#000000" stroke-opacity="0.49804" stroke-linecap="butt" stroke-linejoin="round"/>
  <text x="280" y="453.7" font-family="Helvetica" font-size="10" font-weight="normal" font-style="normal" fill="#000000" fill-opacity="1">16</text>
  <path d="M 345 9 L 345 441" fill="none" stroke-width="0.75" stroke="#000000" stroke-opacity="0.49804" stroke-linecap="butt" stroke-linejoin="round"/>
  <text x="339" y="453.7" font-family="Helvetica" font-size="10" font-weight="normal" font-style="normal" fill="#000000" fill-opacity="1">32</text>
  <path d="M 404 9 L 404 441" fill="none" stroke-width="0.75" stroke="#000000" stroke-opacity="0.49804" stroke-linecap="butt" stroke-linejoin="round"/>
  <text x="398" y="453.7" font-family="Helvetica" font-size="10" font-weight="normal" font-style="normal" fill="#000000" fill-opacity="1">64</text>
  <path d="M 463 9 L 463 441" fill="none" stroke-width="0.75" stroke="#000000" stroke-opacity="0.49804" stroke-linecap="butt" stroke-linejoin="round"/>
  <text x="454.5" y="453.7" font-family="Helvetica" font-size="10" font-weight="normal" font-style="normal" fill="#000000" fill-opacity="1">128</text>
  <path d="M 522 9 L 522 441" fill="none" stroke-width="0.75" stroke="#000000" stroke-opacity="0.49804" stroke-linecap="butt" stroke-linejoin="round"/>
  <text x="513.5" y="453.7" font-family="Helvetica" font-size="10" font-weight="normal" font-style="normal" fill="#000000" fill-opacity="1">256</text>
  <path d="M 581 9 L 581 441" fill="none" stroke-width="0.75" stroke="#000000" stroke-opacity="0.49804" stroke-linecap="butt" stroke-linejoin="round"/>
  <text x="572.5" y="453.7" font-family="Helvetica" font-size="10" font-weight="normal" font-style="normal" fill="#000000" fill-opacity="1">512</text>
  <path d="M 640 9 L 640 441" fill="none" stroke-width="0.75" stroke="#000000" stroke-opacity="0.49804" stroke-linecap="butt" stroke-linejoin="round"/>
  <text x="634.5" y="453.7" font-family="Helvetica" font-size="10" font-weight="normal" font-style="normal" fill="#000000" fill-opacity="1">1k</text>
  <path d="M 699 9 L 699 441" fill="none" stroke-width="0.75" stroke="#000000" stroke-opacity="0.49804" stroke-linecap="butt" stroke-linejoin="round"/>
  <text x="693.5" y="453.7" font-family="Helvetica" font-size="10" font-weight="normal" font-style="normal" fill="#000000" fill-opacity="1">2k</text>
  <path d="M 758 9 L 758 441" fill="none" stroke-width="0.75" stroke="#000000" stroke-opacity="0.49804" stroke-linecap="butt" stroke-linejoin="round"/>
  <text x="752.5" y="453.7" font-family="Helvetica" font-size="10" font-weight="normal" font-style="normal" fill="#000000" fill-opacity="1">4k</text>
  <path d="M 817 9 L 817 441" fill="none" stroke-width="0.75" stroke="#000000" stroke-opacity="0.49804" stroke-linecap="butt" stroke-linejoin="round"/>
  <text x="811.5" y="453.7" font-family="Helvetica" font-size="10" font-weight="normal" font-style="normal" fill="#000000" fill-opacity="1">8k</text>
  <path d="M 876 9 L 876 441" fill="none" stroke-width="0.75" stroke="#000000" stroke-opacity="0.49804" stroke-linecap="butt" stroke-linejoin="round"/>
  <text x="867.5" y="453.7" font-family="Helvetica" font-size="10" font-weight="normal" font-style="normal" fill="#000000" fill-opacity="1">16k</text>
  <path d="M 935 9 L 935 441" fill="none" stroke-width="0.75" stroke="#000000" stroke-opacity="0.49804" stroke-linecap="butt" stroke-linejoin="round"/>
  <text x="926.5" y="453.7" font-family="Helvetica" font-size="10" font-weight="normal" font-style="normal" fill="#000000" fill-opacity="1">32k</text>
  <path d="M 994 9 L 994 441" fill="none" stroke-width="0.75" stroke="#000000" stroke-opacity="0.49804" stroke-linecap="butt" stroke-linejoin="round"/>
  <text x="985.5" y="453.7" font-family="Helvetica" font-size="10" font-weight="normal" font-style="normal" fill="#000000" fill-opacity="1">64k</text>
  <path d="M 1053 9 L 1053 441" fill="none" stroke-width="0.75" stroke="#000000" stroke-opacity="0.49804" stroke-linecap="butt" stroke-linejoin="round"/>
  <text x="1042" y="453.7" font-family="Helvetica" font-size="10" font-weight="normal" font-style="normal" fill="#000000" fill-opacity="1">128k</text>
  <path d="M 1112 9 L 1112 441" fill="none" stroke-width="0.75" stroke="#000000" stroke-opacity="0.49804" stroke-linecap="butt" stroke-linejoin="round"/>
  <text x="1101" y="453.7" font-family="Helvetica" font-size="10" font-weight="normal" font-style="normal" fill="#000000" fill-opacity="1">256k</text>
  <path d="M 1171 9 L 1171 441" fill="none" stroke-width="0.75" stroke="#000000" stroke-opacity="0.49804" stroke-linecap="butt" stroke-linejoin="round"/>
  <text x="1160" y="453.7" font-family="Helvetica" font-size="10" font-weight="normal" font-style="normal" fill="#000000" fill-opacity="1">512k</text>
  <path d="M 1230 9 L 1230 441" fill="none" stroke-width="0.75" stroke="#000000" stroke-opacity="0.49804" stroke-linecap="butt" stroke-linejoin="round"/>
  <text x="1223" y="453.7" font-family="Helvetica" font-size="10" font-weight="normal" font-style="normal" fill="#000000" fill-opacity="1">1M</text>
  <path d="M 50 441 L 1230 441" fill="none" stroke-width="0.75" stroke="#000000" stroke-opacity="0.49804" stroke-linecap="butt" stroke-linejoin="round"/>
  <text x="27" y="442.7" font-family="Helvetica" font-size="10" font-weight="normal" font-style="normal" fill="#000000" fill-opacity="1">1 ns</text>
  <text x="1236" y="442.7" font-family="Helvetica" font-size="10" font-weight="normal" font-style="normal" fill="#000000" fill-opacity="1">1 ns</text>
  <path d="M 50 354.6 L 1230 354.6" fill="none" stroke-width="0.75" stroke="#000000" stroke-opacity="0.49804" stroke-linecap="butt" stroke-linejoin="round"/>
  <text x="21" y="356.3" font-family="Helvetica" font-size="10" font-weight="normal" font-style="normal" fill="#000000" fill-opacity="1">10 ns</text>
  <text x="1236" y="356.3" font-family="Helvetica" font-size="10" font-weight="normal" font-style="normal" fill="#000000" fill-opacity="1">10 ns</text>
  <path d="M 50 268.2 L 1230 268.2" fill="none" stroke-width="0.75" stroke="#000000" stroke-opacity="0.49804" stroke-linecap="butt" stroke-linejoin="round"/>
  <text x="16" y="269.9" font-family="Helvetica" font-size="10" font-weight="normal" font-style="normal" fill="#000000" fill-opacity="1">100 ns</text>
  <text x="1236" y="269.9" font-family="Helvetica" font-size="10" font-weight="normal" font-style="normal" fill="#000000" fill-opacity="1">100 ns</text>
  <path d="M 50 181.8 L 1230 181.8" fill="none" stroke-width="0.75" stroke="#000000" stroke-opacity="0.49804" stroke-linecap="butt" stroke-linejoin="round"/>
  <text x="26" y="183.5" font-family="Helvetica" font-size="10" font-weight="normal" font-style="normal" fill="#000000" fill-opacity="1">1 µs</text>
  <text x="1236" y="183.5" font-family="Helvetica" font-size="10" font-weight="normal" font-style="normal" fill="#000000" fill-opacity="1">1 µs</text>
  <path d="M 50 95.4 L 1230 95.4" fill="none" stroke-width="0.75" stroke="#000000" stroke-opacity="0.49804" stroke-linecap="butt" stroke-linejoin="round"/>
  <text x="21" y="97.1" font-family="Helvetica" font-size="10" font-weight="normal" font-style="normal" fill="#000000" fill-opacity="1">10 µs</text>
  <text x="1236" y="97.1" font-family="Helvetica" font-size="10" font-weight="normal" font-style="normal" fill="#000000" fill-opacity="1">10 µs</text>
  <path d="M 50 9 L 1230 9" fill="none" stroke-width="0.75" stroke="#000000" stroke-opacity="0.49804" stroke-linecap="butt" stroke-linejoin="round"/>
  <text x="15" y="10.7" font-family="Helvetica" font-size="10" font-weight="normal" font-style="normal" fill="#000000" fill-opacity="1">100 µs</text>
  <text x="1236" y="10.7" font-family="Helvetica" font-size="10" font-weight="normal" font-style="normal" fill="#000000" fill-opacity="1">100 µs</text>
  <path d="M 50 414.99 L 1230 414.99" fill="none" stroke-width="0.5" stroke="#000000" stroke-opacity="0.25882" stroke-linecap="butt" stroke-linejoin="round" stroke-dasharray="6 3" stroke-dashoffset="0"/>
  <path d="M 50 388.98 L 1230 388.98" fill="none" stroke-width="0.5" stroke="#000000" stroke-opacity="0.25882" stroke-linecap="butt" stroke-linejoin="round" stroke-dasharray="6 3" stroke-dashoffset="0"/>
  <path d="M 50 362.97 L 1230 362.97" fill="none" stroke-width="0.5" stroke="#000000" stroke-opacity="0.25882" stroke-linecap="butt" stroke-linejoin="round" stroke-dasharray="6 3" stroke-dashoffset="0"/>
  <path d="M 50 336.96 L 1230 336.96" fill="none" stroke-width="0.5" stroke="#000000" stroke-opacity="0.25882" stroke-linecap="butt" stroke-linejoin="round" stroke-dasharray="6 3" stroke-dashoffset="0"/>
  <path d="M 50 310.96 L 1230 310.96" fill="none" stroke-width="0.5" stroke="#000000" stroke-opacity="0.25882" stroke-linecap="butt" stroke-linejoin="round" stroke-dasharray="6 3" stroke-dashoffset="0"/>
  <path d="M 50 284.95 L 1230 284.95" fill="none" stroke-width="0.5" stroke="#000000" stroke-opacity="0.25882" stroke-linecap="butt" stroke-linejoin="round" stroke-dasharray="6 3" stroke-dashoffset="0"/>
  <path d="M 50 258.94 L 1230 258.94" fill="none" stroke-width="0.5" stroke="#000000" stroke-opacity="0.25882" stroke-linecap="butt" stroke-linejoin="round" stroke-dasharray="6 3" stroke-dashoffset="0"/>
  <path d="M 50 232.93 L 1230 232.93" fill="none" stroke-width="0.5" stroke="#000000" stroke-opacity="0.25882" stroke-linecap="butt" stroke-linejoin="round" stroke-dasharray="6 3" stroke-dashoffset="0"/>
  <path d="M 50 206.92 L 1230 206.92" fill="none" stroke-width="0.5" stroke="#000000" stroke-opacity="0.25882" stroke-linecap="butt" stroke-linejoin="round" stroke-dasharray="6 3" stroke-dashoffset="0"/>
  <path d="M 50 180.91 L 1230 180.91" fill="none" stroke-width="0.5" stroke="#000000" stroke-opacity="0.25882" stroke-linecap="butt" stroke-linejoin="round" stroke-dasharray="6 3" stroke-dashoffset="0"/>
  <path d="M 50 154.9 L 1230 154.9" fill="none" stroke-width="0.5" stroke="#000000" stroke-opacity="0.25882" stroke-linecap="butt" stroke-linejoin="round" stroke-dasharray="6 3" stroke-dashoffset="0"/>
  <path d="M 50 128.89 L 1230 128.89" fill="none" stroke-width="0.5" stroke="#000000" stroke-opacity="0.25882" stroke-linecap="butt" stroke-linejoin="round" stroke-dasharray="6 3" stroke-dashoffset="0"/>
  <path d="M 50 102.88 L 1230 102.88" fill="none" stroke-width="0.5" stroke="#000000" stroke-opacity="0.25882" stroke-linecap="butt" stroke-linejoin="round" stroke-dasharray="6 3" stroke-dashoffset="0"/>
  <path d="M 50 76.874 L 1230 76.874" fill="none" stroke-width="0.5" stroke="#000000" stroke-opacity="0.25882" stroke-linecap="butt" stroke-linejoin="round" stroke-dasharray="6 3" stroke-dashoffset="0"/>
  <path d="M 50 50.865 L 1230 50.865" fill="none" stroke-width="0.5" stroke="#000000" stroke-opacity="0.25882" stroke-linecap="butt" stroke-linejoin="round" stroke-dasharray="6 3" stroke-dashoffset="0"/>
  <path d="M 50 24.856 L 1230 24.856" fill="none" stroke-width="0.5" stroke="#000000" stroke-opacity="0.25882" stroke-linecap="butt" stroke-linejoin="round" stroke-dasharray="6 3" stroke-dashoffset="0"/>
  <path d="M 74 33 L 74 88 L 319 88 L 319 33 z" fill="#FFFFFF" fill-opacity="1.0" stroke="none"/>
  <clipPath id="clip-0">
    <path d="M 50 9 L 50 441 L 1230 441 L 1230 9 z"/>
  </clipPath>
  <g clip-path="url(#clip-0)">
    <path d="M 50 299.94L 109 285.84L 143.51 281.94L 168 275.08L 186.99 278.99L 202.51 275.31L 215.63 275.06L 227 273.02L 245.99 271.64L 261.51 262.34L 274.63 266.98L 286 265.15L 304.99 268.4L 320.51 267.99L 333.63 267.26L 345 266.82L 363.99 265.35L 379.51 261.1L 392.63 264.14L 404 260.99L 422.99 262.75L 438.51 260.11L 451.63 258.78L 463 260.33L 481.99 261.1L 497.51 257.69L 510.63 258.58L 522 257.48L 540.99 255.39L 556.51 253.69L 569.63 255.88L 581 250.8L 599.99 247.52L 615.51 253.29L 628.63 250.23L 640 246.91L 658.99 249.92L 674.51 249.77L 687.63 248.72L 699 249.92L 717.99 244.26L 733.51 247.04L 746.63 246.21L 758 247.05L 776.99 247.26L 792.51 247.25L 805.63 243.28L 817 244.72L 835.99 243.28L 851.51 242.04L 864.63 241.65L 876 242.16L 894.99 242.94L 910.51 238.36L 923.63 239.13L 935 239.81L 953.99 238.14L 969.51 238.2L 982.63 238.5L 994 238.44L 1013 237.67L 1028.5 236.29L 1041.6 236.07L 1053 236.55L 1072 236.78L 1087.5 236.34L 1100.6 234.6L 1112 234.67L 1131 233.52L 1146.5 232.64L 1159.6 232.85L 1171 231.96L 1190 232.6L 1205.5 231.75L 1218.6 229.07L 1230 230.56L 1230 231.54L 1218.6 232.86L 1205.5 232.61L 1190 233.08L 1171 233.65L 1159.6 234.57L 1146.5 234.64L 1131 235.09L 1112 234.88L 1100.6 236L 1087.5 236.96L 1072 237.2L 1053 237.18L 1041.6 237.81L 1028.5 238.24L 1013 238.33L 994 239.9L 982.63 240.56L 969.51 241.49L 953.99 242.49L 935 242.46L 923.63 242.45L 910.51 241.47L 894.99 243.31L 876 243.01L 864.63 245.43L 851.51 243.74L 835.99 243.88L 817 246.85L 805.63 246.78L 792.51 247.57L 776.99 247.78L 758 248.42L 746.63 250.25L 733.51 248.43L 717.99 251.87L 699 250.94L 687.63 250.23L 674.51 252.56L 658.99 253L 640 255.64L 628.63 254.15L 615.51 255.58L 599.99 254.65L 581 256.33L 569.63 258.84L 556.51 260.02L 540.99 256.46L 522 257.92L 510.63 258.89L 497.51 260.88L 481.99 261.26L 463 260.52L 451.63 262.73L 438.51 260.62L 422.99 266.48L 404 265.06L 392.63 265.61L 379.51 266.04L 363.99 268.99L 345 270.62L 333.63 268.32L 320.51 269.26L 304.99 273.21L 286 272.78L 274.63 273.7L 261.51 272.05L 245.99 275.01L 227 277.46L 215.63 275.06L 202.51 281.94L 186.99 278.99L 168 275.08L 143.51 281.94L 109 285.84L 50 301.66" fill="#007AFF" fill-opacity="0.30196078431372547" stroke="none"/>
    <path d="M 50 299.94L 109 327.66L 143.51 341.97L 168 351.96L 186.99 361.14L 202.51 367.18L 215.63 373.77L 227 379.68L 245.99 388.06L 261.51 394.9L 274.63 398.97L 286 379.23L 304.99 387.6L 320.51 379.08L 333.63 384.86L 345 379.23L 363.99 357.84L 379.51 368.32L 392.63 369.65L 404 364.13L 422.99 363.86L 438.51 359.92L 451.63 354.58L 463 351L 481.99 350.33L 497.51 344.16L 510.63 339.29L 522 317.32L 540.99 326.73L 556.51 314.24L 569.63 316.5L 581 312.95L 599.99 292.07L 615.51 301.25L 628.63 295.79L 640 286.33L 658.99 277.36L 674.51 269.92L 687.63 265.31L 699 264.13L 717.99 255.89L 733.51 246.15L 746.63 242.33L 758 238.63L 776.99 230.04L 792.51 223.14L 805.63 217.26L 817 212.19L 835.99 203.58L 851.51 195.82L 864.63 190.39L 876 184.26L 894.99 173.11L 910.51 163.75L 923.63 156.2L 935 150.45L 953.99 140.3L 969.51 133.56L 982.63 127.39L 994 122.19L 1013 113.26L 1028.5 106.51L 1041.6 100.72L 1053 95.611L 1072 86.678L 1072 87.322L 1053 95.682L 1041.6 100.77L 1028.5 106.61L 1013 113.48L 994 122.27L 982.63 127.49L 969.51 133.59L 953.99 140.93L 935 150.46L 923.63 156.47L 910.51 163.81L 894.99 173.33L 876 185.83L 864.63 190.92L 851.51 196.81L 835.99 203.75L 817 212.23L 805.63 217.26L 792.51 223.17L 776.99 230.04L 758 238.65L 746.63 243.34L 733.51 248.15L 717.99 255.94L 699 265.05L 687.63 270.44L 674.51 275L 658.99 281.23L 640 291.01L 628.63 295.93L 615.51 301.44L 599.99 305.53L 581 315.54L 569.63 320.05L 556.51 324.24L 540.99 329.99L 522 337.46L 510.63 341.12L 497.51 346.62L 481.99 350.37L 463 355.49L 451.63 357.31L 438.51 359.92L 422.99 363.86L 404 370.76L 392.63 369.65L 379.51 368.32L 363.99 379.14L 345 379.23L 333.63 384.86L 320.51 379.08L 304.99 387.6L 286 379.23L 274.63 400.68L 261.51 394.9L 245.99 388.06L 227 379.68L 215.63 373.77L 202.51 368.89L 186.99 361.14L 168 353.67L 143.51 341.97L 109 327.66L 50 301.66" fill="#FF3B30" fill-opacity="0.30196078431372547" stroke="none"/>
    <path d="M 50 301.2L 109 285.84L 143.51 281.94L 168 275.08L 186.99 278.99L 202.51 280.09L 215.63 275.06L 227 276.25L 245.99 274.1L 261.51 269.26L 274.63 271.83L 286 270.63L 304.99 271.89L 320.51 268.93L 333.63 268.04L 345 269.59L 363.99 268L 379.51 264.69L 392.63 265.22L 404 263.96L 422.99 265.47L 438.51 260.48L 451.63 261.66L 463 260.47L 481.99 261.22L 497.51 260.02L 510.63 258.81L 522 257.81L 540.99 256.18L 556.51 258.26L 569.63 258.04L 581 254.8L 599.99 252.65L 615.51 254.97L 628.63 253.09L 640 253.15L 658.99 252.17L 674.51 251.81L 687.63 249.83L 699 250.67L 717.99 249.73L 733.51 248.06L 746.63 249.15L 758 248.06L 776.99 247.64L 792.51 247.49L 805.63 245.83L 817 246.28L 835.99 243.72L 851.51 243.29L 864.63 244.41L 876 242.79L 894.99 243.21L 910.51 240.63L 923.63 241.55L 935 241.75L 953.99 241.31L 969.51 240.6L 982.63 240.01L 994 239.51L 1013 238.16L 1028.5 237.72L 1041.6 237.35L 1053 237.01L 1072 237.09L 1087.5 236.8L 1100.6 235.63L 1112 234.82L 1131 234.67L 1146.5 234.11L 1159.6 234.11L 1171 233.2L 1190 232.95L 1205.5 232.38L 1218.6 231.83L 1230 231.28" fill="none" stroke-width="4" stroke="#007AFF" stroke-opacity="1" stroke-linecap="round" stroke-linejoin="round"/>
    <path d="M 50 301.2L 109 327.66L 143.51 341.97L 168 353.22L 186.99 361.14L 202.51 368.43L 215.63 373.77L 227 379.68L 245.99 388.06L 261.51 394.9L 274.63 400.23L 286 379.23L 304.99 387.6L 320.51 379.08L 333.63 384.86L 345 379.23L 363.99 372.31L 379.51 368.32L 392.63 369.65L 404 368.92L 422.99 363.86L 438.51 359.92L 451.63 356.58L 463 354.26L 481.99 350.36L 497.51 345.96L 510.63 340.63L 522 331.08L 540.99 329.11L 556.51 321.36L 569.63 319.09L 581 314.85L 599.99 301.52L 615.51 301.39L 628.63 295.89L 640 289.73L 658.99 280.18L 674.51 273.61L 687.63 269.03L 699 264.81L 717.99 255.92L 733.51 247.62L 746.63 243.07L 758 238.64L 776.99 230.04L 792.51 223.16L 805.63 217.26L 817 212.22L 835.99 203.7L 851.51 196.55L 864.63 190.78L 876 185.41L 894.99 173.28L 910.51 163.79L 923.63 156.4L 935 150.46L 953.99 140.77L 969.51 133.58L 982.63 127.47L 994 122.25L 1013 113.42L 1028.5 106.58L 1041.6 100.76L 1053 95.664L 1072 87.153" fill="none" stroke-width="4" stroke="#FF3B30" stroke-opacity="1" stroke-linecap="round" stroke-linejoin="round"/>
    <path d="M 50 301.2L 109 285.84L 143.51 281.94L 168 275.08L 186.99 278.99L 202.51 280.09L 215.63 275.06L 227 276.25L 245.99 274.1L 261.51 269.26L 274.63 271.83L 286 270.63L 304.99 271.89L 320.51 268.93L 333.63 268.04L 345 269.59L 363.99 268L 379.51 264.69L 392.63 265.22L 404 263.96L 422.99 265.47L 438.51 260.48L 451.63 261.66L 463 260.47L 481.99 261.22L 497.51 260.02L 510.63 258.81L 522 257.81L 540.99 256.18L 556.51 258.26L 569.63 258.04L 581 254.8L 599.99 252.65L 615.51 254.97L 628.63 253.09L 640 253.15L 658.99 252.17L 674.51 251.81L 687.63 249.83L 699 250.67L 717.99 249.73L 733.51 248.06L 746.63 249.15L 758 248.06L 776.99 247.64L 792.51 247.49L 805.63 245.83L 817 246.28L 835.99 243.72L 851.51 243.29L 864.63 244.41L 876 242.79L 894.99 243.21L 910.51 240.63L 923.63 241.55L 935 241.75L 953.99 241.31L 969.51 240.6L 982.63 240.01L 994 239.51L 1013 238.16L 1028.5 237.72L 1041.6 237.35L 1053 237.01L 1072 237.09L 1087.5 236.8L 1100.6 235.63L 1112 234.82L 1131 234.67L 1146.5 234.11L 1159.6 234.11L 1171 233.2L 1190 232.95L 1205.5 232.38L 1218.6 231.83L 1230 231.28" fill="none" stroke-width="0.5" stroke="#000000" stroke-opacity="0.30196" stroke-linecap="round" stroke-linejoin="round"/>
    <path d="M 50 301.2L 109 327.66L 143.51 341.97L 168 353.22L 186.99 361.14L 202.51 368.43L 215.63 373.77L 227 379.68L 245.99 388.06L 261.51 394.9L 274.63 400.23L 286 379.23L 304.99 387.6L 320.51 379.08L 333.63 384.86L 345 379.23L 363.99 372.31L 379.51 368.32L 392.63 369.65L 404 368.92L 422.99 363.86L 438.51 359.92L 451.63 356.58L 463 354.26L 481.99 350.36L 497.51 345.96L 510.63 340.63L 522 331.08L 540.99 329.11L 556.51 321.36L 569.63 319.09L 581 314.85L 599.99 301.52L 615.51 301.39L 628.63 295.89L 640 289.73L 658.99 280.18L 674.51 273.61L 687.63 269.03L 699 264.81L 717.99 255.92L 733.51 247.62L 746.63 243.07L 758 238.64L 776.99 230.04L 792.51 223.16L 805.63 217.26L 817 212.22L 835.99 203.7L 851.51 196.55L 864.63 190.78L 876 185.41L 894.99 173.28L 910.51 163.79L 923.63 156.4L 935 150.46L 953.99 140.77L 969.51 133.58L 982.63 127.47L 994 122.25L 1013 113.42L 1028.5 106.58L 1041.6 100.76L 1053 95.664L 1072 87.153" fill="none" stroke-width="0.5" stroke="#000000" stroke-opacity="0.30196" stroke-linecap="round" stroke-linejoin="round"/>
  </g>
  <path d="M 74 33 L 74 88 L 319 88 L 319 33 z" fill="#FFFFFF" fill-opacity="0.7019607843137254" stroke-width="0.5" stroke="#000000" stroke-opacity="1" stroke-linecap="round" stroke-linejoin="round"/>
  <path d="M 88 52 L 108 52" fill="none" stroke-width="4" stroke="#FF3B30" stroke-opacity="1" stroke-linecap="round" stroke-linejoin="round"/>
  <path d="M 88 52 L 108 52" fill="none" stroke-width="0.5" stroke="#000000" stroke-opacity="0.30196" stroke-linecap="round" stroke-linejoin="round"/>
  <text x="119" y="56.17" font-family="Menlo" font-size="12" font-weight="normal" font-style="normal" fill="#000000" fill-opacity="1">Array&lt;Int&gt; removeFirst</text>
  <path d="M 88 69 L 108 69" fill="none" stroke-width="4" stroke="#007AFF" stroke-opacity="1" stroke-linecap="round" stroke-linejoin="round"/>
  <path d="M 88 69 L 108 69" fill="none" stroke-width="0.5" stroke="#000000" stroke-opacity="0.30196" stroke-linecap="round" stroke-linejoin="round"/>
  <text x="119" y="73.17" font-family="Menlo" font-size="12" font-weight="normal" font-style="normal" fill="#000000" fill-opacity="1">TreeArray&lt;Int&gt; removeFirst</text>
  <path d="M 50 9 L 50 441 L 1230 441 L 1230 9 z" fill="none" stroke-width="0.5" stroke="#000000" stroke-opacity="1" stroke-linecap="round" stroke-linejoin="round"/>
</svg>
