<!DOCTYPE svg PUBLIC "-//W3C//DTD SVG 1.1//EN" "http://www.w3.org/Graphics/SVG/1.1/DTD/svg11.dtd">
<svg width="1280.0px" height="480.0px" viewBox="0.0 0.0 1280.0 480.0" xmlns="http://www.w3.org/2000/svg" xmlns:xlink="http://www.w3.org/1999/xlink" version="1.1">
  <path d="M 0 0 L 0 480 L 1280 480 L 1280 0 z" fill="#FFFFFF" fill-opacity="1.0" stroke="none"/>
  <text x="50" y="468.7" font-family="Helvetica" font-size="10" font-weight="normal" font-style="normal" fill="#000000" fill-opacity="1">Average per-element processing time over input size (bands: min, mean, mean + 2stddev)</text>
  <a xlink:href="https://github.com/apple/swift-collections-benchmark"><text x="1107" y="468.7" font-family="Helvetica" font-size="10" font-weight="normal" font-style="normal" fill="#000000" fill-opacity="1">swift-collections-benchmark</text></a>
  <path d="M 50 9 L 50 441" fill="none" stroke-width="0.75" stroke="#000000" stroke-opacity="0.49804" stroke-linecap="butt" stroke-linejoin="round"/>
  <text x="47" y="453.7" font-family="Helvetica" font-size="10" font-weight="normal" font-style="normal" fill="#000000" fill-opacity="1">1</text>
  <path d="M 109 9 L 109 441" fill="none" stroke-width="0.75" stroke="#000000" stroke-opacity="0.49804" stroke-linecap="butt" stroke-linejoin="round"/>
  <text x="106" y="453.7" font-family="Helvetica" font-size="10" font-weight="normal" font-style="normal" fill="#000000" fill-opacity="1">2</text>
  <path d="M 168 9 L 168 441" fill="none" stroke-width="0.75" stroke="#000000" stroke-opacity="0.49804" stroke-linecap="butt" stroke-linejoin="round"/>
  <text x="165" y="453.7" font-family="Helvetica" font-size="10" font-weight="normal" font-style="normal" fill="#000000" fill-opacity="1">4</text>
  <path d="M 227 9 L 227 441" fill="none" stroke-width="0.75" stroke="#000000" stroke-opacity="0.49804" stroke-linecap="butt" stroke-linejoin="round"/>
  <text x="224" y="453.7" font-family="Helvetica" font-size="10" font-weight="normal" font-style="normal" fill="#000000" fill-opacity="1">8</text>
  <path d="M 286 9 L 286 441" fill="none" stroke-width="0.75" stroke="#000000" stroke-opacity="0.49804" stroke-linecap="butt" stroke-linejoin="round"/>
  <text x="280" y="453.7" font-family="Helvetica" font-size="10" font-weight="normal" font-style="normal" fill="#000000" fill-opacity="1">16</text>
  <path d="M 345 9 L 345 441" fill="none" stroke-width="0.75" stroke="#000000" stroke-opacity="0.49804" stroke-linecap="butt" stroke-linejoin="round"/>
  <text x="339" y="453.7" font-family="Helvetica" font-size="10" font-weight="normal" font-style="normal" fill="#000000" fill-opacity="1">32</text>
  <path d="M 404 9 L 404 441" fill="none" stroke-width="0.75" stroke="#000000" stroke-opacity="0.49804" stroke-linecap="butt" stroke-linejoin="round"/>
  <text x="398" y="453.7" font-family="Helvetica" font-size="10" font-weight="normal" font-style="normal" fill="#000000" fill-opacity="1">64</text>
  <path d="M 463 9 L 463 441" fill="none" stroke-width="0.75" stroke="#000000" stroke-opacity="0.49804" stroke-linecap="butt" stroke-linejoin="round"/>
  <text x="454.5" y="453.7" font-family="Helvetica" font-size="10" font-weight="normal" font-style="normal" fill="#000000" fill-opacity="1">128</text>
  <path d="M 522 9 L 522 441" fill="none" stroke-width="0.75" stroke="#000000" stroke-opacity="0.49804" stroke-linecap="butt" stroke-linejoin="round"/>
  <text x="513.5" y="453.7" font-family="Helvetica" font-size="10" font-weight="normal" font-style="normal" fill="#000000" fill-opacity="1">256</text>
  <path d="M 581 9 L 581 441" fill="none" stroke-width="0.75" stroke="#000000" stroke-opacity="0.49804" stroke-linecap="butt" stroke-linejoin="round"/>
  <text x="572.5" y="453.7" font-family="Helvetica" font-size="10" font-weight="normal" font-style="normal" fill="#000000" fill-opacity="1">512</text>
  <path d="M 640 9 L 640 441" fill="none" stroke-width="0.75" stroke="#000000" stroke-opacity="0.49804" stroke-linecap="butt" stroke-linejoin="round"/>
  <text x="634.5" y="453.7" font-family="Helvetica" font-size="10" font-weight="normal" font-style="normal" fill="#000000" fill-opacity="1">1k</text>
  <path d="M 699 9 L 699 441" fill="none" stroke-width="0.75" stroke="#000000" stroke-opacity="0.49804" stroke-linecap="butt" stroke-linejoin="round"/>
  <text x="693.5" y="453.7" font-family="Helvetica" font-size="10" font-weight="normal" font-style="normal" fill="#000000" fill-opacity="1">2k</text>
  <path d="M 758 9 L 758 441" fill="none" stroke-width="0.75" stroke="#000000" stroke-opacity="0.49804" stroke-linecap="butt" stroke-linejoin="round"/>
  <text x="752.5" y="453.7" font-family="Helvetica" font-size="10" font-weight="normal" font-style="normal" fill="#000000" fill-opacity="1">4k</text>
  <path d="M 817 9 L 817 441" fill="none" stroke-width="0.75" stroke="#000000" stroke-opacity="0.49804" stroke-linecap="butt" stroke-linejoin="round"/>
  <text x="811.5" y="453.7" font-family="Helvetica" font-size="10" font-weight="normal" font-style="normal" fill="#000000" fill-opacity="1">8k</text>
  <path d="M 876 9 L 876 441" fill="none" stroke-width="0.75" stroke="#000000" stroke-opacity="0.49804" stroke-linecap="butt" stroke-linejoin="round"/>
  <text x="867.5" y="453.7" font-family="Helvetica" font-size="10" font-weight="normal" font-style="normal" fill="#000000" fill-opacity="1">16k</text>
  <path d="M 935 9 L 935 441" fill="none" stroke-width="0.75" stroke="#000000" stroke-opacity="0.49804" stroke-linecap="butt" stroke-linejoin="round"/>
  <text x="926.5" y="453.7" font-family="Helvetica" font-size="10" font-weight="normal" font-style="normal" fill="#000000" fill-opacity="1">32k</text>
  <path d="M 994 9 L 994 441" fill="none" stroke-width="0.75" stroke="#000000" stroke-opacity="0.49804" stroke-linecap="butt" stroke-linejoin="round"/>
  <text x="985.5" y="453.7" font-family="Helvetica" font-size="10" font-weight="normal" font-style="normal" fill="#000000" fill-opacity="1">64k</text>
  <path d="M 1053 9 L 1053 441" fill="none" stroke-width="0.75" stroke="#000000" stroke-opacity="0.49804" stroke-linecap="butt" stroke-linejoin="round"/>
  <text x="1042" y="453.7" font-family="Helvetica" font-size="10" font-weight="normal" font-style="normal" fill="#000000" fill-opacity="1">128k</text>
  <path d="M 1112 9 L 1112 441" fill="none" stroke-width="0.75" stroke="#000000" stroke-opacity="0.49804" stroke-linecap="butt" stroke-linejoin="round"/>
  <text x="1101" y="453.7" font-family="Helvetica" font-size="10" font-weight="normal" font-style="normal" fill="#000000" fill-opacity="1">256k</text>
  <path d="M 1171 9 L 1171 441" fill="none" stroke-width="0.75" stroke="#000000" stroke-opacity="0.49804" stroke-linecap="butt" stroke-linejoin="round"/>
  <text x="1160" y="453.7" font-family="Helvetica" font-size="10" font-weight="normal" font-style="normal" fill="#000000" fill-opacity="1">512k</text>
  <path d="M 1230 9 L 1230 441" fill="none" stroke-width="0.75" stroke="#000000" stroke-opacity="0.49804" stroke-linecap="butt" stroke-linejoin="round"/>
  <text x="1223" y="453.7" font-family="Helvetica" font-size="10" font-weight="normal" font-style="normal" fill="#000000" fill-opacity="1">1M</text>
  <path d="M 50 441 L 1230 441" fill="none" stroke-width="0.75" stroke="#000000" stroke-opacity="0.49804" stroke-linecap="butt" stroke-linejoin="round"/>
  <text x="27" y="442.7" font-family="Helvetica" font-size="10" font-weight="normal" font-style="normal" fill="#000000" fill-opacity="1">1 ns</text>
  <text x="1236" y="442.7" font-family="Helvetica" font-size="10" font-weight="normal" font-style="normal" fill="#000000" fill-opacity="1">1 ns</text>
  <path d="M 50 354.6 L 1230 354.6" fill="none" stroke-width="0.75" stroke="#000000" stroke-opacity="0.49804" stroke-linecap="butt" stroke-linejoin="round"/>
  <text x="21" y="356.3" font-family="Helvetica" font-size="10" font-weight="normal" font-style="normal" fill="#000000" fill-opacity="1">10 ns</text>
  <text x="1236" y="356.3" font-family="Helvetica" font-size="10" font-weight="normal" font-style="normal" fill="#000000" fill-opacity="1">10 ns</text>
  <path d="M 50 268.2 L 1230 268.2" fill="none" stroke-width="0.75" stroke="#000000" stroke-opacity="0.49804" stroke-linecap="butt" stroke-linejoin="round"/>
  <text x="16" y="269.9" font-family="Helvetica" font-size="10" font-weight="normal" font-style="normal" fill="#000000" fill-opacity="1">100 ns</text>
  <text x="1236" y="269.9" font-family="Helvetica" font-size="10" font-weight="normal" font-style="normal" fill="#000000" fill-opacity="1">100 ns</text>
  <path d="M 50 181.8 L 1230 181.8" fill="none" stroke-width="0.75" stroke="#000000" stroke-opacity="0.49804" stroke-linecap="butt" stroke-linejoin="round"/>
  <text x="26" y="183.5" font-family="Helvetica" font-size="10" font-weight="normal" font-style="normal" fill="#000000" fill-opacity="1">1 µs</text>
  <text x="1236" y="183.5" font-family="Helvetica" font-size="10" font-weight="normal" font-style="normal" fill="#000000" fill-opacity="1">1 µs</text>
  <path d="M 50 95.4 L 1230 95.4" fill="none" stroke-width="0.75" stroke="#000000" stroke-opacity="0.49804" stroke-linecap="butt" stroke-linejoin="round"/>
  <text x="21" y="97.1" font-family="Helvetica" font-size="10" font-weight="normal" font-style="normal" fill="#000000" fill-opacity="1">10 µs</text>
  <text x="1236" y="97.1" font-family="Helvetica" font-size="10" font-weight="normal" font-style="normal" fill="#000000" fill-opacity="1">10 µs</text>
  <path d="M 50 9 L 1230 9" fill="none" stroke-width="0.75" stroke="#000000" stroke-opacity="0.49804" stroke-linecap="butt" stroke-linejoin="round"/>
  <text x="15" y="10.7" font-family="Helvetica" font-size="10" font-weight="normal" font-style="normal" fill="#000000" fill-opacity="1">100 µs</text>
  <text x="1236" y="10.7" font-family="Helvetica" font-size="10" font-weight="normal" font-style="normal" fill="#000000" fill-opacity="1">100 µs</text>
  <path d="M 50 414.99 L 1230 414.99" fill="none" stroke-width="0.5" stroke="#000000" stroke-opacity="0.25882" stroke-linecap="butt" stroke-linejoin="round" stroke-dasharray="6 3" stroke-dashoffset="0"/>
  <path d="M 50 388.98 L 1230 388.98" fill="none" stroke-width="0.5" stroke="#000000" stroke-opacity="0.25882" stroke-linecap="butt" stroke-linejoin="round" stroke-dasharray="6 3" stroke-dashoffset="0"/>
  <path d="M 50 362.97 L 1230 362.97" fill="none" stroke-width="0.5" stroke="#000000" stroke-opacity="0.25882" stroke-linecap="butt" stroke-linejoin="round" stroke-dasharray="6 3" stroke-dashoffset="0"/>
  <path d="M 50 336.96 L 1230 336.96" fill="none" stroke-width="0.5" stroke="#000000" stroke-opacity="0.25882" stroke-linecap="butt" stroke-linejoin="round" stroke-dasharray="6 3" stroke-dashoffset="0"/>
  <path d="M 50 310.96 L 1230 310.96" fill="none" stroke-width="0.5" stroke="#000000" stroke-opacity="0.25882" stroke-linecap="butt" stroke-linejoin="round" stroke-dasharray="6 3" stroke-dashoffset="0"/>
  <path d="M 50 284.95 L 1230 284.95" fill="none" stroke-width="0.5" stroke="#000000" stroke-opacity="0.25882" stroke-linecap="butt" stroke-linejoin="round" stroke-dasharray="6 3" stroke-dashoffset="0"/>
  <path d="M 50 258.94 L 1230 258.94" fill="none" stroke-width="0.5" stroke="#000000" stroke-opacity="0.25882" stroke-linecap="butt" stroke-linejoin="round" stroke-dasharray="6 3" stroke-dashoffset="0"/>
  <path d="M 50 232.93 L 1230 232.93" fill="none" stroke-width="0.5" stroke="#000000" stroke-opacity="0.25882" stroke-linecap="butt" stroke-linejoin="round" stroke-dasharray="6 3" stroke-dashoffset="0"/>
  <path d="M 50 206.92 L 1230 206.92" fill="none" stroke-width="0.5" stroke="#000000" stroke-opacity="0.25882" stroke-linecap="butt" stroke-linejoin="round" stroke-dasharray="6 3" stroke-dashoffset="0"/>
  <path d="M 50 180.91 L 1230 180.91" fill="none" stroke-width="0.5" stroke="#000000" stroke-opacity="0.25882" stroke-linecap="butt" stroke-linejoin="round" stroke-dasharray="6 3" stroke-dashoffset="0"/>
  <path d="M 50 154.9 L 1230 154.9" fill="none" stroke-width="0.5" stroke="#000000" stroke-opacity="0.25882" stroke-linecap="butt" stroke-linejoin="round" stroke-dasharray="6 3" stroke-dashoffset="0"/>
  <path d="M 50 128.89 L 1230 128.89" fill="none" stroke-width="0.5" stroke="#000000" stroke-opacity="0.25882" stroke-linecap="butt" stroke-linejoin="round" stroke-dasharray="6 3" stroke-dashoffset="0"/>
  <path d="M 50 102.88 L 1230 102.88" fill="none" stroke-width="0.5" stroke="#000000" stroke-opacity="0.25882" stroke-linecap="butt" stroke-linejoin="round" stroke-dasharray="6 3" stroke-dashoffset="0"/>
  <path d="M 50 76.874 L 1230 76.874" fill="none" stroke-width="0.5" stroke="#000000" stroke-opacity="0.25882" stroke-linecap="butt" stroke-linejoin="round" stroke-dasharray="6 3" stroke-dashoffset="0"/>
  <path d="M 50 50.865 L 1230 50.865" fill="none" stroke-width="0.5" stroke="#000000" stroke-opacity="0.25882" stroke-linecap="butt" stroke-linejoin="round" stroke-dasharray="6 3" stroke-dashoffset="0"/>
  <path d="M 50 24.856 L 1230 24.856" fill="none" stroke-width="0.5" stroke="#000000" stroke-opacity="0.25882" stroke-linecap="butt" stroke-linejoin="round" stroke-dasharray="6 3" stroke-dashoffset="0"/>
  <path d="M 74 33 L 74 88 L 319 88 L 319 33 z" fill="#FFFFFF" fill-opacity="1.0" stroke="none"/>
  <clipPath id="clip-0">
    <path d="M 50 9 L 50 441 L 1230 441 L 1230 9 z"/>
  </clipPath>
  <g clip-path="url(#clip-0)">
    <path d="M 50 299.94L 109 276L 143.51 275.73L 168 271.08L 186.99 275.42L 202.51 272.58L 215.63 275.06L 227 273.02L 245.99 267.04L 261.51 270.89L 274.63 272.59L 286 266.88L 304.99 269.13L 320.51 264.48L 333.63 269.49L 345 265.87L 363.99 267.08L 379.51 262.99L 392.63 261.99L 404 260.91L 422.99 261.38L 438.51 258.49L 451.63 262.91L 463 259.54L 481.99 258.32L 497.51 261.09L 510.63 258.41L 522 255.47L 540.99 252.98L 556.51 252.54L 569.63 253L 581 255.67L 599.99 251.64L 615.51 252.06L 628.63 249.85L 640 254.47L 658.99 251.42L 674.51 249.84L 687.63 247.38L 699 249.1L 717.99 246.24L 733.51 248.76L 746.63 248.44L 758 245.63L 776.99 246.13L 792.51 244.4L 805.63 240.41L 817 244.08L 835.99 241.41L 851.51 243.4L 864.63 244.73L 876 241.18L 894.99 240.77L 910.51 241.49L 923.63 239.4L 935 240.53L 953.99 235.25L 969.51 236.85L 982.63 240.66L 994 238.37L 1013 237.45L 1028.5 236.36L 1041.6 235.85L 1053 236.09L 1072 235.82L 1087.5 233.82L 1100.6 232.57L 1112 233.19L 1131 233.87L 1146.5 232.38L 1159.6 231.33L 1171 232.94L 1190 231.15L 1205.5 231.23L 1218.6 230.03L 1230 228.22L 1230 230.89L 1218.6 233L 1205.5 232.64L 1190 234.02L 1171 233.3L 1159.6 234.19L 1146.5 233.47L 1131 234.64L 1112 235.8L 1100.6 236.29L 1087.5 235.4L 1072 236.97L 1053 236.97L 1041.6 238.61L 1028.5 238.18L 1013 237.76L 994 239.83L 982.63 241.42L 969.51 240.67L 953.99 240L 935 241.12L 923.63 240.2L 910.51 242.52L 894.99 242.56L 876 242.71L 864.63 245.03L 851.51 245.43L 835.99 242.9L 817 245.22L 805.63 246.56L 792.51 246.26L 776.99 247.47L 758 247.07L 746.63 249.18L 733.51 248.79L 717.99 251.58L 699 250L 687.63 254.33L 674.51 252.59L 658.99 252.48L 640 255.2L 628.63 253.26L 615.51 254.25L 599.99 254.19L 581 257.6L 569.63 258.56L 556.51 257.71L 540.99 259.05L 522 257.97L 510.63 258.73L 497.51 261.22L 481.99 262.42L 463 264.28L 451.63 264.33L 438.51 263.09L 422.99 263.96L 404 268.1L 392.63 264.33L 379.51 267.62L 363.99 267.82L 345 268.6L 333.63 270.62L 320.51 270.62L 304.99 272.32L 286 272.78L 274.63 275.03L 261.51 276.65L 245.99 276.95L 227 277.46L 215.63 275.06L 202.51 285.84L 186.99 283.34L 168 280.01L 143.51 290.18L 109 300.75L 50 301.66" fill="#007AFF" fill-opacity="0.30196078431372547" stroke="none"/>
    <path d="M 50 299.94L 109 327.66L 143.51 341.97L 168 351.96L 186.99 361.14L 202.51 367.18L 215.63 373.77L 227 379.68L 245.99 388.06L 261.51 394.9L 274.63 398.97L 286 379.23L 304.99 387.6L 320.51 379.08L 333.63 384.86L 345 379.23L 363.99 357.84L 379.51 368.32L 392.63 369.65L 404 364.13L 422.99 363.86L 438.51 359.92L 451.63 354.58L 463 351L 481.99 350.33L 497.51 344.16L 510.63 339.29L 522 317.32L 540.99 326.73L 556.51 314.24L 569.63 316.5L 581 312.95L 599.99 292.07L 615.51 301.25L 628.63 295.79L 640 286.33L 658.99 277.36L 674.51 269.92L 687.63 265.31L 699 264.13L 717.99 255.89L 733.51 246.15L 746.63 242.33L 758 238.63L 776.99 230.04L 792.51 223.14L 805.63 217.26L 817 212.19L 835.99 203.58L 851.51 195.82L 864.63 190.39L 876 184.26L 894.99 173.11L 910.51 163.75L 923.63 156.2L 935 150.45L 953.99 140.3L 969.51 133.56L 982.63 127.39L 994 122.19L 1013 113.26L 1028.5 106.51L 1041.6 100.72L 1053 95.611L 1072 86.678L 1072 87.322L 1053 95.682L 1041.6 100.77L 1028.5 106.61L 1013 113.48L 994 122.27L 982.63 127.49L 969.51 133.59L 953.99 140.93L 935 150.46L 923.63 156.47L 910.51 163.81L 894.99 173.33L 876 185.83L 864.63 190.92L 851.51 196.81L 835.99 203.75L 817 212.23L 805.63 217.26L 792.51 223.17L 776.99 230.04L 758 238.65L 746.63 243.34L 733.51 248.15L 717.99 255.94L 699 265.05L 687.63 270.44L 674.51 275L 658.99 281.23L 640 291.01L 628.63 295.93L 615.51 301.44L 599.99 305.53L 581 315.54L 569.63 320.05L 556.51 324.24L 540.99 329.99L 522 337.46L 510.63 341.12L 497.51 346.62L 481.99 350.37L 463 355.49L 451.63 357.31L 438.51 359.92L 422.99 363.86L 404 370.76L 392.63 369.65L 379.51 368.32L 363.99 379.14L 345 379.23L 333.63 384.86L 320.51 379.08L 304.99 387.6L 286 379.23L 274.63 400.68L 261.51 394.9L 245.99 388.06L 227 379.68L 215.63 373.77L 202.51 368.89L 186.99 361.14L 168 353.67L 143.51 341.97L 109 327.66L 50 301.66" fill="#FF3B30" fill-opacity="0.30196078431372547" stroke="none"/>
    <path d="M 50 301.2L 109 292.56L 143.51 285.84L 168 277.46L 186.99 281.1L 202.51 281.9L 215.63 275.06L 227 276.25L 245.99 274.1L 261.51 275.06L 274.63 274.38L 286 271.15L 304.99 271.46L 320.51 268.92L 333.63 270.32L 345 267.87L 363.99 267.62L 379.51 266.35L 392.63 263.71L 404 266.09L 422.99 263.26L 438.51 261.83L 451.63 263.95L 463 262.99L 481.99 261.3L 497.51 261.19L 510.63 258.65L 522 257.3L 540.99 257.37L 556.51 256.29L 569.63 257.03L 581 257.08L 599.99 253.51L 615.51 253.67L 628.63 252.34L 640 255.01L 658.99 252.2L 674.51 251.85L 687.63 252.39L 699 249.77L 717.99 250.11L 733.51 248.78L 746.63 248.99L 758 246.69L 776.99 247.12L 792.51 245.77L 805.63 244.85L 817 244.92L 835.99 242.51L 851.51 244.89L 864.63 244.95L 876 242.31L 894.99 242.08L 910.51 242.25L 923.63 239.99L 935 240.97L 953.99 238.7L 969.51 239.63L 982.63 241.22L 994 239.45L 1013 237.68L 1028.5 237.7L 1041.6 237.87L 1053 236.73L 1072 236.67L 1087.5 234.98L 1100.6 235.28L 1112 235.1L 1131 234.44L 1146.5 233.18L 1159.6 233.42L 1171 233.21L 1190 233.25L 1205.5 232.26L 1218.6 232.2L 1230 230.18" fill="none" stroke-width="4" stroke="#007AFF" stroke-opacity="1" stroke-linecap="round" stroke-linejoin="round"/>
    <path d="M 50 301.2L 109 327.66L 143.51 341.97L 168 353.22L 186.99 361.14L 202.51 368.43L 215.63 373.77L 227 379.68L 245.99 388.06L 261.51 394.9L 274.63 400.23L 286 379.23L 304.99 387.6L 320.51 379.08L 333.63 384.86L 345 379.23L 363.99 372.31L 379.51 368.32L 392.63 369.65L 404 368.92L 422.99 363.86L 438.51 359.92L 451.63 356.58L 463 354.26L 481.99 350.36L 497.51 345.96L 510.63 340.63L 522 331.08L 540.99 329.11L 556.51 321.36L 569.63 319.09L 581 314.85L 599.99 301.52L 615.51 301.39L 628.63 295.89L 640 289.73L 658.99 280.18L 674.51 273.61L 687.63 269.03L 699 264.81L 717.99 255.92L 733.51 247.62L 746.63 243.07L 758 238.64L 776.99 230.04L 792.51 223.16L 805.63 217.26L 817 212.22L 835.99 203.7L 851.51 196.55L 864.63 190.78L 876 185.41L 894.99 173.28L 910.51 163.79L 923.63 156.4L 935 150.46L 953.99 140.77L 969.51 133.58L 982.63 127.47L 994 122.25L 1013 113.42L 1028.5 106.58L 1041.6 100.76L 1053 95.664L 1072 87.153" fill="none" stroke-width="4" stroke="#FF3B30" stroke-opacity="1" stroke-linecap="round" stroke-linejoin="round"/>
    <path d="M 50 301.2L 109 292.56L 143.51 285.84L 168 277.46L 186.99 281.1L 202.51 281.9L 215.63 275.06L 227 276.25L 245.99 274.1L 261.51 275.06L 274.63 274.38L 286 271.15L 304.99 271.46L 320.51 268.92L 333.63 270.32L 345 267.87L 363.99 267.62L 379.51 266.35L 392.63 263.71L 404 266.09L 422.99 263.26L 438.51 261.83L 451.63 263.95L 463 262.99L 481.99 261.3L 497.51 261.19L 510.63 258.65L 522 257.3L 540.99 257.37L 556.51 256.29L 569.63 257.03L 581 257.08L 599.99 253.51L 615.51 253.67L 628.63 252.34L 640 255.01L 658.99 252.2L 674.51 251.85L 687.63 252.39L 699 249.77L 717.99 250.11L 733.51 248.78L 746.63 248.99L 758 246.69L 776.99 247.12L 792.51 245.77L 805.63 244.85L 817 244.92L 835.99 242.51L 851.51 244.89L 864.63 244.95L 876 242.31L 894.99 242.08L 910.51 242.25L 923.63 239.99L 935 240.97L 953.99 238.7L 969.51 239.63L 982.63 241.22L 994 239.45L 1013 237.68L 1028.5 237.7L 1041.6 237.87L 1053 236.73L 1072 236.67L 1087.5 234.98L 1100.6 235.28L 1112 235.1L 1131 234.44L 1146.5 233.18L 1159.6 233.42L 1171 233.21L 1190 233.25L 1205.5 232.26L 1218.6 232.2L 1230 230.18" fill="none" stroke-width="0.5" stroke="#000000" stroke-opacity="0.30196" stroke-linecap="round" stroke-linejoin="round"/>
    <path d="M 50 301.2L 109 327.66L 143.51 341.97L 168 353.22L 186.99 361.14L 202.51 368.43L 215.63 373.77L 227 379.68L 245.99 388.06L 261.51 394.9L 274.63 400.23L 286 379.23L 304.99 387.6L 320.51 379.08L 333.63 384.86L 345 379.23L 363.99 372.31L 379.51 368.32L 392.63 369.65L 404 368.92L 422.99 363.86L 438.51 359.92L 451.63 356.58L 463 354.26L 481.99 350.36L 497.51 345.96L 510.63 340.63L 522 331.08L 540.99 329.11L 556.51 321.36L 569.63 319.09L 581 314.85L 599.99 301.52L 615.51 301.39L 628.63 295.89L 640 289.73L 658.99 280.18L 674.51 273.61L 687.63 269.03L 699 264.81L 717.99 255.92L 733.51 247.62L 746.63 243.07L 758 238.64L 776.99 230.04L 792.51 223.16L 805.63 217.26L 817 212.22L 835.99 203.7L 851.51 196.55L 864.63 190.78L 876 185.41L 894.99 173.28L 910.51 163.79L 923.63 156.4L 935 150.46L 953.99 140.77L 969.51 133.58L 982.63 127.47L 994 122.25L 1013 113.42L 1028.5 106.58L 1041.6 100.76L 1053 95.664L 1072 87.153" fill="none" stroke-width="0.5" stroke="#000000" stroke-opacity="0.30196" stroke-linecap="round" stroke-linejoin="round"/>
  </g>
  <path d="M 74 33 L 74 88 L 319 88 L 319 33 z" fill="#FFFFFF" fill-opacity="0.7019607843137254" stroke-width="0.5" stroke="#000000" stroke-opacity="1" stroke-linecap="round" stroke-linejoin="round"/>
  <path d="M 88 52 L 108 52" fill="none" stroke-width="4" stroke="#FF3B30" stroke-opacity="1" stroke-linecap="round" stroke-linejoin="round"/>
  <path d="M 88 52 L 108 52" fill="none" stroke-width="0.5" stroke="#000000" stroke-opacity="0.30196" stroke-linecap="round" stroke-linejoin="round"/>
  <text x="119" y="56.17" font-family="Menlo" font-size="12" font-weight="normal" font-style="normal" fill="#000000" fill-opacity="1">Array&lt;Int&gt; removeFirst</text>
  <path d="M 88 69 L 108 69" fill="none" stroke-width="4" stroke="#007AFF" stroke-opacity="1" stroke-linecap="round" stroke-linejoin="round"/>
  <path d="M 88 69 L 108 69" fill="none" stroke-width="0.5" stroke="#000000" stroke-opacity="0.30196" stroke-linecap="round" stroke-linejoin="round"/>
  <text x="119" y="73.17" font-family="Menlo" font-size="12" font-weight="normal" font-style="normal" fill="#000000" fill-opacity="1">TreeArray&lt;Int&gt; removeFirst</text>
  <path d="M 50 9 L 50 441 L 1230 441 L 1230 9 z" fill="none" stroke-width="0.5" stroke="#000000" stroke-opacity="1" stroke-linecap="round" stroke-linejoin="round"/>
</svg>
