<!DOCTYPE svg PUBLIC "-//W3C//DTD SVG 1.1//EN" "http://www.w3.org/Graphics/SVG/1.1/DTD/svg11.dtd">
<svg width="1280.0px" height="480.0px" viewBox="0.0 0.0 1280.0 480.0" xmlns="http://www.w3.org/2000/svg" xmlns:xlink="http://www.w3.org/1999/xlink" version="1.1">
  <path d="M 0 0 L 0 480 L 1280 480 L 1280 0 z" fill="#FFFFFF" fill-opacity="1.0" stroke="none"/>
  <text x="50" y="468.7" font-family="Helvetica" font-size="10" font-weight="normal" font-style="normal" fill="#000000" fill-opacity="1">Average per-element processing time over input size (bands: min, mean, mean + 2stddev)</text>
  <a xlink:href="https://github.com/apple/swift-collections-benchmark"><text x="1107" y="468.7" font-family="Helvetica" font-size="10" font-weight="normal" font-style="normal" fill="#000000" fill-opacity="1">swift-collections-benchmark</text></a>
  <path d="M 50 9 L 50 441" fill="none" stroke-width="0.75" stroke="#000000" stroke-opacity="0.49804" stroke-linecap="butt" stroke-linejoin="round"/>
  <text x="47" y="453.7" font-family="Helvetica" font-size="10" font-weight="normal" font-style="normal" fill="#000000" fill-opacity="1">1</text>
  <path d="M 115.56 9 L 115.56 441" fill="none" stroke-width="0.75" stroke="#000000" stroke-opacity="0.49804" stroke-linecap="butt" stroke-linejoin="round"/>
  <text x="112.56" y="453.7" font-family="Helvetica" font-size="10" font-weight="normal" font-style="normal" fill="#000000" fill-opacity="1">2</text>
  <path d="M 181.11 9 L 181.11 441" fill="none" stroke-width="0.75" stroke="#000000" stroke-opacity="0.49804" stroke-linecap="butt" stroke-linejoin="round"/>
  <text x="178.11" y="453.7" font-family="Helvetica" font-size="10" font-weight="normal" font-style="normal" fill="#000000" fill-opacity="1">4</text>
  <path d="M 246.67 9 L 246.67 441" fill="none" stroke-width="0.75" stroke="#000000" stroke-opacity="0.49804" stroke-linecap="butt" stroke-linejoin="round"/>
  <text x="243.67" y="453.7" font-family="Helvetica" font-size="10" font-weight="normal" font-style="normal" fill="#000000" fill-opacity="1">8</text>
  <path d="M 312.22 9 L 312.22 441" fill="none" stroke-width="0.75" stroke="#000000" stroke-opacity="0.49804" stroke-linecap="butt" stroke-linejoin="round"/>
  <text x="306.22" y="453.7" font-family="Helvetica" font-size="10" font-weight="normal" font-style="normal" fill="#000000" fill-opacity="1">16</text>
  <path d="M 377.78 9 L 377.78 441" fill="none" stroke-width="0.75" stroke="#000000" stroke-opacity="0.49804" stroke-linecap="butt" stroke-linejoin="round"/>
  <text x="371.78" y="453.7" font-family="Helvetica" font-size="10" font-weight="normal" font-style="normal" fill="#000000" fill-opacity="1">32</text>
  <path d="M 443.33 9 L 443.33 441" fill="none" stroke-width="0.75" stroke="#000000" stroke-opacity="0.49804" stroke-linecap="butt" stroke-linejoin="round"/>
  <text x="437.33" y="453.7" font-family="Helvetica" font-size="10" font-weight="normal" font-style="normal" fill="#000000" fill-opacity="1">64</text>
  <path d="M 508.89 9 L 508.89 441" fill="none" stroke-width="0.75" stroke="#000000" stroke-opacity="0.49804" stroke-linecap="butt" stroke-linejoin="round"/>
  <text x="500.39" y="453.7" font-family="Helvetica" font-size="10" font-weight="normal" font-style="normal" fill="#000000" fill-opacity="1">128</text>
  <path d="M 574.44 9 L 574.44 441" fill="none" stroke-width="0.75" stroke="#000000" stroke-opacity="0.49804" stroke-linecap="butt" stroke-linejoin="round"/>
  <text x="565.94" y="453.7" font-family="Helvetica" font-size="10" font-weight="normal" font-style="normal" fill="#000000" fill-opacity="1">256</text>
  <path d="M 640 9 L 640 441" fill="none" stroke-width="0.75" stroke="#000000" stroke-opacity="0.49804" stroke-linecap="butt" stroke-linejoin="round"/>
  <text x="631.5" y="453.7" font-family="Helvetica" font-size="10" font-weight="normal" font-style="normal" fill="#000000" fill-opacity="1">512</text>
  <path d="M 705.56 9 L 705.56 441" fill="none" stroke-width="0.75" stroke="#000000" stroke-opacity="0.49804" stroke-linecap="butt" stroke-linejoin="round"/>
  <text x="700.06" y="453.7" font-family="Helvetica" font-size="10" font-weight="normal" font-style="normal" fill="#000000" fill-opacity="1">1k</text>
  <path d="M 771.11 9 L 771.11 441" fill="none" stroke-width="0.75" stroke="#000000" stroke-opacity="0.49804" stroke-linecap="butt" stroke-linejoin="round"/>
  <text x="765.61" y="453.7" font-family="Helvetica" font-size="10" font-weight="normal" font-style="normal" fill="#000000" fill-opacity="1">2k</text>
  <path d="M 836.67 9 L 836.67 441" fill="none" stroke-width="0.75" stroke="#000000" stroke-opacity="0.49804" stroke-linecap="butt" stroke-linejoin="round"/>
  <text x="831.17" y="453.7" font-family="Helvetica" font-size="10" font-weight="normal" font-style="normal" fill="#000000" fill-opacity="1">4k</text>
  <path d="M 902.22 9 L 902.22 441" fill="none" stroke-width="0.75" stroke="#000000" stroke-opacity="0.49804" stroke-linecap="butt" stroke-linejoin="round"/>
  <text x="896.72" y="453.7" font-family="Helvetica" font-size="10" font-weight="normal" font-style="normal" fill="#000000" fill-opacity="1">8k</text>
  <path d="M 967.78 9 L 967.78 441" fill="none" stroke-width="0.75" stroke="#000000" stroke-opacity="0.49804" stroke-linecap="butt" stroke-linejoin="round"/>
  <text x="959.28" y="453.7" font-family="Helvetica" font-size="10" font-weight="normal" font-style="normal" fill="#000000" fill-opacity="1">16k</text>
  <path d="M 1033.3 9 L 1033.3 441" fill="none" stroke-width="0.75" stroke="#000000" stroke-opacity="0.49804" stroke-linecap="butt" stroke-linejoin="round"/>
  <text x="1024.8" y="453.7" font-family="Helvetica" font-size="10" font-weight="normal" font-style="normal" fill="#000000" fill-opacity="1">32k</text>
  <path d="M 1098.9 9 L 1098.9 441" fill="none" stroke-width="0.75" stroke="#000000" stroke-opacity="0.49804" stroke-linecap="butt" stroke-linejoin="round"/>
  <text x="1090.4" y="453.7" font-family="Helvetica" font-size="10" font-weight="normal" font-style="normal" fill="#000000" fill-opacity="1">64k</text>
  <path d="M 1164.4 9 L 1164.4 441" fill="none" stroke-width="0.75" stroke="#000000" stroke-opacity="0.49804" stroke-linecap="butt" stroke-linejoin="round"/>
  <text x="1153.4" y="453.7" font-family="Helvetica" font-size="10" font-weight="normal" font-style="normal" fill="#000000" fill-opacity="1">128k</text>
  <path d="M 1230 9 L 1230 441" fill="none" stroke-width="0.75" stroke="#000000" stroke-opacity="0.49804" stroke-linecap="butt" stroke-linejoin="round"/>
  <text x="1219" y="453.7" font-family="Helvetica" font-size="10" font-weight="normal" font-style="normal" fill="#000000" fill-opacity="1">256k</text>
  <path d="M 50 441 L 1230 441" fill="none" stroke-width="0.75" stroke="#000000" stroke-opacity="0.49804" stroke-linecap="butt" stroke-linejoin="round"/>
  <text x="27" y="442.7" font-family="Helvetica" font-size="10" font-weight="normal" font-style="normal" fill="#000000" fill-opacity="1">1 ns</text>
  <text x="1236" y="442.7" font-family="Helvetica" font-size="10" font-weight="normal" font-style="normal" fill="#000000" fill-opacity="1">1 ns</text>
  <path d="M 50 354.6 L 1230 354.6" fill="none" stroke-width="0.75" stroke="#000000" stroke-opacity="0.49804" stroke-linecap="butt" stroke-linejoin="round"/>
  <text x="21" y="356.3" font-family="Helvetica" font-size="10" font-weight="normal" font-style="normal" fill="#000000" fill-opacity="1">10 ns</text>
  <text x="1236" y="356.3" font-family="Helvetica" font-size="10" font-weight="normal" font-style="normal" fill="#000000" fill-opacity="1">10 ns</text>
  <path d="M 50 268.2 L 1230 268.2" fill="none" stroke-width="0.75" stroke="#000000" stroke-opacity="0.49804" stroke-linecap="butt" stroke-linejoin="round"/>
  <text x="16" y="269.9" font-family="Helvetica" font-size="10" font-weight="normal" font-style="normal" fill="#000000" fill-opacity="1">100 ns</text>
  <text x="1236" y="269.9" font-family="Helvetica" font-size="10" font-weight="normal" font-style="normal" fill="#000000" fill-opacity="1">100 ns</text>
  <path d="M 50 181.8 L 1230 181.8" fill="none" stroke-width="0.75" stroke="#000000" stroke-opacity="0.49804" stroke-linecap="butt" stroke-linejoin="round"/>
  <text x="26" y="183.5" font-family="Helvetica" font-size="10" font-weight="normal" font-style="normal" fill="#000000" fill-opacity="1">1 µs</text>
  <text x="1236" y="183.5" font-family="Helvetica" font-size="10" font-weight="normal" font-style="normal" fill="#000000" fill-opacity="1">1 µs</text>
  <path d="M 50 95.4 L 1230 95.4" fill="none" stroke-width="0.75" stroke="#000000" stroke-opacity="0.49804" stroke-linecap="butt" stroke-linejoin="round"/>
  <text x="21" y="97.1" font-family="Helvetica" font-size="10" font-weight="normal" font-style="normal" fill="#000000" fill-opacity="1">10 µs</text>
  <text x="1236" y="97.1" font-family="Helvetica" font-size="10" font-weight="normal" font-style="normal" fill="#000000" fill-opacity="1">10 µs</text>
  <path d="M 50 9 L 1230 9" fill="none" stroke-width="0.75" stroke="#000000" stroke-opacity="0.49804" stroke-linecap="butt" stroke-linejoin="round"/>
  <text x="15" y="10.7" font-family="Helvetica" font-size="10" font-weight="normal" font-style="normal" fill="#000000" fill-opacity="1">100 µs</text>
  <text x="1236" y="10.7" font-family="Helvetica" font-size="10" font-weight="normal" font-style="normal" fill="#000000" fill-opacity="1">100 µs</text>
  <path d="M 50 414.99 L 1230 414.99" fill="none" stroke-width="0.5" stroke="#000000" stroke-opacity="0.25882" stroke-linecap="butt" stroke-linejoin="round" stroke-dasharray="6 3" stroke-dashoffset="0"/>
  <path d="M 50 388.98 L 1230 388.98" fill="none" stroke-width="0.5" stroke="#000000" stroke-opacity="0.25882" stroke-linecap="butt" stroke-linejoin="round" stroke-dasharray="6 3" stroke-dashoffset="0"/>
  <path d="M 50 362.97 L 1230 362.97" fill="none" stroke-width="0.5" stroke="#000000" stroke-opacity="0.25882" stroke-linecap="butt" stroke-linejoin="round" stroke-dasharray="6 3" stroke-dashoffset="0"/>
  <path d="M 50 336.96 L 1230 336.96" fill="none" stroke-width="0.5" stroke="#000000" stroke-opacity="0.25882" stroke-linecap="butt" stroke-linejoin="round" stroke-dasharray="6 3" stroke-dashoffset="0"/>
  <path d="M 50 310.96 L 1230 310.96" fill="none" stroke-width="0.5" stroke="#000000" stroke-opacity="0.25882" stroke-linecap="butt" stroke-linejoin="round" stroke-dasharray="6 3" stroke-dashoffset="0"/>
  <path d="M 50 284.95 L 1230 284.95" fill="none" stroke-width="0.5" stroke="#000000" stroke-opacity="0.25882" stroke-linecap="butt" stroke-linejoin="round" stroke-dasharray="6 3" stroke-dashoffset="0"/>
  <path d="M 50 258.94 L 1230 258.94" fill="none" stroke-width="0.5" stroke="#000000" stroke-opacity="0.25882" stroke-linecap="butt" stroke-linejoin="round" stroke-dasharray="6 3" stroke-dashoffset="0"/>
  <path d="M 50 232.93 L 1230 232.93" fill="none" stroke-width="0.5" stroke="#000000" stroke-opacity="0.25882" stroke-linecap="butt" stroke-linejoin="round" stroke-dasharray="6 3" stroke-dashoffset="0"/>
  <path d="M 50 206.92 L 1230 206.92" fill="none" stroke-width="0.5" stroke="#000000" stroke-opacity="0.25882" stroke-linecap="butt" stroke-linejoin="round" stroke-dasharray="6 3" stroke-dashoffset="0"/>
  <path d="M 50 180.91 L 1230 180.91" fill="none" stroke-width="0.5" stroke="#000000" stroke-opacity="0.25882" stroke-linecap="butt" stroke-linejoin="round" stroke-dasharray="6 3" stroke-dashoffset="0"/>
  <path d="M 50 154.9 L 1230 154.9" fill="none" stroke-width="0.5" stroke="#000000" stroke-opacity="0.25882" stroke-linecap="butt" stroke-linejoin="round" stroke-dasharray="6 3" stroke-dashoffset="0"/>
  <path d="M 50 128.89 L 1230 128.89" fill="none" stroke-width="0.5" stroke="#000000" stroke-opacity="0.25882" stroke-linecap="butt" stroke-linejoin="round" stroke-dasharray="6 3" stroke-dashoffset="0"/>
  <path d="M 50 102.88 L 1230 102.88" fill="none" stroke-width="0.5" stroke="#000000" stroke-opacity="0.25882" stroke-linecap="butt" stroke-linejoin="round" stroke-dasharray="6 3" stroke-dashoffset="0"/>
  <path d="M 50 76.874 L 1230 76.874" fill="none" stroke-width="0.5" stroke="#000000" stroke-opacity="0.25882" stroke-linecap="butt" stroke-linejoin="round" stroke-dasharray="6 3" stroke-dashoffset="0"/>
  <path d="M 50 50.865 L 1230 50.865" fill="none" stroke-width="0.5" stroke="#000000" stroke-opacity="0.25882" stroke-linecap="butt" stroke-linejoin="round" stroke-dasharray="6 3" stroke-dashoffset="0"/>
  <path d="M 50 24.856 L 1230 24.856" fill="none" stroke-width="0.5" stroke="#000000" stroke-opacity="0.25882" stroke-linecap="butt" stroke-linejoin="round" stroke-dasharray="6 3" stroke-dashoffset="0"/>
  <path d="M 74 33 L 74 88 L 319 88 L 319 33 z" fill="#FFFFFF" fill-opacity="1.0" stroke="none"/>
  <clipPath id="clip-0">
    <path d="M 50 9 L 50 441 L 1230 441 L 1230 9 z"/>
  </clipPath>
  <g clip-path="url(#clip-0)">
    <path d="M 50 301.66L 115.56 301.2L 153.9 301.05L 181.11 300.98L 202.22 294.21L 219.46 301.05L 234.04 296.08L 246.67 292.74L 267.77 297.5L 285.01 295.22L 299.59 291.62L 312.22 287.45L 333.33 284.6L 350.57 289.1L 365.15 287.66L 377.78 282.84L 398.88 283.41L 416.13 282.35L 430.7 282.02L 443.33 275.04L 464.44 279.52L 481.68 279.39L 496.26 276.58L 508.89 277.62L 529.99 272.99L 547.24 272.13L 561.82 267.89L 574.44 274.82L 595.55 267.38L 612.79 271.32L 627.37 269.67L 640 266.35L 661.1 266.13L 678.35 265.32L 692.93 265.14L 705.56 263.44L 726.66 260.69L 743.9 258.07L 758.48 259.19L 771.11 256.68L 792.22 257.29L 809.46 259.35L 824.04 255.34L 836.67 256.2L 857.77 251.62L 875.01 251.67L 889.59 251.29L 902.22 250.49L 923.33 249.11L 940.57 245L 955.15 247.62L 967.78 248.52L 988.88 248.15L 1006.1 246.13L 1020.7 246.01L 1033.3 244.72L 1054.4 244.61L 1054.4 244.61L 1033.3 244.72L 1020.7 246.01L 1006.1 246.13L 988.88 248.15L 967.78 248.52L 955.15 247.62L 940.57 245L 923.33 249.11L 902.22 250.49L 889.59 251.29L 875.01 251.67L 857.77 251.62L 836.67 256.2L 824.04 255.34L 809.46 259.35L 792.22 257.29L 771.11 256.68L 758.48 259.19L 743.9 258.07L 726.66 260.69L 705.56 263.44L 692.93 265.14L 678.35 265.32L 661.1 266.13L 640 266.35L 627.37 269.67L 612.79 271.32L 595.55 267.38L 574.44 274.82L 561.82 267.89L 547.24 272.13L 529.99 272.99L 508.89 277.62L 496.26 276.58L 481.68 279.39L 464.44 279.52L 443.33 275.04L 430.7 282.02L 416.13 282.35L 398.88 283.41L 377.78 282.84L 365.15 287.66L 350.57 289.1L 333.33 284.6L 312.22 287.45L 299.59 291.62L 285.01 295.22L 267.77 297.5L 246.67 292.74L 234.04 296.08L 219.46 301.05L 202.22 294.21L 181.11 300.98L 153.9 301.05L 115.56 301.2L 50 301.66" fill="#007AFF" fill-opacity="0.30196078431372547" stroke="none"/>
    <path d="M 50 300.75L 115.56 326.76L 153.9 341.97L 181.11 351.96L 202.22 360.33L 219.46 367.18L 234.04 372.96L 246.67 379.68L 267.77 386.34L 285.01 368.43L 299.59 359.95L 312.22 379.23L 333.33 362.18L 350.57 360.44L 365.15 366.23L 377.78 370.76L 398.88 366.87L 416.13 364.23L 430.7 365.58L 443.33 358.5L 464.44 359.32L 481.68 342.79L 496.26 349.53L 508.89 349.9L 529.99 349.46L 547.24 343.57L 561.82 338.84L 574.44 328.57L 595.55 328.36L 612.79 322.57L 627.37 319.64L 640 312.73L 661.1 295.17L 678.35 285.14L 692.93 290.04L 705.56 279.92L 726.66 282.49L 743.9 269.99L 758.48 269.48L 771.11 263.24L 792.22 254.69L 809.46 248.1L 824.04 241.48L 836.67 238.65L 857.77 230.04L 875.01 223.07L 889.59 216.98L 902.22 212.01L 923.33 202.03L 940.57 196.32L 955.15 190.39L 967.78 184.45L 988.88 173.1L 1006.1 163.49L 1020.7 155.12L 1033.3 149.54L 1054.4 139.12L 1071.7 133.11L 1086.3 127.1L 1098.9 122.05L 1120 113.35L 1137.2 106.5L 1151.8 99.781L 1164.4 95.335L 1185.5 87.039L 1185.5 87.282L 1164.4 95.761L 1151.8 100.77L 1137.2 106.67L 1120 113.57L 1098.9 122.12L 1086.3 127.34L 1071.7 133.75L 1054.4 140.73L 1033.3 149.75L 1020.7 156.42L 1006.1 163.77L 988.88 173.25L 967.78 185.88L 955.15 190.93L 940.57 196.72L 923.33 203.63L 902.22 212.23L 889.59 217.27L 875.01 223.16L 857.77 230.04L 836.67 238.65L 824.04 242.51L 809.46 249.31L 792.22 255.63L 771.11 265.09L 758.48 270.43L 743.9 272.79L 726.66 282.94L 705.56 289.83L 692.93 295.71L 678.35 301.34L 661.1 301.88L 640 315.11L 627.37 319.91L 612.79 324.97L 595.55 330.75L 574.44 336.33L 561.82 340.63L 547.24 345.96L 529.99 349.5L 508.89 354.25L 496.26 357.34L 481.68 356.32L 464.44 363.86L 443.33 370.76L 430.7 365.75L 416.13 373.38L 398.88 379.14L 377.78 370.76L 365.15 384.86L 350.57 379.08L 333.33 387.6L 312.22 379.23L 299.59 400.68L 285.01 368.43L 267.77 388.06L 246.67 379.68L 234.04 374.67L 219.46 368.89L 202.22 362.05L 181.11 353.67L 153.9 341.97L 115.56 326.76L 50 300.75" fill="#FF3B30" fill-opacity="0.30196078431372547" stroke="none"/>
    <path d="M 50 301.66L 115.56 301.2L 153.9 301.05L 181.11 300.98L 202.22 294.21L 219.46 301.05L 234.04 296.08L 246.67 292.74L 267.77 297.5L 285.01 295.22L 299.59 291.62L 312.22 287.45L 333.33 284.6L 350.57 289.1L 365.15 287.66L 377.78 282.84L 398.88 283.41L 416.13 282.35L 430.7 282.02L 443.33 275.04L 464.44 279.52L 481.68 279.39L 496.26 276.58L 508.89 277.62L 529.99 272.99L 547.24 272.13L 561.82 267.89L 574.44 274.82L 595.55 267.38L 612.79 271.32L 627.37 269.67L 640 266.35L 661.1 266.13L 678.35 265.32L 692.93 265.14L 705.56 263.44L 726.66 260.69L 743.9 258.07L 758.48 259.19L 771.11 256.68L 792.22 257.29L 809.46 259.35L 824.04 255.34L 836.67 256.2L 857.77 251.62L 875.01 251.67L 889.59 251.29L 902.22 250.49L 923.33 249.11L 940.57 245L 955.15 247.62L 967.78 248.52L 988.88 248.15L 1006.1 246.13L 1020.7 246.01L 1033.3 244.72L 1054.4 244.61" fill="none" stroke-width="4" stroke="#007AFF" stroke-opacity="1" stroke-linecap="round" stroke-linejoin="round"/>
    <path d="M 50 300.75L 115.56 326.76L 153.9 341.97L 181.11 353.22L 202.22 361.59L 219.46 368.43L 234.04 374.22L 246.67 379.68L 267.77 387.6L 285.01 368.43L 299.59 385.16L 312.22 379.23L 333.33 379.14L 350.57 373.25L 365.15 379.03L 377.78 370.76L 398.88 375.53L 416.13 370.76L 430.7 365.71L 443.33 367.16L 464.44 362.62L 481.68 352.29L 496.26 355.14L 508.89 353.06L 529.99 349.49L 547.24 345.32L 561.82 340.16L 574.44 334.14L 595.55 330.11L 612.79 324.33L 627.37 319.84L 640 314.48L 661.1 300.01L 678.35 296.39L 692.93 294.15L 705.56 286.98L 726.66 282.82L 743.9 272.04L 758.48 270.18L 771.11 264.6L 792.22 255.38L 809.46 248.99L 824.04 242.24L 836.67 238.65L 857.77 230.04L 875.01 223.14L 889.59 217.19L 902.22 212.17L 923.33 203.2L 940.57 196.61L 955.15 190.79L 967.78 185.5L 988.88 173.21L 1006.1 163.69L 1020.7 156.08L 1033.3 149.7L 1054.4 140.31L 1071.7 133.58L 1086.3 127.28L 1098.9 122.1L 1120 113.51L 1137.2 106.62L 1151.8 100.51L 1164.4 95.649L 1185.5 87.218" fill="none" stroke-width="4" stroke="#FF3B30" stroke-opacity="1" stroke-linecap="round" stroke-linejoin="round"/>
    <path d="M 50 301.66L 115.56 301.2L 153.9 301.05L 181.11 300.98L 202.22 294.21L 219.46 301.05L 234.04 296.08L 246.67 292.74L 267.77 297.5L 285.01 295.22L 299.59 291.62L 312.22 287.45L 333.33 284.6L 350.57 289.1L 365.15 287.66L 377.78 282.84L 398.88 283.41L 416.13 282.35L 430.7 282.02L 443.33 275.04L 464.44 279.52L 481.68 279.39L 496.26 276.58L 508.89 277.62L 529.99 272.99L 547.24 272.13L 561.82 267.89L 574.44 274.82L 595.55 267.38L 612.79 271.32L 627.37 269.67L 640 266.35L 661.1 266.13L 678.35 265.32L 692.93 265.14L 705.56 263.44L 726.66 260.69L 743.9 258.07L 758.48 259.19L 771.11 256.68L 792.22 257.29L 809.46 259.35L 824.04 255.34L 836.67 256.2L 857.77 251.62L 875.01 251.67L 889.59 251.29L 902.22 250.49L 923.33 249.11L 940.57 245L 955.15 247.62L 967.78 248.52L 988.88 248.15L 1006.1 246.13L 1020.7 246.01L 1033.3 244.72L 1054.4 244.61" fill="none" stroke-width="0.5" stroke="#000000" stroke-opacity="0.30196" stroke-linecap="round" stroke-linejoin="round"/>
    <path d="M 50 300.75L 115.56 326.76L 153.9 341.97L 181.11 353.22L 202.22 361.59L 219.46 368.43L 234.04 374.22L 246.67 379.68L 267.77 387.6L 285.01 368.43L 299.59 385.16L 312.22 379.23L 333.33 379.14L 350.57 373.25L 365.15 379.03L 377.78 370.76L 398.88 375.53L 416.13 370.76L 430.7 365.71L 443.33 367.16L 464.44 362.62L 481.68 352.29L 496.26 355.14L 508.89 353.06L 529.99 349.49L 547.24 345.32L 561.82 340.16L 574.44 334.14L 595.55 330.11L 612.79 324.33L 627.37 319.84L 640 314.48L 661.1 300.01L 678.35 296.39L 692.93 294.15L 705.56 286.98L 726.66 282.82L 743.9 272.04L 758.48 270.18L 771.11 264.6L 792.22 255.38L 809.46 248.99L 824.04 242.24L 836.67 238.65L 857.77 230.04L 875.01 223.14L 889.59 217.19L 902.22 212.17L 923.33 203.2L 940.57 196.61L 955.15 190.79L 967.78 185.5L 988.88 173.21L 1006.1 163.69L 1020.7 156.08L 1033.3 149.7L 1054.4 140.31L 1071.7 133.58L 1086.3 127.28L 1098.9 122.1L 1120 113.51L 1137.2 106.62L 1151.8 100.51L 1164.4 95.649L 1185.5 87.218" fill="none" stroke-width="0.5" stroke="#000000" stroke-opacity="0.30196" stroke-linecap="round" stroke-linejoin="round"/>
  </g>
  <path d="M 74 33 L 74 88 L 319 88 L 319 33 z" fill="#FFFFFF" fill-opacity="0.7019607843137254" stroke-width="0.5" stroke="#000000" stroke-opacity="1" stroke-linecap="round" stroke-linejoin="round"/>
  <path d="M 88 52 L 108 52" fill="none" stroke-width="4" stroke="#FF3B30" stroke-opacity="1" stroke-linecap="round" stroke-linejoin="round"/>
  <path d="M 88 52 L 108 52" fill="none" stroke-width="0.5" stroke="#000000" stroke-opacity="0.30196" stroke-linecap="round" stroke-linejoin="round"/>
  <text x="119" y="56.17" font-family="Menlo" font-size="12" font-weight="normal" font-style="normal" fill="#000000" fill-opacity="1">Array&lt;Int&gt; removeFirst</text>
  <path d="M 88 69 L 108 69" fill="none" stroke-width="4" stroke="#007AFF" stroke-opacity="1" stroke-linecap="round" stroke-linejoin="round"/>
  <path d="M 88 69 L 108 69" fill="none" stroke-width="0.5" stroke="#000000" stroke-opacity="0.30196" stroke-linecap="round" stroke-linejoin="round"/>
  <text x="119" y="73.17" font-family="Menlo" font-size="12" font-weight="normal" font-style="normal" fill="#000000" fill-opacity="1">TreeArray&lt;Int&gt; removeFirst</text>
  <path d="M 50 9 L 50 441 L 1230 441 L 1230 9 z" fill="none" stroke-width="0.5" stroke="#000000" stroke-opacity="1" stroke-linecap="round" stroke-linejoin="round"/>
</svg>
