<!DOCTYPE svg PUBLIC "-//W3C//DTD SVG 1.1//EN" "http://www.w3.org/Graphics/SVG/1.1/DTD/svg11.dtd">
<svg width="1280.0px" height="480.0px" viewBox="0.0 0.0 1280.0 480.0" xmlns="http://www.w3.org/2000/svg" xmlns:xlink="http://www.w3.org/1999/xlink" version="1.1">
  <path d="M 0 0 L 0 480 L 1280 480 L 1280 0 z" fill="#FFFFFF" fill-opacity="1.0" stroke="none"/>
  <text x="50" y="468.7" font-family="Helvetica" font-size="10" font-weight="normal" font-style="normal" fill="#000000" fill-opacity="1">Average per-element processing time over input size (bands: min, mean, mean + 2stddev)</text>
  <a xlink:href="https://github.com/apple/swift-collections-benchmark"><text x="1107" y="468.7" font-family="Helvetica" font-size="10" font-weight="normal" font-style="normal" fill="#000000" fill-opacity="1">swift-collections-benchmark</text></a>
  <path d="M 50 9 L 50 441" fill="none" stroke-width="0.75" stroke="#000000" stroke-opacity="0.49804" stroke-linecap="butt" stroke-linejoin="round"/>
  <text x="47" y="453.7" font-family="Helvetica" font-size="10" font-weight="normal" font-style="normal" fill="#000000" fill-opacity="1">1</text>
  <path d="M 109 9 L 109 441" fill="none" stroke-width="0.75" stroke="#000000" stroke-opacity="0.49804" stroke-linecap="butt" stroke-linejoin="round"/>
  <text x="106" y="453.7" font-family="Helvetica" font-size="10" font-weight="normal" font-style="normal" fill="#000000" fill-opacity="1">2</text>
  <path d="M 168 9 L 168 441" fill="none" stroke-width="0.75" stroke="#000000" stroke-opacity="0.49804" stroke-linecap="butt" stroke-linejoin="round"/>
  <text x="165" y="453.7" font-family="Helvetica" font-size="10" font-weight="normal" font-style="normal" fill="#000000" fill-opacity="1">4</text>
  <path d="M 227 9 L 227 441" fill="none" stroke-width="0.75" stroke="#000000" stroke-opacity="0.49804" stroke-linecap="butt" stroke-linejoin="round"/>
  <text x="224" y="453.7" font-family="Helvetica" font-size="10" font-weight="normal" font-style="normal" fill="#000000" fill-opacity="1">8</text>
  <path d="M 286 9 L 286 441" fill="none" stroke-width="0.75" stroke="#000000" stroke-opacity="0.49804" stroke-linecap="butt" stroke-linejoin="round"/>
  <text x="280" y="453.7" font-family="Helvetica" font-size="10" font-weight="normal" font-style="normal" fill="#000000" fill-opacity="1">16</text>
  <path d="M 345 9 L 345 441" fill="none" stroke-width="0.75" stroke="#000000" stroke-opacity="0.49804" stroke-linecap="butt" stroke-linejoin="round"/>
  <text x="339" y="453.7" font-family="Helvetica" font-size="10" font-weight="normal" font-style="normal" fill="#000000" fill-opacity="1">32</text>
  <path d="M 404 9 L 404 441" fill="none" stroke-width="0.75" stroke="#000000" stroke-opacity="0.49804" stroke-linecap="butt" stroke-linejoin="round"/>
  <text x="398" y="453.7" font-family="Helvetica" font-size="10" font-weight="normal" font-style="normal" fill="#000000" fill-opacity="1">64</text>
  <path d="M 463 9 L 463 441" fill="none" stroke-width="0.75" stroke="#000000" stroke-opacity="0.49804" stroke-linecap="butt" stroke-linejoin="round"/>
  <text x="454.5" y="453.7" font-family="Helvetica" font-size="10" font-weight="normal" font-style="normal" fill="#000000" fill-opacity="1">128</text>
  <path d="M 522 9 L 522 441" fill="none" stroke-width="0.75" stroke="#000000" stroke-opacity="0.49804" stroke-linecap="butt" stroke-linejoin="round"/>
  <text x="513.5" y="453.7" font-family="Helvetica" font-size="10" font-weight="normal" font-style="normal" fill="#000000" fill-opacity="1">256</text>
  <path d="M 581 9 L 581 441" fill="none" stroke-width="0.75" stroke="#000000" stroke-opacity="0.49804" stroke-linecap="butt" stroke-linejoin="round"/>
  <text x="572.5" y="453.7" font-family="Helvetica" font-size="10" font-weight="normal" font-style="normal" fill="#000000" fill-opacity="1">512</text>
  <path d="M 640 9 L 640 441" fill="none" stroke-width="0.75" stroke="#000000" stroke-opacity="0.49804" stroke-linecap="butt" stroke-linejoin="round"/>
  <text x="634.5" y="453.7" font-family="Helvetica" font-size="10" font-weight="normal" font-style="normal" fill="#000000" fill-opacity="1">1k</text>
  <path d="M 699 9 L 699 441" fill="none" stroke-width="0.75" stroke="#000000" stroke-opacity="0.49804" stroke-linecap="butt" stroke-linejoin="round"/>
  <text x="693.5" y="453.7" font-family="Helvetica" font-size="10" font-weight="normal" font-style="normal" fill="#000000" fill-opacity="1">2k</text>
  <path d="M 758 9 L 758 441" fill="none" stroke-width="0.75" stroke="#000000" stroke-opacity="0.49804" stroke-linecap="butt" stroke-linejoin="round"/>
  <text x="752.5" y="453.7" font-family="Helvetica" font-size="10" font-weight="normal" font-style="normal" fill="#000000" fill-opacity="1">4k</text>
  <path d="M 817 9 L 817 441" fill="none" stroke-width="0.75" stroke="#000000" stroke-opacity="0.49804" stroke-linecap="butt" stroke-linejoin="round"/>
  <text x="811.5" y="453.7" font-family="Helvetica" font-size="10" font-weight="normal" font-style="normal" fill="#000000" fill-opacity="1">8k</text>
  <path d="M 876 9 L 876 441" fill="none" stroke-width="0.75" stroke="#000000" stroke-opacity="0.49804" stroke-linecap="butt" stroke-linejoin="round"/>
  <text x="867.5" y="453.7" font-family="Helvetica" font-size="10" font-weight="normal" font-style="normal" fill="#000000" fill-opacity="1">16k</text>
  <path d="M 935 9 L 935 441" fill="none" stroke-width="0.75" stroke="#000000" stroke-opacity="0.49804" stroke-linecap="butt" stroke-linejoin="round"/>
  <text x="926.5" y="453.7" font-family="Helvetica" font-size="10" font-weight="normal" font-style="normal" fill="#000000" fill-opacity="1">32k</text>
  <path d="M 994 9 L 994 441" fill="none" stroke-width="0.75" stroke="#000000" stroke-opacity="0.49804" stroke-linecap="butt" stroke-linejoin="round"/>
  <text x="985.5" y="453.7" font-family="Helvetica" font-size="10" font-weight="normal" font-style="normal" fill="#000000" fill-opacity="1">64k</text>
  <path d="M 1053 9 L 1053 441" fill="none" stroke-width="0.75" stroke="#000000" stroke-opacity="0.49804" stroke-linecap="butt" stroke-linejoin="round"/>
  <text x="1042" y="453.7" font-family="Helvetica" font-size="10" font-weight="normal" font-style="normal" fill="#000000" fill-opacity="1">128k</text>
  <path d="M 1112 9 L 1112 441" fill="none" stroke-width="0.75" stroke="#000000" stroke-opacity="0.49804" stroke-linecap="butt" stroke-linejoin="round"/>
  <text x="1101" y="453.7" font-family="Helvetica" font-size="10" font-weight="normal" font-style="normal" fill="#000000" fill-opacity="1">256k</text>
  <path d="M 1171 9 L 1171 441" fill="none" stroke-width="0.75" stroke="#000000" stroke-opacity="0.49804" stroke-linecap="butt" stroke-linejoin="round"/>
  <text x="1160" y="453.7" font-family="Helvetica" font-size="10" font-weight="normal" font-style="normal" fill="#000000" fill-opacity="1">512k</text>
  <path d="M 1230 9 L 1230 441" fill="none" stroke-width="0.75" stroke="#000000" stroke-opacity="0.49804" stroke-linecap="butt" stroke-linejoin="round"/>
  <text x="1223" y="453.7" font-family="Helvetica" font-size="10" font-weight="normal" font-style="normal" fill="#000000" fill-opacity="1">1M</text>
  <path d="M 50 441 L 1230 441" fill="none" stroke-width="0.75" stroke="#000000" stroke-opacity="0.49804" stroke-linecap="butt" stroke-linejoin="round"/>
  <text x="27" y="442.7" font-family="Helvetica" font-size="10" font-weight="normal" font-style="normal" fill="#000000" fill-opacity="1">1 ns</text>
  <text x="1236" y="442.7" font-family="Helvetica" font-size="10" font-weight="normal" font-style="normal" fill="#000000" fill-opacity="1">1 ns</text>
  <path d="M 50 354.6 L 1230 354.6" fill="none" stroke-width="0.75" stroke="#000000" stroke-opacity="0.49804" stroke-linecap="butt" stroke-linejoin="round"/>
  <text x="21" y="356.3" font-family="Helvetica" font-size="10" font-weight="normal" font-style="normal" fill="#000000" fill-opacity="1">10 ns</text>
  <text x="1236" y="356.3" font-family="Helvetica" font-size="10" font-weight="normal" font-style="normal" fill="#000000" fill-opacity="1">10 ns</text>
  <path d="M 50 268.2 L 1230 268.2" fill="none" stroke-width="0.75" stroke="#000000" stroke-opacity="0.49804" stroke-linecap="butt" stroke-linejoin="round"/>
  <text x="16" y="269.9" font-family="Helvetica" font-size="10" font-weight="normal" font-style="normal" fill="#000000" fill-opacity="1">100 ns</text>
  <text x="1236" y="269.9" font-family="Helvetica" font-size="10" font-weight="normal" font-style="normal" fill="#000000" fill-opacity="1">100 ns</text>
  <path d="M 50 181.8 L 1230 181.8" fill="none" stroke-width="0.75" stroke="#000000" stroke-opacity="0.49804" stroke-linecap="butt" stroke-linejoin="round"/>
  <text x="26" y="183.5" font-family="Helvetica" font-size="10" font-weight="normal" font-style="normal" fill="#000000" fill-opacity="1">1 µs</text>
  <text x="1236" y="183.5" font-family="Helvetica" font-size="10" font-weight="normal" font-style="normal" fill="#000000" fill-opacity="1">1 µs</text>
  <path d="M 50 95.4 L 1230 95.4" fill="none" stroke-width="0.75" stroke="#000000" stroke-opacity="0.49804" stroke-linecap="butt" stroke-linejoin="round"/>
  <text x="21" y="97.1" font-family="Helvetica" font-size="10" font-weight="normal" font-style="normal" fill="#000000" fill-opacity="1">10 µs</text>
  <text x="1236" y="97.1" font-family="Helvetica" font-size="10" font-weight="normal" font-style="normal" fill="#000000" fill-opacity="1">10 µs</text>
  <path d="M 50 9 L 1230 9" fill="none" stroke-width="0.75" stroke="#000000" stroke-opacity="0.49804" stroke-linecap="butt" stroke-linejoin="round"/>
  <text x="15" y="10.7" font-family="Helvetica" font-size="10" font-weight="normal" font-style="normal" fill="#000000" fill-opacity="1">100 µs</text>
  <text x="1236" y="10.7" font-family="Helvetica" font-size="10" font-weight="normal" font-style="normal" fill="#000000" fill-opacity="1">100 µs</text>
  <path d="M 50 414.99 L 1230 414.99" fill="none" stroke-width="0.5" stroke="#000000" stroke-opacity="0.25882" stroke-linecap="butt" stroke-linejoin="round" stroke-dasharray="6 3" stroke-dashoffset="0"/>
  <path d="M 50 388.98 L 1230 388.98" fill="none" stroke-width="0.5" stroke="#000000" stroke-opacity="0.25882" stroke-linecap="butt" stroke-linejoin="round" stroke-dasharray="6 3" stroke-dashoffset="0"/>
  <path d="M 50 362.97 L 1230 362.97" fill="none" stroke-width="0.5" stroke="#000000" stroke-opacity="0.25882" stroke-linecap="butt" stroke-linejoin="round" stroke-dasharray="6 3" stroke-dashoffset="0"/>
  <path d="M 50 336.96 L 1230 336.96" fill="none" stroke-width="0.5" stroke="#000000" stroke-opacity="0.25882" stroke-linecap="butt" stroke-linejoin="round" stroke-dasharray="6 3" stroke-dashoffset="0"/>
  <path d="M 50 310.96 L 1230 310.96" fill="none" stroke-width="0.5" stroke="#000000" stroke-opacity="0.25882" stroke-linecap="butt" stroke-linejoin="round" stroke-dasharray="6 3" stroke-dashoffset="0"/>
  <path d="M 50 284.95 L 1230 284.95" fill="none" stroke-width="0.5" stroke="#000000" stroke-opacity="0.25882" stroke-linecap="butt" stroke-linejoin="round" stroke-dasharray="6 3" stroke-dashoffset="0"/>
  <path d="M 50 258.94 L 1230 258.94" fill="none" stroke-width="0.5" stroke="#000000" stroke-opacity="0.25882" stroke-linecap="butt" stroke-linejoin="round" stroke-dasharray="6 3" stroke-dashoffset="0"/>
  <path d="M 50 232.93 L 1230 232.93" fill="none" stroke-width="0.5" stroke="#000000" stroke-opacity="0.25882" stroke-linecap="butt" stroke-linejoin="round" stroke-dasharray="6 3" stroke-dashoffset="0"/>
  <path d="M 50 206.92 L 1230 206.92" fill="none" stroke-width="0.5" stroke="#000000" stroke-opacity="0.25882" stroke-linecap="butt" stroke-linejoin="round" stroke-dasharray="6 3" stroke-dashoffset="0"/>
  <path d="M 50 180.91 L 1230 180.91" fill="none" stroke-width="0.5" stroke="#000000" stroke-opacity="0.25882" stroke-linecap="butt" stroke-linejoin="round" stroke-dasharray="6 3" stroke-dashoffset="0"/>
  <path d="M 50 154.9 L 1230 154.9" fill="none" stroke-width="0.5" stroke="#000000" stroke-opacity="0.25882" stroke-linecap="butt" stroke-linejoin="round" stroke-dasharray="6 3" stroke-dashoffset="0"/>
  <path d="M 50 128.89 L 1230 128.89" fill="none" stroke-width="0.5" stroke="#000000" stroke-opacity="0.25882" stroke-linecap="butt" stroke-linejoin="round" stroke-dasharray="6 3" stroke-dashoffset="0"/>
  <path d="M 50 102.88 L 1230 102.88" fill="none" stroke-width="0.5" stroke="#000000" stroke-opacity="0.25882" stroke-linecap="butt" stroke-linejoin="round" stroke-dasharray="6 3" stroke-dashoffset="0"/>
  <path d="M 50 76.874 L 1230 76.874" fill="none" stroke-width="0.5" stroke="#000000" stroke-opacity="0.25882" stroke-linecap="butt" stroke-linejoin="round" stroke-dasharray="6 3" stroke-dashoffset="0"/>
  <path d="M 50 50.865 L 1230 50.865" fill="none" stroke-width="0.5" stroke="#000000" stroke-opacity="0.25882" stroke-linecap="butt" stroke-linejoin="round" stroke-dasharray="6 3" stroke-dashoffset="0"/>
  <path d="M 50 24.856 L 1230 24.856" fill="none" stroke-width="0.5" stroke="#000000" stroke-opacity="0.25882" stroke-linecap="butt" stroke-linejoin="round" stroke-dasharray="6 3" stroke-dashoffset="0"/>
  <path d="M 74 33 L 74 88 L 319 88 L 319 33 z" fill="#FFFFFF" fill-opacity="1.0" stroke="none"/>
  <clipPath id="clip-0">
    <path d="M 50 9 L 50 441 L 1230 441 L 1230 9 z"/>
  </clipPath>
  <g clip-path="url(#clip-0)">
    <path d="M 50 301.66L 109 301.2L 143.51 301.05L 168 286.52L 186.99 300.77L 202.51 290.81L 215.63 296.08L 227 296.63L 245.99 294.21L 261.51 277.25L 274.63 284.41L 286 276.72L 304.99 287.12L 320.51 283.96L 333.63 286.75L 345 276.55L 363.99 276.24L 379.51 278.56L 392.63 269.39L 404 276.12L 422.99 273.38L 438.51 266.53L 451.63 272.59L 463 270.45L 481.99 261.88L 497.51 270.82L 510.63 266.95L 522 261.11L 540.99 261.88L 556.51 257.61L 569.63 259.62L 581 261.77L 599.99 262.48L 615.51 257.66L 628.63 261.43L 640 262.71L 658.99 261.2L 674.51 252.16L 687.63 248.84L 699 255.08L 717.99 252.98L 733.51 255.68L 746.63 246.9L 758 250.38L 776.99 249.4L 792.51 249.17L 805.63 250.67L 817 244.44L 835.99 247.16L 851.51 243.85L 864.63 246.27L 876 247.46L 894.99 244.87L 910.51 245.32L 923.63 242.48L 935 241.85L 953.99 243.45L 969.51 242.36L 982.63 241.25L 994 236.82L 1013 239.84L 1028.5 239.82L 1041.6 238.9L 1053 238.19L 1072 236.27L 1087.5 235.65L 1100.6 236.82L 1112 236.22L 1131 236.74L 1146.5 234.28L 1159.6 235.12L 1171 233.94L 1190 232.9L 1205.5 234.03L 1218.6 232.17L 1230 230.65L 1230 232.92L 1218.6 233.06L 1205.5 235.05L 1190 233.14L 1171 236.12L 1159.6 236.49L 1146.5 236.12L 1131 237.36L 1112 236.96L 1100.6 238.7L 1087.5 240.01L 1072 239.67L 1053 238.79L 1041.6 239.4L 1028.5 241.23L 1013 242.31L 994 242.38L 982.63 242.09L 969.51 242.65L 953.99 244.54L 935 244.77L 923.63 243.55L 910.51 246.68L 894.99 247.06L 876 248.1L 864.63 247.57L 851.51 247.98L 835.99 249.33L 817 253.05L 805.63 251.16L 792.51 250.39L 776.99 253.78L 758 252.68L 746.63 253.99L 733.51 256.16L 717.99 256.05L 699 258.42L 687.63 258.26L 674.51 259.09L 658.99 261.2L 640 263.27L 628.63 262.65L 615.51 266.22L 599.99 266.5L 581 268.44L 569.63 267.58L 556.51 269.38L 540.99 272.49L 522 271.01L 510.63 267.21L 497.51 271.32L 481.99 273.89L 463 275.78L 451.63 275.72L 438.51 279.17L 422.99 277.46L 404 280.39L 392.63 283.25L 379.51 284.81L 363.99 282.26L 345 284.31L 333.63 286.75L 320.51 288L 304.99 287.12L 286 290.85L 274.63 291.62L 261.51 292.68L 245.99 294.21L 227 296.63L 215.63 296.08L 202.51 301.05L 186.99 301.11L 168 300.98L 143.51 301.05L 109 301.2L 50 301.66" fill="#007AFF" fill-opacity="0.30196078431372547" stroke="none"/>
    <path d="M 50 299.94L 109 327.66L 143.51 341.97L 168 351.96L 186.99 361.14L 202.51 367.18L 215.63 373.77L 227 379.68L 245.99 388.06L 261.51 394.9L 274.63 398.97L 286 379.23L 304.99 387.6L 320.51 379.08L 333.63 384.86L 345 379.23L 363.99 357.84L 379.51 368.32L 392.63 369.65L 404 364.13L 422.99 363.86L 438.51 359.92L 451.63 354.58L 463 351L 481.99 350.33L 497.51 344.16L 510.63 339.29L 522 317.32L 540.99 326.73L 556.51 314.24L 569.63 316.5L 581 312.95L 599.99 292.07L 615.51 301.25L 628.63 295.79L 640 286.33L 658.99 277.36L 674.51 269.92L 687.63 265.31L 699 264.13L 717.99 255.89L 733.51 246.15L 746.63 242.33L 758 238.63L 776.99 230.04L 792.51 223.14L 805.63 217.26L 817 212.19L 835.99 203.58L 851.51 195.82L 864.63 190.39L 876 184.26L 894.99 173.11L 910.51 163.75L 923.63 156.2L 935 150.45L 953.99 140.3L 969.51 133.56L 982.63 127.39L 994 122.19L 1013 113.26L 1028.5 106.51L 1041.6 100.72L 1053 95.611L 1072 86.678L 1072 87.322L 1053 95.682L 1041.6 100.77L 1028.5 106.61L 1013 113.48L 994 122.27L 982.63 127.49L 969.51 133.59L 953.99 140.93L 935 150.46L 923.63 156.47L 910.51 163.81L 894.99 173.33L 876 185.83L 864.63 190.92L 851.51 196.81L 835.99 203.75L 817 212.23L 805.63 217.26L 792.51 223.17L 776.99 230.04L 758 238.65L 746.63 243.34L 733.51 248.15L 717.99 255.94L 699 265.05L 687.63 270.44L 674.51 275L 658.99 281.23L 640 291.01L 628.63 295.93L 615.51 301.44L 599.99 305.53L 581 315.54L 569.63 320.05L 556.51 324.24L 540.99 329.99L 522 337.46L 510.63 341.12L 497.51 346.62L 481.99 350.37L 463 355.49L 451.63 357.31L 438.51 359.92L 422.99 363.86L 404 370.76L 392.63 369.65L 379.51 368.32L 363.99 379.14L 345 379.23L 333.63 384.86L 320.51 379.08L 304.99 387.6L 286 379.23L 274.63 400.68L 261.51 394.9L 245.99 388.06L 227 379.68L 215.63 373.77L 202.51 368.89L 186.99 361.14L 168 353.67L 143.51 341.97L 109 327.66L 50 301.66" fill="#FF3B30" fill-opacity="0.30196078431372547" stroke="none"/>
    <path d="M 50 301.66L 109 301.2L 143.51 301.05L 168 296.63L 186.99 301.02L 202.51 298.09L 215.63 296.08L 227 296.63L 245.99 294.21L 261.51 288L 274.63 289.6L 286 286.61L 304.99 287.12L 320.51 286.9L 333.63 286.75L 345 282.12L 363.99 280.59L 379.51 283.08L 392.63 279.11L 404 279.23L 422.99 276.35L 438.51 275.43L 451.63 274.88L 463 274.32L 481.99 270.36L 497.51 271.19L 510.63 267.14L 522 268.16L 540.99 269.42L 556.51 265.93L 569.63 265.34L 581 266.58L 599.99 265.41L 615.51 263.79L 628.63 262.33L 640 263.12L 658.99 261.2L 674.51 257.15L 687.63 255.56L 699 257.52L 717.99 255.22L 733.51 256.03L 746.63 252.01L 758 252.06L 776.99 252.59L 792.51 250.07L 805.63 251.03L 817 250.6L 835.99 248.75L 851.51 246.85L 864.63 247.23L 876 247.93L 894.99 246.48L 910.51 246.32L 923.63 243.26L 935 243.98L 953.99 244.25L 969.51 242.57L 982.63 241.87L 994 240.85L 1013 241.65L 1028.5 240.85L 1041.6 239.27L 1053 238.63L 1072 238.75L 1087.5 238.82L 1100.6 238.2L 1112 236.76L 1131 237.19L 1146.5 235.63L 1159.6 236.13L 1171 235.53L 1190 233.08L 1205.5 234.78L 1218.6 232.82L 1230 232.31" fill="none" stroke-width="4" stroke="#007AFF" stroke-opacity="1" stroke-linecap="round" stroke-linejoin="round"/>
    <path d="M 50 301.2L 109 327.66L 143.51 341.97L 168 353.22L 186.99 361.14L 202.51 368.43L 215.63 373.77L 227 379.68L 245.99 388.06L 261.51 394.9L 274.63 400.23L 286 379.23L 304.99 387.6L 320.51 379.08L 333.63 384.86L 345 379.23L 363.99 372.31L 379.51 368.32L 392.63 369.65L 404 368.92L 422.99 363.86L 438.51 359.92L 451.63 356.58L 463 354.26L 481.99 350.36L 497.51 345.96L 510.63 340.63L 522 331.08L 540.99 329.11L 556.51 321.36L 569.63 319.09L 581 314.85L 599.99 301.52L 615.51 301.39L 628.63 295.89L 640 289.73L 658.99 280.18L 674.51 273.61L 687.63 269.03L 699 264.81L 717.99 255.92L 733.51 247.62L 746.63 243.07L 758 238.64L 776.99 230.04L 792.51 223.16L 805.63 217.26L 817 212.22L 835.99 203.7L 851.51 196.55L 864.63 190.78L 876 185.41L 894.99 173.28L 910.51 163.79L 923.63 156.4L 935 150.46L 953.99 140.77L 969.51 133.58L 982.63 127.47L 994 122.25L 1013 113.42L 1028.5 106.58L 1041.6 100.76L 1053 95.664L 1072 87.153" fill="none" stroke-width="4" stroke="#FF3B30" stroke-opacity="1" stroke-linecap="round" stroke-linejoin="round"/>
    <path d="M 50 301.66L 109 301.2L 143.51 301.05L 168 296.63L 186.99 301.02L 202.51 298.09L 215.63 296.08L 227 296.63L 245.99 294.21L 261.51 288L 274.63 289.6L 286 286.61L 304.99 287.12L 320.51 286.9L 333.63 286.75L 345 282.12L 363.99 280.59L 379.51 283.08L 392.63 279.11L 404 279.23L 422.99 276.35L 438.51 275.43L 451.63 274.88L 463 274.32L 481.99 270.36L 497.51 271.19L 510.63 267.14L 522 268.16L 540.99 269.42L 556.51 265.93L 569.63 265.34L 581 266.58L 599.99 265.41L 615.51 263.79L 628.63 262.33L 640 263.12L 658.99 261.2L 674.51 257.15L 687.63 255.56L 699 257.52L 717.99 255.22L 733.51 256.03L 746.63 252.01L 758 252.06L 776.99 252.59L 792.51 250.07L 805.63 251.03L 817 250.6L 835.99 248.75L 851.51 246.85L 864.63 247.23L 876 247.93L 894.99 246.48L 910.51 246.32L 923.63 243.26L 935 243.98L 953.99 244.25L 969.51 242.57L 982.63 241.87L 994 240.85L 1013 241.65L 1028.5 240.85L 1041.6 239.27L 1053 238.63L 1072 238.75L 1087.5 238.82L 1100.6 238.2L 1112 236.76L 1131 237.19L 1146.5 235.63L 1159.6 236.13L 1171 235.53L 1190 233.08L 1205.5 234.78L 1218.6 232.82L 1230 232.31" fill="none" stroke-width="0.5" stroke="#000000" stroke-opacity="0.30196" stroke-linecap="round" stroke-linejoin="round"/>
    <path d="M 50 301.2L 109 327.66L 143.51 341.97L 168 353.22L 186.99 361.14L 202.51 368.43L 215.63 373.77L 227 379.68L 245.99 388.06L 261.51 394.9L 274.63 400.23L 286 379.23L 304.99 387.6L 320.51 379.08L 333.63 384.86L 345 379.23L 363.99 372.31L 379.51 368.32L 392.63 369.65L 404 368.92L 422.99 363.86L 438.51 359.92L 451.63 356.58L 463 354.26L 481.99 350.36L 497.51 345.96L 510.63 340.63L 522 331.08L 540.99 329.11L 556.51 321.36L 569.63 319.09L 581 314.85L 599.99 301.52L 615.51 301.39L 628.63 295.89L 640 289.73L 658.99 280.18L 674.51 273.61L 687.63 269.03L 699 264.81L 717.99 255.92L 733.51 247.62L 746.63 243.07L 758 238.64L 776.99 230.04L 792.51 223.16L 805.63 217.26L 817 212.22L 835.99 203.7L 851.51 196.55L 864.63 190.78L 876 185.41L 894.99 173.28L 910.51 163.79L 923.63 156.4L 935 150.46L 953.99 140.77L 969.51 133.58L 982.63 127.47L 994 122.25L 1013 113.42L 1028.5 106.58L 1041.6 100.76L 1053 95.664L 1072 87.153" fill="none" stroke-width="0.5" stroke="#000000" stroke-opacity="0.30196" stroke-linecap="round" stroke-linejoin="round"/>
  </g>
  <path d="M 74 33 L 74 88 L 319 88 L 319 33 z" fill="#FFFFFF" fill-opacity="0.7019607843137254" stroke-width="0.5" stroke="#000000" stroke-opacity="1" stroke-linecap="round" stroke-linejoin="round"/>
  <path d="M 88 52 L 108 52" fill="none" stroke-width="4" stroke="#FF3B30" stroke-opacity="1" stroke-linecap="round" stroke-linejoin="round"/>
  <path d="M 88 52 L 108 52" fill="none" stroke-width="0.5" stroke="#000000" stroke-opacity="0.30196" stroke-linecap="round" stroke-linejoin="round"/>
  <text x="119" y="56.17" font-family="Menlo" font-size="12" font-weight="normal" font-style="normal" fill="#000000" fill-opacity="1">Array&lt;Int&gt; removeFirst</text>
  <path d="M 88 69 L 108 69" fill="none" stroke-width="4" stroke="#007AFF" stroke-opacity="1" stroke-linecap="round" stroke-linejoin="round"/>
  <path d="M 88 69 L 108 69" fill="none" stroke-width="0.5" stroke="#000000" stroke-opacity="0.30196" stroke-linecap="round" stroke-linejoin="round"/>
  <text x="119" y="73.17" font-family="Menlo" font-size="12" font-weight="normal" font-style="normal" fill="#000000" fill-opacity="1">TreeArray&lt;Int&gt; removeFirst</text>
  <path d="M 50 9 L 50 441 L 1230 441 L 1230 9 z" fill="none" stroke-width="0.5" stroke="#000000" stroke-opacity="1" stroke-linecap="round" stroke-linejoin="round"/>
</svg>
