<!DOCTYPE svg PUBLIC "-//W3C//DTD SVG 1.1//EN" "http://www.w3.org/Graphics/SVG/1.1/DTD/svg11.dtd">
<svg width="1280.0px" height="480.0px" viewBox="0.0 0.0 1280.0 480.0" xmlns="http://www.w3.org/2000/svg" xmlns:xlink="http://www.w3.org/1999/xlink" version="1.1">
  <path d="M 0 0 L 0 480 L 1280 480 L 1280 0 z" fill="#FFFFFF" fill-opacity="1.0" stroke="none"/>
  <text x="50" y="468.7" font-family="Helvetica" font-size="10" font-weight="normal" font-style="normal" fill="#000000" fill-opacity="1">Average per-element processing time over input size (bands: min, mean, mean + 2stddev)</text>
  <a xlink:href="https://github.com/apple/swift-collections-benchmark"><text x="1107" y="468.7" font-family="Helvetica" font-size="10" font-weight="normal" font-style="normal" fill="#000000" fill-opacity="1">swift-collections-benchmark</text></a>
  <path d="M 50 9 L 50 441" fill="none" stroke-width="0.75" stroke="#000000" stroke-opacity="0.49804" stroke-linecap="butt" stroke-linejoin="round"/>
  <text x="47" y="453.7" font-family="Helvetica" font-size="10" font-weight="normal" font-style="normal" fill="#000000" fill-opacity="1">1</text>
  <path d="M 109 9 L 109 441" fill="none" stroke-width="0.75" stroke="#000000" stroke-opacity="0.49804" stroke-linecap="butt" stroke-linejoin="round"/>
  <text x="106" y="453.7" font-family="Helvetica" font-size="10" font-weight="normal" font-style="normal" fill="#000000" fill-opacity="1">2</text>
  <path d="M 168 9 L 168 441" fill="none" stroke-width="0.75" stroke="#000000" stroke-opacity="0.49804" stroke-linecap="butt" stroke-linejoin="round"/>
  <text x="165" y="453.7" font-family="Helvetica" font-size="10" font-weight="normal" font-style="normal" fill="#000000" fill-opacity="1">4</text>
  <path d="M 227 9 L 227 441" fill="none" stroke-width="0.75" stroke="#000000" stroke-opacity="0.49804" stroke-linecap="butt" stroke-linejoin="round"/>
  <text x="224" y="453.7" font-family="Helvetica" font-size="10" font-weight="normal" font-style="normal" fill="#000000" fill-opacity="1">8</text>
  <path d="M 286 9 L 286 441" fill="none" stroke-width="0.75" stroke="#000000" stroke-opacity="0.49804" stroke-linecap="butt" stroke-linejoin="round"/>
  <text x="280" y="453.7" font-family="Helvetica" font-size="10" font-weight="normal" font-style="normal" fill="#000000" fill-opacity="1">16</text>
  <path d="M 345 9 L 345 441" fill="none" stroke-width="0.75" stroke="#000000" stroke-opacity="0.49804" stroke-linecap="butt" stroke-linejoin="round"/>
  <text x="339" y="453.7" font-family="Helvetica" font-size="10" font-weight="normal" font-style="normal" fill="#000000" fill-opacity="1">32</text>
  <path d="M 404 9 L 404 441" fill="none" stroke-width="0.75" stroke="#000000" stroke-opacity="0.49804" stroke-linecap="butt" stroke-linejoin="round"/>
  <text x="398" y="453.7" font-family="Helvetica" font-size="10" font-weight="normal" font-style="normal" fill="#000000" fill-opacity="1">64</text>
  <path d="M 463 9 L 463 441" fill="none" stroke-width="0.75" stroke="#000000" stroke-opacity="0.49804" stroke-linecap="butt" stroke-linejoin="round"/>
  <text x="454.5" y="453.7" font-family="Helvetica" font-size="10" font-weight="normal" font-style="normal" fill="#000000" fill-opacity="1">128</text>
  <path d="M 522 9 L 522 441" fill="none" stroke-width="0.75" stroke="#000000" stroke-opacity="0.49804" stroke-linecap="butt" stroke-linejoin="round"/>
  <text x="513.5" y="453.7" font-family="Helvetica" font-size="10" font-weight="normal" font-style="normal" fill="#000000" fill-opacity="1">256</text>
  <path d="M 581 9 L 581 441" fill="none" stroke-width="0.75" stroke="#000000" stroke-opacity="0.49804" stroke-linecap="butt" stroke-linejoin="round"/>
  <text x="572.5" y="453.7" font-family="Helvetica" font-size="10" font-weight="normal" font-style="normal" fill="#000000" fill-opacity="1">512</text>
  <path d="M 640 9 L 640 441" fill="none" stroke-width="0.75" stroke="#000000" stroke-opacity="0.49804" stroke-linecap="butt" stroke-linejoin="round"/>
  <text x="634.5" y="453.7" font-family="Helvetica" font-size="10" font-weight="normal" font-style="normal" fill="#000000" fill-opacity="1">1k</text>
  <path d="M 699 9 L 699 441" fill="none" stroke-width="0.75" stroke="#000000" stroke-opacity="0.49804" stroke-linecap="butt" stroke-linejoin="round"/>
  <text x="693.5" y="453.7" font-family="Helvetica" font-size="10" font-weight="normal" font-style="normal" fill="#000000" fill-opacity="1">2k</text>
  <path d="M 758 9 L 758 441" fill="none" stroke-width="0.75" stroke="#000000" stroke-opacity="0.49804" stroke-linecap="butt" stroke-linejoin="round"/>
  <text x="752.5" y="453.7" font-family="Helvetica" font-size="10" font-weight="normal" font-style="normal" fill="#000000" fill-opacity="1">4k</text>
  <path d="M 817 9 L 817 441" fill="none" stroke-width="0.75" stroke="#000000" stroke-opacity="0.49804" stroke-linecap="butt" stroke-linejoin="round"/>
  <text x="811.5" y="453.7" font-family="Helvetica" font-size="10" font-weight="normal" font-style="normal" fill="#000000" fill-opacity="1">8k</text>
  <path d="M 876 9 L 876 441" fill="none" stroke-width="0.75" stroke="#000000" stroke-opacity="0.49804" stroke-linecap="butt" stroke-linejoin="round"/>
  <text x="867.5" y="453.7" font-family="Helvetica" font-size="10" font-weight="normal" font-style="normal" fill="#000000" fill-opacity="1">16k</text>
  <path d="M 935 9 L 935 441" fill="none" stroke-width="0.75" stroke="#000000" stroke-opacity="0.49804" stroke-linecap="butt" stroke-linejoin="round"/>
  <text x="926.5" y="453.7" font-family="Helvetica" font-size="10" font-weight="normal" font-style="normal" fill="#000000" fill-opacity="1">32k</text>
  <path d="M 994 9 L 994 441" fill="none" stroke-width="0.75" stroke="#000000" stroke-opacity="0.49804" stroke-linecap="butt" stroke-linejoin="round"/>
  <text x="985.5" y="453.7" font-family="Helvetica" font-size="10" font-weight="normal" font-style="normal" fill="#000000" fill-opacity="1">64k</text>
  <path d="M 1053 9 L 1053 441" fill="none" stroke-width="0.75" stroke="#000000" stroke-opacity="0.49804" stroke-linecap="butt" stroke-linejoin="round"/>
  <text x="1042" y="453.7" font-family="Helvetica" font-size="10" font-weight="normal" font-style="normal" fill="#000000" fill-opacity="1">128k</text>
  <path d="M 1112 9 L 1112 441" fill="none" stroke-width="0.75" stroke="#000000" stroke-opacity="0.49804" stroke-linecap="butt" stroke-linejoin="round"/>
  <text x="1101" y="453.7" font-family="Helvetica" font-size="10" font-weight="normal" font-style="normal" fill="#000000" fill-opacity="1">256k</text>
  <path d="M 1171 9 L 1171 441" fill="none" stroke-width="0.75" stroke="#000000" stroke-opacity="0.49804" stroke-linecap="butt" stroke-linejoin="round"/>
  <text x="1160" y="453.7" font-family="Helvetica" font-size="10" font-weight="normal" font-style="normal" fill="#000000" fill-opacity="1">512k</text>
  <path d="M 1230 9 L 1230 441" fill="none" stroke-width="0.75" stroke="#000000" stroke-opacity="0.49804" stroke-linecap="butt" stroke-linejoin="round"/>
  <text x="1223" y="453.7" font-family="Helvetica" font-size="10" font-weight="normal" font-style="normal" fill="#000000" fill-opacity="1">1M</text>
  <path d="M 50 441 L 1230 441" fill="none" stroke-width="0.75" stroke="#000000" stroke-opacity="0.49804" stroke-linecap="butt" stroke-linejoin="round"/>
  <text x="27" y="442.7" font-family="Helvetica" font-size="10" font-weight="normal" font-style="normal" fill="#000000" fill-opacity="1">1 ns</text>
  <text x="1236" y="442.7" font-family="Helvetica" font-size="10" font-weight="normal" font-style="normal" fill="#000000" fill-opacity="1">1 ns</text>
  <path d="M 50 354.6 L 1230 354.6" fill="none" stroke-width="0.75" stroke="#000000" stroke-opacity="0.49804" stroke-linecap="butt" stroke-linejoin="round"/>
  <text x="21" y="356.3" font-family="Helvetica" font-size="10" font-weight="normal" font-style="normal" fill="#000000" fill-opacity="1">10 ns</text>
  <text x="1236" y="356.3" font-family="Helvetica" font-size="10" font-weight="normal" font-style="normal" fill="#000000" fill-opacity="1">10 ns</text>
  <path d="M 50 268.2 L 1230 268.2" fill="none" stroke-width="0.75" stroke="#000000" stroke-opacity="0.49804" stroke-linecap="butt" stroke-linejoin="round"/>
  <text x="16" y="269.9" font-family="Helvetica" font-size="10" font-weight="normal" font-style="normal" fill="#000000" fill-opacity="1">100 ns</text>
  <text x="1236" y="269.9" font-family="Helvetica" font-size="10" font-weight="normal" font-style="normal" fill="#000000" fill-opacity="1">100 ns</text>
  <path d="M 50 181.8 L 1230 181.8" fill="none" stroke-width="0.75" stroke="#000000" stroke-opacity="0.49804" stroke-linecap="butt" stroke-linejoin="round"/>
  <text x="26" y="183.5" font-family="Helvetica" font-size="10" font-weight="normal" font-style="normal" fill="#000000" fill-opacity="1">1 µs</text>
  <text x="1236" y="183.5" font-family="Helvetica" font-size="10" font-weight="normal" font-style="normal" fill="#000000" fill-opacity="1">1 µs</text>
  <path d="M 50 95.4 L 1230 95.4" fill="none" stroke-width="0.75" stroke="#000000" stroke-opacity="0.49804" stroke-linecap="butt" stroke-linejoin="round"/>
  <text x="21" y="97.1" font-family="Helvetica" font-size="10" font-weight="normal" font-style="normal" fill="#000000" fill-opacity="1">10 µs</text>
  <text x="1236" y="97.1" font-family="Helvetica" font-size="10" font-weight="normal" font-style="normal" fill="#000000" fill-opacity="1">10 µs</text>
  <path d="M 50 9 L 1230 9" fill="none" stroke-width="0.75" stroke="#000000" stroke-opacity="0.49804" stroke-linecap="butt" stroke-linejoin="round"/>
  <text x="15" y="10.7" font-family="Helvetica" font-size="10" font-weight="normal" font-style="normal" fill="#000000" fill-opacity="1">100 µs</text>
  <text x="1236" y="10.7" font-family="Helvetica" font-size="10" font-weight="normal" font-style="normal" fill="#000000" fill-opacity="1">100 µs</text>
  <path d="M 50 414.99 L 1230 414.99" fill="none" stroke-width="0.5" stroke="#000000" stroke-opacity="0.25882" stroke-linecap="butt" stroke-linejoin="round" stroke-dasharray="6 3" stroke-dashoffset="0"/>
  <path d="M 50 388.98 L 1230 388.98" fill="none" stroke-width="0.5" stroke="#000000" stroke-opacity="0.25882" stroke-linecap="butt" stroke-linejoin="round" stroke-dasharray="6 3" stroke-dashoffset="0"/>
  <path d="M 50 362.97 L 1230 362.97" fill="none" stroke-width="0.5" stroke="#000000" stroke-opacity="0.25882" stroke-linecap="butt" stroke-linejoin="round" stroke-dasharray="6 3" stroke-dashoffset="0"/>
  <path d="M 50 336.96 L 1230 336.96" fill="none" stroke-width="0.5" stroke="#000000" stroke-opacity="0.25882" stroke-linecap="butt" stroke-linejoin="round" stroke-dasharray="6 3" stroke-dashoffset="0"/>
  <path d="M 50 310.96 L 1230 310.96" fill="none" stroke-width="0.5" stroke="#000000" stroke-opacity="0.25882" stroke-linecap="butt" stroke-linejoin="round" stroke-dasharray="6 3" stroke-dashoffset="0"/>
  <path d="M 50 284.95 L 1230 284.95" fill="none" stroke-width="0.5" stroke="#000000" stroke-opacity="0.25882" stroke-linecap="butt" stroke-linejoin="round" stroke-dasharray="6 3" stroke-dashoffset="0"/>
  <path d="M 50 258.94 L 1230 258.94" fill="none" stroke-width="0.5" stroke="#000000" stroke-opacity="0.25882" stroke-linecap="butt" stroke-linejoin="round" stroke-dasharray="6 3" stroke-dashoffset="0"/>
  <path d="M 50 232.93 L 1230 232.93" fill="none" stroke-width="0.5" stroke="#000000" stroke-opacity="0.25882" stroke-linecap="butt" stroke-linejoin="round" stroke-dasharray="6 3" stroke-dashoffset="0"/>
  <path d="M 50 206.92 L 1230 206.92" fill="none" stroke-width="0.5" stroke="#000000" stroke-opacity="0.25882" stroke-linecap="butt" stroke-linejoin="round" stroke-dasharray="6 3" stroke-dashoffset="0"/>
  <path d="M 50 180.91 L 1230 180.91" fill="none" stroke-width="0.5" stroke="#000000" stroke-opacity="0.25882" stroke-linecap="butt" stroke-linejoin="round" stroke-dasharray="6 3" stroke-dashoffset="0"/>
  <path d="M 50 154.9 L 1230 154.9" fill="none" stroke-width="0.5" stroke="#000000" stroke-opacity="0.25882" stroke-linecap="butt" stroke-linejoin="round" stroke-dasharray="6 3" stroke-dashoffset="0"/>
  <path d="M 50 128.89 L 1230 128.89" fill="none" stroke-width="0.5" stroke="#000000" stroke-opacity="0.25882" stroke-linecap="butt" stroke-linejoin="round" stroke-dasharray="6 3" stroke-dashoffset="0"/>
  <path d="M 50 102.88 L 1230 102.88" fill="none" stroke-width="0.5" stroke="#000000" stroke-opacity="0.25882" stroke-linecap="butt" stroke-linejoin="round" stroke-dasharray="6 3" stroke-dashoffset="0"/>
  <path d="M 50 76.874 L 1230 76.874" fill="none" stroke-width="0.5" stroke="#000000" stroke-opacity="0.25882" stroke-linecap="butt" stroke-linejoin="round" stroke-dasharray="6 3" stroke-dashoffset="0"/>
  <path d="M 50 50.865 L 1230 50.865" fill="none" stroke-width="0.5" stroke="#000000" stroke-opacity="0.25882" stroke-linecap="butt" stroke-linejoin="round" stroke-dasharray="6 3" stroke-dashoffset="0"/>
  <path d="M 50 24.856 L 1230 24.856" fill="none" stroke-width="0.5" stroke="#000000" stroke-opacity="0.25882" stroke-linecap="butt" stroke-linejoin="round" stroke-dasharray="6 3" stroke-dashoffset="0"/>
  <path d="M 74 33 L 74 122 L 406 122 L 406 33 z" fill="#FFFFFF" fill-opacity="1.0" stroke="none"/>
  <clipPath id="clip-0">
    <path d="M 50 9 L 50 441 L 1230 441 L 1230 9 z"/>
  </clipPath>
  <g clip-path="url(#clip-0)">
    <path d="M 50 299.94L 109 326.76L 143.51 341.97L 168 352.77L 186.99 361.14L 202.51 367.18L 215.63 373.77L 227 377.97L 245.99 386.34L 261.51 394.9L 274.63 400.68L 286 405.69L 304.99 412.35L 320.51 419.19L 333.63 385.96L 345 404.38L 363.99 398.24L 379.51 405.09L 392.63 392.59L 404 405.24L 422.99 405.15L 438.51 405.09L 451.63 405.17L 463 397.01L 481.99 404.97L 497.51 405.09L 510.63 405.11L 522 405.12L 540.99 401.64L 556.51 405.09L 569.63 402.63L 581 403.93L 599.99 404.17L 615.51 404.29L 628.63 403.2L 640 403.93L 658.99 403.29L 674.51 403.93L 687.63 403.48L 699 403.67L 717.99 403.93L 733.51 403.74L 746.63 403.76L 758 403.93L 776.99 403.72L 792.51 403.83L 805.63 403.7L 817 403.45L 835.99 403.71L 851.51 403.74L 864.63 403.69L 876 402.43L 894.99 403.68L 910.51 402.44L 923.63 403.79L 935 403.72L 953.99 403.49L 969.51 403.74L 982.63 403.77L 994 403.68L 1013 403.18L 1028.5 403.75L 1041.6 403.75L 1053 399.48L 1072 403.77L 1087.5 403.05L 1100.6 403.39L 1112 403.75L 1131 403.65L 1146.5 399.43L 1159.6 403.38L 1171 401.25L 1190 403.52L 1205.5 403.09L 1218.6 403.02L 1230 403.61L 1230 403.79L 1218.6 403.76L 1205.5 403.72L 1190 403.7L 1171 403.66L 1159.6 403.69L 1146.5 403.67L 1131 403.89L 1112 403.76L 1100.6 403.75L 1087.5 403.77L 1072 403.77L 1053 403.77L 1041.6 403.77L 1028.5 403.77L 1013 403.76L 994 403.87L 982.63 403.77L 969.51 403.77L 953.99 403.65L 935 403.79L 923.63 403.79L 910.51 403.77L 894.99 403.79L 876 403.83L 864.63 403.85L 851.51 403.74L 835.99 403.82L 817 403.86L 805.63 403.85L 792.51 403.84L 776.99 403.93L 758 403.93L 746.63 403.77L 733.51 403.75L 717.99 403.93L 699 404.22L 687.63 404.09L 674.51 403.93L 658.99 404.17L 640 403.93L 628.63 404.42L 615.51 404.32L 599.99 404.17L 581 403.93L 569.63 405.08L 556.51 405.09L 540.99 405.1L 522 405.12L 510.63 405.11L 497.51 405.09L 481.99 405.15L 463 405.12L 451.63 405.17L 438.51 405.09L 422.99 405.15L 404 405.24L 392.63 410.87L 379.51 405.09L 363.99 398.24L 345 405.24L 333.63 426.69L 320.51 420.91L 304.99 414.06L 286 405.69L 274.63 400.68L 261.51 394.9L 245.99 388.06L 227 379.68L 215.63 373.77L 202.51 368.89L 186.99 361.14L 168 352.77L 143.51 341.97L 109 326.76L 50 301.66" fill="#FFCC00" fill-opacity="0.30196078431372547" stroke="none"/>
    <path d="M 50 300.75L 109 325.95L 143.51 341.17L 168 351.96L 186.99 360.33L 202.51 367.98L 215.63 373.77L 227 378.78L 245.99 386.34L 261.51 394.9L 274.63 400.68L 286 404.79L 304.99 412.35L 320.51 380.46L 333.63 400.23L 345 405.24L 363.99 398.24L 379.51 405.09L 392.63 400.23L 404 404.81L 422.99 405.15L 438.51 405.09L 451.63 405.04L 463 405.12L 481.99 404.97L 497.51 405.09L 510.63 404.98L 522 400.89L 540.99 403.26L 556.51 403.51L 569.63 403.78L 581 403.93L 599.99 402.46L 615.51 402.88L 628.63 403.75L 640 403.93L 658.99 403.69L 674.51 403.21L 687.63 403.77L 699 403.93L 717.99 403.5L 733.51 403.57L 746.63 403.77L 758 403.66L 776.99 403.81L 792.51 403.74L 805.63 403.7L 817 403.79L 835.99 403.76L 851.51 403.65L 864.63 403.69L 876 402.45L 894.99 403.74L 910.51 402.44L 923.63 403.71L 935 403.74L 953.99 403.78L 969.51 403.73L 982.63 403.77L 994 403.75L 1013 403.75L 1028.5 403.76L 1041.6 403.15L 1053 399.47L 1072 403.61L 1087.5 403.34L 1100.6 403.44L 1112 403.49L 1131 403.54L 1146.5 399.89L 1159.6 403.48L 1171 401.44L 1190 403.42L 1205.5 403.43L 1218.6 403.63L 1230 403.37L 1230 403.76L 1218.6 403.76L 1205.5 403.71L 1190 403.65L 1171 403.76L 1159.6 403.76L 1146.5 403.58L 1131 403.76L 1112 403.76L 1100.6 403.76L 1087.5 403.75L 1072 403.75L 1053 403.76L 1041.6 403.76L 1028.5 403.76L 1013 403.76L 994 403.76L 982.63 403.77L 969.51 403.78L 953.99 403.78L 935 403.77L 923.63 403.79L 910.51 403.77L 894.99 403.79L 876 403.65L 864.63 403.77L 851.51 403.74L 835.99 403.76L 817 403.79L 805.63 403.85L 792.51 403.74L 776.99 403.82L 758 403.93L 746.63 403.77L 733.51 403.93L 717.99 403.93L 699 403.93L 687.63 403.77L 674.51 403.93L 658.99 403.71L 640 403.93L 628.63 403.78L 615.51 404.32L 599.99 404.15L 581 403.93L 569.63 403.78L 556.51 403.58L 540.99 403.26L 522 405.07L 510.63 405.11L 497.51 405.09L 481.99 405.15L 463 405.12L 451.63 405.04L 438.51 405.09L 422.99 405.15L 404 405.24L 392.63 400.23L 379.51 405.09L 363.99 398.24L 345 405.24L 333.63 400.23L 320.51 420L 304.99 414.06L 286 404.79L 274.63 400.68L 261.51 394.9L 245.99 388.06L 227 378.78L 215.63 373.77L 202.51 367.98L 186.99 362.05L 168 353.67L 143.51 342.88L 109 327.66L 50 300.75" fill="#28CD41" fill-opacity="0.30196078431372547" stroke="none"/>
    <path d="M 50 299.94L 109 267.2L 143.51 281.6L 168 280.01L 186.99 278.99L 202.51 269.45L 215.63 268.1L 227 267.01L 245.99 271.64L 261.51 272.14L 274.63 257.04L 286 267.87L 304.99 267.65L 320.51 264.99L 333.63 266.23L 345 265.9L 363.99 261.84L 379.51 267.36L 392.63 258.02L 404 264.17L 422.99 263.57L 438.51 260.89L 451.63 260.22L 463 258.18L 481.99 261.38L 497.51 257.03L 510.63 254.5L 522 256.19L 540.99 255.78L 556.51 250.35L 569.63 255.51L 581 255.37L 599.99 254.67L 615.51 250.86L 628.63 249.81L 640 253.53L 658.99 249.2L 674.51 251.23L 687.63 248.27L 699 244.21L 717.99 245.99L 733.51 248.61L 746.63 245.4L 758 247.84L 776.99 246.82L 792.51 243.1L 805.63 245.06L 817 243.4L 835.99 241.58L 851.51 240.07L 864.63 239.02L 876 241.78L 894.99 239.55L 910.51 241.28L 923.63 239.68L 935 240.01L 953.99 239.49L 969.51 240.22L 982.63 239.95L 994 237.99L 1013 236.42L 1028.5 235.46L 1041.6 234.28L 1053 235.18L 1072 235.65L 1087.5 235.17L 1100.6 234.45L 1112 232.64L 1131 234.11L 1146.5 231.76L 1159.6 231.67L 1171 233.2L 1190 231.94L 1205.5 230.97L 1218.6 230.47L 1230 228.33L 1230 230.99L 1218.6 233.15L 1205.5 232.67L 1190 233.6L 1171 233.23L 1159.6 235.03L 1146.5 234.21L 1131 234.58L 1112 236.63L 1100.6 236.67L 1087.5 235.97L 1072 237.46L 1053 238.18L 1041.6 237.45L 1028.5 238.41L 1013 239.12L 994 240.03L 982.63 240.14L 969.51 240.43L 953.99 239.91L 935 240.96L 923.63 241.53L 910.51 242.49L 894.99 242.5L 876 242.77L 864.63 244.12L 851.51 244.57L 835.99 246.22L 817 245.88L 805.63 247.56L 792.51 249.35L 776.99 246.94L 758 248.95L 746.63 249.19L 733.51 252.77L 717.99 248.84L 699 251.41L 687.63 252.81L 674.51 252.18L 658.99 254.73L 640 254.01L 628.63 254.67L 615.51 253.96L 599.99 255.13L 581 255.41L 569.63 257.82L 556.51 257.06L 540.99 257.22L 522 259.2L 510.63 261.08L 497.51 261.83L 481.99 262.16L 463 264.39L 451.63 261.54L 438.51 264.1L 422.99 266.67L 404 264.17L 392.63 267.21L 379.51 268.59L 363.99 263.78L 345 269.6L 333.63 268.31L 320.51 268.59L 304.99 272.32L 286 273.89L 274.63 275.03L 261.51 275.04L 245.99 275.01L 227 275.02L 215.63 277.87L 202.51 275.04L 186.99 278.99L 168 280.01L 143.51 281.94L 109 285.84L 50 301.66" fill="#007AFF" fill-opacity="0.30196078431372547" stroke="none"/>
    <path d="M 50 299.94L 109 327.66L 143.51 341.97L 168 351.96L 186.99 361.14L 202.51 367.18L 215.63 373.77L 227 379.68L 245.99 388.06L 261.51 394.9L 274.63 398.97L 286 379.23L 304.99 387.6L 320.51 379.08L 333.63 384.86L 345 379.23L 363.99 357.84L 379.51 368.32L 392.63 369.65L 404 364.13L 422.99 363.86L 438.51 359.92L 451.63 354.58L 463 351L 481.99 350.33L 497.51 344.16L 510.63 339.29L 522 317.32L 540.99 326.73L 556.51 314.24L 569.63 316.5L 581 312.95L 599.99 292.07L 615.51 301.25L 628.63 295.79L 640 286.33L 658.99 277.36L 674.51 269.92L 687.63 265.31L 699 264.13L 717.99 255.89L 733.51 246.15L 746.63 242.33L 758 238.63L 776.99 230.04L 792.51 223.14L 805.63 217.26L 817 212.19L 835.99 203.58L 851.51 195.82L 864.63 190.39L 876 184.26L 894.99 173.11L 910.51 163.75L 923.63 156.2L 935 150.45L 953.99 140.3L 969.51 133.56L 982.63 127.39L 994 122.19L 1013 113.26L 1028.5 106.51L 1041.6 100.72L 1053 95.611L 1072 86.678L 1072 87.322L 1053 95.682L 1041.6 100.77L 1028.5 106.61L 1013 113.48L 994 122.27L 982.63 127.49L 969.51 133.59L 953.99 140.93L 935 150.46L 923.63 156.47L 910.51 163.81L 894.99 173.33L 876 185.83L 864.63 190.92L 851.51 196.81L 835.99 203.75L 817 212.23L 805.63 217.26L 792.51 223.17L 776.99 230.04L 758 238.65L 746.63 243.34L 733.51 248.15L 717.99 255.94L 699 265.05L 687.63 270.44L 674.51 275L 658.99 281.23L 640 291.01L 628.63 295.93L 615.51 301.44L 599.99 305.53L 581 315.54L 569.63 320.05L 556.51 324.24L 540.99 329.99L 522 337.46L 510.63 341.12L 497.51 346.62L 481.99 350.37L 463 355.49L 451.63 357.31L 438.51 359.92L 422.99 363.86L 404 370.76L 392.63 369.65L 379.51 368.32L 363.99 379.14L 345 379.23L 333.63 384.86L 320.51 379.08L 304.99 387.6L 286 379.23L 274.63 400.68L 261.51 394.9L 245.99 388.06L 227 379.68L 215.63 373.77L 202.51 368.89L 186.99 361.14L 168 353.67L 143.51 341.97L 109 327.66L 50 301.66" fill="#FF3B30" fill-opacity="0.30196078431372547" stroke="none"/>
    <path d="M 50 301.2L 109 326.76L 143.51 341.97L 168 352.77L 186.99 361.14L 202.51 368.43L 215.63 373.77L 227 379.23L 245.99 387.6L 261.51 394.9L 274.63 400.68L 286 405.69L 304.99 413.61L 320.51 420.45L 333.63 411.17L 345 405.01L 363.99 398.24L 379.51 405.09L 392.63 405.17L 404 405.24L 422.99 405.15L 438.51 405.09L 451.63 405.17L 463 402.83L 481.99 405.1L 497.51 405.09L 510.63 405.11L 522 405.12L 540.99 404.17L 556.51 405.09L 569.63 404.42L 581 403.93L 599.99 404.17L 615.51 404.32L 628.63 404.1L 640 403.93L 658.99 403.94L 674.51 403.93L 687.63 403.93L 699 404.08L 717.99 403.93L 733.51 403.74L 746.63 403.77L 758 403.93L 776.99 403.88L 792.51 403.84L 805.63 403.81L 817 403.75L 835.99 403.79L 851.51 403.74L 864.63 403.81L 876 403.45L 894.99 403.76L 910.51 403.41L 923.63 403.79L 935 403.77L 953.99 403.61L 969.51 403.76L 982.63 403.77L 994 403.82L 1013 403.61L 1028.5 403.77L 1041.6 403.76L 1053 402.6L 1072 403.77L 1087.5 403.58L 1100.6 403.66L 1112 403.76L 1131 403.83L 1146.5 402.52L 1159.6 403.61L 1171 403.02L 1190 403.65L 1205.5 403.55L 1218.6 403.57L 1230 403.74" fill="none" stroke-width="4" stroke="#FFCC00" stroke-opacity="1" stroke-linecap="round" stroke-linejoin="round"/>
    <path d="M 50 300.75L 109 327.21L 143.51 342.42L 168 353.22L 186.99 361.59L 202.51 367.98L 215.63 373.77L 227 378.78L 245.99 387.6L 261.51 394.9L 274.63 400.68L 286 404.79L 304.99 413.61L 320.51 405.09L 333.63 400.23L 345 405.24L 363.99 398.24L 379.51 405.09L 392.63 400.23L 404 405.12L 422.99 405.15L 438.51 405.09L 451.63 405.04L 463 405.12L 481.99 405.1L 497.51 405.09L 510.63 405.08L 522 403.93L 540.99 403.26L 556.51 403.56L 569.63 403.78L 581 403.93L 599.99 403.7L 615.51 403.94L 628.63 403.77L 640 403.93L 658.99 403.7L 674.51 403.74L 687.63 403.77L 699 403.93L 717.99 403.82L 733.51 403.84L 746.63 403.77L 758 403.86L 776.99 403.82L 792.51 403.74L 805.63 403.81L 817 403.79L 835.99 403.76L 851.51 403.72L 864.63 403.75L 876 403.33L 894.99 403.78L 910.51 403.41L 923.63 403.77L 935 403.76L 953.99 403.78L 969.51 403.77L 982.63 403.77L 994 403.76L 1013 403.76L 1028.5 403.76L 1041.6 403.6L 1053 402.59L 1072 403.71L 1087.5 403.64L 1100.6 403.68L 1112 403.69L 1131 403.7L 1146.5 402.58L 1159.6 403.69L 1171 403.14L 1190 403.59L 1205.5 403.64L 1218.6 403.73L 1230 403.66" fill="none" stroke-width="4" stroke="#28CD41" stroke-opacity="1" stroke-linecap="round" stroke-linejoin="round"/>
    <path d="M 50 301.2L 109 280.01L 143.51 281.85L 168 280.01L 186.99 278.99L 202.51 273.5L 215.63 275.06L 227 272.76L 245.99 274.1L 261.51 274.26L 274.63 269.44L 286 272.22L 304.99 271.04L 320.51 267.62L 333.63 267.75L 345 268.59L 363.99 263.26L 379.51 268.27L 392.63 264.58L 404 264.17L 422.99 265.83L 438.51 263.23L 451.63 261.19L 463 262.67L 481.99 261.96L 497.51 260.52L 510.63 259.24L 522 258.39L 540.99 256.84L 556.51 255.19L 569.63 257.2L 581 255.4L 599.99 255.01L 615.51 253.13L 628.63 253.34L 640 253.89L 658.99 253.2L 674.51 251.93L 687.63 251.57L 699 249.4L 717.99 248.08L 733.51 251.64L 746.63 248.16L 758 248.65L 776.99 246.91L 792.51 247.61L 805.63 246.89L 817 245.22L 835.99 244.95L 851.51 243.34L 864.63 242.72L 876 242.51L 894.99 241.71L 910.51 242.17L 923.63 241.04L 935 240.71L 953.99 239.8L 969.51 240.38L 982.63 240.09L 994 239.49L 1013 238.4L 1028.5 237.61L 1041.6 236.6L 1053 237.37L 1072 236.98L 1087.5 235.76L 1100.6 236.07L 1112 235.55L 1131 234.46L 1146.5 233.56L 1159.6 234.13L 1171 233.22L 1190 233.16L 1205.5 232.22L 1218.6 232.43L 1230 230.27" fill="none" stroke-width="4" stroke="#007AFF" stroke-opacity="1" stroke-linecap="round" stroke-linejoin="round"/>
    <path d="M 50 301.2L 109 327.66L 143.51 341.97L 168 353.22L 186.99 361.14L 202.51 368.43L 215.63 373.77L 227 379.68L 245.99 388.06L 261.51 394.9L 274.63 400.23L 286 379.23L 304.99 387.6L 320.51 379.08L 333.63 384.86L 345 379.23L 363.99 372.31L 379.51 368.32L 392.63 369.65L 404 368.92L 422.99 363.86L 438.51 359.92L 451.63 356.58L 463 354.26L 481.99 350.36L 497.51 345.96L 510.63 340.63L 522 331.08L 540.99 329.11L 556.51 321.36L 569.63 319.09L 581 314.85L 599.99 301.52L 615.51 301.39L 628.63 295.89L 640 289.73L 658.99 280.18L 674.51 273.61L 687.63 269.03L 699 264.81L 717.99 255.92L 733.51 247.62L 746.63 243.07L 758 238.64L 776.99 230.04L 792.51 223.16L 805.63 217.26L 817 212.22L 835.99 203.7L 851.51 196.55L 864.63 190.78L 876 185.41L 894.99 173.28L 910.51 163.79L 923.63 156.4L 935 150.46L 953.99 140.77L 969.51 133.58L 982.63 127.47L 994 122.25L 1013 113.42L 1028.5 106.58L 1041.6 100.76L 1053 95.664L 1072 87.153" fill="none" stroke-width="4" stroke="#FF3B30" stroke-opacity="1" stroke-linecap="round" stroke-linejoin="round"/>
    <path d="M 50 301.2L 109 326.76L 143.51 341.97L 168 352.77L 186.99 361.14L 202.51 368.43L 215.63 373.77L 227 379.23L 245.99 387.6L 261.51 394.9L 274.63 400.68L 286 405.69L 304.99 413.61L 320.51 420.45L 333.63 411.17L 345 405.01L 363.99 398.24L 379.51 405.09L 392.63 405.17L 404 405.24L 422.99 405.15L 438.51 405.09L 451.63 405.17L 463 402.83L 481.99 405.1L 497.51 405.09L 510.63 405.11L 522 405.12L 540.99 404.17L 556.51 405.09L 569.63 404.42L 581 403.93L 599.99 404.17L 615.51 404.32L 628.63 404.1L 640 403.93L 658.99 403.94L 674.51 403.93L 687.63 403.93L 699 404.08L 717.99 403.93L 733.51 403.74L 746.63 403.77L 758 403.93L 776.99 403.88L 792.51 403.84L 805.63 403.81L 817 403.75L 835.99 403.79L 851.51 403.74L 864.63 403.81L 876 403.45L 894.99 403.76L 910.51 403.41L 923.63 403.79L 935 403.77L 953.99 403.61L 969.51 403.76L 982.63 403.77L 994 403.82L 1013 403.61L 1028.5 403.77L 1041.6 403.76L 1053 402.6L 1072 403.77L 1087.5 403.58L 1100.6 403.66L 1112 403.76L 1131 403.83L 1146.5 402.52L 1159.6 403.61L 1171 403.02L 1190 403.65L 1205.5 403.55L 1218.6 403.57L 1230 403.74" fill="none" stroke-width="0.5" stroke="#000000" stroke-opacity="0.30196" stroke-linecap="round" stroke-linejoin="round"/>
    <path d="M 50 300.75L 109 327.21L 143.51 342.42L 168 353.22L 186.99 361.59L 202.51 367.98L 215.63 373.77L 227 378.78L 245.99 387.6L 261.51 394.9L 274.63 400.68L 286 404.79L 304.99 413.61L 320.51 405.09L 333.63 400.23L 345 405.24L 363.99 398.24L 379.51 405.09L 392.63 400.23L 404 405.12L 422.99 405.15L 438.51 405.09L 451.63 405.04L 463 405.12L 481.99 405.1L 497.51 405.09L 510.63 405.08L 522 403.93L 540.99 403.26L 556.51 403.56L 569.63 403.78L 581 403.93L 599.99 403.7L 615.51 403.94L 628.63 403.77L 640 403.93L 658.99 403.7L 674.51 403.74L 687.63 403.77L 699 403.93L 717.99 403.82L 733.51 403.84L 746.63 403.77L 758 403.86L 776.99 403.82L 792.51 403.74L 805.63 403.81L 817 403.79L 835.99 403.76L 851.51 403.72L 864.63 403.75L 876 403.33L 894.99 403.78L 910.51 403.41L 923.63 403.77L 935 403.76L 953.99 403.78L 969.51 403.77L 982.63 403.77L 994 403.76L 1013 403.76L 1028.5 403.76L 1041.6 403.6L 1053 402.59L 1072 403.71L 1087.5 403.64L 1100.6 403.68L 1112 403.69L 1131 403.7L 1146.5 402.58L 1159.6 403.69L 1171 403.14L 1190 403.59L 1205.5 403.64L 1218.6 403.73L 1230 403.66" fill="none" stroke-width="0.5" stroke="#000000" stroke-opacity="0.30196" stroke-linecap="round" stroke-linejoin="round"/>
    <path d="M 50 301.2L 109 280.01L 143.51 281.85L 168 280.01L 186.99 278.99L 202.51 273.5L 215.63 275.06L 227 272.76L 245.99 274.1L 261.51 274.26L 274.63 269.44L 286 272.22L 304.99 271.04L 320.51 267.62L 333.63 267.75L 345 268.59L 363.99 263.26L 379.51 268.27L 392.63 264.58L 404 264.17L 422.99 265.83L 438.51 263.23L 451.63 261.19L 463 262.67L 481.99 261.96L 497.51 260.52L 510.63 259.24L 522 258.39L 540.99 256.84L 556.51 255.19L 569.63 257.2L 581 255.4L 599.99 255.01L 615.51 253.13L 628.63 253.34L 640 253.89L 658.99 253.2L 674.51 251.93L 687.63 251.57L 699 249.4L 717.99 248.08L 733.51 251.64L 746.63 248.16L 758 248.65L 776.99 246.91L 792.51 247.61L 805.63 246.89L 817 245.22L 835.99 244.95L 851.51 243.34L 864.63 242.72L 876 242.51L 894.99 241.71L 910.51 242.17L 923.63 241.04L 935 240.71L 953.99 239.8L 969.51 240.38L 982.63 240.09L 994 239.49L 1013 238.4L 1028.5 237.61L 1041.6 236.6L 1053 237.37L 1072 236.98L 1087.5 235.76L 1100.6 236.07L 1112 235.55L 1131 234.46L 1146.5 233.56L 1159.6 234.13L 1171 233.22L 1190 233.16L 1205.5 232.22L 1218.6 232.43L 1230 230.27" fill="none" stroke-width="0.5" stroke="#000000" stroke-opacity="0.30196" stroke-linecap="round" stroke-linejoin="round"/>
    <path d="M 50 301.2L 109 327.66L 143.51 341.97L 168 353.22L 186.99 361.14L 202.51 368.43L 215.63 373.77L 227 379.68L 245.99 388.06L 261.51 394.9L 274.63 400.23L 286 379.23L 304.99 387.6L 320.51 379.08L 333.63 384.86L 345 379.23L 363.99 372.31L 379.51 368.32L 392.63 369.65L 404 368.92L 422.99 363.86L 438.51 359.92L 451.63 356.58L 463 354.26L 481.99 350.36L 497.51 345.96L 510.63 340.63L 522 331.08L 540.99 329.11L 556.51 321.36L 569.63 319.09L 581 314.85L 599.99 301.52L 615.51 301.39L 628.63 295.89L 640 289.73L 658.99 280.18L 674.51 273.61L 687.63 269.03L 699 264.81L 717.99 255.92L 733.51 247.62L 746.63 243.07L 758 238.64L 776.99 230.04L 792.51 223.16L 805.63 217.26L 817 212.22L 835.99 203.7L 851.51 196.55L 864.63 190.78L 876 185.41L 894.99 173.28L 910.51 163.79L 923.63 156.4L 935 150.46L 953.99 140.77L 969.51 133.58L 982.63 127.47L 994 122.25L 1013 113.42L 1028.5 106.58L 1041.6 100.76L 1053 95.664L 1072 87.153" fill="none" stroke-width="0.5" stroke="#000000" stroke-opacity="0.30196" stroke-linecap="round" stroke-linejoin="round"/>
  </g>
  <path d="M 74 33 L 74 122 L 406 122 L 406 33 z" fill="#FFFFFF" fill-opacity="0.7019607843137254" stroke-width="0.5" stroke="#000000" stroke-opacity="1" stroke-linecap="round" stroke-linejoin="round"/>
  <path d="M 88 52 L 108 52" fill="none" stroke-width="4" stroke="#FF3B30" stroke-opacity="1" stroke-linecap="round" stroke-linejoin="round"/>
  <path d="M 88 52 L 108 52" fill="none" stroke-width="0.5" stroke="#000000" stroke-opacity="0.30196" stroke-linecap="round" stroke-linejoin="round"/>
  <text x="119" y="56.17" font-family="Menlo" font-size="12" font-weight="normal" font-style="normal" fill="#000000" fill-opacity="1">Array&lt;Int&gt; removeFirst</text>
  <path d="M 88 69 L 108 69" fill="none" stroke-width="4" stroke="#007AFF" stroke-opacity="1" stroke-linecap="round" stroke-linejoin="round"/>
  <path d="M 88 69 L 108 69" fill="none" stroke-width="0.5" stroke="#000000" stroke-opacity="0.30196" stroke-linecap="round" stroke-linejoin="round"/>
  <text x="119" y="73.17" font-family="Menlo" font-size="12" font-weight="normal" font-style="normal" fill="#000000" fill-opacity="1">TreeArray&lt;Int&gt; removeFirst</text>
  <path d="M 88 86 L 108 86" fill="none" stroke-width="4" stroke="#28CD41" stroke-opacity="1" stroke-linecap="round" stroke-linejoin="round"/>
  <path d="M 88 86 L 108 86" fill="none" stroke-width="0.5" stroke="#000000" stroke-opacity="0.30196" stroke-linecap="round" stroke-linejoin="round"/>
  <text x="119" y="90.17" font-family="Menlo" font-size="12" font-weight="normal" font-style="normal" fill="#000000" fill-opacity="1">Deque&lt;Int&gt; removeFirst (contiguous)</text>
  <path d="M 88 103 L 108 103" fill="none" stroke-width="4" stroke="#FFCC00" stroke-opacity="1" stroke-linecap="round" stroke-linejoin="round"/>
  <path d="M 88 103 L 108 103" fill="none" stroke-width="0.5" stroke="#000000" stroke-opacity="0.30196" stroke-linecap="round" stroke-linejoin="round"/>
  <text x="119" y="107.17" font-family="Menlo" font-size="12" font-weight="normal" font-style="normal" fill="#000000" fill-opacity="1">Deque&lt;Int&gt; removeFirst (discontiguous)</text>
  <path d="M 50 9 L 50 441 L 1230 441 L 1230 9 z" fill="none" stroke-width="0.5" stroke="#000000" stroke-opacity="1" stroke-linecap="round" stroke-linejoin="round"/>
</svg>
