<!DOCTYPE svg PUBLIC "-//W3C//DTD SVG 1.1//EN" "http://www.w3.org/Graphics/SVG/1.1/DTD/svg11.dtd">
<svg width="1280.0px" height="480.0px" viewBox="0.0 0.0 1280.0 480.0" xmlns="http://www.w3.org/2000/svg" xmlns:xlink="http://www.w3.org/1999/xlink" version="1.1">
  <path d="M 0 0 L 0 480 L 1280 480 L 1280 0 z" fill="#FFFFFF" fill-opacity="1.0" stroke="none"/>
  <text x="50" y="468.7" font-family="Helvetica" font-size="10" font-weight="normal" font-style="normal" fill="#000000" fill-opacity="1">Average per-element processing time over input size (bands: min, mean, mean + 2stddev)</text>
  <a xlink:href="https://github.com/apple/swift-collections-benchmark"><text x="1107" y="468.7" font-family="Helvetica" font-size="10" font-weight="normal" font-style="normal" fill="#000000" fill-opacity="1">swift-collections-benchmark</text></a>
  <path d="M 50 9 L 50 441" fill="none" stroke-width="0.75" stroke="#000000" stroke-opacity="0.49804" stroke-linecap="butt" stroke-linejoin="round"/>
  <text x="47" y="453.7" font-family="Helvetica" font-size="10" font-weight="normal" font-style="normal" fill="#000000" fill-opacity="1">1</text>
  <path d="M 109 9 L 109 441" fill="none" stroke-width="0.75" stroke="#000000" stroke-opacity="0.49804" stroke-linecap="butt" stroke-linejoin="round"/>
  <text x="106" y="453.7" font-family="Helvetica" font-size="10" font-weight="normal" font-style="normal" fill="#000000" fill-opacity="1">2</text>
  <path d="M 168 9 L 168 441" fill="none" stroke-width="0.75" stroke="#000000" stroke-opacity="0.49804" stroke-linecap="butt" stroke-linejoin="round"/>
  <text x="165" y="453.7" font-family="Helvetica" font-size="10" font-weight="normal" font-style="normal" fill="#000000" fill-opacity="1">4</text>
  <path d="M 227 9 L 227 441" fill="none" stroke-width="0.75" stroke="#000000" stroke-opacity="0.49804" stroke-linecap="butt" stroke-linejoin="round"/>
  <text x="224" y="453.7" font-family="Helvetica" font-size="10" font-weight="normal" font-style="normal" fill="#000000" fill-opacity="1">8</text>
  <path d="M 286 9 L 286 441" fill="none" stroke-width="0.75" stroke="#000000" stroke-opacity="0.49804" stroke-linecap="butt" stroke-linejoin="round"/>
  <text x="280" y="453.7" font-family="Helvetica" font-size="10" font-weight="normal" font-style="normal" fill="#000000" fill-opacity="1">16</text>
  <path d="M 345 9 L 345 441" fill="none" stroke-width="0.75" stroke="#000000" stroke-opacity="0.49804" stroke-linecap="butt" stroke-linejoin="round"/>
  <text x="339" y="453.7" font-family="Helvetica" font-size="10" font-weight="normal" font-style="normal" fill="#000000" fill-opacity="1">32</text>
  <path d="M 404 9 L 404 441" fill="none" stroke-width="0.75" stroke="#000000" stroke-opacity="0.49804" stroke-linecap="butt" stroke-linejoin="round"/>
  <text x="398" y="453.7" font-family="Helvetica" font-size="10" font-weight="normal" font-style="normal" fill="#000000" fill-opacity="1">64</text>
  <path d="M 463 9 L 463 441" fill="none" stroke-width="0.75" stroke="#000000" stroke-opacity="0.49804" stroke-linecap="butt" stroke-linejoin="round"/>
  <text x="454.5" y="453.7" font-family="Helvetica" font-size="10" font-weight="normal" font-style="normal" fill="#000000" fill-opacity="1">128</text>
  <path d="M 522 9 L 522 441" fill="none" stroke-width="0.75" stroke="#000000" stroke-opacity="0.49804" stroke-linecap="butt" stroke-linejoin="round"/>
  <text x="513.5" y="453.7" font-family="Helvetica" font-size="10" font-weight="normal" font-style="normal" fill="#000000" fill-opacity="1">256</text>
  <path d="M 581 9 L 581 441" fill="none" stroke-width="0.75" stroke="#000000" stroke-opacity="0.49804" stroke-linecap="butt" stroke-linejoin="round"/>
  <text x="572.5" y="453.7" font-family="Helvetica" font-size="10" font-weight="normal" font-style="normal" fill="#000000" fill-opacity="1">512</text>
  <path d="M 640 9 L 640 441" fill="none" stroke-width="0.75" stroke="#000000" stroke-opacity="0.49804" stroke-linecap="butt" stroke-linejoin="round"/>
  <text x="634.5" y="453.7" font-family="Helvetica" font-size="10" font-weight="normal" font-style="normal" fill="#000000" fill-opacity="1">1k</text>
  <path d="M 699 9 L 699 441" fill="none" stroke-width="0.75" stroke="#000000" stroke-opacity="0.49804" stroke-linecap="butt" stroke-linejoin="round"/>
  <text x="693.5" y="453.7" font-family="Helvetica" font-size="10" font-weight="normal" font-style="normal" fill="#000000" fill-opacity="1">2k</text>
  <path d="M 758 9 L 758 441" fill="none" stroke-width="0.75" stroke="#000000" stroke-opacity="0.49804" stroke-linecap="butt" stroke-linejoin="round"/>
  <text x="752.5" y="453.7" font-family="Helvetica" font-size="10" font-weight="normal" font-style="normal" fill="#000000" fill-opacity="1">4k</text>
  <path d="M 817 9 L 817 441" fill="none" stroke-width="0.75" stroke="#000000" stroke-opacity="0.49804" stroke-linecap="butt" stroke-linejoin="round"/>
  <text x="811.5" y="453.7" font-family="Helvetica" font-size="10" font-weight="normal" font-style="normal" fill="#000000" fill-opacity="1">8k</text>
  <path d="M 876 9 L 876 441" fill="none" stroke-width="0.75" stroke="#000000" stroke-opacity="0.49804" stroke-linecap="butt" stroke-linejoin="round"/>
  <text x="867.5" y="453.7" font-family="Helvetica" font-size="10" font-weight="normal" font-style="normal" fill="#000000" fill-opacity="1">16k</text>
  <path d="M 935 9 L 935 441" fill="none" stroke-width="0.75" stroke="#000000" stroke-opacity="0.49804" stroke-linecap="butt" stroke-linejoin="round"/>
  <text x="926.5" y="453.7" font-family="Helvetica" font-size="10" font-weight="normal" font-style="normal" fill="#000000" fill-opacity="1">32k</text>
  <path d="M 994 9 L 994 441" fill="none" stroke-width="0.75" stroke="#000000" stroke-opacity="0.49804" stroke-linecap="butt" stroke-linejoin="round"/>
  <text x="985.5" y="453.7" font-family="Helvetica" font-size="10" font-weight="normal" font-style="normal" fill="#000000" fill-opacity="1">64k</text>
  <path d="M 1053 9 L 1053 441" fill="none" stroke-width="0.75" stroke="#000000" stroke-opacity="0.49804" stroke-linecap="butt" stroke-linejoin="round"/>
  <text x="1042" y="453.7" font-family="Helvetica" font-size="10" font-weight="normal" font-style="normal" fill="#000000" fill-opacity="1">128k</text>
  <path d="M 1112 9 L 1112 441" fill="none" stroke-width="0.75" stroke="#000000" stroke-opacity="0.49804" stroke-linecap="butt" stroke-linejoin="round"/>
  <text x="1101" y="453.7" font-family="Helvetica" font-size="10" font-weight="normal" font-style="normal" fill="#000000" fill-opacity="1">256k</text>
  <path d="M 1171 9 L 1171 441" fill="none" stroke-width="0.75" stroke="#000000" stroke-opacity="0.49804" stroke-linecap="butt" stroke-linejoin="round"/>
  <text x="1160" y="453.7" font-family="Helvetica" font-size="10" font-weight="normal" font-style="normal" fill="#000000" fill-opacity="1">512k</text>
  <path d="M 1230 9 L 1230 441" fill="none" stroke-width="0.75" stroke="#000000" stroke-opacity="0.49804" stroke-linecap="butt" stroke-linejoin="round"/>
  <text x="1223" y="453.7" font-family="Helvetica" font-size="10" font-weight="normal" font-style="normal" fill="#000000" fill-opacity="1">1M</text>
  <path d="M 50 441 L 1230 441" fill="none" stroke-width="0.75" stroke="#000000" stroke-opacity="0.49804" stroke-linecap="butt" stroke-linejoin="round"/>
  <text x="27" y="442.7" font-family="Helvetica" font-size="10" font-weight="normal" font-style="normal" fill="#000000" fill-opacity="1">1 ns</text>
  <text x="1236" y="442.7" font-family="Helvetica" font-size="10" font-weight="normal" font-style="normal" fill="#000000" fill-opacity="1">1 ns</text>
  <path d="M 50 354.6 L 1230 354.6" fill="none" stroke-width="0.75" stroke="#000000" stroke-opacity="0.49804" stroke-linecap="butt" stroke-linejoin="round"/>
  <text x="21" y="356.3" font-family="Helvetica" font-size="10" font-weight="normal" font-style="normal" fill="#000000" fill-opacity="1">10 ns</text>
  <text x="1236" y="356.3" font-family="Helvetica" font-size="10" font-weight="normal" font-style="normal" fill="#000000" fill-opacity="1">10 ns</text>
  <path d="M 50 268.2 L 1230 268.2" fill="none" stroke-width="0.75" stroke="#000000" stroke-opacity="0.49804" stroke-linecap="butt" stroke-linejoin="round"/>
  <text x="16" y="269.9" font-family="Helvetica" font-size="10" font-weight="normal" font-style="normal" fill="#000000" fill-opacity="1">100 ns</text>
  <text x="1236" y="269.9" font-family="Helvetica" font-size="10" font-weight="normal" font-style="normal" fill="#000000" fill-opacity="1">100 ns</text>
  <path d="M 50 181.8 L 1230 181.8" fill="none" stroke-width="0.75" stroke="#000000" stroke-opacity="0.49804" stroke-linecap="butt" stroke-linejoin="round"/>
  <text x="26" y="183.5" font-family="Helvetica" font-size="10" font-weight="normal" font-style="normal" fill="#000000" fill-opacity="1">1 µs</text>
  <text x="1236" y="183.5" font-family="Helvetica" font-size="10" font-weight="normal" font-style="normal" fill="#000000" fill-opacity="1">1 µs</text>
  <path d="M 50 95.4 L 1230 95.4" fill="none" stroke-width="0.75" stroke="#000000" stroke-opacity="0.49804" stroke-linecap="butt" stroke-linejoin="round"/>
  <text x="21" y="97.1" font-family="Helvetica" font-size="10" font-weight="normal" font-style="normal" fill="#000000" fill-opacity="1">10 µs</text>
  <text x="1236" y="97.1" font-family="Helvetica" font-size="10" font-weight="normal" font-style="normal" fill="#000000" fill-opacity="1">10 µs</text>
  <path d="M 50 9 L 1230 9" fill="none" stroke-width="0.75" stroke="#000000" stroke-opacity="0.49804" stroke-linecap="butt" stroke-linejoin="round"/>
  <text x="15" y="10.7" font-family="Helvetica" font-size="10" font-weight="normal" font-style="normal" fill="#000000" fill-opacity="1">100 µs</text>
  <text x="1236" y="10.7" font-family="Helvetica" font-size="10" font-weight="normal" font-style="normal" fill="#000000" fill-opacity="1">100 µs</text>
  <path d="M 50 414.99 L 1230 414.99" fill="none" stroke-width="0.5" stroke="#000000" stroke-opacity="0.25882" stroke-linecap="butt" stroke-linejoin="round" stroke-dasharray="6 3" stroke-dashoffset="0"/>
  <path d="M 50 388.98 L 1230 388.98" fill="none" stroke-width="0.5" stroke="#000000" stroke-opacity="0.25882" stroke-linecap="butt" stroke-linejoin="round" stroke-dasharray="6 3" stroke-dashoffset="0"/>
  <path d="M 50 362.97 L 1230 362.97" fill="none" stroke-width="0.5" stroke="#000000" stroke-opacity="0.25882" stroke-linecap="butt" stroke-linejoin="round" stroke-dasharray="6 3" stroke-dashoffset="0"/>
  <path d="M 50 336.96 L 1230 336.96" fill="none" stroke-width="0.5" stroke="#000000" stroke-opacity="0.25882" stroke-linecap="butt" stroke-linejoin="round" stroke-dasharray="6 3" stroke-dashoffset="0"/>
  <path d="M 50 310.96 L 1230 310.96" fill="none" stroke-width="0.5" stroke="#000000" stroke-opacity="0.25882" stroke-linecap="butt" stroke-linejoin="round" stroke-dasharray="6 3" stroke-dashoffset="0"/>
  <path d="M 50 284.95 L 1230 284.95" fill="none" stroke-width="0.5" stroke="#000000" stroke-opacity="0.25882" stroke-linecap="butt" stroke-linejoin="round" stroke-dasharray="6 3" stroke-dashoffset="0"/>
  <path d="M 50 258.94 L 1230 258.94" fill="none" stroke-width="0.5" stroke="#000000" stroke-opacity="0.25882" stroke-linecap="butt" stroke-linejoin="round" stroke-dasharray="6 3" stroke-dashoffset="0"/>
  <path d="M 50 232.93 L 1230 232.93" fill="none" stroke-width="0.5" stroke="#000000" stroke-opacity="0.25882" stroke-linecap="butt" stroke-linejoin="round" stroke-dasharray="6 3" stroke-dashoffset="0"/>
  <path d="M 50 206.92 L 1230 206.92" fill="none" stroke-width="0.5" stroke="#000000" stroke-opacity="0.25882" stroke-linecap="butt" stroke-linejoin="round" stroke-dasharray="6 3" stroke-dashoffset="0"/>
  <path d="M 50 180.91 L 1230 180.91" fill="none" stroke-width="0.5" stroke="#000000" stroke-opacity="0.25882" stroke-linecap="butt" stroke-linejoin="round" stroke-dasharray="6 3" stroke-dashoffset="0"/>
  <path d="M 50 154.9 L 1230 154.9" fill="none" stroke-width="0.5" stroke="#000000" stroke-opacity="0.25882" stroke-linecap="butt" stroke-linejoin="round" stroke-dasharray="6 3" stroke-dashoffset="0"/>
  <path d="M 50 128.89 L 1230 128.89" fill="none" stroke-width="0.5" stroke="#000000" stroke-opacity="0.25882" stroke-linecap="butt" stroke-linejoin="round" stroke-dasharray="6 3" stroke-dashoffset="0"/>
  <path d="M 50 102.88 L 1230 102.88" fill="none" stroke-width="0.5" stroke="#000000" stroke-opacity="0.25882" stroke-linecap="butt" stroke-linejoin="round" stroke-dasharray="6 3" stroke-dashoffset="0"/>
  <path d="M 50 76.874 L 1230 76.874" fill="none" stroke-width="0.5" stroke="#000000" stroke-opacity="0.25882" stroke-linecap="butt" stroke-linejoin="round" stroke-dasharray="6 3" stroke-dashoffset="0"/>
  <path d="M 50 50.865 L 1230 50.865" fill="none" stroke-width="0.5" stroke="#000000" stroke-opacity="0.25882" stroke-linecap="butt" stroke-linejoin="round" stroke-dasharray="6 3" stroke-dashoffset="0"/>
  <path d="M 50 24.856 L 1230 24.856" fill="none" stroke-width="0.5" stroke="#000000" stroke-opacity="0.25882" stroke-linecap="butt" stroke-linejoin="round" stroke-dasharray="6 3" stroke-dashoffset="0"/>
  <path d="M 74 33 L 74 88 L 319 88 L 319 33 z" fill="#FFFFFF" fill-opacity="1.0" stroke="none"/>
  <clipPath id="clip-0">
    <path d="M 50 9 L 50 441 L 1230 441 L 1230 9 z"/>
  </clipPath>
  <g clip-path="url(#clip-0)">
    <path d="M 50 301.66L 109 301.2L 143.51 301.05L 168 275.89L 186.99 294.21L 202.51 301.05L 215.63 287.96L 227 292.74L 245.99 281.49L 261.51 292.68L 274.63 285.84L 286 280.65L 304.99 283.55L 320.51 287.02L 333.63 280.24L 345 276.62L 363.99 274.83L 379.51 279.39L 392.63 280.08L 404 271.05L 422.99 272.43L 438.51 276.71L 451.63 265.32L 463 270.91L 481.99 273.74L 497.51 271.1L 510.63 266.48L 522 269.02L 540.99 260.69L 556.51 263L 569.63 258.33L 581 256.29L 599.99 259.66L 615.51 257.5L 628.63 262.97L 640 256.37L 658.99 258.71L 674.51 257.48L 687.63 254.38L 699 253.93L 717.99 256.4L 733.51 250.21L 746.63 252.05L 758 251.42L 776.99 247.26L 792.51 243.89L 805.63 249.66L 817 244.69L 835.99 240.98L 851.51 245.6L 864.63 243.33L 876 246.42L 894.99 246.45L 910.51 241.69L 923.63 241.56L 935 243.6L 953.99 242.33L 969.51 242.81L 982.63 239.51L 994 240.96L 1013 238.48L 1028.5 241.26L 1041.6 235.19L 1053 238.01L 1072 235.3L 1087.5 237.59L 1100.6 236L 1112 235.61L 1131 236.49L 1146.5 233.05L 1159.6 232.04L 1171 231.73L 1190 232.53L 1205.5 232.55L 1218.6 230.65L 1230 231.07L 1230 232.99L 1218.6 232.55L 1205.5 233.01L 1190 233.66L 1171 234.12L 1159.6 235.5L 1146.5 237.32L 1131 236.63L 1112 236.81L 1100.6 237.62L 1087.5 239.43L 1072 239.29L 1053 239.82L 1041.6 239.92L 1028.5 241.38L 1013 241.48L 994 242.25L 982.63 243.61L 969.51 243.3L 953.99 243.1L 935 244.75L 923.63 243.95L 910.51 243.68L 894.99 246.74L 876 247.15L 864.63 249.1L 851.51 248.98L 835.99 249.38L 817 251.02L 805.63 251.01L 792.51 250.99L 776.99 252.07L 758 253.68L 746.63 256.89L 733.51 254.82L 717.99 256.55L 699 259.26L 687.63 258.79L 674.51 259.97L 658.99 261.07L 640 261.5L 628.63 264.3L 615.51 262.44L 599.99 261.65L 581 266.49L 569.63 270.55L 556.51 273.42L 540.99 268.3L 522 270.23L 510.63 273.32L 497.51 272.13L 481.99 275.51L 463 277.78L 451.63 282.63L 438.51 278.3L 422.99 280.32L 404 282.11L 392.63 280.83L 379.51 284.8L 363.99 281.7L 345 285.84L 333.63 284.95L 320.51 289.1L 304.99 285.84L 286 296.63L 274.63 285.84L 261.51 292.68L 245.99 291.25L 227 292.74L 215.63 296.08L 202.51 301.05L 186.99 294.21L 168 300.98L 143.51 301.05L 109 301.2L 50 301.66" fill="#007AFF" fill-opacity="0.30196078431372547" stroke="none"/>
    <path d="M 50 299.94L 109 327.66L 143.51 341.97L 168 351.96L 186.99 361.14L 202.51 367.18L 215.63 373.77L 227 379.68L 245.99 388.06L 261.51 394.9L 274.63 398.97L 286 379.23L 304.99 387.6L 320.51 379.08L 333.63 384.86L 345 379.23L 363.99 357.84L 379.51 368.32L 392.63 369.65L 404 364.13L 422.99 363.86L 438.51 359.92L 451.63 354.58L 463 351L 481.99 350.33L 497.51 344.16L 510.63 339.29L 522 317.32L 540.99 326.73L 556.51 314.24L 569.63 316.5L 581 312.95L 599.99 292.07L 615.51 301.25L 628.63 295.79L 640 286.33L 658.99 277.36L 674.51 269.92L 687.63 265.31L 699 264.13L 717.99 255.89L 733.51 246.15L 746.63 242.33L 758 238.63L 776.99 230.04L 792.51 223.14L 805.63 217.26L 817 212.19L 835.99 203.58L 851.51 195.82L 864.63 190.39L 876 184.26L 894.99 173.11L 910.51 163.75L 923.63 156.2L 935 150.45L 953.99 140.3L 969.51 133.56L 982.63 127.39L 994 122.19L 1013 113.26L 1028.5 106.51L 1041.6 100.72L 1053 95.611L 1072 86.678L 1072 87.322L 1053 95.682L 1041.6 100.77L 1028.5 106.61L 1013 113.48L 994 122.27L 982.63 127.49L 969.51 133.59L 953.99 140.93L 935 150.46L 923.63 156.47L 910.51 163.81L 894.99 173.33L 876 185.83L 864.63 190.92L 851.51 196.81L 835.99 203.75L 817 212.23L 805.63 217.26L 792.51 223.17L 776.99 230.04L 758 238.65L 746.63 243.34L 733.51 248.15L 717.99 255.94L 699 265.05L 687.63 270.44L 674.51 275L 658.99 281.23L 640 291.01L 628.63 295.93L 615.51 301.44L 599.99 305.53L 581 315.54L 569.63 320.05L 556.51 324.24L 540.99 329.99L 522 337.46L 510.63 341.12L 497.51 346.62L 481.99 350.37L 463 355.49L 451.63 357.31L 438.51 359.92L 422.99 363.86L 404 370.76L 392.63 369.65L 379.51 368.32L 363.99 379.14L 345 379.23L 333.63 384.86L 320.51 379.08L 304.99 387.6L 286 379.23L 274.63 400.68L 261.51 394.9L 245.99 388.06L 227 379.68L 215.63 373.77L 202.51 368.89L 186.99 361.14L 168 353.67L 143.51 341.97L 109 327.66L 50 301.66" fill="#FF3B30" fill-opacity="0.30196078431372547" stroke="none"/>
    <path d="M 50 301.66L 109 301.2L 143.51 301.05L 168 292.65L 186.99 294.21L 202.51 301.05L 215.63 293.78L 227 292.74L 245.99 288.45L 261.51 292.68L 274.63 285.84L 286 291.76L 304.99 285.23L 320.51 288.55L 333.63 283.66L 345 283.2L 363.99 279.78L 379.51 283.31L 392.63 280.63L 404 278.9L 422.99 278.09L 438.51 277.88L 451.63 277.28L 463 275.86L 481.99 275.04L 497.51 271.86L 510.63 271.41L 522 269.91L 540.99 266.16L 556.51 270.4L 569.63 266.95L 581 263.55L 599.99 261.12L 615.51 261.09L 628.63 263.95L 640 260.09L 658.99 260.44L 674.51 259.3L 687.63 257.59L 699 257.79L 717.99 256.51L 733.51 253.56L 746.63 255.57L 758 253.07L 776.99 250.76L 792.51 249.01L 805.63 250.65L 817 249.26L 835.99 247L 851.51 248.06L 864.63 247.5L 876 246.96L 894.99 246.66L 910.51 243.15L 923.63 243.31L 935 244.44L 953.99 242.89L 969.51 243.18L 982.63 242.49L 994 241.91L 1013 240.67L 1028.5 241.35L 1041.6 238.62L 1053 239.34L 1072 238.21L 1087.5 238.94L 1100.6 237.19L 1112 236.49L 1131 236.59L 1146.5 236.15L 1159.6 234.57L 1171 233.48L 1190 233.36L 1205.5 232.89L 1218.6 232.04L 1230 232.47" fill="none" stroke-width="4" stroke="#007AFF" stroke-opacity="1" stroke-linecap="round" stroke-linejoin="round"/>
    <path d="M 50 301.2L 109 327.66L 143.51 341.97L 168 353.22L 186.99 361.14L 202.51 368.43L 215.63 373.77L 227 379.68L 245.99 388.06L 261.51 394.9L 274.63 400.23L 286 379.23L 304.99 387.6L 320.51 379.08L 333.63 384.86L 345 379.23L 363.99 372.31L 379.51 368.32L 392.63 369.65L 404 368.92L 422.99 363.86L 438.51 359.92L 451.63 356.58L 463 354.26L 481.99 350.36L 497.51 345.96L 510.63 340.63L 522 331.08L 540.99 329.11L 556.51 321.36L 569.63 319.09L 581 314.85L 599.99 301.52L 615.51 301.39L 628.63 295.89L 640 289.73L 658.99 280.18L 674.51 273.61L 687.63 269.03L 699 264.81L 717.99 255.92L 733.51 247.62L 746.63 243.07L 758 238.64L 776.99 230.04L 792.51 223.16L 805.63 217.26L 817 212.22L 835.99 203.7L 851.51 196.55L 864.63 190.78L 876 185.41L 894.99 173.28L 910.51 163.79L 923.63 156.4L 935 150.46L 953.99 140.77L 969.51 133.58L 982.63 127.47L 994 122.25L 1013 113.42L 1028.5 106.58L 1041.6 100.76L 1053 95.664L 1072 87.153" fill="none" stroke-width="4" stroke="#FF3B30" stroke-opacity="1" stroke-linecap="round" stroke-linejoin="round"/>
    <path d="M 50 301.66L 109 301.2L 143.51 301.05L 168 292.65L 186.99 294.21L 202.51 301.05L 215.63 293.78L 227 292.74L 245.99 288.45L 261.51 292.68L 274.63 285.84L 286 291.76L 304.99 285.23L 320.51 288.55L 333.63 283.66L 345 283.2L 363.99 279.78L 379.51 283.31L 392.63 280.63L 404 278.9L 422.99 278.09L 438.51 277.88L 451.63 277.28L 463 275.86L 481.99 275.04L 497.51 271.86L 510.63 271.41L 522 269.91L 540.99 266.16L 556.51 270.4L 569.63 266.95L 581 263.55L 599.99 261.12L 615.51 261.09L 628.63 263.95L 640 260.09L 658.99 260.44L 674.51 259.3L 687.63 257.59L 699 257.79L 717.99 256.51L 733.51 253.56L 746.63 255.57L 758 253.07L 776.99 250.76L 792.51 249.01L 805.63 250.65L 817 249.26L 835.99 247L 851.51 248.06L 864.63 247.5L 876 246.96L 894.99 246.66L 910.51 243.15L 923.63 243.31L 935 244.44L 953.99 242.89L 969.51 243.18L 982.63 242.49L 994 241.91L 1013 240.67L 1028.5 241.35L 1041.6 238.62L 1053 239.34L 1072 238.21L 1087.5 238.94L 1100.6 237.19L 1112 236.49L 1131 236.59L 1146.5 236.15L 1159.6 234.57L 1171 233.48L 1190 233.36L 1205.5 232.89L 1218.6 232.04L 1230 232.47" fill="none" stroke-width="0.5" stroke="#000000" stroke-opacity="0.30196" stroke-linecap="round" stroke-linejoin="round"/>
    <path d="M 50 301.2L 109 327.66L 143.51 341.97L 168 353.22L 186.99 361.14L 202.51 368.43L 215.63 373.77L 227 379.68L 245.99 388.06L 261.51 394.9L 274.63 400.23L 286 379.23L 304.99 387.6L 320.51 379.08L 333.63 384.86L 345 379.23L 363.99 372.31L 379.51 368.32L 392.63 369.65L 404 368.92L 422.99 363.86L 438.51 359.92L 451.63 356.58L 463 354.26L 481.99 350.36L 497.51 345.96L 510.63 340.63L 522 331.08L 540.99 329.11L 556.51 321.36L 569.63 319.09L 581 314.85L 599.99 301.52L 615.51 301.39L 628.63 295.89L 640 289.73L 658.99 280.18L 674.51 273.61L 687.63 269.03L 699 264.81L 717.99 255.92L 733.51 247.62L 746.63 243.07L 758 238.64L 776.99 230.04L 792.51 223.16L 805.63 217.26L 817 212.22L 835.99 203.7L 851.51 196.55L 864.63 190.78L 876 185.41L 894.99 173.28L 910.51 163.79L 923.63 156.4L 935 150.46L 953.99 140.77L 969.51 133.58L 982.63 127.47L 994 122.25L 1013 113.42L 1028.5 106.58L 1041.6 100.76L 1053 95.664L 1072 87.153" fill="none" stroke-width="0.5" stroke="#000000" stroke-opacity="0.30196" stroke-linecap="round" stroke-linejoin="round"/>
  </g>
  <path d="M 74 33 L 74 88 L 319 88 L 319 33 z" fill="#FFFFFF" fill-opacity="0.7019607843137254" stroke-width="0.5" stroke="#000000" stroke-opacity="1" stroke-linecap="round" stroke-linejoin="round"/>
  <path d="M 88 52 L 108 52" fill="none" stroke-width="4" stroke="#FF3B30" stroke-opacity="1" stroke-linecap="round" stroke-linejoin="round"/>
  <path d="M 88 52 L 108 52" fill="none" stroke-width="0.5" stroke="#000000" stroke-opacity="0.30196" stroke-linecap="round" stroke-linejoin="round"/>
  <text x="119" y="56.17" font-family="Menlo" font-size="12" font-weight="normal" font-style="normal" fill="#000000" fill-opacity="1">Array&lt;Int&gt; removeFirst</text>
  <path d="M 88 69 L 108 69" fill="none" stroke-width="4" stroke="#007AFF" stroke-opacity="1" stroke-linecap="round" stroke-linejoin="round"/>
  <path d="M 88 69 L 108 69" fill="none" stroke-width="0.5" stroke="#000000" stroke-opacity="0.30196" stroke-linecap="round" stroke-linejoin="round"/>
  <text x="119" y="73.17" font-family="Menlo" font-size="12" font-weight="normal" font-style="normal" fill="#000000" fill-opacity="1">TreeArray&lt;Int&gt; removeFirst</text>
  <path d="M 50 9 L 50 441 L 1230 441 L 1230 9 z" fill="none" stroke-width="0.5" stroke="#000000" stroke-opacity="1" stroke-linecap="round" stroke-linejoin="round"/>
</svg>
