<!DOCTYPE svg PUBLIC "-//W3C//DTD SVG 1.1//EN" "http://www.w3.org/Graphics/SVG/1.1/DTD/svg11.dtd">
<svg width="1280.0px" height="480.0px" viewBox="0.0 0.0 1280.0 480.0" xmlns="http://www.w3.org/2000/svg" xmlns:xlink="http://www.w3.org/1999/xlink" version="1.1">
  <path d="M 0 0 L 0 480 L 1280 480 L 1280 0 z" fill="#FFFFFF" fill-opacity="1.0" stroke="none"/>
  <text x="50" y="468.7" font-family="Helvetica" font-size="10" font-weight="normal" font-style="normal" fill="#000000" fill-opacity="1">Average per-element processing time over input size (bands: min, mean, mean + 2stddev)</text>
  <a xlink:href="https://github.com/apple/swift-collections-benchmark"><text x="1107" y="468.7" font-family="Helvetica" font-size="10" font-weight="normal" font-style="normal" fill="#000000" fill-opacity="1">swift-collections-benchmark</text></a>
  <path d="M 50 9 L 50 441" fill="none" stroke-width="0.75" stroke="#000000" stroke-opacity="0.49804" stroke-linecap="butt" stroke-linejoin="round"/>
  <text x="47" y="453.7" font-family="Helvetica" font-size="10" font-weight="normal" font-style="normal" fill="#000000" fill-opacity="1">1</text>
  <path d="M 109 9 L 109 441" fill="none" stroke-width="0.75" stroke="#000000" stroke-opacity="0.49804" stroke-linecap="butt" stroke-linejoin="round"/>
  <text x="106" y="453.7" font-family="Helvetica" font-size="10" font-weight="normal" font-style="normal" fill="#000000" fill-opacity="1">2</text>
  <path d="M 168 9 L 168 441" fill="none" stroke-width="0.75" stroke="#000000" stroke-opacity="0.49804" stroke-linecap="butt" stroke-linejoin="round"/>
  <text x="165" y="453.7" font-family="Helvetica" font-size="10" font-weight="normal" font-style="normal" fill="#000000" fill-opacity="1">4</text>
  <path d="M 227 9 L 227 441" fill="none" stroke-width="0.75" stroke="#000000" stroke-opacity="0.49804" stroke-linecap="butt" stroke-linejoin="round"/>
  <text x="224" y="453.7" font-family="Helvetica" font-size="10" font-weight="normal" font-style="normal" fill="#000000" fill-opacity="1">8</text>
  <path d="M 286 9 L 286 441" fill="none" stroke-width="0.75" stroke="#000000" stroke-opacity="0.49804" stroke-linecap="butt" stroke-linejoin="round"/>
  <text x="280" y="453.7" font-family="Helvetica" font-size="10" font-weight="normal" font-style="normal" fill="#000000" fill-opacity="1">16</text>
  <path d="M 345 9 L 345 441" fill="none" stroke-width="0.75" stroke="#000000" stroke-opacity="0.49804" stroke-linecap="butt" stroke-linejoin="round"/>
  <text x="339" y="453.7" font-family="Helvetica" font-size="10" font-weight="normal" font-style="normal" fill="#000000" fill-opacity="1">32</text>
  <path d="M 404 9 L 404 441" fill="none" stroke-width="0.75" stroke="#000000" stroke-opacity="0.49804" stroke-linecap="butt" stroke-linejoin="round"/>
  <text x="398" y="453.7" font-family="Helvetica" font-size="10" font-weight="normal" font-style="normal" fill="#000000" fill-opacity="1">64</text>
  <path d="M 463 9 L 463 441" fill="none" stroke-width="0.75" stroke="#000000" stroke-opacity="0.49804" stroke-linecap="butt" stroke-linejoin="round"/>
  <text x="454.5" y="453.7" font-family="Helvetica" font-size="10" font-weight="normal" font-style="normal" fill="#000000" fill-opacity="1">128</text>
  <path d="M 522 9 L 522 441" fill="none" stroke-width="0.75" stroke="#000000" stroke-opacity="0.49804" stroke-linecap="butt" stroke-linejoin="round"/>
  <text x="513.5" y="453.7" font-family="Helvetica" font-size="10" font-weight="normal" font-style="normal" fill="#000000" fill-opacity="1">256</text>
  <path d="M 581 9 L 581 441" fill="none" stroke-width="0.75" stroke="#000000" stroke-opacity="0.49804" stroke-linecap="butt" stroke-linejoin="round"/>
  <text x="572.5" y="453.7" font-family="Helvetica" font-size="10" font-weight="normal" font-style="normal" fill="#000000" fill-opacity="1">512</text>
  <path d="M 640 9 L 640 441" fill="none" stroke-width="0.75" stroke="#000000" stroke-opacity="0.49804" stroke-linecap="butt" stroke-linejoin="round"/>
  <text x="634.5" y="453.7" font-family="Helvetica" font-size="10" font-weight="normal" font-style="normal" fill="#000000" fill-opacity="1">1k</text>
  <path d="M 699 9 L 699 441" fill="none" stroke-width="0.75" stroke="#000000" stroke-opacity="0.49804" stroke-linecap="butt" stroke-linejoin="round"/>
  <text x="693.5" y="453.7" font-family="Helvetica" font-size="10" font-weight="normal" font-style="normal" fill="#000000" fill-opacity="1">2k</text>
  <path d="M 758 9 L 758 441" fill="none" stroke-width="0.75" stroke="#000000" stroke-opacity="0.49804" stroke-linecap="butt" stroke-linejoin="round"/>
  <text x="752.5" y="453.7" font-family="Helvetica" font-size="10" font-weight="normal" font-style="normal" fill="#000000" fill-opacity="1">4k</text>
  <path d="M 817 9 L 817 441" fill="none" stroke-width="0.75" stroke="#000000" stroke-opacity="0.49804" stroke-linecap="butt" stroke-linejoin="round"/>
  <text x="811.5" y="453.7" font-family="Helvetica" font-size="10" font-weight="normal" font-style="normal" fill="#000000" fill-opacity="1">8k</text>
  <path d="M 876 9 L 876 441" fill="none" stroke-width="0.75" stroke="#000000" stroke-opacity="0.49804" stroke-linecap="butt" stroke-linejoin="round"/>
  <text x="867.5" y="453.7" font-family="Helvetica" font-size="10" font-weight="normal" font-style="normal" fill="#000000" fill-opacity="1">16k</text>
  <path d="M 935 9 L 935 441" fill="none" stroke-width="0.75" stroke="#000000" stroke-opacity="0.49804" stroke-linecap="butt" stroke-linejoin="round"/>
  <text x="926.5" y="453.7" font-family="Helvetica" font-size="10" font-weight="normal" font-style="normal" fill="#000000" fill-opacity="1">32k</text>
  <path d="M 994 9 L 994 441" fill="none" stroke-width="0.75" stroke="#000000" stroke-opacity="0.49804" stroke-linecap="butt" stroke-linejoin="round"/>
  <text x="985.5" y="453.7" font-family="Helvetica" font-size="10" font-weight="normal" font-style="normal" fill="#000000" fill-opacity="1">64k</text>
  <path d="M 1053 9 L 1053 441" fill="none" stroke-width="0.75" stroke="#000000" stroke-opacity="0.49804" stroke-linecap="butt" stroke-linejoin="round"/>
  <text x="1042" y="453.7" font-family="Helvetica" font-size="10" font-weight="normal" font-style="normal" fill="#000000" fill-opacity="1">128k</text>
  <path d="M 1112 9 L 1112 441" fill="none" stroke-width="0.75" stroke="#000000" stroke-opacity="0.49804" stroke-linecap="butt" stroke-linejoin="round"/>
  <text x="1101" y="453.7" font-family="Helvetica" font-size="10" font-weight="normal" font-style="normal" fill="#000000" fill-opacity="1">256k</text>
  <path d="M 1171 9 L 1171 441" fill="none" stroke-width="0.75" stroke="#000000" stroke-opacity="0.49804" stroke-linecap="butt" stroke-linejoin="round"/>
  <text x="1160" y="453.7" font-family="Helvetica" font-size="10" font-weight="normal" font-style="normal" fill="#000000" fill-opacity="1">512k</text>
  <path d="M 1230 9 L 1230 441" fill="none" stroke-width="0.75" stroke="#000000" stroke-opacity="0.49804" stroke-linecap="butt" stroke-linejoin="round"/>
  <text x="1223" y="453.7" font-family="Helvetica" font-size="10" font-weight="normal" font-style="normal" fill="#000000" fill-opacity="1">1M</text>
  <path d="M 50 441 L 1230 441" fill="none" stroke-width="0.75" stroke="#000000" stroke-opacity="0.49804" stroke-linecap="butt" stroke-linejoin="round"/>
  <text x="27" y="442.7" font-family="Helvetica" font-size="10" font-weight="normal" font-style="normal" fill="#000000" fill-opacity="1">1 ns</text>
  <text x="1236" y="442.7" font-family="Helvetica" font-size="10" font-weight="normal" font-style="normal" fill="#000000" fill-opacity="1">1 ns</text>
  <path d="M 50 354.6 L 1230 354.6" fill="none" stroke-width="0.75" stroke="#000000" stroke-opacity="0.49804" stroke-linecap="butt" stroke-linejoin="round"/>
  <text x="21" y="356.3" font-family="Helvetica" font-size="10" font-weight="normal" font-style="normal" fill="#000000" fill-opacity="1">10 ns</text>
  <text x="1236" y="356.3" font-family="Helvetica" font-size="10" font-weight="normal" font-style="normal" fill="#000000" fill-opacity="1">10 ns</text>
  <path d="M 50 268.2 L 1230 268.2" fill="none" stroke-width="0.75" stroke="#000000" stroke-opacity="0.49804" stroke-linecap="butt" stroke-linejoin="round"/>
  <text x="16" y="269.9" font-family="Helvetica" font-size="10" font-weight="normal" font-style="normal" fill="#000000" fill-opacity="1">100 ns</text>
  <text x="1236" y="269.9" font-family="Helvetica" font-size="10" font-weight="normal" font-style="normal" fill="#000000" fill-opacity="1">100 ns</text>
  <path d="M 50 181.8 L 1230 181.8" fill="none" stroke-width="0.75" stroke="#000000" stroke-opacity="0.49804" stroke-linecap="butt" stroke-linejoin="round"/>
  <text x="26" y="183.5" font-family="Helvetica" font-size="10" font-weight="normal" font-style="normal" fill="#000000" fill-opacity="1">1 µs</text>
  <text x="1236" y="183.5" font-family="Helvetica" font-size="10" font-weight="normal" font-style="normal" fill="#000000" fill-opacity="1">1 µs</text>
  <path d="M 50 95.4 L 1230 95.4" fill="none" stroke-width="0.75" stroke="#000000" stroke-opacity="0.49804" stroke-linecap="butt" stroke-linejoin="round"/>
  <text x="21" y="97.1" font-family="Helvetica" font-size="10" font-weight="normal" font-style="normal" fill="#000000" fill-opacity="1">10 µs</text>
  <text x="1236" y="97.1" font-family="Helvetica" font-size="10" font-weight="normal" font-style="normal" fill="#000000" fill-opacity="1">10 µs</text>
  <path d="M 50 9 L 1230 9" fill="none" stroke-width="0.75" stroke="#000000" stroke-opacity="0.49804" stroke-linecap="butt" stroke-linejoin="round"/>
  <text x="15" y="10.7" font-family="Helvetica" font-size="10" font-weight="normal" font-style="normal" fill="#000000" fill-opacity="1">100 µs</text>
  <text x="1236" y="10.7" font-family="Helvetica" font-size="10" font-weight="normal" font-style="normal" fill="#000000" fill-opacity="1">100 µs</text>
  <path d="M 50 414.99 L 1230 414.99" fill="none" stroke-width="0.5" stroke="#000000" stroke-opacity="0.25882" stroke-linecap="butt" stroke-linejoin="round" stroke-dasharray="6 3" stroke-dashoffset="0"/>
  <path d="M 50 388.98 L 1230 388.98" fill="none" stroke-width="0.5" stroke="#000000" stroke-opacity="0.25882" stroke-linecap="butt" stroke-linejoin="round" stroke-dasharray="6 3" stroke-dashoffset="0"/>
  <path d="M 50 362.97 L 1230 362.97" fill="none" stroke-width="0.5" stroke="#000000" stroke-opacity="0.25882" stroke-linecap="butt" stroke-linejoin="round" stroke-dasharray="6 3" stroke-dashoffset="0"/>
  <path d="M 50 336.96 L 1230 336.96" fill="none" stroke-width="0.5" stroke="#000000" stroke-opacity="0.25882" stroke-linecap="butt" stroke-linejoin="round" stroke-dasharray="6 3" stroke-dashoffset="0"/>
  <path d="M 50 310.96 L 1230 310.96" fill="none" stroke-width="0.5" stroke="#000000" stroke-opacity="0.25882" stroke-linecap="butt" stroke-linejoin="round" stroke-dasharray="6 3" stroke-dashoffset="0"/>
  <path d="M 50 284.95 L 1230 284.95" fill="none" stroke-width="0.5" stroke="#000000" stroke-opacity="0.25882" stroke-linecap="butt" stroke-linejoin="round" stroke-dasharray="6 3" stroke-dashoffset="0"/>
  <path d="M 50 258.94 L 1230 258.94" fill="none" stroke-width="0.5" stroke="#000000" stroke-opacity="0.25882" stroke-linecap="butt" stroke-linejoin="round" stroke-dasharray="6 3" stroke-dashoffset="0"/>
  <path d="M 50 232.93 L 1230 232.93" fill="none" stroke-width="0.5" stroke="#000000" stroke-opacity="0.25882" stroke-linecap="butt" stroke-linejoin="round" stroke-dasharray="6 3" stroke-dashoffset="0"/>
  <path d="M 50 206.92 L 1230 206.92" fill="none" stroke-width="0.5" stroke="#000000" stroke-opacity="0.25882" stroke-linecap="butt" stroke-linejoin="round" stroke-dasharray="6 3" stroke-dashoffset="0"/>
  <path d="M 50 180.91 L 1230 180.91" fill="none" stroke-width="0.5" stroke="#000000" stroke-opacity="0.25882" stroke-linecap="butt" stroke-linejoin="round" stroke-dasharray="6 3" stroke-dashoffset="0"/>
  <path d="M 50 154.9 L 1230 154.9" fill="none" stroke-width="0.5" stroke="#000000" stroke-opacity="0.25882" stroke-linecap="butt" stroke-linejoin="round" stroke-dasharray="6 3" stroke-dashoffset="0"/>
  <path d="M 50 128.89 L 1230 128.89" fill="none" stroke-width="0.5" stroke="#000000" stroke-opacity="0.25882" stroke-linecap="butt" stroke-linejoin="round" stroke-dasharray="6 3" stroke-dashoffset="0"/>
  <path d="M 50 102.88 L 1230 102.88" fill="none" stroke-width="0.5" stroke="#000000" stroke-opacity="0.25882" stroke-linecap="butt" stroke-linejoin="round" stroke-dasharray="6 3" stroke-dashoffset="0"/>
  <path d="M 50 76.874 L 1230 76.874" fill="none" stroke-width="0.5" stroke="#000000" stroke-opacity="0.25882" stroke-linecap="butt" stroke-linejoin="round" stroke-dasharray="6 3" stroke-dashoffset="0"/>
  <path d="M 50 50.865 L 1230 50.865" fill="none" stroke-width="0.5" stroke="#000000" stroke-opacity="0.25882" stroke-linecap="butt" stroke-linejoin="round" stroke-dasharray="6 3" stroke-dashoffset="0"/>
  <path d="M 50 24.856 L 1230 24.856" fill="none" stroke-width="0.5" stroke="#000000" stroke-opacity="0.25882" stroke-linecap="butt" stroke-linejoin="round" stroke-dasharray="6 3" stroke-dashoffset="0"/>
  <path d="M 74 33 L 74 88 L 319 88 L 319 33 z" fill="#FFFFFF" fill-opacity="1.0" stroke="none"/>
  <clipPath id="clip-0">
    <path d="M 50 9 L 50 441 L 1230 441 L 1230 9 z"/>
  </clipPath>
  <g clip-path="url(#clip-0)">
    <path d="M 50 300.75L 109 286.93L 143.51 315.56L 168 300.77L 186.99 300.77L 202.51 295.22L 215.63 284.33L 227 296.63L 245.99 286.11L 261.51 286.06L 274.63 284.52L 286 283.06L 304.99 287.42L 320.51 276.27L 333.63 284.24L 345 285.9L 363.99 276.86L 379.51 282.14L 392.63 282.15L 404 276.14L 422.99 273.2L 438.51 276.25L 451.63 276.62L 463 270.71L 481.99 273.91L 497.51 268.72L 510.63 263.81L 522 270.56L 540.99 270.2L 556.51 271.44L 569.63 262.74L 581 262.57L 599.99 260.73L 615.51 258.38L 628.63 265.57L 640 263.13L 658.99 262.91L 674.51 259.72L 687.63 259.51L 699 258.1L 717.99 257.44L 733.51 256.83L 746.63 253.43L 758 255.24L 776.99 255.36L 792.51 254.01L 805.63 247.06L 817 252.74L 835.99 251.47L 851.51 251.89L 864.63 247.07L 876 248.74L 894.99 248.55L 910.51 245.37L 923.63 241.93L 935 246.18L 953.99 247.8L 969.51 244.2L 982.63 245.26L 994 244.35L 1013 238.39L 1028.5 236.21L 1041.6 240.08L 1053 240.61L 1072 240.75L 1087.5 238.43L 1100.6 238.25L 1112 234.65L 1131 236.6L 1146.5 237.95L 1159.6 237.57L 1171 236.11L 1190 235.62L 1205.5 235.06L 1218.6 232.59L 1230 234.51L 1230 234.58L 1218.6 236.42L 1205.5 236.73L 1190 236.04L 1171 236.88L 1159.6 238.46L 1146.5 238.45L 1131 237.66L 1112 241.22L 1100.6 240.82L 1087.5 241.97L 1072 241.44L 1053 243.76L 1041.6 243.51L 1028.5 243.36L 1013 247.01L 994 244.85L 982.63 246.09L 969.51 247.54L 953.99 248.29L 935 248.14L 923.63 248L 910.51 251.4L 894.99 249.12L 876 252.48L 864.63 254.39L 851.51 254.04L 835.99 254.82L 817 256.1L 805.63 257.98L 792.51 255.87L 776.99 258.24L 758 259.84L 746.63 259.41L 733.51 261.21L 717.99 260.6L 699 262.05L 687.63 264.87L 674.51 260.54L 658.99 263.72L 640 265.15L 628.63 268.38L 615.51 268.2L 599.99 267.98L 581 273.6L 569.63 271.26L 556.51 274.17L 540.99 273.72L 522 272.22L 510.63 276.23L 497.51 278.2L 481.99 277.09L 463 275.78L 451.63 277.64L 438.51 276.64L 422.99 278.22L 404 289.97L 392.63 285.39L 379.51 287.97L 363.99 286.47L 345 287.45L 333.63 287.66L 320.51 286.88L 304.99 295.78L 286 289.13L 274.63 296.02L 261.51 290.24L 245.99 291.18L 227 296.63L 215.63 291.62L 202.51 295.22L 186.99 301.11L 168 301.2L 143.51 316.41L 109 327.66L 50 300.75" fill="#007AFF" fill-opacity="0.30196078431372547" stroke="none"/>
    <path d="M 50 300.75L 109 326.76L 143.51 341.97L 168 351.96L 186.99 360.33L 202.51 367.18L 215.63 372.96L 227 379.68L 245.99 386.34L 261.51 368.43L 274.63 359.95L 286 379.23L 304.99 362.18L 320.51 360.44L 333.63 366.23L 345 370.76L 363.99 366.87L 379.51 364.23L 392.63 365.58L 404 358.5L 422.99 359.32L 438.51 342.79L 451.63 349.53L 463 349.9L 481.99 349.46L 497.51 343.57L 510.63 338.84L 522 328.57L 540.99 328.36L 556.51 322.57L 569.63 319.64L 581 312.73L 599.99 295.17L 615.51 285.14L 628.63 290.04L 640 279.92L 658.99 282.49L 674.51 269.99L 687.63 269.48L 699 263.24L 717.99 254.69L 733.51 248.1L 746.63 241.48L 758 238.65L 776.99 230.04L 792.51 223.07L 805.63 216.98L 817 212.01L 835.99 202.03L 851.51 196.32L 864.63 190.39L 876 184.45L 894.99 173.1L 910.51 163.49L 923.63 155.12L 935 149.54L 953.99 139.12L 969.51 133.11L 982.63 127.1L 994 122.05L 1013 113.35L 1028.5 106.5L 1041.6 99.781L 1053 95.335L 1072 87.039L 1072 87.282L 1053 95.761L 1041.6 100.77L 1028.5 106.67L 1013 113.57L 994 122.12L 982.63 127.34L 969.51 133.75L 953.99 140.73L 935 149.75L 923.63 156.42L 910.51 163.77L 894.99 173.25L 876 185.88L 864.63 190.93L 851.51 196.72L 835.99 203.63L 817 212.23L 805.63 217.27L 792.51 223.16L 776.99 230.04L 758 238.65L 746.63 242.51L 733.51 249.31L 717.99 255.63L 699 265.09L 687.63 270.43L 674.51 272.79L 658.99 282.94L 640 289.83L 628.63 295.71L 615.51 301.34L 599.99 301.88L 581 315.11L 569.63 319.91L 556.51 324.97L 540.99 330.75L 522 336.33L 510.63 340.63L 497.51 345.96L 481.99 349.5L 463 354.25L 451.63 357.34L 438.51 356.32L 422.99 363.86L 404 370.76L 392.63 365.75L 379.51 373.38L 363.99 379.14L 345 370.76L 333.63 384.86L 320.51 379.08L 304.99 387.6L 286 379.23L 274.63 400.68L 261.51 368.43L 245.99 388.06L 227 379.68L 215.63 374.67L 202.51 368.89L 186.99 362.05L 168 353.67L 143.51 341.97L 109 326.76L 50 300.75" fill="#FF3B30" fill-opacity="0.30196078431372547" stroke="none"/>
    <path d="M 50 300.75L 109 312.15L 143.51 316.19L 168 301.09L 186.99 301.02L 202.51 295.22L 215.63 289.58L 227 296.63L 245.99 289.79L 261.51 289.1L 274.63 292.66L 286 287.45L 304.99 293.41L 320.51 283.8L 333.63 286.74L 345 287.04L 363.99 283.71L 379.51 286.36L 392.63 284.51L 404 285.84L 422.99 276.84L 438.51 276.54L 451.63 277.37L 463 274.39L 481.99 276.23L 497.51 275.48L 510.63 272.57L 522 271.78L 540.99 272.77L 556.51 273.44L 569.63 268.84L 581 270.39L 599.99 265.95L 615.51 265.38L 628.63 267.63L 640 264.61L 658.99 263.5L 674.51 260.33L 687.63 263.39L 699 260.97L 717.99 259.75L 733.51 260.01L 746.63 257.76L 758 258.58L 776.99 257.46L 792.51 255.37L 805.63 254.81L 817 255.19L 835.99 253.91L 851.51 253.46L 864.63 252.34L 876 251.47L 894.99 248.97L 910.51 249.73L 923.63 246.32L 935 247.62L 953.99 248.16L 969.51 246.64L 982.63 245.87L 994 244.72L 1013 244.56L 1028.5 241.35L 1041.6 242.58L 1053 242.91L 1072 241.26L 1087.5 241.01L 1100.6 240.14L 1112 239.39L 1131 237.38L 1146.5 238.32L 1159.6 238.23L 1171 236.68L 1190 235.93L 1205.5 236.28L 1218.6 235.38L 1230 234.56" fill="none" stroke-width="4" stroke="#007AFF" stroke-opacity="1" stroke-linecap="round" stroke-linejoin="round"/>
    <path d="M 50 300.75L 109 326.76L 143.51 341.97L 168 353.22L 186.99 361.59L 202.51 368.43L 215.63 374.22L 227 379.68L 245.99 387.6L 261.51 368.43L 274.63 385.16L 286 379.23L 304.99 379.14L 320.51 373.25L 333.63 379.03L 345 370.76L 363.99 375.53L 379.51 370.76L 392.63 365.71L 404 367.16L 422.99 362.62L 438.51 352.29L 451.63 355.14L 463 353.06L 481.99 349.49L 497.51 345.32L 510.63 340.16L 522 334.14L 540.99 330.11L 556.51 324.33L 569.63 319.84L 581 314.48L 599.99 300.01L 615.51 296.39L 628.63 294.15L 640 286.98L 658.99 282.82L 674.51 272.04L 687.63 270.18L 699 264.6L 717.99 255.38L 733.51 248.99L 746.63 242.24L 758 238.65L 776.99 230.04L 792.51 223.14L 805.63 217.19L 817 212.17L 835.99 203.2L 851.51 196.61L 864.63 190.79L 876 185.5L 894.99 173.21L 910.51 163.69L 923.63 156.08L 935 149.7L 953.99 140.31L 969.51 133.58L 982.63 127.28L 994 122.1L 1013 113.51L 1028.5 106.62L 1041.6 100.51L 1053 95.649L 1072 87.218" fill="none" stroke-width="4" stroke="#FF3B30" stroke-opacity="1" stroke-linecap="round" stroke-linejoin="round"/>
    <path d="M 50 300.75L 109 312.15L 143.51 316.19L 168 301.09L 186.99 301.02L 202.51 295.22L 215.63 289.58L 227 296.63L 245.99 289.79L 261.51 289.1L 274.63 292.66L 286 287.45L 304.99 293.41L 320.51 283.8L 333.63 286.74L 345 287.04L 363.99 283.71L 379.51 286.36L 392.63 284.51L 404 285.84L 422.99 276.84L 438.51 276.54L 451.63 277.37L 463 274.39L 481.99 276.23L 497.51 275.48L 510.63 272.57L 522 271.78L 540.99 272.77L 556.51 273.44L 569.63 268.84L 581 270.39L 599.99 265.95L 615.51 265.38L 628.63 267.63L 640 264.61L 658.99 263.5L 674.51 260.33L 687.63 263.39L 699 260.97L 717.99 259.75L 733.51 260.01L 746.63 257.76L 758 258.58L 776.99 257.46L 792.51 255.37L 805.63 254.81L 817 255.19L 835.99 253.91L 851.51 253.46L 864.63 252.34L 876 251.47L 894.99 248.97L 910.51 249.73L 923.63 246.32L 935 247.62L 953.99 248.16L 969.51 246.64L 982.63 245.87L 994 244.72L 1013 244.56L 1028.5 241.35L 1041.6 242.58L 1053 242.91L 1072 241.26L 1087.5 241.01L 1100.6 240.14L 1112 239.39L 1131 237.38L 1146.5 238.32L 1159.6 238.23L 1171 236.68L 1190 235.93L 1205.5 236.28L 1218.6 235.38L 1230 234.56" fill="none" stroke-width="0.5" stroke="#000000" stroke-opacity="0.30196" stroke-linecap="round" stroke-linejoin="round"/>
    <path d="M 50 300.75L 109 326.76L 143.51 341.97L 168 353.22L 186.99 361.59L 202.51 368.43L 215.63 374.22L 227 379.68L 245.99 387.6L 261.51 368.43L 274.63 385.16L 286 379.23L 304.99 379.14L 320.51 373.25L 333.63 379.03L 345 370.76L 363.99 375.53L 379.51 370.76L 392.63 365.71L 404 367.16L 422.99 362.62L 438.51 352.29L 451.63 355.14L 463 353.06L 481.99 349.49L 497.51 345.32L 510.63 340.16L 522 334.14L 540.99 330.11L 556.51 324.33L 569.63 319.84L 581 314.48L 599.99 300.01L 615.51 296.39L 628.63 294.15L 640 286.98L 658.99 282.82L 674.51 272.04L 687.63 270.18L 699 264.6L 717.99 255.38L 733.51 248.99L 746.63 242.24L 758 238.65L 776.99 230.04L 792.51 223.14L 805.63 217.19L 817 212.17L 835.99 203.2L 851.51 196.61L 864.63 190.79L 876 185.5L 894.99 173.21L 910.51 163.69L 923.63 156.08L 935 149.7L 953.99 140.31L 969.51 133.58L 982.63 127.28L 994 122.1L 1013 113.51L 1028.5 106.62L 1041.6 100.51L 1053 95.649L 1072 87.218" fill="none" stroke-width="0.5" stroke="#000000" stroke-opacity="0.30196" stroke-linecap="round" stroke-linejoin="round"/>
  </g>
  <path d="M 74 33 L 74 88 L 319 88 L 319 33 z" fill="#FFFFFF" fill-opacity="0.7019607843137254" stroke-width="0.5" stroke="#000000" stroke-opacity="1" stroke-linecap="round" stroke-linejoin="round"/>
  <path d="M 88 52 L 108 52" fill="none" stroke-width="4" stroke="#FF3B30" stroke-opacity="1" stroke-linecap="round" stroke-linejoin="round"/>
  <path d="M 88 52 L 108 52" fill="none" stroke-width="0.5" stroke="#000000" stroke-opacity="0.30196" stroke-linecap="round" stroke-linejoin="round"/>
  <text x="119" y="56.17" font-family="Menlo" font-size="12" font-weight="normal" font-style="normal" fill="#000000" fill-opacity="1">Array&lt;Int&gt; removeFirst</text>
  <path d="M 88 69 L 108 69" fill="none" stroke-width="4" stroke="#007AFF" stroke-opacity="1" stroke-linecap="round" stroke-linejoin="round"/>
  <path d="M 88 69 L 108 69" fill="none" stroke-width="0.5" stroke="#000000" stroke-opacity="0.30196" stroke-linecap="round" stroke-linejoin="round"/>
  <text x="119" y="73.17" font-family="Menlo" font-size="12" font-weight="normal" font-style="normal" fill="#000000" fill-opacity="1">TreeArray&lt;Int&gt; removeFirst</text>
  <path d="M 50 9 L 50 441 L 1230 441 L 1230 9 z" fill="none" stroke-width="0.5" stroke="#000000" stroke-opacity="1" stroke-linecap="round" stroke-linejoin="round"/>
</svg>
