<!DOCTYPE svg PUBLIC "-//W3C//DTD SVG 1.1//EN" "http://www.w3.org/Graphics/SVG/1.1/DTD/svg11.dtd">
<svg width="1280.0px" height="480.0px" viewBox="0.0 0.0 1280.0 480.0" xmlns="http://www.w3.org/2000/svg" xmlns:xlink="http://www.w3.org/1999/xlink" version="1.1">
  <path d="M 0 0 L 0 480 L 1280 480 L 1280 0 z" fill="#FFFFFF" fill-opacity="1.0" stroke="none"/>
  <text x="50" y="468.7" font-family="Helvetica" font-size="10" font-weight="normal" font-style="normal" fill="#000000" fill-opacity="1">Average per-element processing time over input size (bands: min, mean, mean + 2stddev)</text>
  <a xlink:href="https://github.com/apple/swift-collections-benchmark"><text x="1107" y="468.7" font-family="Helvetica" font-size="10" font-weight="normal" font-style="normal" fill="#000000" fill-opacity="1">swift-collections-benchmark</text></a>
  <path d="M 50 9 L 50 441" fill="none" stroke-width="0.75" stroke="#000000" stroke-opacity="0.49804" stroke-linecap="butt" stroke-linejoin="round"/>
  <text x="47" y="453.7" font-family="Helvetica" font-size="10" font-weight="normal" font-style="normal" fill="#000000" fill-opacity="1">1</text>
  <path d="M 109 9 L 109 441" fill="none" stroke-width="0.75" stroke="#000000" stroke-opacity="0.49804" stroke-linecap="butt" stroke-linejoin="round"/>
  <text x="106" y="453.7" font-family="Helvetica" font-size="10" font-weight="normal" font-style="normal" fill="#000000" fill-opacity="1">2</text>
  <path d="M 168 9 L 168 441" fill="none" stroke-width="0.75" stroke="#000000" stroke-opacity="0.49804" stroke-linecap="butt" stroke-linejoin="round"/>
  <text x="165" y="453.7" font-family="Helvetica" font-size="10" font-weight="normal" font-style="normal" fill="#000000" fill-opacity="1">4</text>
  <path d="M 227 9 L 227 441" fill="none" stroke-width="0.75" stroke="#000000" stroke-opacity="0.49804" stroke-linecap="butt" stroke-linejoin="round"/>
  <text x="224" y="453.7" font-family="Helvetica" font-size="10" font-weight="normal" font-style="normal" fill="#000000" fill-opacity="1">8</text>
  <path d="M 286 9 L 286 441" fill="none" stroke-width="0.75" stroke="#000000" stroke-opacity="0.49804" stroke-linecap="butt" stroke-linejoin="round"/>
  <text x="280" y="453.7" font-family="Helvetica" font-size="10" font-weight="normal" font-style="normal" fill="#000000" fill-opacity="1">16</text>
  <path d="M 345 9 L 345 441" fill="none" stroke-width="0.75" stroke="#000000" stroke-opacity="0.49804" stroke-linecap="butt" stroke-linejoin="round"/>
  <text x="339" y="453.7" font-family="Helvetica" font-size="10" font-weight="normal" font-style="normal" fill="#000000" fill-opacity="1">32</text>
  <path d="M 404 9 L 404 441" fill="none" stroke-width="0.75" stroke="#000000" stroke-opacity="0.49804" stroke-linecap="butt" stroke-linejoin="round"/>
  <text x="398" y="453.7" font-family="Helvetica" font-size="10" font-weight="normal" font-style="normal" fill="#000000" fill-opacity="1">64</text>
  <path d="M 463 9 L 463 441" fill="none" stroke-width="0.75" stroke="#000000" stroke-opacity="0.49804" stroke-linecap="butt" stroke-linejoin="round"/>
  <text x="454.5" y="453.7" font-family="Helvetica" font-size="10" font-weight="normal" font-style="normal" fill="#000000" fill-opacity="1">128</text>
  <path d="M 522 9 L 522 441" fill="none" stroke-width="0.75" stroke="#000000" stroke-opacity="0.49804" stroke-linecap="butt" stroke-linejoin="round"/>
  <text x="513.5" y="453.7" font-family="Helvetica" font-size="10" font-weight="normal" font-style="normal" fill="#000000" fill-opacity="1">256</text>
  <path d="M 581 9 L 581 441" fill="none" stroke-width="0.75" stroke="#000000" stroke-opacity="0.49804" stroke-linecap="butt" stroke-linejoin="round"/>
  <text x="572.5" y="453.7" font-family="Helvetica" font-size="10" font-weight="normal" font-style="normal" fill="#000000" fill-opacity="1">512</text>
  <path d="M 640 9 L 640 441" fill="none" stroke-width="0.75" stroke="#000000" stroke-opacity="0.49804" stroke-linecap="butt" stroke-linejoin="round"/>
  <text x="634.5" y="453.7" font-family="Helvetica" font-size="10" font-weight="normal" font-style="normal" fill="#000000" fill-opacity="1">1k</text>
  <path d="M 699 9 L 699 441" fill="none" stroke-width="0.75" stroke="#000000" stroke-opacity="0.49804" stroke-linecap="butt" stroke-linejoin="round"/>
  <text x="693.5" y="453.7" font-family="Helvetica" font-size="10" font-weight="normal" font-style="normal" fill="#000000" fill-opacity="1">2k</text>
  <path d="M 758 9 L 758 441" fill="none" stroke-width="0.75" stroke="#000000" stroke-opacity="0.49804" stroke-linecap="butt" stroke-linejoin="round"/>
  <text x="752.5" y="453.7" font-family="Helvetica" font-size="10" font-weight="normal" font-style="normal" fill="#000000" fill-opacity="1">4k</text>
  <path d="M 817 9 L 817 441" fill="none" stroke-width="0.75" stroke="#000000" stroke-opacity="0.49804" stroke-linecap="butt" stroke-linejoin="round"/>
  <text x="811.5" y="453.7" font-family="Helvetica" font-size="10" font-weight="normal" font-style="normal" fill="#000000" fill-opacity="1">8k</text>
  <path d="M 876 9 L 876 441" fill="none" stroke-width="0.75" stroke="#000000" stroke-opacity="0.49804" stroke-linecap="butt" stroke-linejoin="round"/>
  <text x="867.5" y="453.7" font-family="Helvetica" font-size="10" font-weight="normal" font-style="normal" fill="#000000" fill-opacity="1">16k</text>
  <path d="M 935 9 L 935 441" fill="none" stroke-width="0.75" stroke="#000000" stroke-opacity="0.49804" stroke-linecap="butt" stroke-linejoin="round"/>
  <text x="926.5" y="453.7" font-family="Helvetica" font-size="10" font-weight="normal" font-style="normal" fill="#000000" fill-opacity="1">32k</text>
  <path d="M 994 9 L 994 441" fill="none" stroke-width="0.75" stroke="#000000" stroke-opacity="0.49804" stroke-linecap="butt" stroke-linejoin="round"/>
  <text x="985.5" y="453.7" font-family="Helvetica" font-size="10" font-weight="normal" font-style="normal" fill="#000000" fill-opacity="1">64k</text>
  <path d="M 1053 9 L 1053 441" fill="none" stroke-width="0.75" stroke="#000000" stroke-opacity="0.49804" stroke-linecap="butt" stroke-linejoin="round"/>
  <text x="1042" y="453.7" font-family="Helvetica" font-size="10" font-weight="normal" font-style="normal" fill="#000000" fill-opacity="1">128k</text>
  <path d="M 1112 9 L 1112 441" fill="none" stroke-width="0.75" stroke="#000000" stroke-opacity="0.49804" stroke-linecap="butt" stroke-linejoin="round"/>
  <text x="1101" y="453.7" font-family="Helvetica" font-size="10" font-weight="normal" font-style="normal" fill="#000000" fill-opacity="1">256k</text>
  <path d="M 1171 9 L 1171 441" fill="none" stroke-width="0.75" stroke="#000000" stroke-opacity="0.49804" stroke-linecap="butt" stroke-linejoin="round"/>
  <text x="1160" y="453.7" font-family="Helvetica" font-size="10" font-weight="normal" font-style="normal" fill="#000000" fill-opacity="1">512k</text>
  <path d="M 1230 9 L 1230 441" fill="none" stroke-width="0.75" stroke="#000000" stroke-opacity="0.49804" stroke-linecap="butt" stroke-linejoin="round"/>
  <text x="1223" y="453.7" font-family="Helvetica" font-size="10" font-weight="normal" font-style="normal" fill="#000000" fill-opacity="1">1M</text>
  <path d="M 50 441 L 1230 441" fill="none" stroke-width="0.75" stroke="#000000" stroke-opacity="0.49804" stroke-linecap="butt" stroke-linejoin="round"/>
  <text x="27" y="442.7" font-family="Helvetica" font-size="10" font-weight="normal" font-style="normal" fill="#000000" fill-opacity="1">1 ns</text>
  <text x="1236" y="442.7" font-family="Helvetica" font-size="10" font-weight="normal" font-style="normal" fill="#000000" fill-opacity="1">1 ns</text>
  <path d="M 50 354.6 L 1230 354.6" fill="none" stroke-width="0.75" stroke="#000000" stroke-opacity="0.49804" stroke-linecap="butt" stroke-linejoin="round"/>
  <text x="21" y="356.3" font-family="Helvetica" font-size="10" font-weight="normal" font-style="normal" fill="#000000" fill-opacity="1">10 ns</text>
  <text x="1236" y="356.3" font-family="Helvetica" font-size="10" font-weight="normal" font-style="normal" fill="#000000" fill-opacity="1">10 ns</text>
  <path d="M 50 268.2 L 1230 268.2" fill="none" stroke-width="0.75" stroke="#000000" stroke-opacity="0.49804" stroke-linecap="butt" stroke-linejoin="round"/>
  <text x="16" y="269.9" font-family="Helvetica" font-size="10" font-weight="normal" font-style="normal" fill="#000000" fill-opacity="1">100 ns</text>
  <text x="1236" y="269.9" font-family="Helvetica" font-size="10" font-weight="normal" font-style="normal" fill="#000000" fill-opacity="1">100 ns</text>
  <path d="M 50 181.8 L 1230 181.8" fill="none" stroke-width="0.75" stroke="#000000" stroke-opacity="0.49804" stroke-linecap="butt" stroke-linejoin="round"/>
  <text x="26" y="183.5" font-family="Helvetica" font-size="10" font-weight="normal" font-style="normal" fill="#000000" fill-opacity="1">1 µs</text>
  <text x="1236" y="183.5" font-family="Helvetica" font-size="10" font-weight="normal" font-style="normal" fill="#000000" fill-opacity="1">1 µs</text>
  <path d="M 50 95.4 L 1230 95.4" fill="none" stroke-width="0.75" stroke="#000000" stroke-opacity="0.49804" stroke-linecap="butt" stroke-linejoin="round"/>
  <text x="21" y="97.1" font-family="Helvetica" font-size="10" font-weight="normal" font-style="normal" fill="#000000" fill-opacity="1">10 µs</text>
  <text x="1236" y="97.1" font-family="Helvetica" font-size="10" font-weight="normal" font-style="normal" fill="#000000" fill-opacity="1">10 µs</text>
  <path d="M 50 9 L 1230 9" fill="none" stroke-width="0.75" stroke="#000000" stroke-opacity="0.49804" stroke-linecap="butt" stroke-linejoin="round"/>
  <text x="15" y="10.7" font-family="Helvetica" font-size="10" font-weight="normal" font-style="normal" fill="#000000" fill-opacity="1">100 µs</text>
  <text x="1236" y="10.7" font-family="Helvetica" font-size="10" font-weight="normal" font-style="normal" fill="#000000" fill-opacity="1">100 µs</text>
  <path d="M 50 414.99 L 1230 414.99" fill="none" stroke-width="0.5" stroke="#000000" stroke-opacity="0.25882" stroke-linecap="butt" stroke-linejoin="round" stroke-dasharray="6 3" stroke-dashoffset="0"/>
  <path d="M 50 388.98 L 1230 388.98" fill="none" stroke-width="0.5" stroke="#000000" stroke-opacity="0.25882" stroke-linecap="butt" stroke-linejoin="round" stroke-dasharray="6 3" stroke-dashoffset="0"/>
  <path d="M 50 362.97 L 1230 362.97" fill="none" stroke-width="0.5" stroke="#000000" stroke-opacity="0.25882" stroke-linecap="butt" stroke-linejoin="round" stroke-dasharray="6 3" stroke-dashoffset="0"/>
  <path d="M 50 336.96 L 1230 336.96" fill="none" stroke-width="0.5" stroke="#000000" stroke-opacity="0.25882" stroke-linecap="butt" stroke-linejoin="round" stroke-dasharray="6 3" stroke-dashoffset="0"/>
  <path d="M 50 310.96 L 1230 310.96" fill="none" stroke-width="0.5" stroke="#000000" stroke-opacity="0.25882" stroke-linecap="butt" stroke-linejoin="round" stroke-dasharray="6 3" stroke-dashoffset="0"/>
  <path d="M 50 284.95 L 1230 284.95" fill="none" stroke-width="0.5" stroke="#000000" stroke-opacity="0.25882" stroke-linecap="butt" stroke-linejoin="round" stroke-dasharray="6 3" stroke-dashoffset="0"/>
  <path d="M 50 258.94 L 1230 258.94" fill="none" stroke-width="0.5" stroke="#000000" stroke-opacity="0.25882" stroke-linecap="butt" stroke-linejoin="round" stroke-dasharray="6 3" stroke-dashoffset="0"/>
  <path d="M 50 232.93 L 1230 232.93" fill="none" stroke-width="0.5" stroke="#000000" stroke-opacity="0.25882" stroke-linecap="butt" stroke-linejoin="round" stroke-dasharray="6 3" stroke-dashoffset="0"/>
  <path d="M 50 206.92 L 1230 206.92" fill="none" stroke-width="0.5" stroke="#000000" stroke-opacity="0.25882" stroke-linecap="butt" stroke-linejoin="round" stroke-dasharray="6 3" stroke-dashoffset="0"/>
  <path d="M 50 180.91 L 1230 180.91" fill="none" stroke-width="0.5" stroke="#000000" stroke-opacity="0.25882" stroke-linecap="butt" stroke-linejoin="round" stroke-dasharray="6 3" stroke-dashoffset="0"/>
  <path d="M 50 154.9 L 1230 154.9" fill="none" stroke-width="0.5" stroke="#000000" stroke-opacity="0.25882" stroke-linecap="butt" stroke-linejoin="round" stroke-dasharray="6 3" stroke-dashoffset="0"/>
  <path d="M 50 128.89 L 1230 128.89" fill="none" stroke-width="0.5" stroke="#000000" stroke-opacity="0.25882" stroke-linecap="butt" stroke-linejoin="round" stroke-dasharray="6 3" stroke-dashoffset="0"/>
  <path d="M 50 102.88 L 1230 102.88" fill="none" stroke-width="0.5" stroke="#000000" stroke-opacity="0.25882" stroke-linecap="butt" stroke-linejoin="round" stroke-dasharray="6 3" stroke-dashoffset="0"/>
  <path d="M 50 76.874 L 1230 76.874" fill="none" stroke-width="0.5" stroke="#000000" stroke-opacity="0.25882" stroke-linecap="butt" stroke-linejoin="round" stroke-dasharray="6 3" stroke-dashoffset="0"/>
  <path d="M 50 50.865 L 1230 50.865" fill="none" stroke-width="0.5" stroke="#000000" stroke-opacity="0.25882" stroke-linecap="butt" stroke-linejoin="round" stroke-dasharray="6 3" stroke-dashoffset="0"/>
  <path d="M 50 24.856 L 1230 24.856" fill="none" stroke-width="0.5" stroke="#000000" stroke-opacity="0.25882" stroke-linecap="butt" stroke-linejoin="round" stroke-dasharray="6 3" stroke-dashoffset="0"/>
  <path d="M 74 33 L 74 88 L 348 88 L 348 33 z" fill="#FFFFFF" fill-opacity="1.0" stroke="none"/>
  <clipPath id="clip-0">
    <path d="M 50 9 L 50 441 L 1230 441 L 1230 9 z"/>
  </clipPath>
  <g clip-path="url(#clip-0)">
    <path d="M 50 299.94L 109 286.63L 143.51 291L 168 281.07L 186.99 288.26L 202.51 285.84L 215.63 278.05L 227 275.28L 245.99 273.67L 261.51 270.74L 274.63 268.03L 286 265.91L 304.99 262.59L 320.51 261.7L 333.63 260.51L 345 259.67L 363.99 258.98L 379.51 254.89L 392.63 251.38L 404 251.99L 422.99 246.66L 438.51 249.66L 451.63 248.06L 463 242.69L 481.99 240.11L 497.51 240.28L 510.63 239.04L 522 237.87L 540.99 236.56L 556.51 237.76L 569.63 235.47L 581 233.81L 599.99 233.06L 615.51 232.58L 628.63 231.39L 640 229.43L 658.99 228.19L 674.51 227.83L 687.63 226.1L 699 226.57L 717.99 225.09L 733.51 224.05L 746.63 222.22L 758 221.22L 776.99 219.55L 792.51 218.54L 805.63 216.72L 817 216.83L 835.99 215.23L 851.51 214.06L 864.63 213.34L 876 213.08L 894.99 211.96L 910.51 211.18L 923.63 209.65L 935 209.72L 953.99 208.17L 969.51 206.75L 982.63 206.57L 994 205.81L 1013 204.57L 1028.5 203.97L 1041.6 202.86L 1053 201.22L 1072 200.31L 1087.5 199.78L 1100.6 198.08L 1112 197.13L 1131 193.99L 1146.5 191.92L 1159.6 190.59L 1171 188.61L 1190 186.7L 1205.5 184.41L 1218.6 182.08L 1230 180.83L 1230 181.38L 1218.6 183.52L 1205.5 185.31L 1190 187.06L 1171 190.15L 1159.6 190.97L 1146.5 192.64L 1131 194.68L 1112 197.2L 1100.6 198.45L 1087.5 199.87L 1072 201.19L 1053 202.82L 1041.6 203.11L 1028.5 204.05L 1013 205.08L 994 206.08L 982.63 206.8L 969.51 206.87L 953.99 208.44L 935 209.89L 923.63 210.39L 910.51 211.3L 894.99 212.47L 876 213.51L 864.63 214.11L 851.51 215.16L 835.99 216.11L 817 217.22L 805.63 218.08L 792.51 219.12L 776.99 220.83L 758 222.33L 746.63 223.03L 733.51 224.43L 717.99 225.12L 699 226.61L 687.63 227.39L 674.51 228.52L 658.99 229.61L 640 230.98L 628.63 231.44L 615.51 232.76L 599.99 233.23L 581 236.62L 569.63 236.78L 556.51 238.04L 540.99 241.18L 522 241.88L 510.63 241.64L 497.51 243.12L 481.99 244.72L 463 248.31L 451.63 248.53L 438.51 250.63L 422.99 252.34L 404 253.54L 392.63 253.85L 379.51 259.05L 363.99 260.78L 345 265.29L 333.63 266.14L 320.51 268.59L 304.99 266.67L 286 269.59L 274.63 275.03L 261.51 273.53L 245.99 285.84L 227 280.01L 215.63 284.12L 202.51 285.84L 186.99 288.51L 168 311.84L 143.51 316.41L 109 326.76L 50 301.66" fill="#007AFF" fill-opacity="0.30196078431372547" stroke="none"/>
    <path d="M 50 300.75L 109 326.76L 143.51 341.97L 168 352.77L 186.99 360.33L 202.51 367.18L 215.63 374.67L 227 377.97L 245.99 386.34L 261.51 394.9L 274.63 374.22L 286 379.23L 304.99 362.18L 320.51 379.08L 333.63 384.86L 345 378.8L 363.99 366.99L 379.51 368.61L 392.63 370.1L 404 367.53L 422.99 355.71L 438.51 368.47L 451.63 364.17L 463 364.03L 481.99 361.52L 497.51 354.94L 510.63 355.98L 522 350.27L 540.99 342.69L 556.51 337.75L 569.63 329.43L 581 326.88L 599.99 320.76L 615.51 320L 628.63 309.19L 640 306.97L 658.99 304.2L 674.51 294.23L 687.63 291.12L 699 286.53L 717.99 280.09L 733.51 274.18L 746.63 266.88L 758 263.65L 776.99 255.09L 792.51 247.93L 805.63 242.32L 817 237.72L 835.99 227.52L 851.51 221.71L 864.63 214.92L 876 210.46L 894.99 202.46L 910.51 194.2L 923.63 186.73L 935 180.65L 953.99 170.38L 969.51 162.17L 982.63 155.25L 994 149.62L 1013 140.05L 1028.5 133.64L 1041.6 127.43L 1053 121.64L 1072 113.61L 1087.5 106.18L 1100.6 99.443L 1112 94.649L 1131 87.025L 1131 87.025L 1112 95.765L 1100.6 100.94L 1087.5 106.51L 1072 113.72L 1053 122.44L 1041.6 127.52L 1028.5 133.83L 1013 140.96L 994 150.13L 982.63 155.56L 969.51 162.31L 953.99 170.44L 935 180.74L 923.63 186.89L 910.51 194.35L 894.99 202.52L 876 211.48L 864.63 216.72L 851.51 222.48L 835.99 229.64L 817 237.85L 805.63 242.6L 792.51 248.48L 776.99 256.48L 758 264.27L 746.63 269.25L 733.51 274.23L 717.99 280.9L 699 288.36L 687.63 293.4L 674.51 300.59L 658.99 306.47L 640 313.8L 628.63 316.41L 615.51 322.9L 599.99 326.71L 581 333.26L 569.63 336.97L 556.51 341.41L 540.99 347.01L 522 351.36L 510.63 358.85L 497.51 361.84L 481.99 363.86L 463 367.11L 451.63 371.76L 438.51 373.31L 422.99 375.45L 404 374.66L 392.63 379.03L 379.51 379.08L 363.99 378.96L 345 379.23L 333.63 384.86L 320.51 379.08L 304.99 387.6L 286 379.23L 274.63 374.22L 261.51 394.9L 245.99 388.06L 227 379.68L 215.63 374.67L 202.51 368.89L 186.99 362.05L 168 352.77L 143.51 341.97L 109 326.76L 50 300.75" fill="#FF3B30" fill-opacity="0.30196078431372547" stroke="none"/>
    <path d="M 50 301.2L 109 311.55L 143.51 307.95L 168 301.09L 186.99 288.45L 202.51 285.84L 215.63 282.44L 227 278.71L 245.99 282.26L 261.51 272.78L 274.63 273.07L 286 268.59L 304.99 265.56L 320.51 266.67L 333.63 264.59L 345 263.74L 363.99 260.3L 379.51 257.92L 392.63 253.19L 404 253.13L 422.99 250.77L 438.51 250.38L 451.63 248.41L 463 246.76L 481.99 243.46L 497.51 242.36L 510.63 240.95L 522 240.79L 540.99 239.92L 556.51 237.96L 569.63 236.43L 581 235.86L 599.99 233.18L 615.51 232.71L 628.63 231.43L 640 230.57L 658.99 229.24L 674.51 228.34L 687.63 227.05L 699 226.6L 717.99 225.11L 733.51 224.33L 746.63 222.82L 758 222.04L 776.99 220.49L 792.51 218.97L 805.63 217.72L 817 217.12L 835.99 215.87L 851.51 214.87L 864.63 213.91L 876 213.4L 894.99 212.34L 910.51 211.26L 923.63 210.2L 935 209.84L 953.99 208.37L 969.51 206.84L 982.63 206.74L 994 206.01L 1013 204.94L 1028.5 204.03L 1041.6 203.04L 1053 202.39L 1072 200.96L 1087.5 199.85L 1100.6 198.35L 1112 197.18L 1131 194.49L 1146.5 192.45L 1159.6 190.87L 1171 189.74L 1190 186.96L 1205.5 185.07L 1218.6 183.14L 1230 181.24" fill="none" stroke-width="4" stroke="#007AFF" stroke-opacity="1" stroke-linecap="round" stroke-linejoin="round"/>
    <path d="M 50 300.75L 109 326.76L 143.51 341.97L 168 352.77L 186.99 361.59L 202.51 368.43L 215.63 374.67L 227 379.23L 245.99 387.6L 261.51 394.9L 274.63 374.22L 286 379.23L 304.99 379.14L 320.51 379.08L 333.63 384.86L 345 379.11L 363.99 375.45L 379.51 376.05L 392.63 376.49L 404 372.66L 422.99 369.21L 438.51 371.99L 451.63 369.62L 463 366.28L 481.99 363.24L 497.51 359.91L 510.63 358.08L 522 351.07L 540.99 345.84L 556.51 340.42L 569.63 334.85L 581 331.49L 599.99 325.06L 615.51 322.12L 628.63 314.39L 640 311.89L 658.99 305.86L 674.51 298.82L 687.63 292.79L 699 287.88L 717.99 280.69L 733.51 274.21L 746.63 268.61L 758 264.11L 776.99 256.12L 792.51 248.34L 805.63 242.53L 817 237.82L 835.99 229.07L 851.51 222.27L 864.63 216.24L 876 211.21L 894.99 202.5L 910.51 194.31L 923.63 186.85L 935 180.71L 953.99 170.42L 969.51 162.27L 982.63 155.48L 994 150L 1013 140.72L 1028.5 133.78L 1041.6 127.5L 1053 122.23L 1072 113.69L 1087.5 106.42L 1100.6 100.54L 1112 95.47L 1131 87.025" fill="none" stroke-width="4" stroke="#FF3B30" stroke-opacity="1" stroke-linecap="round" stroke-linejoin="round"/>
    <path d="M 50 301.2L 109 311.55L 143.51 307.95L 168 301.09L 186.99 288.45L 202.51 285.84L 215.63 282.44L 227 278.71L 245.99 282.26L 261.51 272.78L 274.63 273.07L 286 268.59L 304.99 265.56L 320.51 266.67L 333.63 264.59L 345 263.74L 363.99 260.3L 379.51 257.92L 392.63 253.19L 404 253.13L 422.99 250.77L 438.51 250.38L 451.63 248.41L 463 246.76L 481.99 243.46L 497.51 242.36L 510.63 240.95L 522 240.79L 540.99 239.92L 556.51 237.96L 569.63 236.43L 581 235.86L 599.99 233.18L 615.51 232.71L 628.63 231.43L 640 230.57L 658.99 229.24L 674.51 228.34L 687.63 227.05L 699 226.6L 717.99 225.11L 733.51 224.33L 746.63 222.82L 758 222.04L 776.99 220.49L 792.51 218.97L 805.63 217.72L 817 217.12L 835.99 215.87L 851.51 214.87L 864.63 213.91L 876 213.4L 894.99 212.34L 910.51 211.26L 923.63 210.2L 935 209.84L 953.99 208.37L 969.51 206.84L 982.63 206.74L 994 206.01L 1013 204.94L 1028.5 204.03L 1041.6 203.04L 1053 202.39L 1072 200.96L 1087.5 199.85L 1100.6 198.35L 1112 197.18L 1131 194.49L 1146.5 192.45L 1159.6 190.87L 1171 189.74L 1190 186.96L 1205.5 185.07L 1218.6 183.14L 1230 181.24" fill="none" stroke-width="0.5" stroke="#000000" stroke-opacity="0.30196" stroke-linecap="round" stroke-linejoin="round"/>
    <path d="M 50 300.75L 109 326.76L 143.51 341.97L 168 352.77L 186.99 361.59L 202.51 368.43L 215.63 374.67L 227 379.23L 245.99 387.6L 261.51 394.9L 274.63 374.22L 286 379.23L 304.99 379.14L 320.51 379.08L 333.63 384.86L 345 379.11L 363.99 375.45L 379.51 376.05L 392.63 376.49L 404 372.66L 422.99 369.21L 438.51 371.99L 451.63 369.62L 463 366.28L 481.99 363.24L 497.51 359.91L 510.63 358.08L 522 351.07L 540.99 345.84L 556.51 340.42L 569.63 334.85L 581 331.49L 599.99 325.06L 615.51 322.12L 628.63 314.39L 640 311.89L 658.99 305.86L 674.51 298.82L 687.63 292.79L 699 287.88L 717.99 280.69L 733.51 274.21L 746.63 268.61L 758 264.11L 776.99 256.12L 792.51 248.34L 805.63 242.53L 817 237.82L 835.99 229.07L 851.51 222.27L 864.63 216.24L 876 211.21L 894.99 202.5L 910.51 194.31L 923.63 186.85L 935 180.71L 953.99 170.42L 969.51 162.27L 982.63 155.48L 994 150L 1013 140.72L 1028.5 133.78L 1041.6 127.5L 1053 122.23L 1072 113.69L 1087.5 106.42L 1100.6 100.54L 1112 95.47L 1131 87.025" fill="none" stroke-width="0.5" stroke="#000000" stroke-opacity="0.30196" stroke-linecap="round" stroke-linejoin="round"/>
  </g>
  <path d="M 74 33 L 74 88 L 348 88 L 348 33 z" fill="#FFFFFF" fill-opacity="0.7019607843137254" stroke-width="0.5" stroke="#000000" stroke-opacity="1" stroke-linecap="round" stroke-linejoin="round"/>
  <path d="M 88 52 L 108 52" fill="none" stroke-width="4" stroke="#FF3B30" stroke-opacity="1" stroke-linecap="round" stroke-linejoin="round"/>
  <path d="M 88 52 L 108 52" fill="none" stroke-width="0.5" stroke="#000000" stroke-opacity="0.30196" stroke-linecap="round" stroke-linejoin="round"/>
  <text x="119" y="56.17" font-family="Menlo" font-size="12" font-weight="normal" font-style="normal" fill="#000000" fill-opacity="1">Array&lt;Int&gt; random removals</text>
  <path d="M 88 69 L 108 69" fill="none" stroke-width="4" stroke="#007AFF" stroke-opacity="1" stroke-linecap="round" stroke-linejoin="round"/>
  <path d="M 88 69 L 108 69" fill="none" stroke-width="0.5" stroke="#000000" stroke-opacity="0.30196" stroke-linecap="round" stroke-linejoin="round"/>
  <text x="119" y="73.17" font-family="Menlo" font-size="12" font-weight="normal" font-style="normal" fill="#000000" fill-opacity="1">TreeArray&lt;Int&gt; random removals</text>
  <path d="M 50 9 L 50 441 L 1230 441 L 1230 9 z" fill="none" stroke-width="0.5" stroke="#000000" stroke-opacity="1" stroke-linecap="round" stroke-linejoin="round"/>
</svg>
