<!DOCTYPE svg PUBLIC "-//W3C//DTD SVG 1.1//EN" "http://www.w3.org/Graphics/SVG/1.1/DTD/svg11.dtd">
<svg width="1280.0px" height="480.0px" viewBox="0.0 0.0 1280.0 480.0" xmlns="http://www.w3.org/2000/svg" xmlns:xlink="http://www.w3.org/1999/xlink" version="1.1">
  <path d="M 0 0 L 0 480 L 1280 480 L 1280 0 z" fill="#FFFFFF" fill-opacity="1.0" stroke="none"/>
  <text x="50" y="468.7" font-family="Helvetica" font-size="10" font-weight="normal" font-style="normal" fill="#000000" fill-opacity="1">Average per-element processing time over input size (bands: min, mean, mean + 2stddev)</text>
  <a xlink:href="https://github.com/apple/swift-collections-benchmark"><text x="1107" y="468.7" font-family="Helvetica" font-size="10" font-weight="normal" font-style="normal" fill="#000000" fill-opacity="1">swift-collections-benchmark</text></a>
  <path d="M 50 9 L 50 441" fill="none" stroke-width="0.75" stroke="#000000" stroke-opacity="0.49804" stroke-linecap="butt" stroke-linejoin="round"/>
  <text x="47" y="453.7" font-family="Helvetica" font-size="10" font-weight="normal" font-style="normal" fill="#000000" fill-opacity="1">1</text>
  <path d="M 109 9 L 109 441" fill="none" stroke-width="0.75" stroke="#000000" stroke-opacity="0.49804" stroke-linecap="butt" stroke-linejoin="round"/>
  <text x="106" y="453.7" font-family="Helvetica" font-size="10" font-weight="normal" font-style="normal" fill="#000000" fill-opacity="1">2</text>
  <path d="M 168 9 L 168 441" fill="none" stroke-width="0.75" stroke="#000000" stroke-opacity="0.49804" stroke-linecap="butt" stroke-linejoin="round"/>
  <text x="165" y="453.7" font-family="Helvetica" font-size="10" font-weight="normal" font-style="normal" fill="#000000" fill-opacity="1">4</text>
  <path d="M 227 9 L 227 441" fill="none" stroke-width="0.75" stroke="#000000" stroke-opacity="0.49804" stroke-linecap="butt" stroke-linejoin="round"/>
  <text x="224" y="453.7" font-family="Helvetica" font-size="10" font-weight="normal" font-style="normal" fill="#000000" fill-opacity="1">8</text>
  <path d="M 286 9 L 286 441" fill="none" stroke-width="0.75" stroke="#000000" stroke-opacity="0.49804" stroke-linecap="butt" stroke-linejoin="round"/>
  <text x="280" y="453.7" font-family="Helvetica" font-size="10" font-weight="normal" font-style="normal" fill="#000000" fill-opacity="1">16</text>
  <path d="M 345 9 L 345 441" fill="none" stroke-width="0.75" stroke="#000000" stroke-opacity="0.49804" stroke-linecap="butt" stroke-linejoin="round"/>
  <text x="339" y="453.7" font-family="Helvetica" font-size="10" font-weight="normal" font-style="normal" fill="#000000" fill-opacity="1">32</text>
  <path d="M 404 9 L 404 441" fill="none" stroke-width="0.75" stroke="#000000" stroke-opacity="0.49804" stroke-linecap="butt" stroke-linejoin="round"/>
  <text x="398" y="453.7" font-family="Helvetica" font-size="10" font-weight="normal" font-style="normal" fill="#000000" fill-opacity="1">64</text>
  <path d="M 463 9 L 463 441" fill="none" stroke-width="0.75" stroke="#000000" stroke-opacity="0.49804" stroke-linecap="butt" stroke-linejoin="round"/>
  <text x="454.5" y="453.7" font-family="Helvetica" font-size="10" font-weight="normal" font-style="normal" fill="#000000" fill-opacity="1">128</text>
  <path d="M 522 9 L 522 441" fill="none" stroke-width="0.75" stroke="#000000" stroke-opacity="0.49804" stroke-linecap="butt" stroke-linejoin="round"/>
  <text x="513.5" y="453.7" font-family="Helvetica" font-size="10" font-weight="normal" font-style="normal" fill="#000000" fill-opacity="1">256</text>
  <path d="M 581 9 L 581 441" fill="none" stroke-width="0.75" stroke="#000000" stroke-opacity="0.49804" stroke-linecap="butt" stroke-linejoin="round"/>
  <text x="572.5" y="453.7" font-family="Helvetica" font-size="10" font-weight="normal" font-style="normal" fill="#000000" fill-opacity="1">512</text>
  <path d="M 640 9 L 640 441" fill="none" stroke-width="0.75" stroke="#000000" stroke-opacity="0.49804" stroke-linecap="butt" stroke-linejoin="round"/>
  <text x="634.5" y="453.7" font-family="Helvetica" font-size="10" font-weight="normal" font-style="normal" fill="#000000" fill-opacity="1">1k</text>
  <path d="M 699 9 L 699 441" fill="none" stroke-width="0.75" stroke="#000000" stroke-opacity="0.49804" stroke-linecap="butt" stroke-linejoin="round"/>
  <text x="693.5" y="453.7" font-family="Helvetica" font-size="10" font-weight="normal" font-style="normal" fill="#000000" fill-opacity="1">2k</text>
  <path d="M 758 9 L 758 441" fill="none" stroke-width="0.75" stroke="#000000" stroke-opacity="0.49804" stroke-linecap="butt" stroke-linejoin="round"/>
  <text x="752.5" y="453.7" font-family="Helvetica" font-size="10" font-weight="normal" font-style="normal" fill="#000000" fill-opacity="1">4k</text>
  <path d="M 817 9 L 817 441" fill="none" stroke-width="0.75" stroke="#000000" stroke-opacity="0.49804" stroke-linecap="butt" stroke-linejoin="round"/>
  <text x="811.5" y="453.7" font-family="Helvetica" font-size="10" font-weight="normal" font-style="normal" fill="#000000" fill-opacity="1">8k</text>
  <path d="M 876 9 L 876 441" fill="none" stroke-width="0.75" stroke="#000000" stroke-opacity="0.49804" stroke-linecap="butt" stroke-linejoin="round"/>
  <text x="867.5" y="453.7" font-family="Helvetica" font-size="10" font-weight="normal" font-style="normal" fill="#000000" fill-opacity="1">16k</text>
  <path d="M 935 9 L 935 441" fill="none" stroke-width="0.75" stroke="#000000" stroke-opacity="0.49804" stroke-linecap="butt" stroke-linejoin="round"/>
  <text x="926.5" y="453.7" font-family="Helvetica" font-size="10" font-weight="normal" font-style="normal" fill="#000000" fill-opacity="1">32k</text>
  <path d="M 994 9 L 994 441" fill="none" stroke-width="0.75" stroke="#000000" stroke-opacity="0.49804" stroke-linecap="butt" stroke-linejoin="round"/>
  <text x="985.5" y="453.7" font-family="Helvetica" font-size="10" font-weight="normal" font-style="normal" fill="#000000" fill-opacity="1">64k</text>
  <path d="M 1053 9 L 1053 441" fill="none" stroke-width="0.75" stroke="#000000" stroke-opacity="0.49804" stroke-linecap="butt" stroke-linejoin="round"/>
  <text x="1042" y="453.7" font-family="Helvetica" font-size="10" font-weight="normal" font-style="normal" fill="#000000" fill-opacity="1">128k</text>
  <path d="M 1112 9 L 1112 441" fill="none" stroke-width="0.75" stroke="#000000" stroke-opacity="0.49804" stroke-linecap="butt" stroke-linejoin="round"/>
  <text x="1101" y="453.7" font-family="Helvetica" font-size="10" font-weight="normal" font-style="normal" fill="#000000" fill-opacity="1">256k</text>
  <path d="M 1171 9 L 1171 441" fill="none" stroke-width="0.75" stroke="#000000" stroke-opacity="0.49804" stroke-linecap="butt" stroke-linejoin="round"/>
  <text x="1160" y="453.7" font-family="Helvetica" font-size="10" font-weight="normal" font-style="normal" fill="#000000" fill-opacity="1">512k</text>
  <path d="M 1230 9 L 1230 441" fill="none" stroke-width="0.75" stroke="#000000" stroke-opacity="0.49804" stroke-linecap="butt" stroke-linejoin="round"/>
  <text x="1223" y="453.7" font-family="Helvetica" font-size="10" font-weight="normal" font-style="normal" fill="#000000" fill-opacity="1">1M</text>
  <path d="M 50 441 L 1230 441" fill="none" stroke-width="0.75" stroke="#000000" stroke-opacity="0.49804" stroke-linecap="butt" stroke-linejoin="round"/>
  <text x="27" y="442.7" font-family="Helvetica" font-size="10" font-weight="normal" font-style="normal" fill="#000000" fill-opacity="1">1 ns</text>
  <text x="1236" y="442.7" font-family="Helvetica" font-size="10" font-weight="normal" font-style="normal" fill="#000000" fill-opacity="1">1 ns</text>
  <path d="M 50 354.6 L 1230 354.6" fill="none" stroke-width="0.75" stroke="#000000" stroke-opacity="0.49804" stroke-linecap="butt" stroke-linejoin="round"/>
  <text x="21" y="356.3" font-family="Helvetica" font-size="10" font-weight="normal" font-style="normal" fill="#000000" fill-opacity="1">10 ns</text>
  <text x="1236" y="356.3" font-family="Helvetica" font-size="10" font-weight="normal" font-style="normal" fill="#000000" fill-opacity="1">10 ns</text>
  <path d="M 50 268.2 L 1230 268.2" fill="none" stroke-width="0.75" stroke="#000000" stroke-opacity="0.49804" stroke-linecap="butt" stroke-linejoin="round"/>
  <text x="16" y="269.9" font-family="Helvetica" font-size="10" font-weight="normal" font-style="normal" fill="#000000" fill-opacity="1">100 ns</text>
  <text x="1236" y="269.9" font-family="Helvetica" font-size="10" font-weight="normal" font-style="normal" fill="#000000" fill-opacity="1">100 ns</text>
  <path d="M 50 181.8 L 1230 181.8" fill="none" stroke-width="0.75" stroke="#000000" stroke-opacity="0.49804" stroke-linecap="butt" stroke-linejoin="round"/>
  <text x="26" y="183.5" font-family="Helvetica" font-size="10" font-weight="normal" font-style="normal" fill="#000000" fill-opacity="1">1 µs</text>
  <text x="1236" y="183.5" font-family="Helvetica" font-size="10" font-weight="normal" font-style="normal" fill="#000000" fill-opacity="1">1 µs</text>
  <path d="M 50 95.4 L 1230 95.4" fill="none" stroke-width="0.75" stroke="#000000" stroke-opacity="0.49804" stroke-linecap="butt" stroke-linejoin="round"/>
  <text x="21" y="97.1" font-family="Helvetica" font-size="10" font-weight="normal" font-style="normal" fill="#000000" fill-opacity="1">10 µs</text>
  <text x="1236" y="97.1" font-family="Helvetica" font-size="10" font-weight="normal" font-style="normal" fill="#000000" fill-opacity="1">10 µs</text>
  <path d="M 50 9 L 1230 9" fill="none" stroke-width="0.75" stroke="#000000" stroke-opacity="0.49804" stroke-linecap="butt" stroke-linejoin="round"/>
  <text x="15" y="10.7" font-family="Helvetica" font-size="10" font-weight="normal" font-style="normal" fill="#000000" fill-opacity="1">100 µs</text>
  <text x="1236" y="10.7" font-family="Helvetica" font-size="10" font-weight="normal" font-style="normal" fill="#000000" fill-opacity="1">100 µs</text>
  <path d="M 50 414.99 L 1230 414.99" fill="none" stroke-width="0.5" stroke="#000000" stroke-opacity="0.25882" stroke-linecap="butt" stroke-linejoin="round" stroke-dasharray="6 3" stroke-dashoffset="0"/>
  <path d="M 50 388.98 L 1230 388.98" fill="none" stroke-width="0.5" stroke="#000000" stroke-opacity="0.25882" stroke-linecap="butt" stroke-linejoin="round" stroke-dasharray="6 3" stroke-dashoffset="0"/>
  <path d="M 50 362.97 L 1230 362.97" fill="none" stroke-width="0.5" stroke="#000000" stroke-opacity="0.25882" stroke-linecap="butt" stroke-linejoin="round" stroke-dasharray="6 3" stroke-dashoffset="0"/>
  <path d="M 50 336.96 L 1230 336.96" fill="none" stroke-width="0.5" stroke="#000000" stroke-opacity="0.25882" stroke-linecap="butt" stroke-linejoin="round" stroke-dasharray="6 3" stroke-dashoffset="0"/>
  <path d="M 50 310.96 L 1230 310.96" fill="none" stroke-width="0.5" stroke="#000000" stroke-opacity="0.25882" stroke-linecap="butt" stroke-linejoin="round" stroke-dasharray="6 3" stroke-dashoffset="0"/>
  <path d="M 50 284.95 L 1230 284.95" fill="none" stroke-width="0.5" stroke="#000000" stroke-opacity="0.25882" stroke-linecap="butt" stroke-linejoin="round" stroke-dasharray="6 3" stroke-dashoffset="0"/>
  <path d="M 50 258.94 L 1230 258.94" fill="none" stroke-width="0.5" stroke="#000000" stroke-opacity="0.25882" stroke-linecap="butt" stroke-linejoin="round" stroke-dasharray="6 3" stroke-dashoffset="0"/>
  <path d="M 50 232.93 L 1230 232.93" fill="none" stroke-width="0.5" stroke="#000000" stroke-opacity="0.25882" stroke-linecap="butt" stroke-linejoin="round" stroke-dasharray="6 3" stroke-dashoffset="0"/>
  <path d="M 50 206.92 L 1230 206.92" fill="none" stroke-width="0.5" stroke="#000000" stroke-opacity="0.25882" stroke-linecap="butt" stroke-linejoin="round" stroke-dasharray="6 3" stroke-dashoffset="0"/>
  <path d="M 50 180.91 L 1230 180.91" fill="none" stroke-width="0.5" stroke="#000000" stroke-opacity="0.25882" stroke-linecap="butt" stroke-linejoin="round" stroke-dasharray="6 3" stroke-dashoffset="0"/>
  <path d="M 50 154.9 L 1230 154.9" fill="none" stroke-width="0.5" stroke="#000000" stroke-opacity="0.25882" stroke-linecap="butt" stroke-linejoin="round" stroke-dasharray="6 3" stroke-dashoffset="0"/>
  <path d="M 50 128.89 L 1230 128.89" fill="none" stroke-width="0.5" stroke="#000000" stroke-opacity="0.25882" stroke-linecap="butt" stroke-linejoin="round" stroke-dasharray="6 3" stroke-dashoffset="0"/>
  <path d="M 50 102.88 L 1230 102.88" fill="none" stroke-width="0.5" stroke="#000000" stroke-opacity="0.25882" stroke-linecap="butt" stroke-linejoin="round" stroke-dasharray="6 3" stroke-dashoffset="0"/>
  <path d="M 50 76.874 L 1230 76.874" fill="none" stroke-width="0.5" stroke="#000000" stroke-opacity="0.25882" stroke-linecap="butt" stroke-linejoin="round" stroke-dasharray="6 3" stroke-dashoffset="0"/>
  <path d="M 50 50.865 L 1230 50.865" fill="none" stroke-width="0.5" stroke="#000000" stroke-opacity="0.25882" stroke-linecap="butt" stroke-linejoin="round" stroke-dasharray="6 3" stroke-dashoffset="0"/>
  <path d="M 50 24.856 L 1230 24.856" fill="none" stroke-width="0.5" stroke="#000000" stroke-opacity="0.25882" stroke-linecap="butt" stroke-linejoin="round" stroke-dasharray="6 3" stroke-dashoffset="0"/>
  <path d="M 74 33 L 74 122 L 435 122 L 435 33 z" fill="#FFFFFF" fill-opacity="1.0" stroke="none"/>
  <clipPath id="clip-0">
    <path d="M 50 9 L 50 441 L 1230 441 L 1230 9 z"/>
  </clipPath>
  <g clip-path="url(#clip-0)">
    <path d="M 50 301.66L 109 325.95L 143.51 341.17L 168 352.77L 186.99 321.32L 202.51 342.42L 215.63 348.21L 227 353.22L 245.99 346.23L 261.51 342.42L 274.63 333.53L 286 332.61L 304.99 346.23L 320.51 334.28L 333.63 336.51L 345 341.15L 363.99 338.13L 379.51 335.98L 392.63 336.28L 404 336.47L 422.99 336.75L 438.51 335.02L 451.63 333.78L 463 334.95L 481.99 334.39L 497.51 334.03L 510.63 334.08L 522 331.49L 540.99 330.26L 556.51 326.21L 569.63 324.51L 581 322.44L 599.99 319.01L 615.51 317.09L 628.63 314.63L 640 313.62L 658.99 309.27L 674.51 305.42L 687.63 301.91L 699 298.41L 717.99 293.12L 733.51 289.15L 746.63 282.95L 758 280.94L 776.99 274.67L 792.51 268.75L 805.63 263.52L 817 259.82L 835.99 252.19L 851.51 245.49L 864.63 240.57L 876 234.77L 894.99 225.93L 910.51 218.99L 923.63 212.5L 935 206.79L 953.99 197.24L 969.51 189.18L 982.63 182.2L 994 176.6L 1013 167.05L 1028.5 159.78L 1041.6 153.84L 1053 148.34L 1072 139.65L 1087.5 132.59L 1100.6 126.89L 1112 121.62L 1131 113.26L 1146.5 105.94L 1159.6 99.543L 1171 95.154L 1190 87.137L 1190 87.137L 1171 95.557L 1159.6 100.56L 1146.5 106.38L 1131 113.34L 1112 121.9L 1100.6 126.91L 1087.5 132.74L 1072 139.75L 1053 148.43L 1041.6 153.94L 1028.5 160.03L 1013 167.54L 994 176.91L 982.63 182.76L 969.51 189.4L 953.99 197.26L 935 207.38L 923.63 213.22L 910.51 219.53L 894.99 227.3L 876 235.91L 864.63 240.57L 851.51 246.19L 835.99 252.42L 817 260.52L 805.63 264.84L 792.51 269.38L 776.99 275.86L 758 282.11L 746.63 285.71L 733.51 290.18L 717.99 295.1L 699 300.25L 687.63 302.61L 674.51 306.59L 658.99 309.9L 640 314.22L 628.63 316.04L 615.51 317.38L 599.99 320.12L 581 323.7L 569.63 325.42L 556.51 328.86L 540.99 330.76L 522 333.43L 510.63 334.85L 497.51 336.83L 481.99 336.63L 463 337.85L 451.63 336.96L 438.51 338.89L 422.99 339.11L 404 339.42L 392.63 339.65L 379.51 340.02L 363.99 343.2L 345 341.15L 333.63 343.64L 320.51 342.2L 304.99 346.23L 286 344.58L 274.63 347.98L 261.51 342.42L 245.99 346.23L 227 353.22L 215.63 348.21L 202.51 342.42L 186.99 362.05L 168 352.77L 143.51 342.88L 109 327.66L 50 301.66" fill="#FFCC00" fill-opacity="0.30196078431372547" stroke="none"/>
    <path d="M 50 300.75L 109 325.95L 143.51 342.88L 168 312.94L 186.99 321.32L 202.51 342.42L 215.63 347.35L 227 327.8L 245.99 346.23L 261.51 341.99L 274.63 333.39L 286 344.76L 304.99 335.98L 320.51 342.1L 333.63 336.35L 345 341.15L 363.99 338.07L 379.51 340.15L 392.63 339.9L 404 337.95L 422.99 339.22L 438.51 339.97L 451.63 337.95L 463 337.85L 481.99 336.69L 497.51 335.34L 510.63 332.51L 522 331.79L 540.99 331.01L 556.51 328.28L 569.63 325.28L 581 322.72L 599.99 320.35L 615.51 317.89L 628.63 316.43L 640 314.56L 658.99 310.41L 674.51 307.52L 687.63 301.03L 699 300.48L 717.99 295.37L 733.51 289.19L 746.63 286.02L 758 282.24L 776.99 274.92L 792.51 269.3L 805.63 263.36L 817 259.48L 835.99 252.15L 851.51 245.81L 864.63 240.61L 876 234.92L 894.99 227.45L 910.51 218.84L 923.63 212.93L 935 206.92L 953.99 197.34L 969.51 189.33L 982.63 182.45L 994 176.66L 1013 167.29L 1028.5 158.34L 1041.6 153.76L 1053 148.33L 1072 139.72L 1087.5 132.71L 1100.6 126.86L 1112 121.88L 1131 113.26L 1146.5 106.25L 1159.6 100.11L 1171 94.637L 1190 87.187L 1190 87.187L 1171 95.577L 1159.6 100.6L 1146.5 106.38L 1131 113.36L 1112 121.92L 1100.6 126.89L 1087.5 132.78L 1072 139.82L 1053 148.75L 1041.6 154.02L 1028.5 160.16L 1013 167.52L 994 176.95L 982.63 182.84L 969.51 189.63L 953.99 197.47L 935 207.61L 923.63 213.44L 910.51 220.05L 894.99 227.62L 876 236.01L 864.63 240.67L 851.51 246.55L 835.99 252.64L 817 260.24L 805.63 265.07L 792.51 269.93L 776.99 276.09L 758 284.19L 746.63 287.18L 733.51 291.96L 717.99 296.37L 699 301.07L 687.63 303.99L 674.51 307.63L 658.99 310.99L 640 315.38L 628.63 316.79L 615.51 319.08L 599.99 321.11L 581 324.51L 569.63 325.9L 556.51 329.07L 540.99 331.01L 522 333.09L 510.63 334.03L 497.51 335.34L 481.99 337.85L 463 337.85L 451.63 339.68L 438.51 340.02L 422.99 341.81L 404 341.11L 392.63 343.64L 379.51 344.7L 363.99 343.27L 345 341.15L 333.63 343.64L 320.51 342.31L 304.99 346.23L 286 344.76L 274.63 348.21L 261.51 342.42L 245.99 346.23L 227 353.22L 215.63 348.21L 202.51 342.42L 186.99 362.05L 168 353.67L 143.51 342.88L 109 327.66L 50 300.75" fill="#28CD41" fill-opacity="0.30196078431372547" stroke="none"/>
    <path d="M 50 299.94L 109 275.78L 143.51 275.43L 168 279.89L 186.99 275.01L 202.51 264.69L 215.63 270.22L 227 268.79L 245.99 261.33L 261.51 258.17L 274.63 259.24L 286 256.42L 304.99 255.83L 320.51 253.68L 333.63 253.37L 345 248.44L 363.99 250.16L 379.51 248.83L 392.63 248.96L 404 246.87L 422.99 244.18L 438.51 244.88L 451.63 242.43L 463 241.43L 481.99 238.33L 497.51 237.85L 510.63 234.88L 522 235.33L 540.99 235.23L 556.51 234.69L 569.63 231.68L 581 232.52L 599.99 230.63L 615.51 227.79L 628.63 228.33L 640 228.03L 658.99 227.32L 674.51 227.09L 687.63 223.05L 699 224.02L 717.99 223.26L 733.51 222.37L 746.63 221.73L 758 221.52L 776.99 217.95L 792.51 218.97L 805.63 217.38L 817 215.77L 835.99 215.96L 851.51 214.19L 864.63 213.53L 876 212.6L 894.99 212.23L 910.51 211.51L 923.63 210.68L 935 209.64L 953.99 208.58L 969.51 208.22L 982.63 207.43L 994 207.04L 1013 205.64L 1028.5 204.46L 1041.6 204L 1053 203.13L 1072 201.39L 1087.5 200.53L 1100.6 198.87L 1112 198.53L 1131 194.25L 1146.5 193.86L 1159.6 190.4L 1171 189.78L 1190 184.59L 1205.5 181.6L 1218.6 184.86L 1230 178.12L 1230 183.18L 1218.6 185.53L 1205.5 187.35L 1190 188.76L 1171 191.25L 1159.6 192.99L 1146.5 194.45L 1131 196.42L 1112 199.14L 1100.6 200.02L 1087.5 201.48L 1072 202.14L 1053 203.17L 1041.6 204.25L 1028.5 204.9L 1013 205.74L 994 207.17L 982.63 207.5L 969.51 208.26L 953.99 209.3L 935 210.49L 923.63 210.79L 910.51 212.04L 894.99 213.05L 876 213.8L 864.63 214.68L 851.51 215.24L 835.99 216.65L 817 217.64L 805.63 218.13L 792.51 219.01L 776.99 220.29L 758 221.91L 746.63 222.65L 733.51 222.89L 717.99 225.1L 699 226.12L 687.63 226.27L 674.51 227.3L 658.99 227.72L 640 230.1L 628.63 230.47L 615.51 231.9L 599.99 231.8L 581 232.9L 569.63 234.62L 556.51 235.14L 540.99 236.57L 522 237.43L 510.63 239.18L 497.51 239.92L 481.99 242.14L 463 244.16L 451.63 243.8L 438.51 245.05L 422.99 245.99L 404 249.33L 392.63 251.27L 379.51 253.16L 363.99 254.04L 345 255.06L 333.63 255.61L 320.51 255.41L 304.99 259.2L 286 263.95L 274.63 266.68L 261.51 266.67L 245.99 266.66L 227 272.73L 215.63 275.06L 202.51 275.04L 186.99 275.01L 168 280.14L 143.51 290.18L 109 301.2L 50 301.66" fill="#007AFF" fill-opacity="0.30196078431372547" stroke="none"/>
    <path d="M 50 300.75L 109 326.76L 143.51 341.97L 168 352.77L 186.99 360.33L 202.51 367.18L 215.63 374.67L 227 377.97L 245.99 386.34L 261.51 394.9L 274.63 374.22L 286 379.23L 304.99 362.18L 320.51 379.08L 333.63 384.86L 345 378.8L 363.99 366.99L 379.51 368.61L 392.63 370.1L 404 367.53L 422.99 355.71L 438.51 368.47L 451.63 364.17L 463 364.03L 481.99 361.52L 497.51 354.94L 510.63 355.98L 522 350.27L 540.99 342.69L 556.51 337.75L 569.63 329.43L 581 326.88L 599.99 320.76L 615.51 320L 628.63 309.19L 640 306.97L 658.99 304.2L 674.51 294.23L 687.63 291.12L 699 286.53L 717.99 280.09L 733.51 274.18L 746.63 266.88L 758 263.65L 776.99 255.09L 792.51 247.93L 805.63 242.32L 817 237.72L 835.99 227.52L 851.51 221.71L 864.63 214.92L 876 210.46L 894.99 202.46L 910.51 194.2L 923.63 186.73L 935 180.65L 953.99 170.38L 969.51 162.17L 982.63 155.25L 994 149.62L 1013 140.05L 1028.5 133.64L 1041.6 127.43L 1053 121.64L 1072 113.61L 1087.5 106.18L 1100.6 99.443L 1112 94.649L 1131 87.025L 1131 87.025L 1112 95.765L 1100.6 100.94L 1087.5 106.51L 1072 113.72L 1053 122.44L 1041.6 127.52L 1028.5 133.83L 1013 140.96L 994 150.13L 982.63 155.56L 969.51 162.31L 953.99 170.44L 935 180.74L 923.63 186.89L 910.51 194.35L 894.99 202.52L 876 211.48L 864.63 216.72L 851.51 222.48L 835.99 229.64L 817 237.85L 805.63 242.6L 792.51 248.48L 776.99 256.48L 758 264.27L 746.63 269.25L 733.51 274.23L 717.99 280.9L 699 288.36L 687.63 293.4L 674.51 300.59L 658.99 306.47L 640 313.8L 628.63 316.41L 615.51 322.9L 599.99 326.71L 581 333.26L 569.63 336.97L 556.51 341.41L 540.99 347.01L 522 351.36L 510.63 358.85L 497.51 361.84L 481.99 363.86L 463 367.11L 451.63 371.76L 438.51 373.31L 422.99 375.45L 404 374.66L 392.63 379.03L 379.51 379.08L 363.99 378.96L 345 379.23L 333.63 384.86L 320.51 379.08L 304.99 387.6L 286 379.23L 274.63 374.22L 261.51 394.9L 245.99 388.06L 227 379.68L 215.63 374.67L 202.51 368.89L 186.99 362.05L 168 352.77L 143.51 341.97L 109 326.76L 50 300.75" fill="#FF3B30" fill-opacity="0.30196078431372547" stroke="none"/>
    <path d="M 50 301.66L 109 327.21L 143.51 342.42L 168 352.77L 186.99 346.53L 202.51 342.42L 215.63 348.21L 227 353.22L 245.99 346.23L 261.51 342.42L 274.63 343.64L 286 341.06L 304.99 346.23L 320.51 339.96L 333.63 341.64L 345 341.15L 363.99 341.81L 379.51 338.92L 392.63 338.74L 404 338.63L 422.99 338.47L 438.51 337.84L 451.63 336.1L 463 337.07L 481.99 336.03L 497.51 336.08L 510.63 334.64L 522 332.92L 540.99 330.63L 556.51 328.15L 569.63 325.18L 581 323.36L 599.99 319.83L 615.51 317.31L 628.63 315.66L 640 314.06L 658.99 309.74L 674.51 306.28L 687.63 302.43L 699 299.76L 717.99 294.57L 733.51 289.91L 746.63 284.97L 758 281.8L 776.99 275.55L 792.51 269.21L 805.63 264.49L 817 260.34L 835.99 252.36L 851.51 246L 864.63 240.57L 876 235.61L 894.99 226.93L 910.51 219.38L 923.63 213.03L 935 207.23L 953.99 197.25L 969.51 189.34L 982.63 182.62L 994 176.83L 1013 167.41L 1028.5 159.96L 1041.6 153.91L 1053 148.4L 1072 139.73L 1087.5 132.7L 1100.6 126.91L 1112 121.83L 1131 113.32L 1146.5 106.27L 1159.6 100.29L 1171 95.452L 1190 87.137" fill="none" stroke-width="4" stroke="#FFCC00" stroke-opacity="1" stroke-linecap="round" stroke-linejoin="round"/>
    <path d="M 50 300.75L 109 327.21L 143.51 342.88L 168 338.16L 186.99 346.53L 202.51 342.42L 215.63 347.98L 227 344.76L 245.99 346.23L 261.51 342.31L 274.63 343.74L 286 344.76L 304.99 343.27L 320.51 342.25L 333.63 341.59L 345 341.15L 363.99 341.84L 379.51 343.46L 392.63 342.63L 404 340.26L 422.99 341.11L 438.51 340L 451.63 339.22L 463 337.85L 481.99 337.55L 497.51 335.34L 510.63 333.63L 522 332.75L 540.99 331.01L 556.51 328.86L 569.63 325.74L 581 324.03L 599.99 320.91L 615.51 318.76L 628.63 316.7L 640 315.16L 658.99 310.84L 674.51 307.6L 687.63 303.19L 699 300.91L 717.99 296.11L 733.51 291.22L 746.63 286.87L 758 283.67L 776.99 275.78L 792.51 269.76L 805.63 264.61L 817 260.04L 835.99 252.51L 851.51 246.36L 864.63 240.66L 876 235.72L 894.99 227.57L 910.51 219.73L 923.63 213.3L 935 207.43L 953.99 197.43L 969.51 189.55L 982.63 182.74L 994 176.87L 1013 167.46L 1028.5 159.68L 1041.6 153.95L 1053 148.64L 1072 139.79L 1087.5 132.76L 1100.6 126.88L 1112 121.91L 1131 113.34L 1146.5 106.34L 1159.6 100.47L 1171 95.329L 1190 87.187" fill="none" stroke-width="4" stroke="#28CD41" stroke-opacity="1" stroke-linecap="round" stroke-linejoin="round"/>
    <path d="M 50 301.2L 109 292.74L 143.51 285.74L 168 280.07L 186.99 275.01L 202.51 272.05L 215.63 273.73L 227 271.66L 245.99 265.19L 261.51 264.26L 274.63 264.59L 286 261.83L 304.99 258.29L 320.51 254.95L 333.63 255.01L 345 253.21L 363.99 252.99L 379.51 251.98L 392.63 250.66L 404 248.67L 422.99 245.51L 438.51 245.01L 451.63 243.44L 463 243.43L 481.99 241.11L 497.51 239.37L 510.63 238.01L 522 236.87L 540.99 236.22L 556.51 235.03L 569.63 233.83L 581 232.8L 599.99 231.49L 615.51 230.78L 628.63 229.9L 640 229.55L 658.99 227.61L 674.51 227.24L 687.63 225.4L 699 225.56L 717.99 224.61L 733.51 222.75L 746.63 222.41L 758 221.8L 776.99 219.66L 792.51 219L 805.63 217.93L 817 217.14L 835.99 216.47L 851.51 214.96L 864.63 214.38L 876 213.48L 894.99 212.84L 910.51 211.9L 923.63 210.76L 935 210.27L 953.99 209.11L 969.51 208.25L 982.63 207.48L 994 207.14L 1013 205.71L 1028.5 204.78L 1041.6 204.18L 1053 203.16L 1072 201.95L 1087.5 201.23L 1100.6 199.72L 1112 198.98L 1131 195.84L 1146.5 194.29L 1159.6 192.29L 1171 190.86L 1190 187.63L 1205.5 185.76L 1218.6 185.35L 1230 181.79" fill="none" stroke-width="4" stroke="#007AFF" stroke-opacity="1" stroke-linecap="round" stroke-linejoin="round"/>
    <path d="M 50 300.75L 109 326.76L 143.51 341.97L 168 352.77L 186.99 361.59L 202.51 368.43L 215.63 374.67L 227 379.23L 245.99 387.6L 261.51 394.9L 274.63 374.22L 286 379.23L 304.99 379.14L 320.51 379.08L 333.63 384.86L 345 379.11L 363.99 375.45L 379.51 376.05L 392.63 376.49L 404 372.66L 422.99 369.21L 438.51 371.99L 451.63 369.62L 463 366.28L 481.99 363.24L 497.51 359.91L 510.63 358.08L 522 351.07L 540.99 345.84L 556.51 340.42L 569.63 334.85L 581 331.49L 599.99 325.06L 615.51 322.12L 628.63 314.39L 640 311.89L 658.99 305.86L 674.51 298.82L 687.63 292.79L 699 287.88L 717.99 280.69L 733.51 274.21L 746.63 268.61L 758 264.11L 776.99 256.12L 792.51 248.34L 805.63 242.53L 817 237.82L 835.99 229.07L 851.51 222.27L 864.63 216.24L 876 211.21L 894.99 202.5L 910.51 194.31L 923.63 186.85L 935 180.71L 953.99 170.42L 969.51 162.27L 982.63 155.48L 994 150L 1013 140.72L 1028.5 133.78L 1041.6 127.5L 1053 122.23L 1072 113.69L 1087.5 106.42L 1100.6 100.54L 1112 95.47L 1131 87.025" fill="none" stroke-width="4" stroke="#FF3B30" stroke-opacity="1" stroke-linecap="round" stroke-linejoin="round"/>
    <path d="M 50 301.66L 109 327.21L 143.51 342.42L 168 352.77L 186.99 346.53L 202.51 342.42L 215.63 348.21L 227 353.22L 245.99 346.23L 261.51 342.42L 274.63 343.64L 286 341.06L 304.99 346.23L 320.51 339.96L 333.63 341.64L 345 341.15L 363.99 341.81L 379.51 338.92L 392.63 338.74L 404 338.63L 422.99 338.47L 438.51 337.84L 451.63 336.1L 463 337.07L 481.99 336.03L 497.51 336.08L 510.63 334.64L 522 332.92L 540.99 330.63L 556.51 328.15L 569.63 325.18L 581 323.36L 599.99 319.83L 615.51 317.31L 628.63 315.66L 640 314.06L 658.99 309.74L 674.51 306.28L 687.63 302.43L 699 299.76L 717.99 294.57L 733.51 289.91L 746.63 284.97L 758 281.8L 776.99 275.55L 792.51 269.21L 805.63 264.49L 817 260.34L 835.99 252.36L 851.51 246L 864.63 240.57L 876 235.61L 894.99 226.93L 910.51 219.38L 923.63 213.03L 935 207.23L 953.99 197.25L 969.51 189.34L 982.63 182.62L 994 176.83L 1013 167.41L 1028.5 159.96L 1041.6 153.91L 1053 148.4L 1072 139.73L 1087.5 132.7L 1100.6 126.91L 1112 121.83L 1131 113.32L 1146.5 106.27L 1159.6 100.29L 1171 95.452L 1190 87.137" fill="none" stroke-width="0.5" stroke="#000000" stroke-opacity="0.30196" stroke-linecap="round" stroke-linejoin="round"/>
    <path d="M 50 300.75L 109 327.21L 143.51 342.88L 168 338.16L 186.99 346.53L 202.51 342.42L 215.63 347.98L 227 344.76L 245.99 346.23L 261.51 342.31L 274.63 343.74L 286 344.76L 304.99 343.27L 320.51 342.25L 333.63 341.59L 345 341.15L 363.99 341.84L 379.51 343.46L 392.63 342.63L 404 340.26L 422.99 341.11L 438.51 340L 451.63 339.22L 463 337.85L 481.99 337.55L 497.51 335.34L 510.63 333.63L 522 332.75L 540.99 331.01L 556.51 328.86L 569.63 325.74L 581 324.03L 599.99 320.91L 615.51 318.76L 628.63 316.7L 640 315.16L 658.99 310.84L 674.51 307.6L 687.63 303.19L 699 300.91L 717.99 296.11L 733.51 291.22L 746.63 286.87L 758 283.67L 776.99 275.78L 792.51 269.76L 805.63 264.61L 817 260.04L 835.99 252.51L 851.51 246.36L 864.63 240.66L 876 235.72L 894.99 227.57L 910.51 219.73L 923.63 213.3L 935 207.43L 953.99 197.43L 969.51 189.55L 982.63 182.74L 994 176.87L 1013 167.46L 1028.5 159.68L 1041.6 153.95L 1053 148.64L 1072 139.79L 1087.5 132.76L 1100.6 126.88L 1112 121.91L 1131 113.34L 1146.5 106.34L 1159.6 100.47L 1171 95.329L 1190 87.187" fill="none" stroke-width="0.5" stroke="#000000" stroke-opacity="0.30196" stroke-linecap="round" stroke-linejoin="round"/>
    <path d="M 50 301.2L 109 292.74L 143.51 285.74L 168 280.07L 186.99 275.01L 202.51 272.05L 215.63 273.73L 227 271.66L 245.99 265.19L 261.51 264.26L 274.63 264.59L 286 261.83L 304.99 258.29L 320.51 254.95L 333.63 255.01L 345 253.21L 363.99 252.99L 379.51 251.98L 392.63 250.66L 404 248.67L 422.99 245.51L 438.51 245.01L 451.63 243.44L 463 243.43L 481.99 241.11L 497.51 239.37L 510.63 238.01L 522 236.87L 540.99 236.22L 556.51 235.03L 569.63 233.83L 581 232.8L 599.99 231.49L 615.51 230.78L 628.63 229.9L 640 229.55L 658.99 227.61L 674.51 227.24L 687.63 225.4L 699 225.56L 717.99 224.61L 733.51 222.75L 746.63 222.41L 758 221.8L 776.99 219.66L 792.51 219L 805.63 217.93L 817 217.14L 835.99 216.47L 851.51 214.96L 864.63 214.38L 876 213.48L 894.99 212.84L 910.51 211.9L 923.63 210.76L 935 210.27L 953.99 209.11L 969.51 208.25L 982.63 207.48L 994 207.14L 1013 205.71L 1028.5 204.78L 1041.6 204.18L 1053 203.16L 1072 201.95L 1087.5 201.23L 1100.6 199.72L 1112 198.98L 1131 195.84L 1146.5 194.29L 1159.6 192.29L 1171 190.86L 1190 187.63L 1205.5 185.76L 1218.6 185.35L 1230 181.79" fill="none" stroke-width="0.5" stroke="#000000" stroke-opacity="0.30196" stroke-linecap="round" stroke-linejoin="round"/>
    <path d="M 50 300.75L 109 326.76L 143.51 341.97L 168 352.77L 186.99 361.59L 202.51 368.43L 215.63 374.67L 227 379.23L 245.99 387.6L 261.51 394.9L 274.63 374.22L 286 379.23L 304.99 379.14L 320.51 379.08L 333.63 384.86L 345 379.11L 363.99 375.45L 379.51 376.05L 392.63 376.49L 404 372.66L 422.99 369.21L 438.51 371.99L 451.63 369.62L 463 366.28L 481.99 363.24L 497.51 359.91L 510.63 358.08L 522 351.07L 540.99 345.84L 556.51 340.42L 569.63 334.85L 581 331.49L 599.99 325.06L 615.51 322.12L 628.63 314.39L 640 311.89L 658.99 305.86L 674.51 298.82L 687.63 292.79L 699 287.88L 717.99 280.69L 733.51 274.21L 746.63 268.61L 758 264.11L 776.99 256.12L 792.51 248.34L 805.63 242.53L 817 237.82L 835.99 229.07L 851.51 222.27L 864.63 216.24L 876 211.21L 894.99 202.5L 910.51 194.31L 923.63 186.85L 935 180.71L 953.99 170.42L 969.51 162.27L 982.63 155.48L 994 150L 1013 140.72L 1028.5 133.78L 1041.6 127.5L 1053 122.23L 1072 113.69L 1087.5 106.42L 1100.6 100.54L 1112 95.47L 1131 87.025" fill="none" stroke-width="0.5" stroke="#000000" stroke-opacity="0.30196" stroke-linecap="round" stroke-linejoin="round"/>
  </g>
  <path d="M 74 33 L 74 122 L 435 122 L 435 33 z" fill="#FFFFFF" fill-opacity="0.7019607843137254" stroke-width="0.5" stroke="#000000" stroke-opacity="1" stroke-linecap="round" stroke-linejoin="round"/>
  <path d="M 88 52 L 108 52" fill="none" stroke-width="4" stroke="#FF3B30" stroke-opacity="1" stroke-linecap="round" stroke-linejoin="round"/>
  <path d="M 88 52 L 108 52" fill="none" stroke-width="0.5" stroke="#000000" stroke-opacity="0.30196" stroke-linecap="round" stroke-linejoin="round"/>
  <text x="119" y="56.17" font-family="Menlo" font-size="12" font-weight="normal" font-style="normal" fill="#000000" fill-opacity="1">Array&lt;Int&gt; random removals</text>
  <path d="M 88 69 L 108 69" fill="none" stroke-width="4" stroke="#007AFF" stroke-opacity="1" stroke-linecap="round" stroke-linejoin="round"/>
  <path d="M 88 69 L 108 69" fill="none" stroke-width="0.5" stroke="#000000" stroke-opacity="0.30196" stroke-linecap="round" stroke-linejoin="round"/>
  <text x="119" y="73.17" font-family="Menlo" font-size="12" font-weight="normal" font-style="normal" fill="#000000" fill-opacity="1">TreeArray&lt;Int&gt; random removals</text>
  <path d="M 88 86 L 108 86" fill="none" stroke-width="4" stroke="#28CD41" stroke-opacity="1" stroke-linecap="round" stroke-linejoin="round"/>
  <path d="M 88 86 L 108 86" fill="none" stroke-width="0.5" stroke="#000000" stroke-opacity="0.30196" stroke-linecap="round" stroke-linejoin="round"/>
  <text x="119" y="90.17" font-family="Menlo" font-size="12" font-weight="normal" font-style="normal" fill="#000000" fill-opacity="1">Deque&lt;Int&gt; random removals (contiguous)</text>
  <path d="M 88 103 L 108 103" fill="none" stroke-width="4" stroke="#FFCC00" stroke-opacity="1" stroke-linecap="round" stroke-linejoin="round"/>
  <path d="M 88 103 L 108 103" fill="none" stroke-width="0.5" stroke="#000000" stroke-opacity="0.30196" stroke-linecap="round" stroke-linejoin="round"/>
  <text x="119" y="107.17" font-family="Menlo" font-size="12" font-weight="normal" font-style="normal" fill="#000000" fill-opacity="1">Deque&lt;Int&gt; random removals (discontiguous)</text>
  <path d="M 50 9 L 50 441 L 1230 441 L 1230 9 z" fill="none" stroke-width="0.5" stroke="#000000" stroke-opacity="1" stroke-linecap="round" stroke-linejoin="round"/>
</svg>
