<!DOCTYPE svg PUBLIC "-//W3C//DTD SVG 1.1//EN" "http://www.w3.org/Graphics/SVG/1.1/DTD/svg11.dtd">
<svg width="1280.0px" height="480.0px" viewBox="0.0 0.0 1280.0 480.0" xmlns="http://www.w3.org/2000/svg" xmlns:xlink="http://www.w3.org/1999/xlink" version="1.1">
  <path d="M 0 0 L 0 480 L 1280 480 L 1280 0 z" fill="#FFFFFF" fill-opacity="1.0" stroke="none"/>
  <text x="50" y="468.7" font-family="Helvetica" font-size="10" font-weight="normal" font-style="normal" fill="#000000" fill-opacity="1">Average per-element processing time over input size (bands: min, mean, mean + 2stddev)</text>
  <a xlink:href="https://github.com/apple/swift-collections-benchmark"><text x="1107" y="468.7" font-family="Helvetica" font-size="10" font-weight="normal" font-style="normal" fill="#000000" fill-opacity="1">swift-collections-benchmark</text></a>
  <path d="M 50 9 L 50 441" fill="none" stroke-width="0.75" stroke="#000000" stroke-opacity="0.49804" stroke-linecap="butt" stroke-linejoin="round"/>
  <text x="47" y="453.7" font-family="Helvetica" font-size="10" font-weight="normal" font-style="normal" fill="#000000" fill-opacity="1">1</text>
  <path d="M 109 9 L 109 441" fill="none" stroke-width="0.75" stroke="#000000" stroke-opacity="0.49804" stroke-linecap="butt" stroke-linejoin="round"/>
  <text x="106" y="453.7" font-family="Helvetica" font-size="10" font-weight="normal" font-style="normal" fill="#000000" fill-opacity="1">2</text>
  <path d="M 168 9 L 168 441" fill="none" stroke-width="0.75" stroke="#000000" stroke-opacity="0.49804" stroke-linecap="butt" stroke-linejoin="round"/>
  <text x="165" y="453.7" font-family="Helvetica" font-size="10" font-weight="normal" font-style="normal" fill="#000000" fill-opacity="1">4</text>
  <path d="M 227 9 L 227 441" fill="none" stroke-width="0.75" stroke="#000000" stroke-opacity="0.49804" stroke-linecap="butt" stroke-linejoin="round"/>
  <text x="224" y="453.7" font-family="Helvetica" font-size="10" font-weight="normal" font-style="normal" fill="#000000" fill-opacity="1">8</text>
  <path d="M 286 9 L 286 441" fill="none" stroke-width="0.75" stroke="#000000" stroke-opacity="0.49804" stroke-linecap="butt" stroke-linejoin="round"/>
  <text x="280" y="453.7" font-family="Helvetica" font-size="10" font-weight="normal" font-style="normal" fill="#000000" fill-opacity="1">16</text>
  <path d="M 345 9 L 345 441" fill="none" stroke-width="0.75" stroke="#000000" stroke-opacity="0.49804" stroke-linecap="butt" stroke-linejoin="round"/>
  <text x="339" y="453.7" font-family="Helvetica" font-size="10" font-weight="normal" font-style="normal" fill="#000000" fill-opacity="1">32</text>
  <path d="M 404 9 L 404 441" fill="none" stroke-width="0.75" stroke="#000000" stroke-opacity="0.49804" stroke-linecap="butt" stroke-linejoin="round"/>
  <text x="398" y="453.7" font-family="Helvetica" font-size="10" font-weight="normal" font-style="normal" fill="#000000" fill-opacity="1">64</text>
  <path d="M 463 9 L 463 441" fill="none" stroke-width="0.75" stroke="#000000" stroke-opacity="0.49804" stroke-linecap="butt" stroke-linejoin="round"/>
  <text x="454.5" y="453.7" font-family="Helvetica" font-size="10" font-weight="normal" font-style="normal" fill="#000000" fill-opacity="1">128</text>
  <path d="M 522 9 L 522 441" fill="none" stroke-width="0.75" stroke="#000000" stroke-opacity="0.49804" stroke-linecap="butt" stroke-linejoin="round"/>
  <text x="513.5" y="453.7" font-family="Helvetica" font-size="10" font-weight="normal" font-style="normal" fill="#000000" fill-opacity="1">256</text>
  <path d="M 581 9 L 581 441" fill="none" stroke-width="0.75" stroke="#000000" stroke-opacity="0.49804" stroke-linecap="butt" stroke-linejoin="round"/>
  <text x="572.5" y="453.7" font-family="Helvetica" font-size="10" font-weight="normal" font-style="normal" fill="#000000" fill-opacity="1">512</text>
  <path d="M 640 9 L 640 441" fill="none" stroke-width="0.75" stroke="#000000" stroke-opacity="0.49804" stroke-linecap="butt" stroke-linejoin="round"/>
  <text x="634.5" y="453.7" font-family="Helvetica" font-size="10" font-weight="normal" font-style="normal" fill="#000000" fill-opacity="1">1k</text>
  <path d="M 699 9 L 699 441" fill="none" stroke-width="0.75" stroke="#000000" stroke-opacity="0.49804" stroke-linecap="butt" stroke-linejoin="round"/>
  <text x="693.5" y="453.7" font-family="Helvetica" font-size="10" font-weight="normal" font-style="normal" fill="#000000" fill-opacity="1">2k</text>
  <path d="M 758 9 L 758 441" fill="none" stroke-width="0.75" stroke="#000000" stroke-opacity="0.49804" stroke-linecap="butt" stroke-linejoin="round"/>
  <text x="752.5" y="453.7" font-family="Helvetica" font-size="10" font-weight="normal" font-style="normal" fill="#000000" fill-opacity="1">4k</text>
  <path d="M 817 9 L 817 441" fill="none" stroke-width="0.75" stroke="#000000" stroke-opacity="0.49804" stroke-linecap="butt" stroke-linejoin="round"/>
  <text x="811.5" y="453.7" font-family="Helvetica" font-size="10" font-weight="normal" font-style="normal" fill="#000000" fill-opacity="1">8k</text>
  <path d="M 876 9 L 876 441" fill="none" stroke-width="0.75" stroke="#000000" stroke-opacity="0.49804" stroke-linecap="butt" stroke-linejoin="round"/>
  <text x="867.5" y="453.7" font-family="Helvetica" font-size="10" font-weight="normal" font-style="normal" fill="#000000" fill-opacity="1">16k</text>
  <path d="M 935 9 L 935 441" fill="none" stroke-width="0.75" stroke="#000000" stroke-opacity="0.49804" stroke-linecap="butt" stroke-linejoin="round"/>
  <text x="926.5" y="453.7" font-family="Helvetica" font-size="10" font-weight="normal" font-style="normal" fill="#000000" fill-opacity="1">32k</text>
  <path d="M 994 9 L 994 441" fill="none" stroke-width="0.75" stroke="#000000" stroke-opacity="0.49804" stroke-linecap="butt" stroke-linejoin="round"/>
  <text x="985.5" y="453.7" font-family="Helvetica" font-size="10" font-weight="normal" font-style="normal" fill="#000000" fill-opacity="1">64k</text>
  <path d="M 1053 9 L 1053 441" fill="none" stroke-width="0.75" stroke="#000000" stroke-opacity="0.49804" stroke-linecap="butt" stroke-linejoin="round"/>
  <text x="1042" y="453.7" font-family="Helvetica" font-size="10" font-weight="normal" font-style="normal" fill="#000000" fill-opacity="1">128k</text>
  <path d="M 1112 9 L 1112 441" fill="none" stroke-width="0.75" stroke="#000000" stroke-opacity="0.49804" stroke-linecap="butt" stroke-linejoin="round"/>
  <text x="1101" y="453.7" font-family="Helvetica" font-size="10" font-weight="normal" font-style="normal" fill="#000000" fill-opacity="1">256k</text>
  <path d="M 1171 9 L 1171 441" fill="none" stroke-width="0.75" stroke="#000000" stroke-opacity="0.49804" stroke-linecap="butt" stroke-linejoin="round"/>
  <text x="1160" y="453.7" font-family="Helvetica" font-size="10" font-weight="normal" font-style="normal" fill="#000000" fill-opacity="1">512k</text>
  <path d="M 1230 9 L 1230 441" fill="none" stroke-width="0.75" stroke="#000000" stroke-opacity="0.49804" stroke-linecap="butt" stroke-linejoin="round"/>
  <text x="1223" y="453.7" font-family="Helvetica" font-size="10" font-weight="normal" font-style="normal" fill="#000000" fill-opacity="1">1M</text>
  <path d="M 50 441 L 1230 441" fill="none" stroke-width="0.75" stroke="#000000" stroke-opacity="0.49804" stroke-linecap="butt" stroke-linejoin="round"/>
  <text x="27" y="442.7" font-family="Helvetica" font-size="10" font-weight="normal" font-style="normal" fill="#000000" fill-opacity="1">1 ns</text>
  <text x="1236" y="442.7" font-family="Helvetica" font-size="10" font-weight="normal" font-style="normal" fill="#000000" fill-opacity="1">1 ns</text>
  <path d="M 50 354.6 L 1230 354.6" fill="none" stroke-width="0.75" stroke="#000000" stroke-opacity="0.49804" stroke-linecap="butt" stroke-linejoin="round"/>
  <text x="21" y="356.3" font-family="Helvetica" font-size="10" font-weight="normal" font-style="normal" fill="#000000" fill-opacity="1">10 ns</text>
  <text x="1236" y="356.3" font-family="Helvetica" font-size="10" font-weight="normal" font-style="normal" fill="#000000" fill-opacity="1">10 ns</text>
  <path d="M 50 268.2 L 1230 268.2" fill="none" stroke-width="0.75" stroke="#000000" stroke-opacity="0.49804" stroke-linecap="butt" stroke-linejoin="round"/>
  <text x="16" y="269.9" font-family="Helvetica" font-size="10" font-weight="normal" font-style="normal" fill="#000000" fill-opacity="1">100 ns</text>
  <text x="1236" y="269.9" font-family="Helvetica" font-size="10" font-weight="normal" font-style="normal" fill="#000000" fill-opacity="1">100 ns</text>
  <path d="M 50 181.8 L 1230 181.8" fill="none" stroke-width="0.75" stroke="#000000" stroke-opacity="0.49804" stroke-linecap="butt" stroke-linejoin="round"/>
  <text x="26" y="183.5" font-family="Helvetica" font-size="10" font-weight="normal" font-style="normal" fill="#000000" fill-opacity="1">1 µs</text>
  <text x="1236" y="183.5" font-family="Helvetica" font-size="10" font-weight="normal" font-style="normal" fill="#000000" fill-opacity="1">1 µs</text>
  <path d="M 50 95.4 L 1230 95.4" fill="none" stroke-width="0.75" stroke="#000000" stroke-opacity="0.49804" stroke-linecap="butt" stroke-linejoin="round"/>
  <text x="21" y="97.1" font-family="Helvetica" font-size="10" font-weight="normal" font-style="normal" fill="#000000" fill-opacity="1">10 µs</text>
  <text x="1236" y="97.1" font-family="Helvetica" font-size="10" font-weight="normal" font-style="normal" fill="#000000" fill-opacity="1">10 µs</text>
  <path d="M 50 9 L 1230 9" fill="none" stroke-width="0.75" stroke="#000000" stroke-opacity="0.49804" stroke-linecap="butt" stroke-linejoin="round"/>
  <text x="15" y="10.7" font-family="Helvetica" font-size="10" font-weight="normal" font-style="normal" fill="#000000" fill-opacity="1">100 µs</text>
  <text x="1236" y="10.7" font-family="Helvetica" font-size="10" font-weight="normal" font-style="normal" fill="#000000" fill-opacity="1">100 µs</text>
  <path d="M 50 414.99 L 1230 414.99" fill="none" stroke-width="0.5" stroke="#000000" stroke-opacity="0.25882" stroke-linecap="butt" stroke-linejoin="round" stroke-dasharray="6 3" stroke-dashoffset="0"/>
  <path d="M 50 388.98 L 1230 388.98" fill="none" stroke-width="0.5" stroke="#000000" stroke-opacity="0.25882" stroke-linecap="butt" stroke-linejoin="round" stroke-dasharray="6 3" stroke-dashoffset="0"/>
  <path d="M 50 362.97 L 1230 362.97" fill="none" stroke-width="0.5" stroke="#000000" stroke-opacity="0.25882" stroke-linecap="butt" stroke-linejoin="round" stroke-dasharray="6 3" stroke-dashoffset="0"/>
  <path d="M 50 336.96 L 1230 336.96" fill="none" stroke-width="0.5" stroke="#000000" stroke-opacity="0.25882" stroke-linecap="butt" stroke-linejoin="round" stroke-dasharray="6 3" stroke-dashoffset="0"/>
  <path d="M 50 310.96 L 1230 310.96" fill="none" stroke-width="0.5" stroke="#000000" stroke-opacity="0.25882" stroke-linecap="butt" stroke-linejoin="round" stroke-dasharray="6 3" stroke-dashoffset="0"/>
  <path d="M 50 284.95 L 1230 284.95" fill="none" stroke-width="0.5" stroke="#000000" stroke-opacity="0.25882" stroke-linecap="butt" stroke-linejoin="round" stroke-dasharray="6 3" stroke-dashoffset="0"/>
  <path d="M 50 258.94 L 1230 258.94" fill="none" stroke-width="0.5" stroke="#000000" stroke-opacity="0.25882" stroke-linecap="butt" stroke-linejoin="round" stroke-dasharray="6 3" stroke-dashoffset="0"/>
  <path d="M 50 232.93 L 1230 232.93" fill="none" stroke-width="0.5" stroke="#000000" stroke-opacity="0.25882" stroke-linecap="butt" stroke-linejoin="round" stroke-dasharray="6 3" stroke-dashoffset="0"/>
  <path d="M 50 206.92 L 1230 206.92" fill="none" stroke-width="0.5" stroke="#000000" stroke-opacity="0.25882" stroke-linecap="butt" stroke-linejoin="round" stroke-dasharray="6 3" stroke-dashoffset="0"/>
  <path d="M 50 180.91 L 1230 180.91" fill="none" stroke-width="0.5" stroke="#000000" stroke-opacity="0.25882" stroke-linecap="butt" stroke-linejoin="round" stroke-dasharray="6 3" stroke-dashoffset="0"/>
  <path d="M 50 154.9 L 1230 154.9" fill="none" stroke-width="0.5" stroke="#000000" stroke-opacity="0.25882" stroke-linecap="butt" stroke-linejoin="round" stroke-dasharray="6 3" stroke-dashoffset="0"/>
  <path d="M 50 128.89 L 1230 128.89" fill="none" stroke-width="0.5" stroke="#000000" stroke-opacity="0.25882" stroke-linecap="butt" stroke-linejoin="round" stroke-dasharray="6 3" stroke-dashoffset="0"/>
  <path d="M 50 102.88 L 1230 102.88" fill="none" stroke-width="0.5" stroke="#000000" stroke-opacity="0.25882" stroke-linecap="butt" stroke-linejoin="round" stroke-dasharray="6 3" stroke-dashoffset="0"/>
  <path d="M 50 76.874 L 1230 76.874" fill="none" stroke-width="0.5" stroke="#000000" stroke-opacity="0.25882" stroke-linecap="butt" stroke-linejoin="round" stroke-dasharray="6 3" stroke-dashoffset="0"/>
  <path d="M 50 50.865 L 1230 50.865" fill="none" stroke-width="0.5" stroke="#000000" stroke-opacity="0.25882" stroke-linecap="butt" stroke-linejoin="round" stroke-dasharray="6 3" stroke-dashoffset="0"/>
  <path d="M 50 24.856 L 1230 24.856" fill="none" stroke-width="0.5" stroke="#000000" stroke-opacity="0.25882" stroke-linecap="butt" stroke-linejoin="round" stroke-dasharray="6 3" stroke-dashoffset="0"/>
  <path d="M 74 33 L 74 88 L 348 88 L 348 33 z" fill="#FFFFFF" fill-opacity="1.0" stroke="none"/>
  <clipPath id="clip-0">
    <path d="M 50 9 L 50 441 L 1230 441 L 1230 9 z"/>
  </clipPath>
  <g clip-path="url(#clip-0)">
    <path d="M 50 300.75L 109 285.84L 143.51 281.6L 168 275.08L 186.99 271.71L 202.51 275.04L 215.63 272.45L 227 255.85L 245.99 269.81L 261.51 262.08L 274.63 252.92L 286 255.08L 304.99 258L 320.51 256L 333.63 255.3L 345 246.51L 363.99 247.66L 379.51 249.22L 392.63 247.14L 404 246.77L 422.99 242.91L 438.51 244.25L 451.63 241.6L 463 239.32L 481.99 240.08L 497.51 238.8L 510.63 237.39L 522 237.52L 540.99 235.56L 556.51 233.47L 569.63 232.48L 581 233.3L 599.99 231.98L 615.51 229.82L 628.63 228.6L 640 228.44L 658.99 226.06L 674.51 226.84L 687.63 225.73L 699 225.85L 717.99 222.18L 733.51 220.93L 746.63 222.12L 758 221.61L 776.99 218.18L 792.51 217.79L 805.63 217.07L 817 216.79L 835.99 215.72L 851.51 214.34L 864.63 213.66L 876 212.36L 894.99 211.91L 910.51 209.87L 923.63 209.93L 935 209.41L 953.99 208.57L 969.51 207.94L 982.63 206.86L 994 206.08L 1013 205.57L 1028.5 204.47L 1041.6 203.49L 1053 200.2L 1072 193.83L 1087.5 198.66L 1100.6 198.6L 1112 194.21L 1131 194.77L 1146.5 186.88L 1159.6 190.09L 1171 185.35L 1190 185.88L 1205.5 179.15L 1218.6 174.94L 1230 176.47L 1230 181.99L 1218.6 180.32L 1205.5 187.48L 1190 188.47L 1171 190.4L 1159.6 192.07L 1146.5 193.72L 1131 195.46L 1112 195.64L 1100.6 199.64L 1087.5 200.55L 1072 202.03L 1053 203.15L 1041.6 204.13L 1028.5 204.87L 1013 205.72L 994 206.34L 982.63 207.37L 969.51 208.11L 953.99 208.61L 935 209.97L 923.63 210.4L 910.51 211.89L 894.99 212.14L 876 213.54L 864.63 214.19L 851.51 215.16L 835.99 215.96L 817 217.54L 805.63 218.24L 792.51 218.92L 776.99 219.96L 758 221.78L 746.63 222.55L 733.51 222.75L 717.99 224.61L 699 225.89L 687.63 226.73L 674.51 227.47L 658.99 229.04L 640 229.7L 628.63 229.26L 615.51 232.09L 599.99 232.39L 581 233.74L 569.63 233.82L 556.51 235.08L 540.99 236.07L 522 237.67L 510.63 238.89L 497.51 239.89L 481.99 240.71L 463 242.96L 451.63 242.8L 438.51 245.76L 422.99 246.1L 404 247.03L 392.63 248.7L 379.51 249.23L 363.99 253.25L 345 254.04L 333.63 257.66L 320.51 258.8L 304.99 258L 286 263.97L 274.63 262.61L 261.51 264.23L 245.99 269.81L 227 268.58L 215.63 272.45L 202.51 275.04L 186.99 278.99L 168 275.08L 143.51 281.94L 109 285.84L 50 300.75" fill="#007AFF" fill-opacity="0.30196078431372547" stroke="none"/>
    <path d="M 50 300.75L 109 326.76L 143.51 341.97L 168 352.77L 186.99 360.33L 202.51 367.18L 215.63 374.67L 227 377.97L 245.99 386.34L 261.51 394.9L 274.63 374.22L 286 379.23L 304.99 362.18L 320.51 379.08L 333.63 384.86L 345 378.8L 363.99 366.99L 379.51 368.61L 392.63 370.1L 404 367.53L 422.99 355.71L 438.51 368.47L 451.63 364.17L 463 364.03L 481.99 361.52L 497.51 354.94L 510.63 355.98L 522 350.27L 540.99 342.69L 556.51 337.75L 569.63 329.43L 581 326.88L 599.99 320.76L 615.51 320L 628.63 309.19L 640 306.97L 658.99 304.2L 674.51 294.23L 687.63 291.12L 699 286.53L 717.99 280.09L 733.51 274.18L 746.63 266.88L 758 263.65L 776.99 255.09L 792.51 247.93L 805.63 242.32L 817 237.72L 835.99 227.52L 851.51 221.71L 864.63 214.92L 876 210.46L 894.99 202.46L 910.51 194.2L 923.63 186.73L 935 180.65L 953.99 170.38L 969.51 162.17L 982.63 155.25L 994 149.62L 1013 140.05L 1028.5 133.64L 1041.6 127.43L 1053 121.64L 1072 113.61L 1087.5 106.18L 1100.6 99.443L 1112 94.649L 1131 87.025L 1131 87.025L 1112 95.765L 1100.6 100.94L 1087.5 106.51L 1072 113.72L 1053 122.44L 1041.6 127.52L 1028.5 133.83L 1013 140.96L 994 150.13L 982.63 155.56L 969.51 162.31L 953.99 170.44L 935 180.74L 923.63 186.89L 910.51 194.35L 894.99 202.52L 876 211.48L 864.63 216.72L 851.51 222.48L 835.99 229.64L 817 237.85L 805.63 242.6L 792.51 248.48L 776.99 256.48L 758 264.27L 746.63 269.25L 733.51 274.23L 717.99 280.9L 699 288.36L 687.63 293.4L 674.51 300.59L 658.99 306.47L 640 313.8L 628.63 316.41L 615.51 322.9L 599.99 326.71L 581 333.26L 569.63 336.97L 556.51 341.41L 540.99 347.01L 522 351.36L 510.63 358.85L 497.51 361.84L 481.99 363.86L 463 367.11L 451.63 371.76L 438.51 373.31L 422.99 375.45L 404 374.66L 392.63 379.03L 379.51 379.08L 363.99 378.96L 345 379.23L 333.63 384.86L 320.51 379.08L 304.99 387.6L 286 379.23L 274.63 374.22L 261.51 394.9L 245.99 388.06L 227 379.68L 215.63 374.67L 202.51 368.89L 186.99 362.05L 168 352.77L 143.51 341.97L 109 326.76L 50 300.75" fill="#FF3B30" fill-opacity="0.30196078431372547" stroke="none"/>
    <path d="M 50 300.75L 109 285.84L 143.51 281.85L 168 275.08L 186.99 276.95L 202.51 275.04L 215.63 272.45L 227 264.82L 245.99 269.81L 261.51 263.66L 274.63 259.83L 286 261.44L 304.99 258L 320.51 258.05L 333.63 257.03L 345 251.92L 363.99 251.71L 379.51 249.23L 392.63 248.29L 404 246.97L 422.99 245.24L 438.51 245.36L 451.63 242.48L 463 241.97L 481.99 240.54L 497.51 239.6L 510.63 238.49L 522 237.63L 540.99 235.94L 556.51 234.65L 569.63 233.46L 581 233.63L 599.99 232.28L 615.51 231.49L 628.63 229.08L 640 229.37L 658.99 228.24L 674.51 227.31L 687.63 226.46L 699 225.88L 717.99 223.96L 733.51 222.26L 746.63 222.44L 758 221.74L 776.99 219.48L 792.51 218.63L 805.63 217.93L 817 217.34L 835.99 215.9L 851.51 214.94L 864.63 214.05L 876 213.23L 894.99 212.08L 910.51 211.35L 923.63 210.28L 935 209.82L 953.99 208.6L 969.51 208.07L 982.63 207.24L 994 206.27L 1013 205.68L 1028.5 204.77L 1041.6 203.96L 1053 202.36L 1072 199.71L 1087.5 200.05L 1100.6 199.37L 1112 195.26L 1131 195.28L 1146.5 191.81L 1159.6 191.54L 1171 189.01L 1190 187.77L 1205.5 185.12L 1218.6 178.84L 1230 180.47" fill="none" stroke-width="4" stroke="#007AFF" stroke-opacity="1" stroke-linecap="round" stroke-linejoin="round"/>
    <path d="M 50 300.75L 109 326.76L 143.51 341.97L 168 352.77L 186.99 361.59L 202.51 368.43L 215.63 374.67L 227 379.23L 245.99 387.6L 261.51 394.9L 274.63 374.22L 286 379.23L 304.99 379.14L 320.51 379.08L 333.63 384.86L 345 379.11L 363.99 375.45L 379.51 376.05L 392.63 376.49L 404 372.66L 422.99 369.21L 438.51 371.99L 451.63 369.62L 463 366.28L 481.99 363.24L 497.51 359.91L 510.63 358.08L 522 351.07L 540.99 345.84L 556.51 340.42L 569.63 334.85L 581 331.49L 599.99 325.06L 615.51 322.12L 628.63 314.39L 640 311.89L 658.99 305.86L 674.51 298.82L 687.63 292.79L 699 287.88L 717.99 280.69L 733.51 274.21L 746.63 268.61L 758 264.11L 776.99 256.12L 792.51 248.34L 805.63 242.53L 817 237.82L 835.99 229.07L 851.51 222.27L 864.63 216.24L 876 211.21L 894.99 202.5L 910.51 194.31L 923.63 186.85L 935 180.71L 953.99 170.42L 969.51 162.27L 982.63 155.48L 994 150L 1013 140.72L 1028.5 133.78L 1041.6 127.5L 1053 122.23L 1072 113.69L 1087.5 106.42L 1100.6 100.54L 1112 95.47L 1131 87.025" fill="none" stroke-width="4" stroke="#FF3B30" stroke-opacity="1" stroke-linecap="round" stroke-linejoin="round"/>
    <path d="M 50 300.75L 109 285.84L 143.51 281.85L 168 275.08L 186.99 276.95L 202.51 275.04L 215.63 272.45L 227 264.82L 245.99 269.81L 261.51 263.66L 274.63 259.83L 286 261.44L 304.99 258L 320.51 258.05L 333.63 257.03L 345 251.92L 363.99 251.71L 379.51 249.23L 392.63 248.29L 404 246.97L 422.99 245.24L 438.51 245.36L 451.63 242.48L 463 241.97L 481.99 240.54L 497.51 239.6L 510.63 238.49L 522 237.63L 540.99 235.94L 556.51 234.65L 569.63 233.46L 581 233.63L 599.99 232.28L 615.51 231.49L 628.63 229.08L 640 229.37L 658.99 228.24L 674.51 227.31L 687.63 226.46L 699 225.88L 717.99 223.96L 733.51 222.26L 746.63 222.44L 758 221.74L 776.99 219.48L 792.51 218.63L 805.63 217.93L 817 217.34L 835.99 215.9L 851.51 214.94L 864.63 214.05L 876 213.23L 894.99 212.08L 910.51 211.35L 923.63 210.28L 935 209.82L 953.99 208.6L 969.51 208.07L 982.63 207.24L 994 206.27L 1013 205.68L 1028.5 204.77L 1041.6 203.96L 1053 202.36L 1072 199.71L 1087.5 200.05L 1100.6 199.37L 1112 195.26L 1131 195.28L 1146.5 191.81L 1159.6 191.54L 1171 189.01L 1190 187.77L 1205.5 185.12L 1218.6 178.84L 1230 180.47" fill="none" stroke-width="0.5" stroke="#000000" stroke-opacity="0.30196" stroke-linecap="round" stroke-linejoin="round"/>
    <path d="M 50 300.75L 109 326.76L 143.51 341.97L 168 352.77L 186.99 361.59L 202.51 368.43L 215.63 374.67L 227 379.23L 245.99 387.6L 261.51 394.9L 274.63 374.22L 286 379.23L 304.99 379.14L 320.51 379.08L 333.63 384.86L 345 379.11L 363.99 375.45L 379.51 376.05L 392.63 376.49L 404 372.66L 422.99 369.21L 438.51 371.99L 451.63 369.62L 463 366.28L 481.99 363.24L 497.51 359.91L 510.63 358.08L 522 351.07L 540.99 345.84L 556.51 340.42L 569.63 334.85L 581 331.49L 599.99 325.06L 615.51 322.12L 628.63 314.39L 640 311.89L 658.99 305.86L 674.51 298.82L 687.63 292.79L 699 287.88L 717.99 280.69L 733.51 274.21L 746.63 268.61L 758 264.11L 776.99 256.12L 792.51 248.34L 805.63 242.53L 817 237.82L 835.99 229.07L 851.51 222.27L 864.63 216.24L 876 211.21L 894.99 202.5L 910.51 194.31L 923.63 186.85L 935 180.71L 953.99 170.42L 969.51 162.27L 982.63 155.48L 994 150L 1013 140.72L 1028.5 133.78L 1041.6 127.5L 1053 122.23L 1072 113.69L 1087.5 106.42L 1100.6 100.54L 1112 95.47L 1131 87.025" fill="none" stroke-width="0.5" stroke="#000000" stroke-opacity="0.30196" stroke-linecap="round" stroke-linejoin="round"/>
  </g>
  <path d="M 74 33 L 74 88 L 348 88 L 348 33 z" fill="#FFFFFF" fill-opacity="0.7019607843137254" stroke-width="0.5" stroke="#000000" stroke-opacity="1" stroke-linecap="round" stroke-linejoin="round"/>
  <path d="M 88 52 L 108 52" fill="none" stroke-width="4" stroke="#FF3B30" stroke-opacity="1" stroke-linecap="round" stroke-linejoin="round"/>
  <path d="M 88 52 L 108 52" fill="none" stroke-width="0.5" stroke="#000000" stroke-opacity="0.30196" stroke-linecap="round" stroke-linejoin="round"/>
  <text x="119" y="56.17" font-family="Menlo" font-size="12" font-weight="normal" font-style="normal" fill="#000000" fill-opacity="1">Array&lt;Int&gt; random removals</text>
  <path d="M 88 69 L 108 69" fill="none" stroke-width="4" stroke="#007AFF" stroke-opacity="1" stroke-linecap="round" stroke-linejoin="round"/>
  <path d="M 88 69 L 108 69" fill="none" stroke-width="0.5" stroke="#000000" stroke-opacity="0.30196" stroke-linecap="round" stroke-linejoin="round"/>
  <text x="119" y="73.17" font-family="Menlo" font-size="12" font-weight="normal" font-style="normal" fill="#000000" fill-opacity="1">TreeArray&lt;Int&gt; random removals</text>
  <path d="M 50 9 L 50 441 L 1230 441 L 1230 9 z" fill="none" stroke-width="0.5" stroke="#000000" stroke-opacity="1" stroke-linecap="round" stroke-linejoin="round"/>
</svg>
