<!DOCTYPE svg PUBLIC "-//W3C//DTD SVG 1.1//EN" "http://www.w3.org/Graphics/SVG/1.1/DTD/svg11.dtd">
<svg width="1280.0px" height="480.0px" viewBox="0.0 0.0 1280.0 480.0" xmlns="http://www.w3.org/2000/svg" xmlns:xlink="http://www.w3.org/1999/xlink" version="1.1">
  <path d="M 0 0 L 0 480 L 1280 480 L 1280 0 z" fill="#FFFFFF" fill-opacity="1.0" stroke="none"/>
  <text x="50" y="468.7" font-family="Helvetica" font-size="10" font-weight="normal" font-style="normal" fill="#000000" fill-opacity="1">Average per-element processing time over input size (bands: min, mean, mean + 2stddev)</text>
  <a xlink:href="https://github.com/apple/swift-collections-benchmark"><text x="1107" y="468.7" font-family="Helvetica" font-size="10" font-weight="normal" font-style="normal" fill="#000000" fill-opacity="1">swift-collections-benchmark</text></a>
  <path d="M 50 9 L 50 441" fill="none" stroke-width="0.75" stroke="#000000" stroke-opacity="0.49804" stroke-linecap="butt" stroke-linejoin="round"/>
  <text x="47" y="453.7" font-family="Helvetica" font-size="10" font-weight="normal" font-style="normal" fill="#000000" fill-opacity="1">1</text>
  <path d="M 109 9 L 109 441" fill="none" stroke-width="0.75" stroke="#000000" stroke-opacity="0.49804" stroke-linecap="butt" stroke-linejoin="round"/>
  <text x="106" y="453.7" font-family="Helvetica" font-size="10" font-weight="normal" font-style="normal" fill="#000000" fill-opacity="1">2</text>
  <path d="M 168 9 L 168 441" fill="none" stroke-width="0.75" stroke="#000000" stroke-opacity="0.49804" stroke-linecap="butt" stroke-linejoin="round"/>
  <text x="165" y="453.7" font-family="Helvetica" font-size="10" font-weight="normal" font-style="normal" fill="#000000" fill-opacity="1">4</text>
  <path d="M 227 9 L 227 441" fill="none" stroke-width="0.75" stroke="#000000" stroke-opacity="0.49804" stroke-linecap="butt" stroke-linejoin="round"/>
  <text x="224" y="453.7" font-family="Helvetica" font-size="10" font-weight="normal" font-style="normal" fill="#000000" fill-opacity="1">8</text>
  <path d="M 286 9 L 286 441" fill="none" stroke-width="0.75" stroke="#000000" stroke-opacity="0.49804" stroke-linecap="butt" stroke-linejoin="round"/>
  <text x="280" y="453.7" font-family="Helvetica" font-size="10" font-weight="normal" font-style="normal" fill="#000000" fill-opacity="1">16</text>
  <path d="M 345 9 L 345 441" fill="none" stroke-width="0.75" stroke="#000000" stroke-opacity="0.49804" stroke-linecap="butt" stroke-linejoin="round"/>
  <text x="339" y="453.7" font-family="Helvetica" font-size="10" font-weight="normal" font-style="normal" fill="#000000" fill-opacity="1">32</text>
  <path d="M 404 9 L 404 441" fill="none" stroke-width="0.75" stroke="#000000" stroke-opacity="0.49804" stroke-linecap="butt" stroke-linejoin="round"/>
  <text x="398" y="453.7" font-family="Helvetica" font-size="10" font-weight="normal" font-style="normal" fill="#000000" fill-opacity="1">64</text>
  <path d="M 463 9 L 463 441" fill="none" stroke-width="0.75" stroke="#000000" stroke-opacity="0.49804" stroke-linecap="butt" stroke-linejoin="round"/>
  <text x="454.5" y="453.7" font-family="Helvetica" font-size="10" font-weight="normal" font-style="normal" fill="#000000" fill-opacity="1">128</text>
  <path d="M 522 9 L 522 441" fill="none" stroke-width="0.75" stroke="#000000" stroke-opacity="0.49804" stroke-linecap="butt" stroke-linejoin="round"/>
  <text x="513.5" y="453.7" font-family="Helvetica" font-size="10" font-weight="normal" font-style="normal" fill="#000000" fill-opacity="1">256</text>
  <path d="M 581 9 L 581 441" fill="none" stroke-width="0.75" stroke="#000000" stroke-opacity="0.49804" stroke-linecap="butt" stroke-linejoin="round"/>
  <text x="572.5" y="453.7" font-family="Helvetica" font-size="10" font-weight="normal" font-style="normal" fill="#000000" fill-opacity="1">512</text>
  <path d="M 640 9 L 640 441" fill="none" stroke-width="0.75" stroke="#000000" stroke-opacity="0.49804" stroke-linecap="butt" stroke-linejoin="round"/>
  <text x="634.5" y="453.7" font-family="Helvetica" font-size="10" font-weight="normal" font-style="normal" fill="#000000" fill-opacity="1">1k</text>
  <path d="M 699 9 L 699 441" fill="none" stroke-width="0.75" stroke="#000000" stroke-opacity="0.49804" stroke-linecap="butt" stroke-linejoin="round"/>
  <text x="693.5" y="453.7" font-family="Helvetica" font-size="10" font-weight="normal" font-style="normal" fill="#000000" fill-opacity="1">2k</text>
  <path d="M 758 9 L 758 441" fill="none" stroke-width="0.75" stroke="#000000" stroke-opacity="0.49804" stroke-linecap="butt" stroke-linejoin="round"/>
  <text x="752.5" y="453.7" font-family="Helvetica" font-size="10" font-weight="normal" font-style="normal" fill="#000000" fill-opacity="1">4k</text>
  <path d="M 817 9 L 817 441" fill="none" stroke-width="0.75" stroke="#000000" stroke-opacity="0.49804" stroke-linecap="butt" stroke-linejoin="round"/>
  <text x="811.5" y="453.7" font-family="Helvetica" font-size="10" font-weight="normal" font-style="normal" fill="#000000" fill-opacity="1">8k</text>
  <path d="M 876 9 L 876 441" fill="none" stroke-width="0.75" stroke="#000000" stroke-opacity="0.49804" stroke-linecap="butt" stroke-linejoin="round"/>
  <text x="867.5" y="453.7" font-family="Helvetica" font-size="10" font-weight="normal" font-style="normal" fill="#000000" fill-opacity="1">16k</text>
  <path d="M 935 9 L 935 441" fill="none" stroke-width="0.75" stroke="#000000" stroke-opacity="0.49804" stroke-linecap="butt" stroke-linejoin="round"/>
  <text x="926.5" y="453.7" font-family="Helvetica" font-size="10" font-weight="normal" font-style="normal" fill="#000000" fill-opacity="1">32k</text>
  <path d="M 994 9 L 994 441" fill="none" stroke-width="0.75" stroke="#000000" stroke-opacity="0.49804" stroke-linecap="butt" stroke-linejoin="round"/>
  <text x="985.5" y="453.7" font-family="Helvetica" font-size="10" font-weight="normal" font-style="normal" fill="#000000" fill-opacity="1">64k</text>
  <path d="M 1053 9 L 1053 441" fill="none" stroke-width="0.75" stroke="#000000" stroke-opacity="0.49804" stroke-linecap="butt" stroke-linejoin="round"/>
  <text x="1042" y="453.7" font-family="Helvetica" font-size="10" font-weight="normal" font-style="normal" fill="#000000" fill-opacity="1">128k</text>
  <path d="M 1112 9 L 1112 441" fill="none" stroke-width="0.75" stroke="#000000" stroke-opacity="0.49804" stroke-linecap="butt" stroke-linejoin="round"/>
  <text x="1101" y="453.7" font-family="Helvetica" font-size="10" font-weight="normal" font-style="normal" fill="#000000" fill-opacity="1">256k</text>
  <path d="M 1171 9 L 1171 441" fill="none" stroke-width="0.75" stroke="#000000" stroke-opacity="0.49804" stroke-linecap="butt" stroke-linejoin="round"/>
  <text x="1160" y="453.7" font-family="Helvetica" font-size="10" font-weight="normal" font-style="normal" fill="#000000" fill-opacity="1">512k</text>
  <path d="M 1230 9 L 1230 441" fill="none" stroke-width="0.75" stroke="#000000" stroke-opacity="0.49804" stroke-linecap="butt" stroke-linejoin="round"/>
  <text x="1223" y="453.7" font-family="Helvetica" font-size="10" font-weight="normal" font-style="normal" fill="#000000" fill-opacity="1">1M</text>
  <path d="M 50 441 L 1230 441" fill="none" stroke-width="0.75" stroke="#000000" stroke-opacity="0.49804" stroke-linecap="butt" stroke-linejoin="round"/>
  <text x="27" y="442.7" font-family="Helvetica" font-size="10" font-weight="normal" font-style="normal" fill="#000000" fill-opacity="1">1 ns</text>
  <text x="1236" y="442.7" font-family="Helvetica" font-size="10" font-weight="normal" font-style="normal" fill="#000000" fill-opacity="1">1 ns</text>
  <path d="M 50 354.6 L 1230 354.6" fill="none" stroke-width="0.75" stroke="#000000" stroke-opacity="0.49804" stroke-linecap="butt" stroke-linejoin="round"/>
  <text x="21" y="356.3" font-family="Helvetica" font-size="10" font-weight="normal" font-style="normal" fill="#000000" fill-opacity="1">10 ns</text>
  <text x="1236" y="356.3" font-family="Helvetica" font-size="10" font-weight="normal" font-style="normal" fill="#000000" fill-opacity="1">10 ns</text>
  <path d="M 50 268.2 L 1230 268.2" fill="none" stroke-width="0.75" stroke="#000000" stroke-opacity="0.49804" stroke-linecap="butt" stroke-linejoin="round"/>
  <text x="16" y="269.9" font-family="Helvetica" font-size="10" font-weight="normal" font-style="normal" fill="#000000" fill-opacity="1">100 ns</text>
  <text x="1236" y="269.9" font-family="Helvetica" font-size="10" font-weight="normal" font-style="normal" fill="#000000" fill-opacity="1">100 ns</text>
  <path d="M 50 181.8 L 1230 181.8" fill="none" stroke-width="0.75" stroke="#000000" stroke-opacity="0.49804" stroke-linecap="butt" stroke-linejoin="round"/>
  <text x="26" y="183.5" font-family="Helvetica" font-size="10" font-weight="normal" font-style="normal" fill="#000000" fill-opacity="1">1 µs</text>
  <text x="1236" y="183.5" font-family="Helvetica" font-size="10" font-weight="normal" font-style="normal" fill="#000000" fill-opacity="1">1 µs</text>
  <path d="M 50 95.4 L 1230 95.4" fill="none" stroke-width="0.75" stroke="#000000" stroke-opacity="0.49804" stroke-linecap="butt" stroke-linejoin="round"/>
  <text x="21" y="97.1" font-family="Helvetica" font-size="10" font-weight="normal" font-style="normal" fill="#000000" fill-opacity="1">10 µs</text>
  <text x="1236" y="97.1" font-family="Helvetica" font-size="10" font-weight="normal" font-style="normal" fill="#000000" fill-opacity="1">10 µs</text>
  <path d="M 50 9 L 1230 9" fill="none" stroke-width="0.75" stroke="#000000" stroke-opacity="0.49804" stroke-linecap="butt" stroke-linejoin="round"/>
  <text x="15" y="10.7" font-family="Helvetica" font-size="10" font-weight="normal" font-style="normal" fill="#000000" fill-opacity="1">100 µs</text>
  <text x="1236" y="10.7" font-family="Helvetica" font-size="10" font-weight="normal" font-style="normal" fill="#000000" fill-opacity="1">100 µs</text>
  <path d="M 50 414.99 L 1230 414.99" fill="none" stroke-width="0.5" stroke="#000000" stroke-opacity="0.25882" stroke-linecap="butt" stroke-linejoin="round" stroke-dasharray="6 3" stroke-dashoffset="0"/>
  <path d="M 50 388.98 L 1230 388.98" fill="none" stroke-width="0.5" stroke="#000000" stroke-opacity="0.25882" stroke-linecap="butt" stroke-linejoin="round" stroke-dasharray="6 3" stroke-dashoffset="0"/>
  <path d="M 50 362.97 L 1230 362.97" fill="none" stroke-width="0.5" stroke="#000000" stroke-opacity="0.25882" stroke-linecap="butt" stroke-linejoin="round" stroke-dasharray="6 3" stroke-dashoffset="0"/>
  <path d="M 50 336.96 L 1230 336.96" fill="none" stroke-width="0.5" stroke="#000000" stroke-opacity="0.25882" stroke-linecap="butt" stroke-linejoin="round" stroke-dasharray="6 3" stroke-dashoffset="0"/>
  <path d="M 50 310.96 L 1230 310.96" fill="none" stroke-width="0.5" stroke="#000000" stroke-opacity="0.25882" stroke-linecap="butt" stroke-linejoin="round" stroke-dasharray="6 3" stroke-dashoffset="0"/>
  <path d="M 50 284.95 L 1230 284.95" fill="none" stroke-width="0.5" stroke="#000000" stroke-opacity="0.25882" stroke-linecap="butt" stroke-linejoin="round" stroke-dasharray="6 3" stroke-dashoffset="0"/>
  <path d="M 50 258.94 L 1230 258.94" fill="none" stroke-width="0.5" stroke="#000000" stroke-opacity="0.25882" stroke-linecap="butt" stroke-linejoin="round" stroke-dasharray="6 3" stroke-dashoffset="0"/>
  <path d="M 50 232.93 L 1230 232.93" fill="none" stroke-width="0.5" stroke="#000000" stroke-opacity="0.25882" stroke-linecap="butt" stroke-linejoin="round" stroke-dasharray="6 3" stroke-dashoffset="0"/>
  <path d="M 50 206.92 L 1230 206.92" fill="none" stroke-width="0.5" stroke="#000000" stroke-opacity="0.25882" stroke-linecap="butt" stroke-linejoin="round" stroke-dasharray="6 3" stroke-dashoffset="0"/>
  <path d="M 50 180.91 L 1230 180.91" fill="none" stroke-width="0.5" stroke="#000000" stroke-opacity="0.25882" stroke-linecap="butt" stroke-linejoin="round" stroke-dasharray="6 3" stroke-dashoffset="0"/>
  <path d="M 50 154.9 L 1230 154.9" fill="none" stroke-width="0.5" stroke="#000000" stroke-opacity="0.25882" stroke-linecap="butt" stroke-linejoin="round" stroke-dasharray="6 3" stroke-dashoffset="0"/>
  <path d="M 50 128.89 L 1230 128.89" fill="none" stroke-width="0.5" stroke="#000000" stroke-opacity="0.25882" stroke-linecap="butt" stroke-linejoin="round" stroke-dasharray="6 3" stroke-dashoffset="0"/>
  <path d="M 50 102.88 L 1230 102.88" fill="none" stroke-width="0.5" stroke="#000000" stroke-opacity="0.25882" stroke-linecap="butt" stroke-linejoin="round" stroke-dasharray="6 3" stroke-dashoffset="0"/>
  <path d="M 50 76.874 L 1230 76.874" fill="none" stroke-width="0.5" stroke="#000000" stroke-opacity="0.25882" stroke-linecap="butt" stroke-linejoin="round" stroke-dasharray="6 3" stroke-dashoffset="0"/>
  <path d="M 50 50.865 L 1230 50.865" fill="none" stroke-width="0.5" stroke="#000000" stroke-opacity="0.25882" stroke-linecap="butt" stroke-linejoin="round" stroke-dasharray="6 3" stroke-dashoffset="0"/>
  <path d="M 50 24.856 L 1230 24.856" fill="none" stroke-width="0.5" stroke="#000000" stroke-opacity="0.25882" stroke-linecap="butt" stroke-linejoin="round" stroke-dasharray="6 3" stroke-dashoffset="0"/>
  <path d="M 74 33 L 74 88 L 348 88 L 348 33 z" fill="#FFFFFF" fill-opacity="1.0" stroke="none"/>
  <clipPath id="clip-0">
    <path d="M 50 9 L 50 441 L 1230 441 L 1230 9 z"/>
  </clipPath>
  <g clip-path="url(#clip-0)">
    <path d="M 50 299.94L 109 286.93L 143.51 291.21L 168 300.98L 186.99 294.21L 202.51 278.85L 215.63 287.96L 227 273.36L 245.99 275.26L 261.51 268.37L 274.63 276.41L 286 267.76L 304.99 266.8L 320.51 255.39L 333.63 262.65L 345 260.69L 363.99 258.39L 379.51 258.82L 392.63 252.63L 404 254.24L 422.99 245.99L 438.51 245.96L 451.63 243.62L 463 242.94L 481.99 244.3L 497.51 242.36L 510.63 242.42L 522 240.34L 540.99 238.25L 556.51 237.66L 569.63 236.59L 581 233.21L 599.99 234.73L 615.51 231.53L 628.63 231.19L 640 226.99L 658.99 229.38L 674.51 224.65L 687.63 225.93L 699 223.45L 717.99 224.67L 733.51 223.91L 746.63 221.75L 758 220.89L 776.99 220.12L 792.51 218.9L 805.63 217.43L 817 217.2L 835.99 217.15L 851.51 215.08L 864.63 214.29L 876 214.23L 894.99 211.81L 910.51 210.12L 923.63 210.6L 935 209.16L 953.99 208.3L 969.51 206.74L 982.63 205.27L 994 206.08L 1013 204.71L 1028.5 204.14L 1041.6 202.61L 1053 201.77L 1072 200L 1087.5 199.76L 1100.6 197.62L 1112 196.8L 1131 193.91L 1146.5 191.72L 1159.6 190.51L 1171 189.58L 1190 186.01L 1205.5 183.95L 1218.6 182.45L 1230 180.12L 1230 181.28L 1218.6 183.19L 1205.5 184.74L 1190 187.39L 1171 189.69L 1159.6 190.87L 1146.5 192.43L 1131 195.1L 1112 196.98L 1100.6 198.91L 1087.5 200.18L 1072 201.06L 1053 203L 1041.6 203.4L 1028.5 204.86L 1013 205.52L 994 206.69L 982.63 207.74L 969.51 208.54L 953.99 209.58L 935 210.18L 923.63 211.28L 910.51 212.5L 894.99 213.06L 876 214.81L 864.63 215.26L 851.51 216.19L 835.99 217.24L 817 217.88L 805.63 219.43L 792.51 219.88L 776.99 221.72L 758 222.98L 746.63 223.9L 733.51 225.29L 717.99 225.95L 699 228.56L 687.63 228.17L 674.51 229.41L 658.99 229.87L 640 231.94L 628.63 232.93L 615.51 233.06L 599.99 235.64L 581 235.47L 569.63 237.82L 556.51 239L 540.99 240.68L 522 241.76L 510.63 242.69L 497.51 244.61L 481.99 246.65L 463 246.97L 451.63 249.79L 438.51 250.73L 422.99 254.04L 404 254.89L 392.63 259.16L 379.51 259.31L 363.99 260.78L 345 262.25L 333.63 263.59L 320.51 266.67L 304.99 269.79L 286 271.69L 274.63 276.41L 261.51 280.05L 245.99 278.99L 227 289.13L 215.63 296.08L 202.51 295.35L 186.99 294.21L 168 300.98L 143.51 315.97L 109 327.66L 50 301.66" fill="#007AFF" fill-opacity="0.30196078431372547" stroke="none"/>
    <path d="M 50 301.66L 109 325.95L 143.51 341.17L 168 352.77L 186.99 360.33L 202.51 367.98L 215.63 372.96L 227 378.78L 245.99 347.61L 261.51 393.99L 274.63 359.95L 286 379.23L 304.99 372.24L 320.51 379.08L 333.63 384.86L 345 379L 363.99 361.99L 379.51 368.83L 392.63 369.82L 404 371L 422.99 369.46L 438.51 368.52L 451.63 362.44L 463 363.93L 481.99 365.09L 497.51 357.32L 510.63 354.51L 522 344.17L 540.99 341.95L 556.51 341.69L 569.63 336.57L 581 332.58L 599.99 322.22L 615.51 317.65L 628.63 317.32L 640 308.13L 658.99 299.93L 674.51 295.11L 687.63 290.75L 699 285.97L 717.99 278.3L 733.51 273.62L 746.63 266.65L 758 262.15L 776.99 255.19L 792.51 248.05L 805.63 241.05L 817 237.47L 835.99 228.25L 851.51 221.08L 864.63 215.63L 876 210.85L 894.99 200.3L 910.51 193.62L 923.63 185.69L 935 180.06L 953.99 170.4L 969.51 161.33L 982.63 155.29L 994 149.49L 1013 140.89L 1028.5 133.7L 1041.6 126.29L 1053 121.42L 1072 112.42L 1087.5 106.4L 1100.6 99.879L 1112 94.638L 1112 95.343L 1100.6 100.71L 1087.5 106.72L 1072 113.74L 1053 122.4L 1041.6 127.38L 1028.5 133.77L 1013 140.99L 994 150.27L 982.63 155.65L 969.51 162.36L 953.99 170.46L 935 180.53L 923.63 187.08L 910.51 194.3L 894.99 202.41L 876 211.78L 864.63 216.6L 851.51 222.49L 835.99 228.96L 817 238.23L 805.63 242.73L 792.51 248.84L 776.99 256.01L 758 262.9L 746.63 269.14L 733.51 273.76L 717.99 281.83L 699 290.03L 687.63 293.56L 674.51 297.84L 658.99 306.26L 640 313.59L 628.63 317.69L 615.51 322.12L 599.99 327.06L 581 332.58L 569.63 337.41L 556.51 341.69L 540.99 345.46L 522 354.25L 510.63 355.84L 497.51 360.86L 481.99 365.15L 463 367.16L 451.63 369.65L 438.51 373.25L 422.99 375.53L 404 379.11L 392.63 379.16L 379.51 379.08L 363.99 372.24L 345 379L 333.63 384.86L 320.51 379.08L 304.99 372.24L 286 379.23L 274.63 400.68L 261.51 393.99L 245.99 387.15L 227 378.78L 215.63 374.67L 202.51 367.98L 186.99 362.05L 168 352.77L 143.51 342.88L 109 327.66L 50 301.66" fill="#FF3B30" fill-opacity="0.30196078431372547" stroke="none"/>
    <path d="M 50 301.2L 109 312.15L 143.51 307.77L 168 300.98L 186.99 294.21L 202.51 290.29L 215.63 293.78L 227 284.33L 245.99 277.98L 261.51 276.63L 274.63 276.41L 286 270.62L 304.99 268.99L 320.51 263.38L 333.63 263.34L 345 261.84L 363.99 260.14L 379.51 259.18L 392.63 257.34L 404 254.72L 422.99 251.77L 438.51 249.43L 451.63 248.08L 463 245.87L 481.99 246.02L 497.51 244.01L 510.63 242.62L 522 241.38L 540.99 240.03L 556.51 238.64L 569.63 237.5L 581 234.86L 599.99 235.4L 615.51 232.66L 628.63 232.47L 640 230.58L 658.99 229.74L 674.51 228.11L 687.63 227.57L 699 227.16L 717.99 225.61L 733.51 224.93L 746.63 223.32L 758 222.42L 776.99 221.3L 792.51 219.62L 805.63 218.9L 817 217.7L 835.99 217.22L 851.51 215.9L 864.63 215L 876 214.66L 894.99 212.73L 910.51 211.86L 923.63 211.1L 935 209.91L 953.99 209.24L 969.51 208.06L 982.63 207.08L 994 206.53L 1013 205.31L 1028.5 204.67L 1041.6 203.2L 1053 202.67L 1072 200.78L 1087.5 200.07L 1100.6 198.57L 1112 196.93L 1131 194.78L 1146.5 192.25L 1159.6 190.78L 1171 189.66L 1190 187.02L 1205.5 184.53L 1218.6 183L 1230 180.97" fill="none" stroke-width="4" stroke="#007AFF" stroke-opacity="1" stroke-linecap="round" stroke-linejoin="round"/>
    <path d="M 50 301.66L 109 327.21L 143.51 342.42L 168 352.77L 186.99 361.59L 202.51 367.98L 215.63 374.22L 227 378.78L 245.99 372.24L 261.51 393.99L 274.63 385.16L 286 379.23L 304.99 372.24L 320.51 379.08L 333.63 384.86L 345 379L 363.99 369.28L 379.51 376.12L 392.63 376.49L 404 376.82L 422.99 373.85L 438.51 371.96L 451.63 367.63L 463 366.28L 481.99 365.13L 497.51 359.9L 510.63 355.49L 522 351.34L 540.99 344.51L 556.51 341.69L 569.63 337.19L 581 332.58L 599.99 325.73L 615.51 320.9L 628.63 317.6L 640 312.09L 658.99 304.5L 674.51 297.11L 687.63 292.8L 699 288.93L 717.99 280.87L 733.51 273.72L 746.63 268.47L 758 262.71L 776.99 255.8L 792.51 248.63L 805.63 242.28L 817 238.03L 835.99 228.77L 851.51 222.12L 864.63 216.35L 876 211.54L 894.99 201.85L 910.51 194.12L 923.63 186.71L 935 180.41L 953.99 170.45L 969.51 162.09L 982.63 155.56L 994 150.07L 1013 140.97L 1028.5 133.75L 1041.6 127.1L 1053 122.14L 1072 113.39L 1087.5 106.64L 1100.6 100.49L 1112 95.157" fill="none" stroke-width="4" stroke="#FF3B30" stroke-opacity="1" stroke-linecap="round" stroke-linejoin="round"/>
    <path d="M 50 301.2L 109 312.15L 143.51 307.77L 168 300.98L 186.99 294.21L 202.51 290.29L 215.63 293.78L 227 284.33L 245.99 277.98L 261.51 276.63L 274.63 276.41L 286 270.62L 304.99 268.99L 320.51 263.38L 333.63 263.34L 345 261.84L 363.99 260.14L 379.51 259.18L 392.63 257.34L 404 254.72L 422.99 251.77L 438.51 249.43L 451.63 248.08L 463 245.87L 481.99 246.02L 497.51 244.01L 510.63 242.62L 522 241.38L 540.99 240.03L 556.51 238.64L 569.63 237.5L 581 234.86L 599.99 235.4L 615.51 232.66L 628.63 232.47L 640 230.58L 658.99 229.74L 674.51 228.11L 687.63 227.57L 699 227.16L 717.99 225.61L 733.51 224.93L 746.63 223.32L 758 222.42L 776.99 221.3L 792.51 219.62L 805.63 218.9L 817 217.7L 835.99 217.22L 851.51 215.9L 864.63 215L 876 214.66L 894.99 212.73L 910.51 211.86L 923.63 211.1L 935 209.91L 953.99 209.24L 969.51 208.06L 982.63 207.08L 994 206.53L 1013 205.31L 1028.5 204.67L 1041.6 203.2L 1053 202.67L 1072 200.78L 1087.5 200.07L 1100.6 198.57L 1112 196.93L 1131 194.78L 1146.5 192.25L 1159.6 190.78L 1171 189.66L 1190 187.02L 1205.5 184.53L 1218.6 183L 1230 180.97" fill="none" stroke-width="0.5" stroke="#000000" stroke-opacity="0.30196" stroke-linecap="round" stroke-linejoin="round"/>
    <path d="M 50 301.66L 109 327.21L 143.51 342.42L 168 352.77L 186.99 361.59L 202.51 367.98L 215.63 374.22L 227 378.78L 245.99 372.24L 261.51 393.99L 274.63 385.16L 286 379.23L 304.99 372.24L 320.51 379.08L 333.63 384.86L 345 379L 363.99 369.28L 379.51 376.12L 392.63 376.49L 404 376.82L 422.99 373.85L 438.51 371.96L 451.63 367.63L 463 366.28L 481.99 365.13L 497.51 359.9L 510.63 355.49L 522 351.34L 540.99 344.51L 556.51 341.69L 569.63 337.19L 581 332.58L 599.99 325.73L 615.51 320.9L 628.63 317.6L 640 312.09L 658.99 304.5L 674.51 297.11L 687.63 292.8L 699 288.93L 717.99 280.87L 733.51 273.72L 746.63 268.47L 758 262.71L 776.99 255.8L 792.51 248.63L 805.63 242.28L 817 238.03L 835.99 228.77L 851.51 222.12L 864.63 216.35L 876 211.54L 894.99 201.85L 910.51 194.12L 923.63 186.71L 935 180.41L 953.99 170.45L 969.51 162.09L 982.63 155.56L 994 150.07L 1013 140.97L 1028.5 133.75L 1041.6 127.1L 1053 122.14L 1072 113.39L 1087.5 106.64L 1100.6 100.49L 1112 95.157" fill="none" stroke-width="0.5" stroke="#000000" stroke-opacity="0.30196" stroke-linecap="round" stroke-linejoin="round"/>
  </g>
  <path d="M 74 33 L 74 88 L 348 88 L 348 33 z" fill="#FFFFFF" fill-opacity="0.7019607843137254" stroke-width="0.5" stroke="#000000" stroke-opacity="1" stroke-linecap="round" stroke-linejoin="round"/>
  <path d="M 88 52 L 108 52" fill="none" stroke-width="4" stroke="#FF3B30" stroke-opacity="1" stroke-linecap="round" stroke-linejoin="round"/>
  <path d="M 88 52 L 108 52" fill="none" stroke-width="0.5" stroke="#000000" stroke-opacity="0.30196" stroke-linecap="round" stroke-linejoin="round"/>
  <text x="119" y="56.17" font-family="Menlo" font-size="12" font-weight="normal" font-style="normal" fill="#000000" fill-opacity="1">Array&lt;Int&gt; random removals</text>
  <path d="M 88 69 L 108 69" fill="none" stroke-width="4" stroke="#007AFF" stroke-opacity="1" stroke-linecap="round" stroke-linejoin="round"/>
  <path d="M 88 69 L 108 69" fill="none" stroke-width="0.5" stroke="#000000" stroke-opacity="0.30196" stroke-linecap="round" stroke-linejoin="round"/>
  <text x="119" y="73.17" font-family="Menlo" font-size="12" font-weight="normal" font-style="normal" fill="#000000" fill-opacity="1">TreeArray&lt;Int&gt; random removals</text>
  <path d="M 50 9 L 50 441 L 1230 441 L 1230 9 z" fill="none" stroke-width="0.5" stroke="#000000" stroke-opacity="1" stroke-linecap="round" stroke-linejoin="round"/>
</svg>
