<!DOCTYPE svg PUBLIC "-//W3C//DTD SVG 1.1//EN" "http://www.w3.org/Graphics/SVG/1.1/DTD/svg11.dtd">
<svg width="1280.0px" height="480.0px" viewBox="0.0 0.0 1280.0 480.0" xmlns="http://www.w3.org/2000/svg" xmlns:xlink="http://www.w3.org/1999/xlink" version="1.1">
  <path d="M 0 0 L 0 480 L 1280 480 L 1280 0 z" fill="#FFFFFF" fill-opacity="1.0" stroke="none"/>
  <text x="50" y="468.7" font-family="Helvetica" font-size="10" font-weight="normal" font-style="normal" fill="#000000" fill-opacity="1">Average per-element processing time over input size (bands: min, mean, mean + 2stddev)</text>
  <a xlink:href="https://github.com/apple/swift-collections-benchmark"><text x="1107" y="468.7" font-family="Helvetica" font-size="10" font-weight="normal" font-style="normal" fill="#000000" fill-opacity="1">swift-collections-benchmark</text></a>
  <path d="M 50 9 L 50 441" fill="none" stroke-width="0.75" stroke="#000000" stroke-opacity="0.49804" stroke-linecap="butt" stroke-linejoin="round"/>
  <text x="47" y="453.7" font-family="Helvetica" font-size="10" font-weight="normal" font-style="normal" fill="#000000" fill-opacity="1">1</text>
  <path d="M 115.56 9 L 115.56 441" fill="none" stroke-width="0.75" stroke="#000000" stroke-opacity="0.49804" stroke-linecap="butt" stroke-linejoin="round"/>
  <text x="112.56" y="453.7" font-family="Helvetica" font-size="10" font-weight="normal" font-style="normal" fill="#000000" fill-opacity="1">2</text>
  <path d="M 181.11 9 L 181.11 441" fill="none" stroke-width="0.75" stroke="#000000" stroke-opacity="0.49804" stroke-linecap="butt" stroke-linejoin="round"/>
  <text x="178.11" y="453.7" font-family="Helvetica" font-size="10" font-weight="normal" font-style="normal" fill="#000000" fill-opacity="1">4</text>
  <path d="M 246.67 9 L 246.67 441" fill="none" stroke-width="0.75" stroke="#000000" stroke-opacity="0.49804" stroke-linecap="butt" stroke-linejoin="round"/>
  <text x="243.67" y="453.7" font-family="Helvetica" font-size="10" font-weight="normal" font-style="normal" fill="#000000" fill-opacity="1">8</text>
  <path d="M 312.22 9 L 312.22 441" fill="none" stroke-width="0.75" stroke="#000000" stroke-opacity="0.49804" stroke-linecap="butt" stroke-linejoin="round"/>
  <text x="306.22" y="453.7" font-family="Helvetica" font-size="10" font-weight="normal" font-style="normal" fill="#000000" fill-opacity="1">16</text>
  <path d="M 377.78 9 L 377.78 441" fill="none" stroke-width="0.75" stroke="#000000" stroke-opacity="0.49804" stroke-linecap="butt" stroke-linejoin="round"/>
  <text x="371.78" y="453.7" font-family="Helvetica" font-size="10" font-weight="normal" font-style="normal" fill="#000000" fill-opacity="1">32</text>
  <path d="M 443.33 9 L 443.33 441" fill="none" stroke-width="0.75" stroke="#000000" stroke-opacity="0.49804" stroke-linecap="butt" stroke-linejoin="round"/>
  <text x="437.33" y="453.7" font-family="Helvetica" font-size="10" font-weight="normal" font-style="normal" fill="#000000" fill-opacity="1">64</text>
  <path d="M 508.89 9 L 508.89 441" fill="none" stroke-width="0.75" stroke="#000000" stroke-opacity="0.49804" stroke-linecap="butt" stroke-linejoin="round"/>
  <text x="500.39" y="453.7" font-family="Helvetica" font-size="10" font-weight="normal" font-style="normal" fill="#000000" fill-opacity="1">128</text>
  <path d="M 574.44 9 L 574.44 441" fill="none" stroke-width="0.75" stroke="#000000" stroke-opacity="0.49804" stroke-linecap="butt" stroke-linejoin="round"/>
  <text x="565.94" y="453.7" font-family="Helvetica" font-size="10" font-weight="normal" font-style="normal" fill="#000000" fill-opacity="1">256</text>
  <path d="M 640 9 L 640 441" fill="none" stroke-width="0.75" stroke="#000000" stroke-opacity="0.49804" stroke-linecap="butt" stroke-linejoin="round"/>
  <text x="631.5" y="453.7" font-family="Helvetica" font-size="10" font-weight="normal" font-style="normal" fill="#000000" fill-opacity="1">512</text>
  <path d="M 705.56 9 L 705.56 441" fill="none" stroke-width="0.75" stroke="#000000" stroke-opacity="0.49804" stroke-linecap="butt" stroke-linejoin="round"/>
  <text x="700.06" y="453.7" font-family="Helvetica" font-size="10" font-weight="normal" font-style="normal" fill="#000000" fill-opacity="1">1k</text>
  <path d="M 771.11 9 L 771.11 441" fill="none" stroke-width="0.75" stroke="#000000" stroke-opacity="0.49804" stroke-linecap="butt" stroke-linejoin="round"/>
  <text x="765.61" y="453.7" font-family="Helvetica" font-size="10" font-weight="normal" font-style="normal" fill="#000000" fill-opacity="1">2k</text>
  <path d="M 836.67 9 L 836.67 441" fill="none" stroke-width="0.75" stroke="#000000" stroke-opacity="0.49804" stroke-linecap="butt" stroke-linejoin="round"/>
  <text x="831.17" y="453.7" font-family="Helvetica" font-size="10" font-weight="normal" font-style="normal" fill="#000000" fill-opacity="1">4k</text>
  <path d="M 902.22 9 L 902.22 441" fill="none" stroke-width="0.75" stroke="#000000" stroke-opacity="0.49804" stroke-linecap="butt" stroke-linejoin="round"/>
  <text x="896.72" y="453.7" font-family="Helvetica" font-size="10" font-weight="normal" font-style="normal" fill="#000000" fill-opacity="1">8k</text>
  <path d="M 967.78 9 L 967.78 441" fill="none" stroke-width="0.75" stroke="#000000" stroke-opacity="0.49804" stroke-linecap="butt" stroke-linejoin="round"/>
  <text x="959.28" y="453.7" font-family="Helvetica" font-size="10" font-weight="normal" font-style="normal" fill="#000000" fill-opacity="1">16k</text>
  <path d="M 1033.3 9 L 1033.3 441" fill="none" stroke-width="0.75" stroke="#000000" stroke-opacity="0.49804" stroke-linecap="butt" stroke-linejoin="round"/>
  <text x="1024.8" y="453.7" font-family="Helvetica" font-size="10" font-weight="normal" font-style="normal" fill="#000000" fill-opacity="1">32k</text>
  <path d="M 1098.9 9 L 1098.9 441" fill="none" stroke-width="0.75" stroke="#000000" stroke-opacity="0.49804" stroke-linecap="butt" stroke-linejoin="round"/>
  <text x="1090.4" y="453.7" font-family="Helvetica" font-size="10" font-weight="normal" font-style="normal" fill="#000000" fill-opacity="1">64k</text>
  <path d="M 1164.4 9 L 1164.4 441" fill="none" stroke-width="0.75" stroke="#000000" stroke-opacity="0.49804" stroke-linecap="butt" stroke-linejoin="round"/>
  <text x="1153.4" y="453.7" font-family="Helvetica" font-size="10" font-weight="normal" font-style="normal" fill="#000000" fill-opacity="1">128k</text>
  <path d="M 1230 9 L 1230 441" fill="none" stroke-width="0.75" stroke="#000000" stroke-opacity="0.49804" stroke-linecap="butt" stroke-linejoin="round"/>
  <text x="1219" y="453.7" font-family="Helvetica" font-size="10" font-weight="normal" font-style="normal" fill="#000000" fill-opacity="1">256k</text>
  <path d="M 50 441 L 1230 441" fill="none" stroke-width="0.75" stroke="#000000" stroke-opacity="0.49804" stroke-linecap="butt" stroke-linejoin="round"/>
  <text x="27" y="442.7" font-family="Helvetica" font-size="10" font-weight="normal" font-style="normal" fill="#000000" fill-opacity="1">1 ns</text>
  <text x="1236" y="442.7" font-family="Helvetica" font-size="10" font-weight="normal" font-style="normal" fill="#000000" fill-opacity="1">1 ns</text>
  <path d="M 50 354.6 L 1230 354.6" fill="none" stroke-width="0.75" stroke="#000000" stroke-opacity="0.49804" stroke-linecap="butt" stroke-linejoin="round"/>
  <text x="21" y="356.3" font-family="Helvetica" font-size="10" font-weight="normal" font-style="normal" fill="#000000" fill-opacity="1">10 ns</text>
  <text x="1236" y="356.3" font-family="Helvetica" font-size="10" font-weight="normal" font-style="normal" fill="#000000" fill-opacity="1">10 ns</text>
  <path d="M 50 268.2 L 1230 268.2" fill="none" stroke-width="0.75" stroke="#000000" stroke-opacity="0.49804" stroke-linecap="butt" stroke-linejoin="round"/>
  <text x="16" y="269.9" font-family="Helvetica" font-size="10" font-weight="normal" font-style="normal" fill="#000000" fill-opacity="1">100 ns</text>
  <text x="1236" y="269.9" font-family="Helvetica" font-size="10" font-weight="normal" font-style="normal" fill="#000000" fill-opacity="1">100 ns</text>
  <path d="M 50 181.8 L 1230 181.8" fill="none" stroke-width="0.75" stroke="#000000" stroke-opacity="0.49804" stroke-linecap="butt" stroke-linejoin="round"/>
  <text x="26" y="183.5" font-family="Helvetica" font-size="10" font-weight="normal" font-style="normal" fill="#000000" fill-opacity="1">1 µs</text>
  <text x="1236" y="183.5" font-family="Helvetica" font-size="10" font-weight="normal" font-style="normal" fill="#000000" fill-opacity="1">1 µs</text>
  <path d="M 50 95.4 L 1230 95.4" fill="none" stroke-width="0.75" stroke="#000000" stroke-opacity="0.49804" stroke-linecap="butt" stroke-linejoin="round"/>
  <text x="21" y="97.1" font-family="Helvetica" font-size="10" font-weight="normal" font-style="normal" fill="#000000" fill-opacity="1">10 µs</text>
  <text x="1236" y="97.1" font-family="Helvetica" font-size="10" font-weight="normal" font-style="normal" fill="#000000" fill-opacity="1">10 µs</text>
  <path d="M 50 9 L 1230 9" fill="none" stroke-width="0.75" stroke="#000000" stroke-opacity="0.49804" stroke-linecap="butt" stroke-linejoin="round"/>
  <text x="15" y="10.7" font-family="Helvetica" font-size="10" font-weight="normal" font-style="normal" fill="#000000" fill-opacity="1">100 µs</text>
  <text x="1236" y="10.7" font-family="Helvetica" font-size="10" font-weight="normal" font-style="normal" fill="#000000" fill-opacity="1">100 µs</text>
  <path d="M 50 414.99 L 1230 414.99" fill="none" stroke-width="0.5" stroke="#000000" stroke-opacity="0.25882" stroke-linecap="butt" stroke-linejoin="round" stroke-dasharray="6 3" stroke-dashoffset="0"/>
  <path d="M 50 388.98 L 1230 388.98" fill="none" stroke-width="0.5" stroke="#000000" stroke-opacity="0.25882" stroke-linecap="butt" stroke-linejoin="round" stroke-dasharray="6 3" stroke-dashoffset="0"/>
  <path d="M 50 362.97 L 1230 362.97" fill="none" stroke-width="0.5" stroke="#000000" stroke-opacity="0.25882" stroke-linecap="butt" stroke-linejoin="round" stroke-dasharray="6 3" stroke-dashoffset="0"/>
  <path d="M 50 336.96 L 1230 336.96" fill="none" stroke-width="0.5" stroke="#000000" stroke-opacity="0.25882" stroke-linecap="butt" stroke-linejoin="round" stroke-dasharray="6 3" stroke-dashoffset="0"/>
  <path d="M 50 310.96 L 1230 310.96" fill="none" stroke-width="0.5" stroke="#000000" stroke-opacity="0.25882" stroke-linecap="butt" stroke-linejoin="round" stroke-dasharray="6 3" stroke-dashoffset="0"/>
  <path d="M 50 284.95 L 1230 284.95" fill="none" stroke-width="0.5" stroke="#000000" stroke-opacity="0.25882" stroke-linecap="butt" stroke-linejoin="round" stroke-dasharray="6 3" stroke-dashoffset="0"/>
  <path d="M 50 258.94 L 1230 258.94" fill="none" stroke-width="0.5" stroke="#000000" stroke-opacity="0.25882" stroke-linecap="butt" stroke-linejoin="round" stroke-dasharray="6 3" stroke-dashoffset="0"/>
  <path d="M 50 232.93 L 1230 232.93" fill="none" stroke-width="0.5" stroke="#000000" stroke-opacity="0.25882" stroke-linecap="butt" stroke-linejoin="round" stroke-dasharray="6 3" stroke-dashoffset="0"/>
  <path d="M 50 206.92 L 1230 206.92" fill="none" stroke-width="0.5" stroke="#000000" stroke-opacity="0.25882" stroke-linecap="butt" stroke-linejoin="round" stroke-dasharray="6 3" stroke-dashoffset="0"/>
  <path d="M 50 180.91 L 1230 180.91" fill="none" stroke-width="0.5" stroke="#000000" stroke-opacity="0.25882" stroke-linecap="butt" stroke-linejoin="round" stroke-dasharray="6 3" stroke-dashoffset="0"/>
  <path d="M 50 154.9 L 1230 154.9" fill="none" stroke-width="0.5" stroke="#000000" stroke-opacity="0.25882" stroke-linecap="butt" stroke-linejoin="round" stroke-dasharray="6 3" stroke-dashoffset="0"/>
  <path d="M 50 128.89 L 1230 128.89" fill="none" stroke-width="0.5" stroke="#000000" stroke-opacity="0.25882" stroke-linecap="butt" stroke-linejoin="round" stroke-dasharray="6 3" stroke-dashoffset="0"/>
  <path d="M 50 102.88 L 1230 102.88" fill="none" stroke-width="0.5" stroke="#000000" stroke-opacity="0.25882" stroke-linecap="butt" stroke-linejoin="round" stroke-dasharray="6 3" stroke-dashoffset="0"/>
  <path d="M 50 76.874 L 1230 76.874" fill="none" stroke-width="0.5" stroke="#000000" stroke-opacity="0.25882" stroke-linecap="butt" stroke-linejoin="round" stroke-dasharray="6 3" stroke-dashoffset="0"/>
  <path d="M 50 50.865 L 1230 50.865" fill="none" stroke-width="0.5" stroke="#000000" stroke-opacity="0.25882" stroke-linecap="butt" stroke-linejoin="round" stroke-dasharray="6 3" stroke-dashoffset="0"/>
  <path d="M 50 24.856 L 1230 24.856" fill="none" stroke-width="0.5" stroke="#000000" stroke-opacity="0.25882" stroke-linecap="butt" stroke-linejoin="round" stroke-dasharray="6 3" stroke-dashoffset="0"/>
  <path d="M 74 33 L 74 88 L 348 88 L 348 33 z" fill="#FFFFFF" fill-opacity="1.0" stroke="none"/>
  <clipPath id="clip-0">
    <path d="M 50 9 L 50 441 L 1230 441 L 1230 9 z"/>
  </clipPath>
  <g clip-path="url(#clip-0)">
    <path d="M 50 300.75L 115.56 301.2L 153.9 301.05L 181.11 285.84L 202.22 288.38L 219.46 295.22L 234.04 284.04L 246.67 285.84L 267.77 275.06L 285.01 283.79L 299.59 275.03L 312.22 276.22L 333.33 268.2L 350.57 262.54L 365.15 259.83L 377.78 259.83L 398.88 260.14L 416.13 254.94L 430.7 256.83L 443.33 251.93L 464.44 250.83L 481.68 247.59L 496.26 248.12L 508.89 247.31L 529.99 242.93L 547.24 243.42L 561.82 238.89L 574.44 238.47L 595.55 238.72L 612.79 237.96L 627.37 235.12L 640 235.02L 661.1 234.14L 678.35 232.97L 692.93 232.16L 705.56 231.15L 726.66 229.93L 743.9 227.72L 758.48 228.25L 771.11 226.95L 792.22 225.8L 809.46 223.82L 824.04 222.54L 836.67 222.45L 857.77 220.67L 875.01 219.47L 889.59 218.27L 902.22 216.55L 923.33 215.88L 940.57 215.35L 955.15 214.22L 967.78 212.77L 988.88 212.16L 1006.1 211.14L 1020.7 210.5L 1033.3 209.84L 1054.4 208.9L 1054.4 208.9L 1033.3 209.84L 1020.7 210.5L 1006.1 211.14L 988.88 212.16L 967.78 212.77L 955.15 214.22L 940.57 215.35L 923.33 215.88L 902.22 216.55L 889.59 218.27L 875.01 219.47L 857.77 220.67L 836.67 222.45L 824.04 222.54L 809.46 223.82L 792.22 225.8L 771.11 226.95L 758.48 228.25L 743.9 227.72L 726.66 229.93L 705.56 231.15L 692.93 232.16L 678.35 232.97L 661.1 234.14L 640 235.02L 627.37 235.12L 612.79 237.96L 595.55 238.72L 574.44 238.47L 561.82 238.89L 547.24 243.42L 529.99 242.93L 508.89 247.31L 496.26 248.12L 481.68 247.59L 464.44 250.83L 443.33 251.93L 430.7 256.83L 416.13 254.94L 398.88 260.14L 377.78 259.83L 365.15 259.83L 350.57 262.54L 333.33 268.2L 312.22 276.22L 299.59 275.03L 285.01 283.79L 267.77 275.06L 246.67 285.84L 234.04 284.04L 219.46 295.22L 202.22 288.38L 181.11 285.84L 153.9 301.05L 115.56 301.2L 50 300.75" fill="#007AFF" fill-opacity="0.30196078431372547" stroke="none"/>
    <path d="M 50 301.66L 115.56 325.95L 153.9 341.17L 181.11 352.77L 202.22 360.33L 219.46 367.98L 234.04 372.96L 246.67 378.78L 267.77 347.61L 285.01 393.99L 299.59 359.95L 312.22 379.23L 333.33 372.24L 350.57 379.08L 365.15 384.86L 377.78 379L 398.88 361.99L 416.13 368.83L 430.7 369.82L 443.33 371L 464.44 369.46L 481.68 368.52L 496.26 362.44L 508.89 363.93L 529.99 365.09L 547.24 357.32L 561.82 354.51L 574.44 344.17L 595.55 341.95L 612.79 341.69L 627.37 336.57L 640 332.58L 661.1 322.22L 678.35 317.65L 692.93 317.32L 705.56 308.13L 726.66 299.93L 743.9 295.11L 758.48 290.75L 771.11 285.97L 792.22 278.3L 809.46 273.62L 824.04 266.65L 836.67 262.15L 857.77 255.19L 875.01 248.05L 889.59 241.05L 902.22 237.47L 923.33 228.25L 940.57 221.08L 955.15 215.63L 967.78 210.85L 988.88 200.3L 1006.1 193.62L 1020.7 185.69L 1033.3 180.06L 1054.4 170.4L 1071.7 161.33L 1086.3 155.29L 1098.9 149.49L 1120 140.89L 1137.2 133.7L 1151.8 126.29L 1164.4 121.42L 1185.5 112.42L 1202.8 106.4L 1217.4 99.879L 1230 94.638L 1230 95.343L 1217.4 100.71L 1202.8 106.72L 1185.5 113.74L 1164.4 122.4L 1151.8 127.38L 1137.2 133.77L 1120 140.99L 1098.9 150.27L 1086.3 155.65L 1071.7 162.36L 1054.4 170.46L 1033.3 180.53L 1020.7 187.08L 1006.1 194.3L 988.88 202.41L 967.78 211.78L 955.15 216.6L 940.57 222.49L 923.33 228.96L 902.22 238.23L 889.59 242.73L 875.01 248.84L 857.77 256.01L 836.67 262.9L 824.04 269.14L 809.46 273.76L 792.22 281.83L 771.11 290.03L 758.48 293.56L 743.9 297.84L 726.66 306.26L 705.56 313.59L 692.93 317.69L 678.35 322.12L 661.1 327.06L 640 332.58L 627.37 337.41L 612.79 341.69L 595.55 345.46L 574.44 354.25L 561.82 355.84L 547.24 360.86L 529.99 365.15L 508.89 367.16L 496.26 369.65L 481.68 373.25L 464.44 375.53L 443.33 379.11L 430.7 379.16L 416.13 379.08L 398.88 372.24L 377.78 379L 365.15 384.86L 350.57 379.08L 333.33 372.24L 312.22 379.23L 299.59 400.68L 285.01 393.99L 267.77 387.15L 246.67 378.78L 234.04 374.67L 219.46 367.98L 202.22 362.05L 181.11 352.77L 153.9 342.88L 115.56 327.66L 50 301.66" fill="#FF3B30" fill-opacity="0.30196078431372547" stroke="none"/>
    <path d="M 50 300.75L 115.56 301.2L 153.9 301.05L 181.11 285.84L 202.22 288.38L 219.46 295.22L 234.04 284.04L 246.67 285.84L 267.77 275.06L 285.01 283.79L 299.59 275.03L 312.22 276.22L 333.33 268.2L 350.57 262.54L 365.15 259.83L 377.78 259.83L 398.88 260.14L 416.13 254.94L 430.7 256.83L 443.33 251.93L 464.44 250.83L 481.68 247.59L 496.26 248.12L 508.89 247.31L 529.99 242.93L 547.24 243.42L 561.82 238.89L 574.44 238.47L 595.55 238.72L 612.79 237.96L 627.37 235.12L 640 235.02L 661.1 234.14L 678.35 232.97L 692.93 232.16L 705.56 231.15L 726.66 229.93L 743.9 227.72L 758.48 228.25L 771.11 226.95L 792.22 225.8L 809.46 223.82L 824.04 222.54L 836.67 222.45L 857.77 220.67L 875.01 219.47L 889.59 218.27L 902.22 216.55L 923.33 215.88L 940.57 215.35L 955.15 214.22L 967.78 212.77L 988.88 212.16L 1006.1 211.14L 1020.7 210.5L 1033.3 209.84L 1054.4 208.9" fill="none" stroke-width="4" stroke="#007AFF" stroke-opacity="1" stroke-linecap="round" stroke-linejoin="round"/>
    <path d="M 50 301.66L 115.56 327.21L 153.9 342.42L 181.11 352.77L 202.22 361.59L 219.46 367.98L 234.04 374.22L 246.67 378.78L 267.77 372.24L 285.01 393.99L 299.59 385.16L 312.22 379.23L 333.33 372.24L 350.57 379.08L 365.15 384.86L 377.78 379L 398.88 369.28L 416.13 376.12L 430.7 376.49L 443.33 376.82L 464.44 373.85L 481.68 371.96L 496.26 367.63L 508.89 366.28L 529.99 365.13L 547.24 359.9L 561.82 355.49L 574.44 351.34L 595.55 344.51L 612.79 341.69L 627.37 337.19L 640 332.58L 661.1 325.73L 678.35 320.9L 692.93 317.6L 705.56 312.09L 726.66 304.5L 743.9 297.11L 758.48 292.8L 771.11 288.93L 792.22 280.87L 809.46 273.72L 824.04 268.47L 836.67 262.71L 857.77 255.8L 875.01 248.63L 889.59 242.28L 902.22 238.03L 923.33 228.77L 940.57 222.12L 955.15 216.35L 967.78 211.54L 988.88 201.85L 1006.1 194.12L 1020.7 186.71L 1033.3 180.41L 1054.4 170.45L 1071.7 162.09L 1086.3 155.56L 1098.9 150.07L 1120 140.97L 1137.2 133.75L 1151.8 127.1L 1164.4 122.14L 1185.5 113.39L 1202.8 106.64L 1217.4 100.49L 1230 95.157" fill="none" stroke-width="4" stroke="#FF3B30" stroke-opacity="1" stroke-linecap="round" stroke-linejoin="round"/>
    <path d="M 50 300.75L 115.56 301.2L 153.9 301.05L 181.11 285.84L 202.22 288.38L 219.46 295.22L 234.04 284.04L 246.67 285.84L 267.77 275.06L 285.01 283.79L 299.59 275.03L 312.22 276.22L 333.33 268.2L 350.57 262.54L 365.15 259.83L 377.78 259.83L 398.88 260.14L 416.13 254.94L 430.7 256.83L 443.33 251.93L 464.44 250.83L 481.68 247.59L 496.26 248.12L 508.89 247.31L 529.99 242.93L 547.24 243.42L 561.82 238.89L 574.44 238.47L 595.55 238.72L 612.79 237.96L 627.37 235.12L 640 235.02L 661.1 234.14L 678.35 232.97L 692.93 232.16L 705.56 231.15L 726.66 229.93L 743.9 227.72L 758.48 228.25L 771.11 226.95L 792.22 225.8L 809.46 223.82L 824.04 222.54L 836.67 222.45L 857.77 220.67L 875.01 219.47L 889.59 218.27L 902.22 216.55L 923.33 215.88L 940.57 215.35L 955.15 214.22L 967.78 212.77L 988.88 212.16L 1006.1 211.14L 1020.7 210.5L 1033.3 209.84L 1054.4 208.9" fill="none" stroke-width="0.5" stroke="#000000" stroke-opacity="0.30196" stroke-linecap="round" stroke-linejoin="round"/>
    <path d="M 50 301.66L 115.56 327.21L 153.9 342.42L 181.11 352.77L 202.22 361.59L 219.46 367.98L 234.04 374.22L 246.67 378.78L 267.77 372.24L 285.01 393.99L 299.59 385.16L 312.22 379.23L 333.33 372.24L 350.57 379.08L 365.15 384.86L 377.78 379L 398.88 369.28L 416.13 376.12L 430.7 376.49L 443.33 376.82L 464.44 373.85L 481.68 371.96L 496.26 367.63L 508.89 366.28L 529.99 365.13L 547.24 359.9L 561.82 355.49L 574.44 351.34L 595.55 344.51L 612.79 341.69L 627.37 337.19L 640 332.58L 661.1 325.73L 678.35 320.9L 692.93 317.6L 705.56 312.09L 726.66 304.5L 743.9 297.11L 758.48 292.8L 771.11 288.93L 792.22 280.87L 809.46 273.72L 824.04 268.47L 836.67 262.71L 857.77 255.8L 875.01 248.63L 889.59 242.28L 902.22 238.03L 923.33 228.77L 940.57 222.12L 955.15 216.35L 967.78 211.54L 988.88 201.85L 1006.1 194.12L 1020.7 186.71L 1033.3 180.41L 1054.4 170.45L 1071.7 162.09L 1086.3 155.56L 1098.9 150.07L 1120 140.97L 1137.2 133.75L 1151.8 127.1L 1164.4 122.14L 1185.5 113.39L 1202.8 106.64L 1217.4 100.49L 1230 95.157" fill="none" stroke-width="0.5" stroke="#000000" stroke-opacity="0.30196" stroke-linecap="round" stroke-linejoin="round"/>
  </g>
  <path d="M 74 33 L 74 88 L 348 88 L 348 33 z" fill="#FFFFFF" fill-opacity="0.7019607843137254" stroke-width="0.5" stroke="#000000" stroke-opacity="1" stroke-linecap="round" stroke-linejoin="round"/>
  <path d="M 88 52 L 108 52" fill="none" stroke-width="4" stroke="#FF3B30" stroke-opacity="1" stroke-linecap="round" stroke-linejoin="round"/>
  <path d="M 88 52 L 108 52" fill="none" stroke-width="0.5" stroke="#000000" stroke-opacity="0.30196" stroke-linecap="round" stroke-linejoin="round"/>
  <text x="119" y="56.17" font-family="Menlo" font-size="12" font-weight="normal" font-style="normal" fill="#000000" fill-opacity="1">Array&lt;Int&gt; random removals</text>
  <path d="M 88 69 L 108 69" fill="none" stroke-width="4" stroke="#007AFF" stroke-opacity="1" stroke-linecap="round" stroke-linejoin="round"/>
  <path d="M 88 69 L 108 69" fill="none" stroke-width="0.5" stroke="#000000" stroke-opacity="0.30196" stroke-linecap="round" stroke-linejoin="round"/>
  <text x="119" y="73.17" font-family="Menlo" font-size="12" font-weight="normal" font-style="normal" fill="#000000" fill-opacity="1">TreeArray&lt;Int&gt; random removals</text>
  <path d="M 50 9 L 50 441 L 1230 441 L 1230 9 z" fill="none" stroke-width="0.5" stroke="#000000" stroke-opacity="1" stroke-linecap="round" stroke-linejoin="round"/>
</svg>
