<!DOCTYPE svg PUBLIC "-//W3C//DTD SVG 1.1//EN" "http://www.w3.org/Graphics/SVG/1.1/DTD/svg11.dtd">
<svg width="1280.0px" height="480.0px" viewBox="0.0 0.0 1280.0 480.0" xmlns="http://www.w3.org/2000/svg" xmlns:xlink="http://www.w3.org/1999/xlink" version="1.1">
  <path d="M 0 0 L 0 480 L 1280 480 L 1280 0 z" fill="#FFFFFF" fill-opacity="1.0" stroke="none"/>
  <text x="50" y="468.7" font-family="Helvetica" font-size="10" font-weight="normal" font-style="normal" fill="#000000" fill-opacity="1">Average per-element processing time over input size (bands: min, mean, mean + 2stddev)</text>
  <a xlink:href="https://github.com/apple/swift-collections-benchmark"><text x="1107" y="468.7" font-family="Helvetica" font-size="10" font-weight="normal" font-style="normal" fill="#000000" fill-opacity="1">swift-collections-benchmark</text></a>
  <path d="M 50 9 L 50 441" fill="none" stroke-width="0.75" stroke="#000000" stroke-opacity="0.49804" stroke-linecap="butt" stroke-linejoin="round"/>
  <text x="47" y="453.7" font-family="Helvetica" font-size="10" font-weight="normal" font-style="normal" fill="#000000" fill-opacity="1">1</text>
  <path d="M 109 9 L 109 441" fill="none" stroke-width="0.75" stroke="#000000" stroke-opacity="0.49804" stroke-linecap="butt" stroke-linejoin="round"/>
  <text x="106" y="453.7" font-family="Helvetica" font-size="10" font-weight="normal" font-style="normal" fill="#000000" fill-opacity="1">2</text>
  <path d="M 168 9 L 168 441" fill="none" stroke-width="0.75" stroke="#000000" stroke-opacity="0.49804" stroke-linecap="butt" stroke-linejoin="round"/>
  <text x="165" y="453.7" font-family="Helvetica" font-size="10" font-weight="normal" font-style="normal" fill="#000000" fill-opacity="1">4</text>
  <path d="M 227 9 L 227 441" fill="none" stroke-width="0.75" stroke="#000000" stroke-opacity="0.49804" stroke-linecap="butt" stroke-linejoin="round"/>
  <text x="224" y="453.7" font-family="Helvetica" font-size="10" font-weight="normal" font-style="normal" fill="#000000" fill-opacity="1">8</text>
  <path d="M 286 9 L 286 441" fill="none" stroke-width="0.75" stroke="#000000" stroke-opacity="0.49804" stroke-linecap="butt" stroke-linejoin="round"/>
  <text x="280" y="453.7" font-family="Helvetica" font-size="10" font-weight="normal" font-style="normal" fill="#000000" fill-opacity="1">16</text>
  <path d="M 345 9 L 345 441" fill="none" stroke-width="0.75" stroke="#000000" stroke-opacity="0.49804" stroke-linecap="butt" stroke-linejoin="round"/>
  <text x="339" y="453.7" font-family="Helvetica" font-size="10" font-weight="normal" font-style="normal" fill="#000000" fill-opacity="1">32</text>
  <path d="M 404 9 L 404 441" fill="none" stroke-width="0.75" stroke="#000000" stroke-opacity="0.49804" stroke-linecap="butt" stroke-linejoin="round"/>
  <text x="398" y="453.7" font-family="Helvetica" font-size="10" font-weight="normal" font-style="normal" fill="#000000" fill-opacity="1">64</text>
  <path d="M 463 9 L 463 441" fill="none" stroke-width="0.75" stroke="#000000" stroke-opacity="0.49804" stroke-linecap="butt" stroke-linejoin="round"/>
  <text x="454.5" y="453.7" font-family="Helvetica" font-size="10" font-weight="normal" font-style="normal" fill="#000000" fill-opacity="1">128</text>
  <path d="M 522 9 L 522 441" fill="none" stroke-width="0.75" stroke="#000000" stroke-opacity="0.49804" stroke-linecap="butt" stroke-linejoin="round"/>
  <text x="513.5" y="453.7" font-family="Helvetica" font-size="10" font-weight="normal" font-style="normal" fill="#000000" fill-opacity="1">256</text>
  <path d="M 581 9 L 581 441" fill="none" stroke-width="0.75" stroke="#000000" stroke-opacity="0.49804" stroke-linecap="butt" stroke-linejoin="round"/>
  <text x="572.5" y="453.7" font-family="Helvetica" font-size="10" font-weight="normal" font-style="normal" fill="#000000" fill-opacity="1">512</text>
  <path d="M 640 9 L 640 441" fill="none" stroke-width="0.75" stroke="#000000" stroke-opacity="0.49804" stroke-linecap="butt" stroke-linejoin="round"/>
  <text x="634.5" y="453.7" font-family="Helvetica" font-size="10" font-weight="normal" font-style="normal" fill="#000000" fill-opacity="1">1k</text>
  <path d="M 699 9 L 699 441" fill="none" stroke-width="0.75" stroke="#000000" stroke-opacity="0.49804" stroke-linecap="butt" stroke-linejoin="round"/>
  <text x="693.5" y="453.7" font-family="Helvetica" font-size="10" font-weight="normal" font-style="normal" fill="#000000" fill-opacity="1">2k</text>
  <path d="M 758 9 L 758 441" fill="none" stroke-width="0.75" stroke="#000000" stroke-opacity="0.49804" stroke-linecap="butt" stroke-linejoin="round"/>
  <text x="752.5" y="453.7" font-family="Helvetica" font-size="10" font-weight="normal" font-style="normal" fill="#000000" fill-opacity="1">4k</text>
  <path d="M 817 9 L 817 441" fill="none" stroke-width="0.75" stroke="#000000" stroke-opacity="0.49804" stroke-linecap="butt" stroke-linejoin="round"/>
  <text x="811.5" y="453.7" font-family="Helvetica" font-size="10" font-weight="normal" font-style="normal" fill="#000000" fill-opacity="1">8k</text>
  <path d="M 876 9 L 876 441" fill="none" stroke-width="0.75" stroke="#000000" stroke-opacity="0.49804" stroke-linecap="butt" stroke-linejoin="round"/>
  <text x="867.5" y="453.7" font-family="Helvetica" font-size="10" font-weight="normal" font-style="normal" fill="#000000" fill-opacity="1">16k</text>
  <path d="M 935 9 L 935 441" fill="none" stroke-width="0.75" stroke="#000000" stroke-opacity="0.49804" stroke-linecap="butt" stroke-linejoin="round"/>
  <text x="926.5" y="453.7" font-family="Helvetica" font-size="10" font-weight="normal" font-style="normal" fill="#000000" fill-opacity="1">32k</text>
  <path d="M 994 9 L 994 441" fill="none" stroke-width="0.75" stroke="#000000" stroke-opacity="0.49804" stroke-linecap="butt" stroke-linejoin="round"/>
  <text x="985.5" y="453.7" font-family="Helvetica" font-size="10" font-weight="normal" font-style="normal" fill="#000000" fill-opacity="1">64k</text>
  <path d="M 1053 9 L 1053 441" fill="none" stroke-width="0.75" stroke="#000000" stroke-opacity="0.49804" stroke-linecap="butt" stroke-linejoin="round"/>
  <text x="1042" y="453.7" font-family="Helvetica" font-size="10" font-weight="normal" font-style="normal" fill="#000000" fill-opacity="1">128k</text>
  <path d="M 1112 9 L 1112 441" fill="none" stroke-width="0.75" stroke="#000000" stroke-opacity="0.49804" stroke-linecap="butt" stroke-linejoin="round"/>
  <text x="1101" y="453.7" font-family="Helvetica" font-size="10" font-weight="normal" font-style="normal" fill="#000000" fill-opacity="1">256k</text>
  <path d="M 1171 9 L 1171 441" fill="none" stroke-width="0.75" stroke="#000000" stroke-opacity="0.49804" stroke-linecap="butt" stroke-linejoin="round"/>
  <text x="1160" y="453.7" font-family="Helvetica" font-size="10" font-weight="normal" font-style="normal" fill="#000000" fill-opacity="1">512k</text>
  <path d="M 1230 9 L 1230 441" fill="none" stroke-width="0.75" stroke="#000000" stroke-opacity="0.49804" stroke-linecap="butt" stroke-linejoin="round"/>
  <text x="1223" y="453.7" font-family="Helvetica" font-size="10" font-weight="normal" font-style="normal" fill="#000000" fill-opacity="1">1M</text>
  <path d="M 50 441 L 1230 441" fill="none" stroke-width="0.75" stroke="#000000" stroke-opacity="0.49804" stroke-linecap="butt" stroke-linejoin="round"/>
  <text x="27" y="442.7" font-family="Helvetica" font-size="10" font-weight="normal" font-style="normal" fill="#000000" fill-opacity="1">1 ns</text>
  <text x="1236" y="442.7" font-family="Helvetica" font-size="10" font-weight="normal" font-style="normal" fill="#000000" fill-opacity="1">1 ns</text>
  <path d="M 50 354.6 L 1230 354.6" fill="none" stroke-width="0.75" stroke="#000000" stroke-opacity="0.49804" stroke-linecap="butt" stroke-linejoin="round"/>
  <text x="21" y="356.3" font-family="Helvetica" font-size="10" font-weight="normal" font-style="normal" fill="#000000" fill-opacity="1">10 ns</text>
  <text x="1236" y="356.3" font-family="Helvetica" font-size="10" font-weight="normal" font-style="normal" fill="#000000" fill-opacity="1">10 ns</text>
  <path d="M 50 268.2 L 1230 268.2" fill="none" stroke-width="0.75" stroke="#000000" stroke-opacity="0.49804" stroke-linecap="butt" stroke-linejoin="round"/>
  <text x="16" y="269.9" font-family="Helvetica" font-size="10" font-weight="normal" font-style="normal" fill="#000000" fill-opacity="1">100 ns</text>
  <text x="1236" y="269.9" font-family="Helvetica" font-size="10" font-weight="normal" font-style="normal" fill="#000000" fill-opacity="1">100 ns</text>
  <path d="M 50 181.8 L 1230 181.8" fill="none" stroke-width="0.75" stroke="#000000" stroke-opacity="0.49804" stroke-linecap="butt" stroke-linejoin="round"/>
  <text x="26" y="183.5" font-family="Helvetica" font-size="10" font-weight="normal" font-style="normal" fill="#000000" fill-opacity="1">1 µs</text>
  <text x="1236" y="183.5" font-family="Helvetica" font-size="10" font-weight="normal" font-style="normal" fill="#000000" fill-opacity="1">1 µs</text>
  <path d="M 50 95.4 L 1230 95.4" fill="none" stroke-width="0.75" stroke="#000000" stroke-opacity="0.49804" stroke-linecap="butt" stroke-linejoin="round"/>
  <text x="21" y="97.1" font-family="Helvetica" font-size="10" font-weight="normal" font-style="normal" fill="#000000" fill-opacity="1">10 µs</text>
  <text x="1236" y="97.1" font-family="Helvetica" font-size="10" font-weight="normal" font-style="normal" fill="#000000" fill-opacity="1">10 µs</text>
  <path d="M 50 9 L 1230 9" fill="none" stroke-width="0.75" stroke="#000000" stroke-opacity="0.49804" stroke-linecap="butt" stroke-linejoin="round"/>
  <text x="15" y="10.7" font-family="Helvetica" font-size="10" font-weight="normal" font-style="normal" fill="#000000" fill-opacity="1">100 µs</text>
  <text x="1236" y="10.7" font-family="Helvetica" font-size="10" font-weight="normal" font-style="normal" fill="#000000" fill-opacity="1">100 µs</text>
  <path d="M 50 414.99 L 1230 414.99" fill="none" stroke-width="0.5" stroke="#000000" stroke-opacity="0.25882" stroke-linecap="butt" stroke-linejoin="round" stroke-dasharray="6 3" stroke-dashoffset="0"/>
  <path d="M 50 388.98 L 1230 388.98" fill="none" stroke-width="0.5" stroke="#000000" stroke-opacity="0.25882" stroke-linecap="butt" stroke-linejoin="round" stroke-dasharray="6 3" stroke-dashoffset="0"/>
  <path d="M 50 362.97 L 1230 362.97" fill="none" stroke-width="0.5" stroke="#000000" stroke-opacity="0.25882" stroke-linecap="butt" stroke-linejoin="round" stroke-dasharray="6 3" stroke-dashoffset="0"/>
  <path d="M 50 336.96 L 1230 336.96" fill="none" stroke-width="0.5" stroke="#000000" stroke-opacity="0.25882" stroke-linecap="butt" stroke-linejoin="round" stroke-dasharray="6 3" stroke-dashoffset="0"/>
  <path d="M 50 310.96 L 1230 310.96" fill="none" stroke-width="0.5" stroke="#000000" stroke-opacity="0.25882" stroke-linecap="butt" stroke-linejoin="round" stroke-dasharray="6 3" stroke-dashoffset="0"/>
  <path d="M 50 284.95 L 1230 284.95" fill="none" stroke-width="0.5" stroke="#000000" stroke-opacity="0.25882" stroke-linecap="butt" stroke-linejoin="round" stroke-dasharray="6 3" stroke-dashoffset="0"/>
  <path d="M 50 258.94 L 1230 258.94" fill="none" stroke-width="0.5" stroke="#000000" stroke-opacity="0.25882" stroke-linecap="butt" stroke-linejoin="round" stroke-dasharray="6 3" stroke-dashoffset="0"/>
  <path d="M 50 232.93 L 1230 232.93" fill="none" stroke-width="0.5" stroke="#000000" stroke-opacity="0.25882" stroke-linecap="butt" stroke-linejoin="round" stroke-dasharray="6 3" stroke-dashoffset="0"/>
  <path d="M 50 206.92 L 1230 206.92" fill="none" stroke-width="0.5" stroke="#000000" stroke-opacity="0.25882" stroke-linecap="butt" stroke-linejoin="round" stroke-dasharray="6 3" stroke-dashoffset="0"/>
  <path d="M 50 180.91 L 1230 180.91" fill="none" stroke-width="0.5" stroke="#000000" stroke-opacity="0.25882" stroke-linecap="butt" stroke-linejoin="round" stroke-dasharray="6 3" stroke-dashoffset="0"/>
  <path d="M 50 154.9 L 1230 154.9" fill="none" stroke-width="0.5" stroke="#000000" stroke-opacity="0.25882" stroke-linecap="butt" stroke-linejoin="round" stroke-dasharray="6 3" stroke-dashoffset="0"/>
  <path d="M 50 128.89 L 1230 128.89" fill="none" stroke-width="0.5" stroke="#000000" stroke-opacity="0.25882" stroke-linecap="butt" stroke-linejoin="round" stroke-dasharray="6 3" stroke-dashoffset="0"/>
  <path d="M 50 102.88 L 1230 102.88" fill="none" stroke-width="0.5" stroke="#000000" stroke-opacity="0.25882" stroke-linecap="butt" stroke-linejoin="round" stroke-dasharray="6 3" stroke-dashoffset="0"/>
  <path d="M 50 76.874 L 1230 76.874" fill="none" stroke-width="0.5" stroke="#000000" stroke-opacity="0.25882" stroke-linecap="butt" stroke-linejoin="round" stroke-dasharray="6 3" stroke-dashoffset="0"/>
  <path d="M 50 50.865 L 1230 50.865" fill="none" stroke-width="0.5" stroke="#000000" stroke-opacity="0.25882" stroke-linecap="butt" stroke-linejoin="round" stroke-dasharray="6 3" stroke-dashoffset="0"/>
  <path d="M 50 24.856 L 1230 24.856" fill="none" stroke-width="0.5" stroke="#000000" stroke-opacity="0.25882" stroke-linecap="butt" stroke-linejoin="round" stroke-dasharray="6 3" stroke-dashoffset="0"/>
  <path d="M 74 33 L 74 88 L 348 88 L 348 33 z" fill="#FFFFFF" fill-opacity="1.0" stroke="none"/>
  <clipPath id="clip-0">
    <path d="M 50 9 L 50 441 L 1230 441 L 1230 9 z"/>
  </clipPath>
  <g clip-path="url(#clip-0)">
    <path d="M 50 301.66L 109 275.78L 143.51 281.6L 168 270.98L 186.99 278.99L 202.51 269.45L 215.63 265.84L 227 261.86L 245.99 260.15L 261.51 261.17L 274.63 262.61L 286 259.98L 304.99 255.85L 320.51 256.88L 333.63 250.72L 345 250.16L 363.99 248.69L 379.51 250.89L 392.63 248.63L 404 243.32L 422.99 243.42L 438.51 244L 451.63 241.89L 463 241.76L 481.99 239.53L 497.51 238.62L 510.63 236.55L 522 236.83L 540.99 235.77L 556.51 233.04L 569.63 234.21L 581 232.24L 599.99 225.98L 615.51 230.39L 628.63 229.09L 640 228.12L 658.99 227.28L 674.51 225.88L 687.63 226.36L 699 224.92L 717.99 221.99L 733.51 220.01L 746.63 221.43L 758 221.1L 776.99 218.28L 792.51 217.39L 805.63 216.74L 817 217.08L 835.99 215.24L 851.51 213.46L 864.63 213.87L 876 212.47L 894.99 210.73L 910.51 211.21L 923.63 210.32L 935 209.87L 953.99 208.94L 969.51 207.3L 982.63 206.96L 994 205.92L 1013 205.38L 1028.5 204.41L 1041.6 202.89L 1053 202.89L 1072 201.45L 1087.5 199.8L 1100.6 197.02L 1112 196.86L 1131 194.4L 1146.5 192.54L 1159.6 189.39L 1171 186.54L 1190 183.36L 1205.5 180.07L 1218.6 175.61L 1230 178.68L 1230 182.99L 1218.6 185.33L 1205.5 186.53L 1190 186.52L 1171 190.01L 1159.6 191.4L 1146.5 192.95L 1131 196.07L 1112 198.71L 1100.6 199.46L 1087.5 200.97L 1072 201.8L 1053 203.17L 1041.6 203.68L 1028.5 204.57L 1013 205.39L 994 206.38L 982.63 207.33L 969.51 207.88L 953.99 209.4L 935 209.87L 923.63 210.47L 910.51 211.42L 894.99 212.34L 876 213.3L 864.63 214.33L 851.51 214.6L 835.99 215.4L 817 217.91L 805.63 218.1L 792.51 218.38L 776.99 219.97L 758 221.53L 746.63 222.42L 733.51 223.93L 717.99 224.82L 699 225.47L 687.63 226.46L 674.51 227.27L 658.99 228.59L 640 229.1L 628.63 229.57L 615.51 230.82L 599.99 232.4L 581 232.46L 569.63 234.48L 556.51 235.18L 540.99 235.89L 522 238.38L 510.63 238.26L 497.51 238.83L 481.99 240.15L 463 242.46L 451.63 245.21L 438.51 245.67L 422.99 244.41L 404 249.03L 392.63 250.92L 379.51 252.08L 363.99 251.96L 345 255.76L 333.63 258.95L 320.51 257.79L 304.99 259.2L 286 263.1L 274.63 262.61L 261.51 267.95L 245.99 268.2L 227 272.78L 215.63 270.01L 202.51 275.04L 186.99 278.99L 168 280.14L 143.51 281.94L 109 301.2L 50 301.66" fill="#007AFF" fill-opacity="0.30196078431372547" stroke="none"/>
    <path d="M 50 300.75L 109 326.76L 143.51 341.97L 168 352.77L 186.99 360.33L 202.51 367.18L 215.63 374.67L 227 377.97L 245.99 386.34L 261.51 394.9L 274.63 374.22L 286 379.23L 304.99 362.18L 320.51 379.08L 333.63 384.86L 345 378.8L 363.99 366.99L 379.51 368.61L 392.63 370.1L 404 367.53L 422.99 355.71L 438.51 368.47L 451.63 364.17L 463 364.03L 481.99 361.52L 497.51 354.94L 510.63 355.98L 522 350.27L 540.99 342.69L 556.51 337.75L 569.63 329.43L 581 326.88L 599.99 320.76L 615.51 320L 628.63 309.19L 640 306.97L 658.99 304.2L 674.51 294.23L 687.63 291.12L 699 286.53L 717.99 280.09L 733.51 274.18L 746.63 266.88L 758 263.65L 776.99 255.09L 792.51 247.93L 805.63 242.32L 817 237.72L 835.99 227.52L 851.51 221.71L 864.63 214.92L 876 210.46L 894.99 202.46L 910.51 194.2L 923.63 186.73L 935 180.65L 953.99 170.38L 969.51 162.17L 982.63 155.25L 994 149.62L 1013 140.05L 1028.5 133.64L 1041.6 127.43L 1053 121.64L 1072 113.61L 1087.5 106.18L 1100.6 99.443L 1112 94.649L 1131 87.025L 1131 87.025L 1112 95.765L 1100.6 100.94L 1087.5 106.51L 1072 113.72L 1053 122.44L 1041.6 127.52L 1028.5 133.83L 1013 140.96L 994 150.13L 982.63 155.56L 969.51 162.31L 953.99 170.44L 935 180.74L 923.63 186.89L 910.51 194.35L 894.99 202.52L 876 211.48L 864.63 216.72L 851.51 222.48L 835.99 229.64L 817 237.85L 805.63 242.6L 792.51 248.48L 776.99 256.48L 758 264.27L 746.63 269.25L 733.51 274.23L 717.99 280.9L 699 288.36L 687.63 293.4L 674.51 300.59L 658.99 306.47L 640 313.8L 628.63 316.41L 615.51 322.9L 599.99 326.71L 581 333.26L 569.63 336.97L 556.51 341.41L 540.99 347.01L 522 351.36L 510.63 358.85L 497.51 361.84L 481.99 363.86L 463 367.11L 451.63 371.76L 438.51 373.31L 422.99 375.45L 404 374.66L 392.63 379.03L 379.51 379.08L 363.99 378.96L 345 379.23L 333.63 384.86L 320.51 379.08L 304.99 387.6L 286 379.23L 274.63 374.22L 261.51 394.9L 245.99 388.06L 227 379.68L 215.63 374.67L 202.51 368.89L 186.99 362.05L 168 352.77L 143.51 341.97L 109 326.76L 50 300.75" fill="#FF3B30" fill-opacity="0.30196078431372547" stroke="none"/>
    <path d="M 50 301.66L 109 292.74L 143.51 281.85L 168 277.52L 186.99 278.99L 202.51 273.5L 215.63 268.88L 227 269.61L 245.99 265.93L 261.51 266.06L 274.63 262.61L 286 262.26L 304.99 258.3L 320.51 257.55L 333.63 256.62L 345 254.21L 363.99 251.08L 379.51 251.77L 392.63 250.31L 404 247.46L 422.99 244.15L 438.51 245.23L 451.63 244.32L 463 242.28L 481.99 239.99L 497.51 238.77L 510.63 237.81L 522 237.97L 540.99 235.86L 556.51 234.61L 569.63 234.41L 581 232.4L 599.99 230.61L 615.51 230.71L 628.63 229.44L 640 228.84L 658.99 228.25L 674.51 226.9L 687.63 226.43L 699 225.33L 717.99 224.06L 733.51 222.86L 746.63 222.16L 758 221.42L 776.99 219.52L 792.51 218.12L 805.63 217.74L 817 217.69L 835.99 215.36L 851.51 214.3L 864.63 214.21L 876 213.08L 894.99 211.91L 910.51 211.36L 923.63 210.43L 935 209.87L 953.99 209.28L 969.51 207.73L 982.63 207.24L 994 206.26L 1013 205.39L 1028.5 204.53L 1041.6 203.47L 1053 203.1L 1072 201.71L 1087.5 200.66L 1100.6 198.8L 1112 198.21L 1131 195.63L 1146.5 192.84L 1159.6 190.87L 1171 189.07L 1190 185.67L 1205.5 184.73L 1218.6 182.54L 1230 181.81" fill="none" stroke-width="4" stroke="#007AFF" stroke-opacity="1" stroke-linecap="round" stroke-linejoin="round"/>
    <path d="M 50 300.75L 109 326.76L 143.51 341.97L 168 352.77L 186.99 361.59L 202.51 368.43L 215.63 374.67L 227 379.23L 245.99 387.6L 261.51 394.9L 274.63 374.22L 286 379.23L 304.99 379.14L 320.51 379.08L 333.63 384.86L 345 379.11L 363.99 375.45L 379.51 376.05L 392.63 376.49L 404 372.66L 422.99 369.21L 438.51 371.99L 451.63 369.62L 463 366.28L 481.99 363.24L 497.51 359.91L 510.63 358.08L 522 351.07L 540.99 345.84L 556.51 340.42L 569.63 334.85L 581 331.49L 599.99 325.06L 615.51 322.12L 628.63 314.39L 640 311.89L 658.99 305.86L 674.51 298.82L 687.63 292.79L 699 287.88L 717.99 280.69L 733.51 274.21L 746.63 268.61L 758 264.11L 776.99 256.12L 792.51 248.34L 805.63 242.53L 817 237.82L 835.99 229.07L 851.51 222.27L 864.63 216.24L 876 211.21L 894.99 202.5L 910.51 194.31L 923.63 186.85L 935 180.71L 953.99 170.42L 969.51 162.27L 982.63 155.48L 994 150L 1013 140.72L 1028.5 133.78L 1041.6 127.5L 1053 122.23L 1072 113.69L 1087.5 106.42L 1100.6 100.54L 1112 95.47L 1131 87.025" fill="none" stroke-width="4" stroke="#FF3B30" stroke-opacity="1" stroke-linecap="round" stroke-linejoin="round"/>
    <path d="M 50 301.66L 109 292.74L 143.51 281.85L 168 277.52L 186.99 278.99L 202.51 273.5L 215.63 268.88L 227 269.61L 245.99 265.93L 261.51 266.06L 274.63 262.61L 286 262.26L 304.99 258.3L 320.51 257.55L 333.63 256.62L 345 254.21L 363.99 251.08L 379.51 251.77L 392.63 250.31L 404 247.46L 422.99 244.15L 438.51 245.23L 451.63 244.32L 463 242.28L 481.99 239.99L 497.51 238.77L 510.63 237.81L 522 237.97L 540.99 235.86L 556.51 234.61L 569.63 234.41L 581 232.4L 599.99 230.61L 615.51 230.71L 628.63 229.44L 640 228.84L 658.99 228.25L 674.51 226.9L 687.63 226.43L 699 225.33L 717.99 224.06L 733.51 222.86L 746.63 222.16L 758 221.42L 776.99 219.52L 792.51 218.12L 805.63 217.74L 817 217.69L 835.99 215.36L 851.51 214.3L 864.63 214.21L 876 213.08L 894.99 211.91L 910.51 211.36L 923.63 210.43L 935 209.87L 953.99 209.28L 969.51 207.73L 982.63 207.24L 994 206.26L 1013 205.39L 1028.5 204.53L 1041.6 203.47L 1053 203.1L 1072 201.71L 1087.5 200.66L 1100.6 198.8L 1112 198.21L 1131 195.63L 1146.5 192.84L 1159.6 190.87L 1171 189.07L 1190 185.67L 1205.5 184.73L 1218.6 182.54L 1230 181.81" fill="none" stroke-width="0.5" stroke="#000000" stroke-opacity="0.30196" stroke-linecap="round" stroke-linejoin="round"/>
    <path d="M 50 300.75L 109 326.76L 143.51 341.97L 168 352.77L 186.99 361.59L 202.51 368.43L 215.63 374.67L 227 379.23L 245.99 387.6L 261.51 394.9L 274.63 374.22L 286 379.23L 304.99 379.14L 320.51 379.08L 333.63 384.86L 345 379.11L 363.99 375.45L 379.51 376.05L 392.63 376.49L 404 372.66L 422.99 369.21L 438.51 371.99L 451.63 369.62L 463 366.28L 481.99 363.24L 497.51 359.91L 510.63 358.08L 522 351.07L 540.99 345.84L 556.51 340.42L 569.63 334.85L 581 331.49L 599.99 325.06L 615.51 322.12L 628.63 314.39L 640 311.89L 658.99 305.86L 674.51 298.82L 687.63 292.79L 699 287.88L 717.99 280.69L 733.51 274.21L 746.63 268.61L 758 264.11L 776.99 256.12L 792.51 248.34L 805.63 242.53L 817 237.82L 835.99 229.07L 851.51 222.27L 864.63 216.24L 876 211.21L 894.99 202.5L 910.51 194.31L 923.63 186.85L 935 180.71L 953.99 170.42L 969.51 162.27L 982.63 155.48L 994 150L 1013 140.72L 1028.5 133.78L 1041.6 127.5L 1053 122.23L 1072 113.69L 1087.5 106.42L 1100.6 100.54L 1112 95.47L 1131 87.025" fill="none" stroke-width="0.5" stroke="#000000" stroke-opacity="0.30196" stroke-linecap="round" stroke-linejoin="round"/>
  </g>
  <path d="M 74 33 L 74 88 L 348 88 L 348 33 z" fill="#FFFFFF" fill-opacity="0.7019607843137254" stroke-width="0.5" stroke="#000000" stroke-opacity="1" stroke-linecap="round" stroke-linejoin="round"/>
  <path d="M 88 52 L 108 52" fill="none" stroke-width="4" stroke="#FF3B30" stroke-opacity="1" stroke-linecap="round" stroke-linejoin="round"/>
  <path d="M 88 52 L 108 52" fill="none" stroke-width="0.5" stroke="#000000" stroke-opacity="0.30196" stroke-linecap="round" stroke-linejoin="round"/>
  <text x="119" y="56.17" font-family="Menlo" font-size="12" font-weight="normal" font-style="normal" fill="#000000" fill-opacity="1">Array&lt;Int&gt; random removals</text>
  <path d="M 88 69 L 108 69" fill="none" stroke-width="4" stroke="#007AFF" stroke-opacity="1" stroke-linecap="round" stroke-linejoin="round"/>
  <path d="M 88 69 L 108 69" fill="none" stroke-width="0.5" stroke="#000000" stroke-opacity="0.30196" stroke-linecap="round" stroke-linejoin="round"/>
  <text x="119" y="73.17" font-family="Menlo" font-size="12" font-weight="normal" font-style="normal" fill="#000000" fill-opacity="1">TreeArray&lt;Int&gt; random removals</text>
  <path d="M 50 9 L 50 441 L 1230 441 L 1230 9 z" fill="none" stroke-width="0.5" stroke="#000000" stroke-opacity="1" stroke-linecap="round" stroke-linejoin="round"/>
</svg>
