<!DOCTYPE svg PUBLIC "-//W3C//DTD SVG 1.1//EN" "http://www.w3.org/Graphics/SVG/1.1/DTD/svg11.dtd">
<svg width="1280.0px" height="480.0px" viewBox="0.0 0.0 1280.0 480.0" xmlns="http://www.w3.org/2000/svg" xmlns:xlink="http://www.w3.org/1999/xlink" version="1.1">
  <path d="M 0 0 L 0 480 L 1280 480 L 1280 0 z" fill="#FFFFFF" fill-opacity="1.0" stroke="none"/>
  <text x="50" y="468.7" font-family="Helvetica" font-size="10" font-weight="normal" font-style="normal" fill="#000000" fill-opacity="1">Average per-element processing time over input size (bands: min, mean, mean + 2stddev)</text>
  <a xlink:href="https://github.com/apple/swift-collections-benchmark"><text x="1107" y="468.7" font-family="Helvetica" font-size="10" font-weight="normal" font-style="normal" fill="#000000" fill-opacity="1">swift-collections-benchmark</text></a>
  <path d="M 50 9 L 50 441" fill="none" stroke-width="0.75" stroke="#000000" stroke-opacity="0.49804" stroke-linecap="butt" stroke-linejoin="round"/>
  <text x="47" y="453.7" font-family="Helvetica" font-size="10" font-weight="normal" font-style="normal" fill="#000000" fill-opacity="1">1</text>
  <path d="M 109 9 L 109 441" fill="none" stroke-width="0.75" stroke="#000000" stroke-opacity="0.49804" stroke-linecap="butt" stroke-linejoin="round"/>
  <text x="106" y="453.7" font-family="Helvetica" font-size="10" font-weight="normal" font-style="normal" fill="#000000" fill-opacity="1">2</text>
  <path d="M 168 9 L 168 441" fill="none" stroke-width="0.75" stroke="#000000" stroke-opacity="0.49804" stroke-linecap="butt" stroke-linejoin="round"/>
  <text x="165" y="453.7" font-family="Helvetica" font-size="10" font-weight="normal" font-style="normal" fill="#000000" fill-opacity="1">4</text>
  <path d="M 227 9 L 227 441" fill="none" stroke-width="0.75" stroke="#000000" stroke-opacity="0.49804" stroke-linecap="butt" stroke-linejoin="round"/>
  <text x="224" y="453.7" font-family="Helvetica" font-size="10" font-weight="normal" font-style="normal" fill="#000000" fill-opacity="1">8</text>
  <path d="M 286 9 L 286 441" fill="none" stroke-width="0.75" stroke="#000000" stroke-opacity="0.49804" stroke-linecap="butt" stroke-linejoin="round"/>
  <text x="280" y="453.7" font-family="Helvetica" font-size="10" font-weight="normal" font-style="normal" fill="#000000" fill-opacity="1">16</text>
  <path d="M 345 9 L 345 441" fill="none" stroke-width="0.75" stroke="#000000" stroke-opacity="0.49804" stroke-linecap="butt" stroke-linejoin="round"/>
  <text x="339" y="453.7" font-family="Helvetica" font-size="10" font-weight="normal" font-style="normal" fill="#000000" fill-opacity="1">32</text>
  <path d="M 404 9 L 404 441" fill="none" stroke-width="0.75" stroke="#000000" stroke-opacity="0.49804" stroke-linecap="butt" stroke-linejoin="round"/>
  <text x="398" y="453.7" font-family="Helvetica" font-size="10" font-weight="normal" font-style="normal" fill="#000000" fill-opacity="1">64</text>
  <path d="M 463 9 L 463 441" fill="none" stroke-width="0.75" stroke="#000000" stroke-opacity="0.49804" stroke-linecap="butt" stroke-linejoin="round"/>
  <text x="454.5" y="453.7" font-family="Helvetica" font-size="10" font-weight="normal" font-style="normal" fill="#000000" fill-opacity="1">128</text>
  <path d="M 522 9 L 522 441" fill="none" stroke-width="0.75" stroke="#000000" stroke-opacity="0.49804" stroke-linecap="butt" stroke-linejoin="round"/>
  <text x="513.5" y="453.7" font-family="Helvetica" font-size="10" font-weight="normal" font-style="normal" fill="#000000" fill-opacity="1">256</text>
  <path d="M 581 9 L 581 441" fill="none" stroke-width="0.75" stroke="#000000" stroke-opacity="0.49804" stroke-linecap="butt" stroke-linejoin="round"/>
  <text x="572.5" y="453.7" font-family="Helvetica" font-size="10" font-weight="normal" font-style="normal" fill="#000000" fill-opacity="1">512</text>
  <path d="M 640 9 L 640 441" fill="none" stroke-width="0.75" stroke="#000000" stroke-opacity="0.49804" stroke-linecap="butt" stroke-linejoin="round"/>
  <text x="634.5" y="453.7" font-family="Helvetica" font-size="10" font-weight="normal" font-style="normal" fill="#000000" fill-opacity="1">1k</text>
  <path d="M 699 9 L 699 441" fill="none" stroke-width="0.75" stroke="#000000" stroke-opacity="0.49804" stroke-linecap="butt" stroke-linejoin="round"/>
  <text x="693.5" y="453.7" font-family="Helvetica" font-size="10" font-weight="normal" font-style="normal" fill="#000000" fill-opacity="1">2k</text>
  <path d="M 758 9 L 758 441" fill="none" stroke-width="0.75" stroke="#000000" stroke-opacity="0.49804" stroke-linecap="butt" stroke-linejoin="round"/>
  <text x="752.5" y="453.7" font-family="Helvetica" font-size="10" font-weight="normal" font-style="normal" fill="#000000" fill-opacity="1">4k</text>
  <path d="M 817 9 L 817 441" fill="none" stroke-width="0.75" stroke="#000000" stroke-opacity="0.49804" stroke-linecap="butt" stroke-linejoin="round"/>
  <text x="811.5" y="453.7" font-family="Helvetica" font-size="10" font-weight="normal" font-style="normal" fill="#000000" fill-opacity="1">8k</text>
  <path d="M 876 9 L 876 441" fill="none" stroke-width="0.75" stroke="#000000" stroke-opacity="0.49804" stroke-linecap="butt" stroke-linejoin="round"/>
  <text x="867.5" y="453.7" font-family="Helvetica" font-size="10" font-weight="normal" font-style="normal" fill="#000000" fill-opacity="1">16k</text>
  <path d="M 935 9 L 935 441" fill="none" stroke-width="0.75" stroke="#000000" stroke-opacity="0.49804" stroke-linecap="butt" stroke-linejoin="round"/>
  <text x="926.5" y="453.7" font-family="Helvetica" font-size="10" font-weight="normal" font-style="normal" fill="#000000" fill-opacity="1">32k</text>
  <path d="M 994 9 L 994 441" fill="none" stroke-width="0.75" stroke="#000000" stroke-opacity="0.49804" stroke-linecap="butt" stroke-linejoin="round"/>
  <text x="985.5" y="453.7" font-family="Helvetica" font-size="10" font-weight="normal" font-style="normal" fill="#000000" fill-opacity="1">64k</text>
  <path d="M 1053 9 L 1053 441" fill="none" stroke-width="0.75" stroke="#000000" stroke-opacity="0.49804" stroke-linecap="butt" stroke-linejoin="round"/>
  <text x="1042" y="453.7" font-family="Helvetica" font-size="10" font-weight="normal" font-style="normal" fill="#000000" fill-opacity="1">128k</text>
  <path d="M 1112 9 L 1112 441" fill="none" stroke-width="0.75" stroke="#000000" stroke-opacity="0.49804" stroke-linecap="butt" stroke-linejoin="round"/>
  <text x="1101" y="453.7" font-family="Helvetica" font-size="10" font-weight="normal" font-style="normal" fill="#000000" fill-opacity="1">256k</text>
  <path d="M 1171 9 L 1171 441" fill="none" stroke-width="0.75" stroke="#000000" stroke-opacity="0.49804" stroke-linecap="butt" stroke-linejoin="round"/>
  <text x="1160" y="453.7" font-family="Helvetica" font-size="10" font-weight="normal" font-style="normal" fill="#000000" fill-opacity="1">512k</text>
  <path d="M 1230 9 L 1230 441" fill="none" stroke-width="0.75" stroke="#000000" stroke-opacity="0.49804" stroke-linecap="butt" stroke-linejoin="round"/>
  <text x="1223" y="453.7" font-family="Helvetica" font-size="10" font-weight="normal" font-style="normal" fill="#000000" fill-opacity="1">1M</text>
  <path d="M 50 441 L 1230 441" fill="none" stroke-width="0.75" stroke="#000000" stroke-opacity="0.49804" stroke-linecap="butt" stroke-linejoin="round"/>
  <text x="27" y="442.7" font-family="Helvetica" font-size="10" font-weight="normal" font-style="normal" fill="#000000" fill-opacity="1">1 ns</text>
  <text x="1236" y="442.7" font-family="Helvetica" font-size="10" font-weight="normal" font-style="normal" fill="#000000" fill-opacity="1">1 ns</text>
  <path d="M 50 354.6 L 1230 354.6" fill="none" stroke-width="0.75" stroke="#000000" stroke-opacity="0.49804" stroke-linecap="butt" stroke-linejoin="round"/>
  <text x="21" y="356.3" font-family="Helvetica" font-size="10" font-weight="normal" font-style="normal" fill="#000000" fill-opacity="1">10 ns</text>
  <text x="1236" y="356.3" font-family="Helvetica" font-size="10" font-weight="normal" font-style="normal" fill="#000000" fill-opacity="1">10 ns</text>
  <path d="M 50 268.2 L 1230 268.2" fill="none" stroke-width="0.75" stroke="#000000" stroke-opacity="0.49804" stroke-linecap="butt" stroke-linejoin="round"/>
  <text x="16" y="269.9" font-family="Helvetica" font-size="10" font-weight="normal" font-style="normal" fill="#000000" fill-opacity="1">100 ns</text>
  <text x="1236" y="269.9" font-family="Helvetica" font-size="10" font-weight="normal" font-style="normal" fill="#000000" fill-opacity="1">100 ns</text>
  <path d="M 50 181.8 L 1230 181.8" fill="none" stroke-width="0.75" stroke="#000000" stroke-opacity="0.49804" stroke-linecap="butt" stroke-linejoin="round"/>
  <text x="26" y="183.5" font-family="Helvetica" font-size="10" font-weight="normal" font-style="normal" fill="#000000" fill-opacity="1">1 µs</text>
  <text x="1236" y="183.5" font-family="Helvetica" font-size="10" font-weight="normal" font-style="normal" fill="#000000" fill-opacity="1">1 µs</text>
  <path d="M 50 95.4 L 1230 95.4" fill="none" stroke-width="0.75" stroke="#000000" stroke-opacity="0.49804" stroke-linecap="butt" stroke-linejoin="round"/>
  <text x="21" y="97.1" font-family="Helvetica" font-size="10" font-weight="normal" font-style="normal" fill="#000000" fill-opacity="1">10 µs</text>
  <text x="1236" y="97.1" font-family="Helvetica" font-size="10" font-weight="normal" font-style="normal" fill="#000000" fill-opacity="1">10 µs</text>
  <path d="M 50 9 L 1230 9" fill="none" stroke-width="0.75" stroke="#000000" stroke-opacity="0.49804" stroke-linecap="butt" stroke-linejoin="round"/>
  <text x="15" y="10.7" font-family="Helvetica" font-size="10" font-weight="normal" font-style="normal" fill="#000000" fill-opacity="1">100 µs</text>
  <text x="1236" y="10.7" font-family="Helvetica" font-size="10" font-weight="normal" font-style="normal" fill="#000000" fill-opacity="1">100 µs</text>
  <path d="M 50 414.99 L 1230 414.99" fill="none" stroke-width="0.5" stroke="#000000" stroke-opacity="0.25882" stroke-linecap="butt" stroke-linejoin="round" stroke-dasharray="6 3" stroke-dashoffset="0"/>
  <path d="M 50 388.98 L 1230 388.98" fill="none" stroke-width="0.5" stroke="#000000" stroke-opacity="0.25882" stroke-linecap="butt" stroke-linejoin="round" stroke-dasharray="6 3" stroke-dashoffset="0"/>
  <path d="M 50 362.97 L 1230 362.97" fill="none" stroke-width="0.5" stroke="#000000" stroke-opacity="0.25882" stroke-linecap="butt" stroke-linejoin="round" stroke-dasharray="6 3" stroke-dashoffset="0"/>
  <path d="M 50 336.96 L 1230 336.96" fill="none" stroke-width="0.5" stroke="#000000" stroke-opacity="0.25882" stroke-linecap="butt" stroke-linejoin="round" stroke-dasharray="6 3" stroke-dashoffset="0"/>
  <path d="M 50 310.96 L 1230 310.96" fill="none" stroke-width="0.5" stroke="#000000" stroke-opacity="0.25882" stroke-linecap="butt" stroke-linejoin="round" stroke-dasharray="6 3" stroke-dashoffset="0"/>
  <path d="M 50 284.95 L 1230 284.95" fill="none" stroke-width="0.5" stroke="#000000" stroke-opacity="0.25882" stroke-linecap="butt" stroke-linejoin="round" stroke-dasharray="6 3" stroke-dashoffset="0"/>
  <path d="M 50 258.94 L 1230 258.94" fill="none" stroke-width="0.5" stroke="#000000" stroke-opacity="0.25882" stroke-linecap="butt" stroke-linejoin="round" stroke-dasharray="6 3" stroke-dashoffset="0"/>
  <path d="M 50 232.93 L 1230 232.93" fill="none" stroke-width="0.5" stroke="#000000" stroke-opacity="0.25882" stroke-linecap="butt" stroke-linejoin="round" stroke-dasharray="6 3" stroke-dashoffset="0"/>
  <path d="M 50 206.92 L 1230 206.92" fill="none" stroke-width="0.5" stroke="#000000" stroke-opacity="0.25882" stroke-linecap="butt" stroke-linejoin="round" stroke-dasharray="6 3" stroke-dashoffset="0"/>
  <path d="M 50 180.91 L 1230 180.91" fill="none" stroke-width="0.5" stroke="#000000" stroke-opacity="0.25882" stroke-linecap="butt" stroke-linejoin="round" stroke-dasharray="6 3" stroke-dashoffset="0"/>
  <path d="M 50 154.9 L 1230 154.9" fill="none" stroke-width="0.5" stroke="#000000" stroke-opacity="0.25882" stroke-linecap="butt" stroke-linejoin="round" stroke-dasharray="6 3" stroke-dashoffset="0"/>
  <path d="M 50 128.89 L 1230 128.89" fill="none" stroke-width="0.5" stroke="#000000" stroke-opacity="0.25882" stroke-linecap="butt" stroke-linejoin="round" stroke-dasharray="6 3" stroke-dashoffset="0"/>
  <path d="M 50 102.88 L 1230 102.88" fill="none" stroke-width="0.5" stroke="#000000" stroke-opacity="0.25882" stroke-linecap="butt" stroke-linejoin="round" stroke-dasharray="6 3" stroke-dashoffset="0"/>
  <path d="M 50 76.874 L 1230 76.874" fill="none" stroke-width="0.5" stroke="#000000" stroke-opacity="0.25882" stroke-linecap="butt" stroke-linejoin="round" stroke-dasharray="6 3" stroke-dashoffset="0"/>
  <path d="M 50 50.865 L 1230 50.865" fill="none" stroke-width="0.5" stroke="#000000" stroke-opacity="0.25882" stroke-linecap="butt" stroke-linejoin="round" stroke-dasharray="6 3" stroke-dashoffset="0"/>
  <path d="M 50 24.856 L 1230 24.856" fill="none" stroke-width="0.5" stroke="#000000" stroke-opacity="0.25882" stroke-linecap="butt" stroke-linejoin="round" stroke-dasharray="6 3" stroke-dashoffset="0"/>
  <path d="M 74 33 L 74 88 L 348 88 L 348 33 z" fill="#FFFFFF" fill-opacity="1.0" stroke="none"/>
  <clipPath id="clip-0">
    <path d="M 50 9 L 50 441 L 1230 441 L 1230 9 z"/>
  </clipPath>
  <g clip-path="url(#clip-0)">
    <path d="M 50 301.66L 109 301.2L 143.51 301.05L 168 286.52L 186.99 294.21L 202.51 278.55L 215.63 284.12L 227 280.24L 245.99 270.09L 261.51 272.27L 274.63 271.32L 286 274.01L 304.99 260.19L 320.51 265.51L 333.63 260.97L 345 252.8L 363.99 255.42L 379.51 254.55L 392.63 253.71L 404 249.41L 422.99 247.58L 438.51 248.4L 451.63 245.44L 463 244.19L 481.99 239.56L 497.51 239.05L 510.63 240.56L 522 240.54L 540.99 238.82L 556.51 235.89L 569.63 224.39L 581 233.54L 599.99 231.89L 615.51 230L 628.63 229.69L 640 230.08L 658.99 228.05L 674.51 227.12L 687.63 227.67L 699 221.85L 717.99 223.01L 733.51 221.67L 746.63 222.71L 758 221.84L 776.99 219.55L 792.51 218.03L 805.63 216.19L 817 216.95L 835.99 212.71L 851.51 212.16L 864.63 211.52L 876 209.48L 894.99 207L 910.51 206.11L 923.63 206.65L 935 203.71L 953.99 208.28L 969.51 199.75L 982.63 195.17L 994 199.2L 1013 203.79L 1028.5 203.82L 1041.6 200.77L 1053 201.69L 1072 200.99L 1087.5 197.58L 1100.6 197.64L 1112 196.07L 1131 194.11L 1146.5 184.6L 1159.6 187.57L 1171 184.45L 1190 183.24L 1205.5 183.37L 1218.6 180.24L 1230 176.77L 1230 180.19L 1218.6 182.44L 1205.5 183.65L 1190 185.33L 1171 188.98L 1159.6 189.44L 1146.5 192.17L 1131 194.31L 1112 196.74L 1100.6 198.03L 1087.5 199.49L 1072 201.33L 1053 202.5L 1041.6 202.36L 1028.5 203.9L 1013 204.43L 994 206.27L 982.63 206.8L 969.51 207.35L 953.99 208.47L 935 209.29L 923.63 210.53L 910.51 209.82L 894.99 212.24L 876 212.86L 864.63 214.23L 851.51 214.71L 835.99 214.2L 817 216.98L 805.63 217.75L 792.51 219.09L 776.99 220.44L 758 222.15L 746.63 223.11L 733.51 224L 717.99 225.17L 699 227.24L 687.63 227.76L 674.51 228.73L 658.99 229.92L 640 230.36L 628.63 231.77L 615.51 232.75L 599.99 234.94L 581 236.03L 569.63 236.52L 556.51 237.33L 540.99 240.71L 522 241.79L 510.63 242.8L 497.51 241.65L 481.99 245.19L 463 247.95L 451.63 248.95L 438.51 249.52L 422.99 251.21L 404 254.89L 392.63 254.82L 379.51 255.87L 363.99 255.97L 345 262.67L 333.63 266.68L 320.51 266.67L 304.99 269.79L 286 276.22L 274.63 273.73L 261.51 278.33L 245.99 276.95L 227 285.84L 215.63 284.12L 202.51 285.84L 186.99 294.21L 168 300.98L 143.51 301.05L 109 301.2L 50 301.66" fill="#007AFF" fill-opacity="0.30196078431372547" stroke="none"/>
    <path d="M 50 300.75L 109 326.76L 143.51 341.97L 168 352.77L 186.99 360.33L 202.51 367.18L 215.63 374.67L 227 377.97L 245.99 386.34L 261.51 394.9L 274.63 374.22L 286 379.23L 304.99 362.18L 320.51 379.08L 333.63 384.86L 345 378.8L 363.99 366.99L 379.51 368.61L 392.63 370.1L 404 367.53L 422.99 355.71L 438.51 368.47L 451.63 364.17L 463 364.03L 481.99 361.52L 497.51 354.94L 510.63 355.98L 522 350.27L 540.99 342.69L 556.51 337.75L 569.63 329.43L 581 326.88L 599.99 320.76L 615.51 320L 628.63 309.19L 640 306.97L 658.99 304.2L 674.51 294.23L 687.63 291.12L 699 286.53L 717.99 280.09L 733.51 274.18L 746.63 266.88L 758 263.65L 776.99 255.09L 792.51 247.93L 805.63 242.32L 817 237.72L 835.99 227.52L 851.51 221.71L 864.63 214.92L 876 210.46L 894.99 202.46L 910.51 194.2L 923.63 186.73L 935 180.65L 953.99 170.38L 969.51 162.17L 982.63 155.25L 994 149.62L 1013 140.05L 1028.5 133.64L 1041.6 127.43L 1053 121.64L 1072 113.61L 1087.5 106.18L 1100.6 99.443L 1112 94.649L 1131 87.025L 1131 87.025L 1112 95.765L 1100.6 100.94L 1087.5 106.51L 1072 113.72L 1053 122.44L 1041.6 127.52L 1028.5 133.83L 1013 140.96L 994 150.13L 982.63 155.56L 969.51 162.31L 953.99 170.44L 935 180.74L 923.63 186.89L 910.51 194.35L 894.99 202.52L 876 211.48L 864.63 216.72L 851.51 222.48L 835.99 229.64L 817 237.85L 805.63 242.6L 792.51 248.48L 776.99 256.48L 758 264.27L 746.63 269.25L 733.51 274.23L 717.99 280.9L 699 288.36L 687.63 293.4L 674.51 300.59L 658.99 306.47L 640 313.8L 628.63 316.41L 615.51 322.9L 599.99 326.71L 581 333.26L 569.63 336.97L 556.51 341.41L 540.99 347.01L 522 351.36L 510.63 358.85L 497.51 361.84L 481.99 363.86L 463 367.11L 451.63 371.76L 438.51 373.31L 422.99 375.45L 404 374.66L 392.63 379.03L 379.51 379.08L 363.99 378.96L 345 379.23L 333.63 384.86L 320.51 379.08L 304.99 387.6L 286 379.23L 274.63 374.22L 261.51 394.9L 245.99 388.06L 227 379.68L 215.63 374.67L 202.51 368.89L 186.99 362.05L 168 352.77L 143.51 341.97L 109 326.76L 50 300.75" fill="#FF3B30" fill-opacity="0.30196078431372547" stroke="none"/>
    <path d="M 50 301.66L 109 301.2L 143.51 301.05L 168 296.63L 186.99 294.21L 202.51 283.79L 215.63 284.12L 227 284.29L 245.99 275.03L 261.51 276.65L 274.63 273.09L 286 275.63L 304.99 267.04L 320.51 266.36L 333.63 265.1L 345 259.83L 363.99 255.82L 379.51 255.52L 392.63 254.52L 404 253.38L 422.99 250.22L 438.51 249.23L 451.63 248L 463 246.93L 481.99 243.63L 497.51 240.95L 510.63 242.2L 522 241.46L 540.99 240.2L 556.51 236.95L 569.63 232.96L 581 235.36L 599.99 234.12L 615.51 232.01L 628.63 231.21L 640 230.29L 658.99 229.42L 674.51 228.3L 687.63 227.74L 699 225.76L 717.99 224.59L 733.51 223.37L 746.63 223L 758 222.07L 776.99 220.21L 792.51 218.81L 805.63 217.33L 817 216.97L 835.99 213.8L 851.51 214.03L 864.63 213.5L 876 211.95L 894.99 210.8L 910.51 208.81L 923.63 209.48L 935 207.75L 953.99 208.42L 969.51 205.21L 982.63 203.39L 994 204.29L 1013 204.26L 1028.5 203.88L 1041.6 201.94L 1053 202.28L 1072 201.24L 1087.5 198.99L 1100.6 197.92L 1112 196.56L 1131 194.26L 1146.5 190.04L 1159.6 188.94L 1171 187.74L 1190 184.78L 1205.5 183.58L 1218.6 181.85L 1230 179.27" fill="none" stroke-width="4" stroke="#007AFF" stroke-opacity="1" stroke-linecap="round" stroke-linejoin="round"/>
    <path d="M 50 300.75L 109 326.76L 143.51 341.97L 168 352.77L 186.99 361.59L 202.51 368.43L 215.63 374.67L 227 379.23L 245.99 387.6L 261.51 394.9L 274.63 374.22L 286 379.23L 304.99 379.14L 320.51 379.08L 333.63 384.86L 345 379.11L 363.99 375.45L 379.51 376.05L 392.63 376.49L 404 372.66L 422.99 369.21L 438.51 371.99L 451.63 369.62L 463 366.28L 481.99 363.24L 497.51 359.91L 510.63 358.08L 522 351.07L 540.99 345.84L 556.51 340.42L 569.63 334.85L 581 331.49L 599.99 325.06L 615.51 322.12L 628.63 314.39L 640 311.89L 658.99 305.86L 674.51 298.82L 687.63 292.79L 699 287.88L 717.99 280.69L 733.51 274.21L 746.63 268.61L 758 264.11L 776.99 256.12L 792.51 248.34L 805.63 242.53L 817 237.82L 835.99 229.07L 851.51 222.27L 864.63 216.24L 876 211.21L 894.99 202.5L 910.51 194.31L 923.63 186.85L 935 180.71L 953.99 170.42L 969.51 162.27L 982.63 155.48L 994 150L 1013 140.72L 1028.5 133.78L 1041.6 127.5L 1053 122.23L 1072 113.69L 1087.5 106.42L 1100.6 100.54L 1112 95.47L 1131 87.025" fill="none" stroke-width="4" stroke="#FF3B30" stroke-opacity="1" stroke-linecap="round" stroke-linejoin="round"/>
    <path d="M 50 301.66L 109 301.2L 143.51 301.05L 168 296.63L 186.99 294.21L 202.51 283.79L 215.63 284.12L 227 284.29L 245.99 275.03L 261.51 276.65L 274.63 273.09L 286 275.63L 304.99 267.04L 320.51 266.36L 333.63 265.1L 345 259.83L 363.99 255.82L 379.51 255.52L 392.63 254.52L 404 253.38L 422.99 250.22L 438.51 249.23L 451.63 248L 463 246.93L 481.99 243.63L 497.51 240.95L 510.63 242.2L 522 241.46L 540.99 240.2L 556.51 236.95L 569.63 232.96L 581 235.36L 599.99 234.12L 615.51 232.01L 628.63 231.21L 640 230.29L 658.99 229.42L 674.51 228.3L 687.63 227.74L 699 225.76L 717.99 224.59L 733.51 223.37L 746.63 223L 758 222.07L 776.99 220.21L 792.51 218.81L 805.63 217.33L 817 216.97L 835.99 213.8L 851.51 214.03L 864.63 213.5L 876 211.95L 894.99 210.8L 910.51 208.81L 923.63 209.48L 935 207.75L 953.99 208.42L 969.51 205.21L 982.63 203.39L 994 204.29L 1013 204.26L 1028.5 203.88L 1041.6 201.94L 1053 202.28L 1072 201.24L 1087.5 198.99L 1100.6 197.92L 1112 196.56L 1131 194.26L 1146.5 190.04L 1159.6 188.94L 1171 187.74L 1190 184.78L 1205.5 183.58L 1218.6 181.85L 1230 179.27" fill="none" stroke-width="0.5" stroke="#000000" stroke-opacity="0.30196" stroke-linecap="round" stroke-linejoin="round"/>
    <path d="M 50 300.75L 109 326.76L 143.51 341.97L 168 352.77L 186.99 361.59L 202.51 368.43L 215.63 374.67L 227 379.23L 245.99 387.6L 261.51 394.9L 274.63 374.22L 286 379.23L 304.99 379.14L 320.51 379.08L 333.63 384.86L 345 379.11L 363.99 375.45L 379.51 376.05L 392.63 376.49L 404 372.66L 422.99 369.21L 438.51 371.99L 451.63 369.62L 463 366.28L 481.99 363.24L 497.51 359.91L 510.63 358.08L 522 351.07L 540.99 345.84L 556.51 340.42L 569.63 334.85L 581 331.49L 599.99 325.06L 615.51 322.12L 628.63 314.39L 640 311.89L 658.99 305.86L 674.51 298.82L 687.63 292.79L 699 287.88L 717.99 280.69L 733.51 274.21L 746.63 268.61L 758 264.11L 776.99 256.12L 792.51 248.34L 805.63 242.53L 817 237.82L 835.99 229.07L 851.51 222.27L 864.63 216.24L 876 211.21L 894.99 202.5L 910.51 194.31L 923.63 186.85L 935 180.71L 953.99 170.42L 969.51 162.27L 982.63 155.48L 994 150L 1013 140.72L 1028.5 133.78L 1041.6 127.5L 1053 122.23L 1072 113.69L 1087.5 106.42L 1100.6 100.54L 1112 95.47L 1131 87.025" fill="none" stroke-width="0.5" stroke="#000000" stroke-opacity="0.30196" stroke-linecap="round" stroke-linejoin="round"/>
  </g>
  <path d="M 74 33 L 74 88 L 348 88 L 348 33 z" fill="#FFFFFF" fill-opacity="0.7019607843137254" stroke-width="0.5" stroke="#000000" stroke-opacity="1" stroke-linecap="round" stroke-linejoin="round"/>
  <path d="M 88 52 L 108 52" fill="none" stroke-width="4" stroke="#FF3B30" stroke-opacity="1" stroke-linecap="round" stroke-linejoin="round"/>
  <path d="M 88 52 L 108 52" fill="none" stroke-width="0.5" stroke="#000000" stroke-opacity="0.30196" stroke-linecap="round" stroke-linejoin="round"/>
  <text x="119" y="56.17" font-family="Menlo" font-size="12" font-weight="normal" font-style="normal" fill="#000000" fill-opacity="1">Array&lt;Int&gt; random removals</text>
  <path d="M 88 69 L 108 69" fill="none" stroke-width="4" stroke="#007AFF" stroke-opacity="1" stroke-linecap="round" stroke-linejoin="round"/>
  <path d="M 88 69 L 108 69" fill="none" stroke-width="0.5" stroke="#000000" stroke-opacity="0.30196" stroke-linecap="round" stroke-linejoin="round"/>
  <text x="119" y="73.17" font-family="Menlo" font-size="12" font-weight="normal" font-style="normal" fill="#000000" fill-opacity="1">TreeArray&lt;Int&gt; random removals</text>
  <path d="M 50 9 L 50 441 L 1230 441 L 1230 9 z" fill="none" stroke-width="0.5" stroke="#000000" stroke-opacity="1" stroke-linecap="round" stroke-linejoin="round"/>
</svg>
